%TF.GenerationSoftware,KiCad,Pcbnew,8.0.7*%
%TF.CreationDate,2024-12-23T17:36:37-05:00*%
%TF.ProjectId,tac5212_audio_board_single_ended,74616335-3231-4325-9f61-7564696f5f62,rev?*%
%TF.SameCoordinates,Original*%
%TF.FileFunction,Copper,L3,Inr*%
%TF.FilePolarity,Positive*%
%FSLAX46Y46*%
G04 Gerber Fmt 4.6, Leading zero omitted, Abs format (unit mm)*
G04 Created by KiCad (PCBNEW 8.0.7) date 2024-12-23 17:36:37*
%MOMM*%
%LPD*%
G01*
G04 APERTURE LIST*
%TA.AperFunction,ComponentPad*%
%ADD10C,0.500000*%
%TD*%
%TA.AperFunction,ComponentPad*%
%ADD11R,1.700000X1.700000*%
%TD*%
%TA.AperFunction,ComponentPad*%
%ADD12O,1.700000X1.700000*%
%TD*%
%TA.AperFunction,ComponentPad*%
%ADD13C,3.200000*%
%TD*%
%TA.AperFunction,ComponentPad*%
%ADD14R,0.500000X0.500000*%
%TD*%
%TA.AperFunction,ViaPad*%
%ADD15C,0.800000*%
%TD*%
%TA.AperFunction,Conductor*%
%ADD16C,0.750000*%
%TD*%
%TA.AperFunction,Conductor*%
%ADD17C,0.250000*%
%TD*%
G04 APERTURE END LIST*
D10*
%TO.N,Earth*%
%TO.C,G109*%
X99200000Y-117200000D03*
%TD*%
%TO.N,Earth*%
%TO.C,G111*%
X92300000Y-118400000D03*
%TD*%
%TO.N,Earth*%
%TO.C,G113*%
X102600000Y-118400000D03*
%TD*%
%TO.N,Earth*%
%TO.C,G115*%
X103200000Y-119300000D03*
%TD*%
%TO.N,Earth*%
%TO.C,G114*%
X123500000Y-113700000D03*
%TD*%
%TO.N,Earth*%
%TO.C,G116*%
X125900000Y-110200000D03*
%TD*%
%TO.N,Earth*%
%TO.C,G108*%
X115800000Y-114500000D03*
%TD*%
%TO.N,Earth*%
%TO.C,G112*%
X118400000Y-114000000D03*
%TD*%
%TO.N,Earth*%
%TO.C,G110*%
X117100000Y-114000000D03*
%TD*%
D11*
%TO.N,EN_HELD_HIGH*%
%TO.C,board_outline108*%
X89337500Y-122600000D03*
D12*
%TO.N,unconnected-(board_outline108-HELD_LOW-Pad2)*%
X86797500Y-122600000D03*
%TO.N,Net-(5V108-B)*%
X89337500Y-120060000D03*
%TO.N,GNDD*%
X86797500Y-120060000D03*
%TO.N,unconnected-(board_outline108-12V-Pad5)*%
X89337500Y-117520000D03*
%TO.N,GNDD*%
X86797500Y-117520000D03*
%TO.N,5212_DOUT1+*%
X89337500Y-114980000D03*
%TO.N,GNDD*%
X86797500Y-114980000D03*
%TO.N,5212_DIN1*%
X89337500Y-112440000D03*
%TO.N,GNDD*%
X86797500Y-112440000D03*
%TO.N,5212_BCLK1*%
X89337500Y-109900000D03*
%TO.N,GNDD*%
X86797500Y-109900000D03*
%TO.N,5212_LRCK1*%
X89337500Y-107360000D03*
%TO.N,GNDD*%
X86797500Y-107360000D03*
%TO.N,DSP_SDA*%
X89337500Y-104820000D03*
%TO.N,GNDD*%
X86797500Y-104820000D03*
%TO.N,DSP_SCL*%
X89337500Y-102280000D03*
%TO.N,GNDD*%
X86797500Y-102280000D03*
%TO.N,5212_MCLK1*%
X89337500Y-99740000D03*
%TO.N,GNDD*%
X86797500Y-99740000D03*
D11*
%TO.N,OUT1P+*%
X102047500Y-102285000D03*
%TO.N,Earth*%
X102047500Y-99745000D03*
D12*
%TO.N,OUT1M+*%
X104587500Y-102285000D03*
%TO.N,Earth*%
X104587500Y-99745000D03*
%TO.N,OUT2P+*%
X107127500Y-102285000D03*
%TO.N,Earth*%
X107127500Y-99745000D03*
%TO.N,OUT2M+*%
X109667500Y-102285000D03*
%TO.N,Earth*%
X109667500Y-99745000D03*
%TO.N,IN1P+*%
X112207500Y-102285000D03*
%TO.N,Earth*%
X112207500Y-99745000D03*
%TO.N,IN1M+*%
X114747500Y-102285000D03*
%TO.N,Earth*%
X114747500Y-99745000D03*
%TO.N,IN2P+*%
X117287500Y-102285000D03*
%TO.N,Earth*%
X117287500Y-99745000D03*
%TO.N,IN2M+*%
X119827500Y-102285000D03*
%TO.N,Earth*%
X119827500Y-99745000D03*
D11*
%TO.N,5212_SCL*%
X102047500Y-122605000D03*
D12*
%TO.N,5212_SDA*%
X104587500Y-122605000D03*
%TO.N,GNDD*%
X107127500Y-122605000D03*
%TO.N,GPIO1*%
X109667500Y-122605000D03*
%TO.N,GPIO2*%
X112207500Y-122605000D03*
%TO.N,GPO1*%
X114747500Y-122605000D03*
%TO.N,GPI1*%
X117287500Y-122605000D03*
%TO.N,GNDD*%
X119827500Y-122605000D03*
%TO.N,5V*%
X124892500Y-117525000D03*
%TO.N,3.3V_LDO*%
X124892500Y-114985000D03*
%TO.N,GNDD*%
X124892500Y-112445000D03*
%TO.N,MICBIAS*%
X122352500Y-102285000D03*
D13*
%TO.N,Net-(E108-B)*%
X96952500Y-99745000D03*
%TO.N,Net-(E109-B)*%
X124892500Y-99745000D03*
%TO.N,Net-(G117-A)*%
X96952500Y-122605000D03*
%TO.N,Net-(G118-A)*%
X124892500Y-122605000D03*
%TD*%
D10*
%TO.N,GNDD*%
%TO.C,TAC5212*%
X108705025Y-111494975D03*
X108705025Y-110505025D03*
X109200000Y-111000000D03*
X109694975Y-111494975D03*
X109694975Y-110505025D03*
%TD*%
D14*
%TO.N,OUT2P*%
%TO.C,OP2*%
X100300000Y-107425000D03*
%TD*%
%TO.N,IN2P*%
%TO.C,INP2*%
X121400000Y-107435000D03*
%TD*%
%TO.N,IN2M*%
%TO.C,INM2*%
X125000000Y-107482500D03*
%TD*%
%TO.N,OUT2M*%
%TO.C,OM2*%
X104200000Y-107200000D03*
%TD*%
%TO.N,OUT1P*%
%TO.C,OP1*%
X96000000Y-107500000D03*
%TD*%
%TO.N,IN1M*%
%TO.C,INM1*%
X117800000Y-107362500D03*
%TD*%
%TO.N,OUT1M*%
%TO.C,OM1*%
X91700000Y-106500000D03*
%TD*%
%TO.N,IN1P*%
%TO.C,INP1*%
X114200000Y-107425000D03*
%TD*%
D15*
%TO.N,Earth*%
X126400000Y-113600000D03*
X94400000Y-98400000D03*
%TO.N,GNDD*%
X94800000Y-118200000D03*
X124800000Y-119000000D03*
X98000000Y-110000000D03*
%TO.N,Earth*%
X94600000Y-105800000D03*
X124064601Y-102335399D03*
X111200000Y-104200000D03*
X108200000Y-105200000D03*
X94400000Y-101000000D03*
X96200000Y-103200000D03*
%TO.N,GNDD*%
X119400000Y-114600000D03*
X92600000Y-114800000D03*
X109250000Y-113985355D03*
X92000000Y-123600000D03*
X123200000Y-114800000D03*
X115400000Y-113600000D03*
X99400000Y-123800000D03*
X91719599Y-111998440D03*
X109200000Y-107800000D03*
X107711709Y-119246986D03*
X99000000Y-118800000D03*
X100718700Y-117875000D03*
%TO.N,5V*%
X94569964Y-120430000D03*
%TO.N,Earth*%
X103224739Y-107762663D03*
X112825000Y-110225000D03*
%TO.N,EN_HELD_HIGH*%
X117100000Y-115600000D03*
%TO.N,5212_SCL*%
X102047500Y-119900002D03*
%TO.N,5212_SDA*%
X92004802Y-120161926D03*
X92007954Y-103082209D03*
%TO.N,3.3V_LDO*%
X100675000Y-108873986D03*
X94600000Y-115050000D03*
X105600000Y-119400000D03*
%TO.N,GPI1*%
X85600000Y-116400000D03*
%TO.N,Net-(PU_EN108-Pad1)*%
X110338844Y-119622742D03*
X104430004Y-119430004D03*
%TD*%
D16*
%TO.N,5V*%
X121237500Y-121180000D02*
X106851651Y-121180000D01*
X101027931Y-120430000D02*
X94569964Y-120430000D01*
X101622931Y-121025000D02*
X101027931Y-120430000D01*
X124892500Y-117525000D02*
X121237500Y-121180000D01*
X106851651Y-121180000D02*
X106696652Y-121025000D01*
X106696652Y-121025000D02*
X101622931Y-121025000D01*
D17*
%TO.N,5212_SDA*%
X90450000Y-112878984D02*
X90450001Y-113907394D01*
X90700000Y-118857124D02*
X92004802Y-120161926D01*
X90700000Y-112628984D02*
X90450000Y-112878984D01*
X90450001Y-113907394D02*
X90700000Y-114157393D01*
X90700000Y-104390163D02*
X90700000Y-112628984D01*
X90700000Y-114157393D02*
X90700000Y-118857124D01*
X92007954Y-103082209D02*
X90700000Y-104390163D01*
D16*
%TO.N,3.3V_LDO*%
X122277500Y-117600000D02*
X110741258Y-117600000D01*
X110741258Y-117600000D02*
X108111258Y-120230000D01*
X106415154Y-119400000D02*
X105600000Y-119400000D01*
X105600000Y-117100000D02*
X105600000Y-119400000D01*
X93800000Y-114250000D02*
X93800000Y-110800000D01*
X93800000Y-110800000D02*
X95726014Y-108873986D01*
X94600000Y-115050000D02*
X94750000Y-114900000D01*
X94600000Y-115050000D02*
X93800000Y-114250000D01*
X95726014Y-108873986D02*
X100675000Y-108873986D01*
X94750000Y-114900000D02*
X103400000Y-114900000D01*
X108111258Y-120230000D02*
X107245154Y-120230000D01*
X107245154Y-120230000D02*
X106415154Y-119400000D01*
X124892500Y-114985000D02*
X122277500Y-117600000D01*
X103400000Y-114900000D02*
X105600000Y-117100000D01*
%TD*%
%TA.AperFunction,Conductor*%
%TO.N,Earth*%
G36*
X104121575Y-99552007D02*
G01*
X104087500Y-99679174D01*
X104087500Y-99810826D01*
X104121575Y-99937993D01*
X104154488Y-99995000D01*
X102480512Y-99995000D01*
X102513425Y-99937993D01*
X102547500Y-99810826D01*
X102547500Y-99679174D01*
X102513425Y-99552007D01*
X102480512Y-99495000D01*
X104154488Y-99495000D01*
X104121575Y-99552007D01*
G37*
%TD.AperFunction*%
%TA.AperFunction,Conductor*%
G36*
X106661575Y-99552007D02*
G01*
X106627500Y-99679174D01*
X106627500Y-99810826D01*
X106661575Y-99937993D01*
X106694488Y-99995000D01*
X105020512Y-99995000D01*
X105053425Y-99937993D01*
X105087500Y-99810826D01*
X105087500Y-99679174D01*
X105053425Y-99552007D01*
X105020512Y-99495000D01*
X106694488Y-99495000D01*
X106661575Y-99552007D01*
G37*
%TD.AperFunction*%
%TA.AperFunction,Conductor*%
G36*
X109201575Y-99552007D02*
G01*
X109167500Y-99679174D01*
X109167500Y-99810826D01*
X109201575Y-99937993D01*
X109234488Y-99995000D01*
X107560512Y-99995000D01*
X107593425Y-99937993D01*
X107627500Y-99810826D01*
X107627500Y-99679174D01*
X107593425Y-99552007D01*
X107560512Y-99495000D01*
X109234488Y-99495000D01*
X109201575Y-99552007D01*
G37*
%TD.AperFunction*%
%TA.AperFunction,Conductor*%
G36*
X111741575Y-99552007D02*
G01*
X111707500Y-99679174D01*
X111707500Y-99810826D01*
X111741575Y-99937993D01*
X111774488Y-99995000D01*
X110100512Y-99995000D01*
X110133425Y-99937993D01*
X110167500Y-99810826D01*
X110167500Y-99679174D01*
X110133425Y-99552007D01*
X110100512Y-99495000D01*
X111774488Y-99495000D01*
X111741575Y-99552007D01*
G37*
%TD.AperFunction*%
%TA.AperFunction,Conductor*%
G36*
X114281575Y-99552007D02*
G01*
X114247500Y-99679174D01*
X114247500Y-99810826D01*
X114281575Y-99937993D01*
X114314488Y-99995000D01*
X112640512Y-99995000D01*
X112673425Y-99937993D01*
X112707500Y-99810826D01*
X112707500Y-99679174D01*
X112673425Y-99552007D01*
X112640512Y-99495000D01*
X114314488Y-99495000D01*
X114281575Y-99552007D01*
G37*
%TD.AperFunction*%
%TA.AperFunction,Conductor*%
G36*
X116821575Y-99552007D02*
G01*
X116787500Y-99679174D01*
X116787500Y-99810826D01*
X116821575Y-99937993D01*
X116854488Y-99995000D01*
X115180512Y-99995000D01*
X115213425Y-99937993D01*
X115247500Y-99810826D01*
X115247500Y-99679174D01*
X115213425Y-99552007D01*
X115180512Y-99495000D01*
X116854488Y-99495000D01*
X116821575Y-99552007D01*
G37*
%TD.AperFunction*%
%TA.AperFunction,Conductor*%
G36*
X119361575Y-99552007D02*
G01*
X119327500Y-99679174D01*
X119327500Y-99810826D01*
X119361575Y-99937993D01*
X119394488Y-99995000D01*
X117720512Y-99995000D01*
X117753425Y-99937993D01*
X117787500Y-99810826D01*
X117787500Y-99679174D01*
X117753425Y-99552007D01*
X117720512Y-99495000D01*
X119394488Y-99495000D01*
X119361575Y-99552007D01*
G37*
%TD.AperFunction*%
%TA.AperFunction,Conductor*%
G36*
X96058017Y-97963907D02*
G01*
X96093981Y-98013407D01*
X96093981Y-98074593D01*
X96058017Y-98124093D01*
X96047272Y-98130890D01*
X95949488Y-98184283D01*
X95737590Y-98342908D01*
X95550408Y-98530090D01*
X95391783Y-98741988D01*
X95264927Y-98974307D01*
X95264926Y-98974309D01*
X95172424Y-99222317D01*
X95116156Y-99480979D01*
X95097273Y-99745000D01*
X95116156Y-100009020D01*
X95116156Y-100009023D01*
X95116157Y-100009026D01*
X95144486Y-100139252D01*
X95172424Y-100267682D01*
X95264926Y-100515690D01*
X95264927Y-100515692D01*
X95391784Y-100748011D01*
X95391783Y-100748011D01*
X95550408Y-100959909D01*
X95550410Y-100959911D01*
X95550413Y-100959915D01*
X95737585Y-101147087D01*
X95737588Y-101147089D01*
X95737590Y-101147091D01*
X95949488Y-101305716D01*
X96181807Y-101432572D01*
X96181811Y-101432574D01*
X96429817Y-101525075D01*
X96429822Y-101525077D01*
X96688474Y-101581343D01*
X96952500Y-101600227D01*
X97216526Y-101581343D01*
X97475178Y-101525077D01*
X97723189Y-101432574D01*
X97955511Y-101305716D01*
X98167415Y-101147087D01*
X98354587Y-100959915D01*
X98513216Y-100748011D01*
X98570653Y-100642824D01*
X100697499Y-100642824D01*
X100703901Y-100702370D01*
X100703903Y-100702381D01*
X100754146Y-100837088D01*
X100754147Y-100837090D01*
X100840307Y-100952184D01*
X100840315Y-100952192D01*
X100955409Y-101038352D01*
X100955411Y-101038353D01*
X101021128Y-101062864D01*
X101069043Y-101100914D01*
X101085441Y-101159861D01*
X101064060Y-101217189D01*
X101041534Y-101237937D01*
X101016902Y-101254395D01*
X101016897Y-101254400D01*
X100961535Y-101337257D01*
X100961533Y-101337263D01*
X100947001Y-101410315D01*
X100947000Y-101410327D01*
X100947000Y-103159672D01*
X100947001Y-103159684D01*
X100961533Y-103232736D01*
X100961535Y-103232742D01*
X101016897Y-103315599D01*
X101016899Y-103315601D01*
X101099760Y-103370966D01*
X101147690Y-103380500D01*
X101172815Y-103385498D01*
X101172820Y-103385498D01*
X101172826Y-103385500D01*
X101172827Y-103385500D01*
X102922173Y-103385500D01*
X102922174Y-103385500D01*
X102995240Y-103370966D01*
X103078101Y-103315601D01*
X103133466Y-103232740D01*
X103148000Y-103159674D01*
X103148000Y-101410326D01*
X103133466Y-101337260D01*
X103078101Y-101254399D01*
X103078099Y-101254397D01*
X103053466Y-101237938D01*
X103015586Y-101189888D01*
X103013184Y-101128750D01*
X103047176Y-101077876D01*
X103073871Y-101062863D01*
X103139592Y-101038351D01*
X103254684Y-100952192D01*
X103254692Y-100952184D01*
X103340852Y-100837090D01*
X103340853Y-100837088D01*
X103391096Y-100702381D01*
X103391098Y-100702370D01*
X103392722Y-100687269D01*
X103417741Y-100631432D01*
X103470801Y-100600965D01*
X103531636Y-100607504D01*
X103561159Y-100627846D01*
X103716426Y-100783113D01*
X103909922Y-100918600D01*
X104124009Y-101018430D01*
X104237018Y-101048711D01*
X104288332Y-101082035D01*
X104310259Y-101139156D01*
X104294424Y-101198257D01*
X104247157Y-101236653D01*
X104094863Y-101295652D01*
X104027664Y-101337260D01*
X103921459Y-101403019D01*
X103770737Y-101540420D01*
X103647828Y-101703177D01*
X103647823Y-101703186D01*
X103556919Y-101885747D01*
X103556918Y-101885750D01*
X103501103Y-102081917D01*
X103482285Y-102285000D01*
X103501103Y-102488083D01*
X103556918Y-102684250D01*
X103647827Y-102866821D01*
X103770736Y-103029579D01*
X103921459Y-103166981D01*
X104094863Y-103274348D01*
X104285044Y-103348024D01*
X104485524Y-103385500D01*
X104689476Y-103385500D01*
X104889956Y-103348024D01*
X105080137Y-103274348D01*
X105253541Y-103166981D01*
X105404264Y-103029579D01*
X105527173Y-102866821D01*
X105618082Y-102684250D01*
X105673897Y-102488083D01*
X105692715Y-102285000D01*
X105673897Y-102081917D01*
X105618082Y-101885750D01*
X105527173Y-101703179D01*
X105404264Y-101540421D01*
X105253541Y-101403019D01*
X105080137Y-101295652D01*
X104927840Y-101236652D01*
X104880410Y-101198001D01*
X104864756Y-101138852D01*
X104886859Y-101081799D01*
X104937981Y-101048711D01*
X105050990Y-101018430D01*
X105265077Y-100918600D01*
X105458573Y-100783113D01*
X105625613Y-100616073D01*
X105761101Y-100422576D01*
X105761102Y-100422574D01*
X105767775Y-100408265D01*
X105809503Y-100363516D01*
X105869564Y-100351841D01*
X105925017Y-100377698D01*
X105947225Y-100408265D01*
X105953897Y-100422574D01*
X105953898Y-100422576D01*
X106089386Y-100616073D01*
X106256426Y-100783113D01*
X106449922Y-100918600D01*
X106664009Y-101018430D01*
X106777018Y-101048711D01*
X106828332Y-101082035D01*
X106850259Y-101139156D01*
X106834424Y-101198257D01*
X106787157Y-101236653D01*
X106634863Y-101295652D01*
X106567664Y-101337260D01*
X106461459Y-101403019D01*
X106310737Y-101540420D01*
X106187828Y-101703177D01*
X106187823Y-101703186D01*
X106096919Y-101885747D01*
X106096918Y-101885750D01*
X106041103Y-102081917D01*
X106022285Y-102285000D01*
X106041103Y-102488083D01*
X106096918Y-102684250D01*
X106187827Y-102866821D01*
X106310736Y-103029579D01*
X106461459Y-103166981D01*
X106634863Y-103274348D01*
X106825044Y-103348024D01*
X107025524Y-103385500D01*
X107229476Y-103385500D01*
X107429956Y-103348024D01*
X107620137Y-103274348D01*
X107793541Y-103166981D01*
X107944264Y-103029579D01*
X108067173Y-102866821D01*
X108158082Y-102684250D01*
X108213897Y-102488083D01*
X108232715Y-102285000D01*
X108213897Y-102081917D01*
X108158082Y-101885750D01*
X108067173Y-101703179D01*
X107944264Y-101540421D01*
X107793541Y-101403019D01*
X107620137Y-101295652D01*
X107467840Y-101236652D01*
X107420410Y-101198001D01*
X107404756Y-101138852D01*
X107426859Y-101081799D01*
X107477981Y-101048711D01*
X107590990Y-101018430D01*
X107805077Y-100918600D01*
X107998573Y-100783113D01*
X108165613Y-100616073D01*
X108301101Y-100422576D01*
X108301102Y-100422574D01*
X108307775Y-100408265D01*
X108349503Y-100363516D01*
X108409564Y-100351841D01*
X108465017Y-100377698D01*
X108487225Y-100408265D01*
X108493897Y-100422574D01*
X108493898Y-100422576D01*
X108629386Y-100616073D01*
X108796426Y-100783113D01*
X108989922Y-100918600D01*
X109204009Y-101018430D01*
X109317018Y-101048711D01*
X109368332Y-101082035D01*
X109390259Y-101139156D01*
X109374424Y-101198257D01*
X109327157Y-101236653D01*
X109174863Y-101295652D01*
X109107664Y-101337260D01*
X109001459Y-101403019D01*
X108850737Y-101540420D01*
X108727828Y-101703177D01*
X108727823Y-101703186D01*
X108636919Y-101885747D01*
X108636918Y-101885750D01*
X108581103Y-102081917D01*
X108562285Y-102285000D01*
X108581103Y-102488083D01*
X108636918Y-102684250D01*
X108727827Y-102866821D01*
X108850736Y-103029579D01*
X109001459Y-103166981D01*
X109174863Y-103274348D01*
X109365044Y-103348024D01*
X109565524Y-103385500D01*
X109769476Y-103385500D01*
X109969956Y-103348024D01*
X110160137Y-103274348D01*
X110333541Y-103166981D01*
X110484264Y-103029579D01*
X110607173Y-102866821D01*
X110698082Y-102684250D01*
X110753897Y-102488083D01*
X110772715Y-102285000D01*
X110753897Y-102081917D01*
X110698082Y-101885750D01*
X110607173Y-101703179D01*
X110484264Y-101540421D01*
X110333541Y-101403019D01*
X110160137Y-101295652D01*
X110007840Y-101236652D01*
X109960410Y-101198001D01*
X109944756Y-101138852D01*
X109966859Y-101081799D01*
X110017981Y-101048711D01*
X110130990Y-101018430D01*
X110345077Y-100918600D01*
X110538573Y-100783113D01*
X110705613Y-100616073D01*
X110841101Y-100422576D01*
X110841102Y-100422574D01*
X110847775Y-100408265D01*
X110889503Y-100363516D01*
X110949564Y-100351841D01*
X111005017Y-100377698D01*
X111027225Y-100408265D01*
X111033897Y-100422574D01*
X111033898Y-100422576D01*
X111169386Y-100616073D01*
X111336426Y-100783113D01*
X111529922Y-100918600D01*
X111744009Y-101018430D01*
X111857018Y-101048711D01*
X111908332Y-101082035D01*
X111930259Y-101139156D01*
X111914424Y-101198257D01*
X111867157Y-101236653D01*
X111714863Y-101295652D01*
X111647664Y-101337260D01*
X111541459Y-101403019D01*
X111390737Y-101540420D01*
X111267828Y-101703177D01*
X111267823Y-101703186D01*
X111176919Y-101885747D01*
X111176918Y-101885750D01*
X111121103Y-102081917D01*
X111102285Y-102285000D01*
X111121103Y-102488083D01*
X111176918Y-102684250D01*
X111267827Y-102866821D01*
X111390736Y-103029579D01*
X111541459Y-103166981D01*
X111714863Y-103274348D01*
X111905044Y-103348024D01*
X112105524Y-103385500D01*
X112309476Y-103385500D01*
X112509956Y-103348024D01*
X112700137Y-103274348D01*
X112873541Y-103166981D01*
X113024264Y-103029579D01*
X113147173Y-102866821D01*
X113238082Y-102684250D01*
X113293897Y-102488083D01*
X113312715Y-102285000D01*
X113293897Y-102081917D01*
X113238082Y-101885750D01*
X113147173Y-101703179D01*
X113024264Y-101540421D01*
X112873541Y-101403019D01*
X112700137Y-101295652D01*
X112547840Y-101236652D01*
X112500410Y-101198001D01*
X112484756Y-101138852D01*
X112506859Y-101081799D01*
X112557981Y-101048711D01*
X112670990Y-101018430D01*
X112885077Y-100918600D01*
X113078573Y-100783113D01*
X113245613Y-100616073D01*
X113381101Y-100422576D01*
X113381102Y-100422574D01*
X113387775Y-100408265D01*
X113429503Y-100363516D01*
X113489564Y-100351841D01*
X113545017Y-100377698D01*
X113567225Y-100408265D01*
X113573897Y-100422574D01*
X113573898Y-100422576D01*
X113709386Y-100616073D01*
X113876426Y-100783113D01*
X114069922Y-100918600D01*
X114284009Y-101018430D01*
X114397018Y-101048711D01*
X114448332Y-101082035D01*
X114470259Y-101139156D01*
X114454424Y-101198257D01*
X114407157Y-101236653D01*
X114254863Y-101295652D01*
X114187664Y-101337260D01*
X114081459Y-101403019D01*
X113930737Y-101540420D01*
X113807828Y-101703177D01*
X113807823Y-101703186D01*
X113716919Y-101885747D01*
X113716918Y-101885750D01*
X113661103Y-102081917D01*
X113642285Y-102285000D01*
X113661103Y-102488083D01*
X113716918Y-102684250D01*
X113807827Y-102866821D01*
X113930736Y-103029579D01*
X114081459Y-103166981D01*
X114254863Y-103274348D01*
X114445044Y-103348024D01*
X114645524Y-103385500D01*
X114849476Y-103385500D01*
X115049956Y-103348024D01*
X115240137Y-103274348D01*
X115413541Y-103166981D01*
X115564264Y-103029579D01*
X115687173Y-102866821D01*
X115778082Y-102684250D01*
X115833897Y-102488083D01*
X115852715Y-102285000D01*
X115833897Y-102081917D01*
X115778082Y-101885750D01*
X115687173Y-101703179D01*
X115564264Y-101540421D01*
X115413541Y-101403019D01*
X115240137Y-101295652D01*
X115087840Y-101236652D01*
X115040410Y-101198001D01*
X115024756Y-101138852D01*
X115046859Y-101081799D01*
X115097981Y-101048711D01*
X115210990Y-101018430D01*
X115425077Y-100918600D01*
X115618573Y-100783113D01*
X115785613Y-100616073D01*
X115921101Y-100422576D01*
X115921102Y-100422574D01*
X115927775Y-100408265D01*
X115969503Y-100363516D01*
X116029564Y-100351841D01*
X116085017Y-100377698D01*
X116107225Y-100408265D01*
X116113897Y-100422574D01*
X116113898Y-100422576D01*
X116249386Y-100616073D01*
X116416426Y-100783113D01*
X116609922Y-100918600D01*
X116824009Y-101018430D01*
X116937018Y-101048711D01*
X116988332Y-101082035D01*
X117010259Y-101139156D01*
X116994424Y-101198257D01*
X116947157Y-101236653D01*
X116794863Y-101295652D01*
X116727664Y-101337260D01*
X116621459Y-101403019D01*
X116470737Y-101540420D01*
X116347828Y-101703177D01*
X116347823Y-101703186D01*
X116256919Y-101885747D01*
X116256918Y-101885750D01*
X116201103Y-102081917D01*
X116182285Y-102285000D01*
X116201103Y-102488083D01*
X116256918Y-102684250D01*
X116347827Y-102866821D01*
X116470736Y-103029579D01*
X116621459Y-103166981D01*
X116794863Y-103274348D01*
X116985044Y-103348024D01*
X117185524Y-103385500D01*
X117389476Y-103385500D01*
X117589956Y-103348024D01*
X117780137Y-103274348D01*
X117953541Y-103166981D01*
X118104264Y-103029579D01*
X118227173Y-102866821D01*
X118318082Y-102684250D01*
X118373897Y-102488083D01*
X118392715Y-102285000D01*
X118373897Y-102081917D01*
X118318082Y-101885750D01*
X118227173Y-101703179D01*
X118104264Y-101540421D01*
X117953541Y-101403019D01*
X117780137Y-101295652D01*
X117627840Y-101236652D01*
X117580410Y-101198001D01*
X117564756Y-101138852D01*
X117586859Y-101081799D01*
X117637981Y-101048711D01*
X117750990Y-101018430D01*
X117965077Y-100918600D01*
X118158573Y-100783113D01*
X118325613Y-100616073D01*
X118461101Y-100422576D01*
X118461102Y-100422574D01*
X118467775Y-100408265D01*
X118509503Y-100363516D01*
X118569564Y-100351841D01*
X118625017Y-100377698D01*
X118647225Y-100408265D01*
X118653897Y-100422574D01*
X118653898Y-100422576D01*
X118789386Y-100616073D01*
X118956426Y-100783113D01*
X119149922Y-100918600D01*
X119364009Y-101018430D01*
X119477018Y-101048711D01*
X119528332Y-101082035D01*
X119550259Y-101139156D01*
X119534424Y-101198257D01*
X119487157Y-101236653D01*
X119334863Y-101295652D01*
X119267664Y-101337260D01*
X119161459Y-101403019D01*
X119010737Y-101540420D01*
X118887828Y-101703177D01*
X118887823Y-101703186D01*
X118796919Y-101885747D01*
X118796918Y-101885750D01*
X118741103Y-102081917D01*
X118722285Y-102285000D01*
X118741103Y-102488083D01*
X118796918Y-102684250D01*
X118887827Y-102866821D01*
X119010736Y-103029579D01*
X119161459Y-103166981D01*
X119334863Y-103274348D01*
X119525044Y-103348024D01*
X119725524Y-103385500D01*
X119929476Y-103385500D01*
X120129956Y-103348024D01*
X120320137Y-103274348D01*
X120493541Y-103166981D01*
X120644264Y-103029579D01*
X120767173Y-102866821D01*
X120858082Y-102684250D01*
X120913897Y-102488083D01*
X120932715Y-102285000D01*
X121247285Y-102285000D01*
X121266103Y-102488083D01*
X121321918Y-102684250D01*
X121412827Y-102866821D01*
X121535736Y-103029579D01*
X121686459Y-103166981D01*
X121859863Y-103274348D01*
X122050044Y-103348024D01*
X122250524Y-103385500D01*
X122454476Y-103385500D01*
X122654956Y-103348024D01*
X122845137Y-103274348D01*
X123018541Y-103166981D01*
X123169264Y-103029579D01*
X123292173Y-102866821D01*
X123383082Y-102684250D01*
X123438897Y-102488083D01*
X123457715Y-102285000D01*
X123438897Y-102081917D01*
X123383082Y-101885750D01*
X123292173Y-101703179D01*
X123169264Y-101540421D01*
X123018541Y-101403019D01*
X122845137Y-101295652D01*
X122654956Y-101221976D01*
X122654955Y-101221975D01*
X122654953Y-101221975D01*
X122454476Y-101184500D01*
X122250524Y-101184500D01*
X122050046Y-101221975D01*
X122008841Y-101237938D01*
X121859863Y-101295652D01*
X121792664Y-101337260D01*
X121686459Y-101403019D01*
X121535737Y-101540420D01*
X121412828Y-101703177D01*
X121412823Y-101703186D01*
X121321919Y-101885747D01*
X121321918Y-101885750D01*
X121266103Y-102081917D01*
X121247285Y-102285000D01*
X120932715Y-102285000D01*
X120913897Y-102081917D01*
X120858082Y-101885750D01*
X120767173Y-101703179D01*
X120644264Y-101540421D01*
X120493541Y-101403019D01*
X120320137Y-101295652D01*
X120167840Y-101236652D01*
X120120410Y-101198001D01*
X120104756Y-101138852D01*
X120126859Y-101081799D01*
X120177981Y-101048711D01*
X120290990Y-101018430D01*
X120505077Y-100918600D01*
X120698573Y-100783113D01*
X120865613Y-100616073D01*
X121001100Y-100422577D01*
X121100930Y-100208489D01*
X121158136Y-99995000D01*
X120260512Y-99995000D01*
X120293425Y-99937993D01*
X120327500Y-99810826D01*
X120327500Y-99679174D01*
X120293425Y-99552007D01*
X120260512Y-99495000D01*
X121158136Y-99495000D01*
X121100929Y-99281505D01*
X121001105Y-99067432D01*
X121001101Y-99067424D01*
X120865613Y-98873926D01*
X120698573Y-98706886D01*
X120505077Y-98571399D01*
X120290989Y-98471569D01*
X120077500Y-98414364D01*
X120077500Y-99311988D01*
X120020493Y-99279075D01*
X119893326Y-99245000D01*
X119761674Y-99245000D01*
X119634507Y-99279075D01*
X119577500Y-99311988D01*
X119577500Y-98414364D01*
X119364005Y-98471570D01*
X119149932Y-98571394D01*
X119149924Y-98571398D01*
X118956426Y-98706886D01*
X118789386Y-98873926D01*
X118653898Y-99067424D01*
X118653896Y-99067428D01*
X118647224Y-99081737D01*
X118605495Y-99126485D01*
X118545434Y-99138159D01*
X118489981Y-99112300D01*
X118467776Y-99081737D01*
X118461103Y-99067428D01*
X118461101Y-99067424D01*
X118325613Y-98873926D01*
X118158573Y-98706886D01*
X117965077Y-98571399D01*
X117750989Y-98471569D01*
X117537500Y-98414364D01*
X117537500Y-99311988D01*
X117480493Y-99279075D01*
X117353326Y-99245000D01*
X117221674Y-99245000D01*
X117094507Y-99279075D01*
X117037500Y-99311988D01*
X117037500Y-98414364D01*
X116824005Y-98471570D01*
X116609932Y-98571394D01*
X116609924Y-98571398D01*
X116416426Y-98706886D01*
X116249386Y-98873926D01*
X116113898Y-99067424D01*
X116113896Y-99067428D01*
X116107224Y-99081737D01*
X116065495Y-99126485D01*
X116005434Y-99138159D01*
X115949981Y-99112300D01*
X115927776Y-99081737D01*
X115921103Y-99067428D01*
X115921101Y-99067424D01*
X115785613Y-98873926D01*
X115618573Y-98706886D01*
X115425077Y-98571399D01*
X115210989Y-98471569D01*
X114997500Y-98414364D01*
X114997500Y-99311988D01*
X114940493Y-99279075D01*
X114813326Y-99245000D01*
X114681674Y-99245000D01*
X114554507Y-99279075D01*
X114497500Y-99311988D01*
X114497500Y-98414364D01*
X114284005Y-98471570D01*
X114069932Y-98571394D01*
X114069924Y-98571398D01*
X113876426Y-98706886D01*
X113709386Y-98873926D01*
X113573898Y-99067424D01*
X113573896Y-99067428D01*
X113567224Y-99081737D01*
X113525495Y-99126485D01*
X113465434Y-99138159D01*
X113409981Y-99112300D01*
X113387776Y-99081737D01*
X113381103Y-99067428D01*
X113381101Y-99067424D01*
X113245613Y-98873926D01*
X113078573Y-98706886D01*
X112885077Y-98571399D01*
X112670989Y-98471569D01*
X112457500Y-98414364D01*
X112457500Y-99311988D01*
X112400493Y-99279075D01*
X112273326Y-99245000D01*
X112141674Y-99245000D01*
X112014507Y-99279075D01*
X111957500Y-99311988D01*
X111957500Y-98414364D01*
X111744005Y-98471570D01*
X111529932Y-98571394D01*
X111529924Y-98571398D01*
X111336426Y-98706886D01*
X111169386Y-98873926D01*
X111033898Y-99067424D01*
X111033896Y-99067428D01*
X111027224Y-99081737D01*
X110985495Y-99126485D01*
X110925434Y-99138159D01*
X110869981Y-99112300D01*
X110847776Y-99081737D01*
X110841103Y-99067428D01*
X110841101Y-99067424D01*
X110705613Y-98873926D01*
X110538573Y-98706886D01*
X110345077Y-98571399D01*
X110130989Y-98471569D01*
X109917500Y-98414364D01*
X109917500Y-99311988D01*
X109860493Y-99279075D01*
X109733326Y-99245000D01*
X109601674Y-99245000D01*
X109474507Y-99279075D01*
X109417500Y-99311988D01*
X109417500Y-98414364D01*
X109204005Y-98471570D01*
X108989932Y-98571394D01*
X108989924Y-98571398D01*
X108796426Y-98706886D01*
X108629386Y-98873926D01*
X108493898Y-99067424D01*
X108493896Y-99067428D01*
X108487224Y-99081737D01*
X108445495Y-99126485D01*
X108385434Y-99138159D01*
X108329981Y-99112300D01*
X108307776Y-99081737D01*
X108301103Y-99067428D01*
X108301101Y-99067424D01*
X108165613Y-98873926D01*
X107998573Y-98706886D01*
X107805077Y-98571399D01*
X107590989Y-98471569D01*
X107377500Y-98414364D01*
X107377500Y-99311988D01*
X107320493Y-99279075D01*
X107193326Y-99245000D01*
X107061674Y-99245000D01*
X106934507Y-99279075D01*
X106877500Y-99311988D01*
X106877500Y-98414364D01*
X106664005Y-98471570D01*
X106449932Y-98571394D01*
X106449924Y-98571398D01*
X106256426Y-98706886D01*
X106089386Y-98873926D01*
X105953898Y-99067424D01*
X105953896Y-99067428D01*
X105947224Y-99081737D01*
X105905495Y-99126485D01*
X105845434Y-99138159D01*
X105789981Y-99112300D01*
X105767776Y-99081737D01*
X105761103Y-99067428D01*
X105761101Y-99067424D01*
X105625613Y-98873926D01*
X105458573Y-98706886D01*
X105265077Y-98571399D01*
X105050989Y-98471569D01*
X104837500Y-98414364D01*
X104837500Y-99311988D01*
X104780493Y-99279075D01*
X104653326Y-99245000D01*
X104521674Y-99245000D01*
X104394507Y-99279075D01*
X104337500Y-99311988D01*
X104337500Y-98414364D01*
X104124005Y-98471570D01*
X103909932Y-98571394D01*
X103909924Y-98571398D01*
X103716425Y-98706887D01*
X103716421Y-98706890D01*
X103561158Y-98862153D01*
X103506642Y-98889930D01*
X103446210Y-98880359D01*
X103402945Y-98837094D01*
X103392722Y-98802731D01*
X103391098Y-98787629D01*
X103391096Y-98787618D01*
X103340853Y-98652911D01*
X103340852Y-98652909D01*
X103254692Y-98537815D01*
X103254684Y-98537807D01*
X103139590Y-98451647D01*
X103139588Y-98451646D01*
X103004881Y-98401403D01*
X103004870Y-98401401D01*
X102945324Y-98395000D01*
X102297501Y-98395000D01*
X102297500Y-98395001D01*
X102297500Y-99311988D01*
X102240493Y-99279075D01*
X102113326Y-99245000D01*
X101981674Y-99245000D01*
X101854507Y-99279075D01*
X101797500Y-99311988D01*
X101797500Y-98395001D01*
X101797499Y-98395000D01*
X101149676Y-98395000D01*
X101090129Y-98401401D01*
X101090118Y-98401403D01*
X100955411Y-98451646D01*
X100955409Y-98451647D01*
X100840315Y-98537807D01*
X100840307Y-98537815D01*
X100754147Y-98652909D01*
X100754146Y-98652911D01*
X100703903Y-98787618D01*
X100703901Y-98787629D01*
X100697500Y-98847175D01*
X100697500Y-99494999D01*
X100697501Y-99495000D01*
X101614488Y-99495000D01*
X101581575Y-99552007D01*
X101547500Y-99679174D01*
X101547500Y-99810826D01*
X101581575Y-99937993D01*
X101614488Y-99995000D01*
X100697501Y-99995000D01*
X100697500Y-99995001D01*
X100697500Y-100642824D01*
X100697499Y-100642824D01*
X98570653Y-100642824D01*
X98640074Y-100515689D01*
X98732577Y-100267678D01*
X98788843Y-100009026D01*
X98807727Y-99745000D01*
X98788843Y-99480974D01*
X98732577Y-99222322D01*
X98640074Y-98974311D01*
X98513216Y-98741989D01*
X98513215Y-98741988D01*
X98513216Y-98741988D01*
X98354591Y-98530090D01*
X98354589Y-98530088D01*
X98354587Y-98530085D01*
X98167415Y-98342913D01*
X98167411Y-98342910D01*
X98167409Y-98342908D01*
X97955511Y-98184283D01*
X97857728Y-98130890D01*
X97815717Y-98086408D01*
X97807875Y-98025727D01*
X97837198Y-97972026D01*
X97892486Y-97945816D01*
X97905174Y-97945000D01*
X123939826Y-97945000D01*
X123998017Y-97963907D01*
X124033981Y-98013407D01*
X124033981Y-98074593D01*
X123998017Y-98124093D01*
X123987272Y-98130890D01*
X123889488Y-98184283D01*
X123677590Y-98342908D01*
X123490408Y-98530090D01*
X123331783Y-98741988D01*
X123204927Y-98974307D01*
X123204926Y-98974309D01*
X123112424Y-99222317D01*
X123056156Y-99480979D01*
X123037273Y-99745000D01*
X123056156Y-100009020D01*
X123056156Y-100009023D01*
X123056157Y-100009026D01*
X123084486Y-100139252D01*
X123112424Y-100267682D01*
X123204926Y-100515690D01*
X123204927Y-100515692D01*
X123331784Y-100748011D01*
X123331783Y-100748011D01*
X123490408Y-100959909D01*
X123490410Y-100959911D01*
X123490413Y-100959915D01*
X123677585Y-101147087D01*
X123677588Y-101147089D01*
X123677590Y-101147091D01*
X123889488Y-101305716D01*
X124121807Y-101432572D01*
X124121811Y-101432574D01*
X124369817Y-101525075D01*
X124369822Y-101525077D01*
X124628474Y-101581343D01*
X124892500Y-101600227D01*
X125156526Y-101581343D01*
X125415178Y-101525077D01*
X125663189Y-101432574D01*
X125895511Y-101305716D01*
X126107415Y-101147087D01*
X126294587Y-100959915D01*
X126453216Y-100748011D01*
X126580074Y-100515689D01*
X126640742Y-100353030D01*
X126678793Y-100305117D01*
X126737740Y-100288719D01*
X126795067Y-100310101D01*
X126828878Y-100361096D01*
X126832500Y-100387628D01*
X126832500Y-121962371D01*
X126813593Y-122020562D01*
X126764093Y-122056526D01*
X126702907Y-122056526D01*
X126653407Y-122020562D01*
X126640742Y-121996968D01*
X126589811Y-121860417D01*
X126580074Y-121834311D01*
X126557778Y-121793480D01*
X126525470Y-121734312D01*
X126453216Y-121601989D01*
X126453215Y-121601988D01*
X126453216Y-121601988D01*
X126294591Y-121390090D01*
X126294589Y-121390088D01*
X126294587Y-121390085D01*
X126107415Y-121202913D01*
X126107411Y-121202910D01*
X126107409Y-121202908D01*
X125895511Y-121044283D01*
X125663192Y-120917427D01*
X125663190Y-120917426D01*
X125415181Y-120824924D01*
X125415183Y-120824924D01*
X125357459Y-120812367D01*
X125156526Y-120768657D01*
X125156523Y-120768656D01*
X125156520Y-120768656D01*
X124892500Y-120749773D01*
X124628479Y-120768656D01*
X124628474Y-120768656D01*
X124628474Y-120768657D01*
X124499148Y-120796790D01*
X124369817Y-120824924D01*
X124121809Y-120917426D01*
X124121807Y-120917427D01*
X123889488Y-121044283D01*
X123677590Y-121202908D01*
X123490408Y-121390090D01*
X123331783Y-121601988D01*
X123204927Y-121834307D01*
X123204926Y-121834309D01*
X123112424Y-122082317D01*
X123056156Y-122340979D01*
X123037273Y-122605000D01*
X123056156Y-122869020D01*
X123056156Y-122869023D01*
X123056157Y-122869026D01*
X123097857Y-123060717D01*
X123112424Y-123127682D01*
X123204926Y-123375690D01*
X123204927Y-123375692D01*
X123331784Y-123608011D01*
X123331783Y-123608011D01*
X123490408Y-123819909D01*
X123490410Y-123819911D01*
X123490413Y-123819915D01*
X123677585Y-124007087D01*
X123677588Y-124007089D01*
X123677590Y-124007091D01*
X123889488Y-124165716D01*
X123987272Y-124219110D01*
X124029283Y-124263592D01*
X124037125Y-124324273D01*
X124007802Y-124377974D01*
X123952514Y-124404184D01*
X123939826Y-124405000D01*
X99959104Y-124405000D01*
X99900913Y-124386093D01*
X99864949Y-124336593D01*
X99864949Y-124275407D01*
X99887955Y-124240287D01*
X99886514Y-124239010D01*
X99890478Y-124234534D01*
X99890483Y-124234530D01*
X99980220Y-124104523D01*
X100036237Y-123956818D01*
X100055278Y-123800000D01*
X100036237Y-123643182D01*
X99980220Y-123495477D01*
X99897539Y-123375692D01*
X99890484Y-123365471D01*
X99872546Y-123349579D01*
X99772240Y-123260717D01*
X99702302Y-123224010D01*
X99632364Y-123187303D01*
X99478987Y-123149500D01*
X99478985Y-123149500D01*
X99321015Y-123149500D01*
X99321012Y-123149500D01*
X99167635Y-123187303D01*
X99027758Y-123260718D01*
X98909515Y-123365471D01*
X98819780Y-123495476D01*
X98763763Y-123643182D01*
X98763762Y-123643183D01*
X98744722Y-123799998D01*
X98744722Y-123800001D01*
X98763762Y-123956816D01*
X98763763Y-123956818D01*
X98793235Y-124034530D01*
X98819780Y-124104523D01*
X98909517Y-124234530D01*
X98913486Y-124239010D01*
X98911674Y-124240615D01*
X98937566Y-124284647D01*
X98931655Y-124345546D01*
X98891077Y-124391340D01*
X98840896Y-124405000D01*
X97905174Y-124405000D01*
X97846983Y-124386093D01*
X97811019Y-124336593D01*
X97811019Y-124275407D01*
X97846983Y-124225907D01*
X97857728Y-124219110D01*
X97955511Y-124165716D01*
X98130755Y-124034530D01*
X98167415Y-124007087D01*
X98354587Y-123819915D01*
X98513216Y-123608011D01*
X98640074Y-123375689D01*
X98732577Y-123127678D01*
X98788843Y-122869026D01*
X98807727Y-122605000D01*
X98788843Y-122340974D01*
X98732577Y-122082322D01*
X98640074Y-121834311D01*
X98617778Y-121793480D01*
X98585470Y-121734312D01*
X98513216Y-121601989D01*
X98513215Y-121601988D01*
X98513216Y-121601988D01*
X98354591Y-121390090D01*
X98354589Y-121390088D01*
X98354587Y-121390085D01*
X98189003Y-121224501D01*
X98161228Y-121169987D01*
X98170799Y-121109555D01*
X98214064Y-121066290D01*
X98259009Y-121055500D01*
X100727833Y-121055500D01*
X100786024Y-121074407D01*
X100797837Y-121084496D01*
X101093956Y-121380615D01*
X101121733Y-121435132D01*
X101112162Y-121495564D01*
X101078954Y-121532934D01*
X101016901Y-121574396D01*
X101016897Y-121574400D01*
X100961535Y-121657257D01*
X100961533Y-121657263D01*
X100947001Y-121730315D01*
X100947000Y-121730327D01*
X100947000Y-123479672D01*
X100947001Y-123479684D01*
X100961533Y-123552736D01*
X100961535Y-123552742D01*
X101016897Y-123635599D01*
X101016899Y-123635601D01*
X101099760Y-123690966D01*
X101147680Y-123700498D01*
X101172815Y-123705498D01*
X101172820Y-123705498D01*
X101172826Y-123705500D01*
X101172827Y-123705500D01*
X102922173Y-123705500D01*
X102922174Y-123705500D01*
X102995240Y-123690966D01*
X103078101Y-123635601D01*
X103133466Y-123552740D01*
X103148000Y-123479674D01*
X103148000Y-121749500D01*
X103166907Y-121691309D01*
X103216407Y-121655345D01*
X103247000Y-121650500D01*
X103745461Y-121650500D01*
X103803652Y-121669407D01*
X103839616Y-121718907D01*
X103839616Y-121780093D01*
X103812158Y-121822659D01*
X103784582Y-121847799D01*
X103770737Y-121860420D01*
X103647828Y-122023177D01*
X103647823Y-122023186D01*
X103556919Y-122205747D01*
X103556918Y-122205750D01*
X103501103Y-122401917D01*
X103482285Y-122605000D01*
X103501103Y-122808083D01*
X103556918Y-123004250D01*
X103647827Y-123186821D01*
X103770736Y-123349579D01*
X103921459Y-123486981D01*
X104094863Y-123594348D01*
X104285044Y-123668024D01*
X104485524Y-123705500D01*
X104689476Y-123705500D01*
X104889956Y-123668024D01*
X105080137Y-123594348D01*
X105253541Y-123486981D01*
X105404264Y-123349579D01*
X105527173Y-123186821D01*
X105618082Y-123004250D01*
X105673897Y-122808083D01*
X105692715Y-122605000D01*
X105673897Y-122401917D01*
X105618082Y-122205750D01*
X105527173Y-122023179D01*
X105404264Y-121860421D01*
X105362841Y-121822659D01*
X105332578Y-121769487D01*
X105339348Y-121708677D01*
X105380568Y-121663460D01*
X105429539Y-121650500D01*
X106285460Y-121650500D01*
X106343651Y-121669407D01*
X106379615Y-121718907D01*
X106379615Y-121780093D01*
X106352156Y-121822661D01*
X106310739Y-121860417D01*
X106187828Y-122023177D01*
X106187823Y-122023186D01*
X106096919Y-122205747D01*
X106096918Y-122205750D01*
X106041103Y-122401917D01*
X106022285Y-122605000D01*
X106041103Y-122808083D01*
X106096918Y-123004250D01*
X106187827Y-123186821D01*
X106310736Y-123349579D01*
X106461459Y-123486981D01*
X106634863Y-123594348D01*
X106825044Y-123668024D01*
X107025524Y-123705500D01*
X107229476Y-123705500D01*
X107429956Y-123668024D01*
X107620137Y-123594348D01*
X107793541Y-123486981D01*
X107944264Y-123349579D01*
X108067173Y-123186821D01*
X108158082Y-123004250D01*
X108213897Y-122808083D01*
X108232715Y-122605000D01*
X108213897Y-122401917D01*
X108158082Y-122205750D01*
X108067173Y-122023179D01*
X108022603Y-121964159D01*
X108002625Y-121906329D01*
X108020454Y-121847799D01*
X108069281Y-121810927D01*
X108101608Y-121805500D01*
X108693392Y-121805500D01*
X108751583Y-121824407D01*
X108787547Y-121873907D01*
X108787547Y-121935093D01*
X108772397Y-121964157D01*
X108747621Y-121996968D01*
X108727828Y-122023177D01*
X108727823Y-122023186D01*
X108636919Y-122205747D01*
X108636918Y-122205750D01*
X108581103Y-122401917D01*
X108562285Y-122605000D01*
X108581103Y-122808083D01*
X108636918Y-123004250D01*
X108727827Y-123186821D01*
X108850736Y-123349579D01*
X109001459Y-123486981D01*
X109174863Y-123594348D01*
X109365044Y-123668024D01*
X109565524Y-123705500D01*
X109769476Y-123705500D01*
X109969956Y-123668024D01*
X110160137Y-123594348D01*
X110333541Y-123486981D01*
X110484264Y-123349579D01*
X110607173Y-123186821D01*
X110698082Y-123004250D01*
X110753897Y-122808083D01*
X110772715Y-122605000D01*
X110753897Y-122401917D01*
X110698082Y-122205750D01*
X110607173Y-122023179D01*
X110562603Y-121964159D01*
X110542625Y-121906329D01*
X110560454Y-121847799D01*
X110609281Y-121810927D01*
X110641608Y-121805500D01*
X111233392Y-121805500D01*
X111291583Y-121824407D01*
X111327547Y-121873907D01*
X111327547Y-121935093D01*
X111312397Y-121964157D01*
X111287621Y-121996968D01*
X111267828Y-122023177D01*
X111267823Y-122023186D01*
X111176919Y-122205747D01*
X111176918Y-122205750D01*
X111121103Y-122401917D01*
X111102285Y-122605000D01*
X111121103Y-122808083D01*
X111176918Y-123004250D01*
X111267827Y-123186821D01*
X111390736Y-123349579D01*
X111541459Y-123486981D01*
X111714863Y-123594348D01*
X111905044Y-123668024D01*
X112105524Y-123705500D01*
X112309476Y-123705500D01*
X112509956Y-123668024D01*
X112700137Y-123594348D01*
X112873541Y-123486981D01*
X113024264Y-123349579D01*
X113147173Y-123186821D01*
X113238082Y-123004250D01*
X113293897Y-122808083D01*
X113312715Y-122605000D01*
X113293897Y-122401917D01*
X113238082Y-122205750D01*
X113147173Y-122023179D01*
X113102603Y-121964159D01*
X113082625Y-121906329D01*
X113100454Y-121847799D01*
X113149281Y-121810927D01*
X113181608Y-121805500D01*
X113773392Y-121805500D01*
X113831583Y-121824407D01*
X113867547Y-121873907D01*
X113867547Y-121935093D01*
X113852397Y-121964157D01*
X113827621Y-121996968D01*
X113807828Y-122023177D01*
X113807823Y-122023186D01*
X113716919Y-122205747D01*
X113716918Y-122205750D01*
X113661103Y-122401917D01*
X113642285Y-122605000D01*
X113661103Y-122808083D01*
X113716918Y-123004250D01*
X113807827Y-123186821D01*
X113930736Y-123349579D01*
X114081459Y-123486981D01*
X114254863Y-123594348D01*
X114445044Y-123668024D01*
X114645524Y-123705500D01*
X114849476Y-123705500D01*
X115049956Y-123668024D01*
X115240137Y-123594348D01*
X115413541Y-123486981D01*
X115564264Y-123349579D01*
X115687173Y-123186821D01*
X115778082Y-123004250D01*
X115833897Y-122808083D01*
X115852715Y-122605000D01*
X115833897Y-122401917D01*
X115778082Y-122205750D01*
X115687173Y-122023179D01*
X115642603Y-121964159D01*
X115622625Y-121906329D01*
X115640454Y-121847799D01*
X115689281Y-121810927D01*
X115721608Y-121805500D01*
X116313392Y-121805500D01*
X116371583Y-121824407D01*
X116407547Y-121873907D01*
X116407547Y-121935093D01*
X116392397Y-121964157D01*
X116367621Y-121996968D01*
X116347828Y-122023177D01*
X116347823Y-122023186D01*
X116256919Y-122205747D01*
X116256918Y-122205750D01*
X116201103Y-122401917D01*
X116182285Y-122605000D01*
X116201103Y-122808083D01*
X116256918Y-123004250D01*
X116347827Y-123186821D01*
X116470736Y-123349579D01*
X116621459Y-123486981D01*
X116794863Y-123594348D01*
X116985044Y-123668024D01*
X117185524Y-123705500D01*
X117389476Y-123705500D01*
X117589956Y-123668024D01*
X117780137Y-123594348D01*
X117953541Y-123486981D01*
X118104264Y-123349579D01*
X118227173Y-123186821D01*
X118318082Y-123004250D01*
X118373897Y-122808083D01*
X118392715Y-122605000D01*
X118373897Y-122401917D01*
X118318082Y-122205750D01*
X118227173Y-122023179D01*
X118182603Y-121964159D01*
X118162625Y-121906329D01*
X118180454Y-121847799D01*
X118229281Y-121810927D01*
X118261608Y-121805500D01*
X118853392Y-121805500D01*
X118911583Y-121824407D01*
X118947547Y-121873907D01*
X118947547Y-121935093D01*
X118932397Y-121964157D01*
X118907621Y-121996968D01*
X118887828Y-122023177D01*
X118887823Y-122023186D01*
X118796919Y-122205747D01*
X118796918Y-122205750D01*
X118741103Y-122401917D01*
X118722285Y-122605000D01*
X118741103Y-122808083D01*
X118796918Y-123004250D01*
X118887827Y-123186821D01*
X119010736Y-123349579D01*
X119161459Y-123486981D01*
X119334863Y-123594348D01*
X119525044Y-123668024D01*
X119725524Y-123705500D01*
X119929476Y-123705500D01*
X120129956Y-123668024D01*
X120320137Y-123594348D01*
X120493541Y-123486981D01*
X120644264Y-123349579D01*
X120767173Y-123186821D01*
X120858082Y-123004250D01*
X120913897Y-122808083D01*
X120932715Y-122605000D01*
X120913897Y-122401917D01*
X120858082Y-122205750D01*
X120767173Y-122023179D01*
X120722603Y-121964159D01*
X120702625Y-121906329D01*
X120720454Y-121847799D01*
X120769281Y-121810927D01*
X120801608Y-121805500D01*
X121299106Y-121805500D01*
X121299107Y-121805500D01*
X121359529Y-121793481D01*
X121419952Y-121781463D01*
X121453288Y-121767653D01*
X121453291Y-121767653D01*
X121453291Y-121767652D01*
X121453292Y-121767652D01*
X121533786Y-121734312D01*
X121585009Y-121700084D01*
X121636233Y-121665858D01*
X121723358Y-121578733D01*
X121723359Y-121578730D01*
X124050407Y-119251681D01*
X124104922Y-119223906D01*
X124165354Y-119233477D01*
X124208619Y-119276742D01*
X124212972Y-119286573D01*
X124219780Y-119304523D01*
X124309515Y-119434528D01*
X124309516Y-119434529D01*
X124309517Y-119434530D01*
X124427760Y-119539283D01*
X124567635Y-119612696D01*
X124721015Y-119650500D01*
X124721018Y-119650500D01*
X124878982Y-119650500D01*
X124878985Y-119650500D01*
X125032365Y-119612696D01*
X125172240Y-119539283D01*
X125290483Y-119434530D01*
X125380220Y-119304523D01*
X125436237Y-119156818D01*
X125454058Y-119010045D01*
X125455278Y-119000001D01*
X125455278Y-118999998D01*
X125439709Y-118871774D01*
X125436237Y-118843182D01*
X125380220Y-118695477D01*
X125353211Y-118656347D01*
X125335715Y-118597717D01*
X125356023Y-118540000D01*
X125382569Y-118515937D01*
X125385132Y-118514349D01*
X125385137Y-118514348D01*
X125558541Y-118406981D01*
X125709264Y-118269579D01*
X125832173Y-118106821D01*
X125923082Y-117924250D01*
X125978897Y-117728083D01*
X125997715Y-117525000D01*
X125978897Y-117321917D01*
X125923082Y-117125750D01*
X125832173Y-116943179D01*
X125709264Y-116780421D01*
X125558541Y-116643019D01*
X125385137Y-116535652D01*
X125194956Y-116461976D01*
X125194955Y-116461975D01*
X125194953Y-116461975D01*
X124994476Y-116424500D01*
X124790524Y-116424500D01*
X124590041Y-116461976D01*
X124554383Y-116475790D01*
X124493292Y-116479180D01*
X124441876Y-116446013D01*
X124419774Y-116388959D01*
X124435429Y-116329810D01*
X124448614Y-116313475D01*
X124657635Y-116104453D01*
X124712151Y-116076678D01*
X124745829Y-116077145D01*
X124790524Y-116085500D01*
X124994476Y-116085500D01*
X125194956Y-116048024D01*
X125385137Y-115974348D01*
X125558541Y-115866981D01*
X125709264Y-115729579D01*
X125832173Y-115566821D01*
X125923082Y-115384250D01*
X125978897Y-115188083D01*
X125997715Y-114985000D01*
X125978897Y-114781917D01*
X125923082Y-114585750D01*
X125832173Y-114403179D01*
X125709264Y-114240421D01*
X125558541Y-114103019D01*
X125385137Y-113995652D01*
X125194956Y-113921976D01*
X125194955Y-113921975D01*
X125194953Y-113921975D01*
X124994476Y-113884500D01*
X124790524Y-113884500D01*
X124590046Y-113921975D01*
X124520132Y-113949059D01*
X124399863Y-113995652D01*
X124226459Y-114103019D01*
X124075736Y-114240421D01*
X124050001Y-114274500D01*
X123952828Y-114403177D01*
X123952823Y-114403186D01*
X123928579Y-114451875D01*
X123885716Y-114495538D01*
X123825375Y-114505667D01*
X123770604Y-114478394D01*
X123758486Y-114463989D01*
X123690483Y-114365470D01*
X123572240Y-114260717D01*
X123480745Y-114212696D01*
X123432364Y-114187303D01*
X123278987Y-114149500D01*
X123278985Y-114149500D01*
X123121015Y-114149500D01*
X123121012Y-114149500D01*
X122967635Y-114187303D01*
X122827758Y-114260718D01*
X122709515Y-114365471D01*
X122619780Y-114495476D01*
X122563763Y-114643182D01*
X122563762Y-114643183D01*
X122544722Y-114799998D01*
X122544722Y-114800001D01*
X122563762Y-114956816D01*
X122563763Y-114956818D01*
X122593235Y-115034530D01*
X122619780Y-115104523D01*
X122709515Y-115234528D01*
X122709516Y-115234529D01*
X122709517Y-115234530D01*
X122827760Y-115339283D01*
X122967635Y-115412696D01*
X123121015Y-115450500D01*
X123121018Y-115450500D01*
X123278981Y-115450500D01*
X123278985Y-115450500D01*
X123283763Y-115449322D01*
X123344785Y-115453753D01*
X123391551Y-115493206D01*
X123406195Y-115552613D01*
X123383124Y-115609282D01*
X123377459Y-115615449D01*
X122047406Y-116945504D01*
X121992889Y-116973281D01*
X121977402Y-116974500D01*
X110807765Y-116974500D01*
X110807745Y-116974499D01*
X110802865Y-116974499D01*
X110679652Y-116974499D01*
X110679649Y-116974499D01*
X110629481Y-116984478D01*
X110578855Y-116994548D01*
X110578852Y-116994548D01*
X110558806Y-116998537D01*
X110558800Y-116998538D01*
X110511655Y-117018066D01*
X110511655Y-117018067D01*
X110492124Y-117026156D01*
X110444973Y-117045687D01*
X110342525Y-117114141D01*
X108461320Y-118995345D01*
X108406803Y-119023122D01*
X108346371Y-119013551D01*
X108303106Y-118970286D01*
X108298750Y-118960447D01*
X108291931Y-118942467D01*
X108291929Y-118942464D01*
X108291929Y-118942463D01*
X108205541Y-118817308D01*
X108202193Y-118812457D01*
X108186481Y-118798537D01*
X108083949Y-118707703D01*
X107986100Y-118656347D01*
X107944073Y-118634289D01*
X107790696Y-118596486D01*
X107790694Y-118596486D01*
X107632724Y-118596486D01*
X107632721Y-118596486D01*
X107479344Y-118634289D01*
X107339467Y-118707704D01*
X107221224Y-118812457D01*
X107131488Y-118942464D01*
X107131487Y-118942465D01*
X107106242Y-119009031D01*
X107067928Y-119056735D01*
X107008892Y-119072808D01*
X106951683Y-119051111D01*
X106943672Y-119043928D01*
X106901014Y-119001270D01*
X106901014Y-119001269D01*
X106813895Y-118914149D01*
X106813890Y-118914145D01*
X106813887Y-118914142D01*
X106750479Y-118871774D01*
X106711440Y-118845688D01*
X106711439Y-118845687D01*
X106711437Y-118845686D01*
X106619698Y-118807688D01*
X106597609Y-118798538D01*
X106597607Y-118798537D01*
X106597606Y-118798537D01*
X106501918Y-118779504D01*
X106476763Y-118774500D01*
X106476761Y-118774500D01*
X106476760Y-118774500D01*
X106324500Y-118774500D01*
X106266309Y-118755593D01*
X106230345Y-118706093D01*
X106225500Y-118675500D01*
X106225500Y-117038396D01*
X106225499Y-117038391D01*
X106201463Y-116917548D01*
X106167076Y-116834530D01*
X106154312Y-116803715D01*
X106114389Y-116743967D01*
X106085858Y-116701267D01*
X105998733Y-116614142D01*
X105998729Y-116614139D01*
X104984588Y-115599998D01*
X116444722Y-115599998D01*
X116444722Y-115600001D01*
X116463762Y-115756816D01*
X116463763Y-115756818D01*
X116503167Y-115860717D01*
X116519780Y-115904523D01*
X116609515Y-116034528D01*
X116609516Y-116034529D01*
X116609517Y-116034530D01*
X116727760Y-116139283D01*
X116867635Y-116212696D01*
X117021015Y-116250500D01*
X117021018Y-116250500D01*
X117178982Y-116250500D01*
X117178985Y-116250500D01*
X117332365Y-116212696D01*
X117472240Y-116139283D01*
X117590483Y-116034530D01*
X117680220Y-115904523D01*
X117736237Y-115756818D01*
X117755278Y-115600000D01*
X117753976Y-115589281D01*
X117742311Y-115493206D01*
X117736237Y-115443182D01*
X117680220Y-115295477D01*
X117605285Y-115186914D01*
X117590484Y-115165471D01*
X117472241Y-115060718D01*
X117472240Y-115060717D01*
X117402302Y-115024010D01*
X117332364Y-114987303D01*
X117178987Y-114949500D01*
X117178985Y-114949500D01*
X117021015Y-114949500D01*
X117021012Y-114949500D01*
X116867635Y-114987303D01*
X116727758Y-115060718D01*
X116609515Y-115165471D01*
X116519780Y-115295476D01*
X116463763Y-115443182D01*
X116463762Y-115443183D01*
X116444722Y-115599998D01*
X104984588Y-115599998D01*
X103885860Y-114501270D01*
X103885860Y-114501269D01*
X103798735Y-114414143D01*
X103747509Y-114379915D01*
X103696286Y-114345688D01*
X103614003Y-114311606D01*
X103614000Y-114311604D01*
X103613999Y-114311604D01*
X103582453Y-114298537D01*
X103582450Y-114298536D01*
X103503807Y-114282894D01*
X103461609Y-114274500D01*
X103461607Y-114274500D01*
X103461606Y-114274500D01*
X94811607Y-114274500D01*
X94750098Y-114274500D01*
X94691907Y-114255593D01*
X94680094Y-114245504D01*
X94454496Y-114019906D01*
X94436891Y-113985353D01*
X108594722Y-113985353D01*
X108594722Y-113985356D01*
X108613762Y-114142171D01*
X108613763Y-114142173D01*
X108658721Y-114260717D01*
X108669780Y-114289878D01*
X108759515Y-114419883D01*
X108759516Y-114419884D01*
X108759517Y-114419885D01*
X108877760Y-114524638D01*
X109017635Y-114598051D01*
X109171015Y-114635855D01*
X109171018Y-114635855D01*
X109328982Y-114635855D01*
X109328985Y-114635855D01*
X109474466Y-114599998D01*
X118744722Y-114599998D01*
X118744722Y-114600001D01*
X118763762Y-114756816D01*
X118763763Y-114756817D01*
X118819780Y-114904523D01*
X118909515Y-115034528D01*
X118909516Y-115034529D01*
X118909517Y-115034530D01*
X119027760Y-115139283D01*
X119167635Y-115212696D01*
X119321015Y-115250500D01*
X119321018Y-115250500D01*
X119478982Y-115250500D01*
X119478985Y-115250500D01*
X119632365Y-115212696D01*
X119772240Y-115139283D01*
X119890483Y-115034530D01*
X119980220Y-114904523D01*
X120036237Y-114756818D01*
X120055278Y-114600000D01*
X120055041Y-114598051D01*
X120038763Y-114463985D01*
X120036237Y-114443182D01*
X119980220Y-114295477D01*
X119890483Y-114165470D01*
X119772240Y-114060717D01*
X119639236Y-113990910D01*
X119632364Y-113987303D01*
X119478987Y-113949500D01*
X119478985Y-113949500D01*
X119321015Y-113949500D01*
X119321012Y-113949500D01*
X119167635Y-113987303D01*
X119027758Y-114060718D01*
X118909515Y-114165471D01*
X118819780Y-114295476D01*
X118763763Y-114443182D01*
X118763762Y-114443183D01*
X118744722Y-114599998D01*
X109474466Y-114599998D01*
X109482365Y-114598051D01*
X109622240Y-114524638D01*
X109740483Y-114419885D01*
X109830220Y-114289878D01*
X109886237Y-114142173D01*
X109901083Y-114019906D01*
X109905278Y-113985356D01*
X109905278Y-113985353D01*
X109886237Y-113828538D01*
X109886237Y-113828537D01*
X109830220Y-113680832D01*
X109774425Y-113599998D01*
X114744722Y-113599998D01*
X114744722Y-113600001D01*
X114763762Y-113756816D01*
X114763763Y-113756818D01*
X114801726Y-113856918D01*
X114819780Y-113904523D01*
X114909515Y-114034528D01*
X114909516Y-114034529D01*
X114909517Y-114034530D01*
X115027760Y-114139283D01*
X115167635Y-114212696D01*
X115321015Y-114250500D01*
X115321018Y-114250500D01*
X115478982Y-114250500D01*
X115478985Y-114250500D01*
X115632365Y-114212696D01*
X115772240Y-114139283D01*
X115890483Y-114034530D01*
X115980220Y-113904523D01*
X116036237Y-113756818D01*
X116055278Y-113600000D01*
X116048053Y-113540500D01*
X116036237Y-113443183D01*
X116036237Y-113443182D01*
X115980220Y-113295477D01*
X115890483Y-113165470D01*
X115772240Y-113060717D01*
X115698116Y-113021813D01*
X115632364Y-112987303D01*
X115478987Y-112949500D01*
X115478985Y-112949500D01*
X115321015Y-112949500D01*
X115321012Y-112949500D01*
X115167635Y-112987303D01*
X115027758Y-113060718D01*
X114909515Y-113165471D01*
X114819780Y-113295476D01*
X114763763Y-113443182D01*
X114763762Y-113443183D01*
X114744722Y-113599998D01*
X109774425Y-113599998D01*
X109740483Y-113550825D01*
X109622240Y-113446072D01*
X109552302Y-113409365D01*
X109482364Y-113372658D01*
X109328987Y-113334855D01*
X109328985Y-113334855D01*
X109171015Y-113334855D01*
X109171012Y-113334855D01*
X109017635Y-113372658D01*
X108877758Y-113446073D01*
X108759515Y-113550826D01*
X108669780Y-113680831D01*
X108613763Y-113828537D01*
X108613762Y-113828538D01*
X108594722Y-113985353D01*
X94436891Y-113985353D01*
X94426719Y-113965389D01*
X94425500Y-113949902D01*
X94425500Y-112445000D01*
X123787285Y-112445000D01*
X123806103Y-112648083D01*
X123861918Y-112844250D01*
X123952827Y-113026821D01*
X124075736Y-113189579D01*
X124226459Y-113326981D01*
X124399863Y-113434348D01*
X124590044Y-113508024D01*
X124790524Y-113545500D01*
X124994476Y-113545500D01*
X125194956Y-113508024D01*
X125385137Y-113434348D01*
X125558541Y-113326981D01*
X125709264Y-113189579D01*
X125832173Y-113026821D01*
X125923082Y-112844250D01*
X125978897Y-112648083D01*
X125997715Y-112445000D01*
X125978897Y-112241917D01*
X125923082Y-112045750D01*
X125832173Y-111863179D01*
X125709264Y-111700421D01*
X125558541Y-111563019D01*
X125385137Y-111455652D01*
X125194956Y-111381976D01*
X125194955Y-111381975D01*
X125194953Y-111381975D01*
X124994476Y-111344500D01*
X124790524Y-111344500D01*
X124590046Y-111381975D01*
X124520132Y-111409059D01*
X124399863Y-111455652D01*
X124336351Y-111494977D01*
X124226459Y-111563019D01*
X124075737Y-111700420D01*
X123952828Y-111863177D01*
X123952823Y-111863186D01*
X123861919Y-112045747D01*
X123861918Y-112045750D01*
X123806103Y-112241917D01*
X123787285Y-112445000D01*
X94425500Y-112445000D01*
X94425500Y-111100098D01*
X94444407Y-111041907D01*
X94454496Y-111030094D01*
X95956108Y-109528482D01*
X96010625Y-109500705D01*
X96026112Y-109499486D01*
X97366434Y-109499486D01*
X97424625Y-109518393D01*
X97460589Y-109567893D01*
X97460589Y-109629079D01*
X97447910Y-109654724D01*
X97419780Y-109695476D01*
X97363763Y-109843182D01*
X97363762Y-109843183D01*
X97344722Y-109999998D01*
X97344722Y-110000001D01*
X97363762Y-110156816D01*
X97363763Y-110156818D01*
X97401841Y-110257222D01*
X97419780Y-110304523D01*
X97509515Y-110434528D01*
X97509516Y-110434529D01*
X97509517Y-110434530D01*
X97627760Y-110539283D01*
X97767635Y-110612696D01*
X97921015Y-110650500D01*
X97921018Y-110650500D01*
X98078982Y-110650500D01*
X98078985Y-110650500D01*
X98232365Y-110612696D01*
X98372240Y-110539283D01*
X98410913Y-110505022D01*
X108199378Y-110505022D01*
X108199378Y-110505027D01*
X108219859Y-110647481D01*
X108279647Y-110778396D01*
X108279648Y-110778398D01*
X108282753Y-110781981D01*
X108373898Y-110887169D01*
X108419874Y-110916716D01*
X108458606Y-110964082D01*
X108462099Y-111025168D01*
X108429019Y-111076640D01*
X108419874Y-111083284D01*
X108373898Y-111112830D01*
X108279647Y-111221603D01*
X108219859Y-111352518D01*
X108199378Y-111494972D01*
X108199378Y-111494977D01*
X108219859Y-111637431D01*
X108267970Y-111742777D01*
X108279648Y-111768348D01*
X108361817Y-111863177D01*
X108373898Y-111877119D01*
X108492322Y-111953225D01*
X108494972Y-111954928D01*
X108601428Y-111986186D01*
X108633060Y-111995474D01*
X108633061Y-111995474D01*
X108633064Y-111995475D01*
X108633066Y-111995475D01*
X108776984Y-111995475D01*
X108776986Y-111995475D01*
X108915078Y-111954928D01*
X109036153Y-111877118D01*
X109125182Y-111774371D01*
X109177576Y-111742777D01*
X109238537Y-111748012D01*
X109274816Y-111774370D01*
X109351767Y-111863177D01*
X109363848Y-111877119D01*
X109482272Y-111953225D01*
X109484922Y-111954928D01*
X109591378Y-111986186D01*
X109623010Y-111995474D01*
X109623011Y-111995474D01*
X109623014Y-111995475D01*
X109623016Y-111995475D01*
X109766934Y-111995475D01*
X109766936Y-111995475D01*
X109905028Y-111954928D01*
X110026103Y-111877118D01*
X110120352Y-111768348D01*
X110180140Y-111637432D01*
X110200622Y-111494975D01*
X110195472Y-111459158D01*
X110180140Y-111352518D01*
X110120352Y-111221603D01*
X110120352Y-111221602D01*
X110026103Y-111112832D01*
X109980122Y-111083282D01*
X109941394Y-111035919D01*
X109937900Y-110974833D01*
X109970979Y-110923360D01*
X109980110Y-110916725D01*
X110026103Y-110887168D01*
X110120352Y-110778398D01*
X110180140Y-110647482D01*
X110195587Y-110540046D01*
X110200622Y-110505027D01*
X110200622Y-110505022D01*
X110180140Y-110362568D01*
X110151223Y-110299250D01*
X110120352Y-110231652D01*
X110026103Y-110122882D01*
X110026102Y-110122881D01*
X110026101Y-110122880D01*
X109905032Y-110045074D01*
X109905029Y-110045072D01*
X109905028Y-110045072D01*
X109905025Y-110045071D01*
X109766939Y-110004525D01*
X109766936Y-110004525D01*
X109623014Y-110004525D01*
X109623010Y-110004525D01*
X109484924Y-110045071D01*
X109484917Y-110045074D01*
X109363847Y-110122881D01*
X109363845Y-110122882D01*
X109274819Y-110225626D01*
X109222424Y-110257222D01*
X109161463Y-110251986D01*
X109125181Y-110225626D01*
X109036154Y-110122882D01*
X109036152Y-110122881D01*
X108915082Y-110045074D01*
X108915079Y-110045072D01*
X108915078Y-110045072D01*
X108915075Y-110045071D01*
X108776989Y-110004525D01*
X108776986Y-110004525D01*
X108633064Y-110004525D01*
X108633060Y-110004525D01*
X108494974Y-110045071D01*
X108494967Y-110045074D01*
X108373898Y-110122880D01*
X108279647Y-110231653D01*
X108219859Y-110362568D01*
X108199378Y-110505022D01*
X98410913Y-110505022D01*
X98490483Y-110434530D01*
X98580220Y-110304523D01*
X98636237Y-110156818D01*
X98655278Y-110000000D01*
X98636237Y-109843182D01*
X98580220Y-109695477D01*
X98552089Y-109654723D01*
X98534595Y-109596093D01*
X98554903Y-109538377D01*
X98605258Y-109503620D01*
X98633566Y-109499486D01*
X100482565Y-109499486D01*
X100506256Y-109502362D01*
X100596015Y-109524486D01*
X100596018Y-109524486D01*
X100753982Y-109524486D01*
X100753985Y-109524486D01*
X100907365Y-109486682D01*
X101047240Y-109413269D01*
X101165483Y-109308516D01*
X101255220Y-109178509D01*
X101311237Y-109030804D01*
X101330278Y-108873986D01*
X101311237Y-108717168D01*
X101255220Y-108569463D01*
X101173106Y-108450500D01*
X101165484Y-108439457D01*
X101052408Y-108339281D01*
X101047240Y-108334703D01*
X100955080Y-108286333D01*
X100907364Y-108261289D01*
X100753987Y-108223486D01*
X100753985Y-108223486D01*
X100596015Y-108223486D01*
X100596012Y-108223486D01*
X100506257Y-108245609D01*
X100482565Y-108248486D01*
X95664402Y-108248486D01*
X95603984Y-108260503D01*
X95603985Y-108260504D01*
X95543562Y-108272523D01*
X95543560Y-108272523D01*
X95510221Y-108286333D01*
X95429730Y-108319672D01*
X95429729Y-108319672D01*
X95385318Y-108349348D01*
X95327281Y-108388127D01*
X93401267Y-110314142D01*
X93401266Y-110314141D01*
X93314141Y-110401267D01*
X93281246Y-110450500D01*
X93281244Y-110450502D01*
X93245691Y-110503707D01*
X93245687Y-110503714D01*
X93230639Y-110540046D01*
X93198539Y-110617541D01*
X93198537Y-110617548D01*
X93194009Y-110640313D01*
X93193161Y-110644579D01*
X93176842Y-110726623D01*
X93176841Y-110726626D01*
X93174500Y-110738390D01*
X93174500Y-114219933D01*
X93155593Y-114278124D01*
X93106093Y-114314088D01*
X93044907Y-114314088D01*
X93009852Y-114294037D01*
X92972241Y-114260718D01*
X92972240Y-114260717D01*
X92880745Y-114212696D01*
X92832364Y-114187303D01*
X92678987Y-114149500D01*
X92678985Y-114149500D01*
X92521015Y-114149500D01*
X92521012Y-114149500D01*
X92367635Y-114187303D01*
X92227758Y-114260718D01*
X92109515Y-114365471D01*
X92019780Y-114495476D01*
X91963763Y-114643182D01*
X91963762Y-114643183D01*
X91944722Y-114799998D01*
X91944722Y-114800001D01*
X91963762Y-114956816D01*
X91963763Y-114956818D01*
X91993235Y-115034530D01*
X92019780Y-115104523D01*
X92109515Y-115234528D01*
X92109516Y-115234529D01*
X92109517Y-115234530D01*
X92227760Y-115339283D01*
X92367635Y-115412696D01*
X92521015Y-115450500D01*
X92521018Y-115450500D01*
X92678982Y-115450500D01*
X92678985Y-115450500D01*
X92832365Y-115412696D01*
X92972240Y-115339283D01*
X93090483Y-115234530D01*
X93180220Y-115104523D01*
X93236237Y-114956818D01*
X93253522Y-114814461D01*
X93279304Y-114758977D01*
X93332778Y-114729241D01*
X93393517Y-114736616D01*
X93421803Y-114756393D01*
X94013080Y-115347670D01*
X94024550Y-115361433D01*
X94053454Y-115403309D01*
X94109515Y-115484528D01*
X94109516Y-115484529D01*
X94109517Y-115484530D01*
X94227760Y-115589283D01*
X94367635Y-115662696D01*
X94521015Y-115700500D01*
X94521018Y-115700500D01*
X94678982Y-115700500D01*
X94678985Y-115700500D01*
X94832365Y-115662696D01*
X94972240Y-115589283D01*
X95011507Y-115554496D01*
X95016134Y-115550397D01*
X95072229Y-115525962D01*
X95081783Y-115525500D01*
X103099902Y-115525500D01*
X103158093Y-115544407D01*
X103169906Y-115554496D01*
X104945504Y-117330094D01*
X104973281Y-117384611D01*
X104974500Y-117400098D01*
X104974500Y-118823356D01*
X104955593Y-118881547D01*
X104906093Y-118917511D01*
X104844907Y-118917511D01*
X104809854Y-118897461D01*
X104802248Y-118890723D01*
X104662368Y-118817307D01*
X104508991Y-118779504D01*
X104508989Y-118779504D01*
X104351019Y-118779504D01*
X104351016Y-118779504D01*
X104197639Y-118817307D01*
X104057762Y-118890722D01*
X103939519Y-118995475D01*
X103849784Y-119125480D01*
X103793767Y-119273186D01*
X103793766Y-119273187D01*
X103774726Y-119430002D01*
X103774726Y-119430005D01*
X103793766Y-119586820D01*
X103793767Y-119586822D01*
X103817917Y-119650500D01*
X103849784Y-119734527D01*
X103939519Y-119864532D01*
X103939520Y-119864533D01*
X103939521Y-119864534D01*
X104057764Y-119969287D01*
X104197639Y-120042700D01*
X104351019Y-120080504D01*
X104351022Y-120080504D01*
X104508986Y-120080504D01*
X104508989Y-120080504D01*
X104662369Y-120042700D01*
X104802244Y-119969287D01*
X104920487Y-119864534D01*
X104928591Y-119852792D01*
X104943881Y-119830642D01*
X104992497Y-119793492D01*
X105053664Y-119792012D01*
X105104019Y-119826769D01*
X105106835Y-119830645D01*
X105109514Y-119834527D01*
X105109516Y-119834529D01*
X105109517Y-119834530D01*
X105227760Y-119939283D01*
X105367635Y-120012696D01*
X105521015Y-120050500D01*
X105521018Y-120050500D01*
X105678982Y-120050500D01*
X105678985Y-120050500D01*
X105768743Y-120028376D01*
X105792435Y-120025500D01*
X106115056Y-120025500D01*
X106173247Y-120044407D01*
X106185060Y-120054496D01*
X106361060Y-120230496D01*
X106388837Y-120285013D01*
X106379266Y-120345445D01*
X106336001Y-120388710D01*
X106291056Y-120399500D01*
X102681767Y-120399500D01*
X102623576Y-120380593D01*
X102587612Y-120331093D01*
X102587612Y-120269907D01*
X102600292Y-120244262D01*
X102627717Y-120204529D01*
X102627720Y-120204525D01*
X102683737Y-120056820D01*
X102702778Y-119900002D01*
X102698471Y-119864534D01*
X102688154Y-119779558D01*
X102683737Y-119743184D01*
X102627720Y-119595479D01*
X102537983Y-119465472D01*
X102419740Y-119360719D01*
X102312669Y-119304523D01*
X102279864Y-119287305D01*
X102126487Y-119249502D01*
X102126485Y-119249502D01*
X101968515Y-119249502D01*
X101968512Y-119249502D01*
X101815135Y-119287305D01*
X101675258Y-119360720D01*
X101557015Y-119465473D01*
X101467280Y-119595478D01*
X101411263Y-119743184D01*
X101411263Y-119743185D01*
X101407491Y-119774250D01*
X101381707Y-119829737D01*
X101328233Y-119859472D01*
X101271329Y-119853781D01*
X101224853Y-119834531D01*
X101224852Y-119834530D01*
X101210385Y-119828538D01*
X101210380Y-119828536D01*
X101149960Y-119816518D01*
X101149960Y-119816517D01*
X101089542Y-119804500D01*
X101089538Y-119804500D01*
X101089537Y-119804500D01*
X94762399Y-119804500D01*
X94738707Y-119801623D01*
X94648951Y-119779500D01*
X94648949Y-119779500D01*
X94490979Y-119779500D01*
X94490976Y-119779500D01*
X94337599Y-119817303D01*
X94197722Y-119890718D01*
X94079479Y-119995471D01*
X93989744Y-120125476D01*
X93933727Y-120273182D01*
X93933726Y-120273183D01*
X93914686Y-120429998D01*
X93914686Y-120430001D01*
X93933726Y-120586816D01*
X93933727Y-120586818D01*
X93954584Y-120641813D01*
X93989744Y-120734523D01*
X94079479Y-120864528D01*
X94079480Y-120864529D01*
X94079481Y-120864530D01*
X94197724Y-120969283D01*
X94337599Y-121042696D01*
X94490979Y-121080500D01*
X94490982Y-121080500D01*
X94648946Y-121080500D01*
X94648949Y-121080500D01*
X94738707Y-121058376D01*
X94762399Y-121055500D01*
X95645991Y-121055500D01*
X95704182Y-121074407D01*
X95740146Y-121123907D01*
X95740146Y-121185093D01*
X95715996Y-121224501D01*
X95559883Y-121380615D01*
X95550408Y-121390090D01*
X95391783Y-121601988D01*
X95264927Y-121834307D01*
X95264926Y-121834309D01*
X95172424Y-122082317D01*
X95116156Y-122340979D01*
X95097273Y-122605000D01*
X95116156Y-122869020D01*
X95116156Y-122869023D01*
X95116157Y-122869026D01*
X95157857Y-123060717D01*
X95172424Y-123127682D01*
X95264926Y-123375690D01*
X95264927Y-123375692D01*
X95391784Y-123608011D01*
X95391783Y-123608011D01*
X95550408Y-123819909D01*
X95550410Y-123819911D01*
X95550413Y-123819915D01*
X95737585Y-124007087D01*
X95737588Y-124007089D01*
X95737590Y-124007091D01*
X95949488Y-124165716D01*
X96047272Y-124219110D01*
X96089283Y-124263592D01*
X96097125Y-124324273D01*
X96067802Y-124377974D01*
X96012514Y-124404184D01*
X95999826Y-124405000D01*
X92265526Y-124405000D01*
X92207335Y-124386093D01*
X92171371Y-124336593D01*
X92171371Y-124275407D01*
X92207335Y-124225907D01*
X92230421Y-124213433D01*
X92232354Y-124212698D01*
X92232365Y-124212696D01*
X92372240Y-124139283D01*
X92490483Y-124034530D01*
X92580220Y-123904523D01*
X92636237Y-123756818D01*
X92655278Y-123600000D01*
X92636237Y-123443182D01*
X92580220Y-123295477D01*
X92505221Y-123186822D01*
X92490484Y-123165471D01*
X92490085Y-123165117D01*
X92372240Y-123060717D01*
X92302302Y-123024010D01*
X92232364Y-122987303D01*
X92078987Y-122949500D01*
X92078985Y-122949500D01*
X91921015Y-122949500D01*
X91921012Y-122949500D01*
X91767635Y-122987303D01*
X91627758Y-123060718D01*
X91509515Y-123165471D01*
X91419780Y-123295476D01*
X91363763Y-123443182D01*
X91363762Y-123443183D01*
X91344722Y-123599998D01*
X91344722Y-123600001D01*
X91363762Y-123756816D01*
X91363763Y-123756818D01*
X91419780Y-123904523D01*
X91509515Y-124034528D01*
X91509516Y-124034529D01*
X91509517Y-124034530D01*
X91627760Y-124139283D01*
X91767635Y-124212696D01*
X91767642Y-124212697D01*
X91769579Y-124213433D01*
X91770596Y-124214249D01*
X91772938Y-124215479D01*
X91772697Y-124215937D01*
X91817284Y-124251746D01*
X91833358Y-124310782D01*
X91811662Y-124367992D01*
X91760483Y-124401522D01*
X91734474Y-124405000D01*
X84931500Y-124405000D01*
X84873309Y-124386093D01*
X84837345Y-124336593D01*
X84832500Y-124306000D01*
X84832500Y-122600000D01*
X85692285Y-122600000D01*
X85711103Y-122803083D01*
X85766918Y-122999250D01*
X85857827Y-123181821D01*
X85980736Y-123344579D01*
X86131459Y-123481981D01*
X86304863Y-123589348D01*
X86495044Y-123663024D01*
X86695524Y-123700500D01*
X86899476Y-123700500D01*
X87099956Y-123663024D01*
X87290137Y-123589348D01*
X87463541Y-123481981D01*
X87614264Y-123344579D01*
X87737173Y-123181821D01*
X87828082Y-122999250D01*
X87883897Y-122803083D01*
X87902715Y-122600000D01*
X87883897Y-122396917D01*
X87828082Y-122200750D01*
X87737173Y-122018179D01*
X87614264Y-121855421D01*
X87471558Y-121725327D01*
X88237000Y-121725327D01*
X88237000Y-123474672D01*
X88237001Y-123474684D01*
X88251533Y-123547736D01*
X88251535Y-123547742D01*
X88306897Y-123630599D01*
X88306900Y-123630602D01*
X88355424Y-123663024D01*
X88389760Y-123685966D01*
X88445308Y-123697015D01*
X88462815Y-123700498D01*
X88462820Y-123700498D01*
X88462826Y-123700500D01*
X88462827Y-123700500D01*
X90212173Y-123700500D01*
X90212174Y-123700500D01*
X90285240Y-123685966D01*
X90368101Y-123630601D01*
X90423466Y-123547740D01*
X90438000Y-123474674D01*
X90438000Y-121725326D01*
X90423466Y-121652260D01*
X90368893Y-121570584D01*
X90368102Y-121569400D01*
X90368099Y-121569397D01*
X90285242Y-121514035D01*
X90285240Y-121514034D01*
X90285237Y-121514033D01*
X90285236Y-121514033D01*
X90212184Y-121499501D01*
X90212174Y-121499500D01*
X88462826Y-121499500D01*
X88462825Y-121499500D01*
X88462815Y-121499501D01*
X88389763Y-121514033D01*
X88389757Y-121514035D01*
X88306900Y-121569397D01*
X88306897Y-121569400D01*
X88251535Y-121652257D01*
X88251533Y-121652263D01*
X88237001Y-121725315D01*
X88237000Y-121725327D01*
X87471558Y-121725327D01*
X87463541Y-121718019D01*
X87290137Y-121610652D01*
X87099956Y-121536976D01*
X87099955Y-121536975D01*
X87099953Y-121536975D01*
X86899476Y-121499500D01*
X86695524Y-121499500D01*
X86495046Y-121536975D01*
X86425132Y-121564059D01*
X86304863Y-121610652D01*
X86174597Y-121691309D01*
X86131459Y-121718019D01*
X85980737Y-121855420D01*
X85857828Y-122018177D01*
X85857823Y-122018186D01*
X85766919Y-122200747D01*
X85766918Y-122200750D01*
X85711103Y-122396917D01*
X85692285Y-122600000D01*
X84832500Y-122600000D01*
X84832500Y-120060000D01*
X85692285Y-120060000D01*
X85711103Y-120263083D01*
X85766918Y-120459250D01*
X85857827Y-120641821D01*
X85980736Y-120804579D01*
X86131459Y-120941981D01*
X86304863Y-121049348D01*
X86495044Y-121123024D01*
X86695524Y-121160500D01*
X86899476Y-121160500D01*
X87099956Y-121123024D01*
X87290137Y-121049348D01*
X87463541Y-120941981D01*
X87614264Y-120804579D01*
X87737173Y-120641821D01*
X87828082Y-120459250D01*
X87883897Y-120263083D01*
X87902715Y-120060000D01*
X88232285Y-120060000D01*
X88251103Y-120263083D01*
X88306918Y-120459250D01*
X88397827Y-120641821D01*
X88520736Y-120804579D01*
X88671459Y-120941981D01*
X88844863Y-121049348D01*
X89035044Y-121123024D01*
X89235524Y-121160500D01*
X89439476Y-121160500D01*
X89639956Y-121123024D01*
X89830137Y-121049348D01*
X90003541Y-120941981D01*
X90154264Y-120804579D01*
X90277173Y-120641821D01*
X90368082Y-120459250D01*
X90423897Y-120263083D01*
X90442715Y-120060000D01*
X90423897Y-119856917D01*
X90368082Y-119660750D01*
X90277173Y-119478179D01*
X90154264Y-119315421D01*
X90003541Y-119178019D01*
X89830137Y-119070652D01*
X89639956Y-118996976D01*
X89639955Y-118996975D01*
X89639953Y-118996975D01*
X89439476Y-118959500D01*
X89235524Y-118959500D01*
X89035046Y-118996975D01*
X88967553Y-119023122D01*
X88844863Y-119070652D01*
X88705700Y-119156818D01*
X88671459Y-119178019D01*
X88520737Y-119315420D01*
X88397828Y-119478177D01*
X88397823Y-119478186D01*
X88306919Y-119660747D01*
X88306918Y-119660750D01*
X88251103Y-119856917D01*
X88232285Y-120060000D01*
X87902715Y-120060000D01*
X87883897Y-119856917D01*
X87828082Y-119660750D01*
X87737173Y-119478179D01*
X87614264Y-119315421D01*
X87463541Y-119178019D01*
X87290137Y-119070652D01*
X87099956Y-118996976D01*
X87099955Y-118996975D01*
X87099953Y-118996975D01*
X86899476Y-118959500D01*
X86695524Y-118959500D01*
X86495046Y-118996975D01*
X86427553Y-119023122D01*
X86304863Y-119070652D01*
X86165700Y-119156818D01*
X86131459Y-119178019D01*
X85980737Y-119315420D01*
X85857828Y-119478177D01*
X85857823Y-119478186D01*
X85766919Y-119660747D01*
X85766918Y-119660750D01*
X85711103Y-119856917D01*
X85692285Y-120060000D01*
X84832500Y-120060000D01*
X84832500Y-116749349D01*
X84851407Y-116691158D01*
X84900907Y-116655194D01*
X84962093Y-116655194D01*
X85011593Y-116691158D01*
X85019161Y-116703342D01*
X85019781Y-116704524D01*
X85109515Y-116834528D01*
X85109516Y-116834529D01*
X85109517Y-116834530D01*
X85227760Y-116939283D01*
X85367635Y-117012696D01*
X85521015Y-117050500D01*
X85521018Y-117050500D01*
X85655809Y-117050500D01*
X85714000Y-117069407D01*
X85749964Y-117118907D01*
X85751029Y-117176590D01*
X85711103Y-117316917D01*
X85692285Y-117520000D01*
X85711103Y-117723083D01*
X85766918Y-117919250D01*
X85857827Y-118101821D01*
X85980736Y-118264579D01*
X86131459Y-118401981D01*
X86304863Y-118509348D01*
X86495044Y-118583024D01*
X86695524Y-118620500D01*
X86899476Y-118620500D01*
X87099956Y-118583024D01*
X87290137Y-118509348D01*
X87463541Y-118401981D01*
X87614264Y-118264579D01*
X87737173Y-118101821D01*
X87828082Y-117919250D01*
X87883897Y-117723083D01*
X87902715Y-117520000D01*
X87883897Y-117316917D01*
X87828082Y-117120750D01*
X87737173Y-116938179D01*
X87614264Y-116775421D01*
X87463541Y-116638019D01*
X87290137Y-116530652D01*
X87099956Y-116456976D01*
X87099955Y-116456975D01*
X87099953Y-116456975D01*
X86899476Y-116419500D01*
X86695524Y-116419500D01*
X86495044Y-116456975D01*
X86390040Y-116497654D01*
X86328949Y-116501044D01*
X86277532Y-116467878D01*
X86255430Y-116410824D01*
X86255278Y-116405339D01*
X86255278Y-116399998D01*
X86242584Y-116295454D01*
X86236237Y-116243182D01*
X86181427Y-116098661D01*
X86178472Y-116037550D01*
X86212003Y-115986370D01*
X86269212Y-115964674D01*
X86309752Y-115971242D01*
X86495044Y-116043024D01*
X86695524Y-116080500D01*
X86899476Y-116080500D01*
X87099956Y-116043024D01*
X87290137Y-115969348D01*
X87463541Y-115861981D01*
X87614264Y-115724579D01*
X87737173Y-115561821D01*
X87828082Y-115379250D01*
X87883897Y-115183083D01*
X87902715Y-114980000D01*
X87883897Y-114776917D01*
X87828082Y-114580750D01*
X87737173Y-114398179D01*
X87614264Y-114235421D01*
X87463541Y-114098019D01*
X87290137Y-113990652D01*
X87099956Y-113916976D01*
X87099955Y-113916975D01*
X87099953Y-113916975D01*
X86899476Y-113879500D01*
X86695524Y-113879500D01*
X86495046Y-113916975D01*
X86482140Y-113921975D01*
X86304863Y-113990652D01*
X86131459Y-114098019D01*
X85980737Y-114235420D01*
X85857828Y-114398177D01*
X85857823Y-114398186D01*
X85766919Y-114580747D01*
X85766918Y-114580750D01*
X85711103Y-114776917D01*
X85692285Y-114980000D01*
X85711103Y-115183083D01*
X85766918Y-115379250D01*
X85857827Y-115561821D01*
X85904836Y-115624071D01*
X85924815Y-115681901D01*
X85906986Y-115740432D01*
X85858159Y-115777304D01*
X85802140Y-115779854D01*
X85678988Y-115749500D01*
X85678985Y-115749500D01*
X85521015Y-115749500D01*
X85521012Y-115749500D01*
X85367635Y-115787303D01*
X85227758Y-115860718D01*
X85109515Y-115965471D01*
X85019778Y-116095479D01*
X85019158Y-116096662D01*
X85018559Y-116097246D01*
X85016379Y-116100405D01*
X85015760Y-116099978D01*
X84975371Y-116139399D01*
X84914827Y-116148236D01*
X84860652Y-116119799D01*
X84833538Y-116064949D01*
X84832500Y-116050650D01*
X84832500Y-112440000D01*
X85692285Y-112440000D01*
X85711103Y-112643083D01*
X85766918Y-112839250D01*
X85857827Y-113021821D01*
X85980736Y-113184579D01*
X86131459Y-113321981D01*
X86304863Y-113429348D01*
X86495044Y-113503024D01*
X86695524Y-113540500D01*
X86899476Y-113540500D01*
X87099956Y-113503024D01*
X87290137Y-113429348D01*
X87463541Y-113321981D01*
X87614264Y-113184579D01*
X87737173Y-113021821D01*
X87828082Y-112839250D01*
X87883897Y-112643083D01*
X87902715Y-112440000D01*
X87883897Y-112236917D01*
X87828082Y-112040750D01*
X87737173Y-111858179D01*
X87614264Y-111695421D01*
X87463541Y-111558019D01*
X87290137Y-111450652D01*
X87099956Y-111376976D01*
X87099955Y-111376975D01*
X87099953Y-111376975D01*
X86899476Y-111339500D01*
X86695524Y-111339500D01*
X86495046Y-111376975D01*
X86472411Y-111385744D01*
X86304863Y-111450652D01*
X86257413Y-111480032D01*
X86131459Y-111558019D01*
X85980737Y-111695420D01*
X85857828Y-111858177D01*
X85857823Y-111858186D01*
X85787985Y-111998441D01*
X85766918Y-112040750D01*
X85711103Y-112236917D01*
X85692285Y-112440000D01*
X84832500Y-112440000D01*
X84832500Y-109900000D01*
X85692285Y-109900000D01*
X85711103Y-110103083D01*
X85766918Y-110299250D01*
X85857827Y-110481821D01*
X85980736Y-110644579D01*
X86131459Y-110781981D01*
X86304863Y-110889348D01*
X86495044Y-110963024D01*
X86695524Y-111000500D01*
X86899476Y-111000500D01*
X87099956Y-110963024D01*
X87290137Y-110889348D01*
X87463541Y-110781981D01*
X87614264Y-110644579D01*
X87737173Y-110481821D01*
X87828082Y-110299250D01*
X87883897Y-110103083D01*
X87902715Y-109900000D01*
X87883897Y-109696917D01*
X87828082Y-109500750D01*
X87737173Y-109318179D01*
X87614264Y-109155421D01*
X87463541Y-109018019D01*
X87290137Y-108910652D01*
X87099956Y-108836976D01*
X87099955Y-108836975D01*
X87099953Y-108836975D01*
X86899476Y-108799500D01*
X86695524Y-108799500D01*
X86495046Y-108836975D01*
X86425132Y-108864059D01*
X86304863Y-108910652D01*
X86131459Y-109018019D01*
X85980737Y-109155420D01*
X85857828Y-109318177D01*
X85857823Y-109318186D01*
X85767547Y-109499486D01*
X85766918Y-109500750D01*
X85711103Y-109696917D01*
X85692285Y-109900000D01*
X84832500Y-109900000D01*
X84832500Y-107360000D01*
X85692285Y-107360000D01*
X85711103Y-107563083D01*
X85766330Y-107757184D01*
X85766919Y-107759252D01*
X85847442Y-107920966D01*
X85857827Y-107941821D01*
X85980736Y-108104579D01*
X86131459Y-108241981D01*
X86304863Y-108349348D01*
X86495044Y-108423024D01*
X86695524Y-108460500D01*
X86899476Y-108460500D01*
X87099956Y-108423024D01*
X87290137Y-108349348D01*
X87463541Y-108241981D01*
X87614264Y-108104579D01*
X87737173Y-107941821D01*
X87828082Y-107759250D01*
X87883897Y-107563083D01*
X87902715Y-107360000D01*
X87883897Y-107156917D01*
X87828082Y-106960750D01*
X87737173Y-106778179D01*
X87614264Y-106615421D01*
X87463541Y-106478019D01*
X87290137Y-106370652D01*
X87099956Y-106296976D01*
X87099955Y-106296975D01*
X87099953Y-106296975D01*
X86899476Y-106259500D01*
X86695524Y-106259500D01*
X86495046Y-106296975D01*
X86425132Y-106324059D01*
X86304863Y-106370652D01*
X86131459Y-106478019D01*
X85980737Y-106615420D01*
X85857828Y-106778177D01*
X85857823Y-106778186D01*
X85772751Y-106949035D01*
X85766918Y-106960750D01*
X85711103Y-107156917D01*
X85692285Y-107360000D01*
X84832500Y-107360000D01*
X84832500Y-104820000D01*
X85692285Y-104820000D01*
X85711103Y-105023083D01*
X85766918Y-105219250D01*
X85857827Y-105401821D01*
X85980736Y-105564579D01*
X86131459Y-105701981D01*
X86304863Y-105809348D01*
X86495044Y-105883024D01*
X86695524Y-105920500D01*
X86899476Y-105920500D01*
X87099956Y-105883024D01*
X87290137Y-105809348D01*
X87463541Y-105701981D01*
X87614264Y-105564579D01*
X87737173Y-105401821D01*
X87828082Y-105219250D01*
X87883897Y-105023083D01*
X87902715Y-104820000D01*
X88232285Y-104820000D01*
X88251103Y-105023083D01*
X88306918Y-105219250D01*
X88397827Y-105401821D01*
X88520736Y-105564579D01*
X88671459Y-105701981D01*
X88844863Y-105809348D01*
X89035044Y-105883024D01*
X89235524Y-105920500D01*
X89439476Y-105920500D01*
X89639956Y-105883024D01*
X89830137Y-105809348D01*
X90003541Y-105701981D01*
X90154264Y-105564579D01*
X90154266Y-105564576D01*
X90157646Y-105561495D01*
X90158955Y-105562931D01*
X90205486Y-105536430D01*
X90266297Y-105543183D01*
X90311526Y-105584390D01*
X90324500Y-105633386D01*
X90324500Y-106546613D01*
X90305593Y-106604804D01*
X90256093Y-106640768D01*
X90194907Y-106640768D01*
X90158662Y-106617390D01*
X90157646Y-106618505D01*
X90154266Y-106615423D01*
X90154264Y-106615421D01*
X90003541Y-106478019D01*
X89830137Y-106370652D01*
X89639956Y-106296976D01*
X89639955Y-106296975D01*
X89639953Y-106296975D01*
X89439476Y-106259500D01*
X89235524Y-106259500D01*
X89035046Y-106296975D01*
X88965132Y-106324059D01*
X88844863Y-106370652D01*
X88671459Y-106478019D01*
X88520737Y-106615420D01*
X88397828Y-106778177D01*
X88397823Y-106778186D01*
X88312751Y-106949035D01*
X88306918Y-106960750D01*
X88251103Y-107156917D01*
X88232285Y-107360000D01*
X88251103Y-107563083D01*
X88306330Y-107757184D01*
X88306919Y-107759252D01*
X88387442Y-107920966D01*
X88397827Y-107941821D01*
X88520736Y-108104579D01*
X88671459Y-108241981D01*
X88844863Y-108349348D01*
X89035044Y-108423024D01*
X89235524Y-108460500D01*
X89439476Y-108460500D01*
X89639956Y-108423024D01*
X89830137Y-108349348D01*
X90003541Y-108241981D01*
X90154264Y-108104579D01*
X90154266Y-108104576D01*
X90157646Y-108101495D01*
X90158955Y-108102931D01*
X90205486Y-108076430D01*
X90266297Y-108083183D01*
X90311526Y-108124390D01*
X90324500Y-108173386D01*
X90324500Y-109086613D01*
X90305593Y-109144804D01*
X90256093Y-109180768D01*
X90194907Y-109180768D01*
X90158662Y-109157390D01*
X90157646Y-109158505D01*
X90154266Y-109155423D01*
X90154264Y-109155421D01*
X90003541Y-109018019D01*
X89830137Y-108910652D01*
X89639956Y-108836976D01*
X89639955Y-108836975D01*
X89639953Y-108836975D01*
X89439476Y-108799500D01*
X89235524Y-108799500D01*
X89035046Y-108836975D01*
X88965132Y-108864059D01*
X88844863Y-108910652D01*
X88671459Y-109018019D01*
X88520737Y-109155420D01*
X88397828Y-109318177D01*
X88397823Y-109318186D01*
X88307547Y-109499486D01*
X88306918Y-109500750D01*
X88251103Y-109696917D01*
X88232285Y-109900000D01*
X88251103Y-110103083D01*
X88306918Y-110299250D01*
X88397827Y-110481821D01*
X88520736Y-110644579D01*
X88671459Y-110781981D01*
X88844863Y-110889348D01*
X89035044Y-110963024D01*
X89235524Y-111000500D01*
X89439476Y-111000500D01*
X89639956Y-110963024D01*
X89830137Y-110889348D01*
X90003541Y-110781981D01*
X90154264Y-110644579D01*
X90154266Y-110644576D01*
X90157646Y-110641495D01*
X90158955Y-110642931D01*
X90205486Y-110616430D01*
X90266297Y-110623183D01*
X90311526Y-110664390D01*
X90324500Y-110713386D01*
X90324500Y-111626613D01*
X90305593Y-111684804D01*
X90256093Y-111720768D01*
X90194907Y-111720768D01*
X90158662Y-111697390D01*
X90157646Y-111698505D01*
X90154266Y-111695423D01*
X90154264Y-111695421D01*
X90003541Y-111558019D01*
X89830137Y-111450652D01*
X89639956Y-111376976D01*
X89639955Y-111376975D01*
X89639953Y-111376975D01*
X89439476Y-111339500D01*
X89235524Y-111339500D01*
X89035046Y-111376975D01*
X89012411Y-111385744D01*
X88844863Y-111450652D01*
X88797413Y-111480032D01*
X88671459Y-111558019D01*
X88520737Y-111695420D01*
X88397828Y-111858177D01*
X88397823Y-111858186D01*
X88327985Y-111998441D01*
X88306918Y-112040750D01*
X88251103Y-112236917D01*
X88232285Y-112440000D01*
X88251103Y-112643083D01*
X88306918Y-112839250D01*
X88397827Y-113021821D01*
X88520736Y-113184579D01*
X88671459Y-113321981D01*
X88844863Y-113429348D01*
X89035044Y-113503024D01*
X89235524Y-113540500D01*
X89439476Y-113540500D01*
X89639956Y-113503024D01*
X89830137Y-113429348D01*
X89923384Y-113371611D01*
X89982811Y-113357053D01*
X90039446Y-113380206D01*
X90071657Y-113432227D01*
X90074500Y-113455783D01*
X90074501Y-113857958D01*
X90074501Y-113963319D01*
X90071580Y-113963319D01*
X90062602Y-114011589D01*
X90018193Y-114053679D01*
X89957527Y-114061627D01*
X89923515Y-114048469D01*
X89830137Y-113990652D01*
X89639956Y-113916976D01*
X89639955Y-113916975D01*
X89639953Y-113916975D01*
X89439476Y-113879500D01*
X89235524Y-113879500D01*
X89035046Y-113916975D01*
X89022140Y-113921975D01*
X88844863Y-113990652D01*
X88671459Y-114098019D01*
X88520737Y-114235420D01*
X88397828Y-114398177D01*
X88397823Y-114398186D01*
X88306919Y-114580747D01*
X88306918Y-114580750D01*
X88251103Y-114776917D01*
X88232285Y-114980000D01*
X88251103Y-115183083D01*
X88306918Y-115379250D01*
X88397827Y-115561821D01*
X88520736Y-115724579D01*
X88671459Y-115861981D01*
X88844863Y-115969348D01*
X89035044Y-116043024D01*
X89235524Y-116080500D01*
X89439476Y-116080500D01*
X89639956Y-116043024D01*
X89830137Y-115969348D01*
X90003541Y-115861981D01*
X90154264Y-115724579D01*
X90154266Y-115724576D01*
X90157646Y-115721495D01*
X90158955Y-115722931D01*
X90205486Y-115696430D01*
X90266297Y-115703183D01*
X90311526Y-115744390D01*
X90324500Y-115793386D01*
X90324500Y-116706613D01*
X90305593Y-116764804D01*
X90256093Y-116800768D01*
X90194907Y-116800768D01*
X90158662Y-116777390D01*
X90157646Y-116778505D01*
X90154266Y-116775423D01*
X90154264Y-116775421D01*
X90003541Y-116638019D01*
X89830137Y-116530652D01*
X89639956Y-116456976D01*
X89639955Y-116456975D01*
X89639953Y-116456975D01*
X89439476Y-116419500D01*
X89235524Y-116419500D01*
X89035046Y-116456975D01*
X89022140Y-116461975D01*
X88844863Y-116530652D01*
X88710027Y-116614139D01*
X88671459Y-116638019D01*
X88555241Y-116743966D01*
X88520736Y-116775421D01*
X88480888Y-116828188D01*
X88397828Y-116938177D01*
X88397823Y-116938186D01*
X88306919Y-117120747D01*
X88306918Y-117120750D01*
X88251103Y-117316917D01*
X88232285Y-117520000D01*
X88251103Y-117723083D01*
X88306918Y-117919250D01*
X88397827Y-118101821D01*
X88520736Y-118264579D01*
X88671459Y-118401981D01*
X88844863Y-118509348D01*
X89035044Y-118583024D01*
X89235524Y-118620500D01*
X89439476Y-118620500D01*
X89639956Y-118583024D01*
X89830137Y-118509348D01*
X90003541Y-118401981D01*
X90154264Y-118264579D01*
X90154266Y-118264576D01*
X90157646Y-118261495D01*
X90158955Y-118262931D01*
X90205486Y-118236430D01*
X90266297Y-118243183D01*
X90311526Y-118284390D01*
X90324500Y-118333386D01*
X90324500Y-118906559D01*
X90350090Y-119002062D01*
X90397085Y-119083459D01*
X90399526Y-119087687D01*
X90898659Y-119586820D01*
X91328891Y-120017052D01*
X91356668Y-120071569D01*
X91357165Y-120098988D01*
X91349524Y-120161923D01*
X91349524Y-120161927D01*
X91368564Y-120318742D01*
X91368565Y-120318744D01*
X91392021Y-120380593D01*
X91424582Y-120466449D01*
X91514317Y-120596454D01*
X91514318Y-120596455D01*
X91514319Y-120596456D01*
X91632562Y-120701209D01*
X91772437Y-120774622D01*
X91925817Y-120812426D01*
X91925820Y-120812426D01*
X92083784Y-120812426D01*
X92083787Y-120812426D01*
X92237167Y-120774622D01*
X92377042Y-120701209D01*
X92495285Y-120596456D01*
X92585022Y-120466449D01*
X92641039Y-120318744D01*
X92660080Y-120161926D01*
X92641039Y-120005108D01*
X92585022Y-119857403D01*
X92512845Y-119752836D01*
X92495286Y-119727397D01*
X92377043Y-119622644D01*
X92377042Y-119622643D01*
X92307104Y-119585936D01*
X92237166Y-119549229D01*
X92083789Y-119511426D01*
X92083787Y-119511426D01*
X91926348Y-119511426D01*
X91868157Y-119492519D01*
X91856344Y-119482430D01*
X91104496Y-118730582D01*
X91076719Y-118676065D01*
X91075500Y-118660578D01*
X91075500Y-118199998D01*
X94144722Y-118199998D01*
X94144722Y-118200001D01*
X94163762Y-118356816D01*
X94163763Y-118356818D01*
X94185556Y-118414281D01*
X94219780Y-118504523D01*
X94309515Y-118634528D01*
X94309516Y-118634529D01*
X94309517Y-118634530D01*
X94427760Y-118739283D01*
X94567635Y-118812696D01*
X94721015Y-118850500D01*
X94721018Y-118850500D01*
X94878982Y-118850500D01*
X94878985Y-118850500D01*
X95032365Y-118812696D01*
X95056559Y-118799998D01*
X98344722Y-118799998D01*
X98344722Y-118800001D01*
X98363762Y-118956816D01*
X98363763Y-118956818D01*
X98411792Y-119083460D01*
X98419780Y-119104523D01*
X98509515Y-119234528D01*
X98509516Y-119234529D01*
X98509517Y-119234530D01*
X98627760Y-119339283D01*
X98767635Y-119412696D01*
X98921015Y-119450500D01*
X98921018Y-119450500D01*
X99078982Y-119450500D01*
X99078985Y-119450500D01*
X99232365Y-119412696D01*
X99372240Y-119339283D01*
X99490483Y-119234530D01*
X99580220Y-119104523D01*
X99636237Y-118956818D01*
X99650035Y-118843182D01*
X99655278Y-118800001D01*
X99655278Y-118799998D01*
X99638349Y-118660578D01*
X99636237Y-118643182D01*
X99580220Y-118495477D01*
X99490483Y-118365470D01*
X99372240Y-118260717D01*
X99302302Y-118224010D01*
X99232364Y-118187303D01*
X99078987Y-118149500D01*
X99078985Y-118149500D01*
X98921015Y-118149500D01*
X98921012Y-118149500D01*
X98767635Y-118187303D01*
X98627758Y-118260718D01*
X98509515Y-118365471D01*
X98419780Y-118495476D01*
X98363763Y-118643182D01*
X98363762Y-118643183D01*
X98344722Y-118799998D01*
X95056559Y-118799998D01*
X95172240Y-118739283D01*
X95290483Y-118634530D01*
X95380220Y-118504523D01*
X95436237Y-118356818D01*
X95455278Y-118200000D01*
X95453736Y-118187304D01*
X95436237Y-118043183D01*
X95436237Y-118043182D01*
X95380220Y-117895477D01*
X95366084Y-117874998D01*
X100063422Y-117874998D01*
X100063422Y-117875001D01*
X100082462Y-118031816D01*
X100082463Y-118031818D01*
X100109009Y-118101813D01*
X100138480Y-118179523D01*
X100228215Y-118309528D01*
X100228216Y-118309529D01*
X100228217Y-118309530D01*
X100346460Y-118414283D01*
X100486335Y-118487696D01*
X100639715Y-118525500D01*
X100639718Y-118525500D01*
X100797682Y-118525500D01*
X100797685Y-118525500D01*
X100951065Y-118487696D01*
X101090940Y-118414283D01*
X101209183Y-118309530D01*
X101298920Y-118179523D01*
X101354937Y-118031818D01*
X101373978Y-117875000D01*
X101354937Y-117718182D01*
X101298920Y-117570477D01*
X101209183Y-117440470D01*
X101090940Y-117335717D01*
X101021002Y-117299010D01*
X100951064Y-117262303D01*
X100797687Y-117224500D01*
X100797685Y-117224500D01*
X100639715Y-117224500D01*
X100639712Y-117224500D01*
X100486335Y-117262303D01*
X100346458Y-117335718D01*
X100228215Y-117440471D01*
X100138480Y-117570476D01*
X100082463Y-117718182D01*
X100082462Y-117718183D01*
X100063422Y-117874998D01*
X95366084Y-117874998D01*
X95290483Y-117765470D01*
X95172240Y-117660717D01*
X95102302Y-117624010D01*
X95032364Y-117587303D01*
X94878987Y-117549500D01*
X94878985Y-117549500D01*
X94721015Y-117549500D01*
X94721012Y-117549500D01*
X94567635Y-117587303D01*
X94427758Y-117660718D01*
X94309515Y-117765471D01*
X94219780Y-117895476D01*
X94163763Y-118043182D01*
X94163762Y-118043183D01*
X94144722Y-118199998D01*
X91075500Y-118199998D01*
X91075500Y-114107959D01*
X91075500Y-114107958D01*
X91049910Y-114012455D01*
X91049908Y-114012452D01*
X91049908Y-114012450D01*
X91000475Y-113926831D01*
X90930562Y-113856917D01*
X90930562Y-113856918D01*
X90854496Y-113780852D01*
X90826719Y-113726335D01*
X90825500Y-113710848D01*
X90825500Y-113075527D01*
X90844407Y-113017336D01*
X90854497Y-113005523D01*
X90910520Y-112949500D01*
X91000474Y-112859547D01*
X91000477Y-112859542D01*
X91009306Y-112844251D01*
X91049908Y-112773926D01*
X91049908Y-112773924D01*
X91049910Y-112773922D01*
X91075500Y-112678419D01*
X91075500Y-112516847D01*
X91094407Y-112458656D01*
X91143907Y-112422692D01*
X91205093Y-112422692D01*
X91240148Y-112442743D01*
X91347359Y-112537723D01*
X91487234Y-112611136D01*
X91640614Y-112648940D01*
X91640617Y-112648940D01*
X91798581Y-112648940D01*
X91798584Y-112648940D01*
X91951964Y-112611136D01*
X92091839Y-112537723D01*
X92210082Y-112432970D01*
X92299819Y-112302963D01*
X92355836Y-112155258D01*
X92374877Y-111998440D01*
X92369593Y-111954925D01*
X92355836Y-111841623D01*
X92355836Y-111841622D01*
X92299819Y-111693917D01*
X92210082Y-111563910D01*
X92091839Y-111459157D01*
X92021901Y-111422450D01*
X91951963Y-111385743D01*
X91798586Y-111347940D01*
X91798584Y-111347940D01*
X91640614Y-111347940D01*
X91640611Y-111347940D01*
X91487234Y-111385743D01*
X91347357Y-111459158D01*
X91240149Y-111554135D01*
X91184054Y-111578570D01*
X91124310Y-111565367D01*
X91083737Y-111519568D01*
X91075500Y-111480032D01*
X91075500Y-107225327D01*
X95499500Y-107225327D01*
X95499500Y-107774672D01*
X95499501Y-107774684D01*
X95514033Y-107847736D01*
X95514035Y-107847742D01*
X95569397Y-107930599D01*
X95569400Y-107930602D01*
X95608636Y-107956818D01*
X95652260Y-107985966D01*
X95707808Y-107997015D01*
X95725315Y-108000498D01*
X95725320Y-108000498D01*
X95725326Y-108000500D01*
X95725327Y-108000500D01*
X96274673Y-108000500D01*
X96274674Y-108000500D01*
X96347740Y-107985966D01*
X96430601Y-107930601D01*
X96485966Y-107847740D01*
X96500500Y-107774674D01*
X96500500Y-107225326D01*
X96485966Y-107152260D01*
X96484674Y-107150327D01*
X99799500Y-107150327D01*
X99799500Y-107699672D01*
X99799501Y-107699684D01*
X99814033Y-107772736D01*
X99814035Y-107772742D01*
X99869397Y-107855599D01*
X99869400Y-107855602D01*
X99952257Y-107910964D01*
X99952260Y-107910966D01*
X100007808Y-107922015D01*
X100025315Y-107925498D01*
X100025320Y-107925498D01*
X100025326Y-107925500D01*
X100025327Y-107925500D01*
X100574673Y-107925500D01*
X100574674Y-107925500D01*
X100647740Y-107910966D01*
X100730601Y-107855601D01*
X100767754Y-107799996D01*
X108544722Y-107799996D01*
X108544722Y-107800001D01*
X108563762Y-107956816D01*
X108563763Y-107956818D01*
X108609126Y-108076430D01*
X108619780Y-108104523D01*
X108709515Y-108234528D01*
X108709516Y-108234529D01*
X108709517Y-108234530D01*
X108827760Y-108339283D01*
X108967635Y-108412696D01*
X109121015Y-108450500D01*
X109121018Y-108450500D01*
X109278982Y-108450500D01*
X109278985Y-108450500D01*
X109432365Y-108412696D01*
X109572240Y-108339283D01*
X109690483Y-108234530D01*
X109780220Y-108104523D01*
X109836237Y-107956818D01*
X109855278Y-107800000D01*
X109854440Y-107793102D01*
X109836237Y-107643183D01*
X109836237Y-107643182D01*
X109780220Y-107495477D01*
X109690483Y-107365470D01*
X109572240Y-107260717D01*
X109471445Y-107207815D01*
X109432364Y-107187303D01*
X109282342Y-107150327D01*
X113699500Y-107150327D01*
X113699500Y-107699672D01*
X113699501Y-107699684D01*
X113714033Y-107772736D01*
X113714035Y-107772742D01*
X113769397Y-107855599D01*
X113769400Y-107855602D01*
X113852257Y-107910964D01*
X113852260Y-107910966D01*
X113907808Y-107922015D01*
X113925315Y-107925498D01*
X113925320Y-107925498D01*
X113925326Y-107925500D01*
X113925327Y-107925500D01*
X114474673Y-107925500D01*
X114474674Y-107925500D01*
X114547740Y-107910966D01*
X114630601Y-107855601D01*
X114685966Y-107772740D01*
X114700500Y-107699674D01*
X114700500Y-107150326D01*
X114688068Y-107087827D01*
X117299500Y-107087827D01*
X117299500Y-107637172D01*
X117299501Y-107637184D01*
X117314033Y-107710236D01*
X117314035Y-107710242D01*
X117369397Y-107793099D01*
X117369400Y-107793102D01*
X117424976Y-107830236D01*
X117452260Y-107848466D01*
X117507808Y-107859515D01*
X117525315Y-107862998D01*
X117525320Y-107862998D01*
X117525326Y-107863000D01*
X117525327Y-107863000D01*
X118074673Y-107863000D01*
X118074674Y-107863000D01*
X118147740Y-107848466D01*
X118230601Y-107793101D01*
X118285966Y-107710240D01*
X118300500Y-107637174D01*
X118300500Y-107160327D01*
X120899500Y-107160327D01*
X120899500Y-107709672D01*
X120899501Y-107709684D01*
X120914033Y-107782736D01*
X120914035Y-107782742D01*
X120969397Y-107865599D01*
X120969399Y-107865601D01*
X121052260Y-107920966D01*
X121100698Y-107930601D01*
X121125315Y-107935498D01*
X121125320Y-107935498D01*
X121125326Y-107935500D01*
X121125327Y-107935500D01*
X121674673Y-107935500D01*
X121674674Y-107935500D01*
X121747740Y-107920966D01*
X121830601Y-107865601D01*
X121885966Y-107782740D01*
X121900500Y-107709674D01*
X121900500Y-107207827D01*
X124499500Y-107207827D01*
X124499500Y-107757172D01*
X124499501Y-107757184D01*
X124514033Y-107830236D01*
X124514035Y-107830242D01*
X124569397Y-107913099D01*
X124569400Y-107913102D01*
X124602919Y-107935498D01*
X124652260Y-107968466D01*
X124707808Y-107979515D01*
X124725315Y-107982998D01*
X124725320Y-107982998D01*
X124725326Y-107983000D01*
X124725327Y-107983000D01*
X125274673Y-107983000D01*
X125274674Y-107983000D01*
X125347740Y-107968466D01*
X125430601Y-107913101D01*
X125485966Y-107830240D01*
X125500500Y-107757174D01*
X125500500Y-107207826D01*
X125485966Y-107134760D01*
X125454226Y-107087257D01*
X125430602Y-107051900D01*
X125430599Y-107051897D01*
X125347742Y-106996535D01*
X125347740Y-106996534D01*
X125347737Y-106996533D01*
X125347736Y-106996533D01*
X125274684Y-106982001D01*
X125274674Y-106982000D01*
X124725326Y-106982000D01*
X124725325Y-106982000D01*
X124725315Y-106982001D01*
X124652263Y-106996533D01*
X124652257Y-106996535D01*
X124569400Y-107051897D01*
X124569397Y-107051900D01*
X124514035Y-107134757D01*
X124514033Y-107134763D01*
X124499501Y-107207815D01*
X124499500Y-107207827D01*
X121900500Y-107207827D01*
X121900500Y-107160326D01*
X121885966Y-107087260D01*
X121837522Y-107014757D01*
X121830602Y-107004400D01*
X121830599Y-107004397D01*
X121747742Y-106949035D01*
X121747740Y-106949034D01*
X121747737Y-106949033D01*
X121747736Y-106949033D01*
X121674684Y-106934501D01*
X121674674Y-106934500D01*
X121125326Y-106934500D01*
X121125325Y-106934500D01*
X121125315Y-106934501D01*
X121052263Y-106949033D01*
X121052257Y-106949035D01*
X120969400Y-107004397D01*
X120969397Y-107004400D01*
X120914035Y-107087257D01*
X120914033Y-107087263D01*
X120899501Y-107160315D01*
X120899500Y-107160327D01*
X118300500Y-107160327D01*
X118300500Y-107087826D01*
X118300387Y-107087260D01*
X118293354Y-107051900D01*
X118285966Y-107014760D01*
X118276437Y-107000498D01*
X118230602Y-106931900D01*
X118230599Y-106931897D01*
X118147742Y-106876535D01*
X118147740Y-106876534D01*
X118147737Y-106876533D01*
X118147736Y-106876533D01*
X118074684Y-106862001D01*
X118074674Y-106862000D01*
X117525326Y-106862000D01*
X117525325Y-106862000D01*
X117525315Y-106862001D01*
X117452263Y-106876533D01*
X117452257Y-106876535D01*
X117369400Y-106931897D01*
X117369397Y-106931900D01*
X117314035Y-107014757D01*
X117314033Y-107014763D01*
X117299501Y-107087815D01*
X117299500Y-107087827D01*
X114688068Y-107087827D01*
X114685966Y-107077260D01*
X114643721Y-107014035D01*
X114630602Y-106994400D01*
X114630599Y-106994397D01*
X114547742Y-106939035D01*
X114547740Y-106939034D01*
X114547737Y-106939033D01*
X114547736Y-106939033D01*
X114474684Y-106924501D01*
X114474674Y-106924500D01*
X113925326Y-106924500D01*
X113925325Y-106924500D01*
X113925315Y-106924501D01*
X113852263Y-106939033D01*
X113852257Y-106939035D01*
X113769400Y-106994397D01*
X113769397Y-106994400D01*
X113714035Y-107077257D01*
X113714033Y-107077263D01*
X113699501Y-107150315D01*
X113699500Y-107150327D01*
X109282342Y-107150327D01*
X109278987Y-107149500D01*
X109278985Y-107149500D01*
X109121015Y-107149500D01*
X109121012Y-107149500D01*
X108967635Y-107187303D01*
X108827758Y-107260718D01*
X108709515Y-107365471D01*
X108619780Y-107495476D01*
X108563763Y-107643182D01*
X108563762Y-107643183D01*
X108544722Y-107799996D01*
X100767754Y-107799996D01*
X100785966Y-107772740D01*
X100800500Y-107699674D01*
X100800500Y-107150326D01*
X100785966Y-107077260D01*
X100743721Y-107014035D01*
X100730602Y-106994400D01*
X100730599Y-106994397D01*
X100647742Y-106939035D01*
X100647740Y-106939034D01*
X100647737Y-106939033D01*
X100647736Y-106939033D01*
X100578836Y-106925327D01*
X103699500Y-106925327D01*
X103699500Y-107474672D01*
X103699501Y-107474684D01*
X103714033Y-107547736D01*
X103714035Y-107547742D01*
X103769397Y-107630599D01*
X103769400Y-107630602D01*
X103852257Y-107685964D01*
X103852260Y-107685966D01*
X103907808Y-107697015D01*
X103925315Y-107700498D01*
X103925320Y-107700498D01*
X103925326Y-107700500D01*
X103925327Y-107700500D01*
X104474673Y-107700500D01*
X104474674Y-107700500D01*
X104547740Y-107685966D01*
X104630601Y-107630601D01*
X104685966Y-107547740D01*
X104700500Y-107474674D01*
X104700500Y-106925326D01*
X104697803Y-106911770D01*
X104697015Y-106907808D01*
X104685966Y-106852260D01*
X104636466Y-106778177D01*
X104630602Y-106769400D01*
X104630599Y-106769397D01*
X104547742Y-106714035D01*
X104547740Y-106714034D01*
X104547737Y-106714033D01*
X104547736Y-106714033D01*
X104474684Y-106699501D01*
X104474674Y-106699500D01*
X103925326Y-106699500D01*
X103925325Y-106699500D01*
X103925315Y-106699501D01*
X103852263Y-106714033D01*
X103852257Y-106714035D01*
X103769400Y-106769397D01*
X103769397Y-106769400D01*
X103714035Y-106852257D01*
X103714033Y-106852263D01*
X103699501Y-106925315D01*
X103699500Y-106925327D01*
X100578836Y-106925327D01*
X100574684Y-106924501D01*
X100574674Y-106924500D01*
X100025326Y-106924500D01*
X100025325Y-106924500D01*
X100025315Y-106924501D01*
X99952263Y-106939033D01*
X99952257Y-106939035D01*
X99869400Y-106994397D01*
X99869397Y-106994400D01*
X99814035Y-107077257D01*
X99814033Y-107077263D01*
X99799501Y-107150315D01*
X99799500Y-107150327D01*
X96484674Y-107150327D01*
X96442914Y-107087827D01*
X96430602Y-107069400D01*
X96430599Y-107069397D01*
X96347742Y-107014035D01*
X96347740Y-107014034D01*
X96347737Y-107014033D01*
X96347736Y-107014033D01*
X96274684Y-106999501D01*
X96274674Y-106999500D01*
X95725326Y-106999500D01*
X95725325Y-106999500D01*
X95725315Y-106999501D01*
X95652263Y-107014033D01*
X95652257Y-107014035D01*
X95569400Y-107069397D01*
X95569397Y-107069400D01*
X95514035Y-107152257D01*
X95514033Y-107152263D01*
X95499501Y-107225315D01*
X95499500Y-107225327D01*
X91075500Y-107225327D01*
X91075500Y-106966770D01*
X91094407Y-106908579D01*
X91143907Y-106872615D01*
X91205093Y-106872615D01*
X91254593Y-106908579D01*
X91256817Y-106911770D01*
X91269398Y-106930600D01*
X91269400Y-106930602D01*
X91346324Y-106982000D01*
X91352260Y-106985966D01*
X91405383Y-106996533D01*
X91425315Y-107000498D01*
X91425320Y-107000498D01*
X91425326Y-107000500D01*
X91425327Y-107000500D01*
X91974673Y-107000500D01*
X91974674Y-107000500D01*
X92047740Y-106985966D01*
X92130601Y-106930601D01*
X92185966Y-106847740D01*
X92200500Y-106774674D01*
X92200500Y-106225326D01*
X92185966Y-106152260D01*
X92170098Y-106128512D01*
X92130602Y-106069400D01*
X92130599Y-106069397D01*
X92047742Y-106014035D01*
X92047740Y-106014034D01*
X92047737Y-106014033D01*
X92047736Y-106014033D01*
X91974684Y-105999501D01*
X91974674Y-105999500D01*
X91425326Y-105999500D01*
X91425325Y-105999500D01*
X91425315Y-105999501D01*
X91352263Y-106014033D01*
X91352257Y-106014035D01*
X91269400Y-106069397D01*
X91269397Y-106069400D01*
X91256816Y-106088230D01*
X91208766Y-106126110D01*
X91147628Y-106128512D01*
X91096754Y-106094519D01*
X91075576Y-106037116D01*
X91075500Y-106033229D01*
X91075500Y-104586707D01*
X91094407Y-104528516D01*
X91104490Y-104516709D01*
X91859494Y-103761704D01*
X91914011Y-103733928D01*
X91929498Y-103732709D01*
X92086936Y-103732709D01*
X92086939Y-103732709D01*
X92240319Y-103694905D01*
X92380194Y-103621492D01*
X92498437Y-103516739D01*
X92588174Y-103386732D01*
X92644191Y-103239027D01*
X92663232Y-103082209D01*
X92644191Y-102925391D01*
X92588174Y-102777686D01*
X92543305Y-102712682D01*
X92498438Y-102647680D01*
X92380195Y-102542927D01*
X92380194Y-102542926D01*
X92275699Y-102488082D01*
X92240318Y-102469512D01*
X92086941Y-102431709D01*
X92086939Y-102431709D01*
X91928969Y-102431709D01*
X91928966Y-102431709D01*
X91775589Y-102469512D01*
X91635712Y-102542927D01*
X91517469Y-102647680D01*
X91427734Y-102777685D01*
X91371717Y-102925391D01*
X91371716Y-102925392D01*
X91352676Y-103082207D01*
X91352676Y-103082211D01*
X91360317Y-103145144D01*
X91348562Y-103205190D01*
X91332043Y-103227080D01*
X90469438Y-104089687D01*
X90399524Y-104159601D01*
X90395502Y-104166568D01*
X90350031Y-104207507D01*
X90289180Y-104213900D01*
X90236194Y-104183305D01*
X90230777Y-104176741D01*
X90154264Y-104075421D01*
X90003541Y-103938019D01*
X89830137Y-103830652D01*
X89639956Y-103756976D01*
X89639955Y-103756975D01*
X89639953Y-103756975D01*
X89439476Y-103719500D01*
X89235524Y-103719500D01*
X89035046Y-103756975D01*
X88965132Y-103784059D01*
X88844863Y-103830652D01*
X88671459Y-103938019D01*
X88520737Y-104075420D01*
X88397828Y-104238177D01*
X88397823Y-104238186D01*
X88349193Y-104335849D01*
X88306918Y-104420750D01*
X88251103Y-104616917D01*
X88232285Y-104820000D01*
X87902715Y-104820000D01*
X87883897Y-104616917D01*
X87828082Y-104420750D01*
X87737173Y-104238179D01*
X87614264Y-104075421D01*
X87463541Y-103938019D01*
X87290137Y-103830652D01*
X87099956Y-103756976D01*
X87099955Y-103756975D01*
X87099953Y-103756975D01*
X86899476Y-103719500D01*
X86695524Y-103719500D01*
X86495046Y-103756975D01*
X86425132Y-103784059D01*
X86304863Y-103830652D01*
X86131459Y-103938019D01*
X85980737Y-104075420D01*
X85857828Y-104238177D01*
X85857823Y-104238186D01*
X85809193Y-104335849D01*
X85766918Y-104420750D01*
X85711103Y-104616917D01*
X85692285Y-104820000D01*
X84832500Y-104820000D01*
X84832500Y-102280000D01*
X85692285Y-102280000D01*
X85711103Y-102483083D01*
X85757935Y-102647680D01*
X85766919Y-102679252D01*
X85815932Y-102777685D01*
X85857827Y-102861821D01*
X85980736Y-103024579D01*
X86131459Y-103161981D01*
X86304863Y-103269348D01*
X86495044Y-103343024D01*
X86695524Y-103380500D01*
X86899476Y-103380500D01*
X87099956Y-103343024D01*
X87290137Y-103269348D01*
X87463541Y-103161981D01*
X87614264Y-103024579D01*
X87737173Y-102861821D01*
X87828082Y-102679250D01*
X87883897Y-102483083D01*
X87902715Y-102280000D01*
X88232285Y-102280000D01*
X88251103Y-102483083D01*
X88297935Y-102647680D01*
X88306919Y-102679252D01*
X88355932Y-102777685D01*
X88397827Y-102861821D01*
X88520736Y-103024579D01*
X88671459Y-103161981D01*
X88844863Y-103269348D01*
X89035044Y-103343024D01*
X89235524Y-103380500D01*
X89439476Y-103380500D01*
X89639956Y-103343024D01*
X89830137Y-103269348D01*
X90003541Y-103161981D01*
X90154264Y-103024579D01*
X90277173Y-102861821D01*
X90368082Y-102679250D01*
X90423897Y-102483083D01*
X90442715Y-102280000D01*
X90423897Y-102076917D01*
X90368082Y-101880750D01*
X90277173Y-101698179D01*
X90154264Y-101535421D01*
X90003541Y-101398019D01*
X89830137Y-101290652D01*
X89639956Y-101216976D01*
X89639955Y-101216975D01*
X89639953Y-101216975D01*
X89439476Y-101179500D01*
X89235524Y-101179500D01*
X89035046Y-101216975D01*
X89034494Y-101217189D01*
X88844863Y-101290652D01*
X88769584Y-101337263D01*
X88671459Y-101398019D01*
X88520737Y-101535420D01*
X88397828Y-101698177D01*
X88397823Y-101698186D01*
X88306919Y-101880747D01*
X88306918Y-101880750D01*
X88251103Y-102076917D01*
X88232285Y-102280000D01*
X87902715Y-102280000D01*
X87883897Y-102076917D01*
X87828082Y-101880750D01*
X87737173Y-101698179D01*
X87614264Y-101535421D01*
X87463541Y-101398019D01*
X87290137Y-101290652D01*
X87099956Y-101216976D01*
X87099955Y-101216975D01*
X87099953Y-101216975D01*
X86899476Y-101179500D01*
X86695524Y-101179500D01*
X86495046Y-101216975D01*
X86494494Y-101217189D01*
X86304863Y-101290652D01*
X86229584Y-101337263D01*
X86131459Y-101398019D01*
X85980737Y-101535420D01*
X85857828Y-101698177D01*
X85857823Y-101698186D01*
X85766919Y-101880747D01*
X85766918Y-101880750D01*
X85711103Y-102076917D01*
X85692285Y-102280000D01*
X84832500Y-102280000D01*
X84832500Y-99740000D01*
X85692285Y-99740000D01*
X85711103Y-99943083D01*
X85766918Y-100139250D01*
X85857827Y-100321821D01*
X85980736Y-100484579D01*
X86131459Y-100621981D01*
X86304863Y-100729348D01*
X86495044Y-100803024D01*
X86695524Y-100840500D01*
X86899476Y-100840500D01*
X87099956Y-100803024D01*
X87290137Y-100729348D01*
X87463541Y-100621981D01*
X87614264Y-100484579D01*
X87737173Y-100321821D01*
X87828082Y-100139250D01*
X87883897Y-99943083D01*
X87902715Y-99740000D01*
X88232285Y-99740000D01*
X88251103Y-99943083D01*
X88306918Y-100139250D01*
X88397827Y-100321821D01*
X88520736Y-100484579D01*
X88671459Y-100621981D01*
X88844863Y-100729348D01*
X89035044Y-100803024D01*
X89235524Y-100840500D01*
X89439476Y-100840500D01*
X89639956Y-100803024D01*
X89830137Y-100729348D01*
X90003541Y-100621981D01*
X90154264Y-100484579D01*
X90277173Y-100321821D01*
X90368082Y-100139250D01*
X90423897Y-99943083D01*
X90442715Y-99740000D01*
X90423897Y-99536917D01*
X90368082Y-99340750D01*
X90277173Y-99158179D01*
X90154264Y-98995421D01*
X90003541Y-98858019D01*
X89830137Y-98750652D01*
X89639956Y-98676976D01*
X89639955Y-98676975D01*
X89639953Y-98676975D01*
X89439476Y-98639500D01*
X89235524Y-98639500D01*
X89035046Y-98676975D01*
X88965132Y-98704059D01*
X88844863Y-98750652D01*
X88705254Y-98837094D01*
X88671459Y-98858019D01*
X88520737Y-98995420D01*
X88397828Y-99158177D01*
X88397823Y-99158186D01*
X88337628Y-99279075D01*
X88306918Y-99340750D01*
X88251103Y-99536917D01*
X88232285Y-99740000D01*
X87902715Y-99740000D01*
X87883897Y-99536917D01*
X87828082Y-99340750D01*
X87737173Y-99158179D01*
X87614264Y-98995421D01*
X87463541Y-98858019D01*
X87290137Y-98750652D01*
X87099956Y-98676976D01*
X87099955Y-98676975D01*
X87099953Y-98676975D01*
X86899476Y-98639500D01*
X86695524Y-98639500D01*
X86495046Y-98676975D01*
X86425132Y-98704059D01*
X86304863Y-98750652D01*
X86165254Y-98837094D01*
X86131459Y-98858019D01*
X85980737Y-98995420D01*
X85857828Y-99158177D01*
X85857823Y-99158186D01*
X85797628Y-99279075D01*
X85766918Y-99340750D01*
X85711103Y-99536917D01*
X85692285Y-99740000D01*
X84832500Y-99740000D01*
X84832500Y-98044000D01*
X84851407Y-97985809D01*
X84900907Y-97949845D01*
X84931500Y-97945000D01*
X95999826Y-97945000D01*
X96058017Y-97963907D01*
G37*
%TD.AperFunction*%
%TD*%
M02*
