%TF.GenerationSoftware,KiCad,Pcbnew,8.0.7*%
%TF.CreationDate,2024-12-23T17:36:37-05:00*%
%TF.ProjectId,tac5212_audio_board_single_ended,74616335-3231-4325-9f61-7564696f5f62,rev?*%
%TF.SameCoordinates,Original*%
%TF.FileFunction,Legend,Top*%
%TF.FilePolarity,Positive*%
%FSLAX46Y46*%
G04 Gerber Fmt 4.6, Leading zero omitted, Abs format (unit mm)*
G04 Created by KiCad (PCBNEW 8.0.7) date 2024-12-23 17:36:37*
%MOMM*%
%LPD*%
G01*
G04 APERTURE LIST*
%ADD10C,0.200000*%
%ADD11C,0.150000*%
%ADD12C,0.120000*%
%ADD13C,0.100000*%
G04 APERTURE END LIST*
D10*
X123427695Y-108304761D02*
X123427695Y-107847618D01*
X124227695Y-108076190D02*
X123427695Y-108076190D01*
X123922933Y-107580951D02*
X123922933Y-106971428D01*
X124227695Y-106590475D02*
X123427695Y-106590475D01*
X123427695Y-106590475D02*
X123427695Y-106399999D01*
X123427695Y-106399999D02*
X123465790Y-106285713D01*
X123465790Y-106285713D02*
X123541980Y-106209523D01*
X123541980Y-106209523D02*
X123618171Y-106171428D01*
X123618171Y-106171428D02*
X123770552Y-106133332D01*
X123770552Y-106133332D02*
X123884838Y-106133332D01*
X123884838Y-106133332D02*
X124037219Y-106171428D01*
X124037219Y-106171428D02*
X124113409Y-106209523D01*
X124113409Y-106209523D02*
X124189600Y-106285713D01*
X124189600Y-106285713D02*
X124227695Y-106399999D01*
X124227695Y-106399999D02*
X124227695Y-106590475D01*
X124189600Y-105828571D02*
X124227695Y-105714285D01*
X124227695Y-105714285D02*
X124227695Y-105523809D01*
X124227695Y-105523809D02*
X124189600Y-105447618D01*
X124189600Y-105447618D02*
X124151504Y-105409523D01*
X124151504Y-105409523D02*
X124075314Y-105371428D01*
X124075314Y-105371428D02*
X123999123Y-105371428D01*
X123999123Y-105371428D02*
X123922933Y-105409523D01*
X123922933Y-105409523D02*
X123884838Y-105447618D01*
X123884838Y-105447618D02*
X123846742Y-105523809D01*
X123846742Y-105523809D02*
X123808647Y-105676190D01*
X123808647Y-105676190D02*
X123770552Y-105752380D01*
X123770552Y-105752380D02*
X123732457Y-105790475D01*
X123732457Y-105790475D02*
X123656266Y-105828571D01*
X123656266Y-105828571D02*
X123580076Y-105828571D01*
X123580076Y-105828571D02*
X123503885Y-105790475D01*
X123503885Y-105790475D02*
X123465790Y-105752380D01*
X123465790Y-105752380D02*
X123427695Y-105676190D01*
X123427695Y-105676190D02*
X123427695Y-105485713D01*
X123427695Y-105485713D02*
X123465790Y-105371428D01*
X124227695Y-105028570D02*
X123427695Y-105028570D01*
X123427695Y-105028570D02*
X123427695Y-104723808D01*
X123427695Y-104723808D02*
X123465790Y-104647618D01*
X123465790Y-104647618D02*
X123503885Y-104609523D01*
X123503885Y-104609523D02*
X123580076Y-104571427D01*
X123580076Y-104571427D02*
X123694361Y-104571427D01*
X123694361Y-104571427D02*
X123770552Y-104609523D01*
X123770552Y-104609523D02*
X123808647Y-104647618D01*
X123808647Y-104647618D02*
X123846742Y-104723808D01*
X123846742Y-104723808D02*
X123846742Y-105028570D01*
X124715650Y-110495238D02*
X124715650Y-110038095D01*
X125515650Y-110266667D02*
X124715650Y-110266667D01*
X125287078Y-109809524D02*
X125287078Y-109428571D01*
X125515650Y-109885714D02*
X124715650Y-109619047D01*
X124715650Y-109619047D02*
X125515650Y-109352381D01*
X125439459Y-108628571D02*
X125477555Y-108666667D01*
X125477555Y-108666667D02*
X125515650Y-108780952D01*
X125515650Y-108780952D02*
X125515650Y-108857143D01*
X125515650Y-108857143D02*
X125477555Y-108971429D01*
X125477555Y-108971429D02*
X125401364Y-109047619D01*
X125401364Y-109047619D02*
X125325174Y-109085714D01*
X125325174Y-109085714D02*
X125172793Y-109123810D01*
X125172793Y-109123810D02*
X125058507Y-109123810D01*
X125058507Y-109123810D02*
X124906126Y-109085714D01*
X124906126Y-109085714D02*
X124829935Y-109047619D01*
X124829935Y-109047619D02*
X124753745Y-108971429D01*
X124753745Y-108971429D02*
X124715650Y-108857143D01*
X124715650Y-108857143D02*
X124715650Y-108780952D01*
X124715650Y-108780952D02*
X124753745Y-108666667D01*
X124753745Y-108666667D02*
X124791840Y-108628571D01*
X124715650Y-107904762D02*
X124715650Y-108285714D01*
X124715650Y-108285714D02*
X125096602Y-108323810D01*
X125096602Y-108323810D02*
X125058507Y-108285714D01*
X125058507Y-108285714D02*
X125020412Y-108209524D01*
X125020412Y-108209524D02*
X125020412Y-108019048D01*
X125020412Y-108019048D02*
X125058507Y-107942857D01*
X125058507Y-107942857D02*
X125096602Y-107904762D01*
X125096602Y-107904762D02*
X125172793Y-107866667D01*
X125172793Y-107866667D02*
X125363269Y-107866667D01*
X125363269Y-107866667D02*
X125439459Y-107904762D01*
X125439459Y-107904762D02*
X125477555Y-107942857D01*
X125477555Y-107942857D02*
X125515650Y-108019048D01*
X125515650Y-108019048D02*
X125515650Y-108209524D01*
X125515650Y-108209524D02*
X125477555Y-108285714D01*
X125477555Y-108285714D02*
X125439459Y-108323810D01*
X124791840Y-107561905D02*
X124753745Y-107523809D01*
X124753745Y-107523809D02*
X124715650Y-107447619D01*
X124715650Y-107447619D02*
X124715650Y-107257143D01*
X124715650Y-107257143D02*
X124753745Y-107180952D01*
X124753745Y-107180952D02*
X124791840Y-107142857D01*
X124791840Y-107142857D02*
X124868031Y-107104762D01*
X124868031Y-107104762D02*
X124944221Y-107104762D01*
X124944221Y-107104762D02*
X125058507Y-107142857D01*
X125058507Y-107142857D02*
X125515650Y-107600000D01*
X125515650Y-107600000D02*
X125515650Y-107104762D01*
X125515650Y-106342857D02*
X125515650Y-106800000D01*
X125515650Y-106571428D02*
X124715650Y-106571428D01*
X124715650Y-106571428D02*
X124829935Y-106647619D01*
X124829935Y-106647619D02*
X124906126Y-106723809D01*
X124906126Y-106723809D02*
X124944221Y-106800000D01*
X124791840Y-106038095D02*
X124753745Y-105999999D01*
X124753745Y-105999999D02*
X124715650Y-105923809D01*
X124715650Y-105923809D02*
X124715650Y-105733333D01*
X124715650Y-105733333D02*
X124753745Y-105657142D01*
X124753745Y-105657142D02*
X124791840Y-105619047D01*
X124791840Y-105619047D02*
X124868031Y-105580952D01*
X124868031Y-105580952D02*
X124944221Y-105580952D01*
X124944221Y-105580952D02*
X125058507Y-105619047D01*
X125058507Y-105619047D02*
X125515650Y-106076190D01*
X125515650Y-106076190D02*
X125515650Y-105580952D01*
X124715650Y-104742856D02*
X125515650Y-104476189D01*
X125515650Y-104476189D02*
X124715650Y-104209523D01*
X124715650Y-103790475D02*
X124715650Y-103714285D01*
X124715650Y-103714285D02*
X124753745Y-103638094D01*
X124753745Y-103638094D02*
X124791840Y-103599999D01*
X124791840Y-103599999D02*
X124868031Y-103561904D01*
X124868031Y-103561904D02*
X125020412Y-103523809D01*
X125020412Y-103523809D02*
X125210888Y-103523809D01*
X125210888Y-103523809D02*
X125363269Y-103561904D01*
X125363269Y-103561904D02*
X125439459Y-103599999D01*
X125439459Y-103599999D02*
X125477555Y-103638094D01*
X125477555Y-103638094D02*
X125515650Y-103714285D01*
X125515650Y-103714285D02*
X125515650Y-103790475D01*
X125515650Y-103790475D02*
X125477555Y-103866666D01*
X125477555Y-103866666D02*
X125439459Y-103904761D01*
X125439459Y-103904761D02*
X125363269Y-103942856D01*
X125363269Y-103942856D02*
X125210888Y-103980952D01*
X125210888Y-103980952D02*
X125020412Y-103980952D01*
X125020412Y-103980952D02*
X124868031Y-103942856D01*
X124868031Y-103942856D02*
X124791840Y-103904761D01*
X124791840Y-103904761D02*
X124753745Y-103866666D01*
X124753745Y-103866666D02*
X124715650Y-103790475D01*
X125439459Y-103180951D02*
X125477555Y-103142856D01*
X125477555Y-103142856D02*
X125515650Y-103180951D01*
X125515650Y-103180951D02*
X125477555Y-103219047D01*
X125477555Y-103219047D02*
X125439459Y-103180951D01*
X125439459Y-103180951D02*
X125515650Y-103180951D01*
X124715650Y-102419047D02*
X124715650Y-102799999D01*
X124715650Y-102799999D02*
X125096602Y-102838095D01*
X125096602Y-102838095D02*
X125058507Y-102799999D01*
X125058507Y-102799999D02*
X125020412Y-102723809D01*
X125020412Y-102723809D02*
X125020412Y-102533333D01*
X125020412Y-102533333D02*
X125058507Y-102457142D01*
X125058507Y-102457142D02*
X125096602Y-102419047D01*
X125096602Y-102419047D02*
X125172793Y-102380952D01*
X125172793Y-102380952D02*
X125363269Y-102380952D01*
X125363269Y-102380952D02*
X125439459Y-102419047D01*
X125439459Y-102419047D02*
X125477555Y-102457142D01*
X125477555Y-102457142D02*
X125515650Y-102533333D01*
X125515650Y-102533333D02*
X125515650Y-102723809D01*
X125515650Y-102723809D02*
X125477555Y-102799999D01*
X125477555Y-102799999D02*
X125439459Y-102838095D01*
D11*
X114207319Y-120571428D02*
X114207319Y-120380952D01*
X114207319Y-120380952D02*
X114254938Y-120285714D01*
X114254938Y-120285714D02*
X114350176Y-120190476D01*
X114350176Y-120190476D02*
X114540652Y-120142857D01*
X114540652Y-120142857D02*
X114873985Y-120142857D01*
X114873985Y-120142857D02*
X115064461Y-120190476D01*
X115064461Y-120190476D02*
X115159700Y-120285714D01*
X115159700Y-120285714D02*
X115207319Y-120380952D01*
X115207319Y-120380952D02*
X115207319Y-120571428D01*
X115207319Y-120571428D02*
X115159700Y-120666666D01*
X115159700Y-120666666D02*
X115064461Y-120761904D01*
X115064461Y-120761904D02*
X114873985Y-120809523D01*
X114873985Y-120809523D02*
X114540652Y-120809523D01*
X114540652Y-120809523D02*
X114350176Y-120761904D01*
X114350176Y-120761904D02*
X114254938Y-120666666D01*
X114254938Y-120666666D02*
X114207319Y-120571428D01*
X115207319Y-119190476D02*
X115207319Y-119761904D01*
X115207319Y-119476190D02*
X114207319Y-119476190D01*
X114207319Y-119476190D02*
X114350176Y-119571428D01*
X114350176Y-119571428D02*
X114445414Y-119666666D01*
X114445414Y-119666666D02*
X114493033Y-119761904D01*
X119442557Y-105304761D02*
X119394938Y-105257142D01*
X119394938Y-105257142D02*
X119347319Y-105161904D01*
X119347319Y-105161904D02*
X119347319Y-104923809D01*
X119347319Y-104923809D02*
X119394938Y-104828571D01*
X119394938Y-104828571D02*
X119442557Y-104780952D01*
X119442557Y-104780952D02*
X119537795Y-104733333D01*
X119537795Y-104733333D02*
X119633033Y-104733333D01*
X119633033Y-104733333D02*
X119775890Y-104780952D01*
X119775890Y-104780952D02*
X120347319Y-105352380D01*
X120347319Y-105352380D02*
X120347319Y-104733333D01*
X119966366Y-104304761D02*
X119966366Y-103542857D01*
X109282557Y-105209761D02*
X109234938Y-105162142D01*
X109234938Y-105162142D02*
X109187319Y-105066904D01*
X109187319Y-105066904D02*
X109187319Y-104828809D01*
X109187319Y-104828809D02*
X109234938Y-104733571D01*
X109234938Y-104733571D02*
X109282557Y-104685952D01*
X109282557Y-104685952D02*
X109377795Y-104638333D01*
X109377795Y-104638333D02*
X109473033Y-104638333D01*
X109473033Y-104638333D02*
X109615890Y-104685952D01*
X109615890Y-104685952D02*
X110187319Y-105257380D01*
X110187319Y-105257380D02*
X110187319Y-104638333D01*
X109806366Y-104209761D02*
X109806366Y-103447857D01*
X102459700Y-120785713D02*
X102507319Y-120642856D01*
X102507319Y-120642856D02*
X102507319Y-120404761D01*
X102507319Y-120404761D02*
X102459700Y-120309523D01*
X102459700Y-120309523D02*
X102412080Y-120261904D01*
X102412080Y-120261904D02*
X102316842Y-120214285D01*
X102316842Y-120214285D02*
X102221604Y-120214285D01*
X102221604Y-120214285D02*
X102126366Y-120261904D01*
X102126366Y-120261904D02*
X102078747Y-120309523D01*
X102078747Y-120309523D02*
X102031128Y-120404761D01*
X102031128Y-120404761D02*
X101983509Y-120595237D01*
X101983509Y-120595237D02*
X101935890Y-120690475D01*
X101935890Y-120690475D02*
X101888271Y-120738094D01*
X101888271Y-120738094D02*
X101793033Y-120785713D01*
X101793033Y-120785713D02*
X101697795Y-120785713D01*
X101697795Y-120785713D02*
X101602557Y-120738094D01*
X101602557Y-120738094D02*
X101554938Y-120690475D01*
X101554938Y-120690475D02*
X101507319Y-120595237D01*
X101507319Y-120595237D02*
X101507319Y-120357142D01*
X101507319Y-120357142D02*
X101554938Y-120214285D01*
X102412080Y-119214285D02*
X102459700Y-119261904D01*
X102459700Y-119261904D02*
X102507319Y-119404761D01*
X102507319Y-119404761D02*
X102507319Y-119499999D01*
X102507319Y-119499999D02*
X102459700Y-119642856D01*
X102459700Y-119642856D02*
X102364461Y-119738094D01*
X102364461Y-119738094D02*
X102269223Y-119785713D01*
X102269223Y-119785713D02*
X102078747Y-119833332D01*
X102078747Y-119833332D02*
X101935890Y-119833332D01*
X101935890Y-119833332D02*
X101745414Y-119785713D01*
X101745414Y-119785713D02*
X101650176Y-119738094D01*
X101650176Y-119738094D02*
X101554938Y-119642856D01*
X101554938Y-119642856D02*
X101507319Y-119499999D01*
X101507319Y-119499999D02*
X101507319Y-119404761D01*
X101507319Y-119404761D02*
X101554938Y-119261904D01*
X101554938Y-119261904D02*
X101602557Y-119214285D01*
X93192023Y-123059819D02*
X92858690Y-122583628D01*
X92620595Y-123059819D02*
X92620595Y-122059819D01*
X92620595Y-122059819D02*
X93001547Y-122059819D01*
X93001547Y-122059819D02*
X93096785Y-122107438D01*
X93096785Y-122107438D02*
X93144404Y-122155057D01*
X93144404Y-122155057D02*
X93192023Y-122250295D01*
X93192023Y-122250295D02*
X93192023Y-122393152D01*
X93192023Y-122393152D02*
X93144404Y-122488390D01*
X93144404Y-122488390D02*
X93096785Y-122536009D01*
X93096785Y-122536009D02*
X93001547Y-122583628D01*
X93001547Y-122583628D02*
X92620595Y-122583628D01*
X105107319Y-104733333D02*
X105107319Y-105304761D01*
X105107319Y-105019047D02*
X104107319Y-105019047D01*
X104107319Y-105019047D02*
X104250176Y-105114285D01*
X104250176Y-105114285D02*
X104345414Y-105209523D01*
X104345414Y-105209523D02*
X104393033Y-105304761D01*
X104726366Y-104304761D02*
X104726366Y-103542857D01*
X125884795Y-115614523D02*
X125884795Y-115119285D01*
X125884795Y-115119285D02*
X126189557Y-115385951D01*
X126189557Y-115385951D02*
X126189557Y-115271666D01*
X126189557Y-115271666D02*
X126227652Y-115195475D01*
X126227652Y-115195475D02*
X126265747Y-115157380D01*
X126265747Y-115157380D02*
X126341938Y-115119285D01*
X126341938Y-115119285D02*
X126532414Y-115119285D01*
X126532414Y-115119285D02*
X126608604Y-115157380D01*
X126608604Y-115157380D02*
X126646700Y-115195475D01*
X126646700Y-115195475D02*
X126684795Y-115271666D01*
X126684795Y-115271666D02*
X126684795Y-115500237D01*
X126684795Y-115500237D02*
X126646700Y-115576428D01*
X126646700Y-115576428D02*
X126608604Y-115614523D01*
X125884795Y-114890713D02*
X126684795Y-114624046D01*
X126684795Y-114624046D02*
X125884795Y-114357380D01*
X115267319Y-104733333D02*
X115267319Y-105304761D01*
X115267319Y-105019047D02*
X114267319Y-105019047D01*
X114267319Y-105019047D02*
X114410176Y-105114285D01*
X114410176Y-105114285D02*
X114505414Y-105209523D01*
X114505414Y-105209523D02*
X114553033Y-105304761D01*
X114886366Y-104304761D02*
X114886366Y-103542857D01*
X125907890Y-112270476D02*
X125869795Y-112346666D01*
X125869795Y-112346666D02*
X125869795Y-112460952D01*
X125869795Y-112460952D02*
X125907890Y-112575238D01*
X125907890Y-112575238D02*
X125984080Y-112651428D01*
X125984080Y-112651428D02*
X126060271Y-112689523D01*
X126060271Y-112689523D02*
X126212652Y-112727619D01*
X126212652Y-112727619D02*
X126326938Y-112727619D01*
X126326938Y-112727619D02*
X126479319Y-112689523D01*
X126479319Y-112689523D02*
X126555509Y-112651428D01*
X126555509Y-112651428D02*
X126631700Y-112575238D01*
X126631700Y-112575238D02*
X126669795Y-112460952D01*
X126669795Y-112460952D02*
X126669795Y-112384761D01*
X126669795Y-112384761D02*
X126631700Y-112270476D01*
X126631700Y-112270476D02*
X126593604Y-112232380D01*
X126593604Y-112232380D02*
X126326938Y-112232380D01*
X126326938Y-112232380D02*
X126326938Y-112384761D01*
G36*
X105273787Y-105969077D02*
G01*
X105345729Y-106041019D01*
X105386071Y-106202386D01*
X105386071Y-106517251D01*
X105345729Y-106678617D01*
X105273786Y-106750561D01*
X105205271Y-106784819D01*
X105050205Y-106784819D01*
X104981689Y-106750561D01*
X104909746Y-106678617D01*
X104869405Y-106517251D01*
X104869405Y-106202386D01*
X104909746Y-106041019D01*
X104981689Y-105969077D01*
X105050205Y-105934819D01*
X105205271Y-105934819D01*
X105273787Y-105969077D01*
G37*
G36*
X107550503Y-107045930D02*
G01*
X104608294Y-107045930D01*
X104608294Y-106193152D01*
X104719405Y-106193152D01*
X104719405Y-106526485D01*
X104719656Y-106529038D01*
X104719494Y-106530131D01*
X104720303Y-106535604D01*
X104720846Y-106541117D01*
X104721268Y-106542138D01*
X104721644Y-106544675D01*
X104769263Y-106735151D01*
X104774210Y-106748997D01*
X104777529Y-106753476D01*
X104779663Y-106758628D01*
X104788991Y-106769994D01*
X104884229Y-106865233D01*
X104889979Y-106869953D01*
X104891278Y-106871450D01*
X104893532Y-106872869D01*
X104895594Y-106874561D01*
X104897426Y-106875319D01*
X104903721Y-106879282D01*
X104998959Y-106926901D01*
X105012690Y-106932156D01*
X105015379Y-106932347D01*
X105017868Y-106933378D01*
X105032500Y-106934819D01*
X105222976Y-106934819D01*
X105237608Y-106933378D01*
X105240097Y-106932346D01*
X105242785Y-106932156D01*
X105256517Y-106926901D01*
X105351755Y-106879282D01*
X105358054Y-106875317D01*
X105359882Y-106874560D01*
X105361938Y-106872871D01*
X105364198Y-106871450D01*
X105365497Y-106869951D01*
X105371247Y-106865233D01*
X105466486Y-106769993D01*
X105475813Y-106758628D01*
X105477946Y-106753476D01*
X105481266Y-106748997D01*
X105486213Y-106735151D01*
X105533832Y-106544675D01*
X105534207Y-106542138D01*
X105534630Y-106541117D01*
X105535172Y-106535604D01*
X105535982Y-106530131D01*
X105535819Y-106529038D01*
X105536071Y-106526485D01*
X105536071Y-106193152D01*
X105535819Y-106190598D01*
X105535982Y-106189506D01*
X105535172Y-106184032D01*
X105534630Y-106178520D01*
X105534207Y-106177498D01*
X105533832Y-106174962D01*
X105486213Y-105984486D01*
X105481266Y-105970640D01*
X105477947Y-105966161D01*
X105475813Y-105961008D01*
X105466485Y-105949643D01*
X105376661Y-105859819D01*
X105814643Y-105859819D01*
X105814643Y-106669342D01*
X105816084Y-106683974D01*
X105817115Y-106686463D01*
X105817306Y-106689151D01*
X105822561Y-106702883D01*
X105870180Y-106798121D01*
X105874143Y-106804417D01*
X105874901Y-106806247D01*
X105876590Y-106808305D01*
X105878012Y-106810564D01*
X105879510Y-106811863D01*
X105884228Y-106817612D01*
X105931847Y-106865232D01*
X105937596Y-106869950D01*
X105938897Y-106871450D01*
X105941156Y-106872872D01*
X105943213Y-106874560D01*
X105945040Y-106875317D01*
X105951340Y-106879282D01*
X106046578Y-106926901D01*
X106060309Y-106932156D01*
X106062998Y-106932347D01*
X106065487Y-106933378D01*
X106080119Y-106934819D01*
X106270595Y-106934819D01*
X106285227Y-106933378D01*
X106287716Y-106932346D01*
X106290404Y-106932156D01*
X106304136Y-106926901D01*
X106399374Y-106879282D01*
X106405673Y-106875317D01*
X106407501Y-106874560D01*
X106409557Y-106872872D01*
X106411817Y-106871450D01*
X106413117Y-106869950D01*
X106418867Y-106865232D01*
X106466485Y-106817613D01*
X106471203Y-106811863D01*
X106472702Y-106810564D01*
X106474123Y-106808305D01*
X106475813Y-106806247D01*
X106476570Y-106804417D01*
X106480534Y-106798121D01*
X106528153Y-106702883D01*
X106533408Y-106689152D01*
X106533599Y-106686462D01*
X106534630Y-106683974D01*
X106536071Y-106669342D01*
X106536071Y-105859819D01*
X106534630Y-105845187D01*
X106720846Y-105845187D01*
X106720846Y-105874451D01*
X106732045Y-105901487D01*
X106752737Y-105922179D01*
X106779773Y-105933378D01*
X106794405Y-105934819D01*
X107005119Y-105934819D01*
X107005119Y-106859819D01*
X107006560Y-106874451D01*
X107017759Y-106901487D01*
X107038451Y-106922179D01*
X107065487Y-106933378D01*
X107094751Y-106933378D01*
X107121787Y-106922179D01*
X107142479Y-106901487D01*
X107153678Y-106874451D01*
X107155119Y-106859819D01*
X107155119Y-105934819D01*
X107365833Y-105934819D01*
X107380465Y-105933378D01*
X107407501Y-105922179D01*
X107428193Y-105901487D01*
X107439392Y-105874451D01*
X107439392Y-105845187D01*
X107428193Y-105818151D01*
X107407501Y-105797459D01*
X107380465Y-105786260D01*
X107365833Y-105784819D01*
X106794405Y-105784819D01*
X106779773Y-105786260D01*
X106752737Y-105797459D01*
X106732045Y-105818151D01*
X106720846Y-105845187D01*
X106534630Y-105845187D01*
X106523431Y-105818151D01*
X106502739Y-105797459D01*
X106475703Y-105786260D01*
X106446439Y-105786260D01*
X106419403Y-105797459D01*
X106398711Y-105818151D01*
X106387512Y-105845187D01*
X106386071Y-105859819D01*
X106386071Y-106651637D01*
X106351812Y-106720153D01*
X106321405Y-106750561D01*
X106252890Y-106784819D01*
X106097824Y-106784819D01*
X106029308Y-106750561D01*
X105998901Y-106720153D01*
X105964643Y-106651637D01*
X105964643Y-105859819D01*
X105963202Y-105845187D01*
X105952003Y-105818151D01*
X105931311Y-105797459D01*
X105904275Y-105786260D01*
X105875011Y-105786260D01*
X105847975Y-105797459D01*
X105827283Y-105818151D01*
X105816084Y-105845187D01*
X105814643Y-105859819D01*
X105376661Y-105859819D01*
X105371247Y-105854405D01*
X105365497Y-105849686D01*
X105364198Y-105848188D01*
X105361938Y-105846766D01*
X105359882Y-105845078D01*
X105358054Y-105844320D01*
X105351755Y-105840356D01*
X105256517Y-105792737D01*
X105242785Y-105787482D01*
X105240097Y-105787291D01*
X105237608Y-105786260D01*
X105222976Y-105784819D01*
X105032500Y-105784819D01*
X105017868Y-105786260D01*
X105015379Y-105787290D01*
X105012690Y-105787482D01*
X104998959Y-105792737D01*
X104903721Y-105840356D01*
X104897426Y-105844318D01*
X104895594Y-105845077D01*
X104893532Y-105846768D01*
X104891278Y-105848188D01*
X104889979Y-105849684D01*
X104884229Y-105854405D01*
X104788991Y-105949643D01*
X104779664Y-105961008D01*
X104777530Y-105966158D01*
X104774210Y-105970640D01*
X104769263Y-105984486D01*
X104721644Y-106174962D01*
X104721268Y-106177498D01*
X104720846Y-106178520D01*
X104720303Y-106184032D01*
X104719494Y-106189506D01*
X104719656Y-106190598D01*
X104719405Y-106193152D01*
X104608294Y-106193152D01*
X104608294Y-105673708D01*
X107550503Y-105673708D01*
X107550503Y-107045930D01*
G37*
X112727319Y-104638333D02*
X112727319Y-105209761D01*
X112727319Y-104924047D02*
X111727319Y-104924047D01*
X111727319Y-104924047D02*
X111870176Y-105019285D01*
X111870176Y-105019285D02*
X111965414Y-105114523D01*
X111965414Y-105114523D02*
X112013033Y-105209761D01*
X112346366Y-104209761D02*
X112346366Y-103447857D01*
X112727319Y-103828809D02*
X111965414Y-103828809D01*
X93138928Y-109921009D02*
X93281785Y-109968628D01*
X93281785Y-109968628D02*
X93329404Y-110016247D01*
X93329404Y-110016247D02*
X93377023Y-110111485D01*
X93377023Y-110111485D02*
X93377023Y-110254342D01*
X93377023Y-110254342D02*
X93329404Y-110349580D01*
X93329404Y-110349580D02*
X93281785Y-110397200D01*
X93281785Y-110397200D02*
X93186547Y-110444819D01*
X93186547Y-110444819D02*
X92805595Y-110444819D01*
X92805595Y-110444819D02*
X92805595Y-109444819D01*
X92805595Y-109444819D02*
X93138928Y-109444819D01*
X93138928Y-109444819D02*
X93234166Y-109492438D01*
X93234166Y-109492438D02*
X93281785Y-109540057D01*
X93281785Y-109540057D02*
X93329404Y-109635295D01*
X93329404Y-109635295D02*
X93329404Y-109730533D01*
X93329404Y-109730533D02*
X93281785Y-109825771D01*
X93281785Y-109825771D02*
X93234166Y-109873390D01*
X93234166Y-109873390D02*
X93138928Y-109921009D01*
X93138928Y-109921009D02*
X92805595Y-109921009D01*
X94377023Y-110349580D02*
X94329404Y-110397200D01*
X94329404Y-110397200D02*
X94186547Y-110444819D01*
X94186547Y-110444819D02*
X94091309Y-110444819D01*
X94091309Y-110444819D02*
X93948452Y-110397200D01*
X93948452Y-110397200D02*
X93853214Y-110301961D01*
X93853214Y-110301961D02*
X93805595Y-110206723D01*
X93805595Y-110206723D02*
X93757976Y-110016247D01*
X93757976Y-110016247D02*
X93757976Y-109873390D01*
X93757976Y-109873390D02*
X93805595Y-109682914D01*
X93805595Y-109682914D02*
X93853214Y-109587676D01*
X93853214Y-109587676D02*
X93948452Y-109492438D01*
X93948452Y-109492438D02*
X94091309Y-109444819D01*
X94091309Y-109444819D02*
X94186547Y-109444819D01*
X94186547Y-109444819D02*
X94329404Y-109492438D01*
X94329404Y-109492438D02*
X94377023Y-109540057D01*
X93305833Y-115524819D02*
X92972500Y-115048628D01*
X92734405Y-115524819D02*
X92734405Y-114524819D01*
X92734405Y-114524819D02*
X93115357Y-114524819D01*
X93115357Y-114524819D02*
X93210595Y-114572438D01*
X93210595Y-114572438D02*
X93258214Y-114620057D01*
X93258214Y-114620057D02*
X93305833Y-114715295D01*
X93305833Y-114715295D02*
X93305833Y-114858152D01*
X93305833Y-114858152D02*
X93258214Y-114953390D01*
X93258214Y-114953390D02*
X93210595Y-115001009D01*
X93210595Y-115001009D02*
X93115357Y-115048628D01*
X93115357Y-115048628D02*
X92734405Y-115048628D01*
X93639167Y-114524819D02*
X94305833Y-115524819D01*
X94305833Y-114524819D02*
X93639167Y-115524819D01*
X92710595Y-111984819D02*
X93282023Y-111984819D01*
X92996309Y-112984819D02*
X92996309Y-111984819D01*
X93520119Y-111984819D02*
X94186785Y-112984819D01*
X94186785Y-111984819D02*
X93520119Y-112984819D01*
X93377023Y-107904819D02*
X92900833Y-107904819D01*
X92900833Y-107904819D02*
X92900833Y-106904819D01*
X94281785Y-107904819D02*
X93948452Y-107428628D01*
X93710357Y-107904819D02*
X93710357Y-106904819D01*
X93710357Y-106904819D02*
X94091309Y-106904819D01*
X94091309Y-106904819D02*
X94186547Y-106952438D01*
X94186547Y-106952438D02*
X94234166Y-107000057D01*
X94234166Y-107000057D02*
X94281785Y-107095295D01*
X94281785Y-107095295D02*
X94281785Y-107238152D01*
X94281785Y-107238152D02*
X94234166Y-107333390D01*
X94234166Y-107333390D02*
X94186547Y-107381009D01*
X94186547Y-107381009D02*
X94091309Y-107428628D01*
X94091309Y-107428628D02*
X93710357Y-107428628D01*
G36*
X116342420Y-107045747D02*
G01*
X114922580Y-107045747D01*
X114922580Y-105859819D01*
X115033691Y-105859819D01*
X115033691Y-106859819D01*
X115035132Y-106874451D01*
X115046331Y-106901487D01*
X115067023Y-106922179D01*
X115094059Y-106933378D01*
X115123323Y-106933378D01*
X115150359Y-106922179D01*
X115171051Y-106901487D01*
X115182250Y-106874451D01*
X115183691Y-106859819D01*
X115183691Y-105859819D01*
X115509881Y-105859819D01*
X115509881Y-106859819D01*
X115511322Y-106874451D01*
X115522521Y-106901487D01*
X115543213Y-106922179D01*
X115570249Y-106933378D01*
X115599513Y-106933378D01*
X115626549Y-106922179D01*
X115647241Y-106901487D01*
X115658440Y-106874451D01*
X115659881Y-106859819D01*
X115659881Y-106142235D01*
X116091191Y-106897030D01*
X116093380Y-106900114D01*
X116093949Y-106901487D01*
X116095346Y-106902884D01*
X116099701Y-106909019D01*
X116107589Y-106915127D01*
X116114641Y-106922179D01*
X116119059Y-106924009D01*
X116122839Y-106926936D01*
X116132460Y-106929560D01*
X116141677Y-106933378D01*
X116146458Y-106933378D01*
X116151070Y-106934636D01*
X116160967Y-106933378D01*
X116170941Y-106933378D01*
X116175356Y-106931548D01*
X116180100Y-106930946D01*
X116188764Y-106925995D01*
X116197977Y-106922179D01*
X116201355Y-106918800D01*
X116205509Y-106916427D01*
X116211618Y-106908537D01*
X116218669Y-106901487D01*
X116220498Y-106897070D01*
X116223426Y-106893290D01*
X116226050Y-106883666D01*
X116229868Y-106874451D01*
X116230604Y-106866968D01*
X116231126Y-106865058D01*
X116230938Y-106863582D01*
X116231309Y-106859819D01*
X116231309Y-105859819D01*
X116229868Y-105845187D01*
X116218669Y-105818151D01*
X116197977Y-105797459D01*
X116170941Y-105786260D01*
X116141677Y-105786260D01*
X116114641Y-105797459D01*
X116093949Y-105818151D01*
X116082750Y-105845187D01*
X116081309Y-105859819D01*
X116081309Y-106577402D01*
X115649999Y-105822609D01*
X115647810Y-105819525D01*
X115647241Y-105818151D01*
X115645841Y-105816751D01*
X115641489Y-105810619D01*
X115633599Y-105804509D01*
X115626549Y-105797459D01*
X115622132Y-105795629D01*
X115618352Y-105792702D01*
X115608728Y-105790077D01*
X115599513Y-105786260D01*
X115594732Y-105786260D01*
X115590120Y-105785002D01*
X115580223Y-105786260D01*
X115570249Y-105786260D01*
X115565833Y-105788089D01*
X115561090Y-105788692D01*
X115552425Y-105793642D01*
X115543213Y-105797459D01*
X115539834Y-105800837D01*
X115535681Y-105803211D01*
X115529571Y-105811100D01*
X115522521Y-105818151D01*
X115520691Y-105822567D01*
X115517764Y-105826348D01*
X115515139Y-105835971D01*
X115511322Y-105845187D01*
X115510585Y-105852669D01*
X115510064Y-105854580D01*
X115510251Y-105856055D01*
X115509881Y-105859819D01*
X115183691Y-105859819D01*
X115182250Y-105845187D01*
X115171051Y-105818151D01*
X115150359Y-105797459D01*
X115123323Y-105786260D01*
X115094059Y-105786260D01*
X115067023Y-105797459D01*
X115046331Y-105818151D01*
X115035132Y-105845187D01*
X115033691Y-105859819D01*
X114922580Y-105859819D01*
X114922580Y-105673891D01*
X116342420Y-105673891D01*
X116342420Y-107045747D01*
G37*
X92686786Y-105317200D02*
X92829643Y-105364819D01*
X92829643Y-105364819D02*
X93067738Y-105364819D01*
X93067738Y-105364819D02*
X93162976Y-105317200D01*
X93162976Y-105317200D02*
X93210595Y-105269580D01*
X93210595Y-105269580D02*
X93258214Y-105174342D01*
X93258214Y-105174342D02*
X93258214Y-105079104D01*
X93258214Y-105079104D02*
X93210595Y-104983866D01*
X93210595Y-104983866D02*
X93162976Y-104936247D01*
X93162976Y-104936247D02*
X93067738Y-104888628D01*
X93067738Y-104888628D02*
X92877262Y-104841009D01*
X92877262Y-104841009D02*
X92782024Y-104793390D01*
X92782024Y-104793390D02*
X92734405Y-104745771D01*
X92734405Y-104745771D02*
X92686786Y-104650533D01*
X92686786Y-104650533D02*
X92686786Y-104555295D01*
X92686786Y-104555295D02*
X92734405Y-104460057D01*
X92734405Y-104460057D02*
X92782024Y-104412438D01*
X92782024Y-104412438D02*
X92877262Y-104364819D01*
X92877262Y-104364819D02*
X93115357Y-104364819D01*
X93115357Y-104364819D02*
X93258214Y-104412438D01*
X93686786Y-105364819D02*
X93686786Y-104364819D01*
X93686786Y-104364819D02*
X93924881Y-104364819D01*
X93924881Y-104364819D02*
X94067738Y-104412438D01*
X94067738Y-104412438D02*
X94162976Y-104507676D01*
X94162976Y-104507676D02*
X94210595Y-104602914D01*
X94210595Y-104602914D02*
X94258214Y-104793390D01*
X94258214Y-104793390D02*
X94258214Y-104936247D01*
X94258214Y-104936247D02*
X94210595Y-105126723D01*
X94210595Y-105126723D02*
X94162976Y-105221961D01*
X94162976Y-105221961D02*
X94067738Y-105317200D01*
X94067738Y-105317200D02*
X93924881Y-105364819D01*
X93924881Y-105364819D02*
X93686786Y-105364819D01*
X117747319Y-120476189D02*
X116747319Y-120476189D01*
X117747319Y-119476190D02*
X117747319Y-120047618D01*
X117747319Y-119761904D02*
X116747319Y-119761904D01*
X116747319Y-119761904D02*
X116890176Y-119857142D01*
X116890176Y-119857142D02*
X116985414Y-119952380D01*
X116985414Y-119952380D02*
X117033033Y-120047618D01*
X93710595Y-119604819D02*
X93234405Y-119604819D01*
X93234405Y-119604819D02*
X93186786Y-120081009D01*
X93186786Y-120081009D02*
X93234405Y-120033390D01*
X93234405Y-120033390D02*
X93329643Y-119985771D01*
X93329643Y-119985771D02*
X93567738Y-119985771D01*
X93567738Y-119985771D02*
X93662976Y-120033390D01*
X93662976Y-120033390D02*
X93710595Y-120081009D01*
X93710595Y-120081009D02*
X93758214Y-120176247D01*
X93758214Y-120176247D02*
X93758214Y-120414342D01*
X93758214Y-120414342D02*
X93710595Y-120509580D01*
X93710595Y-120509580D02*
X93662976Y-120557200D01*
X93662976Y-120557200D02*
X93567738Y-120604819D01*
X93567738Y-120604819D02*
X93329643Y-120604819D01*
X93329643Y-120604819D02*
X93234405Y-120557200D01*
X93234405Y-120557200D02*
X93186786Y-120509580D01*
X92639167Y-100284819D02*
X92639167Y-99284819D01*
X92639167Y-99284819D02*
X92972500Y-99999104D01*
X92972500Y-99999104D02*
X93305833Y-99284819D01*
X93305833Y-99284819D02*
X93305833Y-100284819D01*
X93782024Y-100284819D02*
X93782024Y-99284819D01*
X94353452Y-100284819D02*
X93924881Y-99713390D01*
X94353452Y-99284819D02*
X93782024Y-99856247D01*
X106634938Y-120338095D02*
X106587319Y-120433333D01*
X106587319Y-120433333D02*
X106587319Y-120576190D01*
X106587319Y-120576190D02*
X106634938Y-120719047D01*
X106634938Y-120719047D02*
X106730176Y-120814285D01*
X106730176Y-120814285D02*
X106825414Y-120861904D01*
X106825414Y-120861904D02*
X107015890Y-120909523D01*
X107015890Y-120909523D02*
X107158747Y-120909523D01*
X107158747Y-120909523D02*
X107349223Y-120861904D01*
X107349223Y-120861904D02*
X107444461Y-120814285D01*
X107444461Y-120814285D02*
X107539700Y-120719047D01*
X107539700Y-120719047D02*
X107587319Y-120576190D01*
X107587319Y-120576190D02*
X107587319Y-120480952D01*
X107587319Y-120480952D02*
X107539700Y-120338095D01*
X107539700Y-120338095D02*
X107492080Y-120290476D01*
X107492080Y-120290476D02*
X107158747Y-120290476D01*
X107158747Y-120290476D02*
X107158747Y-120480952D01*
X104999700Y-120785713D02*
X105047319Y-120642856D01*
X105047319Y-120642856D02*
X105047319Y-120404761D01*
X105047319Y-120404761D02*
X104999700Y-120309523D01*
X104999700Y-120309523D02*
X104952080Y-120261904D01*
X104952080Y-120261904D02*
X104856842Y-120214285D01*
X104856842Y-120214285D02*
X104761604Y-120214285D01*
X104761604Y-120214285D02*
X104666366Y-120261904D01*
X104666366Y-120261904D02*
X104618747Y-120309523D01*
X104618747Y-120309523D02*
X104571128Y-120404761D01*
X104571128Y-120404761D02*
X104523509Y-120595237D01*
X104523509Y-120595237D02*
X104475890Y-120690475D01*
X104475890Y-120690475D02*
X104428271Y-120738094D01*
X104428271Y-120738094D02*
X104333033Y-120785713D01*
X104333033Y-120785713D02*
X104237795Y-120785713D01*
X104237795Y-120785713D02*
X104142557Y-120738094D01*
X104142557Y-120738094D02*
X104094938Y-120690475D01*
X104094938Y-120690475D02*
X104047319Y-120595237D01*
X104047319Y-120595237D02*
X104047319Y-120357142D01*
X104047319Y-120357142D02*
X104094938Y-120214285D01*
X105047319Y-119785713D02*
X104047319Y-119785713D01*
X104047319Y-119785713D02*
X104047319Y-119547618D01*
X104047319Y-119547618D02*
X104094938Y-119404761D01*
X104094938Y-119404761D02*
X104190176Y-119309523D01*
X104190176Y-119309523D02*
X104285414Y-119261904D01*
X104285414Y-119261904D02*
X104475890Y-119214285D01*
X104475890Y-119214285D02*
X104618747Y-119214285D01*
X104618747Y-119214285D02*
X104809223Y-119261904D01*
X104809223Y-119261904D02*
X104904461Y-119309523D01*
X104904461Y-119309523D02*
X104999700Y-119404761D01*
X104999700Y-119404761D02*
X105047319Y-119547618D01*
X105047319Y-119547618D02*
X105047319Y-119785713D01*
X125914795Y-117707380D02*
X125914795Y-118088332D01*
X125914795Y-118088332D02*
X126295747Y-118126428D01*
X126295747Y-118126428D02*
X126257652Y-118088332D01*
X126257652Y-118088332D02*
X126219557Y-118012142D01*
X126219557Y-118012142D02*
X126219557Y-117821666D01*
X126219557Y-117821666D02*
X126257652Y-117745475D01*
X126257652Y-117745475D02*
X126295747Y-117707380D01*
X126295747Y-117707380D02*
X126371938Y-117669285D01*
X126371938Y-117669285D02*
X126562414Y-117669285D01*
X126562414Y-117669285D02*
X126638604Y-117707380D01*
X126638604Y-117707380D02*
X126676700Y-117745475D01*
X126676700Y-117745475D02*
X126714795Y-117821666D01*
X126714795Y-117821666D02*
X126714795Y-118012142D01*
X126714795Y-118012142D02*
X126676700Y-118088332D01*
X126676700Y-118088332D02*
X126638604Y-118126428D01*
X125914795Y-117440713D02*
X126714795Y-117174046D01*
X126714795Y-117174046D02*
X125914795Y-116907380D01*
X106742557Y-105304761D02*
X106694938Y-105257142D01*
X106694938Y-105257142D02*
X106647319Y-105161904D01*
X106647319Y-105161904D02*
X106647319Y-104923809D01*
X106647319Y-104923809D02*
X106694938Y-104828571D01*
X106694938Y-104828571D02*
X106742557Y-104780952D01*
X106742557Y-104780952D02*
X106837795Y-104733333D01*
X106837795Y-104733333D02*
X106933033Y-104733333D01*
X106933033Y-104733333D02*
X107075890Y-104780952D01*
X107075890Y-104780952D02*
X107647319Y-105352380D01*
X107647319Y-105352380D02*
X107647319Y-104733333D01*
X107266366Y-104304761D02*
X107266366Y-103542857D01*
X107647319Y-103923809D02*
X106885414Y-103923809D01*
X112667319Y-120904999D02*
X111667319Y-120904999D01*
X111667319Y-120238333D02*
X111667319Y-120047857D01*
X111667319Y-120047857D02*
X111714938Y-119952619D01*
X111714938Y-119952619D02*
X111810176Y-119857381D01*
X111810176Y-119857381D02*
X112000652Y-119809762D01*
X112000652Y-119809762D02*
X112333985Y-119809762D01*
X112333985Y-119809762D02*
X112524461Y-119857381D01*
X112524461Y-119857381D02*
X112619700Y-119952619D01*
X112619700Y-119952619D02*
X112667319Y-120047857D01*
X112667319Y-120047857D02*
X112667319Y-120238333D01*
X112667319Y-120238333D02*
X112619700Y-120333571D01*
X112619700Y-120333571D02*
X112524461Y-120428809D01*
X112524461Y-120428809D02*
X112333985Y-120476428D01*
X112333985Y-120476428D02*
X112000652Y-120476428D01*
X112000652Y-120476428D02*
X111810176Y-120428809D01*
X111810176Y-120428809D02*
X111714938Y-120333571D01*
X111714938Y-120333571D02*
X111667319Y-120238333D01*
X111762557Y-119428809D02*
X111714938Y-119381190D01*
X111714938Y-119381190D02*
X111667319Y-119285952D01*
X111667319Y-119285952D02*
X111667319Y-119047857D01*
X111667319Y-119047857D02*
X111714938Y-118952619D01*
X111714938Y-118952619D02*
X111762557Y-118905000D01*
X111762557Y-118905000D02*
X111857795Y-118857381D01*
X111857795Y-118857381D02*
X111953033Y-118857381D01*
X111953033Y-118857381D02*
X112095890Y-118905000D01*
X112095890Y-118905000D02*
X112667319Y-119476428D01*
X112667319Y-119476428D02*
X112667319Y-118857381D01*
X110127319Y-120904999D02*
X109127319Y-120904999D01*
X109127319Y-120238333D02*
X109127319Y-120047857D01*
X109127319Y-120047857D02*
X109174938Y-119952619D01*
X109174938Y-119952619D02*
X109270176Y-119857381D01*
X109270176Y-119857381D02*
X109460652Y-119809762D01*
X109460652Y-119809762D02*
X109793985Y-119809762D01*
X109793985Y-119809762D02*
X109984461Y-119857381D01*
X109984461Y-119857381D02*
X110079700Y-119952619D01*
X110079700Y-119952619D02*
X110127319Y-120047857D01*
X110127319Y-120047857D02*
X110127319Y-120238333D01*
X110127319Y-120238333D02*
X110079700Y-120333571D01*
X110079700Y-120333571D02*
X109984461Y-120428809D01*
X109984461Y-120428809D02*
X109793985Y-120476428D01*
X109793985Y-120476428D02*
X109460652Y-120476428D01*
X109460652Y-120476428D02*
X109270176Y-120428809D01*
X109270176Y-120428809D02*
X109174938Y-120333571D01*
X109174938Y-120333571D02*
X109127319Y-120238333D01*
X110127319Y-118857381D02*
X110127319Y-119428809D01*
X110127319Y-119143095D02*
X109127319Y-119143095D01*
X109127319Y-119143095D02*
X109270176Y-119238333D01*
X109270176Y-119238333D02*
X109365414Y-119333571D01*
X109365414Y-119333571D02*
X109413033Y-119428809D01*
X102567319Y-104733333D02*
X102567319Y-105304761D01*
X102567319Y-105019047D02*
X101567319Y-105019047D01*
X101567319Y-105019047D02*
X101710176Y-105114285D01*
X101710176Y-105114285D02*
X101805414Y-105209523D01*
X101805414Y-105209523D02*
X101853033Y-105304761D01*
X102186366Y-104304761D02*
X102186366Y-103542857D01*
X102567319Y-103923809D02*
X101805414Y-103923809D01*
X93282023Y-118064819D02*
X92710595Y-118064819D01*
X92996309Y-118064819D02*
X92996309Y-117064819D01*
X92996309Y-117064819D02*
X92901071Y-117207676D01*
X92901071Y-117207676D02*
X92805833Y-117302914D01*
X92805833Y-117302914D02*
X92710595Y-117350533D01*
X93662976Y-117160057D02*
X93710595Y-117112438D01*
X93710595Y-117112438D02*
X93805833Y-117064819D01*
X93805833Y-117064819D02*
X94043928Y-117064819D01*
X94043928Y-117064819D02*
X94139166Y-117112438D01*
X94139166Y-117112438D02*
X94186785Y-117160057D01*
X94186785Y-117160057D02*
X94234404Y-117255295D01*
X94234404Y-117255295D02*
X94234404Y-117350533D01*
X94234404Y-117350533D02*
X94186785Y-117493390D01*
X94186785Y-117493390D02*
X93615357Y-118064819D01*
X93615357Y-118064819D02*
X94234404Y-118064819D01*
X120287319Y-120833332D02*
X119287319Y-120833332D01*
X119287319Y-120833332D02*
X120001604Y-120499999D01*
X120001604Y-120499999D02*
X119287319Y-120166666D01*
X119287319Y-120166666D02*
X120287319Y-120166666D01*
X119763509Y-119357142D02*
X119811128Y-119214285D01*
X119811128Y-119214285D02*
X119858747Y-119166666D01*
X119858747Y-119166666D02*
X119953985Y-119119047D01*
X119953985Y-119119047D02*
X120096842Y-119119047D01*
X120096842Y-119119047D02*
X120192080Y-119166666D01*
X120192080Y-119166666D02*
X120239700Y-119214285D01*
X120239700Y-119214285D02*
X120287319Y-119309523D01*
X120287319Y-119309523D02*
X120287319Y-119690475D01*
X120287319Y-119690475D02*
X119287319Y-119690475D01*
X119287319Y-119690475D02*
X119287319Y-119357142D01*
X119287319Y-119357142D02*
X119334938Y-119261904D01*
X119334938Y-119261904D02*
X119382557Y-119214285D01*
X119382557Y-119214285D02*
X119477795Y-119166666D01*
X119477795Y-119166666D02*
X119573033Y-119166666D01*
X119573033Y-119166666D02*
X119668271Y-119214285D01*
X119668271Y-119214285D02*
X119715890Y-119261904D01*
X119715890Y-119261904D02*
X119763509Y-119357142D01*
X119763509Y-119357142D02*
X119763509Y-119690475D01*
X92686786Y-102777200D02*
X92829643Y-102824819D01*
X92829643Y-102824819D02*
X93067738Y-102824819D01*
X93067738Y-102824819D02*
X93162976Y-102777200D01*
X93162976Y-102777200D02*
X93210595Y-102729580D01*
X93210595Y-102729580D02*
X93258214Y-102634342D01*
X93258214Y-102634342D02*
X93258214Y-102539104D01*
X93258214Y-102539104D02*
X93210595Y-102443866D01*
X93210595Y-102443866D02*
X93162976Y-102396247D01*
X93162976Y-102396247D02*
X93067738Y-102348628D01*
X93067738Y-102348628D02*
X92877262Y-102301009D01*
X92877262Y-102301009D02*
X92782024Y-102253390D01*
X92782024Y-102253390D02*
X92734405Y-102205771D01*
X92734405Y-102205771D02*
X92686786Y-102110533D01*
X92686786Y-102110533D02*
X92686786Y-102015295D01*
X92686786Y-102015295D02*
X92734405Y-101920057D01*
X92734405Y-101920057D02*
X92782024Y-101872438D01*
X92782024Y-101872438D02*
X92877262Y-101824819D01*
X92877262Y-101824819D02*
X93115357Y-101824819D01*
X93115357Y-101824819D02*
X93258214Y-101872438D01*
X94258214Y-102729580D02*
X94210595Y-102777200D01*
X94210595Y-102777200D02*
X94067738Y-102824819D01*
X94067738Y-102824819D02*
X93972500Y-102824819D01*
X93972500Y-102824819D02*
X93829643Y-102777200D01*
X93829643Y-102777200D02*
X93734405Y-102681961D01*
X93734405Y-102681961D02*
X93686786Y-102586723D01*
X93686786Y-102586723D02*
X93639167Y-102396247D01*
X93639167Y-102396247D02*
X93639167Y-102253390D01*
X93639167Y-102253390D02*
X93686786Y-102062914D01*
X93686786Y-102062914D02*
X93734405Y-101967676D01*
X93734405Y-101967676D02*
X93829643Y-101872438D01*
X93829643Y-101872438D02*
X93972500Y-101824819D01*
X93972500Y-101824819D02*
X94067738Y-101824819D01*
X94067738Y-101824819D02*
X94210595Y-101872438D01*
X94210595Y-101872438D02*
X94258214Y-101920057D01*
X116902557Y-105304761D02*
X116854938Y-105257142D01*
X116854938Y-105257142D02*
X116807319Y-105161904D01*
X116807319Y-105161904D02*
X116807319Y-104923809D01*
X116807319Y-104923809D02*
X116854938Y-104828571D01*
X116854938Y-104828571D02*
X116902557Y-104780952D01*
X116902557Y-104780952D02*
X116997795Y-104733333D01*
X116997795Y-104733333D02*
X117093033Y-104733333D01*
X117093033Y-104733333D02*
X117235890Y-104780952D01*
X117235890Y-104780952D02*
X117807319Y-105352380D01*
X117807319Y-105352380D02*
X117807319Y-104733333D01*
X117426366Y-104304761D02*
X117426366Y-103542857D01*
X117807319Y-103923809D02*
X117045414Y-103923809D01*
X116562295Y-114497619D02*
X116562295Y-114878571D01*
X116562295Y-114878571D02*
X116943247Y-114916667D01*
X116943247Y-114916667D02*
X116905152Y-114878571D01*
X116905152Y-114878571D02*
X116867057Y-114802381D01*
X116867057Y-114802381D02*
X116867057Y-114611905D01*
X116867057Y-114611905D02*
X116905152Y-114535714D01*
X116905152Y-114535714D02*
X116943247Y-114497619D01*
X116943247Y-114497619D02*
X117019438Y-114459524D01*
X117019438Y-114459524D02*
X117209914Y-114459524D01*
X117209914Y-114459524D02*
X117286104Y-114497619D01*
X117286104Y-114497619D02*
X117324200Y-114535714D01*
X117324200Y-114535714D02*
X117362295Y-114611905D01*
X117362295Y-114611905D02*
X117362295Y-114802381D01*
X117362295Y-114802381D02*
X117324200Y-114878571D01*
X117324200Y-114878571D02*
X117286104Y-114916667D01*
X116562295Y-113964285D02*
X116562295Y-113888095D01*
X116562295Y-113888095D02*
X116600390Y-113811904D01*
X116600390Y-113811904D02*
X116638485Y-113773809D01*
X116638485Y-113773809D02*
X116714676Y-113735714D01*
X116714676Y-113735714D02*
X116867057Y-113697619D01*
X116867057Y-113697619D02*
X117057533Y-113697619D01*
X117057533Y-113697619D02*
X117209914Y-113735714D01*
X117209914Y-113735714D02*
X117286104Y-113773809D01*
X117286104Y-113773809D02*
X117324200Y-113811904D01*
X117324200Y-113811904D02*
X117362295Y-113888095D01*
X117362295Y-113888095D02*
X117362295Y-113964285D01*
X117362295Y-113964285D02*
X117324200Y-114040476D01*
X117324200Y-114040476D02*
X117286104Y-114078571D01*
X117286104Y-114078571D02*
X117209914Y-114116666D01*
X117209914Y-114116666D02*
X117057533Y-114154762D01*
X117057533Y-114154762D02*
X116867057Y-114154762D01*
X116867057Y-114154762D02*
X116714676Y-114116666D01*
X116714676Y-114116666D02*
X116638485Y-114078571D01*
X116638485Y-114078571D02*
X116600390Y-114040476D01*
X116600390Y-114040476D02*
X116562295Y-113964285D01*
X117133723Y-109126189D02*
X117133723Y-108745236D01*
X117362295Y-109202379D02*
X116562295Y-108935712D01*
X116562295Y-108935712D02*
X117362295Y-108669046D01*
X116562295Y-108249998D02*
X116562295Y-108173808D01*
X116562295Y-108173808D02*
X116600390Y-108097617D01*
X116600390Y-108097617D02*
X116638485Y-108059522D01*
X116638485Y-108059522D02*
X116714676Y-108021427D01*
X116714676Y-108021427D02*
X116867057Y-107983332D01*
X116867057Y-107983332D02*
X117057533Y-107983332D01*
X117057533Y-107983332D02*
X117209914Y-108021427D01*
X117209914Y-108021427D02*
X117286104Y-108059522D01*
X117286104Y-108059522D02*
X117324200Y-108097617D01*
X117324200Y-108097617D02*
X117362295Y-108173808D01*
X117362295Y-108173808D02*
X117362295Y-108249998D01*
X117362295Y-108249998D02*
X117324200Y-108326189D01*
X117324200Y-108326189D02*
X117286104Y-108364284D01*
X117286104Y-108364284D02*
X117209914Y-108402379D01*
X117209914Y-108402379D02*
X117057533Y-108440475D01*
X117057533Y-108440475D02*
X116867057Y-108440475D01*
X116867057Y-108440475D02*
X116714676Y-108402379D01*
X116714676Y-108402379D02*
X116638485Y-108364284D01*
X116638485Y-108364284D02*
X116600390Y-108326189D01*
X116600390Y-108326189D02*
X116562295Y-108249998D01*
X118162295Y-114497619D02*
X118162295Y-114878571D01*
X118162295Y-114878571D02*
X118543247Y-114916667D01*
X118543247Y-114916667D02*
X118505152Y-114878571D01*
X118505152Y-114878571D02*
X118467057Y-114802381D01*
X118467057Y-114802381D02*
X118467057Y-114611905D01*
X118467057Y-114611905D02*
X118505152Y-114535714D01*
X118505152Y-114535714D02*
X118543247Y-114497619D01*
X118543247Y-114497619D02*
X118619438Y-114459524D01*
X118619438Y-114459524D02*
X118809914Y-114459524D01*
X118809914Y-114459524D02*
X118886104Y-114497619D01*
X118886104Y-114497619D02*
X118924200Y-114535714D01*
X118924200Y-114535714D02*
X118962295Y-114611905D01*
X118962295Y-114611905D02*
X118962295Y-114802381D01*
X118962295Y-114802381D02*
X118924200Y-114878571D01*
X118924200Y-114878571D02*
X118886104Y-114916667D01*
X118962295Y-113697619D02*
X118962295Y-114154762D01*
X118962295Y-113926190D02*
X118162295Y-113926190D01*
X118162295Y-113926190D02*
X118276580Y-114002381D01*
X118276580Y-114002381D02*
X118352771Y-114078571D01*
X118352771Y-114078571D02*
X118390866Y-114154762D01*
X118733723Y-109126189D02*
X118733723Y-108745236D01*
X118962295Y-109202379D02*
X118162295Y-108935712D01*
X118162295Y-108935712D02*
X118962295Y-108669046D01*
X118238485Y-108440475D02*
X118200390Y-108402379D01*
X118200390Y-108402379D02*
X118162295Y-108326189D01*
X118162295Y-108326189D02*
X118162295Y-108135713D01*
X118162295Y-108135713D02*
X118200390Y-108059522D01*
X118200390Y-108059522D02*
X118238485Y-108021427D01*
X118238485Y-108021427D02*
X118314676Y-107983332D01*
X118314676Y-107983332D02*
X118390866Y-107983332D01*
X118390866Y-107983332D02*
X118505152Y-108021427D01*
X118505152Y-108021427D02*
X118962295Y-108478570D01*
X118962295Y-108478570D02*
X118962295Y-107983332D01*
X119762295Y-114497619D02*
X119762295Y-114878571D01*
X119762295Y-114878571D02*
X120143247Y-114916667D01*
X120143247Y-114916667D02*
X120105152Y-114878571D01*
X120105152Y-114878571D02*
X120067057Y-114802381D01*
X120067057Y-114802381D02*
X120067057Y-114611905D01*
X120067057Y-114611905D02*
X120105152Y-114535714D01*
X120105152Y-114535714D02*
X120143247Y-114497619D01*
X120143247Y-114497619D02*
X120219438Y-114459524D01*
X120219438Y-114459524D02*
X120409914Y-114459524D01*
X120409914Y-114459524D02*
X120486104Y-114497619D01*
X120486104Y-114497619D02*
X120524200Y-114535714D01*
X120524200Y-114535714D02*
X120562295Y-114611905D01*
X120562295Y-114611905D02*
X120562295Y-114802381D01*
X120562295Y-114802381D02*
X120524200Y-114878571D01*
X120524200Y-114878571D02*
X120486104Y-114916667D01*
X119838485Y-114154762D02*
X119800390Y-114116666D01*
X119800390Y-114116666D02*
X119762295Y-114040476D01*
X119762295Y-114040476D02*
X119762295Y-113850000D01*
X119762295Y-113850000D02*
X119800390Y-113773809D01*
X119800390Y-113773809D02*
X119838485Y-113735714D01*
X119838485Y-113735714D02*
X119914676Y-113697619D01*
X119914676Y-113697619D02*
X119990866Y-113697619D01*
X119990866Y-113697619D02*
X120105152Y-113735714D01*
X120105152Y-113735714D02*
X120562295Y-114192857D01*
X120562295Y-114192857D02*
X120562295Y-113697619D01*
X120333723Y-109126189D02*
X120333723Y-108745236D01*
X120562295Y-109202379D02*
X119762295Y-108935712D01*
X119762295Y-108935712D02*
X120562295Y-108669046D01*
X120028961Y-108059522D02*
X120562295Y-108059522D01*
X119724200Y-108249998D02*
X120295628Y-108440475D01*
X120295628Y-108440475D02*
X120295628Y-107945236D01*
X99643247Y-98610839D02*
X99643247Y-98344173D01*
X100062295Y-98229887D02*
X100062295Y-98610839D01*
X100062295Y-98610839D02*
X99262295Y-98610839D01*
X99262295Y-98610839D02*
X99262295Y-98229887D01*
X122043247Y-98610839D02*
X122043247Y-98344173D01*
X122462295Y-98229887D02*
X122462295Y-98610839D01*
X122462295Y-98610839D02*
X121662295Y-98610839D01*
X121662295Y-98610839D02*
X121662295Y-98229887D01*
X121362295Y-114497619D02*
X121362295Y-114878571D01*
X121362295Y-114878571D02*
X121743247Y-114916667D01*
X121743247Y-114916667D02*
X121705152Y-114878571D01*
X121705152Y-114878571D02*
X121667057Y-114802381D01*
X121667057Y-114802381D02*
X121667057Y-114611905D01*
X121667057Y-114611905D02*
X121705152Y-114535714D01*
X121705152Y-114535714D02*
X121743247Y-114497619D01*
X121743247Y-114497619D02*
X121819438Y-114459524D01*
X121819438Y-114459524D02*
X122009914Y-114459524D01*
X122009914Y-114459524D02*
X122086104Y-114497619D01*
X122086104Y-114497619D02*
X122124200Y-114535714D01*
X122124200Y-114535714D02*
X122162295Y-114611905D01*
X122162295Y-114611905D02*
X122162295Y-114802381D01*
X122162295Y-114802381D02*
X122124200Y-114878571D01*
X122124200Y-114878571D02*
X122086104Y-114916667D01*
X121362295Y-114192857D02*
X121362295Y-113697619D01*
X121362295Y-113697619D02*
X121667057Y-113964285D01*
X121667057Y-113964285D02*
X121667057Y-113850000D01*
X121667057Y-113850000D02*
X121705152Y-113773809D01*
X121705152Y-113773809D02*
X121743247Y-113735714D01*
X121743247Y-113735714D02*
X121819438Y-113697619D01*
X121819438Y-113697619D02*
X122009914Y-113697619D01*
X122009914Y-113697619D02*
X122086104Y-113735714D01*
X122086104Y-113735714D02*
X122124200Y-113773809D01*
X122124200Y-113773809D02*
X122162295Y-113850000D01*
X122162295Y-113850000D02*
X122162295Y-114078571D01*
X122162295Y-114078571D02*
X122124200Y-114154762D01*
X122124200Y-114154762D02*
X122086104Y-114192857D01*
X121933723Y-109126189D02*
X121933723Y-108745236D01*
X122162295Y-109202379D02*
X121362295Y-108935712D01*
X121362295Y-108935712D02*
X122162295Y-108669046D01*
X121362295Y-108059522D02*
X121362295Y-108211903D01*
X121362295Y-108211903D02*
X121400390Y-108288094D01*
X121400390Y-108288094D02*
X121438485Y-108326189D01*
X121438485Y-108326189D02*
X121552771Y-108402379D01*
X121552771Y-108402379D02*
X121705152Y-108440475D01*
X121705152Y-108440475D02*
X122009914Y-108440475D01*
X122009914Y-108440475D02*
X122086104Y-108402379D01*
X122086104Y-108402379D02*
X122124200Y-108364284D01*
X122124200Y-108364284D02*
X122162295Y-108288094D01*
X122162295Y-108288094D02*
X122162295Y-108135713D01*
X122162295Y-108135713D02*
X122124200Y-108059522D01*
X122124200Y-108059522D02*
X122086104Y-108021427D01*
X122086104Y-108021427D02*
X122009914Y-107983332D01*
X122009914Y-107983332D02*
X121819438Y-107983332D01*
X121819438Y-107983332D02*
X121743247Y-108021427D01*
X121743247Y-108021427D02*
X121705152Y-108059522D01*
X121705152Y-108059522D02*
X121667057Y-108135713D01*
X121667057Y-108135713D02*
X121667057Y-108288094D01*
X121667057Y-108288094D02*
X121705152Y-108364284D01*
X121705152Y-108364284D02*
X121743247Y-108402379D01*
X121743247Y-108402379D02*
X121819438Y-108440475D01*
X99813970Y-116426333D02*
X100379656Y-115860648D01*
X100379656Y-115860648D02*
X100514343Y-115995335D01*
X100514343Y-115995335D02*
X100568217Y-116103084D01*
X100568217Y-116103084D02*
X100568217Y-116210834D01*
X100568217Y-116210834D02*
X100541280Y-116291646D01*
X100541280Y-116291646D02*
X100460468Y-116426333D01*
X100460468Y-116426333D02*
X100379656Y-116507145D01*
X100379656Y-116507145D02*
X100244969Y-116587957D01*
X100244969Y-116587957D02*
X100164156Y-116614895D01*
X100164156Y-116614895D02*
X100056407Y-116614895D01*
X100056407Y-116614895D02*
X99948657Y-116561020D01*
X99948657Y-116561020D02*
X99813970Y-116426333D01*
X101053091Y-116534083D02*
X101160840Y-116641832D01*
X101160840Y-116641832D02*
X101187778Y-116722644D01*
X101187778Y-116722644D02*
X101187778Y-116830394D01*
X101187778Y-116830394D02*
X101106965Y-116965081D01*
X101106965Y-116965081D02*
X100918404Y-117153643D01*
X100918404Y-117153643D02*
X100783717Y-117234455D01*
X100783717Y-117234455D02*
X100675967Y-117234455D01*
X100675967Y-117234455D02*
X100595155Y-117207518D01*
X100595155Y-117207518D02*
X100487405Y-117099768D01*
X100487405Y-117099768D02*
X100460468Y-117018956D01*
X100460468Y-117018956D02*
X100460468Y-116911206D01*
X100460468Y-116911206D02*
X100541280Y-116776519D01*
X100541280Y-116776519D02*
X100729842Y-116587957D01*
X100729842Y-116587957D02*
X100864529Y-116507145D01*
X100864529Y-116507145D02*
X100972278Y-116507145D01*
X100972278Y-116507145D02*
X101053091Y-116534083D01*
X101537964Y-117018956D02*
X101080028Y-117476892D01*
X101080028Y-117476892D02*
X101053090Y-117557704D01*
X101053090Y-117557704D02*
X101053090Y-117611579D01*
X101053090Y-117611579D02*
X101080028Y-117692391D01*
X101080028Y-117692391D02*
X101187778Y-117800140D01*
X101187778Y-117800140D02*
X101268590Y-117827078D01*
X101268590Y-117827078D02*
X101322465Y-117827078D01*
X101322465Y-117827078D02*
X101403277Y-117800140D01*
X101403277Y-117800140D02*
X101861213Y-117342205D01*
X102049774Y-117530766D02*
X102373023Y-117854015D01*
X101645713Y-118258076D02*
X102211399Y-117692391D01*
X91179887Y-121747704D02*
X91560839Y-121747704D01*
X91560839Y-121747704D02*
X91598935Y-121366752D01*
X91598935Y-121366752D02*
X91560839Y-121404847D01*
X91560839Y-121404847D02*
X91484649Y-121442942D01*
X91484649Y-121442942D02*
X91294173Y-121442942D01*
X91294173Y-121442942D02*
X91217982Y-121404847D01*
X91217982Y-121404847D02*
X91179887Y-121366752D01*
X91179887Y-121366752D02*
X91141792Y-121290561D01*
X91141792Y-121290561D02*
X91141792Y-121100085D01*
X91141792Y-121100085D02*
X91179887Y-121023895D01*
X91179887Y-121023895D02*
X91217982Y-120985800D01*
X91217982Y-120985800D02*
X91294173Y-120947704D01*
X91294173Y-120947704D02*
X91484649Y-120947704D01*
X91484649Y-120947704D02*
X91560839Y-120985800D01*
X91560839Y-120985800D02*
X91598935Y-121023895D01*
X90913220Y-121747704D02*
X90646553Y-120947704D01*
X90646553Y-120947704D02*
X90379887Y-121747704D01*
X103439160Y-117294295D02*
X103439160Y-116494295D01*
X103439160Y-116494295D02*
X103743922Y-116494295D01*
X103743922Y-116494295D02*
X103820112Y-116532390D01*
X103820112Y-116532390D02*
X103858207Y-116570485D01*
X103858207Y-116570485D02*
X103896303Y-116646676D01*
X103896303Y-116646676D02*
X103896303Y-116760961D01*
X103896303Y-116760961D02*
X103858207Y-116837152D01*
X103858207Y-116837152D02*
X103820112Y-116875247D01*
X103820112Y-116875247D02*
X103743922Y-116913342D01*
X103743922Y-116913342D02*
X103439160Y-116913342D01*
X104239160Y-116494295D02*
X104239160Y-117141914D01*
X104239160Y-117141914D02*
X104277255Y-117218104D01*
X104277255Y-117218104D02*
X104315350Y-117256200D01*
X104315350Y-117256200D02*
X104391541Y-117294295D01*
X104391541Y-117294295D02*
X104543922Y-117294295D01*
X104543922Y-117294295D02*
X104620112Y-117256200D01*
X104620112Y-117256200D02*
X104658207Y-117218104D01*
X104658207Y-117218104D02*
X104696303Y-117141914D01*
X104696303Y-117141914D02*
X104696303Y-116494295D01*
X121800390Y-121091792D02*
X121762295Y-121167982D01*
X121762295Y-121167982D02*
X121762295Y-121282268D01*
X121762295Y-121282268D02*
X121800390Y-121396554D01*
X121800390Y-121396554D02*
X121876580Y-121472744D01*
X121876580Y-121472744D02*
X121952771Y-121510839D01*
X121952771Y-121510839D02*
X122105152Y-121548935D01*
X122105152Y-121548935D02*
X122219438Y-121548935D01*
X122219438Y-121548935D02*
X122371819Y-121510839D01*
X122371819Y-121510839D02*
X122448009Y-121472744D01*
X122448009Y-121472744D02*
X122524200Y-121396554D01*
X122524200Y-121396554D02*
X122562295Y-121282268D01*
X122562295Y-121282268D02*
X122562295Y-121206077D01*
X122562295Y-121206077D02*
X122524200Y-121091792D01*
X122524200Y-121091792D02*
X122486104Y-121053696D01*
X122486104Y-121053696D02*
X122219438Y-121053696D01*
X122219438Y-121053696D02*
X122219438Y-121206077D01*
X99100390Y-120491792D02*
X99062295Y-120567982D01*
X99062295Y-120567982D02*
X99062295Y-120682268D01*
X99062295Y-120682268D02*
X99100390Y-120796554D01*
X99100390Y-120796554D02*
X99176580Y-120872744D01*
X99176580Y-120872744D02*
X99252771Y-120910839D01*
X99252771Y-120910839D02*
X99405152Y-120948935D01*
X99405152Y-120948935D02*
X99519438Y-120948935D01*
X99519438Y-120948935D02*
X99671819Y-120910839D01*
X99671819Y-120910839D02*
X99748009Y-120872744D01*
X99748009Y-120872744D02*
X99824200Y-120796554D01*
X99824200Y-120796554D02*
X99862295Y-120682268D01*
X99862295Y-120682268D02*
X99862295Y-120606077D01*
X99862295Y-120606077D02*
X99824200Y-120491792D01*
X99824200Y-120491792D02*
X99786104Y-120453696D01*
X99786104Y-120453696D02*
X99519438Y-120453696D01*
X99519438Y-120453696D02*
X99519438Y-120606077D01*
D12*
%TO.C,R113*%
X112364388Y-114669899D02*
X112127336Y-114432847D01*
X112901790Y-114132497D02*
X112664738Y-113895445D01*
%TO.C,R121*%
X109600477Y-117029046D02*
X109817758Y-117246327D01*
X110137878Y-116491645D02*
X110355159Y-116708926D01*
%TO.C,board_outline108*%
X85467500Y-123930000D02*
X85467500Y-98410000D01*
X88067500Y-121330000D02*
X88067500Y-123930000D01*
X88067500Y-123930000D02*
X85467500Y-123930000D01*
X90667500Y-98410000D02*
X85467500Y-98410000D01*
X90667500Y-121330000D02*
X88067500Y-121330000D01*
X90667500Y-121330000D02*
X90667500Y-98410000D01*
X90667500Y-122600000D02*
X90667500Y-123930000D01*
X90667500Y-123930000D02*
X89337500Y-123930000D01*
X92677500Y-109245000D02*
X93987500Y-109245000D01*
X93532500Y-122705000D02*
X94532500Y-123205000D01*
X93987500Y-113345000D02*
X92677500Y-113345000D01*
X94532500Y-122205000D02*
X93532500Y-122705000D01*
X100717500Y-98415000D02*
X121157500Y-98415000D01*
X100717500Y-103615000D02*
X100717500Y-98415000D01*
X100717500Y-103615000D02*
X100717500Y-107105000D01*
X100717500Y-123935000D02*
X100717500Y-122605000D01*
X102047500Y-123935000D02*
X100717500Y-123935000D01*
X103317500Y-121275000D02*
X121157500Y-121275000D01*
X103317500Y-123935000D02*
X103317500Y-121275000D01*
X103317500Y-123935000D02*
X121157500Y-123935000D01*
X110937500Y-98415000D02*
X110937500Y-107105000D01*
X121157500Y-101075000D02*
X121157500Y-98415000D01*
X121157500Y-107105000D02*
X121157500Y-100955000D01*
X121157500Y-123935000D02*
X121157500Y-121275000D01*
G36*
X101032500Y-105605000D02*
G01*
X104632500Y-105605000D01*
X104632500Y-107105000D01*
X101032500Y-107105000D01*
X101032500Y-105605000D01*
G37*
G36*
X101032500Y-105605000D02*
G01*
X110632500Y-105605000D01*
X110632500Y-105705000D01*
X101032500Y-105705000D01*
X101032500Y-105605000D01*
G37*
G36*
X101032500Y-107005000D02*
G01*
X110632500Y-107005000D01*
X110632500Y-107105000D01*
X101032500Y-107105000D01*
X101032500Y-107005000D01*
G37*
G36*
X107532500Y-105605000D02*
G01*
X110632500Y-105605000D01*
X110632500Y-107105000D01*
X107532500Y-107105000D01*
X107532500Y-105605000D01*
G37*
G36*
X111232500Y-105605000D02*
G01*
X120832500Y-105605000D01*
X120832500Y-105705000D01*
X111232500Y-105705000D01*
X111232500Y-105605000D01*
G37*
G36*
X111232500Y-107005000D02*
G01*
X120832500Y-107005000D01*
X120832500Y-107105000D01*
X111232500Y-107105000D01*
X111232500Y-107005000D01*
G37*
G36*
X111242500Y-105605000D02*
G01*
X114932500Y-105605000D01*
X114932500Y-107105000D01*
X111242500Y-107105000D01*
X111242500Y-105605000D01*
G37*
G36*
X116332500Y-105605000D02*
G01*
X120862500Y-105605000D01*
X120862500Y-107105000D01*
X116332500Y-107105000D01*
X116332500Y-105605000D01*
G37*
%TO.C,ADD108*%
X116400000Y-109700000D02*
X117600000Y-109700000D01*
X116400000Y-112200000D02*
X116400000Y-109700000D01*
X117600000Y-109700000D02*
X117600000Y-112200000D01*
X117600000Y-112200000D02*
X116400000Y-112200000D01*
%TO.C,R112*%
X113105118Y-113929170D02*
X112868066Y-113692118D01*
X113642520Y-113391768D02*
X113405468Y-113154716D01*
%TO.C,C111*%
X108042013Y-117665000D02*
X107519509Y-117665000D01*
X108042013Y-119135000D02*
X107519509Y-119135000D01*
%TO.C,R114*%
X111584838Y-115449449D02*
X111347786Y-115212397D01*
X112122240Y-114912047D02*
X111885188Y-114674995D01*
%TO.C,R115*%
X105480603Y-114136033D02*
X105717655Y-113898981D01*
X106018005Y-114673435D02*
X106255057Y-114436383D01*
%TO.C,ADD112*%
X118000000Y-109700000D02*
X119200000Y-109700000D01*
X118000000Y-112200000D02*
X118000000Y-109700000D01*
X119200000Y-109700000D02*
X119200000Y-112200000D01*
X119200000Y-112200000D02*
X118000000Y-112200000D01*
%TO.C,C109*%
X105421693Y-109530810D02*
X105269190Y-109378307D01*
X105930810Y-109021693D02*
X105778307Y-108869190D01*
%TO.C,ADD110*%
X119600000Y-109700000D02*
X120800000Y-109700000D01*
X119600000Y-112200000D02*
X119600000Y-109700000D01*
X120800000Y-109700000D02*
X120800000Y-112200000D01*
X120800000Y-112200000D02*
X119600000Y-112200000D01*
%TO.C,C115*%
X101065010Y-114404457D02*
X100695543Y-114034990D01*
X102104457Y-113365010D02*
X101734990Y-112995543D01*
%TO.C,U108*%
X96000000Y-113540000D02*
X95200000Y-113540000D01*
X96000000Y-113540000D02*
X96800000Y-113540000D01*
X96000000Y-116660000D02*
X95200000Y-116660000D01*
X96000000Y-116660000D02*
X97800000Y-116660000D01*
%TO.C,R118*%
X106824106Y-115479536D02*
X107061158Y-115242484D01*
X107361508Y-116016938D02*
X107598560Y-115779886D01*
%TO.C,R126*%
X121820000Y-116746359D02*
X121820000Y-117053641D01*
X122580000Y-116746359D02*
X122580000Y-117053641D01*
%TO.C,C118*%
X114153733Y-108290000D02*
X114446267Y-108290000D01*
X114153733Y-109310000D02*
X114446267Y-109310000D01*
%TO.C,C116*%
X104420196Y-111901323D02*
X104267693Y-112053826D01*
X104929313Y-112410440D02*
X104776810Y-112562943D01*
%TO.C,C108*%
X101665010Y-109195543D02*
X101295543Y-109565010D01*
X102704457Y-110234990D02*
X102334990Y-110604457D01*
%TO.C,D116*%
X119465000Y-116872936D02*
X119465000Y-117327064D01*
X120935000Y-116872936D02*
X120935000Y-117327064D01*
%TO.C,C112*%
X108069190Y-116221693D02*
X108221693Y-116069190D01*
X108578307Y-116730810D02*
X108730810Y-116578307D01*
%TO.C,ADD111*%
X121200000Y-109700000D02*
X122400000Y-109700000D01*
X121200000Y-112200000D02*
X121200000Y-109700000D01*
X122400000Y-109700000D02*
X122400000Y-112200000D01*
X122400000Y-112200000D02*
X121200000Y-112200000D01*
%TO.C,R110*%
X113847580Y-113186708D02*
X113610528Y-112949656D01*
X114384982Y-112649306D02*
X114147930Y-112412254D01*
%TO.C,5V108*%
D13*
X93960000Y-121810000D02*
X91850000Y-121810000D01*
X91850000Y-120810000D01*
X93960000Y-120810000D01*
X93960000Y-121810000D01*
D12*
%TO.C,C128*%
X96653733Y-117490000D02*
X96946267Y-117490000D01*
X96653733Y-118510000D02*
X96946267Y-118510000D01*
%TO.C,R123*%
X121446359Y-112520000D02*
X121753641Y-112520000D01*
X121446359Y-113280000D02*
X121753641Y-113280000D01*
%TO.C,C119*%
X102735949Y-111142802D02*
X102942802Y-110935949D01*
X103457198Y-111864051D02*
X103664051Y-111657198D01*
%TO.C,R124*%
X117053641Y-112520000D02*
X116746359Y-112520000D01*
X117053641Y-113280000D02*
X116746359Y-113280000D01*
%TO.C,R119*%
X104808852Y-113464281D02*
X105045904Y-113227229D01*
X105346254Y-114001683D02*
X105583306Y-113764631D01*
%TO.C,PU_EN108*%
X103150000Y-117400000D02*
X105650000Y-117400000D01*
X103150000Y-118600000D02*
X103150000Y-117400000D01*
X105650000Y-117400000D02*
X105650000Y-118600000D01*
X105650000Y-118600000D02*
X103150000Y-118600000D01*
%TO.C,R117*%
X106152355Y-114807784D02*
X106389407Y-114570732D01*
X106689757Y-115345186D02*
X106926809Y-115108134D01*
%TO.C,TAC5212*%
X106551885Y-110664124D02*
X106216009Y-111000000D01*
X108864124Y-108351885D02*
X109200000Y-108016009D01*
X109200000Y-108016009D02*
X109535876Y-108351885D01*
X109200000Y-113983991D02*
X108864124Y-113648115D01*
X109535876Y-113648115D02*
X109200000Y-113983991D01*
X111848115Y-111335876D02*
X112183991Y-111000000D01*
X112183991Y-111000000D02*
X111848115Y-110664124D01*
%TO.C,R122*%
X119553641Y-112520000D02*
X119246359Y-112520000D01*
X119553641Y-113280000D02*
X119246359Y-113280000D01*
%TO.C,R125*%
X94932379Y-112220000D02*
X95267621Y-112220000D01*
X94932379Y-112980000D02*
X95267621Y-112980000D01*
%TO.C,R120*%
X110620701Y-116477341D02*
X110403420Y-116260060D01*
X111158102Y-115939940D02*
X110940821Y-115722659D01*
%TD*%
M02*
