M48
; DRILL file {KiCad 8.0.7} date 2024-12-23T17:36:39-0500
; FORMAT={-:-/ absolute / inch / decimal}
; #@! TF.CreationDate,2024-12-23T17:36:39-05:00
; #@! TF.GenerationSoftware,Kicad,Pcbnew,8.0.7
; #@! TF.FileFunction,Plated,1,4,PTH
FMAT,2
INCH
; #@! TA.AperFunction,Plated,PTH,ComponentDrill
T1C0.0079
; #@! TA.AperFunction,Plated,PTH,ViaDrill
T2C0.0157
; #@! TA.AperFunction,Plated,PTH,ComponentDrill
T3C0.0394
; #@! TA.AperFunction,Plated,PTH,ComponentDrill
T4C0.0866
%
G90
G05
T1
X3.6102Y-4.1929
X3.6339Y-4.6614
X3.7795Y-4.2323
X3.9055Y-4.6142
X3.9488Y-4.2293
X4.0394Y-4.6614
X4.063Y-4.6969
X4.1024Y-4.2205
X4.2797Y-4.3506
X4.2797Y-4.3896
X4.2992Y-4.3701
X4.3187Y-4.3506
X4.3187Y-4.3896
X4.4961Y-4.2293
X4.5591Y-4.5079
X4.6102Y-4.4882
X4.6378Y-4.2269
X4.6614Y-4.4882
X4.7795Y-4.2297
X4.8622Y-4.4764
X4.9213Y-4.2316
X4.9567Y-4.3386
T2
X3.3701Y-4.5827
X3.611Y-4.4094
X3.622Y-4.8661
X3.6222Y-4.7308
X3.6224Y-4.0584
X3.6457Y-4.5197
X3.7165Y-3.874
X3.7165Y-3.9764
X3.7232Y-4.7413
X3.7244Y-4.1654
X3.7244Y-4.5295
X3.7323Y-4.6535
X3.7874Y-4.063
X3.8583Y-4.3307
X3.8976Y-4.6772
X3.9134Y-4.874
X3.9636Y-4.2864
X3.9653Y-4.6407
X4.0176Y-4.7205
X4.064Y-4.2426
X4.1114Y-4.702
X4.1575Y-4.7008
X4.2406Y-4.6948
X4.2598Y-4.1417
X4.2992Y-4.2441
X4.3012Y-4.4876
X4.344Y-4.7096
X4.378Y-4.1024
X4.4419Y-4.3396
X4.5433Y-4.4724
X4.6102Y-4.5512
X4.7008Y-4.5118
X4.8504Y-4.5197
X4.8844Y-4.029
X4.9134Y-4.685
X4.9764Y-4.4724
T3
X3.4172Y-3.9268
X3.4172Y-4.0268
X3.4172Y-4.1268
X3.4172Y-4.2268
X3.4172Y-4.3268
X3.4172Y-4.4268
X3.4172Y-4.5268
X3.4172Y-4.6268
X3.4172Y-4.7268
X3.4172Y-4.8268
X3.5172Y-3.9268
X3.5172Y-4.0268
X3.5172Y-4.1268
X3.5172Y-4.2268
X3.5172Y-4.3268
X3.5172Y-4.4268
X3.5172Y-4.5268
X3.5172Y-4.6268
X3.5172Y-4.7268
X3.5172Y-4.8268
X4.0176Y-3.927
X4.0176Y-4.027
X4.0176Y-4.827
X4.1176Y-3.927
X4.1176Y-4.027
X4.1176Y-4.827
X4.2176Y-3.927
X4.2176Y-4.027
X4.2176Y-4.827
X4.3176Y-3.927
X4.3176Y-4.027
X4.3176Y-4.827
X4.4176Y-3.927
X4.4176Y-4.027
X4.4176Y-4.827
X4.5176Y-3.927
X4.5176Y-4.027
X4.5176Y-4.827
X4.6176Y-3.927
X4.6176Y-4.027
X4.6176Y-4.827
X4.7176Y-3.927
X4.7176Y-4.027
X4.7176Y-4.827
X4.817Y-4.027
X4.917Y-4.427
X4.917Y-4.527
X4.917Y-4.627
T4
X3.817Y-3.927
X3.817Y-4.827
X4.917Y-3.927
X4.917Y-4.827
M30
