%TF.GenerationSoftware,KiCad,Pcbnew,8.0.3*%
%TF.CreationDate,2024-06-12T16:29:16-04:00*%
%TF.ProjectId,tac5212_audio_board_single_ended,74616335-3231-4325-9f61-7564696f5f62,rev?*%
%TF.SameCoordinates,Original*%
%TF.FileFunction,Legend,Top*%
%TF.FilePolarity,Positive*%
%FSLAX46Y46*%
G04 Gerber Fmt 4.6, Leading zero omitted, Abs format (unit mm)*
G04 Created by KiCad (PCBNEW 8.0.3) date 2024-06-12 16:29:16*
%MOMM*%
%LPD*%
G01*
G04 APERTURE LIST*
%ADD10C,0.300000*%
%ADD11C,0.250000*%
%ADD12C,0.200000*%
%ADD13C,0.150000*%
%ADD14C,0.120000*%
%ADD15C,0.100000*%
G04 APERTURE END LIST*
D10*
X37906458Y-60321428D02*
X37906458Y-59607142D01*
X39156458Y-59964285D02*
X37906458Y-59964285D01*
X38799315Y-59249999D02*
X38799315Y-58654761D01*
X39156458Y-59369047D02*
X37906458Y-58952380D01*
X37906458Y-58952380D02*
X39156458Y-58535714D01*
X39037411Y-57404761D02*
X39096935Y-57464285D01*
X39096935Y-57464285D02*
X39156458Y-57642856D01*
X39156458Y-57642856D02*
X39156458Y-57761904D01*
X39156458Y-57761904D02*
X39096935Y-57940475D01*
X39096935Y-57940475D02*
X38977887Y-58059523D01*
X38977887Y-58059523D02*
X38858839Y-58119046D01*
X38858839Y-58119046D02*
X38620744Y-58178570D01*
X38620744Y-58178570D02*
X38442173Y-58178570D01*
X38442173Y-58178570D02*
X38204077Y-58119046D01*
X38204077Y-58119046D02*
X38085030Y-58059523D01*
X38085030Y-58059523D02*
X37965982Y-57940475D01*
X37965982Y-57940475D02*
X37906458Y-57761904D01*
X37906458Y-57761904D02*
X37906458Y-57642856D01*
X37906458Y-57642856D02*
X37965982Y-57464285D01*
X37965982Y-57464285D02*
X38025506Y-57404761D01*
X37906458Y-56273808D02*
X37906458Y-56869046D01*
X37906458Y-56869046D02*
X38501696Y-56928570D01*
X38501696Y-56928570D02*
X38442173Y-56869046D01*
X38442173Y-56869046D02*
X38382649Y-56749999D01*
X38382649Y-56749999D02*
X38382649Y-56452380D01*
X38382649Y-56452380D02*
X38442173Y-56333332D01*
X38442173Y-56333332D02*
X38501696Y-56273808D01*
X38501696Y-56273808D02*
X38620744Y-56214285D01*
X38620744Y-56214285D02*
X38918363Y-56214285D01*
X38918363Y-56214285D02*
X39037411Y-56273808D01*
X39037411Y-56273808D02*
X39096935Y-56333332D01*
X39096935Y-56333332D02*
X39156458Y-56452380D01*
X39156458Y-56452380D02*
X39156458Y-56749999D01*
X39156458Y-56749999D02*
X39096935Y-56869046D01*
X39096935Y-56869046D02*
X39037411Y-56928570D01*
X38025506Y-55738094D02*
X37965982Y-55678570D01*
X37965982Y-55678570D02*
X37906458Y-55559523D01*
X37906458Y-55559523D02*
X37906458Y-55261904D01*
X37906458Y-55261904D02*
X37965982Y-55142856D01*
X37965982Y-55142856D02*
X38025506Y-55083332D01*
X38025506Y-55083332D02*
X38144554Y-55023809D01*
X38144554Y-55023809D02*
X38263601Y-55023809D01*
X38263601Y-55023809D02*
X38442173Y-55083332D01*
X38442173Y-55083332D02*
X39156458Y-55797618D01*
X39156458Y-55797618D02*
X39156458Y-55023809D01*
X39156458Y-53833333D02*
X39156458Y-54547618D01*
X39156458Y-54190475D02*
X37906458Y-54190475D01*
X37906458Y-54190475D02*
X38085030Y-54309523D01*
X38085030Y-54309523D02*
X38204077Y-54428571D01*
X38204077Y-54428571D02*
X38263601Y-54547618D01*
X38025506Y-53357142D02*
X37965982Y-53297618D01*
X37965982Y-53297618D02*
X37906458Y-53178571D01*
X37906458Y-53178571D02*
X37906458Y-52880952D01*
X37906458Y-52880952D02*
X37965982Y-52761904D01*
X37965982Y-52761904D02*
X38025506Y-52702380D01*
X38025506Y-52702380D02*
X38144554Y-52642857D01*
X38144554Y-52642857D02*
X38263601Y-52642857D01*
X38263601Y-52642857D02*
X38442173Y-52702380D01*
X38442173Y-52702380D02*
X39156458Y-53416666D01*
X39156458Y-53416666D02*
X39156458Y-52642857D01*
X38799315Y-51214285D02*
X38799315Y-50619047D01*
X39156458Y-51333333D02*
X37906458Y-50916666D01*
X37906458Y-50916666D02*
X39156458Y-50500000D01*
X37906458Y-50083332D02*
X38918363Y-50083332D01*
X38918363Y-50083332D02*
X39037411Y-50023809D01*
X39037411Y-50023809D02*
X39096935Y-49964285D01*
X39096935Y-49964285D02*
X39156458Y-49845237D01*
X39156458Y-49845237D02*
X39156458Y-49607142D01*
X39156458Y-49607142D02*
X39096935Y-49488094D01*
X39096935Y-49488094D02*
X39037411Y-49428571D01*
X39037411Y-49428571D02*
X38918363Y-49369047D01*
X38918363Y-49369047D02*
X37906458Y-49369047D01*
X39156458Y-48773808D02*
X37906458Y-48773808D01*
X37906458Y-48773808D02*
X37906458Y-48476189D01*
X37906458Y-48476189D02*
X37965982Y-48297618D01*
X37965982Y-48297618D02*
X38085030Y-48178570D01*
X38085030Y-48178570D02*
X38204077Y-48119047D01*
X38204077Y-48119047D02*
X38442173Y-48059523D01*
X38442173Y-48059523D02*
X38620744Y-48059523D01*
X38620744Y-48059523D02*
X38858839Y-48119047D01*
X38858839Y-48119047D02*
X38977887Y-48178570D01*
X38977887Y-48178570D02*
X39096935Y-48297618D01*
X39096935Y-48297618D02*
X39156458Y-48476189D01*
X39156458Y-48476189D02*
X39156458Y-48773808D01*
X39156458Y-47523808D02*
X37906458Y-47523808D01*
X37906458Y-46690475D02*
X37906458Y-46452380D01*
X37906458Y-46452380D02*
X37965982Y-46333332D01*
X37965982Y-46333332D02*
X38085030Y-46214285D01*
X38085030Y-46214285D02*
X38323125Y-46154761D01*
X38323125Y-46154761D02*
X38739792Y-46154761D01*
X38739792Y-46154761D02*
X38977887Y-46214285D01*
X38977887Y-46214285D02*
X39096935Y-46333332D01*
X39096935Y-46333332D02*
X39156458Y-46452380D01*
X39156458Y-46452380D02*
X39156458Y-46690475D01*
X39156458Y-46690475D02*
X39096935Y-46809523D01*
X39096935Y-46809523D02*
X38977887Y-46928570D01*
X38977887Y-46928570D02*
X38739792Y-46988094D01*
X38739792Y-46988094D02*
X38323125Y-46988094D01*
X38323125Y-46988094D02*
X38085030Y-46928570D01*
X38085030Y-46928570D02*
X37965982Y-46809523D01*
X37965982Y-46809523D02*
X37906458Y-46690475D01*
X38501696Y-44249999D02*
X38561220Y-44071427D01*
X38561220Y-44071427D02*
X38620744Y-44011904D01*
X38620744Y-44011904D02*
X38739792Y-43952380D01*
X38739792Y-43952380D02*
X38918363Y-43952380D01*
X38918363Y-43952380D02*
X39037411Y-44011904D01*
X39037411Y-44011904D02*
X39096935Y-44071427D01*
X39096935Y-44071427D02*
X39156458Y-44190475D01*
X39156458Y-44190475D02*
X39156458Y-44666665D01*
X39156458Y-44666665D02*
X37906458Y-44666665D01*
X37906458Y-44666665D02*
X37906458Y-44249999D01*
X37906458Y-44249999D02*
X37965982Y-44130951D01*
X37965982Y-44130951D02*
X38025506Y-44071427D01*
X38025506Y-44071427D02*
X38144554Y-44011904D01*
X38144554Y-44011904D02*
X38263601Y-44011904D01*
X38263601Y-44011904D02*
X38382649Y-44071427D01*
X38382649Y-44071427D02*
X38442173Y-44130951D01*
X38442173Y-44130951D02*
X38501696Y-44249999D01*
X38501696Y-44249999D02*
X38501696Y-44666665D01*
X37906458Y-43178570D02*
X37906458Y-42940475D01*
X37906458Y-42940475D02*
X37965982Y-42821427D01*
X37965982Y-42821427D02*
X38085030Y-42702380D01*
X38085030Y-42702380D02*
X38323125Y-42642856D01*
X38323125Y-42642856D02*
X38739792Y-42642856D01*
X38739792Y-42642856D02*
X38977887Y-42702380D01*
X38977887Y-42702380D02*
X39096935Y-42821427D01*
X39096935Y-42821427D02*
X39156458Y-42940475D01*
X39156458Y-42940475D02*
X39156458Y-43178570D01*
X39156458Y-43178570D02*
X39096935Y-43297618D01*
X39096935Y-43297618D02*
X38977887Y-43416665D01*
X38977887Y-43416665D02*
X38739792Y-43476189D01*
X38739792Y-43476189D02*
X38323125Y-43476189D01*
X38323125Y-43476189D02*
X38085030Y-43416665D01*
X38085030Y-43416665D02*
X37965982Y-43297618D01*
X37965982Y-43297618D02*
X37906458Y-43178570D01*
X38799315Y-42166665D02*
X38799315Y-41571427D01*
X39156458Y-42285713D02*
X37906458Y-41869046D01*
X37906458Y-41869046D02*
X39156458Y-41452380D01*
X39156458Y-40321427D02*
X38561220Y-40738093D01*
X39156458Y-41035712D02*
X37906458Y-41035712D01*
X37906458Y-41035712D02*
X37906458Y-40559522D01*
X37906458Y-40559522D02*
X37965982Y-40440474D01*
X37965982Y-40440474D02*
X38025506Y-40380951D01*
X38025506Y-40380951D02*
X38144554Y-40321427D01*
X38144554Y-40321427D02*
X38323125Y-40321427D01*
X38323125Y-40321427D02*
X38442173Y-40380951D01*
X38442173Y-40380951D02*
X38501696Y-40440474D01*
X38501696Y-40440474D02*
X38561220Y-40559522D01*
X38561220Y-40559522D02*
X38561220Y-41035712D01*
X39156458Y-39785712D02*
X37906458Y-39785712D01*
X37906458Y-39785712D02*
X37906458Y-39488093D01*
X37906458Y-39488093D02*
X37965982Y-39309522D01*
X37965982Y-39309522D02*
X38085030Y-39190474D01*
X38085030Y-39190474D02*
X38204077Y-39130951D01*
X38204077Y-39130951D02*
X38442173Y-39071427D01*
X38442173Y-39071427D02*
X38620744Y-39071427D01*
X38620744Y-39071427D02*
X38858839Y-39130951D01*
X38858839Y-39130951D02*
X38977887Y-39190474D01*
X38977887Y-39190474D02*
X39096935Y-39309522D01*
X39096935Y-39309522D02*
X39156458Y-39488093D01*
X39156458Y-39488093D02*
X39156458Y-39785712D01*
X39096935Y-37642855D02*
X39156458Y-37464284D01*
X39156458Y-37464284D02*
X39156458Y-37166665D01*
X39156458Y-37166665D02*
X39096935Y-37047617D01*
X39096935Y-37047617D02*
X39037411Y-36988093D01*
X39037411Y-36988093D02*
X38918363Y-36928570D01*
X38918363Y-36928570D02*
X38799315Y-36928570D01*
X38799315Y-36928570D02*
X38680268Y-36988093D01*
X38680268Y-36988093D02*
X38620744Y-37047617D01*
X38620744Y-37047617D02*
X38561220Y-37166665D01*
X38561220Y-37166665D02*
X38501696Y-37404760D01*
X38501696Y-37404760D02*
X38442173Y-37523808D01*
X38442173Y-37523808D02*
X38382649Y-37583331D01*
X38382649Y-37583331D02*
X38263601Y-37642855D01*
X38263601Y-37642855D02*
X38144554Y-37642855D01*
X38144554Y-37642855D02*
X38025506Y-37583331D01*
X38025506Y-37583331D02*
X37965982Y-37523808D01*
X37965982Y-37523808D02*
X37906458Y-37404760D01*
X37906458Y-37404760D02*
X37906458Y-37107141D01*
X37906458Y-37107141D02*
X37965982Y-36928570D01*
X38501696Y-36392855D02*
X38501696Y-35976189D01*
X39156458Y-35797617D02*
X39156458Y-36392855D01*
X39156458Y-36392855D02*
X37906458Y-36392855D01*
X37906458Y-36392855D02*
X37906458Y-35797617D01*
X40216507Y-58654761D02*
X40156984Y-58773808D01*
X40156984Y-58773808D02*
X40156984Y-59011904D01*
X40156984Y-59011904D02*
X40216507Y-59130951D01*
X40216507Y-59130951D02*
X40335555Y-59249999D01*
X40335555Y-59249999D02*
X40454603Y-59309523D01*
X40454603Y-59309523D02*
X40692698Y-59309523D01*
X40692698Y-59309523D02*
X40811745Y-59249999D01*
X40811745Y-59249999D02*
X40930793Y-59130951D01*
X40930793Y-59130951D02*
X40990317Y-59011904D01*
X40990317Y-59011904D02*
X40990317Y-58773808D01*
X40990317Y-58773808D02*
X40930793Y-58654761D01*
X39740317Y-58892856D02*
X39799841Y-59190475D01*
X39799841Y-59190475D02*
X39978412Y-59488094D01*
X39978412Y-59488094D02*
X40276031Y-59666665D01*
X40276031Y-59666665D02*
X40573650Y-59726189D01*
X40573650Y-59726189D02*
X40871269Y-59666665D01*
X40871269Y-59666665D02*
X41168888Y-59488094D01*
X41168888Y-59488094D02*
X41347460Y-59190475D01*
X41347460Y-59190475D02*
X41406984Y-58892856D01*
X41406984Y-58892856D02*
X41347460Y-58595237D01*
X41347460Y-58595237D02*
X41168888Y-58297618D01*
X41168888Y-58297618D02*
X40871269Y-58119046D01*
X40871269Y-58119046D02*
X40573650Y-58059523D01*
X40573650Y-58059523D02*
X40276031Y-58119046D01*
X40276031Y-58119046D02*
X39978412Y-58297618D01*
X39978412Y-58297618D02*
X39799841Y-58595237D01*
X39799841Y-58595237D02*
X39740317Y-58892856D01*
X40037936Y-56630951D02*
X39978412Y-56571427D01*
X39978412Y-56571427D02*
X39918888Y-56452380D01*
X39918888Y-56452380D02*
X39918888Y-56154761D01*
X39918888Y-56154761D02*
X39978412Y-56035713D01*
X39978412Y-56035713D02*
X40037936Y-55976189D01*
X40037936Y-55976189D02*
X40156984Y-55916666D01*
X40156984Y-55916666D02*
X40276031Y-55916666D01*
X40276031Y-55916666D02*
X40454603Y-55976189D01*
X40454603Y-55976189D02*
X41168888Y-56690475D01*
X41168888Y-56690475D02*
X41168888Y-55916666D01*
X39918888Y-55142856D02*
X39918888Y-55023809D01*
X39918888Y-55023809D02*
X39978412Y-54904761D01*
X39978412Y-54904761D02*
X40037936Y-54845237D01*
X40037936Y-54845237D02*
X40156984Y-54785713D01*
X40156984Y-54785713D02*
X40395079Y-54726190D01*
X40395079Y-54726190D02*
X40692698Y-54726190D01*
X40692698Y-54726190D02*
X40930793Y-54785713D01*
X40930793Y-54785713D02*
X41049841Y-54845237D01*
X41049841Y-54845237D02*
X41109365Y-54904761D01*
X41109365Y-54904761D02*
X41168888Y-55023809D01*
X41168888Y-55023809D02*
X41168888Y-55142856D01*
X41168888Y-55142856D02*
X41109365Y-55261904D01*
X41109365Y-55261904D02*
X41049841Y-55321428D01*
X41049841Y-55321428D02*
X40930793Y-55380951D01*
X40930793Y-55380951D02*
X40692698Y-55440475D01*
X40692698Y-55440475D02*
X40395079Y-55440475D01*
X40395079Y-55440475D02*
X40156984Y-55380951D01*
X40156984Y-55380951D02*
X40037936Y-55321428D01*
X40037936Y-55321428D02*
X39978412Y-55261904D01*
X39978412Y-55261904D02*
X39918888Y-55142856D01*
X40037936Y-54249999D02*
X39978412Y-54190475D01*
X39978412Y-54190475D02*
X39918888Y-54071428D01*
X39918888Y-54071428D02*
X39918888Y-53773809D01*
X39918888Y-53773809D02*
X39978412Y-53654761D01*
X39978412Y-53654761D02*
X40037936Y-53595237D01*
X40037936Y-53595237D02*
X40156984Y-53535714D01*
X40156984Y-53535714D02*
X40276031Y-53535714D01*
X40276031Y-53535714D02*
X40454603Y-53595237D01*
X40454603Y-53595237D02*
X41168888Y-54309523D01*
X41168888Y-54309523D02*
X41168888Y-53535714D01*
X39918888Y-53119047D02*
X39918888Y-52345238D01*
X39918888Y-52345238D02*
X40395079Y-52761904D01*
X40395079Y-52761904D02*
X40395079Y-52583333D01*
X40395079Y-52583333D02*
X40454603Y-52464285D01*
X40454603Y-52464285D02*
X40514126Y-52404761D01*
X40514126Y-52404761D02*
X40633174Y-52345238D01*
X40633174Y-52345238D02*
X40930793Y-52345238D01*
X40930793Y-52345238D02*
X41049841Y-52404761D01*
X41049841Y-52404761D02*
X41109365Y-52464285D01*
X41109365Y-52464285D02*
X41168888Y-52583333D01*
X41168888Y-52583333D02*
X41168888Y-52940476D01*
X41168888Y-52940476D02*
X41109365Y-53059523D01*
X41109365Y-53059523D02*
X41049841Y-53119047D01*
X39918888Y-50500000D02*
X40811745Y-50500000D01*
X40811745Y-50500000D02*
X40990317Y-50559523D01*
X40990317Y-50559523D02*
X41109365Y-50678571D01*
X41109365Y-50678571D02*
X41168888Y-50857142D01*
X41168888Y-50857142D02*
X41168888Y-50976190D01*
X40811745Y-49964285D02*
X40811745Y-49369047D01*
X41168888Y-50083333D02*
X39918888Y-49666666D01*
X39918888Y-49666666D02*
X41168888Y-49250000D01*
X40573650Y-48595237D02*
X41168888Y-48595237D01*
X39918888Y-49011904D02*
X40573650Y-48595237D01*
X40573650Y-48595237D02*
X39918888Y-48178571D01*
X41109365Y-46869046D02*
X41168888Y-46690475D01*
X41168888Y-46690475D02*
X41168888Y-46392856D01*
X41168888Y-46392856D02*
X41109365Y-46273808D01*
X41109365Y-46273808D02*
X41049841Y-46214284D01*
X41049841Y-46214284D02*
X40930793Y-46154761D01*
X40930793Y-46154761D02*
X40811745Y-46154761D01*
X40811745Y-46154761D02*
X40692698Y-46214284D01*
X40692698Y-46214284D02*
X40633174Y-46273808D01*
X40633174Y-46273808D02*
X40573650Y-46392856D01*
X40573650Y-46392856D02*
X40514126Y-46630951D01*
X40514126Y-46630951D02*
X40454603Y-46749999D01*
X40454603Y-46749999D02*
X40395079Y-46809522D01*
X40395079Y-46809522D02*
X40276031Y-46869046D01*
X40276031Y-46869046D02*
X40156984Y-46869046D01*
X40156984Y-46869046D02*
X40037936Y-46809522D01*
X40037936Y-46809522D02*
X39978412Y-46749999D01*
X39978412Y-46749999D02*
X39918888Y-46630951D01*
X39918888Y-46630951D02*
X39918888Y-46333332D01*
X39918888Y-46333332D02*
X39978412Y-46154761D01*
X41168888Y-45619046D02*
X39918888Y-45619046D01*
X40514126Y-45619046D02*
X40514126Y-44904761D01*
X41168888Y-44904761D02*
X39918888Y-44904761D01*
X39918888Y-44071427D02*
X39918888Y-43833332D01*
X39918888Y-43833332D02*
X39978412Y-43714284D01*
X39978412Y-43714284D02*
X40097460Y-43595237D01*
X40097460Y-43595237D02*
X40335555Y-43535713D01*
X40335555Y-43535713D02*
X40752222Y-43535713D01*
X40752222Y-43535713D02*
X40990317Y-43595237D01*
X40990317Y-43595237D02*
X41109365Y-43714284D01*
X41109365Y-43714284D02*
X41168888Y-43833332D01*
X41168888Y-43833332D02*
X41168888Y-44071427D01*
X41168888Y-44071427D02*
X41109365Y-44190475D01*
X41109365Y-44190475D02*
X40990317Y-44309522D01*
X40990317Y-44309522D02*
X40752222Y-44369046D01*
X40752222Y-44369046D02*
X40335555Y-44369046D01*
X40335555Y-44369046D02*
X40097460Y-44309522D01*
X40097460Y-44309522D02*
X39978412Y-44190475D01*
X39978412Y-44190475D02*
X39918888Y-44071427D01*
X40514126Y-42999998D02*
X40514126Y-42583332D01*
X41168888Y-42404760D02*
X41168888Y-42999998D01*
X41168888Y-42999998D02*
X39918888Y-42999998D01*
X39918888Y-42999998D02*
X39918888Y-42404760D01*
X41168888Y-41869046D02*
X39918888Y-41869046D01*
X39918888Y-41869046D02*
X40811745Y-41452380D01*
X40811745Y-41452380D02*
X39918888Y-41035713D01*
X39918888Y-41035713D02*
X41168888Y-41035713D01*
X40811745Y-40499999D02*
X40811745Y-39904761D01*
X41168888Y-40619047D02*
X39918888Y-40202380D01*
X39918888Y-40202380D02*
X41168888Y-39785714D01*
X41168888Y-39369046D02*
X39918888Y-39369046D01*
X41168888Y-38654761D02*
X40454603Y-39190475D01*
X39918888Y-38654761D02*
X40633174Y-39369046D01*
X40514126Y-38119046D02*
X40514126Y-37702380D01*
X41168888Y-37523808D02*
X41168888Y-38119046D01*
X41168888Y-38119046D02*
X39918888Y-38119046D01*
X39918888Y-38119046D02*
X39918888Y-37523808D01*
X41168888Y-36273809D02*
X40573650Y-36690475D01*
X41168888Y-36988094D02*
X39918888Y-36988094D01*
X39918888Y-36988094D02*
X39918888Y-36511904D01*
X39918888Y-36511904D02*
X39978412Y-36392856D01*
X39978412Y-36392856D02*
X40037936Y-36333333D01*
X40037936Y-36333333D02*
X40156984Y-36273809D01*
X40156984Y-36273809D02*
X40335555Y-36273809D01*
X40335555Y-36273809D02*
X40454603Y-36333333D01*
X40454603Y-36333333D02*
X40514126Y-36392856D01*
X40514126Y-36392856D02*
X40573650Y-36511904D01*
X40573650Y-36511904D02*
X40573650Y-36988094D01*
D11*
X111440475Y-35489619D02*
X111440475Y-34489619D01*
X111440475Y-34965809D02*
X112011903Y-34965809D01*
X112011903Y-35489619D02*
X112011903Y-34489619D01*
X112488094Y-35489619D02*
X112488094Y-34489619D01*
X112488094Y-34489619D02*
X112869046Y-34489619D01*
X112869046Y-34489619D02*
X112964284Y-34537238D01*
X112964284Y-34537238D02*
X113011903Y-34584857D01*
X113011903Y-34584857D02*
X113059522Y-34680095D01*
X113059522Y-34680095D02*
X113059522Y-34822952D01*
X113059522Y-34822952D02*
X113011903Y-34918190D01*
X113011903Y-34918190D02*
X112964284Y-34965809D01*
X112964284Y-34965809D02*
X112869046Y-35013428D01*
X112869046Y-35013428D02*
X112488094Y-35013428D01*
X114535713Y-35870571D02*
X114488094Y-35822952D01*
X114488094Y-35822952D02*
X114392856Y-35680095D01*
X114392856Y-35680095D02*
X114345237Y-35584857D01*
X114345237Y-35584857D02*
X114297618Y-35442000D01*
X114297618Y-35442000D02*
X114249999Y-35203904D01*
X114249999Y-35203904D02*
X114249999Y-35013428D01*
X114249999Y-35013428D02*
X114297618Y-34775333D01*
X114297618Y-34775333D02*
X114345237Y-34632476D01*
X114345237Y-34632476D02*
X114392856Y-34537238D01*
X114392856Y-34537238D02*
X114488094Y-34394380D01*
X114488094Y-34394380D02*
X114535713Y-34346761D01*
X114773809Y-34489619D02*
X115345237Y-34489619D01*
X115059523Y-35489619D02*
X115059523Y-34489619D01*
X115869047Y-34489619D02*
X116059523Y-34489619D01*
X116059523Y-34489619D02*
X116154761Y-34537238D01*
X116154761Y-34537238D02*
X116249999Y-34632476D01*
X116249999Y-34632476D02*
X116297618Y-34822952D01*
X116297618Y-34822952D02*
X116297618Y-35156285D01*
X116297618Y-35156285D02*
X116249999Y-35346761D01*
X116249999Y-35346761D02*
X116154761Y-35442000D01*
X116154761Y-35442000D02*
X116059523Y-35489619D01*
X116059523Y-35489619D02*
X115869047Y-35489619D01*
X115869047Y-35489619D02*
X115773809Y-35442000D01*
X115773809Y-35442000D02*
X115678571Y-35346761D01*
X115678571Y-35346761D02*
X115630952Y-35156285D01*
X115630952Y-35156285D02*
X115630952Y-34822952D01*
X115630952Y-34822952D02*
X115678571Y-34632476D01*
X115678571Y-34632476D02*
X115773809Y-34537238D01*
X115773809Y-34537238D02*
X115869047Y-34489619D01*
X116726190Y-35489619D02*
X116726190Y-34489619D01*
X116726190Y-34489619D02*
X117107142Y-34489619D01*
X117107142Y-34489619D02*
X117202380Y-34537238D01*
X117202380Y-34537238D02*
X117249999Y-34584857D01*
X117249999Y-34584857D02*
X117297618Y-34680095D01*
X117297618Y-34680095D02*
X117297618Y-34822952D01*
X117297618Y-34822952D02*
X117249999Y-34918190D01*
X117249999Y-34918190D02*
X117202380Y-34965809D01*
X117202380Y-34965809D02*
X117107142Y-35013428D01*
X117107142Y-35013428D02*
X116726190Y-35013428D01*
X117630952Y-35870571D02*
X117678571Y-35822952D01*
X117678571Y-35822952D02*
X117773809Y-35680095D01*
X117773809Y-35680095D02*
X117821428Y-35584857D01*
X117821428Y-35584857D02*
X117869047Y-35442000D01*
X117869047Y-35442000D02*
X117916666Y-35203904D01*
X117916666Y-35203904D02*
X117916666Y-35013428D01*
X117916666Y-35013428D02*
X117869047Y-34775333D01*
X117869047Y-34775333D02*
X117821428Y-34632476D01*
X117821428Y-34632476D02*
X117773809Y-34537238D01*
X117773809Y-34537238D02*
X117678571Y-34394380D01*
X117678571Y-34394380D02*
X117630952Y-34346761D01*
X119154762Y-35489619D02*
X119154762Y-34489619D01*
X119630952Y-35489619D02*
X119630952Y-34489619D01*
X119630952Y-34489619D02*
X120202380Y-35489619D01*
X120202380Y-35489619D02*
X120202380Y-34489619D01*
X120630952Y-34584857D02*
X120678571Y-34537238D01*
X120678571Y-34537238D02*
X120773809Y-34489619D01*
X120773809Y-34489619D02*
X121011904Y-34489619D01*
X121011904Y-34489619D02*
X121107142Y-34537238D01*
X121107142Y-34537238D02*
X121154761Y-34584857D01*
X121154761Y-34584857D02*
X121202380Y-34680095D01*
X121202380Y-34680095D02*
X121202380Y-34775333D01*
X121202380Y-34775333D02*
X121154761Y-34918190D01*
X121154761Y-34918190D02*
X120583333Y-35489619D01*
X120583333Y-35489619D02*
X121202380Y-35489619D01*
X122678571Y-35870571D02*
X122630952Y-35822952D01*
X122630952Y-35822952D02*
X122535714Y-35680095D01*
X122535714Y-35680095D02*
X122488095Y-35584857D01*
X122488095Y-35584857D02*
X122440476Y-35442000D01*
X122440476Y-35442000D02*
X122392857Y-35203904D01*
X122392857Y-35203904D02*
X122392857Y-35013428D01*
X122392857Y-35013428D02*
X122440476Y-34775333D01*
X122440476Y-34775333D02*
X122488095Y-34632476D01*
X122488095Y-34632476D02*
X122535714Y-34537238D01*
X122535714Y-34537238D02*
X122630952Y-34394380D01*
X122630952Y-34394380D02*
X122678571Y-34346761D01*
X123392857Y-34965809D02*
X123535714Y-35013428D01*
X123535714Y-35013428D02*
X123583333Y-35061047D01*
X123583333Y-35061047D02*
X123630952Y-35156285D01*
X123630952Y-35156285D02*
X123630952Y-35299142D01*
X123630952Y-35299142D02*
X123583333Y-35394380D01*
X123583333Y-35394380D02*
X123535714Y-35442000D01*
X123535714Y-35442000D02*
X123440476Y-35489619D01*
X123440476Y-35489619D02*
X123059524Y-35489619D01*
X123059524Y-35489619D02*
X123059524Y-34489619D01*
X123059524Y-34489619D02*
X123392857Y-34489619D01*
X123392857Y-34489619D02*
X123488095Y-34537238D01*
X123488095Y-34537238D02*
X123535714Y-34584857D01*
X123535714Y-34584857D02*
X123583333Y-34680095D01*
X123583333Y-34680095D02*
X123583333Y-34775333D01*
X123583333Y-34775333D02*
X123535714Y-34870571D01*
X123535714Y-34870571D02*
X123488095Y-34918190D01*
X123488095Y-34918190D02*
X123392857Y-34965809D01*
X123392857Y-34965809D02*
X123059524Y-34965809D01*
X124250000Y-34489619D02*
X124440476Y-34489619D01*
X124440476Y-34489619D02*
X124535714Y-34537238D01*
X124535714Y-34537238D02*
X124630952Y-34632476D01*
X124630952Y-34632476D02*
X124678571Y-34822952D01*
X124678571Y-34822952D02*
X124678571Y-35156285D01*
X124678571Y-35156285D02*
X124630952Y-35346761D01*
X124630952Y-35346761D02*
X124535714Y-35442000D01*
X124535714Y-35442000D02*
X124440476Y-35489619D01*
X124440476Y-35489619D02*
X124250000Y-35489619D01*
X124250000Y-35489619D02*
X124154762Y-35442000D01*
X124154762Y-35442000D02*
X124059524Y-35346761D01*
X124059524Y-35346761D02*
X124011905Y-35156285D01*
X124011905Y-35156285D02*
X124011905Y-34822952D01*
X124011905Y-34822952D02*
X124059524Y-34632476D01*
X124059524Y-34632476D02*
X124154762Y-34537238D01*
X124154762Y-34537238D02*
X124250000Y-34489619D01*
X124964286Y-34489619D02*
X125535714Y-34489619D01*
X125250000Y-35489619D02*
X125250000Y-34489619D01*
X125773810Y-35870571D02*
X125821429Y-35822952D01*
X125821429Y-35822952D02*
X125916667Y-35680095D01*
X125916667Y-35680095D02*
X125964286Y-35584857D01*
X125964286Y-35584857D02*
X126011905Y-35442000D01*
X126011905Y-35442000D02*
X126059524Y-35203904D01*
X126059524Y-35203904D02*
X126059524Y-35013428D01*
X126059524Y-35013428D02*
X126011905Y-34775333D01*
X126011905Y-34775333D02*
X125964286Y-34632476D01*
X125964286Y-34632476D02*
X125916667Y-34537238D01*
X125916667Y-34537238D02*
X125821429Y-34394380D01*
X125821429Y-34394380D02*
X125773810Y-34346761D01*
X100650000Y-35629619D02*
X100650000Y-34629619D01*
X101126190Y-35629619D02*
X101126190Y-34629619D01*
X101126190Y-34629619D02*
X101697618Y-35629619D01*
X101697618Y-35629619D02*
X101697618Y-34629619D01*
X102697618Y-35629619D02*
X102126190Y-35629619D01*
X102411904Y-35629619D02*
X102411904Y-34629619D01*
X102411904Y-34629619D02*
X102316666Y-34772476D01*
X102316666Y-34772476D02*
X102221428Y-34867714D01*
X102221428Y-34867714D02*
X102126190Y-34915333D01*
X84788571Y-35699619D02*
X84788571Y-34699619D01*
X84788571Y-35175809D02*
X85359999Y-35175809D01*
X85359999Y-35699619D02*
X85359999Y-34699619D01*
X85836190Y-35699619D02*
X85836190Y-34699619D01*
X85836190Y-34699619D02*
X86217142Y-34699619D01*
X86217142Y-34699619D02*
X86312380Y-34747238D01*
X86312380Y-34747238D02*
X86359999Y-34794857D01*
X86359999Y-34794857D02*
X86407618Y-34890095D01*
X86407618Y-34890095D02*
X86407618Y-35032952D01*
X86407618Y-35032952D02*
X86359999Y-35128190D01*
X86359999Y-35128190D02*
X86312380Y-35175809D01*
X86312380Y-35175809D02*
X86217142Y-35223428D01*
X86217142Y-35223428D02*
X85836190Y-35223428D01*
X86788571Y-34794857D02*
X86836190Y-34747238D01*
X86836190Y-34747238D02*
X86931428Y-34699619D01*
X86931428Y-34699619D02*
X87169523Y-34699619D01*
X87169523Y-34699619D02*
X87264761Y-34747238D01*
X87264761Y-34747238D02*
X87312380Y-34794857D01*
X87312380Y-34794857D02*
X87359999Y-34890095D01*
X87359999Y-34890095D02*
X87359999Y-34985333D01*
X87359999Y-34985333D02*
X87312380Y-35128190D01*
X87312380Y-35128190D02*
X86740952Y-35699619D01*
X86740952Y-35699619D02*
X87359999Y-35699619D01*
X88740952Y-34699619D02*
X88931428Y-34699619D01*
X88931428Y-34699619D02*
X89026666Y-34747238D01*
X89026666Y-34747238D02*
X89121904Y-34842476D01*
X89121904Y-34842476D02*
X89169523Y-35032952D01*
X89169523Y-35032952D02*
X89169523Y-35366285D01*
X89169523Y-35366285D02*
X89121904Y-35556761D01*
X89121904Y-35556761D02*
X89026666Y-35652000D01*
X89026666Y-35652000D02*
X88931428Y-35699619D01*
X88931428Y-35699619D02*
X88740952Y-35699619D01*
X88740952Y-35699619D02*
X88645714Y-35652000D01*
X88645714Y-35652000D02*
X88550476Y-35556761D01*
X88550476Y-35556761D02*
X88502857Y-35366285D01*
X88502857Y-35366285D02*
X88502857Y-35032952D01*
X88502857Y-35032952D02*
X88550476Y-34842476D01*
X88550476Y-34842476D02*
X88645714Y-34747238D01*
X88645714Y-34747238D02*
X88740952Y-34699619D01*
X89598095Y-34699619D02*
X89598095Y-35509142D01*
X89598095Y-35509142D02*
X89645714Y-35604380D01*
X89645714Y-35604380D02*
X89693333Y-35652000D01*
X89693333Y-35652000D02*
X89788571Y-35699619D01*
X89788571Y-35699619D02*
X89979047Y-35699619D01*
X89979047Y-35699619D02*
X90074285Y-35652000D01*
X90074285Y-35652000D02*
X90121904Y-35604380D01*
X90121904Y-35604380D02*
X90169523Y-35509142D01*
X90169523Y-35509142D02*
X90169523Y-34699619D01*
X90502857Y-34699619D02*
X91074285Y-34699619D01*
X90788571Y-35699619D02*
X90788571Y-34699619D01*
D12*
X124027695Y-108957141D02*
X124027695Y-108499998D01*
X124827695Y-108728570D02*
X124027695Y-108728570D01*
X124827695Y-108233331D02*
X124027695Y-108233331D01*
X124827695Y-107852379D02*
X124027695Y-107852379D01*
X124027695Y-107852379D02*
X124827695Y-107395236D01*
X124827695Y-107395236D02*
X124027695Y-107395236D01*
X124446742Y-106861903D02*
X124827695Y-106861903D01*
X124027695Y-107128570D02*
X124446742Y-106861903D01*
X124446742Y-106861903D02*
X124027695Y-106595237D01*
X124599123Y-105757142D02*
X124599123Y-105376189D01*
X124827695Y-105833332D02*
X124027695Y-105566665D01*
X124027695Y-105566665D02*
X124827695Y-105299999D01*
X124027695Y-105033332D02*
X124675314Y-105033332D01*
X124675314Y-105033332D02*
X124751504Y-104995237D01*
X124751504Y-104995237D02*
X124789600Y-104957142D01*
X124789600Y-104957142D02*
X124827695Y-104880951D01*
X124827695Y-104880951D02*
X124827695Y-104728570D01*
X124827695Y-104728570D02*
X124789600Y-104652380D01*
X124789600Y-104652380D02*
X124751504Y-104614285D01*
X124751504Y-104614285D02*
X124675314Y-104576189D01*
X124675314Y-104576189D02*
X124027695Y-104576189D01*
X124827695Y-104195237D02*
X124027695Y-104195237D01*
X124027695Y-104195237D02*
X124027695Y-104004761D01*
X124027695Y-104004761D02*
X124065790Y-103890475D01*
X124065790Y-103890475D02*
X124141980Y-103814285D01*
X124141980Y-103814285D02*
X124218171Y-103776190D01*
X124218171Y-103776190D02*
X124370552Y-103738094D01*
X124370552Y-103738094D02*
X124484838Y-103738094D01*
X124484838Y-103738094D02*
X124637219Y-103776190D01*
X124637219Y-103776190D02*
X124713409Y-103814285D01*
X124713409Y-103814285D02*
X124789600Y-103890475D01*
X124789600Y-103890475D02*
X124827695Y-104004761D01*
X124827695Y-104004761D02*
X124827695Y-104195237D01*
X124827695Y-103395237D02*
X124027695Y-103395237D01*
X124027695Y-102861904D02*
X124027695Y-102709523D01*
X124027695Y-102709523D02*
X124065790Y-102633333D01*
X124065790Y-102633333D02*
X124141980Y-102557142D01*
X124141980Y-102557142D02*
X124294361Y-102519047D01*
X124294361Y-102519047D02*
X124561028Y-102519047D01*
X124561028Y-102519047D02*
X124713409Y-102557142D01*
X124713409Y-102557142D02*
X124789600Y-102633333D01*
X124789600Y-102633333D02*
X124827695Y-102709523D01*
X124827695Y-102709523D02*
X124827695Y-102861904D01*
X124827695Y-102861904D02*
X124789600Y-102938095D01*
X124789600Y-102938095D02*
X124713409Y-103014285D01*
X124713409Y-103014285D02*
X124561028Y-103052381D01*
X124561028Y-103052381D02*
X124294361Y-103052381D01*
X124294361Y-103052381D02*
X124141980Y-103014285D01*
X124141980Y-103014285D02*
X124065790Y-102938095D01*
X124065790Y-102938095D02*
X124027695Y-102861904D01*
X126039459Y-108290475D02*
X126077555Y-108328571D01*
X126077555Y-108328571D02*
X126115650Y-108442856D01*
X126115650Y-108442856D02*
X126115650Y-108519047D01*
X126115650Y-108519047D02*
X126077555Y-108633333D01*
X126077555Y-108633333D02*
X126001364Y-108709523D01*
X126001364Y-108709523D02*
X125925174Y-108747618D01*
X125925174Y-108747618D02*
X125772793Y-108785714D01*
X125772793Y-108785714D02*
X125658507Y-108785714D01*
X125658507Y-108785714D02*
X125506126Y-108747618D01*
X125506126Y-108747618D02*
X125429935Y-108709523D01*
X125429935Y-108709523D02*
X125353745Y-108633333D01*
X125353745Y-108633333D02*
X125315650Y-108519047D01*
X125315650Y-108519047D02*
X125315650Y-108442856D01*
X125315650Y-108442856D02*
X125353745Y-108328571D01*
X125353745Y-108328571D02*
X125391840Y-108290475D01*
X125315650Y-107795237D02*
X125315650Y-107642856D01*
X125315650Y-107642856D02*
X125353745Y-107566666D01*
X125353745Y-107566666D02*
X125429935Y-107490475D01*
X125429935Y-107490475D02*
X125582316Y-107452380D01*
X125582316Y-107452380D02*
X125848983Y-107452380D01*
X125848983Y-107452380D02*
X126001364Y-107490475D01*
X126001364Y-107490475D02*
X126077555Y-107566666D01*
X126077555Y-107566666D02*
X126115650Y-107642856D01*
X126115650Y-107642856D02*
X126115650Y-107795237D01*
X126115650Y-107795237D02*
X126077555Y-107871428D01*
X126077555Y-107871428D02*
X126001364Y-107947618D01*
X126001364Y-107947618D02*
X125848983Y-107985714D01*
X125848983Y-107985714D02*
X125582316Y-107985714D01*
X125582316Y-107985714D02*
X125429935Y-107947618D01*
X125429935Y-107947618D02*
X125353745Y-107871428D01*
X125353745Y-107871428D02*
X125315650Y-107795237D01*
X126115650Y-107109523D02*
X125315650Y-107109523D01*
X125315650Y-107109523D02*
X125315650Y-106919047D01*
X125315650Y-106919047D02*
X125353745Y-106804761D01*
X125353745Y-106804761D02*
X125429935Y-106728571D01*
X125429935Y-106728571D02*
X125506126Y-106690476D01*
X125506126Y-106690476D02*
X125658507Y-106652380D01*
X125658507Y-106652380D02*
X125772793Y-106652380D01*
X125772793Y-106652380D02*
X125925174Y-106690476D01*
X125925174Y-106690476D02*
X126001364Y-106728571D01*
X126001364Y-106728571D02*
X126077555Y-106804761D01*
X126077555Y-106804761D02*
X126115650Y-106919047D01*
X126115650Y-106919047D02*
X126115650Y-107109523D01*
X125696602Y-106309523D02*
X125696602Y-106042857D01*
X126115650Y-105928571D02*
X126115650Y-106309523D01*
X126115650Y-106309523D02*
X125315650Y-106309523D01*
X125315650Y-106309523D02*
X125315650Y-105928571D01*
X126039459Y-105128570D02*
X126077555Y-105166666D01*
X126077555Y-105166666D02*
X126115650Y-105280951D01*
X126115650Y-105280951D02*
X126115650Y-105357142D01*
X126115650Y-105357142D02*
X126077555Y-105471428D01*
X126077555Y-105471428D02*
X126001364Y-105547618D01*
X126001364Y-105547618D02*
X125925174Y-105585713D01*
X125925174Y-105585713D02*
X125772793Y-105623809D01*
X125772793Y-105623809D02*
X125658507Y-105623809D01*
X125658507Y-105623809D02*
X125506126Y-105585713D01*
X125506126Y-105585713D02*
X125429935Y-105547618D01*
X125429935Y-105547618D02*
X125353745Y-105471428D01*
X125353745Y-105471428D02*
X125315650Y-105357142D01*
X125315650Y-105357142D02*
X125315650Y-105280951D01*
X125315650Y-105280951D02*
X125353745Y-105166666D01*
X125353745Y-105166666D02*
X125391840Y-105128570D01*
X126115650Y-103757142D02*
X126115650Y-104214285D01*
X126115650Y-103985713D02*
X125315650Y-103985713D01*
X125315650Y-103985713D02*
X125429935Y-104061904D01*
X125429935Y-104061904D02*
X125506126Y-104138094D01*
X125506126Y-104138094D02*
X125544221Y-104214285D01*
X126039459Y-103414284D02*
X126077555Y-103376189D01*
X126077555Y-103376189D02*
X126115650Y-103414284D01*
X126115650Y-103414284D02*
X126077555Y-103452380D01*
X126077555Y-103452380D02*
X126039459Y-103414284D01*
X126039459Y-103414284D02*
X126115650Y-103414284D01*
X125315650Y-102880951D02*
X125315650Y-102804761D01*
X125315650Y-102804761D02*
X125353745Y-102728570D01*
X125353745Y-102728570D02*
X125391840Y-102690475D01*
X125391840Y-102690475D02*
X125468031Y-102652380D01*
X125468031Y-102652380D02*
X125620412Y-102614285D01*
X125620412Y-102614285D02*
X125810888Y-102614285D01*
X125810888Y-102614285D02*
X125963269Y-102652380D01*
X125963269Y-102652380D02*
X126039459Y-102690475D01*
X126039459Y-102690475D02*
X126077555Y-102728570D01*
X126077555Y-102728570D02*
X126115650Y-102804761D01*
X126115650Y-102804761D02*
X126115650Y-102880951D01*
X126115650Y-102880951D02*
X126077555Y-102957142D01*
X126077555Y-102957142D02*
X126039459Y-102995237D01*
X126039459Y-102995237D02*
X125963269Y-103033332D01*
X125963269Y-103033332D02*
X125810888Y-103071428D01*
X125810888Y-103071428D02*
X125620412Y-103071428D01*
X125620412Y-103071428D02*
X125468031Y-103033332D01*
X125468031Y-103033332D02*
X125391840Y-102995237D01*
X125391840Y-102995237D02*
X125353745Y-102957142D01*
X125353745Y-102957142D02*
X125315650Y-102880951D01*
D13*
X114207319Y-120571428D02*
X114207319Y-120380952D01*
X114207319Y-120380952D02*
X114254938Y-120285714D01*
X114254938Y-120285714D02*
X114350176Y-120190476D01*
X114350176Y-120190476D02*
X114540652Y-120142857D01*
X114540652Y-120142857D02*
X114873985Y-120142857D01*
X114873985Y-120142857D02*
X115064461Y-120190476D01*
X115064461Y-120190476D02*
X115159700Y-120285714D01*
X115159700Y-120285714D02*
X115207319Y-120380952D01*
X115207319Y-120380952D02*
X115207319Y-120571428D01*
X115207319Y-120571428D02*
X115159700Y-120666666D01*
X115159700Y-120666666D02*
X115064461Y-120761904D01*
X115064461Y-120761904D02*
X114873985Y-120809523D01*
X114873985Y-120809523D02*
X114540652Y-120809523D01*
X114540652Y-120809523D02*
X114350176Y-120761904D01*
X114350176Y-120761904D02*
X114254938Y-120666666D01*
X114254938Y-120666666D02*
X114207319Y-120571428D01*
X115207319Y-119190476D02*
X115207319Y-119761904D01*
X115207319Y-119476190D02*
X114207319Y-119476190D01*
X114207319Y-119476190D02*
X114350176Y-119571428D01*
X114350176Y-119571428D02*
X114445414Y-119666666D01*
X114445414Y-119666666D02*
X114493033Y-119761904D01*
X119442557Y-105304761D02*
X119394938Y-105257142D01*
X119394938Y-105257142D02*
X119347319Y-105161904D01*
X119347319Y-105161904D02*
X119347319Y-104923809D01*
X119347319Y-104923809D02*
X119394938Y-104828571D01*
X119394938Y-104828571D02*
X119442557Y-104780952D01*
X119442557Y-104780952D02*
X119537795Y-104733333D01*
X119537795Y-104733333D02*
X119633033Y-104733333D01*
X119633033Y-104733333D02*
X119775890Y-104780952D01*
X119775890Y-104780952D02*
X120347319Y-105352380D01*
X120347319Y-105352380D02*
X120347319Y-104733333D01*
X119966366Y-104304761D02*
X119966366Y-103542857D01*
X109282557Y-105209761D02*
X109234938Y-105162142D01*
X109234938Y-105162142D02*
X109187319Y-105066904D01*
X109187319Y-105066904D02*
X109187319Y-104828809D01*
X109187319Y-104828809D02*
X109234938Y-104733571D01*
X109234938Y-104733571D02*
X109282557Y-104685952D01*
X109282557Y-104685952D02*
X109377795Y-104638333D01*
X109377795Y-104638333D02*
X109473033Y-104638333D01*
X109473033Y-104638333D02*
X109615890Y-104685952D01*
X109615890Y-104685952D02*
X110187319Y-105257380D01*
X110187319Y-105257380D02*
X110187319Y-104638333D01*
X109806366Y-104209761D02*
X109806366Y-103447857D01*
X102459700Y-120785713D02*
X102507319Y-120642856D01*
X102507319Y-120642856D02*
X102507319Y-120404761D01*
X102507319Y-120404761D02*
X102459700Y-120309523D01*
X102459700Y-120309523D02*
X102412080Y-120261904D01*
X102412080Y-120261904D02*
X102316842Y-120214285D01*
X102316842Y-120214285D02*
X102221604Y-120214285D01*
X102221604Y-120214285D02*
X102126366Y-120261904D01*
X102126366Y-120261904D02*
X102078747Y-120309523D01*
X102078747Y-120309523D02*
X102031128Y-120404761D01*
X102031128Y-120404761D02*
X101983509Y-120595237D01*
X101983509Y-120595237D02*
X101935890Y-120690475D01*
X101935890Y-120690475D02*
X101888271Y-120738094D01*
X101888271Y-120738094D02*
X101793033Y-120785713D01*
X101793033Y-120785713D02*
X101697795Y-120785713D01*
X101697795Y-120785713D02*
X101602557Y-120738094D01*
X101602557Y-120738094D02*
X101554938Y-120690475D01*
X101554938Y-120690475D02*
X101507319Y-120595237D01*
X101507319Y-120595237D02*
X101507319Y-120357142D01*
X101507319Y-120357142D02*
X101554938Y-120214285D01*
X102412080Y-119214285D02*
X102459700Y-119261904D01*
X102459700Y-119261904D02*
X102507319Y-119404761D01*
X102507319Y-119404761D02*
X102507319Y-119499999D01*
X102507319Y-119499999D02*
X102459700Y-119642856D01*
X102459700Y-119642856D02*
X102364461Y-119738094D01*
X102364461Y-119738094D02*
X102269223Y-119785713D01*
X102269223Y-119785713D02*
X102078747Y-119833332D01*
X102078747Y-119833332D02*
X101935890Y-119833332D01*
X101935890Y-119833332D02*
X101745414Y-119785713D01*
X101745414Y-119785713D02*
X101650176Y-119738094D01*
X101650176Y-119738094D02*
X101554938Y-119642856D01*
X101554938Y-119642856D02*
X101507319Y-119499999D01*
X101507319Y-119499999D02*
X101507319Y-119404761D01*
X101507319Y-119404761D02*
X101554938Y-119261904D01*
X101554938Y-119261904D02*
X101602557Y-119214285D01*
X93192023Y-123059819D02*
X92858690Y-122583628D01*
X92620595Y-123059819D02*
X92620595Y-122059819D01*
X92620595Y-122059819D02*
X93001547Y-122059819D01*
X93001547Y-122059819D02*
X93096785Y-122107438D01*
X93096785Y-122107438D02*
X93144404Y-122155057D01*
X93144404Y-122155057D02*
X93192023Y-122250295D01*
X93192023Y-122250295D02*
X93192023Y-122393152D01*
X93192023Y-122393152D02*
X93144404Y-122488390D01*
X93144404Y-122488390D02*
X93096785Y-122536009D01*
X93096785Y-122536009D02*
X93001547Y-122583628D01*
X93001547Y-122583628D02*
X92620595Y-122583628D01*
X105107319Y-104733333D02*
X105107319Y-105304761D01*
X105107319Y-105019047D02*
X104107319Y-105019047D01*
X104107319Y-105019047D02*
X104250176Y-105114285D01*
X104250176Y-105114285D02*
X104345414Y-105209523D01*
X104345414Y-105209523D02*
X104393033Y-105304761D01*
X104726366Y-104304761D02*
X104726366Y-103542857D01*
X125884795Y-115614523D02*
X125884795Y-115119285D01*
X125884795Y-115119285D02*
X126189557Y-115385951D01*
X126189557Y-115385951D02*
X126189557Y-115271666D01*
X126189557Y-115271666D02*
X126227652Y-115195475D01*
X126227652Y-115195475D02*
X126265747Y-115157380D01*
X126265747Y-115157380D02*
X126341938Y-115119285D01*
X126341938Y-115119285D02*
X126532414Y-115119285D01*
X126532414Y-115119285D02*
X126608604Y-115157380D01*
X126608604Y-115157380D02*
X126646700Y-115195475D01*
X126646700Y-115195475D02*
X126684795Y-115271666D01*
X126684795Y-115271666D02*
X126684795Y-115500237D01*
X126684795Y-115500237D02*
X126646700Y-115576428D01*
X126646700Y-115576428D02*
X126608604Y-115614523D01*
X125884795Y-114890713D02*
X126684795Y-114624046D01*
X126684795Y-114624046D02*
X125884795Y-114357380D01*
X115267319Y-104733333D02*
X115267319Y-105304761D01*
X115267319Y-105019047D02*
X114267319Y-105019047D01*
X114267319Y-105019047D02*
X114410176Y-105114285D01*
X114410176Y-105114285D02*
X114505414Y-105209523D01*
X114505414Y-105209523D02*
X114553033Y-105304761D01*
X114886366Y-104304761D02*
X114886366Y-103542857D01*
X125907890Y-112270476D02*
X125869795Y-112346666D01*
X125869795Y-112346666D02*
X125869795Y-112460952D01*
X125869795Y-112460952D02*
X125907890Y-112575238D01*
X125907890Y-112575238D02*
X125984080Y-112651428D01*
X125984080Y-112651428D02*
X126060271Y-112689523D01*
X126060271Y-112689523D02*
X126212652Y-112727619D01*
X126212652Y-112727619D02*
X126326938Y-112727619D01*
X126326938Y-112727619D02*
X126479319Y-112689523D01*
X126479319Y-112689523D02*
X126555509Y-112651428D01*
X126555509Y-112651428D02*
X126631700Y-112575238D01*
X126631700Y-112575238D02*
X126669795Y-112460952D01*
X126669795Y-112460952D02*
X126669795Y-112384761D01*
X126669795Y-112384761D02*
X126631700Y-112270476D01*
X126631700Y-112270476D02*
X126593604Y-112232380D01*
X126593604Y-112232380D02*
X126326938Y-112232380D01*
X126326938Y-112232380D02*
X126326938Y-112384761D01*
G36*
X105271603Y-105966770D02*
G01*
X105345395Y-106039152D01*
X105386088Y-106197323D01*
X105387391Y-106512077D01*
X105347277Y-106677325D01*
X105276810Y-106749166D01*
X105207364Y-106784928D01*
X105052195Y-106786018D01*
X104983873Y-106752867D01*
X104910080Y-106680485D01*
X104869387Y-106522313D01*
X104868084Y-106207559D01*
X104908198Y-106042311D01*
X104978666Y-105970470D01*
X105048111Y-105934709D01*
X105203280Y-105933619D01*
X105271603Y-105966770D01*
G37*
G36*
X107550503Y-107045930D02*
G01*
X104608294Y-107045930D01*
X104608294Y-106193152D01*
X104719405Y-106193152D01*
X104720765Y-106521588D01*
X104719494Y-106530131D01*
X104720838Y-106539223D01*
X104720846Y-106541117D01*
X104721268Y-106542138D01*
X104721644Y-106544675D01*
X104768465Y-106726666D01*
X104768465Y-106731592D01*
X104771809Y-106739667D01*
X104774210Y-106748997D01*
X104777529Y-106753476D01*
X104779663Y-106758628D01*
X104788991Y-106769994D01*
X104884758Y-106863932D01*
X104891278Y-106871450D01*
X104894471Y-106873460D01*
X104895594Y-106874561D01*
X104897426Y-106875319D01*
X104903721Y-106879282D01*
X104989610Y-106920957D01*
X104990832Y-106922179D01*
X104999691Y-106925848D01*
X105012690Y-106932156D01*
X105015379Y-106932347D01*
X105017868Y-106933378D01*
X105032500Y-106934819D01*
X105211587Y-106933560D01*
X105213595Y-106934230D01*
X105224267Y-106933471D01*
X105237608Y-106933378D01*
X105240097Y-106932346D01*
X105242785Y-106932156D01*
X105256517Y-106926901D01*
X105351071Y-106878209D01*
X105359882Y-106874560D01*
X105362784Y-106872177D01*
X105364198Y-106871450D01*
X105365497Y-106869951D01*
X105371247Y-106865233D01*
X105459842Y-106774909D01*
X105463844Y-106772509D01*
X105468929Y-106765645D01*
X105475813Y-106758628D01*
X105477946Y-106753476D01*
X105481266Y-106748997D01*
X105486213Y-106735151D01*
X105531453Y-106548785D01*
X105534630Y-106541117D01*
X105535527Y-106532002D01*
X105535982Y-106530131D01*
X105535819Y-106529038D01*
X105536071Y-106526485D01*
X105534710Y-106198048D01*
X105535982Y-106189506D01*
X105534637Y-106180413D01*
X105534630Y-106178520D01*
X105534207Y-106177498D01*
X105533832Y-106174962D01*
X105487011Y-105992970D01*
X105487011Y-105988045D01*
X105483665Y-105979968D01*
X105481266Y-105970640D01*
X105477947Y-105966161D01*
X105475813Y-105961008D01*
X105466485Y-105949643D01*
X105374910Y-105859819D01*
X105814643Y-105859819D01*
X105816037Y-106657543D01*
X105815232Y-106659961D01*
X105816062Y-106671648D01*
X105816084Y-106683974D01*
X105817115Y-106686463D01*
X105817306Y-106689151D01*
X105822561Y-106702883D01*
X105871251Y-106797435D01*
X105874901Y-106806247D01*
X105877284Y-106809151D01*
X105878012Y-106810564D01*
X105879510Y-106811863D01*
X105884228Y-106817612D01*
X105933263Y-106864953D01*
X105938897Y-106871450D01*
X105942042Y-106873429D01*
X105943213Y-106874560D01*
X105945040Y-106875317D01*
X105951340Y-106879282D01*
X106037229Y-106920957D01*
X106038451Y-106922179D01*
X106047310Y-106925848D01*
X106060309Y-106932156D01*
X106062998Y-106932347D01*
X106065487Y-106933378D01*
X106080119Y-106934819D01*
X106259206Y-106933560D01*
X106261214Y-106934230D01*
X106271886Y-106933471D01*
X106285227Y-106933378D01*
X106287716Y-106932346D01*
X106290404Y-106932156D01*
X106304136Y-106926901D01*
X106398690Y-106878209D01*
X106407501Y-106874560D01*
X106410403Y-106872177D01*
X106411817Y-106871450D01*
X106413117Y-106869950D01*
X106418867Y-106865232D01*
X106466208Y-106816195D01*
X106472702Y-106810564D01*
X106474681Y-106807418D01*
X106475813Y-106806247D01*
X106476570Y-106804417D01*
X106480534Y-106798121D01*
X106522209Y-106712231D01*
X106523431Y-106711010D01*
X106527100Y-106702150D01*
X106533408Y-106689152D01*
X106533599Y-106686462D01*
X106534630Y-106683974D01*
X106536071Y-106669342D01*
X106534630Y-105845187D01*
X106720846Y-105845187D01*
X106720846Y-105874451D01*
X106732045Y-105901487D01*
X106752737Y-105922179D01*
X106779773Y-105933378D01*
X106794405Y-105934819D01*
X107005224Y-105934300D01*
X107006560Y-106874451D01*
X107017759Y-106901487D01*
X107038451Y-106922179D01*
X107065487Y-106933378D01*
X107094751Y-106933378D01*
X107121787Y-106922179D01*
X107142479Y-106901487D01*
X107153678Y-106874451D01*
X107155119Y-106859819D01*
X107153804Y-105933935D01*
X107380465Y-105933378D01*
X107407501Y-105922179D01*
X107428193Y-105901487D01*
X107439392Y-105874451D01*
X107439392Y-105845187D01*
X107428193Y-105818151D01*
X107407501Y-105797459D01*
X107380465Y-105786260D01*
X107365833Y-105784819D01*
X106779773Y-105786260D01*
X106752737Y-105797459D01*
X106732045Y-105818151D01*
X106720846Y-105845187D01*
X106534630Y-105845187D01*
X106523431Y-105818151D01*
X106502739Y-105797459D01*
X106475703Y-105786260D01*
X106446439Y-105786260D01*
X106419403Y-105797459D01*
X106398711Y-105818151D01*
X106387512Y-105845187D01*
X106386071Y-105859819D01*
X106387451Y-106649274D01*
X106354019Y-106718175D01*
X106323773Y-106749504D01*
X106254983Y-106784928D01*
X106099814Y-106786018D01*
X106031285Y-106752767D01*
X105999958Y-106722521D01*
X105964615Y-106653890D01*
X105963202Y-105845187D01*
X105952003Y-105818151D01*
X105931311Y-105797459D01*
X105904275Y-105786260D01*
X105875011Y-105786260D01*
X105847975Y-105797459D01*
X105827283Y-105818151D01*
X105816084Y-105845187D01*
X105814643Y-105859819D01*
X105374910Y-105859819D01*
X105370722Y-105855711D01*
X105364198Y-105848188D01*
X105361001Y-105846175D01*
X105359882Y-105845078D01*
X105358054Y-105844320D01*
X105351755Y-105840356D01*
X105265866Y-105798681D01*
X105264644Y-105797459D01*
X105255778Y-105793786D01*
X105242785Y-105787482D01*
X105240097Y-105787291D01*
X105237608Y-105786260D01*
X105222976Y-105784819D01*
X105043887Y-105786077D01*
X105041880Y-105785408D01*
X105031207Y-105786166D01*
X105017868Y-105786260D01*
X105015379Y-105787290D01*
X105012690Y-105787482D01*
X104998959Y-105792737D01*
X104904409Y-105841425D01*
X104895594Y-105845077D01*
X104892688Y-105847461D01*
X104891278Y-105848188D01*
X104889979Y-105849684D01*
X104884229Y-105854405D01*
X104795633Y-105944726D01*
X104791632Y-105947128D01*
X104786545Y-105953991D01*
X104779664Y-105961008D01*
X104777530Y-105966158D01*
X104774210Y-105970640D01*
X104769263Y-105984486D01*
X104724022Y-106170851D01*
X104720846Y-106178520D01*
X104719948Y-106187634D01*
X104719494Y-106189506D01*
X104719656Y-106190598D01*
X104719405Y-106193152D01*
X104608294Y-106193152D01*
X104608294Y-105673708D01*
X107550503Y-105673708D01*
X107550503Y-107045930D01*
G37*
X112727319Y-104638333D02*
X112727319Y-105209761D01*
X112727319Y-104924047D02*
X111727319Y-104924047D01*
X111727319Y-104924047D02*
X111870176Y-105019285D01*
X111870176Y-105019285D02*
X111965414Y-105114523D01*
X111965414Y-105114523D02*
X112013033Y-105209761D01*
X112346366Y-104209761D02*
X112346366Y-103447857D01*
X112727319Y-103828809D02*
X111965414Y-103828809D01*
X93138928Y-109921009D02*
X93281785Y-109968628D01*
X93281785Y-109968628D02*
X93329404Y-110016247D01*
X93329404Y-110016247D02*
X93377023Y-110111485D01*
X93377023Y-110111485D02*
X93377023Y-110254342D01*
X93377023Y-110254342D02*
X93329404Y-110349580D01*
X93329404Y-110349580D02*
X93281785Y-110397200D01*
X93281785Y-110397200D02*
X93186547Y-110444819D01*
X93186547Y-110444819D02*
X92805595Y-110444819D01*
X92805595Y-110444819D02*
X92805595Y-109444819D01*
X92805595Y-109444819D02*
X93138928Y-109444819D01*
X93138928Y-109444819D02*
X93234166Y-109492438D01*
X93234166Y-109492438D02*
X93281785Y-109540057D01*
X93281785Y-109540057D02*
X93329404Y-109635295D01*
X93329404Y-109635295D02*
X93329404Y-109730533D01*
X93329404Y-109730533D02*
X93281785Y-109825771D01*
X93281785Y-109825771D02*
X93234166Y-109873390D01*
X93234166Y-109873390D02*
X93138928Y-109921009D01*
X93138928Y-109921009D02*
X92805595Y-109921009D01*
X94377023Y-110349580D02*
X94329404Y-110397200D01*
X94329404Y-110397200D02*
X94186547Y-110444819D01*
X94186547Y-110444819D02*
X94091309Y-110444819D01*
X94091309Y-110444819D02*
X93948452Y-110397200D01*
X93948452Y-110397200D02*
X93853214Y-110301961D01*
X93853214Y-110301961D02*
X93805595Y-110206723D01*
X93805595Y-110206723D02*
X93757976Y-110016247D01*
X93757976Y-110016247D02*
X93757976Y-109873390D01*
X93757976Y-109873390D02*
X93805595Y-109682914D01*
X93805595Y-109682914D02*
X93853214Y-109587676D01*
X93853214Y-109587676D02*
X93948452Y-109492438D01*
X93948452Y-109492438D02*
X94091309Y-109444819D01*
X94091309Y-109444819D02*
X94186547Y-109444819D01*
X94186547Y-109444819D02*
X94329404Y-109492438D01*
X94329404Y-109492438D02*
X94377023Y-109540057D01*
X93305833Y-115524819D02*
X92972500Y-115048628D01*
X92734405Y-115524819D02*
X92734405Y-114524819D01*
X92734405Y-114524819D02*
X93115357Y-114524819D01*
X93115357Y-114524819D02*
X93210595Y-114572438D01*
X93210595Y-114572438D02*
X93258214Y-114620057D01*
X93258214Y-114620057D02*
X93305833Y-114715295D01*
X93305833Y-114715295D02*
X93305833Y-114858152D01*
X93305833Y-114858152D02*
X93258214Y-114953390D01*
X93258214Y-114953390D02*
X93210595Y-115001009D01*
X93210595Y-115001009D02*
X93115357Y-115048628D01*
X93115357Y-115048628D02*
X92734405Y-115048628D01*
X93639167Y-114524819D02*
X94305833Y-115524819D01*
X94305833Y-114524819D02*
X93639167Y-115524819D01*
X92710595Y-111984819D02*
X93282023Y-111984819D01*
X92996309Y-112984819D02*
X92996309Y-111984819D01*
X93520119Y-111984819D02*
X94186785Y-112984819D01*
X94186785Y-111984819D02*
X93520119Y-112984819D01*
X93377023Y-107904819D02*
X92900833Y-107904819D01*
X92900833Y-107904819D02*
X92900833Y-106904819D01*
X94281785Y-107904819D02*
X93948452Y-107428628D01*
X93710357Y-107904819D02*
X93710357Y-106904819D01*
X93710357Y-106904819D02*
X94091309Y-106904819D01*
X94091309Y-106904819D02*
X94186547Y-106952438D01*
X94186547Y-106952438D02*
X94234166Y-107000057D01*
X94234166Y-107000057D02*
X94281785Y-107095295D01*
X94281785Y-107095295D02*
X94281785Y-107238152D01*
X94281785Y-107238152D02*
X94234166Y-107333390D01*
X94234166Y-107333390D02*
X94186547Y-107381009D01*
X94186547Y-107381009D02*
X94091309Y-107428628D01*
X94091309Y-107428628D02*
X93710357Y-107428628D01*
G36*
X116342420Y-107045747D02*
G01*
X114922580Y-107045747D01*
X114922580Y-105859819D01*
X115033691Y-105859819D01*
X115035132Y-106874451D01*
X115046331Y-106901487D01*
X115067023Y-106922179D01*
X115094059Y-106933378D01*
X115123323Y-106933378D01*
X115150359Y-106922179D01*
X115171051Y-106901487D01*
X115182250Y-106874451D01*
X115183691Y-106859819D01*
X115182271Y-105859819D01*
X115509881Y-105859819D01*
X115511322Y-106874451D01*
X115522521Y-106901487D01*
X115543213Y-106922179D01*
X115570249Y-106933378D01*
X115599513Y-106933378D01*
X115626549Y-106922179D01*
X115647241Y-106901487D01*
X115658440Y-106874451D01*
X115659881Y-106859819D01*
X115658858Y-106139749D01*
X116090205Y-106892448D01*
X116093949Y-106901487D01*
X116097311Y-106904849D01*
X116099701Y-106909019D01*
X116107589Y-106915127D01*
X116114641Y-106922179D01*
X116119059Y-106924009D01*
X116122839Y-106926936D01*
X116132460Y-106929560D01*
X116141677Y-106933378D01*
X116146458Y-106933378D01*
X116151070Y-106934636D01*
X116160967Y-106933378D01*
X116170941Y-106933378D01*
X116175356Y-106931548D01*
X116180100Y-106930946D01*
X116188764Y-106925995D01*
X116197977Y-106922179D01*
X116201355Y-106918800D01*
X116205509Y-106916427D01*
X116211618Y-106908537D01*
X116218669Y-106901487D01*
X116220498Y-106897070D01*
X116223426Y-106893290D01*
X116226050Y-106883666D01*
X116229868Y-106874451D01*
X116230604Y-106866968D01*
X116231126Y-106865058D01*
X116230938Y-106863582D01*
X116231309Y-106859819D01*
X116229868Y-105845187D01*
X116218669Y-105818151D01*
X116197977Y-105797459D01*
X116170941Y-105786260D01*
X116141677Y-105786260D01*
X116114641Y-105797459D01*
X116093949Y-105818151D01*
X116082750Y-105845187D01*
X116081309Y-105859819D01*
X116082331Y-106579888D01*
X115650984Y-105827189D01*
X115647241Y-105818151D01*
X115643878Y-105814788D01*
X115641489Y-105810619D01*
X115633599Y-105804509D01*
X115626549Y-105797459D01*
X115622132Y-105795629D01*
X115618352Y-105792702D01*
X115608728Y-105790077D01*
X115599513Y-105786260D01*
X115594732Y-105786260D01*
X115590120Y-105785002D01*
X115580223Y-105786260D01*
X115570249Y-105786260D01*
X115565833Y-105788089D01*
X115561090Y-105788692D01*
X115552425Y-105793642D01*
X115543213Y-105797459D01*
X115539834Y-105800837D01*
X115535681Y-105803211D01*
X115529571Y-105811100D01*
X115522521Y-105818151D01*
X115520691Y-105822567D01*
X115517764Y-105826348D01*
X115515139Y-105835971D01*
X115511322Y-105845187D01*
X115510585Y-105852669D01*
X115510064Y-105854580D01*
X115510251Y-105856055D01*
X115509881Y-105859819D01*
X115182271Y-105859819D01*
X115182250Y-105845187D01*
X115171051Y-105818151D01*
X115150359Y-105797459D01*
X115123323Y-105786260D01*
X115094059Y-105786260D01*
X115067023Y-105797459D01*
X115046331Y-105818151D01*
X115035132Y-105845187D01*
X115033691Y-105859819D01*
X114922580Y-105859819D01*
X114922580Y-105673891D01*
X116342420Y-105673891D01*
X116342420Y-107045747D01*
G37*
X92686786Y-105317200D02*
X92829643Y-105364819D01*
X92829643Y-105364819D02*
X93067738Y-105364819D01*
X93067738Y-105364819D02*
X93162976Y-105317200D01*
X93162976Y-105317200D02*
X93210595Y-105269580D01*
X93210595Y-105269580D02*
X93258214Y-105174342D01*
X93258214Y-105174342D02*
X93258214Y-105079104D01*
X93258214Y-105079104D02*
X93210595Y-104983866D01*
X93210595Y-104983866D02*
X93162976Y-104936247D01*
X93162976Y-104936247D02*
X93067738Y-104888628D01*
X93067738Y-104888628D02*
X92877262Y-104841009D01*
X92877262Y-104841009D02*
X92782024Y-104793390D01*
X92782024Y-104793390D02*
X92734405Y-104745771D01*
X92734405Y-104745771D02*
X92686786Y-104650533D01*
X92686786Y-104650533D02*
X92686786Y-104555295D01*
X92686786Y-104555295D02*
X92734405Y-104460057D01*
X92734405Y-104460057D02*
X92782024Y-104412438D01*
X92782024Y-104412438D02*
X92877262Y-104364819D01*
X92877262Y-104364819D02*
X93115357Y-104364819D01*
X93115357Y-104364819D02*
X93258214Y-104412438D01*
X93686786Y-105364819D02*
X93686786Y-104364819D01*
X93686786Y-104364819D02*
X93924881Y-104364819D01*
X93924881Y-104364819D02*
X94067738Y-104412438D01*
X94067738Y-104412438D02*
X94162976Y-104507676D01*
X94162976Y-104507676D02*
X94210595Y-104602914D01*
X94210595Y-104602914D02*
X94258214Y-104793390D01*
X94258214Y-104793390D02*
X94258214Y-104936247D01*
X94258214Y-104936247D02*
X94210595Y-105126723D01*
X94210595Y-105126723D02*
X94162976Y-105221961D01*
X94162976Y-105221961D02*
X94067738Y-105317200D01*
X94067738Y-105317200D02*
X93924881Y-105364819D01*
X93924881Y-105364819D02*
X93686786Y-105364819D01*
X117747319Y-120476189D02*
X116747319Y-120476189D01*
X117747319Y-119476190D02*
X117747319Y-120047618D01*
X117747319Y-119761904D02*
X116747319Y-119761904D01*
X116747319Y-119761904D02*
X116890176Y-119857142D01*
X116890176Y-119857142D02*
X116985414Y-119952380D01*
X116985414Y-119952380D02*
X117033033Y-120047618D01*
X93710595Y-119604819D02*
X93234405Y-119604819D01*
X93234405Y-119604819D02*
X93186786Y-120081009D01*
X93186786Y-120081009D02*
X93234405Y-120033390D01*
X93234405Y-120033390D02*
X93329643Y-119985771D01*
X93329643Y-119985771D02*
X93567738Y-119985771D01*
X93567738Y-119985771D02*
X93662976Y-120033390D01*
X93662976Y-120033390D02*
X93710595Y-120081009D01*
X93710595Y-120081009D02*
X93758214Y-120176247D01*
X93758214Y-120176247D02*
X93758214Y-120414342D01*
X93758214Y-120414342D02*
X93710595Y-120509580D01*
X93710595Y-120509580D02*
X93662976Y-120557200D01*
X93662976Y-120557200D02*
X93567738Y-120604819D01*
X93567738Y-120604819D02*
X93329643Y-120604819D01*
X93329643Y-120604819D02*
X93234405Y-120557200D01*
X93234405Y-120557200D02*
X93186786Y-120509580D01*
X92639167Y-100284819D02*
X92639167Y-99284819D01*
X92639167Y-99284819D02*
X92972500Y-99999104D01*
X92972500Y-99999104D02*
X93305833Y-99284819D01*
X93305833Y-99284819D02*
X93305833Y-100284819D01*
X93782024Y-100284819D02*
X93782024Y-99284819D01*
X94353452Y-100284819D02*
X93924881Y-99713390D01*
X94353452Y-99284819D02*
X93782024Y-99856247D01*
X106634938Y-120338095D02*
X106587319Y-120433333D01*
X106587319Y-120433333D02*
X106587319Y-120576190D01*
X106587319Y-120576190D02*
X106634938Y-120719047D01*
X106634938Y-120719047D02*
X106730176Y-120814285D01*
X106730176Y-120814285D02*
X106825414Y-120861904D01*
X106825414Y-120861904D02*
X107015890Y-120909523D01*
X107015890Y-120909523D02*
X107158747Y-120909523D01*
X107158747Y-120909523D02*
X107349223Y-120861904D01*
X107349223Y-120861904D02*
X107444461Y-120814285D01*
X107444461Y-120814285D02*
X107539700Y-120719047D01*
X107539700Y-120719047D02*
X107587319Y-120576190D01*
X107587319Y-120576190D02*
X107587319Y-120480952D01*
X107587319Y-120480952D02*
X107539700Y-120338095D01*
X107539700Y-120338095D02*
X107492080Y-120290476D01*
X107492080Y-120290476D02*
X107158747Y-120290476D01*
X107158747Y-120290476D02*
X107158747Y-120480952D01*
X104999700Y-120785713D02*
X105047319Y-120642856D01*
X105047319Y-120642856D02*
X105047319Y-120404761D01*
X105047319Y-120404761D02*
X104999700Y-120309523D01*
X104999700Y-120309523D02*
X104952080Y-120261904D01*
X104952080Y-120261904D02*
X104856842Y-120214285D01*
X104856842Y-120214285D02*
X104761604Y-120214285D01*
X104761604Y-120214285D02*
X104666366Y-120261904D01*
X104666366Y-120261904D02*
X104618747Y-120309523D01*
X104618747Y-120309523D02*
X104571128Y-120404761D01*
X104571128Y-120404761D02*
X104523509Y-120595237D01*
X104523509Y-120595237D02*
X104475890Y-120690475D01*
X104475890Y-120690475D02*
X104428271Y-120738094D01*
X104428271Y-120738094D02*
X104333033Y-120785713D01*
X104333033Y-120785713D02*
X104237795Y-120785713D01*
X104237795Y-120785713D02*
X104142557Y-120738094D01*
X104142557Y-120738094D02*
X104094938Y-120690475D01*
X104094938Y-120690475D02*
X104047319Y-120595237D01*
X104047319Y-120595237D02*
X104047319Y-120357142D01*
X104047319Y-120357142D02*
X104094938Y-120214285D01*
X105047319Y-119785713D02*
X104047319Y-119785713D01*
X104047319Y-119785713D02*
X104047319Y-119547618D01*
X104047319Y-119547618D02*
X104094938Y-119404761D01*
X104094938Y-119404761D02*
X104190176Y-119309523D01*
X104190176Y-119309523D02*
X104285414Y-119261904D01*
X104285414Y-119261904D02*
X104475890Y-119214285D01*
X104475890Y-119214285D02*
X104618747Y-119214285D01*
X104618747Y-119214285D02*
X104809223Y-119261904D01*
X104809223Y-119261904D02*
X104904461Y-119309523D01*
X104904461Y-119309523D02*
X104999700Y-119404761D01*
X104999700Y-119404761D02*
X105047319Y-119547618D01*
X105047319Y-119547618D02*
X105047319Y-119785713D01*
X125914795Y-117707380D02*
X125914795Y-118088332D01*
X125914795Y-118088332D02*
X126295747Y-118126428D01*
X126295747Y-118126428D02*
X126257652Y-118088332D01*
X126257652Y-118088332D02*
X126219557Y-118012142D01*
X126219557Y-118012142D02*
X126219557Y-117821666D01*
X126219557Y-117821666D02*
X126257652Y-117745475D01*
X126257652Y-117745475D02*
X126295747Y-117707380D01*
X126295747Y-117707380D02*
X126371938Y-117669285D01*
X126371938Y-117669285D02*
X126562414Y-117669285D01*
X126562414Y-117669285D02*
X126638604Y-117707380D01*
X126638604Y-117707380D02*
X126676700Y-117745475D01*
X126676700Y-117745475D02*
X126714795Y-117821666D01*
X126714795Y-117821666D02*
X126714795Y-118012142D01*
X126714795Y-118012142D02*
X126676700Y-118088332D01*
X126676700Y-118088332D02*
X126638604Y-118126428D01*
X125914795Y-117440713D02*
X126714795Y-117174046D01*
X126714795Y-117174046D02*
X125914795Y-116907380D01*
X106742557Y-105304761D02*
X106694938Y-105257142D01*
X106694938Y-105257142D02*
X106647319Y-105161904D01*
X106647319Y-105161904D02*
X106647319Y-104923809D01*
X106647319Y-104923809D02*
X106694938Y-104828571D01*
X106694938Y-104828571D02*
X106742557Y-104780952D01*
X106742557Y-104780952D02*
X106837795Y-104733333D01*
X106837795Y-104733333D02*
X106933033Y-104733333D01*
X106933033Y-104733333D02*
X107075890Y-104780952D01*
X107075890Y-104780952D02*
X107647319Y-105352380D01*
X107647319Y-105352380D02*
X107647319Y-104733333D01*
X107266366Y-104304761D02*
X107266366Y-103542857D01*
X107647319Y-103923809D02*
X106885414Y-103923809D01*
X112667319Y-120904999D02*
X111667319Y-120904999D01*
X111667319Y-120238333D02*
X111667319Y-120047857D01*
X111667319Y-120047857D02*
X111714938Y-119952619D01*
X111714938Y-119952619D02*
X111810176Y-119857381D01*
X111810176Y-119857381D02*
X112000652Y-119809762D01*
X112000652Y-119809762D02*
X112333985Y-119809762D01*
X112333985Y-119809762D02*
X112524461Y-119857381D01*
X112524461Y-119857381D02*
X112619700Y-119952619D01*
X112619700Y-119952619D02*
X112667319Y-120047857D01*
X112667319Y-120047857D02*
X112667319Y-120238333D01*
X112667319Y-120238333D02*
X112619700Y-120333571D01*
X112619700Y-120333571D02*
X112524461Y-120428809D01*
X112524461Y-120428809D02*
X112333985Y-120476428D01*
X112333985Y-120476428D02*
X112000652Y-120476428D01*
X112000652Y-120476428D02*
X111810176Y-120428809D01*
X111810176Y-120428809D02*
X111714938Y-120333571D01*
X111714938Y-120333571D02*
X111667319Y-120238333D01*
X111762557Y-119428809D02*
X111714938Y-119381190D01*
X111714938Y-119381190D02*
X111667319Y-119285952D01*
X111667319Y-119285952D02*
X111667319Y-119047857D01*
X111667319Y-119047857D02*
X111714938Y-118952619D01*
X111714938Y-118952619D02*
X111762557Y-118905000D01*
X111762557Y-118905000D02*
X111857795Y-118857381D01*
X111857795Y-118857381D02*
X111953033Y-118857381D01*
X111953033Y-118857381D02*
X112095890Y-118905000D01*
X112095890Y-118905000D02*
X112667319Y-119476428D01*
X112667319Y-119476428D02*
X112667319Y-118857381D01*
X110127319Y-120904999D02*
X109127319Y-120904999D01*
X109127319Y-120238333D02*
X109127319Y-120047857D01*
X109127319Y-120047857D02*
X109174938Y-119952619D01*
X109174938Y-119952619D02*
X109270176Y-119857381D01*
X109270176Y-119857381D02*
X109460652Y-119809762D01*
X109460652Y-119809762D02*
X109793985Y-119809762D01*
X109793985Y-119809762D02*
X109984461Y-119857381D01*
X109984461Y-119857381D02*
X110079700Y-119952619D01*
X110079700Y-119952619D02*
X110127319Y-120047857D01*
X110127319Y-120047857D02*
X110127319Y-120238333D01*
X110127319Y-120238333D02*
X110079700Y-120333571D01*
X110079700Y-120333571D02*
X109984461Y-120428809D01*
X109984461Y-120428809D02*
X109793985Y-120476428D01*
X109793985Y-120476428D02*
X109460652Y-120476428D01*
X109460652Y-120476428D02*
X109270176Y-120428809D01*
X109270176Y-120428809D02*
X109174938Y-120333571D01*
X109174938Y-120333571D02*
X109127319Y-120238333D01*
X110127319Y-118857381D02*
X110127319Y-119428809D01*
X110127319Y-119143095D02*
X109127319Y-119143095D01*
X109127319Y-119143095D02*
X109270176Y-119238333D01*
X109270176Y-119238333D02*
X109365414Y-119333571D01*
X109365414Y-119333571D02*
X109413033Y-119428809D01*
X102567319Y-104733333D02*
X102567319Y-105304761D01*
X102567319Y-105019047D02*
X101567319Y-105019047D01*
X101567319Y-105019047D02*
X101710176Y-105114285D01*
X101710176Y-105114285D02*
X101805414Y-105209523D01*
X101805414Y-105209523D02*
X101853033Y-105304761D01*
X102186366Y-104304761D02*
X102186366Y-103542857D01*
X102567319Y-103923809D02*
X101805414Y-103923809D01*
X93282023Y-118064819D02*
X92710595Y-118064819D01*
X92996309Y-118064819D02*
X92996309Y-117064819D01*
X92996309Y-117064819D02*
X92901071Y-117207676D01*
X92901071Y-117207676D02*
X92805833Y-117302914D01*
X92805833Y-117302914D02*
X92710595Y-117350533D01*
X93662976Y-117160057D02*
X93710595Y-117112438D01*
X93710595Y-117112438D02*
X93805833Y-117064819D01*
X93805833Y-117064819D02*
X94043928Y-117064819D01*
X94043928Y-117064819D02*
X94139166Y-117112438D01*
X94139166Y-117112438D02*
X94186785Y-117160057D01*
X94186785Y-117160057D02*
X94234404Y-117255295D01*
X94234404Y-117255295D02*
X94234404Y-117350533D01*
X94234404Y-117350533D02*
X94186785Y-117493390D01*
X94186785Y-117493390D02*
X93615357Y-118064819D01*
X93615357Y-118064819D02*
X94234404Y-118064819D01*
X120287319Y-120833332D02*
X119287319Y-120833332D01*
X119287319Y-120833332D02*
X120001604Y-120499999D01*
X120001604Y-120499999D02*
X119287319Y-120166666D01*
X119287319Y-120166666D02*
X120287319Y-120166666D01*
X119763509Y-119357142D02*
X119811128Y-119214285D01*
X119811128Y-119214285D02*
X119858747Y-119166666D01*
X119858747Y-119166666D02*
X119953985Y-119119047D01*
X119953985Y-119119047D02*
X120096842Y-119119047D01*
X120096842Y-119119047D02*
X120192080Y-119166666D01*
X120192080Y-119166666D02*
X120239700Y-119214285D01*
X120239700Y-119214285D02*
X120287319Y-119309523D01*
X120287319Y-119309523D02*
X120287319Y-119690475D01*
X120287319Y-119690475D02*
X119287319Y-119690475D01*
X119287319Y-119690475D02*
X119287319Y-119357142D01*
X119287319Y-119357142D02*
X119334938Y-119261904D01*
X119334938Y-119261904D02*
X119382557Y-119214285D01*
X119382557Y-119214285D02*
X119477795Y-119166666D01*
X119477795Y-119166666D02*
X119573033Y-119166666D01*
X119573033Y-119166666D02*
X119668271Y-119214285D01*
X119668271Y-119214285D02*
X119715890Y-119261904D01*
X119715890Y-119261904D02*
X119763509Y-119357142D01*
X119763509Y-119357142D02*
X119763509Y-119690475D01*
X92686786Y-102777200D02*
X92829643Y-102824819D01*
X92829643Y-102824819D02*
X93067738Y-102824819D01*
X93067738Y-102824819D02*
X93162976Y-102777200D01*
X93162976Y-102777200D02*
X93210595Y-102729580D01*
X93210595Y-102729580D02*
X93258214Y-102634342D01*
X93258214Y-102634342D02*
X93258214Y-102539104D01*
X93258214Y-102539104D02*
X93210595Y-102443866D01*
X93210595Y-102443866D02*
X93162976Y-102396247D01*
X93162976Y-102396247D02*
X93067738Y-102348628D01*
X93067738Y-102348628D02*
X92877262Y-102301009D01*
X92877262Y-102301009D02*
X92782024Y-102253390D01*
X92782024Y-102253390D02*
X92734405Y-102205771D01*
X92734405Y-102205771D02*
X92686786Y-102110533D01*
X92686786Y-102110533D02*
X92686786Y-102015295D01*
X92686786Y-102015295D02*
X92734405Y-101920057D01*
X92734405Y-101920057D02*
X92782024Y-101872438D01*
X92782024Y-101872438D02*
X92877262Y-101824819D01*
X92877262Y-101824819D02*
X93115357Y-101824819D01*
X93115357Y-101824819D02*
X93258214Y-101872438D01*
X94258214Y-102729580D02*
X94210595Y-102777200D01*
X94210595Y-102777200D02*
X94067738Y-102824819D01*
X94067738Y-102824819D02*
X93972500Y-102824819D01*
X93972500Y-102824819D02*
X93829643Y-102777200D01*
X93829643Y-102777200D02*
X93734405Y-102681961D01*
X93734405Y-102681961D02*
X93686786Y-102586723D01*
X93686786Y-102586723D02*
X93639167Y-102396247D01*
X93639167Y-102396247D02*
X93639167Y-102253390D01*
X93639167Y-102253390D02*
X93686786Y-102062914D01*
X93686786Y-102062914D02*
X93734405Y-101967676D01*
X93734405Y-101967676D02*
X93829643Y-101872438D01*
X93829643Y-101872438D02*
X93972500Y-101824819D01*
X93972500Y-101824819D02*
X94067738Y-101824819D01*
X94067738Y-101824819D02*
X94210595Y-101872438D01*
X94210595Y-101872438D02*
X94258214Y-101920057D01*
X116902557Y-105304761D02*
X116854938Y-105257142D01*
X116854938Y-105257142D02*
X116807319Y-105161904D01*
X116807319Y-105161904D02*
X116807319Y-104923809D01*
X116807319Y-104923809D02*
X116854938Y-104828571D01*
X116854938Y-104828571D02*
X116902557Y-104780952D01*
X116902557Y-104780952D02*
X116997795Y-104733333D01*
X116997795Y-104733333D02*
X117093033Y-104733333D01*
X117093033Y-104733333D02*
X117235890Y-104780952D01*
X117235890Y-104780952D02*
X117807319Y-105352380D01*
X117807319Y-105352380D02*
X117807319Y-104733333D01*
X117426366Y-104304761D02*
X117426366Y-103542857D01*
X117807319Y-103923809D02*
X117045414Y-103923809D01*
X116162295Y-114497619D02*
X116162295Y-114878571D01*
X116162295Y-114878571D02*
X116543247Y-114916667D01*
X116543247Y-114916667D02*
X116505152Y-114878571D01*
X116505152Y-114878571D02*
X116467057Y-114802381D01*
X116467057Y-114802381D02*
X116467057Y-114611905D01*
X116467057Y-114611905D02*
X116505152Y-114535714D01*
X116505152Y-114535714D02*
X116543247Y-114497619D01*
X116543247Y-114497619D02*
X116619438Y-114459524D01*
X116619438Y-114459524D02*
X116809914Y-114459524D01*
X116809914Y-114459524D02*
X116886104Y-114497619D01*
X116886104Y-114497619D02*
X116924200Y-114535714D01*
X116924200Y-114535714D02*
X116962295Y-114611905D01*
X116962295Y-114611905D02*
X116962295Y-114802381D01*
X116962295Y-114802381D02*
X116924200Y-114878571D01*
X116924200Y-114878571D02*
X116886104Y-114916667D01*
X116162295Y-113964285D02*
X116162295Y-113888095D01*
X116162295Y-113888095D02*
X116200390Y-113811904D01*
X116200390Y-113811904D02*
X116238485Y-113773809D01*
X116238485Y-113773809D02*
X116314676Y-113735714D01*
X116314676Y-113735714D02*
X116467057Y-113697619D01*
X116467057Y-113697619D02*
X116657533Y-113697619D01*
X116657533Y-113697619D02*
X116809914Y-113735714D01*
X116809914Y-113735714D02*
X116886104Y-113773809D01*
X116886104Y-113773809D02*
X116924200Y-113811904D01*
X116924200Y-113811904D02*
X116962295Y-113888095D01*
X116962295Y-113888095D02*
X116962295Y-113964285D01*
X116962295Y-113964285D02*
X116924200Y-114040476D01*
X116924200Y-114040476D02*
X116886104Y-114078571D01*
X116886104Y-114078571D02*
X116809914Y-114116666D01*
X116809914Y-114116666D02*
X116657533Y-114154762D01*
X116657533Y-114154762D02*
X116467057Y-114154762D01*
X116467057Y-114154762D02*
X116314676Y-114116666D01*
X116314676Y-114116666D02*
X116238485Y-114078571D01*
X116238485Y-114078571D02*
X116200390Y-114040476D01*
X116200390Y-114040476D02*
X116162295Y-113964285D01*
X116733723Y-109126189D02*
X116733723Y-108745236D01*
X116962295Y-109202379D02*
X116162295Y-108935712D01*
X116162295Y-108935712D02*
X116962295Y-108669046D01*
X116162295Y-108249998D02*
X116162295Y-108173808D01*
X116162295Y-108173808D02*
X116200390Y-108097617D01*
X116200390Y-108097617D02*
X116238485Y-108059522D01*
X116238485Y-108059522D02*
X116314676Y-108021427D01*
X116314676Y-108021427D02*
X116467057Y-107983332D01*
X116467057Y-107983332D02*
X116657533Y-107983332D01*
X116657533Y-107983332D02*
X116809914Y-108021427D01*
X116809914Y-108021427D02*
X116886104Y-108059522D01*
X116886104Y-108059522D02*
X116924200Y-108097617D01*
X116924200Y-108097617D02*
X116962295Y-108173808D01*
X116962295Y-108173808D02*
X116962295Y-108249998D01*
X116962295Y-108249998D02*
X116924200Y-108326189D01*
X116924200Y-108326189D02*
X116886104Y-108364284D01*
X116886104Y-108364284D02*
X116809914Y-108402379D01*
X116809914Y-108402379D02*
X116657533Y-108440475D01*
X116657533Y-108440475D02*
X116467057Y-108440475D01*
X116467057Y-108440475D02*
X116314676Y-108402379D01*
X116314676Y-108402379D02*
X116238485Y-108364284D01*
X116238485Y-108364284D02*
X116200390Y-108326189D01*
X116200390Y-108326189D02*
X116162295Y-108249998D01*
X117562295Y-114497619D02*
X117562295Y-114878571D01*
X117562295Y-114878571D02*
X117943247Y-114916667D01*
X117943247Y-114916667D02*
X117905152Y-114878571D01*
X117905152Y-114878571D02*
X117867057Y-114802381D01*
X117867057Y-114802381D02*
X117867057Y-114611905D01*
X117867057Y-114611905D02*
X117905152Y-114535714D01*
X117905152Y-114535714D02*
X117943247Y-114497619D01*
X117943247Y-114497619D02*
X118019438Y-114459524D01*
X118019438Y-114459524D02*
X118209914Y-114459524D01*
X118209914Y-114459524D02*
X118286104Y-114497619D01*
X118286104Y-114497619D02*
X118324200Y-114535714D01*
X118324200Y-114535714D02*
X118362295Y-114611905D01*
X118362295Y-114611905D02*
X118362295Y-114802381D01*
X118362295Y-114802381D02*
X118324200Y-114878571D01*
X118324200Y-114878571D02*
X118286104Y-114916667D01*
X118362295Y-113697619D02*
X118362295Y-114154762D01*
X118362295Y-113926190D02*
X117562295Y-113926190D01*
X117562295Y-113926190D02*
X117676580Y-114002381D01*
X117676580Y-114002381D02*
X117752771Y-114078571D01*
X117752771Y-114078571D02*
X117790866Y-114154762D01*
X118133723Y-109126189D02*
X118133723Y-108745236D01*
X118362295Y-109202379D02*
X117562295Y-108935712D01*
X117562295Y-108935712D02*
X118362295Y-108669046D01*
X117638485Y-108440475D02*
X117600390Y-108402379D01*
X117600390Y-108402379D02*
X117562295Y-108326189D01*
X117562295Y-108326189D02*
X117562295Y-108135713D01*
X117562295Y-108135713D02*
X117600390Y-108059522D01*
X117600390Y-108059522D02*
X117638485Y-108021427D01*
X117638485Y-108021427D02*
X117714676Y-107983332D01*
X117714676Y-107983332D02*
X117790866Y-107983332D01*
X117790866Y-107983332D02*
X117905152Y-108021427D01*
X117905152Y-108021427D02*
X118362295Y-108478570D01*
X118362295Y-108478570D02*
X118362295Y-107983332D01*
X118962295Y-114497619D02*
X118962295Y-114878571D01*
X118962295Y-114878571D02*
X119343247Y-114916667D01*
X119343247Y-114916667D02*
X119305152Y-114878571D01*
X119305152Y-114878571D02*
X119267057Y-114802381D01*
X119267057Y-114802381D02*
X119267057Y-114611905D01*
X119267057Y-114611905D02*
X119305152Y-114535714D01*
X119305152Y-114535714D02*
X119343247Y-114497619D01*
X119343247Y-114497619D02*
X119419438Y-114459524D01*
X119419438Y-114459524D02*
X119609914Y-114459524D01*
X119609914Y-114459524D02*
X119686104Y-114497619D01*
X119686104Y-114497619D02*
X119724200Y-114535714D01*
X119724200Y-114535714D02*
X119762295Y-114611905D01*
X119762295Y-114611905D02*
X119762295Y-114802381D01*
X119762295Y-114802381D02*
X119724200Y-114878571D01*
X119724200Y-114878571D02*
X119686104Y-114916667D01*
X119038485Y-114154762D02*
X119000390Y-114116666D01*
X119000390Y-114116666D02*
X118962295Y-114040476D01*
X118962295Y-114040476D02*
X118962295Y-113850000D01*
X118962295Y-113850000D02*
X119000390Y-113773809D01*
X119000390Y-113773809D02*
X119038485Y-113735714D01*
X119038485Y-113735714D02*
X119114676Y-113697619D01*
X119114676Y-113697619D02*
X119190866Y-113697619D01*
X119190866Y-113697619D02*
X119305152Y-113735714D01*
X119305152Y-113735714D02*
X119762295Y-114192857D01*
X119762295Y-114192857D02*
X119762295Y-113697619D01*
X119533723Y-109126189D02*
X119533723Y-108745236D01*
X119762295Y-109202379D02*
X118962295Y-108935712D01*
X118962295Y-108935712D02*
X119762295Y-108669046D01*
X119228961Y-108059522D02*
X119762295Y-108059522D01*
X118924200Y-108249998D02*
X119495628Y-108440475D01*
X119495628Y-108440475D02*
X119495628Y-107945236D01*
X99643247Y-98610839D02*
X99643247Y-98344173D01*
X100062295Y-98229887D02*
X100062295Y-98610839D01*
X100062295Y-98610839D02*
X99262295Y-98610839D01*
X99262295Y-98610839D02*
X99262295Y-98229887D01*
X122043247Y-98610839D02*
X122043247Y-98344173D01*
X122462295Y-98229887D02*
X122462295Y-98610839D01*
X122462295Y-98610839D02*
X121662295Y-98610839D01*
X121662295Y-98610839D02*
X121662295Y-98229887D01*
X120362295Y-114497619D02*
X120362295Y-114878571D01*
X120362295Y-114878571D02*
X120743247Y-114916667D01*
X120743247Y-114916667D02*
X120705152Y-114878571D01*
X120705152Y-114878571D02*
X120667057Y-114802381D01*
X120667057Y-114802381D02*
X120667057Y-114611905D01*
X120667057Y-114611905D02*
X120705152Y-114535714D01*
X120705152Y-114535714D02*
X120743247Y-114497619D01*
X120743247Y-114497619D02*
X120819438Y-114459524D01*
X120819438Y-114459524D02*
X121009914Y-114459524D01*
X121009914Y-114459524D02*
X121086104Y-114497619D01*
X121086104Y-114497619D02*
X121124200Y-114535714D01*
X121124200Y-114535714D02*
X121162295Y-114611905D01*
X121162295Y-114611905D02*
X121162295Y-114802381D01*
X121162295Y-114802381D02*
X121124200Y-114878571D01*
X121124200Y-114878571D02*
X121086104Y-114916667D01*
X120362295Y-114192857D02*
X120362295Y-113697619D01*
X120362295Y-113697619D02*
X120667057Y-113964285D01*
X120667057Y-113964285D02*
X120667057Y-113850000D01*
X120667057Y-113850000D02*
X120705152Y-113773809D01*
X120705152Y-113773809D02*
X120743247Y-113735714D01*
X120743247Y-113735714D02*
X120819438Y-113697619D01*
X120819438Y-113697619D02*
X121009914Y-113697619D01*
X121009914Y-113697619D02*
X121086104Y-113735714D01*
X121086104Y-113735714D02*
X121124200Y-113773809D01*
X121124200Y-113773809D02*
X121162295Y-113850000D01*
X121162295Y-113850000D02*
X121162295Y-114078571D01*
X121162295Y-114078571D02*
X121124200Y-114154762D01*
X121124200Y-114154762D02*
X121086104Y-114192857D01*
X120933723Y-109126189D02*
X120933723Y-108745236D01*
X121162295Y-109202379D02*
X120362295Y-108935712D01*
X120362295Y-108935712D02*
X121162295Y-108669046D01*
X120362295Y-108059522D02*
X120362295Y-108211903D01*
X120362295Y-108211903D02*
X120400390Y-108288094D01*
X120400390Y-108288094D02*
X120438485Y-108326189D01*
X120438485Y-108326189D02*
X120552771Y-108402379D01*
X120552771Y-108402379D02*
X120705152Y-108440475D01*
X120705152Y-108440475D02*
X121009914Y-108440475D01*
X121009914Y-108440475D02*
X121086104Y-108402379D01*
X121086104Y-108402379D02*
X121124200Y-108364284D01*
X121124200Y-108364284D02*
X121162295Y-108288094D01*
X121162295Y-108288094D02*
X121162295Y-108135713D01*
X121162295Y-108135713D02*
X121124200Y-108059522D01*
X121124200Y-108059522D02*
X121086104Y-108021427D01*
X121086104Y-108021427D02*
X121009914Y-107983332D01*
X121009914Y-107983332D02*
X120819438Y-107983332D01*
X120819438Y-107983332D02*
X120743247Y-108021427D01*
X120743247Y-108021427D02*
X120705152Y-108059522D01*
X120705152Y-108059522D02*
X120667057Y-108135713D01*
X120667057Y-108135713D02*
X120667057Y-108288094D01*
X120667057Y-108288094D02*
X120705152Y-108364284D01*
X120705152Y-108364284D02*
X120743247Y-108402379D01*
X120743247Y-108402379D02*
X120819438Y-108440475D01*
X99813970Y-116426333D02*
X100379656Y-115860648D01*
X100379656Y-115860648D02*
X100514343Y-115995335D01*
X100514343Y-115995335D02*
X100568217Y-116103084D01*
X100568217Y-116103084D02*
X100568217Y-116210834D01*
X100568217Y-116210834D02*
X100541280Y-116291646D01*
X100541280Y-116291646D02*
X100460468Y-116426333D01*
X100460468Y-116426333D02*
X100379656Y-116507145D01*
X100379656Y-116507145D02*
X100244969Y-116587957D01*
X100244969Y-116587957D02*
X100164156Y-116614895D01*
X100164156Y-116614895D02*
X100056407Y-116614895D01*
X100056407Y-116614895D02*
X99948657Y-116561020D01*
X99948657Y-116561020D02*
X99813970Y-116426333D01*
X101053091Y-116534083D02*
X101160840Y-116641832D01*
X101160840Y-116641832D02*
X101187778Y-116722644D01*
X101187778Y-116722644D02*
X101187778Y-116830394D01*
X101187778Y-116830394D02*
X101106965Y-116965081D01*
X101106965Y-116965081D02*
X100918404Y-117153643D01*
X100918404Y-117153643D02*
X100783717Y-117234455D01*
X100783717Y-117234455D02*
X100675967Y-117234455D01*
X100675967Y-117234455D02*
X100595155Y-117207518D01*
X100595155Y-117207518D02*
X100487405Y-117099768D01*
X100487405Y-117099768D02*
X100460468Y-117018956D01*
X100460468Y-117018956D02*
X100460468Y-116911206D01*
X100460468Y-116911206D02*
X100541280Y-116776519D01*
X100541280Y-116776519D02*
X100729842Y-116587957D01*
X100729842Y-116587957D02*
X100864529Y-116507145D01*
X100864529Y-116507145D02*
X100972278Y-116507145D01*
X100972278Y-116507145D02*
X101053091Y-116534083D01*
X101537964Y-117018956D02*
X101080028Y-117476892D01*
X101080028Y-117476892D02*
X101053090Y-117557704D01*
X101053090Y-117557704D02*
X101053090Y-117611579D01*
X101053090Y-117611579D02*
X101080028Y-117692391D01*
X101080028Y-117692391D02*
X101187778Y-117800140D01*
X101187778Y-117800140D02*
X101268590Y-117827078D01*
X101268590Y-117827078D02*
X101322465Y-117827078D01*
X101322465Y-117827078D02*
X101403277Y-117800140D01*
X101403277Y-117800140D02*
X101861213Y-117342205D01*
X102049774Y-117530766D02*
X102373023Y-117854015D01*
X101645713Y-118258076D02*
X102211399Y-117692391D01*
X91179887Y-121747704D02*
X91560839Y-121747704D01*
X91560839Y-121747704D02*
X91598935Y-121366752D01*
X91598935Y-121366752D02*
X91560839Y-121404847D01*
X91560839Y-121404847D02*
X91484649Y-121442942D01*
X91484649Y-121442942D02*
X91294173Y-121442942D01*
X91294173Y-121442942D02*
X91217982Y-121404847D01*
X91217982Y-121404847D02*
X91179887Y-121366752D01*
X91179887Y-121366752D02*
X91141792Y-121290561D01*
X91141792Y-121290561D02*
X91141792Y-121100085D01*
X91141792Y-121100085D02*
X91179887Y-121023895D01*
X91179887Y-121023895D02*
X91217982Y-120985800D01*
X91217982Y-120985800D02*
X91294173Y-120947704D01*
X91294173Y-120947704D02*
X91484649Y-120947704D01*
X91484649Y-120947704D02*
X91560839Y-120985800D01*
X91560839Y-120985800D02*
X91598935Y-121023895D01*
X90913220Y-121747704D02*
X90646553Y-120947704D01*
X90646553Y-120947704D02*
X90379887Y-121747704D01*
X103439160Y-117294295D02*
X103439160Y-116494295D01*
X103439160Y-116494295D02*
X103743922Y-116494295D01*
X103743922Y-116494295D02*
X103820112Y-116532390D01*
X103820112Y-116532390D02*
X103858207Y-116570485D01*
X103858207Y-116570485D02*
X103896303Y-116646676D01*
X103896303Y-116646676D02*
X103896303Y-116760961D01*
X103896303Y-116760961D02*
X103858207Y-116837152D01*
X103858207Y-116837152D02*
X103820112Y-116875247D01*
X103820112Y-116875247D02*
X103743922Y-116913342D01*
X103743922Y-116913342D02*
X103439160Y-116913342D01*
X104239160Y-116494295D02*
X104239160Y-117141914D01*
X104239160Y-117141914D02*
X104277255Y-117218104D01*
X104277255Y-117218104D02*
X104315350Y-117256200D01*
X104315350Y-117256200D02*
X104391541Y-117294295D01*
X104391541Y-117294295D02*
X104543922Y-117294295D01*
X104543922Y-117294295D02*
X104620112Y-117256200D01*
X104620112Y-117256200D02*
X104658207Y-117218104D01*
X104658207Y-117218104D02*
X104696303Y-117141914D01*
X104696303Y-117141914D02*
X104696303Y-116494295D01*
X121800390Y-121091792D02*
X121762295Y-121167982D01*
X121762295Y-121167982D02*
X121762295Y-121282268D01*
X121762295Y-121282268D02*
X121800390Y-121396554D01*
X121800390Y-121396554D02*
X121876580Y-121472744D01*
X121876580Y-121472744D02*
X121952771Y-121510839D01*
X121952771Y-121510839D02*
X122105152Y-121548935D01*
X122105152Y-121548935D02*
X122219438Y-121548935D01*
X122219438Y-121548935D02*
X122371819Y-121510839D01*
X122371819Y-121510839D02*
X122448009Y-121472744D01*
X122448009Y-121472744D02*
X122524200Y-121396554D01*
X122524200Y-121396554D02*
X122562295Y-121282268D01*
X122562295Y-121282268D02*
X122562295Y-121206077D01*
X122562295Y-121206077D02*
X122524200Y-121091792D01*
X122524200Y-121091792D02*
X122486104Y-121053696D01*
X122486104Y-121053696D02*
X122219438Y-121053696D01*
X122219438Y-121053696D02*
X122219438Y-121206077D01*
X99100390Y-120491792D02*
X99062295Y-120567982D01*
X99062295Y-120567982D02*
X99062295Y-120682268D01*
X99062295Y-120682268D02*
X99100390Y-120796554D01*
X99100390Y-120796554D02*
X99176580Y-120872744D01*
X99176580Y-120872744D02*
X99252771Y-120910839D01*
X99252771Y-120910839D02*
X99405152Y-120948935D01*
X99405152Y-120948935D02*
X99519438Y-120948935D01*
X99519438Y-120948935D02*
X99671819Y-120910839D01*
X99671819Y-120910839D02*
X99748009Y-120872744D01*
X99748009Y-120872744D02*
X99824200Y-120796554D01*
X99824200Y-120796554D02*
X99862295Y-120682268D01*
X99862295Y-120682268D02*
X99862295Y-120606077D01*
X99862295Y-120606077D02*
X99824200Y-120491792D01*
X99824200Y-120491792D02*
X99786104Y-120453696D01*
X99786104Y-120453696D02*
X99519438Y-120453696D01*
X99519438Y-120453696D02*
X99519438Y-120606077D01*
D14*
%TO.C,R102*%
X112364388Y-114669899D02*
X112127336Y-114432847D01*
X112901790Y-114132497D02*
X112664738Y-113895445D01*
%TO.C,R109*%
X109600477Y-117029046D02*
X109817758Y-117246327D01*
X110137878Y-116491645D02*
X110355159Y-116708926D01*
%TO.C,ADD1*%
X121600000Y-109700000D02*
X122800000Y-109700000D01*
X121600000Y-112200000D02*
X121600000Y-109700000D01*
X122800000Y-109700000D02*
X122800000Y-112200000D01*
X122800000Y-112200000D02*
X121600000Y-112200000D01*
%TO.C,board_outline1*%
X85467500Y-123930000D02*
X85467500Y-98410000D01*
X88067500Y-121330000D02*
X88067500Y-123930000D01*
X88067500Y-123930000D02*
X85467500Y-123930000D01*
X90667500Y-98410000D02*
X85467500Y-98410000D01*
X90667500Y-121330000D02*
X88067500Y-121330000D01*
X90667500Y-121330000D02*
X90667500Y-98410000D01*
X90667500Y-122600000D02*
X90667500Y-123930000D01*
X90667500Y-123930000D02*
X89337500Y-123930000D01*
X92677500Y-109245000D02*
X93987500Y-109245000D01*
X93532500Y-122705000D02*
X94532500Y-123205000D01*
X93987500Y-113345000D02*
X92677500Y-113345000D01*
X94532500Y-122205000D02*
X93532500Y-122705000D01*
X100717500Y-98415000D02*
X121157500Y-98415000D01*
X100717500Y-103615000D02*
X100717500Y-98415000D01*
X100717500Y-103615000D02*
X100717500Y-107105000D01*
X100717500Y-123935000D02*
X100717500Y-122605000D01*
X102047500Y-123935000D02*
X100717500Y-123935000D01*
X103317500Y-121275000D02*
X121157500Y-121275000D01*
X103317500Y-123935000D02*
X103317500Y-121275000D01*
X103317500Y-123935000D02*
X121157500Y-123935000D01*
X110937500Y-98415000D02*
X110937500Y-107105000D01*
X121157500Y-101075000D02*
X121157500Y-98415000D01*
X121157500Y-107105000D02*
X121157500Y-100955000D01*
X121157500Y-123935000D02*
X121157500Y-121275000D01*
G36*
X101032500Y-105605000D02*
G01*
X104632500Y-105605000D01*
X104632500Y-107105000D01*
X101032500Y-107105000D01*
X101032500Y-105605000D01*
G37*
G36*
X101032500Y-105605000D02*
G01*
X110632500Y-105605000D01*
X110632500Y-105705000D01*
X101032500Y-105705000D01*
X101032500Y-105605000D01*
G37*
G36*
X101032500Y-107005000D02*
G01*
X110632500Y-107005000D01*
X110632500Y-107105000D01*
X101032500Y-107105000D01*
X101032500Y-107005000D01*
G37*
G36*
X107532500Y-105605000D02*
G01*
X110632500Y-105605000D01*
X110632500Y-107105000D01*
X107532500Y-107105000D01*
X107532500Y-105605000D01*
G37*
G36*
X111232500Y-105605000D02*
G01*
X120832500Y-105605000D01*
X120832500Y-105705000D01*
X111232500Y-105705000D01*
X111232500Y-105605000D01*
G37*
G36*
X111232500Y-107005000D02*
G01*
X120832500Y-107005000D01*
X120832500Y-107105000D01*
X111232500Y-107105000D01*
X111232500Y-107005000D01*
G37*
G36*
X111242500Y-105605000D02*
G01*
X114932500Y-105605000D01*
X114932500Y-107105000D01*
X111242500Y-107105000D01*
X111242500Y-105605000D01*
G37*
G36*
X116332500Y-105605000D02*
G01*
X120862500Y-105605000D01*
X120862500Y-107105000D01*
X116332500Y-107105000D01*
X116332500Y-105605000D01*
G37*
%TO.C,ADD1001*%
X116000000Y-109700000D02*
X117200000Y-109700000D01*
X116000000Y-112200000D02*
X116000000Y-109700000D01*
X117200000Y-109700000D02*
X117200000Y-112200000D01*
X117200000Y-112200000D02*
X116000000Y-112200000D01*
%TO.C,R101*%
X113105118Y-113929170D02*
X112868066Y-113692118D01*
X113642520Y-113391768D02*
X113405468Y-113154716D01*
%TO.C,C12*%
X108042013Y-117665000D02*
X107519509Y-117665000D01*
X108042013Y-119135000D02*
X107519509Y-119135000D01*
%TO.C,R103*%
X111584838Y-115449449D02*
X111347786Y-115212397D01*
X112122240Y-114912047D02*
X111885188Y-114674995D01*
%TO.C,R104*%
X105480603Y-114136033D02*
X105717655Y-113898981D01*
X106018005Y-114673435D02*
X106255057Y-114436383D01*
%TO.C,ADD1002*%
X117400000Y-109700000D02*
X118600000Y-109700000D01*
X117400000Y-112200000D02*
X117400000Y-109700000D01*
X118600000Y-109700000D02*
X118600000Y-112200000D01*
X118600000Y-112200000D02*
X117400000Y-112200000D01*
%TO.C,C15*%
X105421693Y-109530810D02*
X105269190Y-109378307D01*
X105930810Y-109021693D02*
X105778307Y-108869190D01*
%TO.C,ADD1003*%
X118800000Y-109700000D02*
X120000000Y-109700000D01*
X118800000Y-112200000D02*
X118800000Y-109700000D01*
X120000000Y-109700000D02*
X120000000Y-112200000D01*
X120000000Y-112200000D02*
X118800000Y-112200000D01*
%TO.C,C10*%
X101065010Y-114404457D02*
X100695543Y-114034990D01*
X102104457Y-113365010D02*
X101734990Y-112995543D01*
%TO.C,U1*%
X96000000Y-113540000D02*
X95200000Y-113540000D01*
X96000000Y-113540000D02*
X96800000Y-113540000D01*
X96000000Y-116660000D02*
X95200000Y-116660000D01*
X96000000Y-116660000D02*
X97800000Y-116660000D01*
%TO.C,R106*%
X106824106Y-115479536D02*
X107061158Y-115242484D01*
X107361508Y-116016938D02*
X107598560Y-115779886D01*
%TO.C,R5*%
X121820000Y-116746359D02*
X121820000Y-117053641D01*
X122580000Y-116746359D02*
X122580000Y-117053641D01*
%TO.C,C2*%
X114153733Y-108290000D02*
X114446267Y-108290000D01*
X114153733Y-109310000D02*
X114446267Y-109310000D01*
%TO.C,C11*%
X104420196Y-111901323D02*
X104267693Y-112053826D01*
X104929313Y-112410440D02*
X104776810Y-112562943D01*
%TO.C,C13*%
X102065010Y-109195543D02*
X101695543Y-109565010D01*
X103104457Y-110234990D02*
X102734990Y-110604457D01*
%TO.C,D7*%
X119465000Y-116872936D02*
X119465000Y-117327064D01*
X120935000Y-116872936D02*
X120935000Y-117327064D01*
%TO.C,C14*%
X107908000Y-115954813D02*
X107755497Y-116107316D01*
X108417117Y-116463930D02*
X108264614Y-116616433D01*
%TO.C,ADD1004*%
X120200000Y-109700000D02*
X121400000Y-109700000D01*
X120200000Y-112200000D02*
X120200000Y-109700000D01*
X121400000Y-109700000D02*
X121400000Y-112200000D01*
X121400000Y-112200000D02*
X120200000Y-112200000D01*
%TO.C,R100*%
X113847580Y-113186708D02*
X113610528Y-112949656D01*
X114384982Y-112649306D02*
X114147930Y-112412254D01*
%TO.C,5V1*%
D15*
X93960000Y-121810000D02*
X91850000Y-121810000D01*
X91850000Y-120810000D01*
X93960000Y-120810000D01*
X93960000Y-121810000D01*
D14*
%TO.C,C1*%
X96653733Y-117490000D02*
X96946267Y-117490000D01*
X96653733Y-118510000D02*
X96946267Y-118510000D01*
%TO.C,R41*%
X121446359Y-112520000D02*
X121753641Y-112520000D01*
X121446359Y-113280000D02*
X121753641Y-113280000D01*
%TO.C,C17*%
X103135949Y-111142802D02*
X103342802Y-110935949D01*
X103857198Y-111864051D02*
X104064051Y-111657198D01*
%TO.C,R40*%
X117053641Y-112520000D02*
X116746359Y-112520000D01*
X117053641Y-113280000D02*
X116746359Y-113280000D01*
%TO.C,R107*%
X104808852Y-113464281D02*
X105045904Y-113227229D01*
X105346254Y-114001683D02*
X105583306Y-113764631D01*
%TO.C,PU_EN1001*%
X103150000Y-117400000D02*
X105650000Y-117400000D01*
X103150000Y-118600000D02*
X103150000Y-117400000D01*
X105650000Y-117400000D02*
X105650000Y-118600000D01*
X105650000Y-118600000D02*
X103150000Y-118600000D01*
%TO.C,R105*%
X106152355Y-114807784D02*
X106389407Y-114570732D01*
X106689757Y-115345186D02*
X106926809Y-115108134D01*
%TO.C,J1002*%
X106551885Y-110664124D02*
X106216009Y-111000000D01*
X108864124Y-108351885D02*
X109200000Y-108016009D01*
X109200000Y-108016009D02*
X109535876Y-108351885D01*
X109200000Y-113983991D02*
X108864124Y-113648115D01*
X109535876Y-113648115D02*
X109200000Y-113983991D01*
X111848115Y-111335876D02*
X112183991Y-111000000D01*
X112183991Y-111000000D02*
X111848115Y-110664124D01*
%TO.C,R42*%
X119553641Y-112520000D02*
X119246359Y-112520000D01*
X119553641Y-113280000D02*
X119246359Y-113280000D01*
%TO.C,R1*%
X94932379Y-112220000D02*
X95267621Y-112220000D01*
X94932379Y-112980000D02*
X95267621Y-112980000D01*
%TO.C,R108*%
X110620701Y-116477341D02*
X110403420Y-116260060D01*
X111158102Y-115939940D02*
X110940821Y-115722659D01*
%TD*%
M02*
