%TF.GenerationSoftware,KiCad,Pcbnew,8.0.3*%
%TF.CreationDate,2024-06-12T16:29:16-04:00*%
%TF.ProjectId,tac5212_audio_board_single_ended,74616335-3231-4325-9f61-7564696f5f62,rev?*%
%TF.SameCoordinates,Original*%
%TF.FileFunction,Legend,Bot*%
%TF.FilePolarity,Positive*%
%FSLAX46Y46*%
G04 Gerber Fmt 4.6, Leading zero omitted, Abs format (unit mm)*
G04 Created by KiCad (PCBNEW 8.0.3) date 2024-06-12 16:29:16*
%MOMM*%
%LPD*%
G01*
G04 APERTURE LIST*
%ADD10C,0.150000*%
%ADD11C,0.120000*%
%ADD12C,0.100000*%
G04 APERTURE END LIST*
D10*
X99862295Y-108066541D02*
X99862295Y-108218922D01*
X99862295Y-108218922D02*
X99900390Y-108295112D01*
X99900390Y-108295112D02*
X99976580Y-108371303D01*
X99976580Y-108371303D02*
X100128961Y-108409398D01*
X100128961Y-108409398D02*
X100395628Y-108409398D01*
X100395628Y-108409398D02*
X100548009Y-108371303D01*
X100548009Y-108371303D02*
X100624200Y-108295112D01*
X100624200Y-108295112D02*
X100662295Y-108218922D01*
X100662295Y-108218922D02*
X100662295Y-108066541D01*
X100662295Y-108066541D02*
X100624200Y-107990350D01*
X100624200Y-107990350D02*
X100548009Y-107914160D01*
X100548009Y-107914160D02*
X100395628Y-107876064D01*
X100395628Y-107876064D02*
X100128961Y-107876064D01*
X100128961Y-107876064D02*
X99976580Y-107914160D01*
X99976580Y-107914160D02*
X99900390Y-107990350D01*
X99900390Y-107990350D02*
X99862295Y-108066541D01*
X100662295Y-108752255D02*
X99862295Y-108752255D01*
X99862295Y-108752255D02*
X99862295Y-109057017D01*
X99862295Y-109057017D02*
X99900390Y-109133207D01*
X99900390Y-109133207D02*
X99938485Y-109171302D01*
X99938485Y-109171302D02*
X100014676Y-109209398D01*
X100014676Y-109209398D02*
X100128961Y-109209398D01*
X100128961Y-109209398D02*
X100205152Y-109171302D01*
X100205152Y-109171302D02*
X100243247Y-109133207D01*
X100243247Y-109133207D02*
X100281342Y-109057017D01*
X100281342Y-109057017D02*
X100281342Y-108752255D01*
X99938485Y-109514159D02*
X99900390Y-109552255D01*
X99900390Y-109552255D02*
X99862295Y-109628445D01*
X99862295Y-109628445D02*
X99862295Y-109818921D01*
X99862295Y-109818921D02*
X99900390Y-109895112D01*
X99900390Y-109895112D02*
X99938485Y-109933207D01*
X99938485Y-109933207D02*
X100014676Y-109971302D01*
X100014676Y-109971302D02*
X100090866Y-109971302D01*
X100090866Y-109971302D02*
X100205152Y-109933207D01*
X100205152Y-109933207D02*
X100662295Y-109476064D01*
X100662295Y-109476064D02*
X100662295Y-109971302D01*
X121762295Y-107924160D02*
X120962295Y-107924160D01*
X121762295Y-108305112D02*
X120962295Y-108305112D01*
X120962295Y-108305112D02*
X121762295Y-108762255D01*
X121762295Y-108762255D02*
X120962295Y-108762255D01*
X121762295Y-109143207D02*
X120962295Y-109143207D01*
X120962295Y-109143207D02*
X120962295Y-109447969D01*
X120962295Y-109447969D02*
X121000390Y-109524159D01*
X121000390Y-109524159D02*
X121038485Y-109562254D01*
X121038485Y-109562254D02*
X121114676Y-109600350D01*
X121114676Y-109600350D02*
X121228961Y-109600350D01*
X121228961Y-109600350D02*
X121305152Y-109562254D01*
X121305152Y-109562254D02*
X121343247Y-109524159D01*
X121343247Y-109524159D02*
X121381342Y-109447969D01*
X121381342Y-109447969D02*
X121381342Y-109143207D01*
X121038485Y-109905111D02*
X121000390Y-109943207D01*
X121000390Y-109943207D02*
X120962295Y-110019397D01*
X120962295Y-110019397D02*
X120962295Y-110209873D01*
X120962295Y-110209873D02*
X121000390Y-110286064D01*
X121000390Y-110286064D02*
X121038485Y-110324159D01*
X121038485Y-110324159D02*
X121114676Y-110362254D01*
X121114676Y-110362254D02*
X121190866Y-110362254D01*
X121190866Y-110362254D02*
X121305152Y-110324159D01*
X121305152Y-110324159D02*
X121762295Y-109867016D01*
X121762295Y-109867016D02*
X121762295Y-110362254D01*
X108800390Y-104572744D02*
X108762295Y-104496554D01*
X108762295Y-104496554D02*
X108762295Y-104382268D01*
X108762295Y-104382268D02*
X108800390Y-104267982D01*
X108800390Y-104267982D02*
X108876580Y-104191792D01*
X108876580Y-104191792D02*
X108952771Y-104153697D01*
X108952771Y-104153697D02*
X109105152Y-104115601D01*
X109105152Y-104115601D02*
X109219438Y-104115601D01*
X109219438Y-104115601D02*
X109371819Y-104153697D01*
X109371819Y-104153697D02*
X109448009Y-104191792D01*
X109448009Y-104191792D02*
X109524200Y-104267982D01*
X109524200Y-104267982D02*
X109562295Y-104382268D01*
X109562295Y-104382268D02*
X109562295Y-104458459D01*
X109562295Y-104458459D02*
X109524200Y-104572744D01*
X109524200Y-104572744D02*
X109486104Y-104610840D01*
X109486104Y-104610840D02*
X109219438Y-104610840D01*
X109219438Y-104610840D02*
X109219438Y-104458459D01*
X109562295Y-104953697D02*
X108762295Y-104953697D01*
X108762295Y-104953697D02*
X109562295Y-105410840D01*
X109562295Y-105410840D02*
X108762295Y-105410840D01*
X109562295Y-105791792D02*
X108762295Y-105791792D01*
X108762295Y-105791792D02*
X108762295Y-105982268D01*
X108762295Y-105982268D02*
X108800390Y-106096554D01*
X108800390Y-106096554D02*
X108876580Y-106172744D01*
X108876580Y-106172744D02*
X108952771Y-106210839D01*
X108952771Y-106210839D02*
X109105152Y-106248935D01*
X109105152Y-106248935D02*
X109219438Y-106248935D01*
X109219438Y-106248935D02*
X109371819Y-106210839D01*
X109371819Y-106210839D02*
X109448009Y-106172744D01*
X109448009Y-106172744D02*
X109524200Y-106096554D01*
X109524200Y-106096554D02*
X109562295Y-105982268D01*
X109562295Y-105982268D02*
X109562295Y-105791792D01*
X125362295Y-107971660D02*
X124562295Y-107971660D01*
X125362295Y-108352612D02*
X124562295Y-108352612D01*
X124562295Y-108352612D02*
X125362295Y-108809755D01*
X125362295Y-108809755D02*
X124562295Y-108809755D01*
X125362295Y-109190707D02*
X124562295Y-109190707D01*
X124562295Y-109190707D02*
X125133723Y-109457373D01*
X125133723Y-109457373D02*
X124562295Y-109724040D01*
X124562295Y-109724040D02*
X125362295Y-109724040D01*
X124638485Y-110066897D02*
X124600390Y-110104993D01*
X124600390Y-110104993D02*
X124562295Y-110181183D01*
X124562295Y-110181183D02*
X124562295Y-110371659D01*
X124562295Y-110371659D02*
X124600390Y-110447850D01*
X124600390Y-110447850D02*
X124638485Y-110485945D01*
X124638485Y-110485945D02*
X124714676Y-110524040D01*
X124714676Y-110524040D02*
X124790866Y-110524040D01*
X124790866Y-110524040D02*
X124905152Y-110485945D01*
X124905152Y-110485945D02*
X125362295Y-110028802D01*
X125362295Y-110028802D02*
X125362295Y-110524040D01*
X103762295Y-107841541D02*
X103762295Y-107993922D01*
X103762295Y-107993922D02*
X103800390Y-108070112D01*
X103800390Y-108070112D02*
X103876580Y-108146303D01*
X103876580Y-108146303D02*
X104028961Y-108184398D01*
X104028961Y-108184398D02*
X104295628Y-108184398D01*
X104295628Y-108184398D02*
X104448009Y-108146303D01*
X104448009Y-108146303D02*
X104524200Y-108070112D01*
X104524200Y-108070112D02*
X104562295Y-107993922D01*
X104562295Y-107993922D02*
X104562295Y-107841541D01*
X104562295Y-107841541D02*
X104524200Y-107765350D01*
X104524200Y-107765350D02*
X104448009Y-107689160D01*
X104448009Y-107689160D02*
X104295628Y-107651064D01*
X104295628Y-107651064D02*
X104028961Y-107651064D01*
X104028961Y-107651064D02*
X103876580Y-107689160D01*
X103876580Y-107689160D02*
X103800390Y-107765350D01*
X103800390Y-107765350D02*
X103762295Y-107841541D01*
X104562295Y-108527255D02*
X103762295Y-108527255D01*
X103762295Y-108527255D02*
X104333723Y-108793921D01*
X104333723Y-108793921D02*
X103762295Y-109060588D01*
X103762295Y-109060588D02*
X104562295Y-109060588D01*
X103838485Y-109403445D02*
X103800390Y-109441541D01*
X103800390Y-109441541D02*
X103762295Y-109517731D01*
X103762295Y-109517731D02*
X103762295Y-109708207D01*
X103762295Y-109708207D02*
X103800390Y-109784398D01*
X103800390Y-109784398D02*
X103838485Y-109822493D01*
X103838485Y-109822493D02*
X103914676Y-109860588D01*
X103914676Y-109860588D02*
X103990866Y-109860588D01*
X103990866Y-109860588D02*
X104105152Y-109822493D01*
X104105152Y-109822493D02*
X104562295Y-109365350D01*
X104562295Y-109365350D02*
X104562295Y-109860588D01*
X126647704Y-118137030D02*
X126647704Y-117641792D01*
X126647704Y-117641792D02*
X126342942Y-117908458D01*
X126342942Y-117908458D02*
X126342942Y-117794173D01*
X126342942Y-117794173D02*
X126304847Y-117717982D01*
X126304847Y-117717982D02*
X126266752Y-117679887D01*
X126266752Y-117679887D02*
X126190561Y-117641792D01*
X126190561Y-117641792D02*
X126000085Y-117641792D01*
X126000085Y-117641792D02*
X125923895Y-117679887D01*
X125923895Y-117679887D02*
X125885800Y-117717982D01*
X125885800Y-117717982D02*
X125847704Y-117794173D01*
X125847704Y-117794173D02*
X125847704Y-118022744D01*
X125847704Y-118022744D02*
X125885800Y-118098935D01*
X125885800Y-118098935D02*
X125923895Y-118137030D01*
X126647704Y-117413220D02*
X125847704Y-117146553D01*
X125847704Y-117146553D02*
X126647704Y-116879887D01*
X93908208Y-102724200D02*
X93793922Y-102762295D01*
X93793922Y-102762295D02*
X93603446Y-102762295D01*
X93603446Y-102762295D02*
X93527255Y-102724200D01*
X93527255Y-102724200D02*
X93489160Y-102686104D01*
X93489160Y-102686104D02*
X93451065Y-102609914D01*
X93451065Y-102609914D02*
X93451065Y-102533723D01*
X93451065Y-102533723D02*
X93489160Y-102457533D01*
X93489160Y-102457533D02*
X93527255Y-102419438D01*
X93527255Y-102419438D02*
X93603446Y-102381342D01*
X93603446Y-102381342D02*
X93755827Y-102343247D01*
X93755827Y-102343247D02*
X93832017Y-102305152D01*
X93832017Y-102305152D02*
X93870112Y-102267057D01*
X93870112Y-102267057D02*
X93908208Y-102190866D01*
X93908208Y-102190866D02*
X93908208Y-102114676D01*
X93908208Y-102114676D02*
X93870112Y-102038485D01*
X93870112Y-102038485D02*
X93832017Y-102000390D01*
X93832017Y-102000390D02*
X93755827Y-101962295D01*
X93755827Y-101962295D02*
X93565350Y-101962295D01*
X93565350Y-101962295D02*
X93451065Y-102000390D01*
X93108207Y-102762295D02*
X93108207Y-101962295D01*
X93108207Y-101962295D02*
X92917731Y-101962295D01*
X92917731Y-101962295D02*
X92803445Y-102000390D01*
X92803445Y-102000390D02*
X92727255Y-102076580D01*
X92727255Y-102076580D02*
X92689160Y-102152771D01*
X92689160Y-102152771D02*
X92651064Y-102305152D01*
X92651064Y-102305152D02*
X92651064Y-102419438D01*
X92651064Y-102419438D02*
X92689160Y-102571819D01*
X92689160Y-102571819D02*
X92727255Y-102648009D01*
X92727255Y-102648009D02*
X92803445Y-102724200D01*
X92803445Y-102724200D02*
X92917731Y-102762295D01*
X92917731Y-102762295D02*
X93108207Y-102762295D01*
X93922493Y-100062295D02*
X93922493Y-99262295D01*
X93922493Y-99262295D02*
X93655827Y-99833723D01*
X93655827Y-99833723D02*
X93389160Y-99262295D01*
X93389160Y-99262295D02*
X93389160Y-100062295D01*
X92551064Y-99986104D02*
X92589160Y-100024200D01*
X92589160Y-100024200D02*
X92703445Y-100062295D01*
X92703445Y-100062295D02*
X92779636Y-100062295D01*
X92779636Y-100062295D02*
X92893922Y-100024200D01*
X92893922Y-100024200D02*
X92970112Y-99948009D01*
X92970112Y-99948009D02*
X93008207Y-99871819D01*
X93008207Y-99871819D02*
X93046303Y-99719438D01*
X93046303Y-99719438D02*
X93046303Y-99605152D01*
X93046303Y-99605152D02*
X93008207Y-99452771D01*
X93008207Y-99452771D02*
X92970112Y-99376580D01*
X92970112Y-99376580D02*
X92893922Y-99300390D01*
X92893922Y-99300390D02*
X92779636Y-99262295D01*
X92779636Y-99262295D02*
X92703445Y-99262295D01*
X92703445Y-99262295D02*
X92589160Y-99300390D01*
X92589160Y-99300390D02*
X92551064Y-99338485D01*
X93908208Y-101324200D02*
X93793922Y-101362295D01*
X93793922Y-101362295D02*
X93603446Y-101362295D01*
X93603446Y-101362295D02*
X93527255Y-101324200D01*
X93527255Y-101324200D02*
X93489160Y-101286104D01*
X93489160Y-101286104D02*
X93451065Y-101209914D01*
X93451065Y-101209914D02*
X93451065Y-101133723D01*
X93451065Y-101133723D02*
X93489160Y-101057533D01*
X93489160Y-101057533D02*
X93527255Y-101019438D01*
X93527255Y-101019438D02*
X93603446Y-100981342D01*
X93603446Y-100981342D02*
X93755827Y-100943247D01*
X93755827Y-100943247D02*
X93832017Y-100905152D01*
X93832017Y-100905152D02*
X93870112Y-100867057D01*
X93870112Y-100867057D02*
X93908208Y-100790866D01*
X93908208Y-100790866D02*
X93908208Y-100714676D01*
X93908208Y-100714676D02*
X93870112Y-100638485D01*
X93870112Y-100638485D02*
X93832017Y-100600390D01*
X93832017Y-100600390D02*
X93755827Y-100562295D01*
X93755827Y-100562295D02*
X93565350Y-100562295D01*
X93565350Y-100562295D02*
X93451065Y-100600390D01*
X92651064Y-101286104D02*
X92689160Y-101324200D01*
X92689160Y-101324200D02*
X92803445Y-101362295D01*
X92803445Y-101362295D02*
X92879636Y-101362295D01*
X92879636Y-101362295D02*
X92993922Y-101324200D01*
X92993922Y-101324200D02*
X93070112Y-101248009D01*
X93070112Y-101248009D02*
X93108207Y-101171819D01*
X93108207Y-101171819D02*
X93146303Y-101019438D01*
X93146303Y-101019438D02*
X93146303Y-100905152D01*
X93146303Y-100905152D02*
X93108207Y-100752771D01*
X93108207Y-100752771D02*
X93070112Y-100676580D01*
X93070112Y-100676580D02*
X92993922Y-100600390D01*
X92993922Y-100600390D02*
X92879636Y-100562295D01*
X92879636Y-100562295D02*
X92803445Y-100562295D01*
X92803445Y-100562295D02*
X92689160Y-100600390D01*
X92689160Y-100600390D02*
X92651064Y-100638485D01*
X95562295Y-108141541D02*
X95562295Y-108293922D01*
X95562295Y-108293922D02*
X95600390Y-108370112D01*
X95600390Y-108370112D02*
X95676580Y-108446303D01*
X95676580Y-108446303D02*
X95828961Y-108484398D01*
X95828961Y-108484398D02*
X96095628Y-108484398D01*
X96095628Y-108484398D02*
X96248009Y-108446303D01*
X96248009Y-108446303D02*
X96324200Y-108370112D01*
X96324200Y-108370112D02*
X96362295Y-108293922D01*
X96362295Y-108293922D02*
X96362295Y-108141541D01*
X96362295Y-108141541D02*
X96324200Y-108065350D01*
X96324200Y-108065350D02*
X96248009Y-107989160D01*
X96248009Y-107989160D02*
X96095628Y-107951064D01*
X96095628Y-107951064D02*
X95828961Y-107951064D01*
X95828961Y-107951064D02*
X95676580Y-107989160D01*
X95676580Y-107989160D02*
X95600390Y-108065350D01*
X95600390Y-108065350D02*
X95562295Y-108141541D01*
X96362295Y-108827255D02*
X95562295Y-108827255D01*
X95562295Y-108827255D02*
X95562295Y-109132017D01*
X95562295Y-109132017D02*
X95600390Y-109208207D01*
X95600390Y-109208207D02*
X95638485Y-109246302D01*
X95638485Y-109246302D02*
X95714676Y-109284398D01*
X95714676Y-109284398D02*
X95828961Y-109284398D01*
X95828961Y-109284398D02*
X95905152Y-109246302D01*
X95905152Y-109246302D02*
X95943247Y-109208207D01*
X95943247Y-109208207D02*
X95981342Y-109132017D01*
X95981342Y-109132017D02*
X95981342Y-108827255D01*
X96362295Y-110046302D02*
X96362295Y-109589159D01*
X96362295Y-109817731D02*
X95562295Y-109817731D01*
X95562295Y-109817731D02*
X95676580Y-109741540D01*
X95676580Y-109741540D02*
X95752771Y-109665350D01*
X95752771Y-109665350D02*
X95790866Y-109589159D01*
X118162295Y-107851660D02*
X117362295Y-107851660D01*
X118162295Y-108232612D02*
X117362295Y-108232612D01*
X117362295Y-108232612D02*
X118162295Y-108689755D01*
X118162295Y-108689755D02*
X117362295Y-108689755D01*
X118162295Y-109070707D02*
X117362295Y-109070707D01*
X117362295Y-109070707D02*
X117933723Y-109337373D01*
X117933723Y-109337373D02*
X117362295Y-109604040D01*
X117362295Y-109604040D02*
X118162295Y-109604040D01*
X118162295Y-110404040D02*
X118162295Y-109946897D01*
X118162295Y-110175469D02*
X117362295Y-110175469D01*
X117362295Y-110175469D02*
X117476580Y-110099278D01*
X117476580Y-110099278D02*
X117552771Y-110023088D01*
X117552771Y-110023088D02*
X117590866Y-109946897D01*
X121700390Y-114010839D02*
X121662295Y-113934649D01*
X121662295Y-113934649D02*
X121662295Y-113820363D01*
X121662295Y-113820363D02*
X121700390Y-113706077D01*
X121700390Y-113706077D02*
X121776580Y-113629887D01*
X121776580Y-113629887D02*
X121852771Y-113591792D01*
X121852771Y-113591792D02*
X122005152Y-113553696D01*
X122005152Y-113553696D02*
X122119438Y-113553696D01*
X122119438Y-113553696D02*
X122271819Y-113591792D01*
X122271819Y-113591792D02*
X122348009Y-113629887D01*
X122348009Y-113629887D02*
X122424200Y-113706077D01*
X122424200Y-113706077D02*
X122462295Y-113820363D01*
X122462295Y-113820363D02*
X122462295Y-113896554D01*
X122462295Y-113896554D02*
X122424200Y-114010839D01*
X122424200Y-114010839D02*
X122386104Y-114048935D01*
X122386104Y-114048935D02*
X122119438Y-114048935D01*
X122119438Y-114048935D02*
X122119438Y-113896554D01*
X92137704Y-110120112D02*
X92137704Y-109967731D01*
X92137704Y-109967731D02*
X92099609Y-109891541D01*
X92099609Y-109891541D02*
X92023419Y-109815350D01*
X92023419Y-109815350D02*
X91871038Y-109777255D01*
X91871038Y-109777255D02*
X91604371Y-109777255D01*
X91604371Y-109777255D02*
X91451990Y-109815350D01*
X91451990Y-109815350D02*
X91375800Y-109891541D01*
X91375800Y-109891541D02*
X91337704Y-109967731D01*
X91337704Y-109967731D02*
X91337704Y-110120112D01*
X91337704Y-110120112D02*
X91375800Y-110196303D01*
X91375800Y-110196303D02*
X91451990Y-110272493D01*
X91451990Y-110272493D02*
X91604371Y-110310589D01*
X91604371Y-110310589D02*
X91871038Y-110310589D01*
X91871038Y-110310589D02*
X92023419Y-110272493D01*
X92023419Y-110272493D02*
X92099609Y-110196303D01*
X92099609Y-110196303D02*
X92137704Y-110120112D01*
X91337704Y-109434398D02*
X92137704Y-109434398D01*
X92137704Y-109434398D02*
X91566276Y-109167732D01*
X91566276Y-109167732D02*
X92137704Y-108901065D01*
X92137704Y-108901065D02*
X91337704Y-108901065D01*
X91337704Y-108101065D02*
X91337704Y-108558208D01*
X91337704Y-108329636D02*
X92137704Y-108329636D01*
X92137704Y-108329636D02*
X92023419Y-108405827D01*
X92023419Y-108405827D02*
X91947228Y-108482017D01*
X91947228Y-108482017D02*
X91909133Y-108558208D01*
X114562295Y-107914160D02*
X113762295Y-107914160D01*
X114562295Y-108295112D02*
X113762295Y-108295112D01*
X113762295Y-108295112D02*
X114562295Y-108752255D01*
X114562295Y-108752255D02*
X113762295Y-108752255D01*
X114562295Y-109133207D02*
X113762295Y-109133207D01*
X113762295Y-109133207D02*
X113762295Y-109437969D01*
X113762295Y-109437969D02*
X113800390Y-109514159D01*
X113800390Y-109514159D02*
X113838485Y-109552254D01*
X113838485Y-109552254D02*
X113914676Y-109590350D01*
X113914676Y-109590350D02*
X114028961Y-109590350D01*
X114028961Y-109590350D02*
X114105152Y-109552254D01*
X114105152Y-109552254D02*
X114143247Y-109514159D01*
X114143247Y-109514159D02*
X114181342Y-109437969D01*
X114181342Y-109437969D02*
X114181342Y-109133207D01*
X114562295Y-110352254D02*
X114562295Y-109895111D01*
X114562295Y-110123683D02*
X113762295Y-110123683D01*
X113762295Y-110123683D02*
X113876580Y-110047492D01*
X113876580Y-110047492D02*
X113952771Y-109971302D01*
X113952771Y-109971302D02*
X113990866Y-109895111D01*
D11*
%TO.C,T\u002AC1*%
X121399314Y-118176248D02*
X121399314Y-118698752D01*
X122869314Y-118176248D02*
X122869314Y-118698752D01*
%TO.C,C1011*%
X113390000Y-111546267D02*
X113390000Y-111253733D01*
X114410000Y-111546267D02*
X114410000Y-111253733D01*
D12*
%TO.C,D20*%
X103685000Y-105100000D02*
G75*
G02*
X103585000Y-105100000I-50000J0D01*
G01*
X103585000Y-105100000D02*
G75*
G02*
X103685000Y-105100000I50000J0D01*
G01*
D11*
%TO.C,R17*%
X97871267Y-110590000D02*
X97528733Y-110590000D01*
X97871267Y-111610000D02*
X97528733Y-111610000D01*
%TO.C,T\u002AC2*%
X119524314Y-118291233D02*
X119524314Y-118583767D01*
X120544314Y-118291233D02*
X120544314Y-118583767D01*
%TO.C,C1012*%
X122290000Y-111546267D02*
X122290000Y-111253733D01*
X123310000Y-111546267D02*
X123310000Y-111253733D01*
%TO.C,C1009*%
X119690000Y-111646267D02*
X119690000Y-111353733D01*
X120710000Y-111646267D02*
X120710000Y-111353733D01*
%TO.C,C19*%
X91490000Y-113150000D02*
X91490000Y-117535000D01*
X91490000Y-117535000D02*
X94510000Y-117535000D01*
X94510000Y-117535000D02*
X94510000Y-113150000D01*
%TO.C,T\u002AC3*%
X113699314Y-118176248D02*
X113699314Y-118698752D01*
X115169314Y-118176248D02*
X115169314Y-118698752D01*
%TO.C,3V3*%
D12*
X125710000Y-118350000D02*
X126710000Y-118350000D01*
X126710000Y-120460000D01*
X125710000Y-120460000D01*
X125710000Y-118350000D01*
D11*
%TO.C,C21*%
X104090001Y-114290000D02*
X104090001Y-117310000D01*
X104090001Y-117310000D02*
X108475001Y-117310000D01*
X108475001Y-114290000D02*
X104090001Y-114290000D01*
%TO.C,R18*%
X93228733Y-110590000D02*
X93571267Y-110590000D01*
X93228733Y-111610000D02*
X93571267Y-111610000D01*
D12*
%TO.C,D1002*%
X121315000Y-105035000D02*
G75*
G02*
X121215000Y-105035000I-50000J0D01*
G01*
X121215000Y-105035000D02*
G75*
G02*
X121315000Y-105035000I50000J0D01*
G01*
D11*
%TO.C,FB1003*%
X115565000Y-107923752D02*
X115565000Y-107401248D01*
X117035000Y-107923752D02*
X117035000Y-107401248D01*
%TO.C,FB1004*%
X111965000Y-107761252D02*
X111965000Y-107238748D01*
X113435000Y-107761252D02*
X113435000Y-107238748D01*
%TO.C,R19*%
X102171267Y-110590000D02*
X101828733Y-110590000D01*
X102171267Y-111610000D02*
X101828733Y-111610000D01*
D12*
%TO.C,D1005*%
X124915000Y-105082500D02*
G75*
G02*
X124815000Y-105082500I-50000J0D01*
G01*
X124815000Y-105082500D02*
G75*
G02*
X124915000Y-105082500I50000J0D01*
G01*
D11*
%TO.C,C25*%
X105390000Y-107853733D02*
X105390000Y-108146267D01*
X106410000Y-107853733D02*
X106410000Y-108146267D01*
%TO.C,U2*%
X115651814Y-116615000D02*
X115651814Y-118415000D01*
X115651814Y-119215000D02*
X115651814Y-118415000D01*
X118771814Y-117615000D02*
X118771814Y-118415000D01*
X118771814Y-119215000D02*
X118771814Y-118415000D01*
D12*
%TO.C,D17*%
X95685000Y-105100000D02*
G75*
G02*
X95585000Y-105100000I-50000J0D01*
G01*
X95585000Y-105100000D02*
G75*
G02*
X95685000Y-105100000I50000J0D01*
G01*
D11*
%TO.C,C22*%
X97190000Y-107853733D02*
X97190000Y-108146267D01*
X98210000Y-107853733D02*
X98210000Y-108146267D01*
%TO.C,C1010*%
X116090000Y-111546267D02*
X116090000Y-111253733D01*
X117110000Y-111546267D02*
X117110000Y-111253733D01*
D12*
%TO.C,D19*%
X99985000Y-105100000D02*
G75*
G02*
X99885000Y-105100000I-50000J0D01*
G01*
X99885000Y-105100000D02*
G75*
G02*
X99985000Y-105100000I50000J0D01*
G01*
D11*
%TO.C,C18*%
X95790000Y-113150000D02*
X95790000Y-117535000D01*
X95790000Y-117535000D02*
X98810000Y-117535000D01*
X98810000Y-117535000D02*
X98810000Y-113150000D01*
D12*
%TO.C,D18*%
X91385000Y-105100000D02*
G75*
G02*
X91285000Y-105100000I-50000J0D01*
G01*
X91285000Y-105100000D02*
G75*
G02*
X91385000Y-105100000I50000J0D01*
G01*
D11*
%TO.C,C24*%
X101490000Y-107853733D02*
X101490000Y-108146267D01*
X102510000Y-107853733D02*
X102510000Y-108146267D01*
%TO.C,C20*%
X100090000Y-113150000D02*
X100090000Y-117535000D01*
X100090000Y-117535000D02*
X103110000Y-117535000D01*
X103110000Y-117535000D02*
X103110000Y-113150000D01*
D12*
%TO.C,D1003*%
X117715000Y-105035000D02*
G75*
G02*
X117615000Y-105035000I-50000J0D01*
G01*
X117615000Y-105035000D02*
G75*
G02*
X117715000Y-105035000I50000J0D01*
G01*
D11*
%TO.C,R20*%
X104990000Y-112171267D02*
X104990000Y-111828733D01*
X106010000Y-112171267D02*
X106010000Y-111828733D01*
%TO.C,FB1002*%
X119165000Y-107996252D02*
X119165000Y-107473748D01*
X120635000Y-107996252D02*
X120635000Y-107473748D01*
%TO.C,FB1001*%
X122765000Y-108033752D02*
X122765000Y-107511248D01*
X124235000Y-108033752D02*
X124235000Y-107511248D01*
D12*
%TO.C,D1004*%
X114115000Y-104900000D02*
G75*
G02*
X114015000Y-104900000I-50000J0D01*
G01*
X114015000Y-104900000D02*
G75*
G02*
X114115000Y-104900000I50000J0D01*
G01*
D11*
%TO.C,C23*%
X92890000Y-107853733D02*
X92890000Y-108146267D01*
X93910000Y-107853733D02*
X93910000Y-108146267D01*
%TD*%
M02*
