%TF.GenerationSoftware,KiCad,Pcbnew,8.0.7*%
%TF.CreationDate,2024-12-21T10:34:04-05:00*%
%TF.ProjectId,tac5212_audio_board_single_ended,74616335-3231-4325-9f61-7564696f5f62,rev?*%
%TF.SameCoordinates,Original*%
%TF.FileFunction,Paste,Bot*%
%TF.FilePolarity,Positive*%
%FSLAX46Y46*%
G04 Gerber Fmt 4.6, Leading zero omitted, Abs format (unit mm)*
G04 Created by KiCad (PCBNEW 8.0.7) date 2024-12-21 10:34:04*
%MOMM*%
%LPD*%
G01*
G04 APERTURE LIST*
G04 Aperture macros list*
%AMRoundRect*
0 Rectangle with rounded corners*
0 $1 Rounding radius*
0 $2 $3 $4 $5 $6 $7 $8 $9 X,Y pos of 4 corners*
0 Add a 4 corners polygon primitive as box body*
4,1,4,$2,$3,$4,$5,$6,$7,$8,$9,$2,$3,0*
0 Add four circle primitives for the rounded corners*
1,1,$1+$1,$2,$3*
1,1,$1+$1,$4,$5*
1,1,$1+$1,$6,$7*
1,1,$1+$1,$8,$9*
0 Add four rect primitives between the rounded corners*
20,1,$1+$1,$2,$3,$4,$5,0*
20,1,$1+$1,$4,$5,$6,$7,0*
20,1,$1+$1,$6,$7,$8,$9,0*
20,1,$1+$1,$8,$9,$2,$3,0*%
G04 Aperture macros list end*
%ADD10RoundRect,0.250000X0.475000X-0.337500X0.475000X0.337500X-0.475000X0.337500X-0.475000X-0.337500X0*%
%ADD11RoundRect,0.237500X-0.237500X0.300000X-0.237500X-0.300000X0.237500X-0.300000X0.237500X0.300000X0*%
%ADD12RoundRect,0.160000X0.222500X0.160000X-0.222500X0.160000X-0.222500X-0.160000X0.222500X-0.160000X0*%
%ADD13RoundRect,0.237500X-0.287500X-0.237500X0.287500X-0.237500X0.287500X0.237500X-0.287500X0.237500X0*%
%ADD14RoundRect,0.237500X0.237500X-0.300000X0.237500X0.300000X-0.237500X0.300000X-0.237500X-0.300000X0*%
%ADD15RoundRect,0.250001X0.924999X-0.499999X0.924999X0.499999X-0.924999X0.499999X-0.924999X-0.499999X0*%
%ADD16RoundRect,0.250001X-0.499999X-0.924999X0.499999X-0.924999X0.499999X0.924999X-0.499999X0.924999X0*%
%ADD17RoundRect,0.237500X0.287500X0.237500X-0.287500X0.237500X-0.287500X-0.237500X0.287500X-0.237500X0*%
%ADD18RoundRect,0.160000X-0.222500X-0.160000X0.222500X-0.160000X0.222500X0.160000X-0.222500X0.160000X0*%
%ADD19RoundRect,0.250000X-0.475000X0.337500X-0.475000X-0.337500X0.475000X-0.337500X0.475000X0.337500X0*%
%ADD20RoundRect,0.150000X-0.150000X0.512500X-0.150000X-0.512500X0.150000X-0.512500X0.150000X0.512500X0*%
%ADD21RoundRect,0.160000X-0.197500X-0.160000X0.197500X-0.160000X0.197500X0.160000X-0.197500X0.160000X0*%
%ADD22RoundRect,0.237500X-0.237500X0.287500X-0.237500X-0.287500X0.237500X-0.287500X0.237500X0.287500X0*%
G04 APERTURE END LIST*
D10*
%TO.C,T\u002AC108*%
X122134314Y-119475000D03*
X122134314Y-117400000D03*
%TD*%
D11*
%TO.C,C127*%
X113900000Y-110537500D03*
X113900000Y-112262500D03*
%TD*%
D12*
%TO.C,D111*%
X104327500Y-105100000D03*
X105472500Y-105100000D03*
%TD*%
D13*
%TO.C,R108*%
X96825000Y-111100000D03*
X98575000Y-111100000D03*
%TD*%
D14*
%TO.C,T\u002AC109*%
X120034314Y-119300000D03*
X120034314Y-117575000D03*
%TD*%
D11*
%TO.C,C124*%
X122800000Y-110537500D03*
X122800000Y-112262500D03*
%TD*%
%TO.C,C125*%
X120200000Y-110637500D03*
X120200000Y-112362500D03*
%TD*%
D15*
%TO.C,C114*%
X93000000Y-116525000D03*
X93000000Y-113275000D03*
%TD*%
D10*
%TO.C,T\u002AC110*%
X114434314Y-119475000D03*
X114434314Y-117400000D03*
%TD*%
D16*
%TO.C,C122*%
X105100001Y-115800000D03*
X108350001Y-115800000D03*
%TD*%
D17*
%TO.C,R109*%
X94275000Y-111100000D03*
X92525000Y-111100000D03*
%TD*%
D18*
%TO.C,D113*%
X120572500Y-105035000D03*
X119427500Y-105035000D03*
%TD*%
D19*
%TO.C,FB110*%
X116300000Y-106625000D03*
X116300000Y-108700000D03*
%TD*%
%TO.C,FB111*%
X112700000Y-106462500D03*
X112700000Y-108537500D03*
%TD*%
D13*
%TO.C,R111*%
X101125000Y-111100000D03*
X102875000Y-111100000D03*
%TD*%
D18*
%TO.C,D112*%
X124172500Y-105082500D03*
X123027500Y-105082500D03*
%TD*%
D14*
%TO.C,C123*%
X105900000Y-108862500D03*
X105900000Y-107137500D03*
%TD*%
D20*
%TO.C,U109*%
X116261814Y-117277500D03*
X117211814Y-117277500D03*
X118161814Y-117277500D03*
X118161814Y-119552500D03*
X116261814Y-119552500D03*
%TD*%
D12*
%TO.C,D108*%
X96327500Y-105100000D03*
X97472500Y-105100000D03*
%TD*%
D14*
%TO.C,C113*%
X97700000Y-108862500D03*
X97700000Y-107137500D03*
%TD*%
D11*
%TO.C,C126*%
X116600000Y-110537500D03*
X116600000Y-112262500D03*
%TD*%
D12*
%TO.C,D110*%
X100627500Y-105100000D03*
X101772500Y-105100000D03*
%TD*%
D15*
%TO.C,C110*%
X97300000Y-116525000D03*
X97300000Y-113275000D03*
%TD*%
D12*
%TO.C,D109*%
X92027500Y-105100000D03*
X93172500Y-105100000D03*
%TD*%
D21*
%TO.C,R127*%
X118802500Y-115700000D03*
X119997500Y-115700000D03*
%TD*%
D14*
%TO.C,C121*%
X102000000Y-108862500D03*
X102000000Y-107137500D03*
%TD*%
D15*
%TO.C,C120*%
X101600000Y-116525000D03*
X101600000Y-113275000D03*
%TD*%
D18*
%TO.C,D114*%
X116972500Y-105035000D03*
X115827500Y-105035000D03*
%TD*%
D22*
%TO.C,R116*%
X105500000Y-111125000D03*
X105500000Y-112875000D03*
%TD*%
D19*
%TO.C,FB109*%
X119900000Y-106697500D03*
X119900000Y-108772500D03*
%TD*%
%TO.C,FB108*%
X123500000Y-106735000D03*
X123500000Y-108810000D03*
%TD*%
D18*
%TO.C,D115*%
X113372500Y-104900000D03*
X112227500Y-104900000D03*
%TD*%
D11*
%TO.C,C129*%
X112500000Y-115937499D03*
X112500000Y-117662501D03*
%TD*%
D14*
%TO.C,C117*%
X93400000Y-108862500D03*
X93400000Y-107137500D03*
%TD*%
M02*
