G04 #@! TF.GenerationSoftware,KiCad,Pcbnew,9.0.4*
G04 #@! TF.CreationDate,2025-08-20T21:16:51-04:00*
G04 #@! TF.ProjectId,jlcpcb_1x1,6a6c6370-6362-45f3-9178-312e6b696361,rev?*
G04 #@! TF.SameCoordinates,Original*
G04 #@! TF.FileFunction,Copper,L2,Inr*
G04 #@! TF.FilePolarity,Positive*
%FSLAX46Y46*%
G04 Gerber Fmt 4.6, Leading zero omitted, Abs format (unit mm)*
G04 Created by KiCad (PCBNEW 9.0.4) date 2025-08-20 21:16:51*
%MOMM*%
%LPD*%
G01*
G04 APERTURE LIST*
G04 #@! TA.AperFunction,ComponentPad*
%ADD10C,0.500000*%
G04 #@! TD*
G04 #@! TA.AperFunction,ComponentPad*
%ADD11R,1.700000X1.700000*%
G04 #@! TD*
G04 #@! TA.AperFunction,ComponentPad*
%ADD12O,1.700000X1.700000*%
G04 #@! TD*
G04 #@! TA.AperFunction,ComponentPad*
%ADD13C,3.200000*%
G04 #@! TD*
G04 #@! TA.AperFunction,ComponentPad*
%ADD14R,0.500000X0.500000*%
G04 #@! TD*
G04 #@! TA.AperFunction,ViaPad*
%ADD15C,0.450000*%
G04 #@! TD*
G04 #@! TA.AperFunction,ViaPad*
%ADD16C,0.800000*%
G04 #@! TD*
G04 #@! TA.AperFunction,Conductor*
%ADD17C,0.200000*%
G04 #@! TD*
G04 APERTURE END LIST*
D10*
G04 #@! TO.N,Board_0-GNDD*
G04 #@! TO.C,TAC5212*
X38671558Y-35935489D03*
X38671558Y-34945539D03*
X39166533Y-35440514D03*
X39661508Y-35935489D03*
X39661508Y-34945539D03*
G04 #@! TD*
G04 #@! TO.N,Board_0-Earth*
G04 #@! TO.C,G110*
X46497500Y-38055000D03*
G04 #@! TD*
G04 #@! TO.N,Board_0-Earth*
G04 #@! TO.C,G113*
X31597500Y-42455000D03*
G04 #@! TD*
G04 #@! TO.N,Board_0-Earth*
G04 #@! TO.C,G114*
X52397500Y-39655000D03*
G04 #@! TD*
G04 #@! TO.N,Board_0-Earth*
G04 #@! TO.C,G116*
X55297500Y-34255000D03*
G04 #@! TD*
G04 #@! TO.N,Board_0-Earth*
G04 #@! TO.C,G115*
X34397500Y-43855000D03*
G04 #@! TD*
G04 #@! TO.N,Board_0-Earth*
G04 #@! TO.C,G109*
X28597500Y-41255000D03*
G04 #@! TD*
D11*
G04 #@! TO.N,Board_0-EN_HELD_HIGH*
G04 #@! TO.C,board_outline108*
X18735000Y-46655000D03*
D12*
G04 #@! TO.N,Board_0-unconnected-(board_outline108-HELD_LOW-Pad2)*
X16195000Y-46655000D03*
G04 #@! TO.N,Board_0-Net-(5V108-Pad2)*
X18735000Y-44115000D03*
G04 #@! TO.N,Board_0-3.3v_IDE*
X16195000Y-44115000D03*
G04 #@! TO.N,Board_0-unconnected-(board_outline108-12V-Pad5)*
X18735000Y-41575000D03*
G04 #@! TO.N,Board_0-GNDD*
X16195000Y-41575000D03*
G04 #@! TO.N,Board_0-5212_DIN1*
X18735000Y-39035000D03*
G04 #@! TO.N,Board_0-GNDD*
X16195000Y-39035000D03*
G04 #@! TO.N,Board_0-5212_DOUT1+*
X18735000Y-36495000D03*
G04 #@! TO.N,Board_0-GNDD*
X16195000Y-36495000D03*
G04 #@! TO.N,Board_0-5212_BCLK1*
X18735000Y-33955000D03*
G04 #@! TO.N,Board_0-GNDD*
X16195000Y-33955000D03*
G04 #@! TO.N,Board_0-5212_LRCK1*
X18735000Y-31415000D03*
G04 #@! TO.N,Board_0-GNDD*
X16195000Y-31415000D03*
G04 #@! TO.N,Board_0-DSP_SDA*
X18735000Y-28875000D03*
G04 #@! TO.N,Board_0-GNDD*
X16195000Y-28875000D03*
G04 #@! TO.N,Board_0-DSP_SCL*
X18735000Y-26335000D03*
G04 #@! TO.N,Board_0-GNDD*
X16195000Y-26335000D03*
G04 #@! TO.N,Board_0-5212_MCLK1*
X18735000Y-23795000D03*
G04 #@! TO.N,Board_0-GNDD*
X16195000Y-23795000D03*
D11*
G04 #@! TO.N,Board_0-OUT1P+*
X31445000Y-26340000D03*
G04 #@! TO.N,Board_0-Earth*
X31445000Y-23800000D03*
D12*
G04 #@! TO.N,Board_0-OUT1M+*
X33985000Y-26340000D03*
G04 #@! TO.N,Board_0-Earth*
X33985000Y-23800000D03*
G04 #@! TO.N,Board_0-OUT2P+*
X36525000Y-26340000D03*
G04 #@! TO.N,Board_0-Earth*
X36525000Y-23800000D03*
G04 #@! TO.N,Board_0-OUT2M+*
X39065000Y-26340000D03*
G04 #@! TO.N,Board_0-Earth*
X39065000Y-23800000D03*
G04 #@! TO.N,Board_0-IN1P+*
X41605000Y-26340000D03*
G04 #@! TO.N,Board_0-Earth*
X41605000Y-23800000D03*
G04 #@! TO.N,Board_0-IN1M+*
X44145000Y-26340000D03*
G04 #@! TO.N,Board_0-Earth*
X44145000Y-23800000D03*
G04 #@! TO.N,Board_0-IN2P+*
X46685000Y-26340000D03*
G04 #@! TO.N,Board_0-Earth*
X46685000Y-23800000D03*
G04 #@! TO.N,Board_0-IN2M+*
X49225000Y-26340000D03*
G04 #@! TO.N,Board_0-Earth*
X49225000Y-23800000D03*
D11*
G04 #@! TO.N,Board_0-5212_SCL*
X31445000Y-46660000D03*
D12*
G04 #@! TO.N,Board_0-5212_SDA*
X33985000Y-46660000D03*
G04 #@! TO.N,Board_0-GNDD*
X36525000Y-46660000D03*
G04 #@! TO.N,Board_0-GPIO1*
X39065000Y-46660000D03*
G04 #@! TO.N,Board_0-GPIO2*
X41605000Y-46660000D03*
G04 #@! TO.N,Board_0-GPO1*
X44145000Y-46660000D03*
G04 #@! TO.N,Board_0-GPI1*
X46685000Y-46660000D03*
G04 #@! TO.N,Board_0-GNDD*
X49225000Y-46660000D03*
G04 #@! TO.N,Board_0-5V*
X54290000Y-41580000D03*
G04 #@! TO.N,Board_0-3.3V_LDO*
X54290000Y-39040000D03*
G04 #@! TO.N,Board_0-GNDD*
X54290000Y-36500000D03*
G04 #@! TO.N,Board_0-MICBIAS*
X51750000Y-26340000D03*
D13*
G04 #@! TO.N,Board_0-Net-(E108-Pad2)*
X26350000Y-23800000D03*
G04 #@! TO.N,Board_0-Net-(E109-Pad2)*
X54290000Y-23800000D03*
G04 #@! TO.N,Board_0-Net-(G117-Pad1)*
X26350000Y-46660000D03*
G04 #@! TO.N,Board_0-Net-(G118-Pad1)*
X54290000Y-46660000D03*
G04 #@! TD*
D10*
G04 #@! TO.N,Board_0-Earth*
G04 #@! TO.C,G111*
X21397500Y-42255000D03*
G04 #@! TD*
G04 #@! TO.N,Board_0-Earth*
G04 #@! TO.C,G112*
X47797500Y-38055000D03*
G04 #@! TD*
G04 #@! TO.N,Board_0-Earth*
G04 #@! TO.C,G108*
X45197500Y-38555000D03*
G04 #@! TD*
D14*
G04 #@! TO.N,Board_0-IN2P*
G04 #@! TO.C,INP2*
X50797500Y-31490000D03*
G04 #@! TD*
G04 #@! TO.N,Board_0-OUT2P*
G04 #@! TO.C,OP2*
X29697500Y-31480000D03*
G04 #@! TD*
G04 #@! TO.N,Board_0-IN2M*
G04 #@! TO.C,INM2*
X54397500Y-31537500D03*
G04 #@! TD*
G04 #@! TO.N,Board_0-IN1P*
G04 #@! TO.C,INP1*
X43597500Y-31480000D03*
G04 #@! TD*
G04 #@! TO.N,Board_0-OUT1M*
G04 #@! TO.C,OM1*
X21397500Y-30555000D03*
G04 #@! TD*
G04 #@! TO.N,Board_0-OUT2M*
G04 #@! TO.C,OM2*
X33597500Y-31255000D03*
G04 #@! TD*
G04 #@! TO.N,Board_0-OUT1P*
G04 #@! TO.C,OP1*
X25397500Y-31555000D03*
G04 #@! TD*
G04 #@! TO.N,Board_0-IN1M*
G04 #@! TO.C,INM1*
X47197500Y-31417500D03*
G04 #@! TD*
D15*
G04 #@! TO.N,Board_0-3.3V_LDO*
X33397500Y-33655000D03*
G04 #@! TO.N,Board_0-3.3v_IDE*
X38259482Y-42803569D03*
X25297500Y-42055000D03*
X24197500Y-40055000D03*
G04 #@! TO.N,Board_0-5212_SCL*
X31331585Y-43755000D03*
G04 #@! TO.N,Board_0-5212_SDA*
X20160290Y-41841552D03*
D16*
G04 #@! TO.N,Board_0-5V*
X23712182Y-43715000D03*
D15*
X53306250Y-42563750D03*
G04 #@! TO.N,Board_0-EN_HELD_HIGH*
X41597500Y-40055000D03*
G04 #@! TO.N,Board_0-Earth*
X25597500Y-27255000D03*
X23797500Y-25055000D03*
X40597500Y-28255000D03*
X32622239Y-31817663D03*
X37150990Y-28704666D03*
X51547500Y-28705000D03*
X54697500Y-26455000D03*
X23797500Y-22455000D03*
X55797500Y-37655000D03*
X21197500Y-47655000D03*
X23997500Y-29855000D03*
G04 #@! TO.N,Board_0-GNDD*
X28797500Y-47855000D03*
X33397500Y-42155000D03*
X54197500Y-43055000D03*
D16*
X38597500Y-31080000D03*
D15*
X48797500Y-38655000D03*
X21647500Y-36055000D03*
X41597500Y-42455000D03*
X22760925Y-42333913D03*
X45197500Y-35255000D03*
X46597500Y-41655000D03*
X22397500Y-38855000D03*
X27397500Y-34055000D03*
X28404087Y-43635000D03*
X22597500Y-47655000D03*
X44997500Y-39455000D03*
G04 #@! TO.N,Board_0-GPI1*
X14997500Y-40455000D03*
G04 #@! TO.N,Board_0-Net-(PU_EN108-Pad1)*
X40101537Y-42280583D03*
X36700948Y-42849456D03*
G04 #@! TD*
D17*
G04 #@! TO.N,Board_0-GPI1*
X44515000Y-44490000D02*
X23391166Y-44490000D01*
X15397500Y-42755000D02*
X14997500Y-42355000D01*
X22526484Y-43455000D02*
X21597500Y-43455000D01*
X20897500Y-42755000D02*
X15397500Y-42755000D01*
X46685000Y-46660000D02*
X44515000Y-44490000D01*
X23391166Y-44490000D02*
X22937182Y-44036016D01*
X22937182Y-44036016D02*
X22937182Y-43865698D01*
X21597500Y-43455000D02*
X20897500Y-42755000D01*
X14997500Y-42355000D02*
X14997500Y-40455000D01*
X22937182Y-43865698D02*
X22526484Y-43455000D01*
G04 #@! TD*
G04 #@! TA.AperFunction,Conductor*
G04 #@! TO.N,Board_0-Earth*
G36*
X33519075Y-23607007D02*
G01*
X33485000Y-23734174D01*
X33485000Y-23865826D01*
X33519075Y-23992993D01*
X33551988Y-24050000D01*
X31878012Y-24050000D01*
X31910925Y-23992993D01*
X31945000Y-23865826D01*
X31945000Y-23734174D01*
X31910925Y-23607007D01*
X31878012Y-23550000D01*
X33551988Y-23550000D01*
X33519075Y-23607007D01*
G37*
G04 #@! TD.AperFunction*
G04 #@! TA.AperFunction,Conductor*
G36*
X36059075Y-23607007D02*
G01*
X36025000Y-23734174D01*
X36025000Y-23865826D01*
X36059075Y-23992993D01*
X36091988Y-24050000D01*
X34418012Y-24050000D01*
X34450925Y-23992993D01*
X34485000Y-23865826D01*
X34485000Y-23734174D01*
X34450925Y-23607007D01*
X34418012Y-23550000D01*
X36091988Y-23550000D01*
X36059075Y-23607007D01*
G37*
G04 #@! TD.AperFunction*
G04 #@! TA.AperFunction,Conductor*
G36*
X38599075Y-23607007D02*
G01*
X38565000Y-23734174D01*
X38565000Y-23865826D01*
X38599075Y-23992993D01*
X38631988Y-24050000D01*
X36958012Y-24050000D01*
X36990925Y-23992993D01*
X37025000Y-23865826D01*
X37025000Y-23734174D01*
X36990925Y-23607007D01*
X36958012Y-23550000D01*
X38631988Y-23550000D01*
X38599075Y-23607007D01*
G37*
G04 #@! TD.AperFunction*
G04 #@! TA.AperFunction,Conductor*
G36*
X41139075Y-23607007D02*
G01*
X41105000Y-23734174D01*
X41105000Y-23865826D01*
X41139075Y-23992993D01*
X41171988Y-24050000D01*
X39498012Y-24050000D01*
X39530925Y-23992993D01*
X39565000Y-23865826D01*
X39565000Y-23734174D01*
X39530925Y-23607007D01*
X39498012Y-23550000D01*
X41171988Y-23550000D01*
X41139075Y-23607007D01*
G37*
G04 #@! TD.AperFunction*
G04 #@! TA.AperFunction,Conductor*
G36*
X43679075Y-23607007D02*
G01*
X43645000Y-23734174D01*
X43645000Y-23865826D01*
X43679075Y-23992993D01*
X43711988Y-24050000D01*
X42038012Y-24050000D01*
X42070925Y-23992993D01*
X42105000Y-23865826D01*
X42105000Y-23734174D01*
X42070925Y-23607007D01*
X42038012Y-23550000D01*
X43711988Y-23550000D01*
X43679075Y-23607007D01*
G37*
G04 #@! TD.AperFunction*
G04 #@! TA.AperFunction,Conductor*
G36*
X46219075Y-23607007D02*
G01*
X46185000Y-23734174D01*
X46185000Y-23865826D01*
X46219075Y-23992993D01*
X46251988Y-24050000D01*
X44578012Y-24050000D01*
X44610925Y-23992993D01*
X44645000Y-23865826D01*
X44645000Y-23734174D01*
X44610925Y-23607007D01*
X44578012Y-23550000D01*
X46251988Y-23550000D01*
X46219075Y-23607007D01*
G37*
G04 #@! TD.AperFunction*
G04 #@! TA.AperFunction,Conductor*
G36*
X48759075Y-23607007D02*
G01*
X48725000Y-23734174D01*
X48725000Y-23865826D01*
X48759075Y-23992993D01*
X48791988Y-24050000D01*
X47118012Y-24050000D01*
X47150925Y-23992993D01*
X47185000Y-23865826D01*
X47185000Y-23734174D01*
X47150925Y-23607007D01*
X47118012Y-23550000D01*
X48791988Y-23550000D01*
X48759075Y-23607007D01*
G37*
G04 #@! TD.AperFunction*
G04 #@! TA.AperFunction,Conductor*
G36*
X25362297Y-22024685D02*
G01*
X25408052Y-22077489D01*
X25417996Y-22146647D01*
X25388971Y-22210203D01*
X25357261Y-22236384D01*
X25319711Y-22258064D01*
X25319706Y-22258067D01*
X25127263Y-22405733D01*
X25127256Y-22405739D01*
X24955739Y-22577256D01*
X24955733Y-22577263D01*
X24808067Y-22769706D01*
X24686777Y-22979785D01*
X24686773Y-22979794D01*
X24593947Y-23203895D01*
X24531161Y-23438214D01*
X24499500Y-23678711D01*
X24499500Y-23921288D01*
X24531161Y-24161785D01*
X24593947Y-24396104D01*
X24686773Y-24620205D01*
X24686777Y-24620214D01*
X24708974Y-24658661D01*
X24808064Y-24830289D01*
X24808066Y-24830292D01*
X24808067Y-24830293D01*
X24955733Y-25022736D01*
X24955739Y-25022743D01*
X25127256Y-25194260D01*
X25127263Y-25194266D01*
X25191894Y-25243859D01*
X25319711Y-25341936D01*
X25529788Y-25463224D01*
X25753900Y-25556054D01*
X25988211Y-25618838D01*
X26168586Y-25642584D01*
X26228711Y-25650500D01*
X26228712Y-25650500D01*
X26471289Y-25650500D01*
X26519388Y-25644167D01*
X26711789Y-25618838D01*
X26946100Y-25556054D01*
X27170212Y-25463224D01*
X27380289Y-25341936D01*
X27572738Y-25194265D01*
X27744265Y-25022738D01*
X27891936Y-24830289D01*
X28013224Y-24620212D01*
X28106054Y-24396100D01*
X28168838Y-24161789D01*
X28200500Y-23921288D01*
X28200500Y-23678712D01*
X28168838Y-23438211D01*
X28106054Y-23203900D01*
X28013224Y-22979788D01*
X27968403Y-22902155D01*
X30095000Y-22902155D01*
X30095000Y-23550000D01*
X31011988Y-23550000D01*
X30979075Y-23607007D01*
X30945000Y-23734174D01*
X30945000Y-23865826D01*
X30979075Y-23992993D01*
X31011988Y-24050000D01*
X30095000Y-24050000D01*
X30095000Y-24697844D01*
X30101401Y-24757372D01*
X30101403Y-24757379D01*
X30151645Y-24892086D01*
X30151649Y-24892093D01*
X30237809Y-25007187D01*
X30237812Y-25007190D01*
X30352906Y-25093350D01*
X30352912Y-25093353D01*
X30374268Y-25101319D01*
X30430201Y-25143191D01*
X30454618Y-25208656D01*
X30439766Y-25276928D01*
X30418619Y-25305179D01*
X30414400Y-25309397D01*
X30359033Y-25392260D01*
X30359032Y-25392264D01*
X30344500Y-25465321D01*
X30344500Y-27214678D01*
X30359032Y-27287735D01*
X30359033Y-27287739D01*
X30359034Y-27287740D01*
X30414399Y-27370601D01*
X30497260Y-27425966D01*
X30497264Y-27425967D01*
X30570321Y-27440499D01*
X30570324Y-27440500D01*
X30570326Y-27440500D01*
X32319676Y-27440500D01*
X32319677Y-27440499D01*
X32392740Y-27425966D01*
X32475601Y-27370601D01*
X32530966Y-27287740D01*
X32545500Y-27214674D01*
X32545500Y-25465326D01*
X32545500Y-25465323D01*
X32545499Y-25465321D01*
X32530967Y-25392264D01*
X32530966Y-25392260D01*
X32497338Y-25341932D01*
X32475601Y-25309399D01*
X32475599Y-25309397D01*
X32475598Y-25309396D01*
X32471384Y-25305182D01*
X32437899Y-25243859D01*
X32442883Y-25174167D01*
X32484755Y-25118234D01*
X32515732Y-25101319D01*
X32537086Y-25093354D01*
X32537093Y-25093350D01*
X32652187Y-25007190D01*
X32652190Y-25007187D01*
X32738350Y-24892093D01*
X32738354Y-24892086D01*
X32787614Y-24760013D01*
X32829485Y-24704079D01*
X32894949Y-24679662D01*
X32963222Y-24694513D01*
X32991477Y-24715665D01*
X33105535Y-24829723D01*
X33105540Y-24829727D01*
X33277442Y-24954620D01*
X33466784Y-25051096D01*
X33565711Y-25083239D01*
X33623387Y-25122676D01*
X33650586Y-25187034D01*
X33638672Y-25255881D01*
X33591428Y-25307357D01*
X33565722Y-25319097D01*
X33564522Y-25319487D01*
X33562550Y-25320128D01*
X33408211Y-25398768D01*
X33328256Y-25456859D01*
X33268072Y-25500586D01*
X33268070Y-25500588D01*
X33268069Y-25500588D01*
X33145588Y-25623069D01*
X33145588Y-25623070D01*
X33145586Y-25623072D01*
X33101859Y-25683256D01*
X33043768Y-25763211D01*
X32965128Y-25917552D01*
X32911597Y-26082302D01*
X32884500Y-26253389D01*
X32884500Y-26426611D01*
X32911598Y-26597701D01*
X32965127Y-26762445D01*
X33043768Y-26916788D01*
X33145586Y-27056928D01*
X33268072Y-27179414D01*
X33408212Y-27281232D01*
X33562555Y-27359873D01*
X33727299Y-27413402D01*
X33898389Y-27440500D01*
X33898390Y-27440500D01*
X34071610Y-27440500D01*
X34071611Y-27440500D01*
X34242701Y-27413402D01*
X34407445Y-27359873D01*
X34561788Y-27281232D01*
X34701928Y-27179414D01*
X34824414Y-27056928D01*
X34926232Y-26916788D01*
X35004873Y-26762445D01*
X35058402Y-26597701D01*
X35085500Y-26426611D01*
X35085500Y-26253389D01*
X35058402Y-26082299D01*
X35004873Y-25917555D01*
X34926232Y-25763212D01*
X34824414Y-25623072D01*
X34701928Y-25500586D01*
X34561788Y-25398768D01*
X34549015Y-25392260D01*
X34407446Y-25320127D01*
X34404284Y-25319100D01*
X34403236Y-25318383D01*
X34402952Y-25318266D01*
X34402976Y-25318206D01*
X34346609Y-25279661D01*
X34319413Y-25215302D01*
X34331329Y-25146456D01*
X34378574Y-25094981D01*
X34404288Y-25083239D01*
X34503215Y-25051096D01*
X34692557Y-24954620D01*
X34864459Y-24829727D01*
X34864464Y-24829723D01*
X35014723Y-24679464D01*
X35014727Y-24679459D01*
X35139620Y-24507558D01*
X35144514Y-24497954D01*
X35192488Y-24447157D01*
X35260308Y-24430361D01*
X35326444Y-24452897D01*
X35365486Y-24497954D01*
X35370379Y-24507558D01*
X35495272Y-24679459D01*
X35495276Y-24679464D01*
X35645535Y-24829723D01*
X35645540Y-24829727D01*
X35817442Y-24954620D01*
X36006784Y-25051096D01*
X36105711Y-25083239D01*
X36163387Y-25122676D01*
X36190586Y-25187034D01*
X36178672Y-25255881D01*
X36131428Y-25307357D01*
X36105722Y-25319097D01*
X36104522Y-25319487D01*
X36102550Y-25320128D01*
X35948211Y-25398768D01*
X35868256Y-25456859D01*
X35808072Y-25500586D01*
X35808070Y-25500588D01*
X35808069Y-25500588D01*
X35685588Y-25623069D01*
X35685588Y-25623070D01*
X35685586Y-25623072D01*
X35641859Y-25683256D01*
X35583768Y-25763211D01*
X35505128Y-25917552D01*
X35451597Y-26082302D01*
X35424500Y-26253389D01*
X35424500Y-26426611D01*
X35451598Y-26597701D01*
X35505127Y-26762445D01*
X35583768Y-26916788D01*
X35685586Y-27056928D01*
X35808072Y-27179414D01*
X35948212Y-27281232D01*
X36102555Y-27359873D01*
X36267299Y-27413402D01*
X36438389Y-27440500D01*
X36438390Y-27440500D01*
X36611610Y-27440500D01*
X36611611Y-27440500D01*
X36782701Y-27413402D01*
X36947445Y-27359873D01*
X37101788Y-27281232D01*
X37241928Y-27179414D01*
X37364414Y-27056928D01*
X37466232Y-26916788D01*
X37544873Y-26762445D01*
X37598402Y-26597701D01*
X37625500Y-26426611D01*
X37625500Y-26253389D01*
X37598402Y-26082299D01*
X37544873Y-25917555D01*
X37466232Y-25763212D01*
X37364414Y-25623072D01*
X37241928Y-25500586D01*
X37101788Y-25398768D01*
X37089015Y-25392260D01*
X36947446Y-25320127D01*
X36944284Y-25319100D01*
X36943236Y-25318383D01*
X36942952Y-25318266D01*
X36942976Y-25318206D01*
X36886609Y-25279661D01*
X36859413Y-25215302D01*
X36871329Y-25146456D01*
X36918574Y-25094981D01*
X36944288Y-25083239D01*
X37043215Y-25051096D01*
X37232557Y-24954620D01*
X37404459Y-24829727D01*
X37404464Y-24829723D01*
X37554723Y-24679464D01*
X37554727Y-24679459D01*
X37679620Y-24507558D01*
X37684514Y-24497954D01*
X37732488Y-24447157D01*
X37800308Y-24430361D01*
X37866444Y-24452897D01*
X37905486Y-24497954D01*
X37910379Y-24507558D01*
X38035272Y-24679459D01*
X38035276Y-24679464D01*
X38185535Y-24829723D01*
X38185540Y-24829727D01*
X38357442Y-24954620D01*
X38546784Y-25051096D01*
X38645711Y-25083239D01*
X38703387Y-25122676D01*
X38730586Y-25187034D01*
X38718672Y-25255881D01*
X38671428Y-25307357D01*
X38645722Y-25319097D01*
X38644522Y-25319487D01*
X38642550Y-25320128D01*
X38488211Y-25398768D01*
X38408256Y-25456859D01*
X38348072Y-25500586D01*
X38348070Y-25500588D01*
X38348069Y-25500588D01*
X38225588Y-25623069D01*
X38225588Y-25623070D01*
X38225586Y-25623072D01*
X38181859Y-25683256D01*
X38123768Y-25763211D01*
X38045128Y-25917552D01*
X37991597Y-26082302D01*
X37964500Y-26253389D01*
X37964500Y-26426611D01*
X37991598Y-26597701D01*
X38045127Y-26762445D01*
X38123768Y-26916788D01*
X38225586Y-27056928D01*
X38348072Y-27179414D01*
X38488212Y-27281232D01*
X38642555Y-27359873D01*
X38807299Y-27413402D01*
X38978389Y-27440500D01*
X38978390Y-27440500D01*
X39151610Y-27440500D01*
X39151611Y-27440500D01*
X39322701Y-27413402D01*
X39487445Y-27359873D01*
X39641788Y-27281232D01*
X39781928Y-27179414D01*
X39904414Y-27056928D01*
X40006232Y-26916788D01*
X40084873Y-26762445D01*
X40138402Y-26597701D01*
X40165500Y-26426611D01*
X40165500Y-26253389D01*
X40138402Y-26082299D01*
X40084873Y-25917555D01*
X40006232Y-25763212D01*
X39904414Y-25623072D01*
X39781928Y-25500586D01*
X39641788Y-25398768D01*
X39629015Y-25392260D01*
X39487446Y-25320127D01*
X39484284Y-25319100D01*
X39483236Y-25318383D01*
X39482952Y-25318266D01*
X39482976Y-25318206D01*
X39426609Y-25279661D01*
X39399413Y-25215302D01*
X39411329Y-25146456D01*
X39458574Y-25094981D01*
X39484288Y-25083239D01*
X39583215Y-25051096D01*
X39772557Y-24954620D01*
X39944459Y-24829727D01*
X39944464Y-24829723D01*
X40094723Y-24679464D01*
X40094727Y-24679459D01*
X40219620Y-24507558D01*
X40224514Y-24497954D01*
X40272488Y-24447157D01*
X40340308Y-24430361D01*
X40406444Y-24452897D01*
X40445486Y-24497954D01*
X40450379Y-24507558D01*
X40575272Y-24679459D01*
X40575276Y-24679464D01*
X40725535Y-24829723D01*
X40725540Y-24829727D01*
X40897442Y-24954620D01*
X41086784Y-25051096D01*
X41185711Y-25083239D01*
X41243387Y-25122676D01*
X41270586Y-25187034D01*
X41258672Y-25255881D01*
X41211428Y-25307357D01*
X41185722Y-25319097D01*
X41184522Y-25319487D01*
X41182550Y-25320128D01*
X41028211Y-25398768D01*
X40948256Y-25456859D01*
X40888072Y-25500586D01*
X40888070Y-25500588D01*
X40888069Y-25500588D01*
X40765588Y-25623069D01*
X40765588Y-25623070D01*
X40765586Y-25623072D01*
X40721859Y-25683256D01*
X40663768Y-25763211D01*
X40585128Y-25917552D01*
X40531597Y-26082302D01*
X40504500Y-26253389D01*
X40504500Y-26426611D01*
X40531598Y-26597701D01*
X40585127Y-26762445D01*
X40663768Y-26916788D01*
X40765586Y-27056928D01*
X40888072Y-27179414D01*
X41028212Y-27281232D01*
X41182555Y-27359873D01*
X41347299Y-27413402D01*
X41518389Y-27440500D01*
X41518390Y-27440500D01*
X41691610Y-27440500D01*
X41691611Y-27440500D01*
X41862701Y-27413402D01*
X42027445Y-27359873D01*
X42181788Y-27281232D01*
X42321928Y-27179414D01*
X42444414Y-27056928D01*
X42546232Y-26916788D01*
X42624873Y-26762445D01*
X42678402Y-26597701D01*
X42705500Y-26426611D01*
X42705500Y-26253389D01*
X42678402Y-26082299D01*
X42624873Y-25917555D01*
X42546232Y-25763212D01*
X42444414Y-25623072D01*
X42321928Y-25500586D01*
X42181788Y-25398768D01*
X42169015Y-25392260D01*
X42027446Y-25320127D01*
X42024284Y-25319100D01*
X42023236Y-25318383D01*
X42022952Y-25318266D01*
X42022976Y-25318206D01*
X41966609Y-25279661D01*
X41939413Y-25215302D01*
X41951329Y-25146456D01*
X41998574Y-25094981D01*
X42024288Y-25083239D01*
X42123215Y-25051096D01*
X42312557Y-24954620D01*
X42484459Y-24829727D01*
X42484464Y-24829723D01*
X42634723Y-24679464D01*
X42634727Y-24679459D01*
X42759620Y-24507558D01*
X42764514Y-24497954D01*
X42812488Y-24447157D01*
X42880308Y-24430361D01*
X42946444Y-24452897D01*
X42985486Y-24497954D01*
X42990379Y-24507558D01*
X43115272Y-24679459D01*
X43115276Y-24679464D01*
X43265535Y-24829723D01*
X43265540Y-24829727D01*
X43437442Y-24954620D01*
X43626784Y-25051096D01*
X43725711Y-25083239D01*
X43783387Y-25122676D01*
X43810586Y-25187034D01*
X43798672Y-25255881D01*
X43751428Y-25307357D01*
X43725722Y-25319097D01*
X43724522Y-25319487D01*
X43722550Y-25320128D01*
X43568211Y-25398768D01*
X43488256Y-25456859D01*
X43428072Y-25500586D01*
X43428070Y-25500588D01*
X43428069Y-25500588D01*
X43305588Y-25623069D01*
X43305588Y-25623070D01*
X43305586Y-25623072D01*
X43261859Y-25683256D01*
X43203768Y-25763211D01*
X43125128Y-25917552D01*
X43071597Y-26082302D01*
X43044500Y-26253389D01*
X43044500Y-26426611D01*
X43071598Y-26597701D01*
X43125127Y-26762445D01*
X43203768Y-26916788D01*
X43305586Y-27056928D01*
X43428072Y-27179414D01*
X43568212Y-27281232D01*
X43722555Y-27359873D01*
X43887299Y-27413402D01*
X44058389Y-27440500D01*
X44058390Y-27440500D01*
X44231610Y-27440500D01*
X44231611Y-27440500D01*
X44402701Y-27413402D01*
X44567445Y-27359873D01*
X44721788Y-27281232D01*
X44861928Y-27179414D01*
X44984414Y-27056928D01*
X45086232Y-26916788D01*
X45164873Y-26762445D01*
X45218402Y-26597701D01*
X45245500Y-26426611D01*
X45245500Y-26253389D01*
X45218402Y-26082299D01*
X45164873Y-25917555D01*
X45086232Y-25763212D01*
X44984414Y-25623072D01*
X44861928Y-25500586D01*
X44721788Y-25398768D01*
X44709015Y-25392260D01*
X44567446Y-25320127D01*
X44564284Y-25319100D01*
X44563236Y-25318383D01*
X44562952Y-25318266D01*
X44562976Y-25318206D01*
X44506609Y-25279661D01*
X44479413Y-25215302D01*
X44491329Y-25146456D01*
X44538574Y-25094981D01*
X44564288Y-25083239D01*
X44663215Y-25051096D01*
X44852557Y-24954620D01*
X45024459Y-24829727D01*
X45024464Y-24829723D01*
X45174723Y-24679464D01*
X45174727Y-24679459D01*
X45299620Y-24507558D01*
X45304514Y-24497954D01*
X45352488Y-24447157D01*
X45420308Y-24430361D01*
X45486444Y-24452897D01*
X45525486Y-24497954D01*
X45530379Y-24507558D01*
X45655272Y-24679459D01*
X45655276Y-24679464D01*
X45805535Y-24829723D01*
X45805540Y-24829727D01*
X45977442Y-24954620D01*
X46166784Y-25051096D01*
X46265711Y-25083239D01*
X46323387Y-25122676D01*
X46350586Y-25187034D01*
X46338672Y-25255881D01*
X46291428Y-25307357D01*
X46265722Y-25319097D01*
X46264522Y-25319487D01*
X46262550Y-25320128D01*
X46108211Y-25398768D01*
X46028256Y-25456859D01*
X45968072Y-25500586D01*
X45968070Y-25500588D01*
X45968069Y-25500588D01*
X45845588Y-25623069D01*
X45845588Y-25623070D01*
X45845586Y-25623072D01*
X45801859Y-25683256D01*
X45743768Y-25763211D01*
X45665128Y-25917552D01*
X45611597Y-26082302D01*
X45584500Y-26253389D01*
X45584500Y-26426611D01*
X45611598Y-26597701D01*
X45665127Y-26762445D01*
X45743768Y-26916788D01*
X45845586Y-27056928D01*
X45968072Y-27179414D01*
X46108212Y-27281232D01*
X46262555Y-27359873D01*
X46427299Y-27413402D01*
X46598389Y-27440500D01*
X46598390Y-27440500D01*
X46771610Y-27440500D01*
X46771611Y-27440500D01*
X46942701Y-27413402D01*
X47107445Y-27359873D01*
X47261788Y-27281232D01*
X47401928Y-27179414D01*
X47524414Y-27056928D01*
X47626232Y-26916788D01*
X47704873Y-26762445D01*
X47758402Y-26597701D01*
X47785500Y-26426611D01*
X47785500Y-26253389D01*
X47758402Y-26082299D01*
X47704873Y-25917555D01*
X47626232Y-25763212D01*
X47524414Y-25623072D01*
X47401928Y-25500586D01*
X47261788Y-25398768D01*
X47249015Y-25392260D01*
X47107446Y-25320127D01*
X47104284Y-25319100D01*
X47103236Y-25318383D01*
X47102952Y-25318266D01*
X47102976Y-25318206D01*
X47046609Y-25279661D01*
X47019413Y-25215302D01*
X47031329Y-25146456D01*
X47078574Y-25094981D01*
X47104288Y-25083239D01*
X47203215Y-25051096D01*
X47392557Y-24954620D01*
X47564459Y-24829727D01*
X47564464Y-24829723D01*
X47714723Y-24679464D01*
X47714727Y-24679459D01*
X47839620Y-24507558D01*
X47844514Y-24497954D01*
X47892488Y-24447157D01*
X47960308Y-24430361D01*
X48026444Y-24452897D01*
X48065486Y-24497954D01*
X48070379Y-24507558D01*
X48195272Y-24679459D01*
X48195276Y-24679464D01*
X48345535Y-24829723D01*
X48345540Y-24829727D01*
X48517442Y-24954620D01*
X48706784Y-25051096D01*
X48805711Y-25083239D01*
X48863387Y-25122676D01*
X48890586Y-25187034D01*
X48878672Y-25255881D01*
X48831428Y-25307357D01*
X48805722Y-25319097D01*
X48804522Y-25319487D01*
X48802550Y-25320128D01*
X48648211Y-25398768D01*
X48568256Y-25456859D01*
X48508072Y-25500586D01*
X48508070Y-25500588D01*
X48508069Y-25500588D01*
X48385588Y-25623069D01*
X48385588Y-25623070D01*
X48385586Y-25623072D01*
X48341859Y-25683256D01*
X48283768Y-25763211D01*
X48205128Y-25917552D01*
X48151597Y-26082302D01*
X48124500Y-26253389D01*
X48124500Y-26426611D01*
X48151598Y-26597701D01*
X48205127Y-26762445D01*
X48283768Y-26916788D01*
X48385586Y-27056928D01*
X48508072Y-27179414D01*
X48648212Y-27281232D01*
X48802555Y-27359873D01*
X48967299Y-27413402D01*
X49138389Y-27440500D01*
X49138390Y-27440500D01*
X49311610Y-27440500D01*
X49311611Y-27440500D01*
X49482701Y-27413402D01*
X49647445Y-27359873D01*
X49801788Y-27281232D01*
X49941928Y-27179414D01*
X50064414Y-27056928D01*
X50166232Y-26916788D01*
X50244873Y-26762445D01*
X50298402Y-26597701D01*
X50325500Y-26426611D01*
X50325500Y-26253389D01*
X50649500Y-26253389D01*
X50649500Y-26426611D01*
X50676598Y-26597701D01*
X50730127Y-26762445D01*
X50808768Y-26916788D01*
X50910586Y-27056928D01*
X51033072Y-27179414D01*
X51173212Y-27281232D01*
X51327555Y-27359873D01*
X51492299Y-27413402D01*
X51663389Y-27440500D01*
X51663390Y-27440500D01*
X51836610Y-27440500D01*
X51836611Y-27440500D01*
X52007701Y-27413402D01*
X52172445Y-27359873D01*
X52326788Y-27281232D01*
X52466928Y-27179414D01*
X52589414Y-27056928D01*
X52691232Y-26916788D01*
X52769873Y-26762445D01*
X52823402Y-26597701D01*
X52850500Y-26426611D01*
X52850500Y-26253389D01*
X52823402Y-26082299D01*
X52769873Y-25917555D01*
X52691232Y-25763212D01*
X52589414Y-25623072D01*
X52466928Y-25500586D01*
X52326788Y-25398768D01*
X52172445Y-25320127D01*
X52007701Y-25266598D01*
X52007699Y-25266597D01*
X52007698Y-25266597D01*
X51876271Y-25245781D01*
X51836611Y-25239500D01*
X51663389Y-25239500D01*
X51623728Y-25245781D01*
X51492302Y-25266597D01*
X51492299Y-25266598D01*
X51332923Y-25318383D01*
X51327552Y-25320128D01*
X51173211Y-25398768D01*
X51093256Y-25456859D01*
X51033072Y-25500586D01*
X51033070Y-25500588D01*
X51033069Y-25500588D01*
X50910588Y-25623069D01*
X50910588Y-25623070D01*
X50910586Y-25623072D01*
X50866859Y-25683256D01*
X50808768Y-25763211D01*
X50730128Y-25917552D01*
X50676597Y-26082302D01*
X50649500Y-26253389D01*
X50325500Y-26253389D01*
X50298402Y-26082299D01*
X50244873Y-25917555D01*
X50166232Y-25763212D01*
X50064414Y-25623072D01*
X49941928Y-25500586D01*
X49801788Y-25398768D01*
X49789015Y-25392260D01*
X49647446Y-25320127D01*
X49644284Y-25319100D01*
X49643236Y-25318383D01*
X49642952Y-25318266D01*
X49642976Y-25318206D01*
X49586609Y-25279661D01*
X49559413Y-25215302D01*
X49571329Y-25146456D01*
X49618574Y-25094981D01*
X49644288Y-25083239D01*
X49743215Y-25051096D01*
X49932557Y-24954620D01*
X50104459Y-24829727D01*
X50104464Y-24829723D01*
X50254723Y-24679464D01*
X50254727Y-24679459D01*
X50379620Y-24507557D01*
X50476095Y-24318217D01*
X50541757Y-24116129D01*
X50541757Y-24116126D01*
X50552231Y-24050000D01*
X49658012Y-24050000D01*
X49690925Y-23992993D01*
X49725000Y-23865826D01*
X49725000Y-23734174D01*
X49690925Y-23607007D01*
X49658012Y-23550000D01*
X50552231Y-23550000D01*
X50541757Y-23483873D01*
X50541757Y-23483870D01*
X50476095Y-23281782D01*
X50379620Y-23092442D01*
X50254727Y-22920540D01*
X50254723Y-22920535D01*
X50104464Y-22770276D01*
X50104459Y-22770272D01*
X49932557Y-22645379D01*
X49743215Y-22548903D01*
X49541124Y-22483241D01*
X49475000Y-22472768D01*
X49475000Y-23366988D01*
X49417993Y-23334075D01*
X49290826Y-23300000D01*
X49159174Y-23300000D01*
X49032007Y-23334075D01*
X48975000Y-23366988D01*
X48975000Y-22472768D01*
X48974999Y-22472768D01*
X48908875Y-22483241D01*
X48706784Y-22548903D01*
X48517442Y-22645379D01*
X48345540Y-22770272D01*
X48345535Y-22770276D01*
X48195276Y-22920535D01*
X48195272Y-22920540D01*
X48070377Y-23092444D01*
X48065484Y-23102048D01*
X48017509Y-23152844D01*
X47949688Y-23169638D01*
X47883553Y-23147100D01*
X47844516Y-23102048D01*
X47839622Y-23092444D01*
X47714727Y-22920540D01*
X47714723Y-22920535D01*
X47564464Y-22770276D01*
X47564459Y-22770272D01*
X47392557Y-22645379D01*
X47203215Y-22548903D01*
X47001124Y-22483241D01*
X46935000Y-22472768D01*
X46935000Y-23366988D01*
X46877993Y-23334075D01*
X46750826Y-23300000D01*
X46619174Y-23300000D01*
X46492007Y-23334075D01*
X46435000Y-23366988D01*
X46435000Y-22472768D01*
X46434999Y-22472768D01*
X46368875Y-22483241D01*
X46166784Y-22548903D01*
X45977442Y-22645379D01*
X45805540Y-22770272D01*
X45805535Y-22770276D01*
X45655276Y-22920535D01*
X45655272Y-22920540D01*
X45530377Y-23092444D01*
X45525484Y-23102048D01*
X45477509Y-23152844D01*
X45409688Y-23169638D01*
X45343553Y-23147100D01*
X45304516Y-23102048D01*
X45299622Y-23092444D01*
X45174727Y-22920540D01*
X45174723Y-22920535D01*
X45024464Y-22770276D01*
X45024459Y-22770272D01*
X44852557Y-22645379D01*
X44663215Y-22548903D01*
X44461124Y-22483241D01*
X44395000Y-22472768D01*
X44395000Y-23366988D01*
X44337993Y-23334075D01*
X44210826Y-23300000D01*
X44079174Y-23300000D01*
X43952007Y-23334075D01*
X43895000Y-23366988D01*
X43895000Y-22472768D01*
X43894999Y-22472768D01*
X43828875Y-22483241D01*
X43626784Y-22548903D01*
X43437442Y-22645379D01*
X43265540Y-22770272D01*
X43265535Y-22770276D01*
X43115276Y-22920535D01*
X43115272Y-22920540D01*
X42990377Y-23092444D01*
X42985484Y-23102048D01*
X42937509Y-23152844D01*
X42869688Y-23169638D01*
X42803553Y-23147100D01*
X42764516Y-23102048D01*
X42759622Y-23092444D01*
X42634727Y-22920540D01*
X42634723Y-22920535D01*
X42484464Y-22770276D01*
X42484459Y-22770272D01*
X42312557Y-22645379D01*
X42123215Y-22548903D01*
X41921124Y-22483241D01*
X41855000Y-22472768D01*
X41855000Y-23366988D01*
X41797993Y-23334075D01*
X41670826Y-23300000D01*
X41539174Y-23300000D01*
X41412007Y-23334075D01*
X41355000Y-23366988D01*
X41355000Y-22472768D01*
X41354999Y-22472768D01*
X41288875Y-22483241D01*
X41086784Y-22548903D01*
X40897442Y-22645379D01*
X40725540Y-22770272D01*
X40725535Y-22770276D01*
X40575276Y-22920535D01*
X40575272Y-22920540D01*
X40450377Y-23092444D01*
X40445484Y-23102048D01*
X40397509Y-23152844D01*
X40329688Y-23169638D01*
X40263553Y-23147100D01*
X40224516Y-23102048D01*
X40219622Y-23092444D01*
X40094727Y-22920540D01*
X40094723Y-22920535D01*
X39944464Y-22770276D01*
X39944459Y-22770272D01*
X39772557Y-22645379D01*
X39583215Y-22548903D01*
X39381124Y-22483241D01*
X39315000Y-22472768D01*
X39315000Y-23366988D01*
X39257993Y-23334075D01*
X39130826Y-23300000D01*
X38999174Y-23300000D01*
X38872007Y-23334075D01*
X38815000Y-23366988D01*
X38815000Y-22472768D01*
X38814999Y-22472768D01*
X38748875Y-22483241D01*
X38546784Y-22548903D01*
X38357442Y-22645379D01*
X38185540Y-22770272D01*
X38185535Y-22770276D01*
X38035276Y-22920535D01*
X38035272Y-22920540D01*
X37910377Y-23092444D01*
X37905484Y-23102048D01*
X37857509Y-23152844D01*
X37789688Y-23169638D01*
X37723553Y-23147100D01*
X37684516Y-23102048D01*
X37679622Y-23092444D01*
X37554727Y-22920540D01*
X37554723Y-22920535D01*
X37404464Y-22770276D01*
X37404459Y-22770272D01*
X37232557Y-22645379D01*
X37043215Y-22548903D01*
X36841124Y-22483241D01*
X36775000Y-22472768D01*
X36775000Y-23366988D01*
X36717993Y-23334075D01*
X36590826Y-23300000D01*
X36459174Y-23300000D01*
X36332007Y-23334075D01*
X36275000Y-23366988D01*
X36275000Y-22472768D01*
X36274999Y-22472768D01*
X36208875Y-22483241D01*
X36006784Y-22548903D01*
X35817442Y-22645379D01*
X35645540Y-22770272D01*
X35645535Y-22770276D01*
X35495276Y-22920535D01*
X35495272Y-22920540D01*
X35370377Y-23092444D01*
X35365484Y-23102048D01*
X35317509Y-23152844D01*
X35249688Y-23169638D01*
X35183553Y-23147100D01*
X35144516Y-23102048D01*
X35139622Y-23092444D01*
X35014727Y-22920540D01*
X35014723Y-22920535D01*
X34864464Y-22770276D01*
X34864459Y-22770272D01*
X34692557Y-22645379D01*
X34503215Y-22548903D01*
X34301124Y-22483241D01*
X34235000Y-22472768D01*
X34235000Y-23366988D01*
X34177993Y-23334075D01*
X34050826Y-23300000D01*
X33919174Y-23300000D01*
X33792007Y-23334075D01*
X33735000Y-23366988D01*
X33735000Y-22472768D01*
X33734999Y-22472768D01*
X33668875Y-22483241D01*
X33466784Y-22548903D01*
X33277442Y-22645379D01*
X33105541Y-22770271D01*
X32991477Y-22884335D01*
X32930154Y-22917819D01*
X32860462Y-22912835D01*
X32804529Y-22870963D01*
X32787614Y-22839986D01*
X32738354Y-22707913D01*
X32738350Y-22707906D01*
X32652190Y-22592812D01*
X32652187Y-22592809D01*
X32537093Y-22506649D01*
X32537086Y-22506645D01*
X32402379Y-22456403D01*
X32402372Y-22456401D01*
X32342844Y-22450000D01*
X31695000Y-22450000D01*
X31695000Y-23366988D01*
X31637993Y-23334075D01*
X31510826Y-23300000D01*
X31379174Y-23300000D01*
X31252007Y-23334075D01*
X31195000Y-23366988D01*
X31195000Y-22450000D01*
X30547155Y-22450000D01*
X30487627Y-22456401D01*
X30487620Y-22456403D01*
X30352913Y-22506645D01*
X30352906Y-22506649D01*
X30237812Y-22592809D01*
X30237809Y-22592812D01*
X30151649Y-22707906D01*
X30151645Y-22707913D01*
X30101403Y-22842620D01*
X30101401Y-22842627D01*
X30095000Y-22902155D01*
X27968403Y-22902155D01*
X27891936Y-22769711D01*
X27744265Y-22577262D01*
X27744260Y-22577256D01*
X27572743Y-22405739D01*
X27572736Y-22405733D01*
X27380293Y-22258067D01*
X27380292Y-22258066D01*
X27380289Y-22258064D01*
X27342740Y-22236385D01*
X27294527Y-22185820D01*
X27281303Y-22117213D01*
X27307271Y-22052349D01*
X27364185Y-22011820D01*
X27404742Y-22005000D01*
X53235258Y-22005000D01*
X53302297Y-22024685D01*
X53348052Y-22077489D01*
X53357996Y-22146647D01*
X53328971Y-22210203D01*
X53297261Y-22236384D01*
X53259711Y-22258064D01*
X53259706Y-22258067D01*
X53067263Y-22405733D01*
X53067256Y-22405739D01*
X52895739Y-22577256D01*
X52895733Y-22577263D01*
X52748067Y-22769706D01*
X52626777Y-22979785D01*
X52626773Y-22979794D01*
X52533947Y-23203895D01*
X52471161Y-23438214D01*
X52439500Y-23678711D01*
X52439500Y-23921288D01*
X52471161Y-24161785D01*
X52533947Y-24396104D01*
X52626773Y-24620205D01*
X52626777Y-24620214D01*
X52648974Y-24658661D01*
X52748064Y-24830289D01*
X52748066Y-24830292D01*
X52748067Y-24830293D01*
X52895733Y-25022736D01*
X52895739Y-25022743D01*
X53067256Y-25194260D01*
X53067263Y-25194266D01*
X53131894Y-25243859D01*
X53259711Y-25341936D01*
X53469788Y-25463224D01*
X53693900Y-25556054D01*
X53928211Y-25618838D01*
X54108586Y-25642584D01*
X54168711Y-25650500D01*
X54168712Y-25650500D01*
X54411289Y-25650500D01*
X54459388Y-25644167D01*
X54651789Y-25618838D01*
X54886100Y-25556054D01*
X55110212Y-25463224D01*
X55320289Y-25341936D01*
X55512738Y-25194265D01*
X55684265Y-25022738D01*
X55831936Y-24830289D01*
X55953224Y-24620212D01*
X55971177Y-24576867D01*
X56015017Y-24522467D01*
X56081311Y-24500401D01*
X56149010Y-24517680D01*
X56196621Y-24568816D01*
X56209737Y-24623743D01*
X56229499Y-28852786D01*
X56229500Y-28853365D01*
X56229500Y-32581498D01*
X56209815Y-32648537D01*
X56157011Y-32694292D01*
X56105937Y-32705497D01*
X45828852Y-32741700D01*
X43320983Y-35103299D01*
X43258682Y-35134928D01*
X43231701Y-35136951D01*
X42297502Y-35104740D01*
X40194909Y-35425647D01*
X40125667Y-35416302D01*
X40072469Y-35371006D01*
X40052205Y-35304139D01*
X40068812Y-35241067D01*
X40127900Y-35138725D01*
X40162008Y-35011431D01*
X40162008Y-34879647D01*
X40127900Y-34752353D01*
X40062008Y-34638225D01*
X39968822Y-34545039D01*
X39887513Y-34498095D01*
X39854695Y-34479147D01*
X39791047Y-34462093D01*
X39727400Y-34445039D01*
X39595616Y-34445039D01*
X39468320Y-34479147D01*
X39354194Y-34545039D01*
X39354191Y-34545041D01*
X39255261Y-34643972D01*
X39253075Y-34641786D01*
X39208461Y-34674351D01*
X39138715Y-34678494D01*
X39077800Y-34644272D01*
X39075820Y-34641987D01*
X38978874Y-34545041D01*
X38978872Y-34545039D01*
X38897563Y-34498095D01*
X38864745Y-34479147D01*
X38801097Y-34462093D01*
X38737450Y-34445039D01*
X38605666Y-34445039D01*
X38478370Y-34479147D01*
X38364244Y-34545039D01*
X38364241Y-34545041D01*
X38271060Y-34638222D01*
X38271058Y-34638225D01*
X38205166Y-34752351D01*
X38171058Y-34879647D01*
X38171058Y-35011430D01*
X38205166Y-35138726D01*
X38236155Y-35192399D01*
X38271058Y-35252853D01*
X38271059Y-35252854D01*
X38275122Y-35259891D01*
X38273645Y-35260743D01*
X38295319Y-35316804D01*
X38281281Y-35385249D01*
X38232468Y-35435240D01*
X38172432Y-35451121D01*
X30151054Y-35495322D01*
X30083907Y-35476007D01*
X30060569Y-35456832D01*
X28358972Y-33669779D01*
X28285292Y-33592399D01*
X32922000Y-33592399D01*
X32922000Y-33717601D01*
X32954405Y-33838536D01*
X33017005Y-33946964D01*
X33105536Y-34035495D01*
X33213964Y-34098095D01*
X33334899Y-34130500D01*
X33334901Y-34130500D01*
X33460099Y-34130500D01*
X33460101Y-34130500D01*
X33581036Y-34098095D01*
X33689464Y-34035495D01*
X33777995Y-33946964D01*
X33840595Y-33838536D01*
X33873000Y-33717601D01*
X33873000Y-33592399D01*
X33840595Y-33471464D01*
X33777995Y-33363036D01*
X33689464Y-33274505D01*
X33581036Y-33211905D01*
X33581037Y-33211905D01*
X33540724Y-33201103D01*
X33460101Y-33179500D01*
X33334899Y-33179500D01*
X33254275Y-33201103D01*
X33213963Y-33211905D01*
X33105537Y-33274504D01*
X33105534Y-33274506D01*
X33017006Y-33363034D01*
X33017004Y-33363037D01*
X32954405Y-33471463D01*
X32954405Y-33471464D01*
X32922000Y-33592399D01*
X28285292Y-33592399D01*
X27297500Y-32555000D01*
X21235044Y-32555000D01*
X21168005Y-32535315D01*
X21166261Y-32534174D01*
X20952397Y-32391598D01*
X20907536Y-32338033D01*
X20897181Y-32289023D01*
X20895983Y-32040966D01*
X20892307Y-31280321D01*
X24897000Y-31280321D01*
X24897000Y-31829678D01*
X24911532Y-31902735D01*
X24911533Y-31902739D01*
X24921730Y-31918000D01*
X24966899Y-31985601D01*
X25045321Y-32038000D01*
X25049760Y-32040966D01*
X25049764Y-32040967D01*
X25122821Y-32055499D01*
X25122824Y-32055500D01*
X25122826Y-32055500D01*
X25672176Y-32055500D01*
X25672177Y-32055499D01*
X25745240Y-32040966D01*
X25828101Y-31985601D01*
X25883466Y-31902740D01*
X25898000Y-31829674D01*
X25898000Y-31280326D01*
X25898000Y-31280323D01*
X25886682Y-31223426D01*
X25886681Y-31223424D01*
X25885070Y-31215326D01*
X25883466Y-31207260D01*
X25882170Y-31205321D01*
X29197000Y-31205321D01*
X29197000Y-31754678D01*
X29211532Y-31827735D01*
X29211533Y-31827739D01*
X29229905Y-31855235D01*
X29266899Y-31910601D01*
X29349760Y-31965966D01*
X29349764Y-31965967D01*
X29422821Y-31980499D01*
X29422824Y-31980500D01*
X29422826Y-31980500D01*
X29972176Y-31980500D01*
X29972177Y-31980499D01*
X30045240Y-31965966D01*
X30128101Y-31910601D01*
X30183466Y-31827740D01*
X30198000Y-31754674D01*
X30198000Y-31205326D01*
X30198000Y-31205323D01*
X30197999Y-31205321D01*
X30183467Y-31132264D01*
X30183466Y-31132260D01*
X30128101Y-31049399D01*
X30045239Y-30994033D01*
X30045235Y-30994032D01*
X29976304Y-30980321D01*
X33097000Y-30980321D01*
X33097000Y-31529678D01*
X33111532Y-31602735D01*
X33111533Y-31602739D01*
X33111534Y-31602740D01*
X33166899Y-31685601D01*
X33249760Y-31740966D01*
X33249764Y-31740967D01*
X33322821Y-31755499D01*
X33322824Y-31755500D01*
X33322826Y-31755500D01*
X33872176Y-31755500D01*
X33872177Y-31755499D01*
X33945240Y-31740966D01*
X34028101Y-31685601D01*
X34083466Y-31602740D01*
X34098000Y-31529674D01*
X34098000Y-31144071D01*
X37946999Y-31144071D01*
X37971997Y-31269738D01*
X37971999Y-31269744D01*
X38021033Y-31388124D01*
X38021038Y-31388133D01*
X38092223Y-31494668D01*
X38092226Y-31494672D01*
X38182827Y-31585273D01*
X38182831Y-31585276D01*
X38289366Y-31656461D01*
X38289372Y-31656464D01*
X38289373Y-31656465D01*
X38407756Y-31705501D01*
X38407760Y-31705501D01*
X38407761Y-31705502D01*
X38533428Y-31730500D01*
X38533431Y-31730500D01*
X38661571Y-31730500D01*
X38746115Y-31713682D01*
X38787244Y-31705501D01*
X38905627Y-31656465D01*
X39012169Y-31585276D01*
X39102776Y-31494669D01*
X39173965Y-31388127D01*
X39223001Y-31269744D01*
X39235816Y-31205321D01*
X43097000Y-31205321D01*
X43097000Y-31754678D01*
X43111532Y-31827735D01*
X43111533Y-31827739D01*
X43129905Y-31855235D01*
X43166899Y-31910601D01*
X43249760Y-31965966D01*
X43249764Y-31965967D01*
X43322821Y-31980499D01*
X43322824Y-31980500D01*
X43322826Y-31980500D01*
X43872176Y-31980500D01*
X43872177Y-31980499D01*
X43945240Y-31965966D01*
X44028101Y-31910601D01*
X44083466Y-31827740D01*
X44098000Y-31754674D01*
X44098000Y-31205326D01*
X44098000Y-31205323D01*
X44097999Y-31205321D01*
X44089169Y-31160925D01*
X44085567Y-31142821D01*
X46697000Y-31142821D01*
X46697000Y-31692178D01*
X46711532Y-31765235D01*
X46711533Y-31765239D01*
X46711534Y-31765240D01*
X46766899Y-31848101D01*
X46848666Y-31902735D01*
X46849760Y-31903466D01*
X46849764Y-31903467D01*
X46922821Y-31917999D01*
X46922824Y-31918000D01*
X46922826Y-31918000D01*
X47472176Y-31918000D01*
X47472177Y-31917999D01*
X47545240Y-31903466D01*
X47628101Y-31848101D01*
X47683466Y-31765240D01*
X47698000Y-31692174D01*
X47698000Y-31215321D01*
X50297000Y-31215321D01*
X50297000Y-31764678D01*
X50311532Y-31837735D01*
X50311533Y-31837739D01*
X50311534Y-31837740D01*
X50366899Y-31920601D01*
X50437989Y-31968101D01*
X50449760Y-31975966D01*
X50449764Y-31975967D01*
X50522821Y-31990499D01*
X50522824Y-31990500D01*
X50522826Y-31990500D01*
X51072176Y-31990500D01*
X51072177Y-31990499D01*
X51145240Y-31975966D01*
X51228101Y-31920601D01*
X51283466Y-31837740D01*
X51298000Y-31764674D01*
X51298000Y-31262821D01*
X53897000Y-31262821D01*
X53897000Y-31812178D01*
X53911532Y-31885235D01*
X53911533Y-31885239D01*
X53923226Y-31902739D01*
X53966899Y-31968101D01*
X54049760Y-32023466D01*
X54049764Y-32023467D01*
X54122821Y-32037999D01*
X54122824Y-32038000D01*
X54122826Y-32038000D01*
X54672176Y-32038000D01*
X54672177Y-32037999D01*
X54745240Y-32023466D01*
X54828101Y-31968101D01*
X54883466Y-31885240D01*
X54898000Y-31812174D01*
X54898000Y-31262826D01*
X54898000Y-31262823D01*
X54897999Y-31262821D01*
X54883467Y-31189764D01*
X54883466Y-31189760D01*
X54852937Y-31144070D01*
X54828101Y-31106899D01*
X54751176Y-31055500D01*
X54745239Y-31051533D01*
X54745235Y-31051532D01*
X54672177Y-31037000D01*
X54672174Y-31037000D01*
X54122826Y-31037000D01*
X54122823Y-31037000D01*
X54049764Y-31051532D01*
X54049760Y-31051533D01*
X53966899Y-31106899D01*
X53911533Y-31189760D01*
X53911532Y-31189764D01*
X53897000Y-31262821D01*
X51298000Y-31262821D01*
X51298000Y-31215326D01*
X51298000Y-31215323D01*
X51297999Y-31215321D01*
X51283467Y-31142264D01*
X51283466Y-31142260D01*
X51259839Y-31106899D01*
X51228101Y-31059399D01*
X51172735Y-31022405D01*
X51145239Y-31004033D01*
X51145235Y-31004032D01*
X51072177Y-30989500D01*
X51072174Y-30989500D01*
X50522826Y-30989500D01*
X50522823Y-30989500D01*
X50449764Y-31004032D01*
X50449760Y-31004033D01*
X50366899Y-31059399D01*
X50311533Y-31142260D01*
X50311532Y-31142264D01*
X50297000Y-31215321D01*
X47698000Y-31215321D01*
X47698000Y-31142826D01*
X47698000Y-31142823D01*
X47697999Y-31142821D01*
X47683467Y-31069764D01*
X47683466Y-31069760D01*
X47671287Y-31051533D01*
X47628101Y-30986899D01*
X47545240Y-30931534D01*
X47545239Y-30931533D01*
X47545235Y-30931532D01*
X47472177Y-30917000D01*
X47472174Y-30917000D01*
X46922826Y-30917000D01*
X46922823Y-30917000D01*
X46849764Y-30931532D01*
X46849760Y-30931533D01*
X46766899Y-30986899D01*
X46711533Y-31069760D01*
X46711532Y-31069764D01*
X46697000Y-31142821D01*
X44085567Y-31142821D01*
X44083467Y-31132263D01*
X44083466Y-31132260D01*
X44028101Y-31049399D01*
X43972735Y-31012405D01*
X43945239Y-30994033D01*
X43945235Y-30994032D01*
X43872177Y-30979500D01*
X43872174Y-30979500D01*
X43322826Y-30979500D01*
X43322823Y-30979500D01*
X43249764Y-30994032D01*
X43249760Y-30994033D01*
X43166899Y-31049399D01*
X43111533Y-31132260D01*
X43111532Y-31132264D01*
X43097000Y-31205321D01*
X39235816Y-31205321D01*
X39248000Y-31144069D01*
X39248000Y-31015931D01*
X39248000Y-31015928D01*
X39223002Y-30890261D01*
X39223001Y-30890260D01*
X39223001Y-30890256D01*
X39173965Y-30771873D01*
X39173964Y-30771872D01*
X39173961Y-30771866D01*
X39102776Y-30665331D01*
X39102773Y-30665327D01*
X39012172Y-30574726D01*
X39012168Y-30574723D01*
X38905633Y-30503538D01*
X38905624Y-30503533D01*
X38787244Y-30454499D01*
X38787238Y-30454497D01*
X38661571Y-30429500D01*
X38661569Y-30429500D01*
X38533431Y-30429500D01*
X38533429Y-30429500D01*
X38407761Y-30454497D01*
X38407755Y-30454499D01*
X38289375Y-30503533D01*
X38289366Y-30503538D01*
X38182831Y-30574723D01*
X38182827Y-30574726D01*
X38092226Y-30665327D01*
X38092223Y-30665331D01*
X38021038Y-30771866D01*
X38021033Y-30771875D01*
X37971999Y-30890255D01*
X37971997Y-30890261D01*
X37947000Y-31015928D01*
X37947000Y-31015931D01*
X37947000Y-31144069D01*
X37947000Y-31144071D01*
X37946999Y-31144071D01*
X34098000Y-31144071D01*
X34098000Y-30980326D01*
X34098000Y-30980323D01*
X34097999Y-30980321D01*
X34083467Y-30907264D01*
X34083466Y-30907260D01*
X34080445Y-30902739D01*
X34028101Y-30824399D01*
X33949489Y-30771873D01*
X33945239Y-30769033D01*
X33945235Y-30769032D01*
X33872177Y-30754500D01*
X33872174Y-30754500D01*
X33322826Y-30754500D01*
X33322823Y-30754500D01*
X33249764Y-30769032D01*
X33249760Y-30769033D01*
X33166899Y-30824399D01*
X33111533Y-30907260D01*
X33111532Y-30907264D01*
X33097000Y-30980321D01*
X29976304Y-30980321D01*
X29972177Y-30979500D01*
X29972174Y-30979500D01*
X29422826Y-30979500D01*
X29422823Y-30979500D01*
X29349764Y-30994032D01*
X29349760Y-30994033D01*
X29266899Y-31049399D01*
X29211533Y-31132260D01*
X29211532Y-31132264D01*
X29197000Y-31205321D01*
X25882170Y-31205321D01*
X25828101Y-31124399D01*
X25745240Y-31069034D01*
X25745239Y-31069033D01*
X25745235Y-31069032D01*
X25672177Y-31054500D01*
X25672174Y-31054500D01*
X25122826Y-31054500D01*
X25122823Y-31054500D01*
X25049764Y-31069032D01*
X25049760Y-31069033D01*
X24966899Y-31124399D01*
X24911533Y-31207260D01*
X24911532Y-31207264D01*
X24897000Y-31280321D01*
X20892307Y-31280321D01*
X20891732Y-31161222D01*
X20911093Y-31094092D01*
X20963675Y-31048083D01*
X21032785Y-31037805D01*
X21039922Y-31039010D01*
X21122821Y-31055499D01*
X21122824Y-31055500D01*
X21122826Y-31055500D01*
X21672176Y-31055500D01*
X21672177Y-31055499D01*
X21745240Y-31040966D01*
X21828101Y-30985601D01*
X21883466Y-30902740D01*
X21898000Y-30829674D01*
X21898000Y-30280326D01*
X21898000Y-30280323D01*
X21897999Y-30280321D01*
X21883467Y-30207264D01*
X21883466Y-30207260D01*
X21828101Y-30124399D01*
X21772735Y-30087405D01*
X21745239Y-30069033D01*
X21745235Y-30069032D01*
X21672177Y-30054500D01*
X21672174Y-30054500D01*
X21122826Y-30054500D01*
X21122823Y-30054500D01*
X21037781Y-30071416D01*
X21037115Y-30068070D01*
X20987844Y-30073356D01*
X20925372Y-30042066D01*
X20889734Y-29981969D01*
X20885891Y-29951937D01*
X20848102Y-22129599D01*
X20867463Y-22062465D01*
X20920045Y-22016456D01*
X20972101Y-22005000D01*
X25295258Y-22005000D01*
X25362297Y-22024685D01*
G37*
G04 #@! TD.AperFunction*
G04 #@! TD*
G04 #@! TA.AperFunction,Conductor*
G04 #@! TO.N,Board_0-GNDD*
G36*
X20554572Y-22023907D02*
G01*
X20590536Y-22073407D01*
X20594440Y-22117619D01*
X20592605Y-22130830D01*
X20630393Y-29953164D01*
X20632458Y-29984373D01*
X20636298Y-30014374D01*
X20636826Y-30018272D01*
X20636827Y-30018275D01*
X20669969Y-30112288D01*
X20669970Y-30112291D01*
X20705607Y-30172388D01*
X20705609Y-30172390D01*
X20732236Y-30209334D01*
X20732235Y-30209334D01*
X20732236Y-30209335D01*
X20732238Y-30209337D01*
X20810951Y-30270513D01*
X20842335Y-30286232D01*
X20885896Y-30329194D01*
X20897000Y-30374749D01*
X20897000Y-30740075D01*
X20878093Y-30798266D01*
X20847405Y-30825866D01*
X20795428Y-30855797D01*
X20742845Y-30901807D01*
X20711382Y-30934729D01*
X20665600Y-31023286D01*
X20646237Y-31090421D01*
X20636235Y-31162457D01*
X20636810Y-31281555D01*
X20639315Y-31800000D01*
X20641683Y-32290247D01*
X20641683Y-32290251D01*
X20641684Y-32290258D01*
X20647200Y-32341840D01*
X20657555Y-32390850D01*
X20657558Y-32390864D01*
X20657561Y-32390875D01*
X20663790Y-32414636D01*
X20663790Y-32414637D01*
X20680259Y-32444722D01*
X20711658Y-32502082D01*
X20711661Y-32502085D01*
X20756513Y-32555641D01*
X20756519Y-32555647D01*
X20810671Y-32604187D01*
X20810679Y-32604192D01*
X21024450Y-32746707D01*
X21024535Y-32746763D01*
X21026379Y-32747981D01*
X21026546Y-32748090D01*
X21028121Y-32749121D01*
X21028122Y-32749122D01*
X21057230Y-32762558D01*
X21096020Y-32780465D01*
X21163059Y-32800150D01*
X21203050Y-32805900D01*
X21235040Y-32810500D01*
X21235044Y-32810500D01*
X27145548Y-32810500D01*
X27203739Y-32829407D01*
X27217245Y-32841232D01*
X27784319Y-33436784D01*
X27964522Y-33626037D01*
X28100256Y-33768587D01*
X28100256Y-33768586D01*
X29447262Y-35183240D01*
X29875532Y-35633018D01*
X29875554Y-35633039D01*
X29898341Y-35654219D01*
X29898358Y-35654234D01*
X29898370Y-35654245D01*
X29921708Y-35673420D01*
X29924687Y-35675830D01*
X30013276Y-35721550D01*
X30013278Y-35721550D01*
X30013281Y-35721552D01*
X30057685Y-35734324D01*
X30080423Y-35740865D01*
X30152462Y-35750818D01*
X30152469Y-35750817D01*
X30152470Y-35750818D01*
X33927228Y-35730017D01*
X38173840Y-35706617D01*
X38237771Y-35698125D01*
X38263448Y-35691332D01*
X38273096Y-35688781D01*
X38298412Y-35685489D01*
X38421557Y-35685489D01*
X38421558Y-35685488D01*
X38421558Y-35647621D01*
X38440465Y-35589430D01*
X38449723Y-35578459D01*
X38464088Y-35563748D01*
X38492874Y-35528457D01*
X38531571Y-35436583D01*
X38545609Y-35368138D01*
X38550747Y-35322880D01*
X38533629Y-35224670D01*
X38533627Y-35224664D01*
X38522367Y-35195540D01*
X38921558Y-35195540D01*
X38921558Y-35685488D01*
X38921559Y-35685489D01*
X39411507Y-35685489D01*
X39411508Y-35685488D01*
X39411508Y-35195540D01*
X39411507Y-35195539D01*
X38921559Y-35195539D01*
X38921558Y-35195540D01*
X38522367Y-35195540D01*
X38520695Y-35191214D01*
X38520685Y-35191190D01*
X38511955Y-35168609D01*
X38511485Y-35168790D01*
X38496841Y-35133136D01*
X38496393Y-35132149D01*
X38496390Y-35132139D01*
X38474393Y-35094040D01*
X38461671Y-35034192D01*
X38486557Y-34978296D01*
X38539544Y-34947703D01*
X38560129Y-34945539D01*
X38571558Y-34945539D01*
X38571558Y-34965430D01*
X38586782Y-35002184D01*
X38614913Y-35030315D01*
X38651667Y-35045539D01*
X38691449Y-35045539D01*
X38728203Y-35030315D01*
X38756334Y-35002184D01*
X38771558Y-34965430D01*
X38771558Y-34925648D01*
X38756334Y-34888894D01*
X38728203Y-34860763D01*
X38691449Y-34845539D01*
X38671558Y-34845539D01*
X38671558Y-34838064D01*
X38677984Y-34818284D01*
X38680201Y-34797610D01*
X38687226Y-34789839D01*
X38690465Y-34779873D01*
X38707291Y-34767647D01*
X38721236Y-34752225D01*
X38731487Y-34750068D01*
X38739965Y-34743909D01*
X38760762Y-34743909D01*
X38781110Y-34739628D01*
X38790062Y-34743909D01*
X38801151Y-34743909D01*
X38836954Y-34764630D01*
X38838800Y-34766299D01*
X38895154Y-34822653D01*
X38896552Y-34821254D01*
X38952657Y-34867026D01*
X39013572Y-34901248D01*
X39055108Y-34919928D01*
X39153865Y-34933544D01*
X39223611Y-34929401D01*
X39268656Y-34922659D01*
X39359097Y-34880722D01*
X39403711Y-34848157D01*
X39403710Y-34848155D01*
X39428747Y-34829881D01*
X39430224Y-34828447D01*
X39435928Y-34824637D01*
X39493026Y-34767537D01*
X39493583Y-34766998D01*
X39520381Y-34753855D01*
X39547020Y-34740282D01*
X39547804Y-34740406D01*
X39548517Y-34740057D01*
X39577922Y-34745176D01*
X39607452Y-34749853D01*
X39608013Y-34750414D01*
X39608796Y-34750551D01*
X39629595Y-34771995D01*
X39650717Y-34793117D01*
X39650926Y-34793988D01*
X39651394Y-34794471D01*
X39651910Y-34798086D01*
X39661508Y-34838063D01*
X39661508Y-34845539D01*
X39641617Y-34845539D01*
X39604863Y-34860763D01*
X39576732Y-34888894D01*
X39561508Y-34925648D01*
X39561508Y-34965430D01*
X39576732Y-35002184D01*
X39604863Y-35030315D01*
X39641617Y-35045539D01*
X39681399Y-35045539D01*
X39718153Y-35030315D01*
X39746284Y-35002184D01*
X39761508Y-34965430D01*
X39761508Y-34945539D01*
X39772936Y-34945539D01*
X39831127Y-34964446D01*
X39867091Y-35013946D01*
X39867091Y-35075132D01*
X39858672Y-35094040D01*
X39847542Y-35113316D01*
X39847542Y-35113317D01*
X39821734Y-35176008D01*
X39821732Y-35176011D01*
X39805127Y-35239076D01*
X39797942Y-35279026D01*
X39807687Y-35378241D01*
X39827954Y-35445116D01*
X39827955Y-35445118D01*
X39844989Y-35487339D01*
X39844993Y-35487346D01*
X39890161Y-35544463D01*
X39911426Y-35601834D01*
X39911508Y-35605871D01*
X39911508Y-35685488D01*
X39911509Y-35685489D01*
X40372765Y-35685489D01*
X40414438Y-35652635D01*
X40433754Y-35647651D01*
X42303384Y-35362299D01*
X42321729Y-35361226D01*
X43222897Y-35392299D01*
X43250804Y-35391736D01*
X43277785Y-35389713D01*
X43278355Y-35389669D01*
X43374343Y-35362750D01*
X43436644Y-35331121D01*
X43496143Y-35289308D01*
X44664485Y-34189108D01*
X54797000Y-34189108D01*
X54797000Y-34320892D01*
X54812152Y-34377441D01*
X54831109Y-34448190D01*
X54896996Y-34562309D01*
X54896998Y-34562311D01*
X54897000Y-34562314D01*
X54990186Y-34655500D01*
X54990188Y-34655501D01*
X54990190Y-34655503D01*
X55104310Y-34721390D01*
X55104308Y-34721390D01*
X55104312Y-34721391D01*
X55104314Y-34721392D01*
X55231608Y-34755500D01*
X55231610Y-34755500D01*
X55363390Y-34755500D01*
X55363392Y-34755500D01*
X55490686Y-34721392D01*
X55490688Y-34721390D01*
X55490690Y-34721390D01*
X55604809Y-34655503D01*
X55604809Y-34655502D01*
X55604814Y-34655500D01*
X55698000Y-34562314D01*
X55715626Y-34531785D01*
X55763890Y-34448190D01*
X55763890Y-34448188D01*
X55763892Y-34448186D01*
X55798000Y-34320892D01*
X55798000Y-34189108D01*
X55763892Y-34061814D01*
X55763890Y-34061811D01*
X55763890Y-34061809D01*
X55698003Y-33947690D01*
X55698001Y-33947688D01*
X55698000Y-33947686D01*
X55604814Y-33854500D01*
X55604811Y-33854498D01*
X55604809Y-33854496D01*
X55490689Y-33788609D01*
X55490691Y-33788609D01*
X55441299Y-33775375D01*
X55363392Y-33754500D01*
X55231608Y-33754500D01*
X55153700Y-33775375D01*
X55104309Y-33788609D01*
X54990190Y-33854496D01*
X54896996Y-33947690D01*
X54831109Y-34061809D01*
X54831108Y-34061814D01*
X54797000Y-34189108D01*
X44664485Y-34189108D01*
X45902150Y-33023628D01*
X45957475Y-32997501D01*
X45969664Y-32996704D01*
X56098152Y-32961025D01*
X56156408Y-32979727D01*
X56192546Y-33029100D01*
X56197500Y-33060024D01*
X56197500Y-37165407D01*
X56178593Y-37223598D01*
X56129093Y-37259562D01*
X56067907Y-37259562D01*
X56049001Y-37251144D01*
X55981038Y-37211906D01*
X55981037Y-37211905D01*
X55981036Y-37211905D01*
X55860101Y-37179500D01*
X55734899Y-37179500D01*
X55630060Y-37207591D01*
X55568960Y-37204390D01*
X55521410Y-37165885D01*
X55505574Y-37106784D01*
X55516228Y-37067020D01*
X55541095Y-37018215D01*
X55606758Y-36816122D01*
X55617231Y-36750000D01*
X54723012Y-36750000D01*
X54755925Y-36692993D01*
X54790000Y-36565826D01*
X54790000Y-36434174D01*
X54755925Y-36307007D01*
X54723012Y-36250000D01*
X55617231Y-36250000D01*
X55617231Y-36249999D01*
X55606758Y-36183877D01*
X55541095Y-35981784D01*
X55444624Y-35792447D01*
X55319722Y-35620535D01*
X55169464Y-35470277D01*
X54997552Y-35345375D01*
X54808215Y-35248904D01*
X54606120Y-35183240D01*
X54540000Y-35172767D01*
X54540000Y-36066988D01*
X54482993Y-36034075D01*
X54355826Y-36000000D01*
X54224174Y-36000000D01*
X54097007Y-36034075D01*
X54040000Y-36066988D01*
X54040000Y-35172768D01*
X54039999Y-35172767D01*
X53973880Y-35183240D01*
X53973878Y-35183240D01*
X53771784Y-35248904D01*
X53582447Y-35345375D01*
X53410535Y-35470277D01*
X53260277Y-35620535D01*
X53135375Y-35792447D01*
X53038904Y-35981784D01*
X52973241Y-36183877D01*
X52962768Y-36249999D01*
X52962769Y-36250000D01*
X53856988Y-36250000D01*
X53824075Y-36307007D01*
X53790000Y-36434174D01*
X53790000Y-36565826D01*
X53824075Y-36692993D01*
X53856988Y-36750000D01*
X52962769Y-36750000D01*
X52973241Y-36816122D01*
X53038904Y-37018215D01*
X53135375Y-37207552D01*
X53260277Y-37379464D01*
X53410535Y-37529722D01*
X53582447Y-37654624D01*
X53771786Y-37751096D01*
X53943886Y-37807014D01*
X53993386Y-37842978D01*
X54012294Y-37901169D01*
X53993387Y-37959359D01*
X53943888Y-37995323D01*
X53867558Y-38020125D01*
X53713214Y-38098766D01*
X53573073Y-38200585D01*
X53450585Y-38323073D01*
X53348766Y-38463214D01*
X53270125Y-38617558D01*
X53270123Y-38617561D01*
X53216598Y-38782293D01*
X53216597Y-38782297D01*
X53189500Y-38953385D01*
X53189500Y-39126614D01*
X53216597Y-39297702D01*
X53216598Y-39297706D01*
X53270123Y-39462438D01*
X53270125Y-39462441D01*
X53346218Y-39611785D01*
X53348768Y-39616788D01*
X53450586Y-39756928D01*
X53573072Y-39879414D01*
X53713212Y-39981232D01*
X53867555Y-40059873D01*
X53867557Y-40059873D01*
X53867558Y-40059874D01*
X53867561Y-40059876D01*
X54032293Y-40113401D01*
X54032297Y-40113402D01*
X54203386Y-40140500D01*
X54203389Y-40140500D01*
X54376614Y-40140500D01*
X54547702Y-40113402D01*
X54547706Y-40113401D01*
X54712438Y-40059876D01*
X54712440Y-40059874D01*
X54712445Y-40059873D01*
X54866788Y-39981232D01*
X55006928Y-39879414D01*
X55129414Y-39756928D01*
X55231232Y-39616788D01*
X55309873Y-39462445D01*
X55309874Y-39462440D01*
X55309876Y-39462438D01*
X55363401Y-39297706D01*
X55363402Y-39297702D01*
X55390500Y-39126614D01*
X55390500Y-38953385D01*
X55363402Y-38782297D01*
X55363401Y-38782293D01*
X55309876Y-38617561D01*
X55309874Y-38617558D01*
X55309873Y-38617557D01*
X55309873Y-38617555D01*
X55231232Y-38463212D01*
X55129414Y-38323072D01*
X55006928Y-38200586D01*
X54866788Y-38098768D01*
X54866787Y-38098767D01*
X54866785Y-38098766D01*
X54712441Y-38020125D01*
X54636111Y-37995323D01*
X54586612Y-37959359D01*
X54567705Y-37901168D01*
X54586613Y-37842977D01*
X54636113Y-37807014D01*
X54808213Y-37751096D01*
X54997551Y-37654624D01*
X55164809Y-37533104D01*
X55223000Y-37514197D01*
X55281191Y-37533104D01*
X55317155Y-37582604D01*
X55322000Y-37613197D01*
X55322000Y-37717601D01*
X55354405Y-37838536D01*
X55417005Y-37946964D01*
X55505536Y-38035495D01*
X55613964Y-38098095D01*
X55734899Y-38130500D01*
X55734901Y-38130500D01*
X55860099Y-38130500D01*
X55860101Y-38130500D01*
X55981036Y-38098095D01*
X56049001Y-38058855D01*
X56108848Y-38046134D01*
X56164744Y-38071020D01*
X56195337Y-38124008D01*
X56197500Y-38144592D01*
X56197500Y-45931816D01*
X56178593Y-45990007D01*
X56129093Y-46025971D01*
X56067907Y-46025971D01*
X56018407Y-45990007D01*
X56007036Y-45969701D01*
X55953227Y-45839795D01*
X55953226Y-45839794D01*
X55953224Y-45839788D01*
X55831936Y-45629711D01*
X55827860Y-45624399D01*
X55684270Y-45437268D01*
X55684268Y-45437266D01*
X55684265Y-45437262D01*
X55512738Y-45265735D01*
X55512733Y-45265731D01*
X55512731Y-45265729D01*
X55320292Y-45118066D01*
X55320289Y-45118064D01*
X55110212Y-44996776D01*
X55110208Y-44996774D01*
X55110204Y-44996772D01*
X54886105Y-44903948D01*
X54886104Y-44903947D01*
X54886100Y-44903946D01*
X54651789Y-44841162D01*
X54651786Y-44841161D01*
X54651784Y-44841161D01*
X54411289Y-44809500D01*
X54411288Y-44809500D01*
X54168712Y-44809500D01*
X54168710Y-44809500D01*
X53928218Y-44841161D01*
X53928213Y-44841161D01*
X53693907Y-44903944D01*
X53693894Y-44903948D01*
X53469795Y-44996772D01*
X53259707Y-45118066D01*
X53067268Y-45265729D01*
X52895729Y-45437268D01*
X52748066Y-45629707D01*
X52626772Y-45839795D01*
X52533948Y-46063894D01*
X52533944Y-46063907D01*
X52471161Y-46298213D01*
X52471161Y-46298218D01*
X52439500Y-46538710D01*
X52439500Y-46781289D01*
X52471161Y-47021781D01*
X52471161Y-47021786D01*
X52533944Y-47256092D01*
X52533948Y-47256105D01*
X52626772Y-47480204D01*
X52626774Y-47480208D01*
X52626776Y-47480212D01*
X52745358Y-47685602D01*
X52748066Y-47690292D01*
X52895729Y-47882731D01*
X52895731Y-47882733D01*
X52895735Y-47882738D01*
X53067262Y-48054265D01*
X53067266Y-48054268D01*
X53067268Y-48054270D01*
X53259707Y-48201933D01*
X53259711Y-48201936D01*
X53378650Y-48270605D01*
X53419589Y-48316073D01*
X53425985Y-48376923D01*
X53395392Y-48429911D01*
X53339497Y-48454798D01*
X53329160Y-48455340D01*
X27305493Y-48458441D01*
X27247300Y-48439541D01*
X27211330Y-48390045D01*
X27211323Y-48328860D01*
X27247281Y-48279355D01*
X27255963Y-48273715D01*
X27380289Y-48201936D01*
X27572738Y-48054265D01*
X27744265Y-47882738D01*
X27891936Y-47690289D01*
X28013224Y-47480212D01*
X28106054Y-47256100D01*
X28168838Y-47021789D01*
X28200500Y-46781288D01*
X28200500Y-46538712D01*
X28168838Y-46298211D01*
X28106054Y-46063900D01*
X28053935Y-45938073D01*
X28013228Y-45839796D01*
X28013225Y-45839791D01*
X28013224Y-45839788D01*
X27981781Y-45785327D01*
X30344500Y-45785327D01*
X30344500Y-47534672D01*
X30344501Y-47534684D01*
X30359033Y-47607736D01*
X30359035Y-47607742D01*
X30414397Y-47690599D01*
X30414400Y-47690602D01*
X30454808Y-47717601D01*
X30497260Y-47745966D01*
X30545180Y-47755498D01*
X30570315Y-47760498D01*
X30570320Y-47760498D01*
X30570326Y-47760500D01*
X30570327Y-47760500D01*
X32319673Y-47760500D01*
X32319674Y-47760500D01*
X32392740Y-47745966D01*
X32475601Y-47690601D01*
X32530966Y-47607740D01*
X32545500Y-47534674D01*
X32545500Y-46573385D01*
X32884500Y-46573385D01*
X32884500Y-46746614D01*
X32911597Y-46917702D01*
X32911598Y-46917706D01*
X32965123Y-47082438D01*
X32965125Y-47082441D01*
X33041218Y-47231785D01*
X33043768Y-47236788D01*
X33145586Y-47376928D01*
X33268072Y-47499414D01*
X33408212Y-47601232D01*
X33562555Y-47679873D01*
X33562557Y-47679873D01*
X33562558Y-47679874D01*
X33562561Y-47679876D01*
X33727293Y-47733401D01*
X33727297Y-47733402D01*
X33898386Y-47760500D01*
X33898389Y-47760500D01*
X34071614Y-47760500D01*
X34242702Y-47733402D01*
X34242706Y-47733401D01*
X34407438Y-47679876D01*
X34407440Y-47679874D01*
X34407445Y-47679873D01*
X34561788Y-47601232D01*
X34701928Y-47499414D01*
X34824414Y-47376928D01*
X34926232Y-47236788D01*
X35004873Y-47082445D01*
X35029675Y-47006111D01*
X35065639Y-46956612D01*
X35123830Y-46937705D01*
X35182021Y-46956612D01*
X35217985Y-47006112D01*
X35273904Y-47178215D01*
X35370375Y-47367552D01*
X35495277Y-47539464D01*
X35645535Y-47689722D01*
X35817447Y-47814624D01*
X36006784Y-47911095D01*
X36208877Y-47976758D01*
X36274999Y-47987231D01*
X36275000Y-47987230D01*
X36275000Y-47093012D01*
X36332007Y-47125925D01*
X36459174Y-47160000D01*
X36590826Y-47160000D01*
X36717993Y-47125925D01*
X36775000Y-47093012D01*
X36775000Y-47987231D01*
X36841122Y-47976758D01*
X37043215Y-47911095D01*
X37232552Y-47814624D01*
X37404464Y-47689722D01*
X37554722Y-47539464D01*
X37679624Y-47367552D01*
X37776096Y-47178213D01*
X37832014Y-47006113D01*
X37867978Y-46956613D01*
X37926168Y-46937705D01*
X37984359Y-46956612D01*
X38020323Y-47006111D01*
X38045125Y-47082441D01*
X38121218Y-47231785D01*
X38123768Y-47236788D01*
X38225586Y-47376928D01*
X38348072Y-47499414D01*
X38488212Y-47601232D01*
X38642555Y-47679873D01*
X38642557Y-47679873D01*
X38642558Y-47679874D01*
X38642561Y-47679876D01*
X38807293Y-47733401D01*
X38807297Y-47733402D01*
X38978386Y-47760500D01*
X38978389Y-47760500D01*
X39151614Y-47760500D01*
X39322702Y-47733402D01*
X39322706Y-47733401D01*
X39487438Y-47679876D01*
X39487440Y-47679874D01*
X39487445Y-47679873D01*
X39641788Y-47601232D01*
X39781928Y-47499414D01*
X39904414Y-47376928D01*
X40006232Y-47236788D01*
X40084873Y-47082445D01*
X40084874Y-47082440D01*
X40084876Y-47082438D01*
X40138401Y-46917706D01*
X40138402Y-46917702D01*
X40165500Y-46746614D01*
X40165500Y-46573385D01*
X40504500Y-46573385D01*
X40504500Y-46746614D01*
X40531597Y-46917702D01*
X40531598Y-46917706D01*
X40585123Y-47082438D01*
X40585125Y-47082441D01*
X40661218Y-47231785D01*
X40663768Y-47236788D01*
X40765586Y-47376928D01*
X40888072Y-47499414D01*
X41028212Y-47601232D01*
X41182555Y-47679873D01*
X41182557Y-47679873D01*
X41182558Y-47679874D01*
X41182561Y-47679876D01*
X41347293Y-47733401D01*
X41347297Y-47733402D01*
X41518386Y-47760500D01*
X41518389Y-47760500D01*
X41691614Y-47760500D01*
X41862702Y-47733402D01*
X41862706Y-47733401D01*
X42027438Y-47679876D01*
X42027440Y-47679874D01*
X42027445Y-47679873D01*
X42181788Y-47601232D01*
X42321928Y-47499414D01*
X42444414Y-47376928D01*
X42546232Y-47236788D01*
X42624873Y-47082445D01*
X42624874Y-47082440D01*
X42624876Y-47082438D01*
X42678401Y-46917706D01*
X42678402Y-46917702D01*
X42705500Y-46746614D01*
X42705500Y-46573385D01*
X43044500Y-46573385D01*
X43044500Y-46746614D01*
X43071597Y-46917702D01*
X43071598Y-46917706D01*
X43125123Y-47082438D01*
X43125125Y-47082441D01*
X43201218Y-47231785D01*
X43203768Y-47236788D01*
X43305586Y-47376928D01*
X43428072Y-47499414D01*
X43568212Y-47601232D01*
X43722555Y-47679873D01*
X43722557Y-47679873D01*
X43722558Y-47679874D01*
X43722561Y-47679876D01*
X43887293Y-47733401D01*
X43887297Y-47733402D01*
X44058386Y-47760500D01*
X44058389Y-47760500D01*
X44231614Y-47760500D01*
X44402702Y-47733402D01*
X44402706Y-47733401D01*
X44567438Y-47679876D01*
X44567440Y-47679874D01*
X44567445Y-47679873D01*
X44721788Y-47601232D01*
X44861928Y-47499414D01*
X44984414Y-47376928D01*
X45086232Y-47236788D01*
X45164873Y-47082445D01*
X45164874Y-47082440D01*
X45164876Y-47082438D01*
X45218401Y-46917706D01*
X45218402Y-46917702D01*
X45245500Y-46746614D01*
X45245500Y-46573385D01*
X45218402Y-46402297D01*
X45218401Y-46402293D01*
X45164876Y-46237561D01*
X45164874Y-46237558D01*
X45164873Y-46237557D01*
X45164873Y-46237555D01*
X45086232Y-46083212D01*
X44984414Y-45943072D01*
X44861928Y-45820586D01*
X44721788Y-45718768D01*
X44721787Y-45718767D01*
X44721785Y-45718766D01*
X44567441Y-45640125D01*
X44567438Y-45640123D01*
X44402706Y-45586598D01*
X44402702Y-45586597D01*
X44231614Y-45559500D01*
X44231611Y-45559500D01*
X44058389Y-45559500D01*
X44058386Y-45559500D01*
X43887297Y-45586597D01*
X43887293Y-45586598D01*
X43722561Y-45640123D01*
X43722558Y-45640125D01*
X43568214Y-45718766D01*
X43428073Y-45820585D01*
X43305585Y-45943073D01*
X43203766Y-46083214D01*
X43125125Y-46237558D01*
X43125123Y-46237561D01*
X43071598Y-46402293D01*
X43071597Y-46402297D01*
X43044500Y-46573385D01*
X42705500Y-46573385D01*
X42678402Y-46402297D01*
X42678401Y-46402293D01*
X42624876Y-46237561D01*
X42624874Y-46237558D01*
X42624873Y-46237557D01*
X42624873Y-46237555D01*
X42546232Y-46083212D01*
X42444414Y-45943072D01*
X42321928Y-45820586D01*
X42181788Y-45718768D01*
X42181787Y-45718767D01*
X42181785Y-45718766D01*
X42027441Y-45640125D01*
X42027438Y-45640123D01*
X41862706Y-45586598D01*
X41862702Y-45586597D01*
X41691614Y-45559500D01*
X41691611Y-45559500D01*
X41518389Y-45559500D01*
X41518386Y-45559500D01*
X41347297Y-45586597D01*
X41347293Y-45586598D01*
X41182561Y-45640123D01*
X41182558Y-45640125D01*
X41028214Y-45718766D01*
X40888073Y-45820585D01*
X40765585Y-45943073D01*
X40663766Y-46083214D01*
X40585125Y-46237558D01*
X40585123Y-46237561D01*
X40531598Y-46402293D01*
X40531597Y-46402297D01*
X40504500Y-46573385D01*
X40165500Y-46573385D01*
X40138402Y-46402297D01*
X40138401Y-46402293D01*
X40084876Y-46237561D01*
X40084874Y-46237558D01*
X40084873Y-46237557D01*
X40084873Y-46237555D01*
X40006232Y-46083212D01*
X39904414Y-45943072D01*
X39781928Y-45820586D01*
X39641788Y-45718768D01*
X39641787Y-45718767D01*
X39641785Y-45718766D01*
X39487441Y-45640125D01*
X39487438Y-45640123D01*
X39322706Y-45586598D01*
X39322702Y-45586597D01*
X39151614Y-45559500D01*
X39151611Y-45559500D01*
X38978389Y-45559500D01*
X38978386Y-45559500D01*
X38807297Y-45586597D01*
X38807293Y-45586598D01*
X38642561Y-45640123D01*
X38642558Y-45640125D01*
X38488214Y-45718766D01*
X38348073Y-45820585D01*
X38225585Y-45943073D01*
X38123766Y-46083214D01*
X38045125Y-46237558D01*
X38020323Y-46313888D01*
X37984359Y-46363388D01*
X37926167Y-46382294D01*
X37867977Y-46363386D01*
X37832014Y-46313886D01*
X37776096Y-46141786D01*
X37679624Y-45952447D01*
X37554722Y-45780535D01*
X37404464Y-45630277D01*
X37232552Y-45505375D01*
X37043215Y-45408904D01*
X36841120Y-45343240D01*
X36775000Y-45332767D01*
X36775000Y-46226988D01*
X36717993Y-46194075D01*
X36590826Y-46160000D01*
X36459174Y-46160000D01*
X36332007Y-46194075D01*
X36275000Y-46226988D01*
X36275000Y-45332768D01*
X36274999Y-45332767D01*
X36208880Y-45343240D01*
X36208878Y-45343240D01*
X36006784Y-45408904D01*
X35817447Y-45505375D01*
X35645535Y-45630277D01*
X35495277Y-45780535D01*
X35370375Y-45952447D01*
X35273904Y-46141784D01*
X35217985Y-46313887D01*
X35182021Y-46363387D01*
X35123830Y-46382294D01*
X35065639Y-46363387D01*
X35029676Y-46313887D01*
X35004876Y-46237561D01*
X35004874Y-46237558D01*
X35004873Y-46237557D01*
X35004873Y-46237555D01*
X34926232Y-46083212D01*
X34824414Y-45943072D01*
X34701928Y-45820586D01*
X34561788Y-45718768D01*
X34561787Y-45718767D01*
X34561785Y-45718766D01*
X34407441Y-45640125D01*
X34407438Y-45640123D01*
X34242706Y-45586598D01*
X34242702Y-45586597D01*
X34071614Y-45559500D01*
X34071611Y-45559500D01*
X33898389Y-45559500D01*
X33898386Y-45559500D01*
X33727297Y-45586597D01*
X33727293Y-45586598D01*
X33562561Y-45640123D01*
X33562558Y-45640125D01*
X33408214Y-45718766D01*
X33268073Y-45820585D01*
X33145585Y-45943073D01*
X33043766Y-46083214D01*
X32965125Y-46237558D01*
X32965123Y-46237561D01*
X32911598Y-46402293D01*
X32911597Y-46402297D01*
X32884500Y-46573385D01*
X32545500Y-46573385D01*
X32545500Y-45785326D01*
X32544505Y-45780326D01*
X32542015Y-45767808D01*
X32530966Y-45712260D01*
X32482768Y-45640125D01*
X32475602Y-45629400D01*
X32475599Y-45629397D01*
X32392742Y-45574035D01*
X32392740Y-45574034D01*
X32392737Y-45574033D01*
X32392736Y-45574033D01*
X32319684Y-45559501D01*
X32319674Y-45559500D01*
X30570326Y-45559500D01*
X30570325Y-45559500D01*
X30570315Y-45559501D01*
X30497263Y-45574033D01*
X30497257Y-45574035D01*
X30414400Y-45629397D01*
X30414397Y-45629400D01*
X30359035Y-45712257D01*
X30359033Y-45712263D01*
X30344501Y-45785315D01*
X30344500Y-45785327D01*
X27981781Y-45785327D01*
X27891936Y-45629711D01*
X27887860Y-45624399D01*
X27744270Y-45437268D01*
X27744268Y-45437266D01*
X27744265Y-45437262D01*
X27572738Y-45265735D01*
X27572733Y-45265731D01*
X27572731Y-45265729D01*
X27380292Y-45118066D01*
X27380289Y-45118064D01*
X27219506Y-45025235D01*
X27178566Y-44979767D01*
X27172170Y-44918917D01*
X27202763Y-44865929D01*
X27258659Y-44841042D01*
X27269007Y-44840500D01*
X44328810Y-44840500D01*
X44387001Y-44859407D01*
X44398814Y-44869496D01*
X45648610Y-46119291D01*
X45676387Y-46173808D01*
X45666816Y-46234239D01*
X45665127Y-46237552D01*
X45665123Y-46237561D01*
X45611598Y-46402293D01*
X45611597Y-46402297D01*
X45584500Y-46573385D01*
X45584500Y-46746614D01*
X45611597Y-46917702D01*
X45611598Y-46917706D01*
X45665123Y-47082438D01*
X45665125Y-47082441D01*
X45741218Y-47231785D01*
X45743768Y-47236788D01*
X45845586Y-47376928D01*
X45968072Y-47499414D01*
X46108212Y-47601232D01*
X46262555Y-47679873D01*
X46262557Y-47679873D01*
X46262558Y-47679874D01*
X46262561Y-47679876D01*
X46427293Y-47733401D01*
X46427297Y-47733402D01*
X46598386Y-47760500D01*
X46598389Y-47760500D01*
X46771614Y-47760500D01*
X46942702Y-47733402D01*
X46942706Y-47733401D01*
X47107438Y-47679876D01*
X47107440Y-47679874D01*
X47107445Y-47679873D01*
X47261788Y-47601232D01*
X47401928Y-47499414D01*
X47524414Y-47376928D01*
X47626232Y-47236788D01*
X47704873Y-47082445D01*
X47729675Y-47006111D01*
X47765639Y-46956612D01*
X47823830Y-46937705D01*
X47882021Y-46956612D01*
X47917985Y-47006112D01*
X47973904Y-47178215D01*
X48070375Y-47367552D01*
X48195277Y-47539464D01*
X48345535Y-47689722D01*
X48517447Y-47814624D01*
X48706784Y-47911095D01*
X48908877Y-47976758D01*
X48974999Y-47987231D01*
X48975000Y-47987230D01*
X48975000Y-47093012D01*
X49032007Y-47125925D01*
X49159174Y-47160000D01*
X49290826Y-47160000D01*
X49417993Y-47125925D01*
X49475000Y-47093012D01*
X49475000Y-47987231D01*
X49541122Y-47976758D01*
X49743215Y-47911095D01*
X49932552Y-47814624D01*
X50104464Y-47689722D01*
X50254722Y-47539464D01*
X50379624Y-47367552D01*
X50476095Y-47178215D01*
X50541758Y-46976122D01*
X50552231Y-46910000D01*
X49658012Y-46910000D01*
X49690925Y-46852993D01*
X49725000Y-46725826D01*
X49725000Y-46594174D01*
X49690925Y-46467007D01*
X49658012Y-46410000D01*
X50552231Y-46410000D01*
X50552231Y-46409999D01*
X50541758Y-46343877D01*
X50476095Y-46141784D01*
X50379624Y-45952447D01*
X50254722Y-45780535D01*
X50104464Y-45630277D01*
X49932552Y-45505375D01*
X49743215Y-45408904D01*
X49541120Y-45343240D01*
X49475000Y-45332767D01*
X49475000Y-46226988D01*
X49417993Y-46194075D01*
X49290826Y-46160000D01*
X49159174Y-46160000D01*
X49032007Y-46194075D01*
X48975000Y-46226988D01*
X48975000Y-45332768D01*
X48974999Y-45332767D01*
X48908880Y-45343240D01*
X48908878Y-45343240D01*
X48706784Y-45408904D01*
X48517447Y-45505375D01*
X48345535Y-45630277D01*
X48195277Y-45780535D01*
X48070375Y-45952447D01*
X47973904Y-46141784D01*
X47917985Y-46313887D01*
X47882021Y-46363387D01*
X47823830Y-46382294D01*
X47765639Y-46363387D01*
X47729676Y-46313887D01*
X47704876Y-46237561D01*
X47704874Y-46237558D01*
X47704873Y-46237557D01*
X47704873Y-46237555D01*
X47626232Y-46083212D01*
X47524414Y-45943072D01*
X47401928Y-45820586D01*
X47261788Y-45718768D01*
X47261787Y-45718767D01*
X47261785Y-45718766D01*
X47107441Y-45640125D01*
X47107438Y-45640123D01*
X46942706Y-45586598D01*
X46942702Y-45586597D01*
X46771614Y-45559500D01*
X46771611Y-45559500D01*
X46598389Y-45559500D01*
X46598386Y-45559500D01*
X46427297Y-45586597D01*
X46427293Y-45586598D01*
X46262561Y-45640123D01*
X46262552Y-45640127D01*
X46259239Y-45641816D01*
X46198807Y-45651387D01*
X46144291Y-45623610D01*
X45475095Y-44954414D01*
X44730212Y-44209530D01*
X44650288Y-44163386D01*
X44650287Y-44163385D01*
X44650284Y-44163384D01*
X44646291Y-44162315D01*
X44646287Y-44162312D01*
X44646287Y-44162314D01*
X44561144Y-44139500D01*
X44561142Y-44139500D01*
X34968444Y-44139500D01*
X34910253Y-44120593D01*
X34874289Y-44071093D01*
X34872817Y-44014878D01*
X34876729Y-44000276D01*
X34898000Y-43920892D01*
X34898000Y-43789108D01*
X34863892Y-43661814D01*
X34863890Y-43661811D01*
X34863890Y-43661809D01*
X34798003Y-43547690D01*
X34798001Y-43547688D01*
X34798000Y-43547686D01*
X34704814Y-43454500D01*
X34704811Y-43454498D01*
X34704809Y-43454496D01*
X34590689Y-43388609D01*
X34590691Y-43388609D01*
X34538052Y-43374505D01*
X34463392Y-43354500D01*
X34331608Y-43354500D01*
X34256948Y-43374505D01*
X34204309Y-43388609D01*
X34090190Y-43454496D01*
X33996996Y-43547690D01*
X33931109Y-43661809D01*
X33931108Y-43661814D01*
X33899691Y-43779067D01*
X33897000Y-43789109D01*
X33897000Y-43920891D01*
X33922183Y-44014878D01*
X33918980Y-44075979D01*
X33880475Y-44123529D01*
X33826556Y-44139500D01*
X31830127Y-44139500D01*
X31771936Y-44120593D01*
X31735972Y-44071093D01*
X31735972Y-44009907D01*
X31744390Y-43991001D01*
X31750856Y-43979800D01*
X31774680Y-43938536D01*
X31807085Y-43817601D01*
X31807085Y-43692399D01*
X31774680Y-43571464D01*
X31712080Y-43463036D01*
X31623549Y-43374505D01*
X31515121Y-43311905D01*
X31394186Y-43279500D01*
X31268984Y-43279500D01*
X31191258Y-43300327D01*
X31148048Y-43311905D01*
X31039621Y-43374505D01*
X30951090Y-43463036D01*
X30888490Y-43571463D01*
X30888490Y-43571464D01*
X30856085Y-43692399D01*
X30856085Y-43817601D01*
X30888490Y-43938536D01*
X30888491Y-43938538D01*
X30918780Y-43991001D01*
X30931501Y-44050849D01*
X30906614Y-44106745D01*
X30853625Y-44137337D01*
X30833043Y-44139500D01*
X24388608Y-44139500D01*
X24330417Y-44120593D01*
X24294453Y-44071093D01*
X24294453Y-44009907D01*
X24297144Y-44002614D01*
X24323685Y-43938538D01*
X24337683Y-43904744D01*
X24362682Y-43779069D01*
X24362682Y-43650931D01*
X24337683Y-43525256D01*
X24288647Y-43406873D01*
X24288645Y-43406870D01*
X24288643Y-43406866D01*
X24259899Y-43363848D01*
X24217458Y-43300331D01*
X24126851Y-43209724D01*
X24084408Y-43181365D01*
X24020315Y-43138538D01*
X24020307Y-43138534D01*
X23901929Y-43089500D01*
X23901927Y-43089499D01*
X23901926Y-43089499D01*
X23776251Y-43064500D01*
X23648113Y-43064500D01*
X23648112Y-43064500D01*
X23592794Y-43075504D01*
X23522438Y-43089499D01*
X23522437Y-43089499D01*
X23522434Y-43089500D01*
X23404056Y-43138534D01*
X23404048Y-43138538D01*
X23297513Y-43209724D01*
X23297509Y-43209727D01*
X23206909Y-43300327D01*
X23206906Y-43300331D01*
X23137977Y-43403490D01*
X23089927Y-43441369D01*
X23028789Y-43443771D01*
X22985659Y-43418492D01*
X22741698Y-43174532D01*
X22741696Y-43174530D01*
X22661772Y-43128386D01*
X22572628Y-43104500D01*
X22572626Y-43104500D01*
X21783690Y-43104500D01*
X21725499Y-43085593D01*
X21713686Y-43075504D01*
X21529663Y-42891481D01*
X21501886Y-42836964D01*
X21511457Y-42776532D01*
X21554722Y-42733267D01*
X21574043Y-42725851D01*
X21590686Y-42721392D01*
X21695153Y-42661078D01*
X21704809Y-42655503D01*
X21704809Y-42655502D01*
X21704814Y-42655500D01*
X21798000Y-42562314D01*
X21835078Y-42498094D01*
X21863890Y-42448190D01*
X21863890Y-42448188D01*
X21863892Y-42448186D01*
X21898000Y-42320892D01*
X21898000Y-42189108D01*
X21863892Y-42061814D01*
X21823815Y-41992399D01*
X24822000Y-41992399D01*
X24822000Y-42117601D01*
X24854405Y-42238536D01*
X24917005Y-42346964D01*
X25005536Y-42435495D01*
X25113964Y-42498095D01*
X25234899Y-42530500D01*
X25234901Y-42530500D01*
X25360099Y-42530500D01*
X25360101Y-42530500D01*
X25481036Y-42498095D01*
X25589464Y-42435495D01*
X25635851Y-42389108D01*
X31097000Y-42389108D01*
X31097000Y-42520892D01*
X31125110Y-42625802D01*
X31131109Y-42648190D01*
X31196996Y-42762309D01*
X31196998Y-42762311D01*
X31197000Y-42762314D01*
X31290186Y-42855500D01*
X31290188Y-42855501D01*
X31290190Y-42855503D01*
X31404310Y-42921390D01*
X31404308Y-42921390D01*
X31404312Y-42921391D01*
X31404314Y-42921392D01*
X31531608Y-42955500D01*
X31531610Y-42955500D01*
X31663390Y-42955500D01*
X31663392Y-42955500D01*
X31790686Y-42921392D01*
X31790688Y-42921390D01*
X31790690Y-42921390D01*
X31904809Y-42855503D01*
X31904809Y-42855502D01*
X31904814Y-42855500D01*
X31973459Y-42786855D01*
X36225448Y-42786855D01*
X36225448Y-42912057D01*
X36257853Y-43032992D01*
X36320453Y-43141420D01*
X36408984Y-43229951D01*
X36517412Y-43292551D01*
X36638347Y-43324956D01*
X36638349Y-43324956D01*
X36763547Y-43324956D01*
X36763549Y-43324956D01*
X36884484Y-43292551D01*
X36992912Y-43229951D01*
X37081443Y-43141420D01*
X37144043Y-43032992D01*
X37176448Y-42912057D01*
X37176448Y-42786855D01*
X37164152Y-42740968D01*
X37783982Y-42740968D01*
X37783982Y-42866170D01*
X37816387Y-42987105D01*
X37878987Y-43095533D01*
X37967518Y-43184064D01*
X38075946Y-43246664D01*
X38196881Y-43279069D01*
X38196883Y-43279069D01*
X38322081Y-43279069D01*
X38322083Y-43279069D01*
X38443018Y-43246664D01*
X38551446Y-43184064D01*
X38639977Y-43095533D01*
X38702577Y-42987105D01*
X38734982Y-42866170D01*
X38734982Y-42740968D01*
X38702577Y-42620033D01*
X38639977Y-42511605D01*
X38551446Y-42423074D01*
X38443018Y-42360474D01*
X38322083Y-42328069D01*
X38196881Y-42328069D01*
X38126369Y-42346963D01*
X38075945Y-42360474D01*
X37967518Y-42423074D01*
X37878987Y-42511605D01*
X37816387Y-42620032D01*
X37816387Y-42620033D01*
X37783982Y-42740968D01*
X37164152Y-42740968D01*
X37144043Y-42665920D01*
X37081443Y-42557492D01*
X36992912Y-42468961D01*
X36884484Y-42406361D01*
X36763549Y-42373956D01*
X36638347Y-42373956D01*
X36557723Y-42395559D01*
X36517411Y-42406361D01*
X36408984Y-42468961D01*
X36320453Y-42557492D01*
X36257853Y-42665919D01*
X36257853Y-42665920D01*
X36225448Y-42786855D01*
X31973459Y-42786855D01*
X31998000Y-42762314D01*
X32020307Y-42723677D01*
X32063890Y-42648190D01*
X32063890Y-42648188D01*
X32063892Y-42648186D01*
X32098000Y-42520892D01*
X32098000Y-42389108D01*
X32063892Y-42261814D01*
X32063889Y-42261809D01*
X32063418Y-42260992D01*
X32063417Y-42260990D01*
X32038586Y-42217982D01*
X39626037Y-42217982D01*
X39626037Y-42343184D01*
X39658442Y-42464119D01*
X39721042Y-42572547D01*
X39809573Y-42661078D01*
X39918001Y-42723678D01*
X40038936Y-42756083D01*
X40038938Y-42756083D01*
X40164136Y-42756083D01*
X40164138Y-42756083D01*
X40285073Y-42723678D01*
X40393501Y-42661078D01*
X40482032Y-42572547D01*
X40523253Y-42501149D01*
X52830750Y-42501149D01*
X52830750Y-42626351D01*
X52863155Y-42747286D01*
X52925755Y-42855714D01*
X53014286Y-42944245D01*
X53122714Y-43006845D01*
X53243649Y-43039250D01*
X53243651Y-43039250D01*
X53368849Y-43039250D01*
X53368851Y-43039250D01*
X53489786Y-43006845D01*
X53598214Y-42944245D01*
X53686745Y-42855714D01*
X53749345Y-42747286D01*
X53768148Y-42677112D01*
X53801470Y-42625802D01*
X53858591Y-42603875D01*
X53894366Y-42608585D01*
X54032293Y-42653401D01*
X54032297Y-42653402D01*
X54203386Y-42680500D01*
X54203389Y-42680500D01*
X54376614Y-42680500D01*
X54547702Y-42653402D01*
X54547706Y-42653401D01*
X54712438Y-42599876D01*
X54712440Y-42599874D01*
X54712445Y-42599873D01*
X54866788Y-42521232D01*
X55006928Y-42419414D01*
X55129414Y-42296928D01*
X55231232Y-42156788D01*
X55309873Y-42002445D01*
X55309874Y-42002440D01*
X55309876Y-42002438D01*
X55363401Y-41837706D01*
X55363402Y-41837702D01*
X55390500Y-41666614D01*
X55390500Y-41493385D01*
X55363402Y-41322297D01*
X55363401Y-41322293D01*
X55309876Y-41157561D01*
X55309874Y-41157558D01*
X55309873Y-41157557D01*
X55309873Y-41157555D01*
X55231232Y-41003212D01*
X55129414Y-40863072D01*
X55006928Y-40740586D01*
X54866788Y-40638768D01*
X54866787Y-40638767D01*
X54866785Y-40638766D01*
X54712441Y-40560125D01*
X54712438Y-40560123D01*
X54547706Y-40506598D01*
X54547702Y-40506597D01*
X54376614Y-40479500D01*
X54376611Y-40479500D01*
X54203389Y-40479500D01*
X54203386Y-40479500D01*
X54032297Y-40506597D01*
X54032293Y-40506598D01*
X53867561Y-40560123D01*
X53867558Y-40560125D01*
X53713214Y-40638766D01*
X53573073Y-40740585D01*
X53450585Y-40863073D01*
X53348766Y-41003214D01*
X53270125Y-41157558D01*
X53270123Y-41157561D01*
X53216598Y-41322293D01*
X53216597Y-41322297D01*
X53189500Y-41493385D01*
X53189500Y-41666614D01*
X53216597Y-41837698D01*
X53261415Y-41975633D01*
X53261415Y-42036819D01*
X53225451Y-42086319D01*
X53192884Y-42101852D01*
X53122717Y-42120653D01*
X53122716Y-42120654D01*
X53122714Y-42120654D01*
X53122714Y-42120655D01*
X53100438Y-42133516D01*
X53014286Y-42183255D01*
X52925755Y-42271786D01*
X52863155Y-42380213D01*
X52857946Y-42399654D01*
X52830750Y-42501149D01*
X40523253Y-42501149D01*
X40544632Y-42464119D01*
X40577037Y-42343184D01*
X40577037Y-42217982D01*
X40544632Y-42097047D01*
X40482032Y-41988619D01*
X40393501Y-41900088D01*
X40285073Y-41837488D01*
X40164138Y-41805083D01*
X40038936Y-41805083D01*
X39958312Y-41826686D01*
X39918000Y-41837488D01*
X39809573Y-41900088D01*
X39721042Y-41988619D01*
X39658442Y-42097046D01*
X39658442Y-42097047D01*
X39626037Y-42217982D01*
X32038586Y-42217982D01*
X31998003Y-42147690D01*
X31998001Y-42147688D01*
X31998000Y-42147686D01*
X31904814Y-42054500D01*
X31904811Y-42054498D01*
X31904809Y-42054496D01*
X31790689Y-41988609D01*
X31790691Y-41988609D01*
X31740269Y-41975099D01*
X31663392Y-41954500D01*
X31531608Y-41954500D01*
X31454731Y-41975099D01*
X31404309Y-41988609D01*
X31290190Y-42054496D01*
X31196996Y-42147690D01*
X31131109Y-42261809D01*
X31124990Y-42284647D01*
X31097000Y-42389108D01*
X25635851Y-42389108D01*
X25677995Y-42346964D01*
X25740595Y-42238536D01*
X25773000Y-42117601D01*
X25773000Y-41992399D01*
X25740595Y-41871464D01*
X25677995Y-41763036D01*
X25589464Y-41674505D01*
X25481036Y-41611905D01*
X25360101Y-41579500D01*
X25234899Y-41579500D01*
X25154275Y-41601103D01*
X25113963Y-41611905D01*
X25005536Y-41674505D01*
X24917005Y-41763036D01*
X24854405Y-41871463D01*
X24854405Y-41871464D01*
X24822000Y-41992399D01*
X21823815Y-41992399D01*
X21798000Y-41947686D01*
X21704814Y-41854500D01*
X21704811Y-41854498D01*
X21704809Y-41854496D01*
X21590689Y-41788609D01*
X21590691Y-41788609D01*
X21541299Y-41775375D01*
X21463392Y-41754500D01*
X21331608Y-41754500D01*
X21253700Y-41775375D01*
X21204309Y-41788609D01*
X21090190Y-41854496D01*
X20996996Y-41947690D01*
X20931109Y-42061809D01*
X20922695Y-42093213D01*
X20898569Y-42183255D01*
X20897000Y-42189109D01*
X20897000Y-42305500D01*
X20878093Y-42363691D01*
X20828593Y-42399655D01*
X20798000Y-42404500D01*
X20505708Y-42404500D01*
X20447517Y-42385593D01*
X20411553Y-42336093D01*
X20411553Y-42274907D01*
X20447517Y-42225407D01*
X20449848Y-42223893D01*
X20452247Y-42222052D01*
X20452249Y-42222049D01*
X20452254Y-42222047D01*
X20540785Y-42133516D01*
X20603385Y-42025088D01*
X20635790Y-41904153D01*
X20635790Y-41778951D01*
X20603385Y-41658016D01*
X20540785Y-41549588D01*
X20452254Y-41461057D01*
X20343826Y-41398457D01*
X20222891Y-41366052D01*
X20097689Y-41366052D01*
X19991041Y-41394628D01*
X19976750Y-41398458D01*
X19959028Y-41408690D01*
X19932494Y-41414328D01*
X19906437Y-41421904D01*
X19902877Y-41420623D01*
X19899179Y-41421409D01*
X19874397Y-41410374D01*
X19848865Y-41401187D01*
X19847113Y-41398226D01*
X19843284Y-41396521D01*
X19814466Y-41350587D01*
X19812726Y-41344603D01*
X19808402Y-41317299D01*
X19774102Y-41211736D01*
X19774097Y-41211718D01*
X19766751Y-41189108D01*
X28097000Y-41189108D01*
X28097000Y-41320892D01*
X28122036Y-41414328D01*
X28131109Y-41448190D01*
X28196996Y-41562309D01*
X28196998Y-41562311D01*
X28197000Y-41562314D01*
X28290186Y-41655500D01*
X28290188Y-41655501D01*
X28290190Y-41655503D01*
X28404310Y-41721390D01*
X28404308Y-41721390D01*
X28404312Y-41721391D01*
X28404314Y-41721392D01*
X28531608Y-41755500D01*
X28531610Y-41755500D01*
X28663390Y-41755500D01*
X28663392Y-41755500D01*
X28790686Y-41721392D01*
X28790688Y-41721390D01*
X28790690Y-41721390D01*
X28904809Y-41655503D01*
X28904809Y-41655502D01*
X28904814Y-41655500D01*
X28998000Y-41562314D01*
X29001592Y-41556093D01*
X29063890Y-41448190D01*
X29063890Y-41448188D01*
X29063892Y-41448186D01*
X29098000Y-41320892D01*
X29098000Y-41189108D01*
X29063892Y-41061814D01*
X29063890Y-41061811D01*
X29063890Y-41061809D01*
X28998003Y-40947690D01*
X28998001Y-40947688D01*
X28998000Y-40947686D01*
X28904814Y-40854500D01*
X28904811Y-40854498D01*
X28904809Y-40854496D01*
X28790689Y-40788609D01*
X28790691Y-40788609D01*
X28741299Y-40775375D01*
X28663392Y-40754500D01*
X28531608Y-40754500D01*
X28453700Y-40775375D01*
X28404309Y-40788609D01*
X28290190Y-40854496D01*
X28196996Y-40947690D01*
X28131109Y-41061809D01*
X28112039Y-41132978D01*
X28097000Y-41189108D01*
X19766751Y-41189108D01*
X19754876Y-41152561D01*
X19754874Y-41152558D01*
X19754873Y-41152557D01*
X19754873Y-41152555D01*
X19676232Y-40998212D01*
X19574414Y-40858072D01*
X19451928Y-40735586D01*
X19311788Y-40633768D01*
X19311787Y-40633767D01*
X19311785Y-40633766D01*
X19157441Y-40555125D01*
X19157438Y-40555123D01*
X18992706Y-40501598D01*
X18992702Y-40501597D01*
X18821614Y-40474500D01*
X18821611Y-40474500D01*
X18648389Y-40474500D01*
X18648386Y-40474500D01*
X18477297Y-40501597D01*
X18477293Y-40501598D01*
X18312561Y-40555123D01*
X18312558Y-40555125D01*
X18158214Y-40633766D01*
X18018073Y-40735585D01*
X17895585Y-40858073D01*
X17793766Y-40998214D01*
X17715125Y-41152558D01*
X17690323Y-41228888D01*
X17654359Y-41278388D01*
X17596167Y-41297294D01*
X17537977Y-41278386D01*
X17502014Y-41228886D01*
X17446096Y-41056786D01*
X17349624Y-40867447D01*
X17224722Y-40695535D01*
X17074464Y-40545277D01*
X16902552Y-40420376D01*
X16849235Y-40393210D01*
X16805971Y-40349946D01*
X16796399Y-40289514D01*
X16824176Y-40234997D01*
X16849235Y-40216790D01*
X16902552Y-40189623D01*
X17074464Y-40064722D01*
X17224722Y-39914464D01*
X17349624Y-39742552D01*
X17446096Y-39553213D01*
X17502014Y-39381113D01*
X17537978Y-39331613D01*
X17596168Y-39312705D01*
X17654359Y-39331612D01*
X17690323Y-39381111D01*
X17715125Y-39457441D01*
X17782212Y-39589109D01*
X17793768Y-39611788D01*
X17895586Y-39751928D01*
X18018072Y-39874414D01*
X18158212Y-39976232D01*
X18312555Y-40054873D01*
X18312557Y-40054873D01*
X18312558Y-40054874D01*
X18312561Y-40054876D01*
X18477293Y-40108401D01*
X18477297Y-40108402D01*
X18648386Y-40135500D01*
X18648389Y-40135500D01*
X18821614Y-40135500D01*
X18992702Y-40108402D01*
X18992706Y-40108401D01*
X19157438Y-40054876D01*
X19157440Y-40054874D01*
X19157445Y-40054873D01*
X19280058Y-39992399D01*
X23722000Y-39992399D01*
X23722000Y-40117601D01*
X23754405Y-40238536D01*
X23817005Y-40346964D01*
X23905536Y-40435495D01*
X24013964Y-40498095D01*
X24134899Y-40530500D01*
X24134901Y-40530500D01*
X24260099Y-40530500D01*
X24260101Y-40530500D01*
X24381036Y-40498095D01*
X24489464Y-40435495D01*
X24577995Y-40346964D01*
X24640595Y-40238536D01*
X24673000Y-40117601D01*
X24673000Y-39992399D01*
X41122000Y-39992399D01*
X41122000Y-40117601D01*
X41154405Y-40238536D01*
X41217005Y-40346964D01*
X41305536Y-40435495D01*
X41413964Y-40498095D01*
X41534899Y-40530500D01*
X41534901Y-40530500D01*
X41660099Y-40530500D01*
X41660101Y-40530500D01*
X41781036Y-40498095D01*
X41889464Y-40435495D01*
X41977995Y-40346964D01*
X42040595Y-40238536D01*
X42073000Y-40117601D01*
X42073000Y-39992399D01*
X42040595Y-39871464D01*
X41977995Y-39763036D01*
X41889464Y-39674505D01*
X41781036Y-39611905D01*
X41695958Y-39589108D01*
X51897000Y-39589108D01*
X51897000Y-39720892D01*
X51924174Y-39822309D01*
X51931109Y-39848190D01*
X51996996Y-39962309D01*
X51996998Y-39962311D01*
X51997000Y-39962314D01*
X52090186Y-40055500D01*
X52090188Y-40055501D01*
X52090190Y-40055503D01*
X52204310Y-40121390D01*
X52204308Y-40121390D01*
X52204312Y-40121391D01*
X52204314Y-40121392D01*
X52331608Y-40155500D01*
X52331610Y-40155500D01*
X52463390Y-40155500D01*
X52463392Y-40155500D01*
X52590686Y-40121392D01*
X52590688Y-40121390D01*
X52590690Y-40121390D01*
X52704809Y-40055503D01*
X52704809Y-40055502D01*
X52704814Y-40055500D01*
X52798000Y-39962314D01*
X52830619Y-39905816D01*
X52863890Y-39848190D01*
X52863890Y-39848188D01*
X52863892Y-39848186D01*
X52898000Y-39720892D01*
X52898000Y-39589108D01*
X52863892Y-39461814D01*
X52863890Y-39461811D01*
X52863890Y-39461809D01*
X52798003Y-39347690D01*
X52798001Y-39347688D01*
X52798000Y-39347686D01*
X52704814Y-39254500D01*
X52704811Y-39254498D01*
X52704809Y-39254496D01*
X52590689Y-39188609D01*
X52590691Y-39188609D01*
X52541299Y-39175375D01*
X52463392Y-39154500D01*
X52331608Y-39154500D01*
X52253700Y-39175375D01*
X52204309Y-39188609D01*
X52090190Y-39254496D01*
X51996996Y-39347690D01*
X51931109Y-39461809D01*
X51930940Y-39462441D01*
X51897000Y-39589108D01*
X41695958Y-39589108D01*
X41660101Y-39579500D01*
X41534899Y-39579500D01*
X41454275Y-39601103D01*
X41413963Y-39611905D01*
X41305536Y-39674505D01*
X41217005Y-39763036D01*
X41154405Y-39871463D01*
X41153613Y-39874418D01*
X41122000Y-39992399D01*
X24673000Y-39992399D01*
X24640595Y-39871464D01*
X24577995Y-39763036D01*
X24489464Y-39674505D01*
X24381036Y-39611905D01*
X24260101Y-39579500D01*
X24134899Y-39579500D01*
X24054275Y-39601103D01*
X24013963Y-39611905D01*
X23905536Y-39674505D01*
X23817005Y-39763036D01*
X23754405Y-39871463D01*
X23753613Y-39874418D01*
X23722000Y-39992399D01*
X19280058Y-39992399D01*
X19311788Y-39976232D01*
X19451928Y-39874414D01*
X19574414Y-39751928D01*
X19676232Y-39611788D01*
X19754873Y-39457445D01*
X19754874Y-39457440D01*
X19754876Y-39457438D01*
X19808401Y-39292706D01*
X19808402Y-39292702D01*
X19835500Y-39121614D01*
X19835500Y-38948385D01*
X19808402Y-38777297D01*
X19808401Y-38777293D01*
X19754876Y-38612561D01*
X19754874Y-38612558D01*
X19754873Y-38612557D01*
X19754873Y-38612555D01*
X19691974Y-38489108D01*
X44697000Y-38489108D01*
X44697000Y-38620892D01*
X44723255Y-38718877D01*
X44731109Y-38748190D01*
X44796996Y-38862309D01*
X44796998Y-38862311D01*
X44797000Y-38862314D01*
X44890186Y-38955500D01*
X44890188Y-38955501D01*
X44890190Y-38955503D01*
X45004310Y-39021390D01*
X45004308Y-39021390D01*
X45004312Y-39021391D01*
X45004314Y-39021392D01*
X45131608Y-39055500D01*
X45131610Y-39055500D01*
X45263390Y-39055500D01*
X45263392Y-39055500D01*
X45390686Y-39021392D01*
X45390688Y-39021390D01*
X45390690Y-39021390D01*
X45504809Y-38955503D01*
X45504809Y-38955502D01*
X45504814Y-38955500D01*
X45598000Y-38862314D01*
X45609724Y-38842007D01*
X45663890Y-38748190D01*
X45663890Y-38748188D01*
X45663892Y-38748186D01*
X45698000Y-38620892D01*
X45698000Y-38489108D01*
X45663892Y-38361814D01*
X45663890Y-38361811D01*
X45663890Y-38361809D01*
X45598003Y-38247690D01*
X45598001Y-38247688D01*
X45598000Y-38247686D01*
X45504814Y-38154500D01*
X45504811Y-38154498D01*
X45504809Y-38154496D01*
X45390689Y-38088609D01*
X45390691Y-38088609D01*
X45376222Y-38084732D01*
X45263392Y-38054500D01*
X45131608Y-38054500D01*
X45069954Y-38071020D01*
X45004309Y-38088609D01*
X44890190Y-38154496D01*
X44796996Y-38247690D01*
X44731109Y-38361809D01*
X44731108Y-38361814D01*
X44697000Y-38489108D01*
X19691974Y-38489108D01*
X19676232Y-38458212D01*
X19574414Y-38318072D01*
X19451928Y-38195586D01*
X19311788Y-38093768D01*
X19311787Y-38093767D01*
X19311785Y-38093766D01*
X19157441Y-38015125D01*
X19157438Y-38015123D01*
X19077373Y-37989108D01*
X45997000Y-37989108D01*
X45997000Y-38120892D01*
X46018354Y-38200586D01*
X46031109Y-38248190D01*
X46096996Y-38362309D01*
X46096998Y-38362311D01*
X46097000Y-38362314D01*
X46190186Y-38455500D01*
X46190188Y-38455501D01*
X46190190Y-38455503D01*
X46304310Y-38521390D01*
X46304308Y-38521390D01*
X46304312Y-38521391D01*
X46304314Y-38521392D01*
X46431608Y-38555500D01*
X46431610Y-38555500D01*
X46563390Y-38555500D01*
X46563392Y-38555500D01*
X46690686Y-38521392D01*
X46690688Y-38521390D01*
X46690690Y-38521390D01*
X46804809Y-38455503D01*
X46804809Y-38455502D01*
X46804814Y-38455500D01*
X46898000Y-38362314D01*
X46920656Y-38323073D01*
X46963890Y-38248190D01*
X46963890Y-38248188D01*
X46963892Y-38248186D01*
X46998000Y-38120892D01*
X46998000Y-37989108D01*
X47297000Y-37989108D01*
X47297000Y-38120892D01*
X47318354Y-38200586D01*
X47331109Y-38248190D01*
X47396996Y-38362309D01*
X47396998Y-38362311D01*
X47397000Y-38362314D01*
X47490186Y-38455500D01*
X47490188Y-38455501D01*
X47490190Y-38455503D01*
X47604310Y-38521390D01*
X47604308Y-38521390D01*
X47604312Y-38521391D01*
X47604314Y-38521392D01*
X47731608Y-38555500D01*
X47731610Y-38555500D01*
X47863390Y-38555500D01*
X47863392Y-38555500D01*
X47990686Y-38521392D01*
X47990688Y-38521390D01*
X47990690Y-38521390D01*
X48104809Y-38455503D01*
X48104809Y-38455502D01*
X48104814Y-38455500D01*
X48198000Y-38362314D01*
X48220656Y-38323073D01*
X48263890Y-38248190D01*
X48263890Y-38248188D01*
X48263892Y-38248186D01*
X48298000Y-38120892D01*
X48298000Y-37989108D01*
X48263892Y-37861814D01*
X48263890Y-37861811D01*
X48263890Y-37861809D01*
X48198003Y-37747690D01*
X48198001Y-37747688D01*
X48198000Y-37747686D01*
X48104814Y-37654500D01*
X48104811Y-37654498D01*
X48104809Y-37654496D01*
X47990689Y-37588609D01*
X47990691Y-37588609D01*
X47915275Y-37568402D01*
X47863392Y-37554500D01*
X47731608Y-37554500D01*
X47679725Y-37568402D01*
X47604309Y-37588609D01*
X47490190Y-37654496D01*
X47396996Y-37747690D01*
X47331109Y-37861809D01*
X47326134Y-37880376D01*
X47297000Y-37989108D01*
X46998000Y-37989108D01*
X46963892Y-37861814D01*
X46963890Y-37861811D01*
X46963890Y-37861809D01*
X46898003Y-37747690D01*
X46898001Y-37747688D01*
X46898000Y-37747686D01*
X46804814Y-37654500D01*
X46804811Y-37654498D01*
X46804809Y-37654496D01*
X46690689Y-37588609D01*
X46690691Y-37588609D01*
X46615275Y-37568402D01*
X46563392Y-37554500D01*
X46431608Y-37554500D01*
X46379725Y-37568402D01*
X46304309Y-37588609D01*
X46190190Y-37654496D01*
X46096996Y-37747690D01*
X46031109Y-37861809D01*
X46026134Y-37880376D01*
X45997000Y-37989108D01*
X19077373Y-37989108D01*
X18992706Y-37961598D01*
X18992702Y-37961597D01*
X18821614Y-37934500D01*
X18821611Y-37934500D01*
X18648389Y-37934500D01*
X18648386Y-37934500D01*
X18477297Y-37961597D01*
X18477293Y-37961598D01*
X18312561Y-38015123D01*
X18312558Y-38015125D01*
X18158214Y-38093766D01*
X18018073Y-38195585D01*
X17895585Y-38318073D01*
X17793766Y-38458214D01*
X17715125Y-38612558D01*
X17690323Y-38688888D01*
X17654359Y-38738388D01*
X17596167Y-38757294D01*
X17537977Y-38738386D01*
X17502014Y-38688886D01*
X17446096Y-38516786D01*
X17349624Y-38327447D01*
X17224722Y-38155535D01*
X17074464Y-38005277D01*
X16902552Y-37880376D01*
X16849235Y-37853210D01*
X16805971Y-37809946D01*
X16796399Y-37749514D01*
X16824176Y-37694997D01*
X16849235Y-37676790D01*
X16902552Y-37649623D01*
X17074464Y-37524722D01*
X17224722Y-37374464D01*
X17349624Y-37202552D01*
X17446096Y-37013213D01*
X17502014Y-36841113D01*
X17537978Y-36791613D01*
X17596168Y-36772705D01*
X17654359Y-36791612D01*
X17690323Y-36841111D01*
X17715125Y-36917441D01*
X17791338Y-37067020D01*
X17793768Y-37071788D01*
X17895586Y-37211928D01*
X18018072Y-37334414D01*
X18158212Y-37436232D01*
X18312555Y-37514873D01*
X18312557Y-37514873D01*
X18312558Y-37514874D01*
X18312561Y-37514876D01*
X18477293Y-37568401D01*
X18477297Y-37568402D01*
X18648386Y-37595500D01*
X18648389Y-37595500D01*
X18821614Y-37595500D01*
X18992702Y-37568402D01*
X18992706Y-37568401D01*
X19157438Y-37514876D01*
X19157440Y-37514874D01*
X19157445Y-37514873D01*
X19311788Y-37436232D01*
X19451928Y-37334414D01*
X19574414Y-37211928D01*
X19676232Y-37071788D01*
X19754873Y-36917445D01*
X19754874Y-36917440D01*
X19754876Y-36917438D01*
X19808401Y-36752706D01*
X19808402Y-36752702D01*
X19835500Y-36581614D01*
X19835500Y-36408385D01*
X19808402Y-36237297D01*
X19797934Y-36205081D01*
X19797933Y-36205080D01*
X19791568Y-36185490D01*
X19791568Y-36185489D01*
X37963317Y-36185489D01*
X38006916Y-36290745D01*
X38006923Y-36290759D01*
X38088989Y-36413579D01*
X38193464Y-36518054D01*
X38316302Y-36600131D01*
X38421557Y-36643729D01*
X38421558Y-36643728D01*
X38421558Y-36185490D01*
X38921558Y-36185490D01*
X38921558Y-36643729D01*
X39026814Y-36600130D01*
X39111531Y-36543525D01*
X39170419Y-36526916D01*
X39221535Y-36543525D01*
X39306251Y-36600130D01*
X39411507Y-36643729D01*
X39411508Y-36643728D01*
X39411508Y-36185490D01*
X39911508Y-36185490D01*
X39911508Y-36643729D01*
X40016763Y-36600131D01*
X40139601Y-36518054D01*
X40244076Y-36413579D01*
X40326142Y-36290759D01*
X40326149Y-36290745D01*
X40346463Y-36241705D01*
X40346463Y-36241704D01*
X40369749Y-36185489D01*
X39911509Y-36185489D01*
X39911508Y-36185490D01*
X39411508Y-36185490D01*
X39411507Y-36185489D01*
X38921559Y-36185489D01*
X38921558Y-36185490D01*
X38421558Y-36185490D01*
X38421557Y-36185489D01*
X37963317Y-36185489D01*
X19791568Y-36185489D01*
X19754873Y-36072555D01*
X19676232Y-35918212D01*
X19674333Y-35915598D01*
X38571558Y-35915598D01*
X38571558Y-35955380D01*
X38586782Y-35992134D01*
X38614913Y-36020265D01*
X38651667Y-36035489D01*
X38691449Y-36035489D01*
X38728203Y-36020265D01*
X38756334Y-35992134D01*
X38771558Y-35955380D01*
X38771558Y-35915598D01*
X39561508Y-35915598D01*
X39561508Y-35955380D01*
X39576732Y-35992134D01*
X39604863Y-36020265D01*
X39641617Y-36035489D01*
X39681399Y-36035489D01*
X39718153Y-36020265D01*
X39746284Y-35992134D01*
X39761508Y-35955380D01*
X39761508Y-35915598D01*
X39746284Y-35878844D01*
X39718153Y-35850713D01*
X39681399Y-35835489D01*
X39641617Y-35835489D01*
X39604863Y-35850713D01*
X39576732Y-35878844D01*
X39561508Y-35915598D01*
X38771558Y-35915598D01*
X38756334Y-35878844D01*
X38728203Y-35850713D01*
X38691449Y-35835489D01*
X38651667Y-35835489D01*
X38614913Y-35850713D01*
X38586782Y-35878844D01*
X38571558Y-35915598D01*
X19674333Y-35915598D01*
X19574414Y-35778072D01*
X19451928Y-35655586D01*
X19311788Y-35553768D01*
X19311787Y-35553767D01*
X19311785Y-35553766D01*
X19157441Y-35475125D01*
X19157438Y-35475123D01*
X18992706Y-35421598D01*
X18992702Y-35421597D01*
X18821614Y-35394500D01*
X18821611Y-35394500D01*
X18648389Y-35394500D01*
X18648386Y-35394500D01*
X18477297Y-35421597D01*
X18477293Y-35421598D01*
X18312561Y-35475123D01*
X18312558Y-35475125D01*
X18158214Y-35553766D01*
X18018073Y-35655585D01*
X17895585Y-35778073D01*
X17793766Y-35918214D01*
X17715125Y-36072558D01*
X17690323Y-36148888D01*
X17654359Y-36198388D01*
X17596167Y-36217294D01*
X17537977Y-36198386D01*
X17502014Y-36148886D01*
X17446096Y-35976786D01*
X17349624Y-35787447D01*
X17224722Y-35615535D01*
X17074464Y-35465277D01*
X16902552Y-35340376D01*
X16849235Y-35313210D01*
X16805971Y-35269946D01*
X16796399Y-35209514D01*
X16824176Y-35154997D01*
X16849235Y-35136790D01*
X16902552Y-35109623D01*
X17074464Y-34984722D01*
X17224722Y-34834464D01*
X17349624Y-34662552D01*
X17446096Y-34473213D01*
X17502014Y-34301113D01*
X17537978Y-34251613D01*
X17596168Y-34232705D01*
X17654359Y-34251612D01*
X17690323Y-34301111D01*
X17715125Y-34377441D01*
X17715126Y-34377444D01*
X17715127Y-34377445D01*
X17793768Y-34531788D01*
X17895586Y-34671928D01*
X18018072Y-34794414D01*
X18158212Y-34896232D01*
X18312555Y-34974873D01*
X18312557Y-34974873D01*
X18312558Y-34974874D01*
X18312561Y-34974876D01*
X18477293Y-35028401D01*
X18477297Y-35028402D01*
X18648386Y-35055500D01*
X18648389Y-35055500D01*
X18821614Y-35055500D01*
X18992702Y-35028402D01*
X18992706Y-35028401D01*
X19157438Y-34974876D01*
X19157440Y-34974874D01*
X19157445Y-34974873D01*
X19311788Y-34896232D01*
X19451928Y-34794414D01*
X19574414Y-34671928D01*
X19676232Y-34531788D01*
X19754873Y-34377445D01*
X19754874Y-34377440D01*
X19754876Y-34377438D01*
X19808401Y-34212706D01*
X19808402Y-34212702D01*
X19835500Y-34041614D01*
X19835500Y-33868385D01*
X19808402Y-33697297D01*
X19808401Y-33697293D01*
X19754876Y-33532561D01*
X19754874Y-33532558D01*
X19754873Y-33532557D01*
X19754873Y-33532555D01*
X19676232Y-33378212D01*
X19574414Y-33238072D01*
X19451928Y-33115586D01*
X19311788Y-33013768D01*
X19311787Y-33013767D01*
X19311785Y-33013766D01*
X19157441Y-32935125D01*
X19157438Y-32935123D01*
X18992706Y-32881598D01*
X18992702Y-32881597D01*
X18821614Y-32854500D01*
X18821611Y-32854500D01*
X18648389Y-32854500D01*
X18648386Y-32854500D01*
X18477297Y-32881597D01*
X18477293Y-32881598D01*
X18312561Y-32935123D01*
X18312558Y-32935125D01*
X18158214Y-33013766D01*
X18018073Y-33115585D01*
X17895585Y-33238073D01*
X17793766Y-33378214D01*
X17715125Y-33532558D01*
X17690323Y-33608888D01*
X17654359Y-33658388D01*
X17596167Y-33677294D01*
X17537977Y-33658386D01*
X17502014Y-33608886D01*
X17446096Y-33436786D01*
X17349624Y-33247447D01*
X17224722Y-33075535D01*
X17074464Y-32925277D01*
X16902552Y-32800376D01*
X16849235Y-32773210D01*
X16805971Y-32729946D01*
X16796399Y-32669514D01*
X16824176Y-32614997D01*
X16849235Y-32596790D01*
X16902552Y-32569623D01*
X17074464Y-32444722D01*
X17224722Y-32294464D01*
X17349624Y-32122552D01*
X17446096Y-31933213D01*
X17502014Y-31761113D01*
X17537978Y-31711613D01*
X17596168Y-31692705D01*
X17654359Y-31711612D01*
X17690323Y-31761111D01*
X17715125Y-31837441D01*
X17715126Y-31837444D01*
X17715127Y-31837445D01*
X17793768Y-31991788D01*
X17895586Y-32131928D01*
X18018072Y-32254414D01*
X18158212Y-32356232D01*
X18312555Y-32434873D01*
X18312557Y-32434873D01*
X18312558Y-32434874D01*
X18312561Y-32434876D01*
X18477293Y-32488401D01*
X18477297Y-32488402D01*
X18648386Y-32515500D01*
X18648389Y-32515500D01*
X18821614Y-32515500D01*
X18992702Y-32488402D01*
X18992706Y-32488401D01*
X19157438Y-32434876D01*
X19157440Y-32434874D01*
X19157445Y-32434873D01*
X19311788Y-32356232D01*
X19451928Y-32254414D01*
X19574414Y-32131928D01*
X19676232Y-31991788D01*
X19754873Y-31837445D01*
X19754874Y-31837440D01*
X19754876Y-31837438D01*
X19808401Y-31672706D01*
X19808402Y-31672702D01*
X19835500Y-31501614D01*
X19835500Y-31328385D01*
X19808402Y-31157297D01*
X19808401Y-31157293D01*
X19754876Y-30992561D01*
X19754874Y-30992558D01*
X19754873Y-30992557D01*
X19754873Y-30992555D01*
X19676232Y-30838212D01*
X19574414Y-30698072D01*
X19451928Y-30575586D01*
X19311788Y-30473768D01*
X19311787Y-30473767D01*
X19311785Y-30473766D01*
X19157441Y-30395125D01*
X19157438Y-30395123D01*
X18992706Y-30341598D01*
X18992702Y-30341597D01*
X18821614Y-30314500D01*
X18821611Y-30314500D01*
X18648389Y-30314500D01*
X18648386Y-30314500D01*
X18477297Y-30341597D01*
X18477293Y-30341598D01*
X18312561Y-30395123D01*
X18312558Y-30395125D01*
X18158214Y-30473766D01*
X18018073Y-30575585D01*
X17895585Y-30698073D01*
X17793766Y-30838214D01*
X17715125Y-30992558D01*
X17690323Y-31068888D01*
X17654359Y-31118388D01*
X17596167Y-31137294D01*
X17537977Y-31118386D01*
X17502014Y-31068886D01*
X17446096Y-30896786D01*
X17349624Y-30707447D01*
X17224722Y-30535535D01*
X17074464Y-30385277D01*
X16902552Y-30260376D01*
X16849235Y-30233210D01*
X16805971Y-30189946D01*
X16796399Y-30129514D01*
X16824176Y-30074997D01*
X16849235Y-30056790D01*
X16902552Y-30029623D01*
X17074464Y-29904722D01*
X17224722Y-29754464D01*
X17349624Y-29582552D01*
X17446096Y-29393213D01*
X17502014Y-29221113D01*
X17537978Y-29171613D01*
X17596168Y-29152705D01*
X17654359Y-29171612D01*
X17690323Y-29221111D01*
X17715125Y-29297441D01*
X17715126Y-29297444D01*
X17715127Y-29297445D01*
X17793768Y-29451788D01*
X17895586Y-29591928D01*
X18018072Y-29714414D01*
X18158212Y-29816232D01*
X18312555Y-29894873D01*
X18312557Y-29894873D01*
X18312558Y-29894874D01*
X18312561Y-29894876D01*
X18477293Y-29948401D01*
X18477297Y-29948402D01*
X18648386Y-29975500D01*
X18648389Y-29975500D01*
X18821614Y-29975500D01*
X18992702Y-29948402D01*
X18992706Y-29948401D01*
X19157438Y-29894876D01*
X19157440Y-29894874D01*
X19157445Y-29894873D01*
X19311788Y-29816232D01*
X19451928Y-29714414D01*
X19574414Y-29591928D01*
X19676232Y-29451788D01*
X19754873Y-29297445D01*
X19754874Y-29297440D01*
X19754876Y-29297438D01*
X19808401Y-29132706D01*
X19808402Y-29132702D01*
X19835500Y-28961614D01*
X19835500Y-28788385D01*
X19808402Y-28617297D01*
X19808401Y-28617293D01*
X19754876Y-28452561D01*
X19754874Y-28452558D01*
X19754873Y-28452557D01*
X19754873Y-28452555D01*
X19676232Y-28298212D01*
X19574414Y-28158072D01*
X19451928Y-28035586D01*
X19311788Y-27933768D01*
X19311787Y-27933767D01*
X19311785Y-27933766D01*
X19157441Y-27855125D01*
X19157438Y-27855123D01*
X18992706Y-27801598D01*
X18992702Y-27801597D01*
X18821614Y-27774500D01*
X18821611Y-27774500D01*
X18648389Y-27774500D01*
X18648386Y-27774500D01*
X18477297Y-27801597D01*
X18477293Y-27801598D01*
X18312561Y-27855123D01*
X18312558Y-27855125D01*
X18158214Y-27933766D01*
X18018073Y-28035585D01*
X17895585Y-28158073D01*
X17793766Y-28298214D01*
X17715125Y-28452558D01*
X17690323Y-28528888D01*
X17654359Y-28578388D01*
X17596167Y-28597294D01*
X17537977Y-28578386D01*
X17502014Y-28528886D01*
X17446096Y-28356786D01*
X17349624Y-28167447D01*
X17224722Y-27995535D01*
X17074464Y-27845277D01*
X16902552Y-27720376D01*
X16849235Y-27693210D01*
X16805971Y-27649946D01*
X16796399Y-27589514D01*
X16824176Y-27534997D01*
X16849235Y-27516790D01*
X16902552Y-27489623D01*
X17074464Y-27364722D01*
X17224722Y-27214464D01*
X17349624Y-27042552D01*
X17446096Y-26853213D01*
X17502014Y-26681113D01*
X17537978Y-26631613D01*
X17596168Y-26612705D01*
X17654359Y-26631612D01*
X17690323Y-26681111D01*
X17715125Y-26757441D01*
X17715126Y-26757444D01*
X17715127Y-26757445D01*
X17793768Y-26911788D01*
X17895586Y-27051928D01*
X18018072Y-27174414D01*
X18158212Y-27276232D01*
X18312555Y-27354873D01*
X18312557Y-27354873D01*
X18312558Y-27354874D01*
X18312561Y-27354876D01*
X18477293Y-27408401D01*
X18477297Y-27408402D01*
X18648386Y-27435500D01*
X18648389Y-27435500D01*
X18821614Y-27435500D01*
X18992702Y-27408402D01*
X18992706Y-27408401D01*
X19157438Y-27354876D01*
X19157440Y-27354874D01*
X19157445Y-27354873D01*
X19311788Y-27276232D01*
X19451928Y-27174414D01*
X19574414Y-27051928D01*
X19676232Y-26911788D01*
X19754873Y-26757445D01*
X19754874Y-26757440D01*
X19754876Y-26757438D01*
X19808401Y-26592706D01*
X19808402Y-26592702D01*
X19835500Y-26421614D01*
X19835500Y-26248385D01*
X19808402Y-26077297D01*
X19808401Y-26077293D01*
X19754876Y-25912561D01*
X19754874Y-25912558D01*
X19754873Y-25912557D01*
X19754873Y-25912555D01*
X19676232Y-25758212D01*
X19574414Y-25618072D01*
X19451928Y-25495586D01*
X19311788Y-25393768D01*
X19311787Y-25393767D01*
X19311785Y-25393766D01*
X19157441Y-25315125D01*
X19157438Y-25315123D01*
X18992706Y-25261598D01*
X18992702Y-25261597D01*
X18821614Y-25234500D01*
X18821611Y-25234500D01*
X18648389Y-25234500D01*
X18648386Y-25234500D01*
X18477297Y-25261597D01*
X18477293Y-25261598D01*
X18312561Y-25315123D01*
X18312558Y-25315125D01*
X18158214Y-25393766D01*
X18018073Y-25495585D01*
X17895585Y-25618073D01*
X17793766Y-25758214D01*
X17715125Y-25912558D01*
X17690323Y-25988888D01*
X17654359Y-26038388D01*
X17596167Y-26057294D01*
X17537977Y-26038386D01*
X17502014Y-25988886D01*
X17446096Y-25816786D01*
X17349624Y-25627447D01*
X17224722Y-25455535D01*
X17074464Y-25305277D01*
X16902552Y-25180376D01*
X16849235Y-25153210D01*
X16805971Y-25109946D01*
X16796399Y-25049514D01*
X16824176Y-24994997D01*
X16849235Y-24976790D01*
X16902552Y-24949623D01*
X17074464Y-24824722D01*
X17224722Y-24674464D01*
X17349624Y-24502552D01*
X17446096Y-24313213D01*
X17502014Y-24141113D01*
X17537978Y-24091613D01*
X17596168Y-24072705D01*
X17654359Y-24091612D01*
X17690323Y-24141111D01*
X17715125Y-24217441D01*
X17781385Y-24347486D01*
X17793768Y-24371788D01*
X17895586Y-24511928D01*
X18018072Y-24634414D01*
X18158212Y-24736232D01*
X18312555Y-24814873D01*
X18312557Y-24814873D01*
X18312558Y-24814874D01*
X18312561Y-24814876D01*
X18477293Y-24868401D01*
X18477297Y-24868402D01*
X18648386Y-24895500D01*
X18648389Y-24895500D01*
X18821614Y-24895500D01*
X18992702Y-24868402D01*
X18992706Y-24868401D01*
X19157438Y-24814876D01*
X19157440Y-24814874D01*
X19157445Y-24814873D01*
X19311788Y-24736232D01*
X19451928Y-24634414D01*
X19574414Y-24511928D01*
X19676232Y-24371788D01*
X19754873Y-24217445D01*
X19754874Y-24217440D01*
X19754876Y-24217438D01*
X19808401Y-24052706D01*
X19808402Y-24052702D01*
X19835500Y-23881614D01*
X19835500Y-23708385D01*
X19808402Y-23537297D01*
X19808401Y-23537293D01*
X19754876Y-23372561D01*
X19754874Y-23372558D01*
X19754873Y-23372557D01*
X19754873Y-23372555D01*
X19676232Y-23218212D01*
X19574414Y-23078072D01*
X19451928Y-22955586D01*
X19311788Y-22853768D01*
X19311787Y-22853767D01*
X19311785Y-22853766D01*
X19157441Y-22775125D01*
X19157438Y-22775123D01*
X18992706Y-22721598D01*
X18992702Y-22721597D01*
X18821614Y-22694500D01*
X18821611Y-22694500D01*
X18648389Y-22694500D01*
X18648386Y-22694500D01*
X18477297Y-22721597D01*
X18477293Y-22721598D01*
X18312561Y-22775123D01*
X18312558Y-22775125D01*
X18158214Y-22853766D01*
X18018073Y-22955585D01*
X17895585Y-23078073D01*
X17793766Y-23218214D01*
X17715125Y-23372558D01*
X17690323Y-23448888D01*
X17654359Y-23498388D01*
X17596167Y-23517294D01*
X17537977Y-23498386D01*
X17502014Y-23448886D01*
X17446096Y-23276786D01*
X17349624Y-23087447D01*
X17224722Y-22915535D01*
X17074464Y-22765277D01*
X16902552Y-22640375D01*
X16713215Y-22543904D01*
X16511120Y-22478240D01*
X16445000Y-22467767D01*
X16445000Y-23361988D01*
X16387993Y-23329075D01*
X16260826Y-23295000D01*
X16129174Y-23295000D01*
X16002007Y-23329075D01*
X15945000Y-23361988D01*
X15945000Y-22467768D01*
X15944999Y-22467767D01*
X15878880Y-22478240D01*
X15878878Y-22478240D01*
X15676784Y-22543904D01*
X15487447Y-22640375D01*
X15315535Y-22765277D01*
X15165277Y-22915535D01*
X15040375Y-23087447D01*
X14943904Y-23276784D01*
X14878241Y-23478877D01*
X14867768Y-23544999D01*
X14867769Y-23545000D01*
X15761988Y-23545000D01*
X15729075Y-23602007D01*
X15695000Y-23729174D01*
X15695000Y-23860826D01*
X15729075Y-23987993D01*
X15761988Y-24045000D01*
X14867769Y-24045000D01*
X14878241Y-24111122D01*
X14943904Y-24313215D01*
X15040375Y-24502552D01*
X15165277Y-24674464D01*
X15315535Y-24824722D01*
X15487448Y-24949624D01*
X15540764Y-24976790D01*
X15584029Y-25020055D01*
X15593600Y-25080487D01*
X15565822Y-25135004D01*
X15540764Y-25153210D01*
X15487448Y-25180375D01*
X15315535Y-25305277D01*
X15165277Y-25455535D01*
X15040375Y-25627447D01*
X14943904Y-25816784D01*
X14878241Y-26018877D01*
X14867768Y-26084999D01*
X14867769Y-26085000D01*
X15761988Y-26085000D01*
X15729075Y-26142007D01*
X15695000Y-26269174D01*
X15695000Y-26400826D01*
X15729075Y-26527993D01*
X15761988Y-26585000D01*
X14867769Y-26585000D01*
X14878241Y-26651122D01*
X14943904Y-26853215D01*
X15040375Y-27042552D01*
X15165277Y-27214464D01*
X15315535Y-27364722D01*
X15487448Y-27489624D01*
X15540764Y-27516790D01*
X15584029Y-27560055D01*
X15593600Y-27620487D01*
X15565822Y-27675004D01*
X15540764Y-27693210D01*
X15487448Y-27720375D01*
X15315535Y-27845277D01*
X15165277Y-27995535D01*
X15040375Y-28167447D01*
X14943904Y-28356784D01*
X14878241Y-28558877D01*
X14867768Y-28624999D01*
X14867769Y-28625000D01*
X15761988Y-28625000D01*
X15729075Y-28682007D01*
X15695000Y-28809174D01*
X15695000Y-28940826D01*
X15729075Y-29067993D01*
X15761988Y-29125000D01*
X14867769Y-29125000D01*
X14878241Y-29191122D01*
X14943904Y-29393215D01*
X15040375Y-29582552D01*
X15165277Y-29754464D01*
X15315535Y-29904722D01*
X15487448Y-30029624D01*
X15540764Y-30056790D01*
X15584029Y-30100055D01*
X15593600Y-30160487D01*
X15565822Y-30215004D01*
X15540764Y-30233210D01*
X15487448Y-30260375D01*
X15315535Y-30385277D01*
X15165277Y-30535535D01*
X15040375Y-30707447D01*
X14943904Y-30896784D01*
X14878241Y-31098877D01*
X14867768Y-31164999D01*
X14867769Y-31165000D01*
X15761988Y-31165000D01*
X15729075Y-31222007D01*
X15695000Y-31349174D01*
X15695000Y-31480826D01*
X15729075Y-31607993D01*
X15761988Y-31665000D01*
X14867769Y-31665000D01*
X14878241Y-31731122D01*
X14943904Y-31933215D01*
X15040375Y-32122552D01*
X15165277Y-32294464D01*
X15315535Y-32444722D01*
X15487448Y-32569624D01*
X15540764Y-32596790D01*
X15584029Y-32640055D01*
X15593600Y-32700487D01*
X15565822Y-32755004D01*
X15540764Y-32773210D01*
X15487448Y-32800375D01*
X15315535Y-32925277D01*
X15165277Y-33075535D01*
X15040375Y-33247447D01*
X14943904Y-33436784D01*
X14878241Y-33638877D01*
X14867768Y-33704999D01*
X14867769Y-33705000D01*
X15761988Y-33705000D01*
X15729075Y-33762007D01*
X15695000Y-33889174D01*
X15695000Y-34020826D01*
X15729075Y-34147993D01*
X15761988Y-34205000D01*
X14867769Y-34205000D01*
X14878241Y-34271122D01*
X14943904Y-34473215D01*
X15040375Y-34662552D01*
X15165277Y-34834464D01*
X15315535Y-34984722D01*
X15487448Y-35109624D01*
X15540764Y-35136790D01*
X15584029Y-35180055D01*
X15593600Y-35240487D01*
X15565822Y-35295004D01*
X15540764Y-35313210D01*
X15487448Y-35340375D01*
X15315535Y-35465277D01*
X15165277Y-35615535D01*
X15040375Y-35787447D01*
X14943904Y-35976784D01*
X14878241Y-36178877D01*
X14867768Y-36244999D01*
X14867769Y-36245000D01*
X15761988Y-36245000D01*
X15729075Y-36302007D01*
X15695000Y-36429174D01*
X15695000Y-36560826D01*
X15729075Y-36687993D01*
X15761988Y-36745000D01*
X14867769Y-36745000D01*
X14878241Y-36811122D01*
X14943904Y-37013215D01*
X15040375Y-37202552D01*
X15165277Y-37374464D01*
X15315535Y-37524722D01*
X15487448Y-37649624D01*
X15540764Y-37676790D01*
X15584029Y-37720055D01*
X15593600Y-37780487D01*
X15565822Y-37835004D01*
X15540764Y-37853210D01*
X15487448Y-37880375D01*
X15315535Y-38005277D01*
X15165277Y-38155535D01*
X15040375Y-38327447D01*
X14943904Y-38516784D01*
X14878241Y-38718877D01*
X14867768Y-38784999D01*
X14867769Y-38785000D01*
X15761988Y-38785000D01*
X15729075Y-38842007D01*
X15695000Y-38969174D01*
X15695000Y-39100826D01*
X15729075Y-39227993D01*
X15761988Y-39285000D01*
X14867769Y-39285000D01*
X14878241Y-39351122D01*
X14943904Y-39553215D01*
X15040375Y-39742551D01*
X15098323Y-39822309D01*
X15117230Y-39880500D01*
X15098323Y-39938691D01*
X15048823Y-39974655D01*
X15018230Y-39979500D01*
X14934899Y-39979500D01*
X14886753Y-39992401D01*
X14813963Y-40011905D01*
X14705536Y-40074505D01*
X14617005Y-40163036D01*
X14554405Y-40271463D01*
X14554405Y-40271464D01*
X14522000Y-40392399D01*
X14522000Y-40517601D01*
X14554405Y-40638536D01*
X14617005Y-40746964D01*
X14618005Y-40747964D01*
X14618466Y-40748868D01*
X14620956Y-40752114D01*
X14620354Y-40752575D01*
X14645781Y-40802479D01*
X14647000Y-40817966D01*
X14647000Y-42401144D01*
X14670886Y-42490288D01*
X14717030Y-42570212D01*
X14717031Y-42570213D01*
X14717032Y-42570214D01*
X15117030Y-42970211D01*
X15117031Y-42970213D01*
X15182287Y-43035468D01*
X15182289Y-43035470D01*
X15231202Y-43063710D01*
X15262212Y-43081614D01*
X15351356Y-43105500D01*
X15409151Y-43105500D01*
X15467342Y-43124407D01*
X15503306Y-43173907D01*
X15503306Y-43235093D01*
X15479155Y-43274504D01*
X15478075Y-43275583D01*
X15478072Y-43275586D01*
X15399158Y-43354500D01*
X15355585Y-43398073D01*
X15253766Y-43538214D01*
X15175125Y-43692558D01*
X15175123Y-43692561D01*
X15121598Y-43857293D01*
X15121597Y-43857297D01*
X15094500Y-44028385D01*
X15094500Y-44201614D01*
X15121597Y-44372702D01*
X15121598Y-44372706D01*
X15175123Y-44537438D01*
X15175125Y-44537441D01*
X15175126Y-44537444D01*
X15175127Y-44537445D01*
X15253768Y-44691788D01*
X15355586Y-44831928D01*
X15478072Y-44954414D01*
X15618212Y-45056232D01*
X15772555Y-45134873D01*
X15772557Y-45134873D01*
X15772558Y-45134874D01*
X15772561Y-45134876D01*
X15937293Y-45188401D01*
X15937297Y-45188402D01*
X16108386Y-45215500D01*
X16108389Y-45215500D01*
X16281614Y-45215500D01*
X16452702Y-45188402D01*
X16452706Y-45188401D01*
X16617438Y-45134876D01*
X16617440Y-45134874D01*
X16617445Y-45134873D01*
X16771788Y-45056232D01*
X16911928Y-44954414D01*
X17034414Y-44831928D01*
X17136232Y-44691788D01*
X17214873Y-44537445D01*
X17214874Y-44537440D01*
X17214876Y-44537438D01*
X17268401Y-44372706D01*
X17268402Y-44372702D01*
X17295500Y-44201614D01*
X17295500Y-44028385D01*
X17268402Y-43857297D01*
X17268401Y-43857293D01*
X17214876Y-43692561D01*
X17214874Y-43692558D01*
X17214873Y-43692557D01*
X17214873Y-43692555D01*
X17136232Y-43538212D01*
X17034414Y-43398072D01*
X16911928Y-43275586D01*
X16911924Y-43275583D01*
X16910845Y-43274504D01*
X16883068Y-43219987D01*
X16892639Y-43159555D01*
X16935904Y-43116290D01*
X16980849Y-43105500D01*
X17949151Y-43105500D01*
X18007342Y-43124407D01*
X18043306Y-43173907D01*
X18043306Y-43235093D01*
X18019155Y-43274504D01*
X18018075Y-43275583D01*
X18018072Y-43275586D01*
X17939158Y-43354500D01*
X17895585Y-43398073D01*
X17793766Y-43538214D01*
X17715125Y-43692558D01*
X17715123Y-43692561D01*
X17661598Y-43857293D01*
X17661597Y-43857297D01*
X17634500Y-44028385D01*
X17634500Y-44201614D01*
X17661597Y-44372702D01*
X17661598Y-44372706D01*
X17715123Y-44537438D01*
X17715125Y-44537441D01*
X17715126Y-44537444D01*
X17715127Y-44537445D01*
X17793768Y-44691788D01*
X17895586Y-44831928D01*
X18018072Y-44954414D01*
X18158212Y-45056232D01*
X18312555Y-45134873D01*
X18312557Y-45134873D01*
X18312558Y-45134874D01*
X18312561Y-45134876D01*
X18477293Y-45188401D01*
X18477297Y-45188402D01*
X18648386Y-45215500D01*
X18648389Y-45215500D01*
X18821614Y-45215500D01*
X18992702Y-45188402D01*
X18992706Y-45188401D01*
X19157438Y-45134876D01*
X19157440Y-45134874D01*
X19157445Y-45134873D01*
X19311788Y-45056232D01*
X19451928Y-44954414D01*
X19574414Y-44831928D01*
X19676232Y-44691788D01*
X19754873Y-44537445D01*
X19754874Y-44537440D01*
X19754876Y-44537438D01*
X19808401Y-44372706D01*
X19808402Y-44372702D01*
X19835500Y-44201614D01*
X19835500Y-44028385D01*
X19808402Y-43857297D01*
X19808401Y-43857293D01*
X19754876Y-43692561D01*
X19754874Y-43692558D01*
X19754873Y-43692557D01*
X19754873Y-43692555D01*
X19676232Y-43538212D01*
X19574414Y-43398072D01*
X19451928Y-43275586D01*
X19451924Y-43275583D01*
X19450845Y-43274504D01*
X19423068Y-43219987D01*
X19432639Y-43159555D01*
X19475904Y-43116290D01*
X19520849Y-43105500D01*
X20711310Y-43105500D01*
X20769501Y-43124407D01*
X20781314Y-43134496D01*
X21382287Y-43735469D01*
X21457804Y-43779069D01*
X21457805Y-43779070D01*
X21462208Y-43781612D01*
X21462209Y-43781612D01*
X21462212Y-43781614D01*
X21551356Y-43805500D01*
X22340294Y-43805500D01*
X22398485Y-43824407D01*
X22410298Y-43834496D01*
X22557686Y-43981884D01*
X22585463Y-44036401D01*
X22586682Y-44051888D01*
X22586682Y-44082160D01*
X22593270Y-44106745D01*
X22603832Y-44146166D01*
X22608446Y-44163384D01*
X22610568Y-44171304D01*
X22656712Y-44251228D01*
X22656713Y-44251229D01*
X22656714Y-44251230D01*
X23110696Y-44705211D01*
X23110697Y-44705213D01*
X23175953Y-44770468D01*
X23175955Y-44770470D01*
X23224868Y-44798710D01*
X23255878Y-44816614D01*
X23345022Y-44840500D01*
X25430993Y-44840500D01*
X25489184Y-44859407D01*
X25525148Y-44908907D01*
X25525148Y-44970093D01*
X25489184Y-45019593D01*
X25480500Y-45025232D01*
X25379584Y-45083495D01*
X25319707Y-45118066D01*
X25127268Y-45265729D01*
X24955729Y-45437268D01*
X24808066Y-45629707D01*
X24686772Y-45839795D01*
X24593948Y-46063894D01*
X24593944Y-46063907D01*
X24531161Y-46298213D01*
X24531161Y-46298218D01*
X24499500Y-46538710D01*
X24499500Y-46781289D01*
X24531161Y-47021781D01*
X24531161Y-47021786D01*
X24593944Y-47256092D01*
X24593948Y-47256105D01*
X24686772Y-47480204D01*
X24686774Y-47480208D01*
X24686776Y-47480212D01*
X24805358Y-47685602D01*
X24808066Y-47690292D01*
X24955729Y-47882731D01*
X24955731Y-47882733D01*
X24955735Y-47882738D01*
X25127262Y-48054265D01*
X25127266Y-48054268D01*
X25127268Y-48054270D01*
X25319707Y-48201933D01*
X25319711Y-48201936D01*
X25444414Y-48273933D01*
X25485354Y-48319402D01*
X25491750Y-48380252D01*
X25461157Y-48433240D01*
X25405262Y-48458127D01*
X25394925Y-48458669D01*
X18426750Y-48459500D01*
X14329500Y-48459500D01*
X14271309Y-48440593D01*
X14235345Y-48391093D01*
X14230500Y-48360500D01*
X14230500Y-47704142D01*
X14231251Y-46568385D01*
X15094500Y-46568385D01*
X15094500Y-46741614D01*
X15121597Y-46912702D01*
X15121598Y-46912706D01*
X15175123Y-47077438D01*
X15175125Y-47077441D01*
X15217190Y-47160000D01*
X15253768Y-47231788D01*
X15355586Y-47371928D01*
X15478072Y-47494414D01*
X15618212Y-47596232D01*
X15772555Y-47674873D01*
X15772557Y-47674873D01*
X15772558Y-47674874D01*
X15772561Y-47674876D01*
X15937293Y-47728401D01*
X15937297Y-47728402D01*
X16108386Y-47755500D01*
X16108389Y-47755500D01*
X16281614Y-47755500D01*
X16452702Y-47728402D01*
X16452706Y-47728401D01*
X16617438Y-47674876D01*
X16617440Y-47674874D01*
X16617445Y-47674873D01*
X16771788Y-47596232D01*
X16911928Y-47494414D01*
X17034414Y-47371928D01*
X17136232Y-47231788D01*
X17214873Y-47077445D01*
X17214874Y-47077440D01*
X17214876Y-47077438D01*
X17268401Y-46912706D01*
X17268402Y-46912702D01*
X17295500Y-46741614D01*
X17295500Y-46568385D01*
X17268402Y-46397297D01*
X17268401Y-46397293D01*
X17214876Y-46232561D01*
X17214874Y-46232558D01*
X17214873Y-46232557D01*
X17214873Y-46232555D01*
X17136232Y-46078212D01*
X17034414Y-45938072D01*
X16911928Y-45815586D01*
X16863398Y-45780327D01*
X17634500Y-45780327D01*
X17634500Y-47529672D01*
X17634501Y-47529684D01*
X17649033Y-47602736D01*
X17649035Y-47602742D01*
X17704397Y-47685599D01*
X17704400Y-47685602D01*
X17732148Y-47704142D01*
X17787260Y-47740966D01*
X17842808Y-47752015D01*
X17860315Y-47755498D01*
X17860320Y-47755498D01*
X17860326Y-47755500D01*
X17860327Y-47755500D01*
X19609673Y-47755500D01*
X19609674Y-47755500D01*
X19682740Y-47740966D01*
X19765601Y-47685601D01*
X19820966Y-47602740D01*
X19823023Y-47592399D01*
X20722000Y-47592399D01*
X20722000Y-47717601D01*
X20754405Y-47838536D01*
X20817005Y-47946964D01*
X20905536Y-48035495D01*
X21013964Y-48098095D01*
X21134899Y-48130500D01*
X21134901Y-48130500D01*
X21260099Y-48130500D01*
X21260101Y-48130500D01*
X21381036Y-48098095D01*
X21489464Y-48035495D01*
X21577995Y-47946964D01*
X21640595Y-47838536D01*
X21673000Y-47717601D01*
X21673000Y-47592399D01*
X21640595Y-47471464D01*
X21577995Y-47363036D01*
X21489464Y-47274505D01*
X21381036Y-47211905D01*
X21260101Y-47179500D01*
X21134899Y-47179500D01*
X21054275Y-47201103D01*
X21013963Y-47211905D01*
X20905536Y-47274505D01*
X20817005Y-47363036D01*
X20754405Y-47471463D01*
X20754405Y-47471464D01*
X20722000Y-47592399D01*
X19823023Y-47592399D01*
X19833553Y-47539464D01*
X19835499Y-47529681D01*
X19835500Y-47529672D01*
X19835500Y-45780327D01*
X19835498Y-45780315D01*
X19823255Y-45718768D01*
X19820966Y-45707260D01*
X19799057Y-45674470D01*
X19765602Y-45624400D01*
X19765599Y-45624397D01*
X19682742Y-45569035D01*
X19682740Y-45569034D01*
X19682737Y-45569033D01*
X19682736Y-45569033D01*
X19609684Y-45554501D01*
X19609674Y-45554500D01*
X17860326Y-45554500D01*
X17860325Y-45554500D01*
X17860315Y-45554501D01*
X17787263Y-45569033D01*
X17787257Y-45569035D01*
X17704400Y-45624397D01*
X17704397Y-45624400D01*
X17649035Y-45707257D01*
X17649033Y-45707263D01*
X17634501Y-45780315D01*
X17634500Y-45780327D01*
X16863398Y-45780327D01*
X16771788Y-45713768D01*
X16771787Y-45713767D01*
X16771785Y-45713766D01*
X16617441Y-45635125D01*
X16617438Y-45635123D01*
X16452706Y-45581598D01*
X16452702Y-45581597D01*
X16281614Y-45554500D01*
X16281611Y-45554500D01*
X16108389Y-45554500D01*
X16108386Y-45554500D01*
X15937297Y-45581597D01*
X15937293Y-45581598D01*
X15772561Y-45635123D01*
X15772558Y-45635125D01*
X15618214Y-45713766D01*
X15478073Y-45815585D01*
X15355585Y-45938073D01*
X15253766Y-46078214D01*
X15175125Y-46232558D01*
X15175123Y-46232561D01*
X15121598Y-46397293D01*
X15121597Y-46397297D01*
X15094500Y-46568385D01*
X14231251Y-46568385D01*
X14231254Y-46564434D01*
X14237770Y-36715344D01*
X14244931Y-25888594D01*
X14246462Y-23574525D01*
X14247435Y-22103934D01*
X14266381Y-22045756D01*
X14315905Y-22009825D01*
X14346435Y-22005000D01*
X20496381Y-22005000D01*
X20554572Y-22023907D01*
G37*
G04 #@! TD.AperFunction*
G04 #@! TA.AperFunction,Conductor*
G36*
X16445000Y-41141988D02*
G01*
X16387993Y-41109075D01*
X16260826Y-41075000D01*
X16129174Y-41075000D01*
X16002007Y-41109075D01*
X15945000Y-41141988D01*
X15945000Y-39468012D01*
X16002007Y-39500925D01*
X16129174Y-39535000D01*
X16260826Y-39535000D01*
X16387993Y-39500925D01*
X16445000Y-39468012D01*
X16445000Y-41141988D01*
G37*
G04 #@! TD.AperFunction*
G04 #@! TA.AperFunction,Conductor*
G36*
X16445000Y-38601988D02*
G01*
X16387993Y-38569075D01*
X16260826Y-38535000D01*
X16129174Y-38535000D01*
X16002007Y-38569075D01*
X15945000Y-38601988D01*
X15945000Y-36928012D01*
X16002007Y-36960925D01*
X16129174Y-36995000D01*
X16260826Y-36995000D01*
X16387993Y-36960925D01*
X16445000Y-36928012D01*
X16445000Y-38601988D01*
G37*
G04 #@! TD.AperFunction*
G04 #@! TA.AperFunction,Conductor*
G36*
X16445000Y-36061988D02*
G01*
X16387993Y-36029075D01*
X16260826Y-35995000D01*
X16129174Y-35995000D01*
X16002007Y-36029075D01*
X15945000Y-36061988D01*
X15945000Y-34388012D01*
X16002007Y-34420925D01*
X16129174Y-34455000D01*
X16260826Y-34455000D01*
X16387993Y-34420925D01*
X16445000Y-34388012D01*
X16445000Y-36061988D01*
G37*
G04 #@! TD.AperFunction*
G04 #@! TA.AperFunction,Conductor*
G36*
X16445000Y-33521988D02*
G01*
X16387993Y-33489075D01*
X16260826Y-33455000D01*
X16129174Y-33455000D01*
X16002007Y-33489075D01*
X15945000Y-33521988D01*
X15945000Y-31848012D01*
X16002007Y-31880925D01*
X16129174Y-31915000D01*
X16260826Y-31915000D01*
X16387993Y-31880925D01*
X16445000Y-31848012D01*
X16445000Y-33521988D01*
G37*
G04 #@! TD.AperFunction*
G04 #@! TA.AperFunction,Conductor*
G36*
X38645965Y-30686902D02*
G01*
X38656938Y-30689084D01*
X38703153Y-30698276D01*
X38721715Y-30703907D01*
X38775601Y-30726227D01*
X38792706Y-30735370D01*
X38841185Y-30767763D01*
X38856187Y-30780074D01*
X38897423Y-30821310D01*
X38909729Y-30836305D01*
X38942123Y-30884783D01*
X38951272Y-30901900D01*
X38973590Y-30955782D01*
X38979222Y-30974347D01*
X38990597Y-31031526D01*
X38992500Y-31050842D01*
X38992500Y-31109153D01*
X38990598Y-31128467D01*
X38985226Y-31155474D01*
X38985225Y-31155477D01*
X38979222Y-31185651D01*
X38973589Y-31204220D01*
X38951275Y-31258091D01*
X38942126Y-31275206D01*
X38909732Y-31323687D01*
X38897421Y-31338690D01*
X38856190Y-31379921D01*
X38841187Y-31392232D01*
X38792706Y-31424626D01*
X38775591Y-31433775D01*
X38721720Y-31456089D01*
X38703151Y-31461722D01*
X38668010Y-31468713D01*
X38645970Y-31473097D01*
X38626657Y-31475000D01*
X38568343Y-31475000D01*
X38549028Y-31473097D01*
X38521064Y-31467534D01*
X38491846Y-31461722D01*
X38473277Y-31456089D01*
X38419405Y-31433775D01*
X38402292Y-31424628D01*
X38353808Y-31392231D01*
X38338811Y-31379924D01*
X38297575Y-31338688D01*
X38285264Y-31323686D01*
X38257113Y-31281556D01*
X38252870Y-31275206D01*
X38243727Y-31258100D01*
X38221406Y-31204212D01*
X38215775Y-31185648D01*
X38204402Y-31128472D01*
X38202500Y-31109158D01*
X38202500Y-31050845D01*
X38204402Y-31031533D01*
X38212154Y-30992558D01*
X38215776Y-30974344D01*
X38221409Y-30955777D01*
X38230126Y-30934732D01*
X38243727Y-30901896D01*
X38252867Y-30884795D01*
X38285266Y-30836307D01*
X38297569Y-30821315D01*
X38338814Y-30780070D01*
X38353804Y-30767769D01*
X38402292Y-30735370D01*
X38419400Y-30726226D01*
X38473280Y-30703908D01*
X38491840Y-30698278D01*
X38529228Y-30690841D01*
X38549035Y-30686902D01*
X38568348Y-30685000D01*
X38626653Y-30685000D01*
X38645965Y-30686902D01*
G37*
G04 #@! TD.AperFunction*
G04 #@! TA.AperFunction,Conductor*
G36*
X16445000Y-30981988D02*
G01*
X16387993Y-30949075D01*
X16260826Y-30915000D01*
X16129174Y-30915000D01*
X16002007Y-30949075D01*
X15945000Y-30981988D01*
X15945000Y-29308012D01*
X16002007Y-29340925D01*
X16129174Y-29375000D01*
X16260826Y-29375000D01*
X16387993Y-29340925D01*
X16445000Y-29308012D01*
X16445000Y-30981988D01*
G37*
G04 #@! TD.AperFunction*
G04 #@! TA.AperFunction,Conductor*
G36*
X16445000Y-28441988D02*
G01*
X16387993Y-28409075D01*
X16260826Y-28375000D01*
X16129174Y-28375000D01*
X16002007Y-28409075D01*
X15945000Y-28441988D01*
X15945000Y-26768012D01*
X16002007Y-26800925D01*
X16129174Y-26835000D01*
X16260826Y-26835000D01*
X16387993Y-26800925D01*
X16445000Y-26768012D01*
X16445000Y-28441988D01*
G37*
G04 #@! TD.AperFunction*
G04 #@! TA.AperFunction,Conductor*
G36*
X16445000Y-25901988D02*
G01*
X16387993Y-25869075D01*
X16260826Y-25835000D01*
X16129174Y-25835000D01*
X16002007Y-25869075D01*
X15945000Y-25901988D01*
X15945000Y-24228012D01*
X16002007Y-24260925D01*
X16129174Y-24295000D01*
X16260826Y-24295000D01*
X16387993Y-24260925D01*
X16445000Y-24228012D01*
X16445000Y-25901988D01*
G37*
G04 #@! TD.AperFunction*
G04 #@! TD*
M02*
