%TF.GenerationSoftware,KiCad,Pcbnew,9.0.4*%
%TF.CreationDate,2025-08-20T21:16:51-04:00*%
%TF.ProjectId,jlcpcb_1x1,6a6c6370-6362-45f3-9178-312e6b696361,rev?*%
%TF.SameCoordinates,Original*%
%TF.FileFunction,Drillmap*%
%TF.FilePolarity,Positive*%
%FSLAX45Y45*%
G04 Gerber Fmt 4.5, Leading zero omitted, Abs format (unit mm)*
G04 Created by KiCad (PCBNEW 9.0.4) date 2025-08-20 21:16:51*
%MOMM*%
%LPD*%
G01*
G04 APERTURE LIST*
%ADD10C,0.100000*%
%ADD11C,0.200000*%
%ADD12C,0.220000*%
G04 APERTURE END LIST*
D10*
X5623000Y-4096000D02*
X5623000Y-2950000D01*
X1223000Y-2000000D02*
X5823000Y-2000000D01*
X5823000Y-4396000D02*
X5823000Y-5046000D01*
X7046000Y0D02*
X0Y0D01*
X1223000Y-2950000D02*
X1423000Y-2950000D01*
X5623000Y-2950000D02*
X5823000Y-2950000D01*
X5823000Y-2650000D02*
X5623000Y-2650000D01*
X5623000Y-2650000D02*
X5623000Y-2200000D01*
X1423000Y-2650000D02*
X1223000Y-2650000D01*
X0Y-7046000D02*
X7046000Y-7046000D01*
X1423000Y-2950000D02*
X1423000Y-4096000D01*
X1423000Y-4846000D02*
X5623000Y-4846000D01*
X1423000Y-4396000D02*
X1423000Y-4846000D01*
X5823000Y-5046000D02*
X1223000Y-5046000D01*
X1423000Y-4096000D02*
X1223000Y-4096000D01*
X5823000Y-2950000D02*
X5823000Y-4096000D01*
X1223000Y-2650000D02*
X1223000Y-2000000D01*
X5823000Y-4096000D02*
X5623000Y-4096000D01*
X5623000Y-2200000D02*
X1423000Y-2200000D01*
X1423000Y-2200000D02*
X1423000Y-2650000D01*
X5823000Y-2000000D02*
X5823000Y-2650000D01*
X1223000Y-5046000D02*
X1223000Y-4396000D01*
X5623000Y-4396000D02*
X5823000Y-4396000D01*
X1223000Y-4396000D02*
X1423000Y-4396000D01*
X1223000Y-4096000D02*
X1223000Y-2950000D01*
X5623000Y-4846000D02*
X5623000Y-4396000D01*
X0Y0D02*
X0Y-7046000D01*
X7046000Y-7046000D02*
X7046000Y0D01*
D11*
D10*
X1489750Y-4035500D02*
X1509750Y-4055500D01*
X1509750Y-4035500D02*
X1489750Y-4055500D01*
X2006029Y-4174155D02*
X2026029Y-4194155D01*
X2026029Y-4174155D02*
X2006029Y-4194155D01*
X2109750Y-4755500D02*
X2129750Y-4775500D01*
X2129750Y-4755500D02*
X2109750Y-4775500D01*
X2154750Y-3595500D02*
X2174750Y-3615500D01*
X2174750Y-3595500D02*
X2154750Y-3615500D01*
X2229750Y-3875500D02*
X2249750Y-3895500D01*
X2249750Y-3875500D02*
X2229750Y-3895500D01*
X2249750Y-4755500D02*
X2269750Y-4775500D01*
X2269750Y-4755500D02*
X2249750Y-4775500D01*
X2266093Y-4223391D02*
X2286093Y-4243391D01*
X2286093Y-4223391D02*
X2266093Y-4243391D01*
X2369750Y-2235500D02*
X2389750Y-2255500D01*
X2389750Y-2235500D02*
X2369750Y-2255500D01*
X2369750Y-2495500D02*
X2389750Y-2515500D01*
X2389750Y-2495500D02*
X2369750Y-2515500D01*
X2389750Y-2975500D02*
X2409750Y-2995500D01*
X2409750Y-2975500D02*
X2389750Y-2995500D01*
X2409750Y-3995500D02*
X2429750Y-4015500D01*
X2429750Y-3995500D02*
X2409750Y-4015500D01*
X2519750Y-4195500D02*
X2539750Y-4215500D01*
X2539750Y-4195500D02*
X2519750Y-4215500D01*
X2549750Y-2715500D02*
X2569750Y-2735500D01*
X2569750Y-2715500D02*
X2549750Y-2735500D01*
X2729750Y-3395500D02*
X2749750Y-3415500D01*
X2749750Y-3395500D02*
X2729750Y-3415500D01*
X2830409Y-4353500D02*
X2850409Y-4373500D01*
X2850409Y-4353500D02*
X2830409Y-4373500D01*
X2869750Y-4775500D02*
X2889750Y-4795500D01*
X2889750Y-4775500D02*
X2869750Y-4795500D01*
X3123158Y-4365500D02*
X3143158Y-4385500D01*
X3143158Y-4365500D02*
X3123158Y-4385500D01*
X3252224Y-3171766D02*
X3272224Y-3191766D01*
X3272224Y-3171766D02*
X3252224Y-3191766D01*
X3329750Y-3355500D02*
X3349750Y-3375500D01*
X3349750Y-3355500D02*
X3329750Y-3375500D01*
X3329750Y-4205500D02*
X3349750Y-4225500D01*
X3349750Y-4205500D02*
X3329750Y-4225500D01*
X3660095Y-4274946D02*
X3680095Y-4294946D01*
X3680095Y-4274946D02*
X3660095Y-4294946D01*
X3705099Y-2860467D02*
X3725099Y-2880467D01*
X3725099Y-2860467D02*
X3705099Y-2880467D01*
X3815948Y-4270357D02*
X3835948Y-4290357D01*
X3835948Y-4270357D02*
X3815948Y-4290357D01*
X4000154Y-4218058D02*
X4020154Y-4238058D01*
X4020154Y-4218058D02*
X4000154Y-4238058D01*
X4049750Y-2815500D02*
X4069750Y-2835500D01*
X4069750Y-2815500D02*
X4049750Y-2835500D01*
X4149750Y-3995500D02*
X4169750Y-4015500D01*
X4169750Y-3995500D02*
X4149750Y-4015500D01*
X4149750Y-4235500D02*
X4169750Y-4255500D01*
X4169750Y-4235500D02*
X4149750Y-4255500D01*
X4489750Y-3935500D02*
X4509750Y-3955500D01*
X4509750Y-3935500D02*
X4489750Y-3955500D01*
X4509750Y-3515500D02*
X4529750Y-3535500D01*
X4529750Y-3515500D02*
X4509750Y-3535500D01*
X4649750Y-4155500D02*
X4669750Y-4175500D01*
X4669750Y-4155500D02*
X4649750Y-4175500D01*
X4869750Y-3855500D02*
X4889750Y-3875500D01*
X4889750Y-3855500D02*
X4869750Y-3875500D01*
X5144750Y-2860500D02*
X5164750Y-2880500D01*
X5164750Y-2860500D02*
X5144750Y-2880500D01*
X5320625Y-4246375D02*
X5340625Y-4266375D01*
X5340625Y-4246375D02*
X5320625Y-4266375D01*
X5409750Y-4295500D02*
X5429750Y-4315500D01*
X5429750Y-4295500D02*
X5409750Y-4315500D01*
X5459750Y-2635500D02*
X5479750Y-2655500D01*
X5479750Y-2635500D02*
X5459750Y-2655500D01*
X5569750Y-3755500D02*
X5589750Y-3775500D01*
X5589750Y-3755500D02*
X5569750Y-3775500D01*
X2149750Y-3055500D02*
G75*
G02*
X2129750Y-3055500I-10000J0D01*
G01*
X2129750Y-3055500D02*
G75*
G02*
X2149750Y-3055500I10000J0D01*
G01*
X2149750Y-4225500D02*
G75*
G02*
X2129750Y-4225500I-10000J0D01*
G01*
X2129750Y-4225500D02*
G75*
G02*
X2149750Y-4225500I10000J0D01*
G01*
X2549750Y-3155500D02*
G75*
G02*
X2529750Y-3155500I-10000J0D01*
G01*
X2529750Y-3155500D02*
G75*
G02*
X2549750Y-3155500I10000J0D01*
G01*
X2869750Y-4125500D02*
G75*
G02*
X2849750Y-4125500I-10000J0D01*
G01*
X2849750Y-4125500D02*
G75*
G02*
X2869750Y-4125500I10000J0D01*
G01*
X2979750Y-3148000D02*
G75*
G02*
X2959750Y-3148000I-10000J0D01*
G01*
X2959750Y-3148000D02*
G75*
G02*
X2979750Y-3148000I10000J0D01*
G01*
X3169750Y-4245500D02*
G75*
G02*
X3149750Y-4245500I-10000J0D01*
G01*
X3149750Y-4245500D02*
G75*
G02*
X3169750Y-4245500I10000J0D01*
G01*
X3369750Y-3125500D02*
G75*
G02*
X3349750Y-3125500I-10000J0D01*
G01*
X3349750Y-3125500D02*
G75*
G02*
X3369750Y-3125500I10000J0D01*
G01*
X3449750Y-4385500D02*
G75*
G02*
X3429750Y-4385500I-10000J0D01*
G01*
X3429750Y-4385500D02*
G75*
G02*
X3449750Y-4385500I10000J0D01*
G01*
X3877156Y-3494554D02*
G75*
G02*
X3857156Y-3494554I-10000J0D01*
G01*
X3857156Y-3494554D02*
G75*
G02*
X3877156Y-3494554I10000J0D01*
G01*
X3877156Y-3593549D02*
G75*
G02*
X3857156Y-3593549I-10000J0D01*
G01*
X3857156Y-3593549D02*
G75*
G02*
X3877156Y-3593549I10000J0D01*
G01*
X3926653Y-3544051D02*
G75*
G02*
X3906653Y-3544051I-10000J0D01*
G01*
X3906653Y-3544051D02*
G75*
G02*
X3926653Y-3544051I10000J0D01*
G01*
X3976151Y-3494554D02*
G75*
G02*
X3956151Y-3494554I-10000J0D01*
G01*
X3956151Y-3494554D02*
G75*
G02*
X3976151Y-3494554I10000J0D01*
G01*
X3976151Y-3593549D02*
G75*
G02*
X3956151Y-3593549I-10000J0D01*
G01*
X3956151Y-3593549D02*
G75*
G02*
X3976151Y-3593549I10000J0D01*
G01*
X4369750Y-3148000D02*
G75*
G02*
X4349750Y-3148000I-10000J0D01*
G01*
X4349750Y-3148000D02*
G75*
G02*
X4369750Y-3148000I10000J0D01*
G01*
X4529750Y-3855500D02*
G75*
G02*
X4509750Y-3855500I-10000J0D01*
G01*
X4509750Y-3855500D02*
G75*
G02*
X4529750Y-3855500I10000J0D01*
G01*
X4659750Y-3805500D02*
G75*
G02*
X4639750Y-3805500I-10000J0D01*
G01*
X4639750Y-3805500D02*
G75*
G02*
X4659750Y-3805500I10000J0D01*
G01*
X4729750Y-3141750D02*
G75*
G02*
X4709750Y-3141750I-10000J0D01*
G01*
X4709750Y-3141750D02*
G75*
G02*
X4729750Y-3141750I10000J0D01*
G01*
X4789750Y-3805500D02*
G75*
G02*
X4769750Y-3805500I-10000J0D01*
G01*
X4769750Y-3805500D02*
G75*
G02*
X4789750Y-3805500I10000J0D01*
G01*
X5089750Y-3149000D02*
G75*
G02*
X5069750Y-3149000I-10000J0D01*
G01*
X5069750Y-3149000D02*
G75*
G02*
X5089750Y-3149000I10000J0D01*
G01*
X5249750Y-3965500D02*
G75*
G02*
X5229750Y-3965500I-10000J0D01*
G01*
X5229750Y-3965500D02*
G75*
G02*
X5249750Y-3965500I10000J0D01*
G01*
X5449750Y-3153750D02*
G75*
G02*
X5429750Y-3153750I-10000J0D01*
G01*
X5429750Y-3153750D02*
G75*
G02*
X5449750Y-3153750I10000J0D01*
G01*
X5539750Y-3425500D02*
G75*
G02*
X5519750Y-3425500I-10000J0D01*
G01*
X5519750Y-3425500D02*
G75*
G02*
X5539750Y-3425500I10000J0D01*
G01*
X2371218Y-4351500D02*
X2371218Y-4391500D01*
X2351218Y-4371500D02*
X2391218Y-4371500D01*
X3859750Y-3088000D02*
X3859750Y-3128000D01*
X3839750Y-3108000D02*
X3879750Y-3108000D01*
X1654856Y-2414856D02*
X1654856Y-2344144D01*
X1584144Y-2344144D01*
X1584144Y-2414856D01*
X1654856Y-2414856D01*
X1654856Y-2668856D02*
X1654856Y-2598144D01*
X1584144Y-2598144D01*
X1584144Y-2668856D01*
X1654856Y-2668856D01*
X1654856Y-2922856D02*
X1654856Y-2852144D01*
X1584144Y-2852144D01*
X1584144Y-2922856D01*
X1654856Y-2922856D01*
X1654856Y-3176856D02*
X1654856Y-3106144D01*
X1584144Y-3106144D01*
X1584144Y-3176856D01*
X1654856Y-3176856D01*
X1654856Y-3430856D02*
X1654856Y-3360144D01*
X1584144Y-3360144D01*
X1584144Y-3430856D01*
X1654856Y-3430856D01*
X1654856Y-3684856D02*
X1654856Y-3614144D01*
X1584144Y-3614144D01*
X1584144Y-3684856D01*
X1654856Y-3684856D01*
X1654856Y-3938856D02*
X1654856Y-3868144D01*
X1584144Y-3868144D01*
X1584144Y-3938856D01*
X1654856Y-3938856D01*
X1654856Y-4192856D02*
X1654856Y-4122144D01*
X1584144Y-4122144D01*
X1584144Y-4192856D01*
X1654856Y-4192856D01*
X1654856Y-4446856D02*
X1654856Y-4376144D01*
X1584144Y-4376144D01*
X1584144Y-4446856D01*
X1654856Y-4446856D01*
X1654856Y-4700856D02*
X1654856Y-4630144D01*
X1584144Y-4630144D01*
X1584144Y-4700856D01*
X1654856Y-4700856D01*
X1908856Y-2414856D02*
X1908856Y-2344144D01*
X1838144Y-2344144D01*
X1838144Y-2414856D01*
X1908856Y-2414856D01*
X1908856Y-2668856D02*
X1908856Y-2598144D01*
X1838144Y-2598144D01*
X1838144Y-2668856D01*
X1908856Y-2668856D01*
X1908856Y-2922856D02*
X1908856Y-2852144D01*
X1838144Y-2852144D01*
X1838144Y-2922856D01*
X1908856Y-2922856D01*
X1908856Y-3176856D02*
X1908856Y-3106144D01*
X1838144Y-3106144D01*
X1838144Y-3176856D01*
X1908856Y-3176856D01*
X1908856Y-3430856D02*
X1908856Y-3360144D01*
X1838144Y-3360144D01*
X1838144Y-3430856D01*
X1908856Y-3430856D01*
X1908856Y-3684856D02*
X1908856Y-3614144D01*
X1838144Y-3614144D01*
X1838144Y-3684856D01*
X1908856Y-3684856D01*
X1908856Y-3938856D02*
X1908856Y-3868144D01*
X1838144Y-3868144D01*
X1838144Y-3938856D01*
X1908856Y-3938856D01*
X1908856Y-4192856D02*
X1908856Y-4122144D01*
X1838144Y-4122144D01*
X1838144Y-4192856D01*
X1908856Y-4192856D01*
X1908856Y-4446856D02*
X1908856Y-4376144D01*
X1838144Y-4376144D01*
X1838144Y-4446856D01*
X1908856Y-4446856D01*
X1908856Y-4700856D02*
X1908856Y-4630144D01*
X1838144Y-4630144D01*
X1838144Y-4700856D01*
X1908856Y-4700856D01*
X3179856Y-2415356D02*
X3179856Y-2344644D01*
X3109144Y-2344644D01*
X3109144Y-2415356D01*
X3179856Y-2415356D01*
X3179856Y-2669356D02*
X3179856Y-2598644D01*
X3109144Y-2598644D01*
X3109144Y-2669356D01*
X3179856Y-2669356D01*
X3179856Y-4701356D02*
X3179856Y-4630644D01*
X3109144Y-4630644D01*
X3109144Y-4701356D01*
X3179856Y-4701356D01*
X3433856Y-2415356D02*
X3433856Y-2344644D01*
X3363144Y-2344644D01*
X3363144Y-2415356D01*
X3433856Y-2415356D01*
X3433856Y-2669356D02*
X3433856Y-2598644D01*
X3363144Y-2598644D01*
X3363144Y-2669356D01*
X3433856Y-2669356D01*
X3433856Y-4701356D02*
X3433856Y-4630644D01*
X3363144Y-4630644D01*
X3363144Y-4701356D01*
X3433856Y-4701356D01*
X3687856Y-2415356D02*
X3687856Y-2344644D01*
X3617144Y-2344644D01*
X3617144Y-2415356D01*
X3687856Y-2415356D01*
X3687856Y-2669356D02*
X3687856Y-2598644D01*
X3617144Y-2598644D01*
X3617144Y-2669356D01*
X3687856Y-2669356D01*
X3687856Y-4701356D02*
X3687856Y-4630644D01*
X3617144Y-4630644D01*
X3617144Y-4701356D01*
X3687856Y-4701356D01*
X3941856Y-2415356D02*
X3941856Y-2344644D01*
X3871144Y-2344644D01*
X3871144Y-2415356D01*
X3941856Y-2415356D01*
X3941856Y-2669356D02*
X3941856Y-2598644D01*
X3871144Y-2598644D01*
X3871144Y-2669356D01*
X3941856Y-2669356D01*
X3941856Y-4701356D02*
X3941856Y-4630644D01*
X3871144Y-4630644D01*
X3871144Y-4701356D01*
X3941856Y-4701356D01*
X4195856Y-2415356D02*
X4195856Y-2344644D01*
X4125144Y-2344644D01*
X4125144Y-2415356D01*
X4195856Y-2415356D01*
X4195856Y-2669356D02*
X4195856Y-2598644D01*
X4125144Y-2598644D01*
X4125144Y-2669356D01*
X4195856Y-2669356D01*
X4195856Y-4701356D02*
X4195856Y-4630644D01*
X4125144Y-4630644D01*
X4125144Y-4701356D01*
X4195856Y-4701356D01*
X4449856Y-2415356D02*
X4449856Y-2344644D01*
X4379144Y-2344644D01*
X4379144Y-2415356D01*
X4449856Y-2415356D01*
X4449856Y-2669356D02*
X4449856Y-2598644D01*
X4379144Y-2598644D01*
X4379144Y-2669356D01*
X4449856Y-2669356D01*
X4449856Y-4701356D02*
X4449856Y-4630644D01*
X4379144Y-4630644D01*
X4379144Y-4701356D01*
X4449856Y-4701356D01*
X4703856Y-2415356D02*
X4703856Y-2344644D01*
X4633144Y-2344644D01*
X4633144Y-2415356D01*
X4703856Y-2415356D01*
X4703856Y-2669356D02*
X4703856Y-2598644D01*
X4633144Y-2598644D01*
X4633144Y-2669356D01*
X4703856Y-2669356D01*
X4703856Y-4701356D02*
X4703856Y-4630644D01*
X4633144Y-4630644D01*
X4633144Y-4701356D01*
X4703856Y-4701356D01*
X4957856Y-2415356D02*
X4957856Y-2344644D01*
X4887144Y-2344644D01*
X4887144Y-2415356D01*
X4957856Y-2415356D01*
X4957856Y-2669356D02*
X4957856Y-2598644D01*
X4887144Y-2598644D01*
X4887144Y-2669356D01*
X4957856Y-2669356D01*
X4957856Y-4701356D02*
X4957856Y-4630644D01*
X4887144Y-4630644D01*
X4887144Y-4701356D01*
X4957856Y-4701356D01*
X5210356Y-2669356D02*
X5210356Y-2598644D01*
X5139644Y-2598644D01*
X5139644Y-2669356D01*
X5210356Y-2669356D01*
X5464356Y-3685356D02*
X5464356Y-3614644D01*
X5393644Y-3614644D01*
X5393644Y-3685356D01*
X5464356Y-3685356D01*
X5464356Y-3939356D02*
X5464356Y-3868644D01*
X5393644Y-3868644D01*
X5393644Y-3939356D01*
X5464356Y-3939356D01*
X5464356Y-4193356D02*
X5464356Y-4122644D01*
X5393644Y-4122644D01*
X5393644Y-4193356D01*
X5464356Y-4193356D01*
D12*
X2635000Y-2490000D02*
X2745000Y-2380000D01*
X2635000Y-2270000D01*
X2525000Y-2380000D01*
X2635000Y-2490000D01*
X2635000Y-4776000D02*
X2745000Y-4666000D01*
X2635000Y-4556000D01*
X2525000Y-4666000D01*
X2635000Y-4776000D01*
X5429000Y-2490000D02*
X5539000Y-2380000D01*
X5429000Y-2270000D01*
X5319000Y-2380000D01*
X5429000Y-2490000D01*
X5429000Y-4776000D02*
X5539000Y-4666000D01*
X5429000Y-4556000D01*
X5319000Y-4666000D01*
X5429000Y-4776000D01*
D11*
X255777Y-7362484D02*
X255777Y-7162484D01*
X255777Y-7162484D02*
X303396Y-7162484D01*
X303396Y-7162484D02*
X331967Y-7172008D01*
X331967Y-7172008D02*
X351015Y-7191055D01*
X351015Y-7191055D02*
X360539Y-7210103D01*
X360539Y-7210103D02*
X370062Y-7248198D01*
X370062Y-7248198D02*
X370062Y-7276769D01*
X370062Y-7276769D02*
X360539Y-7314865D01*
X360539Y-7314865D02*
X351015Y-7333912D01*
X351015Y-7333912D02*
X331967Y-7352960D01*
X331967Y-7352960D02*
X303396Y-7362484D01*
X303396Y-7362484D02*
X255777Y-7362484D01*
X455777Y-7362484D02*
X455777Y-7229150D01*
X455777Y-7267246D02*
X465301Y-7248198D01*
X465301Y-7248198D02*
X474824Y-7238674D01*
X474824Y-7238674D02*
X493872Y-7229150D01*
X493872Y-7229150D02*
X512920Y-7229150D01*
X579586Y-7362484D02*
X579586Y-7229150D01*
X579586Y-7162484D02*
X570063Y-7172008D01*
X570063Y-7172008D02*
X579586Y-7181531D01*
X579586Y-7181531D02*
X589110Y-7172008D01*
X589110Y-7172008D02*
X579586Y-7162484D01*
X579586Y-7162484D02*
X579586Y-7181531D01*
X703396Y-7362484D02*
X684348Y-7352960D01*
X684348Y-7352960D02*
X674824Y-7333912D01*
X674824Y-7333912D02*
X674824Y-7162484D01*
X808158Y-7362484D02*
X789110Y-7352960D01*
X789110Y-7352960D02*
X779586Y-7333912D01*
X779586Y-7333912D02*
X779586Y-7162484D01*
X1036729Y-7362484D02*
X1036729Y-7162484D01*
X1036729Y-7162484D02*
X1103396Y-7305341D01*
X1103396Y-7305341D02*
X1170063Y-7162484D01*
X1170063Y-7162484D02*
X1170063Y-7362484D01*
X1351015Y-7362484D02*
X1351015Y-7257722D01*
X1351015Y-7257722D02*
X1341491Y-7238674D01*
X1341491Y-7238674D02*
X1322444Y-7229150D01*
X1322444Y-7229150D02*
X1284348Y-7229150D01*
X1284348Y-7229150D02*
X1265301Y-7238674D01*
X1351015Y-7352960D02*
X1331967Y-7362484D01*
X1331967Y-7362484D02*
X1284348Y-7362484D01*
X1284348Y-7362484D02*
X1265301Y-7352960D01*
X1265301Y-7352960D02*
X1255777Y-7333912D01*
X1255777Y-7333912D02*
X1255777Y-7314865D01*
X1255777Y-7314865D02*
X1265301Y-7295817D01*
X1265301Y-7295817D02*
X1284348Y-7286293D01*
X1284348Y-7286293D02*
X1331967Y-7286293D01*
X1331967Y-7286293D02*
X1351015Y-7276769D01*
X1446253Y-7229150D02*
X1446253Y-7429150D01*
X1446253Y-7238674D02*
X1465301Y-7229150D01*
X1465301Y-7229150D02*
X1503396Y-7229150D01*
X1503396Y-7229150D02*
X1522443Y-7238674D01*
X1522443Y-7238674D02*
X1531967Y-7248198D01*
X1531967Y-7248198D02*
X1541491Y-7267246D01*
X1541491Y-7267246D02*
X1541491Y-7324388D01*
X1541491Y-7324388D02*
X1531967Y-7343436D01*
X1531967Y-7343436D02*
X1522443Y-7352960D01*
X1522443Y-7352960D02*
X1503396Y-7362484D01*
X1503396Y-7362484D02*
X1465301Y-7362484D01*
X1465301Y-7362484D02*
X1446253Y-7352960D01*
X1627205Y-7343436D02*
X1636729Y-7352960D01*
X1636729Y-7352960D02*
X1627205Y-7362484D01*
X1627205Y-7362484D02*
X1617682Y-7352960D01*
X1617682Y-7352960D02*
X1627205Y-7343436D01*
X1627205Y-7343436D02*
X1627205Y-7362484D01*
X1627205Y-7238674D02*
X1636729Y-7248198D01*
X1636729Y-7248198D02*
X1627205Y-7257722D01*
X1627205Y-7257722D02*
X1617682Y-7248198D01*
X1617682Y-7248198D02*
X1627205Y-7238674D01*
X1627205Y-7238674D02*
X1627205Y-7257722D01*
D10*
X-25000Y-7681000D02*
X-5000Y-7701000D01*
X-5000Y-7681000D02*
X-25000Y-7701000D01*
D11*
X293872Y-7582484D02*
X312920Y-7582484D01*
X312920Y-7582484D02*
X331967Y-7592008D01*
X331967Y-7592008D02*
X341491Y-7601531D01*
X341491Y-7601531D02*
X351015Y-7620579D01*
X351015Y-7620579D02*
X360539Y-7658674D01*
X360539Y-7658674D02*
X360539Y-7706293D01*
X360539Y-7706293D02*
X351015Y-7744388D01*
X351015Y-7744388D02*
X341491Y-7763436D01*
X341491Y-7763436D02*
X331967Y-7772960D01*
X331967Y-7772960D02*
X312920Y-7782484D01*
X312920Y-7782484D02*
X293872Y-7782484D01*
X293872Y-7782484D02*
X274824Y-7772960D01*
X274824Y-7772960D02*
X265301Y-7763436D01*
X265301Y-7763436D02*
X255777Y-7744388D01*
X255777Y-7744388D02*
X246253Y-7706293D01*
X246253Y-7706293D02*
X246253Y-7658674D01*
X246253Y-7658674D02*
X255777Y-7620579D01*
X255777Y-7620579D02*
X265301Y-7601531D01*
X265301Y-7601531D02*
X274824Y-7592008D01*
X274824Y-7592008D02*
X293872Y-7582484D01*
X446253Y-7763436D02*
X455777Y-7772960D01*
X455777Y-7772960D02*
X446253Y-7782484D01*
X446253Y-7782484D02*
X436729Y-7772960D01*
X436729Y-7772960D02*
X446253Y-7763436D01*
X446253Y-7763436D02*
X446253Y-7782484D01*
X531967Y-7601531D02*
X541491Y-7592008D01*
X541491Y-7592008D02*
X560539Y-7582484D01*
X560539Y-7582484D02*
X608158Y-7582484D01*
X608158Y-7582484D02*
X627205Y-7592008D01*
X627205Y-7592008D02*
X636729Y-7601531D01*
X636729Y-7601531D02*
X646253Y-7620579D01*
X646253Y-7620579D02*
X646253Y-7639627D01*
X646253Y-7639627D02*
X636729Y-7668198D01*
X636729Y-7668198D02*
X522443Y-7782484D01*
X522443Y-7782484D02*
X646253Y-7782484D01*
X770062Y-7582484D02*
X789110Y-7582484D01*
X789110Y-7582484D02*
X808158Y-7592008D01*
X808158Y-7592008D02*
X817682Y-7601531D01*
X817682Y-7601531D02*
X827205Y-7620579D01*
X827205Y-7620579D02*
X836729Y-7658674D01*
X836729Y-7658674D02*
X836729Y-7706293D01*
X836729Y-7706293D02*
X827205Y-7744388D01*
X827205Y-7744388D02*
X817682Y-7763436D01*
X817682Y-7763436D02*
X808158Y-7772960D01*
X808158Y-7772960D02*
X789110Y-7782484D01*
X789110Y-7782484D02*
X770062Y-7782484D01*
X770062Y-7782484D02*
X751015Y-7772960D01*
X751015Y-7772960D02*
X741491Y-7763436D01*
X741491Y-7763436D02*
X731967Y-7744388D01*
X731967Y-7744388D02*
X722443Y-7706293D01*
X722443Y-7706293D02*
X722443Y-7658674D01*
X722443Y-7658674D02*
X731967Y-7620579D01*
X731967Y-7620579D02*
X741491Y-7601531D01*
X741491Y-7601531D02*
X751015Y-7592008D01*
X751015Y-7592008D02*
X770062Y-7582484D01*
X960539Y-7582484D02*
X979586Y-7582484D01*
X979586Y-7582484D02*
X998634Y-7592008D01*
X998634Y-7592008D02*
X1008158Y-7601531D01*
X1008158Y-7601531D02*
X1017682Y-7620579D01*
X1017682Y-7620579D02*
X1027205Y-7658674D01*
X1027205Y-7658674D02*
X1027205Y-7706293D01*
X1027205Y-7706293D02*
X1017682Y-7744388D01*
X1017682Y-7744388D02*
X1008158Y-7763436D01*
X1008158Y-7763436D02*
X998634Y-7772960D01*
X998634Y-7772960D02*
X979586Y-7782484D01*
X979586Y-7782484D02*
X960539Y-7782484D01*
X960539Y-7782484D02*
X941491Y-7772960D01*
X941491Y-7772960D02*
X931967Y-7763436D01*
X931967Y-7763436D02*
X922443Y-7744388D01*
X922443Y-7744388D02*
X912920Y-7706293D01*
X912920Y-7706293D02*
X912920Y-7658674D01*
X912920Y-7658674D02*
X922443Y-7620579D01*
X922443Y-7620579D02*
X931967Y-7601531D01*
X931967Y-7601531D02*
X941491Y-7592008D01*
X941491Y-7592008D02*
X960539Y-7582484D01*
X1112920Y-7782484D02*
X1112920Y-7649150D01*
X1112920Y-7668198D02*
X1122444Y-7658674D01*
X1122444Y-7658674D02*
X1141491Y-7649150D01*
X1141491Y-7649150D02*
X1170063Y-7649150D01*
X1170063Y-7649150D02*
X1189110Y-7658674D01*
X1189110Y-7658674D02*
X1198634Y-7677722D01*
X1198634Y-7677722D02*
X1198634Y-7782484D01*
X1198634Y-7677722D02*
X1208158Y-7658674D01*
X1208158Y-7658674D02*
X1227205Y-7649150D01*
X1227205Y-7649150D02*
X1255777Y-7649150D01*
X1255777Y-7649150D02*
X1274825Y-7658674D01*
X1274825Y-7658674D02*
X1284348Y-7677722D01*
X1284348Y-7677722D02*
X1284348Y-7782484D01*
X1379586Y-7782484D02*
X1379586Y-7649150D01*
X1379586Y-7668198D02*
X1389110Y-7658674D01*
X1389110Y-7658674D02*
X1408158Y-7649150D01*
X1408158Y-7649150D02*
X1436729Y-7649150D01*
X1436729Y-7649150D02*
X1455777Y-7658674D01*
X1455777Y-7658674D02*
X1465301Y-7677722D01*
X1465301Y-7677722D02*
X1465301Y-7782484D01*
X1465301Y-7677722D02*
X1474824Y-7658674D01*
X1474824Y-7658674D02*
X1493872Y-7649150D01*
X1493872Y-7649150D02*
X1522443Y-7649150D01*
X1522443Y-7649150D02*
X1541491Y-7658674D01*
X1541491Y-7658674D02*
X1551015Y-7677722D01*
X1551015Y-7677722D02*
X1551015Y-7782484D01*
X1941491Y-7572960D02*
X1770063Y-7830103D01*
X2198634Y-7582484D02*
X2217682Y-7582484D01*
X2217682Y-7582484D02*
X2236729Y-7592008D01*
X2236729Y-7592008D02*
X2246253Y-7601531D01*
X2246253Y-7601531D02*
X2255777Y-7620579D01*
X2255777Y-7620579D02*
X2265301Y-7658674D01*
X2265301Y-7658674D02*
X2265301Y-7706293D01*
X2265301Y-7706293D02*
X2255777Y-7744388D01*
X2255777Y-7744388D02*
X2246253Y-7763436D01*
X2246253Y-7763436D02*
X2236729Y-7772960D01*
X2236729Y-7772960D02*
X2217682Y-7782484D01*
X2217682Y-7782484D02*
X2198634Y-7782484D01*
X2198634Y-7782484D02*
X2179587Y-7772960D01*
X2179587Y-7772960D02*
X2170063Y-7763436D01*
X2170063Y-7763436D02*
X2160539Y-7744388D01*
X2160539Y-7744388D02*
X2151015Y-7706293D01*
X2151015Y-7706293D02*
X2151015Y-7658674D01*
X2151015Y-7658674D02*
X2160539Y-7620579D01*
X2160539Y-7620579D02*
X2170063Y-7601531D01*
X2170063Y-7601531D02*
X2179587Y-7592008D01*
X2179587Y-7592008D02*
X2198634Y-7582484D01*
X2351015Y-7763436D02*
X2360539Y-7772960D01*
X2360539Y-7772960D02*
X2351015Y-7782484D01*
X2351015Y-7782484D02*
X2341491Y-7772960D01*
X2341491Y-7772960D02*
X2351015Y-7763436D01*
X2351015Y-7763436D02*
X2351015Y-7782484D01*
X2484348Y-7582484D02*
X2503396Y-7582484D01*
X2503396Y-7582484D02*
X2522444Y-7592008D01*
X2522444Y-7592008D02*
X2531968Y-7601531D01*
X2531968Y-7601531D02*
X2541491Y-7620579D01*
X2541491Y-7620579D02*
X2551015Y-7658674D01*
X2551015Y-7658674D02*
X2551015Y-7706293D01*
X2551015Y-7706293D02*
X2541491Y-7744388D01*
X2541491Y-7744388D02*
X2531968Y-7763436D01*
X2531968Y-7763436D02*
X2522444Y-7772960D01*
X2522444Y-7772960D02*
X2503396Y-7782484D01*
X2503396Y-7782484D02*
X2484348Y-7782484D01*
X2484348Y-7782484D02*
X2465301Y-7772960D01*
X2465301Y-7772960D02*
X2455777Y-7763436D01*
X2455777Y-7763436D02*
X2446253Y-7744388D01*
X2446253Y-7744388D02*
X2436729Y-7706293D01*
X2436729Y-7706293D02*
X2436729Y-7658674D01*
X2436729Y-7658674D02*
X2446253Y-7620579D01*
X2446253Y-7620579D02*
X2455777Y-7601531D01*
X2455777Y-7601531D02*
X2465301Y-7592008D01*
X2465301Y-7592008D02*
X2484348Y-7582484D01*
X2674825Y-7582484D02*
X2693872Y-7582484D01*
X2693872Y-7582484D02*
X2712920Y-7592008D01*
X2712920Y-7592008D02*
X2722444Y-7601531D01*
X2722444Y-7601531D02*
X2731968Y-7620579D01*
X2731968Y-7620579D02*
X2741491Y-7658674D01*
X2741491Y-7658674D02*
X2741491Y-7706293D01*
X2741491Y-7706293D02*
X2731968Y-7744388D01*
X2731968Y-7744388D02*
X2722444Y-7763436D01*
X2722444Y-7763436D02*
X2712920Y-7772960D01*
X2712920Y-7772960D02*
X2693872Y-7782484D01*
X2693872Y-7782484D02*
X2674825Y-7782484D01*
X2674825Y-7782484D02*
X2655777Y-7772960D01*
X2655777Y-7772960D02*
X2646253Y-7763436D01*
X2646253Y-7763436D02*
X2636729Y-7744388D01*
X2636729Y-7744388D02*
X2627206Y-7706293D01*
X2627206Y-7706293D02*
X2627206Y-7658674D01*
X2627206Y-7658674D02*
X2636729Y-7620579D01*
X2636729Y-7620579D02*
X2646253Y-7601531D01*
X2646253Y-7601531D02*
X2655777Y-7592008D01*
X2655777Y-7592008D02*
X2674825Y-7582484D01*
X2808158Y-7582484D02*
X2941491Y-7582484D01*
X2941491Y-7582484D02*
X2855777Y-7782484D01*
X3027206Y-7782484D02*
X3065301Y-7782484D01*
X3065301Y-7782484D02*
X3084348Y-7772960D01*
X3084348Y-7772960D02*
X3093872Y-7763436D01*
X3093872Y-7763436D02*
X3112920Y-7734865D01*
X3112920Y-7734865D02*
X3122444Y-7696769D01*
X3122444Y-7696769D02*
X3122444Y-7620579D01*
X3122444Y-7620579D02*
X3112920Y-7601531D01*
X3112920Y-7601531D02*
X3103396Y-7592008D01*
X3103396Y-7592008D02*
X3084348Y-7582484D01*
X3084348Y-7582484D02*
X3046253Y-7582484D01*
X3046253Y-7582484D02*
X3027206Y-7592008D01*
X3027206Y-7592008D02*
X3017682Y-7601531D01*
X3017682Y-7601531D02*
X3008158Y-7620579D01*
X3008158Y-7620579D02*
X3008158Y-7668198D01*
X3008158Y-7668198D02*
X3017682Y-7687246D01*
X3017682Y-7687246D02*
X3027206Y-7696769D01*
X3027206Y-7696769D02*
X3046253Y-7706293D01*
X3046253Y-7706293D02*
X3084348Y-7706293D01*
X3084348Y-7706293D02*
X3103396Y-7696769D01*
X3103396Y-7696769D02*
X3112920Y-7687246D01*
X3112920Y-7687246D02*
X3122444Y-7668198D01*
X3198634Y-7582484D02*
X3198634Y-7620579D01*
X3274825Y-7582484D02*
X3274825Y-7620579D01*
X3570063Y-7858674D02*
X3560539Y-7849150D01*
X3560539Y-7849150D02*
X3541491Y-7820579D01*
X3541491Y-7820579D02*
X3531968Y-7801531D01*
X3531968Y-7801531D02*
X3522444Y-7772960D01*
X3522444Y-7772960D02*
X3512920Y-7725341D01*
X3512920Y-7725341D02*
X3512920Y-7687246D01*
X3512920Y-7687246D02*
X3522444Y-7639627D01*
X3522444Y-7639627D02*
X3531968Y-7611055D01*
X3531968Y-7611055D02*
X3541491Y-7592008D01*
X3541491Y-7592008D02*
X3560539Y-7563436D01*
X3560539Y-7563436D02*
X3570063Y-7553912D01*
X3627206Y-7582484D02*
X3751015Y-7582484D01*
X3751015Y-7582484D02*
X3684348Y-7658674D01*
X3684348Y-7658674D02*
X3712920Y-7658674D01*
X3712920Y-7658674D02*
X3731968Y-7668198D01*
X3731968Y-7668198D02*
X3741491Y-7677722D01*
X3741491Y-7677722D02*
X3751015Y-7696769D01*
X3751015Y-7696769D02*
X3751015Y-7744388D01*
X3751015Y-7744388D02*
X3741491Y-7763436D01*
X3741491Y-7763436D02*
X3731968Y-7772960D01*
X3731968Y-7772960D02*
X3712920Y-7782484D01*
X3712920Y-7782484D02*
X3655777Y-7782484D01*
X3655777Y-7782484D02*
X3636729Y-7772960D01*
X3636729Y-7772960D02*
X3627206Y-7763436D01*
X3922444Y-7582484D02*
X3884348Y-7582484D01*
X3884348Y-7582484D02*
X3865301Y-7592008D01*
X3865301Y-7592008D02*
X3855777Y-7601531D01*
X3855777Y-7601531D02*
X3836729Y-7630103D01*
X3836729Y-7630103D02*
X3827206Y-7668198D01*
X3827206Y-7668198D02*
X3827206Y-7744388D01*
X3827206Y-7744388D02*
X3836729Y-7763436D01*
X3836729Y-7763436D02*
X3846253Y-7772960D01*
X3846253Y-7772960D02*
X3865301Y-7782484D01*
X3865301Y-7782484D02*
X3903396Y-7782484D01*
X3903396Y-7782484D02*
X3922444Y-7772960D01*
X3922444Y-7772960D02*
X3931968Y-7763436D01*
X3931968Y-7763436D02*
X3941491Y-7744388D01*
X3941491Y-7744388D02*
X3941491Y-7696769D01*
X3941491Y-7696769D02*
X3931968Y-7677722D01*
X3931968Y-7677722D02*
X3922444Y-7668198D01*
X3922444Y-7668198D02*
X3903396Y-7658674D01*
X3903396Y-7658674D02*
X3865301Y-7658674D01*
X3865301Y-7658674D02*
X3846253Y-7668198D01*
X3846253Y-7668198D02*
X3836729Y-7677722D01*
X3836729Y-7677722D02*
X3827206Y-7696769D01*
X4179587Y-7782484D02*
X4179587Y-7582484D01*
X4265301Y-7782484D02*
X4265301Y-7677722D01*
X4265301Y-7677722D02*
X4255777Y-7658674D01*
X4255777Y-7658674D02*
X4236730Y-7649150D01*
X4236730Y-7649150D02*
X4208158Y-7649150D01*
X4208158Y-7649150D02*
X4189110Y-7658674D01*
X4189110Y-7658674D02*
X4179587Y-7668198D01*
X4389111Y-7782484D02*
X4370063Y-7772960D01*
X4370063Y-7772960D02*
X4360539Y-7763436D01*
X4360539Y-7763436D02*
X4351015Y-7744388D01*
X4351015Y-7744388D02*
X4351015Y-7687246D01*
X4351015Y-7687246D02*
X4360539Y-7668198D01*
X4360539Y-7668198D02*
X4370063Y-7658674D01*
X4370063Y-7658674D02*
X4389111Y-7649150D01*
X4389111Y-7649150D02*
X4417682Y-7649150D01*
X4417682Y-7649150D02*
X4436730Y-7658674D01*
X4436730Y-7658674D02*
X4446253Y-7668198D01*
X4446253Y-7668198D02*
X4455777Y-7687246D01*
X4455777Y-7687246D02*
X4455777Y-7744388D01*
X4455777Y-7744388D02*
X4446253Y-7763436D01*
X4446253Y-7763436D02*
X4436730Y-7772960D01*
X4436730Y-7772960D02*
X4417682Y-7782484D01*
X4417682Y-7782484D02*
X4389111Y-7782484D01*
X4570063Y-7782484D02*
X4551015Y-7772960D01*
X4551015Y-7772960D02*
X4541492Y-7753912D01*
X4541492Y-7753912D02*
X4541492Y-7582484D01*
X4722444Y-7772960D02*
X4703396Y-7782484D01*
X4703396Y-7782484D02*
X4665301Y-7782484D01*
X4665301Y-7782484D02*
X4646253Y-7772960D01*
X4646253Y-7772960D02*
X4636730Y-7753912D01*
X4636730Y-7753912D02*
X4636730Y-7677722D01*
X4636730Y-7677722D02*
X4646253Y-7658674D01*
X4646253Y-7658674D02*
X4665301Y-7649150D01*
X4665301Y-7649150D02*
X4703396Y-7649150D01*
X4703396Y-7649150D02*
X4722444Y-7658674D01*
X4722444Y-7658674D02*
X4731968Y-7677722D01*
X4731968Y-7677722D02*
X4731968Y-7696769D01*
X4731968Y-7696769D02*
X4636730Y-7715817D01*
X4808158Y-7772960D02*
X4827206Y-7782484D01*
X4827206Y-7782484D02*
X4865301Y-7782484D01*
X4865301Y-7782484D02*
X4884349Y-7772960D01*
X4884349Y-7772960D02*
X4893873Y-7753912D01*
X4893873Y-7753912D02*
X4893873Y-7744388D01*
X4893873Y-7744388D02*
X4884349Y-7725341D01*
X4884349Y-7725341D02*
X4865301Y-7715817D01*
X4865301Y-7715817D02*
X4836730Y-7715817D01*
X4836730Y-7715817D02*
X4817682Y-7706293D01*
X4817682Y-7706293D02*
X4808158Y-7687246D01*
X4808158Y-7687246D02*
X4808158Y-7677722D01*
X4808158Y-7677722D02*
X4817682Y-7658674D01*
X4817682Y-7658674D02*
X4836730Y-7649150D01*
X4836730Y-7649150D02*
X4865301Y-7649150D01*
X4865301Y-7649150D02*
X4884349Y-7658674D01*
X4960539Y-7858674D02*
X4970063Y-7849150D01*
X4970063Y-7849150D02*
X4989111Y-7820579D01*
X4989111Y-7820579D02*
X4998634Y-7801531D01*
X4998634Y-7801531D02*
X5008158Y-7772960D01*
X5008158Y-7772960D02*
X5017682Y-7725341D01*
X5017682Y-7725341D02*
X5017682Y-7687246D01*
X5017682Y-7687246D02*
X5008158Y-7639627D01*
X5008158Y-7639627D02*
X4998634Y-7611055D01*
X4998634Y-7611055D02*
X4989111Y-7592008D01*
X4989111Y-7592008D02*
X4970063Y-7563436D01*
X4970063Y-7563436D02*
X4960539Y-7553912D01*
D10*
X-5000Y-7955000D02*
G75*
G02*
X-25000Y-7955000I-10000J0D01*
G01*
X-25000Y-7955000D02*
G75*
G02*
X-5000Y-7955000I10000J0D01*
G01*
D11*
X293872Y-7846484D02*
X312920Y-7846484D01*
X312920Y-7846484D02*
X331967Y-7856008D01*
X331967Y-7856008D02*
X341491Y-7865531D01*
X341491Y-7865531D02*
X351015Y-7884579D01*
X351015Y-7884579D02*
X360539Y-7922674D01*
X360539Y-7922674D02*
X360539Y-7970293D01*
X360539Y-7970293D02*
X351015Y-8008388D01*
X351015Y-8008388D02*
X341491Y-8027436D01*
X341491Y-8027436D02*
X331967Y-8036960D01*
X331967Y-8036960D02*
X312920Y-8046484D01*
X312920Y-8046484D02*
X293872Y-8046484D01*
X293872Y-8046484D02*
X274824Y-8036960D01*
X274824Y-8036960D02*
X265301Y-8027436D01*
X265301Y-8027436D02*
X255777Y-8008388D01*
X255777Y-8008388D02*
X246253Y-7970293D01*
X246253Y-7970293D02*
X246253Y-7922674D01*
X246253Y-7922674D02*
X255777Y-7884579D01*
X255777Y-7884579D02*
X265301Y-7865531D01*
X265301Y-7865531D02*
X274824Y-7856008D01*
X274824Y-7856008D02*
X293872Y-7846484D01*
X446253Y-8027436D02*
X455777Y-8036960D01*
X455777Y-8036960D02*
X446253Y-8046484D01*
X446253Y-8046484D02*
X436729Y-8036960D01*
X436729Y-8036960D02*
X446253Y-8027436D01*
X446253Y-8027436D02*
X446253Y-8046484D01*
X531967Y-7865531D02*
X541491Y-7856008D01*
X541491Y-7856008D02*
X560539Y-7846484D01*
X560539Y-7846484D02*
X608158Y-7846484D01*
X608158Y-7846484D02*
X627205Y-7856008D01*
X627205Y-7856008D02*
X636729Y-7865531D01*
X636729Y-7865531D02*
X646253Y-7884579D01*
X646253Y-7884579D02*
X646253Y-7903627D01*
X646253Y-7903627D02*
X636729Y-7932198D01*
X636729Y-7932198D02*
X522443Y-8046484D01*
X522443Y-8046484D02*
X646253Y-8046484D01*
X770062Y-7846484D02*
X789110Y-7846484D01*
X789110Y-7846484D02*
X808158Y-7856008D01*
X808158Y-7856008D02*
X817682Y-7865531D01*
X817682Y-7865531D02*
X827205Y-7884579D01*
X827205Y-7884579D02*
X836729Y-7922674D01*
X836729Y-7922674D02*
X836729Y-7970293D01*
X836729Y-7970293D02*
X827205Y-8008388D01*
X827205Y-8008388D02*
X817682Y-8027436D01*
X817682Y-8027436D02*
X808158Y-8036960D01*
X808158Y-8036960D02*
X789110Y-8046484D01*
X789110Y-8046484D02*
X770062Y-8046484D01*
X770062Y-8046484D02*
X751015Y-8036960D01*
X751015Y-8036960D02*
X741491Y-8027436D01*
X741491Y-8027436D02*
X731967Y-8008388D01*
X731967Y-8008388D02*
X722443Y-7970293D01*
X722443Y-7970293D02*
X722443Y-7922674D01*
X722443Y-7922674D02*
X731967Y-7884579D01*
X731967Y-7884579D02*
X741491Y-7865531D01*
X741491Y-7865531D02*
X751015Y-7856008D01*
X751015Y-7856008D02*
X770062Y-7846484D01*
X960539Y-7846484D02*
X979586Y-7846484D01*
X979586Y-7846484D02*
X998634Y-7856008D01*
X998634Y-7856008D02*
X1008158Y-7865531D01*
X1008158Y-7865531D02*
X1017682Y-7884579D01*
X1017682Y-7884579D02*
X1027205Y-7922674D01*
X1027205Y-7922674D02*
X1027205Y-7970293D01*
X1027205Y-7970293D02*
X1017682Y-8008388D01*
X1017682Y-8008388D02*
X1008158Y-8027436D01*
X1008158Y-8027436D02*
X998634Y-8036960D01*
X998634Y-8036960D02*
X979586Y-8046484D01*
X979586Y-8046484D02*
X960539Y-8046484D01*
X960539Y-8046484D02*
X941491Y-8036960D01*
X941491Y-8036960D02*
X931967Y-8027436D01*
X931967Y-8027436D02*
X922443Y-8008388D01*
X922443Y-8008388D02*
X912920Y-7970293D01*
X912920Y-7970293D02*
X912920Y-7922674D01*
X912920Y-7922674D02*
X922443Y-7884579D01*
X922443Y-7884579D02*
X931967Y-7865531D01*
X931967Y-7865531D02*
X941491Y-7856008D01*
X941491Y-7856008D02*
X960539Y-7846484D01*
X1112920Y-8046484D02*
X1112920Y-7913150D01*
X1112920Y-7932198D02*
X1122444Y-7922674D01*
X1122444Y-7922674D02*
X1141491Y-7913150D01*
X1141491Y-7913150D02*
X1170063Y-7913150D01*
X1170063Y-7913150D02*
X1189110Y-7922674D01*
X1189110Y-7922674D02*
X1198634Y-7941722D01*
X1198634Y-7941722D02*
X1198634Y-8046484D01*
X1198634Y-7941722D02*
X1208158Y-7922674D01*
X1208158Y-7922674D02*
X1227205Y-7913150D01*
X1227205Y-7913150D02*
X1255777Y-7913150D01*
X1255777Y-7913150D02*
X1274825Y-7922674D01*
X1274825Y-7922674D02*
X1284348Y-7941722D01*
X1284348Y-7941722D02*
X1284348Y-8046484D01*
X1379586Y-8046484D02*
X1379586Y-7913150D01*
X1379586Y-7932198D02*
X1389110Y-7922674D01*
X1389110Y-7922674D02*
X1408158Y-7913150D01*
X1408158Y-7913150D02*
X1436729Y-7913150D01*
X1436729Y-7913150D02*
X1455777Y-7922674D01*
X1455777Y-7922674D02*
X1465301Y-7941722D01*
X1465301Y-7941722D02*
X1465301Y-8046484D01*
X1465301Y-7941722D02*
X1474824Y-7922674D01*
X1474824Y-7922674D02*
X1493872Y-7913150D01*
X1493872Y-7913150D02*
X1522443Y-7913150D01*
X1522443Y-7913150D02*
X1541491Y-7922674D01*
X1541491Y-7922674D02*
X1551015Y-7941722D01*
X1551015Y-7941722D02*
X1551015Y-8046484D01*
X1941491Y-7836960D02*
X1770063Y-8094103D01*
X2198634Y-7846484D02*
X2217682Y-7846484D01*
X2217682Y-7846484D02*
X2236729Y-7856008D01*
X2236729Y-7856008D02*
X2246253Y-7865531D01*
X2246253Y-7865531D02*
X2255777Y-7884579D01*
X2255777Y-7884579D02*
X2265301Y-7922674D01*
X2265301Y-7922674D02*
X2265301Y-7970293D01*
X2265301Y-7970293D02*
X2255777Y-8008388D01*
X2255777Y-8008388D02*
X2246253Y-8027436D01*
X2246253Y-8027436D02*
X2236729Y-8036960D01*
X2236729Y-8036960D02*
X2217682Y-8046484D01*
X2217682Y-8046484D02*
X2198634Y-8046484D01*
X2198634Y-8046484D02*
X2179587Y-8036960D01*
X2179587Y-8036960D02*
X2170063Y-8027436D01*
X2170063Y-8027436D02*
X2160539Y-8008388D01*
X2160539Y-8008388D02*
X2151015Y-7970293D01*
X2151015Y-7970293D02*
X2151015Y-7922674D01*
X2151015Y-7922674D02*
X2160539Y-7884579D01*
X2160539Y-7884579D02*
X2170063Y-7865531D01*
X2170063Y-7865531D02*
X2179587Y-7856008D01*
X2179587Y-7856008D02*
X2198634Y-7846484D01*
X2351015Y-8027436D02*
X2360539Y-8036960D01*
X2360539Y-8036960D02*
X2351015Y-8046484D01*
X2351015Y-8046484D02*
X2341491Y-8036960D01*
X2341491Y-8036960D02*
X2351015Y-8027436D01*
X2351015Y-8027436D02*
X2351015Y-8046484D01*
X2484348Y-7846484D02*
X2503396Y-7846484D01*
X2503396Y-7846484D02*
X2522444Y-7856008D01*
X2522444Y-7856008D02*
X2531968Y-7865531D01*
X2531968Y-7865531D02*
X2541491Y-7884579D01*
X2541491Y-7884579D02*
X2551015Y-7922674D01*
X2551015Y-7922674D02*
X2551015Y-7970293D01*
X2551015Y-7970293D02*
X2541491Y-8008388D01*
X2541491Y-8008388D02*
X2531968Y-8027436D01*
X2531968Y-8027436D02*
X2522444Y-8036960D01*
X2522444Y-8036960D02*
X2503396Y-8046484D01*
X2503396Y-8046484D02*
X2484348Y-8046484D01*
X2484348Y-8046484D02*
X2465301Y-8036960D01*
X2465301Y-8036960D02*
X2455777Y-8027436D01*
X2455777Y-8027436D02*
X2446253Y-8008388D01*
X2446253Y-8008388D02*
X2436729Y-7970293D01*
X2436729Y-7970293D02*
X2436729Y-7922674D01*
X2436729Y-7922674D02*
X2446253Y-7884579D01*
X2446253Y-7884579D02*
X2455777Y-7865531D01*
X2455777Y-7865531D02*
X2465301Y-7856008D01*
X2465301Y-7856008D02*
X2484348Y-7846484D01*
X2674825Y-7846484D02*
X2693872Y-7846484D01*
X2693872Y-7846484D02*
X2712920Y-7856008D01*
X2712920Y-7856008D02*
X2722444Y-7865531D01*
X2722444Y-7865531D02*
X2731968Y-7884579D01*
X2731968Y-7884579D02*
X2741491Y-7922674D01*
X2741491Y-7922674D02*
X2741491Y-7970293D01*
X2741491Y-7970293D02*
X2731968Y-8008388D01*
X2731968Y-8008388D02*
X2722444Y-8027436D01*
X2722444Y-8027436D02*
X2712920Y-8036960D01*
X2712920Y-8036960D02*
X2693872Y-8046484D01*
X2693872Y-8046484D02*
X2674825Y-8046484D01*
X2674825Y-8046484D02*
X2655777Y-8036960D01*
X2655777Y-8036960D02*
X2646253Y-8027436D01*
X2646253Y-8027436D02*
X2636729Y-8008388D01*
X2636729Y-8008388D02*
X2627206Y-7970293D01*
X2627206Y-7970293D02*
X2627206Y-7922674D01*
X2627206Y-7922674D02*
X2636729Y-7884579D01*
X2636729Y-7884579D02*
X2646253Y-7865531D01*
X2646253Y-7865531D02*
X2655777Y-7856008D01*
X2655777Y-7856008D02*
X2674825Y-7846484D01*
X2808158Y-7846484D02*
X2941491Y-7846484D01*
X2941491Y-7846484D02*
X2855777Y-8046484D01*
X3027206Y-8046484D02*
X3065301Y-8046484D01*
X3065301Y-8046484D02*
X3084348Y-8036960D01*
X3084348Y-8036960D02*
X3093872Y-8027436D01*
X3093872Y-8027436D02*
X3112920Y-7998865D01*
X3112920Y-7998865D02*
X3122444Y-7960769D01*
X3122444Y-7960769D02*
X3122444Y-7884579D01*
X3122444Y-7884579D02*
X3112920Y-7865531D01*
X3112920Y-7865531D02*
X3103396Y-7856008D01*
X3103396Y-7856008D02*
X3084348Y-7846484D01*
X3084348Y-7846484D02*
X3046253Y-7846484D01*
X3046253Y-7846484D02*
X3027206Y-7856008D01*
X3027206Y-7856008D02*
X3017682Y-7865531D01*
X3017682Y-7865531D02*
X3008158Y-7884579D01*
X3008158Y-7884579D02*
X3008158Y-7932198D01*
X3008158Y-7932198D02*
X3017682Y-7951246D01*
X3017682Y-7951246D02*
X3027206Y-7960769D01*
X3027206Y-7960769D02*
X3046253Y-7970293D01*
X3046253Y-7970293D02*
X3084348Y-7970293D01*
X3084348Y-7970293D02*
X3103396Y-7960769D01*
X3103396Y-7960769D02*
X3112920Y-7951246D01*
X3112920Y-7951246D02*
X3122444Y-7932198D01*
X3198634Y-7846484D02*
X3198634Y-7884579D01*
X3274825Y-7846484D02*
X3274825Y-7884579D01*
X3570063Y-8122674D02*
X3560539Y-8113150D01*
X3560539Y-8113150D02*
X3541491Y-8084579D01*
X3541491Y-8084579D02*
X3531968Y-8065531D01*
X3531968Y-8065531D02*
X3522444Y-8036960D01*
X3522444Y-8036960D02*
X3512920Y-7989341D01*
X3512920Y-7989341D02*
X3512920Y-7951246D01*
X3512920Y-7951246D02*
X3522444Y-7903627D01*
X3522444Y-7903627D02*
X3531968Y-7875055D01*
X3531968Y-7875055D02*
X3541491Y-7856008D01*
X3541491Y-7856008D02*
X3560539Y-7827436D01*
X3560539Y-7827436D02*
X3570063Y-7817912D01*
X3636729Y-7865531D02*
X3646253Y-7856008D01*
X3646253Y-7856008D02*
X3665301Y-7846484D01*
X3665301Y-7846484D02*
X3712920Y-7846484D01*
X3712920Y-7846484D02*
X3731968Y-7856008D01*
X3731968Y-7856008D02*
X3741491Y-7865531D01*
X3741491Y-7865531D02*
X3751015Y-7884579D01*
X3751015Y-7884579D02*
X3751015Y-7903627D01*
X3751015Y-7903627D02*
X3741491Y-7932198D01*
X3741491Y-7932198D02*
X3627206Y-8046484D01*
X3627206Y-8046484D02*
X3751015Y-8046484D01*
X3827206Y-7865531D02*
X3836729Y-7856008D01*
X3836729Y-7856008D02*
X3855777Y-7846484D01*
X3855777Y-7846484D02*
X3903396Y-7846484D01*
X3903396Y-7846484D02*
X3922444Y-7856008D01*
X3922444Y-7856008D02*
X3931968Y-7865531D01*
X3931968Y-7865531D02*
X3941491Y-7884579D01*
X3941491Y-7884579D02*
X3941491Y-7903627D01*
X3941491Y-7903627D02*
X3931968Y-7932198D01*
X3931968Y-7932198D02*
X3817682Y-8046484D01*
X3817682Y-8046484D02*
X3941491Y-8046484D01*
X4179587Y-8046484D02*
X4179587Y-7846484D01*
X4265301Y-8046484D02*
X4265301Y-7941722D01*
X4265301Y-7941722D02*
X4255777Y-7922674D01*
X4255777Y-7922674D02*
X4236730Y-7913150D01*
X4236730Y-7913150D02*
X4208158Y-7913150D01*
X4208158Y-7913150D02*
X4189110Y-7922674D01*
X4189110Y-7922674D02*
X4179587Y-7932198D01*
X4389111Y-8046484D02*
X4370063Y-8036960D01*
X4370063Y-8036960D02*
X4360539Y-8027436D01*
X4360539Y-8027436D02*
X4351015Y-8008388D01*
X4351015Y-8008388D02*
X4351015Y-7951246D01*
X4351015Y-7951246D02*
X4360539Y-7932198D01*
X4360539Y-7932198D02*
X4370063Y-7922674D01*
X4370063Y-7922674D02*
X4389111Y-7913150D01*
X4389111Y-7913150D02*
X4417682Y-7913150D01*
X4417682Y-7913150D02*
X4436730Y-7922674D01*
X4436730Y-7922674D02*
X4446253Y-7932198D01*
X4446253Y-7932198D02*
X4455777Y-7951246D01*
X4455777Y-7951246D02*
X4455777Y-8008388D01*
X4455777Y-8008388D02*
X4446253Y-8027436D01*
X4446253Y-8027436D02*
X4436730Y-8036960D01*
X4436730Y-8036960D02*
X4417682Y-8046484D01*
X4417682Y-8046484D02*
X4389111Y-8046484D01*
X4570063Y-8046484D02*
X4551015Y-8036960D01*
X4551015Y-8036960D02*
X4541492Y-8017912D01*
X4541492Y-8017912D02*
X4541492Y-7846484D01*
X4722444Y-8036960D02*
X4703396Y-8046484D01*
X4703396Y-8046484D02*
X4665301Y-8046484D01*
X4665301Y-8046484D02*
X4646253Y-8036960D01*
X4646253Y-8036960D02*
X4636730Y-8017912D01*
X4636730Y-8017912D02*
X4636730Y-7941722D01*
X4636730Y-7941722D02*
X4646253Y-7922674D01*
X4646253Y-7922674D02*
X4665301Y-7913150D01*
X4665301Y-7913150D02*
X4703396Y-7913150D01*
X4703396Y-7913150D02*
X4722444Y-7922674D01*
X4722444Y-7922674D02*
X4731968Y-7941722D01*
X4731968Y-7941722D02*
X4731968Y-7960769D01*
X4731968Y-7960769D02*
X4636730Y-7979817D01*
X4808158Y-8036960D02*
X4827206Y-8046484D01*
X4827206Y-8046484D02*
X4865301Y-8046484D01*
X4865301Y-8046484D02*
X4884349Y-8036960D01*
X4884349Y-8036960D02*
X4893873Y-8017912D01*
X4893873Y-8017912D02*
X4893873Y-8008388D01*
X4893873Y-8008388D02*
X4884349Y-7989341D01*
X4884349Y-7989341D02*
X4865301Y-7979817D01*
X4865301Y-7979817D02*
X4836730Y-7979817D01*
X4836730Y-7979817D02*
X4817682Y-7970293D01*
X4817682Y-7970293D02*
X4808158Y-7951246D01*
X4808158Y-7951246D02*
X4808158Y-7941722D01*
X4808158Y-7941722D02*
X4817682Y-7922674D01*
X4817682Y-7922674D02*
X4836730Y-7913150D01*
X4836730Y-7913150D02*
X4865301Y-7913150D01*
X4865301Y-7913150D02*
X4884349Y-7922674D01*
X4960539Y-8122674D02*
X4970063Y-8113150D01*
X4970063Y-8113150D02*
X4989111Y-8084579D01*
X4989111Y-8084579D02*
X4998634Y-8065531D01*
X4998634Y-8065531D02*
X5008158Y-8036960D01*
X5008158Y-8036960D02*
X5017682Y-7989341D01*
X5017682Y-7989341D02*
X5017682Y-7951246D01*
X5017682Y-7951246D02*
X5008158Y-7903627D01*
X5008158Y-7903627D02*
X4998634Y-7875055D01*
X4998634Y-7875055D02*
X4989111Y-7856008D01*
X4989111Y-7856008D02*
X4970063Y-7827436D01*
X4970063Y-7827436D02*
X4960539Y-7817912D01*
D10*
X-25000Y-8199000D02*
X-25000Y-8239000D01*
X-45000Y-8219000D02*
X-5000Y-8219000D01*
D11*
X293872Y-8110484D02*
X312920Y-8110484D01*
X312920Y-8110484D02*
X331967Y-8120008D01*
X331967Y-8120008D02*
X341491Y-8129531D01*
X341491Y-8129531D02*
X351015Y-8148579D01*
X351015Y-8148579D02*
X360539Y-8186674D01*
X360539Y-8186674D02*
X360539Y-8234293D01*
X360539Y-8234293D02*
X351015Y-8272388D01*
X351015Y-8272388D02*
X341491Y-8291436D01*
X341491Y-8291436D02*
X331967Y-8300960D01*
X331967Y-8300960D02*
X312920Y-8310484D01*
X312920Y-8310484D02*
X293872Y-8310484D01*
X293872Y-8310484D02*
X274824Y-8300960D01*
X274824Y-8300960D02*
X265301Y-8291436D01*
X265301Y-8291436D02*
X255777Y-8272388D01*
X255777Y-8272388D02*
X246253Y-8234293D01*
X246253Y-8234293D02*
X246253Y-8186674D01*
X246253Y-8186674D02*
X255777Y-8148579D01*
X255777Y-8148579D02*
X265301Y-8129531D01*
X265301Y-8129531D02*
X274824Y-8120008D01*
X274824Y-8120008D02*
X293872Y-8110484D01*
X446253Y-8291436D02*
X455777Y-8300960D01*
X455777Y-8300960D02*
X446253Y-8310484D01*
X446253Y-8310484D02*
X436729Y-8300960D01*
X436729Y-8300960D02*
X446253Y-8291436D01*
X446253Y-8291436D02*
X446253Y-8310484D01*
X627205Y-8177150D02*
X627205Y-8310484D01*
X579586Y-8100960D02*
X531967Y-8243817D01*
X531967Y-8243817D02*
X655777Y-8243817D01*
X770062Y-8110484D02*
X789110Y-8110484D01*
X789110Y-8110484D02*
X808158Y-8120008D01*
X808158Y-8120008D02*
X817682Y-8129531D01*
X817682Y-8129531D02*
X827205Y-8148579D01*
X827205Y-8148579D02*
X836729Y-8186674D01*
X836729Y-8186674D02*
X836729Y-8234293D01*
X836729Y-8234293D02*
X827205Y-8272388D01*
X827205Y-8272388D02*
X817682Y-8291436D01*
X817682Y-8291436D02*
X808158Y-8300960D01*
X808158Y-8300960D02*
X789110Y-8310484D01*
X789110Y-8310484D02*
X770062Y-8310484D01*
X770062Y-8310484D02*
X751015Y-8300960D01*
X751015Y-8300960D02*
X741491Y-8291436D01*
X741491Y-8291436D02*
X731967Y-8272388D01*
X731967Y-8272388D02*
X722443Y-8234293D01*
X722443Y-8234293D02*
X722443Y-8186674D01*
X722443Y-8186674D02*
X731967Y-8148579D01*
X731967Y-8148579D02*
X741491Y-8129531D01*
X741491Y-8129531D02*
X751015Y-8120008D01*
X751015Y-8120008D02*
X770062Y-8110484D01*
X960539Y-8110484D02*
X979586Y-8110484D01*
X979586Y-8110484D02*
X998634Y-8120008D01*
X998634Y-8120008D02*
X1008158Y-8129531D01*
X1008158Y-8129531D02*
X1017682Y-8148579D01*
X1017682Y-8148579D02*
X1027205Y-8186674D01*
X1027205Y-8186674D02*
X1027205Y-8234293D01*
X1027205Y-8234293D02*
X1017682Y-8272388D01*
X1017682Y-8272388D02*
X1008158Y-8291436D01*
X1008158Y-8291436D02*
X998634Y-8300960D01*
X998634Y-8300960D02*
X979586Y-8310484D01*
X979586Y-8310484D02*
X960539Y-8310484D01*
X960539Y-8310484D02*
X941491Y-8300960D01*
X941491Y-8300960D02*
X931967Y-8291436D01*
X931967Y-8291436D02*
X922443Y-8272388D01*
X922443Y-8272388D02*
X912920Y-8234293D01*
X912920Y-8234293D02*
X912920Y-8186674D01*
X912920Y-8186674D02*
X922443Y-8148579D01*
X922443Y-8148579D02*
X931967Y-8129531D01*
X931967Y-8129531D02*
X941491Y-8120008D01*
X941491Y-8120008D02*
X960539Y-8110484D01*
X1112920Y-8310484D02*
X1112920Y-8177150D01*
X1112920Y-8196198D02*
X1122444Y-8186674D01*
X1122444Y-8186674D02*
X1141491Y-8177150D01*
X1141491Y-8177150D02*
X1170063Y-8177150D01*
X1170063Y-8177150D02*
X1189110Y-8186674D01*
X1189110Y-8186674D02*
X1198634Y-8205722D01*
X1198634Y-8205722D02*
X1198634Y-8310484D01*
X1198634Y-8205722D02*
X1208158Y-8186674D01*
X1208158Y-8186674D02*
X1227205Y-8177150D01*
X1227205Y-8177150D02*
X1255777Y-8177150D01*
X1255777Y-8177150D02*
X1274825Y-8186674D01*
X1274825Y-8186674D02*
X1284348Y-8205722D01*
X1284348Y-8205722D02*
X1284348Y-8310484D01*
X1379586Y-8310484D02*
X1379586Y-8177150D01*
X1379586Y-8196198D02*
X1389110Y-8186674D01*
X1389110Y-8186674D02*
X1408158Y-8177150D01*
X1408158Y-8177150D02*
X1436729Y-8177150D01*
X1436729Y-8177150D02*
X1455777Y-8186674D01*
X1455777Y-8186674D02*
X1465301Y-8205722D01*
X1465301Y-8205722D02*
X1465301Y-8310484D01*
X1465301Y-8205722D02*
X1474824Y-8186674D01*
X1474824Y-8186674D02*
X1493872Y-8177150D01*
X1493872Y-8177150D02*
X1522443Y-8177150D01*
X1522443Y-8177150D02*
X1541491Y-8186674D01*
X1541491Y-8186674D02*
X1551015Y-8205722D01*
X1551015Y-8205722D02*
X1551015Y-8310484D01*
X1941491Y-8100960D02*
X1770063Y-8358103D01*
X2198634Y-8110484D02*
X2217682Y-8110484D01*
X2217682Y-8110484D02*
X2236729Y-8120008D01*
X2236729Y-8120008D02*
X2246253Y-8129531D01*
X2246253Y-8129531D02*
X2255777Y-8148579D01*
X2255777Y-8148579D02*
X2265301Y-8186674D01*
X2265301Y-8186674D02*
X2265301Y-8234293D01*
X2265301Y-8234293D02*
X2255777Y-8272388D01*
X2255777Y-8272388D02*
X2246253Y-8291436D01*
X2246253Y-8291436D02*
X2236729Y-8300960D01*
X2236729Y-8300960D02*
X2217682Y-8310484D01*
X2217682Y-8310484D02*
X2198634Y-8310484D01*
X2198634Y-8310484D02*
X2179587Y-8300960D01*
X2179587Y-8300960D02*
X2170063Y-8291436D01*
X2170063Y-8291436D02*
X2160539Y-8272388D01*
X2160539Y-8272388D02*
X2151015Y-8234293D01*
X2151015Y-8234293D02*
X2151015Y-8186674D01*
X2151015Y-8186674D02*
X2160539Y-8148579D01*
X2160539Y-8148579D02*
X2170063Y-8129531D01*
X2170063Y-8129531D02*
X2179587Y-8120008D01*
X2179587Y-8120008D02*
X2198634Y-8110484D01*
X2351015Y-8291436D02*
X2360539Y-8300960D01*
X2360539Y-8300960D02*
X2351015Y-8310484D01*
X2351015Y-8310484D02*
X2341491Y-8300960D01*
X2341491Y-8300960D02*
X2351015Y-8291436D01*
X2351015Y-8291436D02*
X2351015Y-8310484D01*
X2484348Y-8110484D02*
X2503396Y-8110484D01*
X2503396Y-8110484D02*
X2522444Y-8120008D01*
X2522444Y-8120008D02*
X2531968Y-8129531D01*
X2531968Y-8129531D02*
X2541491Y-8148579D01*
X2541491Y-8148579D02*
X2551015Y-8186674D01*
X2551015Y-8186674D02*
X2551015Y-8234293D01*
X2551015Y-8234293D02*
X2541491Y-8272388D01*
X2541491Y-8272388D02*
X2531968Y-8291436D01*
X2531968Y-8291436D02*
X2522444Y-8300960D01*
X2522444Y-8300960D02*
X2503396Y-8310484D01*
X2503396Y-8310484D02*
X2484348Y-8310484D01*
X2484348Y-8310484D02*
X2465301Y-8300960D01*
X2465301Y-8300960D02*
X2455777Y-8291436D01*
X2455777Y-8291436D02*
X2446253Y-8272388D01*
X2446253Y-8272388D02*
X2436729Y-8234293D01*
X2436729Y-8234293D02*
X2436729Y-8186674D01*
X2436729Y-8186674D02*
X2446253Y-8148579D01*
X2446253Y-8148579D02*
X2455777Y-8129531D01*
X2455777Y-8129531D02*
X2465301Y-8120008D01*
X2465301Y-8120008D02*
X2484348Y-8110484D01*
X2741491Y-8310484D02*
X2627206Y-8310484D01*
X2684348Y-8310484D02*
X2684348Y-8110484D01*
X2684348Y-8110484D02*
X2665301Y-8139055D01*
X2665301Y-8139055D02*
X2646253Y-8158103D01*
X2646253Y-8158103D02*
X2627206Y-8167627D01*
X2922444Y-8110484D02*
X2827206Y-8110484D01*
X2827206Y-8110484D02*
X2817682Y-8205722D01*
X2817682Y-8205722D02*
X2827206Y-8196198D01*
X2827206Y-8196198D02*
X2846253Y-8186674D01*
X2846253Y-8186674D02*
X2893872Y-8186674D01*
X2893872Y-8186674D02*
X2912920Y-8196198D01*
X2912920Y-8196198D02*
X2922444Y-8205722D01*
X2922444Y-8205722D02*
X2931967Y-8224769D01*
X2931967Y-8224769D02*
X2931967Y-8272388D01*
X2931967Y-8272388D02*
X2922444Y-8291436D01*
X2922444Y-8291436D02*
X2912920Y-8300960D01*
X2912920Y-8300960D02*
X2893872Y-8310484D01*
X2893872Y-8310484D02*
X2846253Y-8310484D01*
X2846253Y-8310484D02*
X2827206Y-8300960D01*
X2827206Y-8300960D02*
X2817682Y-8291436D01*
X2998634Y-8110484D02*
X3131967Y-8110484D01*
X3131967Y-8110484D02*
X3046253Y-8310484D01*
X3198634Y-8110484D02*
X3198634Y-8148579D01*
X3274825Y-8110484D02*
X3274825Y-8148579D01*
X3570063Y-8386674D02*
X3560539Y-8377150D01*
X3560539Y-8377150D02*
X3541491Y-8348579D01*
X3541491Y-8348579D02*
X3531968Y-8329531D01*
X3531968Y-8329531D02*
X3522444Y-8300960D01*
X3522444Y-8300960D02*
X3512920Y-8253341D01*
X3512920Y-8253341D02*
X3512920Y-8215246D01*
X3512920Y-8215246D02*
X3522444Y-8167627D01*
X3522444Y-8167627D02*
X3531968Y-8139055D01*
X3531968Y-8139055D02*
X3541491Y-8120008D01*
X3541491Y-8120008D02*
X3560539Y-8091436D01*
X3560539Y-8091436D02*
X3570063Y-8081912D01*
X3636729Y-8129531D02*
X3646253Y-8120008D01*
X3646253Y-8120008D02*
X3665301Y-8110484D01*
X3665301Y-8110484D02*
X3712920Y-8110484D01*
X3712920Y-8110484D02*
X3731968Y-8120008D01*
X3731968Y-8120008D02*
X3741491Y-8129531D01*
X3741491Y-8129531D02*
X3751015Y-8148579D01*
X3751015Y-8148579D02*
X3751015Y-8167627D01*
X3751015Y-8167627D02*
X3741491Y-8196198D01*
X3741491Y-8196198D02*
X3627206Y-8310484D01*
X3627206Y-8310484D02*
X3751015Y-8310484D01*
X3989110Y-8310484D02*
X3989110Y-8110484D01*
X4074825Y-8310484D02*
X4074825Y-8205722D01*
X4074825Y-8205722D02*
X4065301Y-8186674D01*
X4065301Y-8186674D02*
X4046253Y-8177150D01*
X4046253Y-8177150D02*
X4017682Y-8177150D01*
X4017682Y-8177150D02*
X3998634Y-8186674D01*
X3998634Y-8186674D02*
X3989110Y-8196198D01*
X4198634Y-8310484D02*
X4179587Y-8300960D01*
X4179587Y-8300960D02*
X4170063Y-8291436D01*
X4170063Y-8291436D02*
X4160539Y-8272388D01*
X4160539Y-8272388D02*
X4160539Y-8215246D01*
X4160539Y-8215246D02*
X4170063Y-8196198D01*
X4170063Y-8196198D02*
X4179587Y-8186674D01*
X4179587Y-8186674D02*
X4198634Y-8177150D01*
X4198634Y-8177150D02*
X4227206Y-8177150D01*
X4227206Y-8177150D02*
X4246253Y-8186674D01*
X4246253Y-8186674D02*
X4255777Y-8196198D01*
X4255777Y-8196198D02*
X4265301Y-8215246D01*
X4265301Y-8215246D02*
X4265301Y-8272388D01*
X4265301Y-8272388D02*
X4255777Y-8291436D01*
X4255777Y-8291436D02*
X4246253Y-8300960D01*
X4246253Y-8300960D02*
X4227206Y-8310484D01*
X4227206Y-8310484D02*
X4198634Y-8310484D01*
X4379587Y-8310484D02*
X4360539Y-8300960D01*
X4360539Y-8300960D02*
X4351015Y-8281912D01*
X4351015Y-8281912D02*
X4351015Y-8110484D01*
X4531968Y-8300960D02*
X4512920Y-8310484D01*
X4512920Y-8310484D02*
X4474825Y-8310484D01*
X4474825Y-8310484D02*
X4455777Y-8300960D01*
X4455777Y-8300960D02*
X4446253Y-8281912D01*
X4446253Y-8281912D02*
X4446253Y-8205722D01*
X4446253Y-8205722D02*
X4455777Y-8186674D01*
X4455777Y-8186674D02*
X4474825Y-8177150D01*
X4474825Y-8177150D02*
X4512920Y-8177150D01*
X4512920Y-8177150D02*
X4531968Y-8186674D01*
X4531968Y-8186674D02*
X4541492Y-8205722D01*
X4541492Y-8205722D02*
X4541492Y-8224769D01*
X4541492Y-8224769D02*
X4446253Y-8243817D01*
X4617682Y-8300960D02*
X4636730Y-8310484D01*
X4636730Y-8310484D02*
X4674825Y-8310484D01*
X4674825Y-8310484D02*
X4693873Y-8300960D01*
X4693873Y-8300960D02*
X4703396Y-8281912D01*
X4703396Y-8281912D02*
X4703396Y-8272388D01*
X4703396Y-8272388D02*
X4693873Y-8253341D01*
X4693873Y-8253341D02*
X4674825Y-8243817D01*
X4674825Y-8243817D02*
X4646253Y-8243817D01*
X4646253Y-8243817D02*
X4627206Y-8234293D01*
X4627206Y-8234293D02*
X4617682Y-8215246D01*
X4617682Y-8215246D02*
X4617682Y-8205722D01*
X4617682Y-8205722D02*
X4627206Y-8186674D01*
X4627206Y-8186674D02*
X4646253Y-8177150D01*
X4646253Y-8177150D02*
X4674825Y-8177150D01*
X4674825Y-8177150D02*
X4693873Y-8186674D01*
X4770063Y-8386674D02*
X4779587Y-8377150D01*
X4779587Y-8377150D02*
X4798634Y-8348579D01*
X4798634Y-8348579D02*
X4808158Y-8329531D01*
X4808158Y-8329531D02*
X4817682Y-8300960D01*
X4817682Y-8300960D02*
X4827206Y-8253341D01*
X4827206Y-8253341D02*
X4827206Y-8215246D01*
X4827206Y-8215246D02*
X4817682Y-8167627D01*
X4817682Y-8167627D02*
X4808158Y-8139055D01*
X4808158Y-8139055D02*
X4798634Y-8120008D01*
X4798634Y-8120008D02*
X4779587Y-8091436D01*
X4779587Y-8091436D02*
X4770063Y-8081912D01*
D10*
X-19644Y-8518356D02*
X-19644Y-8447644D01*
X-90356Y-8447644D01*
X-90356Y-8518356D01*
X-19644Y-8518356D01*
D11*
X360539Y-8574484D02*
X246253Y-8574484D01*
X303396Y-8574484D02*
X303396Y-8374484D01*
X303396Y-8374484D02*
X284348Y-8403055D01*
X284348Y-8403055D02*
X265301Y-8422103D01*
X265301Y-8422103D02*
X246253Y-8431627D01*
X446253Y-8555436D02*
X455777Y-8564960D01*
X455777Y-8564960D02*
X446253Y-8574484D01*
X446253Y-8574484D02*
X436729Y-8564960D01*
X436729Y-8564960D02*
X446253Y-8555436D01*
X446253Y-8555436D02*
X446253Y-8574484D01*
X579586Y-8374484D02*
X598634Y-8374484D01*
X598634Y-8374484D02*
X617682Y-8384008D01*
X617682Y-8384008D02*
X627205Y-8393531D01*
X627205Y-8393531D02*
X636729Y-8412579D01*
X636729Y-8412579D02*
X646253Y-8450674D01*
X646253Y-8450674D02*
X646253Y-8498293D01*
X646253Y-8498293D02*
X636729Y-8536389D01*
X636729Y-8536389D02*
X627205Y-8555436D01*
X627205Y-8555436D02*
X617682Y-8564960D01*
X617682Y-8564960D02*
X598634Y-8574484D01*
X598634Y-8574484D02*
X579586Y-8574484D01*
X579586Y-8574484D02*
X560539Y-8564960D01*
X560539Y-8564960D02*
X551015Y-8555436D01*
X551015Y-8555436D02*
X541491Y-8536389D01*
X541491Y-8536389D02*
X531967Y-8498293D01*
X531967Y-8498293D02*
X531967Y-8450674D01*
X531967Y-8450674D02*
X541491Y-8412579D01*
X541491Y-8412579D02*
X551015Y-8393531D01*
X551015Y-8393531D02*
X560539Y-8384008D01*
X560539Y-8384008D02*
X579586Y-8374484D01*
X770062Y-8374484D02*
X789110Y-8374484D01*
X789110Y-8374484D02*
X808158Y-8384008D01*
X808158Y-8384008D02*
X817682Y-8393531D01*
X817682Y-8393531D02*
X827205Y-8412579D01*
X827205Y-8412579D02*
X836729Y-8450674D01*
X836729Y-8450674D02*
X836729Y-8498293D01*
X836729Y-8498293D02*
X827205Y-8536389D01*
X827205Y-8536389D02*
X817682Y-8555436D01*
X817682Y-8555436D02*
X808158Y-8564960D01*
X808158Y-8564960D02*
X789110Y-8574484D01*
X789110Y-8574484D02*
X770062Y-8574484D01*
X770062Y-8574484D02*
X751015Y-8564960D01*
X751015Y-8564960D02*
X741491Y-8555436D01*
X741491Y-8555436D02*
X731967Y-8536389D01*
X731967Y-8536389D02*
X722443Y-8498293D01*
X722443Y-8498293D02*
X722443Y-8450674D01*
X722443Y-8450674D02*
X731967Y-8412579D01*
X731967Y-8412579D02*
X741491Y-8393531D01*
X741491Y-8393531D02*
X751015Y-8384008D01*
X751015Y-8384008D02*
X770062Y-8374484D01*
X960539Y-8374484D02*
X979586Y-8374484D01*
X979586Y-8374484D02*
X998634Y-8384008D01*
X998634Y-8384008D02*
X1008158Y-8393531D01*
X1008158Y-8393531D02*
X1017682Y-8412579D01*
X1017682Y-8412579D02*
X1027205Y-8450674D01*
X1027205Y-8450674D02*
X1027205Y-8498293D01*
X1027205Y-8498293D02*
X1017682Y-8536389D01*
X1017682Y-8536389D02*
X1008158Y-8555436D01*
X1008158Y-8555436D02*
X998634Y-8564960D01*
X998634Y-8564960D02*
X979586Y-8574484D01*
X979586Y-8574484D02*
X960539Y-8574484D01*
X960539Y-8574484D02*
X941491Y-8564960D01*
X941491Y-8564960D02*
X931967Y-8555436D01*
X931967Y-8555436D02*
X922443Y-8536389D01*
X922443Y-8536389D02*
X912920Y-8498293D01*
X912920Y-8498293D02*
X912920Y-8450674D01*
X912920Y-8450674D02*
X922443Y-8412579D01*
X922443Y-8412579D02*
X931967Y-8393531D01*
X931967Y-8393531D02*
X941491Y-8384008D01*
X941491Y-8384008D02*
X960539Y-8374484D01*
X1112920Y-8574484D02*
X1112920Y-8441150D01*
X1112920Y-8460198D02*
X1122444Y-8450674D01*
X1122444Y-8450674D02*
X1141491Y-8441150D01*
X1141491Y-8441150D02*
X1170063Y-8441150D01*
X1170063Y-8441150D02*
X1189110Y-8450674D01*
X1189110Y-8450674D02*
X1198634Y-8469722D01*
X1198634Y-8469722D02*
X1198634Y-8574484D01*
X1198634Y-8469722D02*
X1208158Y-8450674D01*
X1208158Y-8450674D02*
X1227205Y-8441150D01*
X1227205Y-8441150D02*
X1255777Y-8441150D01*
X1255777Y-8441150D02*
X1274825Y-8450674D01*
X1274825Y-8450674D02*
X1284348Y-8469722D01*
X1284348Y-8469722D02*
X1284348Y-8574484D01*
X1379586Y-8574484D02*
X1379586Y-8441150D01*
X1379586Y-8460198D02*
X1389110Y-8450674D01*
X1389110Y-8450674D02*
X1408158Y-8441150D01*
X1408158Y-8441150D02*
X1436729Y-8441150D01*
X1436729Y-8441150D02*
X1455777Y-8450674D01*
X1455777Y-8450674D02*
X1465301Y-8469722D01*
X1465301Y-8469722D02*
X1465301Y-8574484D01*
X1465301Y-8469722D02*
X1474824Y-8450674D01*
X1474824Y-8450674D02*
X1493872Y-8441150D01*
X1493872Y-8441150D02*
X1522443Y-8441150D01*
X1522443Y-8441150D02*
X1541491Y-8450674D01*
X1541491Y-8450674D02*
X1551015Y-8469722D01*
X1551015Y-8469722D02*
X1551015Y-8574484D01*
X1941491Y-8364960D02*
X1770063Y-8622103D01*
X2198634Y-8374484D02*
X2217682Y-8374484D01*
X2217682Y-8374484D02*
X2236729Y-8384008D01*
X2236729Y-8384008D02*
X2246253Y-8393531D01*
X2246253Y-8393531D02*
X2255777Y-8412579D01*
X2255777Y-8412579D02*
X2265301Y-8450674D01*
X2265301Y-8450674D02*
X2265301Y-8498293D01*
X2265301Y-8498293D02*
X2255777Y-8536389D01*
X2255777Y-8536389D02*
X2246253Y-8555436D01*
X2246253Y-8555436D02*
X2236729Y-8564960D01*
X2236729Y-8564960D02*
X2217682Y-8574484D01*
X2217682Y-8574484D02*
X2198634Y-8574484D01*
X2198634Y-8574484D02*
X2179587Y-8564960D01*
X2179587Y-8564960D02*
X2170063Y-8555436D01*
X2170063Y-8555436D02*
X2160539Y-8536389D01*
X2160539Y-8536389D02*
X2151015Y-8498293D01*
X2151015Y-8498293D02*
X2151015Y-8450674D01*
X2151015Y-8450674D02*
X2160539Y-8412579D01*
X2160539Y-8412579D02*
X2170063Y-8393531D01*
X2170063Y-8393531D02*
X2179587Y-8384008D01*
X2179587Y-8384008D02*
X2198634Y-8374484D01*
X2351015Y-8555436D02*
X2360539Y-8564960D01*
X2360539Y-8564960D02*
X2351015Y-8574484D01*
X2351015Y-8574484D02*
X2341491Y-8564960D01*
X2341491Y-8564960D02*
X2351015Y-8555436D01*
X2351015Y-8555436D02*
X2351015Y-8574484D01*
X2484348Y-8374484D02*
X2503396Y-8374484D01*
X2503396Y-8374484D02*
X2522444Y-8384008D01*
X2522444Y-8384008D02*
X2531968Y-8393531D01*
X2531968Y-8393531D02*
X2541491Y-8412579D01*
X2541491Y-8412579D02*
X2551015Y-8450674D01*
X2551015Y-8450674D02*
X2551015Y-8498293D01*
X2551015Y-8498293D02*
X2541491Y-8536389D01*
X2541491Y-8536389D02*
X2531968Y-8555436D01*
X2531968Y-8555436D02*
X2522444Y-8564960D01*
X2522444Y-8564960D02*
X2503396Y-8574484D01*
X2503396Y-8574484D02*
X2484348Y-8574484D01*
X2484348Y-8574484D02*
X2465301Y-8564960D01*
X2465301Y-8564960D02*
X2455777Y-8555436D01*
X2455777Y-8555436D02*
X2446253Y-8536389D01*
X2446253Y-8536389D02*
X2436729Y-8498293D01*
X2436729Y-8498293D02*
X2436729Y-8450674D01*
X2436729Y-8450674D02*
X2446253Y-8412579D01*
X2446253Y-8412579D02*
X2455777Y-8393531D01*
X2455777Y-8393531D02*
X2465301Y-8384008D01*
X2465301Y-8384008D02*
X2484348Y-8374484D01*
X2617682Y-8374484D02*
X2741491Y-8374484D01*
X2741491Y-8374484D02*
X2674825Y-8450674D01*
X2674825Y-8450674D02*
X2703396Y-8450674D01*
X2703396Y-8450674D02*
X2722444Y-8460198D01*
X2722444Y-8460198D02*
X2731968Y-8469722D01*
X2731968Y-8469722D02*
X2741491Y-8488770D01*
X2741491Y-8488770D02*
X2741491Y-8536389D01*
X2741491Y-8536389D02*
X2731968Y-8555436D01*
X2731968Y-8555436D02*
X2722444Y-8564960D01*
X2722444Y-8564960D02*
X2703396Y-8574484D01*
X2703396Y-8574484D02*
X2646253Y-8574484D01*
X2646253Y-8574484D02*
X2627206Y-8564960D01*
X2627206Y-8564960D02*
X2617682Y-8555436D01*
X2836729Y-8574484D02*
X2874825Y-8574484D01*
X2874825Y-8574484D02*
X2893872Y-8564960D01*
X2893872Y-8564960D02*
X2903396Y-8555436D01*
X2903396Y-8555436D02*
X2922444Y-8526865D01*
X2922444Y-8526865D02*
X2931967Y-8488770D01*
X2931967Y-8488770D02*
X2931967Y-8412579D01*
X2931967Y-8412579D02*
X2922444Y-8393531D01*
X2922444Y-8393531D02*
X2912920Y-8384008D01*
X2912920Y-8384008D02*
X2893872Y-8374484D01*
X2893872Y-8374484D02*
X2855777Y-8374484D01*
X2855777Y-8374484D02*
X2836729Y-8384008D01*
X2836729Y-8384008D02*
X2827206Y-8393531D01*
X2827206Y-8393531D02*
X2817682Y-8412579D01*
X2817682Y-8412579D02*
X2817682Y-8460198D01*
X2817682Y-8460198D02*
X2827206Y-8479246D01*
X2827206Y-8479246D02*
X2836729Y-8488770D01*
X2836729Y-8488770D02*
X2855777Y-8498293D01*
X2855777Y-8498293D02*
X2893872Y-8498293D01*
X2893872Y-8498293D02*
X2912920Y-8488770D01*
X2912920Y-8488770D02*
X2922444Y-8479246D01*
X2922444Y-8479246D02*
X2931967Y-8460198D01*
X3103396Y-8441150D02*
X3103396Y-8574484D01*
X3055777Y-8364960D02*
X3008158Y-8507817D01*
X3008158Y-8507817D02*
X3131967Y-8507817D01*
X3198634Y-8374484D02*
X3198634Y-8412579D01*
X3274825Y-8374484D02*
X3274825Y-8412579D01*
X3570063Y-8650674D02*
X3560539Y-8641150D01*
X3560539Y-8641150D02*
X3541491Y-8612579D01*
X3541491Y-8612579D02*
X3531968Y-8593531D01*
X3531968Y-8593531D02*
X3522444Y-8564960D01*
X3522444Y-8564960D02*
X3512920Y-8517341D01*
X3512920Y-8517341D02*
X3512920Y-8479246D01*
X3512920Y-8479246D02*
X3522444Y-8431627D01*
X3522444Y-8431627D02*
X3531968Y-8403055D01*
X3531968Y-8403055D02*
X3541491Y-8384008D01*
X3541491Y-8384008D02*
X3560539Y-8355436D01*
X3560539Y-8355436D02*
X3570063Y-8345912D01*
X3731968Y-8441150D02*
X3731968Y-8574484D01*
X3684348Y-8364960D02*
X3636729Y-8507817D01*
X3636729Y-8507817D02*
X3760539Y-8507817D01*
X3865301Y-8460198D02*
X3846253Y-8450674D01*
X3846253Y-8450674D02*
X3836729Y-8441150D01*
X3836729Y-8441150D02*
X3827206Y-8422103D01*
X3827206Y-8422103D02*
X3827206Y-8412579D01*
X3827206Y-8412579D02*
X3836729Y-8393531D01*
X3836729Y-8393531D02*
X3846253Y-8384008D01*
X3846253Y-8384008D02*
X3865301Y-8374484D01*
X3865301Y-8374484D02*
X3903396Y-8374484D01*
X3903396Y-8374484D02*
X3922444Y-8384008D01*
X3922444Y-8384008D02*
X3931968Y-8393531D01*
X3931968Y-8393531D02*
X3941491Y-8412579D01*
X3941491Y-8412579D02*
X3941491Y-8422103D01*
X3941491Y-8422103D02*
X3931968Y-8441150D01*
X3931968Y-8441150D02*
X3922444Y-8450674D01*
X3922444Y-8450674D02*
X3903396Y-8460198D01*
X3903396Y-8460198D02*
X3865301Y-8460198D01*
X3865301Y-8460198D02*
X3846253Y-8469722D01*
X3846253Y-8469722D02*
X3836729Y-8479246D01*
X3836729Y-8479246D02*
X3827206Y-8498293D01*
X3827206Y-8498293D02*
X3827206Y-8536389D01*
X3827206Y-8536389D02*
X3836729Y-8555436D01*
X3836729Y-8555436D02*
X3846253Y-8564960D01*
X3846253Y-8564960D02*
X3865301Y-8574484D01*
X3865301Y-8574484D02*
X3903396Y-8574484D01*
X3903396Y-8574484D02*
X3922444Y-8564960D01*
X3922444Y-8564960D02*
X3931968Y-8555436D01*
X3931968Y-8555436D02*
X3941491Y-8536389D01*
X3941491Y-8536389D02*
X3941491Y-8498293D01*
X3941491Y-8498293D02*
X3931968Y-8479246D01*
X3931968Y-8479246D02*
X3922444Y-8469722D01*
X3922444Y-8469722D02*
X3903396Y-8460198D01*
X4179587Y-8574484D02*
X4179587Y-8374484D01*
X4265301Y-8574484D02*
X4265301Y-8469722D01*
X4265301Y-8469722D02*
X4255777Y-8450674D01*
X4255777Y-8450674D02*
X4236730Y-8441150D01*
X4236730Y-8441150D02*
X4208158Y-8441150D01*
X4208158Y-8441150D02*
X4189110Y-8450674D01*
X4189110Y-8450674D02*
X4179587Y-8460198D01*
X4389111Y-8574484D02*
X4370063Y-8564960D01*
X4370063Y-8564960D02*
X4360539Y-8555436D01*
X4360539Y-8555436D02*
X4351015Y-8536389D01*
X4351015Y-8536389D02*
X4351015Y-8479246D01*
X4351015Y-8479246D02*
X4360539Y-8460198D01*
X4360539Y-8460198D02*
X4370063Y-8450674D01*
X4370063Y-8450674D02*
X4389111Y-8441150D01*
X4389111Y-8441150D02*
X4417682Y-8441150D01*
X4417682Y-8441150D02*
X4436730Y-8450674D01*
X4436730Y-8450674D02*
X4446253Y-8460198D01*
X4446253Y-8460198D02*
X4455777Y-8479246D01*
X4455777Y-8479246D02*
X4455777Y-8536389D01*
X4455777Y-8536389D02*
X4446253Y-8555436D01*
X4446253Y-8555436D02*
X4436730Y-8564960D01*
X4436730Y-8564960D02*
X4417682Y-8574484D01*
X4417682Y-8574484D02*
X4389111Y-8574484D01*
X4570063Y-8574484D02*
X4551015Y-8564960D01*
X4551015Y-8564960D02*
X4541492Y-8545912D01*
X4541492Y-8545912D02*
X4541492Y-8374484D01*
X4722444Y-8564960D02*
X4703396Y-8574484D01*
X4703396Y-8574484D02*
X4665301Y-8574484D01*
X4665301Y-8574484D02*
X4646253Y-8564960D01*
X4646253Y-8564960D02*
X4636730Y-8545912D01*
X4636730Y-8545912D02*
X4636730Y-8469722D01*
X4636730Y-8469722D02*
X4646253Y-8450674D01*
X4646253Y-8450674D02*
X4665301Y-8441150D01*
X4665301Y-8441150D02*
X4703396Y-8441150D01*
X4703396Y-8441150D02*
X4722444Y-8450674D01*
X4722444Y-8450674D02*
X4731968Y-8469722D01*
X4731968Y-8469722D02*
X4731968Y-8488770D01*
X4731968Y-8488770D02*
X4636730Y-8507817D01*
X4808158Y-8564960D02*
X4827206Y-8574484D01*
X4827206Y-8574484D02*
X4865301Y-8574484D01*
X4865301Y-8574484D02*
X4884349Y-8564960D01*
X4884349Y-8564960D02*
X4893873Y-8545912D01*
X4893873Y-8545912D02*
X4893873Y-8536389D01*
X4893873Y-8536389D02*
X4884349Y-8517341D01*
X4884349Y-8517341D02*
X4865301Y-8507817D01*
X4865301Y-8507817D02*
X4836730Y-8507817D01*
X4836730Y-8507817D02*
X4817682Y-8498293D01*
X4817682Y-8498293D02*
X4808158Y-8479246D01*
X4808158Y-8479246D02*
X4808158Y-8469722D01*
X4808158Y-8469722D02*
X4817682Y-8450674D01*
X4817682Y-8450674D02*
X4836730Y-8441150D01*
X4836730Y-8441150D02*
X4865301Y-8441150D01*
X4865301Y-8441150D02*
X4884349Y-8450674D01*
X4960539Y-8650674D02*
X4970063Y-8641150D01*
X4970063Y-8641150D02*
X4989111Y-8612579D01*
X4989111Y-8612579D02*
X4998634Y-8593531D01*
X4998634Y-8593531D02*
X5008158Y-8564960D01*
X5008158Y-8564960D02*
X5017682Y-8517341D01*
X5017682Y-8517341D02*
X5017682Y-8479246D01*
X5017682Y-8479246D02*
X5008158Y-8431627D01*
X5008158Y-8431627D02*
X4998634Y-8403055D01*
X4998634Y-8403055D02*
X4989111Y-8384008D01*
X4989111Y-8384008D02*
X4970063Y-8355436D01*
X4970063Y-8355436D02*
X4960539Y-8345912D01*
X-105000Y-8847000D02*
X-5000Y-8747000D01*
X-105000Y-8647000D01*
X-205000Y-8747000D01*
X-105000Y-8847000D01*
X246253Y-8657531D02*
X255777Y-8648008D01*
X255777Y-8648008D02*
X274824Y-8638484D01*
X274824Y-8638484D02*
X322444Y-8638484D01*
X322444Y-8638484D02*
X341491Y-8648008D01*
X341491Y-8648008D02*
X351015Y-8657531D01*
X351015Y-8657531D02*
X360539Y-8676579D01*
X360539Y-8676579D02*
X360539Y-8695627D01*
X360539Y-8695627D02*
X351015Y-8724198D01*
X351015Y-8724198D02*
X236729Y-8838484D01*
X236729Y-8838484D02*
X360539Y-8838484D01*
X446253Y-8819436D02*
X455777Y-8828960D01*
X455777Y-8828960D02*
X446253Y-8838484D01*
X446253Y-8838484D02*
X436729Y-8828960D01*
X436729Y-8828960D02*
X446253Y-8819436D01*
X446253Y-8819436D02*
X446253Y-8838484D01*
X531967Y-8657531D02*
X541491Y-8648008D01*
X541491Y-8648008D02*
X560539Y-8638484D01*
X560539Y-8638484D02*
X608158Y-8638484D01*
X608158Y-8638484D02*
X627205Y-8648008D01*
X627205Y-8648008D02*
X636729Y-8657531D01*
X636729Y-8657531D02*
X646253Y-8676579D01*
X646253Y-8676579D02*
X646253Y-8695627D01*
X646253Y-8695627D02*
X636729Y-8724198D01*
X636729Y-8724198D02*
X522443Y-8838484D01*
X522443Y-8838484D02*
X646253Y-8838484D01*
X770062Y-8638484D02*
X789110Y-8638484D01*
X789110Y-8638484D02*
X808158Y-8648008D01*
X808158Y-8648008D02*
X817682Y-8657531D01*
X817682Y-8657531D02*
X827205Y-8676579D01*
X827205Y-8676579D02*
X836729Y-8714674D01*
X836729Y-8714674D02*
X836729Y-8762293D01*
X836729Y-8762293D02*
X827205Y-8800389D01*
X827205Y-8800389D02*
X817682Y-8819436D01*
X817682Y-8819436D02*
X808158Y-8828960D01*
X808158Y-8828960D02*
X789110Y-8838484D01*
X789110Y-8838484D02*
X770062Y-8838484D01*
X770062Y-8838484D02*
X751015Y-8828960D01*
X751015Y-8828960D02*
X741491Y-8819436D01*
X741491Y-8819436D02*
X731967Y-8800389D01*
X731967Y-8800389D02*
X722443Y-8762293D01*
X722443Y-8762293D02*
X722443Y-8714674D01*
X722443Y-8714674D02*
X731967Y-8676579D01*
X731967Y-8676579D02*
X741491Y-8657531D01*
X741491Y-8657531D02*
X751015Y-8648008D01*
X751015Y-8648008D02*
X770062Y-8638484D01*
X960539Y-8638484D02*
X979586Y-8638484D01*
X979586Y-8638484D02*
X998634Y-8648008D01*
X998634Y-8648008D02*
X1008158Y-8657531D01*
X1008158Y-8657531D02*
X1017682Y-8676579D01*
X1017682Y-8676579D02*
X1027205Y-8714674D01*
X1027205Y-8714674D02*
X1027205Y-8762293D01*
X1027205Y-8762293D02*
X1017682Y-8800389D01*
X1017682Y-8800389D02*
X1008158Y-8819436D01*
X1008158Y-8819436D02*
X998634Y-8828960D01*
X998634Y-8828960D02*
X979586Y-8838484D01*
X979586Y-8838484D02*
X960539Y-8838484D01*
X960539Y-8838484D02*
X941491Y-8828960D01*
X941491Y-8828960D02*
X931967Y-8819436D01*
X931967Y-8819436D02*
X922443Y-8800389D01*
X922443Y-8800389D02*
X912920Y-8762293D01*
X912920Y-8762293D02*
X912920Y-8714674D01*
X912920Y-8714674D02*
X922443Y-8676579D01*
X922443Y-8676579D02*
X931967Y-8657531D01*
X931967Y-8657531D02*
X941491Y-8648008D01*
X941491Y-8648008D02*
X960539Y-8638484D01*
X1112920Y-8838484D02*
X1112920Y-8705150D01*
X1112920Y-8724198D02*
X1122444Y-8714674D01*
X1122444Y-8714674D02*
X1141491Y-8705150D01*
X1141491Y-8705150D02*
X1170063Y-8705150D01*
X1170063Y-8705150D02*
X1189110Y-8714674D01*
X1189110Y-8714674D02*
X1198634Y-8733722D01*
X1198634Y-8733722D02*
X1198634Y-8838484D01*
X1198634Y-8733722D02*
X1208158Y-8714674D01*
X1208158Y-8714674D02*
X1227205Y-8705150D01*
X1227205Y-8705150D02*
X1255777Y-8705150D01*
X1255777Y-8705150D02*
X1274825Y-8714674D01*
X1274825Y-8714674D02*
X1284348Y-8733722D01*
X1284348Y-8733722D02*
X1284348Y-8838484D01*
X1379586Y-8838484D02*
X1379586Y-8705150D01*
X1379586Y-8724198D02*
X1389110Y-8714674D01*
X1389110Y-8714674D02*
X1408158Y-8705150D01*
X1408158Y-8705150D02*
X1436729Y-8705150D01*
X1436729Y-8705150D02*
X1455777Y-8714674D01*
X1455777Y-8714674D02*
X1465301Y-8733722D01*
X1465301Y-8733722D02*
X1465301Y-8838484D01*
X1465301Y-8733722D02*
X1474824Y-8714674D01*
X1474824Y-8714674D02*
X1493872Y-8705150D01*
X1493872Y-8705150D02*
X1522443Y-8705150D01*
X1522443Y-8705150D02*
X1541491Y-8714674D01*
X1541491Y-8714674D02*
X1551015Y-8733722D01*
X1551015Y-8733722D02*
X1551015Y-8838484D01*
X1941491Y-8628960D02*
X1770063Y-8886103D01*
X2198634Y-8638484D02*
X2217682Y-8638484D01*
X2217682Y-8638484D02*
X2236729Y-8648008D01*
X2236729Y-8648008D02*
X2246253Y-8657531D01*
X2246253Y-8657531D02*
X2255777Y-8676579D01*
X2255777Y-8676579D02*
X2265301Y-8714674D01*
X2265301Y-8714674D02*
X2265301Y-8762293D01*
X2265301Y-8762293D02*
X2255777Y-8800389D01*
X2255777Y-8800389D02*
X2246253Y-8819436D01*
X2246253Y-8819436D02*
X2236729Y-8828960D01*
X2236729Y-8828960D02*
X2217682Y-8838484D01*
X2217682Y-8838484D02*
X2198634Y-8838484D01*
X2198634Y-8838484D02*
X2179587Y-8828960D01*
X2179587Y-8828960D02*
X2170063Y-8819436D01*
X2170063Y-8819436D02*
X2160539Y-8800389D01*
X2160539Y-8800389D02*
X2151015Y-8762293D01*
X2151015Y-8762293D02*
X2151015Y-8714674D01*
X2151015Y-8714674D02*
X2160539Y-8676579D01*
X2160539Y-8676579D02*
X2170063Y-8657531D01*
X2170063Y-8657531D02*
X2179587Y-8648008D01*
X2179587Y-8648008D02*
X2198634Y-8638484D01*
X2351015Y-8819436D02*
X2360539Y-8828960D01*
X2360539Y-8828960D02*
X2351015Y-8838484D01*
X2351015Y-8838484D02*
X2341491Y-8828960D01*
X2341491Y-8828960D02*
X2351015Y-8819436D01*
X2351015Y-8819436D02*
X2351015Y-8838484D01*
X2484348Y-8638484D02*
X2503396Y-8638484D01*
X2503396Y-8638484D02*
X2522444Y-8648008D01*
X2522444Y-8648008D02*
X2531968Y-8657531D01*
X2531968Y-8657531D02*
X2541491Y-8676579D01*
X2541491Y-8676579D02*
X2551015Y-8714674D01*
X2551015Y-8714674D02*
X2551015Y-8762293D01*
X2551015Y-8762293D02*
X2541491Y-8800389D01*
X2541491Y-8800389D02*
X2531968Y-8819436D01*
X2531968Y-8819436D02*
X2522444Y-8828960D01*
X2522444Y-8828960D02*
X2503396Y-8838484D01*
X2503396Y-8838484D02*
X2484348Y-8838484D01*
X2484348Y-8838484D02*
X2465301Y-8828960D01*
X2465301Y-8828960D02*
X2455777Y-8819436D01*
X2455777Y-8819436D02*
X2446253Y-8800389D01*
X2446253Y-8800389D02*
X2436729Y-8762293D01*
X2436729Y-8762293D02*
X2436729Y-8714674D01*
X2436729Y-8714674D02*
X2446253Y-8676579D01*
X2446253Y-8676579D02*
X2455777Y-8657531D01*
X2455777Y-8657531D02*
X2465301Y-8648008D01*
X2465301Y-8648008D02*
X2484348Y-8638484D01*
X2665301Y-8724198D02*
X2646253Y-8714674D01*
X2646253Y-8714674D02*
X2636729Y-8705150D01*
X2636729Y-8705150D02*
X2627206Y-8686103D01*
X2627206Y-8686103D02*
X2627206Y-8676579D01*
X2627206Y-8676579D02*
X2636729Y-8657531D01*
X2636729Y-8657531D02*
X2646253Y-8648008D01*
X2646253Y-8648008D02*
X2665301Y-8638484D01*
X2665301Y-8638484D02*
X2703396Y-8638484D01*
X2703396Y-8638484D02*
X2722444Y-8648008D01*
X2722444Y-8648008D02*
X2731968Y-8657531D01*
X2731968Y-8657531D02*
X2741491Y-8676579D01*
X2741491Y-8676579D02*
X2741491Y-8686103D01*
X2741491Y-8686103D02*
X2731968Y-8705150D01*
X2731968Y-8705150D02*
X2722444Y-8714674D01*
X2722444Y-8714674D02*
X2703396Y-8724198D01*
X2703396Y-8724198D02*
X2665301Y-8724198D01*
X2665301Y-8724198D02*
X2646253Y-8733722D01*
X2646253Y-8733722D02*
X2636729Y-8743246D01*
X2636729Y-8743246D02*
X2627206Y-8762293D01*
X2627206Y-8762293D02*
X2627206Y-8800389D01*
X2627206Y-8800389D02*
X2636729Y-8819436D01*
X2636729Y-8819436D02*
X2646253Y-8828960D01*
X2646253Y-8828960D02*
X2665301Y-8838484D01*
X2665301Y-8838484D02*
X2703396Y-8838484D01*
X2703396Y-8838484D02*
X2722444Y-8828960D01*
X2722444Y-8828960D02*
X2731968Y-8819436D01*
X2731968Y-8819436D02*
X2741491Y-8800389D01*
X2741491Y-8800389D02*
X2741491Y-8762293D01*
X2741491Y-8762293D02*
X2731968Y-8743246D01*
X2731968Y-8743246D02*
X2722444Y-8733722D01*
X2722444Y-8733722D02*
X2703396Y-8724198D01*
X2912920Y-8638484D02*
X2874825Y-8638484D01*
X2874825Y-8638484D02*
X2855777Y-8648008D01*
X2855777Y-8648008D02*
X2846253Y-8657531D01*
X2846253Y-8657531D02*
X2827206Y-8686103D01*
X2827206Y-8686103D02*
X2817682Y-8724198D01*
X2817682Y-8724198D02*
X2817682Y-8800389D01*
X2817682Y-8800389D02*
X2827206Y-8819436D01*
X2827206Y-8819436D02*
X2836729Y-8828960D01*
X2836729Y-8828960D02*
X2855777Y-8838484D01*
X2855777Y-8838484D02*
X2893872Y-8838484D01*
X2893872Y-8838484D02*
X2912920Y-8828960D01*
X2912920Y-8828960D02*
X2922444Y-8819436D01*
X2922444Y-8819436D02*
X2931967Y-8800389D01*
X2931967Y-8800389D02*
X2931967Y-8752770D01*
X2931967Y-8752770D02*
X2922444Y-8733722D01*
X2922444Y-8733722D02*
X2912920Y-8724198D01*
X2912920Y-8724198D02*
X2893872Y-8714674D01*
X2893872Y-8714674D02*
X2855777Y-8714674D01*
X2855777Y-8714674D02*
X2836729Y-8724198D01*
X2836729Y-8724198D02*
X2827206Y-8733722D01*
X2827206Y-8733722D02*
X2817682Y-8752770D01*
X3103396Y-8638484D02*
X3065301Y-8638484D01*
X3065301Y-8638484D02*
X3046253Y-8648008D01*
X3046253Y-8648008D02*
X3036729Y-8657531D01*
X3036729Y-8657531D02*
X3017682Y-8686103D01*
X3017682Y-8686103D02*
X3008158Y-8724198D01*
X3008158Y-8724198D02*
X3008158Y-8800389D01*
X3008158Y-8800389D02*
X3017682Y-8819436D01*
X3017682Y-8819436D02*
X3027206Y-8828960D01*
X3027206Y-8828960D02*
X3046253Y-8838484D01*
X3046253Y-8838484D02*
X3084348Y-8838484D01*
X3084348Y-8838484D02*
X3103396Y-8828960D01*
X3103396Y-8828960D02*
X3112920Y-8819436D01*
X3112920Y-8819436D02*
X3122444Y-8800389D01*
X3122444Y-8800389D02*
X3122444Y-8752770D01*
X3122444Y-8752770D02*
X3112920Y-8733722D01*
X3112920Y-8733722D02*
X3103396Y-8724198D01*
X3103396Y-8724198D02*
X3084348Y-8714674D01*
X3084348Y-8714674D02*
X3046253Y-8714674D01*
X3046253Y-8714674D02*
X3027206Y-8724198D01*
X3027206Y-8724198D02*
X3017682Y-8733722D01*
X3017682Y-8733722D02*
X3008158Y-8752770D01*
X3198634Y-8638484D02*
X3198634Y-8676579D01*
X3274825Y-8638484D02*
X3274825Y-8676579D01*
X3570063Y-8914674D02*
X3560539Y-8905150D01*
X3560539Y-8905150D02*
X3541491Y-8876579D01*
X3541491Y-8876579D02*
X3531968Y-8857531D01*
X3531968Y-8857531D02*
X3522444Y-8828960D01*
X3522444Y-8828960D02*
X3512920Y-8781341D01*
X3512920Y-8781341D02*
X3512920Y-8743246D01*
X3512920Y-8743246D02*
X3522444Y-8695627D01*
X3522444Y-8695627D02*
X3531968Y-8667055D01*
X3531968Y-8667055D02*
X3541491Y-8648008D01*
X3541491Y-8648008D02*
X3560539Y-8619436D01*
X3560539Y-8619436D02*
X3570063Y-8609912D01*
X3731968Y-8705150D02*
X3731968Y-8838484D01*
X3684348Y-8628960D02*
X3636729Y-8771817D01*
X3636729Y-8771817D02*
X3760539Y-8771817D01*
X3989110Y-8838484D02*
X3989110Y-8638484D01*
X4074825Y-8838484D02*
X4074825Y-8733722D01*
X4074825Y-8733722D02*
X4065301Y-8714674D01*
X4065301Y-8714674D02*
X4046253Y-8705150D01*
X4046253Y-8705150D02*
X4017682Y-8705150D01*
X4017682Y-8705150D02*
X3998634Y-8714674D01*
X3998634Y-8714674D02*
X3989110Y-8724198D01*
X4198634Y-8838484D02*
X4179587Y-8828960D01*
X4179587Y-8828960D02*
X4170063Y-8819436D01*
X4170063Y-8819436D02*
X4160539Y-8800389D01*
X4160539Y-8800389D02*
X4160539Y-8743246D01*
X4160539Y-8743246D02*
X4170063Y-8724198D01*
X4170063Y-8724198D02*
X4179587Y-8714674D01*
X4179587Y-8714674D02*
X4198634Y-8705150D01*
X4198634Y-8705150D02*
X4227206Y-8705150D01*
X4227206Y-8705150D02*
X4246253Y-8714674D01*
X4246253Y-8714674D02*
X4255777Y-8724198D01*
X4255777Y-8724198D02*
X4265301Y-8743246D01*
X4265301Y-8743246D02*
X4265301Y-8800389D01*
X4265301Y-8800389D02*
X4255777Y-8819436D01*
X4255777Y-8819436D02*
X4246253Y-8828960D01*
X4246253Y-8828960D02*
X4227206Y-8838484D01*
X4227206Y-8838484D02*
X4198634Y-8838484D01*
X4379587Y-8838484D02*
X4360539Y-8828960D01*
X4360539Y-8828960D02*
X4351015Y-8809912D01*
X4351015Y-8809912D02*
X4351015Y-8638484D01*
X4531968Y-8828960D02*
X4512920Y-8838484D01*
X4512920Y-8838484D02*
X4474825Y-8838484D01*
X4474825Y-8838484D02*
X4455777Y-8828960D01*
X4455777Y-8828960D02*
X4446253Y-8809912D01*
X4446253Y-8809912D02*
X4446253Y-8733722D01*
X4446253Y-8733722D02*
X4455777Y-8714674D01*
X4455777Y-8714674D02*
X4474825Y-8705150D01*
X4474825Y-8705150D02*
X4512920Y-8705150D01*
X4512920Y-8705150D02*
X4531968Y-8714674D01*
X4531968Y-8714674D02*
X4541492Y-8733722D01*
X4541492Y-8733722D02*
X4541492Y-8752770D01*
X4541492Y-8752770D02*
X4446253Y-8771817D01*
X4617682Y-8828960D02*
X4636730Y-8838484D01*
X4636730Y-8838484D02*
X4674825Y-8838484D01*
X4674825Y-8838484D02*
X4693873Y-8828960D01*
X4693873Y-8828960D02*
X4703396Y-8809912D01*
X4703396Y-8809912D02*
X4703396Y-8800389D01*
X4703396Y-8800389D02*
X4693873Y-8781341D01*
X4693873Y-8781341D02*
X4674825Y-8771817D01*
X4674825Y-8771817D02*
X4646253Y-8771817D01*
X4646253Y-8771817D02*
X4627206Y-8762293D01*
X4627206Y-8762293D02*
X4617682Y-8743246D01*
X4617682Y-8743246D02*
X4617682Y-8733722D01*
X4617682Y-8733722D02*
X4627206Y-8714674D01*
X4627206Y-8714674D02*
X4646253Y-8705150D01*
X4646253Y-8705150D02*
X4674825Y-8705150D01*
X4674825Y-8705150D02*
X4693873Y-8714674D01*
X4770063Y-8914674D02*
X4779587Y-8905150D01*
X4779587Y-8905150D02*
X4798634Y-8876579D01*
X4798634Y-8876579D02*
X4808158Y-8857531D01*
X4808158Y-8857531D02*
X4817682Y-8828960D01*
X4817682Y-8828960D02*
X4827206Y-8781341D01*
X4827206Y-8781341D02*
X4827206Y-8743246D01*
X4827206Y-8743246D02*
X4817682Y-8695627D01*
X4817682Y-8695627D02*
X4808158Y-8667055D01*
X4808158Y-8667055D02*
X4798634Y-8648008D01*
X4798634Y-8648008D02*
X4779587Y-8619436D01*
X4779587Y-8619436D02*
X4770063Y-8609912D01*
M02*
