G04 #@! TF.GenerationSoftware,KiCad,Pcbnew,9.0.4*
G04 #@! TF.CreationDate,2025-08-20T21:16:51-04:00*
G04 #@! TF.ProjectId,jlcpcb_1x1,6a6c6370-6362-45f3-9178-312e6b696361,rev?*
G04 #@! TF.SameCoordinates,Original*
G04 #@! TF.FileFunction,Copper,L1,Top*
G04 #@! TF.FilePolarity,Positive*
%FSLAX46Y46*%
G04 Gerber Fmt 4.6, Leading zero omitted, Abs format (unit mm)*
G04 Created by KiCad (PCBNEW 9.0.4) date 2025-08-20 21:16:51*
%MOMM*%
%LPD*%
G01*
G04 APERTURE LIST*
G04 Aperture macros list*
%AMRoundRect*
0 Rectangle with rounded corners*
0 $1 Rounding radius*
0 $2 $3 $4 $5 $6 $7 $8 $9 X,Y pos of 4 corners*
0 Add a 4 corners polygon primitive as box body*
4,1,4,$2,$3,$4,$5,$6,$7,$8,$9,$2,$3,0*
0 Add four circle primitives for the rounded corners*
1,1,$1+$1,$2,$3*
1,1,$1+$1,$4,$5*
1,1,$1+$1,$6,$7*
1,1,$1+$1,$8,$9*
0 Add four rect primitives between the rounded corners*
20,1,$1+$1,$2,$3,$4,$5,0*
20,1,$1+$1,$4,$5,$6,$7,0*
20,1,$1+$1,$6,$7,$8,$9,0*
20,1,$1+$1,$8,$9,$2,$3,0*%
%AMRotRect*
0 Rectangle, with rotation*
0 The origin of the aperture is its center*
0 $1 length*
0 $2 width*
0 $3 Rotation angle, in degrees counterclockwise*
0 Add horizontal line*
21,1,$1,$2,0,0,$3*%
G04 Aperture macros list end*
G04 #@! TA.AperFunction,EtchedComponent*
%ADD10C,0.000000*%
G04 #@! TD*
G04 #@! TA.AperFunction,SMDPad,CuDef*
%ADD11C,0.200000*%
G04 #@! TD*
G04 #@! TA.AperFunction,SMDPad,CuDef*
%ADD12RoundRect,0.062500X-0.185616X-0.274004X0.274004X0.185616X0.185616X0.274004X-0.274004X-0.185616X0*%
G04 #@! TD*
G04 #@! TA.AperFunction,SMDPad,CuDef*
%ADD13RoundRect,0.062500X0.185616X-0.274004X0.274004X-0.185616X-0.185616X0.274004X-0.274004X0.185616X0*%
G04 #@! TD*
G04 #@! TA.AperFunction,ComponentPad*
%ADD14C,0.500000*%
G04 #@! TD*
G04 #@! TA.AperFunction,SMDPad,CuDef*
%ADD15RotRect,2.100000X2.100000X45.000000*%
G04 #@! TD*
G04 #@! TA.AperFunction,SMDPad,CuDef*
%ADD16RoundRect,0.062500X0.000000X-0.088388X0.088388X0.000000X0.000000X0.088388X-0.088388X0.000000X0*%
G04 #@! TD*
G04 #@! TA.AperFunction,SMDPad,CuDef*
%ADD17C,1.000000*%
G04 #@! TD*
G04 #@! TA.AperFunction,SMDPad,CuDef*
%ADD18RoundRect,0.160000X0.026517X0.252791X-0.252791X-0.026517X-0.026517X-0.252791X0.252791X0.026517X0*%
G04 #@! TD*
G04 #@! TA.AperFunction,SMDPad,CuDef*
%ADD19R,0.508000X0.500000*%
G04 #@! TD*
G04 #@! TA.AperFunction,SMDPad,CuDef*
%ADD20R,0.508000X0.508000*%
G04 #@! TD*
G04 #@! TA.AperFunction,SMDPad,CuDef*
%ADD21RoundRect,0.135000X-0.135000X-0.185000X0.135000X-0.185000X0.135000X0.185000X-0.135000X0.185000X0*%
G04 #@! TD*
G04 #@! TA.AperFunction,SMDPad,CuDef*
%ADD22RoundRect,0.160000X-0.252791X0.026517X0.026517X-0.252791X0.252791X-0.026517X-0.026517X0.252791X0*%
G04 #@! TD*
G04 #@! TA.AperFunction,SMDPad,CuDef*
%ADD23RoundRect,0.140000X-0.021213X0.219203X-0.219203X0.021213X0.021213X-0.219203X0.219203X-0.021213X0*%
G04 #@! TD*
G04 #@! TA.AperFunction,SMDPad,CuDef*
%ADD24R,1.000000X1.000000*%
G04 #@! TD*
G04 #@! TA.AperFunction,SMDPad,CuDef*
%ADD25RoundRect,0.250000X0.337500X0.475000X-0.337500X0.475000X-0.337500X-0.475000X0.337500X-0.475000X0*%
G04 #@! TD*
G04 #@! TA.AperFunction,SMDPad,CuDef*
%ADD26RoundRect,0.135000X0.135000X0.185000X-0.135000X0.185000X-0.135000X-0.185000X0.135000X-0.185000X0*%
G04 #@! TD*
G04 #@! TA.AperFunction,SMDPad,CuDef*
%ADD27RoundRect,0.250000X-0.450000X0.325000X-0.450000X-0.325000X0.450000X-0.325000X0.450000X0.325000X0*%
G04 #@! TD*
G04 #@! TA.AperFunction,ComponentPad*
%ADD28R,1.700000X1.700000*%
G04 #@! TD*
G04 #@! TA.AperFunction,ComponentPad*
%ADD29O,1.700000X1.700000*%
G04 #@! TD*
G04 #@! TA.AperFunction,ComponentPad*
%ADD30C,3.200000*%
G04 #@! TD*
G04 #@! TA.AperFunction,SMDPad,CuDef*
%ADD31RoundRect,0.237500X-0.300000X-0.237500X0.300000X-0.237500X0.300000X0.237500X-0.300000X0.237500X0*%
G04 #@! TD*
G04 #@! TA.AperFunction,SMDPad,CuDef*
%ADD32RoundRect,0.150000X0.512500X0.150000X-0.512500X0.150000X-0.512500X-0.150000X0.512500X-0.150000X0*%
G04 #@! TD*
G04 #@! TA.AperFunction,SMDPad,CuDef*
%ADD33RoundRect,0.140000X0.219203X0.021213X0.021213X0.219203X-0.219203X-0.021213X-0.021213X-0.219203X0*%
G04 #@! TD*
G04 #@! TA.AperFunction,SMDPad,CuDef*
%ADD34RoundRect,0.135000X0.226274X0.035355X0.035355X0.226274X-0.226274X-0.035355X-0.035355X-0.226274X0*%
G04 #@! TD*
G04 #@! TA.AperFunction,SMDPad,CuDef*
%ADD35RoundRect,0.250000X-0.097227X0.574524X-0.574524X0.097227X0.097227X-0.574524X0.574524X-0.097227X0*%
G04 #@! TD*
G04 #@! TA.AperFunction,SMDPad,CuDef*
%ADD36RoundRect,0.160000X0.197500X0.160000X-0.197500X0.160000X-0.197500X-0.160000X0.197500X-0.160000X0*%
G04 #@! TD*
G04 #@! TA.AperFunction,SMDPad,CuDef*
%ADD37RoundRect,0.237500X-0.044194X-0.380070X0.380070X0.044194X0.044194X0.380070X-0.380070X-0.044194X0*%
G04 #@! TD*
G04 #@! TA.AperFunction,SMDPad,CuDef*
%ADD38RoundRect,0.135000X-0.226274X-0.035355X-0.035355X-0.226274X0.226274X0.035355X0.035355X0.226274X0*%
G04 #@! TD*
G04 #@! TA.AperFunction,SMDPad,CuDef*
%ADD39RoundRect,0.250000X0.574524X0.097227X0.097227X0.574524X-0.574524X-0.097227X-0.097227X-0.574524X0*%
G04 #@! TD*
G04 #@! TA.AperFunction,SMDPad,CuDef*
%ADD40RoundRect,0.237500X-0.237500X0.300000X-0.237500X-0.300000X0.237500X-0.300000X0.237500X0.300000X0*%
G04 #@! TD*
G04 #@! TA.AperFunction,SMDPad,CuDef*
%ADD41RoundRect,0.135000X-0.185000X0.135000X-0.185000X-0.135000X0.185000X-0.135000X0.185000X0.135000X0*%
G04 #@! TD*
G04 #@! TA.AperFunction,SMDPad,CuDef*
%ADD42RotRect,0.508000X0.508000X315.000000*%
G04 #@! TD*
G04 #@! TA.AperFunction,SMDPad,CuDef*
%ADD43R,0.954000X1.000000*%
G04 #@! TD*
G04 #@! TA.AperFunction,ComponentPad*
%ADD44R,0.500000X0.500000*%
G04 #@! TD*
G04 #@! TA.AperFunction,ViaPad*
%ADD45C,0.450000*%
G04 #@! TD*
G04 #@! TA.AperFunction,ViaPad*
%ADD46C,0.800000*%
G04 #@! TD*
G04 #@! TA.AperFunction,Conductor*
%ADD47C,0.750000*%
G04 #@! TD*
G04 #@! TA.AperFunction,Conductor*
%ADD48C,0.250000*%
G04 #@! TD*
G04 #@! TA.AperFunction,Conductor*
%ADD49C,0.200000*%
G04 #@! TD*
G04 #@! TA.AperFunction,Conductor*
%ADD50C,0.500000*%
G04 #@! TD*
G04 APERTURE END LIST*
D10*
G04 #@! TA.AperFunction,EtchedComponent*
G04 #@! TO.C,NT109*
G36*
X34222500Y-33755000D02*
G01*
X33772500Y-33755000D01*
X33772500Y-33555000D01*
X34222500Y-33555000D01*
X34222500Y-33755000D01*
G37*
G04 #@! TD.AperFunction*
G04 #@! TA.AperFunction,EtchedComponent*
G04 #@! TO.C,E109*
G36*
X51268500Y-24034000D02*
G01*
X51726500Y-24034000D01*
X51726500Y-23459000D01*
X51268500Y-23459000D01*
X51268500Y-24034000D01*
G37*
G04 #@! TD.AperFunction*
G04 #@! TA.AperFunction,EtchedComponent*
G04 #@! TO.C,G118*
G36*
X51368500Y-46934000D02*
G01*
X51826500Y-46934000D01*
X51826500Y-46359000D01*
X51368500Y-46359000D01*
X51368500Y-46934000D01*
G37*
G04 #@! TD.AperFunction*
G04 #@! TA.AperFunction,EtchedComponent*
G04 #@! TO.C,G117*
G36*
X28668500Y-46334000D02*
G01*
X29126500Y-46334000D01*
X29126500Y-45759000D01*
X28668500Y-45759000D01*
X28668500Y-46334000D01*
G37*
G04 #@! TD.AperFunction*
G04 #@! TA.AperFunction,EtchedComponent*
G04 #@! TO.C,E108*
G36*
X28868500Y-24034000D02*
G01*
X29326500Y-24034000D01*
X29326500Y-23459000D01*
X28868500Y-23459000D01*
X28868500Y-24034000D01*
G37*
G04 #@! TD.AperFunction*
G04 #@! TA.AperFunction,EtchedComponent*
G04 #@! TO.C,5V108*
G36*
X22422500Y-45555000D02*
G01*
X22172500Y-45555000D01*
X22172500Y-45155000D01*
X22422500Y-45155000D01*
X22422500Y-45555000D01*
G37*
G04 #@! TD.AperFunction*
G04 #@! TD*
D11*
G04 #@! TO.P,NT109,1,1*
G04 #@! TO.N,Board_0-3.3V_LDO*
X33772500Y-33655000D03*
G04 #@! TO.P,NT109,2,2*
G04 #@! TO.N,Board_0-3.3V_THIN*
X34222500Y-33655000D03*
G04 #@! TD*
D12*
G04 #@! TO.P,TAC5212,1,DREG*
G04 #@! TO.N,Board_0-Net-(TAC5212-DREG)*
X36877275Y-35962005D03*
G04 #@! TO.P,TAC5212,2,BCLK*
G04 #@! TO.N,Board_0-Net-(TAC5212-BCLK)*
X37230828Y-36315559D03*
G04 #@! TO.P,TAC5212,3,FSYNC*
G04 #@! TO.N,Board_0-Net-(TAC5212-FSYNC)*
X37584382Y-36669112D03*
G04 #@! TO.P,TAC5212,4,DOUT*
G04 #@! TO.N,Board_0-Net-(TAC5212-DOUT)*
X37937935Y-37022665D03*
G04 #@! TO.P,TAC5212,5,DIN*
G04 #@! TO.N,Board_0-Net-(TAC5212-DIN)*
X38291488Y-37376219D03*
G04 #@! TO.P,TAC5212,6,IOVDD*
G04 #@! TO.N,Board_0-3.3v_IDE*
X38645042Y-37729772D03*
D13*
G04 #@! TO.P,TAC5212,7,SCL*
G04 #@! TO.N,Board_0-5212_SCL*
X39688024Y-37729772D03*
G04 #@! TO.P,TAC5212,8,SDA*
G04 #@! TO.N,Board_0-5212_SDA*
X40041578Y-37376219D03*
G04 #@! TO.P,TAC5212,9,GPIO1*
G04 #@! TO.N,Board_0-Net-(TAC5212-GPIO1)*
X40395131Y-37022665D03*
G04 #@! TO.P,TAC5212,10,GPIO2*
G04 #@! TO.N,Board_0-Net-(TAC5212-GPIO2)*
X40748684Y-36669112D03*
G04 #@! TO.P,TAC5212,11,GPO1*
G04 #@! TO.N,Board_0-Net-(TAC5212-GPO1)*
X41102238Y-36315559D03*
G04 #@! TO.P,TAC5212,12,GPI1*
G04 #@! TO.N,Board_0-Net-(TAC5212-GPI1)*
X41455791Y-35962005D03*
D12*
G04 #@! TO.P,TAC5212,13,ADDR*
G04 #@! TO.N,Board_0-Net-(TAC5212-ADDR)*
X41455791Y-34919023D03*
G04 #@! TO.P,TAC5212,14,MICBIAS*
G04 #@! TO.N,Board_0-MICBIAS*
X41102238Y-34565469D03*
G04 #@! TO.P,TAC5212,15,IN1P*
G04 #@! TO.N,Board_0-IN1P*
X40748684Y-34211916D03*
G04 #@! TO.P,TAC5212,16,IN1M*
G04 #@! TO.N,Board_0-IN1M*
X40395131Y-33858363D03*
G04 #@! TO.P,TAC5212,17,IN2P*
G04 #@! TO.N,Board_0-IN2P*
X40041578Y-33504809D03*
G04 #@! TO.P,TAC5212,18,IN2M*
G04 #@! TO.N,Board_0-IN2M*
X39688024Y-33151256D03*
D13*
G04 #@! TO.P,TAC5212,19,OUT1M*
G04 #@! TO.N,Board_0-OUT1M*
X38645042Y-33151256D03*
G04 #@! TO.P,TAC5212,20,OUT1P*
G04 #@! TO.N,Board_0-OUT1P*
X38291488Y-33504809D03*
G04 #@! TO.P,TAC5212,21,OUT2P*
G04 #@! TO.N,Board_0-OUT2P*
X37937935Y-33858363D03*
G04 #@! TO.P,TAC5212,22,OUT2M*
G04 #@! TO.N,Board_0-OUT2M*
X37584382Y-34211916D03*
G04 #@! TO.P,TAC5212,23,AVDD*
G04 #@! TO.N,Board_0-3.3V_THIN*
X37230828Y-34565469D03*
G04 #@! TO.P,TAC5212,24,VREF*
G04 #@! TO.N,Board_0-Net-(TAC5212-VREF)*
X36877275Y-34919023D03*
D14*
G04 #@! TO.P,TAC5212,25,VSS*
G04 #@! TO.N,Board_0-GNDD*
X38671558Y-35935489D03*
X38671558Y-34945539D03*
X39166533Y-35440514D03*
D15*
X39166533Y-35440514D03*
D14*
X39661508Y-35935489D03*
X39661508Y-34945539D03*
D16*
G04 #@! TO.P,TAC5212,A1,VSS*
X36734086Y-35440514D03*
G04 #@! TO.P,TAC5212,A2,VSS*
X39166533Y-37872961D03*
G04 #@! TO.P,TAC5212,A3,VSS*
X41598980Y-35440514D03*
G04 #@! TO.P,TAC5212,A4,VSS*
X39166533Y-33008067D03*
G04 #@! TD*
D17*
G04 #@! TO.P,KiKit_FID_T_2,*
G04 #@! TO.N,*
X66460000Y-4000000D03*
G04 #@! TD*
D18*
G04 #@! TO.P,R117,1*
G04 #@! TO.N,Board_0-5212_DOUT1*
X35514586Y-39435455D03*
G04 #@! TO.P,R117,2*
G04 #@! TO.N,Board_0-Net-(TAC5212-DOUT)*
X36359578Y-38590463D03*
G04 #@! TD*
G04 #@! TO.P,R119,1*
G04 #@! TO.N,Board_0-5212_BCLK1*
X34171083Y-38091952D03*
G04 #@! TO.P,R119,2*
G04 #@! TO.N,Board_0-Net-(TAC5212-BCLK)*
X35016075Y-37246960D03*
G04 #@! TD*
D19*
G04 #@! TO.P,E109,1,1*
G04 #@! TO.N,Board_0-Earth*
X51497500Y-24259000D03*
D20*
G04 #@! TO.P,E109,2,2*
G04 #@! TO.N,Board_0-Net-(E109-Pad2)*
X51497500Y-23255000D03*
G04 #@! TD*
D14*
G04 #@! TO.P,G110,1,1*
G04 #@! TO.N,Board_0-Earth*
X46497500Y-38055000D03*
G04 #@! TD*
G04 #@! TO.P,G113,1,1*
G04 #@! TO.N,Board_0-Earth*
X31597500Y-42455000D03*
G04 #@! TD*
D17*
G04 #@! TO.P,KiKit_FID_T_1,*
G04 #@! TO.N,*
X4000000Y-4000000D03*
G04 #@! TD*
D21*
G04 #@! TO.P,R123,1*
G04 #@! TO.N,Board_0-Net-(ADD111-Pad1)*
X50487500Y-36955000D03*
G04 #@! TO.P,R123,2*
G04 #@! TO.N,Board_0-3.3V_LDO*
X51507500Y-36955000D03*
G04 #@! TD*
D22*
G04 #@! TO.P,R110,1*
G04 #@! TO.N,Board_0-GPI1*
X45019996Y-37277496D03*
G04 #@! TO.P,R110,2*
G04 #@! TO.N,Board_0-Net-(TAC5212-GPI1)*
X44175004Y-36432504D03*
G04 #@! TD*
D23*
G04 #@! TO.P,C112,1*
G04 #@! TO.N,Board_0-3.3v_IDE*
X37936911Y-40315589D03*
G04 #@! TO.P,C112,2*
G04 #@! TO.N,Board_0-GNDD*
X37258089Y-40994411D03*
G04 #@! TD*
D24*
G04 #@! TO.P,PU_EN108,1,1*
G04 #@! TO.N,Board_0-Net-(PU_EN108-Pad1)*
X36947500Y-42655000D03*
G04 #@! TO.P,PU_EN108,2,2*
G04 #@! TO.N,Board_0-3.3v_IDE*
X38247500Y-42655000D03*
G04 #@! TD*
D19*
G04 #@! TO.P,G118,1,1*
G04 #@! TO.N,Board_0-Net-(G118-Pad1)*
X51597500Y-47159000D03*
D20*
G04 #@! TO.P,G118,2,2*
G04 #@! TO.N,Board_0-GNDD*
X51597500Y-46155000D03*
G04 #@! TD*
D14*
G04 #@! TO.P,G114,1,1*
G04 #@! TO.N,Board_0-Earth*
X52397500Y-39655000D03*
G04 #@! TD*
D18*
G04 #@! TO.P,R118,1*
G04 #@! TO.N,Board_0-5212_DIN1*
X36186337Y-40107207D03*
G04 #@! TO.P,R118,2*
G04 #@! TO.N,Board_0-Net-(TAC5212-DIN)*
X37031329Y-39262215D03*
G04 #@! TD*
D14*
G04 #@! TO.P,G116,1,1*
G04 #@! TO.N,Board_0-Earth*
X55297500Y-34255000D03*
G04 #@! TD*
D25*
G04 #@! TO.P,C111,1*
G04 #@! TO.N,Board_0-3.3v_IDE*
X35435000Y-42255000D03*
G04 #@! TO.P,C111,2*
G04 #@! TO.N,Board_0-GNDD*
X33360000Y-42255000D03*
G04 #@! TD*
D24*
G04 #@! TO.P,ADD112,1,1*
G04 #@! TO.N,Board_0-Net-(ADD112-Pad1)*
X47997500Y-35655000D03*
G04 #@! TO.P,ADD112,2,2*
G04 #@! TO.N,Board_0-Net-(TAC5212-ADDR)*
X47997500Y-34355000D03*
G04 #@! TD*
D22*
G04 #@! TO.P,R114,1*
G04 #@! TO.N,Board_0-GPIO1*
X42619996Y-39677496D03*
G04 #@! TO.P,R114,2*
G04 #@! TO.N,Board_0-Net-(TAC5212-GPIO1)*
X41775004Y-38832504D03*
G04 #@! TD*
D14*
G04 #@! TO.P,G115,1,1*
G04 #@! TO.N,Board_0-Earth*
X34397500Y-43855000D03*
G04 #@! TD*
G04 #@! TO.P,G109,1,1*
G04 #@! TO.N,Board_0-Earth*
X28597500Y-41255000D03*
G04 #@! TD*
D26*
G04 #@! TO.P,R124,1*
G04 #@! TO.N,Board_0-Net-(ADD112-Pad1)*
X47307500Y-36955000D03*
G04 #@! TO.P,R124,2*
G04 #@! TO.N,Board_0-GNDD*
X46287500Y-36955000D03*
G04 #@! TD*
D22*
G04 #@! TO.P,R113,1*
G04 #@! TO.N,Board_0-GPIO2*
X43419996Y-38877496D03*
G04 #@! TO.P,R113,2*
G04 #@! TO.N,Board_0-Net-(TAC5212-GPIO2)*
X42575004Y-38032504D03*
G04 #@! TD*
D24*
G04 #@! TO.P,ADD111,1,1*
G04 #@! TO.N,Board_0-Net-(ADD111-Pad1)*
X51197500Y-35655000D03*
G04 #@! TO.P,ADD111,2,2*
G04 #@! TO.N,Board_0-Net-(TAC5212-ADDR)*
X51197500Y-34355000D03*
G04 #@! TD*
D27*
G04 #@! TO.P,D116,1,K*
G04 #@! TO.N,Board_0-GNDD*
X49572500Y-40305000D03*
G04 #@! TO.P,D116,2,A*
G04 #@! TO.N,Board_0-Net-(D116-A)*
X49572500Y-42355000D03*
G04 #@! TD*
D28*
G04 #@! TO.P,board_outline108,1,HELD_HIGH*
G04 #@! TO.N,Board_0-EN_HELD_HIGH*
X18735000Y-46655000D03*
D29*
G04 #@! TO.P,board_outline108,2,HELD_LOW*
G04 #@! TO.N,Board_0-unconnected-(board_outline108-HELD_LOW-Pad2)*
X16195000Y-46655000D03*
G04 #@! TO.P,board_outline108,3,5V*
G04 #@! TO.N,Board_0-Net-(5V108-Pad2)*
X18735000Y-44115000D03*
G04 #@! TO.P,board_outline108,4,GNDD*
G04 #@! TO.N,Board_0-3.3v_IDE*
X16195000Y-44115000D03*
G04 #@! TO.P,board_outline108,5,12V*
G04 #@! TO.N,Board_0-unconnected-(board_outline108-12V-Pad5)*
X18735000Y-41575000D03*
G04 #@! TO.P,board_outline108,6,GNDD*
G04 #@! TO.N,Board_0-GNDD*
X16195000Y-41575000D03*
G04 #@! TO.P,board_outline108,7,DSP_DOUT*
G04 #@! TO.N,Board_0-5212_DIN1*
X18735000Y-39035000D03*
G04 #@! TO.P,board_outline108,8,GNDD*
G04 #@! TO.N,Board_0-GNDD*
X16195000Y-39035000D03*
G04 #@! TO.P,board_outline108,9,DSP_DIN*
G04 #@! TO.N,Board_0-5212_DOUT1+*
X18735000Y-36495000D03*
G04 #@! TO.P,board_outline108,10,GNDD*
G04 #@! TO.N,Board_0-GNDD*
X16195000Y-36495000D03*
G04 #@! TO.P,board_outline108,11,BCLK*
G04 #@! TO.N,Board_0-5212_BCLK1*
X18735000Y-33955000D03*
G04 #@! TO.P,board_outline108,12,GNDD*
G04 #@! TO.N,Board_0-GNDD*
X16195000Y-33955000D03*
G04 #@! TO.P,board_outline108,13,LRCK*
G04 #@! TO.N,Board_0-5212_LRCK1*
X18735000Y-31415000D03*
G04 #@! TO.P,board_outline108,14,GNDD*
G04 #@! TO.N,Board_0-GNDD*
X16195000Y-31415000D03*
G04 #@! TO.P,board_outline108,15,SDA*
G04 #@! TO.N,Board_0-DSP_SDA*
X18735000Y-28875000D03*
G04 #@! TO.P,board_outline108,16,GNDD*
G04 #@! TO.N,Board_0-GNDD*
X16195000Y-28875000D03*
G04 #@! TO.P,board_outline108,17,SCL*
G04 #@! TO.N,Board_0-DSP_SCL*
X18735000Y-26335000D03*
G04 #@! TO.P,board_outline108,18,GNDD*
G04 #@! TO.N,Board_0-GNDD*
X16195000Y-26335000D03*
G04 #@! TO.P,board_outline108,19,MCLK*
G04 #@! TO.N,Board_0-5212_MCLK1*
X18735000Y-23795000D03*
G04 #@! TO.P,board_outline108,20,GNDD*
G04 #@! TO.N,Board_0-GNDD*
X16195000Y-23795000D03*
D28*
G04 #@! TO.P,board_outline108,21,OUTP*
G04 #@! TO.N,Board_0-OUT1P+*
X31445000Y-26340000D03*
G04 #@! TO.P,board_outline108,22,AGND*
G04 #@! TO.N,Board_0-Earth*
X31445000Y-23800000D03*
D29*
G04 #@! TO.P,board_outline108,23,OUT1M*
G04 #@! TO.N,Board_0-OUT1M+*
X33985000Y-26340000D03*
G04 #@! TO.P,board_outline108,24,AGND*
G04 #@! TO.N,Board_0-Earth*
X33985000Y-23800000D03*
G04 #@! TO.P,board_outline108,25,OUT2P*
G04 #@! TO.N,Board_0-OUT2P+*
X36525000Y-26340000D03*
G04 #@! TO.P,board_outline108,26,AGND*
G04 #@! TO.N,Board_0-Earth*
X36525000Y-23800000D03*
G04 #@! TO.P,board_outline108,27,OUT2M*
G04 #@! TO.N,Board_0-OUT2M+*
X39065000Y-26340000D03*
G04 #@! TO.P,board_outline108,28,AGND*
G04 #@! TO.N,Board_0-Earth*
X39065000Y-23800000D03*
G04 #@! TO.P,board_outline108,29,IN1P*
G04 #@! TO.N,Board_0-IN1P+*
X41605000Y-26340000D03*
G04 #@! TO.P,board_outline108,30,AGND*
G04 #@! TO.N,Board_0-Earth*
X41605000Y-23800000D03*
G04 #@! TO.P,board_outline108,31,IN1M*
G04 #@! TO.N,Board_0-IN1M+*
X44145000Y-26340000D03*
G04 #@! TO.P,board_outline108,32,AGND*
G04 #@! TO.N,Board_0-Earth*
X44145000Y-23800000D03*
G04 #@! TO.P,board_outline108,33,IN2P*
G04 #@! TO.N,Board_0-IN2P+*
X46685000Y-26340000D03*
G04 #@! TO.P,board_outline108,34,AGND*
G04 #@! TO.N,Board_0-Earth*
X46685000Y-23800000D03*
G04 #@! TO.P,board_outline108,35,IN2M*
G04 #@! TO.N,Board_0-IN2M+*
X49225000Y-26340000D03*
G04 #@! TO.P,board_outline108,36,AGND*
G04 #@! TO.N,Board_0-Earth*
X49225000Y-23800000D03*
D28*
G04 #@! TO.P,board_outline108,37,SCL*
G04 #@! TO.N,Board_0-5212_SCL*
X31445000Y-46660000D03*
D29*
G04 #@! TO.P,board_outline108,38,SDA*
G04 #@! TO.N,Board_0-5212_SDA*
X33985000Y-46660000D03*
G04 #@! TO.P,board_outline108,39,GNDD*
G04 #@! TO.N,Board_0-GNDD*
X36525000Y-46660000D03*
G04 #@! TO.P,board_outline108,40,GPIO1*
G04 #@! TO.N,Board_0-GPIO1*
X39065000Y-46660000D03*
G04 #@! TO.P,board_outline108,41,GPIO2*
G04 #@! TO.N,Board_0-GPIO2*
X41605000Y-46660000D03*
G04 #@! TO.P,board_outline108,42,GPO1*
G04 #@! TO.N,Board_0-GPO1*
X44145000Y-46660000D03*
G04 #@! TO.P,board_outline108,43,GPI1*
G04 #@! TO.N,Board_0-GPI1*
X46685000Y-46660000D03*
G04 #@! TO.P,board_outline108,44,GNDD*
G04 #@! TO.N,Board_0-GNDD*
X49225000Y-46660000D03*
G04 #@! TO.P,board_outline108,45,5V*
G04 #@! TO.N,Board_0-5V*
X54290000Y-41580000D03*
G04 #@! TO.P,board_outline108,46,3.3V*
G04 #@! TO.N,Board_0-3.3V_LDO*
X54290000Y-39040000D03*
G04 #@! TO.P,board_outline108,47,GNDD*
G04 #@! TO.N,Board_0-GNDD*
X54290000Y-36500000D03*
G04 #@! TO.P,board_outline108,48,MIC_BIAS*
G04 #@! TO.N,Board_0-MICBIAS*
X51750000Y-26340000D03*
D30*
G04 #@! TO.P,board_outline108,49,AGND*
G04 #@! TO.N,Board_0-Net-(E108-Pad2)*
X26350000Y-23800000D03*
G04 #@! TO.P,board_outline108,50,AGND*
G04 #@! TO.N,Board_0-Net-(E109-Pad2)*
X54290000Y-23800000D03*
G04 #@! TO.P,board_outline108,51,DGND*
G04 #@! TO.N,Board_0-Net-(G117-Pad1)*
X26350000Y-46660000D03*
G04 #@! TO.P,board_outline108,52,DGND*
G04 #@! TO.N,Board_0-Net-(G118-Pad1)*
X54290000Y-46660000D03*
G04 #@! TD*
D24*
G04 #@! TO.P,ADD110,1,1*
G04 #@! TO.N,Board_0-Net-(ADD110-Pad1)*
X49597500Y-35655000D03*
G04 #@! TO.P,ADD110,2,2*
G04 #@! TO.N,Board_0-Net-(TAC5212-ADDR)*
X49597500Y-34355000D03*
G04 #@! TD*
D19*
G04 #@! TO.P,G117,1,1*
G04 #@! TO.N,Board_0-Net-(G117-Pad1)*
X28897500Y-46559000D03*
D20*
G04 #@! TO.P,G117,2,2*
G04 #@! TO.N,Board_0-GNDD*
X28897500Y-45555000D03*
G04 #@! TD*
D31*
G04 #@! TO.P,C128,1*
G04 #@! TO.N,Board_0-3.3v_IDE*
X25335000Y-42055000D03*
G04 #@! TO.P,C128,2*
G04 #@! TO.N,Board_0-GNDD*
X27060000Y-42055000D03*
G04 #@! TD*
D18*
G04 #@! TO.P,R115,1*
G04 #@! TO.N,Board_0-5212_LRCK1*
X34842834Y-38763704D03*
G04 #@! TO.P,R115,2*
G04 #@! TO.N,Board_0-Net-(TAC5212-FSYNC)*
X35687826Y-37918712D03*
G04 #@! TD*
D26*
G04 #@! TO.P,R122,1*
G04 #@! TO.N,Board_0-Net-(ADD110-Pad1)*
X49507500Y-36955000D03*
G04 #@! TO.P,R122,2*
G04 #@! TO.N,Board_0-3.3V_LDO*
X48487500Y-36955000D03*
G04 #@! TD*
D14*
G04 #@! TO.P,G111,1,1*
G04 #@! TO.N,Board_0-Earth*
X21397500Y-42255000D03*
G04 #@! TD*
D32*
G04 #@! TO.P,U108,1,OE*
G04 #@! TO.N,Board_0-GNDD*
X26535000Y-40105000D03*
G04 #@! TO.P,U108,2,A*
G04 #@! TO.N,Board_0-5212_DOUT1*
X26535000Y-39155000D03*
G04 #@! TO.P,U108,3,GND*
G04 #@! TO.N,Board_0-GNDD*
X26535000Y-38205000D03*
G04 #@! TO.P,U108,4,Y*
G04 #@! TO.N,Board_0-Net-(U108-Y)*
X24260000Y-38205000D03*
G04 #@! TO.P,U108,5,VCC*
G04 #@! TO.N,Board_0-3.3v_IDE*
X24260000Y-40105000D03*
G04 #@! TD*
D33*
G04 #@! TO.P,C109,1*
G04 #@! TO.N,Board_0-3.3V_THIN*
X34936911Y-33194411D03*
G04 #@! TO.P,C109,2*
G04 #@! TO.N,Board_0-Earth*
X34258089Y-32515589D03*
G04 #@! TD*
D19*
G04 #@! TO.P,E108,1,1*
G04 #@! TO.N,Board_0-Earth*
X29097500Y-24259000D03*
D20*
G04 #@! TO.P,E108,2,2*
G04 #@! TO.N,Board_0-Net-(E108-Pad2)*
X29097500Y-23255000D03*
G04 #@! TD*
D34*
G04 #@! TO.P,R120,1*
G04 #@! TO.N,Board_0-5212_SDA*
X40958124Y-41015624D03*
G04 #@! TO.P,R120,2*
G04 #@! TO.N,Board_0-Net-(PU_EN108-Pad1)*
X40236876Y-40294376D03*
G04 #@! TD*
D22*
G04 #@! TO.P,R112,1*
G04 #@! TO.N,Board_0-GPO1*
X44219996Y-38077496D03*
G04 #@! TO.P,R112,2*
G04 #@! TO.N,Board_0-Net-(TAC5212-GPO1)*
X43375004Y-37232504D03*
G04 #@! TD*
D24*
G04 #@! TO.P,ADD108,1,1*
G04 #@! TO.N,Board_0-GNDD*
X46397500Y-35655000D03*
G04 #@! TO.P,ADD108,2,2*
G04 #@! TO.N,Board_0-Net-(TAC5212-ADDR)*
X46397500Y-34355000D03*
G04 #@! TD*
D35*
G04 #@! TO.P,C108,1*
G04 #@! TO.N,Board_0-3.3V_THIN*
X32131123Y-33221377D03*
G04 #@! TO.P,C108,2*
G04 #@! TO.N,Board_0-Earth*
X30663877Y-34688623D03*
G04 #@! TD*
D36*
G04 #@! TO.P,R125,1*
G04 #@! TO.N,Board_0-5212_DOUT1+*
X23900000Y-36655000D03*
G04 #@! TO.P,R125,2*
G04 #@! TO.N,Board_0-Net-(U108-Y)*
X25095000Y-36655000D03*
G04 #@! TD*
D23*
G04 #@! TO.P,C116,1*
G04 #@! TO.N,Board_0-Net-(TAC5212-DREG)*
X34136911Y-36315589D03*
G04 #@! TO.P,C116,2*
G04 #@! TO.N,Board_0-GNDD*
X33458089Y-36994411D03*
G04 #@! TD*
D17*
G04 #@! TO.P,KiKit_FID_T_3,*
G04 #@! TO.N,*
X4000000Y-66460000D03*
G04 #@! TD*
D37*
G04 #@! TO.P,C119,1*
G04 #@! TO.N,Board_0-Earth*
X31987620Y-36064880D03*
G04 #@! TO.P,C119,2*
G04 #@! TO.N,Board_0-Net-(TAC5212-VREF)*
X33207380Y-34845120D03*
G04 #@! TD*
D17*
G04 #@! TO.P,KiKit_FID_T_4,*
G04 #@! TO.N,*
X66460000Y-66460000D03*
G04 #@! TD*
D38*
G04 #@! TO.P,R121,1*
G04 #@! TO.N,Board_0-5212_SCL*
X39436876Y-41094376D03*
G04 #@! TO.P,R121,2*
G04 #@! TO.N,Board_0-Net-(PU_EN108-Pad1)*
X40158124Y-41815624D03*
G04 #@! TD*
D39*
G04 #@! TO.P,C115,1*
G04 #@! TO.N,Board_0-Net-(TAC5212-DREG)*
X31531123Y-38488623D03*
G04 #@! TO.P,C115,2*
G04 #@! TO.N,Board_0-GNDD*
X30063877Y-37021377D03*
G04 #@! TD*
D14*
G04 #@! TO.P,G112,1,1*
G04 #@! TO.N,Board_0-Earth*
X47797500Y-38055000D03*
G04 #@! TD*
D40*
G04 #@! TO.P,C118,1*
G04 #@! TO.N,Board_0-MICBIAS*
X53597500Y-27442500D03*
G04 #@! TO.P,C118,2*
G04 #@! TO.N,Board_0-Earth*
X53597500Y-29167500D03*
G04 #@! TD*
D41*
G04 #@! TO.P,R126,1*
G04 #@! TO.N,Board_0-3.3V_LDO*
X51597500Y-40445000D03*
G04 #@! TO.P,R126,2*
G04 #@! TO.N,Board_0-Net-(D116-A)*
X51597500Y-41465000D03*
G04 #@! TD*
D42*
G04 #@! TO.P,DOUT108,1,1*
G04 #@! TO.N,Board_0-5212_DOUT1*
X29051053Y-39808553D03*
G04 #@! TO.P,DOUT108,2,2*
G04 #@! TO.N,Board_0-5212_DOUT1+*
X28343947Y-39101447D03*
G04 #@! TD*
D43*
G04 #@! TO.P,5V108,1,1*
G04 #@! TO.N,Board_0-5V*
X22874500Y-45355000D03*
G04 #@! TO.P,5V108,2,2*
G04 #@! TO.N,Board_0-Net-(5V108-Pad2)*
X21722513Y-45355001D03*
G04 #@! TD*
D14*
G04 #@! TO.P,G108,1,1*
G04 #@! TO.N,Board_0-Earth*
X45197500Y-38555000D03*
G04 #@! TD*
D44*
G04 #@! TO.P,INP2,2,2*
G04 #@! TO.N,Board_0-IN2P*
X50797500Y-31490000D03*
G04 #@! TD*
G04 #@! TO.P,OP2,2,2*
G04 #@! TO.N,Board_0-OUT2P*
X29697500Y-31480000D03*
G04 #@! TD*
G04 #@! TO.P,INM2,2,2*
G04 #@! TO.N,Board_0-IN2M*
X54397500Y-31537500D03*
G04 #@! TD*
G04 #@! TO.P,INP1,2,2*
G04 #@! TO.N,Board_0-IN1P*
X43597500Y-31480000D03*
G04 #@! TD*
G04 #@! TO.P,OM1,2,2*
G04 #@! TO.N,Board_0-OUT1M*
X21397500Y-30555000D03*
G04 #@! TD*
G04 #@! TO.P,OM2,2,2*
G04 #@! TO.N,Board_0-OUT2M*
X33597500Y-31255000D03*
G04 #@! TD*
G04 #@! TO.P,OP1,2,2*
G04 #@! TO.N,Board_0-OUT1P*
X25397500Y-31555000D03*
G04 #@! TD*
G04 #@! TO.P,INM1,2,2*
G04 #@! TO.N,Board_0-IN1M*
X47197500Y-31417500D03*
G04 #@! TD*
D45*
G04 #@! TO.N,Board_0-3.3V_LDO*
X33397500Y-33655000D03*
G04 #@! TO.N,Board_0-3.3v_IDE*
X38259482Y-42803569D03*
X25297500Y-42055000D03*
X24197500Y-40055000D03*
G04 #@! TO.N,Board_0-5212_SCL*
X31331585Y-43755000D03*
G04 #@! TO.N,Board_0-5212_SDA*
X20160290Y-41841552D03*
D46*
G04 #@! TO.N,Board_0-5V*
X23712182Y-43715000D03*
D45*
X53306250Y-42563750D03*
G04 #@! TO.N,Board_0-EN_HELD_HIGH*
X41597500Y-40055000D03*
G04 #@! TO.N,Board_0-Earth*
X25597500Y-27255000D03*
X23797500Y-25055000D03*
X40597500Y-28255000D03*
X32622239Y-31817663D03*
X37150990Y-28704666D03*
X51547500Y-28705000D03*
X54697500Y-26455000D03*
X23797500Y-22455000D03*
X55797500Y-37655000D03*
X21197500Y-47655000D03*
X23997500Y-29855000D03*
G04 #@! TO.N,Board_0-GNDD*
X28797500Y-47855000D03*
X33397500Y-42155000D03*
X54197500Y-43055000D03*
D46*
X38597500Y-31080000D03*
D45*
X48797500Y-38655000D03*
X21647500Y-36055000D03*
X41597500Y-42455000D03*
X22760925Y-42333913D03*
X45197500Y-35255000D03*
X46597500Y-41655000D03*
X22397500Y-38855000D03*
X27397500Y-34055000D03*
X28404087Y-43635000D03*
X22597500Y-47655000D03*
X44997500Y-39455000D03*
G04 #@! TO.N,Board_0-GPI1*
X14997500Y-40455000D03*
G04 #@! TO.N,Board_0-Net-(PU_EN108-Pad1)*
X40101537Y-42280583D03*
X36700948Y-42849456D03*
G04 #@! TD*
D47*
G04 #@! TO.N,Board_0-3.3V_LDO*
X51597500Y-40445000D02*
X51632500Y-40480000D01*
D48*
X33772500Y-33655000D02*
X33397500Y-33655000D01*
D47*
X51632500Y-40480000D02*
X52850000Y-40480000D01*
X52850000Y-40480000D02*
X54290000Y-39040000D01*
D49*
X50887500Y-37575000D02*
X51507500Y-36955000D01*
X51507500Y-36955000D02*
X52205000Y-36955000D01*
X52205000Y-36955000D02*
X54290000Y-39040000D01*
X49107500Y-37575000D02*
X50887500Y-37575000D01*
X48487500Y-36955000D02*
X49107500Y-37575000D01*
G04 #@! TO.N,Board_0-3.3V_THIN*
X34936911Y-33194411D02*
X35297500Y-33555000D01*
X34476322Y-33655000D02*
X34222500Y-33655000D01*
X35529733Y-33555000D02*
X36190044Y-34215311D01*
X32497500Y-32855000D02*
X33734830Y-32855000D01*
X32131123Y-33221377D02*
X32497500Y-32855000D01*
X33734830Y-32855000D02*
X34074241Y-33194411D01*
X36190044Y-34215311D02*
X36880670Y-34215311D01*
X34936911Y-33194411D02*
X34476322Y-33655000D01*
X36880670Y-34215311D02*
X37230828Y-34565469D01*
X35297500Y-33555000D02*
X35529733Y-33555000D01*
X34074241Y-33194411D02*
X34936911Y-33194411D01*
G04 #@! TO.N,Board_0-3.3v_IDE*
X37936911Y-40315589D02*
X37936911Y-38437903D01*
X24260000Y-40105000D02*
X24260000Y-40980000D01*
X35435000Y-41919474D02*
X35435000Y-42255000D01*
X24260000Y-40980000D02*
X25335000Y-42055000D01*
X37647500Y-43655000D02*
X38259482Y-43043018D01*
X35435000Y-42255000D02*
X35435000Y-42980000D01*
X37717708Y-40096386D02*
X37258088Y-40096386D01*
X38259482Y-43043018D02*
X38259482Y-42803569D01*
X37936911Y-40315589D02*
X37717708Y-40096386D01*
X37936911Y-38437903D02*
X38645042Y-37729772D01*
X36110000Y-43655000D02*
X37647500Y-43655000D01*
X37258088Y-40096386D02*
X35435000Y-41919474D01*
X35435000Y-42980000D02*
X36110000Y-43655000D01*
G04 #@! TO.N,Board_0-5212_BCLK1*
X17997500Y-30155000D02*
X17560000Y-30592500D01*
X26297500Y-34555000D02*
X21805467Y-34555000D01*
X21805467Y-34555000D02*
X19910000Y-32659533D01*
X17560000Y-32780000D02*
X18735000Y-33955000D01*
X17560000Y-30592500D02*
X17560000Y-32780000D01*
X32619990Y-39643045D02*
X30985545Y-39643045D01*
X34171083Y-38091952D02*
X32619990Y-39643045D01*
X30985545Y-39643045D02*
X28597500Y-37255000D01*
X19910000Y-30928299D02*
X19136701Y-30155000D01*
X19910000Y-32659533D02*
X19910000Y-30928299D01*
X28597500Y-36855000D02*
X26297500Y-34555000D01*
X19136701Y-30155000D02*
X17997500Y-30155000D01*
X28597500Y-37255000D02*
X28597500Y-36855000D01*
G04 #@! TO.N,Board_0-5212_DIN1*
X28165914Y-44455000D02*
X28642260Y-44455000D01*
X18735000Y-39035000D02*
X21255000Y-41555000D01*
X28642260Y-44455000D02*
X32042260Y-41055000D01*
X23076413Y-41733913D02*
X23674337Y-41733913D01*
X35238544Y-41055000D02*
X36186337Y-40107207D01*
X27915914Y-44205000D02*
X28165914Y-44455000D01*
X21255000Y-41555000D02*
X22897500Y-41555000D01*
X23674337Y-41733913D02*
X26145424Y-44205000D01*
X22897500Y-41555000D02*
X23076413Y-41733913D01*
X32042260Y-41055000D02*
X35238544Y-41055000D01*
X26145424Y-44205000D02*
X27915914Y-44205000D01*
G04 #@! TO.N,Board_0-5212_DOUT1*
X26535000Y-39155000D02*
X27578670Y-39155000D01*
X29785545Y-40543045D02*
X34406996Y-40543045D01*
X34406996Y-40543045D02*
X35514586Y-39435455D01*
X27578670Y-39155000D02*
X28428670Y-40005000D01*
X28428670Y-40005000D02*
X28854606Y-40005000D01*
X29051053Y-39808553D02*
X29785545Y-40543045D01*
X28854606Y-40005000D02*
X29051053Y-39808553D01*
G04 #@! TO.N,Board_0-5212_DOUT1+*
X24545000Y-36010000D02*
X23900000Y-36655000D01*
X27347500Y-36877792D02*
X26479708Y-36010000D01*
X25597500Y-36010000D02*
X24545000Y-36010000D01*
X27347500Y-37541396D02*
X27347500Y-36877792D01*
X18735000Y-36495000D02*
X18895000Y-36655000D01*
X26479708Y-36010000D02*
X25597500Y-36010000D01*
X28343947Y-38537843D02*
X27347500Y-37541396D01*
X28343947Y-39101447D02*
X28343947Y-38537843D01*
X18895000Y-36655000D02*
X23900000Y-36655000D01*
G04 #@! TO.N,Board_0-5212_LRCK1*
X34842834Y-38763704D02*
X33513493Y-40093045D01*
X28147500Y-37041396D02*
X26161104Y-35055000D01*
X26161104Y-35055000D02*
X21669071Y-35055000D01*
X21669071Y-35055000D02*
X18735000Y-32120929D01*
X18735000Y-32120929D02*
X18735000Y-31415000D01*
X30799149Y-40093045D02*
X28147500Y-37441396D01*
X28147500Y-37441396D02*
X28147500Y-37041396D01*
X33513493Y-40093045D02*
X30799149Y-40093045D01*
G04 #@! TO.N,Board_0-5212_MCLK1*
X18795000Y-23855000D02*
X18735000Y-23795000D01*
G04 #@! TO.N,Board_0-5212_SCL*
X39447500Y-41105000D02*
X39447500Y-43805000D01*
X39688024Y-37729772D02*
X39688024Y-40035710D01*
X39436876Y-40286858D02*
X39436876Y-41094376D01*
X32031585Y-44455000D02*
X31331585Y-43755000D01*
X39436876Y-41094376D02*
X39447500Y-41105000D01*
X39688024Y-40035710D02*
X39436876Y-40286858D01*
X39447500Y-43805000D02*
X38797500Y-44455000D01*
X38797500Y-44455000D02*
X32031585Y-44455000D01*
G04 #@! TO.N,Board_0-5212_SDA*
X28000228Y-44855000D02*
X27750228Y-44605000D01*
X27750228Y-44605000D02*
X25868516Y-44605000D01*
X20160290Y-42317790D02*
X20160290Y-41841552D01*
X25868516Y-44605000D02*
X23943516Y-42680000D01*
X22926484Y-43055000D02*
X20897500Y-43055000D01*
X40060486Y-44976986D02*
X35668014Y-44976986D01*
X40938509Y-44098963D02*
X40060486Y-44976986D01*
X23301484Y-42680000D02*
X22926484Y-43055000D01*
X40041578Y-37376219D02*
X40958124Y-38292765D01*
X40958124Y-38292765D02*
X40958124Y-41015624D01*
X33985000Y-46660000D02*
X32180000Y-44855000D01*
X23943516Y-42680000D02*
X23301484Y-42680000D01*
X20897500Y-43055000D02*
X20160290Y-42317790D01*
X32180000Y-44855000D02*
X28000228Y-44855000D01*
X40938509Y-41035239D02*
X40938509Y-44098963D01*
X40958124Y-41015624D02*
X40938509Y-41035239D01*
X35668014Y-44976986D02*
X33985000Y-46660000D01*
D50*
G04 #@! TO.N,Board_0-5V*
X22849500Y-45355000D02*
X23747500Y-44457000D01*
X23747500Y-44457000D02*
X23747500Y-43750318D01*
X23747500Y-43750318D02*
X23712182Y-43715000D01*
D49*
G04 #@! TO.N,Board_0-Earth*
X29921181Y-32055000D02*
X29347500Y-32628681D01*
X34258089Y-32515589D02*
X33560163Y-31817663D01*
X32559576Y-31755000D02*
X30572500Y-31755000D01*
X30272500Y-32055000D02*
X29921181Y-32055000D01*
X30990000Y-24255000D02*
X31445000Y-23800000D01*
X31987620Y-36012366D02*
X31987620Y-36064880D01*
X30572500Y-31755000D02*
X30272500Y-32055000D01*
X30663877Y-34688623D02*
X31987620Y-36012366D01*
X51497500Y-24255000D02*
X49680000Y-24255000D01*
X49680000Y-24255000D02*
X49225000Y-23800000D01*
X33560163Y-31817663D02*
X32622239Y-31817663D01*
X30663877Y-34545668D02*
X30663877Y-34688623D01*
X29097500Y-24255000D02*
X30990000Y-24255000D01*
X54597500Y-26992499D02*
X54660001Y-26992499D01*
X29347500Y-32628681D02*
X29347500Y-33229291D01*
X32622239Y-31817663D02*
X32559576Y-31755000D01*
X29347500Y-33229291D02*
X30663877Y-34545668D01*
G04 #@! TO.N,Board_0-GNDD*
X33575318Y-42255000D02*
X33360000Y-42255000D01*
X39047500Y-41855000D02*
X39047500Y-43455000D01*
X20912500Y-35320000D02*
X21647500Y-36055000D01*
X16195000Y-36495000D02*
X17370000Y-35320000D01*
X38186911Y-40994411D02*
X39047500Y-41855000D01*
X35375318Y-44055000D02*
X33575318Y-42255000D01*
X37518678Y-41255000D02*
X37258089Y-40994411D01*
X38597500Y-31080000D02*
X38597500Y-32439034D01*
X51597500Y-46155000D02*
X49730000Y-46155000D01*
X29747500Y-46405000D02*
X28897500Y-45555000D01*
X29747500Y-46905000D02*
X29747500Y-46405000D01*
X46287500Y-36955000D02*
X47247500Y-37915000D01*
X30063877Y-37021377D02*
X33431123Y-37021377D01*
X47247500Y-38505000D02*
X47397500Y-38655000D01*
X33431123Y-37021377D02*
X33458089Y-36994411D01*
X38447500Y-44055000D02*
X35375318Y-44055000D01*
X28797500Y-47855000D02*
X29747500Y-46905000D01*
X27060000Y-42055000D02*
X27060000Y-42290913D01*
X38597500Y-32439034D02*
X39166533Y-33008067D01*
X35836490Y-35541136D02*
X34048694Y-35541136D01*
X45011986Y-35440514D02*
X45197500Y-35255000D01*
X17370000Y-35320000D02*
X20912500Y-35320000D01*
X37895526Y-41255000D02*
X37518678Y-41255000D01*
X36734086Y-35440514D02*
X35937112Y-35440514D01*
X41598980Y-35440514D02*
X45011986Y-35440514D01*
X35937112Y-35440514D02*
X35836490Y-35541136D01*
X47247500Y-37915000D02*
X47247500Y-38505000D01*
X33458089Y-36131741D02*
X33458089Y-36994411D01*
X39166533Y-37872961D02*
X39166533Y-39983993D01*
X34048694Y-35541136D02*
X33458089Y-36131741D01*
X39166533Y-39983993D02*
X37895526Y-41255000D01*
X47397500Y-38655000D02*
X48797500Y-38655000D01*
X49730000Y-46155000D02*
X49225000Y-46660000D01*
X37258089Y-40994411D02*
X38186911Y-40994411D01*
X39047500Y-43455000D02*
X38447500Y-44055000D01*
X27060000Y-42290913D02*
X28404087Y-43635000D01*
G04 #@! TO.N,Board_0-GPI1*
X45772500Y-38030000D02*
X45772500Y-42430000D01*
X45772500Y-42430000D02*
X46685000Y-43342500D01*
X45019996Y-37277496D02*
X45772500Y-38030000D01*
X46685000Y-43342500D02*
X46685000Y-46660000D01*
G04 #@! TO.N,Board_0-GPIO1*
X42397500Y-43712412D02*
X42397500Y-39899992D01*
X39449912Y-46660000D02*
X42397500Y-43712412D01*
X42397500Y-39899992D02*
X42619996Y-39677496D01*
X39065000Y-46660000D02*
X39449912Y-46660000D01*
G04 #@! TO.N,Board_0-GPIO2*
X41605000Y-46660000D02*
X43597500Y-44667500D01*
X43597500Y-44667500D02*
X43597500Y-39055000D01*
X43597500Y-39055000D02*
X43419996Y-38877496D01*
G04 #@! TO.N,Board_0-GPO1*
X44397500Y-46407500D02*
X44397500Y-38255000D01*
X44145000Y-46660000D02*
X44397500Y-46407500D01*
X44397500Y-38255000D02*
X44219996Y-38077496D01*
G04 #@! TO.N,Board_0-IN1M*
X42397500Y-31855994D02*
X42397500Y-31655000D01*
X40395131Y-33858363D02*
X42397500Y-31855994D01*
X43597500Y-30455000D02*
X46235000Y-30455000D01*
X46235000Y-30455000D02*
X47197500Y-31417500D01*
X42397500Y-31655000D02*
X43597500Y-30455000D01*
G04 #@! TO.N,Board_0-IN1P*
X41724487Y-33728013D02*
X41232587Y-33728013D01*
X43597500Y-31480000D02*
X43572500Y-31480000D01*
X41232587Y-33728013D02*
X40748684Y-34211916D01*
X41724487Y-33728013D02*
X43597500Y-31855000D01*
X43597500Y-31855000D02*
X43597500Y-31480000D01*
G04 #@! TO.N,Board_0-IN2M*
X42597500Y-28255000D02*
X41347500Y-29505000D01*
X49997500Y-28255000D02*
X42597500Y-28255000D01*
X54397500Y-31537500D02*
X53280000Y-31537500D01*
X39701244Y-33151256D02*
X41347500Y-31505000D01*
X39688024Y-33151256D02*
X39701244Y-33151256D01*
X41347500Y-29505000D02*
X41347500Y-31505000D01*
X53280000Y-31537500D02*
X49997500Y-28255000D01*
G04 #@! TO.N,Board_0-IN2P*
X48962500Y-29255000D02*
X50797500Y-31090000D01*
X40041578Y-33504809D02*
X41997500Y-31548887D01*
X41997500Y-30655000D02*
X43397500Y-29255000D01*
X43397500Y-29255000D02*
X48962500Y-29255000D01*
X50797500Y-31090000D02*
X50797500Y-31490000D01*
X41997500Y-31548887D02*
X41997500Y-30655000D01*
G04 #@! TO.N,Board_0-MICBIAS*
X55597500Y-29442500D02*
X55597500Y-32655000D01*
X55597500Y-32655000D02*
X55197500Y-33055000D01*
X43097500Y-33055000D02*
X41947500Y-34205000D01*
X41462707Y-34205000D02*
X41102238Y-34565469D01*
X55197500Y-33055000D02*
X43097500Y-33055000D01*
X51750000Y-26340000D02*
X52495000Y-26340000D01*
X41947500Y-34205000D02*
X41462707Y-34205000D01*
X52495000Y-26340000D02*
X55597500Y-29442500D01*
G04 #@! TO.N,Board_0-Net-(5V108-Pad2)*
X21797500Y-45355000D02*
X19975000Y-45355000D01*
X19975000Y-45355000D02*
X18735000Y-44115000D01*
G04 #@! TO.N,Board_0-Net-(ADD110-Pad1)*
X49507500Y-36955000D02*
X49507500Y-35745000D01*
X49507500Y-35745000D02*
X49597500Y-35655000D01*
G04 #@! TO.N,Board_0-Net-(ADD111-Pad1)*
X50487501Y-36955000D02*
X50487501Y-36364999D01*
X50487501Y-36364999D02*
X51197500Y-35655000D01*
G04 #@! TO.N,Board_0-Net-(ADD112-Pad1)*
X47997500Y-36265000D02*
X47997500Y-35655000D01*
X47307500Y-36955000D02*
X47997500Y-36265000D01*
G04 #@! TO.N,Board_0-Net-(D116-A)*
X50287500Y-41465000D02*
X49597500Y-42155000D01*
X51597500Y-41465000D02*
X50287500Y-41465000D01*
G04 #@! TO.N,Board_0-Net-(E108-Pad2)*
X26899000Y-23251000D02*
X26350000Y-23800000D01*
X29097500Y-23251000D02*
X26899000Y-23251000D01*
G04 #@! TO.N,Board_0-Net-(E109-Pad2)*
X53741000Y-23251000D02*
X54290000Y-23800000D01*
X51497500Y-23251000D02*
X53741000Y-23251000D01*
G04 #@! TO.N,Board_0-Net-(G117-Pad1)*
X28796500Y-46660000D02*
X28897500Y-46559000D01*
X26350000Y-46660000D02*
X28796500Y-46660000D01*
G04 #@! TO.N,Board_0-Net-(G118-Pad1)*
X54290000Y-46660000D02*
X53695000Y-47255000D01*
X53695000Y-47255000D02*
X51597500Y-47255000D01*
G04 #@! TO.N,Board_0-Net-(PU_EN108-Pad1)*
X40158124Y-41815624D02*
X40158124Y-42223996D01*
X40158124Y-41694376D02*
X40158124Y-41815624D01*
X40236876Y-40294376D02*
X40236876Y-42145244D01*
X40236876Y-42145244D02*
X40101537Y-42280583D01*
X40158124Y-42223996D02*
X40101537Y-42280583D01*
G04 #@! TO.N,Board_0-Net-(TAC5212-ADDR)*
X41800577Y-34919023D02*
X42364600Y-34355000D01*
X51197500Y-34355000D02*
X46397500Y-34355000D01*
X41455791Y-34919023D02*
X41800577Y-34919023D01*
X42364600Y-34355000D02*
X46397500Y-34355000D01*
G04 #@! TO.N,Board_0-Net-(TAC5212-BCLK)*
X35016075Y-37246960D02*
X35405540Y-37246960D01*
X37230828Y-36315559D02*
X36491387Y-37055000D01*
X35405540Y-37246960D02*
X35597500Y-37055000D01*
X36491387Y-37055000D02*
X35597500Y-37055000D01*
G04 #@! TO.N,Board_0-Net-(TAC5212-DIN)*
X38291488Y-37376219D02*
X37535911Y-38131796D01*
X37535911Y-38757633D02*
X37031329Y-39262215D01*
X37535911Y-38131796D02*
X37535911Y-38757633D01*
G04 #@! TO.N,Board_0-Net-(TAC5212-DOUT)*
X37927376Y-37022665D02*
X36359578Y-38590463D01*
X37937935Y-37022665D02*
X37927376Y-37022665D01*
G04 #@! TO.N,Board_0-Net-(TAC5212-DREG)*
X36877275Y-35962005D02*
X36122728Y-35962005D01*
X32826547Y-38488623D02*
X31531123Y-38488623D01*
X36122728Y-35962005D02*
X35769144Y-36315589D01*
X35769144Y-36315589D02*
X34136911Y-36315589D01*
X34136911Y-36315589D02*
X34136911Y-37178259D01*
X34136911Y-37178259D02*
X32826547Y-38488623D01*
G04 #@! TO.N,Board_0-Net-(TAC5212-FSYNC)*
X36150538Y-37456000D02*
X35687826Y-37918712D01*
X37584382Y-36669112D02*
X36797494Y-37456000D01*
X36797494Y-37456000D02*
X36150538Y-37456000D01*
X35687826Y-37918712D02*
X35687826Y-37811121D01*
G04 #@! TO.N,Board_0-Net-(TAC5212-GPI1)*
X43704505Y-35962005D02*
X44175004Y-36432504D01*
X41455791Y-35962005D02*
X43704505Y-35962005D01*
G04 #@! TO.N,Board_0-Net-(TAC5212-GPIO1)*
X40395131Y-37022665D02*
X41775004Y-38402538D01*
X41775004Y-38402538D02*
X41775004Y-38832504D01*
G04 #@! TO.N,Board_0-Net-(TAC5212-GPIO2)*
X40748684Y-36669112D02*
X42112076Y-38032504D01*
X42112076Y-38032504D02*
X42575004Y-38032504D01*
G04 #@! TO.N,Board_0-Net-(TAC5212-GPO1)*
X42747500Y-36605000D02*
X43375004Y-37232504D01*
X41391679Y-36605000D02*
X42747500Y-36605000D01*
X41102238Y-36315559D02*
X41391679Y-36605000D01*
G04 #@! TO.N,Board_0-Net-(TAC5212-VREF)*
X35836490Y-34568864D02*
X36186649Y-34919023D01*
X34452786Y-34568864D02*
X34176530Y-34845120D01*
X36186649Y-34919023D02*
X36877275Y-34919023D01*
X34176530Y-34845120D02*
X33207380Y-34845120D01*
X35836490Y-34568864D02*
X34452786Y-34568864D01*
G04 #@! TO.N,Board_0-Net-(U108-Y)*
X24260000Y-37490000D02*
X25095000Y-36655000D01*
X24260000Y-38205000D02*
X24260000Y-37490000D01*
G04 #@! TO.N,Board_0-OUT1M*
X37176749Y-31682963D02*
X38645042Y-33151256D01*
X33465267Y-28155000D02*
X23497500Y-28155000D01*
X23497500Y-28155000D02*
X21097500Y-30555001D01*
X36993230Y-31682963D02*
X33465267Y-28155000D01*
X36993230Y-31682963D02*
X37176749Y-31682963D01*
G04 #@! TO.N,Board_0-OUT1P*
X25497500Y-31536250D02*
X27678750Y-29355000D01*
X38291488Y-33498988D02*
X38291488Y-33504809D01*
X36588922Y-32046422D02*
X36789589Y-32046422D01*
X36827130Y-32083963D02*
X36876463Y-32083963D01*
X36789589Y-32046422D02*
X36827130Y-32083963D01*
X36876463Y-32083963D02*
X38291488Y-33498988D01*
X27678750Y-29355000D02*
X33897500Y-29355000D01*
X33897500Y-29355000D02*
X36588922Y-32046422D01*
G04 #@! TO.N,Board_0-OUT2M*
X33597500Y-31255000D02*
X34197500Y-31255000D01*
X34197500Y-31255000D02*
X35398500Y-32456000D01*
X35398500Y-32456000D02*
X35828466Y-32456000D01*
X35828466Y-32456000D02*
X37584382Y-34211916D01*
G04 #@! TO.N,Board_0-OUT2P*
X35797500Y-32055000D02*
X36030400Y-32055000D01*
X37937935Y-33845435D02*
X37937935Y-33858363D01*
X30622500Y-30555000D02*
X34297500Y-30555000D01*
X36422822Y-32447422D02*
X36539922Y-32447422D01*
X29697500Y-31480000D02*
X30622500Y-30555000D01*
X36539922Y-32447422D02*
X37937935Y-33845435D01*
X34297500Y-30555000D02*
X35797500Y-32055000D01*
X36030400Y-32055000D02*
X36422822Y-32447422D01*
G04 #@! TD*
G04 #@! TA.AperFunction,Conductor*
G04 #@! TO.N,Board_0-Earth*
G36*
X33335762Y-28525185D02*
G01*
X33356404Y-28541819D01*
X33607404Y-28792819D01*
X33640889Y-28854142D01*
X33635905Y-28923834D01*
X33594033Y-28979767D01*
X33528569Y-29004184D01*
X33519723Y-29004500D01*
X27632606Y-29004500D01*
X27543462Y-29028386D01*
X27543461Y-29028386D01*
X27543459Y-29028387D01*
X27543456Y-29028388D01*
X27463544Y-29074526D01*
X27463535Y-29074533D01*
X25519887Y-31018181D01*
X25458564Y-31051666D01*
X25432206Y-31054500D01*
X25122823Y-31054500D01*
X25049764Y-31069032D01*
X25049760Y-31069033D01*
X24966899Y-31124399D01*
X24911533Y-31207260D01*
X24911532Y-31207264D01*
X24897000Y-31280321D01*
X24897000Y-31829678D01*
X24911532Y-31902735D01*
X24911533Y-31902739D01*
X24921730Y-31918000D01*
X24966899Y-31985601D01*
X25045321Y-32038000D01*
X25049760Y-32040966D01*
X25049764Y-32040967D01*
X25122821Y-32055499D01*
X25122824Y-32055500D01*
X25122826Y-32055500D01*
X25672176Y-32055500D01*
X25672177Y-32055499D01*
X25745240Y-32040966D01*
X25828101Y-31985601D01*
X25883466Y-31902740D01*
X25898000Y-31829674D01*
X25898000Y-31682793D01*
X25917685Y-31615754D01*
X25934319Y-31595112D01*
X27787612Y-29741819D01*
X27848935Y-29708334D01*
X27875293Y-29705500D01*
X33700956Y-29705500D01*
X33767995Y-29725185D01*
X33788637Y-29741819D01*
X34039637Y-29992819D01*
X34073122Y-30054142D01*
X34068138Y-30123834D01*
X34026266Y-30179767D01*
X33960802Y-30204184D01*
X33951956Y-30204500D01*
X30576356Y-30204500D01*
X30566056Y-30207260D01*
X30541417Y-30213862D01*
X30487210Y-30228386D01*
X30487209Y-30228387D01*
X30407291Y-30274527D01*
X30407286Y-30274531D01*
X29738637Y-30943181D01*
X29677314Y-30976666D01*
X29650956Y-30979500D01*
X29422823Y-30979500D01*
X29349764Y-30994032D01*
X29349760Y-30994033D01*
X29266899Y-31049399D01*
X29211533Y-31132260D01*
X29211532Y-31132264D01*
X29197000Y-31205321D01*
X29197000Y-31754678D01*
X29211532Y-31827735D01*
X29211533Y-31827739D01*
X29229905Y-31855235D01*
X29266899Y-31910601D01*
X29337250Y-31957607D01*
X29349760Y-31965966D01*
X29349764Y-31965967D01*
X29422821Y-31980499D01*
X29422824Y-31980500D01*
X29422826Y-31980500D01*
X29972176Y-31980500D01*
X29972177Y-31980499D01*
X30045240Y-31965966D01*
X30128101Y-31910601D01*
X30183466Y-31827740D01*
X30198000Y-31754674D01*
X30198000Y-31526544D01*
X30217685Y-31459505D01*
X30234319Y-31438863D01*
X30731363Y-30941819D01*
X30792686Y-30908334D01*
X30819044Y-30905500D01*
X32973000Y-30905500D01*
X33040039Y-30925185D01*
X33085794Y-30977989D01*
X33097000Y-31029500D01*
X33097000Y-31529678D01*
X33111532Y-31602735D01*
X33111533Y-31602739D01*
X33125115Y-31623066D01*
X33166899Y-31685601D01*
X33249760Y-31740966D01*
X33249764Y-31740967D01*
X33322821Y-31755499D01*
X33322824Y-31755500D01*
X33800191Y-31755500D01*
X33867230Y-31775185D01*
X33887872Y-31791819D01*
X34347184Y-32251131D01*
X34380669Y-32312454D01*
X34375685Y-32382146D01*
X34347184Y-32426493D01*
X34168993Y-32604685D01*
X34107670Y-32638170D01*
X34037979Y-32633186D01*
X33993631Y-32604685D01*
X33530623Y-32141677D01*
X33517001Y-32157626D01*
X33439100Y-32299326D01*
X33439100Y-32299328D01*
X33410342Y-32411337D01*
X33374604Y-32471375D01*
X33312080Y-32502561D01*
X33290237Y-32504500D01*
X32650718Y-32504500D01*
X32583679Y-32484815D01*
X32563037Y-32468181D01*
X32353954Y-32259099D01*
X32353948Y-32259094D01*
X32353944Y-32259090D01*
X32307269Y-32221475D01*
X32176351Y-32161687D01*
X32176353Y-32161687D01*
X32033896Y-32141206D01*
X31891439Y-32161687D01*
X31760523Y-32221475D01*
X31760518Y-32221478D01*
X31713842Y-32259091D01*
X31713834Y-32259098D01*
X31168849Y-32804086D01*
X31168843Y-32804093D01*
X31131221Y-32850778D01*
X31131220Y-32850780D01*
X31071433Y-32981693D01*
X31050952Y-33124150D01*
X31071433Y-33266606D01*
X31080213Y-33285831D01*
X31090156Y-33354990D01*
X31061130Y-33418545D01*
X31002351Y-33456319D01*
X30932481Y-33456318D01*
X30911767Y-33448151D01*
X30824914Y-33404532D01*
X30654310Y-33364098D01*
X30478990Y-33364098D01*
X30308385Y-33404532D01*
X30151709Y-33483217D01*
X30071666Y-33548422D01*
X30071657Y-33548430D01*
X29974447Y-33645640D01*
X30840654Y-34511846D01*
X31736207Y-35407399D01*
X31769692Y-35468722D01*
X31771591Y-35486393D01*
X31074240Y-35490235D01*
X31058581Y-35461557D01*
X31055747Y-35435201D01*
X31055746Y-35434046D01*
X30487100Y-34865400D01*
X29620895Y-33999194D01*
X29523682Y-34096408D01*
X29523672Y-34096419D01*
X29458476Y-34176450D01*
X29458467Y-34176463D01*
X29379784Y-34333134D01*
X29354965Y-34437853D01*
X29320351Y-34498546D01*
X29258418Y-34530890D01*
X29188830Y-34524615D01*
X29144506Y-34494764D01*
X28960528Y-34301547D01*
X27297500Y-32555000D01*
X21235044Y-32555000D01*
X21168005Y-32535315D01*
X21166261Y-32534174D01*
X21118842Y-32502561D01*
X21104229Y-32492819D01*
X21067272Y-32468181D01*
X20952397Y-32391598D01*
X20907536Y-32338033D01*
X20897181Y-32289023D01*
X20897084Y-32268848D01*
X20891732Y-31161222D01*
X20911093Y-31094092D01*
X20963675Y-31048083D01*
X21032785Y-31037805D01*
X21039922Y-31039010D01*
X21122821Y-31055499D01*
X21122824Y-31055500D01*
X21122826Y-31055500D01*
X21672176Y-31055500D01*
X21672177Y-31055499D01*
X21745240Y-31040966D01*
X21828101Y-30985601D01*
X21883466Y-30902740D01*
X21898000Y-30829674D01*
X21898000Y-30301543D01*
X21917685Y-30234504D01*
X21934319Y-30213862D01*
X23606363Y-28541819D01*
X23667686Y-28508334D01*
X23694044Y-28505500D01*
X33268723Y-28505500D01*
X33335762Y-28525185D01*
G37*
G04 #@! TD.AperFunction*
G04 #@! TA.AperFunction,Conductor*
G36*
X25362297Y-22024685D02*
G01*
X25408052Y-22077489D01*
X25417996Y-22146647D01*
X25388971Y-22210203D01*
X25357261Y-22236384D01*
X25319711Y-22258064D01*
X25319706Y-22258067D01*
X25127263Y-22405733D01*
X25127256Y-22405739D01*
X24955739Y-22577256D01*
X24955733Y-22577263D01*
X24808067Y-22769706D01*
X24686777Y-22979785D01*
X24686773Y-22979794D01*
X24593947Y-23203895D01*
X24531161Y-23438214D01*
X24499500Y-23678711D01*
X24499500Y-23921288D01*
X24531161Y-24161785D01*
X24593947Y-24396104D01*
X24686773Y-24620205D01*
X24686777Y-24620214D01*
X24708974Y-24658661D01*
X24808064Y-24830289D01*
X24808066Y-24830292D01*
X24808067Y-24830293D01*
X24955733Y-25022736D01*
X24955739Y-25022743D01*
X25127256Y-25194260D01*
X25127263Y-25194266D01*
X25191894Y-25243859D01*
X25319711Y-25341936D01*
X25529788Y-25463224D01*
X25753900Y-25556054D01*
X25988211Y-25618838D01*
X26168586Y-25642584D01*
X26228711Y-25650500D01*
X26228712Y-25650500D01*
X26471289Y-25650500D01*
X26519388Y-25644167D01*
X26711789Y-25618838D01*
X26946100Y-25556054D01*
X27170212Y-25463224D01*
X27380289Y-25341936D01*
X27572738Y-25194265D01*
X27744265Y-25022738D01*
X27891936Y-24830289D01*
X28013224Y-24620212D01*
X28104939Y-24398792D01*
X28148780Y-24344389D01*
X28215074Y-24322324D01*
X28282773Y-24339603D01*
X28330384Y-24390740D01*
X28343500Y-24446245D01*
X28343500Y-24556844D01*
X28349901Y-24616372D01*
X28349903Y-24616379D01*
X28400145Y-24751086D01*
X28400149Y-24751093D01*
X28486309Y-24866187D01*
X28486312Y-24866190D01*
X28601406Y-24952350D01*
X28601413Y-24952354D01*
X28736120Y-25002596D01*
X28736127Y-25002598D01*
X28795655Y-25008999D01*
X28795672Y-25009000D01*
X28847500Y-25009000D01*
X28847500Y-24383000D01*
X28867185Y-24315961D01*
X28919989Y-24270206D01*
X28971500Y-24259000D01*
X29223500Y-24259000D01*
X29290539Y-24278685D01*
X29336294Y-24331489D01*
X29347500Y-24383000D01*
X29347500Y-25009000D01*
X29399328Y-25009000D01*
X29399344Y-25008999D01*
X29458872Y-25002598D01*
X29458879Y-25002596D01*
X29593586Y-24952354D01*
X29593593Y-24952350D01*
X29708687Y-24866190D01*
X29708690Y-24866187D01*
X29794850Y-24751093D01*
X29794854Y-24751086D01*
X29845096Y-24616379D01*
X29845098Y-24616372D01*
X29847711Y-24592075D01*
X29874449Y-24527524D01*
X29931842Y-24487676D01*
X30001667Y-24485183D01*
X30061756Y-24520836D01*
X30093030Y-24583316D01*
X30095000Y-24605331D01*
X30095000Y-24697844D01*
X30101401Y-24757372D01*
X30101403Y-24757379D01*
X30151645Y-24892086D01*
X30151649Y-24892093D01*
X30237809Y-25007187D01*
X30237812Y-25007190D01*
X30352906Y-25093350D01*
X30352912Y-25093353D01*
X30374268Y-25101319D01*
X30430201Y-25143191D01*
X30454618Y-25208656D01*
X30439766Y-25276928D01*
X30418619Y-25305179D01*
X30414400Y-25309397D01*
X30359033Y-25392260D01*
X30359032Y-25392264D01*
X30344500Y-25465321D01*
X30344500Y-27214678D01*
X30359032Y-27287735D01*
X30359033Y-27287739D01*
X30359034Y-27287740D01*
X30414399Y-27370601D01*
X30497260Y-27425966D01*
X30497264Y-27425967D01*
X30570321Y-27440499D01*
X30570324Y-27440500D01*
X30570326Y-27440500D01*
X32319676Y-27440500D01*
X32319677Y-27440499D01*
X32392740Y-27425966D01*
X32475601Y-27370601D01*
X32530966Y-27287740D01*
X32545500Y-27214674D01*
X32545500Y-25465326D01*
X32545500Y-25465323D01*
X32545499Y-25465321D01*
X32530967Y-25392264D01*
X32530966Y-25392260D01*
X32497338Y-25341932D01*
X32475601Y-25309399D01*
X32475599Y-25309397D01*
X32475598Y-25309396D01*
X32471384Y-25305182D01*
X32437899Y-25243859D01*
X32442883Y-25174167D01*
X32484755Y-25118234D01*
X32515732Y-25101319D01*
X32537086Y-25093354D01*
X32537093Y-25093350D01*
X32652187Y-25007190D01*
X32652190Y-25007187D01*
X32738350Y-24892093D01*
X32738354Y-24892086D01*
X32787614Y-24760013D01*
X32829485Y-24704079D01*
X32894949Y-24679662D01*
X32963222Y-24694513D01*
X32991477Y-24715665D01*
X33105535Y-24829723D01*
X33105540Y-24829727D01*
X33277442Y-24954620D01*
X33466784Y-25051096D01*
X33565711Y-25083239D01*
X33623387Y-25122676D01*
X33650586Y-25187034D01*
X33638672Y-25255881D01*
X33591428Y-25307357D01*
X33565722Y-25319097D01*
X33564522Y-25319487D01*
X33562550Y-25320128D01*
X33408211Y-25398768D01*
X33328256Y-25456859D01*
X33268072Y-25500586D01*
X33268070Y-25500588D01*
X33268069Y-25500588D01*
X33145588Y-25623069D01*
X33145588Y-25623070D01*
X33145586Y-25623072D01*
X33101859Y-25683256D01*
X33043768Y-25763211D01*
X32965128Y-25917552D01*
X32911597Y-26082302D01*
X32890069Y-26218225D01*
X32884500Y-26253389D01*
X32884500Y-26426611D01*
X32911598Y-26597701D01*
X32965127Y-26762445D01*
X33043768Y-26916788D01*
X33145586Y-27056928D01*
X33268072Y-27179414D01*
X33408212Y-27281232D01*
X33562555Y-27359873D01*
X33727299Y-27413402D01*
X33898389Y-27440500D01*
X33898390Y-27440500D01*
X34071610Y-27440500D01*
X34071611Y-27440500D01*
X34242701Y-27413402D01*
X34407445Y-27359873D01*
X34561788Y-27281232D01*
X34701928Y-27179414D01*
X34824414Y-27056928D01*
X34926232Y-26916788D01*
X35004873Y-26762445D01*
X35058402Y-26597701D01*
X35085500Y-26426611D01*
X35085500Y-26253389D01*
X35058402Y-26082299D01*
X35004873Y-25917555D01*
X34926232Y-25763212D01*
X34824414Y-25623072D01*
X34701928Y-25500586D01*
X34561788Y-25398768D01*
X34549015Y-25392260D01*
X34407446Y-25320127D01*
X34404284Y-25319100D01*
X34403236Y-25318383D01*
X34402952Y-25318266D01*
X34402976Y-25318206D01*
X34346609Y-25279661D01*
X34319413Y-25215302D01*
X34331329Y-25146456D01*
X34378574Y-25094981D01*
X34404288Y-25083239D01*
X34503215Y-25051096D01*
X34692557Y-24954620D01*
X34864459Y-24829727D01*
X34864464Y-24829723D01*
X35014723Y-24679464D01*
X35014727Y-24679459D01*
X35139620Y-24507558D01*
X35144514Y-24497954D01*
X35192488Y-24447157D01*
X35260308Y-24430361D01*
X35326444Y-24452897D01*
X35365486Y-24497954D01*
X35370379Y-24507558D01*
X35495272Y-24679459D01*
X35495276Y-24679464D01*
X35645535Y-24829723D01*
X35645540Y-24829727D01*
X35817442Y-24954620D01*
X36006784Y-25051096D01*
X36105711Y-25083239D01*
X36163387Y-25122676D01*
X36190586Y-25187034D01*
X36178672Y-25255881D01*
X36131428Y-25307357D01*
X36105722Y-25319097D01*
X36104522Y-25319487D01*
X36102550Y-25320128D01*
X35948211Y-25398768D01*
X35868256Y-25456859D01*
X35808072Y-25500586D01*
X35808070Y-25500588D01*
X35808069Y-25500588D01*
X35685588Y-25623069D01*
X35685588Y-25623070D01*
X35685586Y-25623072D01*
X35641859Y-25683256D01*
X35583768Y-25763211D01*
X35505128Y-25917552D01*
X35451597Y-26082302D01*
X35430069Y-26218225D01*
X35424500Y-26253389D01*
X35424500Y-26426611D01*
X35451598Y-26597701D01*
X35505127Y-26762445D01*
X35583768Y-26916788D01*
X35685586Y-27056928D01*
X35808072Y-27179414D01*
X35948212Y-27281232D01*
X36102555Y-27359873D01*
X36267299Y-27413402D01*
X36438389Y-27440500D01*
X36438390Y-27440500D01*
X36611610Y-27440500D01*
X36611611Y-27440500D01*
X36782701Y-27413402D01*
X36947445Y-27359873D01*
X37101788Y-27281232D01*
X37241928Y-27179414D01*
X37364414Y-27056928D01*
X37466232Y-26916788D01*
X37544873Y-26762445D01*
X37598402Y-26597701D01*
X37625500Y-26426611D01*
X37625500Y-26253389D01*
X37598402Y-26082299D01*
X37544873Y-25917555D01*
X37466232Y-25763212D01*
X37364414Y-25623072D01*
X37241928Y-25500586D01*
X37101788Y-25398768D01*
X37089015Y-25392260D01*
X36947446Y-25320127D01*
X36944284Y-25319100D01*
X36943236Y-25318383D01*
X36942952Y-25318266D01*
X36942976Y-25318206D01*
X36886609Y-25279661D01*
X36859413Y-25215302D01*
X36871329Y-25146456D01*
X36918574Y-25094981D01*
X36944288Y-25083239D01*
X37043215Y-25051096D01*
X37232557Y-24954620D01*
X37404459Y-24829727D01*
X37404464Y-24829723D01*
X37554723Y-24679464D01*
X37554727Y-24679459D01*
X37679620Y-24507558D01*
X37684514Y-24497954D01*
X37732488Y-24447157D01*
X37800308Y-24430361D01*
X37866444Y-24452897D01*
X37905486Y-24497954D01*
X37910379Y-24507558D01*
X38035272Y-24679459D01*
X38035276Y-24679464D01*
X38185535Y-24829723D01*
X38185540Y-24829727D01*
X38357442Y-24954620D01*
X38546784Y-25051096D01*
X38645711Y-25083239D01*
X38703387Y-25122676D01*
X38730586Y-25187034D01*
X38718672Y-25255881D01*
X38671428Y-25307357D01*
X38645722Y-25319097D01*
X38644522Y-25319487D01*
X38642550Y-25320128D01*
X38488211Y-25398768D01*
X38408256Y-25456859D01*
X38348072Y-25500586D01*
X38348070Y-25500588D01*
X38348069Y-25500588D01*
X38225588Y-25623069D01*
X38225588Y-25623070D01*
X38225586Y-25623072D01*
X38181859Y-25683256D01*
X38123768Y-25763211D01*
X38045128Y-25917552D01*
X37991597Y-26082302D01*
X37970069Y-26218225D01*
X37964500Y-26253389D01*
X37964500Y-26426611D01*
X37991598Y-26597701D01*
X38045127Y-26762445D01*
X38123768Y-26916788D01*
X38225586Y-27056928D01*
X38348072Y-27179414D01*
X38488212Y-27281232D01*
X38642555Y-27359873D01*
X38807299Y-27413402D01*
X38978389Y-27440500D01*
X38978390Y-27440500D01*
X39151610Y-27440500D01*
X39151611Y-27440500D01*
X39322701Y-27413402D01*
X39487445Y-27359873D01*
X39641788Y-27281232D01*
X39781928Y-27179414D01*
X39904414Y-27056928D01*
X40006232Y-26916788D01*
X40084873Y-26762445D01*
X40138402Y-26597701D01*
X40165500Y-26426611D01*
X40165500Y-26253389D01*
X40138402Y-26082299D01*
X40084873Y-25917555D01*
X40006232Y-25763212D01*
X39904414Y-25623072D01*
X39781928Y-25500586D01*
X39641788Y-25398768D01*
X39629015Y-25392260D01*
X39487446Y-25320127D01*
X39484284Y-25319100D01*
X39483236Y-25318383D01*
X39482952Y-25318266D01*
X39482976Y-25318206D01*
X39426609Y-25279661D01*
X39399413Y-25215302D01*
X39411329Y-25146456D01*
X39458574Y-25094981D01*
X39484288Y-25083239D01*
X39583215Y-25051096D01*
X39772557Y-24954620D01*
X39944459Y-24829727D01*
X39944464Y-24829723D01*
X40094723Y-24679464D01*
X40094727Y-24679459D01*
X40219620Y-24507558D01*
X40224514Y-24497954D01*
X40272488Y-24447157D01*
X40340308Y-24430361D01*
X40406444Y-24452897D01*
X40445486Y-24497954D01*
X40450379Y-24507558D01*
X40575272Y-24679459D01*
X40575276Y-24679464D01*
X40725535Y-24829723D01*
X40725540Y-24829727D01*
X40897442Y-24954620D01*
X41086784Y-25051096D01*
X41185711Y-25083239D01*
X41243387Y-25122676D01*
X41270586Y-25187034D01*
X41258672Y-25255881D01*
X41211428Y-25307357D01*
X41185722Y-25319097D01*
X41184522Y-25319487D01*
X41182550Y-25320128D01*
X41028211Y-25398768D01*
X40948256Y-25456859D01*
X40888072Y-25500586D01*
X40888070Y-25500588D01*
X40888069Y-25500588D01*
X40765588Y-25623069D01*
X40765588Y-25623070D01*
X40765586Y-25623072D01*
X40721859Y-25683256D01*
X40663768Y-25763211D01*
X40585128Y-25917552D01*
X40531597Y-26082302D01*
X40510069Y-26218225D01*
X40504500Y-26253389D01*
X40504500Y-26426611D01*
X40531598Y-26597701D01*
X40585127Y-26762445D01*
X40663768Y-26916788D01*
X40765586Y-27056928D01*
X40888072Y-27179414D01*
X41028212Y-27281232D01*
X41182555Y-27359873D01*
X41347299Y-27413402D01*
X41518389Y-27440500D01*
X41518390Y-27440500D01*
X41691610Y-27440500D01*
X41691611Y-27440500D01*
X41862701Y-27413402D01*
X42027445Y-27359873D01*
X42181788Y-27281232D01*
X42321928Y-27179414D01*
X42444414Y-27056928D01*
X42546232Y-26916788D01*
X42624873Y-26762445D01*
X42678402Y-26597701D01*
X42705500Y-26426611D01*
X42705500Y-26253389D01*
X42678402Y-26082299D01*
X42624873Y-25917555D01*
X42546232Y-25763212D01*
X42444414Y-25623072D01*
X42321928Y-25500586D01*
X42181788Y-25398768D01*
X42169015Y-25392260D01*
X42027446Y-25320127D01*
X42024284Y-25319100D01*
X42023236Y-25318383D01*
X42022952Y-25318266D01*
X42022976Y-25318206D01*
X41966609Y-25279661D01*
X41939413Y-25215302D01*
X41951329Y-25146456D01*
X41998574Y-25094981D01*
X42024288Y-25083239D01*
X42123215Y-25051096D01*
X42312557Y-24954620D01*
X42484459Y-24829727D01*
X42484464Y-24829723D01*
X42634723Y-24679464D01*
X42634727Y-24679459D01*
X42759620Y-24507558D01*
X42764514Y-24497954D01*
X42812488Y-24447157D01*
X42880308Y-24430361D01*
X42946444Y-24452897D01*
X42985486Y-24497954D01*
X42990379Y-24507558D01*
X43115272Y-24679459D01*
X43115276Y-24679464D01*
X43265535Y-24829723D01*
X43265540Y-24829727D01*
X43437442Y-24954620D01*
X43626784Y-25051096D01*
X43725711Y-25083239D01*
X43783387Y-25122676D01*
X43810586Y-25187034D01*
X43798672Y-25255881D01*
X43751428Y-25307357D01*
X43725722Y-25319097D01*
X43724522Y-25319487D01*
X43722550Y-25320128D01*
X43568211Y-25398768D01*
X43488256Y-25456859D01*
X43428072Y-25500586D01*
X43428070Y-25500588D01*
X43428069Y-25500588D01*
X43305588Y-25623069D01*
X43305588Y-25623070D01*
X43305586Y-25623072D01*
X43261859Y-25683256D01*
X43203768Y-25763211D01*
X43125128Y-25917552D01*
X43071597Y-26082302D01*
X43050069Y-26218225D01*
X43044500Y-26253389D01*
X43044500Y-26426611D01*
X43071598Y-26597701D01*
X43125127Y-26762445D01*
X43203768Y-26916788D01*
X43305586Y-27056928D01*
X43428072Y-27179414D01*
X43568212Y-27281232D01*
X43722555Y-27359873D01*
X43887299Y-27413402D01*
X44058389Y-27440500D01*
X44058390Y-27440500D01*
X44231610Y-27440500D01*
X44231611Y-27440500D01*
X44402701Y-27413402D01*
X44567445Y-27359873D01*
X44721788Y-27281232D01*
X44861928Y-27179414D01*
X44984414Y-27056928D01*
X45086232Y-26916788D01*
X45164873Y-26762445D01*
X45218402Y-26597701D01*
X45245500Y-26426611D01*
X45245500Y-26253389D01*
X45218402Y-26082299D01*
X45164873Y-25917555D01*
X45086232Y-25763212D01*
X44984414Y-25623072D01*
X44861928Y-25500586D01*
X44721788Y-25398768D01*
X44709015Y-25392260D01*
X44567446Y-25320127D01*
X44564284Y-25319100D01*
X44563236Y-25318383D01*
X44562952Y-25318266D01*
X44562976Y-25318206D01*
X44506609Y-25279661D01*
X44479413Y-25215302D01*
X44491329Y-25146456D01*
X44538574Y-25094981D01*
X44564288Y-25083239D01*
X44663215Y-25051096D01*
X44852557Y-24954620D01*
X45024459Y-24829727D01*
X45024464Y-24829723D01*
X45174723Y-24679464D01*
X45174727Y-24679459D01*
X45299620Y-24507558D01*
X45304514Y-24497954D01*
X45352488Y-24447157D01*
X45420308Y-24430361D01*
X45486444Y-24452897D01*
X45525486Y-24497954D01*
X45530379Y-24507558D01*
X45655272Y-24679459D01*
X45655276Y-24679464D01*
X45805535Y-24829723D01*
X45805540Y-24829727D01*
X45977442Y-24954620D01*
X46166784Y-25051096D01*
X46265711Y-25083239D01*
X46323387Y-25122676D01*
X46350586Y-25187034D01*
X46338672Y-25255881D01*
X46291428Y-25307357D01*
X46265722Y-25319097D01*
X46264522Y-25319487D01*
X46262550Y-25320128D01*
X46108211Y-25398768D01*
X46028256Y-25456859D01*
X45968072Y-25500586D01*
X45968070Y-25500588D01*
X45968069Y-25500588D01*
X45845588Y-25623069D01*
X45845588Y-25623070D01*
X45845586Y-25623072D01*
X45801859Y-25683256D01*
X45743768Y-25763211D01*
X45665128Y-25917552D01*
X45611597Y-26082302D01*
X45590069Y-26218225D01*
X45584500Y-26253389D01*
X45584500Y-26426611D01*
X45611598Y-26597701D01*
X45665127Y-26762445D01*
X45743768Y-26916788D01*
X45845586Y-27056928D01*
X45968072Y-27179414D01*
X46108212Y-27281232D01*
X46262555Y-27359873D01*
X46427299Y-27413402D01*
X46598389Y-27440500D01*
X46598390Y-27440500D01*
X46771610Y-27440500D01*
X46771611Y-27440500D01*
X46942701Y-27413402D01*
X47107445Y-27359873D01*
X47261788Y-27281232D01*
X47401928Y-27179414D01*
X47524414Y-27056928D01*
X47626232Y-26916788D01*
X47704873Y-26762445D01*
X47758402Y-26597701D01*
X47785500Y-26426611D01*
X47785500Y-26253389D01*
X47758402Y-26082299D01*
X47704873Y-25917555D01*
X47626232Y-25763212D01*
X47524414Y-25623072D01*
X47401928Y-25500586D01*
X47261788Y-25398768D01*
X47249015Y-25392260D01*
X47107446Y-25320127D01*
X47104284Y-25319100D01*
X47103236Y-25318383D01*
X47102952Y-25318266D01*
X47102976Y-25318206D01*
X47046609Y-25279661D01*
X47019413Y-25215302D01*
X47031329Y-25146456D01*
X47078574Y-25094981D01*
X47104288Y-25083239D01*
X47203215Y-25051096D01*
X47392557Y-24954620D01*
X47564459Y-24829727D01*
X47564464Y-24829723D01*
X47714723Y-24679464D01*
X47714727Y-24679459D01*
X47839620Y-24507558D01*
X47844514Y-24497954D01*
X47892488Y-24447157D01*
X47960308Y-24430361D01*
X48026444Y-24452897D01*
X48065486Y-24497954D01*
X48070379Y-24507558D01*
X48195272Y-24679459D01*
X48195276Y-24679464D01*
X48345535Y-24829723D01*
X48345540Y-24829727D01*
X48517442Y-24954620D01*
X48706784Y-25051096D01*
X48805711Y-25083239D01*
X48863387Y-25122676D01*
X48890586Y-25187034D01*
X48878672Y-25255881D01*
X48831428Y-25307357D01*
X48805722Y-25319097D01*
X48804522Y-25319487D01*
X48802550Y-25320128D01*
X48648211Y-25398768D01*
X48568256Y-25456859D01*
X48508072Y-25500586D01*
X48508070Y-25500588D01*
X48508069Y-25500588D01*
X48385588Y-25623069D01*
X48385588Y-25623070D01*
X48385586Y-25623072D01*
X48341859Y-25683256D01*
X48283768Y-25763211D01*
X48205128Y-25917552D01*
X48151597Y-26082302D01*
X48130069Y-26218225D01*
X48124500Y-26253389D01*
X48124500Y-26426611D01*
X48151598Y-26597701D01*
X48205127Y-26762445D01*
X48283768Y-26916788D01*
X48385586Y-27056928D01*
X48508072Y-27179414D01*
X48648212Y-27281232D01*
X48802555Y-27359873D01*
X48967299Y-27413402D01*
X49138389Y-27440500D01*
X49138390Y-27440500D01*
X49311610Y-27440500D01*
X49311611Y-27440500D01*
X49482701Y-27413402D01*
X49647445Y-27359873D01*
X49801788Y-27281232D01*
X49941928Y-27179414D01*
X50064414Y-27056928D01*
X50166232Y-26916788D01*
X50244873Y-26762445D01*
X50298402Y-26597701D01*
X50325500Y-26426611D01*
X50325500Y-26253389D01*
X50298402Y-26082299D01*
X50244873Y-25917555D01*
X50166232Y-25763212D01*
X50064414Y-25623072D01*
X49941928Y-25500586D01*
X49801788Y-25398768D01*
X49789015Y-25392260D01*
X49647446Y-25320127D01*
X49644284Y-25319100D01*
X49643236Y-25318383D01*
X49642952Y-25318266D01*
X49642976Y-25318206D01*
X49586609Y-25279661D01*
X49559413Y-25215302D01*
X49571329Y-25146456D01*
X49618574Y-25094981D01*
X49644288Y-25083239D01*
X49743215Y-25051096D01*
X49932557Y-24954620D01*
X50104459Y-24829727D01*
X50104464Y-24829723D01*
X50254723Y-24679464D01*
X50254727Y-24679459D01*
X50343812Y-24556844D01*
X50743500Y-24556844D01*
X50749901Y-24616372D01*
X50749903Y-24616379D01*
X50800145Y-24751086D01*
X50800149Y-24751093D01*
X50886309Y-24866187D01*
X50886312Y-24866190D01*
X51001406Y-24952350D01*
X51001413Y-24952354D01*
X51136120Y-25002596D01*
X51136127Y-25002598D01*
X51195655Y-25008999D01*
X51195672Y-25009000D01*
X51247500Y-25009000D01*
X51247500Y-24993709D01*
X51747500Y-24993709D01*
X51871696Y-24997816D01*
X51993586Y-24952354D01*
X51993593Y-24952350D01*
X52108687Y-24866190D01*
X52108690Y-24866187D01*
X52194850Y-24751093D01*
X52194854Y-24751086D01*
X52245096Y-24616379D01*
X52245098Y-24616372D01*
X52251499Y-24556844D01*
X52251500Y-24556827D01*
X52251500Y-24509000D01*
X51747500Y-24509000D01*
X51747500Y-24993709D01*
X51247500Y-24993709D01*
X51247500Y-24509000D01*
X50743500Y-24509000D01*
X50743500Y-24556844D01*
X50343812Y-24556844D01*
X50379622Y-24507555D01*
X50433742Y-24401342D01*
X50476095Y-24318217D01*
X50541659Y-24116431D01*
X50523128Y-24050000D01*
X49658012Y-24050000D01*
X49690925Y-23992993D01*
X49725000Y-23865826D01*
X49725000Y-23734174D01*
X49690925Y-23607007D01*
X49658012Y-23550000D01*
X50552231Y-23550000D01*
X50541757Y-23483873D01*
X50541757Y-23483870D01*
X50476095Y-23281782D01*
X50379620Y-23092442D01*
X50254727Y-22920540D01*
X50254723Y-22920535D01*
X50104464Y-22770276D01*
X50104459Y-22770272D01*
X49932557Y-22645379D01*
X49743215Y-22548903D01*
X49541124Y-22483241D01*
X49475000Y-22472768D01*
X49475000Y-23366988D01*
X49417993Y-23334075D01*
X49290826Y-23300000D01*
X49159174Y-23300000D01*
X49032007Y-23334075D01*
X48975000Y-23366988D01*
X48975000Y-22472768D01*
X48974999Y-22472768D01*
X48908875Y-22483241D01*
X48706784Y-22548903D01*
X48517442Y-22645379D01*
X48345540Y-22770272D01*
X48345535Y-22770276D01*
X48195276Y-22920535D01*
X48195272Y-22920540D01*
X48070377Y-23092444D01*
X48065484Y-23102048D01*
X48017509Y-23152844D01*
X47949688Y-23169638D01*
X47883553Y-23147100D01*
X47844516Y-23102048D01*
X47839622Y-23092444D01*
X47714727Y-22920540D01*
X47714723Y-22920535D01*
X47564464Y-22770276D01*
X47564459Y-22770272D01*
X47392557Y-22645379D01*
X47203215Y-22548903D01*
X47001124Y-22483241D01*
X46935000Y-22472768D01*
X46935000Y-23366988D01*
X46877993Y-23334075D01*
X46750826Y-23300000D01*
X46619174Y-23300000D01*
X46492007Y-23334075D01*
X46435000Y-23366988D01*
X46435000Y-22472768D01*
X46434999Y-22472768D01*
X46368875Y-22483241D01*
X46166784Y-22548903D01*
X45977442Y-22645379D01*
X45805540Y-22770272D01*
X45805535Y-22770276D01*
X45655276Y-22920535D01*
X45655272Y-22920540D01*
X45530377Y-23092444D01*
X45525484Y-23102048D01*
X45477509Y-23152844D01*
X45409688Y-23169638D01*
X45343553Y-23147100D01*
X45304516Y-23102048D01*
X45299622Y-23092444D01*
X45174727Y-22920540D01*
X45174723Y-22920535D01*
X45024464Y-22770276D01*
X45024459Y-22770272D01*
X44852557Y-22645379D01*
X44663215Y-22548903D01*
X44461124Y-22483241D01*
X44395000Y-22472768D01*
X44395000Y-23366988D01*
X44337993Y-23334075D01*
X44210826Y-23300000D01*
X44079174Y-23300000D01*
X43952007Y-23334075D01*
X43895000Y-23366988D01*
X43895000Y-22472768D01*
X43894999Y-22472768D01*
X43828875Y-22483241D01*
X43626784Y-22548903D01*
X43437442Y-22645379D01*
X43265540Y-22770272D01*
X43265535Y-22770276D01*
X43115276Y-22920535D01*
X43115272Y-22920540D01*
X42990377Y-23092444D01*
X42985484Y-23102048D01*
X42937509Y-23152844D01*
X42869688Y-23169638D01*
X42803553Y-23147100D01*
X42764516Y-23102048D01*
X42759622Y-23092444D01*
X42634727Y-22920540D01*
X42634723Y-22920535D01*
X42484464Y-22770276D01*
X42484459Y-22770272D01*
X42312557Y-22645379D01*
X42123215Y-22548903D01*
X41921124Y-22483241D01*
X41855000Y-22472768D01*
X41855000Y-23366988D01*
X41797993Y-23334075D01*
X41670826Y-23300000D01*
X41539174Y-23300000D01*
X41412007Y-23334075D01*
X41355000Y-23366988D01*
X41355000Y-22472768D01*
X41354999Y-22472768D01*
X41288875Y-22483241D01*
X41086784Y-22548903D01*
X40897442Y-22645379D01*
X40725540Y-22770272D01*
X40725535Y-22770276D01*
X40575276Y-22920535D01*
X40575272Y-22920540D01*
X40450377Y-23092444D01*
X40445484Y-23102048D01*
X40397509Y-23152844D01*
X40329688Y-23169638D01*
X40263553Y-23147100D01*
X40224516Y-23102048D01*
X40219622Y-23092444D01*
X40094727Y-22920540D01*
X40094723Y-22920535D01*
X39944464Y-22770276D01*
X39944459Y-22770272D01*
X39772557Y-22645379D01*
X39583215Y-22548903D01*
X39381124Y-22483241D01*
X39315000Y-22472768D01*
X39315000Y-23366988D01*
X39257993Y-23334075D01*
X39130826Y-23300000D01*
X38999174Y-23300000D01*
X38872007Y-23334075D01*
X38815000Y-23366988D01*
X38815000Y-22472768D01*
X38814999Y-22472768D01*
X38748875Y-22483241D01*
X38546784Y-22548903D01*
X38357442Y-22645379D01*
X38185540Y-22770272D01*
X38185535Y-22770276D01*
X38035276Y-22920535D01*
X38035272Y-22920540D01*
X37910377Y-23092444D01*
X37905484Y-23102048D01*
X37857509Y-23152844D01*
X37789688Y-23169638D01*
X37723553Y-23147100D01*
X37684516Y-23102048D01*
X37679622Y-23092444D01*
X37554727Y-22920540D01*
X37554723Y-22920535D01*
X37404464Y-22770276D01*
X37404459Y-22770272D01*
X37232557Y-22645379D01*
X37043215Y-22548903D01*
X36841124Y-22483241D01*
X36775000Y-22472768D01*
X36775000Y-23366988D01*
X36717993Y-23334075D01*
X36590826Y-23300000D01*
X36459174Y-23300000D01*
X36332007Y-23334075D01*
X36275000Y-23366988D01*
X36275000Y-22472768D01*
X36274999Y-22472768D01*
X36208875Y-22483241D01*
X36006784Y-22548903D01*
X35817442Y-22645379D01*
X35645540Y-22770272D01*
X35645535Y-22770276D01*
X35495276Y-22920535D01*
X35495272Y-22920540D01*
X35370377Y-23092444D01*
X35365484Y-23102048D01*
X35317509Y-23152844D01*
X35249688Y-23169638D01*
X35183553Y-23147100D01*
X35144516Y-23102048D01*
X35139622Y-23092444D01*
X35014727Y-22920540D01*
X35014723Y-22920535D01*
X34864464Y-22770276D01*
X34864459Y-22770272D01*
X34692557Y-22645379D01*
X34503215Y-22548903D01*
X34301124Y-22483241D01*
X34235000Y-22472768D01*
X34235000Y-23366988D01*
X34177993Y-23334075D01*
X34050826Y-23300000D01*
X33919174Y-23300000D01*
X33792007Y-23334075D01*
X33735000Y-23366988D01*
X33735000Y-22472768D01*
X33734999Y-22472768D01*
X33668875Y-22483241D01*
X33466784Y-22548903D01*
X33277442Y-22645379D01*
X33105541Y-22770271D01*
X32991477Y-22884335D01*
X32930154Y-22917819D01*
X32860462Y-22912835D01*
X32804529Y-22870963D01*
X32787614Y-22839986D01*
X32738354Y-22707913D01*
X32738350Y-22707906D01*
X32652190Y-22592812D01*
X32652187Y-22592809D01*
X32537093Y-22506649D01*
X32537086Y-22506645D01*
X32402379Y-22456403D01*
X32402372Y-22456401D01*
X32342844Y-22450000D01*
X31695000Y-22450000D01*
X31695000Y-23366988D01*
X31637993Y-23334075D01*
X31510826Y-23300000D01*
X31379174Y-23300000D01*
X31252007Y-23334075D01*
X31195000Y-23366988D01*
X31195000Y-22450000D01*
X30547155Y-22450000D01*
X30487627Y-22456401D01*
X30487620Y-22456403D01*
X30352913Y-22506645D01*
X30352906Y-22506649D01*
X30237812Y-22592809D01*
X30237809Y-22592812D01*
X30151649Y-22707906D01*
X30151645Y-22707913D01*
X30101403Y-22842620D01*
X30101401Y-22842627D01*
X30095000Y-22902155D01*
X30095000Y-23550000D01*
X31011988Y-23550000D01*
X30979075Y-23607007D01*
X30945000Y-23734174D01*
X30945000Y-23865826D01*
X30979075Y-23992993D01*
X31011988Y-24050000D01*
X30095000Y-24050000D01*
X30063181Y-24081819D01*
X30001858Y-24115304D01*
X29932166Y-24110320D01*
X29876233Y-24068448D01*
X29851816Y-24002984D01*
X29851500Y-23994138D01*
X29851500Y-23961172D01*
X29851499Y-23961155D01*
X29845098Y-23901627D01*
X29845096Y-23901620D01*
X29794854Y-23766913D01*
X29794850Y-23766906D01*
X29708691Y-23651814D01*
X29708685Y-23651807D01*
X29651688Y-23609139D01*
X29609818Y-23553205D01*
X29602000Y-23509873D01*
X29602000Y-22976323D01*
X29601999Y-22976321D01*
X29591402Y-22923042D01*
X29587467Y-22903263D01*
X29587466Y-22903260D01*
X29565886Y-22870963D01*
X29532101Y-22820399D01*
X29476735Y-22783405D01*
X29449239Y-22765033D01*
X29449235Y-22765032D01*
X29376177Y-22750500D01*
X29376174Y-22750500D01*
X28818826Y-22750500D01*
X28818823Y-22750500D01*
X28745764Y-22765032D01*
X28745760Y-22765033D01*
X28662898Y-22820399D01*
X28646200Y-22845391D01*
X28592588Y-22890196D01*
X28543098Y-22900500D01*
X28039038Y-22900500D01*
X27971999Y-22880815D01*
X27931651Y-22838500D01*
X27891936Y-22769711D01*
X27891935Y-22769709D01*
X27744266Y-22577263D01*
X27744260Y-22577256D01*
X27572743Y-22405739D01*
X27572736Y-22405733D01*
X27380293Y-22258067D01*
X27380292Y-22258066D01*
X27380289Y-22258064D01*
X27342740Y-22236385D01*
X27294527Y-22185820D01*
X27281303Y-22117213D01*
X27307271Y-22052349D01*
X27364185Y-22011820D01*
X27404742Y-22005000D01*
X53235258Y-22005000D01*
X53238188Y-22005860D01*
X53241159Y-22005140D01*
X53271504Y-22015643D01*
X53302297Y-22024685D01*
X53304297Y-22026993D01*
X53307185Y-22027993D01*
X53327036Y-22053235D01*
X53348052Y-22077489D01*
X53348486Y-22080511D01*
X53350376Y-22082914D01*
X53353427Y-22114875D01*
X53357996Y-22146647D01*
X53356726Y-22149426D01*
X53357017Y-22152468D01*
X53342306Y-22181001D01*
X53328971Y-22210203D01*
X53325978Y-22212673D01*
X53325001Y-22214570D01*
X53297261Y-22236384D01*
X53259711Y-22258064D01*
X53259706Y-22258067D01*
X53067263Y-22405733D01*
X53067256Y-22405739D01*
X52895739Y-22577256D01*
X52895733Y-22577263D01*
X52748064Y-22769709D01*
X52723815Y-22811710D01*
X52708348Y-22838500D01*
X52657783Y-22886715D01*
X52600962Y-22900500D01*
X52051902Y-22900500D01*
X51984863Y-22880815D01*
X51948800Y-22845391D01*
X51932101Y-22820399D01*
X51849239Y-22765033D01*
X51849235Y-22765032D01*
X51776177Y-22750500D01*
X51776174Y-22750500D01*
X51218826Y-22750500D01*
X51218823Y-22750500D01*
X51145764Y-22765032D01*
X51145760Y-22765033D01*
X51062899Y-22820399D01*
X51007533Y-22903260D01*
X51007532Y-22903264D01*
X50993000Y-22976321D01*
X50993000Y-23509873D01*
X50973315Y-23576912D01*
X50943312Y-23609139D01*
X50886314Y-23651807D01*
X50886308Y-23651814D01*
X50800149Y-23766906D01*
X50800145Y-23766913D01*
X50749903Y-23901620D01*
X50749901Y-23901626D01*
X50746926Y-23929296D01*
X50769159Y-24009000D01*
X52252719Y-24009000D01*
X52311353Y-23976982D01*
X52381045Y-23981966D01*
X52436979Y-24023836D01*
X52460652Y-24081962D01*
X52471161Y-24161785D01*
X52533947Y-24396104D01*
X52626773Y-24620205D01*
X52626777Y-24620214D01*
X52648974Y-24658661D01*
X52748064Y-24830289D01*
X52748066Y-24830292D01*
X52748067Y-24830293D01*
X52895733Y-25022736D01*
X52895739Y-25022743D01*
X53067256Y-25194260D01*
X53067263Y-25194266D01*
X53131894Y-25243859D01*
X53259711Y-25341936D01*
X53469788Y-25463224D01*
X53693900Y-25556054D01*
X53928211Y-25618838D01*
X54108586Y-25642584D01*
X54168711Y-25650500D01*
X54168712Y-25650500D01*
X54411289Y-25650500D01*
X54459388Y-25644167D01*
X54651789Y-25618838D01*
X54886100Y-25556054D01*
X55110212Y-25463224D01*
X55320289Y-25341936D01*
X55512738Y-25194265D01*
X55684265Y-25022738D01*
X55831936Y-24830289D01*
X55953224Y-24620212D01*
X55971177Y-24576867D01*
X56015017Y-24522467D01*
X56081311Y-24500401D01*
X56149010Y-24517680D01*
X56196621Y-24568816D01*
X56209737Y-24623743D01*
X56229499Y-28852786D01*
X56229500Y-28853365D01*
X56229500Y-32581498D01*
X56227011Y-32589974D01*
X56228299Y-32598713D01*
X56217319Y-32622981D01*
X56209815Y-32648537D01*
X56203139Y-32654321D01*
X56199498Y-32662370D01*
X56177139Y-32676850D01*
X56157011Y-32694292D01*
X56146725Y-32696548D01*
X56140854Y-32700351D01*
X56105937Y-32705497D01*
X56072437Y-32705615D01*
X56005328Y-32686167D01*
X55959388Y-32633524D01*
X55948000Y-32581616D01*
X55948000Y-29396358D01*
X55948000Y-29396356D01*
X55924114Y-29307212D01*
X55914054Y-29289788D01*
X55877970Y-29227288D01*
X54359319Y-27708637D01*
X54325834Y-27647314D01*
X54323000Y-27620956D01*
X54323000Y-27095826D01*
X54322999Y-27095809D01*
X54316751Y-27037700D01*
X54296523Y-26983467D01*
X54267712Y-26906222D01*
X54183616Y-26793884D01*
X54116112Y-26743351D01*
X54071280Y-26709789D01*
X54071278Y-26709788D01*
X54044644Y-26699854D01*
X53939799Y-26660748D01*
X53881690Y-26654500D01*
X53881674Y-26654500D01*
X53356544Y-26654500D01*
X53289505Y-26634815D01*
X53268863Y-26618181D01*
X52868907Y-26218225D01*
X52835422Y-26156902D01*
X52834121Y-26149982D01*
X52823402Y-26082299D01*
X52769873Y-25917555D01*
X52769871Y-25917552D01*
X52769871Y-25917550D01*
X52691231Y-25763211D01*
X52589414Y-25623072D01*
X52466928Y-25500586D01*
X52326788Y-25398768D01*
X52172445Y-25320127D01*
X52007701Y-25266598D01*
X52007699Y-25266597D01*
X52007698Y-25266597D01*
X51878834Y-25246187D01*
X51878830Y-25246186D01*
X51836611Y-25239500D01*
X51663389Y-25239500D01*
X51623728Y-25245781D01*
X51492302Y-25266597D01*
X51492299Y-25266598D01*
X51332923Y-25318383D01*
X51327552Y-25320128D01*
X51173211Y-25398768D01*
X51093256Y-25456859D01*
X51033072Y-25500586D01*
X51033070Y-25500588D01*
X51033069Y-25500588D01*
X50910588Y-25623069D01*
X50910588Y-25623070D01*
X50910586Y-25623072D01*
X50866859Y-25683256D01*
X50808768Y-25763211D01*
X50730128Y-25917552D01*
X50676597Y-26082302D01*
X50655069Y-26218225D01*
X50649500Y-26253389D01*
X50649500Y-26426611D01*
X50676598Y-26597701D01*
X50730127Y-26762445D01*
X50808768Y-26916788D01*
X50910586Y-27056928D01*
X51033072Y-27179414D01*
X51173212Y-27281232D01*
X51327555Y-27359873D01*
X51492299Y-27413402D01*
X51663389Y-27440500D01*
X51663390Y-27440500D01*
X51836610Y-27440500D01*
X51836611Y-27440500D01*
X52007701Y-27413402D01*
X52172445Y-27359873D01*
X52326788Y-27281232D01*
X52466928Y-27179414D01*
X52565149Y-27081193D01*
X52573094Y-27076854D01*
X52578520Y-27069607D01*
X52603279Y-27060372D01*
X52626472Y-27047708D01*
X52635501Y-27048353D01*
X52643984Y-27045190D01*
X52669804Y-27050806D01*
X52696164Y-27052692D01*
X52705217Y-27058510D01*
X52712257Y-27060042D01*
X52740511Y-27081193D01*
X52835681Y-27176363D01*
X52869166Y-27237686D01*
X52872000Y-27264044D01*
X52872000Y-27789190D01*
X52878248Y-27847299D01*
X52908493Y-27928386D01*
X52927288Y-27978778D01*
X52927289Y-27978779D01*
X52927290Y-27978782D01*
X52994038Y-28067945D01*
X53018456Y-28133409D01*
X53003605Y-28201682D01*
X52959870Y-28247794D01*
X52899462Y-28285054D01*
X52777555Y-28406961D01*
X52777552Y-28406965D01*
X52687051Y-28553688D01*
X52687046Y-28553699D01*
X52632819Y-28717347D01*
X52622500Y-28818345D01*
X52622500Y-28917500D01*
X54525456Y-28917500D01*
X54592495Y-28937185D01*
X54613137Y-28953819D01*
X55210681Y-29551363D01*
X55244166Y-29612686D01*
X55247000Y-29639044D01*
X55247000Y-32458456D01*
X55238355Y-32487896D01*
X55231832Y-32517883D01*
X55228077Y-32522898D01*
X55227315Y-32525495D01*
X55210681Y-32546137D01*
X55088637Y-32668181D01*
X55027314Y-32701666D01*
X55000956Y-32704500D01*
X43543043Y-32704500D01*
X43476004Y-32684815D01*
X43430249Y-32632011D01*
X43420305Y-32562853D01*
X43449330Y-32499297D01*
X43455362Y-32492819D01*
X43659158Y-32289023D01*
X43877969Y-32070212D01*
X43919252Y-31998708D01*
X43957746Y-31957609D01*
X44028101Y-31910601D01*
X44083466Y-31827740D01*
X44098000Y-31754674D01*
X44098000Y-31205326D01*
X44098000Y-31205323D01*
X44097999Y-31205321D01*
X44083467Y-31132264D01*
X44083466Y-31132260D01*
X44041708Y-31069764D01*
X44028101Y-31049399D01*
X44026131Y-31048083D01*
X44002962Y-31032602D01*
X43958157Y-30978990D01*
X43949450Y-30909665D01*
X43979604Y-30846638D01*
X44039047Y-30809918D01*
X44071853Y-30805500D01*
X46038456Y-30805500D01*
X46105495Y-30825185D01*
X46126137Y-30841819D01*
X46660681Y-31376363D01*
X46694166Y-31437686D01*
X46697000Y-31464044D01*
X46697000Y-31692178D01*
X46711532Y-31765235D01*
X46711533Y-31765239D01*
X46711534Y-31765240D01*
X46766899Y-31848101D01*
X46848666Y-31902735D01*
X46849760Y-31903466D01*
X46849764Y-31903467D01*
X46922821Y-31917999D01*
X46922824Y-31918000D01*
X46922826Y-31918000D01*
X47472176Y-31918000D01*
X47472177Y-31917999D01*
X47545240Y-31903466D01*
X47628101Y-31848101D01*
X47683466Y-31765240D01*
X47698000Y-31692174D01*
X47698000Y-31142826D01*
X47698000Y-31142823D01*
X47697999Y-31142821D01*
X47683467Y-31069764D01*
X47683466Y-31069760D01*
X47682980Y-31069032D01*
X47628101Y-30986899D01*
X47545240Y-30931534D01*
X47545239Y-30931533D01*
X47545235Y-30931532D01*
X47472177Y-30917000D01*
X47472174Y-30917000D01*
X47244044Y-30917000D01*
X47177005Y-30897315D01*
X47156363Y-30880681D01*
X46450213Y-30174531D01*
X46450208Y-30174527D01*
X46370290Y-30128387D01*
X46370283Y-30128384D01*
X46355409Y-30124398D01*
X46355409Y-30124399D01*
X46318276Y-30114449D01*
X46281144Y-30104500D01*
X43551356Y-30104500D01*
X43477091Y-30124399D01*
X43477090Y-30124398D01*
X43462211Y-30128386D01*
X43462206Y-30128388D01*
X43382294Y-30174526D01*
X43382285Y-30174533D01*
X42559681Y-30997137D01*
X42540244Y-31007749D01*
X42523511Y-31022250D01*
X42510179Y-31024166D01*
X42498358Y-31030622D01*
X42476271Y-31029042D01*
X42454353Y-31032194D01*
X42442101Y-31026598D01*
X42428666Y-31025638D01*
X42410939Y-31012367D01*
X42390797Y-31003169D01*
X42383514Y-30991837D01*
X42372733Y-30983766D01*
X42364995Y-30963020D01*
X42353023Y-30944391D01*
X42349871Y-30922472D01*
X42348316Y-30918302D01*
X42348000Y-30909456D01*
X42348000Y-30851544D01*
X42367685Y-30784505D01*
X42384319Y-30763863D01*
X43506363Y-29641819D01*
X43567686Y-29608334D01*
X43594044Y-29605500D01*
X48765956Y-29605500D01*
X48832995Y-29625185D01*
X48853637Y-29641819D01*
X50271725Y-31059907D01*
X50305210Y-31121230D01*
X50305662Y-31171778D01*
X50297000Y-31215326D01*
X50297000Y-31764678D01*
X50311532Y-31837735D01*
X50311533Y-31837739D01*
X50318456Y-31848100D01*
X50366899Y-31920601D01*
X50437989Y-31968101D01*
X50449760Y-31975966D01*
X50449764Y-31975967D01*
X50522821Y-31990499D01*
X50522824Y-31990500D01*
X50522826Y-31990500D01*
X51072176Y-31990500D01*
X51072177Y-31990499D01*
X51145240Y-31975966D01*
X51228101Y-31920601D01*
X51283466Y-31837740D01*
X51298000Y-31764674D01*
X51298000Y-31215326D01*
X51298000Y-31215323D01*
X51297999Y-31215321D01*
X51283467Y-31142264D01*
X51283466Y-31142260D01*
X51259839Y-31106899D01*
X51228101Y-31059399D01*
X51228099Y-31059398D01*
X51228099Y-31059397D01*
X51174409Y-31023523D01*
X51129603Y-30969911D01*
X51125258Y-30957476D01*
X51124115Y-30954717D01*
X51124114Y-30954712D01*
X51094108Y-30902740D01*
X51077972Y-30874791D01*
X51077968Y-30874786D01*
X49177713Y-28974531D01*
X49177708Y-28974527D01*
X49097790Y-28928387D01*
X49097789Y-28928386D01*
X49097788Y-28928386D01*
X49008644Y-28904500D01*
X43351356Y-28904500D01*
X43262212Y-28928386D01*
X43262209Y-28928387D01*
X43182291Y-28974527D01*
X43182286Y-28974531D01*
X41909681Y-30247136D01*
X41848358Y-30280621D01*
X41778666Y-30275637D01*
X41722733Y-30233765D01*
X41698316Y-30168301D01*
X41698000Y-30159455D01*
X41698000Y-29701544D01*
X41717685Y-29634505D01*
X41734319Y-29613863D01*
X42706363Y-28641819D01*
X42767686Y-28608334D01*
X42794044Y-28605500D01*
X49800956Y-28605500D01*
X49867995Y-28625185D01*
X49888637Y-28641819D01*
X53064788Y-31817970D01*
X53064789Y-31817971D01*
X53064791Y-31817972D01*
X53081710Y-31827740D01*
X53099022Y-31837735D01*
X53116974Y-31848099D01*
X53116976Y-31848101D01*
X53116977Y-31848101D01*
X53144712Y-31864114D01*
X53233856Y-31888000D01*
X53847098Y-31888000D01*
X53914137Y-31907685D01*
X53950200Y-31943109D01*
X53966899Y-31968101D01*
X54049760Y-32023466D01*
X54049764Y-32023467D01*
X54122821Y-32037999D01*
X54122824Y-32038000D01*
X54122826Y-32038000D01*
X54672176Y-32038000D01*
X54672177Y-32037999D01*
X54745240Y-32023466D01*
X54828101Y-31968101D01*
X54883466Y-31885240D01*
X54898000Y-31812174D01*
X54898000Y-31262826D01*
X54898000Y-31262823D01*
X54897999Y-31262821D01*
X54883467Y-31189764D01*
X54883466Y-31189760D01*
X54864398Y-31161222D01*
X54828101Y-31106899D01*
X54771428Y-31069032D01*
X54745239Y-31051533D01*
X54745235Y-31051532D01*
X54672177Y-31037000D01*
X54672174Y-31037000D01*
X54122826Y-31037000D01*
X54122823Y-31037000D01*
X54049764Y-31051532D01*
X54049760Y-31051533D01*
X53966898Y-31106899D01*
X53950200Y-31131891D01*
X53896588Y-31176696D01*
X53847098Y-31187000D01*
X53476544Y-31187000D01*
X53409505Y-31167315D01*
X53388863Y-31150681D01*
X51754836Y-29516654D01*
X52622501Y-29516654D01*
X52632819Y-29617652D01*
X52687046Y-29781300D01*
X52687051Y-29781311D01*
X52777552Y-29928034D01*
X52777555Y-29928038D01*
X52899461Y-30049944D01*
X52899465Y-30049947D01*
X53046188Y-30140448D01*
X53046199Y-30140453D01*
X53209847Y-30194680D01*
X53310852Y-30204999D01*
X53347500Y-30204999D01*
X53847500Y-30204999D01*
X53884140Y-30204999D01*
X53884154Y-30204998D01*
X53985152Y-30194680D01*
X54148800Y-30140453D01*
X54148811Y-30140448D01*
X54295534Y-30049947D01*
X54295538Y-30049944D01*
X54417444Y-29928038D01*
X54417447Y-29928034D01*
X54507948Y-29781311D01*
X54507953Y-29781300D01*
X54562180Y-29617652D01*
X54572499Y-29516654D01*
X54572500Y-29516641D01*
X54572500Y-29417500D01*
X53847500Y-29417500D01*
X53847500Y-30204999D01*
X53347500Y-30204999D01*
X53347500Y-29417500D01*
X52622501Y-29417500D01*
X52622501Y-29516654D01*
X51754836Y-29516654D01*
X50212713Y-27974531D01*
X50212708Y-27974527D01*
X50132790Y-27928387D01*
X50132789Y-27928386D01*
X50132788Y-27928386D01*
X50043644Y-27904500D01*
X42551356Y-27904500D01*
X42462212Y-27928386D01*
X42462209Y-27928387D01*
X42382291Y-27974527D01*
X42382286Y-27974531D01*
X41067033Y-29289783D01*
X41067032Y-29289784D01*
X41056022Y-29308856D01*
X41056020Y-29308858D01*
X41020888Y-29369706D01*
X41020887Y-29369709D01*
X40997000Y-29458856D01*
X40997000Y-31308455D01*
X40977315Y-31375494D01*
X40960681Y-31396136D01*
X39797193Y-32559623D01*
X39751925Y-32588463D01*
X39714725Y-32602003D01*
X39678254Y-32629989D01*
X39586553Y-32721690D01*
X39586134Y-32721918D01*
X39585903Y-32722335D01*
X39555492Y-32738649D01*
X39525229Y-32755174D01*
X39524754Y-32755140D01*
X39524333Y-32755366D01*
X39489952Y-32752651D01*
X39455538Y-32750190D01*
X39454994Y-32749890D01*
X39454681Y-32749866D01*
X39453154Y-32748877D01*
X39423830Y-32732723D01*
X39417136Y-32727634D01*
X39361921Y-32672420D01*
X39325447Y-32644431D01*
X39291369Y-32632027D01*
X39276403Y-32620650D01*
X39272258Y-32615027D01*
X39263764Y-32609616D01*
X38984319Y-32330171D01*
X38950834Y-32268848D01*
X38948000Y-32242490D01*
X38948000Y-31694431D01*
X38967685Y-31627392D01*
X39003110Y-31591328D01*
X39012169Y-31585276D01*
X39102776Y-31494669D01*
X39173965Y-31388127D01*
X39223001Y-31269744D01*
X39235815Y-31205326D01*
X39248000Y-31144071D01*
X39248000Y-31015928D01*
X39223002Y-30890261D01*
X39223001Y-30890260D01*
X39223001Y-30890256D01*
X39173965Y-30771873D01*
X39173964Y-30771872D01*
X39173961Y-30771866D01*
X39102776Y-30665331D01*
X39102773Y-30665327D01*
X39012172Y-30574726D01*
X39012168Y-30574723D01*
X38905633Y-30503538D01*
X38905624Y-30503533D01*
X38787244Y-30454499D01*
X38787238Y-30454497D01*
X38661571Y-30429500D01*
X38661569Y-30429500D01*
X38533431Y-30429500D01*
X38533429Y-30429500D01*
X38407761Y-30454497D01*
X38407755Y-30454499D01*
X38289375Y-30503533D01*
X38289366Y-30503538D01*
X38182831Y-30574723D01*
X38182827Y-30574726D01*
X38092226Y-30665327D01*
X38092223Y-30665331D01*
X38021038Y-30771866D01*
X38021033Y-30771875D01*
X37971999Y-30890255D01*
X37971997Y-30890261D01*
X37947000Y-31015928D01*
X37947000Y-31015931D01*
X37947000Y-31144069D01*
X37947000Y-31144071D01*
X37946999Y-31144071D01*
X37971997Y-31269738D01*
X37971999Y-31269744D01*
X38021033Y-31388124D01*
X38021038Y-31388133D01*
X38092223Y-31494668D01*
X38092226Y-31494672D01*
X38182825Y-31585271D01*
X38182828Y-31585273D01*
X38182831Y-31585276D01*
X38191888Y-31591327D01*
X38236693Y-31644935D01*
X38247000Y-31694431D01*
X38247000Y-31958170D01*
X38227315Y-32025209D01*
X38174511Y-32070964D01*
X38105353Y-32080908D01*
X38041797Y-32051883D01*
X38035319Y-32045851D01*
X37391962Y-31402494D01*
X37391957Y-31402490D01*
X37312039Y-31356350D01*
X37312038Y-31356349D01*
X37312037Y-31356349D01*
X37222893Y-31332463D01*
X37222892Y-31332463D01*
X37189774Y-31332463D01*
X37122735Y-31312778D01*
X37102093Y-31296144D01*
X33680480Y-27874531D01*
X33680475Y-27874527D01*
X33600557Y-27828387D01*
X33600556Y-27828386D01*
X33600555Y-27828386D01*
X33511411Y-27804500D01*
X23451356Y-27804500D01*
X23362212Y-27828386D01*
X23362211Y-27828386D01*
X23362209Y-27828387D01*
X23362206Y-27828388D01*
X23282294Y-27874526D01*
X23282285Y-27874533D01*
X21123824Y-30032993D01*
X21108539Y-30041450D01*
X21096781Y-30053474D01*
X21066811Y-30064538D01*
X21063852Y-30066176D01*
X21062045Y-30066590D01*
X21049760Y-30069034D01*
X21048910Y-30069601D01*
X21037598Y-30072195D01*
X21012675Y-30070692D01*
X20987844Y-30073356D01*
X20978397Y-30068624D01*
X20967855Y-30067989D01*
X20947699Y-30053249D01*
X20925372Y-30042066D01*
X20919984Y-30032980D01*
X20911458Y-30026745D01*
X20902469Y-30003445D01*
X20889734Y-29981969D01*
X20887524Y-29964704D01*
X20886311Y-29961558D01*
X20886811Y-29959128D01*
X20885891Y-29951937D01*
X20848102Y-22129599D01*
X20867463Y-22062465D01*
X20920045Y-22016456D01*
X20972101Y-22005000D01*
X25295258Y-22005000D01*
X25362297Y-22024685D01*
G37*
G04 #@! TD.AperFunction*
G04 #@! TA.AperFunction,Conductor*
G36*
X33519075Y-23607007D02*
G01*
X33485000Y-23734174D01*
X33485000Y-23865826D01*
X33519075Y-23992993D01*
X33551988Y-24050000D01*
X31878012Y-24050000D01*
X31910925Y-23992993D01*
X31945000Y-23865826D01*
X31945000Y-23734174D01*
X31910925Y-23607007D01*
X31878012Y-23550000D01*
X33551988Y-23550000D01*
X33519075Y-23607007D01*
G37*
G04 #@! TD.AperFunction*
G04 #@! TA.AperFunction,Conductor*
G36*
X36059075Y-23607007D02*
G01*
X36025000Y-23734174D01*
X36025000Y-23865826D01*
X36059075Y-23992993D01*
X36091988Y-24050000D01*
X34418012Y-24050000D01*
X34450925Y-23992993D01*
X34485000Y-23865826D01*
X34485000Y-23734174D01*
X34450925Y-23607007D01*
X34418012Y-23550000D01*
X36091988Y-23550000D01*
X36059075Y-23607007D01*
G37*
G04 #@! TD.AperFunction*
G04 #@! TA.AperFunction,Conductor*
G36*
X38599075Y-23607007D02*
G01*
X38565000Y-23734174D01*
X38565000Y-23865826D01*
X38599075Y-23992993D01*
X38631988Y-24050000D01*
X36958012Y-24050000D01*
X36990925Y-23992993D01*
X37025000Y-23865826D01*
X37025000Y-23734174D01*
X36990925Y-23607007D01*
X36958012Y-23550000D01*
X38631988Y-23550000D01*
X38599075Y-23607007D01*
G37*
G04 #@! TD.AperFunction*
G04 #@! TA.AperFunction,Conductor*
G36*
X41139075Y-23607007D02*
G01*
X41105000Y-23734174D01*
X41105000Y-23865826D01*
X41139075Y-23992993D01*
X41171988Y-24050000D01*
X39498012Y-24050000D01*
X39530925Y-23992993D01*
X39565000Y-23865826D01*
X39565000Y-23734174D01*
X39530925Y-23607007D01*
X39498012Y-23550000D01*
X41171988Y-23550000D01*
X41139075Y-23607007D01*
G37*
G04 #@! TD.AperFunction*
G04 #@! TA.AperFunction,Conductor*
G36*
X43679075Y-23607007D02*
G01*
X43645000Y-23734174D01*
X43645000Y-23865826D01*
X43679075Y-23992993D01*
X43711988Y-24050000D01*
X42038012Y-24050000D01*
X42070925Y-23992993D01*
X42105000Y-23865826D01*
X42105000Y-23734174D01*
X42070925Y-23607007D01*
X42038012Y-23550000D01*
X43711988Y-23550000D01*
X43679075Y-23607007D01*
G37*
G04 #@! TD.AperFunction*
G04 #@! TA.AperFunction,Conductor*
G36*
X46219075Y-23607007D02*
G01*
X46185000Y-23734174D01*
X46185000Y-23865826D01*
X46219075Y-23992993D01*
X46251988Y-24050000D01*
X44578012Y-24050000D01*
X44610925Y-23992993D01*
X44645000Y-23865826D01*
X44645000Y-23734174D01*
X44610925Y-23607007D01*
X44578012Y-23550000D01*
X46251988Y-23550000D01*
X46219075Y-23607007D01*
G37*
G04 #@! TD.AperFunction*
G04 #@! TA.AperFunction,Conductor*
G36*
X48759075Y-23607007D02*
G01*
X48725000Y-23734174D01*
X48725000Y-23865826D01*
X48759075Y-23992993D01*
X48791988Y-24050000D01*
X47118012Y-24050000D01*
X47150925Y-23992993D01*
X47185000Y-23865826D01*
X47185000Y-23734174D01*
X47150925Y-23607007D01*
X47118012Y-23550000D01*
X48791988Y-23550000D01*
X48759075Y-23607007D01*
G37*
G04 #@! TD.AperFunction*
G04 #@! TD*
G04 #@! TA.AperFunction,Conductor*
G04 #@! TO.N,Board_0-GNDD*
G36*
X20554572Y-22023907D02*
G01*
X20590536Y-22073407D01*
X20594440Y-22117619D01*
X20592605Y-22130830D01*
X20630393Y-29953168D01*
X20630803Y-29959370D01*
X20630806Y-29959408D01*
X20632457Y-29984361D01*
X20633377Y-29991552D01*
X20633769Y-29991501D01*
X20634288Y-29997118D01*
X20634092Y-29997144D01*
X20634803Y-30002704D01*
X20634804Y-30002707D01*
X20636778Y-30018137D01*
X20643881Y-30038285D01*
X20646662Y-30048938D01*
X20647914Y-30053468D01*
X20662742Y-30091924D01*
X20663222Y-30093153D01*
X20669968Y-30112288D01*
X20671790Y-30115361D01*
X20673082Y-30118709D01*
X20673737Y-30120040D01*
X20673740Y-30120047D01*
X20693193Y-30159563D01*
X20693195Y-30159567D01*
X20693196Y-30159568D01*
X20693198Y-30159571D01*
X20703944Y-30171270D01*
X20703945Y-30171270D01*
X20707920Y-30175596D01*
X20732237Y-30209335D01*
X20755585Y-30227481D01*
X20760638Y-30232982D01*
X20769164Y-30239217D01*
X20771919Y-30241232D01*
X20807728Y-30290843D01*
X20807538Y-30352029D01*
X20799216Y-30370641D01*
X20770888Y-30419708D01*
X20770884Y-30419716D01*
X20747001Y-30508856D01*
X20747001Y-30601145D01*
X20770884Y-30690285D01*
X20770887Y-30690291D01*
X20801938Y-30744073D01*
X20814660Y-30803921D01*
X20789773Y-30859817D01*
X20781394Y-30868078D01*
X20742845Y-30901807D01*
X20711382Y-30934729D01*
X20665600Y-31023286D01*
X20646237Y-31090421D01*
X20636235Y-31162457D01*
X20641683Y-32290246D01*
X20641683Y-32290250D01*
X20641684Y-32290257D01*
X20644048Y-32312365D01*
X20645476Y-32325723D01*
X20647200Y-32341840D01*
X20657555Y-32390850D01*
X20657558Y-32390864D01*
X20657561Y-32390875D01*
X20663790Y-32414636D01*
X20663790Y-32414637D01*
X20695926Y-32473343D01*
X20711658Y-32502082D01*
X20726611Y-32519937D01*
X20756513Y-32555641D01*
X20756519Y-32555647D01*
X20810671Y-32604187D01*
X20864473Y-32640055D01*
X21024450Y-32746707D01*
X21024535Y-32746763D01*
X21026379Y-32747981D01*
X21026546Y-32748090D01*
X21028121Y-32749121D01*
X21028122Y-32749122D01*
X21050875Y-32759625D01*
X21096020Y-32780465D01*
X21163059Y-32800150D01*
X21203050Y-32805900D01*
X21235040Y-32810500D01*
X21235044Y-32810500D01*
X27145549Y-32810500D01*
X27203740Y-32829407D01*
X27217246Y-32841232D01*
X28856023Y-34562309D01*
X28959470Y-34670951D01*
X29001783Y-34706685D01*
X29046107Y-34736536D01*
X29070250Y-34750931D01*
X29165884Y-34779083D01*
X29235472Y-34785358D01*
X29274514Y-34785383D01*
X29281018Y-34785388D01*
X29281018Y-34785387D01*
X29281021Y-34785388D01*
X29281023Y-34785387D01*
X29281025Y-34785387D01*
X29302551Y-34779082D01*
X29376693Y-34757366D01*
X29438626Y-34725022D01*
X29438635Y-34725016D01*
X29438636Y-34725016D01*
X29467451Y-34706524D01*
X29526636Y-34691007D01*
X29583638Y-34713242D01*
X29610974Y-34748715D01*
X29663974Y-34864766D01*
X29663976Y-34864769D01*
X29701594Y-34911451D01*
X30255421Y-35465277D01*
X30317993Y-35527848D01*
X30345771Y-35582365D01*
X30336200Y-35642797D01*
X30292935Y-35686062D01*
X30247990Y-35696852D01*
X30073441Y-35696852D01*
X29902850Y-35737282D01*
X29902845Y-35737284D01*
X29746166Y-35815971D01*
X29666111Y-35881185D01*
X29666107Y-35881189D01*
X29471675Y-36075620D01*
X30063876Y-36667821D01*
X30753305Y-35978393D01*
X30710882Y-35935971D01*
X30704827Y-35924089D01*
X30694952Y-35915126D01*
X30691278Y-35897497D01*
X30683104Y-35881455D01*
X30685190Y-35868283D01*
X30682469Y-35855227D01*
X30689858Y-35838806D01*
X30692675Y-35821023D01*
X30702105Y-35811592D01*
X30707578Y-35799431D01*
X30721844Y-35791853D01*
X30735939Y-35777758D01*
X30760687Y-35769049D01*
X30763704Y-35768420D01*
X30903561Y-35748312D01*
X30939963Y-35731687D01*
X30950808Y-35729427D01*
X30969921Y-35731512D01*
X30989781Y-35729142D01*
X31075648Y-35745731D01*
X31082422Y-35745693D01*
X31140716Y-35764275D01*
X31176955Y-35813573D01*
X31177297Y-35874758D01*
X31173027Y-35885816D01*
X31134502Y-35970176D01*
X31114533Y-36109070D01*
X31114533Y-36109072D01*
X31114533Y-36109074D01*
X31119652Y-36144680D01*
X31134531Y-36248173D01*
X31124096Y-36308462D01*
X31106542Y-36332265D01*
X30310657Y-37128150D01*
X30256140Y-37155927D01*
X30195708Y-37146356D01*
X30170649Y-37128150D01*
X30063876Y-37021377D01*
X29957103Y-37128150D01*
X29902587Y-37155927D01*
X29842155Y-37146355D01*
X29817096Y-37128150D01*
X29118121Y-36429176D01*
X28962743Y-36584554D01*
X28908227Y-36612331D01*
X28847795Y-36602760D01*
X28822736Y-36584554D01*
X27668132Y-35429950D01*
X26512712Y-34274530D01*
X26432788Y-34228386D01*
X26343644Y-34204500D01*
X26343642Y-34204500D01*
X21991657Y-34204500D01*
X21933466Y-34185593D01*
X21921653Y-34175504D01*
X20289496Y-32543347D01*
X20261719Y-32488830D01*
X20260500Y-32473343D01*
X20260500Y-30882156D01*
X20256728Y-30868078D01*
X20236614Y-30793011D01*
X20230034Y-30781614D01*
X20229145Y-30780075D01*
X20200209Y-30729956D01*
X20190470Y-30713087D01*
X19383223Y-29905840D01*
X19355448Y-29851326D01*
X19365019Y-29790894D01*
X19395038Y-29755747D01*
X19451928Y-29714414D01*
X19574414Y-29591928D01*
X19676232Y-29451788D01*
X19754873Y-29297445D01*
X19754874Y-29297440D01*
X19754876Y-29297438D01*
X19808401Y-29132706D01*
X19808402Y-29132702D01*
X19835500Y-28961614D01*
X19835500Y-28788385D01*
X19808402Y-28617297D01*
X19808401Y-28617293D01*
X19754876Y-28452561D01*
X19754874Y-28452558D01*
X19754873Y-28452557D01*
X19754873Y-28452555D01*
X19676232Y-28298212D01*
X19574414Y-28158072D01*
X19451928Y-28035586D01*
X19311788Y-27933768D01*
X19311787Y-27933767D01*
X19311785Y-27933766D01*
X19157441Y-27855125D01*
X19157438Y-27855123D01*
X18992706Y-27801598D01*
X18992702Y-27801597D01*
X18821614Y-27774500D01*
X18821611Y-27774500D01*
X18648389Y-27774500D01*
X18648386Y-27774500D01*
X18477297Y-27801597D01*
X18477293Y-27801598D01*
X18312561Y-27855123D01*
X18312558Y-27855125D01*
X18158214Y-27933766D01*
X18018073Y-28035585D01*
X17895585Y-28158073D01*
X17793766Y-28298214D01*
X17715125Y-28452558D01*
X17690323Y-28528888D01*
X17654359Y-28578388D01*
X17596167Y-28597294D01*
X17537977Y-28578386D01*
X17502014Y-28528886D01*
X17446096Y-28356786D01*
X17349624Y-28167447D01*
X17224722Y-27995535D01*
X17074464Y-27845277D01*
X16902552Y-27720376D01*
X16849235Y-27693210D01*
X16805971Y-27649946D01*
X16796399Y-27589514D01*
X16824176Y-27534997D01*
X16849235Y-27516790D01*
X16902552Y-27489623D01*
X17074464Y-27364722D01*
X17224722Y-27214464D01*
X17349624Y-27042552D01*
X17446096Y-26853213D01*
X17502014Y-26681113D01*
X17537978Y-26631613D01*
X17596168Y-26612705D01*
X17654359Y-26631612D01*
X17690323Y-26681111D01*
X17715125Y-26757441D01*
X17715126Y-26757444D01*
X17715127Y-26757445D01*
X17793768Y-26911788D01*
X17895586Y-27051928D01*
X18018072Y-27174414D01*
X18158212Y-27276232D01*
X18312555Y-27354873D01*
X18312557Y-27354873D01*
X18312558Y-27354874D01*
X18312561Y-27354876D01*
X18477293Y-27408401D01*
X18477297Y-27408402D01*
X18648386Y-27435500D01*
X18648389Y-27435500D01*
X18821614Y-27435500D01*
X18992702Y-27408402D01*
X18992706Y-27408401D01*
X19157438Y-27354876D01*
X19157440Y-27354874D01*
X19157445Y-27354873D01*
X19311788Y-27276232D01*
X19451928Y-27174414D01*
X19574414Y-27051928D01*
X19676232Y-26911788D01*
X19754873Y-26757445D01*
X19754874Y-26757440D01*
X19754876Y-26757438D01*
X19808401Y-26592706D01*
X19808402Y-26592702D01*
X19835500Y-26421614D01*
X19835500Y-26248385D01*
X19808402Y-26077297D01*
X19808401Y-26077293D01*
X19754876Y-25912561D01*
X19754874Y-25912558D01*
X19754873Y-25912557D01*
X19754873Y-25912555D01*
X19676232Y-25758212D01*
X19574414Y-25618072D01*
X19451928Y-25495586D01*
X19311788Y-25393768D01*
X19311787Y-25393767D01*
X19311785Y-25393766D01*
X19157441Y-25315125D01*
X19157438Y-25315123D01*
X18992706Y-25261598D01*
X18992702Y-25261597D01*
X18821614Y-25234500D01*
X18821611Y-25234500D01*
X18648389Y-25234500D01*
X18648386Y-25234500D01*
X18477297Y-25261597D01*
X18477293Y-25261598D01*
X18312561Y-25315123D01*
X18312558Y-25315125D01*
X18158214Y-25393766D01*
X18018073Y-25495585D01*
X17895585Y-25618073D01*
X17793766Y-25758214D01*
X17715125Y-25912558D01*
X17690323Y-25988888D01*
X17654359Y-26038388D01*
X17596167Y-26057294D01*
X17537977Y-26038386D01*
X17502014Y-25988886D01*
X17446096Y-25816786D01*
X17349624Y-25627447D01*
X17224722Y-25455535D01*
X17074464Y-25305277D01*
X16902552Y-25180376D01*
X16849235Y-25153210D01*
X16805971Y-25109946D01*
X16796399Y-25049514D01*
X16824176Y-24994997D01*
X16849235Y-24976790D01*
X16902552Y-24949623D01*
X17074464Y-24824722D01*
X17224722Y-24674464D01*
X17349624Y-24502552D01*
X17446096Y-24313213D01*
X17502014Y-24141113D01*
X17537978Y-24091613D01*
X17596168Y-24072705D01*
X17654359Y-24091612D01*
X17690323Y-24141111D01*
X17715125Y-24217441D01*
X17781385Y-24347486D01*
X17793768Y-24371788D01*
X17895586Y-24511928D01*
X18018072Y-24634414D01*
X18158212Y-24736232D01*
X18312555Y-24814873D01*
X18312557Y-24814873D01*
X18312558Y-24814874D01*
X18312561Y-24814876D01*
X18477293Y-24868401D01*
X18477297Y-24868402D01*
X18648386Y-24895500D01*
X18648389Y-24895500D01*
X18821614Y-24895500D01*
X18992702Y-24868402D01*
X18992706Y-24868401D01*
X19157438Y-24814876D01*
X19157440Y-24814874D01*
X19157445Y-24814873D01*
X19311788Y-24736232D01*
X19451928Y-24634414D01*
X19574414Y-24511928D01*
X19676232Y-24371788D01*
X19754873Y-24217445D01*
X19754874Y-24217440D01*
X19754876Y-24217438D01*
X19808401Y-24052706D01*
X19808402Y-24052702D01*
X19835500Y-23881614D01*
X19835500Y-23708385D01*
X19808402Y-23537297D01*
X19808401Y-23537293D01*
X19754876Y-23372561D01*
X19754874Y-23372558D01*
X19754873Y-23372557D01*
X19754873Y-23372555D01*
X19676232Y-23218212D01*
X19574414Y-23078072D01*
X19451928Y-22955586D01*
X19311788Y-22853768D01*
X19311787Y-22853767D01*
X19311785Y-22853766D01*
X19157441Y-22775125D01*
X19157438Y-22775123D01*
X18992706Y-22721598D01*
X18992702Y-22721597D01*
X18821614Y-22694500D01*
X18821611Y-22694500D01*
X18648389Y-22694500D01*
X18648386Y-22694500D01*
X18477297Y-22721597D01*
X18477293Y-22721598D01*
X18312561Y-22775123D01*
X18312558Y-22775125D01*
X18158214Y-22853766D01*
X18018073Y-22955585D01*
X17895585Y-23078073D01*
X17793766Y-23218214D01*
X17715125Y-23372558D01*
X17690323Y-23448888D01*
X17654359Y-23498388D01*
X17596167Y-23517294D01*
X17537977Y-23498386D01*
X17502014Y-23448886D01*
X17446096Y-23276786D01*
X17349624Y-23087447D01*
X17224722Y-22915535D01*
X17074464Y-22765277D01*
X16902552Y-22640375D01*
X16713215Y-22543904D01*
X16511120Y-22478240D01*
X16445000Y-22467767D01*
X16445000Y-23361988D01*
X16387993Y-23329075D01*
X16260826Y-23295000D01*
X16129174Y-23295000D01*
X16002007Y-23329075D01*
X15945000Y-23361988D01*
X15945000Y-22467768D01*
X15944999Y-22467767D01*
X15878880Y-22478240D01*
X15878878Y-22478240D01*
X15676784Y-22543904D01*
X15487447Y-22640375D01*
X15315535Y-22765277D01*
X15165277Y-22915535D01*
X15040375Y-23087447D01*
X14943904Y-23276784D01*
X14878241Y-23478877D01*
X14867768Y-23544999D01*
X14867769Y-23545000D01*
X15761988Y-23545000D01*
X15729075Y-23602007D01*
X15695000Y-23729174D01*
X15695000Y-23860826D01*
X15729075Y-23987993D01*
X15761988Y-24045000D01*
X14867769Y-24045000D01*
X14878241Y-24111122D01*
X14943904Y-24313215D01*
X15040375Y-24502552D01*
X15165277Y-24674464D01*
X15315535Y-24824722D01*
X15487448Y-24949624D01*
X15540764Y-24976790D01*
X15584029Y-25020055D01*
X15593600Y-25080487D01*
X15565822Y-25135004D01*
X15540764Y-25153210D01*
X15487448Y-25180375D01*
X15315535Y-25305277D01*
X15165277Y-25455535D01*
X15040375Y-25627447D01*
X14943904Y-25816784D01*
X14878241Y-26018877D01*
X14867768Y-26084999D01*
X14867769Y-26085000D01*
X15761988Y-26085000D01*
X15729075Y-26142007D01*
X15695000Y-26269174D01*
X15695000Y-26400826D01*
X15729075Y-26527993D01*
X15761988Y-26585000D01*
X14867769Y-26585000D01*
X14878241Y-26651122D01*
X14943904Y-26853215D01*
X15040375Y-27042552D01*
X15165277Y-27214464D01*
X15315535Y-27364722D01*
X15487448Y-27489624D01*
X15540764Y-27516790D01*
X15584029Y-27560055D01*
X15593600Y-27620487D01*
X15565822Y-27675004D01*
X15540764Y-27693210D01*
X15487448Y-27720375D01*
X15315535Y-27845277D01*
X15165277Y-27995535D01*
X15040375Y-28167447D01*
X14943904Y-28356784D01*
X14878241Y-28558877D01*
X14867768Y-28624999D01*
X14867769Y-28625000D01*
X15761988Y-28625000D01*
X15729075Y-28682007D01*
X15695000Y-28809174D01*
X15695000Y-28940826D01*
X15729075Y-29067993D01*
X15761988Y-29125000D01*
X14867769Y-29125000D01*
X14878241Y-29191122D01*
X14943904Y-29393215D01*
X15040375Y-29582552D01*
X15165277Y-29754464D01*
X15315535Y-29904722D01*
X15487448Y-30029624D01*
X15540764Y-30056790D01*
X15584029Y-30100055D01*
X15593600Y-30160487D01*
X15565822Y-30215004D01*
X15540764Y-30233210D01*
X15487448Y-30260375D01*
X15315535Y-30385277D01*
X15165277Y-30535535D01*
X15040375Y-30707447D01*
X14943904Y-30896784D01*
X14878241Y-31098877D01*
X14867768Y-31164999D01*
X14867769Y-31165000D01*
X15761988Y-31165000D01*
X15729075Y-31222007D01*
X15695000Y-31349174D01*
X15695000Y-31480826D01*
X15729075Y-31607993D01*
X15761988Y-31665000D01*
X14867769Y-31665000D01*
X14878241Y-31731122D01*
X14943904Y-31933215D01*
X15040375Y-32122552D01*
X15165277Y-32294464D01*
X15315535Y-32444722D01*
X15487448Y-32569624D01*
X15540764Y-32596790D01*
X15584029Y-32640055D01*
X15593600Y-32700487D01*
X15565822Y-32755004D01*
X15540764Y-32773210D01*
X15487448Y-32800375D01*
X15315535Y-32925277D01*
X15165277Y-33075535D01*
X15040375Y-33247447D01*
X14943904Y-33436784D01*
X14878241Y-33638877D01*
X14867768Y-33704999D01*
X14867769Y-33705000D01*
X15761988Y-33705000D01*
X15729075Y-33762007D01*
X15695000Y-33889174D01*
X15695000Y-34020826D01*
X15729075Y-34147993D01*
X15761988Y-34205000D01*
X14867769Y-34205000D01*
X14878241Y-34271122D01*
X14943904Y-34473215D01*
X15040375Y-34662552D01*
X15165277Y-34834464D01*
X15315535Y-34984722D01*
X15487448Y-35109624D01*
X15540764Y-35136790D01*
X15584029Y-35180055D01*
X15593600Y-35240487D01*
X15565822Y-35295004D01*
X15540764Y-35313210D01*
X15487448Y-35340375D01*
X15315535Y-35465277D01*
X15165277Y-35615535D01*
X15040375Y-35787447D01*
X14943904Y-35976784D01*
X14878241Y-36178877D01*
X14867768Y-36244999D01*
X14867769Y-36245000D01*
X15761988Y-36245000D01*
X15729075Y-36302007D01*
X15695000Y-36429174D01*
X15695000Y-36560826D01*
X15729075Y-36687993D01*
X15761988Y-36745000D01*
X14867769Y-36745000D01*
X14878241Y-36811122D01*
X14943904Y-37013215D01*
X15040375Y-37202552D01*
X15165277Y-37374464D01*
X15315535Y-37524722D01*
X15487448Y-37649624D01*
X15540764Y-37676790D01*
X15584029Y-37720055D01*
X15593600Y-37780487D01*
X15565822Y-37835004D01*
X15540764Y-37853210D01*
X15487448Y-37880375D01*
X15315535Y-38005277D01*
X15165277Y-38155535D01*
X15040375Y-38327447D01*
X14943904Y-38516784D01*
X14878241Y-38718877D01*
X14867768Y-38784999D01*
X14867769Y-38785000D01*
X15761988Y-38785000D01*
X15729075Y-38842007D01*
X15695000Y-38969174D01*
X15695000Y-39100826D01*
X15729075Y-39227993D01*
X15761988Y-39285000D01*
X14867769Y-39285000D01*
X14878241Y-39351122D01*
X14943904Y-39553215D01*
X15040372Y-39742545D01*
X15040374Y-39742550D01*
X15098323Y-39822309D01*
X15117230Y-39880500D01*
X15098323Y-39938691D01*
X15048823Y-39974655D01*
X15018230Y-39979500D01*
X14934899Y-39979500D01*
X14854275Y-40001103D01*
X14813963Y-40011905D01*
X14705536Y-40074505D01*
X14617005Y-40163036D01*
X14554405Y-40271463D01*
X14544961Y-40306708D01*
X14522000Y-40392399D01*
X14522000Y-40517601D01*
X14554405Y-40638536D01*
X14617005Y-40746964D01*
X14705536Y-40835495D01*
X14813964Y-40898095D01*
X14881350Y-40916151D01*
X14932662Y-40949474D01*
X14954589Y-41006596D01*
X14944745Y-41052918D01*
X14945394Y-41053187D01*
X14943946Y-41056682D01*
X14943940Y-41056711D01*
X14943909Y-41056771D01*
X14943907Y-41056775D01*
X14878241Y-41258877D01*
X14867768Y-41324999D01*
X14867769Y-41325000D01*
X15761988Y-41325000D01*
X15729075Y-41382007D01*
X15695000Y-41509174D01*
X15695000Y-41640826D01*
X15729075Y-41767993D01*
X15761988Y-41825000D01*
X14867769Y-41825000D01*
X14878241Y-41891122D01*
X14943904Y-42093215D01*
X15040375Y-42282552D01*
X15165277Y-42454464D01*
X15315535Y-42604722D01*
X15487447Y-42729624D01*
X15676786Y-42826096D01*
X15848886Y-42882014D01*
X15898386Y-42917978D01*
X15917294Y-42976169D01*
X15898387Y-43034359D01*
X15848888Y-43070323D01*
X15772558Y-43095125D01*
X15618214Y-43173766D01*
X15478073Y-43275585D01*
X15355585Y-43398073D01*
X15253766Y-43538214D01*
X15175125Y-43692558D01*
X15175123Y-43692561D01*
X15121598Y-43857293D01*
X15121597Y-43857297D01*
X15094500Y-44028385D01*
X15094500Y-44201614D01*
X15121597Y-44372702D01*
X15121598Y-44372706D01*
X15175123Y-44537438D01*
X15175125Y-44537441D01*
X15175126Y-44537444D01*
X15175127Y-44537445D01*
X15253768Y-44691788D01*
X15355586Y-44831928D01*
X15478072Y-44954414D01*
X15618212Y-45056232D01*
X15772555Y-45134873D01*
X15772557Y-45134873D01*
X15772558Y-45134874D01*
X15772561Y-45134876D01*
X15937293Y-45188401D01*
X15937297Y-45188402D01*
X16108386Y-45215500D01*
X16108389Y-45215500D01*
X16281614Y-45215500D01*
X16452702Y-45188402D01*
X16452706Y-45188401D01*
X16617438Y-45134876D01*
X16617440Y-45134874D01*
X16617445Y-45134873D01*
X16771788Y-45056232D01*
X16911928Y-44954414D01*
X17034414Y-44831928D01*
X17136232Y-44691788D01*
X17214873Y-44537445D01*
X17214874Y-44537440D01*
X17214876Y-44537438D01*
X17268401Y-44372706D01*
X17268402Y-44372702D01*
X17295500Y-44201614D01*
X17295500Y-44028385D01*
X17268402Y-43857297D01*
X17268401Y-43857293D01*
X17214876Y-43692561D01*
X17214874Y-43692558D01*
X17214873Y-43692557D01*
X17214873Y-43692555D01*
X17136232Y-43538212D01*
X17034414Y-43398072D01*
X16911928Y-43275586D01*
X16771788Y-43173768D01*
X16771787Y-43173767D01*
X16771785Y-43173766D01*
X16617441Y-43095125D01*
X16541111Y-43070323D01*
X16491612Y-43034359D01*
X16472705Y-42976168D01*
X16491613Y-42917977D01*
X16541113Y-42882014D01*
X16713213Y-42826096D01*
X16902552Y-42729624D01*
X17074464Y-42604722D01*
X17224722Y-42454464D01*
X17349624Y-42282552D01*
X17446096Y-42093213D01*
X17502014Y-41921113D01*
X17537978Y-41871613D01*
X17596168Y-41852705D01*
X17654359Y-41871612D01*
X17690323Y-41921111D01*
X17715125Y-41997441D01*
X17791677Y-42147686D01*
X17793768Y-42151788D01*
X17895586Y-42291928D01*
X18018072Y-42414414D01*
X18158212Y-42516232D01*
X18312555Y-42594873D01*
X18312557Y-42594873D01*
X18312558Y-42594874D01*
X18312561Y-42594876D01*
X18477293Y-42648401D01*
X18477297Y-42648402D01*
X18648386Y-42675500D01*
X18648389Y-42675500D01*
X18821614Y-42675500D01*
X18992702Y-42648402D01*
X18992706Y-42648401D01*
X19157438Y-42594876D01*
X19157440Y-42594874D01*
X19157445Y-42594873D01*
X19311788Y-42516232D01*
X19451928Y-42414414D01*
X19574414Y-42291928D01*
X19630699Y-42214458D01*
X19651214Y-42199553D01*
X19669950Y-42182467D01*
X19675598Y-42181837D01*
X19680197Y-42178496D01*
X19705560Y-42178496D01*
X19730759Y-42175686D01*
X19735698Y-42178496D01*
X19741383Y-42178496D01*
X19761902Y-42193404D01*
X19783940Y-42205942D01*
X19785813Y-42210776D01*
X19790883Y-42214460D01*
X19809180Y-42261679D01*
X19809790Y-42267149D01*
X19809790Y-42363934D01*
X19826344Y-42425713D01*
X19828277Y-42432928D01*
X19828278Y-42432935D01*
X19833673Y-42453072D01*
X19833674Y-42453074D01*
X19833675Y-42453077D01*
X19833676Y-42453078D01*
X19879820Y-42533002D01*
X20617031Y-43270212D01*
X20617030Y-43270212D01*
X20682287Y-43335468D01*
X20682289Y-43335470D01*
X20715250Y-43354500D01*
X20762212Y-43381614D01*
X20851356Y-43405500D01*
X20851358Y-43405500D01*
X22972624Y-43405500D01*
X22972628Y-43405500D01*
X22972631Y-43405498D01*
X22977234Y-43404893D01*
X23037395Y-43416042D01*
X23079514Y-43460423D01*
X23087502Y-43521085D01*
X23087257Y-43522361D01*
X23086681Y-43525255D01*
X23086681Y-43525256D01*
X23061682Y-43650931D01*
X23061682Y-43779069D01*
X23077243Y-43857299D01*
X23086681Y-43904742D01*
X23086682Y-43904747D01*
X23135716Y-44023125D01*
X23135720Y-44023133D01*
X23170713Y-44075503D01*
X23206906Y-44129669D01*
X23206909Y-44129672D01*
X23216957Y-44139720D01*
X23244734Y-44194237D01*
X23235163Y-44254669D01*
X23216957Y-44279727D01*
X22921182Y-44575503D01*
X22866665Y-44603281D01*
X22851178Y-44604500D01*
X22372823Y-44604500D01*
X22317817Y-44615442D01*
X22279190Y-44615442D01*
X22224187Y-44604501D01*
X21220839Y-44604501D01*
X21220838Y-44604501D01*
X21220828Y-44604502D01*
X21147776Y-44619034D01*
X21147770Y-44619036D01*
X21064913Y-44674398D01*
X21064910Y-44674401D01*
X21009548Y-44757258D01*
X21009546Y-44757264D01*
X20995014Y-44830316D01*
X20995013Y-44830328D01*
X20995013Y-44905500D01*
X20976106Y-44963691D01*
X20926606Y-44999655D01*
X20896013Y-45004500D01*
X20161190Y-45004500D01*
X20102999Y-44985593D01*
X20091186Y-44975504D01*
X19771389Y-44655707D01*
X19743612Y-44601190D01*
X19753182Y-44540763D01*
X19754873Y-44537445D01*
X19790085Y-44429073D01*
X19808402Y-44372702D01*
X19835500Y-44201614D01*
X19835500Y-44028385D01*
X19808402Y-43857297D01*
X19808401Y-43857293D01*
X19754876Y-43692561D01*
X19754874Y-43692558D01*
X19754873Y-43692557D01*
X19754873Y-43692555D01*
X19676232Y-43538212D01*
X19574414Y-43398072D01*
X19451928Y-43275586D01*
X19311788Y-43173768D01*
X19311787Y-43173767D01*
X19311785Y-43173766D01*
X19157441Y-43095125D01*
X19157438Y-43095123D01*
X18992706Y-43041598D01*
X18992702Y-43041597D01*
X18821614Y-43014500D01*
X18821611Y-43014500D01*
X18648389Y-43014500D01*
X18648386Y-43014500D01*
X18477297Y-43041597D01*
X18477293Y-43041598D01*
X18312561Y-43095123D01*
X18312558Y-43095125D01*
X18158214Y-43173766D01*
X18018073Y-43275585D01*
X17895585Y-43398073D01*
X17793766Y-43538214D01*
X17715125Y-43692558D01*
X17715123Y-43692561D01*
X17661598Y-43857293D01*
X17661597Y-43857297D01*
X17634500Y-44028385D01*
X17634500Y-44201614D01*
X17661597Y-44372702D01*
X17661598Y-44372706D01*
X17715123Y-44537438D01*
X17715125Y-44537441D01*
X17715126Y-44537444D01*
X17715127Y-44537445D01*
X17793768Y-44691788D01*
X17895586Y-44831928D01*
X18018072Y-44954414D01*
X18158212Y-45056232D01*
X18312555Y-45134873D01*
X18312557Y-45134873D01*
X18312558Y-45134874D01*
X18312561Y-45134876D01*
X18477293Y-45188401D01*
X18477297Y-45188402D01*
X18648386Y-45215500D01*
X18648389Y-45215500D01*
X18821614Y-45215500D01*
X18992702Y-45188402D01*
X19049073Y-45170085D01*
X19157445Y-45134873D01*
X19160747Y-45133190D01*
X19221174Y-45123609D01*
X19275695Y-45151378D01*
X19275707Y-45151389D01*
X19509814Y-45385496D01*
X19537591Y-45440013D01*
X19528020Y-45500445D01*
X19484755Y-45543710D01*
X19439810Y-45554500D01*
X17860326Y-45554500D01*
X17860325Y-45554500D01*
X17860315Y-45554501D01*
X17787263Y-45569033D01*
X17787257Y-45569035D01*
X17704400Y-45624397D01*
X17704397Y-45624400D01*
X17649035Y-45707257D01*
X17649033Y-45707263D01*
X17634501Y-45780315D01*
X17634500Y-45780327D01*
X17634500Y-47529672D01*
X17634501Y-47529684D01*
X17649033Y-47602736D01*
X17649035Y-47602742D01*
X17704397Y-47685599D01*
X17704400Y-47685602D01*
X17732148Y-47704142D01*
X17787260Y-47740966D01*
X17842808Y-47752015D01*
X17860315Y-47755498D01*
X17860320Y-47755498D01*
X17860326Y-47755500D01*
X17860327Y-47755500D01*
X19609673Y-47755500D01*
X19609674Y-47755500D01*
X19682740Y-47740966D01*
X19765601Y-47685601D01*
X19820966Y-47602740D01*
X19823023Y-47592399D01*
X20722000Y-47592399D01*
X20722000Y-47717601D01*
X20754405Y-47838536D01*
X20817005Y-47946964D01*
X20905536Y-48035495D01*
X21013964Y-48098095D01*
X21134899Y-48130500D01*
X21134901Y-48130500D01*
X21260099Y-48130500D01*
X21260101Y-48130500D01*
X21381036Y-48098095D01*
X21489464Y-48035495D01*
X21577995Y-47946964D01*
X21640595Y-47838536D01*
X21673000Y-47717601D01*
X21673000Y-47592399D01*
X21640595Y-47471464D01*
X21577995Y-47363036D01*
X21489464Y-47274505D01*
X21381036Y-47211905D01*
X21260101Y-47179500D01*
X21134899Y-47179500D01*
X21054275Y-47201103D01*
X21013963Y-47211905D01*
X20905536Y-47274505D01*
X20817005Y-47363036D01*
X20754405Y-47471463D01*
X20754405Y-47471464D01*
X20722000Y-47592399D01*
X19823023Y-47592399D01*
X19833553Y-47539464D01*
X19835499Y-47529681D01*
X19835500Y-47529672D01*
X19835500Y-45804500D01*
X19854407Y-45746309D01*
X19903907Y-45710345D01*
X19934500Y-45705500D01*
X20021144Y-45705500D01*
X20896013Y-45705500D01*
X20954204Y-45724407D01*
X20990168Y-45773907D01*
X20995013Y-45804500D01*
X20995013Y-45879673D01*
X20995014Y-45879685D01*
X21009546Y-45952737D01*
X21009548Y-45952743D01*
X21064910Y-46035600D01*
X21064913Y-46035603D01*
X21107274Y-46063907D01*
X21147773Y-46090967D01*
X21203321Y-46102016D01*
X21220828Y-46105499D01*
X21220833Y-46105499D01*
X21220839Y-46105501D01*
X21220840Y-46105501D01*
X22224186Y-46105501D01*
X22224187Y-46105501D01*
X22224188Y-46105500D01*
X22224194Y-46105500D01*
X22245453Y-46101270D01*
X22279195Y-46094559D01*
X22317823Y-46094559D01*
X22332711Y-46097520D01*
X22372818Y-46105499D01*
X22372824Y-46105499D01*
X22372826Y-46105500D01*
X22372827Y-46105500D01*
X23376173Y-46105500D01*
X23376174Y-46105500D01*
X23449240Y-46090966D01*
X23532101Y-46035601D01*
X23587466Y-45952740D01*
X23602000Y-45879674D01*
X23602000Y-45351321D01*
X23620907Y-45293130D01*
X23630990Y-45281323D01*
X24148000Y-44764314D01*
X24152074Y-44757258D01*
X24213890Y-44650190D01*
X24213890Y-44650188D01*
X24213892Y-44650186D01*
X24248000Y-44522892D01*
X24248000Y-44391107D01*
X24248000Y-44113990D01*
X24264685Y-44058988D01*
X24288647Y-44023127D01*
X24337683Y-43904744D01*
X24357112Y-43807068D01*
X24387009Y-43753686D01*
X24442574Y-43728070D01*
X24502584Y-43740007D01*
X24524214Y-43756380D01*
X25591065Y-44823231D01*
X25618841Y-44877746D01*
X25609270Y-44938178D01*
X25566005Y-44981443D01*
X25558949Y-44984696D01*
X25529791Y-44996774D01*
X25319707Y-45118066D01*
X25127268Y-45265729D01*
X24955729Y-45437268D01*
X24808066Y-45629707D01*
X24686772Y-45839795D01*
X24593948Y-46063894D01*
X24593944Y-46063907D01*
X24531161Y-46298213D01*
X24531161Y-46298218D01*
X24499500Y-46538710D01*
X24499500Y-46781289D01*
X24531161Y-47021781D01*
X24531161Y-47021786D01*
X24593944Y-47256092D01*
X24593948Y-47256105D01*
X24686772Y-47480204D01*
X24686774Y-47480208D01*
X24686776Y-47480212D01*
X24805358Y-47685602D01*
X24808066Y-47690292D01*
X24955729Y-47882731D01*
X24955731Y-47882733D01*
X24955735Y-47882738D01*
X25127262Y-48054265D01*
X25127266Y-48054268D01*
X25127268Y-48054270D01*
X25319707Y-48201933D01*
X25319711Y-48201936D01*
X25444414Y-48273933D01*
X25485354Y-48319402D01*
X25491750Y-48380252D01*
X25461157Y-48433240D01*
X25405262Y-48458127D01*
X25394925Y-48458669D01*
X18426750Y-48459500D01*
X14329500Y-48459500D01*
X14271309Y-48440593D01*
X14235345Y-48391093D01*
X14230500Y-48360500D01*
X14230500Y-47704142D01*
X14231251Y-46568385D01*
X15094500Y-46568385D01*
X15094500Y-46741614D01*
X15121597Y-46912702D01*
X15121598Y-46912706D01*
X15175123Y-47077438D01*
X15175125Y-47077441D01*
X15217190Y-47160000D01*
X15253768Y-47231788D01*
X15355586Y-47371928D01*
X15478072Y-47494414D01*
X15618212Y-47596232D01*
X15772555Y-47674873D01*
X15772557Y-47674873D01*
X15772558Y-47674874D01*
X15772561Y-47674876D01*
X15937293Y-47728401D01*
X15937297Y-47728402D01*
X16108386Y-47755500D01*
X16108389Y-47755500D01*
X16281614Y-47755500D01*
X16452702Y-47728402D01*
X16452706Y-47728401D01*
X16617438Y-47674876D01*
X16617440Y-47674874D01*
X16617445Y-47674873D01*
X16771788Y-47596232D01*
X16911928Y-47494414D01*
X17034414Y-47371928D01*
X17136232Y-47231788D01*
X17214873Y-47077445D01*
X17214874Y-47077440D01*
X17214876Y-47077438D01*
X17268401Y-46912706D01*
X17268402Y-46912702D01*
X17295500Y-46741614D01*
X17295500Y-46568385D01*
X17268402Y-46397297D01*
X17268401Y-46397293D01*
X17214876Y-46232561D01*
X17214874Y-46232558D01*
X17214873Y-46232557D01*
X17214873Y-46232555D01*
X17136232Y-46078212D01*
X17034414Y-45938072D01*
X16911928Y-45815586D01*
X16771788Y-45713768D01*
X16771787Y-45713767D01*
X16771785Y-45713766D01*
X16617441Y-45635125D01*
X16617438Y-45635123D01*
X16452706Y-45581598D01*
X16452702Y-45581597D01*
X16281614Y-45554500D01*
X16281611Y-45554500D01*
X16108389Y-45554500D01*
X16108386Y-45554500D01*
X15937297Y-45581597D01*
X15937293Y-45581598D01*
X15772561Y-45635123D01*
X15772558Y-45635125D01*
X15618214Y-45713766D01*
X15478073Y-45815585D01*
X15355585Y-45938073D01*
X15253766Y-46078214D01*
X15175125Y-46232558D01*
X15175123Y-46232561D01*
X15121598Y-46397293D01*
X15121597Y-46397297D01*
X15094500Y-46568385D01*
X14231251Y-46568385D01*
X14231254Y-46564434D01*
X14234092Y-42273907D01*
X14238009Y-36352928D01*
X14239450Y-34175343D01*
X14239450Y-34175342D01*
X14241130Y-31635344D01*
X14244931Y-25888594D01*
X14246373Y-23708385D01*
X14246462Y-23574525D01*
X14247435Y-22103934D01*
X14266381Y-22045756D01*
X14315905Y-22009825D01*
X14346435Y-22005000D01*
X20496381Y-22005000D01*
X20554572Y-22023907D01*
G37*
G04 #@! TD.AperFunction*
G04 #@! TA.AperFunction,Conductor*
G36*
X47915199Y-37216278D02*
G01*
X47919447Y-37215893D01*
X47942363Y-37229558D01*
X47966336Y-37241278D01*
X47969638Y-37245823D01*
X47971999Y-37247231D01*
X47973921Y-37251718D01*
X47986438Y-37268946D01*
X48034424Y-37367102D01*
X48125398Y-37458076D01*
X48240982Y-37514582D01*
X48315918Y-37525500D01*
X48521311Y-37525500D01*
X48579502Y-37544407D01*
X48591315Y-37554496D01*
X48827031Y-37790212D01*
X48827030Y-37790212D01*
X48892287Y-37855468D01*
X48892289Y-37855470D01*
X48918036Y-37870335D01*
X48972212Y-37901614D01*
X49061356Y-37925500D01*
X49061358Y-37925500D01*
X50933642Y-37925500D01*
X50933644Y-37925500D01*
X51022788Y-37901614D01*
X51026923Y-37899226D01*
X51029949Y-37897480D01*
X51059575Y-37880375D01*
X51102712Y-37855470D01*
X51323001Y-37635181D01*
X51403687Y-37554496D01*
X51458203Y-37526719D01*
X51473690Y-37525500D01*
X51679078Y-37525500D01*
X51679082Y-37525500D01*
X51754018Y-37514582D01*
X51869602Y-37458076D01*
X51960576Y-37367102D01*
X51960577Y-37367099D01*
X51966376Y-37361301D01*
X51967597Y-37362522D01*
X52008837Y-37332024D01*
X52070020Y-37331506D01*
X52110230Y-37355912D01*
X53253610Y-38499291D01*
X53281387Y-38553808D01*
X53271816Y-38614239D01*
X53270127Y-38617552D01*
X53270123Y-38617561D01*
X53216598Y-38782293D01*
X53216597Y-38782297D01*
X53189500Y-38953385D01*
X53189500Y-39126614D01*
X53199287Y-39188407D01*
X53189716Y-39248839D01*
X53171510Y-39273897D01*
X52998937Y-39446471D01*
X52944420Y-39474249D01*
X52883988Y-39464678D01*
X52843197Y-39425968D01*
X52798003Y-39347690D01*
X52798001Y-39347688D01*
X52798000Y-39347686D01*
X52704814Y-39254500D01*
X52704811Y-39254498D01*
X52704809Y-39254496D01*
X52590689Y-39188609D01*
X52590691Y-39188609D01*
X52526595Y-39171435D01*
X52463392Y-39154500D01*
X52331608Y-39154500D01*
X52268405Y-39171435D01*
X52204309Y-39188609D01*
X52090190Y-39254496D01*
X51996996Y-39347690D01*
X51931109Y-39461809D01*
X51913911Y-39525995D01*
X51897324Y-39587901D01*
X51897000Y-39589109D01*
X51897000Y-39720891D01*
X51897001Y-39720899D01*
X51897098Y-39721261D01*
X51897083Y-39721528D01*
X51897847Y-39727324D01*
X51896772Y-39727465D01*
X51893892Y-39782362D01*
X51855383Y-39829909D01*
X51796282Y-39845741D01*
X51782157Y-39843975D01*
X51659111Y-39819500D01*
X51659107Y-39819500D01*
X51535893Y-39819500D01*
X51535890Y-39819500D01*
X51415049Y-39843537D01*
X51415047Y-39843537D01*
X51301216Y-39890686D01*
X51198770Y-39959140D01*
X51111640Y-40046270D01*
X51043186Y-40148716D01*
X50996037Y-40262547D01*
X50996037Y-40262549D01*
X50972000Y-40383390D01*
X50972000Y-40506609D01*
X50996037Y-40627450D01*
X50996037Y-40627452D01*
X51043186Y-40741283D01*
X51106137Y-40835494D01*
X51111643Y-40843733D01*
X51146640Y-40878730D01*
X51146642Y-40878733D01*
X51162613Y-40894704D01*
X51169731Y-40908674D01*
X51180817Y-40919760D01*
X51183269Y-40935246D01*
X51190389Y-40949219D01*
X51187936Y-40964706D01*
X51190389Y-40980192D01*
X51183271Y-40994162D01*
X51180818Y-41009651D01*
X51162612Y-41034709D01*
X51111819Y-41085503D01*
X51057303Y-41113281D01*
X51041815Y-41114500D01*
X50782234Y-41114500D01*
X50724043Y-41095593D01*
X50688079Y-41046093D01*
X50688079Y-40984907D01*
X50697973Y-40963529D01*
X50706855Y-40949127D01*
X50762006Y-40782693D01*
X50772500Y-40679987D01*
X50772500Y-40555001D01*
X50772499Y-40555000D01*
X48372502Y-40555000D01*
X48372501Y-40555001D01*
X48372501Y-40679986D01*
X48382992Y-40782687D01*
X48382995Y-40782699D01*
X48438143Y-40949124D01*
X48530180Y-41098340D01*
X48654159Y-41222319D01*
X48803375Y-41314356D01*
X48963052Y-41367268D01*
X49012342Y-41403519D01*
X49030910Y-41461819D01*
X49011665Y-41519899D01*
X48966509Y-41554001D01*
X48880169Y-41586203D01*
X48764958Y-41672450D01*
X48764950Y-41672458D01*
X48678702Y-41787670D01*
X48628410Y-41922511D01*
X48628408Y-41922522D01*
X48626510Y-41940181D01*
X48622249Y-41979816D01*
X48622000Y-41982129D01*
X48622000Y-42727868D01*
X48628408Y-42787480D01*
X48628409Y-42787485D01*
X48678702Y-42922329D01*
X48759304Y-43029999D01*
X48764954Y-43037546D01*
X48764957Y-43037548D01*
X48764958Y-43037549D01*
X48880170Y-43123797D01*
X49015011Y-43174089D01*
X49015012Y-43174089D01*
X49015017Y-43174091D01*
X49074627Y-43180500D01*
X50070372Y-43180499D01*
X50129983Y-43174091D01*
X50255466Y-43127289D01*
X50264829Y-43123797D01*
X50264829Y-43123796D01*
X50264831Y-43123796D01*
X50380046Y-43037546D01*
X50466296Y-42922331D01*
X50483970Y-42874946D01*
X50516589Y-42787488D01*
X50516590Y-42787485D01*
X50516591Y-42787483D01*
X50523000Y-42727873D01*
X50522999Y-41982128D01*
X50516867Y-41925080D01*
X50529447Y-41865202D01*
X50574820Y-41824154D01*
X50615300Y-41815500D01*
X51041815Y-41815500D01*
X51100006Y-41834407D01*
X51111812Y-41844490D01*
X51185398Y-41918076D01*
X51300982Y-41974582D01*
X51375918Y-41985500D01*
X51375921Y-41985500D01*
X51819078Y-41985500D01*
X51819082Y-41985500D01*
X51894018Y-41974582D01*
X52009602Y-41918076D01*
X52100576Y-41827102D01*
X52157082Y-41711518D01*
X52168000Y-41636582D01*
X52168000Y-41293418D01*
X52157124Y-41218771D01*
X52167444Y-41158465D01*
X52211242Y-41115740D01*
X52255090Y-41105500D01*
X52911606Y-41105500D01*
X52911607Y-41105500D01*
X52972029Y-41093481D01*
X53032452Y-41081463D01*
X53071224Y-41065403D01*
X53137259Y-41038050D01*
X53198255Y-41033252D01*
X53250424Y-41065222D01*
X53273837Y-41121751D01*
X53269297Y-41160109D01*
X53216597Y-41322301D01*
X53189500Y-41493385D01*
X53189500Y-41666614D01*
X53216597Y-41837698D01*
X53261415Y-41975633D01*
X53261415Y-42036819D01*
X53225451Y-42086319D01*
X53192884Y-42101852D01*
X53122717Y-42120653D01*
X53122716Y-42120654D01*
X53122714Y-42120654D01*
X53122714Y-42120655D01*
X53068789Y-42151788D01*
X53014286Y-42183255D01*
X52925755Y-42271786D01*
X52863155Y-42380213D01*
X52858577Y-42397299D01*
X52830750Y-42501149D01*
X52830750Y-42626351D01*
X52863155Y-42747286D01*
X52925755Y-42855714D01*
X53014286Y-42944245D01*
X53122714Y-43006845D01*
X53243649Y-43039250D01*
X53243651Y-43039250D01*
X53368849Y-43039250D01*
X53368851Y-43039250D01*
X53489786Y-43006845D01*
X53598214Y-42944245D01*
X53686745Y-42855714D01*
X53749345Y-42747286D01*
X53768148Y-42677112D01*
X53801470Y-42625802D01*
X53858591Y-42603875D01*
X53894366Y-42608585D01*
X54032293Y-42653401D01*
X54032297Y-42653402D01*
X54203386Y-42680500D01*
X54203389Y-42680500D01*
X54376614Y-42680500D01*
X54547702Y-42653402D01*
X54547706Y-42653401D01*
X54712438Y-42599876D01*
X54712440Y-42599874D01*
X54712445Y-42599873D01*
X54866788Y-42521232D01*
X55006928Y-42419414D01*
X55129414Y-42296928D01*
X55231232Y-42156788D01*
X55309873Y-42002445D01*
X55309874Y-42002440D01*
X55309876Y-42002438D01*
X55363401Y-41837706D01*
X55363402Y-41837702D01*
X55390500Y-41666614D01*
X55390500Y-41493385D01*
X55363402Y-41322297D01*
X55363401Y-41322293D01*
X55309876Y-41157561D01*
X55309874Y-41157558D01*
X55309873Y-41157557D01*
X55309873Y-41157555D01*
X55231232Y-41003212D01*
X55129414Y-40863072D01*
X55006928Y-40740586D01*
X54866788Y-40638768D01*
X54866787Y-40638767D01*
X54866785Y-40638766D01*
X54712441Y-40560125D01*
X54712438Y-40560123D01*
X54547706Y-40506598D01*
X54547702Y-40506597D01*
X54376614Y-40479500D01*
X54376611Y-40479500D01*
X54203389Y-40479500D01*
X54203386Y-40479500D01*
X54032299Y-40506597D01*
X53944083Y-40535260D01*
X53882898Y-40535259D01*
X53833398Y-40499295D01*
X53814491Y-40441104D01*
X53833399Y-40382914D01*
X53843484Y-40371105D01*
X54056101Y-40158489D01*
X54110617Y-40130712D01*
X54141590Y-40130712D01*
X54168569Y-40134985D01*
X54203387Y-40140500D01*
X54203389Y-40140500D01*
X54376614Y-40140500D01*
X54547702Y-40113402D01*
X54547706Y-40113401D01*
X54712438Y-40059876D01*
X54712440Y-40059874D01*
X54712445Y-40059873D01*
X54866788Y-39981232D01*
X55006928Y-39879414D01*
X55129414Y-39756928D01*
X55231232Y-39616788D01*
X55309873Y-39462445D01*
X55309874Y-39462440D01*
X55309876Y-39462438D01*
X55363401Y-39297706D01*
X55363402Y-39297702D01*
X55390500Y-39126614D01*
X55390500Y-38953385D01*
X55363402Y-38782297D01*
X55363401Y-38782293D01*
X55309876Y-38617561D01*
X55309874Y-38617558D01*
X55309873Y-38617557D01*
X55309873Y-38617555D01*
X55231232Y-38463212D01*
X55129414Y-38323072D01*
X55006928Y-38200586D01*
X54866788Y-38098768D01*
X54866787Y-38098767D01*
X54866785Y-38098766D01*
X54712441Y-38020125D01*
X54636111Y-37995323D01*
X54586612Y-37959359D01*
X54567705Y-37901168D01*
X54586613Y-37842977D01*
X54636113Y-37807014D01*
X54808213Y-37751096D01*
X54997551Y-37654624D01*
X55164809Y-37533104D01*
X55223000Y-37514197D01*
X55281191Y-37533104D01*
X55317155Y-37582604D01*
X55322000Y-37613197D01*
X55322000Y-37717601D01*
X55354405Y-37838536D01*
X55417005Y-37946964D01*
X55505536Y-38035495D01*
X55613964Y-38098095D01*
X55734899Y-38130500D01*
X55734901Y-38130500D01*
X55860099Y-38130500D01*
X55860101Y-38130500D01*
X55981036Y-38098095D01*
X56049001Y-38058855D01*
X56108848Y-38046134D01*
X56164744Y-38071020D01*
X56195337Y-38124008D01*
X56197500Y-38144592D01*
X56197500Y-45931816D01*
X56178593Y-45990007D01*
X56129093Y-46025971D01*
X56067907Y-46025971D01*
X56018407Y-45990007D01*
X56007036Y-45969701D01*
X55953227Y-45839795D01*
X55953226Y-45839794D01*
X55953224Y-45839788D01*
X55831936Y-45629711D01*
X55827860Y-45624399D01*
X55684270Y-45437268D01*
X55684268Y-45437266D01*
X55684265Y-45437262D01*
X55512738Y-45265735D01*
X55512733Y-45265731D01*
X55512731Y-45265729D01*
X55320292Y-45118066D01*
X55320289Y-45118064D01*
X55110212Y-44996776D01*
X55110208Y-44996774D01*
X55110204Y-44996772D01*
X54886105Y-44903948D01*
X54886104Y-44903947D01*
X54886100Y-44903946D01*
X54651789Y-44841162D01*
X54651786Y-44841161D01*
X54651784Y-44841161D01*
X54411289Y-44809500D01*
X54411288Y-44809500D01*
X54168712Y-44809500D01*
X54168710Y-44809500D01*
X53928218Y-44841161D01*
X53928213Y-44841161D01*
X53693907Y-44903944D01*
X53693894Y-44903948D01*
X53469795Y-44996772D01*
X53259707Y-45118066D01*
X53067268Y-45265729D01*
X52895729Y-45437268D01*
X52748066Y-45629707D01*
X52626772Y-45839795D01*
X52541964Y-46044542D01*
X52502228Y-46091068D01*
X52442733Y-46105352D01*
X52386205Y-46081937D01*
X52354235Y-46029768D01*
X52351500Y-46006657D01*
X52351500Y-45853175D01*
X52345098Y-45793629D01*
X52345096Y-45793618D01*
X52294853Y-45658911D01*
X52294852Y-45658909D01*
X52208692Y-45543815D01*
X52208684Y-45543807D01*
X52093590Y-45457647D01*
X52093588Y-45457646D01*
X51958881Y-45407403D01*
X51958870Y-45407401D01*
X51899324Y-45401000D01*
X51847501Y-45401000D01*
X51847500Y-45401001D01*
X51847500Y-46056000D01*
X51828593Y-46114191D01*
X51779093Y-46150155D01*
X51748500Y-46155000D01*
X51597501Y-46155000D01*
X51597500Y-46155001D01*
X51597500Y-46306000D01*
X51578593Y-46364191D01*
X51529093Y-46400155D01*
X51498500Y-46405000D01*
X50843501Y-46405000D01*
X50843500Y-46405001D01*
X50843500Y-46456824D01*
X50843499Y-46456824D01*
X50849901Y-46516370D01*
X50849903Y-46516381D01*
X50900146Y-46651088D01*
X50900147Y-46651090D01*
X50986307Y-46766184D01*
X50986314Y-46766191D01*
X51053328Y-46816357D01*
X51088582Y-46866366D01*
X51093000Y-46895611D01*
X51093000Y-47433672D01*
X51093001Y-47433684D01*
X51107533Y-47506736D01*
X51107535Y-47506742D01*
X51162897Y-47589599D01*
X51162900Y-47589602D01*
X51182566Y-47602742D01*
X51245760Y-47644966D01*
X51301308Y-47656015D01*
X51318815Y-47659498D01*
X51318820Y-47659498D01*
X51318826Y-47659500D01*
X51318827Y-47659500D01*
X51876173Y-47659500D01*
X51876174Y-47659500D01*
X51949240Y-47644966D01*
X51983336Y-47622183D01*
X52038337Y-47605500D01*
X52641954Y-47605500D01*
X52700145Y-47624407D01*
X52727689Y-47654999D01*
X52742050Y-47679873D01*
X52748064Y-47690289D01*
X52895729Y-47882731D01*
X52895731Y-47882733D01*
X52895735Y-47882738D01*
X53067262Y-48054265D01*
X53067266Y-48054268D01*
X53067268Y-48054270D01*
X53259707Y-48201933D01*
X53259711Y-48201936D01*
X53378650Y-48270605D01*
X53419589Y-48316073D01*
X53425985Y-48376923D01*
X53395392Y-48429911D01*
X53339497Y-48454798D01*
X53329160Y-48455340D01*
X27305493Y-48458441D01*
X27247300Y-48439541D01*
X27211330Y-48390045D01*
X27211323Y-48328860D01*
X27247281Y-48279355D01*
X27255963Y-48273715D01*
X27380289Y-48201936D01*
X27572738Y-48054265D01*
X27744265Y-47882738D01*
X27891936Y-47690289D01*
X28013224Y-47480212D01*
X28106054Y-47256100D01*
X28152201Y-47083875D01*
X28185525Y-47032563D01*
X28242647Y-47010636D01*
X28247828Y-47010500D01*
X28464146Y-47010500D01*
X28519146Y-47027183D01*
X28545760Y-47044966D01*
X28601308Y-47056015D01*
X28618815Y-47059498D01*
X28618820Y-47059498D01*
X28618826Y-47059500D01*
X28618827Y-47059500D01*
X29176173Y-47059500D01*
X29176174Y-47059500D01*
X29249240Y-47044966D01*
X29332101Y-46989601D01*
X29387466Y-46906740D01*
X29402000Y-46833674D01*
X29402000Y-46295611D01*
X29420907Y-46237420D01*
X29441672Y-46216357D01*
X29508685Y-46166191D01*
X29508692Y-46166184D01*
X29594852Y-46051090D01*
X29594853Y-46051088D01*
X29645096Y-45916381D01*
X29645098Y-45916370D01*
X29651500Y-45856824D01*
X29651500Y-45805001D01*
X29651499Y-45805000D01*
X28143500Y-45805000D01*
X28139404Y-45809096D01*
X28084887Y-45836872D01*
X28024455Y-45827300D01*
X27983667Y-45788593D01*
X27891936Y-45629711D01*
X27887860Y-45624399D01*
X27744270Y-45437268D01*
X27744268Y-45437266D01*
X27744265Y-45437262D01*
X27572738Y-45265735D01*
X27572733Y-45265731D01*
X27572731Y-45265729D01*
X27399809Y-45133042D01*
X27383190Y-45108862D01*
X27365921Y-45085093D01*
X27365921Y-45083735D01*
X27365153Y-45082618D01*
X27365921Y-45053277D01*
X27365921Y-45023907D01*
X27366718Y-45022809D01*
X27366754Y-45021453D01*
X27384617Y-44998173D01*
X27401885Y-44974407D01*
X27403176Y-44973987D01*
X27404002Y-44972912D01*
X27460076Y-44955500D01*
X27564039Y-44955500D01*
X27622230Y-44974407D01*
X27634042Y-44984496D01*
X27719758Y-45070211D01*
X27719759Y-45070213D01*
X27785015Y-45135468D01*
X27785017Y-45135470D01*
X27833930Y-45163710D01*
X27864940Y-45181614D01*
X27954084Y-45205500D01*
X28044500Y-45205500D01*
X28102691Y-45224407D01*
X28138655Y-45273907D01*
X28143500Y-45304500D01*
X28143500Y-45304999D01*
X28143501Y-45305000D01*
X29651499Y-45305000D01*
X29651500Y-45304999D01*
X29651500Y-45304500D01*
X29670407Y-45246309D01*
X29719907Y-45210345D01*
X29750500Y-45205500D01*
X31993810Y-45205500D01*
X32052001Y-45224407D01*
X32063814Y-45234496D01*
X32219814Y-45390496D01*
X32247591Y-45445013D01*
X32238020Y-45505445D01*
X32194755Y-45548710D01*
X32149810Y-45559500D01*
X30570326Y-45559500D01*
X30570325Y-45559500D01*
X30570315Y-45559501D01*
X30497263Y-45574033D01*
X30497257Y-45574035D01*
X30414400Y-45629397D01*
X30414397Y-45629400D01*
X30359035Y-45712257D01*
X30359033Y-45712263D01*
X30344501Y-45785315D01*
X30344500Y-45785327D01*
X30344500Y-47534672D01*
X30344501Y-47534684D01*
X30359033Y-47607736D01*
X30359035Y-47607742D01*
X30414397Y-47690599D01*
X30414400Y-47690602D01*
X30454808Y-47717601D01*
X30497260Y-47745966D01*
X30545180Y-47755498D01*
X30570315Y-47760498D01*
X30570320Y-47760498D01*
X30570326Y-47760500D01*
X30570327Y-47760500D01*
X32319673Y-47760500D01*
X32319674Y-47760500D01*
X32392740Y-47745966D01*
X32475601Y-47690601D01*
X32530966Y-47607740D01*
X32545500Y-47534674D01*
X32545500Y-45955190D01*
X32564407Y-45896999D01*
X32613907Y-45861035D01*
X32675093Y-45861035D01*
X32714504Y-45885186D01*
X32948609Y-46119291D01*
X32976386Y-46173808D01*
X32966820Y-46234229D01*
X32965130Y-46237546D01*
X32965123Y-46237561D01*
X32911598Y-46402293D01*
X32911597Y-46402297D01*
X32884500Y-46573385D01*
X32884500Y-46746614D01*
X32911597Y-46917702D01*
X32911598Y-46917706D01*
X32965123Y-47082438D01*
X32965125Y-47082441D01*
X33041218Y-47231785D01*
X33043768Y-47236788D01*
X33145586Y-47376928D01*
X33268072Y-47499414D01*
X33408212Y-47601232D01*
X33562555Y-47679873D01*
X33562557Y-47679873D01*
X33562558Y-47679874D01*
X33562561Y-47679876D01*
X33727293Y-47733401D01*
X33727297Y-47733402D01*
X33898386Y-47760500D01*
X33898389Y-47760500D01*
X34071614Y-47760500D01*
X34242702Y-47733402D01*
X34242706Y-47733401D01*
X34407438Y-47679876D01*
X34407440Y-47679874D01*
X34407445Y-47679873D01*
X34561788Y-47601232D01*
X34701928Y-47499414D01*
X34824414Y-47376928D01*
X34926232Y-47236788D01*
X35004873Y-47082445D01*
X35029675Y-47006111D01*
X35065639Y-46956612D01*
X35123830Y-46937705D01*
X35182021Y-46956612D01*
X35217985Y-47006112D01*
X35273904Y-47178215D01*
X35370375Y-47367552D01*
X35495277Y-47539464D01*
X35645535Y-47689722D01*
X35817447Y-47814624D01*
X36006784Y-47911095D01*
X36208877Y-47976758D01*
X36274999Y-47987231D01*
X36275000Y-47987230D01*
X36275000Y-47093012D01*
X36332007Y-47125925D01*
X36459174Y-47160000D01*
X36590826Y-47160000D01*
X36717993Y-47125925D01*
X36775000Y-47093012D01*
X36775000Y-47987231D01*
X36841122Y-47976758D01*
X37043215Y-47911095D01*
X37232552Y-47814624D01*
X37404464Y-47689722D01*
X37554722Y-47539464D01*
X37679624Y-47367552D01*
X37776096Y-47178213D01*
X37832014Y-47006113D01*
X37867978Y-46956613D01*
X37926168Y-46937705D01*
X37984359Y-46956612D01*
X38020323Y-47006111D01*
X38045125Y-47082441D01*
X38121218Y-47231785D01*
X38123768Y-47236788D01*
X38225586Y-47376928D01*
X38348072Y-47499414D01*
X38488212Y-47601232D01*
X38642555Y-47679873D01*
X38642557Y-47679873D01*
X38642558Y-47679874D01*
X38642561Y-47679876D01*
X38807293Y-47733401D01*
X38807297Y-47733402D01*
X38978386Y-47760500D01*
X38978389Y-47760500D01*
X39151614Y-47760500D01*
X39322702Y-47733402D01*
X39322706Y-47733401D01*
X39487438Y-47679876D01*
X39487440Y-47679874D01*
X39487445Y-47679873D01*
X39641788Y-47601232D01*
X39781928Y-47499414D01*
X39904414Y-47376928D01*
X40006232Y-47236788D01*
X40084873Y-47082445D01*
X40084874Y-47082440D01*
X40084876Y-47082438D01*
X40138401Y-46917706D01*
X40138402Y-46917702D01*
X40165500Y-46746614D01*
X40165500Y-46573387D01*
X40156470Y-46516381D01*
X40155165Y-46508140D01*
X40164735Y-46447711D01*
X40182939Y-46422653D01*
X40398027Y-46207565D01*
X40452542Y-46179790D01*
X40512974Y-46189361D01*
X40556239Y-46232626D01*
X40565810Y-46293058D01*
X40562184Y-46308164D01*
X40531597Y-46402301D01*
X40504500Y-46573385D01*
X40504500Y-46746614D01*
X40531597Y-46917702D01*
X40531598Y-46917706D01*
X40585123Y-47082438D01*
X40585125Y-47082441D01*
X40661218Y-47231785D01*
X40663768Y-47236788D01*
X40765586Y-47376928D01*
X40888072Y-47499414D01*
X41028212Y-47601232D01*
X41182555Y-47679873D01*
X41182557Y-47679873D01*
X41182558Y-47679874D01*
X41182561Y-47679876D01*
X41347293Y-47733401D01*
X41347297Y-47733402D01*
X41518386Y-47760500D01*
X41518389Y-47760500D01*
X41691614Y-47760500D01*
X41862702Y-47733402D01*
X41862706Y-47733401D01*
X42027438Y-47679876D01*
X42027440Y-47679874D01*
X42027445Y-47679873D01*
X42181788Y-47601232D01*
X42321928Y-47499414D01*
X42444414Y-47376928D01*
X42546232Y-47236788D01*
X42624873Y-47082445D01*
X42624874Y-47082440D01*
X42624876Y-47082438D01*
X42678401Y-46917706D01*
X42678402Y-46917702D01*
X42705500Y-46746614D01*
X42705500Y-46573385D01*
X42678402Y-46402297D01*
X42678401Y-46402293D01*
X42624876Y-46237563D01*
X42624872Y-46237553D01*
X42623186Y-46234244D01*
X42613611Y-46173813D01*
X42641386Y-46119295D01*
X42641385Y-46119295D01*
X43877970Y-44882712D01*
X43877971Y-44882709D01*
X43877996Y-44882685D01*
X43932513Y-44854908D01*
X43992945Y-44864479D01*
X44036210Y-44907744D01*
X44047000Y-44952689D01*
X44047000Y-45476749D01*
X44028093Y-45534940D01*
X43978593Y-45570904D01*
X43963488Y-45574530D01*
X43887306Y-45586596D01*
X43887300Y-45586597D01*
X43887299Y-45586598D01*
X43836776Y-45603014D01*
X43722554Y-45640127D01*
X43568214Y-45718766D01*
X43428073Y-45820585D01*
X43305585Y-45943073D01*
X43203766Y-46083214D01*
X43125125Y-46237558D01*
X43125123Y-46237561D01*
X43071598Y-46402293D01*
X43071597Y-46402297D01*
X43044500Y-46573385D01*
X43044500Y-46746614D01*
X43071597Y-46917702D01*
X43071598Y-46917706D01*
X43125123Y-47082438D01*
X43125125Y-47082441D01*
X43201218Y-47231785D01*
X43203768Y-47236788D01*
X43305586Y-47376928D01*
X43428072Y-47499414D01*
X43568212Y-47601232D01*
X43722555Y-47679873D01*
X43722557Y-47679873D01*
X43722558Y-47679874D01*
X43722561Y-47679876D01*
X43887293Y-47733401D01*
X43887297Y-47733402D01*
X44058386Y-47760500D01*
X44058389Y-47760500D01*
X44231614Y-47760500D01*
X44402702Y-47733402D01*
X44402706Y-47733401D01*
X44567438Y-47679876D01*
X44567440Y-47679874D01*
X44567445Y-47679873D01*
X44721788Y-47601232D01*
X44861928Y-47499414D01*
X44984414Y-47376928D01*
X45086232Y-47236788D01*
X45164873Y-47082445D01*
X45164874Y-47082440D01*
X45164876Y-47082438D01*
X45218401Y-46917706D01*
X45218402Y-46917702D01*
X45245500Y-46746614D01*
X45245500Y-46573385D01*
X45218402Y-46402297D01*
X45218401Y-46402293D01*
X45164876Y-46237561D01*
X45164874Y-46237558D01*
X45164873Y-46237557D01*
X45164873Y-46237555D01*
X45086232Y-46083212D01*
X44984414Y-45943072D01*
X44861928Y-45820586D01*
X44849906Y-45811852D01*
X44788808Y-45767460D01*
X44752845Y-45717959D01*
X44748000Y-45687368D01*
X44748000Y-39044882D01*
X44766907Y-38986691D01*
X44816407Y-38950727D01*
X44877593Y-38950727D01*
X44896500Y-38959146D01*
X45004310Y-39021390D01*
X45004308Y-39021390D01*
X45004312Y-39021391D01*
X45004314Y-39021392D01*
X45131608Y-39055500D01*
X45131610Y-39055500D01*
X45263389Y-39055500D01*
X45263392Y-39055500D01*
X45297379Y-39046393D01*
X45358478Y-39049595D01*
X45406028Y-39088100D01*
X45422000Y-39142020D01*
X45422000Y-42476143D01*
X45436565Y-42530501D01*
X45445884Y-42565284D01*
X45445885Y-42565287D01*
X45445886Y-42565288D01*
X45492030Y-42645212D01*
X46305505Y-43458687D01*
X46333281Y-43513202D01*
X46334500Y-43528689D01*
X46334500Y-45544823D01*
X46315593Y-45603014D01*
X46266095Y-45638976D01*
X46265117Y-45639294D01*
X46262553Y-45640127D01*
X46108214Y-45718766D01*
X45968073Y-45820585D01*
X45845585Y-45943073D01*
X45743766Y-46083214D01*
X45665125Y-46237558D01*
X45665123Y-46237561D01*
X45611598Y-46402293D01*
X45611597Y-46402297D01*
X45584500Y-46573385D01*
X45584500Y-46746614D01*
X45611597Y-46917702D01*
X45611598Y-46917706D01*
X45665123Y-47082438D01*
X45665125Y-47082441D01*
X45741218Y-47231785D01*
X45743768Y-47236788D01*
X45845586Y-47376928D01*
X45968072Y-47499414D01*
X46108212Y-47601232D01*
X46262555Y-47679873D01*
X46262557Y-47679873D01*
X46262558Y-47679874D01*
X46262561Y-47679876D01*
X46427293Y-47733401D01*
X46427297Y-47733402D01*
X46598386Y-47760500D01*
X46598389Y-47760500D01*
X46771614Y-47760500D01*
X46942702Y-47733402D01*
X46942706Y-47733401D01*
X47107438Y-47679876D01*
X47107440Y-47679874D01*
X47107445Y-47679873D01*
X47261788Y-47601232D01*
X47401928Y-47499414D01*
X47524414Y-47376928D01*
X47626232Y-47236788D01*
X47704873Y-47082445D01*
X47729675Y-47006111D01*
X47765639Y-46956612D01*
X47823830Y-46937705D01*
X47882021Y-46956612D01*
X47917985Y-47006112D01*
X47973904Y-47178215D01*
X48070375Y-47367552D01*
X48195277Y-47539464D01*
X48345535Y-47689722D01*
X48517447Y-47814624D01*
X48706784Y-47911095D01*
X48908877Y-47976758D01*
X48974999Y-47987231D01*
X48975000Y-47987230D01*
X48975000Y-47093012D01*
X49032007Y-47125925D01*
X49159174Y-47160000D01*
X49290826Y-47160000D01*
X49417993Y-47125925D01*
X49475000Y-47093012D01*
X49475000Y-47987231D01*
X49541122Y-47976758D01*
X49743215Y-47911095D01*
X49932552Y-47814624D01*
X50104464Y-47689722D01*
X50254722Y-47539464D01*
X50379624Y-47367552D01*
X50476095Y-47178215D01*
X50541758Y-46976122D01*
X50552231Y-46910000D01*
X49658012Y-46910000D01*
X49690925Y-46852993D01*
X49725000Y-46725826D01*
X49725000Y-46594174D01*
X49690925Y-46467007D01*
X49658012Y-46410000D01*
X50552231Y-46410000D01*
X50552231Y-46409999D01*
X50541758Y-46343877D01*
X50476095Y-46141784D01*
X50379624Y-45952447D01*
X50347848Y-45908712D01*
X50307498Y-45853175D01*
X50843500Y-45853175D01*
X50843500Y-45904999D01*
X50843501Y-45905000D01*
X51347499Y-45905000D01*
X51347500Y-45904999D01*
X51347500Y-45401001D01*
X51347499Y-45401000D01*
X51295676Y-45401000D01*
X51236129Y-45407401D01*
X51236118Y-45407403D01*
X51101411Y-45457646D01*
X51101409Y-45457647D01*
X50986315Y-45543807D01*
X50986307Y-45543815D01*
X50900147Y-45658909D01*
X50900146Y-45658911D01*
X50849903Y-45793618D01*
X50849901Y-45793629D01*
X50843500Y-45853175D01*
X50307498Y-45853175D01*
X50254722Y-45780535D01*
X50104464Y-45630277D01*
X49932552Y-45505375D01*
X49743215Y-45408904D01*
X49541120Y-45343240D01*
X49475000Y-45332767D01*
X49475000Y-46226988D01*
X49417993Y-46194075D01*
X49290826Y-46160000D01*
X49159174Y-46160000D01*
X49032007Y-46194075D01*
X48975000Y-46226988D01*
X48975000Y-45332768D01*
X48974999Y-45332767D01*
X48908880Y-45343240D01*
X48908878Y-45343240D01*
X48706784Y-45408904D01*
X48517447Y-45505375D01*
X48345535Y-45630277D01*
X48195277Y-45780535D01*
X48070375Y-45952447D01*
X47973904Y-46141784D01*
X47917985Y-46313887D01*
X47882021Y-46363387D01*
X47823830Y-46382294D01*
X47765639Y-46363387D01*
X47729676Y-46313887D01*
X47704876Y-46237561D01*
X47704874Y-46237558D01*
X47704873Y-46237557D01*
X47704873Y-46237555D01*
X47626232Y-46083212D01*
X47524414Y-45943072D01*
X47401928Y-45820586D01*
X47261788Y-45718768D01*
X47261787Y-45718767D01*
X47261785Y-45718766D01*
X47107446Y-45640127D01*
X47105437Y-45639474D01*
X47103904Y-45638976D01*
X47054406Y-45603011D01*
X47035500Y-45544823D01*
X47035500Y-43296357D01*
X47030363Y-43277186D01*
X47011614Y-43207212D01*
X47001843Y-43190288D01*
X47001842Y-43190286D01*
X47001842Y-43190285D01*
X46971963Y-43138535D01*
X46965470Y-43127288D01*
X46151996Y-42313814D01*
X46124219Y-42259297D01*
X46123000Y-42243810D01*
X46123000Y-39930012D01*
X48372500Y-39930012D01*
X48372500Y-40054999D01*
X48372501Y-40055000D01*
X49322499Y-40055000D01*
X49322500Y-40054999D01*
X49322500Y-39230001D01*
X49822500Y-39230001D01*
X49822500Y-40054999D01*
X49822501Y-40055000D01*
X50772498Y-40055000D01*
X50772499Y-40054999D01*
X50772499Y-39930013D01*
X50762007Y-39827312D01*
X50762004Y-39827300D01*
X50706856Y-39660875D01*
X50614819Y-39511659D01*
X50490840Y-39387680D01*
X50341624Y-39295643D01*
X50175193Y-39240493D01*
X50072487Y-39230000D01*
X49822501Y-39230000D01*
X49822500Y-39230001D01*
X49322500Y-39230001D01*
X49322499Y-39230000D01*
X49072513Y-39230000D01*
X48969812Y-39240492D01*
X48969800Y-39240495D01*
X48803375Y-39295643D01*
X48654159Y-39387680D01*
X48530180Y-39511659D01*
X48438143Y-39660875D01*
X48382993Y-39827306D01*
X48372500Y-39930012D01*
X46123000Y-39930012D01*
X46123000Y-38588183D01*
X46141907Y-38529992D01*
X46191407Y-38494028D01*
X46252593Y-38494028D01*
X46271498Y-38502445D01*
X46304314Y-38521392D01*
X46431608Y-38555500D01*
X46431610Y-38555500D01*
X46563390Y-38555500D01*
X46563392Y-38555500D01*
X46690686Y-38521392D01*
X46690688Y-38521390D01*
X46690690Y-38521390D01*
X46804809Y-38455503D01*
X46804809Y-38455502D01*
X46804814Y-38455500D01*
X46898000Y-38362314D01*
X46898003Y-38362309D01*
X46963890Y-38248190D01*
X46963890Y-38248188D01*
X46963892Y-38248186D01*
X46998000Y-38120892D01*
X46998000Y-37989108D01*
X46963892Y-37861814D01*
X46963890Y-37861811D01*
X46963890Y-37861809D01*
X46898003Y-37747690D01*
X46898001Y-37747688D01*
X46898000Y-37747686D01*
X46875420Y-37725106D01*
X46868352Y-37711234D01*
X46857319Y-37700251D01*
X46854813Y-37684661D01*
X46847645Y-37670592D01*
X46850080Y-37655212D01*
X46847610Y-37639840D01*
X46854736Y-37625813D01*
X46857216Y-37610160D01*
X46875263Y-37585261D01*
X46933397Y-37526862D01*
X46955426Y-37515574D01*
X46975897Y-37501649D01*
X46982220Y-37501844D01*
X46987851Y-37498960D01*
X47012312Y-37502777D01*
X47037053Y-37503544D01*
X47047027Y-37507760D01*
X47060982Y-37514582D01*
X47135918Y-37525500D01*
X47135921Y-37525500D01*
X47380179Y-37525500D01*
X47438370Y-37544407D01*
X47474334Y-37593907D01*
X47474334Y-37655093D01*
X47450184Y-37694501D01*
X47419577Y-37725109D01*
X47396997Y-37747689D01*
X47396996Y-37747690D01*
X47331109Y-37861809D01*
X47312919Y-37929696D01*
X47297000Y-37989108D01*
X47297000Y-38120892D01*
X47319537Y-38205001D01*
X47331109Y-38248190D01*
X47396996Y-38362309D01*
X47396998Y-38362311D01*
X47397000Y-38362314D01*
X47490186Y-38455500D01*
X47490188Y-38455501D01*
X47490190Y-38455503D01*
X47604310Y-38521390D01*
X47604308Y-38521390D01*
X47604312Y-38521391D01*
X47604314Y-38521392D01*
X47731608Y-38555500D01*
X47731610Y-38555500D01*
X47863390Y-38555500D01*
X47863392Y-38555500D01*
X47990686Y-38521392D01*
X47990688Y-38521390D01*
X47990690Y-38521390D01*
X48104809Y-38455503D01*
X48104809Y-38455502D01*
X48104814Y-38455500D01*
X48198000Y-38362314D01*
X48198003Y-38362309D01*
X48263890Y-38248190D01*
X48263890Y-38248188D01*
X48263892Y-38248186D01*
X48298000Y-38120892D01*
X48298000Y-37989108D01*
X48263892Y-37861814D01*
X48263890Y-37861811D01*
X48263890Y-37861809D01*
X48198003Y-37747690D01*
X48198001Y-37747688D01*
X48198000Y-37747686D01*
X48104814Y-37654500D01*
X47990686Y-37588608D01*
X47863392Y-37554500D01*
X47812185Y-37554500D01*
X47753994Y-37535593D01*
X47718030Y-37486093D01*
X47718030Y-37424907D01*
X47727155Y-37404795D01*
X47733465Y-37394212D01*
X47760576Y-37367102D01*
X47810372Y-37265242D01*
X47812470Y-37261725D01*
X47832551Y-37244150D01*
X47851102Y-37224976D01*
X47855303Y-37224239D01*
X47858513Y-37221430D01*
X47885088Y-37219015D01*
X47911368Y-37214406D01*
X47915199Y-37216278D01*
G37*
G04 #@! TD.AperFunction*
G04 #@! TA.AperFunction,Conductor*
G36*
X32259850Y-41429834D02*
G01*
X32303115Y-41473099D01*
X32312686Y-41533531D01*
X32308880Y-41549184D01*
X32282993Y-41627306D01*
X32272500Y-41730012D01*
X32272500Y-42004999D01*
X32272501Y-42005000D01*
X33261000Y-42005000D01*
X33319191Y-42023907D01*
X33355155Y-42073407D01*
X33360000Y-42104000D01*
X33360000Y-42254999D01*
X33360001Y-42255000D01*
X33511000Y-42255000D01*
X33569191Y-42273907D01*
X33605155Y-42323407D01*
X33610000Y-42354000D01*
X33610000Y-43479998D01*
X33610001Y-43479999D01*
X33747486Y-43479999D01*
X33850187Y-43469507D01*
X33851337Y-43469261D01*
X33851962Y-43469325D01*
X33855573Y-43468957D01*
X33855649Y-43469707D01*
X33912197Y-43475561D01*
X33957731Y-43516431D01*
X33970546Y-43576259D01*
X33957809Y-43615564D01*
X33931109Y-43661810D01*
X33931108Y-43661814D01*
X33897000Y-43789108D01*
X33897000Y-43920892D01*
X33908487Y-43963765D01*
X33912805Y-43979878D01*
X33909602Y-44040979D01*
X33871097Y-44088529D01*
X33817178Y-44104500D01*
X32217775Y-44104500D01*
X32159584Y-44085593D01*
X32147771Y-44075504D01*
X31836081Y-43763814D01*
X31808304Y-43709297D01*
X31807085Y-43693810D01*
X31807085Y-43692401D01*
X31807085Y-43692399D01*
X31774680Y-43571464D01*
X31712080Y-43463036D01*
X31623549Y-43374505D01*
X31515121Y-43311905D01*
X31394186Y-43279500D01*
X31268984Y-43279500D01*
X31206078Y-43296356D01*
X31148048Y-43311905D01*
X31039621Y-43374505D01*
X30951090Y-43463036D01*
X30888490Y-43571463D01*
X30888490Y-43571464D01*
X30856085Y-43692399D01*
X30856085Y-43817601D01*
X30888490Y-43938536D01*
X30951090Y-44046964D01*
X31039621Y-44135495D01*
X31148049Y-44198095D01*
X31268984Y-44230500D01*
X31270395Y-44230500D01*
X31271356Y-44230812D01*
X31275417Y-44231347D01*
X31275317Y-44232099D01*
X31277992Y-44232968D01*
X31285882Y-44231719D01*
X31306537Y-44242243D01*
X31328586Y-44249407D01*
X31340399Y-44259496D01*
X31416399Y-44335496D01*
X31444176Y-44390013D01*
X31434605Y-44450445D01*
X31391340Y-44493710D01*
X31346395Y-44504500D01*
X29327450Y-44504500D01*
X29269259Y-44485593D01*
X29233295Y-44436093D01*
X29233295Y-44374907D01*
X29257446Y-44335496D01*
X30112944Y-43479998D01*
X30971760Y-42621181D01*
X31026275Y-42593406D01*
X31086707Y-42602977D01*
X31126870Y-42643140D01*
X31127863Y-42642567D01*
X31196996Y-42762309D01*
X31196998Y-42762311D01*
X31197000Y-42762314D01*
X31290186Y-42855500D01*
X31290188Y-42855501D01*
X31290190Y-42855503D01*
X31404310Y-42921390D01*
X31404308Y-42921390D01*
X31404312Y-42921391D01*
X31404314Y-42921392D01*
X31531608Y-42955500D01*
X31531610Y-42955500D01*
X31663390Y-42955500D01*
X31663392Y-42955500D01*
X31790686Y-42921392D01*
X31790688Y-42921390D01*
X31790690Y-42921390D01*
X31904809Y-42855503D01*
X31904809Y-42855502D01*
X31904814Y-42855500D01*
X31998000Y-42762314D01*
X31998003Y-42762309D01*
X32063890Y-42648190D01*
X32063890Y-42648188D01*
X32063892Y-42648186D01*
X32069296Y-42628018D01*
X32272501Y-42628018D01*
X32272501Y-42779986D01*
X32282992Y-42882687D01*
X32282995Y-42882699D01*
X32338143Y-43049124D01*
X32430180Y-43198340D01*
X32554159Y-43322319D01*
X32703375Y-43414356D01*
X32869806Y-43469506D01*
X32972513Y-43479999D01*
X33110000Y-43479999D01*
X33110000Y-42505001D01*
X33109999Y-42505000D01*
X32288461Y-42505000D01*
X32272501Y-42628018D01*
X32069296Y-42628018D01*
X32098000Y-42520892D01*
X32098000Y-42389108D01*
X32063892Y-42261814D01*
X32063890Y-42261811D01*
X32063890Y-42261809D01*
X31998003Y-42147690D01*
X31998001Y-42147688D01*
X31998000Y-42147686D01*
X31904814Y-42054500D01*
X31904811Y-42054498D01*
X31904809Y-42054496D01*
X31785067Y-41985363D01*
X31786533Y-41982822D01*
X31749251Y-41950949D01*
X31734996Y-41891447D01*
X31758437Y-41834931D01*
X31763670Y-41829271D01*
X32144903Y-41448038D01*
X32199418Y-41420263D01*
X32259850Y-41429834D01*
G37*
G04 #@! TD.AperFunction*
G04 #@! TA.AperFunction,Conductor*
G36*
X42004074Y-40433776D02*
G01*
X42041321Y-40482317D01*
X42047000Y-40515365D01*
X42047000Y-43526222D01*
X42028093Y-43584413D01*
X42018004Y-43596226D01*
X41458013Y-44156217D01*
X41403496Y-44183994D01*
X41343064Y-44174423D01*
X41299799Y-44131158D01*
X41289009Y-44086213D01*
X41289009Y-41461845D01*
X41307916Y-41403654D01*
X41318005Y-41391841D01*
X41482855Y-41226991D01*
X41499626Y-41204500D01*
X41528123Y-41166283D01*
X41528124Y-41166281D01*
X41569897Y-41044598D01*
X41569897Y-40915938D01*
X41528124Y-40794255D01*
X41509218Y-40768901D01*
X41482855Y-40733546D01*
X41447358Y-40698049D01*
X41419581Y-40643532D01*
X41429152Y-40583100D01*
X41472417Y-40539835D01*
X41530288Y-40529893D01*
X41534897Y-40530500D01*
X41534899Y-40530500D01*
X41660099Y-40530500D01*
X41660101Y-40530500D01*
X41781036Y-40498095D01*
X41889464Y-40435495D01*
X41889466Y-40435492D01*
X41895083Y-40432250D01*
X41896027Y-40433886D01*
X41945408Y-40416399D01*
X42004074Y-40433776D01*
G37*
G04 #@! TD.AperFunction*
G04 #@! TA.AperFunction,Conductor*
G36*
X26351709Y-36379407D02*
G01*
X26363522Y-36389496D01*
X26968004Y-36993978D01*
X26995781Y-37048495D01*
X26997000Y-37063982D01*
X26997000Y-37306000D01*
X26978093Y-37364191D01*
X26928593Y-37400155D01*
X26898000Y-37405000D01*
X26785001Y-37405000D01*
X26785000Y-37405001D01*
X26785000Y-38106000D01*
X26766093Y-38164191D01*
X26716593Y-38200155D01*
X26686000Y-38205000D01*
X26535001Y-38205000D01*
X26535000Y-38205001D01*
X26535000Y-38356000D01*
X26516093Y-38414191D01*
X26466593Y-38450155D01*
X26436000Y-38455000D01*
X25375204Y-38455000D01*
X25375399Y-38457486D01*
X25375401Y-38457493D01*
X25421219Y-38615200D01*
X25421219Y-38615201D01*
X25504814Y-38756552D01*
X25599969Y-38851707D01*
X25627746Y-38906224D01*
X25627746Y-38937197D01*
X25622000Y-38973477D01*
X25622000Y-39336520D01*
X25627747Y-39372800D01*
X25618175Y-39433232D01*
X25599970Y-39458290D01*
X25504816Y-39553444D01*
X25504815Y-39553446D01*
X25421219Y-39694798D01*
X25421219Y-39694799D01*
X25375401Y-39852506D01*
X25375399Y-39852513D01*
X25375204Y-39855000D01*
X27720436Y-39855000D01*
X27720636Y-39854888D01*
X27721583Y-39855000D01*
X27738099Y-39855000D01*
X27738099Y-39856952D01*
X27781398Y-39862071D01*
X27809966Y-39881979D01*
X28023198Y-40095210D01*
X28213458Y-40285470D01*
X28236990Y-40299056D01*
X28277450Y-40322416D01*
X28277453Y-40322417D01*
X28277456Y-40322419D01*
X28293382Y-40331614D01*
X28382526Y-40355500D01*
X28382527Y-40355500D01*
X28474814Y-40355500D01*
X28851100Y-40355500D01*
X28906101Y-40372184D01*
X28953312Y-40403729D01*
X29051053Y-40423172D01*
X29098356Y-40413762D01*
X29159116Y-40420953D01*
X29187673Y-40440856D01*
X29380584Y-40633766D01*
X29570333Y-40823515D01*
X29591083Y-40835495D01*
X29638842Y-40863069D01*
X29638845Y-40863070D01*
X29638848Y-40863072D01*
X29650257Y-40869659D01*
X29739401Y-40893545D01*
X29739402Y-40893545D01*
X29831689Y-40893545D01*
X31469025Y-40893545D01*
X31527216Y-40912452D01*
X31563180Y-40961952D01*
X31563180Y-41023138D01*
X31539029Y-41062549D01*
X28526074Y-44075504D01*
X28518956Y-44079130D01*
X28514261Y-44085593D01*
X28492212Y-44092756D01*
X28471557Y-44103281D01*
X28456070Y-44104500D01*
X28352102Y-44104500D01*
X28293911Y-44085593D01*
X28282098Y-44075503D01*
X28226807Y-44020212D01*
X28131126Y-43924530D01*
X28051202Y-43878386D01*
X27962058Y-43854500D01*
X27962056Y-43854500D01*
X26331614Y-43854500D01*
X26273423Y-43835593D01*
X26261610Y-43825504D01*
X25385610Y-42949504D01*
X25357833Y-42894987D01*
X25367404Y-42834555D01*
X25410669Y-42791290D01*
X25455614Y-42780500D01*
X25681670Y-42780500D01*
X25681674Y-42780500D01*
X25739799Y-42774251D01*
X25788509Y-42756083D01*
X25871276Y-42725213D01*
X25871276Y-42725212D01*
X25871278Y-42725212D01*
X25982346Y-42642065D01*
X26040258Y-42622330D01*
X26098713Y-42640404D01*
X26125933Y-42669347D01*
X26177553Y-42753035D01*
X26299464Y-42874946D01*
X26446193Y-42965451D01*
X26609851Y-43019681D01*
X26710845Y-43029999D01*
X26810000Y-43029999D01*
X26810000Y-42305001D01*
X27310000Y-42305001D01*
X27310000Y-43029998D01*
X27310001Y-43029999D01*
X27409154Y-43029999D01*
X27510142Y-43019682D01*
X27510154Y-43019679D01*
X27673806Y-42965451D01*
X27820535Y-42874946D01*
X27942446Y-42753035D01*
X28032951Y-42606306D01*
X28087181Y-42442648D01*
X28097500Y-42341655D01*
X28097500Y-42305001D01*
X28097499Y-42305000D01*
X27310001Y-42305000D01*
X27310000Y-42305001D01*
X26810000Y-42305001D01*
X26810000Y-42154000D01*
X26828907Y-42095809D01*
X26878407Y-42059845D01*
X26909000Y-42055000D01*
X27059999Y-42055000D01*
X27060000Y-42054999D01*
X27060000Y-41904000D01*
X27078907Y-41845809D01*
X27128407Y-41809845D01*
X27159000Y-41805000D01*
X28097498Y-41805000D01*
X28097499Y-41804999D01*
X28097499Y-41768347D01*
X28091015Y-41704886D01*
X28103909Y-41645074D01*
X28149498Y-41604266D01*
X28210366Y-41598047D01*
X28259503Y-41624817D01*
X28290186Y-41655500D01*
X28290188Y-41655501D01*
X28290190Y-41655503D01*
X28404310Y-41721390D01*
X28404308Y-41721390D01*
X28404312Y-41721391D01*
X28404314Y-41721392D01*
X28531608Y-41755500D01*
X28531610Y-41755500D01*
X28663390Y-41755500D01*
X28663392Y-41755500D01*
X28790686Y-41721392D01*
X28790688Y-41721390D01*
X28790690Y-41721390D01*
X28904809Y-41655503D01*
X28904809Y-41655502D01*
X28904814Y-41655500D01*
X28998000Y-41562314D01*
X29003656Y-41552517D01*
X29063890Y-41448190D01*
X29063890Y-41448188D01*
X29063892Y-41448186D01*
X29098000Y-41320892D01*
X29098000Y-41189108D01*
X29063892Y-41061814D01*
X29063890Y-41061811D01*
X29063890Y-41061809D01*
X28998003Y-40947690D01*
X28998001Y-40947688D01*
X28998000Y-40947686D01*
X28904814Y-40854500D01*
X28904811Y-40854498D01*
X28904809Y-40854496D01*
X28790689Y-40788609D01*
X28790691Y-40788609D01*
X28731260Y-40772685D01*
X28663392Y-40754500D01*
X28531608Y-40754500D01*
X28463740Y-40772685D01*
X28404309Y-40788609D01*
X28290190Y-40854496D01*
X28196996Y-40947690D01*
X28131109Y-41061809D01*
X28116991Y-41114500D01*
X28098227Y-41184531D01*
X28097000Y-41189109D01*
X28097000Y-41272510D01*
X28078093Y-41330701D01*
X28028593Y-41366665D01*
X27967407Y-41366665D01*
X27927996Y-41342514D01*
X27820535Y-41235053D01*
X27673806Y-41144548D01*
X27510148Y-41090318D01*
X27409155Y-41080000D01*
X27233263Y-41080000D01*
X27175072Y-41061093D01*
X27139108Y-41011593D01*
X27139108Y-40950407D01*
X27175072Y-40900907D01*
X27205643Y-40885931D01*
X27307700Y-40856280D01*
X27307701Y-40856280D01*
X27449052Y-40772685D01*
X27565185Y-40656552D01*
X27648780Y-40515201D01*
X27648780Y-40515200D01*
X27694598Y-40357493D01*
X27694600Y-40357486D01*
X27694796Y-40355000D01*
X26785001Y-40355000D01*
X26785000Y-40355001D01*
X26785000Y-40904999D01*
X26790997Y-40910996D01*
X26818774Y-40965513D01*
X26809203Y-41025945D01*
X26765938Y-41069210D01*
X26721001Y-41080000D01*
X26710845Y-41080000D01*
X26609857Y-41090317D01*
X26609845Y-41090320D01*
X26446193Y-41144548D01*
X26299464Y-41235053D01*
X26177555Y-41356962D01*
X26125933Y-41440653D01*
X26079291Y-41480253D01*
X26018281Y-41484876D01*
X25982344Y-41467932D01*
X25871276Y-41384786D01*
X25739804Y-41335750D01*
X25739799Y-41335749D01*
X25739797Y-41335748D01*
X25739793Y-41335748D01*
X25713511Y-41332922D01*
X25681674Y-41329500D01*
X25681670Y-41329500D01*
X25146190Y-41329500D01*
X25087999Y-41310593D01*
X25076186Y-41300504D01*
X24639496Y-40863814D01*
X24635869Y-40856696D01*
X24629407Y-40852001D01*
X24622243Y-40829952D01*
X24611719Y-40809297D01*
X24610500Y-40793810D01*
X24610500Y-40754499D01*
X24629407Y-40696308D01*
X24678907Y-40660344D01*
X24709500Y-40655499D01*
X24804021Y-40655499D01*
X24804022Y-40655498D01*
X24850911Y-40648072D01*
X24897799Y-40640647D01*
X24897799Y-40640646D01*
X24897804Y-40640646D01*
X25010842Y-40583050D01*
X25100550Y-40493342D01*
X25158146Y-40380304D01*
X25162154Y-40355000D01*
X25375204Y-40355000D01*
X25375399Y-40357486D01*
X25375401Y-40357493D01*
X25421219Y-40515200D01*
X25421219Y-40515201D01*
X25504814Y-40656552D01*
X25620947Y-40772685D01*
X25762299Y-40856280D01*
X25920010Y-40902100D01*
X25956863Y-40905000D01*
X26284999Y-40905000D01*
X26285000Y-40904999D01*
X26285000Y-40355001D01*
X26284999Y-40355000D01*
X25375204Y-40355000D01*
X25162154Y-40355000D01*
X25173000Y-40286519D01*
X25172999Y-39923482D01*
X25167805Y-39890686D01*
X25158147Y-39829700D01*
X25158146Y-39829698D01*
X25158146Y-39829696D01*
X25100550Y-39716658D01*
X25010842Y-39626950D01*
X24897804Y-39569354D01*
X24897805Y-39569354D01*
X24804021Y-39554500D01*
X23715978Y-39554500D01*
X23715976Y-39554501D01*
X23622200Y-39569352D01*
X23622195Y-39569354D01*
X23509159Y-39626949D01*
X23419449Y-39716659D01*
X23361854Y-39829695D01*
X23347000Y-39923477D01*
X23347000Y-40286520D01*
X23347001Y-40286523D01*
X23361852Y-40380299D01*
X23361854Y-40380304D01*
X23419450Y-40493342D01*
X23509158Y-40583050D01*
X23622196Y-40640646D01*
X23715981Y-40655500D01*
X23810500Y-40655499D01*
X23868690Y-40674406D01*
X23904654Y-40723905D01*
X23909500Y-40754499D01*
X23909500Y-41026144D01*
X23919056Y-41061809D01*
X23929595Y-41101141D01*
X23933386Y-41115290D01*
X23933387Y-41115291D01*
X23973363Y-41184531D01*
X23979530Y-41195212D01*
X24518005Y-41733687D01*
X24521630Y-41740802D01*
X24528093Y-41745498D01*
X24535256Y-41767546D01*
X24545781Y-41788202D01*
X24547000Y-41803689D01*
X24547000Y-41871886D01*
X24528093Y-41930077D01*
X24478593Y-41966041D01*
X24417407Y-41966041D01*
X24377996Y-41941890D01*
X24140992Y-41704886D01*
X23889549Y-41453443D01*
X23809625Y-41407299D01*
X23809622Y-41407298D01*
X23806266Y-41406399D01*
X23802909Y-41405499D01*
X23802907Y-41405498D01*
X23802907Y-41405499D01*
X23720481Y-41383413D01*
X23720479Y-41383413D01*
X23262603Y-41383413D01*
X23204412Y-41364506D01*
X23192600Y-41354417D01*
X23112711Y-41274529D01*
X23032791Y-41228387D01*
X23032787Y-41228385D01*
X23027584Y-41226991D01*
X22971623Y-41211997D01*
X22943644Y-41204500D01*
X22943643Y-41204500D01*
X21441190Y-41204500D01*
X21382999Y-41185593D01*
X21371186Y-41175504D01*
X19771389Y-39575707D01*
X19743612Y-39521190D01*
X19753182Y-39460763D01*
X19754873Y-39457445D01*
X19806777Y-39297702D01*
X19808402Y-39292702D01*
X19835500Y-39121614D01*
X19835500Y-38948385D01*
X19808402Y-38777297D01*
X19808401Y-38777293D01*
X19754876Y-38612561D01*
X19754874Y-38612558D01*
X19754873Y-38612557D01*
X19754873Y-38612555D01*
X19676232Y-38458212D01*
X19574414Y-38318072D01*
X19451928Y-38195586D01*
X19311788Y-38093768D01*
X19311787Y-38093767D01*
X19311785Y-38093766D01*
X19157441Y-38015125D01*
X19157438Y-38015123D01*
X18992706Y-37961598D01*
X18992702Y-37961597D01*
X18821614Y-37934500D01*
X18821611Y-37934500D01*
X18648389Y-37934500D01*
X18648386Y-37934500D01*
X18477297Y-37961597D01*
X18477293Y-37961598D01*
X18312561Y-38015123D01*
X18312558Y-38015125D01*
X18158214Y-38093766D01*
X18018073Y-38195585D01*
X17895585Y-38318073D01*
X17793766Y-38458214D01*
X17715125Y-38612558D01*
X17690323Y-38688888D01*
X17654359Y-38738388D01*
X17596167Y-38757294D01*
X17537977Y-38738386D01*
X17502014Y-38688886D01*
X17446096Y-38516786D01*
X17349624Y-38327447D01*
X17224722Y-38155535D01*
X17074464Y-38005277D01*
X16902552Y-37880376D01*
X16849235Y-37853210D01*
X16805971Y-37809946D01*
X16796399Y-37749514D01*
X16824176Y-37694997D01*
X16849235Y-37676790D01*
X16902552Y-37649623D01*
X17074464Y-37524722D01*
X17224722Y-37374464D01*
X17349624Y-37202552D01*
X17446096Y-37013213D01*
X17502014Y-36841113D01*
X17537978Y-36791613D01*
X17596168Y-36772705D01*
X17654359Y-36791612D01*
X17690323Y-36841111D01*
X17715125Y-36917441D01*
X17793027Y-37070335D01*
X17793768Y-37071788D01*
X17895586Y-37211928D01*
X18018072Y-37334414D01*
X18158212Y-37436232D01*
X18312555Y-37514873D01*
X18312557Y-37514873D01*
X18312558Y-37514874D01*
X18312561Y-37514876D01*
X18477293Y-37568401D01*
X18477297Y-37568402D01*
X18648386Y-37595500D01*
X18648389Y-37595500D01*
X18821614Y-37595500D01*
X18992702Y-37568402D01*
X18992706Y-37568401D01*
X19157438Y-37514876D01*
X19157440Y-37514874D01*
X19157445Y-37514873D01*
X19311788Y-37436232D01*
X19451928Y-37334414D01*
X19574414Y-37211928D01*
X19676232Y-37071788D01*
X19682465Y-37059555D01*
X19725730Y-37016290D01*
X19770675Y-37005500D01*
X23278182Y-37005500D01*
X23336373Y-37024407D01*
X23361125Y-37053389D01*
X23361677Y-37052988D01*
X23366255Y-37059289D01*
X23366257Y-37059291D01*
X23366259Y-37059294D01*
X23458206Y-37151241D01*
X23574067Y-37210275D01*
X23670193Y-37225500D01*
X23838989Y-37225499D01*
X23897179Y-37244406D01*
X23933143Y-37293906D01*
X23934616Y-37350122D01*
X23933386Y-37354711D01*
X23933386Y-37354712D01*
X23913499Y-37428934D01*
X23909500Y-37443857D01*
X23909500Y-37555500D01*
X23890593Y-37613691D01*
X23841093Y-37649655D01*
X23810501Y-37654500D01*
X23715979Y-37654500D01*
X23715976Y-37654501D01*
X23622200Y-37669352D01*
X23622195Y-37669354D01*
X23509159Y-37726949D01*
X23419449Y-37816659D01*
X23361854Y-37929695D01*
X23347000Y-38023477D01*
X23347000Y-38386520D01*
X23347001Y-38386523D01*
X23361852Y-38480299D01*
X23361854Y-38480304D01*
X23419450Y-38593342D01*
X23509158Y-38683050D01*
X23622196Y-38740646D01*
X23715981Y-38755500D01*
X24804018Y-38755499D01*
X24804021Y-38755499D01*
X24804022Y-38755498D01*
X24850911Y-38748072D01*
X24897799Y-38740647D01*
X24897799Y-38740646D01*
X24897804Y-38740646D01*
X25010842Y-38683050D01*
X25100550Y-38593342D01*
X25158146Y-38480304D01*
X25173000Y-38386519D01*
X25172999Y-38023482D01*
X25172468Y-38020127D01*
X25170213Y-38005887D01*
X25170213Y-38005885D01*
X25162154Y-37955000D01*
X25375204Y-37955000D01*
X26284999Y-37955000D01*
X26285000Y-37954999D01*
X26285000Y-37405001D01*
X26284999Y-37405000D01*
X25956863Y-37405000D01*
X25920010Y-37407899D01*
X25762299Y-37453719D01*
X25762298Y-37453719D01*
X25620947Y-37537314D01*
X25504814Y-37653447D01*
X25421219Y-37794798D01*
X25421219Y-37794799D01*
X25375401Y-37952506D01*
X25375399Y-37952513D01*
X25375204Y-37955000D01*
X25162154Y-37955000D01*
X25158147Y-37929699D01*
X25158146Y-37929697D01*
X25158146Y-37929696D01*
X25100550Y-37816658D01*
X25010842Y-37726950D01*
X24897804Y-37669354D01*
X24897805Y-37669354D01*
X24812187Y-37655793D01*
X24757671Y-37628015D01*
X24729894Y-37573498D01*
X24739466Y-37513066D01*
X24757666Y-37488013D01*
X24991186Y-37254493D01*
X25045701Y-37226718D01*
X25061188Y-37225499D01*
X25324808Y-37225499D01*
X25350498Y-37221430D01*
X25420933Y-37210275D01*
X25536794Y-37151241D01*
X25628741Y-37059294D01*
X25687775Y-36943433D01*
X25703000Y-36847307D01*
X25702999Y-36462694D01*
X25702999Y-36459500D01*
X25721906Y-36401309D01*
X25771406Y-36365345D01*
X25801999Y-36360500D01*
X26293518Y-36360500D01*
X26351709Y-36379407D01*
G37*
G04 #@! TD.AperFunction*
G04 #@! TA.AperFunction,Conductor*
G36*
X34556184Y-42830490D02*
G01*
X34583451Y-42838076D01*
X34585013Y-42840043D01*
X34587399Y-42840834D01*
X34621501Y-42885991D01*
X34653702Y-42972329D01*
X34739950Y-43087541D01*
X34739954Y-43087546D01*
X34739957Y-43087548D01*
X34739958Y-43087549D01*
X34855170Y-43173797D01*
X34990011Y-43224089D01*
X34990012Y-43224089D01*
X34990017Y-43224091D01*
X35049627Y-43230500D01*
X35148808Y-43230499D01*
X35206999Y-43249406D01*
X35218813Y-43259495D01*
X35894788Y-43935470D01*
X35894790Y-43935471D01*
X35894815Y-43935496D01*
X35922592Y-43990013D01*
X35913021Y-44050445D01*
X35869756Y-44093710D01*
X35824811Y-44104500D01*
X34977822Y-44104500D01*
X34919631Y-44085593D01*
X34883667Y-44036093D01*
X34882195Y-43979878D01*
X34884583Y-43970964D01*
X34898000Y-43920892D01*
X34898000Y-43789108D01*
X34863892Y-43661814D01*
X34863890Y-43661810D01*
X34863890Y-43661809D01*
X34798003Y-43547690D01*
X34798001Y-43547688D01*
X34798000Y-43547686D01*
X34704814Y-43454500D01*
X34704811Y-43454498D01*
X34704809Y-43454496D01*
X34590689Y-43388609D01*
X34590691Y-43388609D01*
X34538052Y-43374505D01*
X34463392Y-43354500D01*
X34370833Y-43354500D01*
X34312642Y-43335593D01*
X34276678Y-43286093D01*
X34276678Y-43224907D01*
X34287899Y-43203936D01*
X34286790Y-43203252D01*
X34381856Y-43049124D01*
X34434768Y-42889447D01*
X34451536Y-42866647D01*
X34467176Y-42843059D01*
X34469530Y-42842180D01*
X34471019Y-42840157D01*
X34497983Y-42831569D01*
X34524504Y-42821678D01*
X34526924Y-42822351D01*
X34529319Y-42821589D01*
X34556184Y-42830490D01*
G37*
G04 #@! TD.AperFunction*
G04 #@! TA.AperFunction,Conductor*
G36*
X39042945Y-43317500D02*
G01*
X39086210Y-43360765D01*
X39097000Y-43405710D01*
X39097000Y-43618810D01*
X39078093Y-43677001D01*
X39068004Y-43688814D01*
X38681314Y-44075504D01*
X38626797Y-44103281D01*
X38611310Y-44104500D01*
X37932689Y-44104500D01*
X37874498Y-44085593D01*
X37838534Y-44036093D01*
X37838534Y-43974907D01*
X37862685Y-43935496D01*
X37862709Y-43935471D01*
X37862712Y-43935470D01*
X38363685Y-43434495D01*
X38418202Y-43406719D01*
X38433689Y-43405500D01*
X38772173Y-43405500D01*
X38772174Y-43405500D01*
X38845240Y-43390966D01*
X38899816Y-43354500D01*
X38936209Y-43330184D01*
X38936875Y-43331181D01*
X38982513Y-43307929D01*
X39042945Y-43317500D01*
G37*
G04 #@! TD.AperFunction*
G04 #@! TA.AperFunction,Conductor*
G36*
X22769501Y-41924407D02*
G01*
X22781313Y-41934496D01*
X22821399Y-41974581D01*
X22861201Y-42014383D01*
X22930686Y-42054500D01*
X22941125Y-42060527D01*
X23030269Y-42084413D01*
X23488147Y-42084413D01*
X23495744Y-42086881D01*
X23503634Y-42085632D01*
X23524289Y-42096156D01*
X23546338Y-42103320D01*
X23558151Y-42113409D01*
X23605238Y-42160496D01*
X23633015Y-42215013D01*
X23623444Y-42275445D01*
X23580179Y-42318710D01*
X23535234Y-42329500D01*
X23255340Y-42329500D01*
X23166196Y-42353386D01*
X23090137Y-42397299D01*
X23086269Y-42399532D01*
X22810297Y-42675504D01*
X22755781Y-42703281D01*
X22740294Y-42704500D01*
X21887382Y-42704500D01*
X21829191Y-42685593D01*
X21793227Y-42636093D01*
X21793227Y-42574907D01*
X21801646Y-42556000D01*
X21863890Y-42448190D01*
X21863890Y-42448188D01*
X21863892Y-42448186D01*
X21898000Y-42320892D01*
X21898000Y-42189108D01*
X21863892Y-42061814D01*
X21859957Y-42054999D01*
X21859382Y-42054002D01*
X21846659Y-41994154D01*
X21871544Y-41938258D01*
X21924531Y-41907664D01*
X21945117Y-41905500D01*
X22711310Y-41905500D01*
X22769501Y-41924407D01*
G37*
G04 #@! TD.AperFunction*
G04 #@! TA.AperFunction,Conductor*
G36*
X39144655Y-37857936D02*
G01*
X39169714Y-37876142D01*
X39184917Y-37891345D01*
X39212694Y-37945862D01*
X39203123Y-38006294D01*
X39184916Y-38031353D01*
X38815364Y-38400903D01*
X38882858Y-38452693D01*
X39019690Y-38509370D01*
X39019689Y-38509370D01*
X39166532Y-38528703D01*
X39225601Y-38520927D01*
X39285762Y-38532077D01*
X39327880Y-38576459D01*
X39337524Y-38619080D01*
X39337524Y-39849520D01*
X39318617Y-39907711D01*
X39308528Y-39919523D01*
X39156406Y-40071645D01*
X39119540Y-40135497D01*
X39119541Y-40135498D01*
X39110262Y-40151569D01*
X39104349Y-40173638D01*
X39092787Y-40216790D01*
X39086376Y-40240715D01*
X39086376Y-40667770D01*
X39067469Y-40725961D01*
X39057380Y-40737774D01*
X38912146Y-40883007D01*
X38866875Y-40943718D01*
X38825103Y-41065401D01*
X38825103Y-41194061D01*
X38866875Y-41315744D01*
X38881793Y-41335750D01*
X38906825Y-41369320D01*
X38912146Y-41376455D01*
X39068004Y-41532313D01*
X39095781Y-41586830D01*
X39097000Y-41602317D01*
X39097000Y-41904290D01*
X39078093Y-41962481D01*
X39028593Y-41998445D01*
X38967407Y-41998445D01*
X38936440Y-41979468D01*
X38936209Y-41979816D01*
X38845242Y-41919035D01*
X38845240Y-41919034D01*
X38845237Y-41919033D01*
X38845236Y-41919033D01*
X38772184Y-41904501D01*
X38772174Y-41904500D01*
X37736645Y-41904500D01*
X37678454Y-41885593D01*
X37642490Y-41836093D01*
X37642490Y-41774907D01*
X37645889Y-41770228D01*
X37650182Y-41740059D01*
X37258088Y-41347965D01*
X36884177Y-41721875D01*
X36893950Y-41730222D01*
X36925917Y-41782392D01*
X36921115Y-41843389D01*
X36881376Y-41889913D01*
X36829652Y-41904500D01*
X36422822Y-41904500D01*
X36391313Y-41910768D01*
X36370230Y-41908272D01*
X36349069Y-41909978D01*
X36340509Y-41904754D01*
X36330551Y-41903576D01*
X36314962Y-41889165D01*
X36296840Y-41878107D01*
X36293638Y-41869453D01*
X36285622Y-41862043D01*
X36273319Y-41821623D01*
X36272999Y-41817652D01*
X36272999Y-41732128D01*
X36266591Y-41672517D01*
X36259843Y-41654426D01*
X36258737Y-41640696D01*
X36262786Y-41623685D01*
X36262037Y-41606216D01*
X36270328Y-41592011D01*
X36272908Y-41581175D01*
X36280404Y-41574747D01*
X36287411Y-41562743D01*
X36453059Y-41397095D01*
X36507573Y-41369320D01*
X36526948Y-41368177D01*
X36530622Y-41368321D01*
X37011308Y-40887637D01*
X37065825Y-40859860D01*
X37126257Y-40869431D01*
X37151316Y-40887637D01*
X37258089Y-40994410D01*
X37364861Y-40887638D01*
X37419378Y-40859860D01*
X37479810Y-40869431D01*
X37504869Y-40887637D01*
X38003737Y-41386504D01*
X38077078Y-41253098D01*
X38117291Y-41096477D01*
X38117292Y-41096472D01*
X38117292Y-40952277D01*
X38136199Y-40894086D01*
X38158096Y-40872188D01*
X38212516Y-40832650D01*
X38453971Y-40591194D01*
X38508389Y-40516296D01*
X38546614Y-40398651D01*
X38546614Y-40274953D01*
X38508389Y-40157309D01*
X38453972Y-40082410D01*
X38392091Y-40020529D01*
X38316407Y-39944844D01*
X38288630Y-39890328D01*
X38287411Y-39874841D01*
X38287411Y-38624091D01*
X38306318Y-38565900D01*
X38316401Y-38554094D01*
X38560577Y-38309917D01*
X38596722Y-38286892D01*
X38618341Y-38279024D01*
X38624313Y-38274442D01*
X38654811Y-38251039D01*
X38654810Y-38251039D01*
X38654815Y-38251036D01*
X39029708Y-37876141D01*
X39084223Y-37848365D01*
X39144655Y-37857936D01*
G37*
G04 #@! TD.AperFunction*
G04 #@! TA.AperFunction,Conductor*
G36*
X16445000Y-41141988D02*
G01*
X16387993Y-41109075D01*
X16260826Y-41075000D01*
X16129174Y-41075000D01*
X16002007Y-41109075D01*
X15945000Y-41141988D01*
X15945000Y-39468012D01*
X16002007Y-39500925D01*
X16129174Y-39535000D01*
X16260826Y-39535000D01*
X16387993Y-39500925D01*
X16445000Y-39468012D01*
X16445000Y-41141988D01*
G37*
G04 #@! TD.AperFunction*
G04 #@! TA.AperFunction,Conductor*
G36*
X16445000Y-38601988D02*
G01*
X16387993Y-38569075D01*
X16260826Y-38535000D01*
X16129174Y-38535000D01*
X16002007Y-38569075D01*
X15945000Y-38601988D01*
X15945000Y-36928012D01*
X16002007Y-36960925D01*
X16129174Y-36995000D01*
X16260826Y-36995000D01*
X16387993Y-36960925D01*
X16445000Y-36928012D01*
X16445000Y-38601988D01*
G37*
G04 #@! TD.AperFunction*
G04 #@! TA.AperFunction,Conductor*
G36*
X32623977Y-36551276D02*
G01*
X32667242Y-36594541D01*
X32676813Y-36654973D01*
X32665787Y-36687178D01*
X32639099Y-36735723D01*
X32639098Y-36735726D01*
X32598886Y-36892344D01*
X32598886Y-37054051D01*
X32639098Y-37210668D01*
X32716998Y-37352369D01*
X32717000Y-37352372D01*
X32730622Y-37368321D01*
X33211307Y-36887637D01*
X33265824Y-36859860D01*
X33326256Y-36869431D01*
X33351315Y-36887637D01*
X33564862Y-37101184D01*
X33592639Y-37155701D01*
X33583068Y-37216133D01*
X33564862Y-37241192D01*
X33070595Y-37735457D01*
X33066373Y-37750425D01*
X33054065Y-37765421D01*
X32710362Y-38109126D01*
X32703245Y-38112752D01*
X32698549Y-38119216D01*
X32676498Y-38126380D01*
X32655845Y-38136904D01*
X32640358Y-38138123D01*
X32594588Y-38138123D01*
X32536397Y-38119216D01*
X32517502Y-38101241D01*
X32493411Y-38071345D01*
X32493402Y-38071335D01*
X31948404Y-37526340D01*
X31901725Y-37488723D01*
X31901715Y-37488717D01*
X31770807Y-37428933D01*
X31628353Y-37408452D01*
X31628347Y-37408452D01*
X31485893Y-37428933D01*
X31485891Y-37428933D01*
X31402072Y-37467213D01*
X31341286Y-37474188D01*
X31288009Y-37444101D01*
X31262591Y-37388445D01*
X31272476Y-37332729D01*
X31347969Y-37182408D01*
X31347971Y-37182403D01*
X31388402Y-37011812D01*
X31388402Y-36836485D01*
X31387733Y-36830763D01*
X31390040Y-36830493D01*
X31394224Y-36779120D01*
X31434086Y-36732702D01*
X31493619Y-36718580D01*
X31550084Y-36742147D01*
X31555575Y-36747236D01*
X31631361Y-36823022D01*
X31631366Y-36823026D01*
X31631370Y-36823030D01*
X31676877Y-36859700D01*
X31676881Y-36859703D01*
X31676882Y-36859703D01*
X31676886Y-36859706D01*
X31804526Y-36917997D01*
X31943423Y-36937967D01*
X31943426Y-36937967D01*
X31943429Y-36937967D01*
X32082322Y-36917998D01*
X32082323Y-36917997D01*
X32082326Y-36917997D01*
X32209971Y-36859703D01*
X32255490Y-36823022D01*
X32509030Y-36569481D01*
X32563545Y-36541705D01*
X32623977Y-36551276D01*
G37*
G04 #@! TD.AperFunction*
G04 #@! TA.AperFunction,Conductor*
G36*
X55890581Y-32919713D02*
G01*
X55920473Y-32924448D01*
X55921070Y-32924755D01*
X55934211Y-32931570D01*
X56001320Y-32951018D01*
X56073337Y-32961113D01*
X56073346Y-32961112D01*
X56073347Y-32961113D01*
X56074701Y-32961108D01*
X56098148Y-32961025D01*
X56156405Y-32979725D01*
X56192545Y-33029096D01*
X56197500Y-33060024D01*
X56197500Y-37165407D01*
X56178593Y-37223598D01*
X56129093Y-37259562D01*
X56067907Y-37259562D01*
X56049001Y-37251144D01*
X55981038Y-37211906D01*
X55981037Y-37211905D01*
X55981036Y-37211905D01*
X55860101Y-37179500D01*
X55734899Y-37179500D01*
X55630060Y-37207591D01*
X55568960Y-37204390D01*
X55521410Y-37165885D01*
X55505574Y-37106784D01*
X55516228Y-37067020D01*
X55541095Y-37018215D01*
X55606758Y-36816122D01*
X55617231Y-36750000D01*
X54723012Y-36750000D01*
X54755925Y-36692993D01*
X54790000Y-36565826D01*
X54790000Y-36434174D01*
X54755925Y-36307007D01*
X54723012Y-36250000D01*
X55617231Y-36250000D01*
X55617231Y-36249999D01*
X55606758Y-36183877D01*
X55541095Y-35981784D01*
X55444624Y-35792447D01*
X55319722Y-35620535D01*
X55169464Y-35470277D01*
X54997552Y-35345375D01*
X54808215Y-35248904D01*
X54606120Y-35183240D01*
X54540000Y-35172767D01*
X54540000Y-36066988D01*
X54482993Y-36034075D01*
X54355826Y-36000000D01*
X54224174Y-36000000D01*
X54097007Y-36034075D01*
X54040000Y-36066988D01*
X54040000Y-35172768D01*
X54039999Y-35172767D01*
X53973880Y-35183240D01*
X53973878Y-35183240D01*
X53771784Y-35248904D01*
X53582447Y-35345375D01*
X53410535Y-35470277D01*
X53260277Y-35620535D01*
X53135375Y-35792447D01*
X53038904Y-35981784D01*
X52973241Y-36183877D01*
X52962768Y-36249999D01*
X52962769Y-36250000D01*
X53856988Y-36250000D01*
X53824075Y-36307007D01*
X53790000Y-36434174D01*
X53790000Y-36565826D01*
X53824075Y-36692993D01*
X53856988Y-36750000D01*
X52962769Y-36750000D01*
X52973241Y-36816122D01*
X53038905Y-37018218D01*
X53040822Y-37021980D01*
X53050392Y-37082412D01*
X53022612Y-37136928D01*
X52968095Y-37164704D01*
X52907663Y-37155130D01*
X52882609Y-37136927D01*
X52420212Y-36674530D01*
X52340288Y-36628386D01*
X52251144Y-36604500D01*
X52251142Y-36604500D01*
X52052490Y-36604500D01*
X51994299Y-36585593D01*
X51978927Y-36571753D01*
X51969643Y-36561444D01*
X51960576Y-36542898D01*
X51883726Y-36466048D01*
X51881995Y-36464126D01*
X51870551Y-36438432D01*
X51857777Y-36413360D01*
X51858198Y-36410696D01*
X51857102Y-36408234D01*
X51862946Y-36380719D01*
X51867348Y-36352928D01*
X51869703Y-36348909D01*
X51869815Y-36348384D01*
X51870230Y-36348009D01*
X51873242Y-36342872D01*
X51878099Y-36335601D01*
X51878101Y-36335601D01*
X51933466Y-36252740D01*
X51948000Y-36179674D01*
X51948000Y-35130326D01*
X51933466Y-35057260D01*
X51933462Y-35057255D01*
X51929733Y-35048248D01*
X51931748Y-35047413D01*
X51918689Y-35001120D01*
X51931273Y-34962389D01*
X51929733Y-34961752D01*
X51933461Y-34952746D01*
X51933466Y-34952740D01*
X51948000Y-34879674D01*
X51948000Y-34189108D01*
X54797000Y-34189108D01*
X54797000Y-34320892D01*
X54823804Y-34420925D01*
X54831109Y-34448190D01*
X54896996Y-34562309D01*
X54896998Y-34562311D01*
X54897000Y-34562314D01*
X54990186Y-34655500D01*
X54990188Y-34655501D01*
X54990190Y-34655503D01*
X55104310Y-34721390D01*
X55104308Y-34721390D01*
X55104312Y-34721391D01*
X55104314Y-34721392D01*
X55231608Y-34755500D01*
X55231610Y-34755500D01*
X55363390Y-34755500D01*
X55363392Y-34755500D01*
X55490686Y-34721392D01*
X55490688Y-34721390D01*
X55490690Y-34721390D01*
X55604809Y-34655503D01*
X55604809Y-34655502D01*
X55604814Y-34655500D01*
X55698000Y-34562314D01*
X55741811Y-34486432D01*
X55763890Y-34448190D01*
X55763890Y-34448188D01*
X55763892Y-34448186D01*
X55798000Y-34320892D01*
X55798000Y-34189108D01*
X55763892Y-34061814D01*
X55763890Y-34061811D01*
X55763890Y-34061809D01*
X55698003Y-33947690D01*
X55698001Y-33947688D01*
X55698000Y-33947686D01*
X55604814Y-33854500D01*
X55604811Y-33854498D01*
X55604809Y-33854496D01*
X55490689Y-33788609D01*
X55490691Y-33788609D01*
X55421911Y-33770180D01*
X55363392Y-33754500D01*
X55231608Y-33754500D01*
X55173089Y-33770180D01*
X55104309Y-33788609D01*
X54990190Y-33854496D01*
X54896996Y-33947690D01*
X54831109Y-34061809D01*
X54812131Y-34132636D01*
X54797000Y-34189108D01*
X51948000Y-34189108D01*
X51948000Y-33830326D01*
X51933466Y-33757260D01*
X51906461Y-33716843D01*
X51878102Y-33674400D01*
X51878099Y-33674397D01*
X51795242Y-33619035D01*
X51795240Y-33619034D01*
X51795237Y-33619033D01*
X51795236Y-33619033D01*
X51722184Y-33604501D01*
X51722174Y-33604500D01*
X50672826Y-33604500D01*
X50672825Y-33604500D01*
X50672815Y-33604501D01*
X50599763Y-33619033D01*
X50599757Y-33619035D01*
X50516900Y-33674397D01*
X50516897Y-33674400D01*
X50479816Y-33729898D01*
X50431766Y-33767778D01*
X50370628Y-33770180D01*
X50319754Y-33736188D01*
X50315184Y-33729898D01*
X50278102Y-33674400D01*
X50278099Y-33674397D01*
X50195242Y-33619035D01*
X50195240Y-33619034D01*
X50195237Y-33619033D01*
X50195236Y-33619033D01*
X50122184Y-33604501D01*
X50122174Y-33604500D01*
X49072826Y-33604500D01*
X49072825Y-33604500D01*
X49072815Y-33604501D01*
X48999763Y-33619033D01*
X48999757Y-33619035D01*
X48916900Y-33674397D01*
X48916897Y-33674400D01*
X48879816Y-33729898D01*
X48831766Y-33767778D01*
X48770628Y-33770180D01*
X48719754Y-33736188D01*
X48715184Y-33729898D01*
X48678102Y-33674400D01*
X48678099Y-33674397D01*
X48595242Y-33619035D01*
X48595240Y-33619034D01*
X48595237Y-33619033D01*
X48595236Y-33619033D01*
X48522184Y-33604501D01*
X48522174Y-33604500D01*
X47472826Y-33604500D01*
X47472825Y-33604500D01*
X47472815Y-33604501D01*
X47399763Y-33619033D01*
X47399757Y-33619035D01*
X47316900Y-33674397D01*
X47316897Y-33674400D01*
X47279816Y-33729898D01*
X47231766Y-33767778D01*
X47170628Y-33770180D01*
X47119754Y-33736188D01*
X47115184Y-33729898D01*
X47078102Y-33674400D01*
X47078099Y-33674397D01*
X46995242Y-33619035D01*
X46995240Y-33619034D01*
X46995237Y-33619033D01*
X46995236Y-33619033D01*
X46922184Y-33604501D01*
X46922174Y-33604500D01*
X45872826Y-33604500D01*
X45872825Y-33604500D01*
X45872815Y-33604501D01*
X45799763Y-33619033D01*
X45799757Y-33619035D01*
X45716900Y-33674397D01*
X45716897Y-33674400D01*
X45661535Y-33757257D01*
X45661533Y-33757263D01*
X45647001Y-33830315D01*
X45647000Y-33830327D01*
X45647000Y-33905500D01*
X45628093Y-33963691D01*
X45578593Y-33999655D01*
X45548000Y-34004500D01*
X45110068Y-34004500D01*
X45051877Y-33985593D01*
X45015913Y-33936093D01*
X45015913Y-33874907D01*
X45042196Y-33833427D01*
X45071557Y-33805780D01*
X45080745Y-33796678D01*
X45089447Y-33787610D01*
X45137510Y-33716841D01*
X45166535Y-33653285D01*
X45181688Y-33610332D01*
X45187023Y-33510783D01*
X45187021Y-33510772D01*
X45186939Y-33508913D01*
X45187167Y-33508087D01*
X45187283Y-33505926D01*
X45187757Y-33505951D01*
X45203234Y-33449937D01*
X45251082Y-33411803D01*
X45285841Y-33405500D01*
X55243642Y-33405500D01*
X55243644Y-33405500D01*
X55332788Y-33381614D01*
X55345052Y-33374532D01*
X55345055Y-33374532D01*
X55365155Y-33362926D01*
X55412712Y-33335470D01*
X55805526Y-32942653D01*
X55805857Y-32942485D01*
X55806030Y-32942152D01*
X55833137Y-32928585D01*
X55860041Y-32914877D01*
X55860410Y-32914935D01*
X55860745Y-32914768D01*
X55890581Y-32919713D01*
G37*
G04 #@! TD.AperFunction*
G04 #@! TA.AperFunction,Conductor*
G36*
X45469827Y-34724407D02*
G01*
X45505791Y-34773907D01*
X45505791Y-34835093D01*
X45490889Y-34863829D01*
X45454147Y-34912909D01*
X45454146Y-34912911D01*
X45403903Y-35047618D01*
X45403901Y-35047629D01*
X45397500Y-35107175D01*
X45397500Y-35404999D01*
X45397501Y-35405000D01*
X46298500Y-35405000D01*
X46356691Y-35423907D01*
X46392655Y-35473407D01*
X46397500Y-35504000D01*
X46397500Y-35654999D01*
X46397501Y-35655000D01*
X46548500Y-35655000D01*
X46606691Y-35673907D01*
X46642655Y-35723407D01*
X46647500Y-35754000D01*
X46647500Y-36661000D01*
X46628593Y-36719191D01*
X46579093Y-36755155D01*
X46548500Y-36760000D01*
X46537501Y-36760000D01*
X46537500Y-36760001D01*
X46537500Y-36856000D01*
X46518593Y-36914191D01*
X46469093Y-36950155D01*
X46438500Y-36955000D01*
X46136500Y-36955000D01*
X46078309Y-36936093D01*
X46042345Y-36886593D01*
X46037500Y-36856000D01*
X46037500Y-36129000D01*
X46056407Y-36070809D01*
X46105907Y-36034845D01*
X46136500Y-36030000D01*
X46147499Y-36030000D01*
X46147500Y-36029999D01*
X46147500Y-35905001D01*
X46147499Y-35905000D01*
X45397501Y-35905000D01*
X45397500Y-35905001D01*
X45397500Y-36202824D01*
X45397499Y-36202824D01*
X45403901Y-36262370D01*
X45403903Y-36262381D01*
X45454146Y-36397088D01*
X45454147Y-36397090D01*
X45529329Y-36497520D01*
X45532519Y-36506883D01*
X45539345Y-36514046D01*
X45540742Y-36531010D01*
X45549066Y-36555435D01*
X45547455Y-36574691D01*
X45515879Y-36747027D01*
X45505403Y-36766414D01*
X45498593Y-36787376D01*
X45491160Y-36792776D01*
X45486794Y-36800857D01*
X45466925Y-36810383D01*
X45449093Y-36823340D01*
X45439905Y-36823340D01*
X45431623Y-36827311D01*
X45409950Y-36823340D01*
X45387907Y-36823340D01*
X45378505Y-36817578D01*
X45371439Y-36816284D01*
X45364486Y-36808987D01*
X45348497Y-36799189D01*
X45260903Y-36711595D01*
X45182165Y-36654388D01*
X45161600Y-36647706D01*
X45058496Y-36614205D01*
X44937295Y-36614205D01*
X44879104Y-36595298D01*
X44843140Y-36545798D01*
X44838295Y-36515205D01*
X44838295Y-36394006D01*
X44838295Y-36394004D01*
X44798112Y-36270335D01*
X44788432Y-36257012D01*
X44740910Y-36191602D01*
X44740905Y-36191596D01*
X44415910Y-35866603D01*
X44337173Y-35809396D01*
X44303722Y-35798527D01*
X44213504Y-35769213D01*
X44083471Y-35769213D01*
X44075772Y-35770432D01*
X44075564Y-35769123D01*
X44022556Y-35769119D01*
X43983154Y-35744972D01*
X43919717Y-35681535D01*
X43839793Y-35635391D01*
X43750649Y-35611505D01*
X43750647Y-35611505D01*
X42345099Y-35611505D01*
X42325097Y-35605006D01*
X42304201Y-35602662D01*
X42296643Y-35595761D01*
X42286908Y-35592598D01*
X42274545Y-35575582D01*
X42259018Y-35561404D01*
X42257097Y-35551567D01*
X42250944Y-35543098D01*
X42246716Y-35501468D01*
X42255340Y-35424592D01*
X42265802Y-35401527D01*
X42273630Y-35377438D01*
X42278255Y-35374077D01*
X42280617Y-35368872D01*
X42302634Y-35356364D01*
X42323130Y-35341474D01*
X42330412Y-35340585D01*
X42333818Y-35338651D01*
X42340305Y-35339378D01*
X42360782Y-35336881D01*
X42363073Y-35337044D01*
X42363078Y-35337046D01*
X42364864Y-35337173D01*
X42371840Y-35337923D01*
X42424630Y-35345514D01*
X42424633Y-35345514D01*
X43285893Y-35345514D01*
X43285899Y-35345514D01*
X43295678Y-35345063D01*
X43309359Y-35344433D01*
X43309366Y-35344432D01*
X43309394Y-35344431D01*
X43332102Y-35342334D01*
X43424271Y-35315737D01*
X43486570Y-35284108D01*
X43546066Y-35242297D01*
X43691040Y-35105779D01*
X43700228Y-35096677D01*
X43703343Y-35093431D01*
X43708927Y-35087613D01*
X43729541Y-35057260D01*
X43756992Y-35016841D01*
X43786017Y-34953285D01*
X43801170Y-34910332D01*
X43806505Y-34810783D01*
X43806503Y-34810772D01*
X43806421Y-34808913D01*
X43806649Y-34808087D01*
X43806765Y-34805926D01*
X43807239Y-34805951D01*
X43822716Y-34749937D01*
X43870564Y-34711803D01*
X43905323Y-34705500D01*
X45411636Y-34705500D01*
X45469827Y-34724407D01*
G37*
G04 #@! TD.AperFunction*
G04 #@! TA.AperFunction,Conductor*
G36*
X34269649Y-35214527D02*
G01*
X34297486Y-35245628D01*
X34311397Y-35270057D01*
X34320170Y-35285464D01*
X34320175Y-35285470D01*
X34365910Y-35338252D01*
X34365919Y-35338262D01*
X34365923Y-35338266D01*
X34365925Y-35338268D01*
X34386550Y-35358170D01*
X34398699Y-35369893D01*
X34398702Y-35369895D01*
X34487032Y-35416100D01*
X34487034Y-35416101D01*
X34487035Y-35416101D01*
X34487037Y-35416102D01*
X34513481Y-35423867D01*
X34554073Y-35435786D01*
X34593202Y-35441412D01*
X34626054Y-35446136D01*
X34626058Y-35446136D01*
X35639930Y-35446136D01*
X35639946Y-35446136D01*
X35667273Y-35444670D01*
X35675184Y-35443819D01*
X35675183Y-35443818D01*
X35679721Y-35443330D01*
X35679722Y-35443331D01*
X35693605Y-35441839D01*
X35693618Y-35441838D01*
X35693623Y-35441836D01*
X35697562Y-35441412D01*
X35699759Y-35439914D01*
X35721730Y-35433034D01*
X35734504Y-35429950D01*
X35741658Y-35428718D01*
X35744088Y-35427784D01*
X35744087Y-35427783D01*
X35765711Y-35419472D01*
X35765753Y-35419456D01*
X35768663Y-35418338D01*
X35788754Y-35412048D01*
X35797506Y-35407268D01*
X35806817Y-35403693D01*
X35814839Y-35399210D01*
X35821445Y-35397902D01*
X35851378Y-35380305D01*
X35851379Y-35380306D01*
X35851527Y-35380219D01*
X35864832Y-35371276D01*
X35870324Y-35368208D01*
X35876891Y-35363191D01*
X35876987Y-35363107D01*
X35877105Y-35363028D01*
X35883466Y-35358171D01*
X35885781Y-35355821D01*
X35891234Y-35350691D01*
X35901677Y-35341594D01*
X35901795Y-35341477D01*
X35901793Y-35341475D01*
X35914182Y-35329194D01*
X35968816Y-35301647D01*
X36029207Y-35311474D01*
X36072288Y-35354922D01*
X36082042Y-35412414D01*
X36078343Y-35440512D01*
X36078343Y-35440514D01*
X36088695Y-35519145D01*
X36077545Y-35579306D01*
X36033163Y-35621423D01*
X36016167Y-35627693D01*
X35987439Y-35635391D01*
X35907517Y-35681534D01*
X35652958Y-35936093D01*
X35598442Y-35963870D01*
X35582955Y-35965089D01*
X34577658Y-35965089D01*
X34519467Y-35946182D01*
X34507655Y-35936093D01*
X34370088Y-35798527D01*
X34295193Y-35744112D01*
X34295191Y-35744111D01*
X34177547Y-35705886D01*
X34053849Y-35705886D01*
X34015929Y-35718207D01*
X33936202Y-35744111D01*
X33861307Y-35798526D01*
X33619851Y-36039983D01*
X33580314Y-36094400D01*
X33530813Y-36130363D01*
X33500222Y-36135208D01*
X33356022Y-36135208D01*
X33199404Y-36175420D01*
X33199398Y-36175422D01*
X33057704Y-36253319D01*
X33030029Y-36276957D01*
X32970972Y-36336014D01*
X32916455Y-36363791D01*
X32856023Y-36354219D01*
X32812759Y-36310954D01*
X32803188Y-36250522D01*
X32810914Y-36224886D01*
X32840737Y-36159586D01*
X32840737Y-36159584D01*
X32840738Y-36159583D01*
X32860707Y-36020689D01*
X32860707Y-36020682D01*
X32840738Y-35881788D01*
X32822809Y-35842529D01*
X32796716Y-35785396D01*
X32789742Y-35724610D01*
X32819828Y-35671333D01*
X32875484Y-35645915D01*
X32927896Y-35654216D01*
X32939465Y-35659500D01*
X33024288Y-35698238D01*
X33163183Y-35718207D01*
X33163186Y-35718207D01*
X33163189Y-35718207D01*
X33302082Y-35698238D01*
X33302083Y-35698237D01*
X33302086Y-35698237D01*
X33429731Y-35639943D01*
X33475250Y-35603262D01*
X33758685Y-35319827D01*
X33853897Y-35224616D01*
X33908413Y-35196839D01*
X33923900Y-35195620D01*
X34211458Y-35195620D01*
X34269649Y-35214527D01*
G37*
G04 #@! TD.AperFunction*
G04 #@! TA.AperFunction,Conductor*
G36*
X20004501Y-33886112D02*
G01*
X21453859Y-35335470D01*
X21533783Y-35381614D01*
X21622927Y-35405500D01*
X25974914Y-35405500D01*
X25982511Y-35407968D01*
X25990401Y-35406719D01*
X26011056Y-35417243D01*
X26033105Y-35424407D01*
X26044918Y-35434496D01*
X26100918Y-35490496D01*
X26128695Y-35545013D01*
X26119124Y-35605445D01*
X26075859Y-35648710D01*
X26030914Y-35659500D01*
X25643644Y-35659500D01*
X24498856Y-35659500D01*
X24452605Y-35671893D01*
X24452604Y-35671892D01*
X24409715Y-35683384D01*
X24370741Y-35705886D01*
X24329967Y-35729427D01*
X24329785Y-35729532D01*
X24003812Y-36055504D01*
X23949296Y-36083281D01*
X23933809Y-36084500D01*
X23670191Y-36084500D01*
X23574067Y-36099725D01*
X23574060Y-36099727D01*
X23458208Y-36158757D01*
X23366255Y-36250710D01*
X23361677Y-36257012D01*
X23360603Y-36256232D01*
X23323129Y-36293709D01*
X23278182Y-36304500D01*
X19902164Y-36304500D01*
X19843973Y-36285593D01*
X19808011Y-36236095D01*
X19754873Y-36072555D01*
X19676232Y-35918212D01*
X19574414Y-35778072D01*
X19451928Y-35655586D01*
X19311788Y-35553768D01*
X19311787Y-35553767D01*
X19311785Y-35553766D01*
X19157441Y-35475125D01*
X19157438Y-35475123D01*
X18992706Y-35421598D01*
X18992702Y-35421597D01*
X18821614Y-35394500D01*
X18821611Y-35394500D01*
X18648389Y-35394500D01*
X18648386Y-35394500D01*
X18477297Y-35421597D01*
X18477293Y-35421598D01*
X18312561Y-35475123D01*
X18312558Y-35475125D01*
X18158214Y-35553766D01*
X18018073Y-35655585D01*
X17895585Y-35778073D01*
X17793766Y-35918214D01*
X17715125Y-36072558D01*
X17690323Y-36148888D01*
X17654359Y-36198388D01*
X17596167Y-36217294D01*
X17537977Y-36198386D01*
X17502014Y-36148886D01*
X17446096Y-35976786D01*
X17349624Y-35787447D01*
X17224722Y-35615535D01*
X17074464Y-35465277D01*
X16902552Y-35340376D01*
X16849235Y-35313210D01*
X16805971Y-35269946D01*
X16796399Y-35209514D01*
X16824176Y-35154997D01*
X16849235Y-35136790D01*
X16902552Y-35109623D01*
X17074464Y-34984722D01*
X17224722Y-34834464D01*
X17349624Y-34662552D01*
X17446096Y-34473213D01*
X17502014Y-34301113D01*
X17537978Y-34251613D01*
X17596168Y-34232705D01*
X17654359Y-34251612D01*
X17690323Y-34301111D01*
X17715125Y-34377441D01*
X17781655Y-34508016D01*
X17793768Y-34531788D01*
X17895586Y-34671928D01*
X18018072Y-34794414D01*
X18158212Y-34896232D01*
X18312555Y-34974873D01*
X18312557Y-34974873D01*
X18312558Y-34974874D01*
X18312561Y-34974876D01*
X18477293Y-35028401D01*
X18477297Y-35028402D01*
X18648386Y-35055500D01*
X18648389Y-35055500D01*
X18821614Y-35055500D01*
X18992702Y-35028402D01*
X18992706Y-35028401D01*
X19157438Y-34974876D01*
X19157440Y-34974874D01*
X19157445Y-34974873D01*
X19311788Y-34896232D01*
X19451928Y-34794414D01*
X19574414Y-34671928D01*
X19676232Y-34531788D01*
X19754873Y-34377445D01*
X19754874Y-34377440D01*
X19754876Y-34377438D01*
X19808401Y-34212706D01*
X19808402Y-34212702D01*
X19835500Y-34041614D01*
X19835500Y-33956118D01*
X19854407Y-33897927D01*
X19903907Y-33861963D01*
X19965093Y-33861963D01*
X20004501Y-33886112D01*
G37*
G04 #@! TD.AperFunction*
G04 #@! TA.AperFunction,Conductor*
G36*
X39620699Y-34714446D02*
G01*
X39656663Y-34763946D01*
X39661508Y-34794539D01*
X39661508Y-34845539D01*
X39641617Y-34845539D01*
X39604863Y-34860763D01*
X39576732Y-34888894D01*
X39561508Y-34925648D01*
X39561508Y-34965430D01*
X39576732Y-35002184D01*
X39604863Y-35030315D01*
X39641617Y-35045539D01*
X39681399Y-35045539D01*
X39718153Y-35030315D01*
X39746284Y-35002184D01*
X39761508Y-34965430D01*
X39761508Y-34945539D01*
X39812508Y-34945539D01*
X39870699Y-34964446D01*
X39906663Y-35013946D01*
X39911508Y-35044539D01*
X39911508Y-35836489D01*
X39892601Y-35894680D01*
X39843101Y-35930644D01*
X39812508Y-35935489D01*
X39761508Y-35935489D01*
X39761508Y-35915598D01*
X39746284Y-35878844D01*
X39718153Y-35850713D01*
X39681399Y-35835489D01*
X39641617Y-35835489D01*
X39604863Y-35850713D01*
X39576732Y-35878844D01*
X39561508Y-35915598D01*
X39561508Y-35955380D01*
X39576732Y-35992134D01*
X39604863Y-36020265D01*
X39641617Y-36035489D01*
X39661508Y-36035489D01*
X39661508Y-36086489D01*
X39642601Y-36144680D01*
X39593101Y-36180644D01*
X39562508Y-36185489D01*
X38770558Y-36185489D01*
X38712367Y-36166582D01*
X38676403Y-36117082D01*
X38671558Y-36086489D01*
X38671558Y-36035489D01*
X38691449Y-36035489D01*
X38728203Y-36020265D01*
X38756334Y-35992134D01*
X38771558Y-35955380D01*
X38771558Y-35915598D01*
X38756334Y-35878844D01*
X38728203Y-35850713D01*
X38691449Y-35835489D01*
X38651667Y-35835489D01*
X38614913Y-35850713D01*
X38586782Y-35878844D01*
X38571558Y-35915598D01*
X38571558Y-35935489D01*
X38520558Y-35935489D01*
X38462367Y-35916582D01*
X38426403Y-35867082D01*
X38421558Y-35836489D01*
X38421558Y-35195540D01*
X38921558Y-35195540D01*
X38921558Y-35685488D01*
X38921559Y-35685489D01*
X39411507Y-35685489D01*
X39411508Y-35685488D01*
X39411508Y-35195540D01*
X39411507Y-35195539D01*
X38921559Y-35195539D01*
X38921558Y-35195540D01*
X38421558Y-35195540D01*
X38421558Y-35044539D01*
X38440465Y-34986348D01*
X38489965Y-34950384D01*
X38520558Y-34945539D01*
X38571558Y-34945539D01*
X38571558Y-34965430D01*
X38586782Y-35002184D01*
X38614913Y-35030315D01*
X38651667Y-35045539D01*
X38691449Y-35045539D01*
X38728203Y-35030315D01*
X38756334Y-35002184D01*
X38771558Y-34965430D01*
X38771558Y-34925648D01*
X38756334Y-34888894D01*
X38728203Y-34860763D01*
X38691449Y-34845539D01*
X38671558Y-34845539D01*
X38671558Y-34794539D01*
X38690465Y-34736348D01*
X38739965Y-34700384D01*
X38770558Y-34695539D01*
X39562508Y-34695539D01*
X39620699Y-34714446D01*
G37*
G04 #@! TD.AperFunction*
G04 #@! TA.AperFunction,Conductor*
G36*
X16445000Y-36061988D02*
G01*
X16387993Y-36029075D01*
X16260826Y-35995000D01*
X16129174Y-35995000D01*
X16002007Y-36029075D01*
X15945000Y-36061988D01*
X15945000Y-34388012D01*
X16002007Y-34420925D01*
X16129174Y-34455000D01*
X16260826Y-34455000D01*
X16387993Y-34420925D01*
X16445000Y-34388012D01*
X16445000Y-36061988D01*
G37*
G04 #@! TD.AperFunction*
G04 #@! TA.AperFunction,Conductor*
G36*
X16445000Y-33521988D02*
G01*
X16387993Y-33489075D01*
X16260826Y-33455000D01*
X16129174Y-33455000D01*
X16002007Y-33489075D01*
X15945000Y-33521988D01*
X15945000Y-31848012D01*
X16002007Y-31880925D01*
X16129174Y-31915000D01*
X16260826Y-31915000D01*
X16387993Y-31880925D01*
X16445000Y-31848012D01*
X16445000Y-33521988D01*
G37*
G04 #@! TD.AperFunction*
G04 #@! TA.AperFunction,Conductor*
G36*
X38637181Y-31932049D02*
G01*
X38681059Y-31974691D01*
X38692500Y-32020891D01*
X38692500Y-32242490D01*
X38693963Y-32269796D01*
X38696797Y-32296158D01*
X38696797Y-32296160D01*
X38696798Y-32296162D01*
X38726587Y-32391296D01*
X38726588Y-32391299D01*
X38726589Y-32391300D01*
X38726591Y-32391304D01*
X38760068Y-32452614D01*
X38760071Y-32452619D01*
X38783308Y-32483660D01*
X38803044Y-32541575D01*
X38784969Y-32600030D01*
X38735987Y-32636696D01*
X38674808Y-32637570D01*
X38643785Y-32621528D01*
X38618342Y-32602004D01*
X38618341Y-32602003D01*
X38596720Y-32594134D01*
X38560577Y-32571109D01*
X38369708Y-32380240D01*
X38368220Y-32377320D01*
X38365405Y-32375653D01*
X38354464Y-32350322D01*
X38341931Y-32325723D01*
X38342443Y-32322488D01*
X38341145Y-32319483D01*
X38347184Y-32292554D01*
X38351502Y-32265291D01*
X38354019Y-32262073D01*
X38354534Y-32259781D01*
X38358649Y-32256157D01*
X38374882Y-32235416D01*
X38394632Y-32218303D01*
X38426257Y-32185529D01*
X38472465Y-32097194D01*
X38492150Y-32030155D01*
X38495508Y-32006801D01*
X38522504Y-31951894D01*
X38576619Y-31923341D01*
X38637181Y-31932049D01*
G37*
G04 #@! TD.AperFunction*
G04 #@! TA.AperFunction,Conductor*
G36*
X38645965Y-30686902D02*
G01*
X38656938Y-30689084D01*
X38703153Y-30698276D01*
X38721715Y-30703907D01*
X38775601Y-30726227D01*
X38792706Y-30735370D01*
X38841185Y-30767763D01*
X38856187Y-30780074D01*
X38897423Y-30821310D01*
X38909729Y-30836305D01*
X38942123Y-30884783D01*
X38951272Y-30901900D01*
X38973590Y-30955782D01*
X38979222Y-30974347D01*
X38990597Y-31031526D01*
X38992500Y-31050842D01*
X38992500Y-31109157D01*
X38990597Y-31128474D01*
X38979222Y-31185651D01*
X38973589Y-31204220D01*
X38951275Y-31258091D01*
X38942126Y-31275206D01*
X38909732Y-31323687D01*
X38897421Y-31338690D01*
X38841522Y-31394589D01*
X38834667Y-31400829D01*
X38820839Y-31412281D01*
X38785410Y-31448349D01*
X38785391Y-31448370D01*
X38768743Y-31467070D01*
X38768742Y-31467072D01*
X38722535Y-31555405D01*
X38722533Y-31555410D01*
X38702853Y-31622433D01*
X38702849Y-31622450D01*
X38696032Y-31669859D01*
X38669035Y-31724766D01*
X38614920Y-31753318D01*
X38554357Y-31744610D01*
X38510480Y-31701966D01*
X38499562Y-31665915D01*
X38497134Y-31642343D01*
X38486827Y-31592847D01*
X38480517Y-31568579D01*
X38432737Y-31481084D01*
X38421024Y-31467070D01*
X38387934Y-31427478D01*
X38374492Y-31415404D01*
X38370644Y-31411757D01*
X38297576Y-31338689D01*
X38285268Y-31323692D01*
X38252867Y-31275202D01*
X38243727Y-31258100D01*
X38221406Y-31204212D01*
X38215775Y-31185648D01*
X38204402Y-31128472D01*
X38202500Y-31109158D01*
X38202500Y-31050845D01*
X38204402Y-31031533D01*
X38214751Y-30979500D01*
X38215776Y-30974344D01*
X38221409Y-30955777D01*
X38230126Y-30934732D01*
X38243727Y-30901896D01*
X38252867Y-30884795D01*
X38285266Y-30836307D01*
X38297569Y-30821315D01*
X38338814Y-30780070D01*
X38353804Y-30767769D01*
X38402292Y-30735370D01*
X38419400Y-30726226D01*
X38473280Y-30703908D01*
X38491840Y-30698278D01*
X38532026Y-30690285D01*
X38549035Y-30686902D01*
X38568348Y-30685000D01*
X38626653Y-30685000D01*
X38645965Y-30686902D01*
G37*
G04 #@! TD.AperFunction*
G04 #@! TA.AperFunction,Conductor*
G36*
X16445000Y-30981988D02*
G01*
X16387993Y-30949075D01*
X16260826Y-30915000D01*
X16129174Y-30915000D01*
X16002007Y-30949075D01*
X15945000Y-30981988D01*
X15945000Y-29308012D01*
X16002007Y-29340925D01*
X16129174Y-29375000D01*
X16260826Y-29375000D01*
X16387993Y-29340925D01*
X16445000Y-29308012D01*
X16445000Y-30981988D01*
G37*
G04 #@! TD.AperFunction*
G04 #@! TA.AperFunction,Conductor*
G36*
X16445000Y-28441988D02*
G01*
X16387993Y-28409075D01*
X16260826Y-28375000D01*
X16129174Y-28375000D01*
X16002007Y-28409075D01*
X15945000Y-28441988D01*
X15945000Y-26768012D01*
X16002007Y-26800925D01*
X16129174Y-26835000D01*
X16260826Y-26835000D01*
X16387993Y-26800925D01*
X16445000Y-26768012D01*
X16445000Y-28441988D01*
G37*
G04 #@! TD.AperFunction*
G04 #@! TA.AperFunction,Conductor*
G36*
X16445000Y-25901988D02*
G01*
X16387993Y-25869075D01*
X16260826Y-25835000D01*
X16129174Y-25835000D01*
X16002007Y-25869075D01*
X15945000Y-25901988D01*
X15945000Y-24228012D01*
X16002007Y-24260925D01*
X16129174Y-24295000D01*
X16260826Y-24295000D01*
X16387993Y-24260925D01*
X16445000Y-24228012D01*
X16445000Y-25901988D01*
G37*
G04 #@! TD.AperFunction*
G04 #@! TD*
M02*
