G04 #@! TF.GenerationSoftware,KiCad,Pcbnew,9.0.4*
G04 #@! TF.CreationDate,2025-08-20T21:16:51-04:00*
G04 #@! TF.ProjectId,jlcpcb_1x1,6a6c6370-6362-45f3-9178-312e6b696361,rev?*
G04 #@! TF.SameCoordinates,Original*
G04 #@! TF.FileFunction,Soldermask,Top*
G04 #@! TF.FilePolarity,Negative*
%FSLAX46Y46*%
G04 Gerber Fmt 4.6, Leading zero omitted, Abs format (unit mm)*
G04 Created by KiCad (PCBNEW 9.0.4) date 2025-08-20 21:16:51*
%MOMM*%
%LPD*%
G01*
G04 APERTURE LIST*
G04 Aperture macros list*
%AMRoundRect*
0 Rectangle with rounded corners*
0 $1 Rounding radius*
0 $2 $3 $4 $5 $6 $7 $8 $9 X,Y pos of 4 corners*
0 Add a 4 corners polygon primitive as box body*
4,1,4,$2,$3,$4,$5,$6,$7,$8,$9,$2,$3,0*
0 Add four circle primitives for the rounded corners*
1,1,$1+$1,$2,$3*
1,1,$1+$1,$4,$5*
1,1,$1+$1,$6,$7*
1,1,$1+$1,$8,$9*
0 Add four rect primitives between the rounded corners*
20,1,$1+$1,$2,$3,$4,$5,0*
20,1,$1+$1,$4,$5,$6,$7,0*
20,1,$1+$1,$6,$7,$8,$9,0*
20,1,$1+$1,$8,$9,$2,$3,0*%
%AMRotRect*
0 Rectangle, with rotation*
0 The origin of the aperture is its center*
0 $1 length*
0 $2 width*
0 $3 Rotation angle, in degrees counterclockwise*
0 Add horizontal line*
21,1,$1,$2,0,0,$3*%
G04 Aperture macros list end*
%ADD10C,0.000000*%
%ADD11C,0.010000*%
%ADD12RoundRect,0.062500X-0.185616X-0.274004X0.274004X0.185616X0.185616X0.274004X-0.274004X-0.185616X0*%
%ADD13RoundRect,0.062500X0.185616X-0.274004X0.274004X-0.185616X-0.185616X0.274004X-0.274004X0.185616X0*%
%ADD14RotRect,2.100000X2.100000X45.000000*%
%ADD15RoundRect,0.062500X0.000000X-0.088388X0.088388X0.000000X0.000000X0.088388X-0.088388X0.000000X0*%
%ADD16C,1.000000*%
%ADD17RoundRect,0.160000X0.026517X0.252791X-0.252791X-0.026517X-0.026517X-0.252791X0.252791X0.026517X0*%
%ADD18R,0.508000X0.500000*%
%ADD19R,0.508000X0.508000*%
%ADD20RoundRect,0.135000X-0.135000X-0.185000X0.135000X-0.185000X0.135000X0.185000X-0.135000X0.185000X0*%
%ADD21RoundRect,0.160000X-0.252791X0.026517X0.026517X-0.252791X0.252791X-0.026517X-0.026517X0.252791X0*%
%ADD22RoundRect,0.140000X-0.021213X0.219203X-0.219203X0.021213X0.021213X-0.219203X0.219203X-0.021213X0*%
%ADD23R,1.000000X1.000000*%
%ADD24RoundRect,0.250000X0.337500X0.475000X-0.337500X0.475000X-0.337500X-0.475000X0.337500X-0.475000X0*%
%ADD25RoundRect,0.135000X0.135000X0.185000X-0.135000X0.185000X-0.135000X-0.185000X0.135000X-0.185000X0*%
%ADD26RoundRect,0.250000X-0.450000X0.325000X-0.450000X-0.325000X0.450000X-0.325000X0.450000X0.325000X0*%
%ADD27R,1.700000X1.700000*%
%ADD28O,1.700000X1.700000*%
%ADD29C,3.200000*%
%ADD30RoundRect,0.237500X-0.300000X-0.237500X0.300000X-0.237500X0.300000X0.237500X-0.300000X0.237500X0*%
%ADD31RoundRect,0.150000X0.512500X0.150000X-0.512500X0.150000X-0.512500X-0.150000X0.512500X-0.150000X0*%
%ADD32RoundRect,0.140000X0.219203X0.021213X0.021213X0.219203X-0.219203X-0.021213X-0.021213X-0.219203X0*%
%ADD33RoundRect,0.135000X0.226274X0.035355X0.035355X0.226274X-0.226274X-0.035355X-0.035355X-0.226274X0*%
%ADD34RoundRect,0.250000X-0.097227X0.574524X-0.574524X0.097227X0.097227X-0.574524X0.574524X-0.097227X0*%
%ADD35RoundRect,0.160000X0.197500X0.160000X-0.197500X0.160000X-0.197500X-0.160000X0.197500X-0.160000X0*%
%ADD36RoundRect,0.237500X-0.044194X-0.380070X0.380070X0.044194X0.044194X0.380070X-0.380070X-0.044194X0*%
%ADD37RoundRect,0.135000X-0.226274X-0.035355X-0.035355X-0.226274X0.226274X0.035355X0.035355X0.226274X0*%
%ADD38RoundRect,0.250000X0.574524X0.097227X0.097227X0.574524X-0.574524X-0.097227X-0.097227X-0.574524X0*%
%ADD39RoundRect,0.237500X-0.237500X0.300000X-0.237500X-0.300000X0.237500X-0.300000X0.237500X0.300000X0*%
%ADD40RoundRect,0.135000X-0.185000X0.135000X-0.185000X-0.135000X0.185000X-0.135000X0.185000X0.135000X0*%
%ADD41RotRect,0.508000X0.508000X315.000000*%
G04 APERTURE END LIST*
G04 #@! TO.C,E109*
G36*
X51243500Y-24009000D02*
G01*
X51751500Y-24009000D01*
X51751500Y-23509000D01*
X51243500Y-23509000D01*
X51243500Y-24009000D01*
G37*
G04 #@! TO.C,G118*
G36*
X51343500Y-46909000D02*
G01*
X51851500Y-46909000D01*
X51851500Y-46409000D01*
X51343500Y-46409000D01*
X51343500Y-46909000D01*
G37*
G04 #@! TO.C,G117*
G36*
X28643500Y-46309000D02*
G01*
X29151500Y-46309000D01*
X29151500Y-45809000D01*
X28643500Y-45809000D01*
X28643500Y-46309000D01*
G37*
G04 #@! TO.C,E108*
G36*
X28843500Y-24009000D02*
G01*
X29351500Y-24009000D01*
X29351500Y-23509000D01*
X28843500Y-23509000D01*
X28843500Y-24009000D01*
G37*
D10*
G04 #@! TO.C,DOUT108*
G36*
X29051053Y-39449343D02*
G01*
X28691843Y-39808553D01*
X28343947Y-39460657D01*
X28703157Y-39101447D01*
X29051053Y-39449343D01*
G37*
G04 #@! TO.C,5V108*
D11*
X23357500Y-45855000D02*
X21247500Y-45855000D01*
X21247500Y-44855000D01*
X23357500Y-44855000D01*
X23357500Y-45855000D01*
G36*
X23357500Y-45855000D02*
G01*
X21247500Y-45855000D01*
X21247500Y-44855000D01*
X23357500Y-44855000D01*
X23357500Y-45855000D01*
G37*
G04 #@! TD*
D12*
G04 #@! TO.C,TAC5212*
X36877275Y-35962005D03*
X37230828Y-36315559D03*
X37584382Y-36669112D03*
X37937935Y-37022665D03*
X38291488Y-37376219D03*
X38645042Y-37729772D03*
D13*
X39688024Y-37729772D03*
X40041578Y-37376219D03*
X40395131Y-37022665D03*
X40748684Y-36669112D03*
X41102238Y-36315559D03*
X41455791Y-35962005D03*
D12*
X41455791Y-34919023D03*
X41102238Y-34565469D03*
X40748684Y-34211916D03*
X40395131Y-33858363D03*
X40041578Y-33504809D03*
X39688024Y-33151256D03*
D13*
X38645042Y-33151256D03*
X38291488Y-33504809D03*
X37937935Y-33858363D03*
X37584382Y-34211916D03*
X37230828Y-34565469D03*
X36877275Y-34919023D03*
D14*
X39166533Y-35440514D03*
D15*
X36734086Y-35440514D03*
X39166533Y-37872961D03*
X41598980Y-35440514D03*
X39166533Y-33008067D03*
G04 #@! TD*
D16*
G04 #@! TO.C,KiKit_FID_T_2*
X66460000Y-4000000D03*
G04 #@! TD*
D17*
G04 #@! TO.C,R117*
X35514586Y-39435455D03*
X36359578Y-38590463D03*
G04 #@! TD*
G04 #@! TO.C,R119*
X34171083Y-38091952D03*
X35016075Y-37246960D03*
G04 #@! TD*
D18*
G04 #@! TO.C,E109*
X51497500Y-24259000D03*
D19*
X51497500Y-23255000D03*
G04 #@! TD*
D16*
G04 #@! TO.C,KiKit_FID_T_1*
X4000000Y-4000000D03*
G04 #@! TD*
D20*
G04 #@! TO.C,R123*
X50487500Y-36955000D03*
X51507500Y-36955000D03*
G04 #@! TD*
D21*
G04 #@! TO.C,R110*
X45019996Y-37277496D03*
X44175004Y-36432504D03*
G04 #@! TD*
D22*
G04 #@! TO.C,C112*
X37936911Y-40315589D03*
X37258089Y-40994411D03*
G04 #@! TD*
D23*
G04 #@! TO.C,PU_EN108*
X36947500Y-42655000D03*
X38247500Y-42655000D03*
G04 #@! TD*
D18*
G04 #@! TO.C,G118*
X51597500Y-47159000D03*
D19*
X51597500Y-46155000D03*
G04 #@! TD*
D17*
G04 #@! TO.C,R118*
X36186337Y-40107207D03*
X37031329Y-39262215D03*
G04 #@! TD*
D24*
G04 #@! TO.C,C111*
X35435000Y-42255000D03*
X33360000Y-42255000D03*
G04 #@! TD*
D23*
G04 #@! TO.C,ADD112*
X47997500Y-35655000D03*
X47997500Y-34355000D03*
G04 #@! TD*
D21*
G04 #@! TO.C,R114*
X42619996Y-39677496D03*
X41775004Y-38832504D03*
G04 #@! TD*
D25*
G04 #@! TO.C,R124*
X47307500Y-36955000D03*
X46287500Y-36955000D03*
G04 #@! TD*
D21*
G04 #@! TO.C,R113*
X43419996Y-38877496D03*
X42575004Y-38032504D03*
G04 #@! TD*
D23*
G04 #@! TO.C,ADD111*
X51197500Y-35655000D03*
X51197500Y-34355000D03*
G04 #@! TD*
D26*
G04 #@! TO.C,D116*
X49572500Y-40305000D03*
X49572500Y-42355000D03*
G04 #@! TD*
D27*
G04 #@! TO.C,board_outline108*
X18735000Y-46655000D03*
D28*
X16195000Y-46655000D03*
X18735000Y-44115000D03*
X16195000Y-44115000D03*
X18735000Y-41575000D03*
X16195000Y-41575000D03*
X18735000Y-39035000D03*
X16195000Y-39035000D03*
X18735000Y-36495000D03*
X16195000Y-36495000D03*
X18735000Y-33955000D03*
X16195000Y-33955000D03*
X18735000Y-31415000D03*
X16195000Y-31415000D03*
X18735000Y-28875000D03*
X16195000Y-28875000D03*
X18735000Y-26335000D03*
X16195000Y-26335000D03*
X18735000Y-23795000D03*
X16195000Y-23795000D03*
D27*
X31445000Y-26340000D03*
X31445000Y-23800000D03*
D28*
X33985000Y-26340000D03*
X33985000Y-23800000D03*
X36525000Y-26340000D03*
X36525000Y-23800000D03*
X39065000Y-26340000D03*
X39065000Y-23800000D03*
X41605000Y-26340000D03*
X41605000Y-23800000D03*
X44145000Y-26340000D03*
X44145000Y-23800000D03*
X46685000Y-26340000D03*
X46685000Y-23800000D03*
X49225000Y-26340000D03*
X49225000Y-23800000D03*
D27*
X31445000Y-46660000D03*
D28*
X33985000Y-46660000D03*
X36525000Y-46660000D03*
X39065000Y-46660000D03*
X41605000Y-46660000D03*
X44145000Y-46660000D03*
X46685000Y-46660000D03*
X49225000Y-46660000D03*
X54290000Y-41580000D03*
X54290000Y-39040000D03*
X54290000Y-36500000D03*
X51750000Y-26340000D03*
D29*
X26350000Y-23800000D03*
X54290000Y-23800000D03*
X26350000Y-46660000D03*
X54290000Y-46660000D03*
G04 #@! TD*
D23*
G04 #@! TO.C,ADD110*
X49597500Y-35655000D03*
X49597500Y-34355000D03*
G04 #@! TD*
D18*
G04 #@! TO.C,G117*
X28897500Y-46559000D03*
D19*
X28897500Y-45555000D03*
G04 #@! TD*
D30*
G04 #@! TO.C,C128*
X25335000Y-42055000D03*
X27060000Y-42055000D03*
G04 #@! TD*
D17*
G04 #@! TO.C,R115*
X34842834Y-38763704D03*
X35687826Y-37918712D03*
G04 #@! TD*
D25*
G04 #@! TO.C,R122*
X49507500Y-36955000D03*
X48487500Y-36955000D03*
G04 #@! TD*
D31*
G04 #@! TO.C,U108*
X26535000Y-40105000D03*
X26535000Y-39155000D03*
X26535000Y-38205000D03*
X24260000Y-38205000D03*
X24260000Y-40105000D03*
G04 #@! TD*
D32*
G04 #@! TO.C,C109*
X34936911Y-33194411D03*
X34258089Y-32515589D03*
G04 #@! TD*
D18*
G04 #@! TO.C,E108*
X29097500Y-24259000D03*
D19*
X29097500Y-23255000D03*
G04 #@! TD*
D33*
G04 #@! TO.C,R120*
X40958124Y-41015624D03*
X40236876Y-40294376D03*
G04 #@! TD*
D21*
G04 #@! TO.C,R112*
X44219996Y-38077496D03*
X43375004Y-37232504D03*
G04 #@! TD*
D23*
G04 #@! TO.C,ADD108*
X46397500Y-35655000D03*
X46397500Y-34355000D03*
G04 #@! TD*
D34*
G04 #@! TO.C,C108*
X32131123Y-33221377D03*
X30663877Y-34688623D03*
G04 #@! TD*
D35*
G04 #@! TO.C,R125*
X23900000Y-36655000D03*
X25095000Y-36655000D03*
G04 #@! TD*
D22*
G04 #@! TO.C,C116*
X34136911Y-36315589D03*
X33458089Y-36994411D03*
G04 #@! TD*
D16*
G04 #@! TO.C,KiKit_FID_T_3*
X4000000Y-66460000D03*
G04 #@! TD*
D36*
G04 #@! TO.C,C119*
X31987620Y-36064880D03*
X33207380Y-34845120D03*
G04 #@! TD*
D16*
G04 #@! TO.C,KiKit_FID_T_4*
X66460000Y-66460000D03*
G04 #@! TD*
D37*
G04 #@! TO.C,R121*
X39436876Y-41094376D03*
X40158124Y-41815624D03*
G04 #@! TD*
D38*
G04 #@! TO.C,C115*
X31531123Y-38488623D03*
X30063877Y-37021377D03*
G04 #@! TD*
D39*
G04 #@! TO.C,C118*
X53597500Y-27442500D03*
X53597500Y-29167500D03*
G04 #@! TD*
D40*
G04 #@! TO.C,R126*
X51597500Y-40445000D03*
X51597500Y-41465000D03*
G04 #@! TD*
D41*
G04 #@! TO.C,DOUT108*
X29051053Y-39808553D03*
X28343947Y-39101447D03*
G04 #@! TD*
M02*
