M48
; DRILL file {KiCad 9.0.4} date 2025-08-20T21:16:51-0400
; FORMAT={-:-/ absolute / metric / decimal}
; #@! TF.CreationDate,2025-08-20T21:16:51-04:00
; #@! TF.GenerationSoftware,Kicad,Pcbnew,9.0.4
; #@! TF.FileFunction,NonPlated,1,4,NPTH
FMAT,2
METRIC
; #@! TA.AperFunction,NonPlated,NPTH,ComponentDrill
T1C0.500
%
G90
G05
T1
X0.327Y-22.0
X0.327Y-48.46
X1.154Y-22.0
X1.154Y-48.46
X1.981Y-22.0
X1.981Y-48.46
X2.807Y-22.0
X2.807Y-48.46
X3.634Y-22.0
X3.634Y-48.46
X4.461Y-22.0
X4.461Y-48.46
X5.288Y-22.0
X5.288Y-48.46
X6.115Y-22.0
X6.115Y-48.46
X6.942Y-22.0
X6.942Y-48.46
X7.769Y-22.0
X7.769Y-48.46
X8.596Y-22.0
X8.596Y-48.46
X9.422Y-22.0
X9.422Y-48.46
X10.249Y-22.0
X10.249Y-48.46
X11.076Y-22.0
X11.076Y-48.46
X11.903Y-22.0
X11.903Y-48.46
X13.98Y-26.8
X13.98Y-27.6
X13.98Y-28.4
X13.98Y-29.2
X13.98Y-41.26
X13.98Y-42.06
X13.98Y-42.86
X13.98Y-43.66
X56.48Y-26.8
X56.48Y-27.6
X56.48Y-28.4
X56.48Y-29.2
X56.48Y-41.26
X56.48Y-42.06
X56.48Y-42.86
X56.48Y-43.66
X58.557Y-22.0
X58.557Y-48.46
X59.384Y-22.0
X59.384Y-48.46
X60.211Y-22.0
X60.211Y-48.46
X61.037Y-22.0
X61.037Y-48.46
X61.864Y-22.0
X61.864Y-48.46
X62.691Y-22.0
X62.691Y-48.46
X63.518Y-22.0
X63.518Y-48.46
X64.345Y-22.0
X64.345Y-48.46
X65.172Y-22.0
X65.172Y-48.46
X65.999Y-22.0
X65.999Y-48.46
X66.826Y-22.0
X66.826Y-48.46
X67.653Y-22.0
X67.653Y-48.46
X68.479Y-22.0
X68.479Y-48.46
X69.306Y-22.0
X69.306Y-48.46
X70.133Y-22.0
X70.133Y-48.46
M30
