M48
; DRILL file {KiCad 9.0.4} date 2025-08-20T21:16:51-0400
; FORMAT={-:-/ absolute / metric / decimal}
; #@! TF.CreationDate,2025-08-20T21:16:51-04:00
; #@! TF.GenerationSoftware,Kicad,Pcbnew,9.0.4
; #@! TF.FileFunction,Plated,1,4,PTH
FMAT,2
METRIC
; #@! TA.AperFunction,Plated,PTH,ViaDrill
T1C0.200
; #@! TA.AperFunction,Plated,PTH,ComponentDrill
T2C0.200
; #@! TA.AperFunction,Plated,PTH,ViaDrill
T3C0.400
; #@! TA.AperFunction,Plated,PTH,ComponentDrill
T4C1.000
; #@! TA.AperFunction,Plated,PTH,ComponentDrill
T5C2.200
%
G90
G05
T1
X14.997Y-40.455
X20.16Y-41.842
X21.197Y-47.655
X21.647Y-36.055
X22.397Y-38.855
X22.598Y-47.655
X22.761Y-42.334
X23.797Y-22.455
X23.797Y-25.055
X23.997Y-29.855
X24.197Y-40.055
X25.297Y-42.055
X25.598Y-27.255
X27.397Y-34.055
X28.404Y-43.635
X28.797Y-47.855
X31.332Y-43.755
X32.622Y-31.818
X33.398Y-33.655
X33.398Y-42.155
X36.701Y-42.849
X37.151Y-28.705
X38.259Y-42.804
X40.102Y-42.281
X40.597Y-28.255
X41.597Y-40.055
X41.597Y-42.455
X44.997Y-39.455
X45.197Y-35.255
X46.597Y-41.655
X48.797Y-38.655
X51.547Y-28.705
X53.306Y-42.564
X54.197Y-43.055
X54.697Y-26.455
X55.797Y-37.655
T2
X21.397Y-30.555
X21.397Y-42.255
X25.397Y-31.555
X28.598Y-41.255
X29.697Y-31.48
X31.598Y-42.455
X33.597Y-31.255
X34.398Y-43.855
X38.672Y-34.946
X38.672Y-35.935
X39.167Y-35.441
X39.662Y-34.946
X39.662Y-35.935
X43.597Y-31.48
X45.197Y-38.555
X46.497Y-38.055
X47.197Y-31.417
X47.797Y-38.055
X50.797Y-31.49
X52.398Y-39.655
X54.398Y-31.537
X55.297Y-34.255
T3
X23.712Y-43.715
X38.597Y-31.08
T4
X16.195Y-23.795
X16.195Y-26.335
X16.195Y-28.875
X16.195Y-31.415
X16.195Y-33.955
X16.195Y-36.495
X16.195Y-39.035
X16.195Y-41.575
X16.195Y-44.115
X16.195Y-46.655
X18.735Y-23.795
X18.735Y-26.335
X18.735Y-28.875
X18.735Y-31.415
X18.735Y-33.955
X18.735Y-36.495
X18.735Y-39.035
X18.735Y-41.575
X18.735Y-44.115
X18.735Y-46.655
X31.445Y-23.8
X31.445Y-26.34
X31.445Y-46.66
X33.985Y-23.8
X33.985Y-26.34
X33.985Y-46.66
X36.525Y-23.8
X36.525Y-26.34
X36.525Y-46.66
X39.065Y-23.8
X39.065Y-26.34
X39.065Y-46.66
X41.605Y-23.8
X41.605Y-26.34
X41.605Y-46.66
X44.145Y-23.8
X44.145Y-26.34
X44.145Y-46.66
X46.685Y-23.8
X46.685Y-26.34
X46.685Y-46.66
X49.225Y-23.8
X49.225Y-26.34
X49.225Y-46.66
X51.75Y-26.34
X54.29Y-36.5
X54.29Y-39.04
X54.29Y-41.58
T5
X26.35Y-23.8
X26.35Y-46.66
X54.29Y-23.8
X54.29Y-46.66
M30
