G04 #@! TF.GenerationSoftware,KiCad,Pcbnew,9.0.4*
G04 #@! TF.CreationDate,2025-08-20T21:16:51-04:00*
G04 #@! TF.ProjectId,jlcpcb_1x1,6a6c6370-6362-45f3-9178-312e6b696361,rev?*
G04 #@! TF.SameCoordinates,Original*
G04 #@! TF.FileFunction,Legend,Top*
G04 #@! TF.FilePolarity,Positive*
%FSLAX46Y46*%
G04 Gerber Fmt 4.6, Leading zero omitted, Abs format (unit mm)*
G04 Created by KiCad (PCBNEW 9.0.4) date 2025-08-20 21:16:51*
%MOMM*%
%LPD*%
G01*
G04 APERTURE LIST*
%ADD10C,0.300000*%
%ADD11C,0.200000*%
%ADD12C,0.150000*%
%ADD13C,0.100000*%
%ADD14C,0.120000*%
G04 APERTURE END LIST*
D10*
X37191206Y-65638328D02*
X38048349Y-65638328D01*
X37619777Y-67138328D02*
X37619777Y-65638328D01*
X38548348Y-66566900D02*
X39691206Y-66566900D01*
X40405491Y-67138328D02*
X40405491Y-65638328D01*
X40405491Y-65638328D02*
X40762634Y-65638328D01*
X40762634Y-65638328D02*
X40976920Y-65709757D01*
X40976920Y-65709757D02*
X41119777Y-65852614D01*
X41119777Y-65852614D02*
X41191206Y-65995471D01*
X41191206Y-65995471D02*
X41262634Y-66281185D01*
X41262634Y-66281185D02*
X41262634Y-66495471D01*
X41262634Y-66495471D02*
X41191206Y-66781185D01*
X41191206Y-66781185D02*
X41119777Y-66924042D01*
X41119777Y-66924042D02*
X40976920Y-67066900D01*
X40976920Y-67066900D02*
X40762634Y-67138328D01*
X40762634Y-67138328D02*
X40405491Y-67138328D01*
X41834063Y-67066900D02*
X42048349Y-67138328D01*
X42048349Y-67138328D02*
X42405491Y-67138328D01*
X42405491Y-67138328D02*
X42548349Y-67066900D01*
X42548349Y-67066900D02*
X42619777Y-66995471D01*
X42619777Y-66995471D02*
X42691206Y-66852614D01*
X42691206Y-66852614D02*
X42691206Y-66709757D01*
X42691206Y-66709757D02*
X42619777Y-66566900D01*
X42619777Y-66566900D02*
X42548349Y-66495471D01*
X42548349Y-66495471D02*
X42405491Y-66424042D01*
X42405491Y-66424042D02*
X42119777Y-66352614D01*
X42119777Y-66352614D02*
X41976920Y-66281185D01*
X41976920Y-66281185D02*
X41905491Y-66209757D01*
X41905491Y-66209757D02*
X41834063Y-66066900D01*
X41834063Y-66066900D02*
X41834063Y-65924042D01*
X41834063Y-65924042D02*
X41905491Y-65781185D01*
X41905491Y-65781185D02*
X41976920Y-65709757D01*
X41976920Y-65709757D02*
X42119777Y-65638328D01*
X42119777Y-65638328D02*
X42476920Y-65638328D01*
X42476920Y-65638328D02*
X42691206Y-65709757D01*
X43334062Y-67138328D02*
X43334062Y-65638328D01*
X43334062Y-65638328D02*
X43905491Y-65638328D01*
X43905491Y-65638328D02*
X44048348Y-65709757D01*
X44048348Y-65709757D02*
X44119777Y-65781185D01*
X44119777Y-65781185D02*
X44191205Y-65924042D01*
X44191205Y-65924042D02*
X44191205Y-66138328D01*
X44191205Y-66138328D02*
X44119777Y-66281185D01*
X44119777Y-66281185D02*
X44048348Y-66352614D01*
X44048348Y-66352614D02*
X43905491Y-66424042D01*
X43905491Y-66424042D02*
X43334062Y-66424042D01*
X44476920Y-67281185D02*
X45619777Y-67281185D01*
X45762634Y-65638328D02*
X46619777Y-65638328D01*
X46191205Y-67138328D02*
X46191205Y-65638328D01*
X47048348Y-66709757D02*
X47762634Y-66709757D01*
X46905491Y-67138328D02*
X47405491Y-65638328D01*
X47405491Y-65638328D02*
X47905491Y-67138328D01*
X49262633Y-66995471D02*
X49191205Y-67066900D01*
X49191205Y-67066900D02*
X48976919Y-67138328D01*
X48976919Y-67138328D02*
X48834062Y-67138328D01*
X48834062Y-67138328D02*
X48619776Y-67066900D01*
X48619776Y-67066900D02*
X48476919Y-66924042D01*
X48476919Y-66924042D02*
X48405490Y-66781185D01*
X48405490Y-66781185D02*
X48334062Y-66495471D01*
X48334062Y-66495471D02*
X48334062Y-66281185D01*
X48334062Y-66281185D02*
X48405490Y-65995471D01*
X48405490Y-65995471D02*
X48476919Y-65852614D01*
X48476919Y-65852614D02*
X48619776Y-65709757D01*
X48619776Y-65709757D02*
X48834062Y-65638328D01*
X48834062Y-65638328D02*
X48976919Y-65638328D01*
X48976919Y-65638328D02*
X49191205Y-65709757D01*
X49191205Y-65709757D02*
X49262633Y-65781185D01*
X50619776Y-65638328D02*
X49905490Y-65638328D01*
X49905490Y-65638328D02*
X49834062Y-66352614D01*
X49834062Y-66352614D02*
X49905490Y-66281185D01*
X49905490Y-66281185D02*
X50048348Y-66209757D01*
X50048348Y-66209757D02*
X50405490Y-66209757D01*
X50405490Y-66209757D02*
X50548348Y-66281185D01*
X50548348Y-66281185D02*
X50619776Y-66352614D01*
X50619776Y-66352614D02*
X50691205Y-66495471D01*
X50691205Y-66495471D02*
X50691205Y-66852614D01*
X50691205Y-66852614D02*
X50619776Y-66995471D01*
X50619776Y-66995471D02*
X50548348Y-67066900D01*
X50548348Y-67066900D02*
X50405490Y-67138328D01*
X50405490Y-67138328D02*
X50048348Y-67138328D01*
X50048348Y-67138328D02*
X49905490Y-67066900D01*
X49905490Y-67066900D02*
X49834062Y-66995471D01*
X51262633Y-65781185D02*
X51334061Y-65709757D01*
X51334061Y-65709757D02*
X51476919Y-65638328D01*
X51476919Y-65638328D02*
X51834061Y-65638328D01*
X51834061Y-65638328D02*
X51976919Y-65709757D01*
X51976919Y-65709757D02*
X52048347Y-65781185D01*
X52048347Y-65781185D02*
X52119776Y-65924042D01*
X52119776Y-65924042D02*
X52119776Y-66066900D01*
X52119776Y-66066900D02*
X52048347Y-66281185D01*
X52048347Y-66281185D02*
X51191204Y-67138328D01*
X51191204Y-67138328D02*
X52119776Y-67138328D01*
X53548347Y-67138328D02*
X52691204Y-67138328D01*
X53119775Y-67138328D02*
X53119775Y-65638328D01*
X53119775Y-65638328D02*
X52976918Y-65852614D01*
X52976918Y-65852614D02*
X52834061Y-65995471D01*
X52834061Y-65995471D02*
X52691204Y-66066900D01*
X54119775Y-65781185D02*
X54191203Y-65709757D01*
X54191203Y-65709757D02*
X54334061Y-65638328D01*
X54334061Y-65638328D02*
X54691203Y-65638328D01*
X54691203Y-65638328D02*
X54834061Y-65709757D01*
X54834061Y-65709757D02*
X54905489Y-65781185D01*
X54905489Y-65781185D02*
X54976918Y-65924042D01*
X54976918Y-65924042D02*
X54976918Y-66066900D01*
X54976918Y-66066900D02*
X54905489Y-66281185D01*
X54905489Y-66281185D02*
X54048346Y-67138328D01*
X54048346Y-67138328D02*
X54976918Y-67138328D01*
D11*
X25225195Y-33559761D02*
X25225195Y-33102618D01*
X26025195Y-33331190D02*
X25225195Y-33331190D01*
X25720433Y-32835951D02*
X25720433Y-32226428D01*
X26025195Y-31845475D02*
X25225195Y-31845475D01*
X25225195Y-31845475D02*
X25225195Y-31654999D01*
X25225195Y-31654999D02*
X25263290Y-31540713D01*
X25263290Y-31540713D02*
X25339480Y-31464523D01*
X25339480Y-31464523D02*
X25415671Y-31426428D01*
X25415671Y-31426428D02*
X25568052Y-31388332D01*
X25568052Y-31388332D02*
X25682338Y-31388332D01*
X25682338Y-31388332D02*
X25834719Y-31426428D01*
X25834719Y-31426428D02*
X25910909Y-31464523D01*
X25910909Y-31464523D02*
X25987100Y-31540713D01*
X25987100Y-31540713D02*
X26025195Y-31654999D01*
X26025195Y-31654999D02*
X26025195Y-31845475D01*
X25987100Y-31083571D02*
X26025195Y-30969285D01*
X26025195Y-30969285D02*
X26025195Y-30778809D01*
X26025195Y-30778809D02*
X25987100Y-30702618D01*
X25987100Y-30702618D02*
X25949004Y-30664523D01*
X25949004Y-30664523D02*
X25872814Y-30626428D01*
X25872814Y-30626428D02*
X25796623Y-30626428D01*
X25796623Y-30626428D02*
X25720433Y-30664523D01*
X25720433Y-30664523D02*
X25682338Y-30702618D01*
X25682338Y-30702618D02*
X25644242Y-30778809D01*
X25644242Y-30778809D02*
X25606147Y-30931190D01*
X25606147Y-30931190D02*
X25568052Y-31007380D01*
X25568052Y-31007380D02*
X25529957Y-31045475D01*
X25529957Y-31045475D02*
X25453766Y-31083571D01*
X25453766Y-31083571D02*
X25377576Y-31083571D01*
X25377576Y-31083571D02*
X25301385Y-31045475D01*
X25301385Y-31045475D02*
X25263290Y-31007380D01*
X25263290Y-31007380D02*
X25225195Y-30931190D01*
X25225195Y-30931190D02*
X25225195Y-30740713D01*
X25225195Y-30740713D02*
X25263290Y-30626428D01*
X26025195Y-30283570D02*
X25225195Y-30283570D01*
X25225195Y-30283570D02*
X25225195Y-29978808D01*
X25225195Y-29978808D02*
X25263290Y-29902618D01*
X25263290Y-29902618D02*
X25301385Y-29864523D01*
X25301385Y-29864523D02*
X25377576Y-29826427D01*
X25377576Y-29826427D02*
X25491861Y-29826427D01*
X25491861Y-29826427D02*
X25568052Y-29864523D01*
X25568052Y-29864523D02*
X25606147Y-29902618D01*
X25606147Y-29902618D02*
X25644242Y-29978808D01*
X25644242Y-29978808D02*
X25644242Y-30283570D01*
X26513150Y-36131190D02*
X26513150Y-35674047D01*
X27313150Y-35902619D02*
X26513150Y-35902619D01*
X27084578Y-35445476D02*
X27084578Y-35064523D01*
X27313150Y-35521666D02*
X26513150Y-35254999D01*
X26513150Y-35254999D02*
X27313150Y-34988333D01*
X27236959Y-34264523D02*
X27275055Y-34302619D01*
X27275055Y-34302619D02*
X27313150Y-34416904D01*
X27313150Y-34416904D02*
X27313150Y-34493095D01*
X27313150Y-34493095D02*
X27275055Y-34607381D01*
X27275055Y-34607381D02*
X27198864Y-34683571D01*
X27198864Y-34683571D02*
X27122674Y-34721666D01*
X27122674Y-34721666D02*
X26970293Y-34759762D01*
X26970293Y-34759762D02*
X26856007Y-34759762D01*
X26856007Y-34759762D02*
X26703626Y-34721666D01*
X26703626Y-34721666D02*
X26627435Y-34683571D01*
X26627435Y-34683571D02*
X26551245Y-34607381D01*
X26551245Y-34607381D02*
X26513150Y-34493095D01*
X26513150Y-34493095D02*
X26513150Y-34416904D01*
X26513150Y-34416904D02*
X26551245Y-34302619D01*
X26551245Y-34302619D02*
X26589340Y-34264523D01*
X26513150Y-33540714D02*
X26513150Y-33921666D01*
X26513150Y-33921666D02*
X26894102Y-33959762D01*
X26894102Y-33959762D02*
X26856007Y-33921666D01*
X26856007Y-33921666D02*
X26817912Y-33845476D01*
X26817912Y-33845476D02*
X26817912Y-33655000D01*
X26817912Y-33655000D02*
X26856007Y-33578809D01*
X26856007Y-33578809D02*
X26894102Y-33540714D01*
X26894102Y-33540714D02*
X26970293Y-33502619D01*
X26970293Y-33502619D02*
X27160769Y-33502619D01*
X27160769Y-33502619D02*
X27236959Y-33540714D01*
X27236959Y-33540714D02*
X27275055Y-33578809D01*
X27275055Y-33578809D02*
X27313150Y-33655000D01*
X27313150Y-33655000D02*
X27313150Y-33845476D01*
X27313150Y-33845476D02*
X27275055Y-33921666D01*
X27275055Y-33921666D02*
X27236959Y-33959762D01*
X26589340Y-33197857D02*
X26551245Y-33159761D01*
X26551245Y-33159761D02*
X26513150Y-33083571D01*
X26513150Y-33083571D02*
X26513150Y-32893095D01*
X26513150Y-32893095D02*
X26551245Y-32816904D01*
X26551245Y-32816904D02*
X26589340Y-32778809D01*
X26589340Y-32778809D02*
X26665531Y-32740714D01*
X26665531Y-32740714D02*
X26741721Y-32740714D01*
X26741721Y-32740714D02*
X26856007Y-32778809D01*
X26856007Y-32778809D02*
X27313150Y-33235952D01*
X27313150Y-33235952D02*
X27313150Y-32740714D01*
X27313150Y-31978809D02*
X27313150Y-32435952D01*
X27313150Y-32207380D02*
X26513150Y-32207380D01*
X26513150Y-32207380D02*
X26627435Y-32283571D01*
X26627435Y-32283571D02*
X26703626Y-32359761D01*
X26703626Y-32359761D02*
X26741721Y-32435952D01*
X26589340Y-31674047D02*
X26551245Y-31635951D01*
X26551245Y-31635951D02*
X26513150Y-31559761D01*
X26513150Y-31559761D02*
X26513150Y-31369285D01*
X26513150Y-31369285D02*
X26551245Y-31293094D01*
X26551245Y-31293094D02*
X26589340Y-31254999D01*
X26589340Y-31254999D02*
X26665531Y-31216904D01*
X26665531Y-31216904D02*
X26741721Y-31216904D01*
X26741721Y-31216904D02*
X26856007Y-31254999D01*
X26856007Y-31254999D02*
X27313150Y-31712142D01*
X27313150Y-31712142D02*
X27313150Y-31216904D01*
X26513150Y-30378808D02*
X27313150Y-30112141D01*
X27313150Y-30112141D02*
X26513150Y-29845475D01*
X26513150Y-29426427D02*
X26513150Y-29350237D01*
X26513150Y-29350237D02*
X26551245Y-29274046D01*
X26551245Y-29274046D02*
X26589340Y-29235951D01*
X26589340Y-29235951D02*
X26665531Y-29197856D01*
X26665531Y-29197856D02*
X26817912Y-29159761D01*
X26817912Y-29159761D02*
X27008388Y-29159761D01*
X27008388Y-29159761D02*
X27160769Y-29197856D01*
X27160769Y-29197856D02*
X27236959Y-29235951D01*
X27236959Y-29235951D02*
X27275055Y-29274046D01*
X27275055Y-29274046D02*
X27313150Y-29350237D01*
X27313150Y-29350237D02*
X27313150Y-29426427D01*
X27313150Y-29426427D02*
X27275055Y-29502618D01*
X27275055Y-29502618D02*
X27236959Y-29540713D01*
X27236959Y-29540713D02*
X27160769Y-29578808D01*
X27160769Y-29578808D02*
X27008388Y-29616904D01*
X27008388Y-29616904D02*
X26817912Y-29616904D01*
X26817912Y-29616904D02*
X26665531Y-29578808D01*
X26665531Y-29578808D02*
X26589340Y-29540713D01*
X26589340Y-29540713D02*
X26551245Y-29502618D01*
X26551245Y-29502618D02*
X26513150Y-29426427D01*
X27236959Y-28816903D02*
X27275055Y-28778808D01*
X27275055Y-28778808D02*
X27313150Y-28816903D01*
X27313150Y-28816903D02*
X27275055Y-28854999D01*
X27275055Y-28854999D02*
X27236959Y-28816903D01*
X27236959Y-28816903D02*
X27313150Y-28816903D01*
X27313150Y-28397856D02*
X27313150Y-28245475D01*
X27313150Y-28245475D02*
X27275055Y-28169285D01*
X27275055Y-28169285D02*
X27236959Y-28131189D01*
X27236959Y-28131189D02*
X27122674Y-28054999D01*
X27122674Y-28054999D02*
X26970293Y-28016904D01*
X26970293Y-28016904D02*
X26665531Y-28016904D01*
X26665531Y-28016904D02*
X26589340Y-28054999D01*
X26589340Y-28054999D02*
X26551245Y-28093094D01*
X26551245Y-28093094D02*
X26513150Y-28169285D01*
X26513150Y-28169285D02*
X26513150Y-28321666D01*
X26513150Y-28321666D02*
X26551245Y-28397856D01*
X26551245Y-28397856D02*
X26589340Y-28435951D01*
X26589340Y-28435951D02*
X26665531Y-28474047D01*
X26665531Y-28474047D02*
X26856007Y-28474047D01*
X26856007Y-28474047D02*
X26932197Y-28435951D01*
X26932197Y-28435951D02*
X26970293Y-28397856D01*
X26970293Y-28397856D02*
X27008388Y-28321666D01*
X27008388Y-28321666D02*
X27008388Y-28169285D01*
X27008388Y-28169285D02*
X26970293Y-28093094D01*
X26970293Y-28093094D02*
X26932197Y-28054999D01*
X26932197Y-28054999D02*
X26856007Y-28016904D01*
X27313150Y-27254999D02*
X27313150Y-27712142D01*
X27313150Y-27483570D02*
X26513150Y-27483570D01*
X26513150Y-27483570D02*
X26627435Y-27559761D01*
X26627435Y-27559761D02*
X26703626Y-27635951D01*
X26703626Y-27635951D02*
X26741721Y-27712142D01*
D12*
X51440747Y-22665839D02*
X51440747Y-22399173D01*
X51859795Y-22284887D02*
X51859795Y-22665839D01*
X51859795Y-22665839D02*
X51059795Y-22665839D01*
X51059795Y-22665839D02*
X51059795Y-22284887D01*
X36636660Y-41949295D02*
X36636660Y-41149295D01*
X36636660Y-41149295D02*
X36941422Y-41149295D01*
X36941422Y-41149295D02*
X37017612Y-41187390D01*
X37017612Y-41187390D02*
X37055707Y-41225485D01*
X37055707Y-41225485D02*
X37093803Y-41301676D01*
X37093803Y-41301676D02*
X37093803Y-41415961D01*
X37093803Y-41415961D02*
X37055707Y-41492152D01*
X37055707Y-41492152D02*
X37017612Y-41530247D01*
X37017612Y-41530247D02*
X36941422Y-41568342D01*
X36941422Y-41568342D02*
X36636660Y-41568342D01*
X37436660Y-41149295D02*
X37436660Y-41796914D01*
X37436660Y-41796914D02*
X37474755Y-41873104D01*
X37474755Y-41873104D02*
X37512850Y-41911200D01*
X37512850Y-41911200D02*
X37589041Y-41949295D01*
X37589041Y-41949295D02*
X37741422Y-41949295D01*
X37741422Y-41949295D02*
X37817612Y-41911200D01*
X37817612Y-41911200D02*
X37855707Y-41873104D01*
X37855707Y-41873104D02*
X37893803Y-41796914D01*
X37893803Y-41796914D02*
X37893803Y-41149295D01*
X51197890Y-45146792D02*
X51159795Y-45222982D01*
X51159795Y-45222982D02*
X51159795Y-45337268D01*
X51159795Y-45337268D02*
X51197890Y-45451554D01*
X51197890Y-45451554D02*
X51274080Y-45527744D01*
X51274080Y-45527744D02*
X51350271Y-45565839D01*
X51350271Y-45565839D02*
X51502652Y-45603935D01*
X51502652Y-45603935D02*
X51616938Y-45603935D01*
X51616938Y-45603935D02*
X51769319Y-45565839D01*
X51769319Y-45565839D02*
X51845509Y-45527744D01*
X51845509Y-45527744D02*
X51921700Y-45451554D01*
X51921700Y-45451554D02*
X51959795Y-45337268D01*
X51959795Y-45337268D02*
X51959795Y-45261077D01*
X51959795Y-45261077D02*
X51921700Y-45146792D01*
X51921700Y-45146792D02*
X51883604Y-45108696D01*
X51883604Y-45108696D02*
X51616938Y-45108696D01*
X51616938Y-45108696D02*
X51616938Y-45261077D01*
X47559795Y-38552619D02*
X47559795Y-38933571D01*
X47559795Y-38933571D02*
X47940747Y-38971667D01*
X47940747Y-38971667D02*
X47902652Y-38933571D01*
X47902652Y-38933571D02*
X47864557Y-38857381D01*
X47864557Y-38857381D02*
X47864557Y-38666905D01*
X47864557Y-38666905D02*
X47902652Y-38590714D01*
X47902652Y-38590714D02*
X47940747Y-38552619D01*
X47940747Y-38552619D02*
X48016938Y-38514524D01*
X48016938Y-38514524D02*
X48207414Y-38514524D01*
X48207414Y-38514524D02*
X48283604Y-38552619D01*
X48283604Y-38552619D02*
X48321700Y-38590714D01*
X48321700Y-38590714D02*
X48359795Y-38666905D01*
X48359795Y-38666905D02*
X48359795Y-38857381D01*
X48359795Y-38857381D02*
X48321700Y-38933571D01*
X48321700Y-38933571D02*
X48283604Y-38971667D01*
X48359795Y-37752619D02*
X48359795Y-38209762D01*
X48359795Y-37981190D02*
X47559795Y-37981190D01*
X47559795Y-37981190D02*
X47674080Y-38057381D01*
X47674080Y-38057381D02*
X47750271Y-38133571D01*
X47750271Y-38133571D02*
X47788366Y-38209762D01*
X48131223Y-33181189D02*
X48131223Y-32800236D01*
X48359795Y-33257379D02*
X47559795Y-32990712D01*
X47559795Y-32990712D02*
X48359795Y-32724046D01*
X47635985Y-32495475D02*
X47597890Y-32457379D01*
X47597890Y-32457379D02*
X47559795Y-32381189D01*
X47559795Y-32381189D02*
X47559795Y-32190713D01*
X47559795Y-32190713D02*
X47597890Y-32114522D01*
X47597890Y-32114522D02*
X47635985Y-32076427D01*
X47635985Y-32076427D02*
X47712176Y-32038332D01*
X47712176Y-32038332D02*
X47788366Y-32038332D01*
X47788366Y-32038332D02*
X47902652Y-32076427D01*
X47902652Y-32076427D02*
X48359795Y-32533570D01*
X48359795Y-32533570D02*
X48359795Y-32038332D01*
X50759795Y-38552619D02*
X50759795Y-38933571D01*
X50759795Y-38933571D02*
X51140747Y-38971667D01*
X51140747Y-38971667D02*
X51102652Y-38933571D01*
X51102652Y-38933571D02*
X51064557Y-38857381D01*
X51064557Y-38857381D02*
X51064557Y-38666905D01*
X51064557Y-38666905D02*
X51102652Y-38590714D01*
X51102652Y-38590714D02*
X51140747Y-38552619D01*
X51140747Y-38552619D02*
X51216938Y-38514524D01*
X51216938Y-38514524D02*
X51407414Y-38514524D01*
X51407414Y-38514524D02*
X51483604Y-38552619D01*
X51483604Y-38552619D02*
X51521700Y-38590714D01*
X51521700Y-38590714D02*
X51559795Y-38666905D01*
X51559795Y-38666905D02*
X51559795Y-38857381D01*
X51559795Y-38857381D02*
X51521700Y-38933571D01*
X51521700Y-38933571D02*
X51483604Y-38971667D01*
X50759795Y-38247857D02*
X50759795Y-37752619D01*
X50759795Y-37752619D02*
X51064557Y-38019285D01*
X51064557Y-38019285D02*
X51064557Y-37905000D01*
X51064557Y-37905000D02*
X51102652Y-37828809D01*
X51102652Y-37828809D02*
X51140747Y-37790714D01*
X51140747Y-37790714D02*
X51216938Y-37752619D01*
X51216938Y-37752619D02*
X51407414Y-37752619D01*
X51407414Y-37752619D02*
X51483604Y-37790714D01*
X51483604Y-37790714D02*
X51521700Y-37828809D01*
X51521700Y-37828809D02*
X51559795Y-37905000D01*
X51559795Y-37905000D02*
X51559795Y-38133571D01*
X51559795Y-38133571D02*
X51521700Y-38209762D01*
X51521700Y-38209762D02*
X51483604Y-38247857D01*
X51331223Y-33181189D02*
X51331223Y-32800236D01*
X51559795Y-33257379D02*
X50759795Y-32990712D01*
X50759795Y-32990712D02*
X51559795Y-32724046D01*
X50759795Y-32114522D02*
X50759795Y-32266903D01*
X50759795Y-32266903D02*
X50797890Y-32343094D01*
X50797890Y-32343094D02*
X50835985Y-32381189D01*
X50835985Y-32381189D02*
X50950271Y-32457379D01*
X50950271Y-32457379D02*
X51102652Y-32495475D01*
X51102652Y-32495475D02*
X51407414Y-32495475D01*
X51407414Y-32495475D02*
X51483604Y-32457379D01*
X51483604Y-32457379D02*
X51521700Y-32419284D01*
X51521700Y-32419284D02*
X51559795Y-32343094D01*
X51559795Y-32343094D02*
X51559795Y-32190713D01*
X51559795Y-32190713D02*
X51521700Y-32114522D01*
X51521700Y-32114522D02*
X51483604Y-32076427D01*
X51483604Y-32076427D02*
X51407414Y-32038332D01*
X51407414Y-32038332D02*
X51216938Y-32038332D01*
X51216938Y-32038332D02*
X51140747Y-32076427D01*
X51140747Y-32076427D02*
X51102652Y-32114522D01*
X51102652Y-32114522D02*
X51064557Y-32190713D01*
X51064557Y-32190713D02*
X51064557Y-32343094D01*
X51064557Y-32343094D02*
X51102652Y-32419284D01*
X51102652Y-32419284D02*
X51140747Y-32457379D01*
X51140747Y-32457379D02*
X51216938Y-32495475D01*
X48441795Y-42715839D02*
X47641795Y-42715839D01*
X47641795Y-42715839D02*
X47641795Y-42411077D01*
X47641795Y-42411077D02*
X47679890Y-42334887D01*
X47679890Y-42334887D02*
X47717985Y-42296792D01*
X47717985Y-42296792D02*
X47794176Y-42258696D01*
X47794176Y-42258696D02*
X47908461Y-42258696D01*
X47908461Y-42258696D02*
X47984652Y-42296792D01*
X47984652Y-42296792D02*
X48022747Y-42334887D01*
X48022747Y-42334887D02*
X48060842Y-42411077D01*
X48060842Y-42411077D02*
X48060842Y-42715839D01*
X47641795Y-41992030D02*
X48441795Y-41801554D01*
X48441795Y-41801554D02*
X47870366Y-41649173D01*
X47870366Y-41649173D02*
X48441795Y-41496792D01*
X48441795Y-41496792D02*
X47641795Y-41306316D01*
X48441795Y-40544410D02*
X48060842Y-40811077D01*
X48441795Y-41001553D02*
X47641795Y-41001553D01*
X47641795Y-41001553D02*
X47641795Y-40696791D01*
X47641795Y-40696791D02*
X47679890Y-40620601D01*
X47679890Y-40620601D02*
X47717985Y-40582506D01*
X47717985Y-40582506D02*
X47794176Y-40544410D01*
X47794176Y-40544410D02*
X47908461Y-40544410D01*
X47908461Y-40544410D02*
X47984652Y-40582506D01*
X47984652Y-40582506D02*
X48022747Y-40620601D01*
X48022747Y-40620601D02*
X48060842Y-40696791D01*
X48060842Y-40696791D02*
X48060842Y-41001553D01*
X47908461Y-40201553D02*
X48137033Y-39592030D01*
X48137033Y-39592030D02*
X48365604Y-40201553D01*
X22774523Y-31959819D02*
X22298333Y-31959819D01*
X22298333Y-31959819D02*
X22298333Y-30959819D01*
X23679285Y-31959819D02*
X23345952Y-31483628D01*
X23107857Y-31959819D02*
X23107857Y-30959819D01*
X23107857Y-30959819D02*
X23488809Y-30959819D01*
X23488809Y-30959819D02*
X23584047Y-31007438D01*
X23584047Y-31007438D02*
X23631666Y-31055057D01*
X23631666Y-31055057D02*
X23679285Y-31150295D01*
X23679285Y-31150295D02*
X23679285Y-31293152D01*
X23679285Y-31293152D02*
X23631666Y-31388390D01*
X23631666Y-31388390D02*
X23584047Y-31436009D01*
X23584047Y-31436009D02*
X23488809Y-31483628D01*
X23488809Y-31483628D02*
X23107857Y-31483628D01*
X46300057Y-29359761D02*
X46252438Y-29312142D01*
X46252438Y-29312142D02*
X46204819Y-29216904D01*
X46204819Y-29216904D02*
X46204819Y-28978809D01*
X46204819Y-28978809D02*
X46252438Y-28883571D01*
X46252438Y-28883571D02*
X46300057Y-28835952D01*
X46300057Y-28835952D02*
X46395295Y-28788333D01*
X46395295Y-28788333D02*
X46490533Y-28788333D01*
X46490533Y-28788333D02*
X46633390Y-28835952D01*
X46633390Y-28835952D02*
X47204819Y-29407380D01*
X47204819Y-29407380D02*
X47204819Y-28788333D01*
X46823866Y-28359761D02*
X46823866Y-27597857D01*
X47204819Y-27978809D02*
X46442914Y-27978809D01*
X22589523Y-47114819D02*
X22256190Y-46638628D01*
X22018095Y-47114819D02*
X22018095Y-46114819D01*
X22018095Y-46114819D02*
X22399047Y-46114819D01*
X22399047Y-46114819D02*
X22494285Y-46162438D01*
X22494285Y-46162438D02*
X22541904Y-46210057D01*
X22541904Y-46210057D02*
X22589523Y-46305295D01*
X22589523Y-46305295D02*
X22589523Y-46448152D01*
X22589523Y-46448152D02*
X22541904Y-46543390D01*
X22541904Y-46543390D02*
X22494285Y-46591009D01*
X22494285Y-46591009D02*
X22399047Y-46638628D01*
X22399047Y-46638628D02*
X22018095Y-46638628D01*
G36*
X45739920Y-31100747D02*
G01*
X44320080Y-31100747D01*
X44320080Y-29914819D01*
X44431191Y-29914819D01*
X44431191Y-30914819D01*
X44432632Y-30929451D01*
X44443831Y-30956487D01*
X44464523Y-30977179D01*
X44491559Y-30988378D01*
X44520823Y-30988378D01*
X44547859Y-30977179D01*
X44568551Y-30956487D01*
X44579750Y-30929451D01*
X44581191Y-30914819D01*
X44581191Y-29914819D01*
X44907381Y-29914819D01*
X44907381Y-30914819D01*
X44908822Y-30929451D01*
X44920021Y-30956487D01*
X44940713Y-30977179D01*
X44967749Y-30988378D01*
X44997013Y-30988378D01*
X45024049Y-30977179D01*
X45044741Y-30956487D01*
X45055940Y-30929451D01*
X45057381Y-30914819D01*
X45057381Y-30197235D01*
X45488691Y-30952030D01*
X45490880Y-30955114D01*
X45491449Y-30956487D01*
X45492846Y-30957884D01*
X45497201Y-30964019D01*
X45505089Y-30970127D01*
X45512141Y-30977179D01*
X45516559Y-30979009D01*
X45520339Y-30981936D01*
X45529960Y-30984560D01*
X45539177Y-30988378D01*
X45543958Y-30988378D01*
X45548570Y-30989636D01*
X45558467Y-30988378D01*
X45568441Y-30988378D01*
X45572856Y-30986548D01*
X45577600Y-30985946D01*
X45586264Y-30980995D01*
X45595477Y-30977179D01*
X45598855Y-30973800D01*
X45603009Y-30971427D01*
X45609118Y-30963537D01*
X45616169Y-30956487D01*
X45617998Y-30952070D01*
X45620926Y-30948290D01*
X45623550Y-30938666D01*
X45627368Y-30929451D01*
X45628104Y-30921968D01*
X45628626Y-30920058D01*
X45628438Y-30918582D01*
X45628809Y-30914819D01*
X45628809Y-29914819D01*
X45627368Y-29900187D01*
X45616169Y-29873151D01*
X45595477Y-29852459D01*
X45568441Y-29841260D01*
X45539177Y-29841260D01*
X45512141Y-29852459D01*
X45491449Y-29873151D01*
X45480250Y-29900187D01*
X45478809Y-29914819D01*
X45478809Y-30632402D01*
X45047499Y-29877609D01*
X45045310Y-29874525D01*
X45044741Y-29873151D01*
X45043341Y-29871751D01*
X45038989Y-29865619D01*
X45031099Y-29859509D01*
X45024049Y-29852459D01*
X45019632Y-29850629D01*
X45015852Y-29847702D01*
X45006228Y-29845077D01*
X44997013Y-29841260D01*
X44992232Y-29841260D01*
X44987620Y-29840002D01*
X44977723Y-29841260D01*
X44967749Y-29841260D01*
X44963333Y-29843089D01*
X44958590Y-29843692D01*
X44949925Y-29848642D01*
X44940713Y-29852459D01*
X44937334Y-29855837D01*
X44933181Y-29858211D01*
X44927071Y-29866100D01*
X44920021Y-29873151D01*
X44918191Y-29877567D01*
X44915264Y-29881348D01*
X44912639Y-29890971D01*
X44908822Y-29900187D01*
X44908085Y-29907669D01*
X44907564Y-29909580D01*
X44907751Y-29911055D01*
X44907381Y-29914819D01*
X44581191Y-29914819D01*
X44579750Y-29900187D01*
X44568551Y-29873151D01*
X44547859Y-29852459D01*
X44520823Y-29841260D01*
X44491559Y-29841260D01*
X44464523Y-29852459D01*
X44443831Y-29873151D01*
X44432632Y-29900187D01*
X44431191Y-29914819D01*
X44320080Y-29914819D01*
X44320080Y-29728891D01*
X45739920Y-29728891D01*
X45739920Y-31100747D01*
G37*
X34504819Y-28788333D02*
X34504819Y-29359761D01*
X34504819Y-29074047D02*
X33504819Y-29074047D01*
X33504819Y-29074047D02*
X33647676Y-29169285D01*
X33647676Y-29169285D02*
X33742914Y-29264523D01*
X33742914Y-29264523D02*
X33790533Y-29359761D01*
X34123866Y-28359761D02*
X34123866Y-27597857D01*
X43604819Y-44626428D02*
X43604819Y-44435952D01*
X43604819Y-44435952D02*
X43652438Y-44340714D01*
X43652438Y-44340714D02*
X43747676Y-44245476D01*
X43747676Y-44245476D02*
X43938152Y-44197857D01*
X43938152Y-44197857D02*
X44271485Y-44197857D01*
X44271485Y-44197857D02*
X44461961Y-44245476D01*
X44461961Y-44245476D02*
X44557200Y-44340714D01*
X44557200Y-44340714D02*
X44604819Y-44435952D01*
X44604819Y-44435952D02*
X44604819Y-44626428D01*
X44604819Y-44626428D02*
X44557200Y-44721666D01*
X44557200Y-44721666D02*
X44461961Y-44816904D01*
X44461961Y-44816904D02*
X44271485Y-44864523D01*
X44271485Y-44864523D02*
X43938152Y-44864523D01*
X43938152Y-44864523D02*
X43747676Y-44816904D01*
X43747676Y-44816904D02*
X43652438Y-44721666D01*
X43652438Y-44721666D02*
X43604819Y-44626428D01*
X44604819Y-43245476D02*
X44604819Y-43816904D01*
X44604819Y-43531190D02*
X43604819Y-43531190D01*
X43604819Y-43531190D02*
X43747676Y-43626428D01*
X43747676Y-43626428D02*
X43842914Y-43721666D01*
X43842914Y-43721666D02*
X43890533Y-43816904D01*
X36032438Y-44393095D02*
X35984819Y-44488333D01*
X35984819Y-44488333D02*
X35984819Y-44631190D01*
X35984819Y-44631190D02*
X36032438Y-44774047D01*
X36032438Y-44774047D02*
X36127676Y-44869285D01*
X36127676Y-44869285D02*
X36222914Y-44916904D01*
X36222914Y-44916904D02*
X36413390Y-44964523D01*
X36413390Y-44964523D02*
X36556247Y-44964523D01*
X36556247Y-44964523D02*
X36746723Y-44916904D01*
X36746723Y-44916904D02*
X36841961Y-44869285D01*
X36841961Y-44869285D02*
X36937200Y-44774047D01*
X36937200Y-44774047D02*
X36984819Y-44631190D01*
X36984819Y-44631190D02*
X36984819Y-44535952D01*
X36984819Y-44535952D02*
X36937200Y-44393095D01*
X36937200Y-44393095D02*
X36889580Y-44345476D01*
X36889580Y-44345476D02*
X36556247Y-44345476D01*
X36556247Y-44345476D02*
X36556247Y-44535952D01*
X42064819Y-44959999D02*
X41064819Y-44959999D01*
X41064819Y-44293333D02*
X41064819Y-44102857D01*
X41064819Y-44102857D02*
X41112438Y-44007619D01*
X41112438Y-44007619D02*
X41207676Y-43912381D01*
X41207676Y-43912381D02*
X41398152Y-43864762D01*
X41398152Y-43864762D02*
X41731485Y-43864762D01*
X41731485Y-43864762D02*
X41921961Y-43912381D01*
X41921961Y-43912381D02*
X42017200Y-44007619D01*
X42017200Y-44007619D02*
X42064819Y-44102857D01*
X42064819Y-44102857D02*
X42064819Y-44293333D01*
X42064819Y-44293333D02*
X42017200Y-44388571D01*
X42017200Y-44388571D02*
X41921961Y-44483809D01*
X41921961Y-44483809D02*
X41731485Y-44531428D01*
X41731485Y-44531428D02*
X41398152Y-44531428D01*
X41398152Y-44531428D02*
X41207676Y-44483809D01*
X41207676Y-44483809D02*
X41112438Y-44388571D01*
X41112438Y-44388571D02*
X41064819Y-44293333D01*
X41160057Y-43483809D02*
X41112438Y-43436190D01*
X41112438Y-43436190D02*
X41064819Y-43340952D01*
X41064819Y-43340952D02*
X41064819Y-43102857D01*
X41064819Y-43102857D02*
X41112438Y-43007619D01*
X41112438Y-43007619D02*
X41160057Y-42960000D01*
X41160057Y-42960000D02*
X41255295Y-42912381D01*
X41255295Y-42912381D02*
X41350533Y-42912381D01*
X41350533Y-42912381D02*
X41493390Y-42960000D01*
X41493390Y-42960000D02*
X42064819Y-43531428D01*
X42064819Y-43531428D02*
X42064819Y-42912381D01*
X48840057Y-29359761D02*
X48792438Y-29312142D01*
X48792438Y-29312142D02*
X48744819Y-29216904D01*
X48744819Y-29216904D02*
X48744819Y-28978809D01*
X48744819Y-28978809D02*
X48792438Y-28883571D01*
X48792438Y-28883571D02*
X48840057Y-28835952D01*
X48840057Y-28835952D02*
X48935295Y-28788333D01*
X48935295Y-28788333D02*
X49030533Y-28788333D01*
X49030533Y-28788333D02*
X49173390Y-28835952D01*
X49173390Y-28835952D02*
X49744819Y-29407380D01*
X49744819Y-29407380D02*
X49744819Y-28788333D01*
X49363866Y-28359761D02*
X49363866Y-27597857D01*
X22036667Y-24339819D02*
X22036667Y-23339819D01*
X22036667Y-23339819D02*
X22370000Y-24054104D01*
X22370000Y-24054104D02*
X22703333Y-23339819D01*
X22703333Y-23339819D02*
X22703333Y-24339819D01*
X23179524Y-24339819D02*
X23179524Y-23339819D01*
X23750952Y-24339819D02*
X23322381Y-23768390D01*
X23750952Y-23339819D02*
X23179524Y-23911247D01*
X55282295Y-39669523D02*
X55282295Y-39174285D01*
X55282295Y-39174285D02*
X55587057Y-39440951D01*
X55587057Y-39440951D02*
X55587057Y-39326666D01*
X55587057Y-39326666D02*
X55625152Y-39250475D01*
X55625152Y-39250475D02*
X55663247Y-39212380D01*
X55663247Y-39212380D02*
X55739438Y-39174285D01*
X55739438Y-39174285D02*
X55929914Y-39174285D01*
X55929914Y-39174285D02*
X56006104Y-39212380D01*
X56006104Y-39212380D02*
X56044200Y-39250475D01*
X56044200Y-39250475D02*
X56082295Y-39326666D01*
X56082295Y-39326666D02*
X56082295Y-39555237D01*
X56082295Y-39555237D02*
X56044200Y-39631428D01*
X56044200Y-39631428D02*
X56006104Y-39669523D01*
X55282295Y-38945713D02*
X56082295Y-38679046D01*
X56082295Y-38679046D02*
X55282295Y-38412380D01*
X22108095Y-36039819D02*
X22679523Y-36039819D01*
X22393809Y-37039819D02*
X22393809Y-36039819D01*
X22917619Y-36039819D02*
X23584285Y-37039819D01*
X23584285Y-36039819D02*
X22917619Y-37039819D01*
X31964819Y-28788333D02*
X31964819Y-29359761D01*
X31964819Y-29074047D02*
X30964819Y-29074047D01*
X30964819Y-29074047D02*
X31107676Y-29169285D01*
X31107676Y-29169285D02*
X31202914Y-29264523D01*
X31202914Y-29264523D02*
X31250533Y-29359761D01*
X31583866Y-28359761D02*
X31583866Y-27597857D01*
X31964819Y-27978809D02*
X31202914Y-27978809D01*
X23108095Y-43659819D02*
X22631905Y-43659819D01*
X22631905Y-43659819D02*
X22584286Y-44136009D01*
X22584286Y-44136009D02*
X22631905Y-44088390D01*
X22631905Y-44088390D02*
X22727143Y-44040771D01*
X22727143Y-44040771D02*
X22965238Y-44040771D01*
X22965238Y-44040771D02*
X23060476Y-44088390D01*
X23060476Y-44088390D02*
X23108095Y-44136009D01*
X23108095Y-44136009D02*
X23155714Y-44231247D01*
X23155714Y-44231247D02*
X23155714Y-44469342D01*
X23155714Y-44469342D02*
X23108095Y-44564580D01*
X23108095Y-44564580D02*
X23060476Y-44612200D01*
X23060476Y-44612200D02*
X22965238Y-44659819D01*
X22965238Y-44659819D02*
X22727143Y-44659819D01*
X22727143Y-44659819D02*
X22631905Y-44612200D01*
X22631905Y-44612200D02*
X22584286Y-44564580D01*
X36140057Y-29359761D02*
X36092438Y-29312142D01*
X36092438Y-29312142D02*
X36044819Y-29216904D01*
X36044819Y-29216904D02*
X36044819Y-28978809D01*
X36044819Y-28978809D02*
X36092438Y-28883571D01*
X36092438Y-28883571D02*
X36140057Y-28835952D01*
X36140057Y-28835952D02*
X36235295Y-28788333D01*
X36235295Y-28788333D02*
X36330533Y-28788333D01*
X36330533Y-28788333D02*
X36473390Y-28835952D01*
X36473390Y-28835952D02*
X37044819Y-29407380D01*
X37044819Y-29407380D02*
X37044819Y-28788333D01*
X36663866Y-28359761D02*
X36663866Y-27597857D01*
X37044819Y-27978809D02*
X36282914Y-27978809D01*
X55305390Y-36325476D02*
X55267295Y-36401666D01*
X55267295Y-36401666D02*
X55267295Y-36515952D01*
X55267295Y-36515952D02*
X55305390Y-36630238D01*
X55305390Y-36630238D02*
X55381580Y-36706428D01*
X55381580Y-36706428D02*
X55457771Y-36744523D01*
X55457771Y-36744523D02*
X55610152Y-36782619D01*
X55610152Y-36782619D02*
X55724438Y-36782619D01*
X55724438Y-36782619D02*
X55876819Y-36744523D01*
X55876819Y-36744523D02*
X55953009Y-36706428D01*
X55953009Y-36706428D02*
X56029200Y-36630238D01*
X56029200Y-36630238D02*
X56067295Y-36515952D01*
X56067295Y-36515952D02*
X56067295Y-36439761D01*
X56067295Y-36439761D02*
X56029200Y-36325476D01*
X56029200Y-36325476D02*
X55991104Y-36287380D01*
X55991104Y-36287380D02*
X55724438Y-36287380D01*
X55724438Y-36287380D02*
X55724438Y-36439761D01*
X22084286Y-29372200D02*
X22227143Y-29419819D01*
X22227143Y-29419819D02*
X22465238Y-29419819D01*
X22465238Y-29419819D02*
X22560476Y-29372200D01*
X22560476Y-29372200D02*
X22608095Y-29324580D01*
X22608095Y-29324580D02*
X22655714Y-29229342D01*
X22655714Y-29229342D02*
X22655714Y-29134104D01*
X22655714Y-29134104D02*
X22608095Y-29038866D01*
X22608095Y-29038866D02*
X22560476Y-28991247D01*
X22560476Y-28991247D02*
X22465238Y-28943628D01*
X22465238Y-28943628D02*
X22274762Y-28896009D01*
X22274762Y-28896009D02*
X22179524Y-28848390D01*
X22179524Y-28848390D02*
X22131905Y-28800771D01*
X22131905Y-28800771D02*
X22084286Y-28705533D01*
X22084286Y-28705533D02*
X22084286Y-28610295D01*
X22084286Y-28610295D02*
X22131905Y-28515057D01*
X22131905Y-28515057D02*
X22179524Y-28467438D01*
X22179524Y-28467438D02*
X22274762Y-28419819D01*
X22274762Y-28419819D02*
X22512857Y-28419819D01*
X22512857Y-28419819D02*
X22655714Y-28467438D01*
X23084286Y-29419819D02*
X23084286Y-28419819D01*
X23084286Y-28419819D02*
X23322381Y-28419819D01*
X23322381Y-28419819D02*
X23465238Y-28467438D01*
X23465238Y-28467438D02*
X23560476Y-28562676D01*
X23560476Y-28562676D02*
X23608095Y-28657914D01*
X23608095Y-28657914D02*
X23655714Y-28848390D01*
X23655714Y-28848390D02*
X23655714Y-28991247D01*
X23655714Y-28991247D02*
X23608095Y-29181723D01*
X23608095Y-29181723D02*
X23560476Y-29276961D01*
X23560476Y-29276961D02*
X23465238Y-29372200D01*
X23465238Y-29372200D02*
X23322381Y-29419819D01*
X23322381Y-29419819D02*
X23084286Y-29419819D01*
X49684819Y-44888332D02*
X48684819Y-44888332D01*
X48684819Y-44888332D02*
X49399104Y-44554999D01*
X49399104Y-44554999D02*
X48684819Y-44221666D01*
X48684819Y-44221666D02*
X49684819Y-44221666D01*
X49161009Y-43412142D02*
X49208628Y-43269285D01*
X49208628Y-43269285D02*
X49256247Y-43221666D01*
X49256247Y-43221666D02*
X49351485Y-43174047D01*
X49351485Y-43174047D02*
X49494342Y-43174047D01*
X49494342Y-43174047D02*
X49589580Y-43221666D01*
X49589580Y-43221666D02*
X49637200Y-43269285D01*
X49637200Y-43269285D02*
X49684819Y-43364523D01*
X49684819Y-43364523D02*
X49684819Y-43745475D01*
X49684819Y-43745475D02*
X48684819Y-43745475D01*
X48684819Y-43745475D02*
X48684819Y-43412142D01*
X48684819Y-43412142D02*
X48732438Y-43316904D01*
X48732438Y-43316904D02*
X48780057Y-43269285D01*
X48780057Y-43269285D02*
X48875295Y-43221666D01*
X48875295Y-43221666D02*
X48970533Y-43221666D01*
X48970533Y-43221666D02*
X49065771Y-43269285D01*
X49065771Y-43269285D02*
X49113390Y-43316904D01*
X49113390Y-43316904D02*
X49161009Y-43412142D01*
X49161009Y-43412142D02*
X49161009Y-43745475D01*
X38680057Y-29264761D02*
X38632438Y-29217142D01*
X38632438Y-29217142D02*
X38584819Y-29121904D01*
X38584819Y-29121904D02*
X38584819Y-28883809D01*
X38584819Y-28883809D02*
X38632438Y-28788571D01*
X38632438Y-28788571D02*
X38680057Y-28740952D01*
X38680057Y-28740952D02*
X38775295Y-28693333D01*
X38775295Y-28693333D02*
X38870533Y-28693333D01*
X38870533Y-28693333D02*
X39013390Y-28740952D01*
X39013390Y-28740952D02*
X39584819Y-29312380D01*
X39584819Y-29312380D02*
X39584819Y-28693333D01*
X39203866Y-28264761D02*
X39203866Y-27502857D01*
X39524819Y-44959999D02*
X38524819Y-44959999D01*
X38524819Y-44293333D02*
X38524819Y-44102857D01*
X38524819Y-44102857D02*
X38572438Y-44007619D01*
X38572438Y-44007619D02*
X38667676Y-43912381D01*
X38667676Y-43912381D02*
X38858152Y-43864762D01*
X38858152Y-43864762D02*
X39191485Y-43864762D01*
X39191485Y-43864762D02*
X39381961Y-43912381D01*
X39381961Y-43912381D02*
X39477200Y-44007619D01*
X39477200Y-44007619D02*
X39524819Y-44102857D01*
X39524819Y-44102857D02*
X39524819Y-44293333D01*
X39524819Y-44293333D02*
X39477200Y-44388571D01*
X39477200Y-44388571D02*
X39381961Y-44483809D01*
X39381961Y-44483809D02*
X39191485Y-44531428D01*
X39191485Y-44531428D02*
X38858152Y-44531428D01*
X38858152Y-44531428D02*
X38667676Y-44483809D01*
X38667676Y-44483809D02*
X38572438Y-44388571D01*
X38572438Y-44388571D02*
X38524819Y-44293333D01*
X39524819Y-42912381D02*
X39524819Y-43483809D01*
X39524819Y-43198095D02*
X38524819Y-43198095D01*
X38524819Y-43198095D02*
X38667676Y-43293333D01*
X38667676Y-43293333D02*
X38762914Y-43388571D01*
X38762914Y-43388571D02*
X38810533Y-43483809D01*
X22084286Y-26832200D02*
X22227143Y-26879819D01*
X22227143Y-26879819D02*
X22465238Y-26879819D01*
X22465238Y-26879819D02*
X22560476Y-26832200D01*
X22560476Y-26832200D02*
X22608095Y-26784580D01*
X22608095Y-26784580D02*
X22655714Y-26689342D01*
X22655714Y-26689342D02*
X22655714Y-26594104D01*
X22655714Y-26594104D02*
X22608095Y-26498866D01*
X22608095Y-26498866D02*
X22560476Y-26451247D01*
X22560476Y-26451247D02*
X22465238Y-26403628D01*
X22465238Y-26403628D02*
X22274762Y-26356009D01*
X22274762Y-26356009D02*
X22179524Y-26308390D01*
X22179524Y-26308390D02*
X22131905Y-26260771D01*
X22131905Y-26260771D02*
X22084286Y-26165533D01*
X22084286Y-26165533D02*
X22084286Y-26070295D01*
X22084286Y-26070295D02*
X22131905Y-25975057D01*
X22131905Y-25975057D02*
X22179524Y-25927438D01*
X22179524Y-25927438D02*
X22274762Y-25879819D01*
X22274762Y-25879819D02*
X22512857Y-25879819D01*
X22512857Y-25879819D02*
X22655714Y-25927438D01*
X23655714Y-26784580D02*
X23608095Y-26832200D01*
X23608095Y-26832200D02*
X23465238Y-26879819D01*
X23465238Y-26879819D02*
X23370000Y-26879819D01*
X23370000Y-26879819D02*
X23227143Y-26832200D01*
X23227143Y-26832200D02*
X23131905Y-26736961D01*
X23131905Y-26736961D02*
X23084286Y-26641723D01*
X23084286Y-26641723D02*
X23036667Y-26451247D01*
X23036667Y-26451247D02*
X23036667Y-26308390D01*
X23036667Y-26308390D02*
X23084286Y-26117914D01*
X23084286Y-26117914D02*
X23131905Y-26022676D01*
X23131905Y-26022676D02*
X23227143Y-25927438D01*
X23227143Y-25927438D02*
X23370000Y-25879819D01*
X23370000Y-25879819D02*
X23465238Y-25879819D01*
X23465238Y-25879819D02*
X23608095Y-25927438D01*
X23608095Y-25927438D02*
X23655714Y-25975057D01*
X44664819Y-28788333D02*
X44664819Y-29359761D01*
X44664819Y-29074047D02*
X43664819Y-29074047D01*
X43664819Y-29074047D02*
X43807676Y-29169285D01*
X43807676Y-29169285D02*
X43902914Y-29264523D01*
X43902914Y-29264523D02*
X43950533Y-29359761D01*
X44283866Y-28359761D02*
X44283866Y-27597857D01*
X34397200Y-44840713D02*
X34444819Y-44697856D01*
X34444819Y-44697856D02*
X34444819Y-44459761D01*
X34444819Y-44459761D02*
X34397200Y-44364523D01*
X34397200Y-44364523D02*
X34349580Y-44316904D01*
X34349580Y-44316904D02*
X34254342Y-44269285D01*
X34254342Y-44269285D02*
X34159104Y-44269285D01*
X34159104Y-44269285D02*
X34063866Y-44316904D01*
X34063866Y-44316904D02*
X34016247Y-44364523D01*
X34016247Y-44364523D02*
X33968628Y-44459761D01*
X33968628Y-44459761D02*
X33921009Y-44650237D01*
X33921009Y-44650237D02*
X33873390Y-44745475D01*
X33873390Y-44745475D02*
X33825771Y-44793094D01*
X33825771Y-44793094D02*
X33730533Y-44840713D01*
X33730533Y-44840713D02*
X33635295Y-44840713D01*
X33635295Y-44840713D02*
X33540057Y-44793094D01*
X33540057Y-44793094D02*
X33492438Y-44745475D01*
X33492438Y-44745475D02*
X33444819Y-44650237D01*
X33444819Y-44650237D02*
X33444819Y-44412142D01*
X33444819Y-44412142D02*
X33492438Y-44269285D01*
X34444819Y-43840713D02*
X33444819Y-43840713D01*
X33444819Y-43840713D02*
X33444819Y-43602618D01*
X33444819Y-43602618D02*
X33492438Y-43459761D01*
X33492438Y-43459761D02*
X33587676Y-43364523D01*
X33587676Y-43364523D02*
X33682914Y-43316904D01*
X33682914Y-43316904D02*
X33873390Y-43269285D01*
X33873390Y-43269285D02*
X34016247Y-43269285D01*
X34016247Y-43269285D02*
X34206723Y-43316904D01*
X34206723Y-43316904D02*
X34301961Y-43364523D01*
X34301961Y-43364523D02*
X34397200Y-43459761D01*
X34397200Y-43459761D02*
X34444819Y-43602618D01*
X34444819Y-43602618D02*
X34444819Y-43840713D01*
X22679523Y-42119819D02*
X22108095Y-42119819D01*
X22393809Y-42119819D02*
X22393809Y-41119819D01*
X22393809Y-41119819D02*
X22298571Y-41262676D01*
X22298571Y-41262676D02*
X22203333Y-41357914D01*
X22203333Y-41357914D02*
X22108095Y-41405533D01*
X23060476Y-41215057D02*
X23108095Y-41167438D01*
X23108095Y-41167438D02*
X23203333Y-41119819D01*
X23203333Y-41119819D02*
X23441428Y-41119819D01*
X23441428Y-41119819D02*
X23536666Y-41167438D01*
X23536666Y-41167438D02*
X23584285Y-41215057D01*
X23584285Y-41215057D02*
X23631904Y-41310295D01*
X23631904Y-41310295D02*
X23631904Y-41405533D01*
X23631904Y-41405533D02*
X23584285Y-41548390D01*
X23584285Y-41548390D02*
X23012857Y-42119819D01*
X23012857Y-42119819D02*
X23631904Y-42119819D01*
X22703333Y-39579819D02*
X22370000Y-39103628D01*
X22131905Y-39579819D02*
X22131905Y-38579819D01*
X22131905Y-38579819D02*
X22512857Y-38579819D01*
X22512857Y-38579819D02*
X22608095Y-38627438D01*
X22608095Y-38627438D02*
X22655714Y-38675057D01*
X22655714Y-38675057D02*
X22703333Y-38770295D01*
X22703333Y-38770295D02*
X22703333Y-38913152D01*
X22703333Y-38913152D02*
X22655714Y-39008390D01*
X22655714Y-39008390D02*
X22608095Y-39056009D01*
X22608095Y-39056009D02*
X22512857Y-39103628D01*
X22512857Y-39103628D02*
X22131905Y-39103628D01*
X23036667Y-38579819D02*
X23703333Y-39579819D01*
X23703333Y-38579819D02*
X23036667Y-39579819D01*
G36*
X34671287Y-30024077D02*
G01*
X34743229Y-30096019D01*
X34783571Y-30257386D01*
X34783571Y-30572251D01*
X34743229Y-30733617D01*
X34671286Y-30805561D01*
X34602771Y-30839819D01*
X34447705Y-30839819D01*
X34379189Y-30805561D01*
X34307246Y-30733617D01*
X34266905Y-30572251D01*
X34266905Y-30257386D01*
X34307246Y-30096019D01*
X34379189Y-30024077D01*
X34447705Y-29989819D01*
X34602771Y-29989819D01*
X34671287Y-30024077D01*
G37*
G36*
X36948003Y-31100930D02*
G01*
X34005794Y-31100930D01*
X34005794Y-30248152D01*
X34116905Y-30248152D01*
X34116905Y-30581485D01*
X34117156Y-30584038D01*
X34116994Y-30585131D01*
X34117803Y-30590604D01*
X34118346Y-30596117D01*
X34118768Y-30597138D01*
X34119144Y-30599675D01*
X34166763Y-30790151D01*
X34171710Y-30803997D01*
X34175029Y-30808476D01*
X34177163Y-30813628D01*
X34186491Y-30824994D01*
X34281729Y-30920233D01*
X34287479Y-30924953D01*
X34288778Y-30926450D01*
X34291032Y-30927869D01*
X34293094Y-30929561D01*
X34294926Y-30930319D01*
X34301221Y-30934282D01*
X34396459Y-30981901D01*
X34410190Y-30987156D01*
X34412879Y-30987347D01*
X34415368Y-30988378D01*
X34430000Y-30989819D01*
X34620476Y-30989819D01*
X34635108Y-30988378D01*
X34637597Y-30987346D01*
X34640285Y-30987156D01*
X34654017Y-30981901D01*
X34749255Y-30934282D01*
X34755554Y-30930317D01*
X34757382Y-30929560D01*
X34759438Y-30927871D01*
X34761698Y-30926450D01*
X34762997Y-30924951D01*
X34768747Y-30920233D01*
X34863986Y-30824993D01*
X34873313Y-30813628D01*
X34875446Y-30808476D01*
X34878766Y-30803997D01*
X34883713Y-30790151D01*
X34931332Y-30599675D01*
X34931707Y-30597138D01*
X34932130Y-30596117D01*
X34932672Y-30590604D01*
X34933482Y-30585131D01*
X34933319Y-30584038D01*
X34933571Y-30581485D01*
X34933571Y-30248152D01*
X34933319Y-30245598D01*
X34933482Y-30244506D01*
X34932672Y-30239032D01*
X34932130Y-30233520D01*
X34931707Y-30232498D01*
X34931332Y-30229962D01*
X34883713Y-30039486D01*
X34878766Y-30025640D01*
X34875447Y-30021161D01*
X34873313Y-30016008D01*
X34863985Y-30004643D01*
X34774161Y-29914819D01*
X35212143Y-29914819D01*
X35212143Y-30724342D01*
X35213584Y-30738974D01*
X35214615Y-30741463D01*
X35214806Y-30744151D01*
X35220061Y-30757883D01*
X35267680Y-30853121D01*
X35271643Y-30859417D01*
X35272401Y-30861247D01*
X35274090Y-30863305D01*
X35275512Y-30865564D01*
X35277010Y-30866863D01*
X35281728Y-30872612D01*
X35329347Y-30920232D01*
X35335096Y-30924950D01*
X35336397Y-30926450D01*
X35338656Y-30927872D01*
X35340713Y-30929560D01*
X35342540Y-30930317D01*
X35348840Y-30934282D01*
X35444078Y-30981901D01*
X35457809Y-30987156D01*
X35460498Y-30987347D01*
X35462987Y-30988378D01*
X35477619Y-30989819D01*
X35668095Y-30989819D01*
X35682727Y-30988378D01*
X35685216Y-30987346D01*
X35687904Y-30987156D01*
X35701636Y-30981901D01*
X35796874Y-30934282D01*
X35803173Y-30930317D01*
X35805001Y-30929560D01*
X35807057Y-30927872D01*
X35809317Y-30926450D01*
X35810617Y-30924950D01*
X35816367Y-30920232D01*
X35863985Y-30872613D01*
X35868703Y-30866863D01*
X35870202Y-30865564D01*
X35871623Y-30863305D01*
X35873313Y-30861247D01*
X35874070Y-30859417D01*
X35878034Y-30853121D01*
X35925653Y-30757883D01*
X35930908Y-30744152D01*
X35931099Y-30741462D01*
X35932130Y-30738974D01*
X35933571Y-30724342D01*
X35933571Y-29914819D01*
X35932130Y-29900187D01*
X36118346Y-29900187D01*
X36118346Y-29929451D01*
X36129545Y-29956487D01*
X36150237Y-29977179D01*
X36177273Y-29988378D01*
X36191905Y-29989819D01*
X36402619Y-29989819D01*
X36402619Y-30914819D01*
X36404060Y-30929451D01*
X36415259Y-30956487D01*
X36435951Y-30977179D01*
X36462987Y-30988378D01*
X36492251Y-30988378D01*
X36519287Y-30977179D01*
X36539979Y-30956487D01*
X36551178Y-30929451D01*
X36552619Y-30914819D01*
X36552619Y-29989819D01*
X36763333Y-29989819D01*
X36777965Y-29988378D01*
X36805001Y-29977179D01*
X36825693Y-29956487D01*
X36836892Y-29929451D01*
X36836892Y-29900187D01*
X36825693Y-29873151D01*
X36805001Y-29852459D01*
X36777965Y-29841260D01*
X36763333Y-29839819D01*
X36191905Y-29839819D01*
X36177273Y-29841260D01*
X36150237Y-29852459D01*
X36129545Y-29873151D01*
X36118346Y-29900187D01*
X35932130Y-29900187D01*
X35920931Y-29873151D01*
X35900239Y-29852459D01*
X35873203Y-29841260D01*
X35843939Y-29841260D01*
X35816903Y-29852459D01*
X35796211Y-29873151D01*
X35785012Y-29900187D01*
X35783571Y-29914819D01*
X35783571Y-30706637D01*
X35749312Y-30775153D01*
X35718905Y-30805561D01*
X35650390Y-30839819D01*
X35495324Y-30839819D01*
X35426808Y-30805561D01*
X35396401Y-30775153D01*
X35362143Y-30706637D01*
X35362143Y-29914819D01*
X35360702Y-29900187D01*
X35349503Y-29873151D01*
X35328811Y-29852459D01*
X35301775Y-29841260D01*
X35272511Y-29841260D01*
X35245475Y-29852459D01*
X35224783Y-29873151D01*
X35213584Y-29900187D01*
X35212143Y-29914819D01*
X34774161Y-29914819D01*
X34768747Y-29909405D01*
X34762997Y-29904686D01*
X34761698Y-29903188D01*
X34759438Y-29901766D01*
X34757382Y-29900078D01*
X34755554Y-29899320D01*
X34749255Y-29895356D01*
X34654017Y-29847737D01*
X34640285Y-29842482D01*
X34637597Y-29842291D01*
X34635108Y-29841260D01*
X34620476Y-29839819D01*
X34430000Y-29839819D01*
X34415368Y-29841260D01*
X34412879Y-29842290D01*
X34410190Y-29842482D01*
X34396459Y-29847737D01*
X34301221Y-29895356D01*
X34294926Y-29899318D01*
X34293094Y-29900077D01*
X34291032Y-29901768D01*
X34288778Y-29903188D01*
X34287479Y-29904684D01*
X34281729Y-29909405D01*
X34186491Y-30004643D01*
X34177164Y-30016008D01*
X34175030Y-30021158D01*
X34171710Y-30025640D01*
X34166763Y-30039486D01*
X34119144Y-30229962D01*
X34118768Y-30232498D01*
X34118346Y-30233520D01*
X34117803Y-30239032D01*
X34116994Y-30244506D01*
X34117156Y-30245598D01*
X34116905Y-30248152D01*
X34005794Y-30248152D01*
X34005794Y-29728708D01*
X36948003Y-29728708D01*
X36948003Y-31100930D01*
G37*
X22536428Y-33976009D02*
X22679285Y-34023628D01*
X22679285Y-34023628D02*
X22726904Y-34071247D01*
X22726904Y-34071247D02*
X22774523Y-34166485D01*
X22774523Y-34166485D02*
X22774523Y-34309342D01*
X22774523Y-34309342D02*
X22726904Y-34404580D01*
X22726904Y-34404580D02*
X22679285Y-34452200D01*
X22679285Y-34452200D02*
X22584047Y-34499819D01*
X22584047Y-34499819D02*
X22203095Y-34499819D01*
X22203095Y-34499819D02*
X22203095Y-33499819D01*
X22203095Y-33499819D02*
X22536428Y-33499819D01*
X22536428Y-33499819D02*
X22631666Y-33547438D01*
X22631666Y-33547438D02*
X22679285Y-33595057D01*
X22679285Y-33595057D02*
X22726904Y-33690295D01*
X22726904Y-33690295D02*
X22726904Y-33785533D01*
X22726904Y-33785533D02*
X22679285Y-33880771D01*
X22679285Y-33880771D02*
X22631666Y-33928390D01*
X22631666Y-33928390D02*
X22536428Y-33976009D01*
X22536428Y-33976009D02*
X22203095Y-33976009D01*
X23774523Y-34404580D02*
X23726904Y-34452200D01*
X23726904Y-34452200D02*
X23584047Y-34499819D01*
X23584047Y-34499819D02*
X23488809Y-34499819D01*
X23488809Y-34499819D02*
X23345952Y-34452200D01*
X23345952Y-34452200D02*
X23250714Y-34356961D01*
X23250714Y-34356961D02*
X23203095Y-34261723D01*
X23203095Y-34261723D02*
X23155476Y-34071247D01*
X23155476Y-34071247D02*
X23155476Y-33928390D01*
X23155476Y-33928390D02*
X23203095Y-33737914D01*
X23203095Y-33737914D02*
X23250714Y-33642676D01*
X23250714Y-33642676D02*
X23345952Y-33547438D01*
X23345952Y-33547438D02*
X23488809Y-33499819D01*
X23488809Y-33499819D02*
X23584047Y-33499819D01*
X23584047Y-33499819D02*
X23726904Y-33547438D01*
X23726904Y-33547438D02*
X23774523Y-33595057D01*
X47144819Y-44531189D02*
X46144819Y-44531189D01*
X47144819Y-43531190D02*
X47144819Y-44102618D01*
X47144819Y-43816904D02*
X46144819Y-43816904D01*
X46144819Y-43816904D02*
X46287676Y-43912142D01*
X46287676Y-43912142D02*
X46382914Y-44007380D01*
X46382914Y-44007380D02*
X46430533Y-44102618D01*
X31857200Y-44840713D02*
X31904819Y-44697856D01*
X31904819Y-44697856D02*
X31904819Y-44459761D01*
X31904819Y-44459761D02*
X31857200Y-44364523D01*
X31857200Y-44364523D02*
X31809580Y-44316904D01*
X31809580Y-44316904D02*
X31714342Y-44269285D01*
X31714342Y-44269285D02*
X31619104Y-44269285D01*
X31619104Y-44269285D02*
X31523866Y-44316904D01*
X31523866Y-44316904D02*
X31476247Y-44364523D01*
X31476247Y-44364523D02*
X31428628Y-44459761D01*
X31428628Y-44459761D02*
X31381009Y-44650237D01*
X31381009Y-44650237D02*
X31333390Y-44745475D01*
X31333390Y-44745475D02*
X31285771Y-44793094D01*
X31285771Y-44793094D02*
X31190533Y-44840713D01*
X31190533Y-44840713D02*
X31095295Y-44840713D01*
X31095295Y-44840713D02*
X31000057Y-44793094D01*
X31000057Y-44793094D02*
X30952438Y-44745475D01*
X30952438Y-44745475D02*
X30904819Y-44650237D01*
X30904819Y-44650237D02*
X30904819Y-44412142D01*
X30904819Y-44412142D02*
X30952438Y-44269285D01*
X31809580Y-43269285D02*
X31857200Y-43316904D01*
X31857200Y-43316904D02*
X31904819Y-43459761D01*
X31904819Y-43459761D02*
X31904819Y-43554999D01*
X31904819Y-43554999D02*
X31857200Y-43697856D01*
X31857200Y-43697856D02*
X31761961Y-43793094D01*
X31761961Y-43793094D02*
X31666723Y-43840713D01*
X31666723Y-43840713D02*
X31476247Y-43888332D01*
X31476247Y-43888332D02*
X31333390Y-43888332D01*
X31333390Y-43888332D02*
X31142914Y-43840713D01*
X31142914Y-43840713D02*
X31047676Y-43793094D01*
X31047676Y-43793094D02*
X30952438Y-43697856D01*
X30952438Y-43697856D02*
X30904819Y-43554999D01*
X30904819Y-43554999D02*
X30904819Y-43459761D01*
X30904819Y-43459761D02*
X30952438Y-43316904D01*
X30952438Y-43316904D02*
X31000057Y-43269285D01*
X42124819Y-28693333D02*
X42124819Y-29264761D01*
X42124819Y-28979047D02*
X41124819Y-28979047D01*
X41124819Y-28979047D02*
X41267676Y-29074285D01*
X41267676Y-29074285D02*
X41362914Y-29169523D01*
X41362914Y-29169523D02*
X41410533Y-29264761D01*
X41743866Y-28264761D02*
X41743866Y-27502857D01*
X42124819Y-27883809D02*
X41362914Y-27883809D01*
X55312295Y-41762380D02*
X55312295Y-42143332D01*
X55312295Y-42143332D02*
X55693247Y-42181428D01*
X55693247Y-42181428D02*
X55655152Y-42143332D01*
X55655152Y-42143332D02*
X55617057Y-42067142D01*
X55617057Y-42067142D02*
X55617057Y-41876666D01*
X55617057Y-41876666D02*
X55655152Y-41800475D01*
X55655152Y-41800475D02*
X55693247Y-41762380D01*
X55693247Y-41762380D02*
X55769438Y-41724285D01*
X55769438Y-41724285D02*
X55959914Y-41724285D01*
X55959914Y-41724285D02*
X56036104Y-41762380D01*
X56036104Y-41762380D02*
X56074200Y-41800475D01*
X56074200Y-41800475D02*
X56112295Y-41876666D01*
X56112295Y-41876666D02*
X56112295Y-42067142D01*
X56112295Y-42067142D02*
X56074200Y-42143332D01*
X56074200Y-42143332D02*
X56036104Y-42181428D01*
X55312295Y-41495713D02*
X56112295Y-41229046D01*
X56112295Y-41229046D02*
X55312295Y-40962380D01*
X49159795Y-38552619D02*
X49159795Y-38933571D01*
X49159795Y-38933571D02*
X49540747Y-38971667D01*
X49540747Y-38971667D02*
X49502652Y-38933571D01*
X49502652Y-38933571D02*
X49464557Y-38857381D01*
X49464557Y-38857381D02*
X49464557Y-38666905D01*
X49464557Y-38666905D02*
X49502652Y-38590714D01*
X49502652Y-38590714D02*
X49540747Y-38552619D01*
X49540747Y-38552619D02*
X49616938Y-38514524D01*
X49616938Y-38514524D02*
X49807414Y-38514524D01*
X49807414Y-38514524D02*
X49883604Y-38552619D01*
X49883604Y-38552619D02*
X49921700Y-38590714D01*
X49921700Y-38590714D02*
X49959795Y-38666905D01*
X49959795Y-38666905D02*
X49959795Y-38857381D01*
X49959795Y-38857381D02*
X49921700Y-38933571D01*
X49921700Y-38933571D02*
X49883604Y-38971667D01*
X49235985Y-38209762D02*
X49197890Y-38171666D01*
X49197890Y-38171666D02*
X49159795Y-38095476D01*
X49159795Y-38095476D02*
X49159795Y-37905000D01*
X49159795Y-37905000D02*
X49197890Y-37828809D01*
X49197890Y-37828809D02*
X49235985Y-37790714D01*
X49235985Y-37790714D02*
X49312176Y-37752619D01*
X49312176Y-37752619D02*
X49388366Y-37752619D01*
X49388366Y-37752619D02*
X49502652Y-37790714D01*
X49502652Y-37790714D02*
X49959795Y-38247857D01*
X49959795Y-38247857D02*
X49959795Y-37752619D01*
X49731223Y-33181189D02*
X49731223Y-32800236D01*
X49959795Y-33257379D02*
X49159795Y-32990712D01*
X49159795Y-32990712D02*
X49959795Y-32724046D01*
X49426461Y-32114522D02*
X49959795Y-32114522D01*
X49121700Y-32304998D02*
X49693128Y-32495475D01*
X49693128Y-32495475D02*
X49693128Y-32000236D01*
X28497890Y-44546792D02*
X28459795Y-44622982D01*
X28459795Y-44622982D02*
X28459795Y-44737268D01*
X28459795Y-44737268D02*
X28497890Y-44851554D01*
X28497890Y-44851554D02*
X28574080Y-44927744D01*
X28574080Y-44927744D02*
X28650271Y-44965839D01*
X28650271Y-44965839D02*
X28802652Y-45003935D01*
X28802652Y-45003935D02*
X28916938Y-45003935D01*
X28916938Y-45003935D02*
X29069319Y-44965839D01*
X29069319Y-44965839D02*
X29145509Y-44927744D01*
X29145509Y-44927744D02*
X29221700Y-44851554D01*
X29221700Y-44851554D02*
X29259795Y-44737268D01*
X29259795Y-44737268D02*
X29259795Y-44661077D01*
X29259795Y-44661077D02*
X29221700Y-44546792D01*
X29221700Y-44546792D02*
X29183604Y-44508696D01*
X29183604Y-44508696D02*
X28916938Y-44508696D01*
X28916938Y-44508696D02*
X28916938Y-44661077D01*
X29040747Y-22665839D02*
X29040747Y-22399173D01*
X29459795Y-22284887D02*
X29459795Y-22665839D01*
X29459795Y-22665839D02*
X28659795Y-22665839D01*
X28659795Y-22665839D02*
X28659795Y-22284887D01*
X45959795Y-38552619D02*
X45959795Y-38933571D01*
X45959795Y-38933571D02*
X46340747Y-38971667D01*
X46340747Y-38971667D02*
X46302652Y-38933571D01*
X46302652Y-38933571D02*
X46264557Y-38857381D01*
X46264557Y-38857381D02*
X46264557Y-38666905D01*
X46264557Y-38666905D02*
X46302652Y-38590714D01*
X46302652Y-38590714D02*
X46340747Y-38552619D01*
X46340747Y-38552619D02*
X46416938Y-38514524D01*
X46416938Y-38514524D02*
X46607414Y-38514524D01*
X46607414Y-38514524D02*
X46683604Y-38552619D01*
X46683604Y-38552619D02*
X46721700Y-38590714D01*
X46721700Y-38590714D02*
X46759795Y-38666905D01*
X46759795Y-38666905D02*
X46759795Y-38857381D01*
X46759795Y-38857381D02*
X46721700Y-38933571D01*
X46721700Y-38933571D02*
X46683604Y-38971667D01*
X45959795Y-38019285D02*
X45959795Y-37943095D01*
X45959795Y-37943095D02*
X45997890Y-37866904D01*
X45997890Y-37866904D02*
X46035985Y-37828809D01*
X46035985Y-37828809D02*
X46112176Y-37790714D01*
X46112176Y-37790714D02*
X46264557Y-37752619D01*
X46264557Y-37752619D02*
X46455033Y-37752619D01*
X46455033Y-37752619D02*
X46607414Y-37790714D01*
X46607414Y-37790714D02*
X46683604Y-37828809D01*
X46683604Y-37828809D02*
X46721700Y-37866904D01*
X46721700Y-37866904D02*
X46759795Y-37943095D01*
X46759795Y-37943095D02*
X46759795Y-38019285D01*
X46759795Y-38019285D02*
X46721700Y-38095476D01*
X46721700Y-38095476D02*
X46683604Y-38133571D01*
X46683604Y-38133571D02*
X46607414Y-38171666D01*
X46607414Y-38171666D02*
X46455033Y-38209762D01*
X46455033Y-38209762D02*
X46264557Y-38209762D01*
X46264557Y-38209762D02*
X46112176Y-38171666D01*
X46112176Y-38171666D02*
X46035985Y-38133571D01*
X46035985Y-38133571D02*
X45997890Y-38095476D01*
X45997890Y-38095476D02*
X45959795Y-38019285D01*
X46531223Y-33181189D02*
X46531223Y-32800236D01*
X46759795Y-33257379D02*
X45959795Y-32990712D01*
X45959795Y-32990712D02*
X46759795Y-32724046D01*
X45959795Y-32304998D02*
X45959795Y-32228808D01*
X45959795Y-32228808D02*
X45997890Y-32152617D01*
X45997890Y-32152617D02*
X46035985Y-32114522D01*
X46035985Y-32114522D02*
X46112176Y-32076427D01*
X46112176Y-32076427D02*
X46264557Y-32038332D01*
X46264557Y-32038332D02*
X46455033Y-32038332D01*
X46455033Y-32038332D02*
X46607414Y-32076427D01*
X46607414Y-32076427D02*
X46683604Y-32114522D01*
X46683604Y-32114522D02*
X46721700Y-32152617D01*
X46721700Y-32152617D02*
X46759795Y-32228808D01*
X46759795Y-32228808D02*
X46759795Y-32304998D01*
X46759795Y-32304998D02*
X46721700Y-32381189D01*
X46721700Y-32381189D02*
X46683604Y-32419284D01*
X46683604Y-32419284D02*
X46607414Y-32457379D01*
X46607414Y-32457379D02*
X46455033Y-32495475D01*
X46455033Y-32495475D02*
X46264557Y-32495475D01*
X46264557Y-32495475D02*
X46112176Y-32457379D01*
X46112176Y-32457379D02*
X46035985Y-32419284D01*
X46035985Y-32419284D02*
X45997890Y-32381189D01*
X45997890Y-32381189D02*
X45959795Y-32304998D01*
D13*
X27969995Y-39374383D02*
X27565934Y-38970322D01*
X27767964Y-39172352D02*
X28475071Y-38465246D01*
X28475071Y-38465246D02*
X28306712Y-38498917D01*
X28306712Y-38498917D02*
X28172025Y-38498917D01*
X28172025Y-38498917D02*
X28071010Y-38465246D01*
X29417880Y-39542742D02*
X29485224Y-39542742D01*
X29485224Y-39542742D02*
X29586239Y-39576414D01*
X29586239Y-39576414D02*
X29754598Y-39744772D01*
X29754598Y-39744772D02*
X29788269Y-39845788D01*
X29788269Y-39845788D02*
X29788269Y-39913131D01*
X29788269Y-39913131D02*
X29754598Y-40014146D01*
X29754598Y-40014146D02*
X29687254Y-40081490D01*
X29687254Y-40081490D02*
X29552567Y-40148833D01*
X29552567Y-40148833D02*
X28744445Y-40148833D01*
X28744445Y-40148833D02*
X29182178Y-40586566D01*
D12*
X29211470Y-40481333D02*
X29777156Y-39915648D01*
X29777156Y-39915648D02*
X29911843Y-40050335D01*
X29911843Y-40050335D02*
X29965717Y-40158084D01*
X29965717Y-40158084D02*
X29965717Y-40265834D01*
X29965717Y-40265834D02*
X29938780Y-40346646D01*
X29938780Y-40346646D02*
X29857968Y-40481333D01*
X29857968Y-40481333D02*
X29777156Y-40562145D01*
X29777156Y-40562145D02*
X29642469Y-40642957D01*
X29642469Y-40642957D02*
X29561656Y-40669895D01*
X29561656Y-40669895D02*
X29453907Y-40669895D01*
X29453907Y-40669895D02*
X29346157Y-40616020D01*
X29346157Y-40616020D02*
X29211470Y-40481333D01*
X30450591Y-40589083D02*
X30558340Y-40696832D01*
X30558340Y-40696832D02*
X30585278Y-40777644D01*
X30585278Y-40777644D02*
X30585278Y-40885394D01*
X30585278Y-40885394D02*
X30504465Y-41020081D01*
X30504465Y-41020081D02*
X30315904Y-41208643D01*
X30315904Y-41208643D02*
X30181217Y-41289455D01*
X30181217Y-41289455D02*
X30073467Y-41289455D01*
X30073467Y-41289455D02*
X29992655Y-41262518D01*
X29992655Y-41262518D02*
X29884905Y-41154768D01*
X29884905Y-41154768D02*
X29857968Y-41073956D01*
X29857968Y-41073956D02*
X29857968Y-40966206D01*
X29857968Y-40966206D02*
X29938780Y-40831519D01*
X29938780Y-40831519D02*
X30127342Y-40642957D01*
X30127342Y-40642957D02*
X30262029Y-40562145D01*
X30262029Y-40562145D02*
X30369778Y-40562145D01*
X30369778Y-40562145D02*
X30450591Y-40589083D01*
X30935464Y-41073956D02*
X30477528Y-41531892D01*
X30477528Y-41531892D02*
X30450590Y-41612704D01*
X30450590Y-41612704D02*
X30450590Y-41666579D01*
X30450590Y-41666579D02*
X30477528Y-41747391D01*
X30477528Y-41747391D02*
X30585278Y-41855140D01*
X30585278Y-41855140D02*
X30666090Y-41882078D01*
X30666090Y-41882078D02*
X30719965Y-41882078D01*
X30719965Y-41882078D02*
X30800777Y-41855140D01*
X30800777Y-41855140D02*
X31258713Y-41397205D01*
X31447274Y-41585766D02*
X31770523Y-41909015D01*
X31043213Y-42313076D02*
X31608899Y-41747391D01*
X20577387Y-45802704D02*
X20958339Y-45802704D01*
X20958339Y-45802704D02*
X20996435Y-45421752D01*
X20996435Y-45421752D02*
X20958339Y-45459847D01*
X20958339Y-45459847D02*
X20882149Y-45497942D01*
X20882149Y-45497942D02*
X20691673Y-45497942D01*
X20691673Y-45497942D02*
X20615482Y-45459847D01*
X20615482Y-45459847D02*
X20577387Y-45421752D01*
X20577387Y-45421752D02*
X20539292Y-45345561D01*
X20539292Y-45345561D02*
X20539292Y-45155085D01*
X20539292Y-45155085D02*
X20577387Y-45078895D01*
X20577387Y-45078895D02*
X20615482Y-45040800D01*
X20615482Y-45040800D02*
X20691673Y-45002704D01*
X20691673Y-45002704D02*
X20882149Y-45002704D01*
X20882149Y-45002704D02*
X20958339Y-45040800D01*
X20958339Y-45040800D02*
X20996435Y-45078895D01*
X20310720Y-45802704D02*
X20044053Y-45002704D01*
X20044053Y-45002704D02*
X19777387Y-45802704D01*
D14*
G04 #@! TO.C,TAC5212*
X36518418Y-35104638D02*
X36182542Y-35440514D01*
X38830657Y-32792399D02*
X39166533Y-32456523D01*
X39166533Y-32456523D02*
X39502409Y-32792399D01*
X39166533Y-38424505D02*
X38830657Y-38088629D01*
X39502409Y-38088629D02*
X39166533Y-38424505D01*
X41814648Y-35776390D02*
X42150524Y-35440514D01*
X42150524Y-35440514D02*
X41814648Y-35104638D01*
G04 #@! TO.C,R117*
X35549855Y-38862784D02*
X35786907Y-38625732D01*
X36087257Y-39400186D02*
X36324309Y-39163134D01*
G04 #@! TO.C,R119*
X34206352Y-37519281D02*
X34443404Y-37282229D01*
X34743754Y-38056683D02*
X34980806Y-37819631D01*
G04 #@! TO.C,R123*
X50843859Y-36575000D02*
X51151141Y-36575000D01*
X50843859Y-37335000D02*
X51151141Y-37335000D01*
G04 #@! TO.C,R110*
X44447325Y-37242227D02*
X44210273Y-37005175D01*
X44984727Y-36704825D02*
X44747675Y-36467773D01*
G04 #@! TO.C,C112*
X37419193Y-40324190D02*
X37266690Y-40476693D01*
X37928310Y-40833307D02*
X37775807Y-40985810D01*
G04 #@! TO.C,PU_EN108*
X36347500Y-42055000D02*
X38847500Y-42055000D01*
X36347500Y-43255000D02*
X36347500Y-42055000D01*
X38847500Y-42055000D02*
X38847500Y-43255000D01*
X38847500Y-43255000D02*
X36347500Y-43255000D01*
G04 #@! TO.C,R118*
X36221606Y-39534536D02*
X36458658Y-39297484D01*
X36759008Y-40071938D02*
X36996060Y-39834886D01*
G04 #@! TO.C,C111*
X34658752Y-41520000D02*
X34136248Y-41520000D01*
X34658752Y-42990000D02*
X34136248Y-42990000D01*
G04 #@! TO.C,ADD112*
X47397500Y-33755000D02*
X48597500Y-33755000D01*
X47397500Y-36255000D02*
X47397500Y-33755000D01*
X48597500Y-33755000D02*
X48597500Y-36255000D01*
X48597500Y-36255000D02*
X47397500Y-36255000D01*
G04 #@! TO.C,R114*
X42047325Y-39642227D02*
X41810273Y-39405175D01*
X42584727Y-39104825D02*
X42347675Y-38867773D01*
G04 #@! TO.C,R124*
X46951141Y-36575000D02*
X46643859Y-36575000D01*
X46951141Y-37335000D02*
X46643859Y-37335000D01*
G04 #@! TO.C,R113*
X42847325Y-38842227D02*
X42610273Y-38605175D01*
X43384727Y-38304825D02*
X43147675Y-38067773D01*
G04 #@! TO.C,ADD111*
X50597500Y-33755000D02*
X51797500Y-33755000D01*
X50597500Y-36255000D02*
X50597500Y-33755000D01*
X51797500Y-33755000D02*
X51797500Y-36255000D01*
X51797500Y-36255000D02*
X50597500Y-36255000D01*
G04 #@! TO.C,D116*
X48637500Y-39470000D02*
X48637500Y-42155000D01*
X50557500Y-39470000D02*
X48637500Y-39470000D01*
X50557500Y-42155000D02*
X50557500Y-39470000D01*
G04 #@! TO.C,board_outline108*
X14865000Y-47985000D02*
X14865000Y-22465000D01*
X17465000Y-45385000D02*
X17465000Y-47985000D01*
X17465000Y-47985000D02*
X14865000Y-47985000D01*
X20065000Y-22465000D02*
X14865000Y-22465000D01*
X20065000Y-45385000D02*
X17465000Y-45385000D01*
X20065000Y-45385000D02*
X20065000Y-22465000D01*
X20065000Y-46655000D02*
X20065000Y-47985000D01*
X20065000Y-47985000D02*
X18735000Y-47985000D01*
X22075000Y-33300000D02*
X23385000Y-33300000D01*
X22930000Y-46760000D02*
X23930000Y-47260000D01*
X23385000Y-37400000D02*
X22075000Y-37400000D01*
X23930000Y-46260000D02*
X22930000Y-46760000D01*
X30115000Y-22470000D02*
X50555000Y-22470000D01*
X30115000Y-27670000D02*
X30115000Y-22470000D01*
X30115000Y-27670000D02*
X30115000Y-31160000D01*
X30115000Y-47990000D02*
X30115000Y-46660000D01*
X31445000Y-47990000D02*
X30115000Y-47990000D01*
X32715000Y-45330000D02*
X50555000Y-45330000D01*
X32715000Y-47990000D02*
X32715000Y-45330000D01*
X32715000Y-47990000D02*
X50555000Y-47990000D01*
X40335000Y-22470000D02*
X40335000Y-31160000D01*
X50555000Y-25130000D02*
X50555000Y-22470000D01*
X50555000Y-31160000D02*
X50555000Y-25010000D01*
X50555000Y-47990000D02*
X50555000Y-45330000D01*
G36*
X30430000Y-29660000D02*
G01*
X34030000Y-29660000D01*
X34030000Y-31160000D01*
X30430000Y-31160000D01*
X30430000Y-29660000D01*
G37*
G36*
X30430000Y-29660000D02*
G01*
X40030000Y-29660000D01*
X40030000Y-29760000D01*
X30430000Y-29760000D01*
X30430000Y-29660000D01*
G37*
G36*
X30430000Y-31060000D02*
G01*
X40030000Y-31060000D01*
X40030000Y-31160000D01*
X30430000Y-31160000D01*
X30430000Y-31060000D01*
G37*
G36*
X36930000Y-29660000D02*
G01*
X40030000Y-29660000D01*
X40030000Y-31160000D01*
X36930000Y-31160000D01*
X36930000Y-29660000D01*
G37*
G36*
X40630000Y-29660000D02*
G01*
X50230000Y-29660000D01*
X50230000Y-29760000D01*
X40630000Y-29760000D01*
X40630000Y-29660000D01*
G37*
G36*
X40630000Y-31060000D02*
G01*
X50230000Y-31060000D01*
X50230000Y-31160000D01*
X40630000Y-31160000D01*
X40630000Y-31060000D01*
G37*
G36*
X40640000Y-29660000D02*
G01*
X44330000Y-29660000D01*
X44330000Y-31160000D01*
X40640000Y-31160000D01*
X40640000Y-29660000D01*
G37*
G36*
X45730000Y-29660000D02*
G01*
X50260000Y-29660000D01*
X50260000Y-31160000D01*
X45730000Y-31160000D01*
X45730000Y-29660000D01*
G37*
G04 #@! TO.C,ADD110*
X48997500Y-33755000D02*
X50197500Y-33755000D01*
X48997500Y-36255000D02*
X48997500Y-33755000D01*
X50197500Y-33755000D02*
X50197500Y-36255000D01*
X50197500Y-36255000D02*
X48997500Y-36255000D01*
G04 #@! TO.C,C128*
X26051233Y-41545000D02*
X26343767Y-41545000D01*
X26051233Y-42565000D02*
X26343767Y-42565000D01*
G04 #@! TO.C,R115*
X34878103Y-38191033D02*
X35115155Y-37953981D01*
X35415505Y-38728435D02*
X35652557Y-38491383D01*
G04 #@! TO.C,R122*
X49151141Y-36575000D02*
X48843859Y-36575000D01*
X49151141Y-37335000D02*
X48843859Y-37335000D01*
G04 #@! TO.C,U108*
X25397500Y-37595000D02*
X24597500Y-37595000D01*
X25397500Y-37595000D02*
X26197500Y-37595000D01*
X25397500Y-40715000D02*
X24597500Y-40715000D01*
X25397500Y-40715000D02*
X27197500Y-40715000D01*
G04 #@! TO.C,C109*
X34419193Y-33185810D02*
X34266690Y-33033307D01*
X34928310Y-32676693D02*
X34775807Y-32524190D01*
G04 #@! TO.C,R120*
X40437440Y-41032341D02*
X40220159Y-40815060D01*
X40974841Y-40494940D02*
X40757560Y-40277659D01*
G04 #@! TO.C,R112*
X43647325Y-38042227D02*
X43410273Y-37805175D01*
X44184727Y-37504825D02*
X43947675Y-37267773D01*
G04 #@! TO.C,ADD108*
X45797500Y-33755000D02*
X46997500Y-33755000D01*
X45797500Y-36255000D02*
X45797500Y-33755000D01*
X46997500Y-33755000D02*
X46997500Y-36255000D01*
X46997500Y-36255000D02*
X45797500Y-36255000D01*
G04 #@! TO.C,C108*
X31062510Y-33250543D02*
X30693043Y-33620010D01*
X32101957Y-34289990D02*
X31732490Y-34659457D01*
G04 #@! TO.C,R125*
X24329879Y-36275000D02*
X24665121Y-36275000D01*
X24329879Y-37035000D02*
X24665121Y-37035000D01*
G04 #@! TO.C,C116*
X33619193Y-36324190D02*
X33466690Y-36476693D01*
X34128310Y-36833307D02*
X33975807Y-36985810D01*
G04 #@! TO.C,C119*
X32133449Y-35197802D02*
X32340302Y-34990949D01*
X32854698Y-35919051D02*
X33061551Y-35712198D01*
G04 #@! TO.C,R121*
X39420159Y-41615060D02*
X39637440Y-41832341D01*
X39957560Y-41077659D02*
X40174841Y-41294940D01*
G04 #@! TO.C,C115*
X30462510Y-38459457D02*
X30093043Y-38089990D01*
X31501957Y-37420010D02*
X31132490Y-37050543D01*
G04 #@! TO.C,C118*
X53087500Y-28158733D02*
X53087500Y-28451267D01*
X54107500Y-28158733D02*
X54107500Y-28451267D01*
G04 #@! TO.C,R126*
X51217500Y-40801359D02*
X51217500Y-41108641D01*
X51977500Y-40801359D02*
X51977500Y-41108641D01*
G04 #@! TO.C,5V108*
D13*
X23357500Y-45865000D02*
X21247500Y-45865000D01*
X21247500Y-44865000D01*
X23357500Y-44865000D01*
X23357500Y-45865000D01*
G04 #@! TD*
M02*
