G04 #@! TF.GenerationSoftware,KiCad,Pcbnew,9.0.4*
G04 #@! TF.CreationDate,2025-08-20T21:16:51-04:00*
G04 #@! TF.ProjectId,jlcpcb_1x1,6a6c6370-6362-45f3-9178-312e6b696361,rev?*
G04 #@! TF.SameCoordinates,Original*
G04 #@! TF.FileFunction,Legend,Bot*
G04 #@! TF.FilePolarity,Positive*
%FSLAX46Y46*%
G04 Gerber Fmt 4.6, Leading zero omitted, Abs format (unit mm)*
G04 Created by KiCad (PCBNEW 9.0.4) date 2025-08-20 21:16:51*
%MOMM*%
%LPD*%
G01*
G04 APERTURE LIST*
%ADD10C,0.180000*%
%ADD11C,0.150000*%
%ADD12C,0.120000*%
%ADD13C,0.100000*%
G04 APERTURE END LIST*
D10*
X51430833Y-40253830D02*
X51507023Y-40215735D01*
X51507023Y-40215735D02*
X51621309Y-40215735D01*
X51621309Y-40215735D02*
X51735595Y-40253830D01*
X51735595Y-40253830D02*
X51811785Y-40330020D01*
X51811785Y-40330020D02*
X51849880Y-40406211D01*
X51849880Y-40406211D02*
X51887976Y-40558592D01*
X51887976Y-40558592D02*
X51887976Y-40672878D01*
X51887976Y-40672878D02*
X51849880Y-40825259D01*
X51849880Y-40825259D02*
X51811785Y-40901449D01*
X51811785Y-40901449D02*
X51735595Y-40977640D01*
X51735595Y-40977640D02*
X51621309Y-41015735D01*
X51621309Y-41015735D02*
X51545118Y-41015735D01*
X51545118Y-41015735D02*
X51430833Y-40977640D01*
X51430833Y-40977640D02*
X51392737Y-40939544D01*
X51392737Y-40939544D02*
X51392737Y-40672878D01*
X51392737Y-40672878D02*
X51545118Y-40672878D01*
X50630833Y-41015735D02*
X51087976Y-41015735D01*
X50859404Y-41015735D02*
X50859404Y-40215735D01*
X50859404Y-40215735D02*
X50935595Y-40330020D01*
X50935595Y-40330020D02*
X51011785Y-40406211D01*
X51011785Y-40406211D02*
X51087976Y-40444306D01*
X49868928Y-41015735D02*
X50326071Y-41015735D01*
X50097499Y-41015735D02*
X50097499Y-40215735D01*
X50097499Y-40215735D02*
X50173690Y-40330020D01*
X50173690Y-40330020D02*
X50249880Y-40406211D01*
X50249880Y-40406211D02*
X50326071Y-40444306D01*
X49487975Y-41015735D02*
X49335594Y-41015735D01*
X49335594Y-41015735D02*
X49259404Y-40977640D01*
X49259404Y-40977640D02*
X49221308Y-40939544D01*
X49221308Y-40939544D02*
X49145118Y-40825259D01*
X49145118Y-40825259D02*
X49107023Y-40672878D01*
X49107023Y-40672878D02*
X49107023Y-40368116D01*
X49107023Y-40368116D02*
X49145118Y-40291925D01*
X49145118Y-40291925D02*
X49183213Y-40253830D01*
X49183213Y-40253830D02*
X49259404Y-40215735D01*
X49259404Y-40215735D02*
X49411785Y-40215735D01*
X49411785Y-40215735D02*
X49487975Y-40253830D01*
X49487975Y-40253830D02*
X49526070Y-40291925D01*
X49526070Y-40291925D02*
X49564166Y-40368116D01*
X49564166Y-40368116D02*
X49564166Y-40558592D01*
X49564166Y-40558592D02*
X49526070Y-40634782D01*
X49526070Y-40634782D02*
X49487975Y-40672878D01*
X49487975Y-40672878D02*
X49411785Y-40710973D01*
X49411785Y-40710973D02*
X49259404Y-40710973D01*
X49259404Y-40710973D02*
X49183213Y-40672878D01*
X49183213Y-40672878D02*
X49145118Y-40634782D01*
X49145118Y-40634782D02*
X49107023Y-40558592D01*
D11*
X50787976Y-38305390D02*
X50864166Y-38267295D01*
X50864166Y-38267295D02*
X50978452Y-38267295D01*
X50978452Y-38267295D02*
X51092738Y-38305390D01*
X51092738Y-38305390D02*
X51168928Y-38381580D01*
X51168928Y-38381580D02*
X51207023Y-38457771D01*
X51207023Y-38457771D02*
X51245119Y-38610152D01*
X51245119Y-38610152D02*
X51245119Y-38724438D01*
X51245119Y-38724438D02*
X51207023Y-38876819D01*
X51207023Y-38876819D02*
X51168928Y-38953009D01*
X51168928Y-38953009D02*
X51092738Y-39029200D01*
X51092738Y-39029200D02*
X50978452Y-39067295D01*
X50978452Y-39067295D02*
X50902261Y-39067295D01*
X50902261Y-39067295D02*
X50787976Y-39029200D01*
X50787976Y-39029200D02*
X50749880Y-38991104D01*
X50749880Y-38991104D02*
X50749880Y-38724438D01*
X50749880Y-38724438D02*
X50902261Y-38724438D01*
X51159795Y-31979160D02*
X50359795Y-31979160D01*
X51159795Y-32360112D02*
X50359795Y-32360112D01*
X50359795Y-32360112D02*
X51159795Y-32817255D01*
X51159795Y-32817255D02*
X50359795Y-32817255D01*
X51159795Y-33198207D02*
X50359795Y-33198207D01*
X50359795Y-33198207D02*
X50359795Y-33502969D01*
X50359795Y-33502969D02*
X50397890Y-33579159D01*
X50397890Y-33579159D02*
X50435985Y-33617254D01*
X50435985Y-33617254D02*
X50512176Y-33655350D01*
X50512176Y-33655350D02*
X50626461Y-33655350D01*
X50626461Y-33655350D02*
X50702652Y-33617254D01*
X50702652Y-33617254D02*
X50740747Y-33579159D01*
X50740747Y-33579159D02*
X50778842Y-33502969D01*
X50778842Y-33502969D02*
X50778842Y-33198207D01*
X50435985Y-33960111D02*
X50397890Y-33998207D01*
X50397890Y-33998207D02*
X50359795Y-34074397D01*
X50359795Y-34074397D02*
X50359795Y-34264873D01*
X50359795Y-34264873D02*
X50397890Y-34341064D01*
X50397890Y-34341064D02*
X50435985Y-34379159D01*
X50435985Y-34379159D02*
X50512176Y-34417254D01*
X50512176Y-34417254D02*
X50588366Y-34417254D01*
X50588366Y-34417254D02*
X50702652Y-34379159D01*
X50702652Y-34379159D02*
X51159795Y-33922016D01*
X51159795Y-33922016D02*
X51159795Y-34417254D01*
X47134530Y-39207295D02*
X46639292Y-39207295D01*
X46639292Y-39207295D02*
X46905958Y-39512057D01*
X46905958Y-39512057D02*
X46791673Y-39512057D01*
X46791673Y-39512057D02*
X46715482Y-39550152D01*
X46715482Y-39550152D02*
X46677387Y-39588247D01*
X46677387Y-39588247D02*
X46639292Y-39664438D01*
X46639292Y-39664438D02*
X46639292Y-39854914D01*
X46639292Y-39854914D02*
X46677387Y-39931104D01*
X46677387Y-39931104D02*
X46715482Y-39969200D01*
X46715482Y-39969200D02*
X46791673Y-40007295D01*
X46791673Y-40007295D02*
X47020244Y-40007295D01*
X47020244Y-40007295D02*
X47096435Y-39969200D01*
X47096435Y-39969200D02*
X47134530Y-39931104D01*
X46410720Y-39207295D02*
X46144053Y-40007295D01*
X46144053Y-40007295D02*
X45877387Y-39207295D01*
X29259795Y-32121541D02*
X29259795Y-32273922D01*
X29259795Y-32273922D02*
X29297890Y-32350112D01*
X29297890Y-32350112D02*
X29374080Y-32426303D01*
X29374080Y-32426303D02*
X29526461Y-32464398D01*
X29526461Y-32464398D02*
X29793128Y-32464398D01*
X29793128Y-32464398D02*
X29945509Y-32426303D01*
X29945509Y-32426303D02*
X30021700Y-32350112D01*
X30021700Y-32350112D02*
X30059795Y-32273922D01*
X30059795Y-32273922D02*
X30059795Y-32121541D01*
X30059795Y-32121541D02*
X30021700Y-32045350D01*
X30021700Y-32045350D02*
X29945509Y-31969160D01*
X29945509Y-31969160D02*
X29793128Y-31931064D01*
X29793128Y-31931064D02*
X29526461Y-31931064D01*
X29526461Y-31931064D02*
X29374080Y-31969160D01*
X29374080Y-31969160D02*
X29297890Y-32045350D01*
X29297890Y-32045350D02*
X29259795Y-32121541D01*
X30059795Y-32807255D02*
X29259795Y-32807255D01*
X29259795Y-32807255D02*
X29259795Y-33112017D01*
X29259795Y-33112017D02*
X29297890Y-33188207D01*
X29297890Y-33188207D02*
X29335985Y-33226302D01*
X29335985Y-33226302D02*
X29412176Y-33264398D01*
X29412176Y-33264398D02*
X29526461Y-33264398D01*
X29526461Y-33264398D02*
X29602652Y-33226302D01*
X29602652Y-33226302D02*
X29640747Y-33188207D01*
X29640747Y-33188207D02*
X29678842Y-33112017D01*
X29678842Y-33112017D02*
X29678842Y-32807255D01*
X29335985Y-33569159D02*
X29297890Y-33607255D01*
X29297890Y-33607255D02*
X29259795Y-33683445D01*
X29259795Y-33683445D02*
X29259795Y-33873921D01*
X29259795Y-33873921D02*
X29297890Y-33950112D01*
X29297890Y-33950112D02*
X29335985Y-33988207D01*
X29335985Y-33988207D02*
X29412176Y-34026302D01*
X29412176Y-34026302D02*
X29488366Y-34026302D01*
X29488366Y-34026302D02*
X29602652Y-33988207D01*
X29602652Y-33988207D02*
X30059795Y-33531064D01*
X30059795Y-33531064D02*
X30059795Y-34026302D01*
X24505708Y-25579200D02*
X24391422Y-25617295D01*
X24391422Y-25617295D02*
X24200946Y-25617295D01*
X24200946Y-25617295D02*
X24124755Y-25579200D01*
X24124755Y-25579200D02*
X24086660Y-25541104D01*
X24086660Y-25541104D02*
X24048565Y-25464914D01*
X24048565Y-25464914D02*
X24048565Y-25388723D01*
X24048565Y-25388723D02*
X24086660Y-25312533D01*
X24086660Y-25312533D02*
X24124755Y-25274438D01*
X24124755Y-25274438D02*
X24200946Y-25236342D01*
X24200946Y-25236342D02*
X24353327Y-25198247D01*
X24353327Y-25198247D02*
X24429517Y-25160152D01*
X24429517Y-25160152D02*
X24467612Y-25122057D01*
X24467612Y-25122057D02*
X24505708Y-25045866D01*
X24505708Y-25045866D02*
X24505708Y-24969676D01*
X24505708Y-24969676D02*
X24467612Y-24893485D01*
X24467612Y-24893485D02*
X24429517Y-24855390D01*
X24429517Y-24855390D02*
X24353327Y-24817295D01*
X24353327Y-24817295D02*
X24162850Y-24817295D01*
X24162850Y-24817295D02*
X24048565Y-24855390D01*
X23248564Y-25541104D02*
X23286660Y-25579200D01*
X23286660Y-25579200D02*
X23400945Y-25617295D01*
X23400945Y-25617295D02*
X23477136Y-25617295D01*
X23477136Y-25617295D02*
X23591422Y-25579200D01*
X23591422Y-25579200D02*
X23667612Y-25503009D01*
X23667612Y-25503009D02*
X23705707Y-25426819D01*
X23705707Y-25426819D02*
X23743803Y-25274438D01*
X23743803Y-25274438D02*
X23743803Y-25160152D01*
X23743803Y-25160152D02*
X23705707Y-25007771D01*
X23705707Y-25007771D02*
X23667612Y-24931580D01*
X23667612Y-24931580D02*
X23591422Y-24855390D01*
X23591422Y-24855390D02*
X23477136Y-24817295D01*
X23477136Y-24817295D02*
X23400945Y-24817295D01*
X23400945Y-24817295D02*
X23286660Y-24855390D01*
X23286660Y-24855390D02*
X23248564Y-24893485D01*
X54759795Y-32026660D02*
X53959795Y-32026660D01*
X54759795Y-32407612D02*
X53959795Y-32407612D01*
X53959795Y-32407612D02*
X54759795Y-32864755D01*
X54759795Y-32864755D02*
X53959795Y-32864755D01*
X54759795Y-33245707D02*
X53959795Y-33245707D01*
X53959795Y-33245707D02*
X54531223Y-33512373D01*
X54531223Y-33512373D02*
X53959795Y-33779040D01*
X53959795Y-33779040D02*
X54759795Y-33779040D01*
X54035985Y-34121897D02*
X53997890Y-34159993D01*
X53997890Y-34159993D02*
X53959795Y-34236183D01*
X53959795Y-34236183D02*
X53959795Y-34426659D01*
X53959795Y-34426659D02*
X53997890Y-34502850D01*
X53997890Y-34502850D02*
X54035985Y-34540945D01*
X54035985Y-34540945D02*
X54112176Y-34579040D01*
X54112176Y-34579040D02*
X54188366Y-34579040D01*
X54188366Y-34579040D02*
X54302652Y-34540945D01*
X54302652Y-34540945D02*
X54759795Y-34083802D01*
X54759795Y-34083802D02*
X54759795Y-34579040D01*
X41959795Y-33944160D02*
X41159795Y-33944160D01*
X41959795Y-34325112D02*
X41159795Y-34325112D01*
X41159795Y-34325112D02*
X41959795Y-34782255D01*
X41959795Y-34782255D02*
X41159795Y-34782255D01*
X41959795Y-35163207D02*
X41159795Y-35163207D01*
X41159795Y-35163207D02*
X41159795Y-35467969D01*
X41159795Y-35467969D02*
X41197890Y-35544159D01*
X41197890Y-35544159D02*
X41235985Y-35582254D01*
X41235985Y-35582254D02*
X41312176Y-35620350D01*
X41312176Y-35620350D02*
X41426461Y-35620350D01*
X41426461Y-35620350D02*
X41502652Y-35582254D01*
X41502652Y-35582254D02*
X41540747Y-35544159D01*
X41540747Y-35544159D02*
X41578842Y-35467969D01*
X41578842Y-35467969D02*
X41578842Y-35163207D01*
X41959795Y-36382254D02*
X41959795Y-35925111D01*
X41959795Y-36153683D02*
X41159795Y-36153683D01*
X41159795Y-36153683D02*
X41274080Y-36077492D01*
X41274080Y-36077492D02*
X41350271Y-36001302D01*
X41350271Y-36001302D02*
X41388366Y-35925111D01*
X21835204Y-34175112D02*
X21835204Y-34022731D01*
X21835204Y-34022731D02*
X21797109Y-33946541D01*
X21797109Y-33946541D02*
X21720919Y-33870350D01*
X21720919Y-33870350D02*
X21568538Y-33832255D01*
X21568538Y-33832255D02*
X21301871Y-33832255D01*
X21301871Y-33832255D02*
X21149490Y-33870350D01*
X21149490Y-33870350D02*
X21073300Y-33946541D01*
X21073300Y-33946541D02*
X21035204Y-34022731D01*
X21035204Y-34022731D02*
X21035204Y-34175112D01*
X21035204Y-34175112D02*
X21073300Y-34251303D01*
X21073300Y-34251303D02*
X21149490Y-34327493D01*
X21149490Y-34327493D02*
X21301871Y-34365589D01*
X21301871Y-34365589D02*
X21568538Y-34365589D01*
X21568538Y-34365589D02*
X21720919Y-34327493D01*
X21720919Y-34327493D02*
X21797109Y-34251303D01*
X21797109Y-34251303D02*
X21835204Y-34175112D01*
X21035204Y-33489398D02*
X21835204Y-33489398D01*
X21835204Y-33489398D02*
X21263776Y-33222732D01*
X21263776Y-33222732D02*
X21835204Y-32956065D01*
X21835204Y-32956065D02*
X21035204Y-32956065D01*
X21035204Y-32156065D02*
X21035204Y-32613208D01*
X21035204Y-32384636D02*
X21835204Y-32384636D01*
X21835204Y-32384636D02*
X21720919Y-32460827D01*
X21720919Y-32460827D02*
X21644728Y-32537017D01*
X21644728Y-32537017D02*
X21606633Y-32613208D01*
X23305708Y-26779200D02*
X23191422Y-26817295D01*
X23191422Y-26817295D02*
X23000946Y-26817295D01*
X23000946Y-26817295D02*
X22924755Y-26779200D01*
X22924755Y-26779200D02*
X22886660Y-26741104D01*
X22886660Y-26741104D02*
X22848565Y-26664914D01*
X22848565Y-26664914D02*
X22848565Y-26588723D01*
X22848565Y-26588723D02*
X22886660Y-26512533D01*
X22886660Y-26512533D02*
X22924755Y-26474438D01*
X22924755Y-26474438D02*
X23000946Y-26436342D01*
X23000946Y-26436342D02*
X23153327Y-26398247D01*
X23153327Y-26398247D02*
X23229517Y-26360152D01*
X23229517Y-26360152D02*
X23267612Y-26322057D01*
X23267612Y-26322057D02*
X23305708Y-26245866D01*
X23305708Y-26245866D02*
X23305708Y-26169676D01*
X23305708Y-26169676D02*
X23267612Y-26093485D01*
X23267612Y-26093485D02*
X23229517Y-26055390D01*
X23229517Y-26055390D02*
X23153327Y-26017295D01*
X23153327Y-26017295D02*
X22962850Y-26017295D01*
X22962850Y-26017295D02*
X22848565Y-26055390D01*
X22505707Y-26817295D02*
X22505707Y-26017295D01*
X22505707Y-26017295D02*
X22315231Y-26017295D01*
X22315231Y-26017295D02*
X22200945Y-26055390D01*
X22200945Y-26055390D02*
X22124755Y-26131580D01*
X22124755Y-26131580D02*
X22086660Y-26207771D01*
X22086660Y-26207771D02*
X22048564Y-26360152D01*
X22048564Y-26360152D02*
X22048564Y-26474438D01*
X22048564Y-26474438D02*
X22086660Y-26626819D01*
X22086660Y-26626819D02*
X22124755Y-26703009D01*
X22124755Y-26703009D02*
X22200945Y-26779200D01*
X22200945Y-26779200D02*
X22315231Y-26817295D01*
X22315231Y-26817295D02*
X22505707Y-26817295D01*
X38197890Y-30563207D02*
X38159795Y-30487017D01*
X38159795Y-30487017D02*
X38159795Y-30372731D01*
X38159795Y-30372731D02*
X38197890Y-30258445D01*
X38197890Y-30258445D02*
X38274080Y-30182255D01*
X38274080Y-30182255D02*
X38350271Y-30144160D01*
X38350271Y-30144160D02*
X38502652Y-30106064D01*
X38502652Y-30106064D02*
X38616938Y-30106064D01*
X38616938Y-30106064D02*
X38769319Y-30144160D01*
X38769319Y-30144160D02*
X38845509Y-30182255D01*
X38845509Y-30182255D02*
X38921700Y-30258445D01*
X38921700Y-30258445D02*
X38959795Y-30372731D01*
X38959795Y-30372731D02*
X38959795Y-30448922D01*
X38959795Y-30448922D02*
X38921700Y-30563207D01*
X38921700Y-30563207D02*
X38883604Y-30601303D01*
X38883604Y-30601303D02*
X38616938Y-30601303D01*
X38616938Y-30601303D02*
X38616938Y-30448922D01*
X38959795Y-30944160D02*
X38159795Y-30944160D01*
X38159795Y-30944160D02*
X38959795Y-31401303D01*
X38959795Y-31401303D02*
X38159795Y-31401303D01*
X38959795Y-31782255D02*
X38159795Y-31782255D01*
X38159795Y-31782255D02*
X38159795Y-31972731D01*
X38159795Y-31972731D02*
X38197890Y-32087017D01*
X38197890Y-32087017D02*
X38274080Y-32163207D01*
X38274080Y-32163207D02*
X38350271Y-32201302D01*
X38350271Y-32201302D02*
X38502652Y-32239398D01*
X38502652Y-32239398D02*
X38616938Y-32239398D01*
X38616938Y-32239398D02*
X38769319Y-32201302D01*
X38769319Y-32201302D02*
X38845509Y-32163207D01*
X38845509Y-32163207D02*
X38921700Y-32087017D01*
X38921700Y-32087017D02*
X38959795Y-31972731D01*
X38959795Y-31972731D02*
X38959795Y-31782255D01*
X33159795Y-31896541D02*
X33159795Y-32048922D01*
X33159795Y-32048922D02*
X33197890Y-32125112D01*
X33197890Y-32125112D02*
X33274080Y-32201303D01*
X33274080Y-32201303D02*
X33426461Y-32239398D01*
X33426461Y-32239398D02*
X33693128Y-32239398D01*
X33693128Y-32239398D02*
X33845509Y-32201303D01*
X33845509Y-32201303D02*
X33921700Y-32125112D01*
X33921700Y-32125112D02*
X33959795Y-32048922D01*
X33959795Y-32048922D02*
X33959795Y-31896541D01*
X33959795Y-31896541D02*
X33921700Y-31820350D01*
X33921700Y-31820350D02*
X33845509Y-31744160D01*
X33845509Y-31744160D02*
X33693128Y-31706064D01*
X33693128Y-31706064D02*
X33426461Y-31706064D01*
X33426461Y-31706064D02*
X33274080Y-31744160D01*
X33274080Y-31744160D02*
X33197890Y-31820350D01*
X33197890Y-31820350D02*
X33159795Y-31896541D01*
X33959795Y-32582255D02*
X33159795Y-32582255D01*
X33159795Y-32582255D02*
X33731223Y-32848921D01*
X33731223Y-32848921D02*
X33159795Y-33115588D01*
X33159795Y-33115588D02*
X33959795Y-33115588D01*
X33235985Y-33458445D02*
X33197890Y-33496541D01*
X33197890Y-33496541D02*
X33159795Y-33572731D01*
X33159795Y-33572731D02*
X33159795Y-33763207D01*
X33159795Y-33763207D02*
X33197890Y-33839398D01*
X33197890Y-33839398D02*
X33235985Y-33877493D01*
X33235985Y-33877493D02*
X33312176Y-33915588D01*
X33312176Y-33915588D02*
X33388366Y-33915588D01*
X33388366Y-33915588D02*
X33502652Y-33877493D01*
X33502652Y-33877493D02*
X33959795Y-33420350D01*
X33959795Y-33420350D02*
X33959795Y-33915588D01*
X24959795Y-32196541D02*
X24959795Y-32348922D01*
X24959795Y-32348922D02*
X24997890Y-32425112D01*
X24997890Y-32425112D02*
X25074080Y-32501303D01*
X25074080Y-32501303D02*
X25226461Y-32539398D01*
X25226461Y-32539398D02*
X25493128Y-32539398D01*
X25493128Y-32539398D02*
X25645509Y-32501303D01*
X25645509Y-32501303D02*
X25721700Y-32425112D01*
X25721700Y-32425112D02*
X25759795Y-32348922D01*
X25759795Y-32348922D02*
X25759795Y-32196541D01*
X25759795Y-32196541D02*
X25721700Y-32120350D01*
X25721700Y-32120350D02*
X25645509Y-32044160D01*
X25645509Y-32044160D02*
X25493128Y-32006064D01*
X25493128Y-32006064D02*
X25226461Y-32006064D01*
X25226461Y-32006064D02*
X25074080Y-32044160D01*
X25074080Y-32044160D02*
X24997890Y-32120350D01*
X24997890Y-32120350D02*
X24959795Y-32196541D01*
X25759795Y-32882255D02*
X24959795Y-32882255D01*
X24959795Y-32882255D02*
X24959795Y-33187017D01*
X24959795Y-33187017D02*
X24997890Y-33263207D01*
X24997890Y-33263207D02*
X25035985Y-33301302D01*
X25035985Y-33301302D02*
X25112176Y-33339398D01*
X25112176Y-33339398D02*
X25226461Y-33339398D01*
X25226461Y-33339398D02*
X25302652Y-33301302D01*
X25302652Y-33301302D02*
X25340747Y-33263207D01*
X25340747Y-33263207D02*
X25378842Y-33187017D01*
X25378842Y-33187017D02*
X25378842Y-32882255D01*
X25759795Y-34101302D02*
X25759795Y-33644159D01*
X25759795Y-33872731D02*
X24959795Y-33872731D01*
X24959795Y-33872731D02*
X25074080Y-33796540D01*
X25074080Y-33796540D02*
X25150271Y-33720350D01*
X25150271Y-33720350D02*
X25188366Y-33644159D01*
X47559795Y-31906660D02*
X46759795Y-31906660D01*
X47559795Y-32287612D02*
X46759795Y-32287612D01*
X46759795Y-32287612D02*
X47559795Y-32744755D01*
X47559795Y-32744755D02*
X46759795Y-32744755D01*
X47559795Y-33125707D02*
X46759795Y-33125707D01*
X46759795Y-33125707D02*
X47331223Y-33392373D01*
X47331223Y-33392373D02*
X46759795Y-33659040D01*
X46759795Y-33659040D02*
X47559795Y-33659040D01*
X47559795Y-34459040D02*
X47559795Y-34001897D01*
X47559795Y-34230469D02*
X46759795Y-34230469D01*
X46759795Y-34230469D02*
X46874080Y-34154278D01*
X46874080Y-34154278D02*
X46950271Y-34078088D01*
X46950271Y-34078088D02*
X46988366Y-34001897D01*
D12*
G04 #@! TO.C,C130*
X22858752Y-42745000D02*
X22336248Y-42745000D01*
X22858752Y-44165000D02*
X22336248Y-44165000D01*
D13*
G04 #@! TO.C,D110*
X29382500Y-29155000D02*
G75*
G02*
X29282500Y-29155000I-50000J0D01*
G01*
X29282500Y-29155000D02*
G75*
G02*
X29382500Y-29155000I50000J0D01*
G01*
D12*
G04 #@! TO.C,T\u002AC110*
X43062500Y-41993748D02*
X43062500Y-42516252D01*
X44532500Y-41993748D02*
X44532500Y-42516252D01*
G04 #@! TO.C,C123*
X34787500Y-32201267D02*
X34787500Y-31908733D01*
X35807500Y-32201267D02*
X35807500Y-31908733D01*
G04 #@! TO.C,FB110*
X44962500Y-31456248D02*
X44962500Y-31978752D01*
X46432500Y-31456248D02*
X46432500Y-31978752D01*
G04 #@! TO.C,R109*
X22968767Y-34645000D02*
X22626233Y-34645000D01*
X22968767Y-35665000D02*
X22626233Y-35665000D01*
G04 #@! TO.C,FB108*
X52162500Y-31566248D02*
X52162500Y-32088752D01*
X53632500Y-31566248D02*
X53632500Y-32088752D01*
D13*
G04 #@! TO.C,D112*
X54312500Y-29137500D02*
G75*
G02*
X54212500Y-29137500I-50000J0D01*
G01*
X54212500Y-29137500D02*
G75*
G02*
X54312500Y-29137500I50000J0D01*
G01*
D12*
G04 #@! TO.C,R116*
X34387500Y-35883733D02*
X34387500Y-36226267D01*
X35407500Y-35883733D02*
X35407500Y-36226267D01*
G04 #@! TO.C,C120*
X29487500Y-37205000D02*
X29487500Y-41590000D01*
X29487500Y-41590000D02*
X32507500Y-41590000D01*
X32507500Y-41590000D02*
X32507500Y-37205000D01*
G04 #@! TO.C,T\u002AC108*
X50796814Y-42753752D02*
X50796814Y-42231248D01*
X52266814Y-42753752D02*
X52266814Y-42231248D01*
G04 #@! TO.C,MCLK108*
X20797500Y-22455000D02*
X20797500Y-24455000D01*
X20797500Y-24455000D02*
X23597500Y-24455000D01*
X23597500Y-22455000D02*
X20797500Y-22455000D01*
X23597500Y-24455000D02*
X23597500Y-22455000D01*
G04 #@! TO.C,T\u002AC109*
X49087500Y-42638767D02*
X49087500Y-42346233D01*
X50107500Y-42638767D02*
X50107500Y-42346233D01*
G04 #@! TO.C,C124*
X51687500Y-35308733D02*
X51687500Y-35601267D01*
X52707500Y-35308733D02*
X52707500Y-35601267D01*
D13*
G04 #@! TO.C,D115*
X43512500Y-28955000D02*
G75*
G02*
X43412500Y-28955000I-50000J0D01*
G01*
X43412500Y-28955000D02*
G75*
G02*
X43512500Y-28955000I50000J0D01*
G01*
G04 #@! TO.C,3V108*
X49457500Y-39145000D02*
X47347500Y-39145000D01*
X47347500Y-40145000D01*
X49457500Y-40145000D01*
X49457500Y-39145000D01*
D12*
G04 #@! TO.C,C131*
X22336248Y-44945000D02*
X22858752Y-44945000D01*
X22336248Y-46365000D02*
X22858752Y-46365000D01*
G04 #@! TO.C,R111*
X31226233Y-34645000D02*
X31568767Y-34645000D01*
X31226233Y-35665000D02*
X31568767Y-35665000D01*
D13*
G04 #@! TO.C,D114*
X47112500Y-29090000D02*
G75*
G02*
X47012500Y-29090000I-50000J0D01*
G01*
X47012500Y-29090000D02*
G75*
G02*
X47112500Y-29090000I50000J0D01*
G01*
D12*
G04 #@! TO.C,C129*
X41237117Y-40696815D02*
X41237117Y-40989349D01*
X42257117Y-40696815D02*
X42257117Y-40989349D01*
G04 #@! TO.C,C127*
X42787500Y-35308733D02*
X42787500Y-35601267D01*
X43807500Y-35308733D02*
X43807500Y-35601267D01*
G04 #@! TO.C,FB109*
X48562500Y-31528748D02*
X48562500Y-32051252D01*
X50032500Y-31528748D02*
X50032500Y-32051252D01*
G04 #@! TO.C,C114*
X20887500Y-37205000D02*
X20887500Y-41590000D01*
X20887500Y-41590000D02*
X23907500Y-41590000D01*
X23907500Y-41590000D02*
X23907500Y-37205000D01*
G04 #@! TO.C,C110*
X25187500Y-37205000D02*
X25187500Y-41590000D01*
X25187500Y-41590000D02*
X28207500Y-41590000D01*
X28207500Y-41590000D02*
X28207500Y-37205000D01*
G04 #@! TO.C,FB111*
X41362500Y-31293748D02*
X41362500Y-31816252D01*
X42832500Y-31293748D02*
X42832500Y-31816252D01*
D13*
G04 #@! TO.C,D108*
X25082500Y-29155000D02*
G75*
G02*
X24982500Y-29155000I-50000J0D01*
G01*
X24982500Y-29155000D02*
G75*
G02*
X25082500Y-29155000I50000J0D01*
G01*
D12*
G04 #@! TO.C,R128*
X41617500Y-43808641D02*
X41617500Y-43501359D01*
X42377500Y-43808641D02*
X42377500Y-43501359D01*
D13*
G04 #@! TO.C,D113*
X50712500Y-29090000D02*
G75*
G02*
X50612500Y-29090000I-50000J0D01*
G01*
X50612500Y-29090000D02*
G75*
G02*
X50712500Y-29090000I50000J0D01*
G01*
D12*
G04 #@! TO.C,R108*
X26926233Y-34645000D02*
X27268767Y-34645000D01*
X26926233Y-35665000D02*
X27268767Y-35665000D01*
D13*
G04 #@! TO.C,D111*
X33082500Y-29155000D02*
G75*
G02*
X32982500Y-29155000I-50000J0D01*
G01*
X32982500Y-29155000D02*
G75*
G02*
X33082500Y-29155000I50000J0D01*
G01*
D12*
G04 #@! TO.C,C122*
X33487501Y-38345000D02*
X33487501Y-41365000D01*
X33487501Y-41365000D02*
X37872501Y-41365000D01*
X37872501Y-38345000D02*
X33487501Y-38345000D01*
G04 #@! TO.C,C121*
X30887500Y-32201267D02*
X30887500Y-31908733D01*
X31907500Y-32201267D02*
X31907500Y-31908733D01*
G04 #@! TO.C,C117*
X22287500Y-32201267D02*
X22287500Y-31908733D01*
X23307500Y-32201267D02*
X23307500Y-31908733D01*
G04 #@! TO.C,SCL109*
X40365121Y-42675000D02*
X40029879Y-42675000D01*
X40365121Y-43435000D02*
X40029879Y-43435000D01*
G04 #@! TO.C,U109*
X45049314Y-42470000D02*
X45049314Y-41670000D01*
X45049314Y-42470000D02*
X45049314Y-43270000D01*
X48169314Y-42470000D02*
X48169314Y-41670000D01*
X48169314Y-42470000D02*
X48169314Y-44270000D01*
G04 #@! TO.C,C113*
X26587500Y-32201267D02*
X26587500Y-31908733D01*
X27607500Y-32201267D02*
X27607500Y-31908733D01*
G04 #@! TO.C,C125*
X49087500Y-35408733D02*
X49087500Y-35701267D01*
X50107500Y-35408733D02*
X50107500Y-35701267D01*
G04 #@! TO.C,C126*
X45487500Y-35308733D02*
X45487500Y-35601267D01*
X46507500Y-35308733D02*
X46507500Y-35601267D01*
D13*
G04 #@! TO.C,D109*
X20782500Y-29155000D02*
G75*
G02*
X20682500Y-29155000I-50000J0D01*
G01*
X20682500Y-29155000D02*
G75*
G02*
X20782500Y-29155000I50000J0D01*
G01*
G04 #@! TD*
M02*
