G04 #@! TF.GenerationSoftware,KiCad,Pcbnew,9.0.4*
G04 #@! TF.CreationDate,2025-08-20T21:16:51-04:00*
G04 #@! TF.ProjectId,jlcpcb_1x1,6a6c6370-6362-45f3-9178-312e6b696361,rev?*
G04 #@! TF.SameCoordinates,Original*
G04 #@! TF.FileFunction,Paste,Bot*
G04 #@! TF.FilePolarity,Positive*
%FSLAX46Y46*%
G04 Gerber Fmt 4.6, Leading zero omitted, Abs format (unit mm)*
G04 Created by KiCad (PCBNEW 9.0.4) date 2025-08-20 21:16:51*
%MOMM*%
%LPD*%
G01*
G04 APERTURE LIST*
G04 Aperture macros list*
%AMRoundRect*
0 Rectangle with rounded corners*
0 $1 Rounding radius*
0 $2 $3 $4 $5 $6 $7 $8 $9 X,Y pos of 4 corners*
0 Add a 4 corners polygon primitive as box body*
4,1,4,$2,$3,$4,$5,$6,$7,$8,$9,$2,$3,0*
0 Add four circle primitives for the rounded corners*
1,1,$1+$1,$2,$3*
1,1,$1+$1,$4,$5*
1,1,$1+$1,$6,$7*
1,1,$1+$1,$8,$9*
0 Add four rect primitives between the rounded corners*
20,1,$1+$1,$2,$3,$4,$5,0*
20,1,$1+$1,$4,$5,$6,$7,0*
20,1,$1+$1,$6,$7,$8,$9,0*
20,1,$1+$1,$8,$9,$2,$3,0*%
G04 Aperture macros list end*
%ADD10RoundRect,0.250000X0.325000X0.450000X-0.325000X0.450000X-0.325000X-0.450000X0.325000X-0.450000X0*%
%ADD11RoundRect,0.160000X0.222500X0.160000X-0.222500X0.160000X-0.222500X-0.160000X0.222500X-0.160000X0*%
%ADD12RoundRect,0.250000X-0.475000X0.337500X-0.475000X-0.337500X0.475000X-0.337500X0.475000X0.337500X0*%
%ADD13RoundRect,0.237500X0.237500X-0.300000X0.237500X0.300000X-0.237500X0.300000X-0.237500X-0.300000X0*%
%ADD14RoundRect,0.237500X0.287500X0.237500X-0.287500X0.237500X-0.287500X-0.237500X0.287500X-0.237500X0*%
%ADD15RoundRect,0.160000X-0.222500X-0.160000X0.222500X-0.160000X0.222500X0.160000X-0.222500X0.160000X0*%
%ADD16RoundRect,0.237500X-0.237500X0.287500X-0.237500X-0.287500X0.237500X-0.287500X0.237500X0.287500X0*%
%ADD17RoundRect,0.250001X0.924999X-0.499999X0.924999X0.499999X-0.924999X0.499999X-0.924999X-0.499999X0*%
%ADD18RoundRect,0.250000X0.475000X-0.337500X0.475000X0.337500X-0.475000X0.337500X-0.475000X-0.337500X0*%
%ADD19RoundRect,0.237500X-0.237500X0.300000X-0.237500X-0.300000X0.237500X-0.300000X0.237500X0.300000X0*%
%ADD20RoundRect,0.250000X-0.325000X-0.450000X0.325000X-0.450000X0.325000X0.450000X-0.325000X0.450000X0*%
%ADD21RoundRect,0.237500X-0.287500X-0.237500X0.287500X-0.237500X0.287500X0.237500X-0.287500X0.237500X0*%
%ADD22RoundRect,0.135000X0.185000X-0.135000X0.185000X0.135000X-0.185000X0.135000X-0.185000X-0.135000X0*%
%ADD23RoundRect,0.250001X-0.499999X-0.924999X0.499999X-0.924999X0.499999X0.924999X-0.499999X0.924999X0*%
%ADD24RoundRect,0.160000X0.197500X0.160000X-0.197500X0.160000X-0.197500X-0.160000X0.197500X-0.160000X0*%
%ADD25RoundRect,0.150000X0.150000X-0.512500X0.150000X0.512500X-0.150000X0.512500X-0.150000X-0.512500X0*%
G04 APERTURE END LIST*
D10*
G04 #@! TO.C,C130*
X23622500Y-43455000D03*
X21572500Y-43455000D03*
G04 #@! TD*
D11*
G04 #@! TO.C,D110*
X30025000Y-29155000D03*
X31170000Y-29155000D03*
G04 #@! TD*
D12*
G04 #@! TO.C,T\u002AC110*
X43797500Y-41217500D03*
X43797500Y-43292500D03*
G04 #@! TD*
D13*
G04 #@! TO.C,C123*
X35297500Y-32917500D03*
X35297500Y-31192500D03*
G04 #@! TD*
D12*
G04 #@! TO.C,FB110*
X45697500Y-30680000D03*
X45697500Y-32755000D03*
G04 #@! TD*
D14*
G04 #@! TO.C,R109*
X23672500Y-35155000D03*
X21922500Y-35155000D03*
G04 #@! TD*
D12*
G04 #@! TO.C,FB108*
X52897500Y-30790000D03*
X52897500Y-32865000D03*
G04 #@! TD*
D15*
G04 #@! TO.C,D112*
X53570000Y-29137500D03*
X52425000Y-29137500D03*
G04 #@! TD*
D16*
G04 #@! TO.C,R116*
X34897500Y-35180000D03*
X34897500Y-36930000D03*
G04 #@! TD*
D17*
G04 #@! TO.C,C120*
X30997500Y-40580000D03*
X30997500Y-37330000D03*
G04 #@! TD*
D18*
G04 #@! TO.C,T\u002AC108*
X51531814Y-43530000D03*
X51531814Y-41455000D03*
G04 #@! TD*
D13*
G04 #@! TO.C,T\u002AC109*
X49597500Y-43355000D03*
X49597500Y-41630000D03*
G04 #@! TD*
D19*
G04 #@! TO.C,C124*
X52197500Y-34592500D03*
X52197500Y-36317500D03*
G04 #@! TD*
D15*
G04 #@! TO.C,D115*
X42770000Y-28955000D03*
X41625000Y-28955000D03*
G04 #@! TD*
D20*
G04 #@! TO.C,C131*
X21572500Y-45655000D03*
X23622500Y-45655000D03*
G04 #@! TD*
D21*
G04 #@! TO.C,R111*
X30522500Y-35155000D03*
X32272500Y-35155000D03*
G04 #@! TD*
D15*
G04 #@! TO.C,D114*
X46370000Y-29090000D03*
X45225000Y-29090000D03*
G04 #@! TD*
D19*
G04 #@! TO.C,C129*
X41747117Y-39980582D03*
X41747117Y-41705582D03*
G04 #@! TD*
G04 #@! TO.C,C127*
X43297500Y-34592500D03*
X43297500Y-36317500D03*
G04 #@! TD*
D12*
G04 #@! TO.C,FB109*
X49297500Y-30752500D03*
X49297500Y-32827500D03*
G04 #@! TD*
D17*
G04 #@! TO.C,C114*
X22397500Y-40580000D03*
X22397500Y-37330000D03*
G04 #@! TD*
G04 #@! TO.C,C110*
X26697500Y-40580000D03*
X26697500Y-37330000D03*
G04 #@! TD*
D12*
G04 #@! TO.C,FB111*
X42097500Y-30517500D03*
X42097500Y-32592500D03*
G04 #@! TD*
D11*
G04 #@! TO.C,D108*
X25725000Y-29155000D03*
X26870000Y-29155000D03*
G04 #@! TD*
D22*
G04 #@! TO.C,R128*
X41997500Y-44165000D03*
X41997500Y-43145000D03*
G04 #@! TD*
D15*
G04 #@! TO.C,D113*
X49970000Y-29090000D03*
X48825000Y-29090000D03*
G04 #@! TD*
D21*
G04 #@! TO.C,R108*
X26222500Y-35155000D03*
X27972500Y-35155000D03*
G04 #@! TD*
D11*
G04 #@! TO.C,D111*
X33725000Y-29155000D03*
X34870000Y-29155000D03*
G04 #@! TD*
D23*
G04 #@! TO.C,C122*
X34497501Y-39855000D03*
X37747501Y-39855000D03*
G04 #@! TD*
D13*
G04 #@! TO.C,C121*
X31397500Y-32917500D03*
X31397500Y-31192500D03*
G04 #@! TD*
G04 #@! TO.C,C117*
X22797500Y-32917500D03*
X22797500Y-31192500D03*
G04 #@! TD*
D24*
G04 #@! TO.C,SCL109*
X40795000Y-43055000D03*
X39600000Y-43055000D03*
G04 #@! TD*
D25*
G04 #@! TO.C,U109*
X47559314Y-43607500D03*
X46609314Y-43607500D03*
X45659314Y-43607500D03*
X45659314Y-41332500D03*
X47559314Y-41332500D03*
G04 #@! TD*
D13*
G04 #@! TO.C,C113*
X27097500Y-32917500D03*
X27097500Y-31192500D03*
G04 #@! TD*
D19*
G04 #@! TO.C,C125*
X49597500Y-34692500D03*
X49597500Y-36417500D03*
G04 #@! TD*
G04 #@! TO.C,C126*
X45997500Y-34592500D03*
X45997500Y-36317500D03*
G04 #@! TD*
D11*
G04 #@! TO.C,D109*
X21425000Y-29155000D03*
X22570000Y-29155000D03*
G04 #@! TD*
M02*
