G04 #@! TF.GenerationSoftware,KiCad,Pcbnew,9.0.4*
G04 #@! TF.CreationDate,2025-08-20T21:16:51-04:00*
G04 #@! TF.ProjectId,jlcpcb_1x1,6a6c6370-6362-45f3-9178-312e6b696361,rev?*
G04 #@! TF.SameCoordinates,Original*
G04 #@! TF.FileFunction,Soldermask,Bot*
G04 #@! TF.FilePolarity,Negative*
%FSLAX46Y46*%
G04 Gerber Fmt 4.6, Leading zero omitted, Abs format (unit mm)*
G04 Created by KiCad (PCBNEW 9.0.4) date 2025-08-20 21:16:51*
%MOMM*%
%LPD*%
G01*
G04 APERTURE LIST*
G04 Aperture macros list*
%AMRoundRect*
0 Rectangle with rounded corners*
0 $1 Rounding radius*
0 $2 $3 $4 $5 $6 $7 $8 $9 X,Y pos of 4 corners*
0 Add a 4 corners polygon primitive as box body*
4,1,4,$2,$3,$4,$5,$6,$7,$8,$9,$2,$3,0*
0 Add four circle primitives for the rounded corners*
1,1,$1+$1,$2,$3*
1,1,$1+$1,$4,$5*
1,1,$1+$1,$6,$7*
1,1,$1+$1,$8,$9*
0 Add four rect primitives between the rounded corners*
20,1,$1+$1,$2,$3,$4,$5,0*
20,1,$1+$1,$4,$5,$6,$7,0*
20,1,$1+$1,$6,$7,$8,$9,0*
20,1,$1+$1,$8,$9,$2,$3,0*%
G04 Aperture macros list end*
%ADD10C,0.010000*%
%ADD11C,0.500000*%
%ADD12R,1.700000X1.700000*%
%ADD13O,1.700000X1.700000*%
%ADD14C,3.200000*%
%ADD15R,0.500000X0.508000*%
%ADD16R,0.508000X0.508000*%
%ADD17R,0.500000X0.500000*%
%ADD18R,0.500000X0.550000*%
%ADD19RoundRect,0.250000X0.325000X0.450000X-0.325000X0.450000X-0.325000X-0.450000X0.325000X-0.450000X0*%
%ADD20RoundRect,0.160000X0.222500X0.160000X-0.222500X0.160000X-0.222500X-0.160000X0.222500X-0.160000X0*%
%ADD21RoundRect,0.250000X-0.475000X0.337500X-0.475000X-0.337500X0.475000X-0.337500X0.475000X0.337500X0*%
%ADD22RoundRect,0.237500X0.237500X-0.300000X0.237500X0.300000X-0.237500X0.300000X-0.237500X-0.300000X0*%
%ADD23RoundRect,0.237500X0.287500X0.237500X-0.287500X0.237500X-0.287500X-0.237500X0.287500X-0.237500X0*%
%ADD24RoundRect,0.160000X-0.222500X-0.160000X0.222500X-0.160000X0.222500X0.160000X-0.222500X0.160000X0*%
%ADD25RoundRect,0.237500X-0.237500X0.287500X-0.237500X-0.287500X0.237500X-0.287500X0.237500X0.287500X0*%
%ADD26RoundRect,0.250001X0.924999X-0.499999X0.924999X0.499999X-0.924999X0.499999X-0.924999X-0.499999X0*%
%ADD27RoundRect,0.250000X0.475000X-0.337500X0.475000X0.337500X-0.475000X0.337500X-0.475000X-0.337500X0*%
%ADD28R,1.000000X1.500000*%
%ADD29RoundRect,0.237500X-0.237500X0.300000X-0.237500X-0.300000X0.237500X-0.300000X0.237500X0.300000X0*%
%ADD30C,1.000000*%
%ADD31RoundRect,0.250000X-0.325000X-0.450000X0.325000X-0.450000X0.325000X0.450000X-0.325000X0.450000X0*%
%ADD32RoundRect,0.237500X-0.287500X-0.237500X0.287500X-0.237500X0.287500X0.237500X-0.287500X0.237500X0*%
%ADD33RoundRect,0.135000X0.185000X-0.135000X0.185000X0.135000X-0.185000X0.135000X-0.185000X-0.135000X0*%
%ADD34RoundRect,0.250001X-0.499999X-0.924999X0.499999X-0.924999X0.499999X0.924999X-0.499999X0.924999X0*%
%ADD35RoundRect,0.160000X0.197500X0.160000X-0.197500X0.160000X-0.197500X-0.160000X0.197500X-0.160000X0*%
%ADD36RoundRect,0.150000X0.150000X-0.512500X0.150000X0.512500X-0.150000X0.512500X-0.150000X-0.512500X0*%
%ADD37R,0.508000X0.500000*%
G04 APERTURE END LIST*
G04 #@! TO.C,G119*
G36*
X51251500Y-39401000D02*
G01*
X50751500Y-39401000D01*
X50751500Y-39909000D01*
X51251500Y-39909000D01*
X51251500Y-39401000D01*
G37*
G04 #@! TO.C,INP2*
G36*
X50547500Y-30640000D02*
G01*
X51047500Y-30640000D01*
X51047500Y-31490000D01*
X50547500Y-31490000D01*
X50547500Y-30640000D01*
G37*
G04 #@! TO.C,MCLK108*
G36*
X22047500Y-24205000D02*
G01*
X22347500Y-24205000D01*
X22347500Y-22705000D01*
X22047500Y-22705000D01*
X22047500Y-24205000D01*
G37*
G04 #@! TO.C,3V108*
D10*
X49457500Y-39155000D02*
X47347500Y-39155000D01*
X47347500Y-40155000D01*
X49457500Y-40155000D01*
X49457500Y-39155000D01*
G36*
X49457500Y-39155000D02*
G01*
X47347500Y-39155000D01*
X47347500Y-40155000D01*
X49457500Y-40155000D01*
X49457500Y-39155000D01*
G37*
G04 #@! TO.C,OP2*
G36*
X29447500Y-30630000D02*
G01*
X29947500Y-30630000D01*
X29947500Y-31480000D01*
X29447500Y-31480000D01*
X29447500Y-30630000D01*
G37*
G04 #@! TO.C,SCL108*
G36*
X21943500Y-25509000D02*
G01*
X22443500Y-25509000D01*
X22443500Y-25001000D01*
X21943500Y-25001000D01*
X21943500Y-25509000D01*
G37*
G04 #@! TO.C,INM2*
G36*
X54147500Y-30687500D02*
G01*
X54647500Y-30687500D01*
X54647500Y-31537500D01*
X54147500Y-31537500D01*
X54147500Y-30687500D01*
G37*
G04 #@! TO.C,INP1*
G36*
X43347500Y-30630000D02*
G01*
X43847500Y-30630000D01*
X43847500Y-31480000D01*
X43347500Y-31480000D01*
X43347500Y-30630000D01*
G37*
G04 #@! TO.C,OM1*
G36*
X21647500Y-31405000D02*
G01*
X21147500Y-31405000D01*
X21147500Y-30530000D01*
X21647500Y-30530000D01*
X21647500Y-31405000D01*
G37*
G04 #@! TO.C,SDA108*
G36*
X20743500Y-26709000D02*
G01*
X21243500Y-26709000D01*
X21243500Y-26201000D01*
X20743500Y-26201000D01*
X20743500Y-26709000D01*
G37*
G04 #@! TO.C,GND108*
G36*
X38343500Y-28801000D02*
G01*
X38851500Y-28801000D01*
X38851500Y-29301000D01*
X38343500Y-29301000D01*
X38343500Y-28801000D01*
G37*
G04 #@! TO.C,OM2*
G36*
X33347500Y-30405000D02*
G01*
X33847500Y-30405000D01*
X33847500Y-31255000D01*
X33347500Y-31255000D01*
X33347500Y-30405000D01*
G37*
G04 #@! TO.C,OP1*
G36*
X25147500Y-30705000D02*
G01*
X25647500Y-30705000D01*
X25647500Y-31555000D01*
X25147500Y-31555000D01*
X25147500Y-30705000D01*
G37*
G04 #@! TO.C,INM1*
G36*
X46947500Y-30567500D02*
G01*
X47447500Y-30567500D01*
X47447500Y-31417500D01*
X46947500Y-31417500D01*
X46947500Y-30567500D01*
G37*
G04 #@! TD*
D11*
G04 #@! TO.C,KiKit_MB_8_14*
X68479375Y-48460000D03*
G04 #@! TD*
G04 #@! TO.C,KiKit_MB_4_2*
X56480000Y-41260000D03*
G04 #@! TD*
G04 #@! TO.C,KiKit_MB_8_11*
X65998750Y-48460000D03*
G04 #@! TD*
G04 #@! TO.C,KiKit_MB_3_3*
X13980000Y-42860000D03*
G04 #@! TD*
G04 #@! TO.C,KiKit_MB_8_8*
X63518125Y-48460000D03*
G04 #@! TD*
G04 #@! TO.C,KiKit_MB_6_10*
X6941875Y-48460000D03*
G04 #@! TD*
G04 #@! TO.C,KiKit_MB_7_5*
X61037500Y-22000000D03*
G04 #@! TD*
G04 #@! TO.C,KiKit_MB_8_13*
X67652500Y-48460000D03*
G04 #@! TD*
G04 #@! TO.C,KiKit_MB_2_4*
X56480000Y-28400000D03*
G04 #@! TD*
G04 #@! TO.C,KiKit_MB_6_11*
X7768750Y-48460000D03*
G04 #@! TD*
G04 #@! TO.C,KiKit_MB_5_13*
X9422500Y-22000000D03*
G04 #@! TD*
G04 #@! TO.C,KiKit_MB_5_2*
X326875Y-22000000D03*
G04 #@! TD*
G04 #@! TO.C,KiKit_MB_8_4*
X60210625Y-48460000D03*
G04 #@! TD*
G04 #@! TO.C,KiKit_MB_4_3*
X56480000Y-42060000D03*
G04 #@! TD*
G04 #@! TO.C,KiKit_MB_7_10*
X65171875Y-22000000D03*
G04 #@! TD*
G04 #@! TO.C,KiKit_MB_4_5*
X56480000Y-43660000D03*
G04 #@! TD*
G04 #@! TO.C,KiKit_MB_2_2*
X56480000Y-26800000D03*
G04 #@! TD*
G04 #@! TO.C,KiKit_MB_6_4*
X1980625Y-48460000D03*
G04 #@! TD*
G04 #@! TO.C,KiKit_MB_2_3*
X56480000Y-27600000D03*
G04 #@! TD*
G04 #@! TO.C,KiKit_MB_6_16*
X11903125Y-48460000D03*
G04 #@! TD*
G04 #@! TO.C,KiKit_MB_8_9*
X64345000Y-48460000D03*
G04 #@! TD*
G04 #@! TO.C,KiKit_MB_7_15*
X69306250Y-22000000D03*
G04 #@! TD*
G04 #@! TO.C,KiKit_MB_8_10*
X65171875Y-48460000D03*
G04 #@! TD*
D12*
G04 #@! TO.C,board_outline108*
X18735000Y-46655000D03*
D13*
X16195000Y-46655000D03*
X18735000Y-44115000D03*
X16195000Y-44115000D03*
X18735000Y-41575000D03*
X16195000Y-41575000D03*
X18735000Y-39035000D03*
X16195000Y-39035000D03*
X18735000Y-36495000D03*
X16195000Y-36495000D03*
X18735000Y-33955000D03*
X16195000Y-33955000D03*
X18735000Y-31415000D03*
X16195000Y-31415000D03*
X18735000Y-28875000D03*
X16195000Y-28875000D03*
X18735000Y-26335000D03*
X16195000Y-26335000D03*
X18735000Y-23795000D03*
X16195000Y-23795000D03*
D12*
X31445000Y-26340000D03*
X31445000Y-23800000D03*
D13*
X33985000Y-26340000D03*
X33985000Y-23800000D03*
X36525000Y-26340000D03*
X36525000Y-23800000D03*
X39065000Y-26340000D03*
X39065000Y-23800000D03*
X41605000Y-26340000D03*
X41605000Y-23800000D03*
X44145000Y-26340000D03*
X44145000Y-23800000D03*
X46685000Y-26340000D03*
X46685000Y-23800000D03*
X49225000Y-26340000D03*
X49225000Y-23800000D03*
D12*
X31445000Y-46660000D03*
D13*
X33985000Y-46660000D03*
X36525000Y-46660000D03*
X39065000Y-46660000D03*
X41605000Y-46660000D03*
X44145000Y-46660000D03*
X46685000Y-46660000D03*
X49225000Y-46660000D03*
X54290000Y-41580000D03*
X54290000Y-39040000D03*
X54290000Y-36500000D03*
X51750000Y-26340000D03*
D14*
X26350000Y-23800000D03*
X54290000Y-23800000D03*
X26350000Y-46660000D03*
X54290000Y-46660000D03*
G04 #@! TD*
D11*
G04 #@! TO.C,KiKit_MB_5_5*
X2807500Y-22000000D03*
G04 #@! TD*
G04 #@! TO.C,KiKit_MB_5_7*
X4461250Y-22000000D03*
G04 #@! TD*
G04 #@! TO.C,KiKit_MB_5_9*
X6115000Y-22000000D03*
G04 #@! TD*
G04 #@! TO.C,KiKit_MB_7_13*
X67652500Y-22000000D03*
G04 #@! TD*
G04 #@! TO.C,KiKit_MB_8_12*
X66825625Y-48460000D03*
G04 #@! TD*
G04 #@! TO.C,KiKit_MB_7_4*
X60210625Y-22000000D03*
G04 #@! TD*
G04 #@! TO.C,KiKit_MB_5_4*
X1980625Y-22000000D03*
G04 #@! TD*
G04 #@! TO.C,KiKit_MB_7_6*
X61864375Y-22000000D03*
G04 #@! TD*
G04 #@! TO.C,KiKit_MB_7_3*
X59383750Y-22000000D03*
G04 #@! TD*
G04 #@! TO.C,KiKit_MB_3_4*
X13980000Y-42060000D03*
G04 #@! TD*
G04 #@! TO.C,KiKit_MB_6_2*
X326875Y-48460000D03*
G04 #@! TD*
G04 #@! TO.C,KiKit_MB_8_2*
X58556875Y-48460000D03*
G04 #@! TD*
G04 #@! TO.C,KiKit_MB_3_2*
X13980000Y-43660000D03*
G04 #@! TD*
G04 #@! TO.C,KiKit_MB_7_8*
X63518125Y-22000000D03*
G04 #@! TD*
G04 #@! TO.C,KiKit_MB_8_5*
X61037500Y-48460000D03*
G04 #@! TD*
G04 #@! TO.C,KiKit_MB_5_6*
X3634375Y-22000000D03*
G04 #@! TD*
G04 #@! TO.C,KiKit_MB_7_14*
X68479375Y-22000000D03*
G04 #@! TD*
G04 #@! TO.C,KiKit_MB_8_6*
X61864375Y-48460000D03*
G04 #@! TD*
G04 #@! TO.C,KiKit_MB_1_2*
X13980000Y-29200000D03*
G04 #@! TD*
G04 #@! TO.C,KiKit_MB_7_16*
X70133125Y-22000000D03*
G04 #@! TD*
G04 #@! TO.C,KiKit_MB_8_16*
X70133125Y-48460000D03*
G04 #@! TD*
G04 #@! TO.C,KiKit_MB_6_5*
X2807500Y-48460000D03*
G04 #@! TD*
G04 #@! TO.C,KiKit_MB_1_3*
X13980000Y-28400000D03*
G04 #@! TD*
G04 #@! TO.C,KiKit_MB_5_11*
X7768750Y-22000000D03*
G04 #@! TD*
G04 #@! TO.C,KiKit_MB_8_15*
X69306250Y-48460000D03*
G04 #@! TD*
G04 #@! TO.C,KiKit_MB_5_14*
X10249375Y-22000000D03*
G04 #@! TD*
G04 #@! TO.C,KiKit_MB_6_9*
X6115000Y-48460000D03*
G04 #@! TD*
G04 #@! TO.C,KiKit_MB_6_7*
X4461250Y-48460000D03*
G04 #@! TD*
G04 #@! TO.C,KiKit_MB_6_13*
X9422500Y-48460000D03*
G04 #@! TD*
G04 #@! TO.C,KiKit_MB_7_9*
X64345000Y-22000000D03*
G04 #@! TD*
G04 #@! TO.C,KiKit_MB_4_4*
X56480000Y-42860000D03*
G04 #@! TD*
G04 #@! TO.C,KiKit_MB_6_12*
X8595625Y-48460000D03*
G04 #@! TD*
G04 #@! TO.C,KiKit_MB_7_11*
X65998750Y-22000000D03*
G04 #@! TD*
G04 #@! TO.C,KiKit_MB_6_8*
X5288125Y-48460000D03*
G04 #@! TD*
G04 #@! TO.C,KiKit_MB_3_5*
X13980000Y-41260000D03*
G04 #@! TD*
G04 #@! TO.C,KiKit_MB_2_5*
X56480000Y-29200000D03*
G04 #@! TD*
G04 #@! TO.C,KiKit_MB_5_15*
X11076250Y-22000000D03*
G04 #@! TD*
G04 #@! TO.C,KiKit_MB_6_6*
X3634375Y-48460000D03*
G04 #@! TD*
G04 #@! TO.C,KiKit_MB_7_7*
X62691250Y-22000000D03*
G04 #@! TD*
G04 #@! TO.C,KiKit_MB_1_5*
X13980000Y-26800000D03*
G04 #@! TD*
G04 #@! TO.C,KiKit_MB_5_16*
X11903125Y-22000000D03*
G04 #@! TD*
G04 #@! TO.C,KiKit_MB_8_3*
X59383750Y-48460000D03*
G04 #@! TD*
G04 #@! TO.C,KiKit_MB_5_12*
X8595625Y-22000000D03*
G04 #@! TD*
G04 #@! TO.C,KiKit_MB_5_8*
X5288125Y-22000000D03*
G04 #@! TD*
G04 #@! TO.C,KiKit_MB_1_4*
X13980000Y-27600000D03*
G04 #@! TD*
G04 #@! TO.C,KiKit_MB_8_7*
X62691250Y-48460000D03*
G04 #@! TD*
G04 #@! TO.C,KiKit_MB_7_2*
X58556875Y-22000000D03*
G04 #@! TD*
G04 #@! TO.C,KiKit_MB_5_10*
X6941875Y-22000000D03*
G04 #@! TD*
G04 #@! TO.C,KiKit_MB_6_15*
X11076250Y-48460000D03*
G04 #@! TD*
G04 #@! TO.C,KiKit_MB_7_12*
X66825625Y-22000000D03*
G04 #@! TD*
G04 #@! TO.C,KiKit_MB_5_3*
X1153750Y-22000000D03*
G04 #@! TD*
G04 #@! TO.C,KiKit_MB_6_14*
X10249375Y-48460000D03*
G04 #@! TD*
G04 #@! TO.C,KiKit_MB_6_3*
X1153750Y-48460000D03*
G04 #@! TD*
D15*
G04 #@! TO.C,G119*
X51501500Y-39655000D03*
D16*
X50497500Y-39655000D03*
G04 #@! TD*
D17*
G04 #@! TO.C,INP2*
X50797500Y-30390000D03*
D18*
X50797500Y-31265000D03*
G04 #@! TD*
D19*
G04 #@! TO.C,C130*
X23622500Y-43455000D03*
X21572500Y-43455000D03*
G04 #@! TD*
D20*
G04 #@! TO.C,D110*
X30025000Y-29155000D03*
X31170000Y-29155000D03*
G04 #@! TD*
D21*
G04 #@! TO.C,T\u002AC110*
X43797500Y-41217500D03*
X43797500Y-43292500D03*
G04 #@! TD*
D22*
G04 #@! TO.C,C123*
X35297500Y-32917500D03*
X35297500Y-31192500D03*
G04 #@! TD*
D21*
G04 #@! TO.C,FB110*
X45697500Y-30680000D03*
X45697500Y-32755000D03*
G04 #@! TD*
D23*
G04 #@! TO.C,R109*
X23672500Y-35155000D03*
X21922500Y-35155000D03*
G04 #@! TD*
D21*
G04 #@! TO.C,FB108*
X52897500Y-30790000D03*
X52897500Y-32865000D03*
G04 #@! TD*
D24*
G04 #@! TO.C,D112*
X53570000Y-29137500D03*
X52425000Y-29137500D03*
G04 #@! TD*
D25*
G04 #@! TO.C,R116*
X34897500Y-35180000D03*
X34897500Y-36930000D03*
G04 #@! TD*
D26*
G04 #@! TO.C,C120*
X30997500Y-40580000D03*
X30997500Y-37330000D03*
G04 #@! TD*
D27*
G04 #@! TO.C,T\u002AC108*
X51531814Y-43530000D03*
X51531814Y-41455000D03*
G04 #@! TD*
D28*
G04 #@! TO.C,MCLK108*
X21547500Y-23455000D03*
X22847500Y-23455000D03*
G04 #@! TD*
D22*
G04 #@! TO.C,T\u002AC109*
X49597500Y-43355000D03*
X49597500Y-41630000D03*
G04 #@! TD*
D29*
G04 #@! TO.C,C124*
X52197500Y-34592500D03*
X52197500Y-36317500D03*
G04 #@! TD*
D24*
G04 #@! TO.C,D115*
X42770000Y-28955000D03*
X41625000Y-28955000D03*
G04 #@! TD*
D30*
G04 #@! TO.C,KiKit_FID_B_4*
X66460000Y-66460000D03*
G04 #@! TD*
D17*
G04 #@! TO.C,OP2*
X29697500Y-30380000D03*
D18*
X29697500Y-31255000D03*
G04 #@! TD*
D31*
G04 #@! TO.C,C131*
X21572500Y-45655000D03*
X23622500Y-45655000D03*
G04 #@! TD*
D32*
G04 #@! TO.C,R111*
X30522500Y-35155000D03*
X32272500Y-35155000D03*
G04 #@! TD*
D24*
G04 #@! TO.C,D114*
X46370000Y-29090000D03*
X45225000Y-29090000D03*
G04 #@! TD*
D29*
G04 #@! TO.C,C129*
X41747117Y-39980582D03*
X41747117Y-41705582D03*
G04 #@! TD*
G04 #@! TO.C,C127*
X43297500Y-34592500D03*
X43297500Y-36317500D03*
G04 #@! TD*
D15*
G04 #@! TO.C,SCL108*
X21693500Y-25255000D03*
D16*
X22697500Y-25255000D03*
G04 #@! TD*
D21*
G04 #@! TO.C,FB109*
X49297500Y-30752500D03*
X49297500Y-32827500D03*
G04 #@! TD*
D17*
G04 #@! TO.C,INM2*
X54397500Y-30437500D03*
D18*
X54397500Y-31312500D03*
G04 #@! TD*
D26*
G04 #@! TO.C,C114*
X22397500Y-40580000D03*
X22397500Y-37330000D03*
G04 #@! TD*
G04 #@! TO.C,C110*
X26697500Y-40580000D03*
X26697500Y-37330000D03*
G04 #@! TD*
D30*
G04 #@! TO.C,KiKit_FID_B_3*
X4000000Y-66460000D03*
G04 #@! TD*
G04 #@! TO.C,KiKit_FID_B_1*
X4000000Y-4000000D03*
G04 #@! TD*
D21*
G04 #@! TO.C,FB111*
X42097500Y-30517500D03*
X42097500Y-32592500D03*
G04 #@! TD*
D20*
G04 #@! TO.C,D108*
X25725000Y-29155000D03*
X26870000Y-29155000D03*
G04 #@! TD*
D33*
G04 #@! TO.C,R128*
X41997500Y-44165000D03*
X41997500Y-43145000D03*
G04 #@! TD*
D17*
G04 #@! TO.C,INP1*
X43597500Y-30380000D03*
D18*
X43597500Y-31255000D03*
G04 #@! TD*
D30*
G04 #@! TO.C,KiKit_FID_B_2*
X66460000Y-4000000D03*
G04 #@! TD*
D24*
G04 #@! TO.C,D113*
X49970000Y-29090000D03*
X48825000Y-29090000D03*
G04 #@! TD*
D17*
G04 #@! TO.C,OM1*
X21397500Y-31655000D03*
X21397500Y-30805000D03*
G04 #@! TD*
D15*
G04 #@! TO.C,SDA108*
X20493500Y-26455000D03*
D16*
X21497500Y-26455000D03*
G04 #@! TD*
D32*
G04 #@! TO.C,R108*
X26222500Y-35155000D03*
X27972500Y-35155000D03*
G04 #@! TD*
D20*
G04 #@! TO.C,D111*
X33725000Y-29155000D03*
X34870000Y-29155000D03*
G04 #@! TD*
D34*
G04 #@! TO.C,C122*
X34497501Y-39855000D03*
X37747501Y-39855000D03*
G04 #@! TD*
D22*
G04 #@! TO.C,C121*
X31397500Y-32917500D03*
X31397500Y-31192500D03*
G04 #@! TD*
G04 #@! TO.C,C117*
X22797500Y-32917500D03*
X22797500Y-31192500D03*
G04 #@! TD*
D35*
G04 #@! TO.C,SCL109*
X40795000Y-43055000D03*
X39600000Y-43055000D03*
G04 #@! TD*
D36*
G04 #@! TO.C,U109*
X47559314Y-43607500D03*
X46609314Y-43607500D03*
X45659314Y-43607500D03*
X45659314Y-41332500D03*
X47559314Y-41332500D03*
G04 #@! TD*
D37*
G04 #@! TO.C,GND108*
X38597500Y-28551000D03*
D16*
X38597500Y-29555000D03*
G04 #@! TD*
D22*
G04 #@! TO.C,C113*
X27097500Y-32917500D03*
X27097500Y-31192500D03*
G04 #@! TD*
D29*
G04 #@! TO.C,C125*
X49597500Y-34692500D03*
X49597500Y-36417500D03*
G04 #@! TD*
D17*
G04 #@! TO.C,OM2*
X33597500Y-30155000D03*
D18*
X33597500Y-31030000D03*
G04 #@! TD*
D29*
G04 #@! TO.C,C126*
X45997500Y-34592500D03*
X45997500Y-36317500D03*
G04 #@! TD*
D17*
G04 #@! TO.C,OP1*
X25397500Y-30455000D03*
D18*
X25397500Y-31330000D03*
G04 #@! TD*
D17*
G04 #@! TO.C,INM1*
X47197500Y-30317500D03*
D18*
X47197500Y-31192500D03*
G04 #@! TD*
D20*
G04 #@! TO.C,D109*
X21425000Y-29155000D03*
X22570000Y-29155000D03*
G04 #@! TD*
M02*
