%TF.GenerationSoftware,KiCad,Pcbnew,8.0.1*%
%TF.CreationDate,2024-04-07T09:18:40-04:00*%
%TF.ProjectId,tac5212_audio_board_single_ended,74616335-3231-4325-9f61-7564696f5f62,rev?*%
%TF.SameCoordinates,Original*%
%TF.FileFunction,Copper,L3,Inr*%
%TF.FilePolarity,Positive*%
%FSLAX46Y46*%
G04 Gerber Fmt 4.6, Leading zero omitted, Abs format (unit mm)*
G04 Created by KiCad (PCBNEW 8.0.1) date 2024-04-07 09:18:40*
%MOMM*%
%LPD*%
G01*
G04 APERTURE LIST*
%TA.AperFunction,ComponentPad*%
%ADD10R,1.700000X1.700000*%
%TD*%
%TA.AperFunction,ComponentPad*%
%ADD11O,1.700000X1.700000*%
%TD*%
%TA.AperFunction,ComponentPad*%
%ADD12C,3.200000*%
%TD*%
%TA.AperFunction,ComponentPad*%
%ADD13C,0.500000*%
%TD*%
%TA.AperFunction,ComponentPad*%
%ADD14R,0.500000X0.500000*%
%TD*%
%TA.AperFunction,ViaPad*%
%ADD15C,0.800000*%
%TD*%
%TA.AperFunction,Conductor*%
%ADD16C,0.750000*%
%TD*%
%TA.AperFunction,Conductor*%
%ADD17C,0.250000*%
%TD*%
G04 APERTURE END LIST*
D10*
%TO.N,unconnected-(board_outline1-HELD_HIGH-Pad1)*%
%TO.C,board_outline1*%
X89337500Y-122600000D03*
D11*
%TO.N,unconnected-(board_outline1-HELD_LOW-Pad2)*%
X86797500Y-122600000D03*
%TO.N,Net-(5V1-B)*%
X89337500Y-120060000D03*
%TO.N,GNDD*%
X86797500Y-120060000D03*
%TO.N,unconnected-(board_outline1-12V-Pad5)*%
X89337500Y-117520000D03*
%TO.N,GNDD*%
X86797500Y-117520000D03*
%TO.N,5212_DOUT1+*%
X89337500Y-114980000D03*
%TO.N,GNDD*%
X86797500Y-114980000D03*
%TO.N,5212_DIN1*%
X89337500Y-112440000D03*
%TO.N,GNDD*%
X86797500Y-112440000D03*
%TO.N,5212_BCLK1*%
X89337500Y-109900000D03*
%TO.N,GNDD*%
X86797500Y-109900000D03*
%TO.N,5212_LRCK1*%
X89337500Y-107360000D03*
%TO.N,GNDD*%
X86797500Y-107360000D03*
%TO.N,DSP_SDA*%
X89337500Y-104820000D03*
%TO.N,GNDD*%
X86797500Y-104820000D03*
%TO.N,DSP_SCL*%
X89337500Y-102280000D03*
%TO.N,GNDD*%
X86797500Y-102280000D03*
%TO.N,5212_MCLK1*%
X89337500Y-99740000D03*
%TO.N,GNDD*%
X86797500Y-99740000D03*
D10*
%TO.N,OUT1P+*%
X102047500Y-102285000D03*
%TO.N,Earth*%
X102047500Y-99745000D03*
D11*
%TO.N,OUT1M+*%
X104587500Y-102285000D03*
%TO.N,Earth*%
X104587500Y-99745000D03*
%TO.N,OUT2P+*%
X107127500Y-102285000D03*
%TO.N,Earth*%
X107127500Y-99745000D03*
%TO.N,OUT2M+*%
X109667500Y-102285000D03*
%TO.N,Earth*%
X109667500Y-99745000D03*
%TO.N,IN1P+*%
X112207500Y-102285000D03*
%TO.N,Earth*%
X112207500Y-99745000D03*
%TO.N,IN1M+*%
X114747500Y-102285000D03*
%TO.N,Earth*%
X114747500Y-99745000D03*
%TO.N,IN2P+*%
X117287500Y-102285000D03*
%TO.N,Earth*%
X117287500Y-99745000D03*
%TO.N,IN2M+*%
X119827500Y-102285000D03*
%TO.N,Earth*%
X119827500Y-99745000D03*
D10*
%TO.N,5212_SCL*%
X102047500Y-122605000D03*
D11*
%TO.N,5212_SDA*%
X104587500Y-122605000D03*
%TO.N,GNDD*%
X107127500Y-122605000D03*
%TO.N,GPIO1*%
X109667500Y-122605000D03*
%TO.N,GPIO2*%
X112207500Y-122605000D03*
%TO.N,GPO1*%
X114747500Y-122605000D03*
%TO.N,GPI1*%
X117287500Y-122605000D03*
%TO.N,GNDD*%
X119827500Y-122605000D03*
%TO.N,5V*%
X124892500Y-117525000D03*
%TO.N,3.3V_LDO*%
X124892500Y-114985000D03*
%TO.N,GNDD*%
X124892500Y-112445000D03*
%TO.N,MICBIAS*%
X122352500Y-102285000D03*
D12*
%TO.N,Net-(E1-A)*%
X96952500Y-99745000D03*
%TO.N,Net-(E2-A)*%
X124892500Y-99745000D03*
%TO.N,Net-(G1-A)*%
X96952500Y-122605000D03*
%TO.N,Net-(G2-A)*%
X124892500Y-122605000D03*
%TD*%
D13*
%TO.N,Earth*%
%TO.C,G4*%
X117100000Y-114000000D03*
%TD*%
%TO.N,Earth*%
%TO.C,G5*%
X99600000Y-118200000D03*
%TD*%
%TO.N,Earth*%
%TO.C,G6*%
X118400000Y-114000000D03*
%TD*%
%TO.N,Earth*%
%TO.C,G3*%
X92300000Y-118400000D03*
%TD*%
%TO.N,Earth*%
%TO.C,G7*%
X102600000Y-118400000D03*
%TD*%
%TO.N,GNDD*%
%TO.C,J1002*%
X107715076Y-111000000D03*
X108457538Y-111742462D03*
X109200000Y-112484924D03*
X108457538Y-110257538D03*
X109200000Y-111000000D03*
X109942462Y-111742462D03*
X109200000Y-109515076D03*
X109942462Y-110257538D03*
X110684924Y-111000000D03*
%TD*%
%TO.N,Earth*%
%TO.C,G9*%
X103200000Y-119300000D03*
%TD*%
%TO.N,Earth*%
%TO.C,G8*%
X123500000Y-113700000D03*
%TD*%
%TO.N,Earth*%
%TO.C,G10*%
X125900000Y-110200000D03*
%TD*%
%TO.N,Earth*%
%TO.C,G11*%
X115800000Y-114500000D03*
%TD*%
D14*
%TO.N,OUT2P*%
%TO.C,OP2*%
X100300000Y-107425000D03*
%TD*%
%TO.N,IN2P*%
%TO.C,INP2*%
X121400000Y-107435000D03*
%TD*%
%TO.N,IN2M*%
%TO.C,INM2*%
X125000000Y-107482500D03*
%TD*%
%TO.N,OUT2M*%
%TO.C,OM2*%
X104200000Y-107500000D03*
%TD*%
%TO.N,OUT1P*%
%TO.C,OP1*%
X96000000Y-107500000D03*
%TD*%
%TO.N,IN1M*%
%TO.C,INM1*%
X117800000Y-107362500D03*
%TD*%
%TO.N,OUT1M*%
%TO.C,OM1*%
X91700000Y-106500000D03*
%TD*%
%TO.N,IN1P*%
%TO.C,INP1*%
X114200000Y-107425000D03*
%TD*%
D15*
%TO.N,GNDD*%
X106600000Y-117100000D03*
X92007996Y-109004013D03*
X100718700Y-117875000D03*
%TO.N,5V*%
X94569964Y-120430000D03*
%TO.N,Earth*%
X112825000Y-110300000D03*
%TO.N,5212_SCL*%
X102047500Y-119900002D03*
%TO.N,5212_SDA*%
X91910027Y-120067151D03*
X92000000Y-103300000D03*
%TO.N,3.3V_LDO*%
X105730761Y-118897714D03*
X100675000Y-108873986D03*
X92800004Y-114900000D03*
%TO.N,GPI1*%
X85600000Y-116400000D03*
%TO.N,Net-(PU_EN1001-Pad1)*%
X110338844Y-119622742D03*
X104430004Y-119430004D03*
%TD*%
D16*
%TO.N,5V*%
X124892500Y-117525000D02*
X121392500Y-121025000D01*
X121392500Y-121025000D02*
X101622931Y-121025000D01*
X101622931Y-121025000D02*
X101027931Y-120430000D01*
X101027931Y-120430000D02*
X94569964Y-120430000D01*
D17*
%TO.N,5212_SDA*%
X90700000Y-118857124D02*
X91910027Y-120067151D01*
X90700000Y-104600000D02*
X90700000Y-118857124D01*
X92000000Y-103300000D02*
X90700000Y-104600000D01*
D16*
%TO.N,3.3V_LDO*%
X95726014Y-108873986D02*
X92800004Y-111799996D01*
X103900000Y-117066953D02*
X105730761Y-118897714D01*
X118800000Y-117600000D02*
X121415000Y-114985000D01*
X103400000Y-114900000D02*
X103900000Y-115400000D01*
X103900000Y-115400000D02*
X103900000Y-117066953D01*
X100675000Y-108873986D02*
X95726014Y-108873986D01*
X105730761Y-118897714D02*
X106251855Y-118897714D01*
X121415000Y-114985000D02*
X124892500Y-114985000D01*
X92800004Y-111799996D02*
X92800004Y-114900000D01*
X107549569Y-117600000D02*
X118800000Y-117600000D01*
X92800004Y-114900000D02*
X103400000Y-114900000D01*
X106251855Y-118897714D02*
X107549569Y-117600000D01*
%TD*%
%TA.AperFunction,Conductor*%
%TO.N,Earth*%
G36*
X104121575Y-99552007D02*
G01*
X104087500Y-99679174D01*
X104087500Y-99810826D01*
X104121575Y-99937993D01*
X104154488Y-99995000D01*
X102480512Y-99995000D01*
X102513425Y-99937993D01*
X102547500Y-99810826D01*
X102547500Y-99679174D01*
X102513425Y-99552007D01*
X102480512Y-99495000D01*
X104154488Y-99495000D01*
X104121575Y-99552007D01*
G37*
%TD.AperFunction*%
%TA.AperFunction,Conductor*%
G36*
X106661575Y-99552007D02*
G01*
X106627500Y-99679174D01*
X106627500Y-99810826D01*
X106661575Y-99937993D01*
X106694488Y-99995000D01*
X105020512Y-99995000D01*
X105053425Y-99937993D01*
X105087500Y-99810826D01*
X105087500Y-99679174D01*
X105053425Y-99552007D01*
X105020512Y-99495000D01*
X106694488Y-99495000D01*
X106661575Y-99552007D01*
G37*
%TD.AperFunction*%
%TA.AperFunction,Conductor*%
G36*
X109201575Y-99552007D02*
G01*
X109167500Y-99679174D01*
X109167500Y-99810826D01*
X109201575Y-99937993D01*
X109234488Y-99995000D01*
X107560512Y-99995000D01*
X107593425Y-99937993D01*
X107627500Y-99810826D01*
X107627500Y-99679174D01*
X107593425Y-99552007D01*
X107560512Y-99495000D01*
X109234488Y-99495000D01*
X109201575Y-99552007D01*
G37*
%TD.AperFunction*%
%TA.AperFunction,Conductor*%
G36*
X111741575Y-99552007D02*
G01*
X111707500Y-99679174D01*
X111707500Y-99810826D01*
X111741575Y-99937993D01*
X111774488Y-99995000D01*
X110100512Y-99995000D01*
X110133425Y-99937993D01*
X110167500Y-99810826D01*
X110167500Y-99679174D01*
X110133425Y-99552007D01*
X110100512Y-99495000D01*
X111774488Y-99495000D01*
X111741575Y-99552007D01*
G37*
%TD.AperFunction*%
%TA.AperFunction,Conductor*%
G36*
X114281575Y-99552007D02*
G01*
X114247500Y-99679174D01*
X114247500Y-99810826D01*
X114281575Y-99937993D01*
X114314488Y-99995000D01*
X112640512Y-99995000D01*
X112673425Y-99937993D01*
X112707500Y-99810826D01*
X112707500Y-99679174D01*
X112673425Y-99552007D01*
X112640512Y-99495000D01*
X114314488Y-99495000D01*
X114281575Y-99552007D01*
G37*
%TD.AperFunction*%
%TA.AperFunction,Conductor*%
G36*
X116821575Y-99552007D02*
G01*
X116787500Y-99679174D01*
X116787500Y-99810826D01*
X116821575Y-99937993D01*
X116854488Y-99995000D01*
X115180512Y-99995000D01*
X115213425Y-99937993D01*
X115247500Y-99810826D01*
X115247500Y-99679174D01*
X115213425Y-99552007D01*
X115180512Y-99495000D01*
X116854488Y-99495000D01*
X116821575Y-99552007D01*
G37*
%TD.AperFunction*%
%TA.AperFunction,Conductor*%
G36*
X119361575Y-99552007D02*
G01*
X119327500Y-99679174D01*
X119327500Y-99810826D01*
X119361575Y-99937993D01*
X119394488Y-99995000D01*
X117720512Y-99995000D01*
X117753425Y-99937993D01*
X117787500Y-99810826D01*
X117787500Y-99679174D01*
X117753425Y-99552007D01*
X117720512Y-99495000D01*
X119394488Y-99495000D01*
X119361575Y-99552007D01*
G37*
%TD.AperFunction*%
%TA.AperFunction,Conductor*%
G36*
X96058017Y-97963907D02*
G01*
X96093981Y-98013407D01*
X96093981Y-98074593D01*
X96058017Y-98124093D01*
X96047272Y-98130890D01*
X95949488Y-98184283D01*
X95737590Y-98342908D01*
X95550408Y-98530090D01*
X95391783Y-98741988D01*
X95264927Y-98974307D01*
X95264926Y-98974309D01*
X95172424Y-99222317D01*
X95116156Y-99480979D01*
X95097273Y-99745000D01*
X95116156Y-100009020D01*
X95116156Y-100009023D01*
X95116157Y-100009026D01*
X95144486Y-100139252D01*
X95172424Y-100267682D01*
X95264926Y-100515690D01*
X95264927Y-100515692D01*
X95391784Y-100748011D01*
X95391783Y-100748011D01*
X95550408Y-100959909D01*
X95550410Y-100959911D01*
X95550413Y-100959915D01*
X95737585Y-101147087D01*
X95737588Y-101147089D01*
X95737590Y-101147091D01*
X95949488Y-101305716D01*
X96181807Y-101432572D01*
X96181811Y-101432574D01*
X96429817Y-101525075D01*
X96429822Y-101525077D01*
X96688474Y-101581343D01*
X96952500Y-101600227D01*
X97216526Y-101581343D01*
X97475178Y-101525077D01*
X97723189Y-101432574D01*
X97955511Y-101305716D01*
X98167415Y-101147087D01*
X98354587Y-100959915D01*
X98513216Y-100748011D01*
X98570653Y-100642824D01*
X100697499Y-100642824D01*
X100703901Y-100702370D01*
X100703903Y-100702381D01*
X100754146Y-100837088D01*
X100754147Y-100837090D01*
X100840307Y-100952184D01*
X100840315Y-100952192D01*
X100955409Y-101038352D01*
X100955411Y-101038353D01*
X101021128Y-101062864D01*
X101069043Y-101100914D01*
X101085441Y-101159861D01*
X101064060Y-101217189D01*
X101041534Y-101237937D01*
X101016902Y-101254395D01*
X101016897Y-101254400D01*
X100961535Y-101337257D01*
X100961533Y-101337263D01*
X100947001Y-101410315D01*
X100947000Y-101410327D01*
X100947000Y-103159672D01*
X100947001Y-103159684D01*
X100961533Y-103232736D01*
X100961535Y-103232742D01*
X101016897Y-103315599D01*
X101016900Y-103315602D01*
X101099757Y-103370964D01*
X101099760Y-103370966D01*
X101147690Y-103380500D01*
X101172815Y-103385498D01*
X101172820Y-103385498D01*
X101172826Y-103385500D01*
X101172827Y-103385500D01*
X102922173Y-103385500D01*
X102922174Y-103385500D01*
X102995240Y-103370966D01*
X103078101Y-103315601D01*
X103133466Y-103232740D01*
X103148000Y-103159674D01*
X103148000Y-101410326D01*
X103133466Y-101337260D01*
X103078101Y-101254399D01*
X103078099Y-101254397D01*
X103053466Y-101237938D01*
X103015586Y-101189888D01*
X103013184Y-101128750D01*
X103047176Y-101077876D01*
X103073871Y-101062863D01*
X103139592Y-101038351D01*
X103254684Y-100952192D01*
X103254692Y-100952184D01*
X103340852Y-100837090D01*
X103340853Y-100837088D01*
X103391096Y-100702381D01*
X103391098Y-100702370D01*
X103392722Y-100687269D01*
X103417741Y-100631432D01*
X103470801Y-100600965D01*
X103531636Y-100607504D01*
X103561159Y-100627846D01*
X103716426Y-100783113D01*
X103909922Y-100918600D01*
X104124009Y-101018430D01*
X104237018Y-101048711D01*
X104288332Y-101082035D01*
X104310259Y-101139156D01*
X104294424Y-101198257D01*
X104247157Y-101236653D01*
X104094863Y-101295652D01*
X104027664Y-101337260D01*
X103921459Y-101403019D01*
X103770737Y-101540420D01*
X103647828Y-101703177D01*
X103647823Y-101703186D01*
X103556919Y-101885747D01*
X103556918Y-101885750D01*
X103501103Y-102081917D01*
X103482285Y-102285000D01*
X103501103Y-102488083D01*
X103556918Y-102684250D01*
X103647827Y-102866821D01*
X103770736Y-103029579D01*
X103921459Y-103166981D01*
X104094863Y-103274348D01*
X104285044Y-103348024D01*
X104485524Y-103385500D01*
X104689476Y-103385500D01*
X104889956Y-103348024D01*
X105080137Y-103274348D01*
X105253541Y-103166981D01*
X105404264Y-103029579D01*
X105527173Y-102866821D01*
X105618082Y-102684250D01*
X105673897Y-102488083D01*
X105692715Y-102285000D01*
X105673897Y-102081917D01*
X105618082Y-101885750D01*
X105527173Y-101703179D01*
X105404264Y-101540421D01*
X105253541Y-101403019D01*
X105080137Y-101295652D01*
X104927840Y-101236652D01*
X104880410Y-101198001D01*
X104864756Y-101138852D01*
X104886859Y-101081799D01*
X104937981Y-101048711D01*
X105050990Y-101018430D01*
X105265077Y-100918600D01*
X105458573Y-100783113D01*
X105625613Y-100616073D01*
X105761101Y-100422576D01*
X105761102Y-100422574D01*
X105767775Y-100408265D01*
X105809503Y-100363516D01*
X105869564Y-100351841D01*
X105925017Y-100377698D01*
X105947225Y-100408265D01*
X105953897Y-100422574D01*
X105953898Y-100422576D01*
X106089386Y-100616073D01*
X106256426Y-100783113D01*
X106449922Y-100918600D01*
X106664009Y-101018430D01*
X106777018Y-101048711D01*
X106828332Y-101082035D01*
X106850259Y-101139156D01*
X106834424Y-101198257D01*
X106787157Y-101236653D01*
X106634863Y-101295652D01*
X106567664Y-101337260D01*
X106461459Y-101403019D01*
X106310737Y-101540420D01*
X106187828Y-101703177D01*
X106187823Y-101703186D01*
X106096919Y-101885747D01*
X106096918Y-101885750D01*
X106041103Y-102081917D01*
X106022285Y-102285000D01*
X106041103Y-102488083D01*
X106096918Y-102684250D01*
X106187827Y-102866821D01*
X106310736Y-103029579D01*
X106461459Y-103166981D01*
X106634863Y-103274348D01*
X106825044Y-103348024D01*
X107025524Y-103385500D01*
X107229476Y-103385500D01*
X107429956Y-103348024D01*
X107620137Y-103274348D01*
X107793541Y-103166981D01*
X107944264Y-103029579D01*
X108067173Y-102866821D01*
X108158082Y-102684250D01*
X108213897Y-102488083D01*
X108232715Y-102285000D01*
X108213897Y-102081917D01*
X108158082Y-101885750D01*
X108067173Y-101703179D01*
X107944264Y-101540421D01*
X107793541Y-101403019D01*
X107620137Y-101295652D01*
X107467840Y-101236652D01*
X107420410Y-101198001D01*
X107404756Y-101138852D01*
X107426859Y-101081799D01*
X107477981Y-101048711D01*
X107590990Y-101018430D01*
X107805077Y-100918600D01*
X107998573Y-100783113D01*
X108165613Y-100616073D01*
X108301101Y-100422576D01*
X108301102Y-100422574D01*
X108307775Y-100408265D01*
X108349503Y-100363516D01*
X108409564Y-100351841D01*
X108465017Y-100377698D01*
X108487225Y-100408265D01*
X108493897Y-100422574D01*
X108493898Y-100422576D01*
X108629386Y-100616073D01*
X108796426Y-100783113D01*
X108989922Y-100918600D01*
X109204009Y-101018430D01*
X109317018Y-101048711D01*
X109368332Y-101082035D01*
X109390259Y-101139156D01*
X109374424Y-101198257D01*
X109327157Y-101236653D01*
X109174863Y-101295652D01*
X109107664Y-101337260D01*
X109001459Y-101403019D01*
X108850737Y-101540420D01*
X108727828Y-101703177D01*
X108727823Y-101703186D01*
X108636919Y-101885747D01*
X108636918Y-101885750D01*
X108581103Y-102081917D01*
X108562285Y-102285000D01*
X108581103Y-102488083D01*
X108636918Y-102684250D01*
X108727827Y-102866821D01*
X108850736Y-103029579D01*
X109001459Y-103166981D01*
X109174863Y-103274348D01*
X109365044Y-103348024D01*
X109565524Y-103385500D01*
X109769476Y-103385500D01*
X109969956Y-103348024D01*
X110160137Y-103274348D01*
X110333541Y-103166981D01*
X110484264Y-103029579D01*
X110607173Y-102866821D01*
X110698082Y-102684250D01*
X110753897Y-102488083D01*
X110772715Y-102285000D01*
X110753897Y-102081917D01*
X110698082Y-101885750D01*
X110607173Y-101703179D01*
X110484264Y-101540421D01*
X110333541Y-101403019D01*
X110160137Y-101295652D01*
X110007840Y-101236652D01*
X109960410Y-101198001D01*
X109944756Y-101138852D01*
X109966859Y-101081799D01*
X110017981Y-101048711D01*
X110130990Y-101018430D01*
X110345077Y-100918600D01*
X110538573Y-100783113D01*
X110705613Y-100616073D01*
X110841101Y-100422576D01*
X110841102Y-100422574D01*
X110847775Y-100408265D01*
X110889503Y-100363516D01*
X110949564Y-100351841D01*
X111005017Y-100377698D01*
X111027225Y-100408265D01*
X111033897Y-100422574D01*
X111033898Y-100422576D01*
X111169386Y-100616073D01*
X111336426Y-100783113D01*
X111529922Y-100918600D01*
X111744009Y-101018430D01*
X111857018Y-101048711D01*
X111908332Y-101082035D01*
X111930259Y-101139156D01*
X111914424Y-101198257D01*
X111867157Y-101236653D01*
X111714863Y-101295652D01*
X111647664Y-101337260D01*
X111541459Y-101403019D01*
X111390737Y-101540420D01*
X111267828Y-101703177D01*
X111267823Y-101703186D01*
X111176919Y-101885747D01*
X111176918Y-101885750D01*
X111121103Y-102081917D01*
X111102285Y-102285000D01*
X111121103Y-102488083D01*
X111176918Y-102684250D01*
X111267827Y-102866821D01*
X111390736Y-103029579D01*
X111541459Y-103166981D01*
X111714863Y-103274348D01*
X111905044Y-103348024D01*
X112105524Y-103385500D01*
X112309476Y-103385500D01*
X112509956Y-103348024D01*
X112700137Y-103274348D01*
X112873541Y-103166981D01*
X113024264Y-103029579D01*
X113147173Y-102866821D01*
X113238082Y-102684250D01*
X113293897Y-102488083D01*
X113312715Y-102285000D01*
X113293897Y-102081917D01*
X113238082Y-101885750D01*
X113147173Y-101703179D01*
X113024264Y-101540421D01*
X112873541Y-101403019D01*
X112700137Y-101295652D01*
X112547840Y-101236652D01*
X112500410Y-101198001D01*
X112484756Y-101138852D01*
X112506859Y-101081799D01*
X112557981Y-101048711D01*
X112670990Y-101018430D01*
X112885077Y-100918600D01*
X113078573Y-100783113D01*
X113245613Y-100616073D01*
X113381101Y-100422576D01*
X113381102Y-100422574D01*
X113387775Y-100408265D01*
X113429503Y-100363516D01*
X113489564Y-100351841D01*
X113545017Y-100377698D01*
X113567225Y-100408265D01*
X113573897Y-100422574D01*
X113573898Y-100422576D01*
X113709386Y-100616073D01*
X113876426Y-100783113D01*
X114069922Y-100918600D01*
X114284009Y-101018430D01*
X114397018Y-101048711D01*
X114448332Y-101082035D01*
X114470259Y-101139156D01*
X114454424Y-101198257D01*
X114407157Y-101236653D01*
X114254863Y-101295652D01*
X114187664Y-101337260D01*
X114081459Y-101403019D01*
X113930737Y-101540420D01*
X113807828Y-101703177D01*
X113807823Y-101703186D01*
X113716919Y-101885747D01*
X113716918Y-101885750D01*
X113661103Y-102081917D01*
X113642285Y-102285000D01*
X113661103Y-102488083D01*
X113716918Y-102684250D01*
X113807827Y-102866821D01*
X113930736Y-103029579D01*
X114081459Y-103166981D01*
X114254863Y-103274348D01*
X114445044Y-103348024D01*
X114645524Y-103385500D01*
X114849476Y-103385500D01*
X115049956Y-103348024D01*
X115240137Y-103274348D01*
X115413541Y-103166981D01*
X115564264Y-103029579D01*
X115687173Y-102866821D01*
X115778082Y-102684250D01*
X115833897Y-102488083D01*
X115852715Y-102285000D01*
X115833897Y-102081917D01*
X115778082Y-101885750D01*
X115687173Y-101703179D01*
X115564264Y-101540421D01*
X115413541Y-101403019D01*
X115240137Y-101295652D01*
X115087840Y-101236652D01*
X115040410Y-101198001D01*
X115024756Y-101138852D01*
X115046859Y-101081799D01*
X115097981Y-101048711D01*
X115210990Y-101018430D01*
X115425077Y-100918600D01*
X115618573Y-100783113D01*
X115785613Y-100616073D01*
X115921101Y-100422576D01*
X115921102Y-100422574D01*
X115927775Y-100408265D01*
X115969503Y-100363516D01*
X116029564Y-100351841D01*
X116085017Y-100377698D01*
X116107225Y-100408265D01*
X116113897Y-100422574D01*
X116113898Y-100422576D01*
X116249386Y-100616073D01*
X116416426Y-100783113D01*
X116609922Y-100918600D01*
X116824009Y-101018430D01*
X116937018Y-101048711D01*
X116988332Y-101082035D01*
X117010259Y-101139156D01*
X116994424Y-101198257D01*
X116947157Y-101236653D01*
X116794863Y-101295652D01*
X116727664Y-101337260D01*
X116621459Y-101403019D01*
X116470737Y-101540420D01*
X116347828Y-101703177D01*
X116347823Y-101703186D01*
X116256919Y-101885747D01*
X116256918Y-101885750D01*
X116201103Y-102081917D01*
X116182285Y-102285000D01*
X116201103Y-102488083D01*
X116256918Y-102684250D01*
X116347827Y-102866821D01*
X116470736Y-103029579D01*
X116621459Y-103166981D01*
X116794863Y-103274348D01*
X116985044Y-103348024D01*
X117185524Y-103385500D01*
X117389476Y-103385500D01*
X117589956Y-103348024D01*
X117780137Y-103274348D01*
X117953541Y-103166981D01*
X118104264Y-103029579D01*
X118227173Y-102866821D01*
X118318082Y-102684250D01*
X118373897Y-102488083D01*
X118392715Y-102285000D01*
X118373897Y-102081917D01*
X118318082Y-101885750D01*
X118227173Y-101703179D01*
X118104264Y-101540421D01*
X117953541Y-101403019D01*
X117780137Y-101295652D01*
X117627840Y-101236652D01*
X117580410Y-101198001D01*
X117564756Y-101138852D01*
X117586859Y-101081799D01*
X117637981Y-101048711D01*
X117750990Y-101018430D01*
X117965077Y-100918600D01*
X118158573Y-100783113D01*
X118325613Y-100616073D01*
X118461101Y-100422576D01*
X118461102Y-100422574D01*
X118467775Y-100408265D01*
X118509503Y-100363516D01*
X118569564Y-100351841D01*
X118625017Y-100377698D01*
X118647225Y-100408265D01*
X118653897Y-100422574D01*
X118653898Y-100422576D01*
X118789386Y-100616073D01*
X118956426Y-100783113D01*
X119149922Y-100918600D01*
X119364009Y-101018430D01*
X119477018Y-101048711D01*
X119528332Y-101082035D01*
X119550259Y-101139156D01*
X119534424Y-101198257D01*
X119487157Y-101236653D01*
X119334863Y-101295652D01*
X119267664Y-101337260D01*
X119161459Y-101403019D01*
X119010737Y-101540420D01*
X118887828Y-101703177D01*
X118887823Y-101703186D01*
X118796919Y-101885747D01*
X118796918Y-101885750D01*
X118741103Y-102081917D01*
X118722285Y-102285000D01*
X118741103Y-102488083D01*
X118796918Y-102684250D01*
X118887827Y-102866821D01*
X119010736Y-103029579D01*
X119161459Y-103166981D01*
X119334863Y-103274348D01*
X119525044Y-103348024D01*
X119725524Y-103385500D01*
X119929476Y-103385500D01*
X120129956Y-103348024D01*
X120320137Y-103274348D01*
X120493541Y-103166981D01*
X120644264Y-103029579D01*
X120767173Y-102866821D01*
X120858082Y-102684250D01*
X120913897Y-102488083D01*
X120932715Y-102285000D01*
X121247285Y-102285000D01*
X121266103Y-102488083D01*
X121321918Y-102684250D01*
X121412827Y-102866821D01*
X121535736Y-103029579D01*
X121686459Y-103166981D01*
X121859863Y-103274348D01*
X122050044Y-103348024D01*
X122250524Y-103385500D01*
X122454476Y-103385500D01*
X122654956Y-103348024D01*
X122845137Y-103274348D01*
X123018541Y-103166981D01*
X123169264Y-103029579D01*
X123292173Y-102866821D01*
X123383082Y-102684250D01*
X123438897Y-102488083D01*
X123457715Y-102285000D01*
X123438897Y-102081917D01*
X123383082Y-101885750D01*
X123292173Y-101703179D01*
X123169264Y-101540421D01*
X123018541Y-101403019D01*
X122845137Y-101295652D01*
X122654956Y-101221976D01*
X122654955Y-101221975D01*
X122654953Y-101221975D01*
X122454476Y-101184500D01*
X122250524Y-101184500D01*
X122050046Y-101221975D01*
X122008841Y-101237938D01*
X121859863Y-101295652D01*
X121792664Y-101337260D01*
X121686459Y-101403019D01*
X121535737Y-101540420D01*
X121412828Y-101703177D01*
X121412823Y-101703186D01*
X121321919Y-101885747D01*
X121321918Y-101885750D01*
X121266103Y-102081917D01*
X121247285Y-102285000D01*
X120932715Y-102285000D01*
X120913897Y-102081917D01*
X120858082Y-101885750D01*
X120767173Y-101703179D01*
X120644264Y-101540421D01*
X120493541Y-101403019D01*
X120320137Y-101295652D01*
X120167840Y-101236652D01*
X120120410Y-101198001D01*
X120104756Y-101138852D01*
X120126859Y-101081799D01*
X120177981Y-101048711D01*
X120290990Y-101018430D01*
X120505077Y-100918600D01*
X120698573Y-100783113D01*
X120865613Y-100616073D01*
X121001100Y-100422577D01*
X121100930Y-100208489D01*
X121158136Y-99995000D01*
X120260512Y-99995000D01*
X120293425Y-99937993D01*
X120327500Y-99810826D01*
X120327500Y-99679174D01*
X120293425Y-99552007D01*
X120260512Y-99495000D01*
X121158136Y-99495000D01*
X121100929Y-99281505D01*
X121001105Y-99067432D01*
X121001101Y-99067424D01*
X120865613Y-98873926D01*
X120698573Y-98706886D01*
X120505077Y-98571399D01*
X120290989Y-98471569D01*
X120077500Y-98414364D01*
X120077500Y-99311988D01*
X120020493Y-99279075D01*
X119893326Y-99245000D01*
X119761674Y-99245000D01*
X119634507Y-99279075D01*
X119577500Y-99311988D01*
X119577500Y-98414364D01*
X119364005Y-98471570D01*
X119149932Y-98571394D01*
X119149924Y-98571398D01*
X118956426Y-98706886D01*
X118789386Y-98873926D01*
X118653898Y-99067424D01*
X118653896Y-99067428D01*
X118647224Y-99081737D01*
X118605495Y-99126485D01*
X118545434Y-99138159D01*
X118489981Y-99112300D01*
X118467776Y-99081737D01*
X118461103Y-99067428D01*
X118461101Y-99067424D01*
X118325613Y-98873926D01*
X118158573Y-98706886D01*
X117965077Y-98571399D01*
X117750989Y-98471569D01*
X117537500Y-98414364D01*
X117537500Y-99311988D01*
X117480493Y-99279075D01*
X117353326Y-99245000D01*
X117221674Y-99245000D01*
X117094507Y-99279075D01*
X117037500Y-99311988D01*
X117037500Y-98414364D01*
X116824005Y-98471570D01*
X116609932Y-98571394D01*
X116609924Y-98571398D01*
X116416426Y-98706886D01*
X116249386Y-98873926D01*
X116113898Y-99067424D01*
X116113896Y-99067428D01*
X116107224Y-99081737D01*
X116065495Y-99126485D01*
X116005434Y-99138159D01*
X115949981Y-99112300D01*
X115927776Y-99081737D01*
X115921103Y-99067428D01*
X115921101Y-99067424D01*
X115785613Y-98873926D01*
X115618573Y-98706886D01*
X115425077Y-98571399D01*
X115210989Y-98471569D01*
X114997500Y-98414364D01*
X114997500Y-99311988D01*
X114940493Y-99279075D01*
X114813326Y-99245000D01*
X114681674Y-99245000D01*
X114554507Y-99279075D01*
X114497500Y-99311988D01*
X114497500Y-98414364D01*
X114284005Y-98471570D01*
X114069932Y-98571394D01*
X114069924Y-98571398D01*
X113876426Y-98706886D01*
X113709386Y-98873926D01*
X113573898Y-99067424D01*
X113573896Y-99067428D01*
X113567224Y-99081737D01*
X113525495Y-99126485D01*
X113465434Y-99138159D01*
X113409981Y-99112300D01*
X113387776Y-99081737D01*
X113381103Y-99067428D01*
X113381101Y-99067424D01*
X113245613Y-98873926D01*
X113078573Y-98706886D01*
X112885077Y-98571399D01*
X112670989Y-98471569D01*
X112457500Y-98414364D01*
X112457500Y-99311988D01*
X112400493Y-99279075D01*
X112273326Y-99245000D01*
X112141674Y-99245000D01*
X112014507Y-99279075D01*
X111957500Y-99311988D01*
X111957500Y-98414364D01*
X111744005Y-98471570D01*
X111529932Y-98571394D01*
X111529924Y-98571398D01*
X111336426Y-98706886D01*
X111169386Y-98873926D01*
X111033898Y-99067424D01*
X111033896Y-99067428D01*
X111027224Y-99081737D01*
X110985495Y-99126485D01*
X110925434Y-99138159D01*
X110869981Y-99112300D01*
X110847776Y-99081737D01*
X110841103Y-99067428D01*
X110841101Y-99067424D01*
X110705613Y-98873926D01*
X110538573Y-98706886D01*
X110345077Y-98571399D01*
X110130989Y-98471569D01*
X109917500Y-98414364D01*
X109917500Y-99311988D01*
X109860493Y-99279075D01*
X109733326Y-99245000D01*
X109601674Y-99245000D01*
X109474507Y-99279075D01*
X109417500Y-99311988D01*
X109417500Y-98414364D01*
X109204005Y-98471570D01*
X108989932Y-98571394D01*
X108989924Y-98571398D01*
X108796426Y-98706886D01*
X108629386Y-98873926D01*
X108493898Y-99067424D01*
X108493896Y-99067428D01*
X108487224Y-99081737D01*
X108445495Y-99126485D01*
X108385434Y-99138159D01*
X108329981Y-99112300D01*
X108307776Y-99081737D01*
X108301103Y-99067428D01*
X108301101Y-99067424D01*
X108165613Y-98873926D01*
X107998573Y-98706886D01*
X107805077Y-98571399D01*
X107590989Y-98471569D01*
X107377500Y-98414364D01*
X107377500Y-99311988D01*
X107320493Y-99279075D01*
X107193326Y-99245000D01*
X107061674Y-99245000D01*
X106934507Y-99279075D01*
X106877500Y-99311988D01*
X106877500Y-98414364D01*
X106664005Y-98471570D01*
X106449932Y-98571394D01*
X106449924Y-98571398D01*
X106256426Y-98706886D01*
X106089386Y-98873926D01*
X105953898Y-99067424D01*
X105953896Y-99067428D01*
X105947224Y-99081737D01*
X105905495Y-99126485D01*
X105845434Y-99138159D01*
X105789981Y-99112300D01*
X105767776Y-99081737D01*
X105761103Y-99067428D01*
X105761101Y-99067424D01*
X105625613Y-98873926D01*
X105458573Y-98706886D01*
X105265077Y-98571399D01*
X105050989Y-98471569D01*
X104837500Y-98414364D01*
X104837500Y-99311988D01*
X104780493Y-99279075D01*
X104653326Y-99245000D01*
X104521674Y-99245000D01*
X104394507Y-99279075D01*
X104337500Y-99311988D01*
X104337500Y-98414364D01*
X104124005Y-98471570D01*
X103909932Y-98571394D01*
X103909924Y-98571398D01*
X103716425Y-98706887D01*
X103716421Y-98706890D01*
X103561158Y-98862153D01*
X103506642Y-98889930D01*
X103446210Y-98880359D01*
X103402945Y-98837094D01*
X103392722Y-98802731D01*
X103391098Y-98787629D01*
X103391096Y-98787618D01*
X103340853Y-98652911D01*
X103340852Y-98652909D01*
X103254692Y-98537815D01*
X103254684Y-98537807D01*
X103139590Y-98451647D01*
X103139588Y-98451646D01*
X103004881Y-98401403D01*
X103004870Y-98401401D01*
X102945324Y-98395000D01*
X102297501Y-98395000D01*
X102297500Y-98395001D01*
X102297500Y-99311988D01*
X102240493Y-99279075D01*
X102113326Y-99245000D01*
X101981674Y-99245000D01*
X101854507Y-99279075D01*
X101797500Y-99311988D01*
X101797500Y-98395001D01*
X101797499Y-98395000D01*
X101149676Y-98395000D01*
X101090129Y-98401401D01*
X101090118Y-98401403D01*
X100955411Y-98451646D01*
X100955409Y-98451647D01*
X100840315Y-98537807D01*
X100840307Y-98537815D01*
X100754147Y-98652909D01*
X100754146Y-98652911D01*
X100703903Y-98787618D01*
X100703901Y-98787629D01*
X100697500Y-98847175D01*
X100697500Y-99494999D01*
X100697501Y-99495000D01*
X101614488Y-99495000D01*
X101581575Y-99552007D01*
X101547500Y-99679174D01*
X101547500Y-99810826D01*
X101581575Y-99937993D01*
X101614488Y-99995000D01*
X100697501Y-99995000D01*
X100697500Y-99995001D01*
X100697500Y-100642824D01*
X100697499Y-100642824D01*
X98570653Y-100642824D01*
X98640074Y-100515689D01*
X98732577Y-100267678D01*
X98788843Y-100009026D01*
X98807727Y-99745000D01*
X98788843Y-99480974D01*
X98732577Y-99222322D01*
X98640074Y-98974311D01*
X98623399Y-98943774D01*
X98565853Y-98838386D01*
X98513216Y-98741989D01*
X98513215Y-98741988D01*
X98513216Y-98741988D01*
X98354591Y-98530090D01*
X98354589Y-98530088D01*
X98354587Y-98530085D01*
X98167415Y-98342913D01*
X98167411Y-98342910D01*
X98167409Y-98342908D01*
X97955511Y-98184283D01*
X97857728Y-98130890D01*
X97815717Y-98086408D01*
X97807875Y-98025727D01*
X97837198Y-97972026D01*
X97892486Y-97945816D01*
X97905174Y-97945000D01*
X123939826Y-97945000D01*
X123998017Y-97963907D01*
X124033981Y-98013407D01*
X124033981Y-98074593D01*
X123998017Y-98124093D01*
X123987272Y-98130890D01*
X123889488Y-98184283D01*
X123677590Y-98342908D01*
X123490408Y-98530090D01*
X123331783Y-98741988D01*
X123204927Y-98974307D01*
X123204926Y-98974309D01*
X123112424Y-99222317D01*
X123056156Y-99480979D01*
X123037273Y-99745000D01*
X123056156Y-100009020D01*
X123056156Y-100009023D01*
X123056157Y-100009026D01*
X123084486Y-100139252D01*
X123112424Y-100267682D01*
X123204926Y-100515690D01*
X123204927Y-100515692D01*
X123331784Y-100748011D01*
X123331783Y-100748011D01*
X123490408Y-100959909D01*
X123490410Y-100959911D01*
X123490413Y-100959915D01*
X123677585Y-101147087D01*
X123677588Y-101147089D01*
X123677590Y-101147091D01*
X123889488Y-101305716D01*
X124121807Y-101432572D01*
X124121811Y-101432574D01*
X124369817Y-101525075D01*
X124369822Y-101525077D01*
X124628474Y-101581343D01*
X124892500Y-101600227D01*
X125156526Y-101581343D01*
X125415178Y-101525077D01*
X125663189Y-101432574D01*
X125895511Y-101305716D01*
X126107415Y-101147087D01*
X126294587Y-100959915D01*
X126453216Y-100748011D01*
X126580074Y-100515689D01*
X126640742Y-100353030D01*
X126678793Y-100305117D01*
X126737740Y-100288719D01*
X126795067Y-100310101D01*
X126828878Y-100361096D01*
X126832500Y-100387628D01*
X126832500Y-121962371D01*
X126813593Y-122020562D01*
X126764093Y-122056526D01*
X126702907Y-122056526D01*
X126653407Y-122020562D01*
X126640742Y-121996968D01*
X126589812Y-121860420D01*
X126580074Y-121834311D01*
X126453216Y-121601989D01*
X126453215Y-121601988D01*
X126453216Y-121601988D01*
X126294591Y-121390090D01*
X126294589Y-121390088D01*
X126294587Y-121390085D01*
X126107415Y-121202913D01*
X126107411Y-121202910D01*
X126107409Y-121202908D01*
X125895511Y-121044283D01*
X125663192Y-120917427D01*
X125663190Y-120917426D01*
X125415181Y-120824924D01*
X125415183Y-120824924D01*
X125357459Y-120812367D01*
X125156526Y-120768657D01*
X125156523Y-120768656D01*
X125156520Y-120768656D01*
X124892500Y-120749773D01*
X124628479Y-120768656D01*
X124369817Y-120824924D01*
X124121809Y-120917426D01*
X124121807Y-120917427D01*
X123889488Y-121044283D01*
X123677590Y-121202908D01*
X123490408Y-121390090D01*
X123331783Y-121601988D01*
X123204927Y-121834307D01*
X123204926Y-121834309D01*
X123112424Y-122082317D01*
X123056156Y-122340979D01*
X123037273Y-122605000D01*
X123056156Y-122869020D01*
X123056156Y-122869023D01*
X123056157Y-122869026D01*
X123112423Y-123127678D01*
X123112424Y-123127682D01*
X123204926Y-123375690D01*
X123204927Y-123375692D01*
X123331784Y-123608011D01*
X123331783Y-123608011D01*
X123490408Y-123819909D01*
X123490410Y-123819911D01*
X123490413Y-123819915D01*
X123677585Y-124007087D01*
X123677588Y-124007089D01*
X123677590Y-124007091D01*
X123889488Y-124165716D01*
X123987272Y-124219110D01*
X124029283Y-124263592D01*
X124037125Y-124324273D01*
X124007802Y-124377974D01*
X123952514Y-124404184D01*
X123939826Y-124405000D01*
X97905174Y-124405000D01*
X97846983Y-124386093D01*
X97811019Y-124336593D01*
X97811019Y-124275407D01*
X97846983Y-124225907D01*
X97857728Y-124219110D01*
X97955511Y-124165716D01*
X98167415Y-124007087D01*
X98354587Y-123819915D01*
X98513216Y-123608011D01*
X98640074Y-123375689D01*
X98732577Y-123127678D01*
X98788843Y-122869026D01*
X98807727Y-122605000D01*
X98788843Y-122340974D01*
X98732577Y-122082322D01*
X98640074Y-121834311D01*
X98513216Y-121601989D01*
X98513215Y-121601988D01*
X98513216Y-121601988D01*
X98354591Y-121390090D01*
X98354589Y-121390088D01*
X98354587Y-121390085D01*
X98189003Y-121224501D01*
X98161228Y-121169987D01*
X98170799Y-121109555D01*
X98214064Y-121066290D01*
X98259009Y-121055500D01*
X100727833Y-121055500D01*
X100786024Y-121074407D01*
X100797837Y-121084496D01*
X101093956Y-121380615D01*
X101121733Y-121435132D01*
X101112162Y-121495564D01*
X101078954Y-121532934D01*
X101016901Y-121574396D01*
X101016897Y-121574400D01*
X100961535Y-121657257D01*
X100961533Y-121657263D01*
X100947001Y-121730315D01*
X100947000Y-121730327D01*
X100947000Y-123479672D01*
X100947001Y-123479684D01*
X100961533Y-123552736D01*
X100961535Y-123552742D01*
X101016897Y-123635599D01*
X101016899Y-123635601D01*
X101099760Y-123690966D01*
X101147680Y-123700498D01*
X101172815Y-123705498D01*
X101172820Y-123705498D01*
X101172826Y-123705500D01*
X101172827Y-123705500D01*
X102922173Y-123705500D01*
X102922174Y-123705500D01*
X102995240Y-123690966D01*
X103078101Y-123635601D01*
X103133466Y-123552740D01*
X103148000Y-123479674D01*
X103148000Y-121749500D01*
X103166907Y-121691309D01*
X103216407Y-121655345D01*
X103247000Y-121650500D01*
X103745461Y-121650500D01*
X103803652Y-121669407D01*
X103839616Y-121718907D01*
X103839616Y-121780093D01*
X103812158Y-121822659D01*
X103776222Y-121855420D01*
X103770737Y-121860420D01*
X103647828Y-122023177D01*
X103647823Y-122023186D01*
X103556919Y-122205747D01*
X103556918Y-122205750D01*
X103501103Y-122401917D01*
X103482285Y-122605000D01*
X103501103Y-122808083D01*
X103556918Y-123004250D01*
X103647827Y-123186821D01*
X103770736Y-123349579D01*
X103921459Y-123486981D01*
X104094863Y-123594348D01*
X104285044Y-123668024D01*
X104485524Y-123705500D01*
X104689476Y-123705500D01*
X104889956Y-123668024D01*
X105080137Y-123594348D01*
X105253541Y-123486981D01*
X105404264Y-123349579D01*
X105527173Y-123186821D01*
X105618082Y-123004250D01*
X105673897Y-122808083D01*
X105692715Y-122605000D01*
X105673897Y-122401917D01*
X105618082Y-122205750D01*
X105527173Y-122023179D01*
X105404264Y-121860421D01*
X105362841Y-121822659D01*
X105332578Y-121769487D01*
X105339348Y-121708677D01*
X105380568Y-121663460D01*
X105429539Y-121650500D01*
X106285461Y-121650500D01*
X106343652Y-121669407D01*
X106379616Y-121718907D01*
X106379616Y-121780093D01*
X106352158Y-121822659D01*
X106316222Y-121855420D01*
X106310737Y-121860420D01*
X106187828Y-122023177D01*
X106187823Y-122023186D01*
X106096919Y-122205747D01*
X106096918Y-122205750D01*
X106041103Y-122401917D01*
X106022285Y-122605000D01*
X106041103Y-122808083D01*
X106096918Y-123004250D01*
X106187827Y-123186821D01*
X106310736Y-123349579D01*
X106461459Y-123486981D01*
X106634863Y-123594348D01*
X106825044Y-123668024D01*
X107025524Y-123705500D01*
X107229476Y-123705500D01*
X107429956Y-123668024D01*
X107620137Y-123594348D01*
X107793541Y-123486981D01*
X107944264Y-123349579D01*
X108067173Y-123186821D01*
X108158082Y-123004250D01*
X108213897Y-122808083D01*
X108232715Y-122605000D01*
X108213897Y-122401917D01*
X108158082Y-122205750D01*
X108067173Y-122023179D01*
X107944264Y-121860421D01*
X107902841Y-121822659D01*
X107872578Y-121769487D01*
X107879348Y-121708677D01*
X107920568Y-121663460D01*
X107969539Y-121650500D01*
X108825461Y-121650500D01*
X108883652Y-121669407D01*
X108919616Y-121718907D01*
X108919616Y-121780093D01*
X108892158Y-121822659D01*
X108856222Y-121855420D01*
X108850737Y-121860420D01*
X108727828Y-122023177D01*
X108727823Y-122023186D01*
X108636919Y-122205747D01*
X108636918Y-122205750D01*
X108581103Y-122401917D01*
X108562285Y-122605000D01*
X108581103Y-122808083D01*
X108636918Y-123004250D01*
X108727827Y-123186821D01*
X108850736Y-123349579D01*
X109001459Y-123486981D01*
X109174863Y-123594348D01*
X109365044Y-123668024D01*
X109565524Y-123705500D01*
X109769476Y-123705500D01*
X109969956Y-123668024D01*
X110160137Y-123594348D01*
X110333541Y-123486981D01*
X110484264Y-123349579D01*
X110607173Y-123186821D01*
X110698082Y-123004250D01*
X110753897Y-122808083D01*
X110772715Y-122605000D01*
X110753897Y-122401917D01*
X110698082Y-122205750D01*
X110607173Y-122023179D01*
X110484264Y-121860421D01*
X110442841Y-121822659D01*
X110412578Y-121769487D01*
X110419348Y-121708677D01*
X110460568Y-121663460D01*
X110509539Y-121650500D01*
X111365461Y-121650500D01*
X111423652Y-121669407D01*
X111459616Y-121718907D01*
X111459616Y-121780093D01*
X111432158Y-121822659D01*
X111396222Y-121855420D01*
X111390737Y-121860420D01*
X111267828Y-122023177D01*
X111267823Y-122023186D01*
X111176919Y-122205747D01*
X111176918Y-122205750D01*
X111121103Y-122401917D01*
X111102285Y-122605000D01*
X111121103Y-122808083D01*
X111176918Y-123004250D01*
X111267827Y-123186821D01*
X111390736Y-123349579D01*
X111541459Y-123486981D01*
X111714863Y-123594348D01*
X111905044Y-123668024D01*
X112105524Y-123705500D01*
X112309476Y-123705500D01*
X112509956Y-123668024D01*
X112700137Y-123594348D01*
X112873541Y-123486981D01*
X113024264Y-123349579D01*
X113147173Y-123186821D01*
X113238082Y-123004250D01*
X113293897Y-122808083D01*
X113312715Y-122605000D01*
X113293897Y-122401917D01*
X113238082Y-122205750D01*
X113147173Y-122023179D01*
X113024264Y-121860421D01*
X112982841Y-121822659D01*
X112952578Y-121769487D01*
X112959348Y-121708677D01*
X113000568Y-121663460D01*
X113049539Y-121650500D01*
X113905461Y-121650500D01*
X113963652Y-121669407D01*
X113999616Y-121718907D01*
X113999616Y-121780093D01*
X113972158Y-121822659D01*
X113936222Y-121855420D01*
X113930737Y-121860420D01*
X113807828Y-122023177D01*
X113807823Y-122023186D01*
X113716919Y-122205747D01*
X113716918Y-122205750D01*
X113661103Y-122401917D01*
X113642285Y-122605000D01*
X113661103Y-122808083D01*
X113716918Y-123004250D01*
X113807827Y-123186821D01*
X113930736Y-123349579D01*
X114081459Y-123486981D01*
X114254863Y-123594348D01*
X114445044Y-123668024D01*
X114645524Y-123705500D01*
X114849476Y-123705500D01*
X115049956Y-123668024D01*
X115240137Y-123594348D01*
X115413541Y-123486981D01*
X115564264Y-123349579D01*
X115687173Y-123186821D01*
X115778082Y-123004250D01*
X115833897Y-122808083D01*
X115852715Y-122605000D01*
X115833897Y-122401917D01*
X115778082Y-122205750D01*
X115687173Y-122023179D01*
X115564264Y-121860421D01*
X115522841Y-121822659D01*
X115492578Y-121769487D01*
X115499348Y-121708677D01*
X115540568Y-121663460D01*
X115589539Y-121650500D01*
X116445461Y-121650500D01*
X116503652Y-121669407D01*
X116539616Y-121718907D01*
X116539616Y-121780093D01*
X116512158Y-121822659D01*
X116476222Y-121855420D01*
X116470737Y-121860420D01*
X116347828Y-122023177D01*
X116347823Y-122023186D01*
X116256919Y-122205747D01*
X116256918Y-122205750D01*
X116201103Y-122401917D01*
X116182285Y-122605000D01*
X116201103Y-122808083D01*
X116256918Y-123004250D01*
X116347827Y-123186821D01*
X116470736Y-123349579D01*
X116621459Y-123486981D01*
X116794863Y-123594348D01*
X116985044Y-123668024D01*
X117185524Y-123705500D01*
X117389476Y-123705500D01*
X117589956Y-123668024D01*
X117780137Y-123594348D01*
X117953541Y-123486981D01*
X118104264Y-123349579D01*
X118227173Y-123186821D01*
X118318082Y-123004250D01*
X118373897Y-122808083D01*
X118392715Y-122605000D01*
X118373897Y-122401917D01*
X118318082Y-122205750D01*
X118227173Y-122023179D01*
X118104264Y-121860421D01*
X118062841Y-121822659D01*
X118032578Y-121769487D01*
X118039348Y-121708677D01*
X118080568Y-121663460D01*
X118129539Y-121650500D01*
X118985461Y-121650500D01*
X119043652Y-121669407D01*
X119079616Y-121718907D01*
X119079616Y-121780093D01*
X119052158Y-121822659D01*
X119016222Y-121855420D01*
X119010737Y-121860420D01*
X118887828Y-122023177D01*
X118887823Y-122023186D01*
X118796919Y-122205747D01*
X118796918Y-122205750D01*
X118741103Y-122401917D01*
X118722285Y-122605000D01*
X118741103Y-122808083D01*
X118796918Y-123004250D01*
X118887827Y-123186821D01*
X119010736Y-123349579D01*
X119161459Y-123486981D01*
X119334863Y-123594348D01*
X119525044Y-123668024D01*
X119725524Y-123705500D01*
X119929476Y-123705500D01*
X120129956Y-123668024D01*
X120320137Y-123594348D01*
X120493541Y-123486981D01*
X120644264Y-123349579D01*
X120767173Y-123186821D01*
X120858082Y-123004250D01*
X120913897Y-122808083D01*
X120932715Y-122605000D01*
X120913897Y-122401917D01*
X120858082Y-122205750D01*
X120767173Y-122023179D01*
X120644264Y-121860421D01*
X120602841Y-121822659D01*
X120572578Y-121769487D01*
X120579348Y-121708677D01*
X120620568Y-121663460D01*
X120669539Y-121650500D01*
X121454106Y-121650500D01*
X121454107Y-121650500D01*
X121514529Y-121638481D01*
X121574952Y-121626463D01*
X121613123Y-121610652D01*
X121688786Y-121579312D01*
X121744662Y-121541976D01*
X121791233Y-121510858D01*
X121878358Y-121423733D01*
X121878358Y-121423731D01*
X121886504Y-121415586D01*
X121886506Y-121415582D01*
X124657636Y-118644453D01*
X124712151Y-118616678D01*
X124745829Y-118617145D01*
X124790524Y-118625500D01*
X124994476Y-118625500D01*
X125194956Y-118588024D01*
X125385137Y-118514348D01*
X125558541Y-118406981D01*
X125709264Y-118269579D01*
X125832173Y-118106821D01*
X125923082Y-117924250D01*
X125978897Y-117728083D01*
X125997715Y-117525000D01*
X125978897Y-117321917D01*
X125923082Y-117125750D01*
X125832173Y-116943179D01*
X125709264Y-116780421D01*
X125558541Y-116643019D01*
X125385137Y-116535652D01*
X125194956Y-116461976D01*
X125194955Y-116461975D01*
X125194953Y-116461975D01*
X124994476Y-116424500D01*
X124790524Y-116424500D01*
X124590046Y-116461975D01*
X124574809Y-116467878D01*
X124399863Y-116535652D01*
X124226459Y-116643019D01*
X124075736Y-116780421D01*
X124064367Y-116795476D01*
X123952828Y-116943177D01*
X123952823Y-116943186D01*
X123861919Y-117125747D01*
X123861918Y-117125750D01*
X123823065Y-117262303D01*
X123806103Y-117321917D01*
X123787285Y-117525000D01*
X123801706Y-117680637D01*
X123788248Y-117740324D01*
X123773132Y-117759775D01*
X121162406Y-120370504D01*
X121107889Y-120398281D01*
X121092402Y-120399500D01*
X110660273Y-120399500D01*
X110602082Y-120380593D01*
X110566118Y-120331093D01*
X110566118Y-120269907D01*
X110602082Y-120220407D01*
X110614265Y-120212840D01*
X110630100Y-120204529D01*
X110711084Y-120162025D01*
X110829327Y-120057272D01*
X110919064Y-119927265D01*
X110975081Y-119779560D01*
X110992922Y-119632622D01*
X110994122Y-119622743D01*
X110994122Y-119622740D01*
X110975081Y-119465925D01*
X110975081Y-119465924D01*
X110919064Y-119318219D01*
X110829327Y-119188212D01*
X110711084Y-119083459D01*
X110641146Y-119046752D01*
X110571208Y-119010045D01*
X110417831Y-118972242D01*
X110417829Y-118972242D01*
X110259859Y-118972242D01*
X110259856Y-118972242D01*
X110106479Y-119010045D01*
X109966602Y-119083460D01*
X109848359Y-119188213D01*
X109758624Y-119318218D01*
X109702607Y-119465924D01*
X109702606Y-119465925D01*
X109683566Y-119622740D01*
X109683566Y-119622743D01*
X109702606Y-119779558D01*
X109702607Y-119779560D01*
X109744763Y-119890717D01*
X109758624Y-119927265D01*
X109848359Y-120057270D01*
X109848360Y-120057271D01*
X109848361Y-120057272D01*
X109966604Y-120162025D01*
X110047584Y-120204527D01*
X110063423Y-120212840D01*
X110106162Y-120256625D01*
X110115002Y-120317168D01*
X110086567Y-120371345D01*
X110031719Y-120398461D01*
X110017415Y-120399500D01*
X102681767Y-120399500D01*
X102623576Y-120380593D01*
X102587612Y-120331093D01*
X102587612Y-120269907D01*
X102600292Y-120244262D01*
X102616826Y-120220307D01*
X102627720Y-120204525D01*
X102683737Y-120056820D01*
X102700073Y-119922277D01*
X102702778Y-119900003D01*
X102702778Y-119900000D01*
X102688154Y-119779558D01*
X102683737Y-119743184D01*
X102627720Y-119595479D01*
X102569001Y-119510409D01*
X102537984Y-119465473D01*
X102497949Y-119430005D01*
X102419740Y-119360719D01*
X102333431Y-119315420D01*
X102279864Y-119287305D01*
X102126487Y-119249502D01*
X102126485Y-119249502D01*
X101968515Y-119249502D01*
X101968512Y-119249502D01*
X101815135Y-119287305D01*
X101675258Y-119360720D01*
X101557015Y-119465473D01*
X101467280Y-119595478D01*
X101411263Y-119743184D01*
X101411263Y-119743185D01*
X101407491Y-119774250D01*
X101381707Y-119829737D01*
X101328233Y-119859472D01*
X101271330Y-119853781D01*
X101229824Y-119836590D01*
X101229822Y-119836588D01*
X101229822Y-119836589D01*
X101210386Y-119828538D01*
X101210380Y-119828536D01*
X101149960Y-119816518D01*
X101149960Y-119816517D01*
X101089542Y-119804500D01*
X101089538Y-119804500D01*
X101089537Y-119804500D01*
X94762399Y-119804500D01*
X94738707Y-119801623D01*
X94648951Y-119779500D01*
X94648949Y-119779500D01*
X94490979Y-119779500D01*
X94490976Y-119779500D01*
X94337599Y-119817303D01*
X94197722Y-119890718D01*
X94079479Y-119995471D01*
X93989744Y-120125476D01*
X93933727Y-120273182D01*
X93933726Y-120273183D01*
X93914686Y-120429998D01*
X93914686Y-120430001D01*
X93933726Y-120586816D01*
X93933727Y-120586818D01*
X93954584Y-120641813D01*
X93989744Y-120734523D01*
X94079479Y-120864528D01*
X94079480Y-120864529D01*
X94079481Y-120864530D01*
X94197724Y-120969283D01*
X94337599Y-121042696D01*
X94490979Y-121080500D01*
X94490982Y-121080500D01*
X94648946Y-121080500D01*
X94648949Y-121080500D01*
X94738707Y-121058376D01*
X94762399Y-121055500D01*
X95645991Y-121055500D01*
X95704182Y-121074407D01*
X95740146Y-121123907D01*
X95740146Y-121185093D01*
X95715996Y-121224501D01*
X95559883Y-121380615D01*
X95550408Y-121390090D01*
X95391783Y-121601988D01*
X95264927Y-121834307D01*
X95264926Y-121834309D01*
X95172424Y-122082317D01*
X95116156Y-122340979D01*
X95097273Y-122605000D01*
X95116156Y-122869020D01*
X95116156Y-122869023D01*
X95116157Y-122869026D01*
X95172423Y-123127678D01*
X95172424Y-123127682D01*
X95264926Y-123375690D01*
X95264927Y-123375692D01*
X95391784Y-123608011D01*
X95391783Y-123608011D01*
X95550408Y-123819909D01*
X95550410Y-123819911D01*
X95550413Y-123819915D01*
X95737585Y-124007087D01*
X95737588Y-124007089D01*
X95737590Y-124007091D01*
X95949488Y-124165716D01*
X96047272Y-124219110D01*
X96089283Y-124263592D01*
X96097125Y-124324273D01*
X96067802Y-124377974D01*
X96012514Y-124404184D01*
X95999826Y-124405000D01*
X85833700Y-124405000D01*
X85831276Y-124404970D01*
X85828005Y-124404889D01*
X85742773Y-124402801D01*
X85725886Y-124400929D01*
X85551076Y-124366158D01*
X85532503Y-124360524D01*
X85368971Y-124292786D01*
X85351856Y-124283638D01*
X85204681Y-124185299D01*
X85189678Y-124172987D01*
X85064512Y-124047821D01*
X85052200Y-124032818D01*
X84953861Y-123885643D01*
X84944713Y-123868528D01*
X84876973Y-123704989D01*
X84871342Y-123686428D01*
X84836570Y-123511613D01*
X84834698Y-123494724D01*
X84832530Y-123406223D01*
X84832500Y-123403799D01*
X84832500Y-122600000D01*
X85692285Y-122600000D01*
X85711103Y-122803083D01*
X85766918Y-122999250D01*
X85857827Y-123181821D01*
X85980736Y-123344579D01*
X86131459Y-123481981D01*
X86304863Y-123589348D01*
X86495044Y-123663024D01*
X86695524Y-123700500D01*
X86899476Y-123700500D01*
X87099956Y-123663024D01*
X87290137Y-123589348D01*
X87463541Y-123481981D01*
X87471559Y-123474672D01*
X88237000Y-123474672D01*
X88237001Y-123474684D01*
X88251533Y-123547736D01*
X88251535Y-123547742D01*
X88306897Y-123630599D01*
X88306900Y-123630602D01*
X88355424Y-123663024D01*
X88389760Y-123685966D01*
X88445308Y-123697015D01*
X88462815Y-123700498D01*
X88462820Y-123700498D01*
X88462826Y-123700500D01*
X88462827Y-123700500D01*
X90212173Y-123700500D01*
X90212174Y-123700500D01*
X90285240Y-123685966D01*
X90368101Y-123630601D01*
X90423466Y-123547740D01*
X90438000Y-123474674D01*
X90438000Y-121725326D01*
X90423466Y-121652260D01*
X90368101Y-121569399D01*
X90368099Y-121569397D01*
X90285242Y-121514035D01*
X90285240Y-121514034D01*
X90285237Y-121514033D01*
X90285236Y-121514033D01*
X90212184Y-121499501D01*
X90212174Y-121499500D01*
X88462826Y-121499500D01*
X88462825Y-121499500D01*
X88462815Y-121499501D01*
X88389763Y-121514033D01*
X88389757Y-121514035D01*
X88306900Y-121569397D01*
X88306897Y-121569400D01*
X88251535Y-121652257D01*
X88251533Y-121652263D01*
X88237001Y-121725315D01*
X88237000Y-121725327D01*
X88237000Y-123474672D01*
X87471559Y-123474672D01*
X87614264Y-123344579D01*
X87737173Y-123181821D01*
X87828082Y-122999250D01*
X87883897Y-122803083D01*
X87902715Y-122600000D01*
X87883897Y-122396917D01*
X87828082Y-122200750D01*
X87737173Y-122018179D01*
X87614264Y-121855421D01*
X87463541Y-121718019D01*
X87290137Y-121610652D01*
X87099956Y-121536976D01*
X87099955Y-121536975D01*
X87099953Y-121536975D01*
X86899476Y-121499500D01*
X86695524Y-121499500D01*
X86495046Y-121536975D01*
X86482137Y-121541976D01*
X86304863Y-121610652D01*
X86174597Y-121691309D01*
X86131459Y-121718019D01*
X85980737Y-121855420D01*
X85857828Y-122018177D01*
X85857823Y-122018186D01*
X85766919Y-122200747D01*
X85766918Y-122200750D01*
X85711103Y-122396917D01*
X85692285Y-122600000D01*
X84832500Y-122600000D01*
X84832500Y-120060000D01*
X85692285Y-120060000D01*
X85711103Y-120263083D01*
X85766918Y-120459250D01*
X85857827Y-120641821D01*
X85980736Y-120804579D01*
X86131459Y-120941981D01*
X86304863Y-121049348D01*
X86495044Y-121123024D01*
X86695524Y-121160500D01*
X86899476Y-121160500D01*
X87099956Y-121123024D01*
X87290137Y-121049348D01*
X87463541Y-120941981D01*
X87614264Y-120804579D01*
X87737173Y-120641821D01*
X87828082Y-120459250D01*
X87883897Y-120263083D01*
X87902715Y-120060000D01*
X88232285Y-120060000D01*
X88251103Y-120263083D01*
X88306918Y-120459250D01*
X88397827Y-120641821D01*
X88520736Y-120804579D01*
X88671459Y-120941981D01*
X88844863Y-121049348D01*
X89035044Y-121123024D01*
X89235524Y-121160500D01*
X89439476Y-121160500D01*
X89639956Y-121123024D01*
X89830137Y-121049348D01*
X90003541Y-120941981D01*
X90154264Y-120804579D01*
X90277173Y-120641821D01*
X90368082Y-120459250D01*
X90423897Y-120263083D01*
X90442715Y-120060000D01*
X90423897Y-119856917D01*
X90368082Y-119660750D01*
X90277173Y-119478179D01*
X90154264Y-119315421D01*
X90003541Y-119178019D01*
X89830137Y-119070652D01*
X89639956Y-118996976D01*
X89639955Y-118996975D01*
X89639953Y-118996975D01*
X89439476Y-118959500D01*
X89235524Y-118959500D01*
X89035046Y-118996975D01*
X89001306Y-119010046D01*
X88844863Y-119070652D01*
X88756313Y-119125480D01*
X88671459Y-119178019D01*
X88541550Y-119296447D01*
X88520736Y-119315421D01*
X88486529Y-119360719D01*
X88397828Y-119478177D01*
X88397823Y-119478186D01*
X88306919Y-119660747D01*
X88306918Y-119660750D01*
X88251103Y-119856917D01*
X88232285Y-120060000D01*
X87902715Y-120060000D01*
X87883897Y-119856917D01*
X87828082Y-119660750D01*
X87737173Y-119478179D01*
X87614264Y-119315421D01*
X87463541Y-119178019D01*
X87290137Y-119070652D01*
X87099956Y-118996976D01*
X87099955Y-118996975D01*
X87099953Y-118996975D01*
X86899476Y-118959500D01*
X86695524Y-118959500D01*
X86495046Y-118996975D01*
X86461306Y-119010046D01*
X86304863Y-119070652D01*
X86216313Y-119125480D01*
X86131459Y-119178019D01*
X86001550Y-119296447D01*
X85980736Y-119315421D01*
X85946529Y-119360719D01*
X85857828Y-119478177D01*
X85857823Y-119478186D01*
X85766919Y-119660747D01*
X85766918Y-119660750D01*
X85711103Y-119856917D01*
X85692285Y-120060000D01*
X84832500Y-120060000D01*
X84832500Y-116749349D01*
X84851407Y-116691158D01*
X84900907Y-116655194D01*
X84962093Y-116655194D01*
X85011593Y-116691158D01*
X85019161Y-116703342D01*
X85019781Y-116704524D01*
X85109515Y-116834528D01*
X85109516Y-116834529D01*
X85109517Y-116834530D01*
X85227760Y-116939283D01*
X85367635Y-117012696D01*
X85521015Y-117050500D01*
X85521018Y-117050500D01*
X85655809Y-117050500D01*
X85714000Y-117069407D01*
X85749964Y-117118907D01*
X85751029Y-117176590D01*
X85711103Y-117316917D01*
X85692285Y-117520000D01*
X85711103Y-117723083D01*
X85766918Y-117919250D01*
X85857827Y-118101821D01*
X85980736Y-118264579D01*
X86131459Y-118401981D01*
X86304863Y-118509348D01*
X86495044Y-118583024D01*
X86695524Y-118620500D01*
X86899476Y-118620500D01*
X87099956Y-118583024D01*
X87290137Y-118509348D01*
X87463541Y-118401981D01*
X87614264Y-118264579D01*
X87737173Y-118101821D01*
X87828082Y-117919250D01*
X87883897Y-117723083D01*
X87902715Y-117520000D01*
X88232285Y-117520000D01*
X88251103Y-117723083D01*
X88306918Y-117919250D01*
X88397827Y-118101821D01*
X88520736Y-118264579D01*
X88671459Y-118401981D01*
X88844863Y-118509348D01*
X89035044Y-118583024D01*
X89235524Y-118620500D01*
X89439476Y-118620500D01*
X89639956Y-118583024D01*
X89830137Y-118509348D01*
X90003541Y-118401981D01*
X90154264Y-118264579D01*
X90154266Y-118264576D01*
X90157646Y-118261495D01*
X90158955Y-118262931D01*
X90205486Y-118236430D01*
X90266297Y-118243183D01*
X90311526Y-118284390D01*
X90324500Y-118333386D01*
X90324500Y-118906559D01*
X90350090Y-119002062D01*
X90397085Y-119083459D01*
X90399526Y-119087687D01*
X90822248Y-119510409D01*
X91234116Y-119922277D01*
X91261893Y-119976794D01*
X91262390Y-120004213D01*
X91254749Y-120067148D01*
X91254749Y-120067152D01*
X91273789Y-120223967D01*
X91273790Y-120223969D01*
X91292477Y-120273242D01*
X91329807Y-120371674D01*
X91419542Y-120501679D01*
X91419543Y-120501680D01*
X91419544Y-120501681D01*
X91537787Y-120606434D01*
X91677662Y-120679847D01*
X91831042Y-120717651D01*
X91831045Y-120717651D01*
X91989009Y-120717651D01*
X91989012Y-120717651D01*
X92142392Y-120679847D01*
X92282267Y-120606434D01*
X92400510Y-120501681D01*
X92490247Y-120371674D01*
X92546264Y-120223969D01*
X92565305Y-120067151D01*
X92564105Y-120057272D01*
X92546264Y-119910334D01*
X92546264Y-119910333D01*
X92490247Y-119762628D01*
X92400510Y-119632621D01*
X92282267Y-119527868D01*
X92187590Y-119478177D01*
X92142391Y-119454454D01*
X91989014Y-119416651D01*
X91989012Y-119416651D01*
X91831572Y-119416651D01*
X91773381Y-119397744D01*
X91761568Y-119387655D01*
X91104496Y-118730583D01*
X91076719Y-118676066D01*
X91075500Y-118660579D01*
X91075500Y-117875001D01*
X100063422Y-117875001D01*
X100082462Y-118031816D01*
X100082463Y-118031818D01*
X100109009Y-118101813D01*
X100138480Y-118179523D01*
X100228215Y-118309528D01*
X100228216Y-118309529D01*
X100228217Y-118309530D01*
X100346460Y-118414283D01*
X100486335Y-118487696D01*
X100639715Y-118525500D01*
X100639718Y-118525500D01*
X100797682Y-118525500D01*
X100797685Y-118525500D01*
X100951065Y-118487696D01*
X101090940Y-118414283D01*
X101209183Y-118309530D01*
X101298920Y-118179523D01*
X101354937Y-118031818D01*
X101373978Y-117875000D01*
X101373539Y-117871388D01*
X101358704Y-117749207D01*
X101354937Y-117718182D01*
X101298920Y-117570477D01*
X101209183Y-117440470D01*
X101090940Y-117335717D01*
X101021002Y-117299010D01*
X100951064Y-117262303D01*
X100797687Y-117224500D01*
X100797685Y-117224500D01*
X100639715Y-117224500D01*
X100639712Y-117224500D01*
X100486335Y-117262303D01*
X100346458Y-117335718D01*
X100228215Y-117440471D01*
X100138480Y-117570476D01*
X100082463Y-117718182D01*
X100082462Y-117718183D01*
X100063422Y-117874998D01*
X100063422Y-117875001D01*
X91075500Y-117875001D01*
X91075500Y-114900001D01*
X92144726Y-114900001D01*
X92163766Y-115056816D01*
X92163767Y-115056818D01*
X92211653Y-115183082D01*
X92219784Y-115204523D01*
X92309519Y-115334528D01*
X92309520Y-115334529D01*
X92309521Y-115334530D01*
X92427764Y-115439283D01*
X92567639Y-115512696D01*
X92721019Y-115550500D01*
X92721022Y-115550500D01*
X92878986Y-115550500D01*
X92878989Y-115550500D01*
X92968747Y-115528376D01*
X92992439Y-115525500D01*
X103099902Y-115525500D01*
X103158093Y-115544407D01*
X103169906Y-115554496D01*
X103245504Y-115630094D01*
X103273281Y-115684611D01*
X103274500Y-115700098D01*
X103274500Y-117128562D01*
X103298537Y-117249403D01*
X103298537Y-117249405D01*
X103345686Y-117363236D01*
X103345686Y-117363237D01*
X103373257Y-117404499D01*
X103373274Y-117404523D01*
X103414142Y-117465686D01*
X103414145Y-117465689D01*
X103414149Y-117465694D01*
X103501269Y-117552813D01*
X103501270Y-117552813D01*
X104558957Y-118610500D01*
X104586734Y-118665017D01*
X104577163Y-118725449D01*
X104533898Y-118768714D01*
X104488953Y-118779504D01*
X104351016Y-118779504D01*
X104197639Y-118817307D01*
X104057762Y-118890722D01*
X103939519Y-118995475D01*
X103849784Y-119125480D01*
X103793767Y-119273186D01*
X103793766Y-119273187D01*
X103774726Y-119430002D01*
X103774726Y-119430005D01*
X103793766Y-119586820D01*
X103793767Y-119586822D01*
X103807389Y-119622740D01*
X103849784Y-119734527D01*
X103939519Y-119864532D01*
X103939520Y-119864533D01*
X103939521Y-119864534D01*
X104057764Y-119969287D01*
X104197639Y-120042700D01*
X104351019Y-120080504D01*
X104351022Y-120080504D01*
X104508986Y-120080504D01*
X104508989Y-120080504D01*
X104662369Y-120042700D01*
X104802244Y-119969287D01*
X104920487Y-119864534D01*
X105010224Y-119734527D01*
X105066241Y-119586822D01*
X105085282Y-119430004D01*
X105084763Y-119425733D01*
X105096516Y-119365690D01*
X105141319Y-119324020D01*
X105202058Y-119316643D01*
X105248689Y-119339695D01*
X105358521Y-119436997D01*
X105498396Y-119510410D01*
X105651776Y-119548214D01*
X105651779Y-119548214D01*
X105809743Y-119548214D01*
X105809746Y-119548214D01*
X105899504Y-119526090D01*
X105923196Y-119523214D01*
X106313461Y-119523214D01*
X106313462Y-119523214D01*
X106377833Y-119510410D01*
X106434307Y-119499177D01*
X106467643Y-119485367D01*
X106467646Y-119485367D01*
X106467646Y-119485366D01*
X106467647Y-119485366D01*
X106548141Y-119452026D01*
X106601082Y-119416651D01*
X106650588Y-119383572D01*
X106737713Y-119296447D01*
X106737713Y-119296445D01*
X106743350Y-119290809D01*
X106743353Y-119290804D01*
X107779663Y-118254496D01*
X107834180Y-118226719D01*
X107849667Y-118225500D01*
X118861606Y-118225500D01*
X118861607Y-118225500D01*
X118922029Y-118213481D01*
X118982452Y-118201463D01*
X119021994Y-118185084D01*
X119096286Y-118154312D01*
X119147509Y-118120084D01*
X119198733Y-118085858D01*
X119285858Y-117998733D01*
X119285859Y-117998730D01*
X121645095Y-115639496D01*
X121699612Y-115611719D01*
X121715099Y-115610500D01*
X123936516Y-115610500D01*
X123994707Y-115629407D01*
X124015517Y-115649836D01*
X124075736Y-115729579D01*
X124226459Y-115866981D01*
X124399863Y-115974348D01*
X124590044Y-116048024D01*
X124790524Y-116085500D01*
X124994476Y-116085500D01*
X125194956Y-116048024D01*
X125385137Y-115974348D01*
X125558541Y-115866981D01*
X125709264Y-115729579D01*
X125832173Y-115566821D01*
X125923082Y-115384250D01*
X125978897Y-115188083D01*
X125997715Y-114985000D01*
X125978897Y-114781917D01*
X125923082Y-114585750D01*
X125832173Y-114403179D01*
X125709264Y-114240421D01*
X125558541Y-114103019D01*
X125385137Y-113995652D01*
X125194956Y-113921976D01*
X125194955Y-113921975D01*
X125194953Y-113921975D01*
X124994476Y-113884500D01*
X124790524Y-113884500D01*
X124590046Y-113921975D01*
X124520132Y-113949059D01*
X124399863Y-113995652D01*
X124226459Y-114103019D01*
X124075736Y-114240421D01*
X124015518Y-114320161D01*
X123965363Y-114355204D01*
X123936516Y-114359500D01*
X121353390Y-114359500D01*
X121232549Y-114383536D01*
X121118713Y-114430689D01*
X121118710Y-114430690D01*
X121035942Y-114485995D01*
X121035942Y-114485996D01*
X121016269Y-114499140D01*
X121016266Y-114499142D01*
X121016266Y-114499143D01*
X119785831Y-115729579D01*
X118569906Y-116945504D01*
X118515389Y-116973281D01*
X118499902Y-116974500D01*
X107487960Y-116974500D01*
X107367115Y-116998537D01*
X107367111Y-116998539D01*
X107366411Y-116998829D01*
X107366065Y-116998856D01*
X107362459Y-116999950D01*
X107362218Y-116999158D01*
X107305414Y-117003625D01*
X107253247Y-116971652D01*
X107235967Y-116942470D01*
X107180220Y-116795477D01*
X107168505Y-116778505D01*
X107090484Y-116665471D01*
X106972241Y-116560718D01*
X106972240Y-116560717D01*
X106902302Y-116524010D01*
X106832364Y-116487303D01*
X106678987Y-116449500D01*
X106678985Y-116449500D01*
X106521015Y-116449500D01*
X106521012Y-116449500D01*
X106367635Y-116487303D01*
X106227758Y-116560718D01*
X106109515Y-116665471D01*
X106019780Y-116795476D01*
X105963763Y-116943182D01*
X105963762Y-116943183D01*
X105944722Y-117099998D01*
X105944722Y-117100001D01*
X105963762Y-117256816D01*
X105963763Y-117256818D01*
X105993686Y-117335718D01*
X106019780Y-117404523D01*
X106109515Y-117534528D01*
X106109516Y-117534529D01*
X106109517Y-117534530D01*
X106227760Y-117639283D01*
X106367635Y-117712696D01*
X106369594Y-117713724D01*
X106412333Y-117757509D01*
X106421173Y-117818052D01*
X106393589Y-117871388D01*
X106061310Y-118203666D01*
X106006794Y-118231443D01*
X105946362Y-118221872D01*
X105921303Y-118203666D01*
X104554496Y-116836859D01*
X104526719Y-116782342D01*
X104525500Y-116766855D01*
X104525500Y-115338400D01*
X104525500Y-115338394D01*
X104524925Y-115335507D01*
X104524927Y-115335494D01*
X104524923Y-115335495D01*
X104501463Y-115217549D01*
X104454312Y-115103715D01*
X104416153Y-115046607D01*
X104385858Y-115001267D01*
X104298733Y-114914142D01*
X104298729Y-114914139D01*
X103885860Y-114501270D01*
X103885860Y-114501269D01*
X103798735Y-114414143D01*
X103747509Y-114379915D01*
X103696286Y-114345688D01*
X103615792Y-114312347D01*
X103599122Y-114305442D01*
X103582455Y-114298538D01*
X103582449Y-114298536D01*
X103522029Y-114286518D01*
X103522029Y-114286517D01*
X103461611Y-114274500D01*
X103461607Y-114274500D01*
X103461606Y-114274500D01*
X93524504Y-114274500D01*
X93466313Y-114255593D01*
X93430349Y-114206093D01*
X93425504Y-114175500D01*
X93425504Y-112100094D01*
X93444411Y-112041903D01*
X93454500Y-112030090D01*
X94484588Y-111000002D01*
X107209429Y-111000002D01*
X107229910Y-111142456D01*
X107275354Y-111241962D01*
X107289699Y-111273373D01*
X107383803Y-111381976D01*
X107383949Y-111382144D01*
X107436394Y-111415848D01*
X107505023Y-111459953D01*
X107611479Y-111491211D01*
X107643111Y-111500499D01*
X107643112Y-111500499D01*
X107643115Y-111500500D01*
X107643117Y-111500500D01*
X107787035Y-111500500D01*
X107787037Y-111500500D01*
X107847873Y-111482637D01*
X107909031Y-111484384D01*
X107957484Y-111521747D01*
X107974723Y-111580454D01*
X107972754Y-111592906D01*
X107973380Y-111592996D01*
X107951891Y-111742459D01*
X107951891Y-111742464D01*
X107972372Y-111884918D01*
X108017816Y-111984424D01*
X108032161Y-112015835D01*
X108107500Y-112102781D01*
X108126411Y-112124606D01*
X108247480Y-112202412D01*
X108247485Y-112202415D01*
X108353941Y-112233673D01*
X108385573Y-112242961D01*
X108385574Y-112242961D01*
X108385577Y-112242962D01*
X108385579Y-112242962D01*
X108529497Y-112242962D01*
X108529499Y-112242962D01*
X108590335Y-112225099D01*
X108651493Y-112226846D01*
X108699946Y-112264209D01*
X108717185Y-112322916D01*
X108715216Y-112335368D01*
X108715842Y-112335458D01*
X108694353Y-112484921D01*
X108694353Y-112484926D01*
X108714834Y-112627380D01*
X108724289Y-112648083D01*
X108774623Y-112758297D01*
X108849101Y-112844250D01*
X108868873Y-112867068D01*
X108961778Y-112926774D01*
X108989947Y-112944877D01*
X109096403Y-112976135D01*
X109128035Y-112985423D01*
X109128036Y-112985423D01*
X109128039Y-112985424D01*
X109128041Y-112985424D01*
X109271959Y-112985424D01*
X109271961Y-112985424D01*
X109410053Y-112944877D01*
X109531128Y-112867067D01*
X109625377Y-112758297D01*
X109685165Y-112627381D01*
X109705647Y-112484924D01*
X109699907Y-112445000D01*
X123787285Y-112445000D01*
X123806103Y-112648083D01*
X123861918Y-112844250D01*
X123952827Y-113026821D01*
X124075736Y-113189579D01*
X124226459Y-113326981D01*
X124399863Y-113434348D01*
X124590044Y-113508024D01*
X124790524Y-113545500D01*
X124994476Y-113545500D01*
X125194956Y-113508024D01*
X125385137Y-113434348D01*
X125558541Y-113326981D01*
X125709264Y-113189579D01*
X125832173Y-113026821D01*
X125923082Y-112844250D01*
X125978897Y-112648083D01*
X125997715Y-112445000D01*
X125978897Y-112241917D01*
X125923082Y-112045750D01*
X125832173Y-111863179D01*
X125709264Y-111700421D01*
X125558541Y-111563019D01*
X125385137Y-111455652D01*
X125194956Y-111381976D01*
X125194955Y-111381975D01*
X125194953Y-111381975D01*
X124994476Y-111344500D01*
X124790524Y-111344500D01*
X124590046Y-111381975D01*
X124520132Y-111409059D01*
X124399863Y-111455652D01*
X124293116Y-111521747D01*
X124226459Y-111563019D01*
X124075737Y-111700420D01*
X123952828Y-111863177D01*
X123952823Y-111863186D01*
X123861919Y-112045747D01*
X123861918Y-112045750D01*
X123806103Y-112241917D01*
X123787285Y-112445000D01*
X109699907Y-112445000D01*
X109699188Y-112440000D01*
X109684158Y-112335458D01*
X109687156Y-112335026D01*
X109688528Y-112286831D01*
X109725885Y-112238374D01*
X109784590Y-112221129D01*
X109809662Y-112225098D01*
X109870501Y-112242962D01*
X109870503Y-112242962D01*
X110014421Y-112242962D01*
X110014423Y-112242962D01*
X110152515Y-112202415D01*
X110273590Y-112124605D01*
X110367839Y-112015835D01*
X110427627Y-111884919D01*
X110448109Y-111742462D01*
X110447524Y-111738390D01*
X110426620Y-111592996D01*
X110429618Y-111592564D01*
X110430990Y-111544369D01*
X110468347Y-111495912D01*
X110527052Y-111478667D01*
X110552124Y-111482636D01*
X110612963Y-111500500D01*
X110612965Y-111500500D01*
X110756883Y-111500500D01*
X110756885Y-111500500D01*
X110894977Y-111459953D01*
X111016052Y-111382143D01*
X111110301Y-111273373D01*
X111170089Y-111142457D01*
X111190571Y-111000000D01*
X111170089Y-110857543D01*
X111110301Y-110726627D01*
X111016052Y-110617857D01*
X111016051Y-110617856D01*
X111016050Y-110617855D01*
X110894981Y-110540049D01*
X110894978Y-110540047D01*
X110894977Y-110540047D01*
X110894974Y-110540046D01*
X110756888Y-110499500D01*
X110756885Y-110499500D01*
X110612963Y-110499500D01*
X110612961Y-110499500D01*
X110612957Y-110499501D01*
X110552126Y-110517362D01*
X110490966Y-110515614D01*
X110442514Y-110478251D01*
X110425276Y-110419544D01*
X110427250Y-110407094D01*
X110426620Y-110407004D01*
X110448109Y-110257540D01*
X110448109Y-110257535D01*
X110427627Y-110115081D01*
X110418698Y-110095530D01*
X110367839Y-109984165D01*
X110273590Y-109875395D01*
X110273589Y-109875394D01*
X110273588Y-109875393D01*
X110152519Y-109797587D01*
X110152516Y-109797585D01*
X110152515Y-109797585D01*
X110152512Y-109797584D01*
X110014426Y-109757038D01*
X110014423Y-109757038D01*
X109870501Y-109757038D01*
X109870499Y-109757038D01*
X109870495Y-109757039D01*
X109809664Y-109774900D01*
X109748504Y-109773152D01*
X109700052Y-109735789D01*
X109682814Y-109677082D01*
X109684788Y-109664632D01*
X109684158Y-109664542D01*
X109705647Y-109515078D01*
X109705647Y-109515073D01*
X109685165Y-109372619D01*
X109625377Y-109241704D01*
X109625377Y-109241703D01*
X109531128Y-109132933D01*
X109531127Y-109132932D01*
X109531126Y-109132931D01*
X109410057Y-109055125D01*
X109410054Y-109055123D01*
X109410053Y-109055123D01*
X109410050Y-109055122D01*
X109271964Y-109014576D01*
X109271961Y-109014576D01*
X109128039Y-109014576D01*
X109128035Y-109014576D01*
X108989949Y-109055122D01*
X108989942Y-109055125D01*
X108868873Y-109132931D01*
X108774622Y-109241704D01*
X108714834Y-109372619D01*
X108694353Y-109515073D01*
X108694353Y-109515078D01*
X108715842Y-109664542D01*
X108712851Y-109664971D01*
X108711454Y-109713216D01*
X108674073Y-109761654D01*
X108615359Y-109778869D01*
X108590334Y-109774900D01*
X108529502Y-109757038D01*
X108529499Y-109757038D01*
X108385577Y-109757038D01*
X108385573Y-109757038D01*
X108247487Y-109797584D01*
X108247480Y-109797587D01*
X108126411Y-109875393D01*
X108032160Y-109984166D01*
X107972372Y-110115081D01*
X107951891Y-110257535D01*
X107951891Y-110257540D01*
X107973380Y-110407004D01*
X107970389Y-110407433D01*
X107968992Y-110455678D01*
X107931611Y-110504116D01*
X107872897Y-110521331D01*
X107847872Y-110517362D01*
X107787040Y-110499500D01*
X107787037Y-110499500D01*
X107643115Y-110499500D01*
X107643111Y-110499500D01*
X107505025Y-110540046D01*
X107505018Y-110540049D01*
X107383949Y-110617855D01*
X107289698Y-110726628D01*
X107229910Y-110857543D01*
X107209429Y-110999997D01*
X107209429Y-111000002D01*
X94484588Y-111000002D01*
X95956108Y-109528482D01*
X96010625Y-109500705D01*
X96026112Y-109499486D01*
X100482565Y-109499486D01*
X100506256Y-109502362D01*
X100596015Y-109524486D01*
X100596018Y-109524486D01*
X100753982Y-109524486D01*
X100753985Y-109524486D01*
X100907365Y-109486682D01*
X101047240Y-109413269D01*
X101165483Y-109308516D01*
X101255220Y-109178509D01*
X101311237Y-109030804D01*
X101330278Y-108873986D01*
X101311237Y-108717168D01*
X101255220Y-108569463D01*
X101182929Y-108464731D01*
X101165484Y-108439457D01*
X101111144Y-108391316D01*
X101047240Y-108334703D01*
X100955080Y-108286333D01*
X100907364Y-108261289D01*
X100753987Y-108223486D01*
X100753985Y-108223486D01*
X100596015Y-108223486D01*
X100596012Y-108223486D01*
X100506257Y-108245609D01*
X100482565Y-108248486D01*
X95664402Y-108248486D01*
X95603984Y-108260503D01*
X95603985Y-108260504D01*
X95543562Y-108272523D01*
X95543560Y-108272523D01*
X95510221Y-108286333D01*
X95429730Y-108319672D01*
X95429729Y-108319672D01*
X95385318Y-108349348D01*
X95327281Y-108388127D01*
X92401271Y-111314138D01*
X92401270Y-111314137D01*
X92314150Y-111401258D01*
X92314145Y-111401264D01*
X92304402Y-111415847D01*
X92304401Y-111415848D01*
X92245693Y-111503707D01*
X92245690Y-111503714D01*
X92235941Y-111527249D01*
X92235942Y-111527250D01*
X92202837Y-111607174D01*
X92198541Y-111617545D01*
X92184229Y-111689500D01*
X92183051Y-111695421D01*
X92174504Y-111738389D01*
X92174504Y-114696728D01*
X92168072Y-114731831D01*
X92163766Y-114743183D01*
X92144726Y-114899998D01*
X92144726Y-114900001D01*
X91075500Y-114900001D01*
X91075500Y-109004014D01*
X91352718Y-109004014D01*
X91371758Y-109160829D01*
X91371759Y-109160831D01*
X91379320Y-109180768D01*
X91427776Y-109308536D01*
X91517511Y-109438541D01*
X91517512Y-109438542D01*
X91517513Y-109438543D01*
X91635756Y-109543296D01*
X91775631Y-109616709D01*
X91929011Y-109654513D01*
X91929014Y-109654513D01*
X92086978Y-109654513D01*
X92086981Y-109654513D01*
X92240361Y-109616709D01*
X92380236Y-109543296D01*
X92498479Y-109438543D01*
X92588216Y-109308536D01*
X92644233Y-109160831D01*
X92661573Y-109018019D01*
X92663274Y-109004014D01*
X92663274Y-109004011D01*
X92644233Y-108847196D01*
X92644233Y-108847195D01*
X92588216Y-108699490D01*
X92498479Y-108569483D01*
X92380236Y-108464730D01*
X92300773Y-108423024D01*
X92240360Y-108391316D01*
X92086983Y-108353513D01*
X92086981Y-108353513D01*
X91929011Y-108353513D01*
X91929008Y-108353513D01*
X91775631Y-108391316D01*
X91635754Y-108464731D01*
X91517511Y-108569484D01*
X91427776Y-108699489D01*
X91371759Y-108847195D01*
X91371758Y-108847196D01*
X91352718Y-109004011D01*
X91352718Y-109004014D01*
X91075500Y-109004014D01*
X91075500Y-107774672D01*
X95499500Y-107774672D01*
X95499501Y-107774684D01*
X95514033Y-107847736D01*
X95514035Y-107847742D01*
X95569397Y-107930599D01*
X95569400Y-107930602D01*
X95626066Y-107968464D01*
X95652260Y-107985966D01*
X95707808Y-107997015D01*
X95725315Y-108000498D01*
X95725320Y-108000498D01*
X95725326Y-108000500D01*
X95725327Y-108000500D01*
X96274673Y-108000500D01*
X96274674Y-108000500D01*
X96347740Y-107985966D01*
X96430601Y-107930601D01*
X96485966Y-107847740D01*
X96500500Y-107774674D01*
X96500500Y-107699672D01*
X99799500Y-107699672D01*
X99799501Y-107699684D01*
X99814033Y-107772736D01*
X99814035Y-107772742D01*
X99869397Y-107855599D01*
X99869400Y-107855602D01*
X99952257Y-107910964D01*
X99952260Y-107910966D01*
X100007808Y-107922015D01*
X100025315Y-107925498D01*
X100025320Y-107925498D01*
X100025326Y-107925500D01*
X100025327Y-107925500D01*
X100574673Y-107925500D01*
X100574674Y-107925500D01*
X100647740Y-107910966D01*
X100730601Y-107855601D01*
X100784675Y-107774672D01*
X103699500Y-107774672D01*
X103699501Y-107774684D01*
X103714033Y-107847736D01*
X103714035Y-107847742D01*
X103769397Y-107930599D01*
X103769400Y-107930602D01*
X103826066Y-107968464D01*
X103852260Y-107985966D01*
X103907808Y-107997015D01*
X103925315Y-108000498D01*
X103925320Y-108000498D01*
X103925326Y-108000500D01*
X103925327Y-108000500D01*
X104474673Y-108000500D01*
X104474674Y-108000500D01*
X104547740Y-107985966D01*
X104630601Y-107930601D01*
X104685966Y-107847740D01*
X104700500Y-107774674D01*
X104700500Y-107699672D01*
X113699500Y-107699672D01*
X113699501Y-107699684D01*
X113714033Y-107772736D01*
X113714035Y-107772742D01*
X113769397Y-107855599D01*
X113769400Y-107855602D01*
X113852257Y-107910964D01*
X113852260Y-107910966D01*
X113907808Y-107922015D01*
X113925315Y-107925498D01*
X113925320Y-107925498D01*
X113925326Y-107925500D01*
X113925327Y-107925500D01*
X114474673Y-107925500D01*
X114474674Y-107925500D01*
X114547740Y-107910966D01*
X114630601Y-107855601D01*
X114685966Y-107772740D01*
X114700500Y-107699674D01*
X114700500Y-107637172D01*
X117299500Y-107637172D01*
X117299501Y-107637184D01*
X117314033Y-107710236D01*
X117314035Y-107710242D01*
X117369397Y-107793099D01*
X117369399Y-107793101D01*
X117452260Y-107848466D01*
X117507808Y-107859515D01*
X117525315Y-107862998D01*
X117525320Y-107862998D01*
X117525326Y-107863000D01*
X117525327Y-107863000D01*
X118074673Y-107863000D01*
X118074674Y-107863000D01*
X118147740Y-107848466D01*
X118230601Y-107793101D01*
X118285966Y-107710240D01*
X118286079Y-107709672D01*
X120899500Y-107709672D01*
X120899501Y-107709684D01*
X120914033Y-107782736D01*
X120914035Y-107782742D01*
X120969397Y-107865599D01*
X120969399Y-107865601D01*
X121052260Y-107920966D01*
X121100698Y-107930601D01*
X121125315Y-107935498D01*
X121125320Y-107935498D01*
X121125326Y-107935500D01*
X121125327Y-107935500D01*
X121674673Y-107935500D01*
X121674674Y-107935500D01*
X121747740Y-107920966D01*
X121830601Y-107865601D01*
X121885966Y-107782740D01*
X121891052Y-107757172D01*
X124499500Y-107757172D01*
X124499501Y-107757184D01*
X124514033Y-107830236D01*
X124514035Y-107830242D01*
X124569397Y-107913099D01*
X124569400Y-107913102D01*
X124602919Y-107935498D01*
X124652260Y-107968466D01*
X124707808Y-107979515D01*
X124725315Y-107982998D01*
X124725320Y-107982998D01*
X124725326Y-107983000D01*
X124725327Y-107983000D01*
X125274673Y-107983000D01*
X125274674Y-107983000D01*
X125347740Y-107968466D01*
X125430601Y-107913101D01*
X125485966Y-107830240D01*
X125500500Y-107757174D01*
X125500500Y-107207826D01*
X125485966Y-107134760D01*
X125454226Y-107087257D01*
X125430602Y-107051900D01*
X125430599Y-107051897D01*
X125347742Y-106996535D01*
X125347740Y-106996534D01*
X125347737Y-106996533D01*
X125347736Y-106996533D01*
X125274684Y-106982001D01*
X125274674Y-106982000D01*
X124725326Y-106982000D01*
X124725325Y-106982000D01*
X124725315Y-106982001D01*
X124652263Y-106996533D01*
X124652257Y-106996535D01*
X124569400Y-107051897D01*
X124569397Y-107051900D01*
X124514035Y-107134757D01*
X124514033Y-107134763D01*
X124499501Y-107207815D01*
X124499500Y-107207827D01*
X124499500Y-107757172D01*
X121891052Y-107757172D01*
X121900500Y-107709674D01*
X121900500Y-107160326D01*
X121885966Y-107087260D01*
X121837522Y-107014757D01*
X121830602Y-107004400D01*
X121830599Y-107004397D01*
X121747742Y-106949035D01*
X121747740Y-106949034D01*
X121747737Y-106949033D01*
X121747736Y-106949033D01*
X121674684Y-106934501D01*
X121674674Y-106934500D01*
X121125326Y-106934500D01*
X121125325Y-106934500D01*
X121125315Y-106934501D01*
X121052263Y-106949033D01*
X121052257Y-106949035D01*
X120969400Y-107004397D01*
X120969397Y-107004400D01*
X120914035Y-107087257D01*
X120914033Y-107087263D01*
X120899501Y-107160315D01*
X120899500Y-107160327D01*
X120899500Y-107709672D01*
X118286079Y-107709672D01*
X118300500Y-107637174D01*
X118300500Y-107087826D01*
X118300387Y-107087260D01*
X118293354Y-107051900D01*
X118285966Y-107014760D01*
X118276437Y-107000498D01*
X118230602Y-106931900D01*
X118230599Y-106931897D01*
X118147742Y-106876535D01*
X118147740Y-106876534D01*
X118147737Y-106876533D01*
X118147736Y-106876533D01*
X118074684Y-106862001D01*
X118074674Y-106862000D01*
X117525326Y-106862000D01*
X117525325Y-106862000D01*
X117525315Y-106862001D01*
X117452263Y-106876533D01*
X117452257Y-106876535D01*
X117369400Y-106931897D01*
X117369397Y-106931900D01*
X117314035Y-107014757D01*
X117314033Y-107014763D01*
X117299501Y-107087815D01*
X117299500Y-107087827D01*
X117299500Y-107637172D01*
X114700500Y-107637172D01*
X114700500Y-107150326D01*
X114685966Y-107077260D01*
X114643721Y-107014035D01*
X114630602Y-106994400D01*
X114630599Y-106994397D01*
X114547742Y-106939035D01*
X114547740Y-106939034D01*
X114547737Y-106939033D01*
X114547736Y-106939033D01*
X114474684Y-106924501D01*
X114474674Y-106924500D01*
X113925326Y-106924500D01*
X113925325Y-106924500D01*
X113925315Y-106924501D01*
X113852263Y-106939033D01*
X113852257Y-106939035D01*
X113769400Y-106994397D01*
X113769397Y-106994400D01*
X113714035Y-107077257D01*
X113714033Y-107077263D01*
X113699501Y-107150315D01*
X113699500Y-107150327D01*
X113699500Y-107699672D01*
X104700500Y-107699672D01*
X104700500Y-107225326D01*
X104685966Y-107152260D01*
X104642914Y-107087827D01*
X104630602Y-107069400D01*
X104630599Y-107069397D01*
X104547742Y-107014035D01*
X104547740Y-107014034D01*
X104547737Y-107014033D01*
X104547736Y-107014033D01*
X104474684Y-106999501D01*
X104474674Y-106999500D01*
X103925326Y-106999500D01*
X103925325Y-106999500D01*
X103925315Y-106999501D01*
X103852263Y-107014033D01*
X103852257Y-107014035D01*
X103769400Y-107069397D01*
X103769397Y-107069400D01*
X103714035Y-107152257D01*
X103714033Y-107152263D01*
X103699501Y-107225315D01*
X103699500Y-107225327D01*
X103699500Y-107774672D01*
X100784675Y-107774672D01*
X100785966Y-107772740D01*
X100800500Y-107699674D01*
X100800500Y-107150326D01*
X100785966Y-107077260D01*
X100743721Y-107014035D01*
X100730602Y-106994400D01*
X100730599Y-106994397D01*
X100647742Y-106939035D01*
X100647740Y-106939034D01*
X100647737Y-106939033D01*
X100647736Y-106939033D01*
X100574684Y-106924501D01*
X100574674Y-106924500D01*
X100025326Y-106924500D01*
X100025325Y-106924500D01*
X100025315Y-106924501D01*
X99952263Y-106939033D01*
X99952257Y-106939035D01*
X99869400Y-106994397D01*
X99869397Y-106994400D01*
X99814035Y-107077257D01*
X99814033Y-107077263D01*
X99799501Y-107150315D01*
X99799500Y-107150327D01*
X99799500Y-107699672D01*
X96500500Y-107699672D01*
X96500500Y-107225326D01*
X96485966Y-107152260D01*
X96442914Y-107087827D01*
X96430602Y-107069400D01*
X96430599Y-107069397D01*
X96347742Y-107014035D01*
X96347740Y-107014034D01*
X96347737Y-107014033D01*
X96347736Y-107014033D01*
X96274684Y-106999501D01*
X96274674Y-106999500D01*
X95725326Y-106999500D01*
X95725325Y-106999500D01*
X95725315Y-106999501D01*
X95652263Y-107014033D01*
X95652257Y-107014035D01*
X95569400Y-107069397D01*
X95569397Y-107069400D01*
X95514035Y-107152257D01*
X95514033Y-107152263D01*
X95499501Y-107225315D01*
X95499500Y-107225327D01*
X95499500Y-107774672D01*
X91075500Y-107774672D01*
X91075500Y-106966770D01*
X91094407Y-106908579D01*
X91143907Y-106872615D01*
X91205093Y-106872615D01*
X91254593Y-106908579D01*
X91256817Y-106911770D01*
X91269398Y-106930600D01*
X91269400Y-106930602D01*
X91346324Y-106982000D01*
X91352260Y-106985966D01*
X91405383Y-106996533D01*
X91425315Y-107000498D01*
X91425320Y-107000498D01*
X91425326Y-107000500D01*
X91425327Y-107000500D01*
X91974673Y-107000500D01*
X91974674Y-107000500D01*
X92047740Y-106985966D01*
X92130601Y-106930601D01*
X92185966Y-106847740D01*
X92200500Y-106774674D01*
X92200500Y-106225326D01*
X92185966Y-106152260D01*
X92170098Y-106128512D01*
X92130602Y-106069400D01*
X92130599Y-106069397D01*
X92047742Y-106014035D01*
X92047740Y-106014034D01*
X92047737Y-106014033D01*
X92047736Y-106014033D01*
X91974684Y-105999501D01*
X91974674Y-105999500D01*
X91425326Y-105999500D01*
X91425325Y-105999500D01*
X91425315Y-105999501D01*
X91352263Y-106014033D01*
X91352257Y-106014035D01*
X91269400Y-106069397D01*
X91269397Y-106069400D01*
X91256816Y-106088230D01*
X91208766Y-106126110D01*
X91147628Y-106128512D01*
X91096754Y-106094519D01*
X91075576Y-106037116D01*
X91075500Y-106033229D01*
X91075500Y-104796545D01*
X91094407Y-104738354D01*
X91104496Y-104726541D01*
X91851541Y-103979496D01*
X91906058Y-103951719D01*
X91921545Y-103950500D01*
X92078982Y-103950500D01*
X92078985Y-103950500D01*
X92232365Y-103912696D01*
X92372240Y-103839283D01*
X92490483Y-103734530D01*
X92580220Y-103604523D01*
X92636237Y-103456818D01*
X92655278Y-103300000D01*
X92647111Y-103232742D01*
X92636237Y-103143183D01*
X92636237Y-103143182D01*
X92580220Y-102995477D01*
X92535351Y-102930473D01*
X92490484Y-102865471D01*
X92372241Y-102760718D01*
X92372240Y-102760717D01*
X92302302Y-102724010D01*
X92232364Y-102687303D01*
X92078987Y-102649500D01*
X92078985Y-102649500D01*
X91921015Y-102649500D01*
X91921012Y-102649500D01*
X91767635Y-102687303D01*
X91627758Y-102760718D01*
X91509515Y-102865471D01*
X91419780Y-102995476D01*
X91363763Y-103143182D01*
X91363762Y-103143183D01*
X91344722Y-103299998D01*
X91344722Y-103300002D01*
X91352363Y-103362935D01*
X91340608Y-103422981D01*
X91324089Y-103444871D01*
X90469438Y-104299524D01*
X90469434Y-104299528D01*
X90458767Y-104310194D01*
X90404249Y-104337969D01*
X90343818Y-104328395D01*
X90300555Y-104285128D01*
X90300146Y-104284315D01*
X90277176Y-104238186D01*
X90277173Y-104238179D01*
X90154264Y-104075421D01*
X90003541Y-103938019D01*
X89830137Y-103830652D01*
X89639956Y-103756976D01*
X89639955Y-103756975D01*
X89639953Y-103756975D01*
X89439476Y-103719500D01*
X89235524Y-103719500D01*
X89035046Y-103756975D01*
X88965132Y-103784059D01*
X88844863Y-103830652D01*
X88712357Y-103912696D01*
X88671459Y-103938019D01*
X88520737Y-104075420D01*
X88397828Y-104238177D01*
X88397823Y-104238186D01*
X88332468Y-104369438D01*
X88306918Y-104420750D01*
X88251103Y-104616917D01*
X88232285Y-104820000D01*
X88251103Y-105023083D01*
X88306918Y-105219250D01*
X88397827Y-105401821D01*
X88520736Y-105564579D01*
X88671459Y-105701981D01*
X88844863Y-105809348D01*
X89035044Y-105883024D01*
X89235524Y-105920500D01*
X89439476Y-105920500D01*
X89639956Y-105883024D01*
X89830137Y-105809348D01*
X90003541Y-105701981D01*
X90154264Y-105564579D01*
X90154266Y-105564576D01*
X90157646Y-105561495D01*
X90158955Y-105562931D01*
X90205486Y-105536430D01*
X90266297Y-105543183D01*
X90311526Y-105584390D01*
X90324500Y-105633386D01*
X90324500Y-106546613D01*
X90305593Y-106604804D01*
X90256093Y-106640768D01*
X90194907Y-106640768D01*
X90158662Y-106617390D01*
X90157646Y-106618505D01*
X90154266Y-106615423D01*
X90154264Y-106615421D01*
X90003541Y-106478019D01*
X89830137Y-106370652D01*
X89639956Y-106296976D01*
X89639955Y-106296975D01*
X89639953Y-106296975D01*
X89439476Y-106259500D01*
X89235524Y-106259500D01*
X89035046Y-106296975D01*
X88965132Y-106324059D01*
X88844863Y-106370652D01*
X88671459Y-106478019D01*
X88520737Y-106615420D01*
X88397828Y-106778177D01*
X88397823Y-106778186D01*
X88312751Y-106949035D01*
X88306918Y-106960750D01*
X88251103Y-107156917D01*
X88232285Y-107360000D01*
X88251103Y-107563083D01*
X88306330Y-107757184D01*
X88306919Y-107759252D01*
X88387442Y-107920966D01*
X88397827Y-107941821D01*
X88520736Y-108104579D01*
X88671459Y-108241981D01*
X88844863Y-108349348D01*
X89035044Y-108423024D01*
X89235524Y-108460500D01*
X89439476Y-108460500D01*
X89639956Y-108423024D01*
X89830137Y-108349348D01*
X90003541Y-108241981D01*
X90154264Y-108104579D01*
X90154266Y-108104576D01*
X90157646Y-108101495D01*
X90158955Y-108102931D01*
X90205486Y-108076430D01*
X90266297Y-108083183D01*
X90311526Y-108124390D01*
X90324500Y-108173386D01*
X90324500Y-109086613D01*
X90305593Y-109144804D01*
X90256093Y-109180768D01*
X90194907Y-109180768D01*
X90158662Y-109157390D01*
X90157646Y-109158505D01*
X90154266Y-109155423D01*
X90154264Y-109155421D01*
X90003541Y-109018019D01*
X89830137Y-108910652D01*
X89639956Y-108836976D01*
X89639955Y-108836975D01*
X89639953Y-108836975D01*
X89439476Y-108799500D01*
X89235524Y-108799500D01*
X89035046Y-108836975D01*
X89008663Y-108847196D01*
X88844863Y-108910652D01*
X88694083Y-109004011D01*
X88671459Y-109018019D01*
X88657435Y-109030804D01*
X88520736Y-109155421D01*
X88516651Y-109160831D01*
X88397828Y-109318177D01*
X88397823Y-109318186D01*
X88307547Y-109499486D01*
X88306918Y-109500750D01*
X88251103Y-109696917D01*
X88232285Y-109900000D01*
X88251103Y-110103083D01*
X88306918Y-110299250D01*
X88397827Y-110481821D01*
X88520736Y-110644579D01*
X88671459Y-110781981D01*
X88844863Y-110889348D01*
X89035044Y-110963024D01*
X89235524Y-111000500D01*
X89439476Y-111000500D01*
X89639956Y-110963024D01*
X89830137Y-110889348D01*
X90003541Y-110781981D01*
X90154264Y-110644579D01*
X90154266Y-110644576D01*
X90157646Y-110641495D01*
X90158955Y-110642931D01*
X90205486Y-110616430D01*
X90266297Y-110623183D01*
X90311526Y-110664390D01*
X90324500Y-110713386D01*
X90324500Y-111626613D01*
X90305593Y-111684804D01*
X90256093Y-111720768D01*
X90194907Y-111720768D01*
X90158662Y-111697390D01*
X90157646Y-111698505D01*
X90154266Y-111695423D01*
X90154264Y-111695421D01*
X90003541Y-111558019D01*
X89830137Y-111450652D01*
X89639956Y-111376976D01*
X89639955Y-111376975D01*
X89639953Y-111376975D01*
X89439476Y-111339500D01*
X89235524Y-111339500D01*
X89035046Y-111376975D01*
X88972364Y-111401258D01*
X88844863Y-111450652D01*
X88721153Y-111527250D01*
X88671459Y-111558019D01*
X88520737Y-111695420D01*
X88397828Y-111858177D01*
X88397823Y-111858186D01*
X88312226Y-112030090D01*
X88306918Y-112040750D01*
X88251103Y-112236917D01*
X88232285Y-112440000D01*
X88251103Y-112643083D01*
X88306918Y-112839250D01*
X88397827Y-113021821D01*
X88520736Y-113184579D01*
X88671459Y-113321981D01*
X88844863Y-113429348D01*
X89035044Y-113503024D01*
X89235524Y-113540500D01*
X89439476Y-113540500D01*
X89639956Y-113503024D01*
X89830137Y-113429348D01*
X90003541Y-113321981D01*
X90154264Y-113184579D01*
X90154266Y-113184576D01*
X90157646Y-113181495D01*
X90158955Y-113182931D01*
X90205486Y-113156430D01*
X90266297Y-113163183D01*
X90311526Y-113204390D01*
X90324500Y-113253386D01*
X90324500Y-114166613D01*
X90305593Y-114224804D01*
X90256093Y-114260768D01*
X90194907Y-114260768D01*
X90158662Y-114237390D01*
X90157646Y-114238505D01*
X90154266Y-114235423D01*
X90154264Y-114235421D01*
X90003541Y-114098019D01*
X89830137Y-113990652D01*
X89639956Y-113916976D01*
X89639955Y-113916975D01*
X89639953Y-113916975D01*
X89439476Y-113879500D01*
X89235524Y-113879500D01*
X89035046Y-113916975D01*
X89022140Y-113921975D01*
X88844863Y-113990652D01*
X88671459Y-114098019D01*
X88520737Y-114235420D01*
X88397828Y-114398177D01*
X88397823Y-114398186D01*
X88346494Y-114501270D01*
X88306918Y-114580750D01*
X88251103Y-114776917D01*
X88232285Y-114980000D01*
X88251103Y-115183083D01*
X88306918Y-115379250D01*
X88397827Y-115561821D01*
X88520736Y-115724579D01*
X88671459Y-115861981D01*
X88844863Y-115969348D01*
X89035044Y-116043024D01*
X89235524Y-116080500D01*
X89439476Y-116080500D01*
X89639956Y-116043024D01*
X89830137Y-115969348D01*
X90003541Y-115861981D01*
X90154264Y-115724579D01*
X90154266Y-115724576D01*
X90157646Y-115721495D01*
X90158955Y-115722931D01*
X90205486Y-115696430D01*
X90266297Y-115703183D01*
X90311526Y-115744390D01*
X90324500Y-115793386D01*
X90324500Y-116706613D01*
X90305593Y-116764804D01*
X90256093Y-116800768D01*
X90194907Y-116800768D01*
X90158662Y-116777390D01*
X90157646Y-116778505D01*
X90154266Y-116775423D01*
X90154264Y-116775421D01*
X90003541Y-116638019D01*
X89830137Y-116530652D01*
X89639956Y-116456976D01*
X89639955Y-116456975D01*
X89639953Y-116456975D01*
X89439476Y-116419500D01*
X89235524Y-116419500D01*
X89035046Y-116456975D01*
X89022140Y-116461975D01*
X88844863Y-116530652D01*
X88671459Y-116638019D01*
X88520736Y-116775421D01*
X88501595Y-116800768D01*
X88397828Y-116938177D01*
X88397823Y-116938186D01*
X88306919Y-117120747D01*
X88306918Y-117120750D01*
X88251103Y-117316917D01*
X88232285Y-117520000D01*
X87902715Y-117520000D01*
X87883897Y-117316917D01*
X87828082Y-117120750D01*
X87737173Y-116938179D01*
X87614264Y-116775421D01*
X87463541Y-116638019D01*
X87290137Y-116530652D01*
X87099956Y-116456976D01*
X87099955Y-116456975D01*
X87099953Y-116456975D01*
X86899476Y-116419500D01*
X86695524Y-116419500D01*
X86495044Y-116456975D01*
X86390040Y-116497654D01*
X86328949Y-116501044D01*
X86277532Y-116467878D01*
X86255430Y-116410824D01*
X86255278Y-116405339D01*
X86255278Y-116399998D01*
X86236237Y-116243183D01*
X86236237Y-116243182D01*
X86181427Y-116098661D01*
X86178472Y-116037550D01*
X86212003Y-115986370D01*
X86269212Y-115964674D01*
X86309752Y-115971242D01*
X86495044Y-116043024D01*
X86695524Y-116080500D01*
X86899476Y-116080500D01*
X87099956Y-116043024D01*
X87290137Y-115969348D01*
X87463541Y-115861981D01*
X87614264Y-115724579D01*
X87737173Y-115561821D01*
X87828082Y-115379250D01*
X87883897Y-115183083D01*
X87902715Y-114980000D01*
X87883897Y-114776917D01*
X87828082Y-114580750D01*
X87737173Y-114398179D01*
X87614264Y-114235421D01*
X87463541Y-114098019D01*
X87290137Y-113990652D01*
X87099956Y-113916976D01*
X87099955Y-113916975D01*
X87099953Y-113916975D01*
X86899476Y-113879500D01*
X86695524Y-113879500D01*
X86495046Y-113916975D01*
X86482140Y-113921975D01*
X86304863Y-113990652D01*
X86131459Y-114098019D01*
X85980737Y-114235420D01*
X85857828Y-114398177D01*
X85857823Y-114398186D01*
X85806494Y-114501270D01*
X85766918Y-114580750D01*
X85711103Y-114776917D01*
X85692285Y-114980000D01*
X85711103Y-115183083D01*
X85766918Y-115379250D01*
X85857827Y-115561821D01*
X85904836Y-115624071D01*
X85924815Y-115681901D01*
X85906986Y-115740432D01*
X85858159Y-115777304D01*
X85802140Y-115779854D01*
X85678988Y-115749500D01*
X85678985Y-115749500D01*
X85521015Y-115749500D01*
X85521012Y-115749500D01*
X85367635Y-115787303D01*
X85227758Y-115860718D01*
X85109515Y-115965471D01*
X85019778Y-116095479D01*
X85019158Y-116096662D01*
X85018559Y-116097246D01*
X85016379Y-116100405D01*
X85015760Y-116099978D01*
X84975371Y-116139399D01*
X84914827Y-116148236D01*
X84860652Y-116119799D01*
X84833538Y-116064949D01*
X84832500Y-116050650D01*
X84832500Y-112440000D01*
X85692285Y-112440000D01*
X85711103Y-112643083D01*
X85766918Y-112839250D01*
X85857827Y-113021821D01*
X85980736Y-113184579D01*
X86131459Y-113321981D01*
X86304863Y-113429348D01*
X86495044Y-113503024D01*
X86695524Y-113540500D01*
X86899476Y-113540500D01*
X87099956Y-113503024D01*
X87290137Y-113429348D01*
X87463541Y-113321981D01*
X87614264Y-113184579D01*
X87737173Y-113021821D01*
X87828082Y-112839250D01*
X87883897Y-112643083D01*
X87902715Y-112440000D01*
X87883897Y-112236917D01*
X87828082Y-112040750D01*
X87737173Y-111858179D01*
X87614264Y-111695421D01*
X87463541Y-111558019D01*
X87290137Y-111450652D01*
X87099956Y-111376976D01*
X87099955Y-111376975D01*
X87099953Y-111376975D01*
X86899476Y-111339500D01*
X86695524Y-111339500D01*
X86495046Y-111376975D01*
X86432364Y-111401258D01*
X86304863Y-111450652D01*
X86181153Y-111527250D01*
X86131459Y-111558019D01*
X85980737Y-111695420D01*
X85857828Y-111858177D01*
X85857823Y-111858186D01*
X85772226Y-112030090D01*
X85766918Y-112040750D01*
X85711103Y-112236917D01*
X85692285Y-112440000D01*
X84832500Y-112440000D01*
X84832500Y-109900000D01*
X85692285Y-109900000D01*
X85711103Y-110103083D01*
X85766918Y-110299250D01*
X85857827Y-110481821D01*
X85980736Y-110644579D01*
X86131459Y-110781981D01*
X86304863Y-110889348D01*
X86495044Y-110963024D01*
X86695524Y-111000500D01*
X86899476Y-111000500D01*
X87099956Y-110963024D01*
X87290137Y-110889348D01*
X87463541Y-110781981D01*
X87614264Y-110644579D01*
X87737173Y-110481821D01*
X87828082Y-110299250D01*
X87883897Y-110103083D01*
X87902715Y-109900000D01*
X87883897Y-109696917D01*
X87828082Y-109500750D01*
X87737173Y-109318179D01*
X87614264Y-109155421D01*
X87463541Y-109018019D01*
X87290137Y-108910652D01*
X87099956Y-108836976D01*
X87099955Y-108836975D01*
X87099953Y-108836975D01*
X86899476Y-108799500D01*
X86695524Y-108799500D01*
X86495046Y-108836975D01*
X86468663Y-108847196D01*
X86304863Y-108910652D01*
X86154083Y-109004011D01*
X86131459Y-109018019D01*
X86117435Y-109030804D01*
X85980736Y-109155421D01*
X85976651Y-109160831D01*
X85857828Y-109318177D01*
X85857823Y-109318186D01*
X85767547Y-109499486D01*
X85766918Y-109500750D01*
X85711103Y-109696917D01*
X85692285Y-109900000D01*
X84832500Y-109900000D01*
X84832500Y-107360000D01*
X85692285Y-107360000D01*
X85711103Y-107563083D01*
X85766330Y-107757184D01*
X85766919Y-107759252D01*
X85847442Y-107920966D01*
X85857827Y-107941821D01*
X85980736Y-108104579D01*
X86131459Y-108241981D01*
X86304863Y-108349348D01*
X86495044Y-108423024D01*
X86695524Y-108460500D01*
X86899476Y-108460500D01*
X87099956Y-108423024D01*
X87290137Y-108349348D01*
X87463541Y-108241981D01*
X87614264Y-108104579D01*
X87737173Y-107941821D01*
X87828082Y-107759250D01*
X87883897Y-107563083D01*
X87902715Y-107360000D01*
X87883897Y-107156917D01*
X87828082Y-106960750D01*
X87737173Y-106778179D01*
X87614264Y-106615421D01*
X87463541Y-106478019D01*
X87290137Y-106370652D01*
X87099956Y-106296976D01*
X87099955Y-106296975D01*
X87099953Y-106296975D01*
X86899476Y-106259500D01*
X86695524Y-106259500D01*
X86495046Y-106296975D01*
X86425132Y-106324059D01*
X86304863Y-106370652D01*
X86131459Y-106478019D01*
X85980737Y-106615420D01*
X85857828Y-106778177D01*
X85857823Y-106778186D01*
X85772751Y-106949035D01*
X85766918Y-106960750D01*
X85711103Y-107156917D01*
X85692285Y-107360000D01*
X84832500Y-107360000D01*
X84832500Y-104820000D01*
X85692285Y-104820000D01*
X85711103Y-105023083D01*
X85766918Y-105219250D01*
X85857827Y-105401821D01*
X85980736Y-105564579D01*
X86131459Y-105701981D01*
X86304863Y-105809348D01*
X86495044Y-105883024D01*
X86695524Y-105920500D01*
X86899476Y-105920500D01*
X87099956Y-105883024D01*
X87290137Y-105809348D01*
X87463541Y-105701981D01*
X87614264Y-105564579D01*
X87737173Y-105401821D01*
X87828082Y-105219250D01*
X87883897Y-105023083D01*
X87902715Y-104820000D01*
X87883897Y-104616917D01*
X87828082Y-104420750D01*
X87737173Y-104238179D01*
X87614264Y-104075421D01*
X87463541Y-103938019D01*
X87290137Y-103830652D01*
X87099956Y-103756976D01*
X87099955Y-103756975D01*
X87099953Y-103756975D01*
X86899476Y-103719500D01*
X86695524Y-103719500D01*
X86495046Y-103756975D01*
X86425132Y-103784059D01*
X86304863Y-103830652D01*
X86172357Y-103912696D01*
X86131459Y-103938019D01*
X85980737Y-104075420D01*
X85857828Y-104238177D01*
X85857823Y-104238186D01*
X85792468Y-104369438D01*
X85766918Y-104420750D01*
X85711103Y-104616917D01*
X85692285Y-104820000D01*
X84832500Y-104820000D01*
X84832500Y-102280000D01*
X85692285Y-102280000D01*
X85711103Y-102483083D01*
X85766918Y-102679250D01*
X85857827Y-102861821D01*
X85980736Y-103024579D01*
X86131459Y-103161981D01*
X86304863Y-103269348D01*
X86495044Y-103343024D01*
X86695524Y-103380500D01*
X86899476Y-103380500D01*
X87099956Y-103343024D01*
X87290137Y-103269348D01*
X87463541Y-103161981D01*
X87614264Y-103024579D01*
X87737173Y-102861821D01*
X87828082Y-102679250D01*
X87883897Y-102483083D01*
X87902715Y-102280000D01*
X88232285Y-102280000D01*
X88251103Y-102483083D01*
X88306918Y-102679250D01*
X88397827Y-102861821D01*
X88520736Y-103024579D01*
X88671459Y-103161981D01*
X88844863Y-103269348D01*
X89035044Y-103343024D01*
X89235524Y-103380500D01*
X89439476Y-103380500D01*
X89639956Y-103343024D01*
X89830137Y-103269348D01*
X90003541Y-103161981D01*
X90154264Y-103024579D01*
X90277173Y-102861821D01*
X90368082Y-102679250D01*
X90423897Y-102483083D01*
X90442715Y-102280000D01*
X90423897Y-102076917D01*
X90368082Y-101880750D01*
X90277173Y-101698179D01*
X90154264Y-101535421D01*
X90003541Y-101398019D01*
X89830137Y-101290652D01*
X89639956Y-101216976D01*
X89639955Y-101216975D01*
X89639953Y-101216975D01*
X89439476Y-101179500D01*
X89235524Y-101179500D01*
X89035046Y-101216975D01*
X89034494Y-101217189D01*
X88844863Y-101290652D01*
X88769584Y-101337263D01*
X88671459Y-101398019D01*
X88520737Y-101535420D01*
X88397828Y-101698177D01*
X88397823Y-101698186D01*
X88306919Y-101880747D01*
X88306918Y-101880750D01*
X88251103Y-102076917D01*
X88232285Y-102280000D01*
X87902715Y-102280000D01*
X87883897Y-102076917D01*
X87828082Y-101880750D01*
X87737173Y-101698179D01*
X87614264Y-101535421D01*
X87463541Y-101398019D01*
X87290137Y-101290652D01*
X87099956Y-101216976D01*
X87099955Y-101216975D01*
X87099953Y-101216975D01*
X86899476Y-101179500D01*
X86695524Y-101179500D01*
X86495046Y-101216975D01*
X86494494Y-101217189D01*
X86304863Y-101290652D01*
X86229584Y-101337263D01*
X86131459Y-101398019D01*
X85980737Y-101535420D01*
X85857828Y-101698177D01*
X85857823Y-101698186D01*
X85766919Y-101880747D01*
X85766918Y-101880750D01*
X85711103Y-102076917D01*
X85692285Y-102280000D01*
X84832500Y-102280000D01*
X84832500Y-99740000D01*
X85692285Y-99740000D01*
X85711103Y-99943083D01*
X85766918Y-100139250D01*
X85857827Y-100321821D01*
X85980736Y-100484579D01*
X86131459Y-100621981D01*
X86304863Y-100729348D01*
X86495044Y-100803024D01*
X86695524Y-100840500D01*
X86899476Y-100840500D01*
X87099956Y-100803024D01*
X87290137Y-100729348D01*
X87463541Y-100621981D01*
X87614264Y-100484579D01*
X87737173Y-100321821D01*
X87828082Y-100139250D01*
X87883897Y-99943083D01*
X87902715Y-99740000D01*
X88232285Y-99740000D01*
X88251103Y-99943083D01*
X88306918Y-100139250D01*
X88397827Y-100321821D01*
X88520736Y-100484579D01*
X88671459Y-100621981D01*
X88844863Y-100729348D01*
X89035044Y-100803024D01*
X89235524Y-100840500D01*
X89439476Y-100840500D01*
X89639956Y-100803024D01*
X89830137Y-100729348D01*
X90003541Y-100621981D01*
X90154264Y-100484579D01*
X90277173Y-100321821D01*
X90368082Y-100139250D01*
X90423897Y-99943083D01*
X90442715Y-99740000D01*
X90423897Y-99536917D01*
X90368082Y-99340750D01*
X90277173Y-99158179D01*
X90154264Y-98995421D01*
X90003541Y-98858019D01*
X89830137Y-98750652D01*
X89639956Y-98676976D01*
X89639955Y-98676975D01*
X89639953Y-98676975D01*
X89439476Y-98639500D01*
X89235524Y-98639500D01*
X89035046Y-98676975D01*
X88965132Y-98704059D01*
X88844863Y-98750652D01*
X88688973Y-98847175D01*
X88671459Y-98858019D01*
X88520737Y-98995420D01*
X88397828Y-99158177D01*
X88397823Y-99158186D01*
X88337628Y-99279075D01*
X88306918Y-99340750D01*
X88251103Y-99536917D01*
X88232285Y-99740000D01*
X87902715Y-99740000D01*
X87883897Y-99536917D01*
X87828082Y-99340750D01*
X87737173Y-99158179D01*
X87614264Y-98995421D01*
X87463541Y-98858019D01*
X87290137Y-98750652D01*
X87099956Y-98676976D01*
X87099955Y-98676975D01*
X87099953Y-98676975D01*
X86899476Y-98639500D01*
X86695524Y-98639500D01*
X86495046Y-98676975D01*
X86425132Y-98704059D01*
X86304863Y-98750652D01*
X86148973Y-98847175D01*
X86131459Y-98858019D01*
X85980737Y-98995420D01*
X85857828Y-99158177D01*
X85857823Y-99158186D01*
X85797628Y-99279075D01*
X85766918Y-99340750D01*
X85711103Y-99536917D01*
X85692285Y-99740000D01*
X84832500Y-99740000D01*
X84832500Y-98946200D01*
X84832530Y-98943776D01*
X84834698Y-98855275D01*
X84836570Y-98838386D01*
X84854021Y-98750652D01*
X84871343Y-98663568D01*
X84876972Y-98645012D01*
X84944716Y-98481464D01*
X84953857Y-98464362D01*
X85052204Y-98317176D01*
X85064507Y-98302183D01*
X85189683Y-98177007D01*
X85204676Y-98164704D01*
X85351862Y-98066357D01*
X85368964Y-98057216D01*
X85532512Y-97989472D01*
X85551068Y-97983843D01*
X85725886Y-97949070D01*
X85742774Y-97947198D01*
X85816784Y-97945385D01*
X85831276Y-97945030D01*
X85833700Y-97945000D01*
X95999826Y-97945000D01*
X96058017Y-97963907D01*
G37*
%TD.AperFunction*%
%TD*%
M02*
