%TF.GenerationSoftware,KiCad,Pcbnew,8.0.1*%
%TF.CreationDate,2024-04-07T09:18:40-04:00*%
%TF.ProjectId,tac5212_audio_board_single_ended,74616335-3231-4325-9f61-7564696f5f62,rev?*%
%TF.SameCoordinates,Original*%
%TF.FileFunction,Copper,L4,Bot*%
%TF.FilePolarity,Positive*%
%FSLAX46Y46*%
G04 Gerber Fmt 4.6, Leading zero omitted, Abs format (unit mm)*
G04 Created by KiCad (PCBNEW 8.0.1) date 2024-04-07 09:18:40*
%MOMM*%
%LPD*%
G01*
G04 APERTURE LIST*
G04 Aperture macros list*
%AMRoundRect*
0 Rectangle with rounded corners*
0 $1 Rounding radius*
0 $2 $3 $4 $5 $6 $7 $8 $9 X,Y pos of 4 corners*
0 Add a 4 corners polygon primitive as box body*
4,1,4,$2,$3,$4,$5,$6,$7,$8,$9,$2,$3,0*
0 Add four circle primitives for the rounded corners*
1,1,$1+$1,$2,$3*
1,1,$1+$1,$4,$5*
1,1,$1+$1,$6,$7*
1,1,$1+$1,$8,$9*
0 Add four rect primitives between the rounded corners*
20,1,$1+$1,$2,$3,$4,$5,0*
20,1,$1+$1,$4,$5,$6,$7,0*
20,1,$1+$1,$6,$7,$8,$9,0*
20,1,$1+$1,$8,$9,$2,$3,0*%
%AMRotRect*
0 Rectangle, with rotation*
0 The origin of the aperture is its center*
0 $1 length*
0 $2 width*
0 $3 Rotation angle, in degrees counterclockwise*
0 Add horizontal line*
21,1,$1,$2,0,0,$3*%
G04 Aperture macros list end*
%TA.AperFunction,EtchedComponent*%
%ADD10C,0.000000*%
%TD*%
%TA.AperFunction,SMDPad,CuDef*%
%ADD11RoundRect,0.237500X0.237500X-0.300000X0.237500X0.300000X-0.237500X0.300000X-0.237500X-0.300000X0*%
%TD*%
%TA.AperFunction,SMDPad,CuDef*%
%ADD12RoundRect,0.237500X-0.237500X0.287500X-0.237500X-0.287500X0.237500X-0.287500X0.237500X0.287500X0*%
%TD*%
%TA.AperFunction,SMDPad,CuDef*%
%ADD13RoundRect,0.237500X-0.287500X-0.237500X0.287500X-0.237500X0.287500X0.237500X-0.287500X0.237500X0*%
%TD*%
%TA.AperFunction,SMDPad,CuDef*%
%ADD14RoundRect,0.237500X0.287500X0.237500X-0.287500X0.237500X-0.287500X-0.237500X0.287500X-0.237500X0*%
%TD*%
%TA.AperFunction,ComponentPad*%
%ADD15R,1.700000X1.700000*%
%TD*%
%TA.AperFunction,ComponentPad*%
%ADD16O,1.700000X1.700000*%
%TD*%
%TA.AperFunction,ComponentPad*%
%ADD17C,3.200000*%
%TD*%
%TA.AperFunction,ComponentPad*%
%ADD18C,0.500000*%
%TD*%
%TA.AperFunction,SMDPad,CuDef*%
%ADD19RotRect,2.600000X2.600000X45.000000*%
%TD*%
%TA.AperFunction,SMDPad,CuDef*%
%ADD20RoundRect,0.250000X0.475000X-0.337500X0.475000X0.337500X-0.475000X0.337500X-0.475000X-0.337500X0*%
%TD*%
%TA.AperFunction,SMDPad,CuDef*%
%ADD21RoundRect,0.237500X-0.237500X0.300000X-0.237500X-0.300000X0.237500X-0.300000X0.237500X0.300000X0*%
%TD*%
%TA.AperFunction,SMDPad,CuDef*%
%ADD22R,0.500000X0.500000*%
%TD*%
%TA.AperFunction,ComponentPad*%
%ADD23R,0.500000X0.500000*%
%TD*%
%TA.AperFunction,SMDPad,CuDef*%
%ADD24RoundRect,0.160000X0.222500X0.160000X-0.222500X0.160000X-0.222500X-0.160000X0.222500X-0.160000X0*%
%TD*%
%TA.AperFunction,SMDPad,CuDef*%
%ADD25R,0.508000X0.500000*%
%TD*%
%TA.AperFunction,SMDPad,CuDef*%
%ADD26R,0.508000X0.508000*%
%TD*%
%TA.AperFunction,SMDPad,CuDef*%
%ADD27RoundRect,0.250001X0.924999X-0.499999X0.924999X0.499999X-0.924999X0.499999X-0.924999X-0.499999X0*%
%TD*%
%TA.AperFunction,SMDPad,CuDef*%
%ADD28R,1.000000X1.100000*%
%TD*%
%TA.AperFunction,SMDPad,CuDef*%
%ADD29R,0.500000X0.508000*%
%TD*%
%TA.AperFunction,SMDPad,CuDef*%
%ADD30RoundRect,0.250001X-0.499999X-0.924999X0.499999X-0.924999X0.499999X0.924999X-0.499999X0.924999X0*%
%TD*%
%TA.AperFunction,SMDPad,CuDef*%
%ADD31RoundRect,0.160000X-0.222500X-0.160000X0.222500X-0.160000X0.222500X0.160000X-0.222500X0.160000X0*%
%TD*%
%TA.AperFunction,SMDPad,CuDef*%
%ADD32RoundRect,0.250000X-0.475000X0.337500X-0.475000X-0.337500X0.475000X-0.337500X0.475000X0.337500X0*%
%TD*%
%TA.AperFunction,SMDPad,CuDef*%
%ADD33RoundRect,0.150000X-0.150000X0.512500X-0.150000X-0.512500X0.150000X-0.512500X0.150000X0.512500X0*%
%TD*%
%TA.AperFunction,ViaPad*%
%ADD34C,0.800000*%
%TD*%
%TA.AperFunction,Conductor*%
%ADD35C,0.250000*%
%TD*%
%TA.AperFunction,Conductor*%
%ADD36C,0.750000*%
%TD*%
G04 APERTURE END LIST*
%TA.AperFunction,EtchedComponent*%
%TO.C,OP2*%
G36*
X100500000Y-107400000D02*
G01*
X100100000Y-107400000D01*
X100100000Y-106850000D01*
X100500000Y-106850000D01*
X100500000Y-107400000D01*
G37*
%TD.AperFunction*%
%TA.AperFunction,EtchedComponent*%
%TO.C,INP2*%
G36*
X121600000Y-107410000D02*
G01*
X121200000Y-107410000D01*
X121200000Y-106860000D01*
X121600000Y-106860000D01*
X121600000Y-107410000D01*
G37*
%TD.AperFunction*%
D10*
%TA.AperFunction,EtchedComponent*%
%TO.C,GND1*%
G36*
X109400000Y-107575000D02*
G01*
X109000000Y-107575000D01*
X109000000Y-107025000D01*
X109400000Y-107025000D01*
X109400000Y-107575000D01*
G37*
%TD.AperFunction*%
%TA.AperFunction,EtchedComponent*%
%TO.C,INM2*%
G36*
X125200000Y-107457500D02*
G01*
X124800000Y-107457500D01*
X124800000Y-106907500D01*
X125200000Y-106907500D01*
X125200000Y-107457500D01*
G37*
%TD.AperFunction*%
%TA.AperFunction,EtchedComponent*%
%TO.C,OM2*%
G36*
X104400000Y-107475000D02*
G01*
X104000000Y-107475000D01*
X104000000Y-106925000D01*
X104400000Y-106925000D01*
X104400000Y-107475000D01*
G37*
%TD.AperFunction*%
%TA.AperFunction,EtchedComponent*%
%TO.C,3V3*%
G36*
X126400000Y-119675000D02*
G01*
X126000000Y-119675000D01*
X126000000Y-119125000D01*
X126400000Y-119125000D01*
X126400000Y-119675000D01*
G37*
%TD.AperFunction*%
%TA.AperFunction,EtchedComponent*%
%TO.C,SDA1001*%
G36*
X91875000Y-102600000D02*
G01*
X91325000Y-102600000D01*
X91325000Y-102200000D01*
X91875000Y-102200000D01*
X91875000Y-102600000D01*
G37*
%TD.AperFunction*%
%TA.AperFunction,EtchedComponent*%
%TO.C,SCL1001*%
G36*
X91875000Y-101200000D02*
G01*
X91325000Y-101200000D01*
X91325000Y-100800000D01*
X91875000Y-100800000D01*
X91875000Y-101200000D01*
G37*
%TD.AperFunction*%
%TA.AperFunction,EtchedComponent*%
%TO.C,OP1*%
G36*
X96200000Y-107475000D02*
G01*
X95800000Y-107475000D01*
X95800000Y-106925000D01*
X96200000Y-106925000D01*
X96200000Y-107475000D01*
G37*
%TD.AperFunction*%
%TA.AperFunction,EtchedComponent*%
%TO.C,INM1*%
G36*
X118000000Y-107337500D02*
G01*
X117600000Y-107337500D01*
X117600000Y-106787500D01*
X118000000Y-106787500D01*
X118000000Y-107337500D01*
G37*
%TD.AperFunction*%
%TA.AperFunction,EtchedComponent*%
%TO.C,OM1*%
G36*
X91500000Y-106525000D02*
G01*
X91900000Y-106525000D01*
X91900000Y-107075000D01*
X91500000Y-107075000D01*
X91500000Y-106525000D01*
G37*
%TD.AperFunction*%
%TA.AperFunction,EtchedComponent*%
%TO.C,INP1*%
G36*
X114400000Y-107400000D02*
G01*
X114000000Y-107400000D01*
X114000000Y-106850000D01*
X114400000Y-106850000D01*
X114400000Y-107400000D01*
G37*
%TD.AperFunction*%
%TD*%
D11*
%TO.P,T\u002AC2,1*%
%TO.N,5V*%
X120034314Y-119300000D03*
%TO.P,T\u002AC2,2*%
%TO.N,GNDD*%
X120034314Y-117575000D03*
%TD*%
D12*
%TO.P,R20,1*%
%TO.N,OUT2M+*%
X105500000Y-111125000D03*
%TO.P,R20,2*%
%TO.N,Net-(C21-Pad2)*%
X105500000Y-112875000D03*
%TD*%
D13*
%TO.P,R19,1*%
%TO.N,OUT2P+*%
X101125000Y-111100000D03*
%TO.P,R19,2*%
%TO.N,Net-(C20-Pad2)*%
X102875000Y-111100000D03*
%TD*%
D14*
%TO.P,R18,1*%
%TO.N,OUT1M+*%
X94275000Y-111100000D03*
%TO.P,R18,2*%
%TO.N,Net-(C19-Pad2)*%
X92525000Y-111100000D03*
%TD*%
D13*
%TO.P,R17,1*%
%TO.N,OUT1P+*%
X96825000Y-111100000D03*
%TO.P,R17,2*%
%TO.N,Net-(C18-Pad2)*%
X98575000Y-111100000D03*
%TD*%
D11*
%TO.P,C25,1*%
%TO.N,OUT2M+*%
X105900000Y-108862500D03*
%TO.P,C25,2*%
%TO.N,Earth*%
X105900000Y-107137500D03*
%TD*%
%TO.P,C24,1*%
%TO.N,OUT2P+*%
X102000000Y-108862500D03*
%TO.P,C24,2*%
%TO.N,Earth*%
X102000000Y-107137500D03*
%TD*%
%TO.P,C23,1*%
%TO.N,OUT1M+*%
X93400000Y-108862500D03*
%TO.P,C23,2*%
%TO.N,Earth*%
X93400000Y-107137500D03*
%TD*%
%TO.P,C22,1*%
%TO.N,OUT1P+*%
X97700000Y-108862500D03*
%TO.P,C22,2*%
%TO.N,Earth*%
X97700000Y-107137500D03*
%TD*%
D15*
%TO.P,board_outline1,1,HELD_HIGH*%
%TO.N,unconnected-(board_outline1-HELD_HIGH-Pad1)*%
X89337500Y-122600000D03*
D16*
%TO.P,board_outline1,2,HELD_LOW*%
%TO.N,unconnected-(board_outline1-HELD_LOW-Pad2)*%
X86797500Y-122600000D03*
%TO.P,board_outline1,3,5V*%
%TO.N,Net-(5V1-B)*%
X89337500Y-120060000D03*
%TO.P,board_outline1,4,GNDD*%
%TO.N,GNDD*%
X86797500Y-120060000D03*
%TO.P,board_outline1,5,12V*%
%TO.N,unconnected-(board_outline1-12V-Pad5)*%
X89337500Y-117520000D03*
%TO.P,board_outline1,6,GNDD*%
%TO.N,GNDD*%
X86797500Y-117520000D03*
%TO.P,board_outline1,7,DSP_DOUT*%
%TO.N,5212_DOUT1+*%
X89337500Y-114980000D03*
%TO.P,board_outline1,8,GNDD*%
%TO.N,GNDD*%
X86797500Y-114980000D03*
%TO.P,board_outline1,9,DSP_DIN*%
%TO.N,5212_DIN1*%
X89337500Y-112440000D03*
%TO.P,board_outline1,10,GNDD*%
%TO.N,GNDD*%
X86797500Y-112440000D03*
%TO.P,board_outline1,11,BCLK*%
%TO.N,5212_BCLK1*%
X89337500Y-109900000D03*
%TO.P,board_outline1,12,GNDD*%
%TO.N,GNDD*%
X86797500Y-109900000D03*
%TO.P,board_outline1,13,LRCK*%
%TO.N,5212_LRCK1*%
X89337500Y-107360000D03*
%TO.P,board_outline1,14,GNDD*%
%TO.N,GNDD*%
X86797500Y-107360000D03*
%TO.P,board_outline1,15,SDA*%
%TO.N,DSP_SDA*%
X89337500Y-104820000D03*
%TO.P,board_outline1,16,GNDD*%
%TO.N,GNDD*%
X86797500Y-104820000D03*
%TO.P,board_outline1,17,SCL*%
%TO.N,DSP_SCL*%
X89337500Y-102280000D03*
%TO.P,board_outline1,18,GNDD*%
%TO.N,GNDD*%
X86797500Y-102280000D03*
%TO.P,board_outline1,19,MCLK*%
%TO.N,5212_MCLK1*%
X89337500Y-99740000D03*
%TO.P,board_outline1,20,GNDD*%
%TO.N,GNDD*%
X86797500Y-99740000D03*
D15*
%TO.P,board_outline1,21,OUTP*%
%TO.N,OUT1P+*%
X102047500Y-102285000D03*
%TO.P,board_outline1,22,AGND*%
%TO.N,Earth*%
X102047500Y-99745000D03*
D16*
%TO.P,board_outline1,23,OUT1M*%
%TO.N,OUT1M+*%
X104587500Y-102285000D03*
%TO.P,board_outline1,24,AGND*%
%TO.N,Earth*%
X104587500Y-99745000D03*
%TO.P,board_outline1,25,OUT2P*%
%TO.N,OUT2P+*%
X107127500Y-102285000D03*
%TO.P,board_outline1,26,AGND*%
%TO.N,Earth*%
X107127500Y-99745000D03*
%TO.P,board_outline1,27,OUT2M*%
%TO.N,OUT2M+*%
X109667500Y-102285000D03*
%TO.P,board_outline1,28,AGND*%
%TO.N,Earth*%
X109667500Y-99745000D03*
%TO.P,board_outline1,29,IN1P*%
%TO.N,IN1P+*%
X112207500Y-102285000D03*
%TO.P,board_outline1,30,AGND*%
%TO.N,Earth*%
X112207500Y-99745000D03*
%TO.P,board_outline1,31,IN1M*%
%TO.N,IN1M+*%
X114747500Y-102285000D03*
%TO.P,board_outline1,32,AGND*%
%TO.N,Earth*%
X114747500Y-99745000D03*
%TO.P,board_outline1,33,IN2P*%
%TO.N,IN2P+*%
X117287500Y-102285000D03*
%TO.P,board_outline1,34,AGND*%
%TO.N,Earth*%
X117287500Y-99745000D03*
%TO.P,board_outline1,35,IN2M*%
%TO.N,IN2M+*%
X119827500Y-102285000D03*
%TO.P,board_outline1,36,AGND*%
%TO.N,Earth*%
X119827500Y-99745000D03*
D15*
%TO.P,board_outline1,37,SCL*%
%TO.N,5212_SCL*%
X102047500Y-122605000D03*
D16*
%TO.P,board_outline1,38,SDA*%
%TO.N,5212_SDA*%
X104587500Y-122605000D03*
%TO.P,board_outline1,39,GNDD*%
%TO.N,GNDD*%
X107127500Y-122605000D03*
%TO.P,board_outline1,40,GPIO1*%
%TO.N,GPIO1*%
X109667500Y-122605000D03*
%TO.P,board_outline1,41,GPIO2*%
%TO.N,GPIO2*%
X112207500Y-122605000D03*
%TO.P,board_outline1,42,GPO1*%
%TO.N,GPO1*%
X114747500Y-122605000D03*
%TO.P,board_outline1,43,GPI1*%
%TO.N,GPI1*%
X117287500Y-122605000D03*
%TO.P,board_outline1,44,GNDD*%
%TO.N,GNDD*%
X119827500Y-122605000D03*
%TO.P,board_outline1,45,5V*%
%TO.N,5V*%
X124892500Y-117525000D03*
%TO.P,board_outline1,46,3.3V*%
%TO.N,3.3V_LDO*%
X124892500Y-114985000D03*
%TO.P,board_outline1,47,GNDD*%
%TO.N,GNDD*%
X124892500Y-112445000D03*
%TO.P,board_outline1,48,MIC_BIAS*%
%TO.N,MICBIAS*%
X122352500Y-102285000D03*
D17*
%TO.P,board_outline1,49,AGND*%
%TO.N,Net-(E1-A)*%
X96952500Y-99745000D03*
%TO.P,board_outline1,50,AGND*%
%TO.N,Net-(E2-A)*%
X124892500Y-99745000D03*
%TO.P,board_outline1,51,DGND*%
%TO.N,Net-(G1-A)*%
X96952500Y-122605000D03*
%TO.P,board_outline1,52,DGND*%
%TO.N,Net-(G2-A)*%
X124892500Y-122605000D03*
%TD*%
D18*
%TO.P,G4,1,1*%
%TO.N,Earth*%
X117100000Y-114000000D03*
%TD*%
%TO.P,G5,1,1*%
%TO.N,Earth*%
X99600000Y-118200000D03*
%TD*%
%TO.P,G6,1,1*%
%TO.N,Earth*%
X118400000Y-114000000D03*
%TD*%
%TO.P,G3,1,1*%
%TO.N,Earth*%
X92300000Y-118400000D03*
%TD*%
%TO.P,G7,1,1*%
%TO.N,Earth*%
X102600000Y-118400000D03*
%TD*%
%TO.P,J1002,25,VSS*%
%TO.N,GNDD*%
X107715076Y-111000000D03*
X108457538Y-111742462D03*
X109200000Y-112484924D03*
X108457538Y-110257538D03*
X109200000Y-111000000D03*
D19*
X109200000Y-111000000D03*
D18*
X109942462Y-111742462D03*
X109200000Y-109515076D03*
X109942462Y-110257538D03*
X110684924Y-111000000D03*
%TD*%
%TO.P,G9,1,1*%
%TO.N,Earth*%
X103200000Y-119300000D03*
%TD*%
%TO.P,G8,1,1*%
%TO.N,Earth*%
X123500000Y-113700000D03*
%TD*%
%TO.P,G10,1,1*%
%TO.N,Earth*%
X125900000Y-110200000D03*
%TD*%
%TO.P,G11,1,1*%
%TO.N,Earth*%
X115800000Y-114500000D03*
%TD*%
D20*
%TO.P,T\u002AC1,1*%
%TO.N,5V*%
X122134314Y-119475000D03*
%TO.P,T\u002AC1,2*%
%TO.N,GNDD*%
X122134314Y-117400000D03*
%TD*%
D21*
%TO.P,C1011,1*%
%TO.N,Net-(C1011-Pad1)*%
X113900000Y-110537500D03*
%TO.P,C1011,2*%
%TO.N,IN1P*%
X113900000Y-112262500D03*
%TD*%
D22*
%TO.P,OP2,1,1*%
%TO.N,OUT2P+*%
X100300000Y-106325000D03*
D23*
%TO.P,OP2,2,2*%
%TO.N,OUT2P*%
X100300000Y-107425000D03*
%TD*%
D24*
%TO.P,D20,1,K*%
%TO.N,OUT2M+*%
X104327500Y-105100000D03*
%TO.P,D20,2,K*%
%TO.N,Earth*%
X105472500Y-105100000D03*
%TD*%
D22*
%TO.P,INP2,1,1*%
%TO.N,IN2P+*%
X121400000Y-106335000D03*
D23*
%TO.P,INP2,2,2*%
%TO.N,IN2P*%
X121400000Y-107435000D03*
%TD*%
D21*
%TO.P,C1012,1*%
%TO.N,Net-(C1012-Pad1)*%
X122800000Y-110537500D03*
%TO.P,C1012,2*%
%TO.N,IN2M*%
X122800000Y-112262500D03*
%TD*%
D25*
%TO.P,GND1,1,A*%
%TO.N,GNDD*%
X109200000Y-107804000D03*
D26*
%TO.P,GND1,2,B*%
%TO.N,Earth*%
X109200000Y-106800000D03*
%TD*%
D21*
%TO.P,C1009,1*%
%TO.N,Net-(C1009-Pad1)*%
X120200000Y-110637500D03*
%TO.P,C1009,2*%
%TO.N,IN2P*%
X120200000Y-112362500D03*
%TD*%
D22*
%TO.P,INM2,1,1*%
%TO.N,IN2M+*%
X125000000Y-106382500D03*
D23*
%TO.P,INM2,2,2*%
%TO.N,IN2M*%
X125000000Y-107482500D03*
%TD*%
D27*
%TO.P,C19,1*%
%TO.N,OUT1M*%
X93000000Y-116525000D03*
%TO.P,C19,2*%
%TO.N,Net-(C19-Pad2)*%
X93000000Y-113275000D03*
%TD*%
D20*
%TO.P,T\u002AC3,1*%
%TO.N,3.3V_A*%
X114434314Y-119475000D03*
%TO.P,T\u002AC3,2*%
%TO.N,GNDD*%
X114434314Y-117400000D03*
%TD*%
D22*
%TO.P,OM2,1,1*%
%TO.N,OUT2M+*%
X104200000Y-106400000D03*
D23*
%TO.P,OM2,2,2*%
%TO.N,OUT2M*%
X104200000Y-107500000D03*
%TD*%
D28*
%TO.P,3V3,1,A*%
%TO.N,3.3V_A*%
X126200000Y-119904000D03*
%TO.P,3V3,2,B*%
%TO.N,3.3V_LDO*%
X126200000Y-118900000D03*
%TD*%
D29*
%TO.P,SDA1001,1,A*%
%TO.N,DSP_SDA*%
X91096000Y-102400000D03*
D26*
%TO.P,SDA1001,2,B*%
%TO.N,5212_SDA*%
X92100000Y-102400000D03*
%TD*%
%TO.P,MCLK1,1,1*%
%TO.N,5212_MCLK1*%
X91100000Y-99700000D03*
%TO.P,MCLK1,2,2*%
%TO.N,GPI1*%
X92100000Y-99700000D03*
%TD*%
D30*
%TO.P,C21,1*%
%TO.N,OUT2M*%
X105100001Y-115800000D03*
%TO.P,C21,2*%
%TO.N,Net-(C21-Pad2)*%
X108350001Y-115800000D03*
%TD*%
D29*
%TO.P,SCL1001,1,A*%
%TO.N,DSP_SCL*%
X91096000Y-101000000D03*
D26*
%TO.P,SCL1001,2,B*%
%TO.N,5212_SCL*%
X92100000Y-101000000D03*
%TD*%
D31*
%TO.P,D1002,1,K*%
%TO.N,Net-(C1009-Pad1)*%
X120572500Y-105035000D03*
%TO.P,D1002,2,K*%
%TO.N,Earth*%
X119427500Y-105035000D03*
%TD*%
D32*
%TO.P,FB1003,1*%
%TO.N,IN1M+*%
X116300000Y-106625000D03*
%TO.P,FB1003,2*%
%TO.N,Net-(C1010-Pad1)*%
X116300000Y-108700000D03*
%TD*%
%TO.P,FB1004,1*%
%TO.N,IN1P+*%
X112700000Y-106462500D03*
%TO.P,FB1004,2*%
%TO.N,Net-(C1011-Pad1)*%
X112700000Y-108537500D03*
%TD*%
D31*
%TO.P,D1005,1,K*%
%TO.N,Net-(C1012-Pad1)*%
X124172500Y-105082500D03*
%TO.P,D1005,2,K*%
%TO.N,Earth*%
X123027500Y-105082500D03*
%TD*%
D33*
%TO.P,U2,1,IN*%
%TO.N,5V*%
X116261814Y-117277500D03*
%TO.P,U2,2,GND*%
%TO.N,GNDD*%
X117211814Y-117277500D03*
%TO.P,U2,3,EN*%
%TO.N,5V*%
X118161814Y-117277500D03*
%TO.P,U2,4,NC*%
%TO.N,unconnected-(U2-NC-Pad4)*%
X118161814Y-119552500D03*
%TO.P,U2,5,OUT*%
%TO.N,3.3V_A*%
X116261814Y-119552500D03*
%TD*%
D24*
%TO.P,D17,1,K*%
%TO.N,OUT1P+*%
X96327500Y-105100000D03*
%TO.P,D17,2,K*%
%TO.N,Earth*%
X97472500Y-105100000D03*
%TD*%
D21*
%TO.P,C1010,1*%
%TO.N,Net-(C1010-Pad1)*%
X116600000Y-110537500D03*
%TO.P,C1010,2*%
%TO.N,IN1M*%
X116600000Y-112262500D03*
%TD*%
D24*
%TO.P,D19,1,K*%
%TO.N,OUT2P+*%
X100627500Y-105100000D03*
%TO.P,D19,2,K*%
%TO.N,Earth*%
X101772500Y-105100000D03*
%TD*%
D27*
%TO.P,C18,1*%
%TO.N,OUT1P*%
X97300000Y-116525000D03*
%TO.P,C18,2*%
%TO.N,Net-(C18-Pad2)*%
X97300000Y-113275000D03*
%TD*%
D24*
%TO.P,D18,1,K*%
%TO.N,OUT1M+*%
X92027500Y-105100000D03*
%TO.P,D18,2,K*%
%TO.N,Earth*%
X93172500Y-105100000D03*
%TD*%
D27*
%TO.P,C20,1*%
%TO.N,OUT2P*%
X101600000Y-116525000D03*
%TO.P,C20,2*%
%TO.N,Net-(C20-Pad2)*%
X101600000Y-113275000D03*
%TD*%
D31*
%TO.P,D1003,1,K*%
%TO.N,Net-(C1010-Pad1)*%
X116972500Y-105035000D03*
%TO.P,D1003,2,K*%
%TO.N,Earth*%
X115827500Y-105035000D03*
%TD*%
D22*
%TO.P,OP1,1,1*%
%TO.N,OUT1P+*%
X96000000Y-106400000D03*
D23*
%TO.P,OP1,2,2*%
%TO.N,OUT1P*%
X96000000Y-107500000D03*
%TD*%
D22*
%TO.P,INM1,1,1*%
%TO.N,IN1M+*%
X117800000Y-106262500D03*
D23*
%TO.P,INM1,2,2*%
%TO.N,IN1M*%
X117800000Y-107362500D03*
%TD*%
D32*
%TO.P,FB1002,1*%
%TO.N,IN2P+*%
X119900000Y-106697500D03*
%TO.P,FB1002,2*%
%TO.N,Net-(C1009-Pad1)*%
X119900000Y-108772500D03*
%TD*%
%TO.P,FB1001,1*%
%TO.N,IN2M+*%
X123500000Y-106735000D03*
%TO.P,FB1001,2*%
%TO.N,Net-(C1012-Pad1)*%
X123500000Y-108810000D03*
%TD*%
D31*
%TO.P,D1004,1,K*%
%TO.N,Net-(C1011-Pad1)*%
X113372500Y-104900000D03*
%TO.P,D1004,2,K*%
%TO.N,Earth*%
X112227500Y-104900000D03*
%TD*%
D22*
%TO.P,OM1,1,1*%
%TO.N,OUT1M+*%
X91700000Y-107600000D03*
D23*
%TO.P,OM1,2,2*%
%TO.N,OUT1M*%
X91700000Y-106500000D03*
%TD*%
D22*
%TO.P,INP1,1,1*%
%TO.N,IN1P+*%
X114200000Y-106325000D03*
D23*
%TO.P,INP1,2,2*%
%TO.N,IN1P*%
X114200000Y-107425000D03*
%TD*%
D34*
%TO.N,GNDD*%
X106600000Y-117100000D03*
X92007996Y-109004013D03*
X100718700Y-117875000D03*
%TO.N,5V*%
X94569964Y-120430000D03*
%TO.N,Earth*%
X112825000Y-110300000D03*
%TO.N,5212_SCL*%
X102047500Y-119900002D03*
%TO.N,5212_SDA*%
X91910027Y-120067151D03*
X92000000Y-103300000D03*
%TO.N,3.3V_LDO*%
X105730761Y-118897714D03*
X100675000Y-108873986D03*
X92800004Y-114900000D03*
%TO.N,GPI1*%
X85600000Y-116400000D03*
%TO.N,Net-(PU_EN1001-Pad1)*%
X110338844Y-119622742D03*
X104430004Y-119430004D03*
%TD*%
D35*
%TO.N,Net-(PU_EN1001-Pad1)*%
X109561586Y-120400000D02*
X105400000Y-120400000D01*
X105400000Y-120400000D02*
X104430004Y-119430004D01*
X110338844Y-119622742D02*
X109561586Y-120400000D01*
%TO.N,GNDD*%
X117974314Y-115340000D02*
X120034314Y-117400000D01*
X109200000Y-107804000D02*
X109200000Y-109515076D01*
X114434314Y-117400000D02*
X114434314Y-116812500D01*
X115299314Y-118265000D02*
X116886813Y-118265000D01*
X122134314Y-117400000D02*
X120034314Y-117400000D01*
X114434314Y-116812500D02*
X115906814Y-115340000D01*
X114434314Y-117400000D02*
X115299314Y-118265000D01*
X117211814Y-117939999D02*
X117211814Y-117277500D01*
X115906814Y-115340000D02*
X117974314Y-115340000D01*
X116886813Y-118265000D02*
X117211814Y-117939999D01*
D36*
%TO.N,5V*%
X117666274Y-116040000D02*
X118161814Y-116535540D01*
X116757354Y-116040000D02*
X117666274Y-116040000D01*
X122134314Y-119475000D02*
X122942500Y-119475000D01*
X116261815Y-117277500D02*
X116261815Y-116535539D01*
X118161814Y-117602500D02*
X120034314Y-119475000D01*
X122942500Y-119475000D02*
X124892500Y-117525000D01*
X118161814Y-116535540D02*
X118161814Y-117602500D01*
X122134316Y-119475000D02*
X120034314Y-119475000D01*
X116261815Y-116535539D02*
X116757354Y-116040000D01*
D35*
%TO.N,Earth*%
X114260799Y-104060799D02*
X114260799Y-103460000D01*
X115200000Y-107793996D02*
X114800000Y-107393996D01*
X104400000Y-118100000D02*
X108295101Y-118100000D01*
X114800000Y-107393996D02*
X114800000Y-104600000D01*
X104354672Y-104000000D02*
X107074201Y-104000000D01*
X116112500Y-100920000D02*
X117287500Y-99745000D01*
X119340799Y-103460000D02*
X118652500Y-102771701D01*
X125900000Y-110200000D02*
X125900000Y-104170799D01*
X121474201Y-99745000D02*
X119827500Y-99745000D01*
X122897924Y-113700000D02*
X122000000Y-112802076D01*
X122000000Y-112802076D02*
X122000000Y-105900000D01*
X117100000Y-114000000D02*
X116900000Y-114000000D01*
X114797924Y-114500000D02*
X112900000Y-112602076D01*
X99450000Y-107077500D02*
X97472500Y-105100000D01*
X118400000Y-114000000D02*
X118400000Y-112525000D01*
X111700000Y-104900000D02*
X112227500Y-104900000D01*
X118652500Y-100920000D02*
X119827500Y-99745000D01*
X122000000Y-105900000D02*
X122817500Y-105082500D01*
X109500000Y-113775000D02*
X106950000Y-111225000D01*
X106950000Y-106577500D02*
X105472500Y-105100000D01*
X112900000Y-110370100D02*
X111200000Y-108670100D01*
X116900000Y-114000000D02*
X115200000Y-112300000D01*
X116560000Y-103460000D02*
X116112500Y-103012500D01*
X122817500Y-105082500D02*
X123027500Y-105082500D01*
X99625000Y-109556398D02*
X99450000Y-109381398D01*
X125900000Y-104170799D02*
X121474201Y-99745000D01*
X113572500Y-101110000D02*
X112207500Y-99745000D01*
X123500000Y-113700000D02*
X122897924Y-113700000D01*
X103925000Y-109275000D02*
X103620000Y-108970000D01*
X118375000Y-112500000D02*
X118375000Y-104675000D01*
X115200000Y-112300000D02*
X115200000Y-107793996D01*
X122582500Y-105082500D02*
X120960000Y-103460000D01*
X112900000Y-112602076D02*
X112900000Y-110370100D01*
X99600000Y-118200000D02*
X99625000Y-118175000D01*
X108302500Y-100920000D02*
X107127500Y-99745000D01*
X95325000Y-116445100D02*
X95325000Y-108887500D01*
X103200000Y-119300000D02*
X104400000Y-118100000D01*
X108302500Y-102771701D02*
X108302500Y-100920000D01*
X99450000Y-109381398D02*
X99450000Y-107077500D01*
X102000000Y-107350000D02*
X102000000Y-106962500D01*
X118652500Y-102771701D02*
X118652500Y-100920000D01*
X95325000Y-108887500D02*
X93400000Y-106962500D01*
X111200000Y-105400000D02*
X111700000Y-104900000D01*
X115800000Y-114500000D02*
X114797924Y-114500000D01*
X103925000Y-117075000D02*
X103925000Y-109275000D01*
X106950000Y-111225000D02*
X106950000Y-106577500D01*
X109500000Y-116895101D02*
X109500000Y-113775000D01*
X118400000Y-112525000D02*
X118375000Y-112500000D01*
X93370100Y-118400000D02*
X95325000Y-116445100D01*
X92300000Y-118400000D02*
X93370100Y-118400000D01*
X114260799Y-103460000D02*
X113572500Y-102771701D01*
X116112500Y-103012500D02*
X116112500Y-100920000D01*
X114800000Y-104600000D02*
X114260799Y-104060799D01*
X123027500Y-105082500D02*
X122582500Y-105082500D01*
X117160000Y-103460000D02*
X116560000Y-103460000D01*
X113572500Y-102771701D02*
X113572500Y-101110000D01*
X103620000Y-104734672D02*
X104354672Y-104000000D01*
X103620000Y-108970000D02*
X103620000Y-104734672D01*
X111200000Y-108670100D02*
X111200000Y-105400000D01*
X99625000Y-118175000D02*
X99625000Y-109556398D01*
X107074201Y-104000000D02*
X108302500Y-102771701D01*
X108295101Y-118100000D02*
X109500000Y-116895101D01*
X120960000Y-103460000D02*
X119340799Y-103460000D01*
X102600000Y-118400000D02*
X103925000Y-117075000D01*
X118375000Y-104675000D02*
X117160000Y-103460000D01*
%TO.N,Net-(C1009-Pad1)*%
X119907501Y-105700000D02*
X120572501Y-105035000D01*
X119264900Y-105700000D02*
X119907501Y-105700000D01*
X118850000Y-106114900D02*
X119264900Y-105700000D01*
X120200000Y-110637500D02*
X120200000Y-109072500D01*
X120200000Y-109072500D02*
X119900000Y-108772500D01*
X118850000Y-107280100D02*
X118850000Y-106114900D01*
X119900000Y-108330100D02*
X118850000Y-107280100D01*
X119900000Y-108772500D02*
X119900000Y-108330100D01*
%TO.N,IN2P*%
X120200000Y-112362500D02*
X121400000Y-111162500D01*
X121400000Y-111162500D02*
X121400000Y-107435000D01*
%TO.N,Net-(C1010-Pad1)*%
X116300000Y-108700000D02*
X116300000Y-108257600D01*
X115250000Y-107207600D02*
X115250000Y-106042400D01*
X116600000Y-109000000D02*
X116300000Y-108700000D01*
X115250000Y-106042400D02*
X115592400Y-105700000D01*
X116600000Y-110537500D02*
X116600000Y-109000000D01*
X116307501Y-105700000D02*
X116972501Y-105035000D01*
X115592400Y-105700000D02*
X116307501Y-105700000D01*
X116300000Y-108257600D02*
X115250000Y-107207600D01*
%TO.N,IN1M*%
X116600000Y-112262500D02*
X117800000Y-111062500D01*
X117800000Y-111062500D02*
X117800000Y-107362500D01*
%TO.N,Net-(C1011-Pad1)*%
X111650000Y-107487500D02*
X111650000Y-105879900D01*
X112727501Y-105545000D02*
X113372501Y-104900000D01*
X111984900Y-105545000D02*
X112727501Y-105545000D01*
X113900000Y-110537500D02*
X113900000Y-109737500D01*
X111650000Y-105879900D02*
X111984900Y-105545000D01*
X112700000Y-108537500D02*
X111650000Y-107487500D01*
X113900000Y-109737500D02*
X112700000Y-108537500D01*
%TO.N,IN1P*%
X113900000Y-112262500D02*
X114700000Y-111462500D01*
X114700000Y-107930392D02*
X114200000Y-107430392D01*
X114200000Y-107430392D02*
X114200000Y-107425000D01*
X114700000Y-111462500D02*
X114700000Y-107930392D01*
%TO.N,Net-(C1012-Pad1)*%
X122450000Y-106152400D02*
X122779900Y-105822500D01*
X122779900Y-105822500D02*
X123432501Y-105822500D01*
X123500000Y-108810000D02*
X122450000Y-107760000D01*
X123432501Y-105822500D02*
X124172501Y-105082500D01*
X123500000Y-109837500D02*
X123500000Y-108810000D01*
X122450000Y-107760000D02*
X122450000Y-106152400D01*
X122800000Y-110537500D02*
X123500000Y-109837500D01*
%TO.N,IN2M*%
X123950000Y-109992600D02*
X125000000Y-108942600D01*
X122800000Y-112262500D02*
X122800000Y-111977076D01*
X123950000Y-110827076D02*
X123950000Y-109992600D01*
X122800000Y-111977076D02*
X123950000Y-110827076D01*
X125000000Y-108942600D02*
X125000000Y-107482500D01*
%TO.N,OUT1P*%
X95775000Y-115000000D02*
X95775000Y-107725000D01*
X97300000Y-116525000D02*
X95775000Y-115000000D01*
X95775000Y-107725000D02*
X96000000Y-107500000D01*
%TO.N,Net-(C18-Pad2)*%
X98700000Y-111100000D02*
X98700000Y-111875000D01*
X98700000Y-111875000D02*
X97300000Y-113275000D01*
%TO.N,OUT1M*%
X91125000Y-107075001D02*
X91700000Y-106500001D01*
X93000000Y-116525000D02*
X91125000Y-114650000D01*
X91125000Y-114650000D02*
X91125000Y-107075001D01*
%TO.N,Net-(C19-Pad2)*%
X93000000Y-113275000D02*
X93000000Y-111700000D01*
X93000000Y-111700000D02*
X92400000Y-111100000D01*
%TO.N,OUT2P*%
X100075000Y-115000000D02*
X100075000Y-109370002D01*
X99900000Y-107825000D02*
X100300000Y-107425000D01*
X99900000Y-109195002D02*
X99900000Y-107825000D01*
X101600000Y-116525000D02*
X100075000Y-115000000D01*
X100075000Y-109370002D02*
X99900000Y-109195002D01*
%TO.N,Net-(C20-Pad2)*%
X103000000Y-111875000D02*
X101600000Y-113275000D01*
X103000000Y-111100000D02*
X103000000Y-111875000D01*
%TO.N,OUT2M*%
X104200000Y-108000000D02*
X104200000Y-107500000D01*
X105100001Y-115800000D02*
X104400000Y-115099999D01*
X104400000Y-115099999D02*
X104400000Y-108200000D01*
X104400000Y-108200000D02*
X104200000Y-108000000D01*
%TO.N,Net-(C21-Pad2)*%
X105550001Y-113000000D02*
X108350001Y-115800000D01*
X105500000Y-113000000D02*
X105550001Y-113000000D01*
%TO.N,5212_SCL*%
X89634201Y-101105000D02*
X88495000Y-101105000D01*
X88100000Y-101500000D02*
X88100000Y-120484201D01*
X88495000Y-101105000D02*
X88100000Y-101500000D01*
X92668980Y-121235000D02*
X94248980Y-119655000D01*
X102047500Y-122605000D02*
X102047500Y-119900002D01*
X91400000Y-100300000D02*
X90439201Y-100300000D01*
X92100000Y-101000000D02*
X91400000Y-100300000D01*
X94248980Y-119655000D02*
X99097500Y-119655000D01*
X88850799Y-121235000D02*
X92668980Y-121235000D01*
X88100000Y-120484201D02*
X88850799Y-121235000D01*
X90439201Y-100300000D02*
X89634201Y-101105000D01*
X99097500Y-119655000D02*
X102047500Y-122605000D01*
%TO.N,5212_SDA*%
X92000000Y-102500000D02*
X92100000Y-102400000D01*
X92000000Y-103300000D02*
X92000000Y-102500000D01*
D36*
%TO.N,3.3V_LDO*%
X126317500Y-116410000D02*
X124892500Y-114985000D01*
X126317500Y-118782501D02*
X126317500Y-116410000D01*
X126200000Y-118900001D02*
X126317500Y-118782501D01*
D35*
%TO.N,5212_MCLK1*%
X89377500Y-99700000D02*
X89337500Y-99740000D01*
X91100000Y-99700000D02*
X89377500Y-99700000D01*
%TO.N,GPI1*%
X92100000Y-99700000D02*
X90965000Y-98565000D01*
X90965000Y-98565000D02*
X86310799Y-98565000D01*
X85600000Y-99275799D02*
X85600000Y-116400000D01*
X86310799Y-98565000D02*
X85600000Y-99275799D01*
%TO.N,DSP_SCL*%
X91096000Y-101000000D02*
X90617500Y-101000000D01*
X90617500Y-101000000D02*
X89337500Y-102280000D01*
%TO.N,DSP_SDA*%
X91096000Y-103061500D02*
X91096000Y-102400000D01*
X89337500Y-104820000D02*
X91096000Y-103061500D01*
%TO.N,OUT1M+*%
X95157500Y-101970000D02*
X92027500Y-105100000D01*
X91962500Y-107600000D02*
X93400000Y-109037500D01*
X94400000Y-110037500D02*
X93400000Y-109037500D01*
X92350000Y-107450000D02*
X92350000Y-105422500D01*
X98734126Y-101110000D02*
X97874126Y-101970000D01*
X97874126Y-101970000D02*
X95157500Y-101970000D01*
X104587500Y-102285000D02*
X103412500Y-101110000D01*
X91700000Y-107600000D02*
X92200000Y-107600000D01*
X91700000Y-107600000D02*
X91962500Y-107600000D01*
X92350000Y-105422500D02*
X92027500Y-105100000D01*
X92200000Y-107600000D02*
X92350000Y-107450000D01*
X103412500Y-101110000D02*
X98734126Y-101110000D01*
X94400000Y-111100000D02*
X94400000Y-110037500D01*
%TO.N,OUT2M+*%
X104327500Y-105100000D02*
X104327500Y-106272500D01*
X104327500Y-105100000D02*
X104972500Y-104455000D01*
X104327500Y-106272500D02*
X104200000Y-106400000D01*
X104850000Y-107987500D02*
X104850000Y-106915380D01*
X105900000Y-109037500D02*
X104850000Y-107987500D01*
X105500000Y-109437500D02*
X105900000Y-109037500D01*
X104334620Y-106400000D02*
X104200000Y-106400000D01*
X104972500Y-104455000D02*
X107497500Y-104455000D01*
X104850000Y-106915380D02*
X104334620Y-106400000D01*
X105500000Y-111000000D02*
X105500000Y-109437500D01*
X107497500Y-104455000D02*
X109667500Y-102285000D01*
%TO.N,OUT2P+*%
X100300000Y-105427500D02*
X100627500Y-105100000D01*
X100627500Y-105100000D02*
X102267500Y-103460000D01*
X102000000Y-109037500D02*
X100950000Y-107987500D01*
X100300000Y-106325000D02*
X100300000Y-105427500D01*
X102000000Y-110100000D02*
X101000000Y-111100000D01*
X100725000Y-106325000D02*
X100300000Y-106325000D01*
X102267500Y-103460000D02*
X105403276Y-103460000D01*
X105403276Y-103460000D02*
X106578276Y-102285000D01*
X106578276Y-102285000D02*
X107127500Y-102285000D01*
X100950000Y-106550000D02*
X100725000Y-106325000D01*
X100950000Y-107987500D02*
X100950000Y-106550000D01*
X102000000Y-109037500D02*
X102000000Y-110100000D01*
%TO.N,IN1M+*%
X115972500Y-103910000D02*
X114347500Y-102285000D01*
X116662500Y-106262500D02*
X117800000Y-106262500D01*
X116920328Y-103910000D02*
X115972500Y-103910000D01*
X117800000Y-106262500D02*
X117800000Y-104789672D01*
X116300000Y-106625000D02*
X116662500Y-106262500D01*
X117800000Y-104789672D02*
X116920328Y-103910000D01*
%TO.N,IN1P+*%
X114200000Y-106325000D02*
X114200000Y-104654671D01*
X114200000Y-104654671D02*
X111830329Y-102285000D01*
X112700000Y-106462500D02*
X112837500Y-106325000D01*
X112837500Y-106325000D02*
X114200000Y-106325000D01*
X112230329Y-102285000D02*
X112207500Y-102285000D01*
%TO.N,IN2P+*%
X120262500Y-106335000D02*
X121400000Y-106335000D01*
X121400000Y-104789672D02*
X120560328Y-103950000D01*
X118552500Y-103950000D02*
X116887500Y-102285000D01*
X120560328Y-103950000D02*
X118552500Y-103950000D01*
X119900000Y-106697500D02*
X120262500Y-106335000D01*
X121400000Y-106335000D02*
X121400000Y-104789672D01*
%TO.N,IN2M+*%
X120690799Y-102285000D02*
X122005799Y-103600000D01*
X124500000Y-103600000D02*
X125000000Y-104100000D01*
X123500000Y-106735000D02*
X123852500Y-106382500D01*
X123852500Y-106382500D02*
X125000000Y-106382500D01*
X125000000Y-104100000D02*
X125000000Y-106382500D01*
X119827500Y-102285000D02*
X120690799Y-102285000D01*
X122005799Y-103600000D02*
X124500000Y-103600000D01*
%TO.N,OUT1P+*%
X96500000Y-106400000D02*
X96000000Y-106400000D01*
X96650000Y-106550000D02*
X96500000Y-106400000D01*
X96700000Y-110037500D02*
X97700000Y-109037500D01*
X99142500Y-102285000D02*
X102047500Y-102285000D01*
X97700000Y-109037500D02*
X96650000Y-107987500D01*
X96650000Y-107987500D02*
X96650000Y-106550000D01*
X96000000Y-105427500D02*
X96327500Y-105100000D01*
X96327500Y-105100000D02*
X99142500Y-102285000D01*
X96000000Y-106400000D02*
X96000000Y-105427500D01*
X96700000Y-111100000D02*
X96700000Y-110037500D01*
%TO.N,3.3V_A*%
X114434314Y-119475000D02*
X116184314Y-119475000D01*
X116261814Y-119552500D02*
X117249314Y-120540000D01*
X117249314Y-120540000D02*
X125564000Y-120540000D01*
X125564000Y-120540000D02*
X126200000Y-119904000D01*
X116184314Y-119475000D02*
X116261814Y-119552500D01*
%TD*%
%TA.AperFunction,Conductor*%
%TO.N,Earth*%
G36*
X96058017Y-97963907D02*
G01*
X96093981Y-98013407D01*
X96093981Y-98074593D01*
X96058017Y-98124093D01*
X96047272Y-98130890D01*
X95949488Y-98184283D01*
X95737590Y-98342908D01*
X95550408Y-98530090D01*
X95391783Y-98741988D01*
X95264927Y-98974307D01*
X95264926Y-98974309D01*
X95172424Y-99222317D01*
X95116156Y-99480979D01*
X95097273Y-99745000D01*
X95116156Y-100009020D01*
X95116156Y-100009023D01*
X95116157Y-100009026D01*
X95172423Y-100267678D01*
X95172424Y-100267682D01*
X95264926Y-100515690D01*
X95264927Y-100515692D01*
X95391784Y-100748011D01*
X95391783Y-100748011D01*
X95550408Y-100959909D01*
X95550410Y-100959911D01*
X95550413Y-100959915D01*
X95737585Y-101147087D01*
X95737588Y-101147089D01*
X95737590Y-101147091D01*
X95949488Y-101305716D01*
X96137924Y-101408610D01*
X96179935Y-101453092D01*
X96187777Y-101513773D01*
X96158454Y-101567474D01*
X96103166Y-101593684D01*
X96090478Y-101594500D01*
X95206936Y-101594500D01*
X95108064Y-101594500D01*
X95060313Y-101607295D01*
X95060312Y-101607294D01*
X95012562Y-101620089D01*
X95012558Y-101620091D01*
X94926936Y-101669525D01*
X94926937Y-101669526D01*
X92095957Y-104500504D01*
X92041440Y-104528281D01*
X92025953Y-104529500D01*
X91772691Y-104529500D01*
X91676567Y-104544725D01*
X91676560Y-104544727D01*
X91560708Y-104603757D01*
X91468757Y-104695708D01*
X91409726Y-104811563D01*
X91409725Y-104811565D01*
X91394500Y-104907691D01*
X91394500Y-105292308D01*
X91409725Y-105388432D01*
X91409727Y-105388439D01*
X91468757Y-105504291D01*
X91468759Y-105504294D01*
X91560706Y-105596241D01*
X91560708Y-105596242D01*
X91674492Y-105654218D01*
X91676567Y-105655275D01*
X91772693Y-105670500D01*
X91875500Y-105670499D01*
X91933690Y-105689406D01*
X91969654Y-105738905D01*
X91974500Y-105769499D01*
X91974500Y-105900500D01*
X91955593Y-105958691D01*
X91906093Y-105994655D01*
X91875500Y-105999500D01*
X91425326Y-105999500D01*
X91425325Y-105999500D01*
X91425315Y-105999501D01*
X91352263Y-106014033D01*
X91352257Y-106014035D01*
X91269400Y-106069397D01*
X91269397Y-106069400D01*
X91214035Y-106152257D01*
X91214033Y-106152263D01*
X91199501Y-106225315D01*
X91199500Y-106225327D01*
X91199500Y-106428456D01*
X91180593Y-106486647D01*
X91170509Y-106498453D01*
X90894438Y-106774526D01*
X90894437Y-106774525D01*
X90824524Y-106844439D01*
X90775091Y-106930059D01*
X90775088Y-106930066D01*
X90765777Y-106964815D01*
X90765778Y-106964816D01*
X90749632Y-107025075D01*
X90749606Y-107025169D01*
X90749501Y-107025557D01*
X90749500Y-107025564D01*
X90749500Y-107025566D01*
X90749500Y-114699435D01*
X90767741Y-114767512D01*
X90775091Y-114794942D01*
X90824525Y-114880563D01*
X90824526Y-114880563D01*
X91612504Y-115668541D01*
X91640281Y-115723058D01*
X91631990Y-115775405D01*
X91633678Y-115776035D01*
X91580910Y-115917512D01*
X91580908Y-115917523D01*
X91576533Y-115958210D01*
X91574500Y-115977128D01*
X91574500Y-117072872D01*
X91576488Y-117091361D01*
X91580908Y-117132476D01*
X91580910Y-117132487D01*
X91631202Y-117267328D01*
X91707942Y-117369840D01*
X91717454Y-117382546D01*
X91717457Y-117382548D01*
X91717458Y-117382549D01*
X91832671Y-117468797D01*
X91967512Y-117519089D01*
X91967513Y-117519089D01*
X91967518Y-117519091D01*
X92027128Y-117525500D01*
X92027131Y-117525500D01*
X93972869Y-117525500D01*
X93972872Y-117525500D01*
X94032482Y-117519091D01*
X94079304Y-117501627D01*
X94167328Y-117468797D01*
X94167328Y-117468796D01*
X94167330Y-117468796D01*
X94282546Y-117382546D01*
X94368796Y-117267330D01*
X94372718Y-117256816D01*
X94419089Y-117132487D01*
X94419088Y-117132487D01*
X94419091Y-117132482D01*
X94425500Y-117072872D01*
X94425500Y-115977128D01*
X94419091Y-115917518D01*
X94419089Y-115917512D01*
X94368797Y-115782671D01*
X94282549Y-115667458D01*
X94282548Y-115667457D01*
X94282546Y-115667454D01*
X94278835Y-115664676D01*
X94167328Y-115581202D01*
X94032487Y-115530910D01*
X94032482Y-115530909D01*
X94032480Y-115530908D01*
X94032476Y-115530908D01*
X94001248Y-115527550D01*
X93972872Y-115524500D01*
X93972869Y-115524500D01*
X93337097Y-115524500D01*
X93278906Y-115505593D01*
X93242942Y-115456093D01*
X93242942Y-115394907D01*
X93271447Y-115351398D01*
X93274857Y-115348376D01*
X93290487Y-115334530D01*
X93380224Y-115204523D01*
X93436241Y-115056818D01*
X93455282Y-114900000D01*
X93436241Y-114743182D01*
X93380224Y-114595477D01*
X93290487Y-114465470D01*
X93271447Y-114448602D01*
X93240429Y-114395862D01*
X93246335Y-114334962D01*
X93286908Y-114289165D01*
X93337097Y-114275500D01*
X93972869Y-114275500D01*
X93972872Y-114275500D01*
X94032482Y-114269091D01*
X94104168Y-114242354D01*
X94167328Y-114218797D01*
X94167328Y-114218796D01*
X94167330Y-114218796D01*
X94282546Y-114132546D01*
X94368796Y-114017330D01*
X94368929Y-114016975D01*
X94419089Y-113882487D01*
X94419088Y-113882487D01*
X94419091Y-113882482D01*
X94425500Y-113822872D01*
X94425500Y-112727128D01*
X94419091Y-112667518D01*
X94419011Y-112667304D01*
X94368797Y-112532671D01*
X94282549Y-112417458D01*
X94282548Y-112417457D01*
X94282546Y-112417454D01*
X94282541Y-112417450D01*
X94167328Y-112331202D01*
X94032487Y-112280910D01*
X94032482Y-112280909D01*
X94032480Y-112280908D01*
X94032476Y-112280908D01*
X94001248Y-112277550D01*
X93972872Y-112274500D01*
X93972869Y-112274500D01*
X93474500Y-112274500D01*
X93416309Y-112255593D01*
X93380345Y-112206093D01*
X93375500Y-112175500D01*
X93375500Y-111650566D01*
X93374653Y-111644133D01*
X93376991Y-111643825D01*
X93379647Y-111593020D01*
X93413325Y-111551420D01*
X93387440Y-111554203D01*
X93334379Y-111523736D01*
X93322058Y-111506820D01*
X93308918Y-111484062D01*
X93296195Y-111424214D01*
X93300500Y-111384174D01*
X93300500Y-110815826D01*
X93294251Y-110757701D01*
X93288569Y-110742467D01*
X93245213Y-110626223D01*
X93161119Y-110513888D01*
X93161118Y-110513887D01*
X93161116Y-110513884D01*
X93140702Y-110498602D01*
X93048776Y-110429786D01*
X92917304Y-110380750D01*
X92917299Y-110380749D01*
X92917297Y-110380748D01*
X92917293Y-110380748D01*
X92891011Y-110377922D01*
X92859174Y-110374500D01*
X92190826Y-110374500D01*
X92162823Y-110377510D01*
X92132706Y-110380748D01*
X92132695Y-110380750D01*
X92001223Y-110429786D01*
X91888888Y-110513880D01*
X91888880Y-110513888D01*
X91804786Y-110626223D01*
X91755750Y-110757695D01*
X91755748Y-110757706D01*
X91749500Y-110815829D01*
X91749500Y-111384170D01*
X91749499Y-111384170D01*
X91755748Y-111442293D01*
X91755750Y-111442304D01*
X91804786Y-111573776D01*
X91862271Y-111650566D01*
X91888884Y-111686116D01*
X91888887Y-111686118D01*
X91888888Y-111686119D01*
X92001223Y-111770213D01*
X92132695Y-111819249D01*
X92132696Y-111819249D01*
X92132701Y-111819251D01*
X92190826Y-111825500D01*
X92525500Y-111825500D01*
X92583691Y-111844407D01*
X92619655Y-111893907D01*
X92624500Y-111924500D01*
X92624500Y-112175500D01*
X92605593Y-112233691D01*
X92556093Y-112269655D01*
X92525500Y-112274500D01*
X92027128Y-112274500D01*
X92002637Y-112277133D01*
X91967523Y-112280908D01*
X91967512Y-112280910D01*
X91832671Y-112331202D01*
X91717458Y-112417450D01*
X91717450Y-112417458D01*
X91678753Y-112469152D01*
X91628745Y-112504405D01*
X91567566Y-112503531D01*
X91518584Y-112466864D01*
X91500500Y-112409823D01*
X91500500Y-109636074D01*
X91519407Y-109577883D01*
X91568907Y-109541919D01*
X91630093Y-109541919D01*
X91645505Y-109548412D01*
X91775631Y-109616709D01*
X91929011Y-109654513D01*
X91929014Y-109654513D01*
X92086978Y-109654513D01*
X92086981Y-109654513D01*
X92240361Y-109616709D01*
X92380236Y-109543296D01*
X92498479Y-109438543D01*
X92550401Y-109363319D01*
X92599016Y-109326171D01*
X92660183Y-109324691D01*
X92710538Y-109359448D01*
X92724634Y-109384960D01*
X92729788Y-109398778D01*
X92803239Y-109496897D01*
X92813884Y-109511116D01*
X92813887Y-109511118D01*
X92813888Y-109511119D01*
X92926223Y-109595213D01*
X93057695Y-109644249D01*
X93057696Y-109644249D01*
X93057701Y-109644251D01*
X93115826Y-109650500D01*
X93440955Y-109650500D01*
X93499146Y-109669407D01*
X93510959Y-109679496D01*
X93995504Y-110164041D01*
X94023281Y-110218558D01*
X94024500Y-110234045D01*
X94024500Y-110276577D01*
X94005593Y-110334768D01*
X93956093Y-110370732D01*
X93936082Y-110375010D01*
X93882706Y-110380748D01*
X93882695Y-110380750D01*
X93751223Y-110429786D01*
X93638888Y-110513880D01*
X93638880Y-110513888D01*
X93554786Y-110626223D01*
X93505750Y-110757695D01*
X93505748Y-110757706D01*
X93499500Y-110815829D01*
X93499500Y-111384170D01*
X93499499Y-111384170D01*
X93506226Y-111446736D01*
X93493647Y-111506614D01*
X93464412Y-111533062D01*
X93477245Y-111529622D01*
X93534369Y-111551542D01*
X93551329Y-111569158D01*
X93612271Y-111650566D01*
X93638884Y-111686116D01*
X93638887Y-111686118D01*
X93638888Y-111686119D01*
X93751223Y-111770213D01*
X93882695Y-111819249D01*
X93882696Y-111819249D01*
X93882701Y-111819251D01*
X93940826Y-111825500D01*
X93940830Y-111825500D01*
X94609170Y-111825500D01*
X94609174Y-111825500D01*
X94667299Y-111819251D01*
X94732911Y-111794779D01*
X94798776Y-111770213D01*
X94798776Y-111770212D01*
X94798778Y-111770212D01*
X94911116Y-111686116D01*
X94995212Y-111573778D01*
X94999767Y-111561567D01*
X95039271Y-111455652D01*
X95044251Y-111442299D01*
X95050500Y-111384174D01*
X95050500Y-110815826D01*
X95044251Y-110757701D01*
X95038569Y-110742467D01*
X94995213Y-110626223D01*
X94911119Y-110513888D01*
X94911118Y-110513887D01*
X94911116Y-110513884D01*
X94890702Y-110498602D01*
X94815171Y-110442059D01*
X94779918Y-110392050D01*
X94775500Y-110362806D01*
X94775500Y-109988066D01*
X94775500Y-109988065D01*
X94774455Y-109984165D01*
X94749911Y-109892563D01*
X94749908Y-109892557D01*
X94700478Y-109806942D01*
X94700477Y-109806941D01*
X94700476Y-109806940D01*
X94700475Y-109806938D01*
X94154496Y-109260959D01*
X94126719Y-109206442D01*
X94125500Y-109190955D01*
X94125500Y-108515829D01*
X94125500Y-108515826D01*
X94119251Y-108457701D01*
X94114155Y-108444037D01*
X94070213Y-108326223D01*
X94016908Y-108255017D01*
X93987066Y-108215153D01*
X93967330Y-108157240D01*
X93985404Y-108098786D01*
X94014347Y-108071565D01*
X94098038Y-108019943D01*
X94219946Y-107898035D01*
X94310451Y-107751306D01*
X94364681Y-107587648D01*
X94375000Y-107486655D01*
X94375000Y-107387501D01*
X94374999Y-107387500D01*
X93249000Y-107387500D01*
X93190809Y-107368593D01*
X93154845Y-107319093D01*
X93150000Y-107288500D01*
X93150000Y-106986500D01*
X93168907Y-106928309D01*
X93218407Y-106892345D01*
X93249000Y-106887500D01*
X94374998Y-106887500D01*
X94374999Y-106887499D01*
X94374999Y-106788345D01*
X94364682Y-106687357D01*
X94364679Y-106687345D01*
X94310451Y-106523693D01*
X94219946Y-106376964D01*
X94098035Y-106255053D01*
X93951306Y-106164548D01*
X93787648Y-106110318D01*
X93686655Y-106100000D01*
X93568281Y-106100000D01*
X93510090Y-106081093D01*
X93474126Y-106031593D01*
X93474126Y-105970407D01*
X93510090Y-105920907D01*
X93538828Y-105906483D01*
X93667855Y-105866276D01*
X93667867Y-105866271D01*
X93805020Y-105783359D01*
X93918359Y-105670020D01*
X94001271Y-105532867D01*
X94001276Y-105532855D01*
X94048956Y-105379844D01*
X94051668Y-105350000D01*
X93021500Y-105350000D01*
X92963309Y-105331093D01*
X92927345Y-105281593D01*
X92922500Y-105251000D01*
X92922500Y-104949000D01*
X92941407Y-104890809D01*
X92990907Y-104854845D01*
X93021500Y-104850000D01*
X94051668Y-104850000D01*
X94051668Y-104849999D01*
X94048956Y-104820155D01*
X94001276Y-104667144D01*
X94001271Y-104667132D01*
X93918359Y-104529979D01*
X93805020Y-104416640D01*
X93667867Y-104333728D01*
X93667855Y-104333723D01*
X93562663Y-104300944D01*
X93512732Y-104265581D01*
X93493123Y-104207623D01*
X93511326Y-104149208D01*
X93522104Y-104136431D01*
X95284041Y-102374496D01*
X95338558Y-102346719D01*
X95354045Y-102345500D01*
X97923562Y-102345500D01*
X97971312Y-102332705D01*
X97971313Y-102332705D01*
X98019060Y-102319911D01*
X98019059Y-102319911D01*
X98019064Y-102319910D01*
X98104688Y-102270475D01*
X98174601Y-102200562D01*
X98174600Y-102200562D01*
X98860668Y-101514496D01*
X98915184Y-101486719D01*
X98930671Y-101485500D01*
X100848000Y-101485500D01*
X100906191Y-101504407D01*
X100942155Y-101553907D01*
X100947000Y-101584500D01*
X100947000Y-101810500D01*
X100928093Y-101868691D01*
X100878593Y-101904655D01*
X100848000Y-101909500D01*
X99191936Y-101909500D01*
X99093064Y-101909500D01*
X99051774Y-101920564D01*
X99051773Y-101920563D01*
X98997565Y-101935088D01*
X98997558Y-101935091D01*
X98911936Y-101984525D01*
X98911937Y-101984526D01*
X96395957Y-104500504D01*
X96341440Y-104528281D01*
X96325953Y-104529500D01*
X96072691Y-104529500D01*
X95976567Y-104544725D01*
X95976560Y-104544727D01*
X95860708Y-104603757D01*
X95768757Y-104695708D01*
X95709726Y-104811563D01*
X95709725Y-104811565D01*
X95694500Y-104907691D01*
X95694500Y-105179113D01*
X95681237Y-105228612D01*
X95650090Y-105282560D01*
X95641440Y-105314844D01*
X95628713Y-105362344D01*
X95624500Y-105378066D01*
X95624500Y-105879665D01*
X95605593Y-105937856D01*
X95580502Y-105961980D01*
X95569402Y-105969396D01*
X95569397Y-105969401D01*
X95514035Y-106052257D01*
X95514033Y-106052263D01*
X95499501Y-106125315D01*
X95499500Y-106125327D01*
X95499500Y-106674672D01*
X95499501Y-106674684D01*
X95514033Y-106747736D01*
X95514035Y-106747743D01*
X95539113Y-106785275D01*
X95555721Y-106844163D01*
X95551032Y-106865534D01*
X95551402Y-106865608D01*
X95549500Y-106875171D01*
X95549500Y-107069149D01*
X95532817Y-107124148D01*
X95527693Y-107131818D01*
X95514034Y-107152260D01*
X95514033Y-107152263D01*
X95499501Y-107225315D01*
X95499500Y-107225327D01*
X95499500Y-107428455D01*
X95480593Y-107486646D01*
X95478392Y-107489224D01*
X95478476Y-107489288D01*
X95474525Y-107494436D01*
X95425091Y-107580058D01*
X95425089Y-107580062D01*
X95415219Y-107616895D01*
X95415220Y-107616896D01*
X95409787Y-107637174D01*
X95401028Y-107669864D01*
X95399500Y-107675565D01*
X95399500Y-115049435D01*
X95422067Y-115133657D01*
X95425091Y-115144942D01*
X95474525Y-115230563D01*
X95474526Y-115230563D01*
X95912504Y-115668541D01*
X95940281Y-115723058D01*
X95931990Y-115775405D01*
X95933678Y-115776035D01*
X95880910Y-115917512D01*
X95880908Y-115917523D01*
X95876533Y-115958210D01*
X95874500Y-115977128D01*
X95874500Y-117072872D01*
X95876488Y-117091361D01*
X95880908Y-117132476D01*
X95880910Y-117132487D01*
X95931202Y-117267328D01*
X96007942Y-117369840D01*
X96017454Y-117382546D01*
X96017457Y-117382548D01*
X96017458Y-117382549D01*
X96132671Y-117468797D01*
X96267512Y-117519089D01*
X96267513Y-117519089D01*
X96267518Y-117519091D01*
X96327128Y-117525500D01*
X96327131Y-117525500D01*
X98272869Y-117525500D01*
X98272872Y-117525500D01*
X98332482Y-117519091D01*
X98379304Y-117501627D01*
X98467328Y-117468797D01*
X98467328Y-117468796D01*
X98467330Y-117468796D01*
X98582546Y-117382546D01*
X98668796Y-117267330D01*
X98672718Y-117256816D01*
X98719089Y-117132487D01*
X98719088Y-117132487D01*
X98719091Y-117132482D01*
X98725500Y-117072872D01*
X98725500Y-115977128D01*
X98719091Y-115917518D01*
X98719089Y-115917512D01*
X98668797Y-115782671D01*
X98582549Y-115667458D01*
X98582548Y-115667457D01*
X98582546Y-115667454D01*
X98578835Y-115664676D01*
X98467328Y-115581202D01*
X98332487Y-115530910D01*
X98332482Y-115530909D01*
X98332480Y-115530908D01*
X98332476Y-115530908D01*
X98301248Y-115527550D01*
X98272872Y-115524500D01*
X98272869Y-115524500D01*
X96871546Y-115524500D01*
X96813355Y-115505593D01*
X96801542Y-115495504D01*
X96179496Y-114873458D01*
X96151719Y-114818941D01*
X96150500Y-114803454D01*
X96150500Y-114366559D01*
X96169407Y-114308368D01*
X96218907Y-114272404D01*
X96261117Y-114270685D01*
X96261360Y-114268429D01*
X96267518Y-114269091D01*
X96327128Y-114275500D01*
X96327131Y-114275500D01*
X98272869Y-114275500D01*
X98272872Y-114275500D01*
X98332482Y-114269091D01*
X98404168Y-114242354D01*
X98467328Y-114218797D01*
X98467328Y-114218796D01*
X98467330Y-114218796D01*
X98582546Y-114132546D01*
X98668796Y-114017330D01*
X98668929Y-114016975D01*
X98719089Y-113882487D01*
X98719088Y-113882487D01*
X98719091Y-113882482D01*
X98725500Y-113822872D01*
X98725500Y-112727128D01*
X98719091Y-112667518D01*
X98719011Y-112667304D01*
X98666322Y-112526035D01*
X98668581Y-112525192D01*
X98659315Y-112475861D01*
X98685521Y-112420572D01*
X98687496Y-112418540D01*
X99000475Y-112105563D01*
X99000474Y-112105563D01*
X99000475Y-112105562D01*
X99032061Y-112050853D01*
X99049908Y-112019942D01*
X99049908Y-112019940D01*
X99049910Y-112019938D01*
X99075500Y-111924435D01*
X99075500Y-111837193D01*
X99094407Y-111779002D01*
X99115171Y-111757940D01*
X99118667Y-111755323D01*
X99211116Y-111686116D01*
X99295212Y-111573778D01*
X99299767Y-111561567D01*
X99339271Y-111455652D01*
X99344251Y-111442299D01*
X99350500Y-111384174D01*
X99350500Y-110815826D01*
X99344251Y-110757701D01*
X99338569Y-110742467D01*
X99295213Y-110626223D01*
X99211119Y-110513888D01*
X99211118Y-110513887D01*
X99211116Y-110513884D01*
X99190702Y-110498602D01*
X99098776Y-110429786D01*
X98967304Y-110380750D01*
X98967299Y-110380749D01*
X98967297Y-110380748D01*
X98967293Y-110380748D01*
X98941011Y-110377922D01*
X98909174Y-110374500D01*
X98240826Y-110374500D01*
X98212823Y-110377510D01*
X98182706Y-110380748D01*
X98182695Y-110380750D01*
X98051223Y-110429786D01*
X97938888Y-110513880D01*
X97938880Y-110513888D01*
X97854786Y-110626223D01*
X97805750Y-110757695D01*
X97805748Y-110757706D01*
X97799500Y-110815829D01*
X97799500Y-111384170D01*
X97799499Y-111384170D01*
X97805748Y-111442293D01*
X97805750Y-111442304D01*
X97854786Y-111573776D01*
X97912271Y-111650566D01*
X97938884Y-111686116D01*
X98051222Y-111770212D01*
X98068961Y-111776828D01*
X98116877Y-111814877D01*
X98133276Y-111873824D01*
X98111896Y-111931152D01*
X98104371Y-111939590D01*
X97798460Y-112245503D01*
X97743943Y-112273281D01*
X97728456Y-112274500D01*
X96327128Y-112274500D01*
X96274503Y-112280157D01*
X96261360Y-112281571D01*
X96261069Y-112278865D01*
X96211288Y-112274768D01*
X96164905Y-112234866D01*
X96150500Y-112183440D01*
X96150500Y-111854767D01*
X96169407Y-111796576D01*
X96218907Y-111760612D01*
X96280093Y-111760612D01*
X96296949Y-111767878D01*
X96301217Y-111770208D01*
X96301222Y-111770212D01*
X96301226Y-111770213D01*
X96301229Y-111770215D01*
X96432695Y-111819249D01*
X96432696Y-111819249D01*
X96432701Y-111819251D01*
X96490826Y-111825500D01*
X96490830Y-111825500D01*
X97159170Y-111825500D01*
X97159174Y-111825500D01*
X97217299Y-111819251D01*
X97282911Y-111794779D01*
X97348776Y-111770213D01*
X97348776Y-111770212D01*
X97348778Y-111770212D01*
X97461116Y-111686116D01*
X97545212Y-111573778D01*
X97549767Y-111561567D01*
X97589271Y-111455652D01*
X97594251Y-111442299D01*
X97600500Y-111384174D01*
X97600500Y-110815826D01*
X97594251Y-110757701D01*
X97588569Y-110742467D01*
X97545213Y-110626223D01*
X97461119Y-110513888D01*
X97461118Y-110513887D01*
X97461116Y-110513884D01*
X97440702Y-110498602D01*
X97348776Y-110429786D01*
X97217304Y-110380750D01*
X97217299Y-110380749D01*
X97217297Y-110380748D01*
X97217293Y-110380748D01*
X97163918Y-110375010D01*
X97108081Y-110349991D01*
X97077615Y-110296930D01*
X97075500Y-110276577D01*
X97075500Y-110234045D01*
X97094407Y-110175854D01*
X97104496Y-110164041D01*
X97589041Y-109679496D01*
X97643558Y-109651719D01*
X97659045Y-109650500D01*
X97984170Y-109650500D01*
X97984174Y-109650500D01*
X98042299Y-109644251D01*
X98120770Y-109614983D01*
X98173776Y-109595213D01*
X98173776Y-109595212D01*
X98173778Y-109595212D01*
X98286116Y-109511116D01*
X98370212Y-109398778D01*
X98374209Y-109388063D01*
X98409755Y-109292759D01*
X98419251Y-109267299D01*
X98425500Y-109209174D01*
X98425500Y-108515826D01*
X98419251Y-108457701D01*
X98414155Y-108444037D01*
X98370213Y-108326223D01*
X98316908Y-108255017D01*
X98287066Y-108215153D01*
X98267330Y-108157240D01*
X98285404Y-108098786D01*
X98314347Y-108071565D01*
X98398038Y-108019943D01*
X98519946Y-107898035D01*
X98610451Y-107751306D01*
X98664681Y-107587648D01*
X98675000Y-107486655D01*
X98675000Y-107387501D01*
X98674999Y-107387500D01*
X97549000Y-107387500D01*
X97490809Y-107368593D01*
X97454845Y-107319093D01*
X97450000Y-107288500D01*
X97450000Y-106986500D01*
X97468907Y-106928309D01*
X97518407Y-106892345D01*
X97549000Y-106887500D01*
X98674998Y-106887500D01*
X98674999Y-106887499D01*
X98674999Y-106788345D01*
X98664682Y-106687357D01*
X98664679Y-106687345D01*
X98610451Y-106523693D01*
X98519946Y-106376964D01*
X98398035Y-106255053D01*
X98251306Y-106164548D01*
X98087648Y-106110318D01*
X97986655Y-106100000D01*
X97868281Y-106100000D01*
X97810090Y-106081093D01*
X97774126Y-106031593D01*
X97774126Y-105970407D01*
X97810090Y-105920907D01*
X97838828Y-105906483D01*
X97967855Y-105866276D01*
X97967867Y-105866271D01*
X98105020Y-105783359D01*
X98218359Y-105670020D01*
X98301271Y-105532867D01*
X98301276Y-105532855D01*
X98348956Y-105379844D01*
X98351668Y-105350000D01*
X97321500Y-105350000D01*
X97263309Y-105331093D01*
X97227345Y-105281593D01*
X97222500Y-105251000D01*
X97222500Y-104949000D01*
X97241407Y-104890809D01*
X97290907Y-104854845D01*
X97321500Y-104850000D01*
X98351668Y-104850000D01*
X98351668Y-104849999D01*
X98348956Y-104820155D01*
X98301276Y-104667144D01*
X98301271Y-104667132D01*
X98218359Y-104529979D01*
X98105020Y-104416640D01*
X97967867Y-104333728D01*
X97967855Y-104333723D01*
X97862663Y-104300944D01*
X97812732Y-104265581D01*
X97793123Y-104207623D01*
X97811326Y-104149208D01*
X97822104Y-104136431D01*
X99269041Y-102689496D01*
X99323558Y-102661719D01*
X99339045Y-102660500D01*
X100848000Y-102660500D01*
X100906191Y-102679407D01*
X100942155Y-102728907D01*
X100947000Y-102759500D01*
X100947000Y-103159672D01*
X100947001Y-103159684D01*
X100961533Y-103232736D01*
X100961535Y-103232742D01*
X101016897Y-103315599D01*
X101016900Y-103315602D01*
X101052023Y-103339070D01*
X101099760Y-103370966D01*
X101147690Y-103380500D01*
X101172815Y-103385498D01*
X101172820Y-103385498D01*
X101172826Y-103385500D01*
X101571955Y-103385500D01*
X101630146Y-103404407D01*
X101666110Y-103453907D01*
X101666110Y-103515093D01*
X101641958Y-103554504D01*
X100695956Y-104500504D01*
X100641440Y-104528281D01*
X100625953Y-104529500D01*
X100372691Y-104529500D01*
X100276567Y-104544725D01*
X100276560Y-104544727D01*
X100160708Y-104603757D01*
X100068757Y-104695708D01*
X100009726Y-104811563D01*
X100009725Y-104811565D01*
X99994500Y-104907691D01*
X99994500Y-105179113D01*
X99981237Y-105228612D01*
X99950090Y-105282560D01*
X99941440Y-105314844D01*
X99928713Y-105362344D01*
X99924500Y-105378066D01*
X99924500Y-105804665D01*
X99905593Y-105862856D01*
X99880502Y-105886980D01*
X99869402Y-105894396D01*
X99869397Y-105894401D01*
X99814035Y-105977257D01*
X99814033Y-105977263D01*
X99799501Y-106050315D01*
X99799500Y-106050327D01*
X99799500Y-106599672D01*
X99799501Y-106599684D01*
X99814033Y-106672736D01*
X99814035Y-106672743D01*
X99839113Y-106710275D01*
X99855721Y-106769163D01*
X99851032Y-106790534D01*
X99851402Y-106790608D01*
X99849500Y-106800171D01*
X99849500Y-106994149D01*
X99832817Y-107049148D01*
X99818896Y-107069983D01*
X99814034Y-107077260D01*
X99814033Y-107077263D01*
X99799501Y-107150315D01*
X99799500Y-107150327D01*
X99799500Y-107353455D01*
X99780593Y-107411646D01*
X99770504Y-107423459D01*
X99669438Y-107524525D01*
X99669437Y-107524524D01*
X99599524Y-107594438D01*
X99550091Y-107680059D01*
X99550090Y-107680061D01*
X99542003Y-107710239D01*
X99542004Y-107710240D01*
X99524746Y-107774648D01*
X99524738Y-107774675D01*
X99524500Y-107775558D01*
X99524500Y-109244440D01*
X99533983Y-109279829D01*
X99533983Y-109279830D01*
X99533984Y-109279830D01*
X99533984Y-109279831D01*
X99550090Y-109339940D01*
X99597704Y-109422410D01*
X99597707Y-109422415D01*
X99597706Y-109422415D01*
X99599523Y-109425561D01*
X99599524Y-109425562D01*
X99599526Y-109425565D01*
X99670505Y-109496544D01*
X99698281Y-109551059D01*
X99699500Y-109566546D01*
X99699500Y-115049435D01*
X99722067Y-115133657D01*
X99725091Y-115144942D01*
X99774525Y-115230563D01*
X99774526Y-115230563D01*
X100212504Y-115668541D01*
X100240281Y-115723058D01*
X100231990Y-115775405D01*
X100233678Y-115776035D01*
X100180910Y-115917512D01*
X100180908Y-115917523D01*
X100176533Y-115958210D01*
X100174500Y-115977128D01*
X100174500Y-117072872D01*
X100176488Y-117091361D01*
X100180908Y-117132476D01*
X100180910Y-117132487D01*
X100231202Y-117267328D01*
X100253310Y-117296861D01*
X100273046Y-117354776D01*
X100254971Y-117413231D01*
X100239707Y-117430290D01*
X100228216Y-117440470D01*
X100138480Y-117570476D01*
X100082463Y-117718182D01*
X100082462Y-117718183D01*
X100063422Y-117874998D01*
X100063422Y-117875001D01*
X100082462Y-118031816D01*
X100082463Y-118031818D01*
X100115376Y-118118602D01*
X100138480Y-118179523D01*
X100228215Y-118309528D01*
X100228216Y-118309529D01*
X100228217Y-118309530D01*
X100346460Y-118414283D01*
X100486335Y-118487696D01*
X100639715Y-118525500D01*
X100639718Y-118525500D01*
X100797682Y-118525500D01*
X100797685Y-118525500D01*
X100951065Y-118487696D01*
X101090940Y-118414283D01*
X101209183Y-118309530D01*
X101298920Y-118179523D01*
X101354937Y-118031818D01*
X101373978Y-117875000D01*
X101373917Y-117874500D01*
X101358861Y-117750499D01*
X101354937Y-117718182D01*
X101332722Y-117659605D01*
X101329766Y-117598491D01*
X101363297Y-117547312D01*
X101420506Y-117525616D01*
X101425289Y-117525500D01*
X102572869Y-117525500D01*
X102572872Y-117525500D01*
X102632482Y-117519091D01*
X102679304Y-117501627D01*
X102767328Y-117468797D01*
X102767328Y-117468796D01*
X102767330Y-117468796D01*
X102882546Y-117382546D01*
X102968796Y-117267330D01*
X102972718Y-117256816D01*
X103019089Y-117132487D01*
X103019088Y-117132487D01*
X103019091Y-117132482D01*
X103025500Y-117072872D01*
X103025500Y-115977128D01*
X103019091Y-115917518D01*
X103019089Y-115917512D01*
X102968797Y-115782671D01*
X102882549Y-115667458D01*
X102882548Y-115667457D01*
X102882546Y-115667454D01*
X102878835Y-115664676D01*
X102767328Y-115581202D01*
X102632487Y-115530910D01*
X102632482Y-115530909D01*
X102632480Y-115530908D01*
X102632476Y-115530908D01*
X102601248Y-115527550D01*
X102572872Y-115524500D01*
X102572869Y-115524500D01*
X101171546Y-115524500D01*
X101113355Y-115505593D01*
X101101542Y-115495504D01*
X100479496Y-114873458D01*
X100451719Y-114818941D01*
X100450500Y-114803454D01*
X100450500Y-114366559D01*
X100469407Y-114308368D01*
X100518907Y-114272404D01*
X100561117Y-114270685D01*
X100561360Y-114268429D01*
X100567518Y-114269091D01*
X100627128Y-114275500D01*
X100627131Y-114275500D01*
X102572869Y-114275500D01*
X102572872Y-114275500D01*
X102632482Y-114269091D01*
X102704168Y-114242354D01*
X102767328Y-114218797D01*
X102767328Y-114218796D01*
X102767330Y-114218796D01*
X102882546Y-114132546D01*
X102968796Y-114017330D01*
X102968929Y-114016975D01*
X103019089Y-113882487D01*
X103019088Y-113882487D01*
X103019091Y-113882482D01*
X103025500Y-113822872D01*
X103025500Y-112727128D01*
X103019091Y-112667518D01*
X103019011Y-112667304D01*
X102966322Y-112526035D01*
X102968581Y-112525192D01*
X102959315Y-112475861D01*
X102985521Y-112420572D01*
X102987496Y-112418540D01*
X103300475Y-112105563D01*
X103300474Y-112105563D01*
X103300475Y-112105562D01*
X103332061Y-112050853D01*
X103349908Y-112019942D01*
X103349908Y-112019940D01*
X103349910Y-112019938D01*
X103375500Y-111924435D01*
X103375500Y-111837193D01*
X103394407Y-111779002D01*
X103415171Y-111757940D01*
X103418667Y-111755323D01*
X103511116Y-111686116D01*
X103595212Y-111573778D01*
X103599767Y-111561567D01*
X103639271Y-111455652D01*
X103644251Y-111442299D01*
X103650500Y-111384174D01*
X103650500Y-110815826D01*
X103644251Y-110757701D01*
X103638569Y-110742467D01*
X103595213Y-110626223D01*
X103511119Y-110513888D01*
X103511118Y-110513887D01*
X103511116Y-110513884D01*
X103490702Y-110498602D01*
X103398776Y-110429786D01*
X103267304Y-110380750D01*
X103267299Y-110380749D01*
X103267297Y-110380748D01*
X103267293Y-110380748D01*
X103241011Y-110377922D01*
X103209174Y-110374500D01*
X102540826Y-110374500D01*
X102512823Y-110377510D01*
X102482706Y-110380748D01*
X102482699Y-110380749D01*
X102474309Y-110383878D01*
X102471566Y-110384902D01*
X102410438Y-110387521D01*
X102359444Y-110353709D01*
X102338063Y-110296381D01*
X102349040Y-110251603D01*
X102347427Y-110250935D01*
X102349909Y-110244942D01*
X102349909Y-110244939D01*
X102349911Y-110244937D01*
X102375500Y-110149436D01*
X102375500Y-110050564D01*
X102375500Y-109700604D01*
X102394407Y-109642413D01*
X102439903Y-109607846D01*
X102473778Y-109595212D01*
X102586116Y-109511116D01*
X102670212Y-109398778D01*
X102674209Y-109388063D01*
X102709755Y-109292759D01*
X102719251Y-109267299D01*
X102725500Y-109209174D01*
X102725500Y-108515826D01*
X102719251Y-108457701D01*
X102714155Y-108444037D01*
X102670213Y-108326223D01*
X102616908Y-108255017D01*
X102587066Y-108215153D01*
X102567330Y-108157240D01*
X102585404Y-108098786D01*
X102614347Y-108071565D01*
X102698038Y-108019943D01*
X102819946Y-107898035D01*
X102910451Y-107751306D01*
X102964681Y-107587648D01*
X102975000Y-107486655D01*
X102975000Y-107387501D01*
X102974999Y-107387500D01*
X101849000Y-107387500D01*
X101790809Y-107368593D01*
X101754845Y-107319093D01*
X101750000Y-107288500D01*
X101750000Y-106986500D01*
X101768907Y-106928309D01*
X101818407Y-106892345D01*
X101849000Y-106887500D01*
X102974998Y-106887500D01*
X102974999Y-106887499D01*
X102974999Y-106788345D01*
X102964682Y-106687357D01*
X102964679Y-106687345D01*
X102910451Y-106523693D01*
X102819946Y-106376964D01*
X102698035Y-106255053D01*
X102551306Y-106164548D01*
X102387648Y-106110318D01*
X102286655Y-106100000D01*
X102168281Y-106100000D01*
X102110090Y-106081093D01*
X102074126Y-106031593D01*
X102074126Y-105970407D01*
X102110090Y-105920907D01*
X102138828Y-105906483D01*
X102267855Y-105866276D01*
X102267867Y-105866271D01*
X102405020Y-105783359D01*
X102518359Y-105670020D01*
X102601271Y-105532867D01*
X102601276Y-105532855D01*
X102648956Y-105379844D01*
X102651668Y-105350000D01*
X101621500Y-105350000D01*
X101563309Y-105331093D01*
X101527345Y-105281593D01*
X101522500Y-105251000D01*
X101522500Y-104949000D01*
X101541407Y-104890809D01*
X101590907Y-104854845D01*
X101621500Y-104850000D01*
X102651668Y-104850000D01*
X102651668Y-104849999D01*
X102648956Y-104820155D01*
X102601276Y-104667144D01*
X102601271Y-104667132D01*
X102518359Y-104529979D01*
X102405020Y-104416640D01*
X102267867Y-104333728D01*
X102267855Y-104333723D01*
X102162664Y-104300944D01*
X102112733Y-104265581D01*
X102093124Y-104207623D01*
X102111327Y-104149208D01*
X102122114Y-104136423D01*
X102394042Y-103864496D01*
X102448558Y-103836719D01*
X102464045Y-103835500D01*
X105452712Y-103835500D01*
X105500462Y-103822705D01*
X105500463Y-103822705D01*
X105548210Y-103809911D01*
X105548209Y-103809911D01*
X105548214Y-103809910D01*
X105633838Y-103760475D01*
X105674813Y-103719500D01*
X105703752Y-103690562D01*
X106272141Y-103122171D01*
X106326658Y-103094393D01*
X106387090Y-103103964D01*
X106408835Y-103119008D01*
X106461459Y-103166981D01*
X106634863Y-103274348D01*
X106825044Y-103348024D01*
X107025524Y-103385500D01*
X107229476Y-103385500D01*
X107429956Y-103348024D01*
X107620137Y-103274348D01*
X107793541Y-103166981D01*
X107944264Y-103029579D01*
X108067173Y-102866821D01*
X108158082Y-102684250D01*
X108213897Y-102488083D01*
X108232715Y-102285000D01*
X108213897Y-102081917D01*
X108158082Y-101885750D01*
X108067173Y-101703179D01*
X107944264Y-101540421D01*
X107793541Y-101403019D01*
X107620137Y-101295652D01*
X107467840Y-101236652D01*
X107420410Y-101198001D01*
X107404756Y-101138852D01*
X107426859Y-101081799D01*
X107477981Y-101048711D01*
X107590990Y-101018430D01*
X107805077Y-100918600D01*
X107998573Y-100783113D01*
X108165613Y-100616073D01*
X108301101Y-100422576D01*
X108301102Y-100422574D01*
X108307775Y-100408265D01*
X108349503Y-100363516D01*
X108409564Y-100351841D01*
X108465017Y-100377698D01*
X108487225Y-100408265D01*
X108493897Y-100422574D01*
X108493898Y-100422576D01*
X108629386Y-100616073D01*
X108796426Y-100783113D01*
X108989922Y-100918600D01*
X109204009Y-101018430D01*
X109317018Y-101048711D01*
X109368332Y-101082035D01*
X109390259Y-101139156D01*
X109374424Y-101198257D01*
X109327157Y-101236653D01*
X109174863Y-101295652D01*
X109078911Y-101355063D01*
X109001459Y-101403019D01*
X108890140Y-101504500D01*
X108850736Y-101540421D01*
X108846870Y-101545541D01*
X108727828Y-101703177D01*
X108727823Y-101703186D01*
X108639407Y-101880751D01*
X108636918Y-101885750D01*
X108581103Y-102081917D01*
X108562285Y-102285000D01*
X108581103Y-102488083D01*
X108610006Y-102589666D01*
X108636919Y-102684254D01*
X108638506Y-102687440D01*
X108647519Y-102747958D01*
X108619889Y-102801572D01*
X107370959Y-104050504D01*
X107316442Y-104078281D01*
X107300955Y-104079500D01*
X105021936Y-104079500D01*
X104923064Y-104079500D01*
X104859396Y-104096559D01*
X104827562Y-104105089D01*
X104775196Y-104135323D01*
X104751147Y-104149208D01*
X104741934Y-104154527D01*
X104395956Y-104500504D01*
X104341440Y-104528281D01*
X104325953Y-104529500D01*
X104072691Y-104529500D01*
X103976567Y-104544725D01*
X103976560Y-104544727D01*
X103860708Y-104603757D01*
X103768757Y-104695708D01*
X103709726Y-104811563D01*
X103709725Y-104811565D01*
X103694500Y-104907691D01*
X103694500Y-105292308D01*
X103709725Y-105388432D01*
X103709727Y-105388439D01*
X103768757Y-105504291D01*
X103768759Y-105504294D01*
X103860706Y-105596241D01*
X103860708Y-105596242D01*
X103897945Y-105615215D01*
X103941209Y-105658479D01*
X103952000Y-105703425D01*
X103952000Y-105812947D01*
X103933093Y-105871138D01*
X103883593Y-105907102D01*
X103872317Y-105910044D01*
X103852261Y-105914033D01*
X103852257Y-105914035D01*
X103769400Y-105969397D01*
X103769397Y-105969400D01*
X103714035Y-106052257D01*
X103714033Y-106052263D01*
X103699501Y-106125315D01*
X103699500Y-106125327D01*
X103699500Y-106674672D01*
X103699501Y-106674684D01*
X103714033Y-106747736D01*
X103714035Y-106747743D01*
X103739113Y-106785275D01*
X103755721Y-106844163D01*
X103751032Y-106865534D01*
X103751402Y-106865608D01*
X103749500Y-106875171D01*
X103749500Y-107069149D01*
X103732817Y-107124148D01*
X103727693Y-107131818D01*
X103714034Y-107152260D01*
X103714033Y-107152263D01*
X103699501Y-107225315D01*
X103699500Y-107225327D01*
X103699500Y-107774672D01*
X103699501Y-107774684D01*
X103714033Y-107847736D01*
X103714035Y-107847742D01*
X103736230Y-107880959D01*
X103769399Y-107930601D01*
X103780499Y-107938017D01*
X103818380Y-107986065D01*
X103824500Y-108020334D01*
X103824500Y-108049435D01*
X103833134Y-108081658D01*
X103833133Y-108081658D01*
X103850089Y-108144937D01*
X103850091Y-108144941D01*
X103899525Y-108230563D01*
X103899526Y-108230563D01*
X103995504Y-108326541D01*
X104023281Y-108381058D01*
X104024500Y-108396545D01*
X104024500Y-115149434D01*
X104033515Y-115183082D01*
X104050089Y-115244936D01*
X104050091Y-115244940D01*
X104082152Y-115300470D01*
X104086234Y-115307539D01*
X104099501Y-115357045D01*
X104099501Y-116772869D01*
X104105909Y-116832476D01*
X104105911Y-116832487D01*
X104156203Y-116967328D01*
X104232407Y-117069124D01*
X104242455Y-117082546D01*
X104242458Y-117082548D01*
X104242459Y-117082549D01*
X104357672Y-117168797D01*
X104492513Y-117219089D01*
X104492514Y-117219089D01*
X104492519Y-117219091D01*
X104552129Y-117225500D01*
X104552132Y-117225500D01*
X105647870Y-117225500D01*
X105647873Y-117225500D01*
X105707483Y-117219091D01*
X105753066Y-117202089D01*
X105830548Y-117173191D01*
X105891677Y-117170571D01*
X105942671Y-117204382D01*
X105962181Y-117251042D01*
X105962331Y-117251006D01*
X105962567Y-117251963D01*
X105963421Y-117254006D01*
X105963762Y-117256812D01*
X105963763Y-117256818D01*
X106006627Y-117369840D01*
X106019780Y-117404523D01*
X106109515Y-117534528D01*
X106109516Y-117534529D01*
X106109517Y-117534530D01*
X106227760Y-117639283D01*
X106367635Y-117712696D01*
X106521015Y-117750500D01*
X106521018Y-117750500D01*
X106678982Y-117750500D01*
X106678985Y-117750500D01*
X106832365Y-117712696D01*
X106972240Y-117639283D01*
X107090483Y-117534530D01*
X107180220Y-117404523D01*
X107236237Y-117256818D01*
X107255278Y-117100000D01*
X107251528Y-117069120D01*
X107263282Y-117009079D01*
X107308085Y-116967409D01*
X107368824Y-116960033D01*
X107422299Y-116989767D01*
X107429059Y-116997860D01*
X107482407Y-117069124D01*
X107492455Y-117082546D01*
X107492458Y-117082548D01*
X107492459Y-117082549D01*
X107607672Y-117168797D01*
X107742513Y-117219089D01*
X107742514Y-117219089D01*
X107742519Y-117219091D01*
X107802129Y-117225500D01*
X107802132Y-117225500D01*
X108897870Y-117225500D01*
X108897873Y-117225500D01*
X108957483Y-117219091D01*
X109004305Y-117201627D01*
X109092329Y-117168797D01*
X109092329Y-117168796D01*
X109092331Y-117168796D01*
X109207547Y-117082546D01*
X109293797Y-116967330D01*
X109298390Y-116955017D01*
X109336424Y-116853041D01*
X109344092Y-116832482D01*
X109350501Y-116772872D01*
X109350501Y-114827128D01*
X109344092Y-114767518D01*
X109335016Y-114743183D01*
X109293798Y-114632671D01*
X109207550Y-114517458D01*
X109207549Y-114517457D01*
X109207547Y-114517454D01*
X109176835Y-114494463D01*
X109092329Y-114431202D01*
X108957488Y-114380910D01*
X108957483Y-114380909D01*
X108957481Y-114380908D01*
X108957477Y-114380908D01*
X108926249Y-114377550D01*
X108897873Y-114374500D01*
X107802129Y-114374500D01*
X107777638Y-114377133D01*
X107742524Y-114380908D01*
X107742513Y-114380910D01*
X107601036Y-114433678D01*
X107600193Y-114431419D01*
X107550851Y-114440683D01*
X107495565Y-114414470D01*
X107493542Y-114412504D01*
X106254496Y-113173458D01*
X106226719Y-113118941D01*
X106225500Y-113103454D01*
X106225500Y-112540829D01*
X106224500Y-112531524D01*
X106219251Y-112482701D01*
X106216700Y-112475861D01*
X106170213Y-112351223D01*
X106086119Y-112238888D01*
X106086118Y-112238887D01*
X106086116Y-112238884D01*
X106086111Y-112238880D01*
X105973776Y-112154786D01*
X105842304Y-112105750D01*
X105842299Y-112105749D01*
X105842297Y-112105748D01*
X105842293Y-112105748D01*
X105816011Y-112102922D01*
X105784174Y-112099500D01*
X105215826Y-112099500D01*
X105187823Y-112102510D01*
X105157706Y-112105748D01*
X105157695Y-112105750D01*
X105026223Y-112154786D01*
X104933829Y-112223953D01*
X104875914Y-112243690D01*
X104817459Y-112225616D01*
X104780792Y-112176634D01*
X104775500Y-112144700D01*
X104775500Y-111855299D01*
X104794407Y-111797108D01*
X104843907Y-111761144D01*
X104905093Y-111761144D01*
X104933825Y-111776044D01*
X104975928Y-111807562D01*
X105026223Y-111845213D01*
X105157695Y-111894249D01*
X105157696Y-111894249D01*
X105157701Y-111894251D01*
X105215826Y-111900500D01*
X105215830Y-111900500D01*
X105784170Y-111900500D01*
X105784174Y-111900500D01*
X105842299Y-111894251D01*
X105925588Y-111863186D01*
X105973776Y-111845213D01*
X105973776Y-111845212D01*
X105973778Y-111845212D01*
X106086116Y-111761116D01*
X106170212Y-111648778D01*
X106171945Y-111644133D01*
X106219249Y-111517304D01*
X106219248Y-111517304D01*
X106219251Y-111517299D01*
X106225500Y-111459174D01*
X106225500Y-111000000D01*
X107106114Y-111000000D01*
X107125557Y-111097741D01*
X107145475Y-111127550D01*
X107166944Y-111159682D01*
X107346037Y-111338776D01*
X107350853Y-111343949D01*
X107383947Y-111382142D01*
X107383948Y-111382143D01*
X107390259Y-111386199D01*
X107406742Y-111399480D01*
X108088499Y-112081237D01*
X108093315Y-112086411D01*
X108126409Y-112124604D01*
X108126410Y-112124605D01*
X108132721Y-112128661D01*
X108149204Y-112141942D01*
X108830961Y-112823699D01*
X108835777Y-112828873D01*
X108868871Y-112867066D01*
X108868872Y-112867067D01*
X108875183Y-112871123D01*
X108891665Y-112884404D01*
X109002474Y-112995212D01*
X109040317Y-113033055D01*
X109102259Y-113074443D01*
X109200000Y-113093886D01*
X109297741Y-113074443D01*
X109359683Y-113033055D01*
X109508333Y-112884403D01*
X109524806Y-112871129D01*
X109531128Y-112867067D01*
X109564236Y-112828856D01*
X109569025Y-112823711D01*
X110250797Y-112141939D01*
X110267273Y-112128664D01*
X110273590Y-112124605D01*
X110306698Y-112086394D01*
X110311487Y-112081249D01*
X110993259Y-111399477D01*
X111009735Y-111386202D01*
X111016052Y-111382143D01*
X111049167Y-111343924D01*
X111053961Y-111338776D01*
X111233055Y-111159683D01*
X111274443Y-111097741D01*
X111293886Y-111000000D01*
X111274443Y-110902259D01*
X111233055Y-110840317D01*
X111147130Y-110754392D01*
X111053968Y-110661229D01*
X111049153Y-110656057D01*
X111016053Y-110617858D01*
X111016051Y-110617856D01*
X111009734Y-110613796D01*
X110993256Y-110600518D01*
X110311506Y-109918768D01*
X110306691Y-109913595D01*
X110273591Y-109875396D01*
X110273589Y-109875394D01*
X110267272Y-109871334D01*
X110250794Y-109858056D01*
X109604496Y-109211758D01*
X109576719Y-109157241D01*
X109575500Y-109141754D01*
X109575500Y-108327007D01*
X109594407Y-108268816D01*
X109619496Y-108244692D01*
X109634601Y-108234601D01*
X109689966Y-108151740D01*
X109704500Y-108078674D01*
X109704500Y-107540611D01*
X109723407Y-107482420D01*
X109744172Y-107461357D01*
X109811185Y-107411191D01*
X109811192Y-107411184D01*
X109897352Y-107296090D01*
X109897353Y-107296088D01*
X109947596Y-107161381D01*
X109947598Y-107161370D01*
X109954000Y-107101824D01*
X109954000Y-107050001D01*
X109953999Y-107050000D01*
X108446001Y-107050000D01*
X108446000Y-107050001D01*
X108446000Y-107101824D01*
X108445999Y-107101824D01*
X108452401Y-107161370D01*
X108452403Y-107161381D01*
X108502646Y-107296088D01*
X108502647Y-107296090D01*
X108588807Y-107411184D01*
X108588814Y-107411191D01*
X108655828Y-107461357D01*
X108691082Y-107511366D01*
X108695500Y-107540611D01*
X108695500Y-108078672D01*
X108695501Y-108078684D01*
X108710033Y-108151736D01*
X108710035Y-108151742D01*
X108765397Y-108234599D01*
X108765398Y-108234599D01*
X108765399Y-108234601D01*
X108780501Y-108244691D01*
X108818380Y-108292739D01*
X108824500Y-108327007D01*
X108824500Y-109141753D01*
X108805593Y-109199944D01*
X108795504Y-109211757D01*
X108149203Y-109858057D01*
X108132732Y-109871331D01*
X108126410Y-109875394D01*
X108126409Y-109875395D01*
X108093307Y-109913596D01*
X108088493Y-109918767D01*
X107406741Y-110600519D01*
X107390270Y-110613793D01*
X107383948Y-110617856D01*
X107383947Y-110617857D01*
X107350839Y-110656065D01*
X107346025Y-110661235D01*
X107166944Y-110840317D01*
X107125558Y-110902257D01*
X107125557Y-110902259D01*
X107106114Y-111000000D01*
X106225500Y-111000000D01*
X106225500Y-110790826D01*
X106219251Y-110732701D01*
X106216763Y-110726030D01*
X106170213Y-110601223D01*
X106086119Y-110488888D01*
X106086118Y-110488887D01*
X106086116Y-110488884D01*
X106086111Y-110488880D01*
X105973776Y-110404786D01*
X105939901Y-110392151D01*
X105891988Y-110354100D01*
X105875500Y-110299394D01*
X105875500Y-109749500D01*
X105894407Y-109691309D01*
X105943907Y-109655345D01*
X105974500Y-109650500D01*
X106184170Y-109650500D01*
X106184174Y-109650500D01*
X106242299Y-109644251D01*
X106320770Y-109614983D01*
X106373776Y-109595213D01*
X106373776Y-109595212D01*
X106373778Y-109595212D01*
X106486116Y-109511116D01*
X106570212Y-109398778D01*
X106574209Y-109388063D01*
X106609755Y-109292759D01*
X106619251Y-109267299D01*
X106625500Y-109209174D01*
X106625500Y-108515826D01*
X106619251Y-108457701D01*
X106614155Y-108444037D01*
X106570213Y-108326223D01*
X106516908Y-108255017D01*
X106487066Y-108215153D01*
X106467330Y-108157240D01*
X106485404Y-108098786D01*
X106514347Y-108071565D01*
X106598038Y-108019943D01*
X106719946Y-107898035D01*
X106810451Y-107751306D01*
X106864681Y-107587648D01*
X106875000Y-107486655D01*
X106875000Y-107387501D01*
X106874999Y-107387500D01*
X105749000Y-107387500D01*
X105690809Y-107368593D01*
X105654845Y-107319093D01*
X105650000Y-107288500D01*
X105650000Y-106887499D01*
X106150000Y-106887499D01*
X106150001Y-106887500D01*
X106874998Y-106887500D01*
X106874999Y-106887499D01*
X106874999Y-106788345D01*
X106864682Y-106687357D01*
X106864679Y-106687345D01*
X106819168Y-106549999D01*
X108446000Y-106549999D01*
X108446001Y-106550000D01*
X108949999Y-106550000D01*
X108950000Y-106549999D01*
X109450000Y-106549999D01*
X109450001Y-106550000D01*
X109953999Y-106550000D01*
X109954000Y-106549999D01*
X109954000Y-106498175D01*
X109947598Y-106438629D01*
X109947596Y-106438618D01*
X109897353Y-106303911D01*
X109897352Y-106303909D01*
X109811192Y-106188815D01*
X109811184Y-106188807D01*
X109696090Y-106102647D01*
X109696088Y-106102646D01*
X109561381Y-106052403D01*
X109561370Y-106052401D01*
X109501824Y-106046000D01*
X109450001Y-106046000D01*
X109450000Y-106046001D01*
X109450000Y-106549999D01*
X108950000Y-106549999D01*
X108950000Y-106046001D01*
X108949999Y-106046000D01*
X108898176Y-106046000D01*
X108838629Y-106052401D01*
X108838618Y-106052403D01*
X108703911Y-106102646D01*
X108703909Y-106102647D01*
X108588815Y-106188807D01*
X108588807Y-106188815D01*
X108502647Y-106303909D01*
X108502646Y-106303911D01*
X108452403Y-106438618D01*
X108452401Y-106438629D01*
X108446000Y-106498175D01*
X108446000Y-106549999D01*
X106819168Y-106549999D01*
X106810451Y-106523693D01*
X106719946Y-106376964D01*
X106598035Y-106255053D01*
X106451306Y-106164548D01*
X106287648Y-106110318D01*
X106186655Y-106100000D01*
X106150001Y-106100000D01*
X106150000Y-106100001D01*
X106150000Y-106887499D01*
X105650000Y-106887499D01*
X105650000Y-106099999D01*
X105649999Y-106099999D01*
X105613358Y-106100000D01*
X105613351Y-106100001D01*
X105512357Y-106110317D01*
X105512345Y-106110320D01*
X105348693Y-106164548D01*
X105201964Y-106255053D01*
X105080054Y-106376963D01*
X105055202Y-106417253D01*
X105008560Y-106456853D01*
X104947549Y-106461474D01*
X104900939Y-106435282D01*
X104731996Y-106266339D01*
X104704219Y-106211822D01*
X104703000Y-106196335D01*
X104703000Y-105876083D01*
X104721907Y-105817892D01*
X104771407Y-105781928D01*
X104832593Y-105781928D01*
X104853216Y-105791361D01*
X104977132Y-105866271D01*
X104977144Y-105866276D01*
X105130152Y-105913955D01*
X105130158Y-105913957D01*
X105196654Y-105919999D01*
X105196666Y-105920000D01*
X105222499Y-105920000D01*
X105222500Y-105919999D01*
X105722500Y-105919999D01*
X105722501Y-105920000D01*
X105748334Y-105920000D01*
X105748345Y-105919999D01*
X105814841Y-105913957D01*
X105814847Y-105913955D01*
X105967855Y-105866276D01*
X105967867Y-105866271D01*
X106105020Y-105783359D01*
X106218359Y-105670020D01*
X106301271Y-105532867D01*
X106301276Y-105532855D01*
X106348956Y-105379844D01*
X106351668Y-105350000D01*
X105722501Y-105350000D01*
X105722500Y-105350001D01*
X105722500Y-105919999D01*
X105222500Y-105919999D01*
X105222500Y-104949000D01*
X105241407Y-104890809D01*
X105290907Y-104854845D01*
X105321500Y-104850000D01*
X106362464Y-104850000D01*
X106393240Y-104832520D01*
X106413138Y-104830500D01*
X107546936Y-104830500D01*
X107594686Y-104817705D01*
X107594687Y-104817705D01*
X107642434Y-104804911D01*
X107642433Y-104804911D01*
X107642438Y-104804910D01*
X107728062Y-104755475D01*
X107797975Y-104685562D01*
X107833538Y-104649999D01*
X111348331Y-104649999D01*
X111348332Y-104650000D01*
X111977499Y-104650000D01*
X111977500Y-104649999D01*
X111977500Y-104080001D01*
X111977499Y-104080000D01*
X111951654Y-104080000D01*
X111885158Y-104086042D01*
X111885152Y-104086044D01*
X111732144Y-104133723D01*
X111732132Y-104133728D01*
X111594979Y-104216640D01*
X111481640Y-104329979D01*
X111398728Y-104467132D01*
X111398723Y-104467144D01*
X111351043Y-104620155D01*
X111348331Y-104649999D01*
X107833538Y-104649999D01*
X109153991Y-103329544D01*
X109208506Y-103301769D01*
X109259755Y-103307234D01*
X109365044Y-103348024D01*
X109565524Y-103385500D01*
X109769476Y-103385500D01*
X109969956Y-103348024D01*
X110160137Y-103274348D01*
X110333541Y-103166981D01*
X110484264Y-103029579D01*
X110607173Y-102866821D01*
X110698082Y-102684250D01*
X110753897Y-102488083D01*
X110772715Y-102285000D01*
X110753897Y-102081917D01*
X110698082Y-101885750D01*
X110607173Y-101703179D01*
X110484264Y-101540421D01*
X110333541Y-101403019D01*
X110160137Y-101295652D01*
X110007840Y-101236652D01*
X109960410Y-101198001D01*
X109944756Y-101138852D01*
X109966859Y-101081799D01*
X110017981Y-101048711D01*
X110130990Y-101018430D01*
X110345077Y-100918600D01*
X110538573Y-100783113D01*
X110705613Y-100616073D01*
X110841101Y-100422576D01*
X110841102Y-100422574D01*
X110847775Y-100408265D01*
X110889503Y-100363516D01*
X110949564Y-100351841D01*
X111005017Y-100377698D01*
X111027225Y-100408265D01*
X111033897Y-100422574D01*
X111033898Y-100422576D01*
X111169386Y-100616073D01*
X111336426Y-100783113D01*
X111529922Y-100918600D01*
X111744009Y-101018430D01*
X111857018Y-101048711D01*
X111908332Y-101082035D01*
X111930259Y-101139156D01*
X111914424Y-101198257D01*
X111867157Y-101236653D01*
X111714863Y-101295652D01*
X111618911Y-101355063D01*
X111541459Y-101403019D01*
X111430140Y-101504500D01*
X111390736Y-101540421D01*
X111386870Y-101545541D01*
X111267828Y-101703177D01*
X111267823Y-101703186D01*
X111179407Y-101880751D01*
X111176918Y-101885750D01*
X111121103Y-102081917D01*
X111102285Y-102285000D01*
X111121103Y-102488083D01*
X111176918Y-102684250D01*
X111267827Y-102866821D01*
X111390736Y-103029579D01*
X111541459Y-103166981D01*
X111714863Y-103274348D01*
X111905044Y-103348024D01*
X112105524Y-103385500D01*
X112309471Y-103385500D01*
X112309476Y-103385500D01*
X112334272Y-103380864D01*
X112394940Y-103388755D01*
X112422465Y-103408174D01*
X113175487Y-104161196D01*
X113203264Y-104215713D01*
X113193693Y-104276145D01*
X113150428Y-104319410D01*
X113120969Y-104328981D01*
X113042501Y-104341408D01*
X112982069Y-104331836D01*
X112957011Y-104313631D01*
X112860020Y-104216640D01*
X112722867Y-104133728D01*
X112722855Y-104133723D01*
X112569847Y-104086044D01*
X112569841Y-104086042D01*
X112503345Y-104080000D01*
X112477501Y-104080000D01*
X112477500Y-104080001D01*
X112477500Y-105051000D01*
X112458593Y-105109191D01*
X112409093Y-105145155D01*
X112378500Y-105150000D01*
X111348331Y-105150000D01*
X111351043Y-105179844D01*
X111398723Y-105332855D01*
X111398725Y-105332860D01*
X111459299Y-105433062D01*
X111473222Y-105492642D01*
X111449466Y-105549027D01*
X111444581Y-105554280D01*
X111419439Y-105579423D01*
X111349524Y-105649338D01*
X111300091Y-105734957D01*
X111274500Y-105830466D01*
X111274500Y-107536938D01*
X111280012Y-107557508D01*
X111280012Y-107557509D01*
X111300089Y-107632437D01*
X111300090Y-107632438D01*
X111347879Y-107715210D01*
X111347879Y-107715212D01*
X111349525Y-107718062D01*
X111696744Y-108065282D01*
X111724521Y-108119798D01*
X111725173Y-108145863D01*
X111724500Y-108152120D01*
X111724500Y-108922866D01*
X111724501Y-108922870D01*
X111730908Y-108982480D01*
X111730909Y-108982485D01*
X111781202Y-109117329D01*
X111856178Y-109217483D01*
X111867454Y-109232546D01*
X111867457Y-109232548D01*
X111867458Y-109232549D01*
X111982670Y-109318797D01*
X112117511Y-109369089D01*
X112117512Y-109369089D01*
X112117517Y-109369091D01*
X112177127Y-109375500D01*
X112965954Y-109375499D01*
X113024145Y-109394406D01*
X113035958Y-109404495D01*
X113351169Y-109719706D01*
X113378946Y-109774223D01*
X113369375Y-109834655D01*
X113340495Y-109868962D01*
X113313889Y-109888879D01*
X113313880Y-109888888D01*
X113229786Y-110001223D01*
X113180750Y-110132695D01*
X113180748Y-110132706D01*
X113174500Y-110190829D01*
X113174500Y-110884170D01*
X113174499Y-110884170D01*
X113180748Y-110942293D01*
X113180750Y-110942304D01*
X113229786Y-111073776D01*
X113294096Y-111159683D01*
X113313884Y-111186116D01*
X113313887Y-111186118D01*
X113313888Y-111186119D01*
X113426223Y-111270213D01*
X113525503Y-111307242D01*
X113573418Y-111345292D01*
X113589816Y-111404239D01*
X113568434Y-111461567D01*
X113525503Y-111492758D01*
X113426223Y-111529786D01*
X113313888Y-111613880D01*
X113313880Y-111613888D01*
X113229786Y-111726223D01*
X113180750Y-111857695D01*
X113180748Y-111857706D01*
X113174500Y-111915829D01*
X113174500Y-112609170D01*
X113174499Y-112609170D01*
X113180748Y-112667293D01*
X113180750Y-112667304D01*
X113229786Y-112798776D01*
X113293887Y-112884404D01*
X113313884Y-112911116D01*
X113313887Y-112911118D01*
X113313888Y-112911119D01*
X113426223Y-112995213D01*
X113557695Y-113044249D01*
X113557696Y-113044249D01*
X113557701Y-113044251D01*
X113615826Y-113050500D01*
X113615830Y-113050500D01*
X114184170Y-113050500D01*
X114184174Y-113050500D01*
X114242299Y-113044251D01*
X114331151Y-113011111D01*
X114373776Y-112995213D01*
X114373776Y-112995212D01*
X114373778Y-112995212D01*
X114486116Y-112911116D01*
X114570212Y-112798778D01*
X114619251Y-112667299D01*
X114625500Y-112609174D01*
X114625500Y-112109044D01*
X114644407Y-112050853D01*
X114654497Y-112039040D01*
X114799630Y-111893907D01*
X115000475Y-111693063D01*
X115046188Y-111613884D01*
X115049910Y-111607438D01*
X115070716Y-111529788D01*
X115075500Y-111511936D01*
X115075500Y-111413064D01*
X115075500Y-107880957D01*
X115075500Y-107880956D01*
X115055162Y-107805053D01*
X115058364Y-107743956D01*
X115096869Y-107696406D01*
X115155970Y-107680570D01*
X115213091Y-107702496D01*
X115220793Y-107709430D01*
X115427714Y-107916351D01*
X115455491Y-107970868D01*
X115445920Y-108031300D01*
X115436963Y-108045684D01*
X115381202Y-108120170D01*
X115330910Y-108255011D01*
X115330908Y-108255022D01*
X115324500Y-108314629D01*
X115324500Y-109085366D01*
X115324500Y-109085369D01*
X115324501Y-109085372D01*
X115324987Y-109089892D01*
X115330908Y-109144980D01*
X115330909Y-109144985D01*
X115381202Y-109279829D01*
X115463550Y-109389831D01*
X115467454Y-109395046D01*
X115467457Y-109395048D01*
X115467458Y-109395049D01*
X115582670Y-109481297D01*
X115717511Y-109531589D01*
X115717512Y-109531589D01*
X115717517Y-109531591D01*
X115777127Y-109538000D01*
X116125500Y-109537999D01*
X116183691Y-109556906D01*
X116219655Y-109606406D01*
X116224500Y-109636999D01*
X116224500Y-109699394D01*
X116205593Y-109757585D01*
X116160099Y-109792151D01*
X116126223Y-109804786D01*
X116013888Y-109888880D01*
X116013880Y-109888888D01*
X115929786Y-110001223D01*
X115880750Y-110132695D01*
X115880748Y-110132706D01*
X115874500Y-110190829D01*
X115874500Y-110884170D01*
X115874499Y-110884170D01*
X115880748Y-110942293D01*
X115880750Y-110942304D01*
X115929786Y-111073776D01*
X115994096Y-111159683D01*
X116013884Y-111186116D01*
X116013887Y-111186118D01*
X116013888Y-111186119D01*
X116126223Y-111270213D01*
X116225503Y-111307242D01*
X116273418Y-111345292D01*
X116289816Y-111404239D01*
X116268434Y-111461567D01*
X116225503Y-111492758D01*
X116126223Y-111529786D01*
X116013888Y-111613880D01*
X116013880Y-111613888D01*
X115929786Y-111726223D01*
X115880750Y-111857695D01*
X115880748Y-111857706D01*
X115874500Y-111915829D01*
X115874500Y-112609170D01*
X115874499Y-112609170D01*
X115880748Y-112667293D01*
X115880750Y-112667304D01*
X115929786Y-112798776D01*
X115993887Y-112884404D01*
X116013884Y-112911116D01*
X116013887Y-112911118D01*
X116013888Y-112911119D01*
X116126223Y-112995213D01*
X116257695Y-113044249D01*
X116257696Y-113044249D01*
X116257701Y-113044251D01*
X116315826Y-113050500D01*
X116315830Y-113050500D01*
X116884170Y-113050500D01*
X116884174Y-113050500D01*
X116942299Y-113044251D01*
X117031151Y-113011111D01*
X117073776Y-112995213D01*
X117073776Y-112995212D01*
X117073778Y-112995212D01*
X117186116Y-112911116D01*
X117270212Y-112798778D01*
X117319251Y-112667299D01*
X117325500Y-112609174D01*
X117325500Y-112109044D01*
X117344407Y-112050854D01*
X117354496Y-112039041D01*
X117707426Y-111686111D01*
X118100474Y-111293063D01*
X118104485Y-111286116D01*
X118149910Y-111207438D01*
X118162706Y-111159683D01*
X118171317Y-111127550D01*
X118173876Y-111117995D01*
X118175500Y-111111936D01*
X118175500Y-111013064D01*
X118175500Y-107882834D01*
X118194407Y-107824643D01*
X118219499Y-107800518D01*
X118230601Y-107793101D01*
X118285966Y-107710240D01*
X118300500Y-107637174D01*
X118300500Y-107432137D01*
X118319407Y-107373946D01*
X118368907Y-107337982D01*
X118430093Y-107337982D01*
X118479593Y-107373946D01*
X118495126Y-107406511D01*
X118500090Y-107425038D01*
X118500091Y-107425039D01*
X118500091Y-107425041D01*
X118549525Y-107510663D01*
X118549526Y-107510663D01*
X119027714Y-107988851D01*
X119055491Y-108043368D01*
X119045920Y-108103800D01*
X119036963Y-108118184D01*
X118981202Y-108192670D01*
X118930910Y-108327511D01*
X118930908Y-108327522D01*
X118924500Y-108387129D01*
X118924500Y-109157866D01*
X118924501Y-109157870D01*
X118930908Y-109217480D01*
X118930909Y-109217485D01*
X118981202Y-109352329D01*
X119067450Y-109467541D01*
X119067454Y-109467546D01*
X119067457Y-109467548D01*
X119067458Y-109467549D01*
X119182670Y-109553797D01*
X119317511Y-109604089D01*
X119317512Y-109604089D01*
X119317517Y-109604091D01*
X119377127Y-109610500D01*
X119725500Y-109610499D01*
X119783691Y-109629406D01*
X119819655Y-109678906D01*
X119824500Y-109709499D01*
X119824500Y-109799394D01*
X119805593Y-109857585D01*
X119760099Y-109892151D01*
X119726223Y-109904786D01*
X119613888Y-109988880D01*
X119613880Y-109988888D01*
X119529786Y-110101223D01*
X119480750Y-110232695D01*
X119480748Y-110232706D01*
X119474500Y-110290829D01*
X119474500Y-110984170D01*
X119474499Y-110984170D01*
X119480748Y-111042293D01*
X119480750Y-111042304D01*
X119529786Y-111173776D01*
X119580826Y-111241956D01*
X119613884Y-111286116D01*
X119613887Y-111286118D01*
X119613888Y-111286119D01*
X119726223Y-111370213D01*
X119825503Y-111407242D01*
X119873418Y-111445292D01*
X119889816Y-111504239D01*
X119868434Y-111561567D01*
X119825503Y-111592758D01*
X119726223Y-111629786D01*
X119613888Y-111713880D01*
X119613880Y-111713888D01*
X119529786Y-111826223D01*
X119480750Y-111957695D01*
X119480748Y-111957706D01*
X119474500Y-112015829D01*
X119474500Y-112709170D01*
X119474499Y-112709170D01*
X119480748Y-112767293D01*
X119480750Y-112767304D01*
X119529786Y-112898776D01*
X119539020Y-112911111D01*
X119613884Y-113011116D01*
X119613887Y-113011118D01*
X119613888Y-113011119D01*
X119726223Y-113095213D01*
X119857695Y-113144249D01*
X119857696Y-113144249D01*
X119857701Y-113144251D01*
X119915826Y-113150500D01*
X119915830Y-113150500D01*
X120484170Y-113150500D01*
X120484174Y-113150500D01*
X120542299Y-113144251D01*
X120610158Y-113118941D01*
X120673776Y-113095213D01*
X120673776Y-113095212D01*
X120673778Y-113095212D01*
X120786116Y-113011116D01*
X120870212Y-112898778D01*
X120880527Y-112871124D01*
X120919249Y-112767304D01*
X120919248Y-112767304D01*
X120919251Y-112767299D01*
X120925500Y-112709174D01*
X120925500Y-112209044D01*
X120944407Y-112150853D01*
X120954490Y-112139046D01*
X121700474Y-111393063D01*
X121713667Y-111370212D01*
X121749910Y-111307438D01*
X121767454Y-111241962D01*
X121775500Y-111211936D01*
X121775500Y-111113064D01*
X121775500Y-107955334D01*
X121794407Y-107897143D01*
X121819499Y-107873018D01*
X121830601Y-107865601D01*
X121885966Y-107782740D01*
X121885965Y-107782740D01*
X121891383Y-107774633D01*
X121893015Y-107775724D01*
X121924700Y-107738620D01*
X121984193Y-107724331D01*
X122040723Y-107747741D01*
X122072698Y-107799907D01*
X122074384Y-107809005D01*
X122079102Y-107826612D01*
X122079102Y-107826613D01*
X122100089Y-107904937D01*
X122114907Y-107930601D01*
X122146871Y-107985965D01*
X122146873Y-107985970D01*
X122146874Y-107985970D01*
X122149524Y-107990560D01*
X122149525Y-107990562D01*
X122496744Y-108337782D01*
X122524521Y-108392298D01*
X122525173Y-108418363D01*
X122524500Y-108424620D01*
X122524500Y-109195366D01*
X122524500Y-109195369D01*
X122524501Y-109195372D01*
X122525691Y-109206442D01*
X122530908Y-109254980D01*
X122530909Y-109254985D01*
X122581202Y-109389829D01*
X122664236Y-109500747D01*
X122667454Y-109505046D01*
X122667457Y-109505048D01*
X122667458Y-109505049D01*
X122755887Y-109571247D01*
X122791140Y-109621255D01*
X122790266Y-109682435D01*
X122753599Y-109731416D01*
X122696558Y-109749500D01*
X122515826Y-109749500D01*
X122487823Y-109752510D01*
X122457706Y-109755748D01*
X122457695Y-109755750D01*
X122326223Y-109804786D01*
X122213888Y-109888880D01*
X122213880Y-109888888D01*
X122129786Y-110001223D01*
X122080750Y-110132695D01*
X122080748Y-110132706D01*
X122074500Y-110190829D01*
X122074500Y-110884170D01*
X122074499Y-110884170D01*
X122080748Y-110942293D01*
X122080750Y-110942304D01*
X122129786Y-111073776D01*
X122194096Y-111159683D01*
X122213884Y-111186116D01*
X122213887Y-111186118D01*
X122213888Y-111186119D01*
X122326223Y-111270213D01*
X122425503Y-111307242D01*
X122473418Y-111345292D01*
X122489816Y-111404239D01*
X122468434Y-111461567D01*
X122425503Y-111492758D01*
X122326223Y-111529786D01*
X122213888Y-111613880D01*
X122213880Y-111613888D01*
X122129786Y-111726223D01*
X122080750Y-111857695D01*
X122080748Y-111857706D01*
X122074500Y-111915829D01*
X122074500Y-112609170D01*
X122074499Y-112609170D01*
X122080748Y-112667293D01*
X122080750Y-112667304D01*
X122129786Y-112798776D01*
X122193887Y-112884404D01*
X122213884Y-112911116D01*
X122213887Y-112911118D01*
X122213888Y-112911119D01*
X122326223Y-112995213D01*
X122457695Y-113044249D01*
X122457696Y-113044249D01*
X122457701Y-113044251D01*
X122515826Y-113050500D01*
X122515830Y-113050500D01*
X123084170Y-113050500D01*
X123084174Y-113050500D01*
X123142299Y-113044251D01*
X123231151Y-113011111D01*
X123273776Y-112995213D01*
X123273776Y-112995212D01*
X123273778Y-112995212D01*
X123386116Y-112911116D01*
X123470212Y-112798778D01*
X123519251Y-112667299D01*
X123525500Y-112609174D01*
X123525500Y-112445000D01*
X123787285Y-112445000D01*
X123806103Y-112648083D01*
X123861918Y-112844250D01*
X123952827Y-113026821D01*
X124075736Y-113189579D01*
X124226459Y-113326981D01*
X124399863Y-113434348D01*
X124590044Y-113508024D01*
X124790524Y-113545500D01*
X124994476Y-113545500D01*
X125194956Y-113508024D01*
X125385137Y-113434348D01*
X125558541Y-113326981D01*
X125709264Y-113189579D01*
X125832173Y-113026821D01*
X125923082Y-112844250D01*
X125978897Y-112648083D01*
X125997715Y-112445000D01*
X125978897Y-112241917D01*
X125923082Y-112045750D01*
X125832173Y-111863179D01*
X125709264Y-111700421D01*
X125558541Y-111563019D01*
X125385137Y-111455652D01*
X125194956Y-111381976D01*
X125194955Y-111381975D01*
X125194953Y-111381975D01*
X124994476Y-111344500D01*
X124790524Y-111344500D01*
X124590046Y-111381975D01*
X124544855Y-111399482D01*
X124399863Y-111455652D01*
X124245192Y-111551420D01*
X124226459Y-111563019D01*
X124091425Y-111686119D01*
X124075736Y-111700421D01*
X124065572Y-111713880D01*
X123952828Y-111863177D01*
X123952823Y-111863186D01*
X123861919Y-112045747D01*
X123861918Y-112045750D01*
X123806103Y-112241917D01*
X123787285Y-112445000D01*
X123525500Y-112445000D01*
X123525500Y-111915826D01*
X123519251Y-111857701D01*
X123519248Y-111857695D01*
X123518792Y-111855759D01*
X123518900Y-111854439D01*
X123518589Y-111851543D01*
X123519143Y-111851483D01*
X123523804Y-111794779D01*
X123545129Y-111762982D01*
X124250475Y-111057638D01*
X124250478Y-111057633D01*
X124299909Y-110972017D01*
X124299909Y-110972015D01*
X124299911Y-110972013D01*
X124325500Y-110876512D01*
X124325500Y-110777640D01*
X124325500Y-110189145D01*
X124344407Y-110130954D01*
X124354496Y-110119141D01*
X124825638Y-109647999D01*
X125300474Y-109173163D01*
X125309302Y-109157873D01*
X125316408Y-109145566D01*
X125349907Y-109087543D01*
X125349906Y-109087543D01*
X125349910Y-109087538D01*
X125369460Y-109014576D01*
X125375500Y-108992036D01*
X125375500Y-108893164D01*
X125375500Y-108002834D01*
X125394407Y-107944643D01*
X125419499Y-107920518D01*
X125430601Y-107913101D01*
X125485966Y-107830240D01*
X125500500Y-107757174D01*
X125500500Y-107207826D01*
X125485966Y-107134760D01*
X125467182Y-107106648D01*
X125450500Y-107051649D01*
X125450500Y-106857672D01*
X125448598Y-106848112D01*
X125450716Y-106847690D01*
X125446938Y-106799663D01*
X125460887Y-106767775D01*
X125485962Y-106730246D01*
X125485962Y-106730245D01*
X125485966Y-106730240D01*
X125500500Y-106657174D01*
X125500500Y-106107826D01*
X125498943Y-106100001D01*
X125492856Y-106069397D01*
X125485966Y-106034760D01*
X125430601Y-105951899D01*
X125419498Y-105944480D01*
X125381619Y-105896430D01*
X125375500Y-105862165D01*
X125375500Y-104050565D01*
X125375162Y-104049304D01*
X125349911Y-103955063D01*
X125300475Y-103869437D01*
X124730563Y-103299526D01*
X124730563Y-103299525D01*
X124644941Y-103250091D01*
X124644937Y-103250089D01*
X124567863Y-103229437D01*
X124567862Y-103229437D01*
X124549438Y-103224500D01*
X124549436Y-103224500D01*
X124549435Y-103224500D01*
X123210994Y-103224500D01*
X123152803Y-103205593D01*
X123116839Y-103156093D01*
X123116839Y-103094907D01*
X123144298Y-103052339D01*
X123155418Y-103042201D01*
X123169264Y-103029579D01*
X123292173Y-102866821D01*
X123383082Y-102684250D01*
X123438897Y-102488083D01*
X123457715Y-102285000D01*
X123438897Y-102081917D01*
X123383082Y-101885750D01*
X123292173Y-101703179D01*
X123169264Y-101540421D01*
X123018541Y-101403019D01*
X122845137Y-101295652D01*
X122654956Y-101221976D01*
X122654955Y-101221975D01*
X122654953Y-101221975D01*
X122454476Y-101184500D01*
X122250524Y-101184500D01*
X122050046Y-101221975D01*
X122012158Y-101236653D01*
X121859863Y-101295652D01*
X121763911Y-101355063D01*
X121686459Y-101403019D01*
X121575140Y-101504500D01*
X121535736Y-101540421D01*
X121531870Y-101545541D01*
X121412828Y-101703177D01*
X121412823Y-101703186D01*
X121324407Y-101880751D01*
X121321918Y-101885750D01*
X121273260Y-102056763D01*
X121266102Y-102081921D01*
X121264584Y-102098301D01*
X121240386Y-102154498D01*
X121187778Y-102185740D01*
X121126854Y-102180092D01*
X121096003Y-102159167D01*
X120921362Y-101984526D01*
X120921362Y-101984525D01*
X120914014Y-101980283D01*
X120873073Y-101934814D01*
X120868293Y-101921639D01*
X120867987Y-101920563D01*
X120858082Y-101885750D01*
X120767173Y-101703179D01*
X120644264Y-101540421D01*
X120493541Y-101403019D01*
X120320137Y-101295652D01*
X120167840Y-101236652D01*
X120120410Y-101198001D01*
X120104756Y-101138852D01*
X120126859Y-101081799D01*
X120177981Y-101048711D01*
X120290990Y-101018430D01*
X120505077Y-100918600D01*
X120698573Y-100783113D01*
X120865613Y-100616073D01*
X121001100Y-100422577D01*
X121100930Y-100208489D01*
X121158136Y-99995000D01*
X120260512Y-99995000D01*
X120293425Y-99937993D01*
X120327500Y-99810826D01*
X120327500Y-99679174D01*
X120293425Y-99552007D01*
X120260512Y-99495000D01*
X121158136Y-99495000D01*
X121100929Y-99281505D01*
X121001105Y-99067432D01*
X121001101Y-99067424D01*
X120865613Y-98873926D01*
X120698573Y-98706886D01*
X120505077Y-98571399D01*
X120290989Y-98471569D01*
X120077500Y-98414364D01*
X120077500Y-99311988D01*
X120020493Y-99279075D01*
X119893326Y-99245000D01*
X119761674Y-99245000D01*
X119634507Y-99279075D01*
X119577500Y-99311988D01*
X119577500Y-98414364D01*
X119364005Y-98471570D01*
X119149932Y-98571394D01*
X119149924Y-98571398D01*
X118956426Y-98706886D01*
X118789386Y-98873926D01*
X118653898Y-99067424D01*
X118653896Y-99067428D01*
X118647224Y-99081737D01*
X118605495Y-99126485D01*
X118545434Y-99138159D01*
X118489981Y-99112300D01*
X118467776Y-99081737D01*
X118461103Y-99067428D01*
X118461101Y-99067424D01*
X118325613Y-98873926D01*
X118158573Y-98706886D01*
X117965077Y-98571399D01*
X117750989Y-98471569D01*
X117537500Y-98414364D01*
X117537500Y-99311988D01*
X117480493Y-99279075D01*
X117353326Y-99245000D01*
X117221674Y-99245000D01*
X117094507Y-99279075D01*
X117037500Y-99311988D01*
X117037500Y-98414364D01*
X116824005Y-98471570D01*
X116609932Y-98571394D01*
X116609924Y-98571398D01*
X116416426Y-98706886D01*
X116249386Y-98873926D01*
X116113898Y-99067424D01*
X116113896Y-99067428D01*
X116107224Y-99081737D01*
X116065495Y-99126485D01*
X116005434Y-99138159D01*
X115949981Y-99112300D01*
X115927776Y-99081737D01*
X115921103Y-99067428D01*
X115921101Y-99067424D01*
X115785613Y-98873926D01*
X115618573Y-98706886D01*
X115425077Y-98571399D01*
X115210989Y-98471569D01*
X114997500Y-98414364D01*
X114997500Y-99311988D01*
X114940493Y-99279075D01*
X114813326Y-99245000D01*
X114681674Y-99245000D01*
X114554507Y-99279075D01*
X114497500Y-99311988D01*
X114497500Y-98414364D01*
X114284005Y-98471570D01*
X114069932Y-98571394D01*
X114069924Y-98571398D01*
X113876426Y-98706886D01*
X113709386Y-98873926D01*
X113573898Y-99067424D01*
X113573896Y-99067428D01*
X113567224Y-99081737D01*
X113525495Y-99126485D01*
X113465434Y-99138159D01*
X113409981Y-99112300D01*
X113387776Y-99081737D01*
X113381103Y-99067428D01*
X113381101Y-99067424D01*
X113245613Y-98873926D01*
X113078573Y-98706886D01*
X112885077Y-98571399D01*
X112670989Y-98471569D01*
X112457500Y-98414364D01*
X112457500Y-99311988D01*
X112400493Y-99279075D01*
X112273326Y-99245000D01*
X112141674Y-99245000D01*
X112014507Y-99279075D01*
X111957500Y-99311988D01*
X111957500Y-98414364D01*
X111744005Y-98471570D01*
X111529932Y-98571394D01*
X111529924Y-98571398D01*
X111336426Y-98706886D01*
X111169386Y-98873926D01*
X111033898Y-99067424D01*
X111033896Y-99067428D01*
X111027224Y-99081737D01*
X110985495Y-99126485D01*
X110925434Y-99138159D01*
X110869981Y-99112300D01*
X110847776Y-99081737D01*
X110841103Y-99067428D01*
X110841101Y-99067424D01*
X110705613Y-98873926D01*
X110538573Y-98706886D01*
X110345077Y-98571399D01*
X110130989Y-98471569D01*
X109917500Y-98414364D01*
X109917500Y-99311988D01*
X109860493Y-99279075D01*
X109733326Y-99245000D01*
X109601674Y-99245000D01*
X109474507Y-99279075D01*
X109417500Y-99311988D01*
X109417500Y-98414364D01*
X109204005Y-98471570D01*
X108989932Y-98571394D01*
X108989924Y-98571398D01*
X108796426Y-98706886D01*
X108629386Y-98873926D01*
X108493898Y-99067424D01*
X108493896Y-99067428D01*
X108487224Y-99081737D01*
X108445495Y-99126485D01*
X108385434Y-99138159D01*
X108329981Y-99112300D01*
X108307776Y-99081737D01*
X108301103Y-99067428D01*
X108301101Y-99067424D01*
X108165613Y-98873926D01*
X107998573Y-98706886D01*
X107805077Y-98571399D01*
X107590989Y-98471569D01*
X107377500Y-98414364D01*
X107377500Y-99311988D01*
X107320493Y-99279075D01*
X107193326Y-99245000D01*
X107061674Y-99245000D01*
X106934507Y-99279075D01*
X106877500Y-99311988D01*
X106877500Y-98414364D01*
X106664005Y-98471570D01*
X106449932Y-98571394D01*
X106449924Y-98571398D01*
X106256426Y-98706886D01*
X106089386Y-98873926D01*
X105953898Y-99067424D01*
X105953896Y-99067428D01*
X105947224Y-99081737D01*
X105905495Y-99126485D01*
X105845434Y-99138159D01*
X105789981Y-99112300D01*
X105767776Y-99081737D01*
X105761103Y-99067428D01*
X105761101Y-99067424D01*
X105625613Y-98873926D01*
X105458573Y-98706886D01*
X105265077Y-98571399D01*
X105050989Y-98471569D01*
X104837500Y-98414364D01*
X104837500Y-99311988D01*
X104780493Y-99279075D01*
X104653326Y-99245000D01*
X104521674Y-99245000D01*
X104394507Y-99279075D01*
X104337500Y-99311988D01*
X104337500Y-98414364D01*
X104124005Y-98471570D01*
X103909932Y-98571394D01*
X103909924Y-98571398D01*
X103716425Y-98706887D01*
X103716421Y-98706890D01*
X103561158Y-98862153D01*
X103506642Y-98889930D01*
X103446210Y-98880359D01*
X103402945Y-98837094D01*
X103392722Y-98802731D01*
X103391098Y-98787629D01*
X103391096Y-98787618D01*
X103340853Y-98652911D01*
X103340852Y-98652909D01*
X103254692Y-98537815D01*
X103254684Y-98537807D01*
X103139590Y-98451647D01*
X103139588Y-98451646D01*
X103004881Y-98401403D01*
X103004870Y-98401401D01*
X102945324Y-98395000D01*
X102297501Y-98395000D01*
X102297500Y-98395001D01*
X102297500Y-99311988D01*
X102240493Y-99279075D01*
X102113326Y-99245000D01*
X101981674Y-99245000D01*
X101854507Y-99279075D01*
X101797500Y-99311988D01*
X101797500Y-98395001D01*
X101797499Y-98395000D01*
X101149676Y-98395000D01*
X101090129Y-98401401D01*
X101090118Y-98401403D01*
X100955411Y-98451646D01*
X100955409Y-98451647D01*
X100840315Y-98537807D01*
X100840307Y-98537815D01*
X100754147Y-98652909D01*
X100754146Y-98652911D01*
X100703903Y-98787618D01*
X100703901Y-98787629D01*
X100697500Y-98847175D01*
X100697500Y-99494999D01*
X100697501Y-99495000D01*
X101614488Y-99495000D01*
X101581575Y-99552007D01*
X101547500Y-99679174D01*
X101547500Y-99810826D01*
X101581575Y-99937993D01*
X101614488Y-99995000D01*
X100697501Y-99995000D01*
X100697500Y-99995001D01*
X100697500Y-100635500D01*
X100678593Y-100693691D01*
X100629093Y-100729655D01*
X100598500Y-100734500D01*
X98687450Y-100734500D01*
X98629259Y-100715593D01*
X98593295Y-100666093D01*
X98593295Y-100604907D01*
X98600560Y-100588055D01*
X98640069Y-100515698D01*
X98640073Y-100515690D01*
X98640074Y-100515689D01*
X98732577Y-100267678D01*
X98788843Y-100009026D01*
X98807727Y-99745000D01*
X98788843Y-99480974D01*
X98732577Y-99222322D01*
X98640074Y-98974311D01*
X98623399Y-98943774D01*
X98565853Y-98838386D01*
X98513216Y-98741989D01*
X98513215Y-98741988D01*
X98513216Y-98741988D01*
X98354591Y-98530090D01*
X98354589Y-98530088D01*
X98354587Y-98530085D01*
X98167415Y-98342913D01*
X98167411Y-98342910D01*
X98167409Y-98342908D01*
X97955511Y-98184283D01*
X97857728Y-98130890D01*
X97815717Y-98086408D01*
X97807875Y-98025727D01*
X97837198Y-97972026D01*
X97892486Y-97945816D01*
X97905174Y-97945000D01*
X123939826Y-97945000D01*
X123998017Y-97963907D01*
X124033981Y-98013407D01*
X124033981Y-98074593D01*
X123998017Y-98124093D01*
X123987272Y-98130890D01*
X123889488Y-98184283D01*
X123677590Y-98342908D01*
X123490408Y-98530090D01*
X123331783Y-98741988D01*
X123204927Y-98974307D01*
X123204926Y-98974309D01*
X123112424Y-99222317D01*
X123056156Y-99480979D01*
X123037273Y-99745000D01*
X123056156Y-100009020D01*
X123056156Y-100009023D01*
X123056157Y-100009026D01*
X123112423Y-100267678D01*
X123112424Y-100267682D01*
X123204926Y-100515690D01*
X123204927Y-100515692D01*
X123331784Y-100748011D01*
X123331783Y-100748011D01*
X123490408Y-100959909D01*
X123490410Y-100959911D01*
X123490413Y-100959915D01*
X123677585Y-101147087D01*
X123677588Y-101147089D01*
X123677590Y-101147091D01*
X123889488Y-101305716D01*
X124062942Y-101400429D01*
X124121811Y-101432574D01*
X124369817Y-101525075D01*
X124369822Y-101525077D01*
X124628474Y-101581343D01*
X124892500Y-101600227D01*
X125156526Y-101581343D01*
X125415178Y-101525077D01*
X125663189Y-101432574D01*
X125895511Y-101305716D01*
X126107415Y-101147087D01*
X126294587Y-100959915D01*
X126453216Y-100748011D01*
X126580074Y-100515689D01*
X126640742Y-100353030D01*
X126678793Y-100305117D01*
X126737740Y-100288719D01*
X126795067Y-100310101D01*
X126828878Y-100361096D01*
X126832500Y-100387628D01*
X126832500Y-115801401D01*
X126813593Y-115859592D01*
X126764093Y-115895556D01*
X126702907Y-115895556D01*
X126663496Y-115871405D01*
X126011867Y-115219776D01*
X125984090Y-115165259D01*
X125983293Y-115140638D01*
X125991060Y-115056816D01*
X125997715Y-114985000D01*
X125978897Y-114781917D01*
X125923082Y-114585750D01*
X125832173Y-114403179D01*
X125709264Y-114240421D01*
X125558541Y-114103019D01*
X125385137Y-113995652D01*
X125194956Y-113921976D01*
X125194955Y-113921975D01*
X125194953Y-113921975D01*
X124994476Y-113884500D01*
X124790524Y-113884500D01*
X124590046Y-113921975D01*
X124520132Y-113949059D01*
X124399863Y-113995652D01*
X124260430Y-114081985D01*
X124226459Y-114103019D01*
X124099458Y-114218796D01*
X124075736Y-114240421D01*
X124052882Y-114270685D01*
X123952828Y-114403177D01*
X123952823Y-114403186D01*
X123861919Y-114585747D01*
X123861918Y-114585750D01*
X123806103Y-114781917D01*
X123787285Y-114985000D01*
X123806103Y-115188083D01*
X123861918Y-115384250D01*
X123952827Y-115566821D01*
X124075736Y-115729579D01*
X124226459Y-115866981D01*
X124399863Y-115974348D01*
X124590044Y-116048024D01*
X124790524Y-116085500D01*
X124994475Y-116085500D01*
X124994476Y-116085500D01*
X125039169Y-116077145D01*
X125099844Y-116085037D01*
X125127365Y-116104455D01*
X125336381Y-116313471D01*
X125364158Y-116367988D01*
X125354587Y-116428420D01*
X125311322Y-116471685D01*
X125250890Y-116481256D01*
X125230615Y-116475790D01*
X125194955Y-116461975D01*
X124994476Y-116424500D01*
X124790524Y-116424500D01*
X124590046Y-116461975D01*
X124542465Y-116480408D01*
X124399863Y-116535652D01*
X124265729Y-116618704D01*
X124226459Y-116643019D01*
X124187554Y-116678486D01*
X124075736Y-116780421D01*
X124070768Y-116787000D01*
X123952828Y-116943177D01*
X123952823Y-116943186D01*
X123861919Y-117125747D01*
X123861918Y-117125750D01*
X123821635Y-117267328D01*
X123806103Y-117321917D01*
X123787285Y-117525000D01*
X123801706Y-117680637D01*
X123788248Y-117740324D01*
X123773132Y-117759775D01*
X122887571Y-118645336D01*
X122833054Y-118673113D01*
X122782971Y-118668090D01*
X122716802Y-118643410D01*
X122716797Y-118643409D01*
X122716795Y-118643408D01*
X122716791Y-118643408D01*
X122685563Y-118640050D01*
X122657187Y-118637000D01*
X122657184Y-118637000D01*
X121611447Y-118637000D01*
X121611443Y-118637000D01*
X121611442Y-118637001D01*
X121604263Y-118637772D01*
X121551833Y-118643408D01*
X121551828Y-118643409D01*
X121416984Y-118693702D01*
X121301772Y-118779950D01*
X121301766Y-118779956D01*
X121301765Y-118779958D01*
X121279403Y-118809828D01*
X121229396Y-118845082D01*
X121200151Y-118849500D01*
X120805256Y-118849500D01*
X120747065Y-118830593D01*
X120712498Y-118785096D01*
X120704526Y-118763722D01*
X120620430Y-118651384D01*
X120609777Y-118643409D01*
X120508090Y-118567286D01*
X120408810Y-118530258D01*
X120360895Y-118492208D01*
X120344497Y-118433261D01*
X120365878Y-118375933D01*
X120408810Y-118344742D01*
X120508090Y-118307713D01*
X120508090Y-118307712D01*
X120508092Y-118307712D01*
X120620430Y-118223616D01*
X120704526Y-118111278D01*
X120718573Y-118073618D01*
X120753563Y-117979804D01*
X120753562Y-117979804D01*
X120753565Y-117979799D01*
X120759814Y-117921674D01*
X120759814Y-117874500D01*
X120778721Y-117816309D01*
X120828221Y-117780345D01*
X120858814Y-117775500D01*
X121070571Y-117775500D01*
X121128762Y-117794407D01*
X121163329Y-117839904D01*
X121215516Y-117979829D01*
X121254435Y-118031818D01*
X121301768Y-118095046D01*
X121301771Y-118095048D01*
X121301772Y-118095049D01*
X121416984Y-118181297D01*
X121551825Y-118231589D01*
X121551826Y-118231589D01*
X121551831Y-118231591D01*
X121611441Y-118238000D01*
X122657186Y-118237999D01*
X122716797Y-118231591D01*
X122788960Y-118204676D01*
X122851643Y-118181297D01*
X122851643Y-118181296D01*
X122851645Y-118181296D01*
X122966860Y-118095046D01*
X123053110Y-117979831D01*
X123075705Y-117919252D01*
X123103403Y-117844988D01*
X123103404Y-117844985D01*
X123103405Y-117844983D01*
X123109814Y-117785373D01*
X123109813Y-117014628D01*
X123103405Y-116955017D01*
X123097536Y-116939281D01*
X123053111Y-116820170D01*
X122966863Y-116704958D01*
X122966862Y-116704957D01*
X122966860Y-116704954D01*
X122966286Y-116704524D01*
X122851643Y-116618702D01*
X122716802Y-116568410D01*
X122716797Y-116568409D01*
X122716795Y-116568408D01*
X122716791Y-116568408D01*
X122685563Y-116565050D01*
X122657187Y-116562000D01*
X122657184Y-116562000D01*
X121611447Y-116562000D01*
X121611443Y-116562000D01*
X121611442Y-116562001D01*
X121604263Y-116562772D01*
X121551833Y-116568408D01*
X121551828Y-116568409D01*
X121416984Y-116618702D01*
X121301772Y-116704950D01*
X121301764Y-116704958D01*
X121215516Y-116820170D01*
X121177762Y-116921397D01*
X121165226Y-116955011D01*
X121163329Y-116960096D01*
X121125279Y-117008011D01*
X121070571Y-117024500D01*
X120743435Y-117024500D01*
X120685244Y-117005593D01*
X120664182Y-116984829D01*
X120620433Y-116926388D01*
X120620432Y-116926387D01*
X120620430Y-116926384D01*
X120615970Y-116923045D01*
X120508090Y-116842286D01*
X120376618Y-116793250D01*
X120376613Y-116793249D01*
X120376611Y-116793248D01*
X120376607Y-116793248D01*
X120350325Y-116790422D01*
X120318488Y-116787000D01*
X120318484Y-116787000D01*
X119993359Y-116787000D01*
X119935168Y-116768093D01*
X119923355Y-116758004D01*
X118204877Y-115039526D01*
X118204877Y-115039525D01*
X118119255Y-114990091D01*
X118119248Y-114990088D01*
X118071499Y-114977294D01*
X118071498Y-114977294D01*
X118023752Y-114964500D01*
X118023750Y-114964500D01*
X118023749Y-114964500D01*
X115956250Y-114964500D01*
X115857378Y-114964500D01*
X115809627Y-114977295D01*
X115809626Y-114977294D01*
X115761876Y-114990089D01*
X115761872Y-114990091D01*
X115676250Y-115039525D01*
X115676251Y-115039526D01*
X114182773Y-116533004D01*
X114128256Y-116560781D01*
X114112769Y-116562000D01*
X113911445Y-116562000D01*
X113911443Y-116562000D01*
X113911442Y-116562001D01*
X113904263Y-116562772D01*
X113851833Y-116568408D01*
X113851828Y-116568409D01*
X113716984Y-116618702D01*
X113601772Y-116704950D01*
X113601764Y-116704958D01*
X113515516Y-116820170D01*
X113465224Y-116955011D01*
X113465222Y-116955022D01*
X113462018Y-116984829D01*
X113459411Y-117009079D01*
X113458814Y-117014629D01*
X113458814Y-117785366D01*
X113458815Y-117785370D01*
X113465222Y-117844980D01*
X113465223Y-117844985D01*
X113515516Y-117979829D01*
X113554435Y-118031818D01*
X113601768Y-118095046D01*
X113601771Y-118095048D01*
X113601772Y-118095049D01*
X113716984Y-118181297D01*
X113851825Y-118231589D01*
X113851826Y-118231589D01*
X113851831Y-118231591D01*
X113911441Y-118238000D01*
X114700267Y-118237999D01*
X114758458Y-118256906D01*
X114770271Y-118266995D01*
X114971272Y-118467996D01*
X114999049Y-118522513D01*
X114989478Y-118582945D01*
X114946213Y-118626210D01*
X114901268Y-118637000D01*
X113911447Y-118637000D01*
X113911443Y-118637000D01*
X113911442Y-118637001D01*
X113904263Y-118637772D01*
X113851833Y-118643408D01*
X113851828Y-118643409D01*
X113716984Y-118693702D01*
X113601772Y-118779950D01*
X113601764Y-118779958D01*
X113515516Y-118895170D01*
X113465224Y-119030011D01*
X113465222Y-119030022D01*
X113458814Y-119089629D01*
X113458814Y-119860366D01*
X113458814Y-119860369D01*
X113458815Y-119860372D01*
X113459375Y-119865579D01*
X113465222Y-119919980D01*
X113465223Y-119919985D01*
X113515516Y-120054829D01*
X113601764Y-120170041D01*
X113601768Y-120170046D01*
X113601771Y-120170048D01*
X113601772Y-120170049D01*
X113716984Y-120256297D01*
X113851825Y-120306589D01*
X113851826Y-120306589D01*
X113851831Y-120306591D01*
X113911441Y-120313000D01*
X114957186Y-120312999D01*
X115016797Y-120306591D01*
X115102942Y-120274461D01*
X115151643Y-120256297D01*
X115151643Y-120256296D01*
X115151645Y-120256296D01*
X115266860Y-120170046D01*
X115353110Y-120054831D01*
X115403405Y-119919983D01*
X115403405Y-119919981D01*
X115405299Y-119914904D01*
X115443349Y-119866989D01*
X115498057Y-119850500D01*
X115612315Y-119850500D01*
X115670506Y-119869407D01*
X115706470Y-119918907D01*
X115711315Y-119949500D01*
X115711315Y-120096523D01*
X115726166Y-120190299D01*
X115726168Y-120190304D01*
X115783764Y-120303342D01*
X115873472Y-120393050D01*
X115986510Y-120450646D01*
X116080295Y-120465500D01*
X116443332Y-120465499D01*
X116443334Y-120465499D01*
X116443335Y-120465498D01*
X116490225Y-120458072D01*
X116537113Y-120450647D01*
X116537114Y-120450646D01*
X116537118Y-120450646D01*
X116537121Y-120450644D01*
X116544526Y-120448239D01*
X116545263Y-120450507D01*
X116594256Y-120442737D01*
X116648779Y-120470503D01*
X116648795Y-120470518D01*
X116948839Y-120770562D01*
X116948838Y-120770562D01*
X117018752Y-120840475D01*
X117104372Y-120889908D01*
X117104376Y-120889910D01*
X117152126Y-120902705D01*
X117152127Y-120902705D01*
X117199878Y-120915500D01*
X117199879Y-120915500D01*
X123764076Y-120915500D01*
X123822267Y-120934407D01*
X123858231Y-120983907D01*
X123858231Y-121045093D01*
X123823404Y-121093754D01*
X123677590Y-121202908D01*
X123490408Y-121390090D01*
X123331783Y-121601988D01*
X123204927Y-121834307D01*
X123204926Y-121834309D01*
X123112424Y-122082317D01*
X123056156Y-122340979D01*
X123037273Y-122605000D01*
X123056156Y-122869020D01*
X123056156Y-122869023D01*
X123056157Y-122869026D01*
X123112423Y-123127678D01*
X123112424Y-123127682D01*
X123204926Y-123375690D01*
X123204927Y-123375692D01*
X123331784Y-123608011D01*
X123331783Y-123608011D01*
X123490408Y-123819909D01*
X123490410Y-123819911D01*
X123490413Y-123819915D01*
X123677585Y-124007087D01*
X123677588Y-124007089D01*
X123677590Y-124007091D01*
X123889488Y-124165716D01*
X123987272Y-124219110D01*
X124029283Y-124263592D01*
X124037125Y-124324273D01*
X124007802Y-124377974D01*
X123952514Y-124404184D01*
X123939826Y-124405000D01*
X97905174Y-124405000D01*
X97846983Y-124386093D01*
X97811019Y-124336593D01*
X97811019Y-124275407D01*
X97846983Y-124225907D01*
X97857728Y-124219110D01*
X97955511Y-124165716D01*
X98167415Y-124007087D01*
X98354587Y-123819915D01*
X98513216Y-123608011D01*
X98640074Y-123375689D01*
X98732577Y-123127678D01*
X98788843Y-122869026D01*
X98807727Y-122605000D01*
X98788843Y-122340974D01*
X98732577Y-122082322D01*
X98640074Y-121834311D01*
X98513216Y-121601989D01*
X98513215Y-121601988D01*
X98513216Y-121601988D01*
X98354591Y-121390090D01*
X98354589Y-121390088D01*
X98354587Y-121390085D01*
X98167415Y-121202913D01*
X98167411Y-121202910D01*
X98167409Y-121202908D01*
X97955511Y-121044283D01*
X97723192Y-120917427D01*
X97723190Y-120917426D01*
X97475181Y-120824924D01*
X97475183Y-120824924D01*
X97417459Y-120812367D01*
X97216526Y-120768657D01*
X97216523Y-120768656D01*
X97216520Y-120768656D01*
X96952500Y-120749773D01*
X96688479Y-120768656D01*
X96688474Y-120768656D01*
X96688474Y-120768657D01*
X96585337Y-120791093D01*
X96429817Y-120824924D01*
X96181809Y-120917426D01*
X96181807Y-120917427D01*
X95949488Y-121044283D01*
X95737590Y-121202908D01*
X95550408Y-121390090D01*
X95391783Y-121601988D01*
X95264927Y-121834307D01*
X95264926Y-121834309D01*
X95172424Y-122082317D01*
X95116156Y-122340979D01*
X95097273Y-122605000D01*
X95116156Y-122869020D01*
X95116156Y-122869023D01*
X95116157Y-122869026D01*
X95172423Y-123127678D01*
X95172424Y-123127682D01*
X95264926Y-123375690D01*
X95264927Y-123375692D01*
X95391784Y-123608011D01*
X95391783Y-123608011D01*
X95550408Y-123819909D01*
X95550410Y-123819911D01*
X95550413Y-123819915D01*
X95737585Y-124007087D01*
X95737588Y-124007089D01*
X95737590Y-124007091D01*
X95949488Y-124165716D01*
X96047272Y-124219110D01*
X96089283Y-124263592D01*
X96097125Y-124324273D01*
X96067802Y-124377974D01*
X96012514Y-124404184D01*
X95999826Y-124405000D01*
X85833700Y-124405000D01*
X85831276Y-124404970D01*
X85828005Y-124404889D01*
X85742773Y-124402801D01*
X85725886Y-124400929D01*
X85551076Y-124366158D01*
X85532503Y-124360524D01*
X85368971Y-124292786D01*
X85351856Y-124283638D01*
X85204681Y-124185299D01*
X85189678Y-124172987D01*
X85064512Y-124047821D01*
X85052200Y-124032818D01*
X84953861Y-123885643D01*
X84944713Y-123868528D01*
X84876973Y-123704989D01*
X84871342Y-123686428D01*
X84836570Y-123511613D01*
X84834698Y-123494724D01*
X84832530Y-123406223D01*
X84832500Y-123403799D01*
X84832500Y-122600000D01*
X85692285Y-122600000D01*
X85711103Y-122803083D01*
X85766918Y-122999250D01*
X85857827Y-123181821D01*
X85980736Y-123344579D01*
X86131459Y-123481981D01*
X86304863Y-123589348D01*
X86495044Y-123663024D01*
X86695524Y-123700500D01*
X86899476Y-123700500D01*
X87099956Y-123663024D01*
X87290137Y-123589348D01*
X87463541Y-123481981D01*
X87614264Y-123344579D01*
X87737173Y-123181821D01*
X87828082Y-122999250D01*
X87883897Y-122803083D01*
X87902715Y-122600000D01*
X87883897Y-122396917D01*
X87828082Y-122200750D01*
X87737173Y-122018179D01*
X87614264Y-121855421D01*
X87463541Y-121718019D01*
X87290137Y-121610652D01*
X87099956Y-121536976D01*
X87099955Y-121536975D01*
X87099953Y-121536975D01*
X86899476Y-121499500D01*
X86695524Y-121499500D01*
X86495046Y-121536975D01*
X86482140Y-121541975D01*
X86304863Y-121610652D01*
X86229584Y-121657263D01*
X86131459Y-121718019D01*
X85980737Y-121855420D01*
X85857828Y-122018177D01*
X85857823Y-122018186D01*
X85766919Y-122200747D01*
X85766918Y-122200750D01*
X85711103Y-122396917D01*
X85692285Y-122600000D01*
X84832500Y-122600000D01*
X84832500Y-116749349D01*
X84851407Y-116691158D01*
X84900907Y-116655194D01*
X84962093Y-116655194D01*
X85011593Y-116691158D01*
X85019161Y-116703342D01*
X85019778Y-116704519D01*
X85019780Y-116704523D01*
X85023486Y-116709892D01*
X85109515Y-116834528D01*
X85109516Y-116834529D01*
X85109517Y-116834530D01*
X85227760Y-116939283D01*
X85367635Y-117012696D01*
X85521015Y-117050500D01*
X85521018Y-117050500D01*
X85655809Y-117050500D01*
X85714000Y-117069407D01*
X85749964Y-117118907D01*
X85751029Y-117176590D01*
X85711103Y-117316917D01*
X85692285Y-117520000D01*
X85711103Y-117723083D01*
X85766918Y-117919250D01*
X85857827Y-118101821D01*
X85980736Y-118264579D01*
X86131459Y-118401981D01*
X86304863Y-118509348D01*
X86495044Y-118583024D01*
X86695524Y-118620500D01*
X86899476Y-118620500D01*
X87099956Y-118583024D01*
X87290137Y-118509348D01*
X87463541Y-118401981D01*
X87558807Y-118315134D01*
X87614545Y-118289906D01*
X87674471Y-118302258D01*
X87715691Y-118347475D01*
X87724500Y-118388298D01*
X87724500Y-119191701D01*
X87705593Y-119249892D01*
X87656093Y-119285856D01*
X87594907Y-119285856D01*
X87558804Y-119264863D01*
X87463541Y-119178019D01*
X87290137Y-119070652D01*
X87099956Y-118996976D01*
X87099955Y-118996975D01*
X87099953Y-118996975D01*
X86899476Y-118959500D01*
X86695524Y-118959500D01*
X86495046Y-118996975D01*
X86425132Y-119024059D01*
X86304863Y-119070652D01*
X86216313Y-119125480D01*
X86131459Y-119178019D01*
X85992069Y-119305090D01*
X85980736Y-119315421D01*
X85951206Y-119354525D01*
X85857828Y-119478177D01*
X85857823Y-119478186D01*
X85766919Y-119660747D01*
X85766918Y-119660750D01*
X85711103Y-119856917D01*
X85692285Y-120060000D01*
X85711103Y-120263083D01*
X85766918Y-120459250D01*
X85857827Y-120641821D01*
X85980736Y-120804579D01*
X86131459Y-120941981D01*
X86304863Y-121049348D01*
X86495044Y-121123024D01*
X86695524Y-121160500D01*
X86899476Y-121160500D01*
X87099956Y-121123024D01*
X87290137Y-121049348D01*
X87463541Y-120941981D01*
X87614264Y-120804579D01*
X87664057Y-120738641D01*
X87714209Y-120703601D01*
X87775384Y-120704730D01*
X87813062Y-120728300D01*
X88433147Y-121348385D01*
X88460924Y-121402902D01*
X88451353Y-121463334D01*
X88408088Y-121506599D01*
X88398594Y-121509892D01*
X88398765Y-121510305D01*
X88389757Y-121514035D01*
X88306900Y-121569397D01*
X88306897Y-121569400D01*
X88251535Y-121652257D01*
X88251533Y-121652263D01*
X88237001Y-121725315D01*
X88237000Y-121725327D01*
X88237000Y-123474672D01*
X88237001Y-123474684D01*
X88251533Y-123547736D01*
X88251535Y-123547742D01*
X88306897Y-123630599D01*
X88306900Y-123630602D01*
X88355424Y-123663024D01*
X88389760Y-123685966D01*
X88445308Y-123697015D01*
X88462815Y-123700498D01*
X88462820Y-123700498D01*
X88462826Y-123700500D01*
X88462827Y-123700500D01*
X90212173Y-123700500D01*
X90212174Y-123700500D01*
X90285240Y-123685966D01*
X90368101Y-123630601D01*
X90423466Y-123547740D01*
X90438000Y-123474674D01*
X90438000Y-121725326D01*
X90437999Y-121725325D01*
X90437523Y-121720482D01*
X90439705Y-121720267D01*
X90445886Y-121668052D01*
X90487419Y-121623123D01*
X90535792Y-121610500D01*
X92718416Y-121610500D01*
X92766166Y-121597705D01*
X92766167Y-121597705D01*
X92813914Y-121584911D01*
X92813913Y-121584911D01*
X92813918Y-121584910D01*
X92899542Y-121535475D01*
X92949424Y-121485593D01*
X92969456Y-121465562D01*
X93801936Y-120633080D01*
X93856453Y-120605302D01*
X93916885Y-120614873D01*
X93960150Y-120658138D01*
X93964503Y-120667968D01*
X93982956Y-120716624D01*
X93989744Y-120734523D01*
X94079479Y-120864528D01*
X94079480Y-120864529D01*
X94079481Y-120864530D01*
X94197724Y-120969283D01*
X94337599Y-121042696D01*
X94490979Y-121080500D01*
X94490982Y-121080500D01*
X94648946Y-121080500D01*
X94648949Y-121080500D01*
X94802329Y-121042696D01*
X94942204Y-120969283D01*
X95060447Y-120864530D01*
X95150184Y-120734523D01*
X95206201Y-120586818D01*
X95223027Y-120448239D01*
X95225242Y-120430001D01*
X95225242Y-120429998D01*
X95206201Y-120273183D01*
X95206201Y-120273182D01*
X95165022Y-120164604D01*
X95162067Y-120103492D01*
X95195598Y-120052312D01*
X95252807Y-120030616D01*
X95257590Y-120030500D01*
X98900955Y-120030500D01*
X98959146Y-120049407D01*
X98970959Y-120059496D01*
X100918004Y-122006541D01*
X100945781Y-122061058D01*
X100947000Y-122076545D01*
X100947000Y-123479672D01*
X100947001Y-123479684D01*
X100961533Y-123552736D01*
X100961535Y-123552742D01*
X101016897Y-123635599D01*
X101016899Y-123635601D01*
X101099760Y-123690966D01*
X101147680Y-123700498D01*
X101172815Y-123705498D01*
X101172820Y-123705498D01*
X101172826Y-123705500D01*
X101172827Y-123705500D01*
X102922173Y-123705500D01*
X102922174Y-123705500D01*
X102995240Y-123690966D01*
X103078101Y-123635601D01*
X103133466Y-123552740D01*
X103148000Y-123479674D01*
X103148000Y-122605000D01*
X103482285Y-122605000D01*
X103501103Y-122808083D01*
X103556918Y-123004250D01*
X103647827Y-123186821D01*
X103770736Y-123349579D01*
X103921459Y-123486981D01*
X104094863Y-123594348D01*
X104285044Y-123668024D01*
X104485524Y-123705500D01*
X104689476Y-123705500D01*
X104889956Y-123668024D01*
X105080137Y-123594348D01*
X105253541Y-123486981D01*
X105404264Y-123349579D01*
X105527173Y-123186821D01*
X105618082Y-123004250D01*
X105673897Y-122808083D01*
X105692715Y-122605000D01*
X106022285Y-122605000D01*
X106041103Y-122808083D01*
X106096918Y-123004250D01*
X106187827Y-123186821D01*
X106310736Y-123349579D01*
X106461459Y-123486981D01*
X106634863Y-123594348D01*
X106825044Y-123668024D01*
X107025524Y-123705500D01*
X107229476Y-123705500D01*
X107429956Y-123668024D01*
X107620137Y-123594348D01*
X107793541Y-123486981D01*
X107944264Y-123349579D01*
X108067173Y-123186821D01*
X108158082Y-123004250D01*
X108213897Y-122808083D01*
X108232715Y-122605000D01*
X108562285Y-122605000D01*
X108581103Y-122808083D01*
X108636918Y-123004250D01*
X108727827Y-123186821D01*
X108850736Y-123349579D01*
X109001459Y-123486981D01*
X109174863Y-123594348D01*
X109365044Y-123668024D01*
X109565524Y-123705500D01*
X109769476Y-123705500D01*
X109969956Y-123668024D01*
X110160137Y-123594348D01*
X110333541Y-123486981D01*
X110484264Y-123349579D01*
X110607173Y-123186821D01*
X110698082Y-123004250D01*
X110753897Y-122808083D01*
X110772715Y-122605000D01*
X111102285Y-122605000D01*
X111121103Y-122808083D01*
X111176918Y-123004250D01*
X111267827Y-123186821D01*
X111390736Y-123349579D01*
X111541459Y-123486981D01*
X111714863Y-123594348D01*
X111905044Y-123668024D01*
X112105524Y-123705500D01*
X112309476Y-123705500D01*
X112509956Y-123668024D01*
X112700137Y-123594348D01*
X112873541Y-123486981D01*
X113024264Y-123349579D01*
X113147173Y-123186821D01*
X113238082Y-123004250D01*
X113293897Y-122808083D01*
X113312715Y-122605000D01*
X113642285Y-122605000D01*
X113661103Y-122808083D01*
X113716918Y-123004250D01*
X113807827Y-123186821D01*
X113930736Y-123349579D01*
X114081459Y-123486981D01*
X114254863Y-123594348D01*
X114445044Y-123668024D01*
X114645524Y-123705500D01*
X114849476Y-123705500D01*
X115049956Y-123668024D01*
X115240137Y-123594348D01*
X115413541Y-123486981D01*
X115564264Y-123349579D01*
X115687173Y-123186821D01*
X115778082Y-123004250D01*
X115833897Y-122808083D01*
X115852715Y-122605000D01*
X116182285Y-122605000D01*
X116201103Y-122808083D01*
X116256918Y-123004250D01*
X116347827Y-123186821D01*
X116470736Y-123349579D01*
X116621459Y-123486981D01*
X116794863Y-123594348D01*
X116985044Y-123668024D01*
X117185524Y-123705500D01*
X117389476Y-123705500D01*
X117589956Y-123668024D01*
X117780137Y-123594348D01*
X117953541Y-123486981D01*
X118104264Y-123349579D01*
X118227173Y-123186821D01*
X118318082Y-123004250D01*
X118373897Y-122808083D01*
X118392715Y-122605000D01*
X118722285Y-122605000D01*
X118741103Y-122808083D01*
X118796918Y-123004250D01*
X118887827Y-123186821D01*
X119010736Y-123349579D01*
X119161459Y-123486981D01*
X119334863Y-123594348D01*
X119525044Y-123668024D01*
X119725524Y-123705500D01*
X119929476Y-123705500D01*
X120129956Y-123668024D01*
X120320137Y-123594348D01*
X120493541Y-123486981D01*
X120644264Y-123349579D01*
X120767173Y-123186821D01*
X120858082Y-123004250D01*
X120913897Y-122808083D01*
X120932715Y-122605000D01*
X120913897Y-122401917D01*
X120858082Y-122205750D01*
X120767173Y-122023179D01*
X120644264Y-121860421D01*
X120493541Y-121723019D01*
X120320137Y-121615652D01*
X120129956Y-121541976D01*
X120129955Y-121541975D01*
X120129953Y-121541975D01*
X119929476Y-121504500D01*
X119725524Y-121504500D01*
X119525046Y-121541975D01*
X119455132Y-121569059D01*
X119334863Y-121615652D01*
X119267664Y-121657260D01*
X119161459Y-121723019D01*
X119010737Y-121860420D01*
X118887828Y-122023177D01*
X118887823Y-122023186D01*
X118796919Y-122205747D01*
X118796918Y-122205750D01*
X118741103Y-122401917D01*
X118722285Y-122605000D01*
X118392715Y-122605000D01*
X118373897Y-122401917D01*
X118318082Y-122205750D01*
X118227173Y-122023179D01*
X118104264Y-121860421D01*
X117953541Y-121723019D01*
X117780137Y-121615652D01*
X117589956Y-121541976D01*
X117589955Y-121541975D01*
X117589953Y-121541975D01*
X117389476Y-121504500D01*
X117185524Y-121504500D01*
X116985046Y-121541975D01*
X116915132Y-121569059D01*
X116794863Y-121615652D01*
X116727664Y-121657260D01*
X116621459Y-121723019D01*
X116470737Y-121860420D01*
X116347828Y-122023177D01*
X116347823Y-122023186D01*
X116256919Y-122205747D01*
X116256918Y-122205750D01*
X116201103Y-122401917D01*
X116182285Y-122605000D01*
X115852715Y-122605000D01*
X115833897Y-122401917D01*
X115778082Y-122205750D01*
X115687173Y-122023179D01*
X115564264Y-121860421D01*
X115413541Y-121723019D01*
X115240137Y-121615652D01*
X115049956Y-121541976D01*
X115049955Y-121541975D01*
X115049953Y-121541975D01*
X114849476Y-121504500D01*
X114645524Y-121504500D01*
X114445046Y-121541975D01*
X114375132Y-121569059D01*
X114254863Y-121615652D01*
X114187664Y-121657260D01*
X114081459Y-121723019D01*
X113930737Y-121860420D01*
X113807828Y-122023177D01*
X113807823Y-122023186D01*
X113716919Y-122205747D01*
X113716918Y-122205750D01*
X113661103Y-122401917D01*
X113642285Y-122605000D01*
X113312715Y-122605000D01*
X113293897Y-122401917D01*
X113238082Y-122205750D01*
X113147173Y-122023179D01*
X113024264Y-121860421D01*
X112873541Y-121723019D01*
X112700137Y-121615652D01*
X112509956Y-121541976D01*
X112509955Y-121541975D01*
X112509953Y-121541975D01*
X112309476Y-121504500D01*
X112105524Y-121504500D01*
X111905046Y-121541975D01*
X111835132Y-121569059D01*
X111714863Y-121615652D01*
X111647664Y-121657260D01*
X111541459Y-121723019D01*
X111390737Y-121860420D01*
X111267828Y-122023177D01*
X111267823Y-122023186D01*
X111176919Y-122205747D01*
X111176918Y-122205750D01*
X111121103Y-122401917D01*
X111102285Y-122605000D01*
X110772715Y-122605000D01*
X110753897Y-122401917D01*
X110698082Y-122205750D01*
X110607173Y-122023179D01*
X110484264Y-121860421D01*
X110333541Y-121723019D01*
X110160137Y-121615652D01*
X109969956Y-121541976D01*
X109969955Y-121541975D01*
X109969953Y-121541975D01*
X109769476Y-121504500D01*
X109565524Y-121504500D01*
X109365046Y-121541975D01*
X109295132Y-121569059D01*
X109174863Y-121615652D01*
X109107664Y-121657260D01*
X109001459Y-121723019D01*
X108850737Y-121860420D01*
X108727828Y-122023177D01*
X108727823Y-122023186D01*
X108636919Y-122205747D01*
X108636918Y-122205750D01*
X108581103Y-122401917D01*
X108562285Y-122605000D01*
X108232715Y-122605000D01*
X108213897Y-122401917D01*
X108158082Y-122205750D01*
X108067173Y-122023179D01*
X107944264Y-121860421D01*
X107793541Y-121723019D01*
X107620137Y-121615652D01*
X107429956Y-121541976D01*
X107429955Y-121541975D01*
X107429953Y-121541975D01*
X107229476Y-121504500D01*
X107025524Y-121504500D01*
X106825046Y-121541975D01*
X106755132Y-121569059D01*
X106634863Y-121615652D01*
X106567664Y-121657260D01*
X106461459Y-121723019D01*
X106310737Y-121860420D01*
X106187828Y-122023177D01*
X106187823Y-122023186D01*
X106096919Y-122205747D01*
X106096918Y-122205750D01*
X106041103Y-122401917D01*
X106022285Y-122605000D01*
X105692715Y-122605000D01*
X105673897Y-122401917D01*
X105618082Y-122205750D01*
X105527173Y-122023179D01*
X105404264Y-121860421D01*
X105253541Y-121723019D01*
X105080137Y-121615652D01*
X104889956Y-121541976D01*
X104889955Y-121541975D01*
X104889953Y-121541975D01*
X104689476Y-121504500D01*
X104485524Y-121504500D01*
X104285046Y-121541975D01*
X104215132Y-121569059D01*
X104094863Y-121615652D01*
X104027664Y-121657260D01*
X103921459Y-121723019D01*
X103770737Y-121860420D01*
X103647828Y-122023177D01*
X103647823Y-122023186D01*
X103556919Y-122205747D01*
X103556918Y-122205750D01*
X103501103Y-122401917D01*
X103482285Y-122605000D01*
X103148000Y-122605000D01*
X103148000Y-121730326D01*
X103147005Y-121725326D01*
X103144515Y-121712808D01*
X103133466Y-121657260D01*
X103096535Y-121601988D01*
X103078102Y-121574400D01*
X103078099Y-121574397D01*
X102995242Y-121519035D01*
X102995240Y-121519034D01*
X102995237Y-121519033D01*
X102995236Y-121519033D01*
X102922184Y-121504501D01*
X102922174Y-121504500D01*
X102922173Y-121504500D01*
X102522000Y-121504500D01*
X102463809Y-121485593D01*
X102427845Y-121436093D01*
X102423000Y-121405500D01*
X102423000Y-120480952D01*
X102441907Y-120422761D01*
X102456345Y-120406854D01*
X102537983Y-120334532D01*
X102627720Y-120204525D01*
X102683737Y-120056820D01*
X102700969Y-119914904D01*
X102702778Y-119900003D01*
X102702778Y-119900000D01*
X102683737Y-119743185D01*
X102683737Y-119743184D01*
X102627720Y-119595479D01*
X102537983Y-119465472D01*
X102497949Y-119430005D01*
X103774726Y-119430005D01*
X103793766Y-119586820D01*
X103793767Y-119586822D01*
X103838507Y-119704793D01*
X103849784Y-119734527D01*
X103939519Y-119864532D01*
X103939520Y-119864533D01*
X103939521Y-119864534D01*
X104057764Y-119969287D01*
X104197639Y-120042700D01*
X104351019Y-120080504D01*
X104351022Y-120080504D01*
X104508459Y-120080504D01*
X104566650Y-120099411D01*
X104578463Y-120109500D01*
X105099525Y-120630562D01*
X105099524Y-120630562D01*
X105169438Y-120700475D01*
X105255058Y-120749908D01*
X105255062Y-120749910D01*
X105302812Y-120762705D01*
X105302813Y-120762705D01*
X105350564Y-120775500D01*
X105350565Y-120775500D01*
X109611022Y-120775500D01*
X109658772Y-120762705D01*
X109658773Y-120762705D01*
X109706520Y-120749911D01*
X109706519Y-120749911D01*
X109706524Y-120749910D01*
X109792148Y-120700475D01*
X109862061Y-120630562D01*
X109862060Y-120630562D01*
X110190385Y-120302238D01*
X110244901Y-120274461D01*
X110260388Y-120273242D01*
X110417826Y-120273242D01*
X110417829Y-120273242D01*
X110571209Y-120235438D01*
X110711084Y-120162025D01*
X110829327Y-120057272D01*
X110919064Y-119927265D01*
X110975081Y-119779560D01*
X110992922Y-119632622D01*
X110994122Y-119622743D01*
X110994122Y-119622740D01*
X110975081Y-119465925D01*
X110975081Y-119465924D01*
X110919064Y-119318219D01*
X110871632Y-119249502D01*
X110829328Y-119188213D01*
X110817824Y-119178021D01*
X110711084Y-119083459D01*
X110609249Y-119030011D01*
X110571208Y-119010045D01*
X110417831Y-118972242D01*
X110417829Y-118972242D01*
X110259859Y-118972242D01*
X110259856Y-118972242D01*
X110106479Y-119010045D01*
X109966602Y-119083460D01*
X109848359Y-119188213D01*
X109758624Y-119318218D01*
X109702607Y-119465924D01*
X109702606Y-119465925D01*
X109683566Y-119622740D01*
X109683566Y-119622745D01*
X109691207Y-119685679D01*
X109679451Y-119745724D01*
X109662933Y-119767614D01*
X109435046Y-119995503D01*
X109380529Y-120023281D01*
X109365042Y-120024500D01*
X105596545Y-120024500D01*
X105538354Y-120005593D01*
X105526541Y-119995504D01*
X105105913Y-119574876D01*
X105078136Y-119520359D01*
X105077639Y-119492944D01*
X105085282Y-119430004D01*
X105084763Y-119425733D01*
X105096516Y-119365690D01*
X105141319Y-119324020D01*
X105202058Y-119316643D01*
X105248689Y-119339695D01*
X105358521Y-119436997D01*
X105498396Y-119510410D01*
X105651776Y-119548214D01*
X105651779Y-119548214D01*
X105809743Y-119548214D01*
X105809746Y-119548214D01*
X105963126Y-119510410D01*
X106103001Y-119436997D01*
X106221244Y-119332244D01*
X106310981Y-119202237D01*
X106366998Y-119054532D01*
X106386039Y-118897714D01*
X106366998Y-118740896D01*
X106310981Y-118593191D01*
X106262196Y-118522513D01*
X106221245Y-118463185D01*
X106187468Y-118433261D01*
X106103001Y-118358431D01*
X106009829Y-118309530D01*
X105963125Y-118285017D01*
X105809748Y-118247214D01*
X105809746Y-118247214D01*
X105651776Y-118247214D01*
X105651773Y-118247214D01*
X105498396Y-118285017D01*
X105358519Y-118358432D01*
X105240276Y-118463185D01*
X105150541Y-118593190D01*
X105094524Y-118740896D01*
X105094523Y-118740897D01*
X105075483Y-118897712D01*
X105075483Y-118897713D01*
X105076002Y-118901989D01*
X105064244Y-118962034D01*
X105019438Y-119003700D01*
X104958698Y-119011073D01*
X104912074Y-118988021D01*
X104882740Y-118962034D01*
X104802244Y-118890721D01*
X104715287Y-118845082D01*
X104662368Y-118817307D01*
X104508991Y-118779504D01*
X104508989Y-118779504D01*
X104351019Y-118779504D01*
X104351016Y-118779504D01*
X104197639Y-118817307D01*
X104057762Y-118890722D01*
X103939519Y-118995475D01*
X103849784Y-119125480D01*
X103793767Y-119273186D01*
X103793766Y-119273187D01*
X103774726Y-119430002D01*
X103774726Y-119430005D01*
X102497949Y-119430005D01*
X102419740Y-119360719D01*
X102333431Y-119315420D01*
X102279864Y-119287305D01*
X102126487Y-119249502D01*
X102126485Y-119249502D01*
X101968515Y-119249502D01*
X101968512Y-119249502D01*
X101815135Y-119287305D01*
X101675258Y-119360720D01*
X101557015Y-119465473D01*
X101467280Y-119595478D01*
X101411263Y-119743184D01*
X101411262Y-119743185D01*
X101392222Y-119900000D01*
X101392222Y-119900003D01*
X101411262Y-120056818D01*
X101411263Y-120056820D01*
X101431242Y-120109500D01*
X101467280Y-120204525D01*
X101557015Y-120334530D01*
X101557016Y-120334531D01*
X101557017Y-120334532D01*
X101638649Y-120406850D01*
X101669667Y-120459588D01*
X101672000Y-120480952D01*
X101672000Y-121405500D01*
X101653093Y-121463691D01*
X101603593Y-121499655D01*
X101573000Y-121504500D01*
X101519045Y-121504500D01*
X101460854Y-121485593D01*
X101449041Y-121475504D01*
X99328063Y-119354526D01*
X99328063Y-119354525D01*
X99242441Y-119305091D01*
X99242434Y-119305088D01*
X99194685Y-119292294D01*
X99194684Y-119292294D01*
X99146938Y-119279500D01*
X99146936Y-119279500D01*
X99146935Y-119279500D01*
X94298416Y-119279500D01*
X94199544Y-119279500D01*
X94151793Y-119292295D01*
X94151792Y-119292294D01*
X94104042Y-119305089D01*
X94104038Y-119305091D01*
X94018416Y-119354525D01*
X94018417Y-119354526D01*
X92542439Y-120830504D01*
X92487922Y-120858281D01*
X92472435Y-120859500D01*
X92201750Y-120859500D01*
X92143559Y-120840593D01*
X92107595Y-120791093D01*
X92107595Y-120729907D01*
X92143559Y-120680407D01*
X92155738Y-120672841D01*
X92282267Y-120606434D01*
X92400510Y-120501681D01*
X92490247Y-120371674D01*
X92546264Y-120223969D01*
X92561791Y-120096093D01*
X92565305Y-120067152D01*
X92565305Y-120067149D01*
X92546264Y-119910334D01*
X92546264Y-119910333D01*
X92490247Y-119762628D01*
X92437133Y-119685679D01*
X92400511Y-119632622D01*
X92389357Y-119622740D01*
X92282267Y-119527868D01*
X92187590Y-119478177D01*
X92142391Y-119454454D01*
X91989014Y-119416651D01*
X91989012Y-119416651D01*
X91831042Y-119416651D01*
X91831039Y-119416651D01*
X91677662Y-119454454D01*
X91537785Y-119527869D01*
X91419542Y-119632622D01*
X91329807Y-119762627D01*
X91273790Y-119910333D01*
X91273789Y-119910334D01*
X91254749Y-120067149D01*
X91254749Y-120067152D01*
X91273789Y-120223967D01*
X91273790Y-120223969D01*
X91303892Y-120303342D01*
X91329807Y-120371674D01*
X91419542Y-120501679D01*
X91419543Y-120501680D01*
X91419544Y-120501681D01*
X91537787Y-120606434D01*
X91664312Y-120672840D01*
X91707050Y-120716624D01*
X91715891Y-120777168D01*
X91687456Y-120831345D01*
X91632608Y-120858461D01*
X91618304Y-120859500D01*
X90311608Y-120859500D01*
X90253417Y-120840593D01*
X90217453Y-120791093D01*
X90217453Y-120729907D01*
X90232602Y-120700842D01*
X90277173Y-120641821D01*
X90368082Y-120459250D01*
X90423897Y-120263083D01*
X90442715Y-120060000D01*
X90423897Y-119856917D01*
X90368082Y-119660750D01*
X90277173Y-119478179D01*
X90154264Y-119315421D01*
X90003541Y-119178019D01*
X89830137Y-119070652D01*
X89639956Y-118996976D01*
X89639955Y-118996975D01*
X89639953Y-118996975D01*
X89439476Y-118959500D01*
X89235524Y-118959500D01*
X89035046Y-118996975D01*
X88965132Y-119024059D01*
X88844863Y-119070652D01*
X88679131Y-119173269D01*
X88671456Y-119178021D01*
X88641195Y-119205608D01*
X88585454Y-119230838D01*
X88525529Y-119218486D01*
X88484309Y-119173269D01*
X88475500Y-119132446D01*
X88475500Y-118447553D01*
X88494407Y-118389362D01*
X88543907Y-118353398D01*
X88605093Y-118353398D01*
X88641192Y-118374389D01*
X88671459Y-118401981D01*
X88844863Y-118509348D01*
X89035044Y-118583024D01*
X89235524Y-118620500D01*
X89439476Y-118620500D01*
X89639956Y-118583024D01*
X89830137Y-118509348D01*
X90003541Y-118401981D01*
X90154264Y-118264579D01*
X90277173Y-118101821D01*
X90368082Y-117919250D01*
X90423897Y-117723083D01*
X90442715Y-117520000D01*
X90423897Y-117316917D01*
X90368082Y-117120750D01*
X90277173Y-116938179D01*
X90154264Y-116775421D01*
X90003541Y-116638019D01*
X89830137Y-116530652D01*
X89639956Y-116456976D01*
X89639955Y-116456975D01*
X89639953Y-116456975D01*
X89439476Y-116419500D01*
X89235524Y-116419500D01*
X89035046Y-116456975D01*
X88986479Y-116475790D01*
X88844863Y-116530652D01*
X88702657Y-116618702D01*
X88671456Y-116638021D01*
X88641195Y-116665608D01*
X88585454Y-116690838D01*
X88525529Y-116678486D01*
X88484309Y-116633269D01*
X88475500Y-116592446D01*
X88475500Y-115907553D01*
X88494407Y-115849362D01*
X88543907Y-115813398D01*
X88605093Y-115813398D01*
X88641192Y-115834389D01*
X88671459Y-115861981D01*
X88844863Y-115969348D01*
X89035044Y-116043024D01*
X89235524Y-116080500D01*
X89439476Y-116080500D01*
X89639956Y-116043024D01*
X89830137Y-115969348D01*
X90003541Y-115861981D01*
X90154264Y-115724579D01*
X90277173Y-115561821D01*
X90368082Y-115379250D01*
X90423897Y-115183083D01*
X90442715Y-114980000D01*
X90423897Y-114776917D01*
X90368082Y-114580750D01*
X90277173Y-114398179D01*
X90154264Y-114235421D01*
X90003541Y-114098019D01*
X89830137Y-113990652D01*
X89639956Y-113916976D01*
X89639955Y-113916975D01*
X89639953Y-113916975D01*
X89439476Y-113879500D01*
X89235524Y-113879500D01*
X89035046Y-113916975D01*
X89022140Y-113921975D01*
X88844863Y-113990652D01*
X88697355Y-114081985D01*
X88671456Y-114098021D01*
X88641195Y-114125608D01*
X88585454Y-114150838D01*
X88525529Y-114138486D01*
X88484309Y-114093269D01*
X88475500Y-114052446D01*
X88475500Y-113367553D01*
X88494407Y-113309362D01*
X88543907Y-113273398D01*
X88605093Y-113273398D01*
X88641192Y-113294389D01*
X88671459Y-113321981D01*
X88844863Y-113429348D01*
X89035044Y-113503024D01*
X89235524Y-113540500D01*
X89439476Y-113540500D01*
X89639956Y-113503024D01*
X89830137Y-113429348D01*
X90003541Y-113321981D01*
X90154264Y-113184579D01*
X90277173Y-113021821D01*
X90368082Y-112839250D01*
X90423897Y-112643083D01*
X90442715Y-112440000D01*
X90423897Y-112236917D01*
X90368082Y-112040750D01*
X90277173Y-111858179D01*
X90154264Y-111695421D01*
X90003541Y-111558019D01*
X89830137Y-111450652D01*
X89639956Y-111376976D01*
X89639955Y-111376975D01*
X89639953Y-111376975D01*
X89439476Y-111339500D01*
X89235524Y-111339500D01*
X89035046Y-111376975D01*
X89011234Y-111386200D01*
X88844863Y-111450652D01*
X88717057Y-111529786D01*
X88671456Y-111558021D01*
X88641195Y-111585608D01*
X88585454Y-111610838D01*
X88525529Y-111598486D01*
X88484309Y-111553269D01*
X88475500Y-111512446D01*
X88475500Y-110827553D01*
X88494407Y-110769362D01*
X88543907Y-110733398D01*
X88605093Y-110733398D01*
X88641192Y-110754389D01*
X88671459Y-110781981D01*
X88844863Y-110889348D01*
X89035044Y-110963024D01*
X89235524Y-111000500D01*
X89439476Y-111000500D01*
X89639956Y-110963024D01*
X89830137Y-110889348D01*
X90003541Y-110781981D01*
X90154264Y-110644579D01*
X90277173Y-110481821D01*
X90368082Y-110299250D01*
X90423897Y-110103083D01*
X90442715Y-109900000D01*
X90423897Y-109696917D01*
X90368082Y-109500750D01*
X90277173Y-109318179D01*
X90154264Y-109155421D01*
X90003541Y-109018019D01*
X89830137Y-108910652D01*
X89639956Y-108836976D01*
X89639955Y-108836975D01*
X89639953Y-108836975D01*
X89439476Y-108799500D01*
X89235524Y-108799500D01*
X89035046Y-108836975D01*
X88965132Y-108864059D01*
X88844863Y-108910652D01*
X88677020Y-109014576D01*
X88671456Y-109018021D01*
X88641195Y-109045608D01*
X88585454Y-109070838D01*
X88525529Y-109058486D01*
X88484309Y-109013269D01*
X88475500Y-108972446D01*
X88475500Y-108287553D01*
X88494407Y-108229362D01*
X88543907Y-108193398D01*
X88605093Y-108193398D01*
X88641192Y-108214389D01*
X88671459Y-108241981D01*
X88844863Y-108349348D01*
X89035044Y-108423024D01*
X89235524Y-108460500D01*
X89439476Y-108460500D01*
X89639956Y-108423024D01*
X89830137Y-108349348D01*
X90003541Y-108241981D01*
X90154264Y-108104579D01*
X90277173Y-107941821D01*
X90368082Y-107759250D01*
X90423897Y-107563083D01*
X90442715Y-107360000D01*
X90423897Y-107156917D01*
X90368082Y-106960750D01*
X90277173Y-106778179D01*
X90154264Y-106615421D01*
X90003541Y-106478019D01*
X89830137Y-106370652D01*
X89639956Y-106296976D01*
X89639955Y-106296975D01*
X89639953Y-106296975D01*
X89439476Y-106259500D01*
X89235524Y-106259500D01*
X89035046Y-106296975D01*
X88977062Y-106319438D01*
X88844863Y-106370652D01*
X88679131Y-106473269D01*
X88671456Y-106478021D01*
X88641195Y-106505608D01*
X88585454Y-106530838D01*
X88525529Y-106518486D01*
X88484309Y-106473269D01*
X88475500Y-106432446D01*
X88475500Y-105747553D01*
X88494407Y-105689362D01*
X88543907Y-105653398D01*
X88605093Y-105653398D01*
X88641192Y-105674389D01*
X88671459Y-105701981D01*
X88844863Y-105809348D01*
X89035044Y-105883024D01*
X89235524Y-105920500D01*
X89439476Y-105920500D01*
X89639956Y-105883024D01*
X89830137Y-105809348D01*
X90003541Y-105701981D01*
X90154264Y-105564579D01*
X90277173Y-105401821D01*
X90368082Y-105219250D01*
X90423897Y-105023083D01*
X90442715Y-104820000D01*
X90423897Y-104616917D01*
X90368082Y-104420750D01*
X90366493Y-104417559D01*
X90357478Y-104357046D01*
X90385107Y-104303428D01*
X91219183Y-103469352D01*
X91273698Y-103441577D01*
X91334130Y-103451148D01*
X91377395Y-103494413D01*
X91381751Y-103504252D01*
X91419777Y-103604518D01*
X91419779Y-103604521D01*
X91419780Y-103604523D01*
X91450843Y-103649525D01*
X91509515Y-103734528D01*
X91509516Y-103734529D01*
X91509517Y-103734530D01*
X91627760Y-103839283D01*
X91767635Y-103912696D01*
X91921015Y-103950500D01*
X91921018Y-103950500D01*
X92078982Y-103950500D01*
X92078985Y-103950500D01*
X92232365Y-103912696D01*
X92372240Y-103839283D01*
X92490483Y-103734530D01*
X92580220Y-103604523D01*
X92636237Y-103456818D01*
X92650534Y-103339070D01*
X92655278Y-103300001D01*
X92655278Y-103299998D01*
X92636987Y-103149362D01*
X92636237Y-103143182D01*
X92580220Y-102995477D01*
X92540613Y-102938097D01*
X92523119Y-102879467D01*
X92539774Y-102826859D01*
X92556670Y-102801572D01*
X92589966Y-102751740D01*
X92604500Y-102678674D01*
X92604500Y-102121326D01*
X92603206Y-102114823D01*
X92599920Y-102098301D01*
X92589966Y-102048260D01*
X92547381Y-101984526D01*
X92534602Y-101965400D01*
X92534599Y-101965397D01*
X92451742Y-101910035D01*
X92451740Y-101910034D01*
X92451737Y-101910033D01*
X92451736Y-101910033D01*
X92378684Y-101895501D01*
X92378674Y-101895500D01*
X91821326Y-101895500D01*
X91821325Y-101895500D01*
X91821315Y-101895501D01*
X91748263Y-101910033D01*
X91748257Y-101910035D01*
X91721647Y-101927816D01*
X91666646Y-101944500D01*
X91525354Y-101944500D01*
X91470353Y-101927816D01*
X91443742Y-101910035D01*
X91443740Y-101910034D01*
X91443737Y-101910033D01*
X91443736Y-101910033D01*
X91370684Y-101895501D01*
X91370674Y-101895500D01*
X90821326Y-101895500D01*
X90821325Y-101895500D01*
X90821315Y-101895501D01*
X90748263Y-101910033D01*
X90748257Y-101910035D01*
X90665400Y-101965397D01*
X90665397Y-101965400D01*
X90610035Y-102048257D01*
X90606305Y-102057265D01*
X90605093Y-102056763D01*
X90580231Y-102101152D01*
X90524664Y-102126764D01*
X90464655Y-102114823D01*
X90423126Y-102069890D01*
X90417819Y-102055556D01*
X90368082Y-101880750D01*
X90366493Y-101877559D01*
X90357478Y-101817046D01*
X90385107Y-101763428D01*
X90638067Y-101510468D01*
X90692582Y-101482693D01*
X90738679Y-101488150D01*
X90738697Y-101488063D01*
X90739812Y-101488284D01*
X90745962Y-101489013D01*
X90748254Y-101489962D01*
X90748260Y-101489966D01*
X90821326Y-101504500D01*
X90821327Y-101504500D01*
X91370673Y-101504500D01*
X91370674Y-101504500D01*
X91443740Y-101489966D01*
X91470353Y-101472183D01*
X91525354Y-101455500D01*
X91666646Y-101455500D01*
X91721646Y-101472183D01*
X91748260Y-101489966D01*
X91797673Y-101499795D01*
X91821315Y-101504498D01*
X91821320Y-101504498D01*
X91821326Y-101504500D01*
X91821327Y-101504500D01*
X92378673Y-101504500D01*
X92378674Y-101504500D01*
X92451740Y-101489966D01*
X92534601Y-101434601D01*
X92589966Y-101351740D01*
X92604500Y-101278674D01*
X92604500Y-100721326D01*
X92589966Y-100648260D01*
X92568460Y-100616073D01*
X92534602Y-100565400D01*
X92534599Y-100565397D01*
X92451742Y-100510035D01*
X92451740Y-100510034D01*
X92451737Y-100510033D01*
X92451736Y-100510033D01*
X92378684Y-100495501D01*
X92378674Y-100495500D01*
X92378673Y-100495500D01*
X92167545Y-100495500D01*
X92109354Y-100476593D01*
X92097541Y-100466504D01*
X92004541Y-100373504D01*
X91976764Y-100318987D01*
X91986335Y-100258555D01*
X92029600Y-100215290D01*
X92074545Y-100204500D01*
X92378673Y-100204500D01*
X92378674Y-100204500D01*
X92451740Y-100189966D01*
X92534601Y-100134601D01*
X92589966Y-100051740D01*
X92604500Y-99978674D01*
X92604500Y-99421326D01*
X92589966Y-99348260D01*
X92534601Y-99265399D01*
X92534599Y-99265397D01*
X92451742Y-99210035D01*
X92451740Y-99210034D01*
X92451737Y-99210033D01*
X92451736Y-99210033D01*
X92378684Y-99195501D01*
X92378674Y-99195500D01*
X92378673Y-99195500D01*
X92167545Y-99195500D01*
X92109354Y-99176593D01*
X92097541Y-99166504D01*
X91195563Y-98264526D01*
X91195563Y-98264525D01*
X91109941Y-98215091D01*
X91109934Y-98215088D01*
X91062185Y-98202294D01*
X91062184Y-98202294D01*
X91014438Y-98189500D01*
X91014436Y-98189500D01*
X91014435Y-98189500D01*
X86360235Y-98189500D01*
X86261363Y-98189500D01*
X86213611Y-98202295D01*
X86165857Y-98215090D01*
X86080241Y-98264521D01*
X85369438Y-98975324D01*
X85369437Y-98975323D01*
X85299524Y-99045237D01*
X85250089Y-99130860D01*
X85250090Y-99130861D01*
X85242132Y-99160562D01*
X85228876Y-99210034D01*
X85225583Y-99222322D01*
X85224500Y-99226365D01*
X85224500Y-115819048D01*
X85205593Y-115877239D01*
X85191149Y-115893151D01*
X85109515Y-115965471D01*
X85019778Y-116095479D01*
X85019158Y-116096662D01*
X85018559Y-116097246D01*
X85016379Y-116100405D01*
X85015760Y-116099978D01*
X84975371Y-116139399D01*
X84914827Y-116148236D01*
X84860652Y-116119799D01*
X84833538Y-116064949D01*
X84832500Y-116050650D01*
X84832500Y-98946200D01*
X84832530Y-98943776D01*
X84834698Y-98855275D01*
X84836570Y-98838386D01*
X84846668Y-98787618D01*
X84871343Y-98663568D01*
X84876972Y-98645012D01*
X84944716Y-98481464D01*
X84953857Y-98464362D01*
X85052204Y-98317176D01*
X85064507Y-98302183D01*
X85189683Y-98177007D01*
X85204676Y-98164704D01*
X85351862Y-98066357D01*
X85368964Y-98057216D01*
X85532512Y-97989472D01*
X85551068Y-97983843D01*
X85725886Y-97949070D01*
X85742774Y-97947198D01*
X85816784Y-97945385D01*
X85831276Y-97945030D01*
X85833700Y-97945000D01*
X95999826Y-97945000D01*
X96058017Y-97963907D01*
G37*
%TD.AperFunction*%
%TA.AperFunction,Conductor*%
G36*
X122039789Y-106650000D02*
G01*
X122071763Y-106702166D01*
X122074500Y-106725285D01*
X122074500Y-107044715D01*
X122055593Y-107102906D01*
X122006093Y-107138870D01*
X121944907Y-107138870D01*
X121895407Y-107102906D01*
X121890165Y-107093546D01*
X121885966Y-107087261D01*
X121885966Y-107087260D01*
X121867182Y-107059148D01*
X121850500Y-107004149D01*
X121850500Y-106810172D01*
X121848598Y-106800612D01*
X121850716Y-106800190D01*
X121846938Y-106752163D01*
X121860887Y-106720275D01*
X121891384Y-106674633D01*
X121893648Y-106676146D01*
X121923766Y-106640878D01*
X121983259Y-106626590D01*
X122039789Y-106650000D01*
G37*
%TD.AperFunction*%
%TA.AperFunction,Conductor*%
G36*
X114839789Y-106640000D02*
G01*
X114871763Y-106692166D01*
X114874500Y-106715285D01*
X114874500Y-107034715D01*
X114855593Y-107092906D01*
X114806093Y-107128870D01*
X114744907Y-107128870D01*
X114695407Y-107092906D01*
X114690165Y-107083546D01*
X114685966Y-107077261D01*
X114685966Y-107077260D01*
X114667182Y-107049148D01*
X114650500Y-106994149D01*
X114650500Y-106800172D01*
X114648598Y-106790612D01*
X114650716Y-106790190D01*
X114646938Y-106742163D01*
X114660887Y-106710275D01*
X114691384Y-106664633D01*
X114693648Y-106666146D01*
X114723766Y-106630878D01*
X114783259Y-106616590D01*
X114839789Y-106640000D01*
G37*
%TD.AperFunction*%
%TA.AperFunction,Conductor*%
G36*
X118439789Y-106577500D02*
G01*
X118471763Y-106629666D01*
X118474500Y-106652785D01*
X118474500Y-106972215D01*
X118455593Y-107030406D01*
X118406093Y-107066370D01*
X118344907Y-107066370D01*
X118295407Y-107030406D01*
X118290165Y-107021046D01*
X118285966Y-107014761D01*
X118285966Y-107014760D01*
X118267182Y-106986648D01*
X118250500Y-106931649D01*
X118250500Y-106737672D01*
X118248598Y-106728112D01*
X118250716Y-106727690D01*
X118246938Y-106679663D01*
X118260887Y-106647775D01*
X118291384Y-106602133D01*
X118293648Y-106603646D01*
X118323766Y-106568378D01*
X118383259Y-106554090D01*
X118439789Y-106577500D01*
G37*
%TD.AperFunction*%
%TA.AperFunction,Conductor*%
G36*
X120798931Y-102938277D02*
G01*
X120836608Y-102961846D01*
X121775236Y-103900475D01*
X121796401Y-103912694D01*
X121796403Y-103912696D01*
X121832038Y-103933269D01*
X121860861Y-103949910D01*
X121860863Y-103949910D01*
X121860864Y-103949911D01*
X121908611Y-103962705D01*
X121908612Y-103962705D01*
X121956363Y-103975500D01*
X121956364Y-103975500D01*
X124303455Y-103975500D01*
X124361646Y-103994407D01*
X124373459Y-104004496D01*
X124595504Y-104226541D01*
X124623281Y-104281058D01*
X124624500Y-104296545D01*
X124624500Y-104427318D01*
X124605593Y-104485509D01*
X124556093Y-104521473D01*
X124510013Y-104525099D01*
X124427310Y-104512000D01*
X123917695Y-104512000D01*
X123842500Y-104523909D01*
X123782068Y-104514336D01*
X123757011Y-104496131D01*
X123660020Y-104399140D01*
X123522867Y-104316228D01*
X123522855Y-104316223D01*
X123369847Y-104268544D01*
X123369841Y-104268542D01*
X123303345Y-104262500D01*
X123277501Y-104262500D01*
X123277500Y-104262501D01*
X123277500Y-105233500D01*
X123258593Y-105291691D01*
X123209093Y-105327655D01*
X123178500Y-105332500D01*
X122148331Y-105332500D01*
X122151043Y-105362344D01*
X122198723Y-105515355D01*
X122198728Y-105515367D01*
X122281640Y-105652520D01*
X122285338Y-105657240D01*
X122283921Y-105658349D01*
X122308014Y-105705634D01*
X122298443Y-105766066D01*
X122280237Y-105791124D01*
X122219438Y-105851924D01*
X122149524Y-105921838D01*
X122100091Y-106007458D01*
X122100090Y-106007459D01*
X122089393Y-106047380D01*
X122056068Y-106098693D01*
X121998946Y-106120618D01*
X121939846Y-106104781D01*
X121901342Y-106057230D01*
X121896669Y-106041069D01*
X121885966Y-105987260D01*
X121830601Y-105904399D01*
X121829119Y-105903409D01*
X121819498Y-105896980D01*
X121781619Y-105848930D01*
X121775500Y-105814665D01*
X121775500Y-104832499D01*
X122148331Y-104832499D01*
X122148332Y-104832500D01*
X122777499Y-104832500D01*
X122777500Y-104832499D01*
X122777500Y-104262501D01*
X122777499Y-104262500D01*
X122751654Y-104262500D01*
X122685158Y-104268542D01*
X122685152Y-104268544D01*
X122532144Y-104316223D01*
X122532132Y-104316228D01*
X122394979Y-104399140D01*
X122281640Y-104512479D01*
X122198728Y-104649632D01*
X122198723Y-104649644D01*
X122151043Y-104802655D01*
X122148331Y-104832499D01*
X121775500Y-104832499D01*
X121775500Y-104740238D01*
X121773450Y-104732587D01*
X121773450Y-104732586D01*
X121766780Y-104707693D01*
X121749911Y-104644735D01*
X121749908Y-104644729D01*
X121700478Y-104559114D01*
X121700477Y-104559113D01*
X121700476Y-104559112D01*
X121700475Y-104559110D01*
X120790891Y-103649526D01*
X120790891Y-103649525D01*
X120705269Y-103600091D01*
X120705262Y-103600088D01*
X120657513Y-103587294D01*
X120657512Y-103587294D01*
X120609766Y-103574500D01*
X120609764Y-103574500D01*
X120609763Y-103574500D01*
X119986794Y-103574500D01*
X119928603Y-103555593D01*
X119892639Y-103506093D01*
X119892639Y-103444907D01*
X119928603Y-103395407D01*
X119968603Y-103378186D01*
X119986336Y-103374871D01*
X120129956Y-103348024D01*
X120320137Y-103274348D01*
X120493541Y-103166981D01*
X120644264Y-103029579D01*
X120687601Y-102972191D01*
X120737756Y-102937147D01*
X120798931Y-102938277D01*
G37*
%TD.AperFunction*%
%TA.AperFunction,Conductor*%
G36*
X116085017Y-100377698D02*
G01*
X116107225Y-100408265D01*
X116113897Y-100422574D01*
X116113898Y-100422576D01*
X116249386Y-100616073D01*
X116416426Y-100783113D01*
X116609922Y-100918600D01*
X116824009Y-101018430D01*
X116937018Y-101048711D01*
X116988332Y-101082035D01*
X117010259Y-101139156D01*
X116994424Y-101198257D01*
X116947157Y-101236653D01*
X116794863Y-101295652D01*
X116698911Y-101355063D01*
X116621459Y-101403019D01*
X116510140Y-101504500D01*
X116470736Y-101540421D01*
X116466870Y-101545541D01*
X116347828Y-101703177D01*
X116347823Y-101703186D01*
X116259407Y-101880751D01*
X116256918Y-101885750D01*
X116201103Y-102081917D01*
X116182285Y-102285000D01*
X116201103Y-102488083D01*
X116256918Y-102684250D01*
X116347827Y-102866821D01*
X116470736Y-103029579D01*
X116621459Y-103166981D01*
X116794863Y-103274348D01*
X116972554Y-103343185D01*
X117019985Y-103381837D01*
X117030926Y-103423179D01*
X117045025Y-103398761D01*
X117100921Y-103373875D01*
X117129454Y-103375018D01*
X117185524Y-103385500D01*
X117185525Y-103385500D01*
X117389471Y-103385500D01*
X117389476Y-103385500D01*
X117395036Y-103384460D01*
X117455708Y-103392351D01*
X117483233Y-103411770D01*
X118321938Y-104250475D01*
X118321940Y-104250476D01*
X118321941Y-104250477D01*
X118321942Y-104250478D01*
X118407559Y-104299909D01*
X118407557Y-104299909D01*
X118407561Y-104299910D01*
X118407563Y-104299911D01*
X118503064Y-104325500D01*
X118503065Y-104325500D01*
X118590428Y-104325500D01*
X118648619Y-104344407D01*
X118684583Y-104393907D01*
X118684583Y-104455093D01*
X118675150Y-104475716D01*
X118598728Y-104602132D01*
X118598723Y-104602144D01*
X118551043Y-104755155D01*
X118548331Y-104784999D01*
X118548332Y-104785000D01*
X119578500Y-104785000D01*
X119636691Y-104803907D01*
X119672655Y-104853407D01*
X119677500Y-104884000D01*
X119677500Y-105186000D01*
X119658593Y-105244191D01*
X119609093Y-105280155D01*
X119578500Y-105285000D01*
X118548331Y-105285000D01*
X118551043Y-105314844D01*
X118598723Y-105467855D01*
X118598728Y-105467867D01*
X118681640Y-105605020D01*
X118685237Y-105608617D01*
X118713014Y-105663134D01*
X118703443Y-105723566D01*
X118685237Y-105748624D01*
X118619438Y-105814424D01*
X118549524Y-105884338D01*
X118500091Y-105969959D01*
X118500087Y-105969967D01*
X118493927Y-105992962D01*
X118493920Y-105992989D01*
X118493383Y-105994991D01*
X118460045Y-106046297D01*
X118402918Y-106068209D01*
X118343822Y-106052357D01*
X118305329Y-106004797D01*
X118300665Y-105988658D01*
X118300500Y-105987828D01*
X118300500Y-105987826D01*
X118285966Y-105914760D01*
X118230601Y-105831899D01*
X118228456Y-105830466D01*
X118219498Y-105824480D01*
X118181619Y-105776430D01*
X118175500Y-105742165D01*
X118175500Y-104740238D01*
X118173450Y-104732586D01*
X118149910Y-104644734D01*
X118149908Y-104644731D01*
X118149908Y-104644729D01*
X118100475Y-104559110D01*
X118030562Y-104489196D01*
X118030562Y-104489197D01*
X117150891Y-103609526D01*
X117150891Y-103609525D01*
X117061767Y-103558069D01*
X117020827Y-103512599D01*
X117018067Y-103486342D01*
X117013536Y-103498039D01*
X116962120Y-103531205D01*
X116936791Y-103534500D01*
X116169045Y-103534500D01*
X116110854Y-103515593D01*
X116099041Y-103505504D01*
X115650501Y-103056964D01*
X115622724Y-103002447D01*
X115632295Y-102942015D01*
X115641502Y-102927299D01*
X115657614Y-102905963D01*
X115687173Y-102866821D01*
X115778082Y-102684250D01*
X115833897Y-102488083D01*
X115852715Y-102285000D01*
X115833897Y-102081917D01*
X115778082Y-101885750D01*
X115687173Y-101703179D01*
X115564264Y-101540421D01*
X115413541Y-101403019D01*
X115240137Y-101295652D01*
X115087840Y-101236652D01*
X115040410Y-101198001D01*
X115024756Y-101138852D01*
X115046859Y-101081799D01*
X115097981Y-101048711D01*
X115210990Y-101018430D01*
X115425077Y-100918600D01*
X115618573Y-100783113D01*
X115785613Y-100616073D01*
X115921101Y-100422576D01*
X115921102Y-100422574D01*
X115927775Y-100408265D01*
X115969503Y-100363516D01*
X116029564Y-100351841D01*
X116085017Y-100377698D01*
G37*
%TD.AperFunction*%
%TA.AperFunction,Conductor*%
G36*
X113545017Y-100377698D02*
G01*
X113567225Y-100408265D01*
X113573897Y-100422574D01*
X113573898Y-100422576D01*
X113709386Y-100616073D01*
X113876426Y-100783113D01*
X114069922Y-100918600D01*
X114284009Y-101018430D01*
X114397018Y-101048711D01*
X114448332Y-101082035D01*
X114470259Y-101139156D01*
X114454424Y-101198257D01*
X114407157Y-101236653D01*
X114254863Y-101295652D01*
X114158911Y-101355063D01*
X114081459Y-101403019D01*
X113970140Y-101504500D01*
X113930736Y-101540421D01*
X113926870Y-101545541D01*
X113807828Y-101703177D01*
X113807823Y-101703186D01*
X113719407Y-101880751D01*
X113716918Y-101885750D01*
X113661103Y-102081917D01*
X113642285Y-102285000D01*
X113661103Y-102488083D01*
X113716918Y-102684250D01*
X113807827Y-102866821D01*
X113930736Y-103029579D01*
X114081459Y-103166981D01*
X114254863Y-103274348D01*
X114445044Y-103348024D01*
X114645524Y-103385500D01*
X114849471Y-103385500D01*
X114849476Y-103385500D01*
X114855036Y-103384460D01*
X114915708Y-103392351D01*
X114943233Y-103411770D01*
X115580767Y-104049304D01*
X115608544Y-104103821D01*
X115598973Y-104164253D01*
X115555708Y-104207518D01*
X115519722Y-104217902D01*
X115485158Y-104221042D01*
X115485152Y-104221044D01*
X115332144Y-104268723D01*
X115332132Y-104268728D01*
X115194979Y-104351640D01*
X115081640Y-104464979D01*
X114998728Y-104602132D01*
X114998723Y-104602144D01*
X114951043Y-104755155D01*
X114948331Y-104784999D01*
X114948332Y-104785000D01*
X115978500Y-104785000D01*
X116036691Y-104803907D01*
X116072655Y-104853407D01*
X116077500Y-104884000D01*
X116077500Y-105186000D01*
X116058593Y-105244191D01*
X116009093Y-105280155D01*
X115978500Y-105285000D01*
X114948331Y-105285000D01*
X114951043Y-105314844D01*
X114998723Y-105467855D01*
X114998728Y-105467867D01*
X115069659Y-105585201D01*
X115083583Y-105644781D01*
X115059827Y-105701166D01*
X115054942Y-105706420D01*
X115019439Y-105741924D01*
X115019438Y-105741924D01*
X114949524Y-105811838D01*
X114900091Y-105897458D01*
X114900088Y-105897465D01*
X114893356Y-105922591D01*
X114877976Y-105979987D01*
X114844652Y-106031301D01*
X114787530Y-106053227D01*
X114728430Y-106037391D01*
X114689925Y-105989840D01*
X114687036Y-105979845D01*
X114685966Y-105977263D01*
X114685966Y-105977260D01*
X114630601Y-105894399D01*
X114619498Y-105886980D01*
X114581619Y-105838930D01*
X114575500Y-105804665D01*
X114575500Y-104605234D01*
X114574388Y-104601085D01*
X114574386Y-104601080D01*
X114559286Y-104544724D01*
X114559286Y-104544723D01*
X114549911Y-104509736D01*
X114549910Y-104509735D01*
X114549910Y-104509733D01*
X114532585Y-104479725D01*
X114515372Y-104449910D01*
X114515370Y-104449908D01*
X114500477Y-104424111D01*
X114500476Y-104424110D01*
X114500475Y-104424108D01*
X113120322Y-103043956D01*
X113092546Y-102989440D01*
X113102117Y-102929008D01*
X113111319Y-102914298D01*
X113147173Y-102866821D01*
X113238082Y-102684250D01*
X113293897Y-102488083D01*
X113312715Y-102285000D01*
X113293897Y-102081917D01*
X113238082Y-101885750D01*
X113147173Y-101703179D01*
X113024264Y-101540421D01*
X112873541Y-101403019D01*
X112700137Y-101295652D01*
X112547840Y-101236652D01*
X112500410Y-101198001D01*
X112484756Y-101138852D01*
X112506859Y-101081799D01*
X112557981Y-101048711D01*
X112670990Y-101018430D01*
X112885077Y-100918600D01*
X113078573Y-100783113D01*
X113245613Y-100616073D01*
X113381101Y-100422576D01*
X113381102Y-100422574D01*
X113387775Y-100408265D01*
X113429503Y-100363516D01*
X113489564Y-100351841D01*
X113545017Y-100377698D01*
G37*
%TD.AperFunction*%
%TA.AperFunction,Conductor*%
G36*
X118625017Y-100377698D02*
G01*
X118647225Y-100408265D01*
X118653897Y-100422574D01*
X118653898Y-100422576D01*
X118789386Y-100616073D01*
X118956426Y-100783113D01*
X119149922Y-100918600D01*
X119364009Y-101018430D01*
X119477018Y-101048711D01*
X119528332Y-101082035D01*
X119550259Y-101139156D01*
X119534424Y-101198257D01*
X119487157Y-101236653D01*
X119334863Y-101295652D01*
X119238911Y-101355063D01*
X119161459Y-101403019D01*
X119050140Y-101504500D01*
X119010736Y-101540421D01*
X119006870Y-101545541D01*
X118887828Y-101703177D01*
X118887823Y-101703186D01*
X118799407Y-101880751D01*
X118796918Y-101885750D01*
X118741103Y-102081917D01*
X118722285Y-102285000D01*
X118741103Y-102488083D01*
X118796918Y-102684250D01*
X118887827Y-102866821D01*
X119010736Y-103029579D01*
X119161459Y-103166981D01*
X119334863Y-103274348D01*
X119525044Y-103348024D01*
X119647763Y-103370964D01*
X119686397Y-103378186D01*
X119740123Y-103407464D01*
X119766379Y-103462729D01*
X119755136Y-103522873D01*
X119710689Y-103564921D01*
X119668206Y-103574500D01*
X118749045Y-103574500D01*
X118690854Y-103555593D01*
X118679041Y-103545504D01*
X118190501Y-103056964D01*
X118162724Y-103002447D01*
X118172295Y-102942015D01*
X118181502Y-102927299D01*
X118197614Y-102905963D01*
X118227173Y-102866821D01*
X118318082Y-102684250D01*
X118373897Y-102488083D01*
X118392715Y-102285000D01*
X118373897Y-102081917D01*
X118318082Y-101885750D01*
X118227173Y-101703179D01*
X118104264Y-101540421D01*
X117953541Y-101403019D01*
X117780137Y-101295652D01*
X117627840Y-101236652D01*
X117580410Y-101198001D01*
X117564756Y-101138852D01*
X117586859Y-101081799D01*
X117637981Y-101048711D01*
X117750990Y-101018430D01*
X117965077Y-100918600D01*
X118158573Y-100783113D01*
X118325613Y-100616073D01*
X118461101Y-100422576D01*
X118461102Y-100422574D01*
X118467775Y-100408265D01*
X118509503Y-100363516D01*
X118569564Y-100351841D01*
X118625017Y-100377698D01*
G37*
%TD.AperFunction*%
%TA.AperFunction,Conductor*%
G36*
X104121575Y-99552007D02*
G01*
X104087500Y-99679174D01*
X104087500Y-99810826D01*
X104121575Y-99937993D01*
X104154488Y-99995000D01*
X102480512Y-99995000D01*
X102513425Y-99937993D01*
X102547500Y-99810826D01*
X102547500Y-99679174D01*
X102513425Y-99552007D01*
X102480512Y-99495000D01*
X104154488Y-99495000D01*
X104121575Y-99552007D01*
G37*
%TD.AperFunction*%
%TA.AperFunction,Conductor*%
G36*
X106661575Y-99552007D02*
G01*
X106627500Y-99679174D01*
X106627500Y-99810826D01*
X106661575Y-99937993D01*
X106694488Y-99995000D01*
X105020512Y-99995000D01*
X105053425Y-99937993D01*
X105087500Y-99810826D01*
X105087500Y-99679174D01*
X105053425Y-99552007D01*
X105020512Y-99495000D01*
X106694488Y-99495000D01*
X106661575Y-99552007D01*
G37*
%TD.AperFunction*%
%TA.AperFunction,Conductor*%
G36*
X109201575Y-99552007D02*
G01*
X109167500Y-99679174D01*
X109167500Y-99810826D01*
X109201575Y-99937993D01*
X109234488Y-99995000D01*
X107560512Y-99995000D01*
X107593425Y-99937993D01*
X107627500Y-99810826D01*
X107627500Y-99679174D01*
X107593425Y-99552007D01*
X107560512Y-99495000D01*
X109234488Y-99495000D01*
X109201575Y-99552007D01*
G37*
%TD.AperFunction*%
%TA.AperFunction,Conductor*%
G36*
X111741575Y-99552007D02*
G01*
X111707500Y-99679174D01*
X111707500Y-99810826D01*
X111741575Y-99937993D01*
X111774488Y-99995000D01*
X110100512Y-99995000D01*
X110133425Y-99937993D01*
X110167500Y-99810826D01*
X110167500Y-99679174D01*
X110133425Y-99552007D01*
X110100512Y-99495000D01*
X111774488Y-99495000D01*
X111741575Y-99552007D01*
G37*
%TD.AperFunction*%
%TA.AperFunction,Conductor*%
G36*
X114281575Y-99552007D02*
G01*
X114247500Y-99679174D01*
X114247500Y-99810826D01*
X114281575Y-99937993D01*
X114314488Y-99995000D01*
X112640512Y-99995000D01*
X112673425Y-99937993D01*
X112707500Y-99810826D01*
X112707500Y-99679174D01*
X112673425Y-99552007D01*
X112640512Y-99495000D01*
X114314488Y-99495000D01*
X114281575Y-99552007D01*
G37*
%TD.AperFunction*%
%TA.AperFunction,Conductor*%
G36*
X116821575Y-99552007D02*
G01*
X116787500Y-99679174D01*
X116787500Y-99810826D01*
X116821575Y-99937993D01*
X116854488Y-99995000D01*
X115180512Y-99995000D01*
X115213425Y-99937993D01*
X115247500Y-99810826D01*
X115247500Y-99679174D01*
X115213425Y-99552007D01*
X115180512Y-99495000D01*
X116854488Y-99495000D01*
X116821575Y-99552007D01*
G37*
%TD.AperFunction*%
%TA.AperFunction,Conductor*%
G36*
X119361575Y-99552007D02*
G01*
X119327500Y-99679174D01*
X119327500Y-99810826D01*
X119361575Y-99937993D01*
X119394488Y-99995000D01*
X117720512Y-99995000D01*
X117753425Y-99937993D01*
X117787500Y-99810826D01*
X117787500Y-99679174D01*
X117753425Y-99552007D01*
X117720512Y-99495000D01*
X119394488Y-99495000D01*
X119361575Y-99552007D01*
G37*
%TD.AperFunction*%
%TD*%
M02*
