M48
; DRILL file {KiCad 9.0.4} date 2025-08-20T17:26:22-0400
; FORMAT={-:-/ absolute / metric / decimal}
; #@! TF.CreationDate,2025-08-20T17:26:22-04:00
; #@! TF.GenerationSoftware,Kicad,Pcbnew,9.0.4
; #@! TF.FileFunction,Plated,1,4,PTH
FMAT,2
METRIC
; #@! TA.AperFunction,Plated,PTH,ViaDrill
T1C0.200
; #@! TA.AperFunction,Plated,PTH,ComponentDrill
T2C0.200
; #@! TA.AperFunction,Plated,PTH,ViaDrill
T3C0.400
; #@! TA.AperFunction,Plated,PTH,ComponentDrill
T4C1.000
; #@! TA.AperFunction,Plated,PTH,ComponentDrill
T5C2.200
%
G90
G05
T1
X85.6Y-116.4
X90.763Y-117.787
X91.8Y-123.6
X92.25Y-112.0
X93.0Y-114.8
X93.2Y-123.6
X93.363Y-118.279
X94.4Y-98.4
X94.4Y-101.0
X94.6Y-105.8
X94.8Y-116.0
X95.9Y-118.0
X96.2Y-103.2
X98.0Y-110.0
X99.007Y-119.58
X99.4Y-123.8
X101.934Y-119.7
X103.225Y-107.763
X104.0Y-109.6
X104.0Y-118.1
X107.303Y-118.794
X107.753Y-104.65
X108.862Y-118.749
X110.704Y-118.226
X111.2Y-104.2
X112.2Y-116.0
X112.2Y-118.4
X115.6Y-115.4
X115.8Y-111.2
X117.2Y-117.6
X119.4Y-114.6
X122.15Y-104.65
X123.909Y-118.509
X124.8Y-119.0
X126.2Y-102.0
X126.4Y-113.6
T2
X92.0Y-106.5
X92.0Y-118.2
X96.0Y-107.5
X99.2Y-117.2
X100.3Y-107.425
X102.2Y-118.4
X104.2Y-107.2
X105.0Y-119.8
X109.274Y-110.891
X109.274Y-111.88
X109.769Y-111.386
X110.264Y-110.891
X110.264Y-111.88
X114.2Y-107.425
X115.8Y-114.5
X117.1Y-114.0
X117.8Y-107.362
X118.4Y-114.0
X121.4Y-107.435
X123.0Y-115.6
X125.0Y-107.483
X125.9Y-110.2
T3
X94.315Y-119.66
X109.2Y-107.025
T4
X86.797Y-99.74
X86.797Y-102.28
X86.797Y-104.82
X86.797Y-107.36
X86.797Y-109.9
X86.797Y-112.44
X86.797Y-114.98
X86.797Y-117.52
X86.797Y-120.06
X86.797Y-122.6
X89.337Y-99.74
X89.337Y-102.28
X89.337Y-104.82
X89.337Y-107.36
X89.337Y-109.9
X89.337Y-112.44
X89.337Y-114.98
X89.337Y-117.52
X89.337Y-120.06
X89.337Y-122.6
X102.047Y-99.745
X102.047Y-102.285
X102.047Y-122.605
X104.587Y-99.745
X104.587Y-102.285
X104.587Y-122.605
X107.127Y-99.745
X107.127Y-102.285
X107.127Y-122.605
X109.667Y-99.745
X109.667Y-102.285
X109.667Y-122.605
X112.207Y-99.745
X112.207Y-102.285
X112.207Y-122.605
X114.747Y-99.745
X114.747Y-102.285
X114.747Y-122.605
X117.287Y-99.745
X117.287Y-102.285
X117.287Y-122.605
X119.828Y-99.745
X119.828Y-102.285
X119.828Y-122.605
X122.352Y-102.285
X124.892Y-112.445
X124.892Y-114.985
X124.892Y-117.525
T5
X96.953Y-99.745
X96.953Y-122.605
X124.892Y-99.745
X124.892Y-122.605
M30
