%TF.GenerationSoftware,KiCad,Pcbnew,9.0.4*%
%TF.CreationDate,2025-08-20T17:26:20-04:00*%
%TF.ProjectId,tac5212_audio_board_single_ended,74616335-3231-4325-9f61-7564696f5f62,rev?*%
%TF.SameCoordinates,Original*%
%TF.FileFunction,Paste,Top*%
%TF.FilePolarity,Positive*%
%FSLAX46Y46*%
G04 Gerber Fmt 4.6, Leading zero omitted, Abs format (unit mm)*
G04 Created by KiCad (PCBNEW 9.0.4) date 2025-08-20 17:26:20*
%MOMM*%
%LPD*%
G01*
G04 APERTURE LIST*
G04 Aperture macros list*
%AMRoundRect*
0 Rectangle with rounded corners*
0 $1 Rounding radius*
0 $2 $3 $4 $5 $6 $7 $8 $9 X,Y pos of 4 corners*
0 Add a 4 corners polygon primitive as box body*
4,1,4,$2,$3,$4,$5,$6,$7,$8,$9,$2,$3,0*
0 Add four circle primitives for the rounded corners*
1,1,$1+$1,$2,$3*
1,1,$1+$1,$4,$5*
1,1,$1+$1,$6,$7*
1,1,$1+$1,$8,$9*
0 Add four rect primitives between the rounded corners*
20,1,$1+$1,$2,$3,$4,$5,0*
20,1,$1+$1,$4,$5,$6,$7,0*
20,1,$1+$1,$6,$7,$8,$9,0*
20,1,$1+$1,$8,$9,$2,$3,0*%
%AMFreePoly0*
4,1,25,0.251037,0.433748,0.282717,0.409439,0.409439,0.282717,0.449030,0.214145,0.454242,0.174554,0.454242,-0.174554,0.433748,-0.251037,0.409439,-0.282717,0.282717,-0.409439,0.214145,-0.449030,0.174554,-0.454242,-0.174554,-0.454242,-0.251037,-0.433748,-0.282717,-0.409439,-0.409439,-0.282717,-0.449030,-0.214145,-0.454242,-0.174554,-0.454242,0.174554,-0.433748,0.251037,-0.409439,0.282717,
-0.282717,0.409439,-0.214145,0.449030,-0.174554,0.454242,0.174554,0.454242,0.251037,0.433748,0.251037,0.433748,$1*%
G04 Aperture macros list end*
%ADD10RoundRect,0.160000X-0.252791X0.026517X0.026517X-0.252791X0.252791X-0.026517X-0.026517X0.252791X0*%
%ADD11RoundRect,0.135000X0.226274X0.035355X0.035355X0.226274X-0.226274X-0.035355X-0.035355X-0.226274X0*%
%ADD12RoundRect,0.250000X-0.337500X-0.475000X0.337500X-0.475000X0.337500X0.475000X-0.337500X0.475000X0*%
%ADD13RoundRect,0.160000X0.026517X0.252791X-0.252791X-0.026517X-0.026517X-0.252791X0.252791X0.026517X0*%
%ADD14RoundRect,0.140000X0.219203X0.021213X0.021213X0.219203X-0.219203X-0.021213X-0.021213X-0.219203X0*%
%ADD15RoundRect,0.250000X-0.574524X-0.097227X-0.097227X-0.574524X0.574524X0.097227X0.097227X0.574524X0*%
%ADD16RoundRect,0.150000X-0.512500X-0.150000X0.512500X-0.150000X0.512500X0.150000X-0.512500X0.150000X0*%
%ADD17RoundRect,0.135000X0.185000X-0.135000X0.185000X0.135000X-0.185000X0.135000X-0.185000X-0.135000X0*%
%ADD18RoundRect,0.237500X-0.237500X0.300000X-0.237500X-0.300000X0.237500X-0.300000X0.237500X0.300000X0*%
%ADD19RoundRect,0.140000X-0.021213X0.219203X-0.219203X0.021213X0.021213X-0.219203X0.219203X-0.021213X0*%
%ADD20RoundRect,0.250000X0.097227X-0.574524X0.574524X-0.097227X-0.097227X0.574524X-0.574524X0.097227X0*%
%ADD21RoundRect,0.250000X-0.450000X0.325000X-0.450000X-0.325000X0.450000X-0.325000X0.450000X0.325000X0*%
%ADD22FreePoly0,45.000000*%
%ADD23RoundRect,0.062500X-0.185616X-0.274004X0.274004X0.185616X0.185616X0.274004X-0.274004X-0.185616X0*%
%ADD24RoundRect,0.062500X0.185616X-0.274004X0.274004X-0.185616X-0.185616X0.274004X-0.274004X0.185616X0*%
%ADD25RoundRect,0.062500X0.000000X-0.088388X0.088388X0.000000X0.000000X0.088388X-0.088388X0.000000X0*%
%ADD26RoundRect,0.237500X0.300000X0.237500X-0.300000X0.237500X-0.300000X-0.237500X0.300000X-0.237500X0*%
%ADD27RoundRect,0.135000X0.135000X0.185000X-0.135000X0.185000X-0.135000X-0.185000X0.135000X-0.185000X0*%
%ADD28RoundRect,0.237500X0.044194X0.380070X-0.380070X-0.044194X-0.044194X-0.380070X0.380070X0.044194X0*%
%ADD29RoundRect,0.135000X-0.135000X-0.185000X0.135000X-0.185000X0.135000X0.185000X-0.135000X0.185000X0*%
%ADD30RoundRect,0.160000X0.197500X0.160000X-0.197500X0.160000X-0.197500X-0.160000X0.197500X-0.160000X0*%
%ADD31RoundRect,0.135000X-0.226274X-0.035355X-0.035355X-0.226274X0.226274X0.035355X0.035355X0.226274X0*%
G04 APERTURE END LIST*
D10*
%TO.C,R113*%
X114022496Y-114822496D03*
X113177504Y-113977504D03*
%TD*%
D11*
%TO.C,R121*%
X110039376Y-117039376D03*
X110760624Y-117760624D03*
%TD*%
D10*
%TO.C,R112*%
X114822496Y-114022496D03*
X113977504Y-113177504D03*
%TD*%
D12*
%TO.C,C111*%
X106037500Y-118200000D03*
X103962500Y-118200000D03*
%TD*%
D10*
%TO.C,R114*%
X113222496Y-115622496D03*
X112377504Y-114777504D03*
%TD*%
D13*
%TO.C,R115*%
X105445334Y-114708704D03*
X106290326Y-113863712D03*
%TD*%
D14*
%TO.C,C109*%
X105539411Y-109139411D03*
X104860589Y-108460589D03*
%TD*%
D15*
%TO.C,C115*%
X102133623Y-114433623D03*
X100666377Y-112966377D03*
%TD*%
D16*
%TO.C,U108*%
X97137500Y-116050000D03*
X97137500Y-115100000D03*
X97137500Y-114150000D03*
X94862500Y-114150000D03*
X94862500Y-116050000D03*
%TD*%
D13*
%TO.C,R118*%
X106788837Y-116052207D03*
X107633829Y-115207215D03*
%TD*%
D17*
%TO.C,R126*%
X122200000Y-116390000D03*
X122200000Y-117410000D03*
%TD*%
D18*
%TO.C,C118*%
X125200000Y-104662500D03*
X125200000Y-102937500D03*
%TD*%
D19*
%TO.C,C116*%
X104739411Y-112260589D03*
X104060589Y-112939411D03*
%TD*%
D20*
%TO.C,C108*%
X102733623Y-109166377D03*
X101266377Y-110633623D03*
%TD*%
D21*
%TO.C,D116*%
X120175000Y-116250000D03*
X120175000Y-118300000D03*
%TD*%
D22*
%TO.C,TAC5212*%
X109079604Y-111385514D03*
X109769033Y-112074943D03*
X109769033Y-110696085D03*
X110458462Y-111385514D03*
D23*
X107479775Y-111907005D03*
X107833328Y-112260559D03*
X108186882Y-112614112D03*
X108540435Y-112967665D03*
X108893988Y-113321219D03*
X109247542Y-113674772D03*
D24*
X110290524Y-113674772D03*
X110644078Y-113321219D03*
X110997631Y-112967665D03*
X111351184Y-112614112D03*
X111704738Y-112260559D03*
X112058291Y-111907005D03*
D23*
X112058291Y-110864023D03*
X111704738Y-110510469D03*
X111351184Y-110156916D03*
X110997631Y-109803363D03*
X110644078Y-109449809D03*
X110290524Y-109096256D03*
D24*
X109247542Y-109096256D03*
X108893988Y-109449809D03*
X108540435Y-109803363D03*
X108186882Y-110156916D03*
X107833328Y-110510469D03*
X107479775Y-110864023D03*
D25*
X107336586Y-111385514D03*
X109769033Y-113817961D03*
X112201480Y-111385514D03*
X109769033Y-108953067D03*
%TD*%
D19*
%TO.C,C112*%
X108539411Y-116260589D03*
X107860589Y-116939411D03*
%TD*%
D10*
%TO.C,R110*%
X115622496Y-113222496D03*
X114777504Y-112377504D03*
%TD*%
D26*
%TO.C,C128*%
X95937500Y-118000000D03*
X97662500Y-118000000D03*
%TD*%
D27*
%TO.C,R123*%
X121090000Y-112900000D03*
X122110000Y-112900000D03*
%TD*%
D28*
%TO.C,C119*%
X102590120Y-112009880D03*
X103809880Y-110790120D03*
%TD*%
D29*
%TO.C,R124*%
X117910000Y-112900000D03*
X116890000Y-112900000D03*
%TD*%
D13*
%TO.C,R119*%
X104773583Y-114036952D03*
X105618575Y-113191960D03*
%TD*%
%TO.C,R117*%
X106117086Y-115380455D03*
X106962078Y-114535463D03*
%TD*%
D29*
%TO.C,R122*%
X120110000Y-112900000D03*
X119090000Y-112900000D03*
%TD*%
D30*
%TO.C,R125*%
X94502500Y-112600000D03*
X95697500Y-112600000D03*
%TD*%
D31*
%TO.C,R120*%
X111560624Y-116960624D03*
X110839376Y-116239376D03*
%TD*%
M02*
