%TF.GenerationSoftware,KiCad,Pcbnew,9.0.4*%
%TF.CreationDate,2025-08-20T17:26:20-04:00*%
%TF.ProjectId,tac5212_audio_board_single_ended,74616335-3231-4325-9f61-7564696f5f62,rev?*%
%TF.SameCoordinates,Original*%
%TF.FileFunction,Copper,L2,Inr*%
%TF.FilePolarity,Positive*%
%FSLAX46Y46*%
G04 Gerber Fmt 4.6, Leading zero omitted, Abs format (unit mm)*
G04 Created by KiCad (PCBNEW 9.0.4) date 2025-08-20 17:26:20*
%MOMM*%
%LPD*%
G01*
G04 APERTURE LIST*
%TA.AperFunction,ComponentPad*%
%ADD10R,1.700000X1.700000*%
%TD*%
%TA.AperFunction,ComponentPad*%
%ADD11O,1.700000X1.700000*%
%TD*%
%TA.AperFunction,ComponentPad*%
%ADD12C,3.200000*%
%TD*%
%TA.AperFunction,ComponentPad*%
%ADD13C,0.500000*%
%TD*%
%TA.AperFunction,ComponentPad*%
%ADD14R,0.500000X0.500000*%
%TD*%
%TA.AperFunction,ViaPad*%
%ADD15C,0.450000*%
%TD*%
%TA.AperFunction,ViaPad*%
%ADD16C,0.800000*%
%TD*%
%TA.AperFunction,Conductor*%
%ADD17C,0.200000*%
%TD*%
G04 APERTURE END LIST*
D10*
%TO.N,EN_HELD_HIGH*%
%TO.C,board_outline108*%
X89337500Y-122600000D03*
D11*
%TO.N,unconnected-(board_outline108-HELD_LOW-Pad2)*%
X86797500Y-122600000D03*
%TO.N,Net-(5V108-Pad2)*%
X89337500Y-120060000D03*
%TO.N,3.3v_IDE*%
X86797500Y-120060000D03*
%TO.N,unconnected-(board_outline108-12V-Pad5)*%
X89337500Y-117520000D03*
%TO.N,GNDD*%
X86797500Y-117520000D03*
%TO.N,5212_DIN1*%
X89337500Y-114980000D03*
%TO.N,GNDD*%
X86797500Y-114980000D03*
%TO.N,5212_DOUT1+*%
X89337500Y-112440000D03*
%TO.N,GNDD*%
X86797500Y-112440000D03*
%TO.N,5212_BCLK1*%
X89337500Y-109900000D03*
%TO.N,GNDD*%
X86797500Y-109900000D03*
%TO.N,5212_LRCK1*%
X89337500Y-107360000D03*
%TO.N,GNDD*%
X86797500Y-107360000D03*
%TO.N,DSP_SDA*%
X89337500Y-104820000D03*
%TO.N,GNDD*%
X86797500Y-104820000D03*
%TO.N,DSP_SCL*%
X89337500Y-102280000D03*
%TO.N,GNDD*%
X86797500Y-102280000D03*
%TO.N,5212_MCLK1*%
X89337500Y-99740000D03*
%TO.N,GNDD*%
X86797500Y-99740000D03*
D10*
%TO.N,OUT1P+*%
X102047500Y-102285000D03*
%TO.N,Earth*%
X102047500Y-99745000D03*
D11*
%TO.N,OUT1M+*%
X104587500Y-102285000D03*
%TO.N,Earth*%
X104587500Y-99745000D03*
%TO.N,OUT2P+*%
X107127500Y-102285000D03*
%TO.N,Earth*%
X107127500Y-99745000D03*
%TO.N,OUT2M+*%
X109667500Y-102285000D03*
%TO.N,Earth*%
X109667500Y-99745000D03*
%TO.N,IN1P+*%
X112207500Y-102285000D03*
%TO.N,Earth*%
X112207500Y-99745000D03*
%TO.N,IN1M+*%
X114747500Y-102285000D03*
%TO.N,Earth*%
X114747500Y-99745000D03*
%TO.N,IN2P+*%
X117287500Y-102285000D03*
%TO.N,Earth*%
X117287500Y-99745000D03*
%TO.N,IN2M+*%
X119827500Y-102285000D03*
%TO.N,Earth*%
X119827500Y-99745000D03*
D10*
%TO.N,5212_SCL*%
X102047500Y-122605000D03*
D11*
%TO.N,5212_SDA*%
X104587500Y-122605000D03*
%TO.N,GNDD*%
X107127500Y-122605000D03*
%TO.N,GPIO1*%
X109667500Y-122605000D03*
%TO.N,GPIO2*%
X112207500Y-122605000D03*
%TO.N,GPO1*%
X114747500Y-122605000D03*
%TO.N,GPI1*%
X117287500Y-122605000D03*
%TO.N,GNDD*%
X119827500Y-122605000D03*
%TO.N,5V*%
X124892500Y-117525000D03*
%TO.N,3.3V_LDO*%
X124892500Y-114985000D03*
%TO.N,GNDD*%
X124892500Y-112445000D03*
%TO.N,MICBIAS*%
X122352500Y-102285000D03*
D12*
%TO.N,Net-(E108-Pad2)*%
X96952500Y-99745000D03*
%TO.N,Net-(E109-Pad2)*%
X124892500Y-99745000D03*
%TO.N,Net-(G117-Pad1)*%
X96952500Y-122605000D03*
%TO.N,Net-(G118-Pad1)*%
X124892500Y-122605000D03*
%TD*%
D13*
%TO.N,Earth*%
%TO.C,G110*%
X117100000Y-114000000D03*
%TD*%
%TO.N,Earth*%
%TO.C,G109*%
X99200000Y-117200000D03*
%TD*%
%TO.N,Earth*%
%TO.C,G112*%
X118400000Y-114000000D03*
%TD*%
%TO.N,Earth*%
%TO.C,G111*%
X92000000Y-118200000D03*
%TD*%
%TO.N,Earth*%
%TO.C,G113*%
X102200000Y-118400000D03*
%TD*%
%TO.N,GNDD*%
%TO.C,TAC5212*%
X109274058Y-111880489D03*
X109274058Y-110890539D03*
X109769033Y-111385514D03*
X110264008Y-111880489D03*
X110264008Y-110890539D03*
%TD*%
%TO.N,Earth*%
%TO.C,G115*%
X105000000Y-119800000D03*
%TD*%
%TO.N,Earth*%
%TO.C,G114*%
X123000000Y-115600000D03*
%TD*%
%TO.N,Earth*%
%TO.C,G116*%
X125900000Y-110200000D03*
%TD*%
%TO.N,Earth*%
%TO.C,G108*%
X115800000Y-114500000D03*
%TD*%
D14*
%TO.N,OUT2P*%
%TO.C,OP2*%
X100300000Y-107425000D03*
%TD*%
%TO.N,IN2P*%
%TO.C,INP2*%
X121400000Y-107435000D03*
%TD*%
%TO.N,IN2M*%
%TO.C,INM2*%
X125000000Y-107482500D03*
%TD*%
%TO.N,OUT2M*%
%TO.C,OM2*%
X104200000Y-107200000D03*
%TD*%
%TO.N,OUT1P*%
%TO.C,OP1*%
X96000000Y-107500000D03*
%TD*%
%TO.N,IN1M*%
%TO.C,INM1*%
X117800000Y-107362500D03*
%TD*%
%TO.N,OUT1M*%
%TO.C,OM1*%
X92000000Y-106500000D03*
%TD*%
%TO.N,IN1P*%
%TO.C,INP1*%
X114200000Y-107425000D03*
%TD*%
D15*
%TO.N,GNDD*%
X93000000Y-114800000D03*
X112200000Y-118400000D03*
X99400000Y-123800000D03*
D16*
X109200000Y-107025000D03*
D15*
X92250000Y-112000000D03*
X119400000Y-114600000D03*
X93363425Y-118278913D03*
X98000000Y-110000000D03*
X115600000Y-115400000D03*
X117200000Y-117600000D03*
X104000000Y-118100000D03*
X115800000Y-111200000D03*
X99006587Y-119580000D03*
X124800000Y-119000000D03*
X93200000Y-123600000D03*
%TO.N,5V*%
X123908750Y-118508750D03*
D16*
X94314682Y-119660000D03*
D15*
%TO.N,Earth*%
X94600000Y-105800000D03*
X94400000Y-101000000D03*
X91800000Y-123600000D03*
X103224739Y-107762663D03*
X126400000Y-113600000D03*
X96200000Y-103200000D03*
X94400000Y-98400000D03*
X107753490Y-104649666D03*
X111200000Y-104200000D03*
X126200000Y-102000000D03*
X122150000Y-104650000D03*
%TO.N,EN_HELD_HIGH*%
X112200000Y-116000000D03*
%TO.N,5212_SCL*%
X101934085Y-119700000D03*
%TO.N,5212_SDA*%
X90762790Y-117786552D03*
%TO.N,3.3V_LDO*%
X104000000Y-109600000D03*
%TO.N,GPI1*%
X85600000Y-116400000D03*
%TO.N,Net-(PU_EN108-Pad1)*%
X110704037Y-118225583D03*
X107303448Y-118794456D03*
%TO.N,3.3v_IDE*%
X108861982Y-118748569D03*
X94800000Y-116000000D03*
X95900000Y-118000000D03*
%TD*%
D17*
%TO.N,GPI1*%
X86000000Y-118700000D02*
X85600000Y-118300000D01*
X85600000Y-118300000D02*
X85600000Y-116400000D01*
X91500000Y-118700000D02*
X86000000Y-118700000D01*
X93128984Y-119400000D02*
X92200000Y-119400000D01*
X93539682Y-119810698D02*
X93128984Y-119400000D01*
X92200000Y-119400000D02*
X91500000Y-118700000D01*
X93539682Y-119981016D02*
X93539682Y-119810698D01*
X115117500Y-120435000D02*
X93993666Y-120435000D01*
X117287500Y-122605000D02*
X115117500Y-120435000D01*
X93993666Y-120435000D02*
X93539682Y-119981016D01*
%TD*%
%TA.AperFunction,Conductor*%
%TO.N,Earth*%
G36*
X104121575Y-99552007D02*
G01*
X104087500Y-99679174D01*
X104087500Y-99810826D01*
X104121575Y-99937993D01*
X104154488Y-99995000D01*
X102480512Y-99995000D01*
X102513425Y-99937993D01*
X102547500Y-99810826D01*
X102547500Y-99679174D01*
X102513425Y-99552007D01*
X102480512Y-99495000D01*
X104154488Y-99495000D01*
X104121575Y-99552007D01*
G37*
%TD.AperFunction*%
%TA.AperFunction,Conductor*%
G36*
X106661575Y-99552007D02*
G01*
X106627500Y-99679174D01*
X106627500Y-99810826D01*
X106661575Y-99937993D01*
X106694488Y-99995000D01*
X105020512Y-99995000D01*
X105053425Y-99937993D01*
X105087500Y-99810826D01*
X105087500Y-99679174D01*
X105053425Y-99552007D01*
X105020512Y-99495000D01*
X106694488Y-99495000D01*
X106661575Y-99552007D01*
G37*
%TD.AperFunction*%
%TA.AperFunction,Conductor*%
G36*
X109201575Y-99552007D02*
G01*
X109167500Y-99679174D01*
X109167500Y-99810826D01*
X109201575Y-99937993D01*
X109234488Y-99995000D01*
X107560512Y-99995000D01*
X107593425Y-99937993D01*
X107627500Y-99810826D01*
X107627500Y-99679174D01*
X107593425Y-99552007D01*
X107560512Y-99495000D01*
X109234488Y-99495000D01*
X109201575Y-99552007D01*
G37*
%TD.AperFunction*%
%TA.AperFunction,Conductor*%
G36*
X111741575Y-99552007D02*
G01*
X111707500Y-99679174D01*
X111707500Y-99810826D01*
X111741575Y-99937993D01*
X111774488Y-99995000D01*
X110100512Y-99995000D01*
X110133425Y-99937993D01*
X110167500Y-99810826D01*
X110167500Y-99679174D01*
X110133425Y-99552007D01*
X110100512Y-99495000D01*
X111774488Y-99495000D01*
X111741575Y-99552007D01*
G37*
%TD.AperFunction*%
%TA.AperFunction,Conductor*%
G36*
X114281575Y-99552007D02*
G01*
X114247500Y-99679174D01*
X114247500Y-99810826D01*
X114281575Y-99937993D01*
X114314488Y-99995000D01*
X112640512Y-99995000D01*
X112673425Y-99937993D01*
X112707500Y-99810826D01*
X112707500Y-99679174D01*
X112673425Y-99552007D01*
X112640512Y-99495000D01*
X114314488Y-99495000D01*
X114281575Y-99552007D01*
G37*
%TD.AperFunction*%
%TA.AperFunction,Conductor*%
G36*
X116821575Y-99552007D02*
G01*
X116787500Y-99679174D01*
X116787500Y-99810826D01*
X116821575Y-99937993D01*
X116854488Y-99995000D01*
X115180512Y-99995000D01*
X115213425Y-99937993D01*
X115247500Y-99810826D01*
X115247500Y-99679174D01*
X115213425Y-99552007D01*
X115180512Y-99495000D01*
X116854488Y-99495000D01*
X116821575Y-99552007D01*
G37*
%TD.AperFunction*%
%TA.AperFunction,Conductor*%
G36*
X119361575Y-99552007D02*
G01*
X119327500Y-99679174D01*
X119327500Y-99810826D01*
X119361575Y-99937993D01*
X119394488Y-99995000D01*
X117720512Y-99995000D01*
X117753425Y-99937993D01*
X117787500Y-99810826D01*
X117787500Y-99679174D01*
X117753425Y-99552007D01*
X117720512Y-99495000D01*
X119394488Y-99495000D01*
X119361575Y-99552007D01*
G37*
%TD.AperFunction*%
%TA.AperFunction,Conductor*%
G36*
X95964797Y-97969685D02*
G01*
X96010552Y-98022489D01*
X96020496Y-98091647D01*
X95991471Y-98155203D01*
X95959761Y-98181384D01*
X95922211Y-98203064D01*
X95922206Y-98203067D01*
X95729763Y-98350733D01*
X95729756Y-98350739D01*
X95558239Y-98522256D01*
X95558233Y-98522263D01*
X95410567Y-98714706D01*
X95289277Y-98924785D01*
X95289273Y-98924794D01*
X95196447Y-99148895D01*
X95133661Y-99383214D01*
X95102000Y-99623711D01*
X95102000Y-99866288D01*
X95133661Y-100106785D01*
X95196447Y-100341104D01*
X95289273Y-100565205D01*
X95289277Y-100565214D01*
X95311474Y-100603661D01*
X95410564Y-100775289D01*
X95410566Y-100775292D01*
X95410567Y-100775293D01*
X95558233Y-100967736D01*
X95558239Y-100967743D01*
X95729756Y-101139260D01*
X95729763Y-101139266D01*
X95794394Y-101188859D01*
X95922211Y-101286936D01*
X96132288Y-101408224D01*
X96356400Y-101501054D01*
X96590711Y-101563838D01*
X96771086Y-101587584D01*
X96831211Y-101595500D01*
X96831212Y-101595500D01*
X97073789Y-101595500D01*
X97121888Y-101589167D01*
X97314289Y-101563838D01*
X97548600Y-101501054D01*
X97772712Y-101408224D01*
X97982789Y-101286936D01*
X98175238Y-101139265D01*
X98346765Y-100967738D01*
X98494436Y-100775289D01*
X98615724Y-100565212D01*
X98708554Y-100341100D01*
X98771338Y-100106789D01*
X98803000Y-99866288D01*
X98803000Y-99623712D01*
X98771338Y-99383211D01*
X98708554Y-99148900D01*
X98615724Y-98924788D01*
X98570903Y-98847155D01*
X100697500Y-98847155D01*
X100697500Y-99495000D01*
X101614488Y-99495000D01*
X101581575Y-99552007D01*
X101547500Y-99679174D01*
X101547500Y-99810826D01*
X101581575Y-99937993D01*
X101614488Y-99995000D01*
X100697500Y-99995000D01*
X100697500Y-100642844D01*
X100703901Y-100702372D01*
X100703903Y-100702379D01*
X100754145Y-100837086D01*
X100754149Y-100837093D01*
X100840309Y-100952187D01*
X100840312Y-100952190D01*
X100955406Y-101038350D01*
X100955412Y-101038353D01*
X100976768Y-101046319D01*
X101032701Y-101088191D01*
X101057118Y-101153656D01*
X101042266Y-101221928D01*
X101021119Y-101250179D01*
X101016900Y-101254397D01*
X100961533Y-101337260D01*
X100961532Y-101337264D01*
X100947000Y-101410321D01*
X100947000Y-103159678D01*
X100961532Y-103232735D01*
X100961533Y-103232739D01*
X100961534Y-103232740D01*
X101016899Y-103315601D01*
X101099760Y-103370966D01*
X101099764Y-103370967D01*
X101172821Y-103385499D01*
X101172824Y-103385500D01*
X101172826Y-103385500D01*
X102922176Y-103385500D01*
X102922177Y-103385499D01*
X102995240Y-103370966D01*
X103078101Y-103315601D01*
X103133466Y-103232740D01*
X103148000Y-103159674D01*
X103148000Y-101410326D01*
X103148000Y-101410323D01*
X103147999Y-101410321D01*
X103133467Y-101337264D01*
X103133466Y-101337260D01*
X103099838Y-101286932D01*
X103078101Y-101254399D01*
X103078099Y-101254397D01*
X103078098Y-101254396D01*
X103073884Y-101250182D01*
X103040399Y-101188859D01*
X103045383Y-101119167D01*
X103087255Y-101063234D01*
X103118232Y-101046319D01*
X103139586Y-101038354D01*
X103139593Y-101038350D01*
X103254687Y-100952190D01*
X103254690Y-100952187D01*
X103340850Y-100837093D01*
X103340854Y-100837086D01*
X103390114Y-100705013D01*
X103431985Y-100649079D01*
X103497449Y-100624662D01*
X103565722Y-100639513D01*
X103593977Y-100660665D01*
X103708035Y-100774723D01*
X103708040Y-100774727D01*
X103879942Y-100899620D01*
X104069284Y-100996096D01*
X104168211Y-101028239D01*
X104225887Y-101067676D01*
X104253086Y-101132034D01*
X104241172Y-101200881D01*
X104193928Y-101252357D01*
X104168222Y-101264097D01*
X104167022Y-101264487D01*
X104165050Y-101265128D01*
X104010711Y-101343768D01*
X103930756Y-101401859D01*
X103870572Y-101445586D01*
X103870570Y-101445588D01*
X103870569Y-101445588D01*
X103748088Y-101568069D01*
X103748088Y-101568070D01*
X103748086Y-101568072D01*
X103704359Y-101628256D01*
X103646268Y-101708211D01*
X103567628Y-101862552D01*
X103514097Y-102027302D01*
X103487000Y-102198389D01*
X103487000Y-102371611D01*
X103514098Y-102542701D01*
X103567627Y-102707445D01*
X103646268Y-102861788D01*
X103748086Y-103001928D01*
X103870572Y-103124414D01*
X104010712Y-103226232D01*
X104165055Y-103304873D01*
X104329799Y-103358402D01*
X104500889Y-103385500D01*
X104500890Y-103385500D01*
X104674110Y-103385500D01*
X104674111Y-103385500D01*
X104845201Y-103358402D01*
X105009945Y-103304873D01*
X105164288Y-103226232D01*
X105304428Y-103124414D01*
X105426914Y-103001928D01*
X105528732Y-102861788D01*
X105607373Y-102707445D01*
X105660902Y-102542701D01*
X105688000Y-102371611D01*
X105688000Y-102198389D01*
X105660902Y-102027299D01*
X105607373Y-101862555D01*
X105528732Y-101708212D01*
X105426914Y-101568072D01*
X105304428Y-101445586D01*
X105164288Y-101343768D01*
X105151515Y-101337260D01*
X105009946Y-101265127D01*
X105006784Y-101264100D01*
X105005736Y-101263383D01*
X105005452Y-101263266D01*
X105005476Y-101263206D01*
X104949109Y-101224661D01*
X104921913Y-101160302D01*
X104933829Y-101091456D01*
X104981074Y-101039981D01*
X105006788Y-101028239D01*
X105105715Y-100996096D01*
X105295057Y-100899620D01*
X105466959Y-100774727D01*
X105466964Y-100774723D01*
X105617223Y-100624464D01*
X105617227Y-100624459D01*
X105742120Y-100452558D01*
X105747014Y-100442954D01*
X105794988Y-100392157D01*
X105862808Y-100375361D01*
X105928944Y-100397897D01*
X105967986Y-100442954D01*
X105972879Y-100452558D01*
X106097772Y-100624459D01*
X106097776Y-100624464D01*
X106248035Y-100774723D01*
X106248040Y-100774727D01*
X106419942Y-100899620D01*
X106609284Y-100996096D01*
X106708211Y-101028239D01*
X106765887Y-101067676D01*
X106793086Y-101132034D01*
X106781172Y-101200881D01*
X106733928Y-101252357D01*
X106708222Y-101264097D01*
X106707022Y-101264487D01*
X106705050Y-101265128D01*
X106550711Y-101343768D01*
X106470756Y-101401859D01*
X106410572Y-101445586D01*
X106410570Y-101445588D01*
X106410569Y-101445588D01*
X106288088Y-101568069D01*
X106288088Y-101568070D01*
X106288086Y-101568072D01*
X106244359Y-101628256D01*
X106186268Y-101708211D01*
X106107628Y-101862552D01*
X106054097Y-102027302D01*
X106027000Y-102198389D01*
X106027000Y-102371611D01*
X106054098Y-102542701D01*
X106107627Y-102707445D01*
X106186268Y-102861788D01*
X106288086Y-103001928D01*
X106410572Y-103124414D01*
X106550712Y-103226232D01*
X106705055Y-103304873D01*
X106869799Y-103358402D01*
X107040889Y-103385500D01*
X107040890Y-103385500D01*
X107214110Y-103385500D01*
X107214111Y-103385500D01*
X107385201Y-103358402D01*
X107549945Y-103304873D01*
X107704288Y-103226232D01*
X107844428Y-103124414D01*
X107966914Y-103001928D01*
X108068732Y-102861788D01*
X108147373Y-102707445D01*
X108200902Y-102542701D01*
X108228000Y-102371611D01*
X108228000Y-102198389D01*
X108200902Y-102027299D01*
X108147373Y-101862555D01*
X108068732Y-101708212D01*
X107966914Y-101568072D01*
X107844428Y-101445586D01*
X107704288Y-101343768D01*
X107691515Y-101337260D01*
X107549946Y-101265127D01*
X107546784Y-101264100D01*
X107545736Y-101263383D01*
X107545452Y-101263266D01*
X107545476Y-101263206D01*
X107489109Y-101224661D01*
X107461913Y-101160302D01*
X107473829Y-101091456D01*
X107521074Y-101039981D01*
X107546788Y-101028239D01*
X107645715Y-100996096D01*
X107835057Y-100899620D01*
X108006959Y-100774727D01*
X108006964Y-100774723D01*
X108157223Y-100624464D01*
X108157227Y-100624459D01*
X108282120Y-100452558D01*
X108287014Y-100442954D01*
X108334988Y-100392157D01*
X108402808Y-100375361D01*
X108468944Y-100397897D01*
X108507986Y-100442954D01*
X108512879Y-100452558D01*
X108637772Y-100624459D01*
X108637776Y-100624464D01*
X108788035Y-100774723D01*
X108788040Y-100774727D01*
X108959942Y-100899620D01*
X109149284Y-100996096D01*
X109248211Y-101028239D01*
X109305887Y-101067676D01*
X109333086Y-101132034D01*
X109321172Y-101200881D01*
X109273928Y-101252357D01*
X109248222Y-101264097D01*
X109247022Y-101264487D01*
X109245050Y-101265128D01*
X109090711Y-101343768D01*
X109010756Y-101401859D01*
X108950572Y-101445586D01*
X108950570Y-101445588D01*
X108950569Y-101445588D01*
X108828088Y-101568069D01*
X108828088Y-101568070D01*
X108828086Y-101568072D01*
X108784359Y-101628256D01*
X108726268Y-101708211D01*
X108647628Y-101862552D01*
X108594097Y-102027302D01*
X108567000Y-102198389D01*
X108567000Y-102371611D01*
X108594098Y-102542701D01*
X108647627Y-102707445D01*
X108726268Y-102861788D01*
X108828086Y-103001928D01*
X108950572Y-103124414D01*
X109090712Y-103226232D01*
X109245055Y-103304873D01*
X109409799Y-103358402D01*
X109580889Y-103385500D01*
X109580890Y-103385500D01*
X109754110Y-103385500D01*
X109754111Y-103385500D01*
X109925201Y-103358402D01*
X110089945Y-103304873D01*
X110244288Y-103226232D01*
X110384428Y-103124414D01*
X110506914Y-103001928D01*
X110608732Y-102861788D01*
X110687373Y-102707445D01*
X110740902Y-102542701D01*
X110768000Y-102371611D01*
X110768000Y-102198389D01*
X110740902Y-102027299D01*
X110687373Y-101862555D01*
X110608732Y-101708212D01*
X110506914Y-101568072D01*
X110384428Y-101445586D01*
X110244288Y-101343768D01*
X110231515Y-101337260D01*
X110089946Y-101265127D01*
X110086784Y-101264100D01*
X110085736Y-101263383D01*
X110085452Y-101263266D01*
X110085476Y-101263206D01*
X110029109Y-101224661D01*
X110001913Y-101160302D01*
X110013829Y-101091456D01*
X110061074Y-101039981D01*
X110086788Y-101028239D01*
X110185715Y-100996096D01*
X110375057Y-100899620D01*
X110546959Y-100774727D01*
X110546964Y-100774723D01*
X110697223Y-100624464D01*
X110697227Y-100624459D01*
X110822120Y-100452558D01*
X110827014Y-100442954D01*
X110874988Y-100392157D01*
X110942808Y-100375361D01*
X111008944Y-100397897D01*
X111047986Y-100442954D01*
X111052879Y-100452558D01*
X111177772Y-100624459D01*
X111177776Y-100624464D01*
X111328035Y-100774723D01*
X111328040Y-100774727D01*
X111499942Y-100899620D01*
X111689284Y-100996096D01*
X111788211Y-101028239D01*
X111845887Y-101067676D01*
X111873086Y-101132034D01*
X111861172Y-101200881D01*
X111813928Y-101252357D01*
X111788222Y-101264097D01*
X111787022Y-101264487D01*
X111785050Y-101265128D01*
X111630711Y-101343768D01*
X111550756Y-101401859D01*
X111490572Y-101445586D01*
X111490570Y-101445588D01*
X111490569Y-101445588D01*
X111368088Y-101568069D01*
X111368088Y-101568070D01*
X111368086Y-101568072D01*
X111324359Y-101628256D01*
X111266268Y-101708211D01*
X111187628Y-101862552D01*
X111134097Y-102027302D01*
X111107000Y-102198389D01*
X111107000Y-102371611D01*
X111134098Y-102542701D01*
X111187627Y-102707445D01*
X111266268Y-102861788D01*
X111368086Y-103001928D01*
X111490572Y-103124414D01*
X111630712Y-103226232D01*
X111785055Y-103304873D01*
X111949799Y-103358402D01*
X112120889Y-103385500D01*
X112120890Y-103385500D01*
X112294110Y-103385500D01*
X112294111Y-103385500D01*
X112465201Y-103358402D01*
X112629945Y-103304873D01*
X112784288Y-103226232D01*
X112924428Y-103124414D01*
X113046914Y-103001928D01*
X113148732Y-102861788D01*
X113227373Y-102707445D01*
X113280902Y-102542701D01*
X113308000Y-102371611D01*
X113308000Y-102198389D01*
X113280902Y-102027299D01*
X113227373Y-101862555D01*
X113148732Y-101708212D01*
X113046914Y-101568072D01*
X112924428Y-101445586D01*
X112784288Y-101343768D01*
X112771515Y-101337260D01*
X112629946Y-101265127D01*
X112626784Y-101264100D01*
X112625736Y-101263383D01*
X112625452Y-101263266D01*
X112625476Y-101263206D01*
X112569109Y-101224661D01*
X112541913Y-101160302D01*
X112553829Y-101091456D01*
X112601074Y-101039981D01*
X112626788Y-101028239D01*
X112725715Y-100996096D01*
X112915057Y-100899620D01*
X113086959Y-100774727D01*
X113086964Y-100774723D01*
X113237223Y-100624464D01*
X113237227Y-100624459D01*
X113362120Y-100452558D01*
X113367014Y-100442954D01*
X113414988Y-100392157D01*
X113482808Y-100375361D01*
X113548944Y-100397897D01*
X113587986Y-100442954D01*
X113592879Y-100452558D01*
X113717772Y-100624459D01*
X113717776Y-100624464D01*
X113868035Y-100774723D01*
X113868040Y-100774727D01*
X114039942Y-100899620D01*
X114229284Y-100996096D01*
X114328211Y-101028239D01*
X114385887Y-101067676D01*
X114413086Y-101132034D01*
X114401172Y-101200881D01*
X114353928Y-101252357D01*
X114328222Y-101264097D01*
X114327022Y-101264487D01*
X114325050Y-101265128D01*
X114170711Y-101343768D01*
X114090756Y-101401859D01*
X114030572Y-101445586D01*
X114030570Y-101445588D01*
X114030569Y-101445588D01*
X113908088Y-101568069D01*
X113908088Y-101568070D01*
X113908086Y-101568072D01*
X113864359Y-101628256D01*
X113806268Y-101708211D01*
X113727628Y-101862552D01*
X113674097Y-102027302D01*
X113647000Y-102198389D01*
X113647000Y-102371611D01*
X113674098Y-102542701D01*
X113727627Y-102707445D01*
X113806268Y-102861788D01*
X113908086Y-103001928D01*
X114030572Y-103124414D01*
X114170712Y-103226232D01*
X114325055Y-103304873D01*
X114489799Y-103358402D01*
X114660889Y-103385500D01*
X114660890Y-103385500D01*
X114834110Y-103385500D01*
X114834111Y-103385500D01*
X115005201Y-103358402D01*
X115169945Y-103304873D01*
X115324288Y-103226232D01*
X115464428Y-103124414D01*
X115586914Y-103001928D01*
X115688732Y-102861788D01*
X115767373Y-102707445D01*
X115820902Y-102542701D01*
X115848000Y-102371611D01*
X115848000Y-102198389D01*
X115820902Y-102027299D01*
X115767373Y-101862555D01*
X115688732Y-101708212D01*
X115586914Y-101568072D01*
X115464428Y-101445586D01*
X115324288Y-101343768D01*
X115311515Y-101337260D01*
X115169946Y-101265127D01*
X115166784Y-101264100D01*
X115165736Y-101263383D01*
X115165452Y-101263266D01*
X115165476Y-101263206D01*
X115109109Y-101224661D01*
X115081913Y-101160302D01*
X115093829Y-101091456D01*
X115141074Y-101039981D01*
X115166788Y-101028239D01*
X115265715Y-100996096D01*
X115455057Y-100899620D01*
X115626959Y-100774727D01*
X115626964Y-100774723D01*
X115777223Y-100624464D01*
X115777227Y-100624459D01*
X115902120Y-100452558D01*
X115907014Y-100442954D01*
X115954988Y-100392157D01*
X116022808Y-100375361D01*
X116088944Y-100397897D01*
X116127986Y-100442954D01*
X116132879Y-100452558D01*
X116257772Y-100624459D01*
X116257776Y-100624464D01*
X116408035Y-100774723D01*
X116408040Y-100774727D01*
X116579942Y-100899620D01*
X116769284Y-100996096D01*
X116868211Y-101028239D01*
X116925887Y-101067676D01*
X116953086Y-101132034D01*
X116941172Y-101200881D01*
X116893928Y-101252357D01*
X116868222Y-101264097D01*
X116867022Y-101264487D01*
X116865050Y-101265128D01*
X116710711Y-101343768D01*
X116630756Y-101401859D01*
X116570572Y-101445586D01*
X116570570Y-101445588D01*
X116570569Y-101445588D01*
X116448088Y-101568069D01*
X116448088Y-101568070D01*
X116448086Y-101568072D01*
X116404359Y-101628256D01*
X116346268Y-101708211D01*
X116267628Y-101862552D01*
X116214097Y-102027302D01*
X116187000Y-102198389D01*
X116187000Y-102371611D01*
X116214098Y-102542701D01*
X116267627Y-102707445D01*
X116346268Y-102861788D01*
X116448086Y-103001928D01*
X116570572Y-103124414D01*
X116710712Y-103226232D01*
X116865055Y-103304873D01*
X117029799Y-103358402D01*
X117200889Y-103385500D01*
X117200890Y-103385500D01*
X117374110Y-103385500D01*
X117374111Y-103385500D01*
X117545201Y-103358402D01*
X117709945Y-103304873D01*
X117864288Y-103226232D01*
X118004428Y-103124414D01*
X118126914Y-103001928D01*
X118228732Y-102861788D01*
X118307373Y-102707445D01*
X118360902Y-102542701D01*
X118388000Y-102371611D01*
X118388000Y-102198389D01*
X118360902Y-102027299D01*
X118307373Y-101862555D01*
X118228732Y-101708212D01*
X118126914Y-101568072D01*
X118004428Y-101445586D01*
X117864288Y-101343768D01*
X117851515Y-101337260D01*
X117709946Y-101265127D01*
X117706784Y-101264100D01*
X117705736Y-101263383D01*
X117705452Y-101263266D01*
X117705476Y-101263206D01*
X117649109Y-101224661D01*
X117621913Y-101160302D01*
X117633829Y-101091456D01*
X117681074Y-101039981D01*
X117706788Y-101028239D01*
X117805715Y-100996096D01*
X117995057Y-100899620D01*
X118166959Y-100774727D01*
X118166964Y-100774723D01*
X118317223Y-100624464D01*
X118317227Y-100624459D01*
X118442120Y-100452558D01*
X118447014Y-100442954D01*
X118494988Y-100392157D01*
X118562808Y-100375361D01*
X118628944Y-100397897D01*
X118667986Y-100442954D01*
X118672879Y-100452558D01*
X118797772Y-100624459D01*
X118797776Y-100624464D01*
X118948035Y-100774723D01*
X118948040Y-100774727D01*
X119119942Y-100899620D01*
X119309284Y-100996096D01*
X119408211Y-101028239D01*
X119465887Y-101067676D01*
X119493086Y-101132034D01*
X119481172Y-101200881D01*
X119433928Y-101252357D01*
X119408222Y-101264097D01*
X119407022Y-101264487D01*
X119405050Y-101265128D01*
X119250711Y-101343768D01*
X119170756Y-101401859D01*
X119110572Y-101445586D01*
X119110570Y-101445588D01*
X119110569Y-101445588D01*
X118988088Y-101568069D01*
X118988088Y-101568070D01*
X118988086Y-101568072D01*
X118944359Y-101628256D01*
X118886268Y-101708211D01*
X118807628Y-101862552D01*
X118754097Y-102027302D01*
X118727000Y-102198389D01*
X118727000Y-102371611D01*
X118754098Y-102542701D01*
X118807627Y-102707445D01*
X118886268Y-102861788D01*
X118988086Y-103001928D01*
X119110572Y-103124414D01*
X119250712Y-103226232D01*
X119405055Y-103304873D01*
X119569799Y-103358402D01*
X119740889Y-103385500D01*
X119740890Y-103385500D01*
X119914110Y-103385500D01*
X119914111Y-103385500D01*
X120085201Y-103358402D01*
X120249945Y-103304873D01*
X120404288Y-103226232D01*
X120544428Y-103124414D01*
X120666914Y-103001928D01*
X120768732Y-102861788D01*
X120847373Y-102707445D01*
X120900902Y-102542701D01*
X120928000Y-102371611D01*
X120928000Y-102198389D01*
X121252000Y-102198389D01*
X121252000Y-102371611D01*
X121279098Y-102542701D01*
X121332627Y-102707445D01*
X121411268Y-102861788D01*
X121513086Y-103001928D01*
X121635572Y-103124414D01*
X121775712Y-103226232D01*
X121930055Y-103304873D01*
X122094799Y-103358402D01*
X122265889Y-103385500D01*
X122265890Y-103385500D01*
X122439110Y-103385500D01*
X122439111Y-103385500D01*
X122610201Y-103358402D01*
X122774945Y-103304873D01*
X122929288Y-103226232D01*
X123069428Y-103124414D01*
X123191914Y-103001928D01*
X123293732Y-102861788D01*
X123372373Y-102707445D01*
X123425902Y-102542701D01*
X123453000Y-102371611D01*
X123453000Y-102198389D01*
X123425902Y-102027299D01*
X123372373Y-101862555D01*
X123293732Y-101708212D01*
X123191914Y-101568072D01*
X123069428Y-101445586D01*
X122929288Y-101343768D01*
X122774945Y-101265127D01*
X122610201Y-101211598D01*
X122610199Y-101211597D01*
X122610198Y-101211597D01*
X122478771Y-101190781D01*
X122439111Y-101184500D01*
X122265889Y-101184500D01*
X122226228Y-101190781D01*
X122094802Y-101211597D01*
X122094799Y-101211598D01*
X121935423Y-101263383D01*
X121930052Y-101265128D01*
X121775711Y-101343768D01*
X121695756Y-101401859D01*
X121635572Y-101445586D01*
X121635570Y-101445588D01*
X121635569Y-101445588D01*
X121513088Y-101568069D01*
X121513088Y-101568070D01*
X121513086Y-101568072D01*
X121469359Y-101628256D01*
X121411268Y-101708211D01*
X121332628Y-101862552D01*
X121279097Y-102027302D01*
X121252000Y-102198389D01*
X120928000Y-102198389D01*
X120900902Y-102027299D01*
X120847373Y-101862555D01*
X120768732Y-101708212D01*
X120666914Y-101568072D01*
X120544428Y-101445586D01*
X120404288Y-101343768D01*
X120391515Y-101337260D01*
X120249946Y-101265127D01*
X120246784Y-101264100D01*
X120245736Y-101263383D01*
X120245452Y-101263266D01*
X120245476Y-101263206D01*
X120189109Y-101224661D01*
X120161913Y-101160302D01*
X120173829Y-101091456D01*
X120221074Y-101039981D01*
X120246788Y-101028239D01*
X120345715Y-100996096D01*
X120535057Y-100899620D01*
X120706959Y-100774727D01*
X120706964Y-100774723D01*
X120857223Y-100624464D01*
X120857227Y-100624459D01*
X120982120Y-100452557D01*
X121078595Y-100263217D01*
X121144257Y-100061129D01*
X121144257Y-100061126D01*
X121154731Y-99995000D01*
X120260512Y-99995000D01*
X120293425Y-99937993D01*
X120327500Y-99810826D01*
X120327500Y-99679174D01*
X120293425Y-99552007D01*
X120260512Y-99495000D01*
X121154731Y-99495000D01*
X121144257Y-99428873D01*
X121144257Y-99428870D01*
X121078595Y-99226782D01*
X120982120Y-99037442D01*
X120857227Y-98865540D01*
X120857223Y-98865535D01*
X120706964Y-98715276D01*
X120706959Y-98715272D01*
X120535057Y-98590379D01*
X120345715Y-98493903D01*
X120143624Y-98428241D01*
X120077500Y-98417768D01*
X120077500Y-99311988D01*
X120020493Y-99279075D01*
X119893326Y-99245000D01*
X119761674Y-99245000D01*
X119634507Y-99279075D01*
X119577500Y-99311988D01*
X119577500Y-98417768D01*
X119577499Y-98417768D01*
X119511375Y-98428241D01*
X119309284Y-98493903D01*
X119119942Y-98590379D01*
X118948040Y-98715272D01*
X118948035Y-98715276D01*
X118797776Y-98865535D01*
X118797772Y-98865540D01*
X118672877Y-99037444D01*
X118667984Y-99047048D01*
X118620009Y-99097844D01*
X118552188Y-99114638D01*
X118486053Y-99092100D01*
X118447016Y-99047048D01*
X118442122Y-99037444D01*
X118317227Y-98865540D01*
X118317223Y-98865535D01*
X118166964Y-98715276D01*
X118166959Y-98715272D01*
X117995057Y-98590379D01*
X117805715Y-98493903D01*
X117603624Y-98428241D01*
X117537500Y-98417768D01*
X117537500Y-99311988D01*
X117480493Y-99279075D01*
X117353326Y-99245000D01*
X117221674Y-99245000D01*
X117094507Y-99279075D01*
X117037500Y-99311988D01*
X117037500Y-98417768D01*
X117037499Y-98417768D01*
X116971375Y-98428241D01*
X116769284Y-98493903D01*
X116579942Y-98590379D01*
X116408040Y-98715272D01*
X116408035Y-98715276D01*
X116257776Y-98865535D01*
X116257772Y-98865540D01*
X116132877Y-99037444D01*
X116127984Y-99047048D01*
X116080009Y-99097844D01*
X116012188Y-99114638D01*
X115946053Y-99092100D01*
X115907016Y-99047048D01*
X115902122Y-99037444D01*
X115777227Y-98865540D01*
X115777223Y-98865535D01*
X115626964Y-98715276D01*
X115626959Y-98715272D01*
X115455057Y-98590379D01*
X115265715Y-98493903D01*
X115063624Y-98428241D01*
X114997500Y-98417768D01*
X114997500Y-99311988D01*
X114940493Y-99279075D01*
X114813326Y-99245000D01*
X114681674Y-99245000D01*
X114554507Y-99279075D01*
X114497500Y-99311988D01*
X114497500Y-98417768D01*
X114497499Y-98417768D01*
X114431375Y-98428241D01*
X114229284Y-98493903D01*
X114039942Y-98590379D01*
X113868040Y-98715272D01*
X113868035Y-98715276D01*
X113717776Y-98865535D01*
X113717772Y-98865540D01*
X113592877Y-99037444D01*
X113587984Y-99047048D01*
X113540009Y-99097844D01*
X113472188Y-99114638D01*
X113406053Y-99092100D01*
X113367016Y-99047048D01*
X113362122Y-99037444D01*
X113237227Y-98865540D01*
X113237223Y-98865535D01*
X113086964Y-98715276D01*
X113086959Y-98715272D01*
X112915057Y-98590379D01*
X112725715Y-98493903D01*
X112523624Y-98428241D01*
X112457500Y-98417768D01*
X112457500Y-99311988D01*
X112400493Y-99279075D01*
X112273326Y-99245000D01*
X112141674Y-99245000D01*
X112014507Y-99279075D01*
X111957500Y-99311988D01*
X111957500Y-98417768D01*
X111957499Y-98417768D01*
X111891375Y-98428241D01*
X111689284Y-98493903D01*
X111499942Y-98590379D01*
X111328040Y-98715272D01*
X111328035Y-98715276D01*
X111177776Y-98865535D01*
X111177772Y-98865540D01*
X111052877Y-99037444D01*
X111047984Y-99047048D01*
X111000009Y-99097844D01*
X110932188Y-99114638D01*
X110866053Y-99092100D01*
X110827016Y-99047048D01*
X110822122Y-99037444D01*
X110697227Y-98865540D01*
X110697223Y-98865535D01*
X110546964Y-98715276D01*
X110546959Y-98715272D01*
X110375057Y-98590379D01*
X110185715Y-98493903D01*
X109983624Y-98428241D01*
X109917500Y-98417768D01*
X109917500Y-99311988D01*
X109860493Y-99279075D01*
X109733326Y-99245000D01*
X109601674Y-99245000D01*
X109474507Y-99279075D01*
X109417500Y-99311988D01*
X109417500Y-98417768D01*
X109417499Y-98417768D01*
X109351375Y-98428241D01*
X109149284Y-98493903D01*
X108959942Y-98590379D01*
X108788040Y-98715272D01*
X108788035Y-98715276D01*
X108637776Y-98865535D01*
X108637772Y-98865540D01*
X108512877Y-99037444D01*
X108507984Y-99047048D01*
X108460009Y-99097844D01*
X108392188Y-99114638D01*
X108326053Y-99092100D01*
X108287016Y-99047048D01*
X108282122Y-99037444D01*
X108157227Y-98865540D01*
X108157223Y-98865535D01*
X108006964Y-98715276D01*
X108006959Y-98715272D01*
X107835057Y-98590379D01*
X107645715Y-98493903D01*
X107443624Y-98428241D01*
X107377500Y-98417768D01*
X107377500Y-99311988D01*
X107320493Y-99279075D01*
X107193326Y-99245000D01*
X107061674Y-99245000D01*
X106934507Y-99279075D01*
X106877500Y-99311988D01*
X106877500Y-98417768D01*
X106877499Y-98417768D01*
X106811375Y-98428241D01*
X106609284Y-98493903D01*
X106419942Y-98590379D01*
X106248040Y-98715272D01*
X106248035Y-98715276D01*
X106097776Y-98865535D01*
X106097772Y-98865540D01*
X105972877Y-99037444D01*
X105967984Y-99047048D01*
X105920009Y-99097844D01*
X105852188Y-99114638D01*
X105786053Y-99092100D01*
X105747016Y-99047048D01*
X105742122Y-99037444D01*
X105617227Y-98865540D01*
X105617223Y-98865535D01*
X105466964Y-98715276D01*
X105466959Y-98715272D01*
X105295057Y-98590379D01*
X105105715Y-98493903D01*
X104903624Y-98428241D01*
X104837500Y-98417768D01*
X104837500Y-99311988D01*
X104780493Y-99279075D01*
X104653326Y-99245000D01*
X104521674Y-99245000D01*
X104394507Y-99279075D01*
X104337500Y-99311988D01*
X104337500Y-98417768D01*
X104337499Y-98417768D01*
X104271375Y-98428241D01*
X104069284Y-98493903D01*
X103879942Y-98590379D01*
X103708041Y-98715271D01*
X103593977Y-98829335D01*
X103532654Y-98862819D01*
X103462962Y-98857835D01*
X103407029Y-98815963D01*
X103390114Y-98784986D01*
X103340854Y-98652913D01*
X103340850Y-98652906D01*
X103254690Y-98537812D01*
X103254687Y-98537809D01*
X103139593Y-98451649D01*
X103139586Y-98451645D01*
X103004879Y-98401403D01*
X103004872Y-98401401D01*
X102945344Y-98395000D01*
X102297500Y-98395000D01*
X102297500Y-99311988D01*
X102240493Y-99279075D01*
X102113326Y-99245000D01*
X101981674Y-99245000D01*
X101854507Y-99279075D01*
X101797500Y-99311988D01*
X101797500Y-98395000D01*
X101149655Y-98395000D01*
X101090127Y-98401401D01*
X101090120Y-98401403D01*
X100955413Y-98451645D01*
X100955406Y-98451649D01*
X100840312Y-98537809D01*
X100840309Y-98537812D01*
X100754149Y-98652906D01*
X100754145Y-98652913D01*
X100703903Y-98787620D01*
X100703901Y-98787627D01*
X100697500Y-98847155D01*
X98570903Y-98847155D01*
X98494436Y-98714711D01*
X98346765Y-98522262D01*
X98346760Y-98522256D01*
X98175243Y-98350739D01*
X98175236Y-98350733D01*
X97982793Y-98203067D01*
X97982792Y-98203066D01*
X97982789Y-98203064D01*
X97945240Y-98181385D01*
X97897027Y-98130820D01*
X97883803Y-98062213D01*
X97909771Y-97997349D01*
X97966685Y-97956820D01*
X98007242Y-97950000D01*
X123837758Y-97950000D01*
X123904797Y-97969685D01*
X123950552Y-98022489D01*
X123960496Y-98091647D01*
X123931471Y-98155203D01*
X123899761Y-98181384D01*
X123862211Y-98203064D01*
X123862206Y-98203067D01*
X123669763Y-98350733D01*
X123669756Y-98350739D01*
X123498239Y-98522256D01*
X123498233Y-98522263D01*
X123350567Y-98714706D01*
X123229277Y-98924785D01*
X123229273Y-98924794D01*
X123136447Y-99148895D01*
X123073661Y-99383214D01*
X123042000Y-99623711D01*
X123042000Y-99866288D01*
X123073661Y-100106785D01*
X123136447Y-100341104D01*
X123229273Y-100565205D01*
X123229277Y-100565214D01*
X123251474Y-100603661D01*
X123350564Y-100775289D01*
X123350566Y-100775292D01*
X123350567Y-100775293D01*
X123498233Y-100967736D01*
X123498239Y-100967743D01*
X123669756Y-101139260D01*
X123669763Y-101139266D01*
X123734394Y-101188859D01*
X123862211Y-101286936D01*
X124072288Y-101408224D01*
X124296400Y-101501054D01*
X124530711Y-101563838D01*
X124711086Y-101587584D01*
X124771211Y-101595500D01*
X124771212Y-101595500D01*
X125013789Y-101595500D01*
X125061888Y-101589167D01*
X125254289Y-101563838D01*
X125488600Y-101501054D01*
X125712712Y-101408224D01*
X125922789Y-101286936D01*
X126115238Y-101139265D01*
X126286765Y-100967738D01*
X126434436Y-100775289D01*
X126555724Y-100565212D01*
X126573677Y-100521867D01*
X126617517Y-100467467D01*
X126683811Y-100445401D01*
X126751510Y-100462680D01*
X126799121Y-100513816D01*
X126812237Y-100568743D01*
X126831999Y-104797786D01*
X126832000Y-104798365D01*
X126832000Y-108526498D01*
X126812315Y-108593537D01*
X126759511Y-108639292D01*
X126708437Y-108650497D01*
X116431352Y-108686700D01*
X113923483Y-111048299D01*
X113861182Y-111079928D01*
X113834201Y-111081951D01*
X112900002Y-111049740D01*
X110797409Y-111370647D01*
X110728167Y-111361302D01*
X110674969Y-111316006D01*
X110654705Y-111249139D01*
X110671312Y-111186067D01*
X110730400Y-111083725D01*
X110764508Y-110956431D01*
X110764508Y-110824647D01*
X110730400Y-110697353D01*
X110664508Y-110583225D01*
X110571322Y-110490039D01*
X110490013Y-110443095D01*
X110457195Y-110424147D01*
X110393547Y-110407093D01*
X110329900Y-110390039D01*
X110198116Y-110390039D01*
X110070820Y-110424147D01*
X109956694Y-110490039D01*
X109956691Y-110490041D01*
X109857761Y-110588972D01*
X109855575Y-110586786D01*
X109810961Y-110619351D01*
X109741215Y-110623494D01*
X109680300Y-110589272D01*
X109678320Y-110586987D01*
X109581374Y-110490041D01*
X109581372Y-110490039D01*
X109500063Y-110443095D01*
X109467245Y-110424147D01*
X109403597Y-110407093D01*
X109339950Y-110390039D01*
X109208166Y-110390039D01*
X109080870Y-110424147D01*
X108966744Y-110490039D01*
X108966741Y-110490041D01*
X108873560Y-110583222D01*
X108873558Y-110583225D01*
X108807666Y-110697351D01*
X108773558Y-110824647D01*
X108773558Y-110956430D01*
X108807666Y-111083726D01*
X108838655Y-111137399D01*
X108873558Y-111197853D01*
X108873559Y-111197854D01*
X108877622Y-111204891D01*
X108876145Y-111205743D01*
X108897819Y-111261804D01*
X108883781Y-111330249D01*
X108834968Y-111380240D01*
X108774932Y-111396121D01*
X100753554Y-111440322D01*
X100686407Y-111421007D01*
X100663069Y-111401832D01*
X98961472Y-109614779D01*
X98887792Y-109537399D01*
X103524500Y-109537399D01*
X103524500Y-109662601D01*
X103556905Y-109783536D01*
X103619505Y-109891964D01*
X103708036Y-109980495D01*
X103816464Y-110043095D01*
X103937399Y-110075500D01*
X103937401Y-110075500D01*
X104062599Y-110075500D01*
X104062601Y-110075500D01*
X104183536Y-110043095D01*
X104291964Y-109980495D01*
X104380495Y-109891964D01*
X104443095Y-109783536D01*
X104475500Y-109662601D01*
X104475500Y-109537399D01*
X104443095Y-109416464D01*
X104380495Y-109308036D01*
X104291964Y-109219505D01*
X104183536Y-109156905D01*
X104183537Y-109156905D01*
X104143224Y-109146103D01*
X104062601Y-109124500D01*
X103937399Y-109124500D01*
X103856775Y-109146103D01*
X103816463Y-109156905D01*
X103708037Y-109219504D01*
X103708034Y-109219506D01*
X103619506Y-109308034D01*
X103619504Y-109308037D01*
X103556905Y-109416463D01*
X103556905Y-109416464D01*
X103524500Y-109537399D01*
X98887792Y-109537399D01*
X97900000Y-108500000D01*
X91837544Y-108500000D01*
X91770505Y-108480315D01*
X91768761Y-108479174D01*
X91554897Y-108336598D01*
X91510036Y-108283033D01*
X91499681Y-108234023D01*
X91498483Y-107985966D01*
X91494807Y-107225321D01*
X95499500Y-107225321D01*
X95499500Y-107774678D01*
X95514032Y-107847735D01*
X95514033Y-107847739D01*
X95524230Y-107863000D01*
X95569399Y-107930601D01*
X95647821Y-107983000D01*
X95652260Y-107985966D01*
X95652264Y-107985967D01*
X95725321Y-108000499D01*
X95725324Y-108000500D01*
X95725326Y-108000500D01*
X96274676Y-108000500D01*
X96274677Y-108000499D01*
X96347740Y-107985966D01*
X96430601Y-107930601D01*
X96485966Y-107847740D01*
X96500500Y-107774674D01*
X96500500Y-107225326D01*
X96500500Y-107225323D01*
X96489182Y-107168426D01*
X96489181Y-107168424D01*
X96487570Y-107160326D01*
X96485966Y-107152260D01*
X96484670Y-107150321D01*
X99799500Y-107150321D01*
X99799500Y-107699678D01*
X99814032Y-107772735D01*
X99814033Y-107772739D01*
X99832405Y-107800235D01*
X99869399Y-107855601D01*
X99952260Y-107910966D01*
X99952264Y-107910967D01*
X100025321Y-107925499D01*
X100025324Y-107925500D01*
X100025326Y-107925500D01*
X100574676Y-107925500D01*
X100574677Y-107925499D01*
X100647740Y-107910966D01*
X100730601Y-107855601D01*
X100785966Y-107772740D01*
X100800500Y-107699674D01*
X100800500Y-107150326D01*
X100800500Y-107150323D01*
X100800499Y-107150321D01*
X100785967Y-107077264D01*
X100785966Y-107077260D01*
X100730601Y-106994399D01*
X100647739Y-106939033D01*
X100647735Y-106939032D01*
X100578804Y-106925321D01*
X103699500Y-106925321D01*
X103699500Y-107474678D01*
X103714032Y-107547735D01*
X103714033Y-107547739D01*
X103714034Y-107547740D01*
X103769399Y-107630601D01*
X103852260Y-107685966D01*
X103852264Y-107685967D01*
X103925321Y-107700499D01*
X103925324Y-107700500D01*
X103925326Y-107700500D01*
X104474676Y-107700500D01*
X104474677Y-107700499D01*
X104547740Y-107685966D01*
X104630601Y-107630601D01*
X104685966Y-107547740D01*
X104700500Y-107474674D01*
X104700500Y-107089071D01*
X108549499Y-107089071D01*
X108574497Y-107214738D01*
X108574499Y-107214744D01*
X108623533Y-107333124D01*
X108623538Y-107333133D01*
X108694723Y-107439668D01*
X108694726Y-107439672D01*
X108785327Y-107530273D01*
X108785331Y-107530276D01*
X108891866Y-107601461D01*
X108891872Y-107601464D01*
X108891873Y-107601465D01*
X109010256Y-107650501D01*
X109010260Y-107650501D01*
X109010261Y-107650502D01*
X109135928Y-107675500D01*
X109135931Y-107675500D01*
X109264071Y-107675500D01*
X109348615Y-107658682D01*
X109389744Y-107650501D01*
X109508127Y-107601465D01*
X109614669Y-107530276D01*
X109705276Y-107439669D01*
X109776465Y-107333127D01*
X109825501Y-107214744D01*
X109838316Y-107150321D01*
X113699500Y-107150321D01*
X113699500Y-107699678D01*
X113714032Y-107772735D01*
X113714033Y-107772739D01*
X113732405Y-107800235D01*
X113769399Y-107855601D01*
X113852260Y-107910966D01*
X113852264Y-107910967D01*
X113925321Y-107925499D01*
X113925324Y-107925500D01*
X113925326Y-107925500D01*
X114474676Y-107925500D01*
X114474677Y-107925499D01*
X114547740Y-107910966D01*
X114630601Y-107855601D01*
X114685966Y-107772740D01*
X114700500Y-107699674D01*
X114700500Y-107150326D01*
X114700500Y-107150323D01*
X114700499Y-107150321D01*
X114691669Y-107105925D01*
X114688067Y-107087821D01*
X117299500Y-107087821D01*
X117299500Y-107637178D01*
X117314032Y-107710235D01*
X117314033Y-107710239D01*
X117314034Y-107710240D01*
X117369399Y-107793101D01*
X117451166Y-107847735D01*
X117452260Y-107848466D01*
X117452264Y-107848467D01*
X117525321Y-107862999D01*
X117525324Y-107863000D01*
X117525326Y-107863000D01*
X118074676Y-107863000D01*
X118074677Y-107862999D01*
X118147740Y-107848466D01*
X118230601Y-107793101D01*
X118285966Y-107710240D01*
X118300500Y-107637174D01*
X118300500Y-107160321D01*
X120899500Y-107160321D01*
X120899500Y-107709678D01*
X120914032Y-107782735D01*
X120914033Y-107782739D01*
X120914034Y-107782740D01*
X120969399Y-107865601D01*
X121040489Y-107913101D01*
X121052260Y-107920966D01*
X121052264Y-107920967D01*
X121125321Y-107935499D01*
X121125324Y-107935500D01*
X121125326Y-107935500D01*
X121674676Y-107935500D01*
X121674677Y-107935499D01*
X121747740Y-107920966D01*
X121830601Y-107865601D01*
X121885966Y-107782740D01*
X121900500Y-107709674D01*
X121900500Y-107207821D01*
X124499500Y-107207821D01*
X124499500Y-107757178D01*
X124514032Y-107830235D01*
X124514033Y-107830239D01*
X124525726Y-107847739D01*
X124569399Y-107913101D01*
X124652260Y-107968466D01*
X124652264Y-107968467D01*
X124725321Y-107982999D01*
X124725324Y-107983000D01*
X124725326Y-107983000D01*
X125274676Y-107983000D01*
X125274677Y-107982999D01*
X125347740Y-107968466D01*
X125430601Y-107913101D01*
X125485966Y-107830240D01*
X125500500Y-107757174D01*
X125500500Y-107207826D01*
X125500500Y-107207823D01*
X125500499Y-107207821D01*
X125485967Y-107134764D01*
X125485966Y-107134760D01*
X125455437Y-107089070D01*
X125430601Y-107051899D01*
X125353676Y-107000500D01*
X125347739Y-106996533D01*
X125347735Y-106996532D01*
X125274677Y-106982000D01*
X125274674Y-106982000D01*
X124725326Y-106982000D01*
X124725323Y-106982000D01*
X124652264Y-106996532D01*
X124652260Y-106996533D01*
X124569399Y-107051899D01*
X124514033Y-107134760D01*
X124514032Y-107134764D01*
X124499500Y-107207821D01*
X121900500Y-107207821D01*
X121900500Y-107160326D01*
X121900500Y-107160323D01*
X121900499Y-107160321D01*
X121885967Y-107087264D01*
X121885966Y-107087260D01*
X121862339Y-107051899D01*
X121830601Y-107004399D01*
X121775235Y-106967405D01*
X121747739Y-106949033D01*
X121747735Y-106949032D01*
X121674677Y-106934500D01*
X121674674Y-106934500D01*
X121125326Y-106934500D01*
X121125323Y-106934500D01*
X121052264Y-106949032D01*
X121052260Y-106949033D01*
X120969399Y-107004399D01*
X120914033Y-107087260D01*
X120914032Y-107087264D01*
X120899500Y-107160321D01*
X118300500Y-107160321D01*
X118300500Y-107087826D01*
X118300500Y-107087823D01*
X118300499Y-107087821D01*
X118285967Y-107014764D01*
X118285966Y-107014760D01*
X118273787Y-106996533D01*
X118230601Y-106931899D01*
X118147740Y-106876534D01*
X118147739Y-106876533D01*
X118147735Y-106876532D01*
X118074677Y-106862000D01*
X118074674Y-106862000D01*
X117525326Y-106862000D01*
X117525323Y-106862000D01*
X117452264Y-106876532D01*
X117452260Y-106876533D01*
X117369399Y-106931899D01*
X117314033Y-107014760D01*
X117314032Y-107014764D01*
X117299500Y-107087821D01*
X114688067Y-107087821D01*
X114685967Y-107077263D01*
X114685966Y-107077260D01*
X114630601Y-106994399D01*
X114575235Y-106957405D01*
X114547739Y-106939033D01*
X114547735Y-106939032D01*
X114474677Y-106924500D01*
X114474674Y-106924500D01*
X113925326Y-106924500D01*
X113925323Y-106924500D01*
X113852264Y-106939032D01*
X113852260Y-106939033D01*
X113769399Y-106994399D01*
X113714033Y-107077260D01*
X113714032Y-107077264D01*
X113699500Y-107150321D01*
X109838316Y-107150321D01*
X109850500Y-107089069D01*
X109850500Y-106960931D01*
X109850500Y-106960928D01*
X109825502Y-106835261D01*
X109825501Y-106835260D01*
X109825501Y-106835256D01*
X109776465Y-106716873D01*
X109776464Y-106716872D01*
X109776461Y-106716866D01*
X109705276Y-106610331D01*
X109705273Y-106610327D01*
X109614672Y-106519726D01*
X109614668Y-106519723D01*
X109508133Y-106448538D01*
X109508124Y-106448533D01*
X109389744Y-106399499D01*
X109389738Y-106399497D01*
X109264071Y-106374500D01*
X109264069Y-106374500D01*
X109135931Y-106374500D01*
X109135929Y-106374500D01*
X109010261Y-106399497D01*
X109010255Y-106399499D01*
X108891875Y-106448533D01*
X108891866Y-106448538D01*
X108785331Y-106519723D01*
X108785327Y-106519726D01*
X108694726Y-106610327D01*
X108694723Y-106610331D01*
X108623538Y-106716866D01*
X108623533Y-106716875D01*
X108574499Y-106835255D01*
X108574497Y-106835261D01*
X108549500Y-106960928D01*
X108549500Y-106960931D01*
X108549500Y-107089069D01*
X108549500Y-107089071D01*
X108549499Y-107089071D01*
X104700500Y-107089071D01*
X104700500Y-106925326D01*
X104700500Y-106925323D01*
X104700499Y-106925321D01*
X104685967Y-106852264D01*
X104685966Y-106852260D01*
X104682945Y-106847739D01*
X104630601Y-106769399D01*
X104551989Y-106716873D01*
X104547739Y-106714033D01*
X104547735Y-106714032D01*
X104474677Y-106699500D01*
X104474674Y-106699500D01*
X103925326Y-106699500D01*
X103925323Y-106699500D01*
X103852264Y-106714032D01*
X103852260Y-106714033D01*
X103769399Y-106769399D01*
X103714033Y-106852260D01*
X103714032Y-106852264D01*
X103699500Y-106925321D01*
X100578804Y-106925321D01*
X100574677Y-106924500D01*
X100574674Y-106924500D01*
X100025326Y-106924500D01*
X100025323Y-106924500D01*
X99952264Y-106939032D01*
X99952260Y-106939033D01*
X99869399Y-106994399D01*
X99814033Y-107077260D01*
X99814032Y-107077264D01*
X99799500Y-107150321D01*
X96484670Y-107150321D01*
X96430601Y-107069399D01*
X96347740Y-107014034D01*
X96347739Y-107014033D01*
X96347735Y-107014032D01*
X96274677Y-106999500D01*
X96274674Y-106999500D01*
X95725326Y-106999500D01*
X95725323Y-106999500D01*
X95652264Y-107014032D01*
X95652260Y-107014033D01*
X95569399Y-107069399D01*
X95514033Y-107152260D01*
X95514032Y-107152264D01*
X95499500Y-107225321D01*
X91494807Y-107225321D01*
X91494232Y-107106222D01*
X91513593Y-107039092D01*
X91566175Y-106993083D01*
X91635285Y-106982805D01*
X91642422Y-106984010D01*
X91725321Y-107000499D01*
X91725324Y-107000500D01*
X91725326Y-107000500D01*
X92274676Y-107000500D01*
X92274677Y-107000499D01*
X92347740Y-106985966D01*
X92430601Y-106930601D01*
X92485966Y-106847740D01*
X92500500Y-106774674D01*
X92500500Y-106225326D01*
X92500500Y-106225323D01*
X92500499Y-106225321D01*
X92485967Y-106152264D01*
X92485966Y-106152260D01*
X92430601Y-106069399D01*
X92375235Y-106032405D01*
X92347739Y-106014033D01*
X92347735Y-106014032D01*
X92274677Y-105999500D01*
X92274674Y-105999500D01*
X91725326Y-105999500D01*
X91725323Y-105999500D01*
X91640281Y-106016416D01*
X91639615Y-106013070D01*
X91590344Y-106018356D01*
X91527872Y-105987066D01*
X91492234Y-105926969D01*
X91488391Y-105896937D01*
X91450602Y-98074599D01*
X91469963Y-98007465D01*
X91522545Y-97961456D01*
X91574601Y-97950000D01*
X95897758Y-97950000D01*
X95964797Y-97969685D01*
G37*
%TD.AperFunction*%
%TD*%
%TA.AperFunction,Conductor*%
%TO.N,GNDD*%
G36*
X91157072Y-97968907D02*
G01*
X91193036Y-98018407D01*
X91196940Y-98062619D01*
X91195105Y-98075830D01*
X91232893Y-105898164D01*
X91234958Y-105929373D01*
X91238798Y-105959374D01*
X91239326Y-105963272D01*
X91239327Y-105963275D01*
X91272469Y-106057288D01*
X91272470Y-106057291D01*
X91308107Y-106117388D01*
X91308109Y-106117390D01*
X91334736Y-106154334D01*
X91334735Y-106154334D01*
X91334736Y-106154335D01*
X91334738Y-106154337D01*
X91413451Y-106215513D01*
X91444835Y-106231232D01*
X91488396Y-106274194D01*
X91499500Y-106319749D01*
X91499500Y-106685075D01*
X91480593Y-106743266D01*
X91449905Y-106770866D01*
X91397928Y-106800797D01*
X91345345Y-106846807D01*
X91313882Y-106879729D01*
X91268100Y-106968286D01*
X91248737Y-107035421D01*
X91238735Y-107107457D01*
X91239310Y-107226555D01*
X91241815Y-107745000D01*
X91244183Y-108235247D01*
X91244183Y-108235251D01*
X91244184Y-108235258D01*
X91249700Y-108286840D01*
X91260055Y-108335850D01*
X91260058Y-108335864D01*
X91260061Y-108335875D01*
X91266290Y-108359636D01*
X91266290Y-108359637D01*
X91282759Y-108389722D01*
X91314158Y-108447082D01*
X91314161Y-108447085D01*
X91359013Y-108500641D01*
X91359019Y-108500647D01*
X91413171Y-108549187D01*
X91413179Y-108549192D01*
X91626950Y-108691707D01*
X91627035Y-108691763D01*
X91628879Y-108692981D01*
X91629046Y-108693090D01*
X91630621Y-108694121D01*
X91630622Y-108694122D01*
X91659730Y-108707558D01*
X91698520Y-108725465D01*
X91765559Y-108745150D01*
X91805550Y-108750900D01*
X91837540Y-108755500D01*
X91837544Y-108755500D01*
X97748048Y-108755500D01*
X97806239Y-108774407D01*
X97819745Y-108786232D01*
X98386819Y-109381784D01*
X98567022Y-109571037D01*
X98702756Y-109713587D01*
X98702756Y-109713586D01*
X100049762Y-111128240D01*
X100478032Y-111578018D01*
X100478054Y-111578039D01*
X100500841Y-111599219D01*
X100500858Y-111599234D01*
X100500870Y-111599245D01*
X100524208Y-111618420D01*
X100527187Y-111620830D01*
X100615776Y-111666550D01*
X100615778Y-111666550D01*
X100615781Y-111666552D01*
X100660185Y-111679324D01*
X100682923Y-111685865D01*
X100754962Y-111695818D01*
X100754969Y-111695817D01*
X100754970Y-111695818D01*
X104529728Y-111675017D01*
X108776340Y-111651617D01*
X108840271Y-111643125D01*
X108865948Y-111636332D01*
X108875596Y-111633781D01*
X108900912Y-111630489D01*
X109024057Y-111630489D01*
X109024058Y-111630488D01*
X109024058Y-111592621D01*
X109042965Y-111534430D01*
X109052223Y-111523459D01*
X109066588Y-111508748D01*
X109095374Y-111473457D01*
X109134071Y-111381583D01*
X109148109Y-111313138D01*
X109153247Y-111267880D01*
X109136129Y-111169670D01*
X109136127Y-111169664D01*
X109124867Y-111140540D01*
X109524058Y-111140540D01*
X109524058Y-111630488D01*
X109524059Y-111630489D01*
X110014007Y-111630489D01*
X110014008Y-111630488D01*
X110014008Y-111140540D01*
X110014007Y-111140539D01*
X109524059Y-111140539D01*
X109524058Y-111140540D01*
X109124867Y-111140540D01*
X109123195Y-111136214D01*
X109123185Y-111136190D01*
X109114455Y-111113609D01*
X109113985Y-111113790D01*
X109099341Y-111078136D01*
X109098893Y-111077149D01*
X109098890Y-111077139D01*
X109076893Y-111039040D01*
X109064171Y-110979192D01*
X109089057Y-110923296D01*
X109142044Y-110892703D01*
X109162629Y-110890539D01*
X109174058Y-110890539D01*
X109174058Y-110910430D01*
X109189282Y-110947184D01*
X109217413Y-110975315D01*
X109254167Y-110990539D01*
X109293949Y-110990539D01*
X109330703Y-110975315D01*
X109358834Y-110947184D01*
X109374058Y-110910430D01*
X109374058Y-110870648D01*
X109358834Y-110833894D01*
X109330703Y-110805763D01*
X109293949Y-110790539D01*
X109274058Y-110790539D01*
X109274058Y-110783064D01*
X109280484Y-110763284D01*
X109282701Y-110742610D01*
X109289726Y-110734839D01*
X109292965Y-110724873D01*
X109309791Y-110712647D01*
X109323736Y-110697225D01*
X109333987Y-110695068D01*
X109342465Y-110688909D01*
X109363262Y-110688909D01*
X109383610Y-110684628D01*
X109392562Y-110688909D01*
X109403651Y-110688909D01*
X109439454Y-110709630D01*
X109441300Y-110711299D01*
X109497654Y-110767653D01*
X109499052Y-110766254D01*
X109555157Y-110812026D01*
X109616072Y-110846248D01*
X109657608Y-110864928D01*
X109756365Y-110878544D01*
X109826111Y-110874401D01*
X109871156Y-110867659D01*
X109961597Y-110825722D01*
X110006211Y-110793157D01*
X110006210Y-110793155D01*
X110031247Y-110774881D01*
X110032724Y-110773447D01*
X110038428Y-110769637D01*
X110095526Y-110712537D01*
X110096083Y-110711998D01*
X110122881Y-110698855D01*
X110149520Y-110685282D01*
X110150304Y-110685406D01*
X110151017Y-110685057D01*
X110180422Y-110690176D01*
X110209952Y-110694853D01*
X110210513Y-110695414D01*
X110211296Y-110695551D01*
X110232095Y-110716995D01*
X110253217Y-110738117D01*
X110253426Y-110738988D01*
X110253894Y-110739471D01*
X110254410Y-110743086D01*
X110264008Y-110783063D01*
X110264008Y-110790539D01*
X110244117Y-110790539D01*
X110207363Y-110805763D01*
X110179232Y-110833894D01*
X110164008Y-110870648D01*
X110164008Y-110910430D01*
X110179232Y-110947184D01*
X110207363Y-110975315D01*
X110244117Y-110990539D01*
X110283899Y-110990539D01*
X110320653Y-110975315D01*
X110348784Y-110947184D01*
X110364008Y-110910430D01*
X110364008Y-110890539D01*
X110375436Y-110890539D01*
X110433627Y-110909446D01*
X110469591Y-110958946D01*
X110469591Y-111020132D01*
X110461172Y-111039040D01*
X110450042Y-111058316D01*
X110450042Y-111058317D01*
X110424234Y-111121008D01*
X110424232Y-111121011D01*
X110407627Y-111184076D01*
X110400442Y-111224026D01*
X110410187Y-111323241D01*
X110430454Y-111390116D01*
X110430455Y-111390118D01*
X110447489Y-111432339D01*
X110447493Y-111432346D01*
X110492661Y-111489463D01*
X110513926Y-111546834D01*
X110514008Y-111550871D01*
X110514008Y-111630488D01*
X110514009Y-111630489D01*
X110975265Y-111630489D01*
X111016938Y-111597635D01*
X111036254Y-111592651D01*
X112905884Y-111307299D01*
X112924229Y-111306226D01*
X113825397Y-111337299D01*
X113853304Y-111336736D01*
X113880285Y-111334713D01*
X113880855Y-111334669D01*
X113976843Y-111307750D01*
X114039144Y-111276121D01*
X114098643Y-111234308D01*
X115266985Y-110134108D01*
X125399500Y-110134108D01*
X125399500Y-110265892D01*
X125414652Y-110322441D01*
X125433609Y-110393190D01*
X125499496Y-110507309D01*
X125499498Y-110507311D01*
X125499500Y-110507314D01*
X125592686Y-110600500D01*
X125592688Y-110600501D01*
X125592690Y-110600503D01*
X125706810Y-110666390D01*
X125706808Y-110666390D01*
X125706812Y-110666391D01*
X125706814Y-110666392D01*
X125834108Y-110700500D01*
X125834110Y-110700500D01*
X125965890Y-110700500D01*
X125965892Y-110700500D01*
X126093186Y-110666392D01*
X126093188Y-110666390D01*
X126093190Y-110666390D01*
X126207309Y-110600503D01*
X126207309Y-110600502D01*
X126207314Y-110600500D01*
X126300500Y-110507314D01*
X126318126Y-110476785D01*
X126366390Y-110393190D01*
X126366390Y-110393188D01*
X126366392Y-110393186D01*
X126400500Y-110265892D01*
X126400500Y-110134108D01*
X126366392Y-110006814D01*
X126366390Y-110006811D01*
X126366390Y-110006809D01*
X126300503Y-109892690D01*
X126300501Y-109892688D01*
X126300500Y-109892686D01*
X126207314Y-109799500D01*
X126207311Y-109799498D01*
X126207309Y-109799496D01*
X126093189Y-109733609D01*
X126093191Y-109733609D01*
X126043799Y-109720375D01*
X125965892Y-109699500D01*
X125834108Y-109699500D01*
X125756200Y-109720375D01*
X125706809Y-109733609D01*
X125592690Y-109799496D01*
X125499496Y-109892690D01*
X125433609Y-110006809D01*
X125433608Y-110006814D01*
X125399500Y-110134108D01*
X115266985Y-110134108D01*
X116504650Y-108968628D01*
X116559975Y-108942501D01*
X116572164Y-108941704D01*
X126700652Y-108906025D01*
X126758908Y-108924727D01*
X126795046Y-108974100D01*
X126800000Y-109005024D01*
X126800000Y-113110407D01*
X126781093Y-113168598D01*
X126731593Y-113204562D01*
X126670407Y-113204562D01*
X126651501Y-113196144D01*
X126583538Y-113156906D01*
X126583537Y-113156905D01*
X126583536Y-113156905D01*
X126462601Y-113124500D01*
X126337399Y-113124500D01*
X126232560Y-113152591D01*
X126171460Y-113149390D01*
X126123910Y-113110885D01*
X126108074Y-113051784D01*
X126118728Y-113012020D01*
X126143595Y-112963215D01*
X126209258Y-112761122D01*
X126219731Y-112695000D01*
X125325512Y-112695000D01*
X125358425Y-112637993D01*
X125392500Y-112510826D01*
X125392500Y-112379174D01*
X125358425Y-112252007D01*
X125325512Y-112195000D01*
X126219731Y-112195000D01*
X126219731Y-112194999D01*
X126209258Y-112128877D01*
X126143595Y-111926784D01*
X126047124Y-111737447D01*
X125922222Y-111565535D01*
X125771964Y-111415277D01*
X125600052Y-111290375D01*
X125410715Y-111193904D01*
X125208620Y-111128240D01*
X125142500Y-111117767D01*
X125142500Y-112011988D01*
X125085493Y-111979075D01*
X124958326Y-111945000D01*
X124826674Y-111945000D01*
X124699507Y-111979075D01*
X124642500Y-112011988D01*
X124642500Y-111117768D01*
X124642499Y-111117767D01*
X124576380Y-111128240D01*
X124576378Y-111128240D01*
X124374284Y-111193904D01*
X124184947Y-111290375D01*
X124013035Y-111415277D01*
X123862777Y-111565535D01*
X123737875Y-111737447D01*
X123641404Y-111926784D01*
X123575741Y-112128877D01*
X123565268Y-112194999D01*
X123565269Y-112195000D01*
X124459488Y-112195000D01*
X124426575Y-112252007D01*
X124392500Y-112379174D01*
X124392500Y-112510826D01*
X124426575Y-112637993D01*
X124459488Y-112695000D01*
X123565269Y-112695000D01*
X123575741Y-112761122D01*
X123641404Y-112963215D01*
X123737875Y-113152552D01*
X123862777Y-113324464D01*
X124013035Y-113474722D01*
X124184947Y-113599624D01*
X124374286Y-113696096D01*
X124546386Y-113752014D01*
X124595886Y-113787978D01*
X124614794Y-113846169D01*
X124595887Y-113904359D01*
X124546388Y-113940323D01*
X124470058Y-113965125D01*
X124315714Y-114043766D01*
X124175573Y-114145585D01*
X124053085Y-114268073D01*
X123951266Y-114408214D01*
X123872625Y-114562558D01*
X123872623Y-114562561D01*
X123819098Y-114727293D01*
X123819097Y-114727297D01*
X123792000Y-114898385D01*
X123792000Y-115071614D01*
X123819097Y-115242702D01*
X123819098Y-115242706D01*
X123872623Y-115407438D01*
X123872625Y-115407441D01*
X123948718Y-115556785D01*
X123951268Y-115561788D01*
X124053086Y-115701928D01*
X124175572Y-115824414D01*
X124315712Y-115926232D01*
X124470055Y-116004873D01*
X124470057Y-116004873D01*
X124470058Y-116004874D01*
X124470061Y-116004876D01*
X124634793Y-116058401D01*
X124634797Y-116058402D01*
X124805886Y-116085500D01*
X124805889Y-116085500D01*
X124979114Y-116085500D01*
X125150202Y-116058402D01*
X125150206Y-116058401D01*
X125314938Y-116004876D01*
X125314940Y-116004874D01*
X125314945Y-116004873D01*
X125469288Y-115926232D01*
X125609428Y-115824414D01*
X125731914Y-115701928D01*
X125833732Y-115561788D01*
X125912373Y-115407445D01*
X125912374Y-115407440D01*
X125912376Y-115407438D01*
X125965901Y-115242706D01*
X125965902Y-115242702D01*
X125993000Y-115071614D01*
X125993000Y-114898385D01*
X125965902Y-114727297D01*
X125965901Y-114727293D01*
X125912376Y-114562561D01*
X125912374Y-114562558D01*
X125912373Y-114562557D01*
X125912373Y-114562555D01*
X125833732Y-114408212D01*
X125731914Y-114268072D01*
X125609428Y-114145586D01*
X125469288Y-114043768D01*
X125469287Y-114043767D01*
X125469285Y-114043766D01*
X125314941Y-113965125D01*
X125238611Y-113940323D01*
X125189112Y-113904359D01*
X125170205Y-113846168D01*
X125189113Y-113787977D01*
X125238613Y-113752014D01*
X125410713Y-113696096D01*
X125600051Y-113599624D01*
X125767309Y-113478104D01*
X125825500Y-113459197D01*
X125883691Y-113478104D01*
X125919655Y-113527604D01*
X125924500Y-113558197D01*
X125924500Y-113662601D01*
X125956905Y-113783536D01*
X126019505Y-113891964D01*
X126108036Y-113980495D01*
X126216464Y-114043095D01*
X126337399Y-114075500D01*
X126337401Y-114075500D01*
X126462599Y-114075500D01*
X126462601Y-114075500D01*
X126583536Y-114043095D01*
X126651501Y-114003855D01*
X126711348Y-113991134D01*
X126767244Y-114016020D01*
X126797837Y-114069008D01*
X126800000Y-114089592D01*
X126800000Y-121876816D01*
X126781093Y-121935007D01*
X126731593Y-121970971D01*
X126670407Y-121970971D01*
X126620907Y-121935007D01*
X126609536Y-121914701D01*
X126555727Y-121784795D01*
X126555726Y-121784794D01*
X126555724Y-121784788D01*
X126434436Y-121574711D01*
X126430360Y-121569399D01*
X126286770Y-121382268D01*
X126286768Y-121382266D01*
X126286765Y-121382262D01*
X126115238Y-121210735D01*
X126115233Y-121210731D01*
X126115231Y-121210729D01*
X125922792Y-121063066D01*
X125922789Y-121063064D01*
X125712712Y-120941776D01*
X125712708Y-120941774D01*
X125712704Y-120941772D01*
X125488605Y-120848948D01*
X125488604Y-120848947D01*
X125488600Y-120848946D01*
X125254289Y-120786162D01*
X125254286Y-120786161D01*
X125254284Y-120786161D01*
X125013789Y-120754500D01*
X125013788Y-120754500D01*
X124771212Y-120754500D01*
X124771210Y-120754500D01*
X124530718Y-120786161D01*
X124530713Y-120786161D01*
X124296407Y-120848944D01*
X124296394Y-120848948D01*
X124072295Y-120941772D01*
X123862207Y-121063066D01*
X123669768Y-121210729D01*
X123498229Y-121382268D01*
X123350566Y-121574707D01*
X123229272Y-121784795D01*
X123136448Y-122008894D01*
X123136444Y-122008907D01*
X123073661Y-122243213D01*
X123073661Y-122243218D01*
X123042000Y-122483710D01*
X123042000Y-122726289D01*
X123073661Y-122966781D01*
X123073661Y-122966786D01*
X123136444Y-123201092D01*
X123136448Y-123201105D01*
X123229272Y-123425204D01*
X123229274Y-123425208D01*
X123229276Y-123425212D01*
X123347858Y-123630602D01*
X123350566Y-123635292D01*
X123498229Y-123827731D01*
X123498231Y-123827733D01*
X123498235Y-123827738D01*
X123669762Y-123999265D01*
X123669766Y-123999268D01*
X123669768Y-123999270D01*
X123862207Y-124146933D01*
X123862211Y-124146936D01*
X123981150Y-124215605D01*
X124022089Y-124261073D01*
X124028485Y-124321923D01*
X123997892Y-124374911D01*
X123941997Y-124399798D01*
X123931660Y-124400340D01*
X97907993Y-124403441D01*
X97849800Y-124384541D01*
X97813830Y-124335045D01*
X97813823Y-124273860D01*
X97849781Y-124224355D01*
X97858463Y-124218715D01*
X97982789Y-124146936D01*
X98175238Y-123999265D01*
X98346765Y-123827738D01*
X98494436Y-123635289D01*
X98615724Y-123425212D01*
X98708554Y-123201100D01*
X98771338Y-122966789D01*
X98803000Y-122726288D01*
X98803000Y-122483712D01*
X98771338Y-122243211D01*
X98708554Y-122008900D01*
X98656435Y-121883073D01*
X98615728Y-121784796D01*
X98615725Y-121784791D01*
X98615724Y-121784788D01*
X98584281Y-121730327D01*
X100947000Y-121730327D01*
X100947000Y-123479672D01*
X100947001Y-123479684D01*
X100961533Y-123552736D01*
X100961535Y-123552742D01*
X101016897Y-123635599D01*
X101016900Y-123635602D01*
X101057308Y-123662601D01*
X101099760Y-123690966D01*
X101147680Y-123700498D01*
X101172815Y-123705498D01*
X101172820Y-123705498D01*
X101172826Y-123705500D01*
X101172827Y-123705500D01*
X102922173Y-123705500D01*
X102922174Y-123705500D01*
X102995240Y-123690966D01*
X103078101Y-123635601D01*
X103133466Y-123552740D01*
X103148000Y-123479674D01*
X103148000Y-122518385D01*
X103487000Y-122518385D01*
X103487000Y-122691614D01*
X103514097Y-122862702D01*
X103514098Y-122862706D01*
X103567623Y-123027438D01*
X103567625Y-123027441D01*
X103643718Y-123176785D01*
X103646268Y-123181788D01*
X103748086Y-123321928D01*
X103870572Y-123444414D01*
X104010712Y-123546232D01*
X104165055Y-123624873D01*
X104165057Y-123624873D01*
X104165058Y-123624874D01*
X104165061Y-123624876D01*
X104329793Y-123678401D01*
X104329797Y-123678402D01*
X104500886Y-123705500D01*
X104500889Y-123705500D01*
X104674114Y-123705500D01*
X104845202Y-123678402D01*
X104845206Y-123678401D01*
X105009938Y-123624876D01*
X105009940Y-123624874D01*
X105009945Y-123624873D01*
X105164288Y-123546232D01*
X105304428Y-123444414D01*
X105426914Y-123321928D01*
X105528732Y-123181788D01*
X105607373Y-123027445D01*
X105632175Y-122951111D01*
X105668139Y-122901612D01*
X105726330Y-122882705D01*
X105784521Y-122901612D01*
X105820485Y-122951112D01*
X105876404Y-123123215D01*
X105972875Y-123312552D01*
X106097777Y-123484464D01*
X106248035Y-123634722D01*
X106419947Y-123759624D01*
X106609284Y-123856095D01*
X106811377Y-123921758D01*
X106877499Y-123932231D01*
X106877500Y-123932230D01*
X106877500Y-123038012D01*
X106934507Y-123070925D01*
X107061674Y-123105000D01*
X107193326Y-123105000D01*
X107320493Y-123070925D01*
X107377500Y-123038012D01*
X107377500Y-123932231D01*
X107443622Y-123921758D01*
X107645715Y-123856095D01*
X107835052Y-123759624D01*
X108006964Y-123634722D01*
X108157222Y-123484464D01*
X108282124Y-123312552D01*
X108378596Y-123123213D01*
X108434514Y-122951113D01*
X108470478Y-122901613D01*
X108528668Y-122882705D01*
X108586859Y-122901612D01*
X108622823Y-122951111D01*
X108647625Y-123027441D01*
X108723718Y-123176785D01*
X108726268Y-123181788D01*
X108828086Y-123321928D01*
X108950572Y-123444414D01*
X109090712Y-123546232D01*
X109245055Y-123624873D01*
X109245057Y-123624873D01*
X109245058Y-123624874D01*
X109245061Y-123624876D01*
X109409793Y-123678401D01*
X109409797Y-123678402D01*
X109580886Y-123705500D01*
X109580889Y-123705500D01*
X109754114Y-123705500D01*
X109925202Y-123678402D01*
X109925206Y-123678401D01*
X110089938Y-123624876D01*
X110089940Y-123624874D01*
X110089945Y-123624873D01*
X110244288Y-123546232D01*
X110384428Y-123444414D01*
X110506914Y-123321928D01*
X110608732Y-123181788D01*
X110687373Y-123027445D01*
X110687374Y-123027440D01*
X110687376Y-123027438D01*
X110740901Y-122862706D01*
X110740902Y-122862702D01*
X110768000Y-122691614D01*
X110768000Y-122518385D01*
X111107000Y-122518385D01*
X111107000Y-122691614D01*
X111134097Y-122862702D01*
X111134098Y-122862706D01*
X111187623Y-123027438D01*
X111187625Y-123027441D01*
X111263718Y-123176785D01*
X111266268Y-123181788D01*
X111368086Y-123321928D01*
X111490572Y-123444414D01*
X111630712Y-123546232D01*
X111785055Y-123624873D01*
X111785057Y-123624873D01*
X111785058Y-123624874D01*
X111785061Y-123624876D01*
X111949793Y-123678401D01*
X111949797Y-123678402D01*
X112120886Y-123705500D01*
X112120889Y-123705500D01*
X112294114Y-123705500D01*
X112465202Y-123678402D01*
X112465206Y-123678401D01*
X112629938Y-123624876D01*
X112629940Y-123624874D01*
X112629945Y-123624873D01*
X112784288Y-123546232D01*
X112924428Y-123444414D01*
X113046914Y-123321928D01*
X113148732Y-123181788D01*
X113227373Y-123027445D01*
X113227374Y-123027440D01*
X113227376Y-123027438D01*
X113280901Y-122862706D01*
X113280902Y-122862702D01*
X113308000Y-122691614D01*
X113308000Y-122518385D01*
X113647000Y-122518385D01*
X113647000Y-122691614D01*
X113674097Y-122862702D01*
X113674098Y-122862706D01*
X113727623Y-123027438D01*
X113727625Y-123027441D01*
X113803718Y-123176785D01*
X113806268Y-123181788D01*
X113908086Y-123321928D01*
X114030572Y-123444414D01*
X114170712Y-123546232D01*
X114325055Y-123624873D01*
X114325057Y-123624873D01*
X114325058Y-123624874D01*
X114325061Y-123624876D01*
X114489793Y-123678401D01*
X114489797Y-123678402D01*
X114660886Y-123705500D01*
X114660889Y-123705500D01*
X114834114Y-123705500D01*
X115005202Y-123678402D01*
X115005206Y-123678401D01*
X115169938Y-123624876D01*
X115169940Y-123624874D01*
X115169945Y-123624873D01*
X115324288Y-123546232D01*
X115464428Y-123444414D01*
X115586914Y-123321928D01*
X115688732Y-123181788D01*
X115767373Y-123027445D01*
X115767374Y-123027440D01*
X115767376Y-123027438D01*
X115820901Y-122862706D01*
X115820902Y-122862702D01*
X115848000Y-122691614D01*
X115848000Y-122518385D01*
X115820902Y-122347297D01*
X115820901Y-122347293D01*
X115767376Y-122182561D01*
X115767374Y-122182558D01*
X115767373Y-122182557D01*
X115767373Y-122182555D01*
X115688732Y-122028212D01*
X115586914Y-121888072D01*
X115464428Y-121765586D01*
X115324288Y-121663768D01*
X115324287Y-121663767D01*
X115324285Y-121663766D01*
X115169941Y-121585125D01*
X115169938Y-121585123D01*
X115005206Y-121531598D01*
X115005202Y-121531597D01*
X114834114Y-121504500D01*
X114834111Y-121504500D01*
X114660889Y-121504500D01*
X114660886Y-121504500D01*
X114489797Y-121531597D01*
X114489793Y-121531598D01*
X114325061Y-121585123D01*
X114325058Y-121585125D01*
X114170714Y-121663766D01*
X114030573Y-121765585D01*
X113908085Y-121888073D01*
X113806266Y-122028214D01*
X113727625Y-122182558D01*
X113727623Y-122182561D01*
X113674098Y-122347293D01*
X113674097Y-122347297D01*
X113647000Y-122518385D01*
X113308000Y-122518385D01*
X113280902Y-122347297D01*
X113280901Y-122347293D01*
X113227376Y-122182561D01*
X113227374Y-122182558D01*
X113227373Y-122182557D01*
X113227373Y-122182555D01*
X113148732Y-122028212D01*
X113046914Y-121888072D01*
X112924428Y-121765586D01*
X112784288Y-121663768D01*
X112784287Y-121663767D01*
X112784285Y-121663766D01*
X112629941Y-121585125D01*
X112629938Y-121585123D01*
X112465206Y-121531598D01*
X112465202Y-121531597D01*
X112294114Y-121504500D01*
X112294111Y-121504500D01*
X112120889Y-121504500D01*
X112120886Y-121504500D01*
X111949797Y-121531597D01*
X111949793Y-121531598D01*
X111785061Y-121585123D01*
X111785058Y-121585125D01*
X111630714Y-121663766D01*
X111490573Y-121765585D01*
X111368085Y-121888073D01*
X111266266Y-122028214D01*
X111187625Y-122182558D01*
X111187623Y-122182561D01*
X111134098Y-122347293D01*
X111134097Y-122347297D01*
X111107000Y-122518385D01*
X110768000Y-122518385D01*
X110740902Y-122347297D01*
X110740901Y-122347293D01*
X110687376Y-122182561D01*
X110687374Y-122182558D01*
X110687373Y-122182557D01*
X110687373Y-122182555D01*
X110608732Y-122028212D01*
X110506914Y-121888072D01*
X110384428Y-121765586D01*
X110244288Y-121663768D01*
X110244287Y-121663767D01*
X110244285Y-121663766D01*
X110089941Y-121585125D01*
X110089938Y-121585123D01*
X109925206Y-121531598D01*
X109925202Y-121531597D01*
X109754114Y-121504500D01*
X109754111Y-121504500D01*
X109580889Y-121504500D01*
X109580886Y-121504500D01*
X109409797Y-121531597D01*
X109409793Y-121531598D01*
X109245061Y-121585123D01*
X109245058Y-121585125D01*
X109090714Y-121663766D01*
X108950573Y-121765585D01*
X108828085Y-121888073D01*
X108726266Y-122028214D01*
X108647625Y-122182558D01*
X108622823Y-122258888D01*
X108586859Y-122308388D01*
X108528667Y-122327294D01*
X108470477Y-122308386D01*
X108434514Y-122258886D01*
X108378596Y-122086786D01*
X108282124Y-121897447D01*
X108157222Y-121725535D01*
X108006964Y-121575277D01*
X107835052Y-121450375D01*
X107645715Y-121353904D01*
X107443620Y-121288240D01*
X107377500Y-121277767D01*
X107377500Y-122171988D01*
X107320493Y-122139075D01*
X107193326Y-122105000D01*
X107061674Y-122105000D01*
X106934507Y-122139075D01*
X106877500Y-122171988D01*
X106877500Y-121277768D01*
X106877499Y-121277767D01*
X106811380Y-121288240D01*
X106811378Y-121288240D01*
X106609284Y-121353904D01*
X106419947Y-121450375D01*
X106248035Y-121575277D01*
X106097777Y-121725535D01*
X105972875Y-121897447D01*
X105876404Y-122086784D01*
X105820485Y-122258887D01*
X105784521Y-122308387D01*
X105726330Y-122327294D01*
X105668139Y-122308387D01*
X105632176Y-122258887D01*
X105607376Y-122182561D01*
X105607374Y-122182558D01*
X105607373Y-122182557D01*
X105607373Y-122182555D01*
X105528732Y-122028212D01*
X105426914Y-121888072D01*
X105304428Y-121765586D01*
X105164288Y-121663768D01*
X105164287Y-121663767D01*
X105164285Y-121663766D01*
X105009941Y-121585125D01*
X105009938Y-121585123D01*
X104845206Y-121531598D01*
X104845202Y-121531597D01*
X104674114Y-121504500D01*
X104674111Y-121504500D01*
X104500889Y-121504500D01*
X104500886Y-121504500D01*
X104329797Y-121531597D01*
X104329793Y-121531598D01*
X104165061Y-121585123D01*
X104165058Y-121585125D01*
X104010714Y-121663766D01*
X103870573Y-121765585D01*
X103748085Y-121888073D01*
X103646266Y-122028214D01*
X103567625Y-122182558D01*
X103567623Y-122182561D01*
X103514098Y-122347293D01*
X103514097Y-122347297D01*
X103487000Y-122518385D01*
X103148000Y-122518385D01*
X103148000Y-121730326D01*
X103147005Y-121725326D01*
X103144515Y-121712808D01*
X103133466Y-121657260D01*
X103085268Y-121585125D01*
X103078102Y-121574400D01*
X103078099Y-121574397D01*
X102995242Y-121519035D01*
X102995240Y-121519034D01*
X102995237Y-121519033D01*
X102995236Y-121519033D01*
X102922184Y-121504501D01*
X102922174Y-121504500D01*
X101172826Y-121504500D01*
X101172825Y-121504500D01*
X101172815Y-121504501D01*
X101099763Y-121519033D01*
X101099757Y-121519035D01*
X101016900Y-121574397D01*
X101016897Y-121574400D01*
X100961535Y-121657257D01*
X100961533Y-121657263D01*
X100947001Y-121730315D01*
X100947000Y-121730327D01*
X98584281Y-121730327D01*
X98494436Y-121574711D01*
X98490360Y-121569399D01*
X98346770Y-121382268D01*
X98346768Y-121382266D01*
X98346765Y-121382262D01*
X98175238Y-121210735D01*
X98175233Y-121210731D01*
X98175231Y-121210729D01*
X97982792Y-121063066D01*
X97982789Y-121063064D01*
X97822006Y-120970235D01*
X97781066Y-120924767D01*
X97774670Y-120863917D01*
X97805263Y-120810929D01*
X97861159Y-120786042D01*
X97871507Y-120785500D01*
X114931310Y-120785500D01*
X114989501Y-120804407D01*
X115001314Y-120814496D01*
X116251110Y-122064291D01*
X116278887Y-122118808D01*
X116269316Y-122179239D01*
X116267627Y-122182552D01*
X116267623Y-122182561D01*
X116214098Y-122347293D01*
X116214097Y-122347297D01*
X116187000Y-122518385D01*
X116187000Y-122691614D01*
X116214097Y-122862702D01*
X116214098Y-122862706D01*
X116267623Y-123027438D01*
X116267625Y-123027441D01*
X116343718Y-123176785D01*
X116346268Y-123181788D01*
X116448086Y-123321928D01*
X116570572Y-123444414D01*
X116710712Y-123546232D01*
X116865055Y-123624873D01*
X116865057Y-123624873D01*
X116865058Y-123624874D01*
X116865061Y-123624876D01*
X117029793Y-123678401D01*
X117029797Y-123678402D01*
X117200886Y-123705500D01*
X117200889Y-123705500D01*
X117374114Y-123705500D01*
X117545202Y-123678402D01*
X117545206Y-123678401D01*
X117709938Y-123624876D01*
X117709940Y-123624874D01*
X117709945Y-123624873D01*
X117864288Y-123546232D01*
X118004428Y-123444414D01*
X118126914Y-123321928D01*
X118228732Y-123181788D01*
X118307373Y-123027445D01*
X118332175Y-122951111D01*
X118368139Y-122901612D01*
X118426330Y-122882705D01*
X118484521Y-122901612D01*
X118520485Y-122951112D01*
X118576404Y-123123215D01*
X118672875Y-123312552D01*
X118797777Y-123484464D01*
X118948035Y-123634722D01*
X119119947Y-123759624D01*
X119309284Y-123856095D01*
X119511377Y-123921758D01*
X119577499Y-123932231D01*
X119577500Y-123932230D01*
X119577500Y-123038012D01*
X119634507Y-123070925D01*
X119761674Y-123105000D01*
X119893326Y-123105000D01*
X120020493Y-123070925D01*
X120077500Y-123038012D01*
X120077500Y-123932231D01*
X120143622Y-123921758D01*
X120345715Y-123856095D01*
X120535052Y-123759624D01*
X120706964Y-123634722D01*
X120857222Y-123484464D01*
X120982124Y-123312552D01*
X121078595Y-123123215D01*
X121144258Y-122921122D01*
X121154731Y-122855000D01*
X120260512Y-122855000D01*
X120293425Y-122797993D01*
X120327500Y-122670826D01*
X120327500Y-122539174D01*
X120293425Y-122412007D01*
X120260512Y-122355000D01*
X121154731Y-122355000D01*
X121154731Y-122354999D01*
X121144258Y-122288877D01*
X121078595Y-122086784D01*
X120982124Y-121897447D01*
X120857222Y-121725535D01*
X120706964Y-121575277D01*
X120535052Y-121450375D01*
X120345715Y-121353904D01*
X120143620Y-121288240D01*
X120077500Y-121277767D01*
X120077500Y-122171988D01*
X120020493Y-122139075D01*
X119893326Y-122105000D01*
X119761674Y-122105000D01*
X119634507Y-122139075D01*
X119577500Y-122171988D01*
X119577500Y-121277768D01*
X119577499Y-121277767D01*
X119511380Y-121288240D01*
X119511378Y-121288240D01*
X119309284Y-121353904D01*
X119119947Y-121450375D01*
X118948035Y-121575277D01*
X118797777Y-121725535D01*
X118672875Y-121897447D01*
X118576404Y-122086784D01*
X118520485Y-122258887D01*
X118484521Y-122308387D01*
X118426330Y-122327294D01*
X118368139Y-122308387D01*
X118332176Y-122258887D01*
X118307376Y-122182561D01*
X118307374Y-122182558D01*
X118307373Y-122182557D01*
X118307373Y-122182555D01*
X118228732Y-122028212D01*
X118126914Y-121888072D01*
X118004428Y-121765586D01*
X117864288Y-121663768D01*
X117864287Y-121663767D01*
X117864285Y-121663766D01*
X117709941Y-121585125D01*
X117709938Y-121585123D01*
X117545206Y-121531598D01*
X117545202Y-121531597D01*
X117374114Y-121504500D01*
X117374111Y-121504500D01*
X117200889Y-121504500D01*
X117200886Y-121504500D01*
X117029797Y-121531597D01*
X117029793Y-121531598D01*
X116865061Y-121585123D01*
X116865052Y-121585127D01*
X116861739Y-121586816D01*
X116801307Y-121596387D01*
X116746791Y-121568610D01*
X116077595Y-120899414D01*
X115332712Y-120154530D01*
X115252788Y-120108386D01*
X115252787Y-120108385D01*
X115252784Y-120108384D01*
X115248791Y-120107315D01*
X115248787Y-120107312D01*
X115248787Y-120107314D01*
X115163644Y-120084500D01*
X115163642Y-120084500D01*
X105570944Y-120084500D01*
X105512753Y-120065593D01*
X105476789Y-120016093D01*
X105475317Y-119959878D01*
X105479229Y-119945276D01*
X105500500Y-119865892D01*
X105500500Y-119734108D01*
X105466392Y-119606814D01*
X105466390Y-119606811D01*
X105466390Y-119606809D01*
X105400503Y-119492690D01*
X105400501Y-119492688D01*
X105400500Y-119492686D01*
X105307314Y-119399500D01*
X105307311Y-119399498D01*
X105307309Y-119399496D01*
X105193189Y-119333609D01*
X105193191Y-119333609D01*
X105140552Y-119319505D01*
X105065892Y-119299500D01*
X104934108Y-119299500D01*
X104859448Y-119319505D01*
X104806809Y-119333609D01*
X104692690Y-119399496D01*
X104599496Y-119492690D01*
X104533609Y-119606809D01*
X104533608Y-119606814D01*
X104502191Y-119724067D01*
X104499500Y-119734109D01*
X104499500Y-119865891D01*
X104524683Y-119959878D01*
X104521480Y-120020979D01*
X104482975Y-120068529D01*
X104429056Y-120084500D01*
X102432627Y-120084500D01*
X102374436Y-120065593D01*
X102338472Y-120016093D01*
X102338472Y-119954907D01*
X102346890Y-119936001D01*
X102353356Y-119924800D01*
X102377180Y-119883536D01*
X102409585Y-119762601D01*
X102409585Y-119637399D01*
X102377180Y-119516464D01*
X102314580Y-119408036D01*
X102226049Y-119319505D01*
X102117621Y-119256905D01*
X101996686Y-119224500D01*
X101871484Y-119224500D01*
X101793758Y-119245327D01*
X101750548Y-119256905D01*
X101642121Y-119319505D01*
X101553590Y-119408036D01*
X101490990Y-119516463D01*
X101490990Y-119516464D01*
X101458585Y-119637399D01*
X101458585Y-119762601D01*
X101490990Y-119883536D01*
X101490991Y-119883538D01*
X101521280Y-119936001D01*
X101534001Y-119995849D01*
X101509114Y-120051745D01*
X101456125Y-120082337D01*
X101435543Y-120084500D01*
X94991108Y-120084500D01*
X94932917Y-120065593D01*
X94896953Y-120016093D01*
X94896953Y-119954907D01*
X94899644Y-119947614D01*
X94926185Y-119883538D01*
X94940183Y-119849744D01*
X94965182Y-119724069D01*
X94965182Y-119595931D01*
X94940183Y-119470256D01*
X94891147Y-119351873D01*
X94891145Y-119351870D01*
X94891143Y-119351866D01*
X94862399Y-119308848D01*
X94819958Y-119245331D01*
X94729351Y-119154724D01*
X94686908Y-119126365D01*
X94622815Y-119083538D01*
X94622807Y-119083534D01*
X94504429Y-119034500D01*
X94504427Y-119034499D01*
X94504426Y-119034499D01*
X94378751Y-119009500D01*
X94250613Y-119009500D01*
X94250612Y-119009500D01*
X94195294Y-119020504D01*
X94124938Y-119034499D01*
X94124937Y-119034499D01*
X94124934Y-119034500D01*
X94006556Y-119083534D01*
X94006548Y-119083538D01*
X93900013Y-119154724D01*
X93900009Y-119154727D01*
X93809409Y-119245327D01*
X93809406Y-119245331D01*
X93740477Y-119348490D01*
X93692427Y-119386369D01*
X93631289Y-119388771D01*
X93588159Y-119363492D01*
X93344198Y-119119532D01*
X93344196Y-119119530D01*
X93264272Y-119073386D01*
X93175128Y-119049500D01*
X93175126Y-119049500D01*
X92386190Y-119049500D01*
X92327999Y-119030593D01*
X92316186Y-119020504D01*
X92132163Y-118836481D01*
X92104386Y-118781964D01*
X92113957Y-118721532D01*
X92157222Y-118678267D01*
X92176543Y-118670851D01*
X92193186Y-118666392D01*
X92297653Y-118606078D01*
X92307309Y-118600503D01*
X92307309Y-118600502D01*
X92307314Y-118600500D01*
X92400500Y-118507314D01*
X92437578Y-118443094D01*
X92466390Y-118393190D01*
X92466390Y-118393188D01*
X92466392Y-118393186D01*
X92500500Y-118265892D01*
X92500500Y-118134108D01*
X92466392Y-118006814D01*
X92426315Y-117937399D01*
X95424500Y-117937399D01*
X95424500Y-118062601D01*
X95456905Y-118183536D01*
X95519505Y-118291964D01*
X95608036Y-118380495D01*
X95716464Y-118443095D01*
X95837399Y-118475500D01*
X95837401Y-118475500D01*
X95962599Y-118475500D01*
X95962601Y-118475500D01*
X96083536Y-118443095D01*
X96191964Y-118380495D01*
X96238351Y-118334108D01*
X101699500Y-118334108D01*
X101699500Y-118465892D01*
X101727610Y-118570802D01*
X101733609Y-118593190D01*
X101799496Y-118707309D01*
X101799498Y-118707311D01*
X101799500Y-118707314D01*
X101892686Y-118800500D01*
X101892688Y-118800501D01*
X101892690Y-118800503D01*
X102006810Y-118866390D01*
X102006808Y-118866390D01*
X102006812Y-118866391D01*
X102006814Y-118866392D01*
X102134108Y-118900500D01*
X102134110Y-118900500D01*
X102265890Y-118900500D01*
X102265892Y-118900500D01*
X102393186Y-118866392D01*
X102393188Y-118866390D01*
X102393190Y-118866390D01*
X102507309Y-118800503D01*
X102507309Y-118800502D01*
X102507314Y-118800500D01*
X102575959Y-118731855D01*
X106827948Y-118731855D01*
X106827948Y-118857057D01*
X106860353Y-118977992D01*
X106922953Y-119086420D01*
X107011484Y-119174951D01*
X107119912Y-119237551D01*
X107240847Y-119269956D01*
X107240849Y-119269956D01*
X107366047Y-119269956D01*
X107366049Y-119269956D01*
X107486984Y-119237551D01*
X107595412Y-119174951D01*
X107683943Y-119086420D01*
X107746543Y-118977992D01*
X107778948Y-118857057D01*
X107778948Y-118731855D01*
X107766652Y-118685968D01*
X108386482Y-118685968D01*
X108386482Y-118811170D01*
X108418887Y-118932105D01*
X108481487Y-119040533D01*
X108570018Y-119129064D01*
X108678446Y-119191664D01*
X108799381Y-119224069D01*
X108799383Y-119224069D01*
X108924581Y-119224069D01*
X108924583Y-119224069D01*
X109045518Y-119191664D01*
X109153946Y-119129064D01*
X109242477Y-119040533D01*
X109305077Y-118932105D01*
X109337482Y-118811170D01*
X109337482Y-118685968D01*
X109305077Y-118565033D01*
X109242477Y-118456605D01*
X109153946Y-118368074D01*
X109045518Y-118305474D01*
X108924583Y-118273069D01*
X108799381Y-118273069D01*
X108728869Y-118291963D01*
X108678445Y-118305474D01*
X108570018Y-118368074D01*
X108481487Y-118456605D01*
X108418887Y-118565032D01*
X108418887Y-118565033D01*
X108386482Y-118685968D01*
X107766652Y-118685968D01*
X107746543Y-118610920D01*
X107683943Y-118502492D01*
X107595412Y-118413961D01*
X107486984Y-118351361D01*
X107366049Y-118318956D01*
X107240847Y-118318956D01*
X107160223Y-118340559D01*
X107119911Y-118351361D01*
X107011484Y-118413961D01*
X106922953Y-118502492D01*
X106860353Y-118610919D01*
X106860353Y-118610920D01*
X106827948Y-118731855D01*
X102575959Y-118731855D01*
X102600500Y-118707314D01*
X102622807Y-118668677D01*
X102666390Y-118593190D01*
X102666390Y-118593188D01*
X102666392Y-118593186D01*
X102700500Y-118465892D01*
X102700500Y-118334108D01*
X102666392Y-118206814D01*
X102666389Y-118206809D01*
X102665918Y-118205992D01*
X102665917Y-118205990D01*
X102641086Y-118162982D01*
X110228537Y-118162982D01*
X110228537Y-118288184D01*
X110260942Y-118409119D01*
X110323542Y-118517547D01*
X110412073Y-118606078D01*
X110520501Y-118668678D01*
X110641436Y-118701083D01*
X110641438Y-118701083D01*
X110766636Y-118701083D01*
X110766638Y-118701083D01*
X110887573Y-118668678D01*
X110996001Y-118606078D01*
X111084532Y-118517547D01*
X111125753Y-118446149D01*
X123433250Y-118446149D01*
X123433250Y-118571351D01*
X123465655Y-118692286D01*
X123528255Y-118800714D01*
X123616786Y-118889245D01*
X123725214Y-118951845D01*
X123846149Y-118984250D01*
X123846151Y-118984250D01*
X123971349Y-118984250D01*
X123971351Y-118984250D01*
X124092286Y-118951845D01*
X124200714Y-118889245D01*
X124289245Y-118800714D01*
X124351845Y-118692286D01*
X124370648Y-118622112D01*
X124403970Y-118570802D01*
X124461091Y-118548875D01*
X124496866Y-118553585D01*
X124634793Y-118598401D01*
X124634797Y-118598402D01*
X124805886Y-118625500D01*
X124805889Y-118625500D01*
X124979114Y-118625500D01*
X125150202Y-118598402D01*
X125150206Y-118598401D01*
X125314938Y-118544876D01*
X125314940Y-118544874D01*
X125314945Y-118544873D01*
X125469288Y-118466232D01*
X125609428Y-118364414D01*
X125731914Y-118241928D01*
X125833732Y-118101788D01*
X125912373Y-117947445D01*
X125912374Y-117947440D01*
X125912376Y-117947438D01*
X125965901Y-117782706D01*
X125965902Y-117782702D01*
X125993000Y-117611614D01*
X125993000Y-117438385D01*
X125965902Y-117267297D01*
X125965901Y-117267293D01*
X125912376Y-117102561D01*
X125912374Y-117102558D01*
X125912373Y-117102557D01*
X125912373Y-117102555D01*
X125833732Y-116948212D01*
X125731914Y-116808072D01*
X125609428Y-116685586D01*
X125469288Y-116583768D01*
X125469287Y-116583767D01*
X125469285Y-116583766D01*
X125314941Y-116505125D01*
X125314938Y-116505123D01*
X125150206Y-116451598D01*
X125150202Y-116451597D01*
X124979114Y-116424500D01*
X124979111Y-116424500D01*
X124805889Y-116424500D01*
X124805886Y-116424500D01*
X124634797Y-116451597D01*
X124634793Y-116451598D01*
X124470061Y-116505123D01*
X124470058Y-116505125D01*
X124315714Y-116583766D01*
X124175573Y-116685585D01*
X124053085Y-116808073D01*
X123951266Y-116948214D01*
X123872625Y-117102558D01*
X123872623Y-117102561D01*
X123819098Y-117267293D01*
X123819097Y-117267297D01*
X123792000Y-117438385D01*
X123792000Y-117611614D01*
X123819097Y-117782698D01*
X123863915Y-117920633D01*
X123863915Y-117981819D01*
X123827951Y-118031319D01*
X123795384Y-118046852D01*
X123725217Y-118065653D01*
X123725216Y-118065654D01*
X123725214Y-118065654D01*
X123725214Y-118065655D01*
X123702938Y-118078516D01*
X123616786Y-118128255D01*
X123528255Y-118216786D01*
X123465655Y-118325213D01*
X123460446Y-118344654D01*
X123433250Y-118446149D01*
X111125753Y-118446149D01*
X111147132Y-118409119D01*
X111179537Y-118288184D01*
X111179537Y-118162982D01*
X111147132Y-118042047D01*
X111084532Y-117933619D01*
X110996001Y-117845088D01*
X110887573Y-117782488D01*
X110766638Y-117750083D01*
X110641436Y-117750083D01*
X110560812Y-117771686D01*
X110520500Y-117782488D01*
X110412073Y-117845088D01*
X110323542Y-117933619D01*
X110260942Y-118042046D01*
X110260942Y-118042047D01*
X110228537Y-118162982D01*
X102641086Y-118162982D01*
X102600503Y-118092690D01*
X102600501Y-118092688D01*
X102600500Y-118092686D01*
X102507314Y-117999500D01*
X102507311Y-117999498D01*
X102507309Y-117999496D01*
X102393189Y-117933609D01*
X102393191Y-117933609D01*
X102342769Y-117920099D01*
X102265892Y-117899500D01*
X102134108Y-117899500D01*
X102057231Y-117920099D01*
X102006809Y-117933609D01*
X101892690Y-117999496D01*
X101799496Y-118092690D01*
X101733609Y-118206809D01*
X101727490Y-118229647D01*
X101699500Y-118334108D01*
X96238351Y-118334108D01*
X96280495Y-118291964D01*
X96343095Y-118183536D01*
X96375500Y-118062601D01*
X96375500Y-117937399D01*
X96343095Y-117816464D01*
X96280495Y-117708036D01*
X96191964Y-117619505D01*
X96083536Y-117556905D01*
X95962601Y-117524500D01*
X95837399Y-117524500D01*
X95756775Y-117546103D01*
X95716463Y-117556905D01*
X95608036Y-117619505D01*
X95519505Y-117708036D01*
X95456905Y-117816463D01*
X95456905Y-117816464D01*
X95424500Y-117937399D01*
X92426315Y-117937399D01*
X92400500Y-117892686D01*
X92307314Y-117799500D01*
X92307311Y-117799498D01*
X92307309Y-117799496D01*
X92193189Y-117733609D01*
X92193191Y-117733609D01*
X92143799Y-117720375D01*
X92065892Y-117699500D01*
X91934108Y-117699500D01*
X91856200Y-117720375D01*
X91806809Y-117733609D01*
X91692690Y-117799496D01*
X91599496Y-117892690D01*
X91533609Y-118006809D01*
X91525195Y-118038213D01*
X91501069Y-118128255D01*
X91499500Y-118134109D01*
X91499500Y-118250500D01*
X91480593Y-118308691D01*
X91431093Y-118344655D01*
X91400500Y-118349500D01*
X91108208Y-118349500D01*
X91050017Y-118330593D01*
X91014053Y-118281093D01*
X91014053Y-118219907D01*
X91050017Y-118170407D01*
X91052348Y-118168893D01*
X91054747Y-118167052D01*
X91054749Y-118167049D01*
X91054754Y-118167047D01*
X91143285Y-118078516D01*
X91205885Y-117970088D01*
X91238290Y-117849153D01*
X91238290Y-117723951D01*
X91205885Y-117603016D01*
X91143285Y-117494588D01*
X91054754Y-117406057D01*
X90946326Y-117343457D01*
X90825391Y-117311052D01*
X90700189Y-117311052D01*
X90593541Y-117339628D01*
X90579250Y-117343458D01*
X90561528Y-117353690D01*
X90534994Y-117359328D01*
X90508937Y-117366904D01*
X90505377Y-117365623D01*
X90501679Y-117366409D01*
X90476897Y-117355374D01*
X90451365Y-117346187D01*
X90449613Y-117343226D01*
X90445784Y-117341521D01*
X90416966Y-117295587D01*
X90415226Y-117289603D01*
X90410902Y-117262299D01*
X90376602Y-117156736D01*
X90376597Y-117156718D01*
X90369251Y-117134108D01*
X98699500Y-117134108D01*
X98699500Y-117265892D01*
X98724536Y-117359328D01*
X98733609Y-117393190D01*
X98799496Y-117507309D01*
X98799498Y-117507311D01*
X98799500Y-117507314D01*
X98892686Y-117600500D01*
X98892688Y-117600501D01*
X98892690Y-117600503D01*
X99006810Y-117666390D01*
X99006808Y-117666390D01*
X99006812Y-117666391D01*
X99006814Y-117666392D01*
X99134108Y-117700500D01*
X99134110Y-117700500D01*
X99265890Y-117700500D01*
X99265892Y-117700500D01*
X99393186Y-117666392D01*
X99393188Y-117666390D01*
X99393190Y-117666390D01*
X99507309Y-117600503D01*
X99507309Y-117600502D01*
X99507314Y-117600500D01*
X99600500Y-117507314D01*
X99604092Y-117501093D01*
X99666390Y-117393190D01*
X99666390Y-117393188D01*
X99666392Y-117393186D01*
X99700500Y-117265892D01*
X99700500Y-117134108D01*
X99666392Y-117006814D01*
X99666390Y-117006811D01*
X99666390Y-117006809D01*
X99600503Y-116892690D01*
X99600501Y-116892688D01*
X99600500Y-116892686D01*
X99507314Y-116799500D01*
X99507311Y-116799498D01*
X99507309Y-116799496D01*
X99393189Y-116733609D01*
X99393191Y-116733609D01*
X99343799Y-116720375D01*
X99265892Y-116699500D01*
X99134108Y-116699500D01*
X99056200Y-116720375D01*
X99006809Y-116733609D01*
X98892690Y-116799496D01*
X98799496Y-116892690D01*
X98733609Y-117006809D01*
X98714539Y-117077978D01*
X98699500Y-117134108D01*
X90369251Y-117134108D01*
X90357376Y-117097561D01*
X90357374Y-117097558D01*
X90357373Y-117097557D01*
X90357373Y-117097555D01*
X90278732Y-116943212D01*
X90176914Y-116803072D01*
X90054428Y-116680586D01*
X89914288Y-116578768D01*
X89914287Y-116578767D01*
X89914285Y-116578766D01*
X89759941Y-116500125D01*
X89759938Y-116500123D01*
X89595206Y-116446598D01*
X89595202Y-116446597D01*
X89424114Y-116419500D01*
X89424111Y-116419500D01*
X89250889Y-116419500D01*
X89250886Y-116419500D01*
X89079797Y-116446597D01*
X89079793Y-116446598D01*
X88915061Y-116500123D01*
X88915058Y-116500125D01*
X88760714Y-116578766D01*
X88620573Y-116680585D01*
X88498085Y-116803073D01*
X88396266Y-116943214D01*
X88317625Y-117097558D01*
X88292823Y-117173888D01*
X88256859Y-117223388D01*
X88198667Y-117242294D01*
X88140477Y-117223386D01*
X88104514Y-117173886D01*
X88048596Y-117001786D01*
X87952124Y-116812447D01*
X87827222Y-116640535D01*
X87676964Y-116490277D01*
X87505052Y-116365376D01*
X87451735Y-116338210D01*
X87408471Y-116294946D01*
X87398899Y-116234514D01*
X87426676Y-116179997D01*
X87451735Y-116161790D01*
X87505052Y-116134623D01*
X87676964Y-116009722D01*
X87827222Y-115859464D01*
X87952124Y-115687552D01*
X88048596Y-115498213D01*
X88104514Y-115326113D01*
X88140478Y-115276613D01*
X88198668Y-115257705D01*
X88256859Y-115276612D01*
X88292823Y-115326111D01*
X88317625Y-115402441D01*
X88384712Y-115534109D01*
X88396268Y-115556788D01*
X88498086Y-115696928D01*
X88620572Y-115819414D01*
X88760712Y-115921232D01*
X88915055Y-115999873D01*
X88915057Y-115999873D01*
X88915058Y-115999874D01*
X88915061Y-115999876D01*
X89079793Y-116053401D01*
X89079797Y-116053402D01*
X89250886Y-116080500D01*
X89250889Y-116080500D01*
X89424114Y-116080500D01*
X89595202Y-116053402D01*
X89595206Y-116053401D01*
X89759938Y-115999876D01*
X89759940Y-115999874D01*
X89759945Y-115999873D01*
X89882558Y-115937399D01*
X94324500Y-115937399D01*
X94324500Y-116062601D01*
X94356905Y-116183536D01*
X94419505Y-116291964D01*
X94508036Y-116380495D01*
X94616464Y-116443095D01*
X94737399Y-116475500D01*
X94737401Y-116475500D01*
X94862599Y-116475500D01*
X94862601Y-116475500D01*
X94983536Y-116443095D01*
X95091964Y-116380495D01*
X95180495Y-116291964D01*
X95243095Y-116183536D01*
X95275500Y-116062601D01*
X95275500Y-115937399D01*
X111724500Y-115937399D01*
X111724500Y-116062601D01*
X111756905Y-116183536D01*
X111819505Y-116291964D01*
X111908036Y-116380495D01*
X112016464Y-116443095D01*
X112137399Y-116475500D01*
X112137401Y-116475500D01*
X112262599Y-116475500D01*
X112262601Y-116475500D01*
X112383536Y-116443095D01*
X112491964Y-116380495D01*
X112580495Y-116291964D01*
X112643095Y-116183536D01*
X112675500Y-116062601D01*
X112675500Y-115937399D01*
X112643095Y-115816464D01*
X112580495Y-115708036D01*
X112491964Y-115619505D01*
X112383536Y-115556905D01*
X112298458Y-115534108D01*
X122499500Y-115534108D01*
X122499500Y-115665892D01*
X122526674Y-115767309D01*
X122533609Y-115793190D01*
X122599496Y-115907309D01*
X122599498Y-115907311D01*
X122599500Y-115907314D01*
X122692686Y-116000500D01*
X122692688Y-116000501D01*
X122692690Y-116000503D01*
X122806810Y-116066390D01*
X122806808Y-116066390D01*
X122806812Y-116066391D01*
X122806814Y-116066392D01*
X122934108Y-116100500D01*
X122934110Y-116100500D01*
X123065890Y-116100500D01*
X123065892Y-116100500D01*
X123193186Y-116066392D01*
X123193188Y-116066390D01*
X123193190Y-116066390D01*
X123307309Y-116000503D01*
X123307309Y-116000502D01*
X123307314Y-116000500D01*
X123400500Y-115907314D01*
X123433119Y-115850816D01*
X123466390Y-115793190D01*
X123466390Y-115793188D01*
X123466392Y-115793186D01*
X123500500Y-115665892D01*
X123500500Y-115534108D01*
X123466392Y-115406814D01*
X123466390Y-115406811D01*
X123466390Y-115406809D01*
X123400503Y-115292690D01*
X123400501Y-115292688D01*
X123400500Y-115292686D01*
X123307314Y-115199500D01*
X123307311Y-115199498D01*
X123307309Y-115199496D01*
X123193189Y-115133609D01*
X123193191Y-115133609D01*
X123143799Y-115120375D01*
X123065892Y-115099500D01*
X122934108Y-115099500D01*
X122856200Y-115120375D01*
X122806809Y-115133609D01*
X122692690Y-115199496D01*
X122599496Y-115292690D01*
X122533609Y-115406809D01*
X122533440Y-115407441D01*
X122499500Y-115534108D01*
X112298458Y-115534108D01*
X112262601Y-115524500D01*
X112137399Y-115524500D01*
X112056775Y-115546103D01*
X112016463Y-115556905D01*
X111908036Y-115619505D01*
X111819505Y-115708036D01*
X111756905Y-115816463D01*
X111756113Y-115819418D01*
X111724500Y-115937399D01*
X95275500Y-115937399D01*
X95243095Y-115816464D01*
X95180495Y-115708036D01*
X95091964Y-115619505D01*
X94983536Y-115556905D01*
X94862601Y-115524500D01*
X94737399Y-115524500D01*
X94656775Y-115546103D01*
X94616463Y-115556905D01*
X94508036Y-115619505D01*
X94419505Y-115708036D01*
X94356905Y-115816463D01*
X94356113Y-115819418D01*
X94324500Y-115937399D01*
X89882558Y-115937399D01*
X89914288Y-115921232D01*
X90054428Y-115819414D01*
X90176914Y-115696928D01*
X90278732Y-115556788D01*
X90357373Y-115402445D01*
X90357374Y-115402440D01*
X90357376Y-115402438D01*
X90410901Y-115237706D01*
X90410902Y-115237702D01*
X90438000Y-115066614D01*
X90438000Y-114893385D01*
X90410902Y-114722297D01*
X90410901Y-114722293D01*
X90357376Y-114557561D01*
X90357374Y-114557558D01*
X90357373Y-114557557D01*
X90357373Y-114557555D01*
X90294474Y-114434108D01*
X115299500Y-114434108D01*
X115299500Y-114565892D01*
X115325755Y-114663877D01*
X115333609Y-114693190D01*
X115399496Y-114807309D01*
X115399498Y-114807311D01*
X115399500Y-114807314D01*
X115492686Y-114900500D01*
X115492688Y-114900501D01*
X115492690Y-114900503D01*
X115606810Y-114966390D01*
X115606808Y-114966390D01*
X115606812Y-114966391D01*
X115606814Y-114966392D01*
X115734108Y-115000500D01*
X115734110Y-115000500D01*
X115865890Y-115000500D01*
X115865892Y-115000500D01*
X115993186Y-114966392D01*
X115993188Y-114966390D01*
X115993190Y-114966390D01*
X116107309Y-114900503D01*
X116107309Y-114900502D01*
X116107314Y-114900500D01*
X116200500Y-114807314D01*
X116212224Y-114787007D01*
X116266390Y-114693190D01*
X116266390Y-114693188D01*
X116266392Y-114693186D01*
X116300500Y-114565892D01*
X116300500Y-114434108D01*
X116266392Y-114306814D01*
X116266390Y-114306811D01*
X116266390Y-114306809D01*
X116200503Y-114192690D01*
X116200501Y-114192688D01*
X116200500Y-114192686D01*
X116107314Y-114099500D01*
X116107311Y-114099498D01*
X116107309Y-114099496D01*
X115993189Y-114033609D01*
X115993191Y-114033609D01*
X115978722Y-114029732D01*
X115865892Y-113999500D01*
X115734108Y-113999500D01*
X115672454Y-114016020D01*
X115606809Y-114033609D01*
X115492690Y-114099496D01*
X115399496Y-114192690D01*
X115333609Y-114306809D01*
X115333608Y-114306814D01*
X115299500Y-114434108D01*
X90294474Y-114434108D01*
X90278732Y-114403212D01*
X90176914Y-114263072D01*
X90054428Y-114140586D01*
X89914288Y-114038768D01*
X89914287Y-114038767D01*
X89914285Y-114038766D01*
X89759941Y-113960125D01*
X89759938Y-113960123D01*
X89679873Y-113934108D01*
X116599500Y-113934108D01*
X116599500Y-114065892D01*
X116620854Y-114145586D01*
X116633609Y-114193190D01*
X116699496Y-114307309D01*
X116699498Y-114307311D01*
X116699500Y-114307314D01*
X116792686Y-114400500D01*
X116792688Y-114400501D01*
X116792690Y-114400503D01*
X116906810Y-114466390D01*
X116906808Y-114466390D01*
X116906812Y-114466391D01*
X116906814Y-114466392D01*
X117034108Y-114500500D01*
X117034110Y-114500500D01*
X117165890Y-114500500D01*
X117165892Y-114500500D01*
X117293186Y-114466392D01*
X117293188Y-114466390D01*
X117293190Y-114466390D01*
X117407309Y-114400503D01*
X117407309Y-114400502D01*
X117407314Y-114400500D01*
X117500500Y-114307314D01*
X117523156Y-114268073D01*
X117566390Y-114193190D01*
X117566390Y-114193188D01*
X117566392Y-114193186D01*
X117600500Y-114065892D01*
X117600500Y-113934108D01*
X117899500Y-113934108D01*
X117899500Y-114065892D01*
X117920854Y-114145586D01*
X117933609Y-114193190D01*
X117999496Y-114307309D01*
X117999498Y-114307311D01*
X117999500Y-114307314D01*
X118092686Y-114400500D01*
X118092688Y-114400501D01*
X118092690Y-114400503D01*
X118206810Y-114466390D01*
X118206808Y-114466390D01*
X118206812Y-114466391D01*
X118206814Y-114466392D01*
X118334108Y-114500500D01*
X118334110Y-114500500D01*
X118465890Y-114500500D01*
X118465892Y-114500500D01*
X118593186Y-114466392D01*
X118593188Y-114466390D01*
X118593190Y-114466390D01*
X118707309Y-114400503D01*
X118707309Y-114400502D01*
X118707314Y-114400500D01*
X118800500Y-114307314D01*
X118823156Y-114268073D01*
X118866390Y-114193190D01*
X118866390Y-114193188D01*
X118866392Y-114193186D01*
X118900500Y-114065892D01*
X118900500Y-113934108D01*
X118866392Y-113806814D01*
X118866390Y-113806811D01*
X118866390Y-113806809D01*
X118800503Y-113692690D01*
X118800501Y-113692688D01*
X118800500Y-113692686D01*
X118707314Y-113599500D01*
X118707311Y-113599498D01*
X118707309Y-113599496D01*
X118593189Y-113533609D01*
X118593191Y-113533609D01*
X118517775Y-113513402D01*
X118465892Y-113499500D01*
X118334108Y-113499500D01*
X118282225Y-113513402D01*
X118206809Y-113533609D01*
X118092690Y-113599496D01*
X117999496Y-113692690D01*
X117933609Y-113806809D01*
X117928634Y-113825376D01*
X117899500Y-113934108D01*
X117600500Y-113934108D01*
X117566392Y-113806814D01*
X117566390Y-113806811D01*
X117566390Y-113806809D01*
X117500503Y-113692690D01*
X117500501Y-113692688D01*
X117500500Y-113692686D01*
X117407314Y-113599500D01*
X117407311Y-113599498D01*
X117407309Y-113599496D01*
X117293189Y-113533609D01*
X117293191Y-113533609D01*
X117217775Y-113513402D01*
X117165892Y-113499500D01*
X117034108Y-113499500D01*
X116982225Y-113513402D01*
X116906809Y-113533609D01*
X116792690Y-113599496D01*
X116699496Y-113692690D01*
X116633609Y-113806809D01*
X116628634Y-113825376D01*
X116599500Y-113934108D01*
X89679873Y-113934108D01*
X89595206Y-113906598D01*
X89595202Y-113906597D01*
X89424114Y-113879500D01*
X89424111Y-113879500D01*
X89250889Y-113879500D01*
X89250886Y-113879500D01*
X89079797Y-113906597D01*
X89079793Y-113906598D01*
X88915061Y-113960123D01*
X88915058Y-113960125D01*
X88760714Y-114038766D01*
X88620573Y-114140585D01*
X88498085Y-114263073D01*
X88396266Y-114403214D01*
X88317625Y-114557558D01*
X88292823Y-114633888D01*
X88256859Y-114683388D01*
X88198667Y-114702294D01*
X88140477Y-114683386D01*
X88104514Y-114633886D01*
X88048596Y-114461786D01*
X87952124Y-114272447D01*
X87827222Y-114100535D01*
X87676964Y-113950277D01*
X87505052Y-113825376D01*
X87451735Y-113798210D01*
X87408471Y-113754946D01*
X87398899Y-113694514D01*
X87426676Y-113639997D01*
X87451735Y-113621790D01*
X87505052Y-113594623D01*
X87676964Y-113469722D01*
X87827222Y-113319464D01*
X87952124Y-113147552D01*
X88048596Y-112958213D01*
X88104514Y-112786113D01*
X88140478Y-112736613D01*
X88198668Y-112717705D01*
X88256859Y-112736612D01*
X88292823Y-112786111D01*
X88317625Y-112862441D01*
X88393838Y-113012020D01*
X88396268Y-113016788D01*
X88498086Y-113156928D01*
X88620572Y-113279414D01*
X88760712Y-113381232D01*
X88915055Y-113459873D01*
X88915057Y-113459873D01*
X88915058Y-113459874D01*
X88915061Y-113459876D01*
X89079793Y-113513401D01*
X89079797Y-113513402D01*
X89250886Y-113540500D01*
X89250889Y-113540500D01*
X89424114Y-113540500D01*
X89595202Y-113513402D01*
X89595206Y-113513401D01*
X89759938Y-113459876D01*
X89759940Y-113459874D01*
X89759945Y-113459873D01*
X89914288Y-113381232D01*
X90054428Y-113279414D01*
X90176914Y-113156928D01*
X90278732Y-113016788D01*
X90357373Y-112862445D01*
X90357374Y-112862440D01*
X90357376Y-112862438D01*
X90410901Y-112697706D01*
X90410902Y-112697702D01*
X90438000Y-112526614D01*
X90438000Y-112353385D01*
X90410902Y-112182297D01*
X90400434Y-112150081D01*
X90400433Y-112150080D01*
X90394068Y-112130490D01*
X90394068Y-112130489D01*
X108565817Y-112130489D01*
X108609416Y-112235745D01*
X108609423Y-112235759D01*
X108691489Y-112358579D01*
X108795964Y-112463054D01*
X108918802Y-112545131D01*
X109024057Y-112588729D01*
X109024058Y-112588728D01*
X109024058Y-112130490D01*
X109524058Y-112130490D01*
X109524058Y-112588729D01*
X109629314Y-112545130D01*
X109714031Y-112488525D01*
X109772919Y-112471916D01*
X109824035Y-112488525D01*
X109908751Y-112545130D01*
X110014007Y-112588729D01*
X110014008Y-112588728D01*
X110014008Y-112130490D01*
X110514008Y-112130490D01*
X110514008Y-112588729D01*
X110619263Y-112545131D01*
X110742101Y-112463054D01*
X110846576Y-112358579D01*
X110928642Y-112235759D01*
X110928649Y-112235745D01*
X110948963Y-112186705D01*
X110948963Y-112186704D01*
X110972249Y-112130489D01*
X110514009Y-112130489D01*
X110514008Y-112130490D01*
X110014008Y-112130490D01*
X110014007Y-112130489D01*
X109524059Y-112130489D01*
X109524058Y-112130490D01*
X109024058Y-112130490D01*
X109024057Y-112130489D01*
X108565817Y-112130489D01*
X90394068Y-112130489D01*
X90357373Y-112017555D01*
X90278732Y-111863212D01*
X90276833Y-111860598D01*
X109174058Y-111860598D01*
X109174058Y-111900380D01*
X109189282Y-111937134D01*
X109217413Y-111965265D01*
X109254167Y-111980489D01*
X109293949Y-111980489D01*
X109330703Y-111965265D01*
X109358834Y-111937134D01*
X109374058Y-111900380D01*
X109374058Y-111860598D01*
X110164008Y-111860598D01*
X110164008Y-111900380D01*
X110179232Y-111937134D01*
X110207363Y-111965265D01*
X110244117Y-111980489D01*
X110283899Y-111980489D01*
X110320653Y-111965265D01*
X110348784Y-111937134D01*
X110364008Y-111900380D01*
X110364008Y-111860598D01*
X110348784Y-111823844D01*
X110320653Y-111795713D01*
X110283899Y-111780489D01*
X110244117Y-111780489D01*
X110207363Y-111795713D01*
X110179232Y-111823844D01*
X110164008Y-111860598D01*
X109374058Y-111860598D01*
X109358834Y-111823844D01*
X109330703Y-111795713D01*
X109293949Y-111780489D01*
X109254167Y-111780489D01*
X109217413Y-111795713D01*
X109189282Y-111823844D01*
X109174058Y-111860598D01*
X90276833Y-111860598D01*
X90176914Y-111723072D01*
X90054428Y-111600586D01*
X89914288Y-111498768D01*
X89914287Y-111498767D01*
X89914285Y-111498766D01*
X89759941Y-111420125D01*
X89759938Y-111420123D01*
X89595206Y-111366598D01*
X89595202Y-111366597D01*
X89424114Y-111339500D01*
X89424111Y-111339500D01*
X89250889Y-111339500D01*
X89250886Y-111339500D01*
X89079797Y-111366597D01*
X89079793Y-111366598D01*
X88915061Y-111420123D01*
X88915058Y-111420125D01*
X88760714Y-111498766D01*
X88620573Y-111600585D01*
X88498085Y-111723073D01*
X88396266Y-111863214D01*
X88317625Y-112017558D01*
X88292823Y-112093888D01*
X88256859Y-112143388D01*
X88198667Y-112162294D01*
X88140477Y-112143386D01*
X88104514Y-112093886D01*
X88048596Y-111921786D01*
X87952124Y-111732447D01*
X87827222Y-111560535D01*
X87676964Y-111410277D01*
X87505052Y-111285376D01*
X87451735Y-111258210D01*
X87408471Y-111214946D01*
X87398899Y-111154514D01*
X87426676Y-111099997D01*
X87451735Y-111081790D01*
X87505052Y-111054623D01*
X87676964Y-110929722D01*
X87827222Y-110779464D01*
X87952124Y-110607552D01*
X88048596Y-110418213D01*
X88104514Y-110246113D01*
X88140478Y-110196613D01*
X88198668Y-110177705D01*
X88256859Y-110196612D01*
X88292823Y-110246111D01*
X88317625Y-110322441D01*
X88317626Y-110322444D01*
X88317627Y-110322445D01*
X88396268Y-110476788D01*
X88498086Y-110616928D01*
X88620572Y-110739414D01*
X88760712Y-110841232D01*
X88915055Y-110919873D01*
X88915057Y-110919873D01*
X88915058Y-110919874D01*
X88915061Y-110919876D01*
X89079793Y-110973401D01*
X89079797Y-110973402D01*
X89250886Y-111000500D01*
X89250889Y-111000500D01*
X89424114Y-111000500D01*
X89595202Y-110973402D01*
X89595206Y-110973401D01*
X89759938Y-110919876D01*
X89759940Y-110919874D01*
X89759945Y-110919873D01*
X89914288Y-110841232D01*
X90054428Y-110739414D01*
X90176914Y-110616928D01*
X90278732Y-110476788D01*
X90357373Y-110322445D01*
X90357374Y-110322440D01*
X90357376Y-110322438D01*
X90410901Y-110157706D01*
X90410902Y-110157702D01*
X90438000Y-109986614D01*
X90438000Y-109813385D01*
X90410902Y-109642297D01*
X90410901Y-109642293D01*
X90357376Y-109477561D01*
X90357374Y-109477558D01*
X90357373Y-109477557D01*
X90357373Y-109477555D01*
X90278732Y-109323212D01*
X90176914Y-109183072D01*
X90054428Y-109060586D01*
X89914288Y-108958768D01*
X89914287Y-108958767D01*
X89914285Y-108958766D01*
X89759941Y-108880125D01*
X89759938Y-108880123D01*
X89595206Y-108826598D01*
X89595202Y-108826597D01*
X89424114Y-108799500D01*
X89424111Y-108799500D01*
X89250889Y-108799500D01*
X89250886Y-108799500D01*
X89079797Y-108826597D01*
X89079793Y-108826598D01*
X88915061Y-108880123D01*
X88915058Y-108880125D01*
X88760714Y-108958766D01*
X88620573Y-109060585D01*
X88498085Y-109183073D01*
X88396266Y-109323214D01*
X88317625Y-109477558D01*
X88292823Y-109553888D01*
X88256859Y-109603388D01*
X88198667Y-109622294D01*
X88140477Y-109603386D01*
X88104514Y-109553886D01*
X88048596Y-109381786D01*
X87952124Y-109192447D01*
X87827222Y-109020535D01*
X87676964Y-108870277D01*
X87505052Y-108745376D01*
X87451735Y-108718210D01*
X87408471Y-108674946D01*
X87398899Y-108614514D01*
X87426676Y-108559997D01*
X87451735Y-108541790D01*
X87505052Y-108514623D01*
X87676964Y-108389722D01*
X87827222Y-108239464D01*
X87952124Y-108067552D01*
X88048596Y-107878213D01*
X88104514Y-107706113D01*
X88140478Y-107656613D01*
X88198668Y-107637705D01*
X88256859Y-107656612D01*
X88292823Y-107706111D01*
X88317625Y-107782441D01*
X88317626Y-107782444D01*
X88317627Y-107782445D01*
X88396268Y-107936788D01*
X88498086Y-108076928D01*
X88620572Y-108199414D01*
X88760712Y-108301232D01*
X88915055Y-108379873D01*
X88915057Y-108379873D01*
X88915058Y-108379874D01*
X88915061Y-108379876D01*
X89079793Y-108433401D01*
X89079797Y-108433402D01*
X89250886Y-108460500D01*
X89250889Y-108460500D01*
X89424114Y-108460500D01*
X89595202Y-108433402D01*
X89595206Y-108433401D01*
X89759938Y-108379876D01*
X89759940Y-108379874D01*
X89759945Y-108379873D01*
X89914288Y-108301232D01*
X90054428Y-108199414D01*
X90176914Y-108076928D01*
X90278732Y-107936788D01*
X90357373Y-107782445D01*
X90357374Y-107782440D01*
X90357376Y-107782438D01*
X90410901Y-107617706D01*
X90410902Y-107617702D01*
X90438000Y-107446614D01*
X90438000Y-107273385D01*
X90410902Y-107102297D01*
X90410901Y-107102293D01*
X90357376Y-106937561D01*
X90357374Y-106937558D01*
X90357373Y-106937557D01*
X90357373Y-106937555D01*
X90278732Y-106783212D01*
X90176914Y-106643072D01*
X90054428Y-106520586D01*
X89914288Y-106418768D01*
X89914287Y-106418767D01*
X89914285Y-106418766D01*
X89759941Y-106340125D01*
X89759938Y-106340123D01*
X89595206Y-106286598D01*
X89595202Y-106286597D01*
X89424114Y-106259500D01*
X89424111Y-106259500D01*
X89250889Y-106259500D01*
X89250886Y-106259500D01*
X89079797Y-106286597D01*
X89079793Y-106286598D01*
X88915061Y-106340123D01*
X88915058Y-106340125D01*
X88760714Y-106418766D01*
X88620573Y-106520585D01*
X88498085Y-106643073D01*
X88396266Y-106783214D01*
X88317625Y-106937558D01*
X88292823Y-107013888D01*
X88256859Y-107063388D01*
X88198667Y-107082294D01*
X88140477Y-107063386D01*
X88104514Y-107013886D01*
X88048596Y-106841786D01*
X87952124Y-106652447D01*
X87827222Y-106480535D01*
X87676964Y-106330277D01*
X87505052Y-106205376D01*
X87451735Y-106178210D01*
X87408471Y-106134946D01*
X87398899Y-106074514D01*
X87426676Y-106019997D01*
X87451735Y-106001790D01*
X87505052Y-105974623D01*
X87676964Y-105849722D01*
X87827222Y-105699464D01*
X87952124Y-105527552D01*
X88048596Y-105338213D01*
X88104514Y-105166113D01*
X88140478Y-105116613D01*
X88198668Y-105097705D01*
X88256859Y-105116612D01*
X88292823Y-105166111D01*
X88317625Y-105242441D01*
X88317626Y-105242444D01*
X88317627Y-105242445D01*
X88396268Y-105396788D01*
X88498086Y-105536928D01*
X88620572Y-105659414D01*
X88760712Y-105761232D01*
X88915055Y-105839873D01*
X88915057Y-105839873D01*
X88915058Y-105839874D01*
X88915061Y-105839876D01*
X89079793Y-105893401D01*
X89079797Y-105893402D01*
X89250886Y-105920500D01*
X89250889Y-105920500D01*
X89424114Y-105920500D01*
X89595202Y-105893402D01*
X89595206Y-105893401D01*
X89759938Y-105839876D01*
X89759940Y-105839874D01*
X89759945Y-105839873D01*
X89914288Y-105761232D01*
X90054428Y-105659414D01*
X90176914Y-105536928D01*
X90278732Y-105396788D01*
X90357373Y-105242445D01*
X90357374Y-105242440D01*
X90357376Y-105242438D01*
X90410901Y-105077706D01*
X90410902Y-105077702D01*
X90438000Y-104906614D01*
X90438000Y-104733385D01*
X90410902Y-104562297D01*
X90410901Y-104562293D01*
X90357376Y-104397561D01*
X90357374Y-104397558D01*
X90357373Y-104397557D01*
X90357373Y-104397555D01*
X90278732Y-104243212D01*
X90176914Y-104103072D01*
X90054428Y-103980586D01*
X89914288Y-103878768D01*
X89914287Y-103878767D01*
X89914285Y-103878766D01*
X89759941Y-103800125D01*
X89759938Y-103800123D01*
X89595206Y-103746598D01*
X89595202Y-103746597D01*
X89424114Y-103719500D01*
X89424111Y-103719500D01*
X89250889Y-103719500D01*
X89250886Y-103719500D01*
X89079797Y-103746597D01*
X89079793Y-103746598D01*
X88915061Y-103800123D01*
X88915058Y-103800125D01*
X88760714Y-103878766D01*
X88620573Y-103980585D01*
X88498085Y-104103073D01*
X88396266Y-104243214D01*
X88317625Y-104397558D01*
X88292823Y-104473888D01*
X88256859Y-104523388D01*
X88198667Y-104542294D01*
X88140477Y-104523386D01*
X88104514Y-104473886D01*
X88048596Y-104301786D01*
X87952124Y-104112447D01*
X87827222Y-103940535D01*
X87676964Y-103790277D01*
X87505052Y-103665376D01*
X87451735Y-103638210D01*
X87408471Y-103594946D01*
X87398899Y-103534514D01*
X87426676Y-103479997D01*
X87451735Y-103461790D01*
X87505052Y-103434623D01*
X87676964Y-103309722D01*
X87827222Y-103159464D01*
X87952124Y-102987552D01*
X88048596Y-102798213D01*
X88104514Y-102626113D01*
X88140478Y-102576613D01*
X88198668Y-102557705D01*
X88256859Y-102576612D01*
X88292823Y-102626111D01*
X88317625Y-102702441D01*
X88317626Y-102702444D01*
X88317627Y-102702445D01*
X88396268Y-102856788D01*
X88498086Y-102996928D01*
X88620572Y-103119414D01*
X88760712Y-103221232D01*
X88915055Y-103299873D01*
X88915057Y-103299873D01*
X88915058Y-103299874D01*
X88915061Y-103299876D01*
X89079793Y-103353401D01*
X89079797Y-103353402D01*
X89250886Y-103380500D01*
X89250889Y-103380500D01*
X89424114Y-103380500D01*
X89595202Y-103353402D01*
X89595206Y-103353401D01*
X89759938Y-103299876D01*
X89759940Y-103299874D01*
X89759945Y-103299873D01*
X89914288Y-103221232D01*
X90054428Y-103119414D01*
X90176914Y-102996928D01*
X90278732Y-102856788D01*
X90357373Y-102702445D01*
X90357374Y-102702440D01*
X90357376Y-102702438D01*
X90410901Y-102537706D01*
X90410902Y-102537702D01*
X90438000Y-102366614D01*
X90438000Y-102193385D01*
X90410902Y-102022297D01*
X90410901Y-102022293D01*
X90357376Y-101857561D01*
X90357374Y-101857558D01*
X90357373Y-101857557D01*
X90357373Y-101857555D01*
X90278732Y-101703212D01*
X90176914Y-101563072D01*
X90054428Y-101440586D01*
X89914288Y-101338768D01*
X89914287Y-101338767D01*
X89914285Y-101338766D01*
X89759941Y-101260125D01*
X89759938Y-101260123D01*
X89595206Y-101206598D01*
X89595202Y-101206597D01*
X89424114Y-101179500D01*
X89424111Y-101179500D01*
X89250889Y-101179500D01*
X89250886Y-101179500D01*
X89079797Y-101206597D01*
X89079793Y-101206598D01*
X88915061Y-101260123D01*
X88915058Y-101260125D01*
X88760714Y-101338766D01*
X88620573Y-101440585D01*
X88498085Y-101563073D01*
X88396266Y-101703214D01*
X88317625Y-101857558D01*
X88292823Y-101933888D01*
X88256859Y-101983388D01*
X88198667Y-102002294D01*
X88140477Y-101983386D01*
X88104514Y-101933886D01*
X88048596Y-101761786D01*
X87952124Y-101572447D01*
X87827222Y-101400535D01*
X87676964Y-101250277D01*
X87505052Y-101125376D01*
X87451735Y-101098210D01*
X87408471Y-101054946D01*
X87398899Y-100994514D01*
X87426676Y-100939997D01*
X87451735Y-100921790D01*
X87505052Y-100894623D01*
X87676964Y-100769722D01*
X87827222Y-100619464D01*
X87952124Y-100447552D01*
X88048596Y-100258213D01*
X88104514Y-100086113D01*
X88140478Y-100036613D01*
X88198668Y-100017705D01*
X88256859Y-100036612D01*
X88292823Y-100086111D01*
X88317625Y-100162441D01*
X88383885Y-100292486D01*
X88396268Y-100316788D01*
X88498086Y-100456928D01*
X88620572Y-100579414D01*
X88760712Y-100681232D01*
X88915055Y-100759873D01*
X88915057Y-100759873D01*
X88915058Y-100759874D01*
X88915061Y-100759876D01*
X89079793Y-100813401D01*
X89079797Y-100813402D01*
X89250886Y-100840500D01*
X89250889Y-100840500D01*
X89424114Y-100840500D01*
X89595202Y-100813402D01*
X89595206Y-100813401D01*
X89759938Y-100759876D01*
X89759940Y-100759874D01*
X89759945Y-100759873D01*
X89914288Y-100681232D01*
X90054428Y-100579414D01*
X90176914Y-100456928D01*
X90278732Y-100316788D01*
X90357373Y-100162445D01*
X90357374Y-100162440D01*
X90357376Y-100162438D01*
X90410901Y-99997706D01*
X90410902Y-99997702D01*
X90438000Y-99826614D01*
X90438000Y-99653385D01*
X90410902Y-99482297D01*
X90410901Y-99482293D01*
X90357376Y-99317561D01*
X90357374Y-99317558D01*
X90357373Y-99317557D01*
X90357373Y-99317555D01*
X90278732Y-99163212D01*
X90176914Y-99023072D01*
X90054428Y-98900586D01*
X89914288Y-98798768D01*
X89914287Y-98798767D01*
X89914285Y-98798766D01*
X89759941Y-98720125D01*
X89759938Y-98720123D01*
X89595206Y-98666598D01*
X89595202Y-98666597D01*
X89424114Y-98639500D01*
X89424111Y-98639500D01*
X89250889Y-98639500D01*
X89250886Y-98639500D01*
X89079797Y-98666597D01*
X89079793Y-98666598D01*
X88915061Y-98720123D01*
X88915058Y-98720125D01*
X88760714Y-98798766D01*
X88620573Y-98900585D01*
X88498085Y-99023073D01*
X88396266Y-99163214D01*
X88317625Y-99317558D01*
X88292823Y-99393888D01*
X88256859Y-99443388D01*
X88198667Y-99462294D01*
X88140477Y-99443386D01*
X88104514Y-99393886D01*
X88048596Y-99221786D01*
X87952124Y-99032447D01*
X87827222Y-98860535D01*
X87676964Y-98710277D01*
X87505052Y-98585375D01*
X87315715Y-98488904D01*
X87113620Y-98423240D01*
X87047500Y-98412767D01*
X87047500Y-99306988D01*
X86990493Y-99274075D01*
X86863326Y-99240000D01*
X86731674Y-99240000D01*
X86604507Y-99274075D01*
X86547500Y-99306988D01*
X86547500Y-98412768D01*
X86547499Y-98412767D01*
X86481380Y-98423240D01*
X86481378Y-98423240D01*
X86279284Y-98488904D01*
X86089947Y-98585375D01*
X85918035Y-98710277D01*
X85767777Y-98860535D01*
X85642875Y-99032447D01*
X85546404Y-99221784D01*
X85480741Y-99423877D01*
X85470268Y-99489999D01*
X85470269Y-99490000D01*
X86364488Y-99490000D01*
X86331575Y-99547007D01*
X86297500Y-99674174D01*
X86297500Y-99805826D01*
X86331575Y-99932993D01*
X86364488Y-99990000D01*
X85470269Y-99990000D01*
X85480741Y-100056122D01*
X85546404Y-100258215D01*
X85642875Y-100447552D01*
X85767777Y-100619464D01*
X85918035Y-100769722D01*
X86089948Y-100894624D01*
X86143264Y-100921790D01*
X86186529Y-100965055D01*
X86196100Y-101025487D01*
X86168322Y-101080004D01*
X86143264Y-101098210D01*
X86089948Y-101125375D01*
X85918035Y-101250277D01*
X85767777Y-101400535D01*
X85642875Y-101572447D01*
X85546404Y-101761784D01*
X85480741Y-101963877D01*
X85470268Y-102029999D01*
X85470269Y-102030000D01*
X86364488Y-102030000D01*
X86331575Y-102087007D01*
X86297500Y-102214174D01*
X86297500Y-102345826D01*
X86331575Y-102472993D01*
X86364488Y-102530000D01*
X85470269Y-102530000D01*
X85480741Y-102596122D01*
X85546404Y-102798215D01*
X85642875Y-102987552D01*
X85767777Y-103159464D01*
X85918035Y-103309722D01*
X86089948Y-103434624D01*
X86143264Y-103461790D01*
X86186529Y-103505055D01*
X86196100Y-103565487D01*
X86168322Y-103620004D01*
X86143264Y-103638210D01*
X86089948Y-103665375D01*
X85918035Y-103790277D01*
X85767777Y-103940535D01*
X85642875Y-104112447D01*
X85546404Y-104301784D01*
X85480741Y-104503877D01*
X85470268Y-104569999D01*
X85470269Y-104570000D01*
X86364488Y-104570000D01*
X86331575Y-104627007D01*
X86297500Y-104754174D01*
X86297500Y-104885826D01*
X86331575Y-105012993D01*
X86364488Y-105070000D01*
X85470269Y-105070000D01*
X85480741Y-105136122D01*
X85546404Y-105338215D01*
X85642875Y-105527552D01*
X85767777Y-105699464D01*
X85918035Y-105849722D01*
X86089948Y-105974624D01*
X86143264Y-106001790D01*
X86186529Y-106045055D01*
X86196100Y-106105487D01*
X86168322Y-106160004D01*
X86143264Y-106178210D01*
X86089948Y-106205375D01*
X85918035Y-106330277D01*
X85767777Y-106480535D01*
X85642875Y-106652447D01*
X85546404Y-106841784D01*
X85480741Y-107043877D01*
X85470268Y-107109999D01*
X85470269Y-107110000D01*
X86364488Y-107110000D01*
X86331575Y-107167007D01*
X86297500Y-107294174D01*
X86297500Y-107425826D01*
X86331575Y-107552993D01*
X86364488Y-107610000D01*
X85470269Y-107610000D01*
X85480741Y-107676122D01*
X85546404Y-107878215D01*
X85642875Y-108067552D01*
X85767777Y-108239464D01*
X85918035Y-108389722D01*
X86089948Y-108514624D01*
X86143264Y-108541790D01*
X86186529Y-108585055D01*
X86196100Y-108645487D01*
X86168322Y-108700004D01*
X86143264Y-108718210D01*
X86089948Y-108745375D01*
X85918035Y-108870277D01*
X85767777Y-109020535D01*
X85642875Y-109192447D01*
X85546404Y-109381784D01*
X85480741Y-109583877D01*
X85470268Y-109649999D01*
X85470269Y-109650000D01*
X86364488Y-109650000D01*
X86331575Y-109707007D01*
X86297500Y-109834174D01*
X86297500Y-109965826D01*
X86331575Y-110092993D01*
X86364488Y-110150000D01*
X85470269Y-110150000D01*
X85480741Y-110216122D01*
X85546404Y-110418215D01*
X85642875Y-110607552D01*
X85767777Y-110779464D01*
X85918035Y-110929722D01*
X86089948Y-111054624D01*
X86143264Y-111081790D01*
X86186529Y-111125055D01*
X86196100Y-111185487D01*
X86168322Y-111240004D01*
X86143264Y-111258210D01*
X86089948Y-111285375D01*
X85918035Y-111410277D01*
X85767777Y-111560535D01*
X85642875Y-111732447D01*
X85546404Y-111921784D01*
X85480741Y-112123877D01*
X85470268Y-112189999D01*
X85470269Y-112190000D01*
X86364488Y-112190000D01*
X86331575Y-112247007D01*
X86297500Y-112374174D01*
X86297500Y-112505826D01*
X86331575Y-112632993D01*
X86364488Y-112690000D01*
X85470269Y-112690000D01*
X85480741Y-112756122D01*
X85546404Y-112958215D01*
X85642875Y-113147552D01*
X85767777Y-113319464D01*
X85918035Y-113469722D01*
X86089948Y-113594624D01*
X86143264Y-113621790D01*
X86186529Y-113665055D01*
X86196100Y-113725487D01*
X86168322Y-113780004D01*
X86143264Y-113798210D01*
X86089948Y-113825375D01*
X85918035Y-113950277D01*
X85767777Y-114100535D01*
X85642875Y-114272447D01*
X85546404Y-114461784D01*
X85480741Y-114663877D01*
X85470268Y-114729999D01*
X85470269Y-114730000D01*
X86364488Y-114730000D01*
X86331575Y-114787007D01*
X86297500Y-114914174D01*
X86297500Y-115045826D01*
X86331575Y-115172993D01*
X86364488Y-115230000D01*
X85470269Y-115230000D01*
X85480741Y-115296122D01*
X85546404Y-115498215D01*
X85642875Y-115687551D01*
X85700823Y-115767309D01*
X85719730Y-115825500D01*
X85700823Y-115883691D01*
X85651323Y-115919655D01*
X85620730Y-115924500D01*
X85537399Y-115924500D01*
X85489253Y-115937401D01*
X85416463Y-115956905D01*
X85308036Y-116019505D01*
X85219505Y-116108036D01*
X85156905Y-116216463D01*
X85156905Y-116216464D01*
X85124500Y-116337399D01*
X85124500Y-116462601D01*
X85156905Y-116583536D01*
X85219505Y-116691964D01*
X85220505Y-116692964D01*
X85220966Y-116693868D01*
X85223456Y-116697114D01*
X85222854Y-116697575D01*
X85248281Y-116747479D01*
X85249500Y-116762966D01*
X85249500Y-118346144D01*
X85273386Y-118435288D01*
X85319530Y-118515212D01*
X85319531Y-118515213D01*
X85319532Y-118515214D01*
X85719530Y-118915211D01*
X85719531Y-118915213D01*
X85784787Y-118980468D01*
X85784789Y-118980470D01*
X85833702Y-119008710D01*
X85864712Y-119026614D01*
X85953856Y-119050500D01*
X86011651Y-119050500D01*
X86069842Y-119069407D01*
X86105806Y-119118907D01*
X86105806Y-119180093D01*
X86081655Y-119219504D01*
X86080575Y-119220583D01*
X86080572Y-119220586D01*
X86001658Y-119299500D01*
X85958085Y-119343073D01*
X85856266Y-119483214D01*
X85777625Y-119637558D01*
X85777623Y-119637561D01*
X85724098Y-119802293D01*
X85724097Y-119802297D01*
X85697000Y-119973385D01*
X85697000Y-120146614D01*
X85724097Y-120317702D01*
X85724098Y-120317706D01*
X85777623Y-120482438D01*
X85777625Y-120482441D01*
X85777626Y-120482444D01*
X85777627Y-120482445D01*
X85856268Y-120636788D01*
X85958086Y-120776928D01*
X86080572Y-120899414D01*
X86220712Y-121001232D01*
X86375055Y-121079873D01*
X86375057Y-121079873D01*
X86375058Y-121079874D01*
X86375061Y-121079876D01*
X86539793Y-121133401D01*
X86539797Y-121133402D01*
X86710886Y-121160500D01*
X86710889Y-121160500D01*
X86884114Y-121160500D01*
X87055202Y-121133402D01*
X87055206Y-121133401D01*
X87219938Y-121079876D01*
X87219940Y-121079874D01*
X87219945Y-121079873D01*
X87374288Y-121001232D01*
X87514428Y-120899414D01*
X87636914Y-120776928D01*
X87738732Y-120636788D01*
X87817373Y-120482445D01*
X87817374Y-120482440D01*
X87817376Y-120482438D01*
X87870901Y-120317706D01*
X87870902Y-120317702D01*
X87898000Y-120146614D01*
X87898000Y-119973385D01*
X87870902Y-119802297D01*
X87870901Y-119802293D01*
X87817376Y-119637561D01*
X87817374Y-119637558D01*
X87817373Y-119637557D01*
X87817373Y-119637555D01*
X87738732Y-119483212D01*
X87636914Y-119343072D01*
X87514428Y-119220586D01*
X87514424Y-119220583D01*
X87513345Y-119219504D01*
X87485568Y-119164987D01*
X87495139Y-119104555D01*
X87538404Y-119061290D01*
X87583349Y-119050500D01*
X88551651Y-119050500D01*
X88609842Y-119069407D01*
X88645806Y-119118907D01*
X88645806Y-119180093D01*
X88621655Y-119219504D01*
X88620575Y-119220583D01*
X88620572Y-119220586D01*
X88541658Y-119299500D01*
X88498085Y-119343073D01*
X88396266Y-119483214D01*
X88317625Y-119637558D01*
X88317623Y-119637561D01*
X88264098Y-119802293D01*
X88264097Y-119802297D01*
X88237000Y-119973385D01*
X88237000Y-120146614D01*
X88264097Y-120317702D01*
X88264098Y-120317706D01*
X88317623Y-120482438D01*
X88317625Y-120482441D01*
X88317626Y-120482444D01*
X88317627Y-120482445D01*
X88396268Y-120636788D01*
X88498086Y-120776928D01*
X88620572Y-120899414D01*
X88760712Y-121001232D01*
X88915055Y-121079873D01*
X88915057Y-121079873D01*
X88915058Y-121079874D01*
X88915061Y-121079876D01*
X89079793Y-121133401D01*
X89079797Y-121133402D01*
X89250886Y-121160500D01*
X89250889Y-121160500D01*
X89424114Y-121160500D01*
X89595202Y-121133402D01*
X89595206Y-121133401D01*
X89759938Y-121079876D01*
X89759940Y-121079874D01*
X89759945Y-121079873D01*
X89914288Y-121001232D01*
X90054428Y-120899414D01*
X90176914Y-120776928D01*
X90278732Y-120636788D01*
X90357373Y-120482445D01*
X90357374Y-120482440D01*
X90357376Y-120482438D01*
X90410901Y-120317706D01*
X90410902Y-120317702D01*
X90438000Y-120146614D01*
X90438000Y-119973385D01*
X90410902Y-119802297D01*
X90410901Y-119802293D01*
X90357376Y-119637561D01*
X90357374Y-119637558D01*
X90357373Y-119637557D01*
X90357373Y-119637555D01*
X90278732Y-119483212D01*
X90176914Y-119343072D01*
X90054428Y-119220586D01*
X90054424Y-119220583D01*
X90053345Y-119219504D01*
X90025568Y-119164987D01*
X90035139Y-119104555D01*
X90078404Y-119061290D01*
X90123349Y-119050500D01*
X91313810Y-119050500D01*
X91372001Y-119069407D01*
X91383814Y-119079496D01*
X91984787Y-119680469D01*
X92060304Y-119724069D01*
X92060305Y-119724070D01*
X92064708Y-119726612D01*
X92064709Y-119726612D01*
X92064712Y-119726614D01*
X92153856Y-119750500D01*
X92942794Y-119750500D01*
X93000985Y-119769407D01*
X93012798Y-119779496D01*
X93160186Y-119926884D01*
X93187963Y-119981401D01*
X93189182Y-119996888D01*
X93189182Y-120027160D01*
X93195770Y-120051745D01*
X93206332Y-120091166D01*
X93210946Y-120108384D01*
X93213068Y-120116304D01*
X93259212Y-120196228D01*
X93259213Y-120196229D01*
X93259214Y-120196230D01*
X93713196Y-120650211D01*
X93713197Y-120650213D01*
X93778453Y-120715468D01*
X93778455Y-120715470D01*
X93827368Y-120743710D01*
X93858378Y-120761614D01*
X93947522Y-120785500D01*
X96033493Y-120785500D01*
X96091684Y-120804407D01*
X96127648Y-120853907D01*
X96127648Y-120915093D01*
X96091684Y-120964593D01*
X96083000Y-120970232D01*
X95982084Y-121028495D01*
X95922207Y-121063066D01*
X95729768Y-121210729D01*
X95558229Y-121382268D01*
X95410566Y-121574707D01*
X95289272Y-121784795D01*
X95196448Y-122008894D01*
X95196444Y-122008907D01*
X95133661Y-122243213D01*
X95133661Y-122243218D01*
X95102000Y-122483710D01*
X95102000Y-122726289D01*
X95133661Y-122966781D01*
X95133661Y-122966786D01*
X95196444Y-123201092D01*
X95196448Y-123201105D01*
X95289272Y-123425204D01*
X95289274Y-123425208D01*
X95289276Y-123425212D01*
X95407858Y-123630602D01*
X95410566Y-123635292D01*
X95558229Y-123827731D01*
X95558231Y-123827733D01*
X95558235Y-123827738D01*
X95729762Y-123999265D01*
X95729766Y-123999268D01*
X95729768Y-123999270D01*
X95922207Y-124146933D01*
X95922211Y-124146936D01*
X96046914Y-124218933D01*
X96087854Y-124264402D01*
X96094250Y-124325252D01*
X96063657Y-124378240D01*
X96007762Y-124403127D01*
X95997425Y-124403669D01*
X89029250Y-124404500D01*
X84932000Y-124404500D01*
X84873809Y-124385593D01*
X84837845Y-124336093D01*
X84833000Y-124305500D01*
X84833000Y-123649142D01*
X84833751Y-122513385D01*
X85697000Y-122513385D01*
X85697000Y-122686614D01*
X85724097Y-122857702D01*
X85724098Y-122857706D01*
X85777623Y-123022438D01*
X85777625Y-123022441D01*
X85819690Y-123105000D01*
X85856268Y-123176788D01*
X85958086Y-123316928D01*
X86080572Y-123439414D01*
X86220712Y-123541232D01*
X86375055Y-123619873D01*
X86375057Y-123619873D01*
X86375058Y-123619874D01*
X86375061Y-123619876D01*
X86539793Y-123673401D01*
X86539797Y-123673402D01*
X86710886Y-123700500D01*
X86710889Y-123700500D01*
X86884114Y-123700500D01*
X87055202Y-123673402D01*
X87055206Y-123673401D01*
X87219938Y-123619876D01*
X87219940Y-123619874D01*
X87219945Y-123619873D01*
X87374288Y-123541232D01*
X87514428Y-123439414D01*
X87636914Y-123316928D01*
X87738732Y-123176788D01*
X87817373Y-123022445D01*
X87817374Y-123022440D01*
X87817376Y-123022438D01*
X87870901Y-122857706D01*
X87870902Y-122857702D01*
X87898000Y-122686614D01*
X87898000Y-122513385D01*
X87870902Y-122342297D01*
X87870901Y-122342293D01*
X87817376Y-122177561D01*
X87817374Y-122177558D01*
X87817373Y-122177557D01*
X87817373Y-122177555D01*
X87738732Y-122023212D01*
X87636914Y-121883072D01*
X87514428Y-121760586D01*
X87465898Y-121725327D01*
X88237000Y-121725327D01*
X88237000Y-123474672D01*
X88237001Y-123474684D01*
X88251533Y-123547736D01*
X88251535Y-123547742D01*
X88306897Y-123630599D01*
X88306900Y-123630602D01*
X88334648Y-123649142D01*
X88389760Y-123685966D01*
X88445308Y-123697015D01*
X88462815Y-123700498D01*
X88462820Y-123700498D01*
X88462826Y-123700500D01*
X88462827Y-123700500D01*
X90212173Y-123700500D01*
X90212174Y-123700500D01*
X90285240Y-123685966D01*
X90368101Y-123630601D01*
X90423466Y-123547740D01*
X90425523Y-123537399D01*
X91324500Y-123537399D01*
X91324500Y-123662601D01*
X91356905Y-123783536D01*
X91419505Y-123891964D01*
X91508036Y-123980495D01*
X91616464Y-124043095D01*
X91737399Y-124075500D01*
X91737401Y-124075500D01*
X91862599Y-124075500D01*
X91862601Y-124075500D01*
X91983536Y-124043095D01*
X92091964Y-123980495D01*
X92180495Y-123891964D01*
X92243095Y-123783536D01*
X92275500Y-123662601D01*
X92275500Y-123537399D01*
X92243095Y-123416464D01*
X92180495Y-123308036D01*
X92091964Y-123219505D01*
X91983536Y-123156905D01*
X91862601Y-123124500D01*
X91737399Y-123124500D01*
X91656775Y-123146103D01*
X91616463Y-123156905D01*
X91508036Y-123219505D01*
X91419505Y-123308036D01*
X91356905Y-123416463D01*
X91356905Y-123416464D01*
X91324500Y-123537399D01*
X90425523Y-123537399D01*
X90436053Y-123484464D01*
X90437999Y-123474681D01*
X90438000Y-123474672D01*
X90438000Y-121725327D01*
X90437998Y-121725315D01*
X90425755Y-121663768D01*
X90423466Y-121652260D01*
X90401557Y-121619470D01*
X90368102Y-121569400D01*
X90368099Y-121569397D01*
X90285242Y-121514035D01*
X90285240Y-121514034D01*
X90285237Y-121514033D01*
X90285236Y-121514033D01*
X90212184Y-121499501D01*
X90212174Y-121499500D01*
X88462826Y-121499500D01*
X88462825Y-121499500D01*
X88462815Y-121499501D01*
X88389763Y-121514033D01*
X88389757Y-121514035D01*
X88306900Y-121569397D01*
X88306897Y-121569400D01*
X88251535Y-121652257D01*
X88251533Y-121652263D01*
X88237001Y-121725315D01*
X88237000Y-121725327D01*
X87465898Y-121725327D01*
X87374288Y-121658768D01*
X87374287Y-121658767D01*
X87374285Y-121658766D01*
X87219941Y-121580125D01*
X87219938Y-121580123D01*
X87055206Y-121526598D01*
X87055202Y-121526597D01*
X86884114Y-121499500D01*
X86884111Y-121499500D01*
X86710889Y-121499500D01*
X86710886Y-121499500D01*
X86539797Y-121526597D01*
X86539793Y-121526598D01*
X86375061Y-121580123D01*
X86375058Y-121580125D01*
X86220714Y-121658766D01*
X86080573Y-121760585D01*
X85958085Y-121883073D01*
X85856266Y-122023214D01*
X85777625Y-122177558D01*
X85777623Y-122177561D01*
X85724098Y-122342293D01*
X85724097Y-122342297D01*
X85697000Y-122513385D01*
X84833751Y-122513385D01*
X84833754Y-122509434D01*
X84840270Y-112660344D01*
X84847431Y-101833594D01*
X84848962Y-99519525D01*
X84849935Y-98048934D01*
X84868881Y-97990756D01*
X84918405Y-97954825D01*
X84948935Y-97950000D01*
X91098881Y-97950000D01*
X91157072Y-97968907D01*
G37*
%TD.AperFunction*%
%TA.AperFunction,Conductor*%
G36*
X87047500Y-117086988D02*
G01*
X86990493Y-117054075D01*
X86863326Y-117020000D01*
X86731674Y-117020000D01*
X86604507Y-117054075D01*
X86547500Y-117086988D01*
X86547500Y-115413012D01*
X86604507Y-115445925D01*
X86731674Y-115480000D01*
X86863326Y-115480000D01*
X86990493Y-115445925D01*
X87047500Y-115413012D01*
X87047500Y-117086988D01*
G37*
%TD.AperFunction*%
%TA.AperFunction,Conductor*%
G36*
X87047500Y-114546988D02*
G01*
X86990493Y-114514075D01*
X86863326Y-114480000D01*
X86731674Y-114480000D01*
X86604507Y-114514075D01*
X86547500Y-114546988D01*
X86547500Y-112873012D01*
X86604507Y-112905925D01*
X86731674Y-112940000D01*
X86863326Y-112940000D01*
X86990493Y-112905925D01*
X87047500Y-112873012D01*
X87047500Y-114546988D01*
G37*
%TD.AperFunction*%
%TA.AperFunction,Conductor*%
G36*
X87047500Y-112006988D02*
G01*
X86990493Y-111974075D01*
X86863326Y-111940000D01*
X86731674Y-111940000D01*
X86604507Y-111974075D01*
X86547500Y-112006988D01*
X86547500Y-110333012D01*
X86604507Y-110365925D01*
X86731674Y-110400000D01*
X86863326Y-110400000D01*
X86990493Y-110365925D01*
X87047500Y-110333012D01*
X87047500Y-112006988D01*
G37*
%TD.AperFunction*%
%TA.AperFunction,Conductor*%
G36*
X87047500Y-109466988D02*
G01*
X86990493Y-109434075D01*
X86863326Y-109400000D01*
X86731674Y-109400000D01*
X86604507Y-109434075D01*
X86547500Y-109466988D01*
X86547500Y-107793012D01*
X86604507Y-107825925D01*
X86731674Y-107860000D01*
X86863326Y-107860000D01*
X86990493Y-107825925D01*
X87047500Y-107793012D01*
X87047500Y-109466988D01*
G37*
%TD.AperFunction*%
%TA.AperFunction,Conductor*%
G36*
X109248465Y-106631902D02*
G01*
X109259438Y-106634084D01*
X109305653Y-106643276D01*
X109324215Y-106648907D01*
X109378101Y-106671227D01*
X109395206Y-106680370D01*
X109443685Y-106712763D01*
X109458687Y-106725074D01*
X109499923Y-106766310D01*
X109512229Y-106781305D01*
X109544623Y-106829783D01*
X109553772Y-106846900D01*
X109576090Y-106900782D01*
X109581722Y-106919347D01*
X109593097Y-106976526D01*
X109595000Y-106995842D01*
X109595000Y-107054153D01*
X109593098Y-107073467D01*
X109587726Y-107100474D01*
X109587725Y-107100477D01*
X109581722Y-107130651D01*
X109576089Y-107149220D01*
X109553775Y-107203091D01*
X109544626Y-107220206D01*
X109512232Y-107268687D01*
X109499921Y-107283690D01*
X109458690Y-107324921D01*
X109443687Y-107337232D01*
X109395206Y-107369626D01*
X109378091Y-107378775D01*
X109324220Y-107401089D01*
X109305651Y-107406722D01*
X109270510Y-107413713D01*
X109248470Y-107418097D01*
X109229157Y-107420000D01*
X109170843Y-107420000D01*
X109151528Y-107418097D01*
X109123564Y-107412534D01*
X109094346Y-107406722D01*
X109075777Y-107401089D01*
X109021905Y-107378775D01*
X109004792Y-107369628D01*
X108956308Y-107337231D01*
X108941311Y-107324924D01*
X108900075Y-107283688D01*
X108887764Y-107268686D01*
X108859613Y-107226556D01*
X108855370Y-107220206D01*
X108846227Y-107203100D01*
X108823906Y-107149212D01*
X108818275Y-107130648D01*
X108806902Y-107073472D01*
X108805000Y-107054158D01*
X108805000Y-106995845D01*
X108806902Y-106976533D01*
X108814654Y-106937558D01*
X108818276Y-106919344D01*
X108823909Y-106900777D01*
X108832626Y-106879732D01*
X108846227Y-106846896D01*
X108855367Y-106829795D01*
X108887766Y-106781307D01*
X108900069Y-106766315D01*
X108941314Y-106725070D01*
X108956304Y-106712769D01*
X109004792Y-106680370D01*
X109021900Y-106671226D01*
X109075780Y-106648908D01*
X109094340Y-106643278D01*
X109131728Y-106635841D01*
X109151535Y-106631902D01*
X109170848Y-106630000D01*
X109229153Y-106630000D01*
X109248465Y-106631902D01*
G37*
%TD.AperFunction*%
%TA.AperFunction,Conductor*%
G36*
X87047500Y-106926988D02*
G01*
X86990493Y-106894075D01*
X86863326Y-106860000D01*
X86731674Y-106860000D01*
X86604507Y-106894075D01*
X86547500Y-106926988D01*
X86547500Y-105253012D01*
X86604507Y-105285925D01*
X86731674Y-105320000D01*
X86863326Y-105320000D01*
X86990493Y-105285925D01*
X87047500Y-105253012D01*
X87047500Y-106926988D01*
G37*
%TD.AperFunction*%
%TA.AperFunction,Conductor*%
G36*
X87047500Y-104386988D02*
G01*
X86990493Y-104354075D01*
X86863326Y-104320000D01*
X86731674Y-104320000D01*
X86604507Y-104354075D01*
X86547500Y-104386988D01*
X86547500Y-102713012D01*
X86604507Y-102745925D01*
X86731674Y-102780000D01*
X86863326Y-102780000D01*
X86990493Y-102745925D01*
X87047500Y-102713012D01*
X87047500Y-104386988D01*
G37*
%TD.AperFunction*%
%TA.AperFunction,Conductor*%
G36*
X87047500Y-101846988D02*
G01*
X86990493Y-101814075D01*
X86863326Y-101780000D01*
X86731674Y-101780000D01*
X86604507Y-101814075D01*
X86547500Y-101846988D01*
X86547500Y-100173012D01*
X86604507Y-100205925D01*
X86731674Y-100240000D01*
X86863326Y-100240000D01*
X86990493Y-100205925D01*
X87047500Y-100173012D01*
X87047500Y-101846988D01*
G37*
%TD.AperFunction*%
%TD*%
M02*
