%TF.GenerationSoftware,KiCad,Pcbnew,9.0.4*%
%TF.CreationDate,2025-08-20T17:26:20-04:00*%
%TF.ProjectId,tac5212_audio_board_single_ended,74616335-3231-4325-9f61-7564696f5f62,rev?*%
%TF.SameCoordinates,Original*%
%TF.FileFunction,Legend,Bot*%
%TF.FilePolarity,Positive*%
%FSLAX46Y46*%
G04 Gerber Fmt 4.6, Leading zero omitted, Abs format (unit mm)*
G04 Created by KiCad (PCBNEW 9.0.4) date 2025-08-20 17:26:20*
%MOMM*%
%LPD*%
G01*
G04 APERTURE LIST*
%ADD10C,0.150000*%
%ADD11C,0.180000*%
%ADD12C,0.120000*%
%ADD13C,0.100000*%
G04 APERTURE END LIST*
D10*
X122946609Y-116261309D02*
X122946609Y-116718452D01*
X123746609Y-116489880D02*
X122946609Y-116489880D01*
X122946609Y-117099404D02*
X123137085Y-117099404D01*
X123060894Y-116908928D02*
X123137085Y-117099404D01*
X123137085Y-117099404D02*
X123060894Y-117289881D01*
X123289466Y-116985119D02*
X123137085Y-117099404D01*
X123137085Y-117099404D02*
X123289466Y-117213690D01*
X123670418Y-118051786D02*
X123708514Y-118013690D01*
X123708514Y-118013690D02*
X123746609Y-117899405D01*
X123746609Y-117899405D02*
X123746609Y-117823214D01*
X123746609Y-117823214D02*
X123708514Y-117708928D01*
X123708514Y-117708928D02*
X123632323Y-117632738D01*
X123632323Y-117632738D02*
X123556133Y-117594643D01*
X123556133Y-117594643D02*
X123403752Y-117556547D01*
X123403752Y-117556547D02*
X123289466Y-117556547D01*
X123289466Y-117556547D02*
X123137085Y-117594643D01*
X123137085Y-117594643D02*
X123060894Y-117632738D01*
X123060894Y-117632738D02*
X122984704Y-117708928D01*
X122984704Y-117708928D02*
X122946609Y-117823214D01*
X122946609Y-117823214D02*
X122946609Y-117899405D01*
X122946609Y-117899405D02*
X122984704Y-118013690D01*
X122984704Y-118013690D02*
X123022799Y-118051786D01*
X123746609Y-118813690D02*
X123746609Y-118356547D01*
X123746609Y-118585119D02*
X122946609Y-118585119D01*
X122946609Y-118585119D02*
X123060894Y-118508928D01*
X123060894Y-118508928D02*
X123137085Y-118432738D01*
X123137085Y-118432738D02*
X123175180Y-118356547D01*
X122946609Y-119308929D02*
X122946609Y-119385119D01*
X122946609Y-119385119D02*
X122984704Y-119461310D01*
X122984704Y-119461310D02*
X123022799Y-119499405D01*
X123022799Y-119499405D02*
X123098990Y-119537500D01*
X123098990Y-119537500D02*
X123251371Y-119575595D01*
X123251371Y-119575595D02*
X123441847Y-119575595D01*
X123441847Y-119575595D02*
X123594228Y-119537500D01*
X123594228Y-119537500D02*
X123670418Y-119499405D01*
X123670418Y-119499405D02*
X123708514Y-119461310D01*
X123708514Y-119461310D02*
X123746609Y-119385119D01*
X123746609Y-119385119D02*
X123746609Y-119308929D01*
X123746609Y-119308929D02*
X123708514Y-119232738D01*
X123708514Y-119232738D02*
X123670418Y-119194643D01*
X123670418Y-119194643D02*
X123594228Y-119156548D01*
X123594228Y-119156548D02*
X123441847Y-119118452D01*
X123441847Y-119118452D02*
X123251371Y-119118452D01*
X123251371Y-119118452D02*
X123098990Y-119156548D01*
X123098990Y-119156548D02*
X123022799Y-119194643D01*
X123022799Y-119194643D02*
X122984704Y-119232738D01*
X122984704Y-119232738D02*
X122946609Y-119308929D01*
X123289466Y-120032738D02*
X123251371Y-119956548D01*
X123251371Y-119956548D02*
X123213275Y-119918453D01*
X123213275Y-119918453D02*
X123137085Y-119880357D01*
X123137085Y-119880357D02*
X123098990Y-119880357D01*
X123098990Y-119880357D02*
X123022799Y-119918453D01*
X123022799Y-119918453D02*
X122984704Y-119956548D01*
X122984704Y-119956548D02*
X122946609Y-120032738D01*
X122946609Y-120032738D02*
X122946609Y-120185119D01*
X122946609Y-120185119D02*
X122984704Y-120261310D01*
X122984704Y-120261310D02*
X123022799Y-120299405D01*
X123022799Y-120299405D02*
X123098990Y-120337500D01*
X123098990Y-120337500D02*
X123137085Y-120337500D01*
X123137085Y-120337500D02*
X123213275Y-120299405D01*
X123213275Y-120299405D02*
X123251371Y-120261310D01*
X123251371Y-120261310D02*
X123289466Y-120185119D01*
X123289466Y-120185119D02*
X123289466Y-120032738D01*
X123289466Y-120032738D02*
X123327561Y-119956548D01*
X123327561Y-119956548D02*
X123365656Y-119918453D01*
X123365656Y-119918453D02*
X123441847Y-119880357D01*
X123441847Y-119880357D02*
X123594228Y-119880357D01*
X123594228Y-119880357D02*
X123670418Y-119918453D01*
X123670418Y-119918453D02*
X123708514Y-119956548D01*
X123708514Y-119956548D02*
X123746609Y-120032738D01*
X123746609Y-120032738D02*
X123746609Y-120185119D01*
X123746609Y-120185119D02*
X123708514Y-120261310D01*
X123708514Y-120261310D02*
X123670418Y-120299405D01*
X123670418Y-120299405D02*
X123594228Y-120337500D01*
X123594228Y-120337500D02*
X123441847Y-120337500D01*
X123441847Y-120337500D02*
X123365656Y-120299405D01*
X123365656Y-120299405D02*
X123327561Y-120261310D01*
X123327561Y-120261310D02*
X123289466Y-120185119D01*
X112829580Y-110280952D02*
X112877200Y-110233333D01*
X112877200Y-110233333D02*
X112924819Y-110090476D01*
X112924819Y-110090476D02*
X112924819Y-109995238D01*
X112924819Y-109995238D02*
X112877200Y-109852381D01*
X112877200Y-109852381D02*
X112781961Y-109757143D01*
X112781961Y-109757143D02*
X112686723Y-109709524D01*
X112686723Y-109709524D02*
X112496247Y-109661905D01*
X112496247Y-109661905D02*
X112353390Y-109661905D01*
X112353390Y-109661905D02*
X112162914Y-109709524D01*
X112162914Y-109709524D02*
X112067676Y-109757143D01*
X112067676Y-109757143D02*
X111972438Y-109852381D01*
X111972438Y-109852381D02*
X111924819Y-109995238D01*
X111924819Y-109995238D02*
X111924819Y-110090476D01*
X111924819Y-110090476D02*
X111972438Y-110233333D01*
X111972438Y-110233333D02*
X112020057Y-110280952D01*
X112924819Y-111233333D02*
X112924819Y-110661905D01*
X112924819Y-110947619D02*
X111924819Y-110947619D01*
X111924819Y-110947619D02*
X112067676Y-110852381D01*
X112067676Y-110852381D02*
X112162914Y-110757143D01*
X112162914Y-110757143D02*
X112210533Y-110661905D01*
X112020057Y-111614286D02*
X111972438Y-111661905D01*
X111972438Y-111661905D02*
X111924819Y-111757143D01*
X111924819Y-111757143D02*
X111924819Y-111995238D01*
X111924819Y-111995238D02*
X111972438Y-112090476D01*
X111972438Y-112090476D02*
X112020057Y-112138095D01*
X112020057Y-112138095D02*
X112115295Y-112185714D01*
X112115295Y-112185714D02*
X112210533Y-112185714D01*
X112210533Y-112185714D02*
X112353390Y-112138095D01*
X112353390Y-112138095D02*
X112924819Y-111566667D01*
X112924819Y-111566667D02*
X112924819Y-112185714D01*
X111924819Y-112519048D02*
X111924819Y-113185714D01*
X111924819Y-113185714D02*
X112924819Y-112757143D01*
D11*
X101660735Y-106667857D02*
X101660735Y-106820238D01*
X101660735Y-106820238D02*
X101698830Y-106896428D01*
X101698830Y-106896428D02*
X101775020Y-106972619D01*
X101775020Y-106972619D02*
X101927401Y-107010714D01*
X101927401Y-107010714D02*
X102194068Y-107010714D01*
X102194068Y-107010714D02*
X102346449Y-106972619D01*
X102346449Y-106972619D02*
X102422640Y-106896428D01*
X102422640Y-106896428D02*
X102460735Y-106820238D01*
X102460735Y-106820238D02*
X102460735Y-106667857D01*
X102460735Y-106667857D02*
X102422640Y-106591666D01*
X102422640Y-106591666D02*
X102346449Y-106515476D01*
X102346449Y-106515476D02*
X102194068Y-106477380D01*
X102194068Y-106477380D02*
X101927401Y-106477380D01*
X101927401Y-106477380D02*
X101775020Y-106515476D01*
X101775020Y-106515476D02*
X101698830Y-106591666D01*
X101698830Y-106591666D02*
X101660735Y-106667857D01*
X102460735Y-107353571D02*
X101660735Y-107353571D01*
X101660735Y-107353571D02*
X101660735Y-107658333D01*
X101660735Y-107658333D02*
X101698830Y-107734523D01*
X101698830Y-107734523D02*
X101736925Y-107772618D01*
X101736925Y-107772618D02*
X101813116Y-107810714D01*
X101813116Y-107810714D02*
X101927401Y-107810714D01*
X101927401Y-107810714D02*
X102003592Y-107772618D01*
X102003592Y-107772618D02*
X102041687Y-107734523D01*
X102041687Y-107734523D02*
X102079782Y-107658333D01*
X102079782Y-107658333D02*
X102079782Y-107353571D01*
X101736925Y-108115475D02*
X101698830Y-108153571D01*
X101698830Y-108153571D02*
X101660735Y-108229761D01*
X101660735Y-108229761D02*
X101660735Y-108420237D01*
X101660735Y-108420237D02*
X101698830Y-108496428D01*
X101698830Y-108496428D02*
X101736925Y-108534523D01*
X101736925Y-108534523D02*
X101813116Y-108572618D01*
X101813116Y-108572618D02*
X101889306Y-108572618D01*
X101889306Y-108572618D02*
X102003592Y-108534523D01*
X102003592Y-108534523D02*
X102460735Y-108077380D01*
X102460735Y-108077380D02*
X102460735Y-108572618D01*
D10*
X99862295Y-108066541D02*
X99862295Y-108218922D01*
X99862295Y-108218922D02*
X99900390Y-108295112D01*
X99900390Y-108295112D02*
X99976580Y-108371303D01*
X99976580Y-108371303D02*
X100128961Y-108409398D01*
X100128961Y-108409398D02*
X100395628Y-108409398D01*
X100395628Y-108409398D02*
X100548009Y-108371303D01*
X100548009Y-108371303D02*
X100624200Y-108295112D01*
X100624200Y-108295112D02*
X100662295Y-108218922D01*
X100662295Y-108218922D02*
X100662295Y-108066541D01*
X100662295Y-108066541D02*
X100624200Y-107990350D01*
X100624200Y-107990350D02*
X100548009Y-107914160D01*
X100548009Y-107914160D02*
X100395628Y-107876064D01*
X100395628Y-107876064D02*
X100128961Y-107876064D01*
X100128961Y-107876064D02*
X99976580Y-107914160D01*
X99976580Y-107914160D02*
X99900390Y-107990350D01*
X99900390Y-107990350D02*
X99862295Y-108066541D01*
X100662295Y-108752255D02*
X99862295Y-108752255D01*
X99862295Y-108752255D02*
X99862295Y-109057017D01*
X99862295Y-109057017D02*
X99900390Y-109133207D01*
X99900390Y-109133207D02*
X99938485Y-109171302D01*
X99938485Y-109171302D02*
X100014676Y-109209398D01*
X100014676Y-109209398D02*
X100128961Y-109209398D01*
X100128961Y-109209398D02*
X100205152Y-109171302D01*
X100205152Y-109171302D02*
X100243247Y-109133207D01*
X100243247Y-109133207D02*
X100281342Y-109057017D01*
X100281342Y-109057017D02*
X100281342Y-108752255D01*
X99938485Y-109514159D02*
X99900390Y-109552255D01*
X99900390Y-109552255D02*
X99862295Y-109628445D01*
X99862295Y-109628445D02*
X99862295Y-109818921D01*
X99862295Y-109818921D02*
X99900390Y-109895112D01*
X99900390Y-109895112D02*
X99938485Y-109933207D01*
X99938485Y-109933207D02*
X100014676Y-109971302D01*
X100014676Y-109971302D02*
X100090866Y-109971302D01*
X100090866Y-109971302D02*
X100205152Y-109933207D01*
X100205152Y-109933207D02*
X100662295Y-109476064D01*
X100662295Y-109476064D02*
X100662295Y-109971302D01*
X106302380Y-106237295D02*
X106302380Y-105437295D01*
X106302380Y-105437295D02*
X106111904Y-105437295D01*
X106111904Y-105437295D02*
X105997618Y-105475390D01*
X105997618Y-105475390D02*
X105921428Y-105551580D01*
X105921428Y-105551580D02*
X105883333Y-105627771D01*
X105883333Y-105627771D02*
X105845237Y-105780152D01*
X105845237Y-105780152D02*
X105845237Y-105894438D01*
X105845237Y-105894438D02*
X105883333Y-106046819D01*
X105883333Y-106046819D02*
X105921428Y-106123009D01*
X105921428Y-106123009D02*
X105997618Y-106199200D01*
X105997618Y-106199200D02*
X106111904Y-106237295D01*
X106111904Y-106237295D02*
X106302380Y-106237295D01*
X105083333Y-106237295D02*
X105540476Y-106237295D01*
X105311904Y-106237295D02*
X105311904Y-105437295D01*
X105311904Y-105437295D02*
X105388095Y-105551580D01*
X105388095Y-105551580D02*
X105464285Y-105627771D01*
X105464285Y-105627771D02*
X105540476Y-105665866D01*
X104321428Y-106237295D02*
X104778571Y-106237295D01*
X104549999Y-106237295D02*
X104549999Y-105437295D01*
X104549999Y-105437295D02*
X104626190Y-105551580D01*
X104626190Y-105551580D02*
X104702380Y-105627771D01*
X104702380Y-105627771D02*
X104778571Y-105665866D01*
X103559523Y-106237295D02*
X104016666Y-106237295D01*
X103788094Y-106237295D02*
X103788094Y-105437295D01*
X103788094Y-105437295D02*
X103864285Y-105551580D01*
X103864285Y-105551580D02*
X103940475Y-105627771D01*
X103940475Y-105627771D02*
X104016666Y-105665866D01*
X98819047Y-112984819D02*
X99152380Y-112508628D01*
X99390475Y-112984819D02*
X99390475Y-111984819D01*
X99390475Y-111984819D02*
X99009523Y-111984819D01*
X99009523Y-111984819D02*
X98914285Y-112032438D01*
X98914285Y-112032438D02*
X98866666Y-112080057D01*
X98866666Y-112080057D02*
X98819047Y-112175295D01*
X98819047Y-112175295D02*
X98819047Y-112318152D01*
X98819047Y-112318152D02*
X98866666Y-112413390D01*
X98866666Y-112413390D02*
X98914285Y-112461009D01*
X98914285Y-112461009D02*
X99009523Y-112508628D01*
X99009523Y-112508628D02*
X99390475Y-112508628D01*
X97866666Y-112984819D02*
X98438094Y-112984819D01*
X98152380Y-112984819D02*
X98152380Y-111984819D01*
X98152380Y-111984819D02*
X98247618Y-112127676D01*
X98247618Y-112127676D02*
X98342856Y-112222914D01*
X98342856Y-112222914D02*
X98438094Y-112270533D01*
X97247618Y-111984819D02*
X97152380Y-111984819D01*
X97152380Y-111984819D02*
X97057142Y-112032438D01*
X97057142Y-112032438D02*
X97009523Y-112080057D01*
X97009523Y-112080057D02*
X96961904Y-112175295D01*
X96961904Y-112175295D02*
X96914285Y-112365771D01*
X96914285Y-112365771D02*
X96914285Y-112603866D01*
X96914285Y-112603866D02*
X96961904Y-112794342D01*
X96961904Y-112794342D02*
X97009523Y-112889580D01*
X97009523Y-112889580D02*
X97057142Y-112937200D01*
X97057142Y-112937200D02*
X97152380Y-112984819D01*
X97152380Y-112984819D02*
X97247618Y-112984819D01*
X97247618Y-112984819D02*
X97342856Y-112937200D01*
X97342856Y-112937200D02*
X97390475Y-112889580D01*
X97390475Y-112889580D02*
X97438094Y-112794342D01*
X97438094Y-112794342D02*
X97485713Y-112603866D01*
X97485713Y-112603866D02*
X97485713Y-112365771D01*
X97485713Y-112365771D02*
X97438094Y-112175295D01*
X97438094Y-112175295D02*
X97390475Y-112080057D01*
X97390475Y-112080057D02*
X97342856Y-112032438D01*
X97342856Y-112032438D02*
X97247618Y-111984819D01*
X96342856Y-112413390D02*
X96438094Y-112365771D01*
X96438094Y-112365771D02*
X96485713Y-112318152D01*
X96485713Y-112318152D02*
X96533332Y-112222914D01*
X96533332Y-112222914D02*
X96533332Y-112175295D01*
X96533332Y-112175295D02*
X96485713Y-112080057D01*
X96485713Y-112080057D02*
X96438094Y-112032438D01*
X96438094Y-112032438D02*
X96342856Y-111984819D01*
X96342856Y-111984819D02*
X96152380Y-111984819D01*
X96152380Y-111984819D02*
X96057142Y-112032438D01*
X96057142Y-112032438D02*
X96009523Y-112080057D01*
X96009523Y-112080057D02*
X95961904Y-112175295D01*
X95961904Y-112175295D02*
X95961904Y-112222914D01*
X95961904Y-112222914D02*
X96009523Y-112318152D01*
X96009523Y-112318152D02*
X96057142Y-112365771D01*
X96057142Y-112365771D02*
X96152380Y-112413390D01*
X96152380Y-112413390D02*
X96342856Y-112413390D01*
X96342856Y-112413390D02*
X96438094Y-112461009D01*
X96438094Y-112461009D02*
X96485713Y-112508628D01*
X96485713Y-112508628D02*
X96533332Y-112603866D01*
X96533332Y-112603866D02*
X96533332Y-112794342D01*
X96533332Y-112794342D02*
X96485713Y-112889580D01*
X96485713Y-112889580D02*
X96438094Y-112937200D01*
X96438094Y-112937200D02*
X96342856Y-112984819D01*
X96342856Y-112984819D02*
X96152380Y-112984819D01*
X96152380Y-112984819D02*
X96057142Y-112937200D01*
X96057142Y-112937200D02*
X96009523Y-112889580D01*
X96009523Y-112889580D02*
X95961904Y-112794342D01*
X95961904Y-112794342D02*
X95961904Y-112603866D01*
X95961904Y-112603866D02*
X96009523Y-112508628D01*
X96009523Y-112508628D02*
X96057142Y-112461009D01*
X96057142Y-112461009D02*
X96152380Y-112413390D01*
D11*
X123560735Y-106335000D02*
X122760735Y-106335000D01*
X123560735Y-106715952D02*
X122760735Y-106715952D01*
X122760735Y-106715952D02*
X123560735Y-107173095D01*
X123560735Y-107173095D02*
X122760735Y-107173095D01*
X123560735Y-107554047D02*
X122760735Y-107554047D01*
X122760735Y-107554047D02*
X122760735Y-107858809D01*
X122760735Y-107858809D02*
X122798830Y-107934999D01*
X122798830Y-107934999D02*
X122836925Y-107973094D01*
X122836925Y-107973094D02*
X122913116Y-108011190D01*
X122913116Y-108011190D02*
X123027401Y-108011190D01*
X123027401Y-108011190D02*
X123103592Y-107973094D01*
X123103592Y-107973094D02*
X123141687Y-107934999D01*
X123141687Y-107934999D02*
X123179782Y-107858809D01*
X123179782Y-107858809D02*
X123179782Y-107554047D01*
X122836925Y-108315951D02*
X122798830Y-108354047D01*
X122798830Y-108354047D02*
X122760735Y-108430237D01*
X122760735Y-108430237D02*
X122760735Y-108620713D01*
X122760735Y-108620713D02*
X122798830Y-108696904D01*
X122798830Y-108696904D02*
X122836925Y-108734999D01*
X122836925Y-108734999D02*
X122913116Y-108773094D01*
X122913116Y-108773094D02*
X122989306Y-108773094D01*
X122989306Y-108773094D02*
X123103592Y-108734999D01*
X123103592Y-108734999D02*
X123560735Y-108277856D01*
X123560735Y-108277856D02*
X123560735Y-108773094D01*
D10*
X121762295Y-107924160D02*
X120962295Y-107924160D01*
X121762295Y-108305112D02*
X120962295Y-108305112D01*
X120962295Y-108305112D02*
X121762295Y-108762255D01*
X121762295Y-108762255D02*
X120962295Y-108762255D01*
X121762295Y-109143207D02*
X120962295Y-109143207D01*
X120962295Y-109143207D02*
X120962295Y-109447969D01*
X120962295Y-109447969D02*
X121000390Y-109524159D01*
X121000390Y-109524159D02*
X121038485Y-109562254D01*
X121038485Y-109562254D02*
X121114676Y-109600350D01*
X121114676Y-109600350D02*
X121228961Y-109600350D01*
X121228961Y-109600350D02*
X121305152Y-109562254D01*
X121305152Y-109562254D02*
X121343247Y-109524159D01*
X121343247Y-109524159D02*
X121381342Y-109447969D01*
X121381342Y-109447969D02*
X121381342Y-109143207D01*
X121038485Y-109905111D02*
X121000390Y-109943207D01*
X121000390Y-109943207D02*
X120962295Y-110019397D01*
X120962295Y-110019397D02*
X120962295Y-110209873D01*
X120962295Y-110209873D02*
X121000390Y-110286064D01*
X121000390Y-110286064D02*
X121038485Y-110324159D01*
X121038485Y-110324159D02*
X121114676Y-110362254D01*
X121114676Y-110362254D02*
X121190866Y-110362254D01*
X121190866Y-110362254D02*
X121305152Y-110324159D01*
X121305152Y-110324159D02*
X121762295Y-109867016D01*
X121762295Y-109867016D02*
X121762295Y-110362254D01*
X121084819Y-115842262D02*
X121084819Y-116413690D01*
X122084819Y-116127976D02*
X121084819Y-116127976D01*
X121084819Y-116889881D02*
X121322914Y-116889881D01*
X121227676Y-116651786D02*
X121322914Y-116889881D01*
X121322914Y-116889881D02*
X121227676Y-117127976D01*
X121513390Y-116747024D02*
X121322914Y-116889881D01*
X121322914Y-116889881D02*
X121513390Y-117032738D01*
X121989580Y-118080357D02*
X122037200Y-118032738D01*
X122037200Y-118032738D02*
X122084819Y-117889881D01*
X122084819Y-117889881D02*
X122084819Y-117794643D01*
X122084819Y-117794643D02*
X122037200Y-117651786D01*
X122037200Y-117651786D02*
X121941961Y-117556548D01*
X121941961Y-117556548D02*
X121846723Y-117508929D01*
X121846723Y-117508929D02*
X121656247Y-117461310D01*
X121656247Y-117461310D02*
X121513390Y-117461310D01*
X121513390Y-117461310D02*
X121322914Y-117508929D01*
X121322914Y-117508929D02*
X121227676Y-117556548D01*
X121227676Y-117556548D02*
X121132438Y-117651786D01*
X121132438Y-117651786D02*
X121084819Y-117794643D01*
X121084819Y-117794643D02*
X121084819Y-117889881D01*
X121084819Y-117889881D02*
X121132438Y-118032738D01*
X121132438Y-118032738D02*
X121180057Y-118080357D01*
X122084819Y-119032738D02*
X122084819Y-118461310D01*
X122084819Y-118747024D02*
X121084819Y-118747024D01*
X121084819Y-118747024D02*
X121227676Y-118651786D01*
X121227676Y-118651786D02*
X121322914Y-118556548D01*
X121322914Y-118556548D02*
X121370533Y-118461310D01*
X121084819Y-119651786D02*
X121084819Y-119747024D01*
X121084819Y-119747024D02*
X121132438Y-119842262D01*
X121132438Y-119842262D02*
X121180057Y-119889881D01*
X121180057Y-119889881D02*
X121275295Y-119937500D01*
X121275295Y-119937500D02*
X121465771Y-119985119D01*
X121465771Y-119985119D02*
X121703866Y-119985119D01*
X121703866Y-119985119D02*
X121894342Y-119937500D01*
X121894342Y-119937500D02*
X121989580Y-119889881D01*
X121989580Y-119889881D02*
X122037200Y-119842262D01*
X122037200Y-119842262D02*
X122084819Y-119747024D01*
X122084819Y-119747024D02*
X122084819Y-119651786D01*
X122084819Y-119651786D02*
X122037200Y-119556548D01*
X122037200Y-119556548D02*
X121989580Y-119508929D01*
X121989580Y-119508929D02*
X121894342Y-119461310D01*
X121894342Y-119461310D02*
X121703866Y-119413691D01*
X121703866Y-119413691D02*
X121465771Y-119413691D01*
X121465771Y-119413691D02*
X121275295Y-119461310D01*
X121275295Y-119461310D02*
X121180057Y-119508929D01*
X121180057Y-119508929D02*
X121132438Y-119556548D01*
X121132438Y-119556548D02*
X121084819Y-119651786D01*
X122084819Y-120461310D02*
X122084819Y-120651786D01*
X122084819Y-120651786D02*
X122037200Y-120747024D01*
X122037200Y-120747024D02*
X121989580Y-120794643D01*
X121989580Y-120794643D02*
X121846723Y-120889881D01*
X121846723Y-120889881D02*
X121656247Y-120937500D01*
X121656247Y-120937500D02*
X121275295Y-120937500D01*
X121275295Y-120937500D02*
X121180057Y-120889881D01*
X121180057Y-120889881D02*
X121132438Y-120842262D01*
X121132438Y-120842262D02*
X121084819Y-120747024D01*
X121084819Y-120747024D02*
X121084819Y-120556548D01*
X121084819Y-120556548D02*
X121132438Y-120461310D01*
X121132438Y-120461310D02*
X121180057Y-120413691D01*
X121180057Y-120413691D02*
X121275295Y-120366072D01*
X121275295Y-120366072D02*
X121513390Y-120366072D01*
X121513390Y-120366072D02*
X121608628Y-120413691D01*
X121608628Y-120413691D02*
X121656247Y-120461310D01*
X121656247Y-120461310D02*
X121703866Y-120556548D01*
X121703866Y-120556548D02*
X121703866Y-120747024D01*
X121703866Y-120747024D02*
X121656247Y-120842262D01*
X121656247Y-120842262D02*
X121608628Y-120889881D01*
X121608628Y-120889881D02*
X121513390Y-120937500D01*
X114224819Y-118480952D02*
X113748628Y-118147619D01*
X114224819Y-117909524D02*
X113224819Y-117909524D01*
X113224819Y-117909524D02*
X113224819Y-118290476D01*
X113224819Y-118290476D02*
X113272438Y-118385714D01*
X113272438Y-118385714D02*
X113320057Y-118433333D01*
X113320057Y-118433333D02*
X113415295Y-118480952D01*
X113415295Y-118480952D02*
X113558152Y-118480952D01*
X113558152Y-118480952D02*
X113653390Y-118433333D01*
X113653390Y-118433333D02*
X113701009Y-118385714D01*
X113701009Y-118385714D02*
X113748628Y-118290476D01*
X113748628Y-118290476D02*
X113748628Y-117909524D01*
X114224819Y-119433333D02*
X114224819Y-118861905D01*
X114224819Y-119147619D02*
X113224819Y-119147619D01*
X113224819Y-119147619D02*
X113367676Y-119052381D01*
X113367676Y-119052381D02*
X113462914Y-118957143D01*
X113462914Y-118957143D02*
X113510533Y-118861905D01*
X113320057Y-119814286D02*
X113272438Y-119861905D01*
X113272438Y-119861905D02*
X113224819Y-119957143D01*
X113224819Y-119957143D02*
X113224819Y-120195238D01*
X113224819Y-120195238D02*
X113272438Y-120290476D01*
X113272438Y-120290476D02*
X113320057Y-120338095D01*
X113320057Y-120338095D02*
X113415295Y-120385714D01*
X113415295Y-120385714D02*
X113510533Y-120385714D01*
X113510533Y-120385714D02*
X113653390Y-120338095D01*
X113653390Y-120338095D02*
X114224819Y-119766667D01*
X114224819Y-119766667D02*
X114224819Y-120385714D01*
X113653390Y-120957143D02*
X113605771Y-120861905D01*
X113605771Y-120861905D02*
X113558152Y-120814286D01*
X113558152Y-120814286D02*
X113462914Y-120766667D01*
X113462914Y-120766667D02*
X113415295Y-120766667D01*
X113415295Y-120766667D02*
X113320057Y-120814286D01*
X113320057Y-120814286D02*
X113272438Y-120861905D01*
X113272438Y-120861905D02*
X113224819Y-120957143D01*
X113224819Y-120957143D02*
X113224819Y-121147619D01*
X113224819Y-121147619D02*
X113272438Y-121242857D01*
X113272438Y-121242857D02*
X113320057Y-121290476D01*
X113320057Y-121290476D02*
X113415295Y-121338095D01*
X113415295Y-121338095D02*
X113462914Y-121338095D01*
X113462914Y-121338095D02*
X113558152Y-121290476D01*
X113558152Y-121290476D02*
X113605771Y-121242857D01*
X113605771Y-121242857D02*
X113653390Y-121147619D01*
X113653390Y-121147619D02*
X113653390Y-120957143D01*
X113653390Y-120957143D02*
X113701009Y-120861905D01*
X113701009Y-120861905D02*
X113748628Y-120814286D01*
X113748628Y-120814286D02*
X113843866Y-120766667D01*
X113843866Y-120766667D02*
X114034342Y-120766667D01*
X114034342Y-120766667D02*
X114129580Y-120814286D01*
X114129580Y-120814286D02*
X114177200Y-120861905D01*
X114177200Y-120861905D02*
X114224819Y-120957143D01*
X114224819Y-120957143D02*
X114224819Y-121147619D01*
X114224819Y-121147619D02*
X114177200Y-121242857D01*
X114177200Y-121242857D02*
X114129580Y-121290476D01*
X114129580Y-121290476D02*
X114034342Y-121338095D01*
X114034342Y-121338095D02*
X113843866Y-121338095D01*
X113843866Y-121338095D02*
X113748628Y-121290476D01*
X113748628Y-121290476D02*
X113701009Y-121242857D01*
X113701009Y-121242857D02*
X113653390Y-121147619D01*
X121729580Y-110280952D02*
X121777200Y-110233333D01*
X121777200Y-110233333D02*
X121824819Y-110090476D01*
X121824819Y-110090476D02*
X121824819Y-109995238D01*
X121824819Y-109995238D02*
X121777200Y-109852381D01*
X121777200Y-109852381D02*
X121681961Y-109757143D01*
X121681961Y-109757143D02*
X121586723Y-109709524D01*
X121586723Y-109709524D02*
X121396247Y-109661905D01*
X121396247Y-109661905D02*
X121253390Y-109661905D01*
X121253390Y-109661905D02*
X121062914Y-109709524D01*
X121062914Y-109709524D02*
X120967676Y-109757143D01*
X120967676Y-109757143D02*
X120872438Y-109852381D01*
X120872438Y-109852381D02*
X120824819Y-109995238D01*
X120824819Y-109995238D02*
X120824819Y-110090476D01*
X120824819Y-110090476D02*
X120872438Y-110233333D01*
X120872438Y-110233333D02*
X120920057Y-110280952D01*
X121824819Y-111233333D02*
X121824819Y-110661905D01*
X121824819Y-110947619D02*
X120824819Y-110947619D01*
X120824819Y-110947619D02*
X120967676Y-110852381D01*
X120967676Y-110852381D02*
X121062914Y-110757143D01*
X121062914Y-110757143D02*
X121110533Y-110661905D01*
X120920057Y-111614286D02*
X120872438Y-111661905D01*
X120872438Y-111661905D02*
X120824819Y-111757143D01*
X120824819Y-111757143D02*
X120824819Y-111995238D01*
X120824819Y-111995238D02*
X120872438Y-112090476D01*
X120872438Y-112090476D02*
X120920057Y-112138095D01*
X120920057Y-112138095D02*
X121015295Y-112185714D01*
X121015295Y-112185714D02*
X121110533Y-112185714D01*
X121110533Y-112185714D02*
X121253390Y-112138095D01*
X121253390Y-112138095D02*
X121824819Y-111566667D01*
X121824819Y-111566667D02*
X121824819Y-112185714D01*
X121158152Y-113042857D02*
X121824819Y-113042857D01*
X120777200Y-112804762D02*
X121491485Y-112566667D01*
X121491485Y-112566667D02*
X121491485Y-113185714D01*
X94344447Y-120372079D02*
X94392066Y-120419699D01*
X94392066Y-120419699D02*
X94534923Y-120467318D01*
X94534923Y-120467318D02*
X94630161Y-120467318D01*
X94630161Y-120467318D02*
X94773018Y-120419699D01*
X94773018Y-120419699D02*
X94868256Y-120324460D01*
X94868256Y-120324460D02*
X94915875Y-120229222D01*
X94915875Y-120229222D02*
X94963494Y-120038746D01*
X94963494Y-120038746D02*
X94963494Y-119895889D01*
X94963494Y-119895889D02*
X94915875Y-119705413D01*
X94915875Y-119705413D02*
X94868256Y-119610175D01*
X94868256Y-119610175D02*
X94773018Y-119514937D01*
X94773018Y-119514937D02*
X94630161Y-119467318D01*
X94630161Y-119467318D02*
X94534923Y-119467318D01*
X94534923Y-119467318D02*
X94392066Y-119514937D01*
X94392066Y-119514937D02*
X94344447Y-119562556D01*
X93392066Y-120467318D02*
X93963494Y-120467318D01*
X93677780Y-120467318D02*
X93677780Y-119467318D01*
X93677780Y-119467318D02*
X93773018Y-119610175D01*
X93773018Y-119610175D02*
X93868256Y-119705413D01*
X93868256Y-119705413D02*
X93963494Y-119753032D01*
X93058732Y-119467318D02*
X92439685Y-119467318D01*
X92439685Y-119467318D02*
X92773018Y-119848270D01*
X92773018Y-119848270D02*
X92630161Y-119848270D01*
X92630161Y-119848270D02*
X92534923Y-119895889D01*
X92534923Y-119895889D02*
X92487304Y-119943508D01*
X92487304Y-119943508D02*
X92439685Y-120038746D01*
X92439685Y-120038746D02*
X92439685Y-120276841D01*
X92439685Y-120276841D02*
X92487304Y-120372079D01*
X92487304Y-120372079D02*
X92534923Y-120419699D01*
X92534923Y-120419699D02*
X92630161Y-120467318D01*
X92630161Y-120467318D02*
X92915875Y-120467318D01*
X92915875Y-120467318D02*
X93011113Y-120419699D01*
X93011113Y-120419699D02*
X93058732Y-120372079D01*
X91487304Y-120467318D02*
X92058732Y-120467318D01*
X91773018Y-120467318D02*
X91773018Y-119467318D01*
X91773018Y-119467318D02*
X91868256Y-119610175D01*
X91868256Y-119610175D02*
X91963494Y-119705413D01*
X91963494Y-119705413D02*
X92058732Y-119753032D01*
X94293647Y-121347080D02*
X94341266Y-121394700D01*
X94341266Y-121394700D02*
X94484123Y-121442319D01*
X94484123Y-121442319D02*
X94579361Y-121442319D01*
X94579361Y-121442319D02*
X94722218Y-121394700D01*
X94722218Y-121394700D02*
X94817456Y-121299461D01*
X94817456Y-121299461D02*
X94865075Y-121204223D01*
X94865075Y-121204223D02*
X94912694Y-121013747D01*
X94912694Y-121013747D02*
X94912694Y-120870890D01*
X94912694Y-120870890D02*
X94865075Y-120680414D01*
X94865075Y-120680414D02*
X94817456Y-120585176D01*
X94817456Y-120585176D02*
X94722218Y-120489938D01*
X94722218Y-120489938D02*
X94579361Y-120442319D01*
X94579361Y-120442319D02*
X94484123Y-120442319D01*
X94484123Y-120442319D02*
X94341266Y-120489938D01*
X94341266Y-120489938D02*
X94293647Y-120537557D01*
X93341266Y-121442319D02*
X93912694Y-121442319D01*
X93626980Y-121442319D02*
X93626980Y-120442319D01*
X93626980Y-120442319D02*
X93722218Y-120585176D01*
X93722218Y-120585176D02*
X93817456Y-120680414D01*
X93817456Y-120680414D02*
X93912694Y-120728033D01*
X93007932Y-120442319D02*
X92388885Y-120442319D01*
X92388885Y-120442319D02*
X92722218Y-120823271D01*
X92722218Y-120823271D02*
X92579361Y-120823271D01*
X92579361Y-120823271D02*
X92484123Y-120870890D01*
X92484123Y-120870890D02*
X92436504Y-120918509D01*
X92436504Y-120918509D02*
X92388885Y-121013747D01*
X92388885Y-121013747D02*
X92388885Y-121251842D01*
X92388885Y-121251842D02*
X92436504Y-121347080D01*
X92436504Y-121347080D02*
X92484123Y-121394700D01*
X92484123Y-121394700D02*
X92579361Y-121442319D01*
X92579361Y-121442319D02*
X92865075Y-121442319D01*
X92865075Y-121442319D02*
X92960313Y-121394700D01*
X92960313Y-121394700D02*
X93007932Y-121347080D01*
X91769837Y-120442319D02*
X91674599Y-120442319D01*
X91674599Y-120442319D02*
X91579361Y-120489938D01*
X91579361Y-120489938D02*
X91531742Y-120537557D01*
X91531742Y-120537557D02*
X91484123Y-120632795D01*
X91484123Y-120632795D02*
X91436504Y-120823271D01*
X91436504Y-120823271D02*
X91436504Y-121061366D01*
X91436504Y-121061366D02*
X91484123Y-121251842D01*
X91484123Y-121251842D02*
X91531742Y-121347080D01*
X91531742Y-121347080D02*
X91579361Y-121394700D01*
X91579361Y-121394700D02*
X91674599Y-121442319D01*
X91674599Y-121442319D02*
X91769837Y-121442319D01*
X91769837Y-121442319D02*
X91865075Y-121394700D01*
X91865075Y-121394700D02*
X91912694Y-121347080D01*
X91912694Y-121347080D02*
X91960313Y-121251842D01*
X91960313Y-121251842D02*
X92007932Y-121061366D01*
X92007932Y-121061366D02*
X92007932Y-120823271D01*
X92007932Y-120823271D02*
X91960313Y-120632795D01*
X91960313Y-120632795D02*
X91912694Y-120537557D01*
X91912694Y-120537557D02*
X91865075Y-120489938D01*
X91865075Y-120489938D02*
X91769837Y-120442319D01*
D11*
X107798830Y-102747618D02*
X107760735Y-102671428D01*
X107760735Y-102671428D02*
X107760735Y-102557142D01*
X107760735Y-102557142D02*
X107798830Y-102442856D01*
X107798830Y-102442856D02*
X107875020Y-102366666D01*
X107875020Y-102366666D02*
X107951211Y-102328571D01*
X107951211Y-102328571D02*
X108103592Y-102290475D01*
X108103592Y-102290475D02*
X108217878Y-102290475D01*
X108217878Y-102290475D02*
X108370259Y-102328571D01*
X108370259Y-102328571D02*
X108446449Y-102366666D01*
X108446449Y-102366666D02*
X108522640Y-102442856D01*
X108522640Y-102442856D02*
X108560735Y-102557142D01*
X108560735Y-102557142D02*
X108560735Y-102633333D01*
X108560735Y-102633333D02*
X108522640Y-102747618D01*
X108522640Y-102747618D02*
X108484544Y-102785714D01*
X108484544Y-102785714D02*
X108217878Y-102785714D01*
X108217878Y-102785714D02*
X108217878Y-102633333D01*
X108560735Y-103128571D02*
X107760735Y-103128571D01*
X107760735Y-103128571D02*
X108560735Y-103585714D01*
X108560735Y-103585714D02*
X107760735Y-103585714D01*
X108560735Y-103966666D02*
X107760735Y-103966666D01*
X107760735Y-103966666D02*
X107760735Y-104157142D01*
X107760735Y-104157142D02*
X107798830Y-104271428D01*
X107798830Y-104271428D02*
X107875020Y-104347618D01*
X107875020Y-104347618D02*
X107951211Y-104385713D01*
X107951211Y-104385713D02*
X108103592Y-104423809D01*
X108103592Y-104423809D02*
X108217878Y-104423809D01*
X108217878Y-104423809D02*
X108370259Y-104385713D01*
X108370259Y-104385713D02*
X108446449Y-104347618D01*
X108446449Y-104347618D02*
X108522640Y-104271428D01*
X108522640Y-104271428D02*
X108560735Y-104157142D01*
X108560735Y-104157142D02*
X108560735Y-103966666D01*
X108560735Y-105185713D02*
X108560735Y-104728570D01*
X108560735Y-104957142D02*
X107760735Y-104957142D01*
X107760735Y-104957142D02*
X107875020Y-104880951D01*
X107875020Y-104880951D02*
X107951211Y-104804761D01*
X107951211Y-104804761D02*
X107989306Y-104728570D01*
X107760735Y-105680952D02*
X107760735Y-105757142D01*
X107760735Y-105757142D02*
X107798830Y-105833333D01*
X107798830Y-105833333D02*
X107836925Y-105871428D01*
X107836925Y-105871428D02*
X107913116Y-105909523D01*
X107913116Y-105909523D02*
X108065497Y-105947618D01*
X108065497Y-105947618D02*
X108255973Y-105947618D01*
X108255973Y-105947618D02*
X108408354Y-105909523D01*
X108408354Y-105909523D02*
X108484544Y-105871428D01*
X108484544Y-105871428D02*
X108522640Y-105833333D01*
X108522640Y-105833333D02*
X108560735Y-105757142D01*
X108560735Y-105757142D02*
X108560735Y-105680952D01*
X108560735Y-105680952D02*
X108522640Y-105604761D01*
X108522640Y-105604761D02*
X108484544Y-105566666D01*
X108484544Y-105566666D02*
X108408354Y-105528571D01*
X108408354Y-105528571D02*
X108255973Y-105490475D01*
X108255973Y-105490475D02*
X108065497Y-105490475D01*
X108065497Y-105490475D02*
X107913116Y-105528571D01*
X107913116Y-105528571D02*
X107836925Y-105566666D01*
X107836925Y-105566666D02*
X107798830Y-105604761D01*
X107798830Y-105604761D02*
X107760735Y-105680952D01*
X108103592Y-106404761D02*
X108065497Y-106328571D01*
X108065497Y-106328571D02*
X108027401Y-106290476D01*
X108027401Y-106290476D02*
X107951211Y-106252380D01*
X107951211Y-106252380D02*
X107913116Y-106252380D01*
X107913116Y-106252380D02*
X107836925Y-106290476D01*
X107836925Y-106290476D02*
X107798830Y-106328571D01*
X107798830Y-106328571D02*
X107760735Y-106404761D01*
X107760735Y-106404761D02*
X107760735Y-106557142D01*
X107760735Y-106557142D02*
X107798830Y-106633333D01*
X107798830Y-106633333D02*
X107836925Y-106671428D01*
X107836925Y-106671428D02*
X107913116Y-106709523D01*
X107913116Y-106709523D02*
X107951211Y-106709523D01*
X107951211Y-106709523D02*
X108027401Y-106671428D01*
X108027401Y-106671428D02*
X108065497Y-106633333D01*
X108065497Y-106633333D02*
X108103592Y-106557142D01*
X108103592Y-106557142D02*
X108103592Y-106404761D01*
X108103592Y-106404761D02*
X108141687Y-106328571D01*
X108141687Y-106328571D02*
X108179782Y-106290476D01*
X108179782Y-106290476D02*
X108255973Y-106252380D01*
X108255973Y-106252380D02*
X108408354Y-106252380D01*
X108408354Y-106252380D02*
X108484544Y-106290476D01*
X108484544Y-106290476D02*
X108522640Y-106328571D01*
X108522640Y-106328571D02*
X108560735Y-106404761D01*
X108560735Y-106404761D02*
X108560735Y-106557142D01*
X108560735Y-106557142D02*
X108522640Y-106633333D01*
X108522640Y-106633333D02*
X108484544Y-106671428D01*
X108484544Y-106671428D02*
X108408354Y-106709523D01*
X108408354Y-106709523D02*
X108255973Y-106709523D01*
X108255973Y-106709523D02*
X108179782Y-106671428D01*
X108179782Y-106671428D02*
X108141687Y-106633333D01*
X108141687Y-106633333D02*
X108103592Y-106557142D01*
D10*
X108800390Y-102272744D02*
X108762295Y-102196554D01*
X108762295Y-102196554D02*
X108762295Y-102082268D01*
X108762295Y-102082268D02*
X108800390Y-101967982D01*
X108800390Y-101967982D02*
X108876580Y-101891792D01*
X108876580Y-101891792D02*
X108952771Y-101853697D01*
X108952771Y-101853697D02*
X109105152Y-101815601D01*
X109105152Y-101815601D02*
X109219438Y-101815601D01*
X109219438Y-101815601D02*
X109371819Y-101853697D01*
X109371819Y-101853697D02*
X109448009Y-101891792D01*
X109448009Y-101891792D02*
X109524200Y-101967982D01*
X109524200Y-101967982D02*
X109562295Y-102082268D01*
X109562295Y-102082268D02*
X109562295Y-102158459D01*
X109562295Y-102158459D02*
X109524200Y-102272744D01*
X109524200Y-102272744D02*
X109486104Y-102310840D01*
X109486104Y-102310840D02*
X109219438Y-102310840D01*
X109219438Y-102310840D02*
X109219438Y-102158459D01*
X109562295Y-102653697D02*
X108762295Y-102653697D01*
X108762295Y-102653697D02*
X109562295Y-103110840D01*
X109562295Y-103110840D02*
X108762295Y-103110840D01*
X109562295Y-103491792D02*
X108762295Y-103491792D01*
X108762295Y-103491792D02*
X108762295Y-103682268D01*
X108762295Y-103682268D02*
X108800390Y-103796554D01*
X108800390Y-103796554D02*
X108876580Y-103872744D01*
X108876580Y-103872744D02*
X108952771Y-103910839D01*
X108952771Y-103910839D02*
X109105152Y-103948935D01*
X109105152Y-103948935D02*
X109219438Y-103948935D01*
X109219438Y-103948935D02*
X109371819Y-103910839D01*
X109371819Y-103910839D02*
X109448009Y-103872744D01*
X109448009Y-103872744D02*
X109524200Y-103796554D01*
X109524200Y-103796554D02*
X109562295Y-103682268D01*
X109562295Y-103682268D02*
X109562295Y-103491792D01*
X119129580Y-110380952D02*
X119177200Y-110333333D01*
X119177200Y-110333333D02*
X119224819Y-110190476D01*
X119224819Y-110190476D02*
X119224819Y-110095238D01*
X119224819Y-110095238D02*
X119177200Y-109952381D01*
X119177200Y-109952381D02*
X119081961Y-109857143D01*
X119081961Y-109857143D02*
X118986723Y-109809524D01*
X118986723Y-109809524D02*
X118796247Y-109761905D01*
X118796247Y-109761905D02*
X118653390Y-109761905D01*
X118653390Y-109761905D02*
X118462914Y-109809524D01*
X118462914Y-109809524D02*
X118367676Y-109857143D01*
X118367676Y-109857143D02*
X118272438Y-109952381D01*
X118272438Y-109952381D02*
X118224819Y-110095238D01*
X118224819Y-110095238D02*
X118224819Y-110190476D01*
X118224819Y-110190476D02*
X118272438Y-110333333D01*
X118272438Y-110333333D02*
X118320057Y-110380952D01*
X119224819Y-111333333D02*
X119224819Y-110761905D01*
X119224819Y-111047619D02*
X118224819Y-111047619D01*
X118224819Y-111047619D02*
X118367676Y-110952381D01*
X118367676Y-110952381D02*
X118462914Y-110857143D01*
X118462914Y-110857143D02*
X118510533Y-110761905D01*
X118320057Y-111714286D02*
X118272438Y-111761905D01*
X118272438Y-111761905D02*
X118224819Y-111857143D01*
X118224819Y-111857143D02*
X118224819Y-112095238D01*
X118224819Y-112095238D02*
X118272438Y-112190476D01*
X118272438Y-112190476D02*
X118320057Y-112238095D01*
X118320057Y-112238095D02*
X118415295Y-112285714D01*
X118415295Y-112285714D02*
X118510533Y-112285714D01*
X118510533Y-112285714D02*
X118653390Y-112238095D01*
X118653390Y-112238095D02*
X119224819Y-111666667D01*
X119224819Y-111666667D02*
X119224819Y-112285714D01*
X118224819Y-113190476D02*
X118224819Y-112714286D01*
X118224819Y-112714286D02*
X118701009Y-112666667D01*
X118701009Y-112666667D02*
X118653390Y-112714286D01*
X118653390Y-112714286D02*
X118605771Y-112809524D01*
X118605771Y-112809524D02*
X118605771Y-113047619D01*
X118605771Y-113047619D02*
X118653390Y-113142857D01*
X118653390Y-113142857D02*
X118701009Y-113190476D01*
X118701009Y-113190476D02*
X118796247Y-113238095D01*
X118796247Y-113238095D02*
X119034342Y-113238095D01*
X119034342Y-113238095D02*
X119129580Y-113190476D01*
X119129580Y-113190476D02*
X119177200Y-113142857D01*
X119177200Y-113142857D02*
X119224819Y-113047619D01*
X119224819Y-113047619D02*
X119224819Y-112809524D01*
X119224819Y-112809524D02*
X119177200Y-112714286D01*
X119177200Y-112714286D02*
X119129580Y-112666667D01*
D11*
X127160735Y-106325357D02*
X126360735Y-106325357D01*
X127160735Y-106706309D02*
X126360735Y-106706309D01*
X126360735Y-106706309D02*
X127160735Y-107163452D01*
X127160735Y-107163452D02*
X126360735Y-107163452D01*
X127160735Y-107544404D02*
X126360735Y-107544404D01*
X126360735Y-107544404D02*
X126932163Y-107811070D01*
X126932163Y-107811070D02*
X126360735Y-108077737D01*
X126360735Y-108077737D02*
X127160735Y-108077737D01*
X126436925Y-108420594D02*
X126398830Y-108458690D01*
X126398830Y-108458690D02*
X126360735Y-108534880D01*
X126360735Y-108534880D02*
X126360735Y-108725356D01*
X126360735Y-108725356D02*
X126398830Y-108801547D01*
X126398830Y-108801547D02*
X126436925Y-108839642D01*
X126436925Y-108839642D02*
X126513116Y-108877737D01*
X126513116Y-108877737D02*
X126589306Y-108877737D01*
X126589306Y-108877737D02*
X126703592Y-108839642D01*
X126703592Y-108839642D02*
X127160735Y-108382499D01*
X127160735Y-108382499D02*
X127160735Y-108877737D01*
D10*
X125362295Y-107971660D02*
X124562295Y-107971660D01*
X125362295Y-108352612D02*
X124562295Y-108352612D01*
X124562295Y-108352612D02*
X125362295Y-108809755D01*
X125362295Y-108809755D02*
X124562295Y-108809755D01*
X125362295Y-109190707D02*
X124562295Y-109190707D01*
X124562295Y-109190707D02*
X125133723Y-109457373D01*
X125133723Y-109457373D02*
X124562295Y-109724040D01*
X124562295Y-109724040D02*
X125362295Y-109724040D01*
X124638485Y-110066897D02*
X124600390Y-110104993D01*
X124600390Y-110104993D02*
X124562295Y-110181183D01*
X124562295Y-110181183D02*
X124562295Y-110371659D01*
X124562295Y-110371659D02*
X124600390Y-110447850D01*
X124600390Y-110447850D02*
X124638485Y-110485945D01*
X124638485Y-110485945D02*
X124714676Y-110524040D01*
X124714676Y-110524040D02*
X124790866Y-110524040D01*
X124790866Y-110524040D02*
X124905152Y-110485945D01*
X124905152Y-110485945D02*
X125362295Y-110028802D01*
X125362295Y-110028802D02*
X125362295Y-110524040D01*
X95709580Y-113780952D02*
X95757200Y-113733333D01*
X95757200Y-113733333D02*
X95804819Y-113590476D01*
X95804819Y-113590476D02*
X95804819Y-113495238D01*
X95804819Y-113495238D02*
X95757200Y-113352381D01*
X95757200Y-113352381D02*
X95661961Y-113257143D01*
X95661961Y-113257143D02*
X95566723Y-113209524D01*
X95566723Y-113209524D02*
X95376247Y-113161905D01*
X95376247Y-113161905D02*
X95233390Y-113161905D01*
X95233390Y-113161905D02*
X95042914Y-113209524D01*
X95042914Y-113209524D02*
X94947676Y-113257143D01*
X94947676Y-113257143D02*
X94852438Y-113352381D01*
X94852438Y-113352381D02*
X94804819Y-113495238D01*
X94804819Y-113495238D02*
X94804819Y-113590476D01*
X94804819Y-113590476D02*
X94852438Y-113733333D01*
X94852438Y-113733333D02*
X94900057Y-113780952D01*
X95804819Y-114733333D02*
X95804819Y-114161905D01*
X95804819Y-114447619D02*
X94804819Y-114447619D01*
X94804819Y-114447619D02*
X94947676Y-114352381D01*
X94947676Y-114352381D02*
X95042914Y-114257143D01*
X95042914Y-114257143D02*
X95090533Y-114161905D01*
X95804819Y-115685714D02*
X95804819Y-115114286D01*
X95804819Y-115400000D02*
X94804819Y-115400000D01*
X94804819Y-115400000D02*
X94947676Y-115304762D01*
X94947676Y-115304762D02*
X95042914Y-115209524D01*
X95042914Y-115209524D02*
X95090533Y-115114286D01*
X95138152Y-116542857D02*
X95804819Y-116542857D01*
X94757200Y-116304762D02*
X95471485Y-116066667D01*
X95471485Y-116066667D02*
X95471485Y-116685714D01*
X112712295Y-116223809D02*
X112712295Y-116680952D01*
X113512295Y-116452380D02*
X112712295Y-116452380D01*
X112712295Y-117061904D02*
X112902771Y-117061904D01*
X112826580Y-116871428D02*
X112902771Y-117061904D01*
X112902771Y-117061904D02*
X112826580Y-117252381D01*
X113055152Y-116947619D02*
X112902771Y-117061904D01*
X112902771Y-117061904D02*
X113055152Y-117176190D01*
X113436104Y-118014286D02*
X113474200Y-117976190D01*
X113474200Y-117976190D02*
X113512295Y-117861905D01*
X113512295Y-117861905D02*
X113512295Y-117785714D01*
X113512295Y-117785714D02*
X113474200Y-117671428D01*
X113474200Y-117671428D02*
X113398009Y-117595238D01*
X113398009Y-117595238D02*
X113321819Y-117557143D01*
X113321819Y-117557143D02*
X113169438Y-117519047D01*
X113169438Y-117519047D02*
X113055152Y-117519047D01*
X113055152Y-117519047D02*
X112902771Y-117557143D01*
X112902771Y-117557143D02*
X112826580Y-117595238D01*
X112826580Y-117595238D02*
X112750390Y-117671428D01*
X112750390Y-117671428D02*
X112712295Y-117785714D01*
X112712295Y-117785714D02*
X112712295Y-117861905D01*
X112712295Y-117861905D02*
X112750390Y-117976190D01*
X112750390Y-117976190D02*
X112788485Y-118014286D01*
X113512295Y-118776190D02*
X113512295Y-118319047D01*
X113512295Y-118547619D02*
X112712295Y-118547619D01*
X112712295Y-118547619D02*
X112826580Y-118471428D01*
X112826580Y-118471428D02*
X112902771Y-118395238D01*
X112902771Y-118395238D02*
X112940866Y-118319047D01*
X113512295Y-119538095D02*
X113512295Y-119080952D01*
X113512295Y-119309524D02*
X112712295Y-119309524D01*
X112712295Y-119309524D02*
X112826580Y-119233333D01*
X112826580Y-119233333D02*
X112902771Y-119157143D01*
X112902771Y-119157143D02*
X112940866Y-119080952D01*
X112712295Y-120033334D02*
X112712295Y-120109524D01*
X112712295Y-120109524D02*
X112750390Y-120185715D01*
X112750390Y-120185715D02*
X112788485Y-120223810D01*
X112788485Y-120223810D02*
X112864676Y-120261905D01*
X112864676Y-120261905D02*
X113017057Y-120300000D01*
X113017057Y-120300000D02*
X113207533Y-120300000D01*
X113207533Y-120300000D02*
X113359914Y-120261905D01*
X113359914Y-120261905D02*
X113436104Y-120223810D01*
X113436104Y-120223810D02*
X113474200Y-120185715D01*
X113474200Y-120185715D02*
X113512295Y-120109524D01*
X113512295Y-120109524D02*
X113512295Y-120033334D01*
X113512295Y-120033334D02*
X113474200Y-119957143D01*
X113474200Y-119957143D02*
X113436104Y-119919048D01*
X113436104Y-119919048D02*
X113359914Y-119880953D01*
X113359914Y-119880953D02*
X113207533Y-119842857D01*
X113207533Y-119842857D02*
X113017057Y-119842857D01*
X113017057Y-119842857D02*
X112864676Y-119880953D01*
X112864676Y-119880953D02*
X112788485Y-119919048D01*
X112788485Y-119919048D02*
X112750390Y-119957143D01*
X112750390Y-119957143D02*
X112712295Y-120033334D01*
D11*
X105560735Y-106385714D02*
X105560735Y-106538095D01*
X105560735Y-106538095D02*
X105598830Y-106614285D01*
X105598830Y-106614285D02*
X105675020Y-106690476D01*
X105675020Y-106690476D02*
X105827401Y-106728571D01*
X105827401Y-106728571D02*
X106094068Y-106728571D01*
X106094068Y-106728571D02*
X106246449Y-106690476D01*
X106246449Y-106690476D02*
X106322640Y-106614285D01*
X106322640Y-106614285D02*
X106360735Y-106538095D01*
X106360735Y-106538095D02*
X106360735Y-106385714D01*
X106360735Y-106385714D02*
X106322640Y-106309523D01*
X106322640Y-106309523D02*
X106246449Y-106233333D01*
X106246449Y-106233333D02*
X106094068Y-106195237D01*
X106094068Y-106195237D02*
X105827401Y-106195237D01*
X105827401Y-106195237D02*
X105675020Y-106233333D01*
X105675020Y-106233333D02*
X105598830Y-106309523D01*
X105598830Y-106309523D02*
X105560735Y-106385714D01*
X106360735Y-107071428D02*
X105560735Y-107071428D01*
X105560735Y-107071428D02*
X106132163Y-107338094D01*
X106132163Y-107338094D02*
X105560735Y-107604761D01*
X105560735Y-107604761D02*
X106360735Y-107604761D01*
X105636925Y-107947618D02*
X105598830Y-107985714D01*
X105598830Y-107985714D02*
X105560735Y-108061904D01*
X105560735Y-108061904D02*
X105560735Y-108252380D01*
X105560735Y-108252380D02*
X105598830Y-108328571D01*
X105598830Y-108328571D02*
X105636925Y-108366666D01*
X105636925Y-108366666D02*
X105713116Y-108404761D01*
X105713116Y-108404761D02*
X105789306Y-108404761D01*
X105789306Y-108404761D02*
X105903592Y-108366666D01*
X105903592Y-108366666D02*
X106360735Y-107909523D01*
X106360735Y-107909523D02*
X106360735Y-108404761D01*
D10*
X103762295Y-107841541D02*
X103762295Y-107993922D01*
X103762295Y-107993922D02*
X103800390Y-108070112D01*
X103800390Y-108070112D02*
X103876580Y-108146303D01*
X103876580Y-108146303D02*
X104028961Y-108184398D01*
X104028961Y-108184398D02*
X104295628Y-108184398D01*
X104295628Y-108184398D02*
X104448009Y-108146303D01*
X104448009Y-108146303D02*
X104524200Y-108070112D01*
X104524200Y-108070112D02*
X104562295Y-107993922D01*
X104562295Y-107993922D02*
X104562295Y-107841541D01*
X104562295Y-107841541D02*
X104524200Y-107765350D01*
X104524200Y-107765350D02*
X104448009Y-107689160D01*
X104448009Y-107689160D02*
X104295628Y-107651064D01*
X104295628Y-107651064D02*
X104028961Y-107651064D01*
X104028961Y-107651064D02*
X103876580Y-107689160D01*
X103876580Y-107689160D02*
X103800390Y-107765350D01*
X103800390Y-107765350D02*
X103762295Y-107841541D01*
X104562295Y-108527255D02*
X103762295Y-108527255D01*
X103762295Y-108527255D02*
X104333723Y-108793921D01*
X104333723Y-108793921D02*
X103762295Y-109060588D01*
X103762295Y-109060588D02*
X104562295Y-109060588D01*
X103838485Y-109403445D02*
X103800390Y-109441541D01*
X103800390Y-109441541D02*
X103762295Y-109517731D01*
X103762295Y-109517731D02*
X103762295Y-109708207D01*
X103762295Y-109708207D02*
X103800390Y-109784398D01*
X103800390Y-109784398D02*
X103838485Y-109822493D01*
X103838485Y-109822493D02*
X103914676Y-109860588D01*
X103914676Y-109860588D02*
X103990866Y-109860588D01*
X103990866Y-109860588D02*
X104105152Y-109822493D01*
X104105152Y-109822493D02*
X104562295Y-109365350D01*
X104562295Y-109365350D02*
X104562295Y-109860588D01*
D11*
X121252381Y-114160735D02*
X120757143Y-114160735D01*
X120757143Y-114160735D02*
X121023809Y-114465497D01*
X121023809Y-114465497D02*
X120909524Y-114465497D01*
X120909524Y-114465497D02*
X120833333Y-114503592D01*
X120833333Y-114503592D02*
X120795238Y-114541687D01*
X120795238Y-114541687D02*
X120757143Y-114617878D01*
X120757143Y-114617878D02*
X120757143Y-114808354D01*
X120757143Y-114808354D02*
X120795238Y-114884544D01*
X120795238Y-114884544D02*
X120833333Y-114922640D01*
X120833333Y-114922640D02*
X120909524Y-114960735D01*
X120909524Y-114960735D02*
X121138095Y-114960735D01*
X121138095Y-114960735D02*
X121214286Y-114922640D01*
X121214286Y-114922640D02*
X121252381Y-114884544D01*
X120528571Y-114160735D02*
X120261904Y-114960735D01*
X120261904Y-114960735D02*
X119995238Y-114160735D01*
X119309524Y-114960735D02*
X119766667Y-114960735D01*
X119538095Y-114960735D02*
X119538095Y-114160735D01*
X119538095Y-114160735D02*
X119614286Y-114275020D01*
X119614286Y-114275020D02*
X119690476Y-114351211D01*
X119690476Y-114351211D02*
X119766667Y-114389306D01*
X118814285Y-114160735D02*
X118738095Y-114160735D01*
X118738095Y-114160735D02*
X118661904Y-114198830D01*
X118661904Y-114198830D02*
X118623809Y-114236925D01*
X118623809Y-114236925D02*
X118585714Y-114313116D01*
X118585714Y-114313116D02*
X118547619Y-114465497D01*
X118547619Y-114465497D02*
X118547619Y-114655973D01*
X118547619Y-114655973D02*
X118585714Y-114808354D01*
X118585714Y-114808354D02*
X118623809Y-114884544D01*
X118623809Y-114884544D02*
X118661904Y-114922640D01*
X118661904Y-114922640D02*
X118738095Y-114960735D01*
X118738095Y-114960735D02*
X118814285Y-114960735D01*
X118814285Y-114960735D02*
X118890476Y-114922640D01*
X118890476Y-114922640D02*
X118928571Y-114884544D01*
X118928571Y-114884544D02*
X118966666Y-114808354D01*
X118966666Y-114808354D02*
X119004762Y-114655973D01*
X119004762Y-114655973D02*
X119004762Y-114465497D01*
X119004762Y-114465497D02*
X118966666Y-114313116D01*
X118966666Y-114313116D02*
X118928571Y-114236925D01*
X118928571Y-114236925D02*
X118890476Y-114198830D01*
X118890476Y-114198830D02*
X118814285Y-114160735D01*
X118090476Y-114503592D02*
X118166666Y-114465497D01*
X118166666Y-114465497D02*
X118204761Y-114427401D01*
X118204761Y-114427401D02*
X118242857Y-114351211D01*
X118242857Y-114351211D02*
X118242857Y-114313116D01*
X118242857Y-114313116D02*
X118204761Y-114236925D01*
X118204761Y-114236925D02*
X118166666Y-114198830D01*
X118166666Y-114198830D02*
X118090476Y-114160735D01*
X118090476Y-114160735D02*
X117938095Y-114160735D01*
X117938095Y-114160735D02*
X117861904Y-114198830D01*
X117861904Y-114198830D02*
X117823809Y-114236925D01*
X117823809Y-114236925D02*
X117785714Y-114313116D01*
X117785714Y-114313116D02*
X117785714Y-114351211D01*
X117785714Y-114351211D02*
X117823809Y-114427401D01*
X117823809Y-114427401D02*
X117861904Y-114465497D01*
X117861904Y-114465497D02*
X117938095Y-114503592D01*
X117938095Y-114503592D02*
X118090476Y-114503592D01*
X118090476Y-114503592D02*
X118166666Y-114541687D01*
X118166666Y-114541687D02*
X118204761Y-114579782D01*
X118204761Y-114579782D02*
X118242857Y-114655973D01*
X118242857Y-114655973D02*
X118242857Y-114808354D01*
X118242857Y-114808354D02*
X118204761Y-114884544D01*
X118204761Y-114884544D02*
X118166666Y-114922640D01*
X118166666Y-114922640D02*
X118090476Y-114960735D01*
X118090476Y-114960735D02*
X117938095Y-114960735D01*
X117938095Y-114960735D02*
X117861904Y-114922640D01*
X117861904Y-114922640D02*
X117823809Y-114884544D01*
X117823809Y-114884544D02*
X117785714Y-114808354D01*
X117785714Y-114808354D02*
X117785714Y-114655973D01*
X117785714Y-114655973D02*
X117823809Y-114579782D01*
X117823809Y-114579782D02*
X117861904Y-114541687D01*
X117861904Y-114541687D02*
X117938095Y-114503592D01*
D10*
X120262969Y-116047704D02*
X120758207Y-116047704D01*
X120758207Y-116047704D02*
X120491541Y-115742942D01*
X120491541Y-115742942D02*
X120605826Y-115742942D01*
X120605826Y-115742942D02*
X120682017Y-115704847D01*
X120682017Y-115704847D02*
X120720112Y-115666752D01*
X120720112Y-115666752D02*
X120758207Y-115590561D01*
X120758207Y-115590561D02*
X120758207Y-115400085D01*
X120758207Y-115400085D02*
X120720112Y-115323895D01*
X120720112Y-115323895D02*
X120682017Y-115285800D01*
X120682017Y-115285800D02*
X120605826Y-115247704D01*
X120605826Y-115247704D02*
X120377255Y-115247704D01*
X120377255Y-115247704D02*
X120301064Y-115285800D01*
X120301064Y-115285800D02*
X120262969Y-115323895D01*
X120986779Y-116047704D02*
X121253446Y-115247704D01*
X121253446Y-115247704D02*
X121520112Y-116047704D01*
D11*
X94214286Y-101722640D02*
X94100000Y-101760735D01*
X94100000Y-101760735D02*
X93909524Y-101760735D01*
X93909524Y-101760735D02*
X93833333Y-101722640D01*
X93833333Y-101722640D02*
X93795238Y-101684544D01*
X93795238Y-101684544D02*
X93757143Y-101608354D01*
X93757143Y-101608354D02*
X93757143Y-101532163D01*
X93757143Y-101532163D02*
X93795238Y-101455973D01*
X93795238Y-101455973D02*
X93833333Y-101417878D01*
X93833333Y-101417878D02*
X93909524Y-101379782D01*
X93909524Y-101379782D02*
X94061905Y-101341687D01*
X94061905Y-101341687D02*
X94138095Y-101303592D01*
X94138095Y-101303592D02*
X94176190Y-101265497D01*
X94176190Y-101265497D02*
X94214286Y-101189306D01*
X94214286Y-101189306D02*
X94214286Y-101113116D01*
X94214286Y-101113116D02*
X94176190Y-101036925D01*
X94176190Y-101036925D02*
X94138095Y-100998830D01*
X94138095Y-100998830D02*
X94061905Y-100960735D01*
X94061905Y-100960735D02*
X93871428Y-100960735D01*
X93871428Y-100960735D02*
X93757143Y-100998830D01*
X93414285Y-101760735D02*
X93414285Y-100960735D01*
X93414285Y-100960735D02*
X93223809Y-100960735D01*
X93223809Y-100960735D02*
X93109523Y-100998830D01*
X93109523Y-100998830D02*
X93033333Y-101075020D01*
X93033333Y-101075020D02*
X92995238Y-101151211D01*
X92995238Y-101151211D02*
X92957142Y-101303592D01*
X92957142Y-101303592D02*
X92957142Y-101417878D01*
X92957142Y-101417878D02*
X92995238Y-101570259D01*
X92995238Y-101570259D02*
X93033333Y-101646449D01*
X93033333Y-101646449D02*
X93109523Y-101722640D01*
X93109523Y-101722640D02*
X93223809Y-101760735D01*
X93223809Y-101760735D02*
X93414285Y-101760735D01*
X92652381Y-101532163D02*
X92271428Y-101532163D01*
X92728571Y-101760735D02*
X92461904Y-100960735D01*
X92461904Y-100960735D02*
X92195238Y-101760735D01*
X91509524Y-101760735D02*
X91966667Y-101760735D01*
X91738095Y-101760735D02*
X91738095Y-100960735D01*
X91738095Y-100960735D02*
X91814286Y-101075020D01*
X91814286Y-101075020D02*
X91890476Y-101151211D01*
X91890476Y-101151211D02*
X91966667Y-101189306D01*
X91014285Y-100960735D02*
X90938095Y-100960735D01*
X90938095Y-100960735D02*
X90861904Y-100998830D01*
X90861904Y-100998830D02*
X90823809Y-101036925D01*
X90823809Y-101036925D02*
X90785714Y-101113116D01*
X90785714Y-101113116D02*
X90747619Y-101265497D01*
X90747619Y-101265497D02*
X90747619Y-101455973D01*
X90747619Y-101455973D02*
X90785714Y-101608354D01*
X90785714Y-101608354D02*
X90823809Y-101684544D01*
X90823809Y-101684544D02*
X90861904Y-101722640D01*
X90861904Y-101722640D02*
X90938095Y-101760735D01*
X90938095Y-101760735D02*
X91014285Y-101760735D01*
X91014285Y-101760735D02*
X91090476Y-101722640D01*
X91090476Y-101722640D02*
X91128571Y-101684544D01*
X91128571Y-101684544D02*
X91166666Y-101608354D01*
X91166666Y-101608354D02*
X91204762Y-101455973D01*
X91204762Y-101455973D02*
X91204762Y-101265497D01*
X91204762Y-101265497D02*
X91166666Y-101113116D01*
X91166666Y-101113116D02*
X91128571Y-101036925D01*
X91128571Y-101036925D02*
X91090476Y-100998830D01*
X91090476Y-100998830D02*
X91014285Y-100960735D01*
X90290476Y-101303592D02*
X90366666Y-101265497D01*
X90366666Y-101265497D02*
X90404761Y-101227401D01*
X90404761Y-101227401D02*
X90442857Y-101151211D01*
X90442857Y-101151211D02*
X90442857Y-101113116D01*
X90442857Y-101113116D02*
X90404761Y-101036925D01*
X90404761Y-101036925D02*
X90366666Y-100998830D01*
X90366666Y-100998830D02*
X90290476Y-100960735D01*
X90290476Y-100960735D02*
X90138095Y-100960735D01*
X90138095Y-100960735D02*
X90061904Y-100998830D01*
X90061904Y-100998830D02*
X90023809Y-101036925D01*
X90023809Y-101036925D02*
X89985714Y-101113116D01*
X89985714Y-101113116D02*
X89985714Y-101151211D01*
X89985714Y-101151211D02*
X90023809Y-101227401D01*
X90023809Y-101227401D02*
X90061904Y-101265497D01*
X90061904Y-101265497D02*
X90138095Y-101303592D01*
X90138095Y-101303592D02*
X90290476Y-101303592D01*
X90290476Y-101303592D02*
X90366666Y-101341687D01*
X90366666Y-101341687D02*
X90404761Y-101379782D01*
X90404761Y-101379782D02*
X90442857Y-101455973D01*
X90442857Y-101455973D02*
X90442857Y-101608354D01*
X90442857Y-101608354D02*
X90404761Y-101684544D01*
X90404761Y-101684544D02*
X90366666Y-101722640D01*
X90366666Y-101722640D02*
X90290476Y-101760735D01*
X90290476Y-101760735D02*
X90138095Y-101760735D01*
X90138095Y-101760735D02*
X90061904Y-101722640D01*
X90061904Y-101722640D02*
X90023809Y-101684544D01*
X90023809Y-101684544D02*
X89985714Y-101608354D01*
X89985714Y-101608354D02*
X89985714Y-101455973D01*
X89985714Y-101455973D02*
X90023809Y-101379782D01*
X90023809Y-101379782D02*
X90061904Y-101341687D01*
X90061904Y-101341687D02*
X90138095Y-101303592D01*
D10*
X93908208Y-102724200D02*
X93793922Y-102762295D01*
X93793922Y-102762295D02*
X93603446Y-102762295D01*
X93603446Y-102762295D02*
X93527255Y-102724200D01*
X93527255Y-102724200D02*
X93489160Y-102686104D01*
X93489160Y-102686104D02*
X93451065Y-102609914D01*
X93451065Y-102609914D02*
X93451065Y-102533723D01*
X93451065Y-102533723D02*
X93489160Y-102457533D01*
X93489160Y-102457533D02*
X93527255Y-102419438D01*
X93527255Y-102419438D02*
X93603446Y-102381342D01*
X93603446Y-102381342D02*
X93755827Y-102343247D01*
X93755827Y-102343247D02*
X93832017Y-102305152D01*
X93832017Y-102305152D02*
X93870112Y-102267057D01*
X93870112Y-102267057D02*
X93908208Y-102190866D01*
X93908208Y-102190866D02*
X93908208Y-102114676D01*
X93908208Y-102114676D02*
X93870112Y-102038485D01*
X93870112Y-102038485D02*
X93832017Y-102000390D01*
X93832017Y-102000390D02*
X93755827Y-101962295D01*
X93755827Y-101962295D02*
X93565350Y-101962295D01*
X93565350Y-101962295D02*
X93451065Y-102000390D01*
X93108207Y-102762295D02*
X93108207Y-101962295D01*
X93108207Y-101962295D02*
X92917731Y-101962295D01*
X92917731Y-101962295D02*
X92803445Y-102000390D01*
X92803445Y-102000390D02*
X92727255Y-102076580D01*
X92727255Y-102076580D02*
X92689160Y-102152771D01*
X92689160Y-102152771D02*
X92651064Y-102305152D01*
X92651064Y-102305152D02*
X92651064Y-102419438D01*
X92651064Y-102419438D02*
X92689160Y-102571819D01*
X92689160Y-102571819D02*
X92727255Y-102648009D01*
X92727255Y-102648009D02*
X92803445Y-102724200D01*
X92803445Y-102724200D02*
X92917731Y-102762295D01*
X92917731Y-102762295D02*
X93108207Y-102762295D01*
X95966666Y-101654819D02*
X95966666Y-100654819D01*
X95966666Y-100654819D02*
X95633333Y-101369104D01*
X95633333Y-101369104D02*
X95300000Y-100654819D01*
X95300000Y-100654819D02*
X95300000Y-101654819D01*
X94252381Y-101559580D02*
X94300000Y-101607200D01*
X94300000Y-101607200D02*
X94442857Y-101654819D01*
X94442857Y-101654819D02*
X94538095Y-101654819D01*
X94538095Y-101654819D02*
X94680952Y-101607200D01*
X94680952Y-101607200D02*
X94776190Y-101511961D01*
X94776190Y-101511961D02*
X94823809Y-101416723D01*
X94823809Y-101416723D02*
X94871428Y-101226247D01*
X94871428Y-101226247D02*
X94871428Y-101083390D01*
X94871428Y-101083390D02*
X94823809Y-100892914D01*
X94823809Y-100892914D02*
X94776190Y-100797676D01*
X94776190Y-100797676D02*
X94680952Y-100702438D01*
X94680952Y-100702438D02*
X94538095Y-100654819D01*
X94538095Y-100654819D02*
X94442857Y-100654819D01*
X94442857Y-100654819D02*
X94300000Y-100702438D01*
X94300000Y-100702438D02*
X94252381Y-100750057D01*
X93347619Y-101654819D02*
X93823809Y-101654819D01*
X93823809Y-101654819D02*
X93823809Y-100654819D01*
X93014285Y-101654819D02*
X93014285Y-100654819D01*
X92442857Y-101654819D02*
X92871428Y-101083390D01*
X92442857Y-100654819D02*
X93014285Y-101226247D01*
X91490476Y-101654819D02*
X92061904Y-101654819D01*
X91776190Y-101654819D02*
X91776190Y-100654819D01*
X91776190Y-100654819D02*
X91871428Y-100797676D01*
X91871428Y-100797676D02*
X91966666Y-100892914D01*
X91966666Y-100892914D02*
X92061904Y-100940533D01*
X90871428Y-100654819D02*
X90776190Y-100654819D01*
X90776190Y-100654819D02*
X90680952Y-100702438D01*
X90680952Y-100702438D02*
X90633333Y-100750057D01*
X90633333Y-100750057D02*
X90585714Y-100845295D01*
X90585714Y-100845295D02*
X90538095Y-101035771D01*
X90538095Y-101035771D02*
X90538095Y-101273866D01*
X90538095Y-101273866D02*
X90585714Y-101464342D01*
X90585714Y-101464342D02*
X90633333Y-101559580D01*
X90633333Y-101559580D02*
X90680952Y-101607200D01*
X90680952Y-101607200D02*
X90776190Y-101654819D01*
X90776190Y-101654819D02*
X90871428Y-101654819D01*
X90871428Y-101654819D02*
X90966666Y-101607200D01*
X90966666Y-101607200D02*
X91014285Y-101559580D01*
X91014285Y-101559580D02*
X91061904Y-101464342D01*
X91061904Y-101464342D02*
X91109523Y-101273866D01*
X91109523Y-101273866D02*
X91109523Y-101035771D01*
X91109523Y-101035771D02*
X91061904Y-100845295D01*
X91061904Y-100845295D02*
X91014285Y-100750057D01*
X91014285Y-100750057D02*
X90966666Y-100702438D01*
X90966666Y-100702438D02*
X90871428Y-100654819D01*
X89966666Y-101083390D02*
X90061904Y-101035771D01*
X90061904Y-101035771D02*
X90109523Y-100988152D01*
X90109523Y-100988152D02*
X90157142Y-100892914D01*
X90157142Y-100892914D02*
X90157142Y-100845295D01*
X90157142Y-100845295D02*
X90109523Y-100750057D01*
X90109523Y-100750057D02*
X90061904Y-100702438D01*
X90061904Y-100702438D02*
X89966666Y-100654819D01*
X89966666Y-100654819D02*
X89776190Y-100654819D01*
X89776190Y-100654819D02*
X89680952Y-100702438D01*
X89680952Y-100702438D02*
X89633333Y-100750057D01*
X89633333Y-100750057D02*
X89585714Y-100845295D01*
X89585714Y-100845295D02*
X89585714Y-100892914D01*
X89585714Y-100892914D02*
X89633333Y-100988152D01*
X89633333Y-100988152D02*
X89680952Y-101035771D01*
X89680952Y-101035771D02*
X89776190Y-101083390D01*
X89776190Y-101083390D02*
X89966666Y-101083390D01*
X89966666Y-101083390D02*
X90061904Y-101131009D01*
X90061904Y-101131009D02*
X90109523Y-101178628D01*
X90109523Y-101178628D02*
X90157142Y-101273866D01*
X90157142Y-101273866D02*
X90157142Y-101464342D01*
X90157142Y-101464342D02*
X90109523Y-101559580D01*
X90109523Y-101559580D02*
X90061904Y-101607200D01*
X90061904Y-101607200D02*
X89966666Y-101654819D01*
X89966666Y-101654819D02*
X89776190Y-101654819D01*
X89776190Y-101654819D02*
X89680952Y-101607200D01*
X89680952Y-101607200D02*
X89633333Y-101559580D01*
X89633333Y-101559580D02*
X89585714Y-101464342D01*
X89585714Y-101464342D02*
X89585714Y-101273866D01*
X89585714Y-101273866D02*
X89633333Y-101178628D01*
X89633333Y-101178628D02*
X89680952Y-101131009D01*
X89680952Y-101131009D02*
X89776190Y-101083390D01*
X107844048Y-118509580D02*
X107891667Y-118557200D01*
X107891667Y-118557200D02*
X108034524Y-118604819D01*
X108034524Y-118604819D02*
X108129762Y-118604819D01*
X108129762Y-118604819D02*
X108272619Y-118557200D01*
X108272619Y-118557200D02*
X108367857Y-118461961D01*
X108367857Y-118461961D02*
X108415476Y-118366723D01*
X108415476Y-118366723D02*
X108463095Y-118176247D01*
X108463095Y-118176247D02*
X108463095Y-118033390D01*
X108463095Y-118033390D02*
X108415476Y-117842914D01*
X108415476Y-117842914D02*
X108367857Y-117747676D01*
X108367857Y-117747676D02*
X108272619Y-117652438D01*
X108272619Y-117652438D02*
X108129762Y-117604819D01*
X108129762Y-117604819D02*
X108034524Y-117604819D01*
X108034524Y-117604819D02*
X107891667Y-117652438D01*
X107891667Y-117652438D02*
X107844048Y-117700057D01*
X106891667Y-118604819D02*
X107463095Y-118604819D01*
X107177381Y-118604819D02*
X107177381Y-117604819D01*
X107177381Y-117604819D02*
X107272619Y-117747676D01*
X107272619Y-117747676D02*
X107367857Y-117842914D01*
X107367857Y-117842914D02*
X107463095Y-117890533D01*
X106510714Y-117700057D02*
X106463095Y-117652438D01*
X106463095Y-117652438D02*
X106367857Y-117604819D01*
X106367857Y-117604819D02*
X106129762Y-117604819D01*
X106129762Y-117604819D02*
X106034524Y-117652438D01*
X106034524Y-117652438D02*
X105986905Y-117700057D01*
X105986905Y-117700057D02*
X105939286Y-117795295D01*
X105939286Y-117795295D02*
X105939286Y-117890533D01*
X105939286Y-117890533D02*
X105986905Y-118033390D01*
X105986905Y-118033390D02*
X106558333Y-118604819D01*
X106558333Y-118604819D02*
X105939286Y-118604819D01*
X105558333Y-117700057D02*
X105510714Y-117652438D01*
X105510714Y-117652438D02*
X105415476Y-117604819D01*
X105415476Y-117604819D02*
X105177381Y-117604819D01*
X105177381Y-117604819D02*
X105082143Y-117652438D01*
X105082143Y-117652438D02*
X105034524Y-117700057D01*
X105034524Y-117700057D02*
X104986905Y-117795295D01*
X104986905Y-117795295D02*
X104986905Y-117890533D01*
X104986905Y-117890533D02*
X105034524Y-118033390D01*
X105034524Y-118033390D02*
X105605952Y-118604819D01*
X105605952Y-118604819D02*
X104986905Y-118604819D01*
D11*
X95395238Y-100522640D02*
X95280952Y-100560735D01*
X95280952Y-100560735D02*
X95090476Y-100560735D01*
X95090476Y-100560735D02*
X95014285Y-100522640D01*
X95014285Y-100522640D02*
X94976190Y-100484544D01*
X94976190Y-100484544D02*
X94938095Y-100408354D01*
X94938095Y-100408354D02*
X94938095Y-100332163D01*
X94938095Y-100332163D02*
X94976190Y-100255973D01*
X94976190Y-100255973D02*
X95014285Y-100217878D01*
X95014285Y-100217878D02*
X95090476Y-100179782D01*
X95090476Y-100179782D02*
X95242857Y-100141687D01*
X95242857Y-100141687D02*
X95319047Y-100103592D01*
X95319047Y-100103592D02*
X95357142Y-100065497D01*
X95357142Y-100065497D02*
X95395238Y-99989306D01*
X95395238Y-99989306D02*
X95395238Y-99913116D01*
X95395238Y-99913116D02*
X95357142Y-99836925D01*
X95357142Y-99836925D02*
X95319047Y-99798830D01*
X95319047Y-99798830D02*
X95242857Y-99760735D01*
X95242857Y-99760735D02*
X95052380Y-99760735D01*
X95052380Y-99760735D02*
X94938095Y-99798830D01*
X94138094Y-100484544D02*
X94176190Y-100522640D01*
X94176190Y-100522640D02*
X94290475Y-100560735D01*
X94290475Y-100560735D02*
X94366666Y-100560735D01*
X94366666Y-100560735D02*
X94480952Y-100522640D01*
X94480952Y-100522640D02*
X94557142Y-100446449D01*
X94557142Y-100446449D02*
X94595237Y-100370259D01*
X94595237Y-100370259D02*
X94633333Y-100217878D01*
X94633333Y-100217878D02*
X94633333Y-100103592D01*
X94633333Y-100103592D02*
X94595237Y-99951211D01*
X94595237Y-99951211D02*
X94557142Y-99875020D01*
X94557142Y-99875020D02*
X94480952Y-99798830D01*
X94480952Y-99798830D02*
X94366666Y-99760735D01*
X94366666Y-99760735D02*
X94290475Y-99760735D01*
X94290475Y-99760735D02*
X94176190Y-99798830D01*
X94176190Y-99798830D02*
X94138094Y-99836925D01*
X93414285Y-100560735D02*
X93795237Y-100560735D01*
X93795237Y-100560735D02*
X93795237Y-99760735D01*
X92728571Y-100560735D02*
X93185714Y-100560735D01*
X92957142Y-100560735D02*
X92957142Y-99760735D01*
X92957142Y-99760735D02*
X93033333Y-99875020D01*
X93033333Y-99875020D02*
X93109523Y-99951211D01*
X93109523Y-99951211D02*
X93185714Y-99989306D01*
X92233332Y-99760735D02*
X92157142Y-99760735D01*
X92157142Y-99760735D02*
X92080951Y-99798830D01*
X92080951Y-99798830D02*
X92042856Y-99836925D01*
X92042856Y-99836925D02*
X92004761Y-99913116D01*
X92004761Y-99913116D02*
X91966666Y-100065497D01*
X91966666Y-100065497D02*
X91966666Y-100255973D01*
X91966666Y-100255973D02*
X92004761Y-100408354D01*
X92004761Y-100408354D02*
X92042856Y-100484544D01*
X92042856Y-100484544D02*
X92080951Y-100522640D01*
X92080951Y-100522640D02*
X92157142Y-100560735D01*
X92157142Y-100560735D02*
X92233332Y-100560735D01*
X92233332Y-100560735D02*
X92309523Y-100522640D01*
X92309523Y-100522640D02*
X92347618Y-100484544D01*
X92347618Y-100484544D02*
X92385713Y-100408354D01*
X92385713Y-100408354D02*
X92423809Y-100255973D01*
X92423809Y-100255973D02*
X92423809Y-100065497D01*
X92423809Y-100065497D02*
X92385713Y-99913116D01*
X92385713Y-99913116D02*
X92347618Y-99836925D01*
X92347618Y-99836925D02*
X92309523Y-99798830D01*
X92309523Y-99798830D02*
X92233332Y-99760735D01*
X91509523Y-100103592D02*
X91585713Y-100065497D01*
X91585713Y-100065497D02*
X91623808Y-100027401D01*
X91623808Y-100027401D02*
X91661904Y-99951211D01*
X91661904Y-99951211D02*
X91661904Y-99913116D01*
X91661904Y-99913116D02*
X91623808Y-99836925D01*
X91623808Y-99836925D02*
X91585713Y-99798830D01*
X91585713Y-99798830D02*
X91509523Y-99760735D01*
X91509523Y-99760735D02*
X91357142Y-99760735D01*
X91357142Y-99760735D02*
X91280951Y-99798830D01*
X91280951Y-99798830D02*
X91242856Y-99836925D01*
X91242856Y-99836925D02*
X91204761Y-99913116D01*
X91204761Y-99913116D02*
X91204761Y-99951211D01*
X91204761Y-99951211D02*
X91242856Y-100027401D01*
X91242856Y-100027401D02*
X91280951Y-100065497D01*
X91280951Y-100065497D02*
X91357142Y-100103592D01*
X91357142Y-100103592D02*
X91509523Y-100103592D01*
X91509523Y-100103592D02*
X91585713Y-100141687D01*
X91585713Y-100141687D02*
X91623808Y-100179782D01*
X91623808Y-100179782D02*
X91661904Y-100255973D01*
X91661904Y-100255973D02*
X91661904Y-100408354D01*
X91661904Y-100408354D02*
X91623808Y-100484544D01*
X91623808Y-100484544D02*
X91585713Y-100522640D01*
X91585713Y-100522640D02*
X91509523Y-100560735D01*
X91509523Y-100560735D02*
X91357142Y-100560735D01*
X91357142Y-100560735D02*
X91280951Y-100522640D01*
X91280951Y-100522640D02*
X91242856Y-100484544D01*
X91242856Y-100484544D02*
X91204761Y-100408354D01*
X91204761Y-100408354D02*
X91204761Y-100255973D01*
X91204761Y-100255973D02*
X91242856Y-100179782D01*
X91242856Y-100179782D02*
X91280951Y-100141687D01*
X91280951Y-100141687D02*
X91357142Y-100103592D01*
D10*
X95108208Y-101524200D02*
X94993922Y-101562295D01*
X94993922Y-101562295D02*
X94803446Y-101562295D01*
X94803446Y-101562295D02*
X94727255Y-101524200D01*
X94727255Y-101524200D02*
X94689160Y-101486104D01*
X94689160Y-101486104D02*
X94651065Y-101409914D01*
X94651065Y-101409914D02*
X94651065Y-101333723D01*
X94651065Y-101333723D02*
X94689160Y-101257533D01*
X94689160Y-101257533D02*
X94727255Y-101219438D01*
X94727255Y-101219438D02*
X94803446Y-101181342D01*
X94803446Y-101181342D02*
X94955827Y-101143247D01*
X94955827Y-101143247D02*
X95032017Y-101105152D01*
X95032017Y-101105152D02*
X95070112Y-101067057D01*
X95070112Y-101067057D02*
X95108208Y-100990866D01*
X95108208Y-100990866D02*
X95108208Y-100914676D01*
X95108208Y-100914676D02*
X95070112Y-100838485D01*
X95070112Y-100838485D02*
X95032017Y-100800390D01*
X95032017Y-100800390D02*
X94955827Y-100762295D01*
X94955827Y-100762295D02*
X94765350Y-100762295D01*
X94765350Y-100762295D02*
X94651065Y-100800390D01*
X93851064Y-101486104D02*
X93889160Y-101524200D01*
X93889160Y-101524200D02*
X94003445Y-101562295D01*
X94003445Y-101562295D02*
X94079636Y-101562295D01*
X94079636Y-101562295D02*
X94193922Y-101524200D01*
X94193922Y-101524200D02*
X94270112Y-101448009D01*
X94270112Y-101448009D02*
X94308207Y-101371819D01*
X94308207Y-101371819D02*
X94346303Y-101219438D01*
X94346303Y-101219438D02*
X94346303Y-101105152D01*
X94346303Y-101105152D02*
X94308207Y-100952771D01*
X94308207Y-100952771D02*
X94270112Y-100876580D01*
X94270112Y-100876580D02*
X94193922Y-100800390D01*
X94193922Y-100800390D02*
X94079636Y-100762295D01*
X94079636Y-100762295D02*
X94003445Y-100762295D01*
X94003445Y-100762295D02*
X93889160Y-100800390D01*
X93889160Y-100800390D02*
X93851064Y-100838485D01*
X94519047Y-110124819D02*
X94852380Y-109648628D01*
X95090475Y-110124819D02*
X95090475Y-109124819D01*
X95090475Y-109124819D02*
X94709523Y-109124819D01*
X94709523Y-109124819D02*
X94614285Y-109172438D01*
X94614285Y-109172438D02*
X94566666Y-109220057D01*
X94566666Y-109220057D02*
X94519047Y-109315295D01*
X94519047Y-109315295D02*
X94519047Y-109458152D01*
X94519047Y-109458152D02*
X94566666Y-109553390D01*
X94566666Y-109553390D02*
X94614285Y-109601009D01*
X94614285Y-109601009D02*
X94709523Y-109648628D01*
X94709523Y-109648628D02*
X95090475Y-109648628D01*
X93566666Y-110124819D02*
X94138094Y-110124819D01*
X93852380Y-110124819D02*
X93852380Y-109124819D01*
X93852380Y-109124819D02*
X93947618Y-109267676D01*
X93947618Y-109267676D02*
X94042856Y-109362914D01*
X94042856Y-109362914D02*
X94138094Y-109410533D01*
X92947618Y-109124819D02*
X92852380Y-109124819D01*
X92852380Y-109124819D02*
X92757142Y-109172438D01*
X92757142Y-109172438D02*
X92709523Y-109220057D01*
X92709523Y-109220057D02*
X92661904Y-109315295D01*
X92661904Y-109315295D02*
X92614285Y-109505771D01*
X92614285Y-109505771D02*
X92614285Y-109743866D01*
X92614285Y-109743866D02*
X92661904Y-109934342D01*
X92661904Y-109934342D02*
X92709523Y-110029580D01*
X92709523Y-110029580D02*
X92757142Y-110077200D01*
X92757142Y-110077200D02*
X92852380Y-110124819D01*
X92852380Y-110124819D02*
X92947618Y-110124819D01*
X92947618Y-110124819D02*
X93042856Y-110077200D01*
X93042856Y-110077200D02*
X93090475Y-110029580D01*
X93090475Y-110029580D02*
X93138094Y-109934342D01*
X93138094Y-109934342D02*
X93185713Y-109743866D01*
X93185713Y-109743866D02*
X93185713Y-109505771D01*
X93185713Y-109505771D02*
X93138094Y-109315295D01*
X93138094Y-109315295D02*
X93090475Y-109220057D01*
X93090475Y-109220057D02*
X93042856Y-109172438D01*
X93042856Y-109172438D02*
X92947618Y-109124819D01*
X92138094Y-110124819D02*
X91947618Y-110124819D01*
X91947618Y-110124819D02*
X91852380Y-110077200D01*
X91852380Y-110077200D02*
X91804761Y-110029580D01*
X91804761Y-110029580D02*
X91709523Y-109886723D01*
X91709523Y-109886723D02*
X91661904Y-109696247D01*
X91661904Y-109696247D02*
X91661904Y-109315295D01*
X91661904Y-109315295D02*
X91709523Y-109220057D01*
X91709523Y-109220057D02*
X91757142Y-109172438D01*
X91757142Y-109172438D02*
X91852380Y-109124819D01*
X91852380Y-109124819D02*
X92042856Y-109124819D01*
X92042856Y-109124819D02*
X92138094Y-109172438D01*
X92138094Y-109172438D02*
X92185713Y-109220057D01*
X92185713Y-109220057D02*
X92233332Y-109315295D01*
X92233332Y-109315295D02*
X92233332Y-109553390D01*
X92233332Y-109553390D02*
X92185713Y-109648628D01*
X92185713Y-109648628D02*
X92138094Y-109696247D01*
X92138094Y-109696247D02*
X92042856Y-109743866D01*
X92042856Y-109743866D02*
X91852380Y-109743866D01*
X91852380Y-109743866D02*
X91757142Y-109696247D01*
X91757142Y-109696247D02*
X91709523Y-109648628D01*
X91709523Y-109648628D02*
X91661904Y-109553390D01*
X121302380Y-104622295D02*
X121302380Y-103822295D01*
X121302380Y-103822295D02*
X121111904Y-103822295D01*
X121111904Y-103822295D02*
X120997618Y-103860390D01*
X120997618Y-103860390D02*
X120921428Y-103936580D01*
X120921428Y-103936580D02*
X120883333Y-104012771D01*
X120883333Y-104012771D02*
X120845237Y-104165152D01*
X120845237Y-104165152D02*
X120845237Y-104279438D01*
X120845237Y-104279438D02*
X120883333Y-104431819D01*
X120883333Y-104431819D02*
X120921428Y-104508009D01*
X120921428Y-104508009D02*
X120997618Y-104584200D01*
X120997618Y-104584200D02*
X121111904Y-104622295D01*
X121111904Y-104622295D02*
X121302380Y-104622295D01*
X120083333Y-104622295D02*
X120540476Y-104622295D01*
X120311904Y-104622295D02*
X120311904Y-103822295D01*
X120311904Y-103822295D02*
X120388095Y-103936580D01*
X120388095Y-103936580D02*
X120464285Y-104012771D01*
X120464285Y-104012771D02*
X120540476Y-104050866D01*
X119321428Y-104622295D02*
X119778571Y-104622295D01*
X119549999Y-104622295D02*
X119549999Y-103822295D01*
X119549999Y-103822295D02*
X119626190Y-103936580D01*
X119626190Y-103936580D02*
X119702380Y-104012771D01*
X119702380Y-104012771D02*
X119778571Y-104050866D01*
X119054761Y-103822295D02*
X118559523Y-103822295D01*
X118559523Y-103822295D02*
X118826189Y-104127057D01*
X118826189Y-104127057D02*
X118711904Y-104127057D01*
X118711904Y-104127057D02*
X118635713Y-104165152D01*
X118635713Y-104165152D02*
X118597618Y-104203247D01*
X118597618Y-104203247D02*
X118559523Y-104279438D01*
X118559523Y-104279438D02*
X118559523Y-104469914D01*
X118559523Y-104469914D02*
X118597618Y-104546104D01*
X118597618Y-104546104D02*
X118635713Y-104584200D01*
X118635713Y-104584200D02*
X118711904Y-104622295D01*
X118711904Y-104622295D02*
X118940475Y-104622295D01*
X118940475Y-104622295D02*
X119016666Y-104584200D01*
X119016666Y-104584200D02*
X119054761Y-104546104D01*
X114993247Y-106333928D02*
X114993247Y-106067262D01*
X115412295Y-106067262D02*
X114612295Y-106067262D01*
X114612295Y-106067262D02*
X114612295Y-106448214D01*
X114993247Y-107019642D02*
X115031342Y-107133928D01*
X115031342Y-107133928D02*
X115069438Y-107172023D01*
X115069438Y-107172023D02*
X115145628Y-107210119D01*
X115145628Y-107210119D02*
X115259914Y-107210119D01*
X115259914Y-107210119D02*
X115336104Y-107172023D01*
X115336104Y-107172023D02*
X115374200Y-107133928D01*
X115374200Y-107133928D02*
X115412295Y-107057738D01*
X115412295Y-107057738D02*
X115412295Y-106752976D01*
X115412295Y-106752976D02*
X114612295Y-106752976D01*
X114612295Y-106752976D02*
X114612295Y-107019642D01*
X114612295Y-107019642D02*
X114650390Y-107095833D01*
X114650390Y-107095833D02*
X114688485Y-107133928D01*
X114688485Y-107133928D02*
X114764676Y-107172023D01*
X114764676Y-107172023D02*
X114840866Y-107172023D01*
X114840866Y-107172023D02*
X114917057Y-107133928D01*
X114917057Y-107133928D02*
X114955152Y-107095833D01*
X114955152Y-107095833D02*
X114993247Y-107019642D01*
X114993247Y-107019642D02*
X114993247Y-106752976D01*
X115412295Y-107972023D02*
X115412295Y-107514880D01*
X115412295Y-107743452D02*
X114612295Y-107743452D01*
X114612295Y-107743452D02*
X114726580Y-107667261D01*
X114726580Y-107667261D02*
X114802771Y-107591071D01*
X114802771Y-107591071D02*
X114840866Y-107514880D01*
X115412295Y-108733928D02*
X115412295Y-108276785D01*
X115412295Y-108505357D02*
X114612295Y-108505357D01*
X114612295Y-108505357D02*
X114726580Y-108429166D01*
X114726580Y-108429166D02*
X114802771Y-108352976D01*
X114802771Y-108352976D02*
X114840866Y-108276785D01*
X114612295Y-109229167D02*
X114612295Y-109305357D01*
X114612295Y-109305357D02*
X114650390Y-109381548D01*
X114650390Y-109381548D02*
X114688485Y-109419643D01*
X114688485Y-109419643D02*
X114764676Y-109457738D01*
X114764676Y-109457738D02*
X114917057Y-109495833D01*
X114917057Y-109495833D02*
X115107533Y-109495833D01*
X115107533Y-109495833D02*
X115259914Y-109457738D01*
X115259914Y-109457738D02*
X115336104Y-109419643D01*
X115336104Y-109419643D02*
X115374200Y-109381548D01*
X115374200Y-109381548D02*
X115412295Y-109305357D01*
X115412295Y-109305357D02*
X115412295Y-109229167D01*
X115412295Y-109229167D02*
X115374200Y-109152976D01*
X115374200Y-109152976D02*
X115336104Y-109114881D01*
X115336104Y-109114881D02*
X115259914Y-109076786D01*
X115259914Y-109076786D02*
X115107533Y-109038690D01*
X115107533Y-109038690D02*
X114917057Y-109038690D01*
X114917057Y-109038690D02*
X114764676Y-109076786D01*
X114764676Y-109076786D02*
X114688485Y-109114881D01*
X114688485Y-109114881D02*
X114650390Y-109152976D01*
X114650390Y-109152976D02*
X114612295Y-109229167D01*
X111393247Y-106171428D02*
X111393247Y-105904762D01*
X111812295Y-105904762D02*
X111012295Y-105904762D01*
X111012295Y-105904762D02*
X111012295Y-106285714D01*
X111393247Y-106857142D02*
X111431342Y-106971428D01*
X111431342Y-106971428D02*
X111469438Y-107009523D01*
X111469438Y-107009523D02*
X111545628Y-107047619D01*
X111545628Y-107047619D02*
X111659914Y-107047619D01*
X111659914Y-107047619D02*
X111736104Y-107009523D01*
X111736104Y-107009523D02*
X111774200Y-106971428D01*
X111774200Y-106971428D02*
X111812295Y-106895238D01*
X111812295Y-106895238D02*
X111812295Y-106590476D01*
X111812295Y-106590476D02*
X111012295Y-106590476D01*
X111012295Y-106590476D02*
X111012295Y-106857142D01*
X111012295Y-106857142D02*
X111050390Y-106933333D01*
X111050390Y-106933333D02*
X111088485Y-106971428D01*
X111088485Y-106971428D02*
X111164676Y-107009523D01*
X111164676Y-107009523D02*
X111240866Y-107009523D01*
X111240866Y-107009523D02*
X111317057Y-106971428D01*
X111317057Y-106971428D02*
X111355152Y-106933333D01*
X111355152Y-106933333D02*
X111393247Y-106857142D01*
X111393247Y-106857142D02*
X111393247Y-106590476D01*
X111812295Y-107809523D02*
X111812295Y-107352380D01*
X111812295Y-107580952D02*
X111012295Y-107580952D01*
X111012295Y-107580952D02*
X111126580Y-107504761D01*
X111126580Y-107504761D02*
X111202771Y-107428571D01*
X111202771Y-107428571D02*
X111240866Y-107352380D01*
X111812295Y-108571428D02*
X111812295Y-108114285D01*
X111812295Y-108342857D02*
X111012295Y-108342857D01*
X111012295Y-108342857D02*
X111126580Y-108266666D01*
X111126580Y-108266666D02*
X111202771Y-108190476D01*
X111202771Y-108190476D02*
X111240866Y-108114285D01*
X111812295Y-109333333D02*
X111812295Y-108876190D01*
X111812295Y-109104762D02*
X111012295Y-109104762D01*
X111012295Y-109104762D02*
X111126580Y-109028571D01*
X111126580Y-109028571D02*
X111202771Y-108952381D01*
X111202771Y-108952381D02*
X111240866Y-108876190D01*
X103119047Y-112984819D02*
X103452380Y-112508628D01*
X103690475Y-112984819D02*
X103690475Y-111984819D01*
X103690475Y-111984819D02*
X103309523Y-111984819D01*
X103309523Y-111984819D02*
X103214285Y-112032438D01*
X103214285Y-112032438D02*
X103166666Y-112080057D01*
X103166666Y-112080057D02*
X103119047Y-112175295D01*
X103119047Y-112175295D02*
X103119047Y-112318152D01*
X103119047Y-112318152D02*
X103166666Y-112413390D01*
X103166666Y-112413390D02*
X103214285Y-112461009D01*
X103214285Y-112461009D02*
X103309523Y-112508628D01*
X103309523Y-112508628D02*
X103690475Y-112508628D01*
X102166666Y-112984819D02*
X102738094Y-112984819D01*
X102452380Y-112984819D02*
X102452380Y-111984819D01*
X102452380Y-111984819D02*
X102547618Y-112127676D01*
X102547618Y-112127676D02*
X102642856Y-112222914D01*
X102642856Y-112222914D02*
X102738094Y-112270533D01*
X101214285Y-112984819D02*
X101785713Y-112984819D01*
X101499999Y-112984819D02*
X101499999Y-111984819D01*
X101499999Y-111984819D02*
X101595237Y-112127676D01*
X101595237Y-112127676D02*
X101690475Y-112222914D01*
X101690475Y-112222914D02*
X101785713Y-112270533D01*
X100261904Y-112984819D02*
X100833332Y-112984819D01*
X100547618Y-112984819D02*
X100547618Y-111984819D01*
X100547618Y-111984819D02*
X100642856Y-112127676D01*
X100642856Y-112127676D02*
X100738094Y-112222914D01*
X100738094Y-112222914D02*
X100833332Y-112270533D01*
X124902380Y-104669795D02*
X124902380Y-103869795D01*
X124902380Y-103869795D02*
X124711904Y-103869795D01*
X124711904Y-103869795D02*
X124597618Y-103907890D01*
X124597618Y-103907890D02*
X124521428Y-103984080D01*
X124521428Y-103984080D02*
X124483333Y-104060271D01*
X124483333Y-104060271D02*
X124445237Y-104212652D01*
X124445237Y-104212652D02*
X124445237Y-104326938D01*
X124445237Y-104326938D02*
X124483333Y-104479319D01*
X124483333Y-104479319D02*
X124521428Y-104555509D01*
X124521428Y-104555509D02*
X124597618Y-104631700D01*
X124597618Y-104631700D02*
X124711904Y-104669795D01*
X124711904Y-104669795D02*
X124902380Y-104669795D01*
X123683333Y-104669795D02*
X124140476Y-104669795D01*
X123911904Y-104669795D02*
X123911904Y-103869795D01*
X123911904Y-103869795D02*
X123988095Y-103984080D01*
X123988095Y-103984080D02*
X124064285Y-104060271D01*
X124064285Y-104060271D02*
X124140476Y-104098366D01*
X122921428Y-104669795D02*
X123378571Y-104669795D01*
X123149999Y-104669795D02*
X123149999Y-103869795D01*
X123149999Y-103869795D02*
X123226190Y-103984080D01*
X123226190Y-103984080D02*
X123302380Y-104060271D01*
X123302380Y-104060271D02*
X123378571Y-104098366D01*
X122616666Y-103945985D02*
X122578570Y-103907890D01*
X122578570Y-103907890D02*
X122502380Y-103869795D01*
X122502380Y-103869795D02*
X122311904Y-103869795D01*
X122311904Y-103869795D02*
X122235713Y-103907890D01*
X122235713Y-103907890D02*
X122197618Y-103945985D01*
X122197618Y-103945985D02*
X122159523Y-104022176D01*
X122159523Y-104022176D02*
X122159523Y-104098366D01*
X122159523Y-104098366D02*
X122197618Y-104212652D01*
X122197618Y-104212652D02*
X122654761Y-104669795D01*
X122654761Y-104669795D02*
X122159523Y-104669795D01*
X107689580Y-106880952D02*
X107737200Y-106833333D01*
X107737200Y-106833333D02*
X107784819Y-106690476D01*
X107784819Y-106690476D02*
X107784819Y-106595238D01*
X107784819Y-106595238D02*
X107737200Y-106452381D01*
X107737200Y-106452381D02*
X107641961Y-106357143D01*
X107641961Y-106357143D02*
X107546723Y-106309524D01*
X107546723Y-106309524D02*
X107356247Y-106261905D01*
X107356247Y-106261905D02*
X107213390Y-106261905D01*
X107213390Y-106261905D02*
X107022914Y-106309524D01*
X107022914Y-106309524D02*
X106927676Y-106357143D01*
X106927676Y-106357143D02*
X106832438Y-106452381D01*
X106832438Y-106452381D02*
X106784819Y-106595238D01*
X106784819Y-106595238D02*
X106784819Y-106690476D01*
X106784819Y-106690476D02*
X106832438Y-106833333D01*
X106832438Y-106833333D02*
X106880057Y-106880952D01*
X107784819Y-107833333D02*
X107784819Y-107261905D01*
X107784819Y-107547619D02*
X106784819Y-107547619D01*
X106784819Y-107547619D02*
X106927676Y-107452381D01*
X106927676Y-107452381D02*
X107022914Y-107357143D01*
X107022914Y-107357143D02*
X107070533Y-107261905D01*
X106880057Y-108214286D02*
X106832438Y-108261905D01*
X106832438Y-108261905D02*
X106784819Y-108357143D01*
X106784819Y-108357143D02*
X106784819Y-108595238D01*
X106784819Y-108595238D02*
X106832438Y-108690476D01*
X106832438Y-108690476D02*
X106880057Y-108738095D01*
X106880057Y-108738095D02*
X106975295Y-108785714D01*
X106975295Y-108785714D02*
X107070533Y-108785714D01*
X107070533Y-108785714D02*
X107213390Y-108738095D01*
X107213390Y-108738095D02*
X107784819Y-108166667D01*
X107784819Y-108166667D02*
X107784819Y-108785714D01*
X106784819Y-109119048D02*
X106784819Y-109738095D01*
X106784819Y-109738095D02*
X107165771Y-109404762D01*
X107165771Y-109404762D02*
X107165771Y-109547619D01*
X107165771Y-109547619D02*
X107213390Y-109642857D01*
X107213390Y-109642857D02*
X107261009Y-109690476D01*
X107261009Y-109690476D02*
X107356247Y-109738095D01*
X107356247Y-109738095D02*
X107594342Y-109738095D01*
X107594342Y-109738095D02*
X107689580Y-109690476D01*
X107689580Y-109690476D02*
X107737200Y-109642857D01*
X107737200Y-109642857D02*
X107784819Y-109547619D01*
X107784819Y-109547619D02*
X107784819Y-109261905D01*
X107784819Y-109261905D02*
X107737200Y-109166667D01*
X107737200Y-109166667D02*
X107689580Y-109119048D01*
X119066633Y-116700714D02*
X119876156Y-116700714D01*
X119876156Y-116700714D02*
X119971394Y-116748333D01*
X119971394Y-116748333D02*
X120019014Y-116795952D01*
X120019014Y-116795952D02*
X120066633Y-116891190D01*
X120066633Y-116891190D02*
X120066633Y-117081666D01*
X120066633Y-117081666D02*
X120019014Y-117176904D01*
X120019014Y-117176904D02*
X119971394Y-117224523D01*
X119971394Y-117224523D02*
X119876156Y-117272142D01*
X119876156Y-117272142D02*
X119066633Y-117272142D01*
X120066633Y-118272142D02*
X120066633Y-117700714D01*
X120066633Y-117986428D02*
X119066633Y-117986428D01*
X119066633Y-117986428D02*
X119209490Y-117891190D01*
X119209490Y-117891190D02*
X119304728Y-117795952D01*
X119304728Y-117795952D02*
X119352347Y-117700714D01*
X119066633Y-118891190D02*
X119066633Y-118986428D01*
X119066633Y-118986428D02*
X119114252Y-119081666D01*
X119114252Y-119081666D02*
X119161871Y-119129285D01*
X119161871Y-119129285D02*
X119257109Y-119176904D01*
X119257109Y-119176904D02*
X119447585Y-119224523D01*
X119447585Y-119224523D02*
X119685680Y-119224523D01*
X119685680Y-119224523D02*
X119876156Y-119176904D01*
X119876156Y-119176904D02*
X119971394Y-119129285D01*
X119971394Y-119129285D02*
X120019014Y-119081666D01*
X120019014Y-119081666D02*
X120066633Y-118986428D01*
X120066633Y-118986428D02*
X120066633Y-118891190D01*
X120066633Y-118891190D02*
X120019014Y-118795952D01*
X120019014Y-118795952D02*
X119971394Y-118748333D01*
X119971394Y-118748333D02*
X119876156Y-118700714D01*
X119876156Y-118700714D02*
X119685680Y-118653095D01*
X119685680Y-118653095D02*
X119447585Y-118653095D01*
X119447585Y-118653095D02*
X119257109Y-118700714D01*
X119257109Y-118700714D02*
X119161871Y-118748333D01*
X119161871Y-118748333D02*
X119114252Y-118795952D01*
X119114252Y-118795952D02*
X119066633Y-118891190D01*
X120066633Y-119700714D02*
X120066633Y-119891190D01*
X120066633Y-119891190D02*
X120019014Y-119986428D01*
X120019014Y-119986428D02*
X119971394Y-120034047D01*
X119971394Y-120034047D02*
X119828537Y-120129285D01*
X119828537Y-120129285D02*
X119638061Y-120176904D01*
X119638061Y-120176904D02*
X119257109Y-120176904D01*
X119257109Y-120176904D02*
X119161871Y-120129285D01*
X119161871Y-120129285D02*
X119114252Y-120081666D01*
X119114252Y-120081666D02*
X119066633Y-119986428D01*
X119066633Y-119986428D02*
X119066633Y-119795952D01*
X119066633Y-119795952D02*
X119114252Y-119700714D01*
X119114252Y-119700714D02*
X119161871Y-119653095D01*
X119161871Y-119653095D02*
X119257109Y-119605476D01*
X119257109Y-119605476D02*
X119495204Y-119605476D01*
X119495204Y-119605476D02*
X119590442Y-119653095D01*
X119590442Y-119653095D02*
X119638061Y-119700714D01*
X119638061Y-119700714D02*
X119685680Y-119795952D01*
X119685680Y-119795952D02*
X119685680Y-119986428D01*
X119685680Y-119986428D02*
X119638061Y-120081666D01*
X119638061Y-120081666D02*
X119590442Y-120129285D01*
X119590442Y-120129285D02*
X119495204Y-120176904D01*
X98302380Y-106237295D02*
X98302380Y-105437295D01*
X98302380Y-105437295D02*
X98111904Y-105437295D01*
X98111904Y-105437295D02*
X97997618Y-105475390D01*
X97997618Y-105475390D02*
X97921428Y-105551580D01*
X97921428Y-105551580D02*
X97883333Y-105627771D01*
X97883333Y-105627771D02*
X97845237Y-105780152D01*
X97845237Y-105780152D02*
X97845237Y-105894438D01*
X97845237Y-105894438D02*
X97883333Y-106046819D01*
X97883333Y-106046819D02*
X97921428Y-106123009D01*
X97921428Y-106123009D02*
X97997618Y-106199200D01*
X97997618Y-106199200D02*
X98111904Y-106237295D01*
X98111904Y-106237295D02*
X98302380Y-106237295D01*
X97083333Y-106237295D02*
X97540476Y-106237295D01*
X97311904Y-106237295D02*
X97311904Y-105437295D01*
X97311904Y-105437295D02*
X97388095Y-105551580D01*
X97388095Y-105551580D02*
X97464285Y-105627771D01*
X97464285Y-105627771D02*
X97540476Y-105665866D01*
X96588094Y-105437295D02*
X96511904Y-105437295D01*
X96511904Y-105437295D02*
X96435713Y-105475390D01*
X96435713Y-105475390D02*
X96397618Y-105513485D01*
X96397618Y-105513485D02*
X96359523Y-105589676D01*
X96359523Y-105589676D02*
X96321428Y-105742057D01*
X96321428Y-105742057D02*
X96321428Y-105932533D01*
X96321428Y-105932533D02*
X96359523Y-106084914D01*
X96359523Y-106084914D02*
X96397618Y-106161104D01*
X96397618Y-106161104D02*
X96435713Y-106199200D01*
X96435713Y-106199200D02*
X96511904Y-106237295D01*
X96511904Y-106237295D02*
X96588094Y-106237295D01*
X96588094Y-106237295D02*
X96664285Y-106199200D01*
X96664285Y-106199200D02*
X96702380Y-106161104D01*
X96702380Y-106161104D02*
X96740475Y-106084914D01*
X96740475Y-106084914D02*
X96778571Y-105932533D01*
X96778571Y-105932533D02*
X96778571Y-105742057D01*
X96778571Y-105742057D02*
X96740475Y-105589676D01*
X96740475Y-105589676D02*
X96702380Y-105513485D01*
X96702380Y-105513485D02*
X96664285Y-105475390D01*
X96664285Y-105475390D02*
X96588094Y-105437295D01*
X95864285Y-105780152D02*
X95940475Y-105742057D01*
X95940475Y-105742057D02*
X95978570Y-105703961D01*
X95978570Y-105703961D02*
X96016666Y-105627771D01*
X96016666Y-105627771D02*
X96016666Y-105589676D01*
X96016666Y-105589676D02*
X95978570Y-105513485D01*
X95978570Y-105513485D02*
X95940475Y-105475390D01*
X95940475Y-105475390D02*
X95864285Y-105437295D01*
X95864285Y-105437295D02*
X95711904Y-105437295D01*
X95711904Y-105437295D02*
X95635713Y-105475390D01*
X95635713Y-105475390D02*
X95597618Y-105513485D01*
X95597618Y-105513485D02*
X95559523Y-105589676D01*
X95559523Y-105589676D02*
X95559523Y-105627771D01*
X95559523Y-105627771D02*
X95597618Y-105703961D01*
X95597618Y-105703961D02*
X95635713Y-105742057D01*
X95635713Y-105742057D02*
X95711904Y-105780152D01*
X95711904Y-105780152D02*
X95864285Y-105780152D01*
X95864285Y-105780152D02*
X95940475Y-105818247D01*
X95940475Y-105818247D02*
X95978570Y-105856342D01*
X95978570Y-105856342D02*
X96016666Y-105932533D01*
X96016666Y-105932533D02*
X96016666Y-106084914D01*
X96016666Y-106084914D02*
X95978570Y-106161104D01*
X95978570Y-106161104D02*
X95940475Y-106199200D01*
X95940475Y-106199200D02*
X95864285Y-106237295D01*
X95864285Y-106237295D02*
X95711904Y-106237295D01*
X95711904Y-106237295D02*
X95635713Y-106199200D01*
X95635713Y-106199200D02*
X95597618Y-106161104D01*
X95597618Y-106161104D02*
X95559523Y-106084914D01*
X95559523Y-106084914D02*
X95559523Y-105932533D01*
X95559523Y-105932533D02*
X95597618Y-105856342D01*
X95597618Y-105856342D02*
X95635713Y-105818247D01*
X95635713Y-105818247D02*
X95711904Y-105780152D01*
X99489580Y-106880952D02*
X99537200Y-106833333D01*
X99537200Y-106833333D02*
X99584819Y-106690476D01*
X99584819Y-106690476D02*
X99584819Y-106595238D01*
X99584819Y-106595238D02*
X99537200Y-106452381D01*
X99537200Y-106452381D02*
X99441961Y-106357143D01*
X99441961Y-106357143D02*
X99346723Y-106309524D01*
X99346723Y-106309524D02*
X99156247Y-106261905D01*
X99156247Y-106261905D02*
X99013390Y-106261905D01*
X99013390Y-106261905D02*
X98822914Y-106309524D01*
X98822914Y-106309524D02*
X98727676Y-106357143D01*
X98727676Y-106357143D02*
X98632438Y-106452381D01*
X98632438Y-106452381D02*
X98584819Y-106595238D01*
X98584819Y-106595238D02*
X98584819Y-106690476D01*
X98584819Y-106690476D02*
X98632438Y-106833333D01*
X98632438Y-106833333D02*
X98680057Y-106880952D01*
X99584819Y-107833333D02*
X99584819Y-107261905D01*
X99584819Y-107547619D02*
X98584819Y-107547619D01*
X98584819Y-107547619D02*
X98727676Y-107452381D01*
X98727676Y-107452381D02*
X98822914Y-107357143D01*
X98822914Y-107357143D02*
X98870533Y-107261905D01*
X99584819Y-108785714D02*
X99584819Y-108214286D01*
X99584819Y-108500000D02*
X98584819Y-108500000D01*
X98584819Y-108500000D02*
X98727676Y-108404762D01*
X98727676Y-108404762D02*
X98822914Y-108309524D01*
X98822914Y-108309524D02*
X98870533Y-108214286D01*
X98584819Y-109119048D02*
X98584819Y-109738095D01*
X98584819Y-109738095D02*
X98965771Y-109404762D01*
X98965771Y-109404762D02*
X98965771Y-109547619D01*
X98965771Y-109547619D02*
X99013390Y-109642857D01*
X99013390Y-109642857D02*
X99061009Y-109690476D01*
X99061009Y-109690476D02*
X99156247Y-109738095D01*
X99156247Y-109738095D02*
X99394342Y-109738095D01*
X99394342Y-109738095D02*
X99489580Y-109690476D01*
X99489580Y-109690476D02*
X99537200Y-109642857D01*
X99537200Y-109642857D02*
X99584819Y-109547619D01*
X99584819Y-109547619D02*
X99584819Y-109261905D01*
X99584819Y-109261905D02*
X99537200Y-109166667D01*
X99537200Y-109166667D02*
X99489580Y-109119048D01*
X115529580Y-110280952D02*
X115577200Y-110233333D01*
X115577200Y-110233333D02*
X115624819Y-110090476D01*
X115624819Y-110090476D02*
X115624819Y-109995238D01*
X115624819Y-109995238D02*
X115577200Y-109852381D01*
X115577200Y-109852381D02*
X115481961Y-109757143D01*
X115481961Y-109757143D02*
X115386723Y-109709524D01*
X115386723Y-109709524D02*
X115196247Y-109661905D01*
X115196247Y-109661905D02*
X115053390Y-109661905D01*
X115053390Y-109661905D02*
X114862914Y-109709524D01*
X114862914Y-109709524D02*
X114767676Y-109757143D01*
X114767676Y-109757143D02*
X114672438Y-109852381D01*
X114672438Y-109852381D02*
X114624819Y-109995238D01*
X114624819Y-109995238D02*
X114624819Y-110090476D01*
X114624819Y-110090476D02*
X114672438Y-110233333D01*
X114672438Y-110233333D02*
X114720057Y-110280952D01*
X115624819Y-111233333D02*
X115624819Y-110661905D01*
X115624819Y-110947619D02*
X114624819Y-110947619D01*
X114624819Y-110947619D02*
X114767676Y-110852381D01*
X114767676Y-110852381D02*
X114862914Y-110757143D01*
X114862914Y-110757143D02*
X114910533Y-110661905D01*
X114720057Y-111614286D02*
X114672438Y-111661905D01*
X114672438Y-111661905D02*
X114624819Y-111757143D01*
X114624819Y-111757143D02*
X114624819Y-111995238D01*
X114624819Y-111995238D02*
X114672438Y-112090476D01*
X114672438Y-112090476D02*
X114720057Y-112138095D01*
X114720057Y-112138095D02*
X114815295Y-112185714D01*
X114815295Y-112185714D02*
X114910533Y-112185714D01*
X114910533Y-112185714D02*
X115053390Y-112138095D01*
X115053390Y-112138095D02*
X115624819Y-111566667D01*
X115624819Y-111566667D02*
X115624819Y-112185714D01*
X114624819Y-113042857D02*
X114624819Y-112852381D01*
X114624819Y-112852381D02*
X114672438Y-112757143D01*
X114672438Y-112757143D02*
X114720057Y-112709524D01*
X114720057Y-112709524D02*
X114862914Y-112614286D01*
X114862914Y-112614286D02*
X115053390Y-112566667D01*
X115053390Y-112566667D02*
X115434342Y-112566667D01*
X115434342Y-112566667D02*
X115529580Y-112614286D01*
X115529580Y-112614286D02*
X115577200Y-112661905D01*
X115577200Y-112661905D02*
X115624819Y-112757143D01*
X115624819Y-112757143D02*
X115624819Y-112947619D01*
X115624819Y-112947619D02*
X115577200Y-113042857D01*
X115577200Y-113042857D02*
X115529580Y-113090476D01*
X115529580Y-113090476D02*
X115434342Y-113138095D01*
X115434342Y-113138095D02*
X115196247Y-113138095D01*
X115196247Y-113138095D02*
X115101009Y-113090476D01*
X115101009Y-113090476D02*
X115053390Y-113042857D01*
X115053390Y-113042857D02*
X115005771Y-112947619D01*
X115005771Y-112947619D02*
X115005771Y-112757143D01*
X115005771Y-112757143D02*
X115053390Y-112661905D01*
X115053390Y-112661905D02*
X115101009Y-112614286D01*
X115101009Y-112614286D02*
X115196247Y-112566667D01*
X102602380Y-106237295D02*
X102602380Y-105437295D01*
X102602380Y-105437295D02*
X102411904Y-105437295D01*
X102411904Y-105437295D02*
X102297618Y-105475390D01*
X102297618Y-105475390D02*
X102221428Y-105551580D01*
X102221428Y-105551580D02*
X102183333Y-105627771D01*
X102183333Y-105627771D02*
X102145237Y-105780152D01*
X102145237Y-105780152D02*
X102145237Y-105894438D01*
X102145237Y-105894438D02*
X102183333Y-106046819D01*
X102183333Y-106046819D02*
X102221428Y-106123009D01*
X102221428Y-106123009D02*
X102297618Y-106199200D01*
X102297618Y-106199200D02*
X102411904Y-106237295D01*
X102411904Y-106237295D02*
X102602380Y-106237295D01*
X101383333Y-106237295D02*
X101840476Y-106237295D01*
X101611904Y-106237295D02*
X101611904Y-105437295D01*
X101611904Y-105437295D02*
X101688095Y-105551580D01*
X101688095Y-105551580D02*
X101764285Y-105627771D01*
X101764285Y-105627771D02*
X101840476Y-105665866D01*
X100621428Y-106237295D02*
X101078571Y-106237295D01*
X100849999Y-106237295D02*
X100849999Y-105437295D01*
X100849999Y-105437295D02*
X100926190Y-105551580D01*
X100926190Y-105551580D02*
X101002380Y-105627771D01*
X101002380Y-105627771D02*
X101078571Y-105665866D01*
X100126189Y-105437295D02*
X100049999Y-105437295D01*
X100049999Y-105437295D02*
X99973808Y-105475390D01*
X99973808Y-105475390D02*
X99935713Y-105513485D01*
X99935713Y-105513485D02*
X99897618Y-105589676D01*
X99897618Y-105589676D02*
X99859523Y-105742057D01*
X99859523Y-105742057D02*
X99859523Y-105932533D01*
X99859523Y-105932533D02*
X99897618Y-106084914D01*
X99897618Y-106084914D02*
X99935713Y-106161104D01*
X99935713Y-106161104D02*
X99973808Y-106199200D01*
X99973808Y-106199200D02*
X100049999Y-106237295D01*
X100049999Y-106237295D02*
X100126189Y-106237295D01*
X100126189Y-106237295D02*
X100202380Y-106199200D01*
X100202380Y-106199200D02*
X100240475Y-106161104D01*
X100240475Y-106161104D02*
X100278570Y-106084914D01*
X100278570Y-106084914D02*
X100316666Y-105932533D01*
X100316666Y-105932533D02*
X100316666Y-105742057D01*
X100316666Y-105742057D02*
X100278570Y-105589676D01*
X100278570Y-105589676D02*
X100240475Y-105513485D01*
X100240475Y-105513485D02*
X100202380Y-105475390D01*
X100202380Y-105475390D02*
X100126189Y-105437295D01*
X100009580Y-113780952D02*
X100057200Y-113733333D01*
X100057200Y-113733333D02*
X100104819Y-113590476D01*
X100104819Y-113590476D02*
X100104819Y-113495238D01*
X100104819Y-113495238D02*
X100057200Y-113352381D01*
X100057200Y-113352381D02*
X99961961Y-113257143D01*
X99961961Y-113257143D02*
X99866723Y-113209524D01*
X99866723Y-113209524D02*
X99676247Y-113161905D01*
X99676247Y-113161905D02*
X99533390Y-113161905D01*
X99533390Y-113161905D02*
X99342914Y-113209524D01*
X99342914Y-113209524D02*
X99247676Y-113257143D01*
X99247676Y-113257143D02*
X99152438Y-113352381D01*
X99152438Y-113352381D02*
X99104819Y-113495238D01*
X99104819Y-113495238D02*
X99104819Y-113590476D01*
X99104819Y-113590476D02*
X99152438Y-113733333D01*
X99152438Y-113733333D02*
X99200057Y-113780952D01*
X100104819Y-114733333D02*
X100104819Y-114161905D01*
X100104819Y-114447619D02*
X99104819Y-114447619D01*
X99104819Y-114447619D02*
X99247676Y-114352381D01*
X99247676Y-114352381D02*
X99342914Y-114257143D01*
X99342914Y-114257143D02*
X99390533Y-114161905D01*
X100104819Y-115685714D02*
X100104819Y-115114286D01*
X100104819Y-115400000D02*
X99104819Y-115400000D01*
X99104819Y-115400000D02*
X99247676Y-115304762D01*
X99247676Y-115304762D02*
X99342914Y-115209524D01*
X99342914Y-115209524D02*
X99390533Y-115114286D01*
X99104819Y-116304762D02*
X99104819Y-116400000D01*
X99104819Y-116400000D02*
X99152438Y-116495238D01*
X99152438Y-116495238D02*
X99200057Y-116542857D01*
X99200057Y-116542857D02*
X99295295Y-116590476D01*
X99295295Y-116590476D02*
X99485771Y-116638095D01*
X99485771Y-116638095D02*
X99723866Y-116638095D01*
X99723866Y-116638095D02*
X99914342Y-116590476D01*
X99914342Y-116590476D02*
X100009580Y-116542857D01*
X100009580Y-116542857D02*
X100057200Y-116495238D01*
X100057200Y-116495238D02*
X100104819Y-116400000D01*
X100104819Y-116400000D02*
X100104819Y-116304762D01*
X100104819Y-116304762D02*
X100057200Y-116209524D01*
X100057200Y-116209524D02*
X100009580Y-116161905D01*
X100009580Y-116161905D02*
X99914342Y-116114286D01*
X99914342Y-116114286D02*
X99723866Y-116066667D01*
X99723866Y-116066667D02*
X99485771Y-116066667D01*
X99485771Y-116066667D02*
X99295295Y-116114286D01*
X99295295Y-116114286D02*
X99200057Y-116161905D01*
X99200057Y-116161905D02*
X99152438Y-116209524D01*
X99152438Y-116209524D02*
X99104819Y-116304762D01*
X94002380Y-106237295D02*
X94002380Y-105437295D01*
X94002380Y-105437295D02*
X93811904Y-105437295D01*
X93811904Y-105437295D02*
X93697618Y-105475390D01*
X93697618Y-105475390D02*
X93621428Y-105551580D01*
X93621428Y-105551580D02*
X93583333Y-105627771D01*
X93583333Y-105627771D02*
X93545237Y-105780152D01*
X93545237Y-105780152D02*
X93545237Y-105894438D01*
X93545237Y-105894438D02*
X93583333Y-106046819D01*
X93583333Y-106046819D02*
X93621428Y-106123009D01*
X93621428Y-106123009D02*
X93697618Y-106199200D01*
X93697618Y-106199200D02*
X93811904Y-106237295D01*
X93811904Y-106237295D02*
X94002380Y-106237295D01*
X92783333Y-106237295D02*
X93240476Y-106237295D01*
X93011904Y-106237295D02*
X93011904Y-105437295D01*
X93011904Y-105437295D02*
X93088095Y-105551580D01*
X93088095Y-105551580D02*
X93164285Y-105627771D01*
X93164285Y-105627771D02*
X93240476Y-105665866D01*
X92288094Y-105437295D02*
X92211904Y-105437295D01*
X92211904Y-105437295D02*
X92135713Y-105475390D01*
X92135713Y-105475390D02*
X92097618Y-105513485D01*
X92097618Y-105513485D02*
X92059523Y-105589676D01*
X92059523Y-105589676D02*
X92021428Y-105742057D01*
X92021428Y-105742057D02*
X92021428Y-105932533D01*
X92021428Y-105932533D02*
X92059523Y-106084914D01*
X92059523Y-106084914D02*
X92097618Y-106161104D01*
X92097618Y-106161104D02*
X92135713Y-106199200D01*
X92135713Y-106199200D02*
X92211904Y-106237295D01*
X92211904Y-106237295D02*
X92288094Y-106237295D01*
X92288094Y-106237295D02*
X92364285Y-106199200D01*
X92364285Y-106199200D02*
X92402380Y-106161104D01*
X92402380Y-106161104D02*
X92440475Y-106084914D01*
X92440475Y-106084914D02*
X92478571Y-105932533D01*
X92478571Y-105932533D02*
X92478571Y-105742057D01*
X92478571Y-105742057D02*
X92440475Y-105589676D01*
X92440475Y-105589676D02*
X92402380Y-105513485D01*
X92402380Y-105513485D02*
X92364285Y-105475390D01*
X92364285Y-105475390D02*
X92288094Y-105437295D01*
X91640475Y-106237295D02*
X91488094Y-106237295D01*
X91488094Y-106237295D02*
X91411904Y-106199200D01*
X91411904Y-106199200D02*
X91373808Y-106161104D01*
X91373808Y-106161104D02*
X91297618Y-106046819D01*
X91297618Y-106046819D02*
X91259523Y-105894438D01*
X91259523Y-105894438D02*
X91259523Y-105589676D01*
X91259523Y-105589676D02*
X91297618Y-105513485D01*
X91297618Y-105513485D02*
X91335713Y-105475390D01*
X91335713Y-105475390D02*
X91411904Y-105437295D01*
X91411904Y-105437295D02*
X91564285Y-105437295D01*
X91564285Y-105437295D02*
X91640475Y-105475390D01*
X91640475Y-105475390D02*
X91678570Y-105513485D01*
X91678570Y-105513485D02*
X91716666Y-105589676D01*
X91716666Y-105589676D02*
X91716666Y-105780152D01*
X91716666Y-105780152D02*
X91678570Y-105856342D01*
X91678570Y-105856342D02*
X91640475Y-105894438D01*
X91640475Y-105894438D02*
X91564285Y-105932533D01*
X91564285Y-105932533D02*
X91411904Y-105932533D01*
X91411904Y-105932533D02*
X91335713Y-105894438D01*
X91335713Y-105894438D02*
X91297618Y-105856342D01*
X91297618Y-105856342D02*
X91259523Y-105780152D01*
X113419047Y-118237200D02*
X113276190Y-118284819D01*
X113276190Y-118284819D02*
X113038095Y-118284819D01*
X113038095Y-118284819D02*
X112942857Y-118237200D01*
X112942857Y-118237200D02*
X112895238Y-118189580D01*
X112895238Y-118189580D02*
X112847619Y-118094342D01*
X112847619Y-118094342D02*
X112847619Y-117999104D01*
X112847619Y-117999104D02*
X112895238Y-117903866D01*
X112895238Y-117903866D02*
X112942857Y-117856247D01*
X112942857Y-117856247D02*
X113038095Y-117808628D01*
X113038095Y-117808628D02*
X113228571Y-117761009D01*
X113228571Y-117761009D02*
X113323809Y-117713390D01*
X113323809Y-117713390D02*
X113371428Y-117665771D01*
X113371428Y-117665771D02*
X113419047Y-117570533D01*
X113419047Y-117570533D02*
X113419047Y-117475295D01*
X113419047Y-117475295D02*
X113371428Y-117380057D01*
X113371428Y-117380057D02*
X113323809Y-117332438D01*
X113323809Y-117332438D02*
X113228571Y-117284819D01*
X113228571Y-117284819D02*
X112990476Y-117284819D01*
X112990476Y-117284819D02*
X112847619Y-117332438D01*
X111847619Y-118189580D02*
X111895238Y-118237200D01*
X111895238Y-118237200D02*
X112038095Y-118284819D01*
X112038095Y-118284819D02*
X112133333Y-118284819D01*
X112133333Y-118284819D02*
X112276190Y-118237200D01*
X112276190Y-118237200D02*
X112371428Y-118141961D01*
X112371428Y-118141961D02*
X112419047Y-118046723D01*
X112419047Y-118046723D02*
X112466666Y-117856247D01*
X112466666Y-117856247D02*
X112466666Y-117713390D01*
X112466666Y-117713390D02*
X112419047Y-117522914D01*
X112419047Y-117522914D02*
X112371428Y-117427676D01*
X112371428Y-117427676D02*
X112276190Y-117332438D01*
X112276190Y-117332438D02*
X112133333Y-117284819D01*
X112133333Y-117284819D02*
X112038095Y-117284819D01*
X112038095Y-117284819D02*
X111895238Y-117332438D01*
X111895238Y-117332438D02*
X111847619Y-117380057D01*
X110942857Y-118284819D02*
X111419047Y-118284819D01*
X111419047Y-118284819D02*
X111419047Y-117284819D01*
X110085714Y-118284819D02*
X110657142Y-118284819D01*
X110371428Y-118284819D02*
X110371428Y-117284819D01*
X110371428Y-117284819D02*
X110466666Y-117427676D01*
X110466666Y-117427676D02*
X110561904Y-117522914D01*
X110561904Y-117522914D02*
X110657142Y-117570533D01*
X109466666Y-117284819D02*
X109371428Y-117284819D01*
X109371428Y-117284819D02*
X109276190Y-117332438D01*
X109276190Y-117332438D02*
X109228571Y-117380057D01*
X109228571Y-117380057D02*
X109180952Y-117475295D01*
X109180952Y-117475295D02*
X109133333Y-117665771D01*
X109133333Y-117665771D02*
X109133333Y-117903866D01*
X109133333Y-117903866D02*
X109180952Y-118094342D01*
X109180952Y-118094342D02*
X109228571Y-118189580D01*
X109228571Y-118189580D02*
X109276190Y-118237200D01*
X109276190Y-118237200D02*
X109371428Y-118284819D01*
X109371428Y-118284819D02*
X109466666Y-118284819D01*
X109466666Y-118284819D02*
X109561904Y-118237200D01*
X109561904Y-118237200D02*
X109609523Y-118189580D01*
X109609523Y-118189580D02*
X109657142Y-118094342D01*
X109657142Y-118094342D02*
X109704761Y-117903866D01*
X109704761Y-117903866D02*
X109704761Y-117665771D01*
X109704761Y-117665771D02*
X109657142Y-117475295D01*
X109657142Y-117475295D02*
X109609523Y-117380057D01*
X109609523Y-117380057D02*
X109561904Y-117332438D01*
X109561904Y-117332438D02*
X109466666Y-117284819D01*
X108657142Y-118284819D02*
X108466666Y-118284819D01*
X108466666Y-118284819D02*
X108371428Y-118237200D01*
X108371428Y-118237200D02*
X108323809Y-118189580D01*
X108323809Y-118189580D02*
X108228571Y-118046723D01*
X108228571Y-118046723D02*
X108180952Y-117856247D01*
X108180952Y-117856247D02*
X108180952Y-117475295D01*
X108180952Y-117475295D02*
X108228571Y-117380057D01*
X108228571Y-117380057D02*
X108276190Y-117332438D01*
X108276190Y-117332438D02*
X108371428Y-117284819D01*
X108371428Y-117284819D02*
X108561904Y-117284819D01*
X108561904Y-117284819D02*
X108657142Y-117332438D01*
X108657142Y-117332438D02*
X108704761Y-117380057D01*
X108704761Y-117380057D02*
X108752380Y-117475295D01*
X108752380Y-117475295D02*
X108752380Y-117713390D01*
X108752380Y-117713390D02*
X108704761Y-117808628D01*
X108704761Y-117808628D02*
X108657142Y-117856247D01*
X108657142Y-117856247D02*
X108561904Y-117903866D01*
X108561904Y-117903866D02*
X108371428Y-117903866D01*
X108371428Y-117903866D02*
X108276190Y-117856247D01*
X108276190Y-117856247D02*
X108228571Y-117808628D01*
X108228571Y-117808628D02*
X108180952Y-117713390D01*
X103789580Y-106880952D02*
X103837200Y-106833333D01*
X103837200Y-106833333D02*
X103884819Y-106690476D01*
X103884819Y-106690476D02*
X103884819Y-106595238D01*
X103884819Y-106595238D02*
X103837200Y-106452381D01*
X103837200Y-106452381D02*
X103741961Y-106357143D01*
X103741961Y-106357143D02*
X103646723Y-106309524D01*
X103646723Y-106309524D02*
X103456247Y-106261905D01*
X103456247Y-106261905D02*
X103313390Y-106261905D01*
X103313390Y-106261905D02*
X103122914Y-106309524D01*
X103122914Y-106309524D02*
X103027676Y-106357143D01*
X103027676Y-106357143D02*
X102932438Y-106452381D01*
X102932438Y-106452381D02*
X102884819Y-106595238D01*
X102884819Y-106595238D02*
X102884819Y-106690476D01*
X102884819Y-106690476D02*
X102932438Y-106833333D01*
X102932438Y-106833333D02*
X102980057Y-106880952D01*
X103884819Y-107833333D02*
X103884819Y-107261905D01*
X103884819Y-107547619D02*
X102884819Y-107547619D01*
X102884819Y-107547619D02*
X103027676Y-107452381D01*
X103027676Y-107452381D02*
X103122914Y-107357143D01*
X103122914Y-107357143D02*
X103170533Y-107261905D01*
X102980057Y-108214286D02*
X102932438Y-108261905D01*
X102932438Y-108261905D02*
X102884819Y-108357143D01*
X102884819Y-108357143D02*
X102884819Y-108595238D01*
X102884819Y-108595238D02*
X102932438Y-108690476D01*
X102932438Y-108690476D02*
X102980057Y-108738095D01*
X102980057Y-108738095D02*
X103075295Y-108785714D01*
X103075295Y-108785714D02*
X103170533Y-108785714D01*
X103170533Y-108785714D02*
X103313390Y-108738095D01*
X103313390Y-108738095D02*
X103884819Y-108166667D01*
X103884819Y-108166667D02*
X103884819Y-108785714D01*
X103884819Y-109738095D02*
X103884819Y-109166667D01*
X103884819Y-109452381D02*
X102884819Y-109452381D01*
X102884819Y-109452381D02*
X103027676Y-109357143D01*
X103027676Y-109357143D02*
X103122914Y-109261905D01*
X103122914Y-109261905D02*
X103170533Y-109166667D01*
X104309580Y-113780952D02*
X104357200Y-113733333D01*
X104357200Y-113733333D02*
X104404819Y-113590476D01*
X104404819Y-113590476D02*
X104404819Y-113495238D01*
X104404819Y-113495238D02*
X104357200Y-113352381D01*
X104357200Y-113352381D02*
X104261961Y-113257143D01*
X104261961Y-113257143D02*
X104166723Y-113209524D01*
X104166723Y-113209524D02*
X103976247Y-113161905D01*
X103976247Y-113161905D02*
X103833390Y-113161905D01*
X103833390Y-113161905D02*
X103642914Y-113209524D01*
X103642914Y-113209524D02*
X103547676Y-113257143D01*
X103547676Y-113257143D02*
X103452438Y-113352381D01*
X103452438Y-113352381D02*
X103404819Y-113495238D01*
X103404819Y-113495238D02*
X103404819Y-113590476D01*
X103404819Y-113590476D02*
X103452438Y-113733333D01*
X103452438Y-113733333D02*
X103500057Y-113780952D01*
X104404819Y-114733333D02*
X104404819Y-114161905D01*
X104404819Y-114447619D02*
X103404819Y-114447619D01*
X103404819Y-114447619D02*
X103547676Y-114352381D01*
X103547676Y-114352381D02*
X103642914Y-114257143D01*
X103642914Y-114257143D02*
X103690533Y-114161905D01*
X103500057Y-115114286D02*
X103452438Y-115161905D01*
X103452438Y-115161905D02*
X103404819Y-115257143D01*
X103404819Y-115257143D02*
X103404819Y-115495238D01*
X103404819Y-115495238D02*
X103452438Y-115590476D01*
X103452438Y-115590476D02*
X103500057Y-115638095D01*
X103500057Y-115638095D02*
X103595295Y-115685714D01*
X103595295Y-115685714D02*
X103690533Y-115685714D01*
X103690533Y-115685714D02*
X103833390Y-115638095D01*
X103833390Y-115638095D02*
X104404819Y-115066667D01*
X104404819Y-115066667D02*
X104404819Y-115685714D01*
X103404819Y-116304762D02*
X103404819Y-116400000D01*
X103404819Y-116400000D02*
X103452438Y-116495238D01*
X103452438Y-116495238D02*
X103500057Y-116542857D01*
X103500057Y-116542857D02*
X103595295Y-116590476D01*
X103595295Y-116590476D02*
X103785771Y-116638095D01*
X103785771Y-116638095D02*
X104023866Y-116638095D01*
X104023866Y-116638095D02*
X104214342Y-116590476D01*
X104214342Y-116590476D02*
X104309580Y-116542857D01*
X104309580Y-116542857D02*
X104357200Y-116495238D01*
X104357200Y-116495238D02*
X104404819Y-116400000D01*
X104404819Y-116400000D02*
X104404819Y-116304762D01*
X104404819Y-116304762D02*
X104357200Y-116209524D01*
X104357200Y-116209524D02*
X104309580Y-116161905D01*
X104309580Y-116161905D02*
X104214342Y-116114286D01*
X104214342Y-116114286D02*
X104023866Y-116066667D01*
X104023866Y-116066667D02*
X103785771Y-116066667D01*
X103785771Y-116066667D02*
X103595295Y-116114286D01*
X103595295Y-116114286D02*
X103500057Y-116161905D01*
X103500057Y-116161905D02*
X103452438Y-116209524D01*
X103452438Y-116209524D02*
X103404819Y-116304762D01*
X117702380Y-104622295D02*
X117702380Y-103822295D01*
X117702380Y-103822295D02*
X117511904Y-103822295D01*
X117511904Y-103822295D02*
X117397618Y-103860390D01*
X117397618Y-103860390D02*
X117321428Y-103936580D01*
X117321428Y-103936580D02*
X117283333Y-104012771D01*
X117283333Y-104012771D02*
X117245237Y-104165152D01*
X117245237Y-104165152D02*
X117245237Y-104279438D01*
X117245237Y-104279438D02*
X117283333Y-104431819D01*
X117283333Y-104431819D02*
X117321428Y-104508009D01*
X117321428Y-104508009D02*
X117397618Y-104584200D01*
X117397618Y-104584200D02*
X117511904Y-104622295D01*
X117511904Y-104622295D02*
X117702380Y-104622295D01*
X116483333Y-104622295D02*
X116940476Y-104622295D01*
X116711904Y-104622295D02*
X116711904Y-103822295D01*
X116711904Y-103822295D02*
X116788095Y-103936580D01*
X116788095Y-103936580D02*
X116864285Y-104012771D01*
X116864285Y-104012771D02*
X116940476Y-104050866D01*
X115721428Y-104622295D02*
X116178571Y-104622295D01*
X115949999Y-104622295D02*
X115949999Y-103822295D01*
X115949999Y-103822295D02*
X116026190Y-103936580D01*
X116026190Y-103936580D02*
X116102380Y-104012771D01*
X116102380Y-104012771D02*
X116178571Y-104050866D01*
X115035713Y-104088961D02*
X115035713Y-104622295D01*
X115226189Y-103784200D02*
X115416666Y-104355628D01*
X115416666Y-104355628D02*
X114921427Y-104355628D01*
D11*
X97360735Y-106742857D02*
X97360735Y-106895238D01*
X97360735Y-106895238D02*
X97398830Y-106971428D01*
X97398830Y-106971428D02*
X97475020Y-107047619D01*
X97475020Y-107047619D02*
X97627401Y-107085714D01*
X97627401Y-107085714D02*
X97894068Y-107085714D01*
X97894068Y-107085714D02*
X98046449Y-107047619D01*
X98046449Y-107047619D02*
X98122640Y-106971428D01*
X98122640Y-106971428D02*
X98160735Y-106895238D01*
X98160735Y-106895238D02*
X98160735Y-106742857D01*
X98160735Y-106742857D02*
X98122640Y-106666666D01*
X98122640Y-106666666D02*
X98046449Y-106590476D01*
X98046449Y-106590476D02*
X97894068Y-106552380D01*
X97894068Y-106552380D02*
X97627401Y-106552380D01*
X97627401Y-106552380D02*
X97475020Y-106590476D01*
X97475020Y-106590476D02*
X97398830Y-106666666D01*
X97398830Y-106666666D02*
X97360735Y-106742857D01*
X98160735Y-107428571D02*
X97360735Y-107428571D01*
X97360735Y-107428571D02*
X97360735Y-107733333D01*
X97360735Y-107733333D02*
X97398830Y-107809523D01*
X97398830Y-107809523D02*
X97436925Y-107847618D01*
X97436925Y-107847618D02*
X97513116Y-107885714D01*
X97513116Y-107885714D02*
X97627401Y-107885714D01*
X97627401Y-107885714D02*
X97703592Y-107847618D01*
X97703592Y-107847618D02*
X97741687Y-107809523D01*
X97741687Y-107809523D02*
X97779782Y-107733333D01*
X97779782Y-107733333D02*
X97779782Y-107428571D01*
X98160735Y-108647618D02*
X98160735Y-108190475D01*
X98160735Y-108419047D02*
X97360735Y-108419047D01*
X97360735Y-108419047D02*
X97475020Y-108342856D01*
X97475020Y-108342856D02*
X97551211Y-108266666D01*
X97551211Y-108266666D02*
X97589306Y-108190475D01*
D10*
X95562295Y-108141541D02*
X95562295Y-108293922D01*
X95562295Y-108293922D02*
X95600390Y-108370112D01*
X95600390Y-108370112D02*
X95676580Y-108446303D01*
X95676580Y-108446303D02*
X95828961Y-108484398D01*
X95828961Y-108484398D02*
X96095628Y-108484398D01*
X96095628Y-108484398D02*
X96248009Y-108446303D01*
X96248009Y-108446303D02*
X96324200Y-108370112D01*
X96324200Y-108370112D02*
X96362295Y-108293922D01*
X96362295Y-108293922D02*
X96362295Y-108141541D01*
X96362295Y-108141541D02*
X96324200Y-108065350D01*
X96324200Y-108065350D02*
X96248009Y-107989160D01*
X96248009Y-107989160D02*
X96095628Y-107951064D01*
X96095628Y-107951064D02*
X95828961Y-107951064D01*
X95828961Y-107951064D02*
X95676580Y-107989160D01*
X95676580Y-107989160D02*
X95600390Y-108065350D01*
X95600390Y-108065350D02*
X95562295Y-108141541D01*
X96362295Y-108827255D02*
X95562295Y-108827255D01*
X95562295Y-108827255D02*
X95562295Y-109132017D01*
X95562295Y-109132017D02*
X95600390Y-109208207D01*
X95600390Y-109208207D02*
X95638485Y-109246302D01*
X95638485Y-109246302D02*
X95714676Y-109284398D01*
X95714676Y-109284398D02*
X95828961Y-109284398D01*
X95828961Y-109284398D02*
X95905152Y-109246302D01*
X95905152Y-109246302D02*
X95943247Y-109208207D01*
X95943247Y-109208207D02*
X95981342Y-109132017D01*
X95981342Y-109132017D02*
X95981342Y-108827255D01*
X96362295Y-110046302D02*
X96362295Y-109589159D01*
X96362295Y-109817731D02*
X95562295Y-109817731D01*
X95562295Y-109817731D02*
X95676580Y-109741540D01*
X95676580Y-109741540D02*
X95752771Y-109665350D01*
X95752771Y-109665350D02*
X95790866Y-109589159D01*
X104524819Y-110880952D02*
X104048628Y-110547619D01*
X104524819Y-110309524D02*
X103524819Y-110309524D01*
X103524819Y-110309524D02*
X103524819Y-110690476D01*
X103524819Y-110690476D02*
X103572438Y-110785714D01*
X103572438Y-110785714D02*
X103620057Y-110833333D01*
X103620057Y-110833333D02*
X103715295Y-110880952D01*
X103715295Y-110880952D02*
X103858152Y-110880952D01*
X103858152Y-110880952D02*
X103953390Y-110833333D01*
X103953390Y-110833333D02*
X104001009Y-110785714D01*
X104001009Y-110785714D02*
X104048628Y-110690476D01*
X104048628Y-110690476D02*
X104048628Y-110309524D01*
X104524819Y-111833333D02*
X104524819Y-111261905D01*
X104524819Y-111547619D02*
X103524819Y-111547619D01*
X103524819Y-111547619D02*
X103667676Y-111452381D01*
X103667676Y-111452381D02*
X103762914Y-111357143D01*
X103762914Y-111357143D02*
X103810533Y-111261905D01*
X104524819Y-112785714D02*
X104524819Y-112214286D01*
X104524819Y-112500000D02*
X103524819Y-112500000D01*
X103524819Y-112500000D02*
X103667676Y-112404762D01*
X103667676Y-112404762D02*
X103762914Y-112309524D01*
X103762914Y-112309524D02*
X103810533Y-112214286D01*
X103524819Y-113642857D02*
X103524819Y-113452381D01*
X103524819Y-113452381D02*
X103572438Y-113357143D01*
X103572438Y-113357143D02*
X103620057Y-113309524D01*
X103620057Y-113309524D02*
X103762914Y-113214286D01*
X103762914Y-113214286D02*
X103953390Y-113166667D01*
X103953390Y-113166667D02*
X104334342Y-113166667D01*
X104334342Y-113166667D02*
X104429580Y-113214286D01*
X104429580Y-113214286D02*
X104477200Y-113261905D01*
X104477200Y-113261905D02*
X104524819Y-113357143D01*
X104524819Y-113357143D02*
X104524819Y-113547619D01*
X104524819Y-113547619D02*
X104477200Y-113642857D01*
X104477200Y-113642857D02*
X104429580Y-113690476D01*
X104429580Y-113690476D02*
X104334342Y-113738095D01*
X104334342Y-113738095D02*
X104096247Y-113738095D01*
X104096247Y-113738095D02*
X104001009Y-113690476D01*
X104001009Y-113690476D02*
X103953390Y-113642857D01*
X103953390Y-113642857D02*
X103905771Y-113547619D01*
X103905771Y-113547619D02*
X103905771Y-113357143D01*
X103905771Y-113357143D02*
X103953390Y-113261905D01*
X103953390Y-113261905D02*
X104001009Y-113214286D01*
X104001009Y-113214286D02*
X104096247Y-113166667D01*
D11*
X119960735Y-106205357D02*
X119160735Y-106205357D01*
X119960735Y-106586309D02*
X119160735Y-106586309D01*
X119160735Y-106586309D02*
X119960735Y-107043452D01*
X119960735Y-107043452D02*
X119160735Y-107043452D01*
X119960735Y-107424404D02*
X119160735Y-107424404D01*
X119160735Y-107424404D02*
X119732163Y-107691070D01*
X119732163Y-107691070D02*
X119160735Y-107957737D01*
X119160735Y-107957737D02*
X119960735Y-107957737D01*
X119960735Y-108757737D02*
X119960735Y-108300594D01*
X119960735Y-108529166D02*
X119160735Y-108529166D01*
X119160735Y-108529166D02*
X119275020Y-108452975D01*
X119275020Y-108452975D02*
X119351211Y-108376785D01*
X119351211Y-108376785D02*
X119389306Y-108300594D01*
D10*
X118162295Y-107851660D02*
X117362295Y-107851660D01*
X118162295Y-108232612D02*
X117362295Y-108232612D01*
X117362295Y-108232612D02*
X118162295Y-108689755D01*
X118162295Y-108689755D02*
X117362295Y-108689755D01*
X118162295Y-109070707D02*
X117362295Y-109070707D01*
X117362295Y-109070707D02*
X117933723Y-109337373D01*
X117933723Y-109337373D02*
X117362295Y-109604040D01*
X117362295Y-109604040D02*
X118162295Y-109604040D01*
X118162295Y-110404040D02*
X118162295Y-109946897D01*
X118162295Y-110175469D02*
X117362295Y-110175469D01*
X117362295Y-110175469D02*
X117476580Y-110099278D01*
X117476580Y-110099278D02*
X117552771Y-110023088D01*
X117552771Y-110023088D02*
X117590866Y-109946897D01*
X118593247Y-106406428D02*
X118593247Y-106139762D01*
X119012295Y-106139762D02*
X118212295Y-106139762D01*
X118212295Y-106139762D02*
X118212295Y-106520714D01*
X118593247Y-107092142D02*
X118631342Y-107206428D01*
X118631342Y-107206428D02*
X118669438Y-107244523D01*
X118669438Y-107244523D02*
X118745628Y-107282619D01*
X118745628Y-107282619D02*
X118859914Y-107282619D01*
X118859914Y-107282619D02*
X118936104Y-107244523D01*
X118936104Y-107244523D02*
X118974200Y-107206428D01*
X118974200Y-107206428D02*
X119012295Y-107130238D01*
X119012295Y-107130238D02*
X119012295Y-106825476D01*
X119012295Y-106825476D02*
X118212295Y-106825476D01*
X118212295Y-106825476D02*
X118212295Y-107092142D01*
X118212295Y-107092142D02*
X118250390Y-107168333D01*
X118250390Y-107168333D02*
X118288485Y-107206428D01*
X118288485Y-107206428D02*
X118364676Y-107244523D01*
X118364676Y-107244523D02*
X118440866Y-107244523D01*
X118440866Y-107244523D02*
X118517057Y-107206428D01*
X118517057Y-107206428D02*
X118555152Y-107168333D01*
X118555152Y-107168333D02*
X118593247Y-107092142D01*
X118593247Y-107092142D02*
X118593247Y-106825476D01*
X119012295Y-108044523D02*
X119012295Y-107587380D01*
X119012295Y-107815952D02*
X118212295Y-107815952D01*
X118212295Y-107815952D02*
X118326580Y-107739761D01*
X118326580Y-107739761D02*
X118402771Y-107663571D01*
X118402771Y-107663571D02*
X118440866Y-107587380D01*
X118212295Y-108539762D02*
X118212295Y-108615952D01*
X118212295Y-108615952D02*
X118250390Y-108692143D01*
X118250390Y-108692143D02*
X118288485Y-108730238D01*
X118288485Y-108730238D02*
X118364676Y-108768333D01*
X118364676Y-108768333D02*
X118517057Y-108806428D01*
X118517057Y-108806428D02*
X118707533Y-108806428D01*
X118707533Y-108806428D02*
X118859914Y-108768333D01*
X118859914Y-108768333D02*
X118936104Y-108730238D01*
X118936104Y-108730238D02*
X118974200Y-108692143D01*
X118974200Y-108692143D02*
X119012295Y-108615952D01*
X119012295Y-108615952D02*
X119012295Y-108539762D01*
X119012295Y-108539762D02*
X118974200Y-108463571D01*
X118974200Y-108463571D02*
X118936104Y-108425476D01*
X118936104Y-108425476D02*
X118859914Y-108387381D01*
X118859914Y-108387381D02*
X118707533Y-108349285D01*
X118707533Y-108349285D02*
X118517057Y-108349285D01*
X118517057Y-108349285D02*
X118364676Y-108387381D01*
X118364676Y-108387381D02*
X118288485Y-108425476D01*
X118288485Y-108425476D02*
X118250390Y-108463571D01*
X118250390Y-108463571D02*
X118212295Y-108539762D01*
X119012295Y-109187381D02*
X119012295Y-109339762D01*
X119012295Y-109339762D02*
X118974200Y-109415952D01*
X118974200Y-109415952D02*
X118936104Y-109454048D01*
X118936104Y-109454048D02*
X118821819Y-109530238D01*
X118821819Y-109530238D02*
X118669438Y-109568333D01*
X118669438Y-109568333D02*
X118364676Y-109568333D01*
X118364676Y-109568333D02*
X118288485Y-109530238D01*
X118288485Y-109530238D02*
X118250390Y-109492143D01*
X118250390Y-109492143D02*
X118212295Y-109415952D01*
X118212295Y-109415952D02*
X118212295Y-109263571D01*
X118212295Y-109263571D02*
X118250390Y-109187381D01*
X118250390Y-109187381D02*
X118288485Y-109149286D01*
X118288485Y-109149286D02*
X118364676Y-109111190D01*
X118364676Y-109111190D02*
X118555152Y-109111190D01*
X118555152Y-109111190D02*
X118631342Y-109149286D01*
X118631342Y-109149286D02*
X118669438Y-109187381D01*
X118669438Y-109187381D02*
X118707533Y-109263571D01*
X118707533Y-109263571D02*
X118707533Y-109415952D01*
X118707533Y-109415952D02*
X118669438Y-109492143D01*
X118669438Y-109492143D02*
X118631342Y-109530238D01*
X118631342Y-109530238D02*
X118555152Y-109568333D01*
D11*
X122033333Y-116198830D02*
X122109523Y-116160735D01*
X122109523Y-116160735D02*
X122223809Y-116160735D01*
X122223809Y-116160735D02*
X122338095Y-116198830D01*
X122338095Y-116198830D02*
X122414285Y-116275020D01*
X122414285Y-116275020D02*
X122452380Y-116351211D01*
X122452380Y-116351211D02*
X122490476Y-116503592D01*
X122490476Y-116503592D02*
X122490476Y-116617878D01*
X122490476Y-116617878D02*
X122452380Y-116770259D01*
X122452380Y-116770259D02*
X122414285Y-116846449D01*
X122414285Y-116846449D02*
X122338095Y-116922640D01*
X122338095Y-116922640D02*
X122223809Y-116960735D01*
X122223809Y-116960735D02*
X122147618Y-116960735D01*
X122147618Y-116960735D02*
X122033333Y-116922640D01*
X122033333Y-116922640D02*
X121995237Y-116884544D01*
X121995237Y-116884544D02*
X121995237Y-116617878D01*
X121995237Y-116617878D02*
X122147618Y-116617878D01*
X121233333Y-116960735D02*
X121690476Y-116960735D01*
X121461904Y-116960735D02*
X121461904Y-116160735D01*
X121461904Y-116160735D02*
X121538095Y-116275020D01*
X121538095Y-116275020D02*
X121614285Y-116351211D01*
X121614285Y-116351211D02*
X121690476Y-116389306D01*
X120471428Y-116960735D02*
X120928571Y-116960735D01*
X120699999Y-116960735D02*
X120699999Y-116160735D01*
X120699999Y-116160735D02*
X120776190Y-116275020D01*
X120776190Y-116275020D02*
X120852380Y-116351211D01*
X120852380Y-116351211D02*
X120928571Y-116389306D01*
X120090475Y-116960735D02*
X119938094Y-116960735D01*
X119938094Y-116960735D02*
X119861904Y-116922640D01*
X119861904Y-116922640D02*
X119823808Y-116884544D01*
X119823808Y-116884544D02*
X119747618Y-116770259D01*
X119747618Y-116770259D02*
X119709523Y-116617878D01*
X119709523Y-116617878D02*
X119709523Y-116313116D01*
X119709523Y-116313116D02*
X119747618Y-116236925D01*
X119747618Y-116236925D02*
X119785713Y-116198830D01*
X119785713Y-116198830D02*
X119861904Y-116160735D01*
X119861904Y-116160735D02*
X120014285Y-116160735D01*
X120014285Y-116160735D02*
X120090475Y-116198830D01*
X120090475Y-116198830D02*
X120128570Y-116236925D01*
X120128570Y-116236925D02*
X120166666Y-116313116D01*
X120166666Y-116313116D02*
X120166666Y-116503592D01*
X120166666Y-116503592D02*
X120128570Y-116579782D01*
X120128570Y-116579782D02*
X120090475Y-116617878D01*
X120090475Y-116617878D02*
X120014285Y-116655973D01*
X120014285Y-116655973D02*
X119861904Y-116655973D01*
X119861904Y-116655973D02*
X119785713Y-116617878D01*
X119785713Y-116617878D02*
X119747618Y-116579782D01*
X119747618Y-116579782D02*
X119709523Y-116503592D01*
D10*
X120091793Y-115200390D02*
X120167983Y-115162295D01*
X120167983Y-115162295D02*
X120282269Y-115162295D01*
X120282269Y-115162295D02*
X120396555Y-115200390D01*
X120396555Y-115200390D02*
X120472745Y-115276580D01*
X120472745Y-115276580D02*
X120510840Y-115352771D01*
X120510840Y-115352771D02*
X120548936Y-115505152D01*
X120548936Y-115505152D02*
X120548936Y-115619438D01*
X120548936Y-115619438D02*
X120510840Y-115771819D01*
X120510840Y-115771819D02*
X120472745Y-115848009D01*
X120472745Y-115848009D02*
X120396555Y-115924200D01*
X120396555Y-115924200D02*
X120282269Y-115962295D01*
X120282269Y-115962295D02*
X120206078Y-115962295D01*
X120206078Y-115962295D02*
X120091793Y-115924200D01*
X120091793Y-115924200D02*
X120053697Y-115886104D01*
X120053697Y-115886104D02*
X120053697Y-115619438D01*
X120053697Y-115619438D02*
X120206078Y-115619438D01*
X122193247Y-106443928D02*
X122193247Y-106177262D01*
X122612295Y-106177262D02*
X121812295Y-106177262D01*
X121812295Y-106177262D02*
X121812295Y-106558214D01*
X122193247Y-107129642D02*
X122231342Y-107243928D01*
X122231342Y-107243928D02*
X122269438Y-107282023D01*
X122269438Y-107282023D02*
X122345628Y-107320119D01*
X122345628Y-107320119D02*
X122459914Y-107320119D01*
X122459914Y-107320119D02*
X122536104Y-107282023D01*
X122536104Y-107282023D02*
X122574200Y-107243928D01*
X122574200Y-107243928D02*
X122612295Y-107167738D01*
X122612295Y-107167738D02*
X122612295Y-106862976D01*
X122612295Y-106862976D02*
X121812295Y-106862976D01*
X121812295Y-106862976D02*
X121812295Y-107129642D01*
X121812295Y-107129642D02*
X121850390Y-107205833D01*
X121850390Y-107205833D02*
X121888485Y-107243928D01*
X121888485Y-107243928D02*
X121964676Y-107282023D01*
X121964676Y-107282023D02*
X122040866Y-107282023D01*
X122040866Y-107282023D02*
X122117057Y-107243928D01*
X122117057Y-107243928D02*
X122155152Y-107205833D01*
X122155152Y-107205833D02*
X122193247Y-107129642D01*
X122193247Y-107129642D02*
X122193247Y-106862976D01*
X122612295Y-108082023D02*
X122612295Y-107624880D01*
X122612295Y-107853452D02*
X121812295Y-107853452D01*
X121812295Y-107853452D02*
X121926580Y-107777261D01*
X121926580Y-107777261D02*
X122002771Y-107701071D01*
X122002771Y-107701071D02*
X122040866Y-107624880D01*
X121812295Y-108577262D02*
X121812295Y-108653452D01*
X121812295Y-108653452D02*
X121850390Y-108729643D01*
X121850390Y-108729643D02*
X121888485Y-108767738D01*
X121888485Y-108767738D02*
X121964676Y-108805833D01*
X121964676Y-108805833D02*
X122117057Y-108843928D01*
X122117057Y-108843928D02*
X122307533Y-108843928D01*
X122307533Y-108843928D02*
X122459914Y-108805833D01*
X122459914Y-108805833D02*
X122536104Y-108767738D01*
X122536104Y-108767738D02*
X122574200Y-108729643D01*
X122574200Y-108729643D02*
X122612295Y-108653452D01*
X122612295Y-108653452D02*
X122612295Y-108577262D01*
X122612295Y-108577262D02*
X122574200Y-108501071D01*
X122574200Y-108501071D02*
X122536104Y-108462976D01*
X122536104Y-108462976D02*
X122459914Y-108424881D01*
X122459914Y-108424881D02*
X122307533Y-108386785D01*
X122307533Y-108386785D02*
X122117057Y-108386785D01*
X122117057Y-108386785D02*
X121964676Y-108424881D01*
X121964676Y-108424881D02*
X121888485Y-108462976D01*
X121888485Y-108462976D02*
X121850390Y-108501071D01*
X121850390Y-108501071D02*
X121812295Y-108577262D01*
X122155152Y-109301071D02*
X122117057Y-109224881D01*
X122117057Y-109224881D02*
X122078961Y-109186786D01*
X122078961Y-109186786D02*
X122002771Y-109148690D01*
X122002771Y-109148690D02*
X121964676Y-109148690D01*
X121964676Y-109148690D02*
X121888485Y-109186786D01*
X121888485Y-109186786D02*
X121850390Y-109224881D01*
X121850390Y-109224881D02*
X121812295Y-109301071D01*
X121812295Y-109301071D02*
X121812295Y-109453452D01*
X121812295Y-109453452D02*
X121850390Y-109529643D01*
X121850390Y-109529643D02*
X121888485Y-109567738D01*
X121888485Y-109567738D02*
X121964676Y-109605833D01*
X121964676Y-109605833D02*
X122002771Y-109605833D01*
X122002771Y-109605833D02*
X122078961Y-109567738D01*
X122078961Y-109567738D02*
X122117057Y-109529643D01*
X122117057Y-109529643D02*
X122155152Y-109453452D01*
X122155152Y-109453452D02*
X122155152Y-109301071D01*
X122155152Y-109301071D02*
X122193247Y-109224881D01*
X122193247Y-109224881D02*
X122231342Y-109186786D01*
X122231342Y-109186786D02*
X122307533Y-109148690D01*
X122307533Y-109148690D02*
X122459914Y-109148690D01*
X122459914Y-109148690D02*
X122536104Y-109186786D01*
X122536104Y-109186786D02*
X122574200Y-109224881D01*
X122574200Y-109224881D02*
X122612295Y-109301071D01*
X122612295Y-109301071D02*
X122612295Y-109453452D01*
X122612295Y-109453452D02*
X122574200Y-109529643D01*
X122574200Y-109529643D02*
X122536104Y-109567738D01*
X122536104Y-109567738D02*
X122459914Y-109605833D01*
X122459914Y-109605833D02*
X122307533Y-109605833D01*
X122307533Y-109605833D02*
X122231342Y-109567738D01*
X122231342Y-109567738D02*
X122193247Y-109529643D01*
X122193247Y-109529643D02*
X122155152Y-109453452D01*
X114102380Y-104487295D02*
X114102380Y-103687295D01*
X114102380Y-103687295D02*
X113911904Y-103687295D01*
X113911904Y-103687295D02*
X113797618Y-103725390D01*
X113797618Y-103725390D02*
X113721428Y-103801580D01*
X113721428Y-103801580D02*
X113683333Y-103877771D01*
X113683333Y-103877771D02*
X113645237Y-104030152D01*
X113645237Y-104030152D02*
X113645237Y-104144438D01*
X113645237Y-104144438D02*
X113683333Y-104296819D01*
X113683333Y-104296819D02*
X113721428Y-104373009D01*
X113721428Y-104373009D02*
X113797618Y-104449200D01*
X113797618Y-104449200D02*
X113911904Y-104487295D01*
X113911904Y-104487295D02*
X114102380Y-104487295D01*
X112883333Y-104487295D02*
X113340476Y-104487295D01*
X113111904Y-104487295D02*
X113111904Y-103687295D01*
X113111904Y-103687295D02*
X113188095Y-103801580D01*
X113188095Y-103801580D02*
X113264285Y-103877771D01*
X113264285Y-103877771D02*
X113340476Y-103915866D01*
X112121428Y-104487295D02*
X112578571Y-104487295D01*
X112349999Y-104487295D02*
X112349999Y-103687295D01*
X112349999Y-103687295D02*
X112426190Y-103801580D01*
X112426190Y-103801580D02*
X112502380Y-103877771D01*
X112502380Y-103877771D02*
X112578571Y-103915866D01*
X111397618Y-103687295D02*
X111778570Y-103687295D01*
X111778570Y-103687295D02*
X111816666Y-104068247D01*
X111816666Y-104068247D02*
X111778570Y-104030152D01*
X111778570Y-104030152D02*
X111702380Y-103992057D01*
X111702380Y-103992057D02*
X111511904Y-103992057D01*
X111511904Y-103992057D02*
X111435713Y-104030152D01*
X111435713Y-104030152D02*
X111397618Y-104068247D01*
X111397618Y-104068247D02*
X111359523Y-104144438D01*
X111359523Y-104144438D02*
X111359523Y-104334914D01*
X111359523Y-104334914D02*
X111397618Y-104411104D01*
X111397618Y-104411104D02*
X111435713Y-104449200D01*
X111435713Y-104449200D02*
X111511904Y-104487295D01*
X111511904Y-104487295D02*
X111702380Y-104487295D01*
X111702380Y-104487295D02*
X111778570Y-104449200D01*
X111778570Y-104449200D02*
X111816666Y-104411104D01*
X111279197Y-115669034D02*
X111326817Y-115621415D01*
X111326817Y-115621415D02*
X111374436Y-115478558D01*
X111374436Y-115478558D02*
X111374436Y-115383320D01*
X111374436Y-115383320D02*
X111326817Y-115240463D01*
X111326817Y-115240463D02*
X111231578Y-115145225D01*
X111231578Y-115145225D02*
X111136340Y-115097606D01*
X111136340Y-115097606D02*
X110945864Y-115049987D01*
X110945864Y-115049987D02*
X110803007Y-115049987D01*
X110803007Y-115049987D02*
X110612531Y-115097606D01*
X110612531Y-115097606D02*
X110517293Y-115145225D01*
X110517293Y-115145225D02*
X110422055Y-115240463D01*
X110422055Y-115240463D02*
X110374436Y-115383320D01*
X110374436Y-115383320D02*
X110374436Y-115478558D01*
X110374436Y-115478558D02*
X110422055Y-115621415D01*
X110422055Y-115621415D02*
X110469674Y-115669034D01*
X111374436Y-116621415D02*
X111374436Y-116049987D01*
X111374436Y-116335701D02*
X110374436Y-116335701D01*
X110374436Y-116335701D02*
X110517293Y-116240463D01*
X110517293Y-116240463D02*
X110612531Y-116145225D01*
X110612531Y-116145225D02*
X110660150Y-116049987D01*
X110469674Y-117002368D02*
X110422055Y-117049987D01*
X110422055Y-117049987D02*
X110374436Y-117145225D01*
X110374436Y-117145225D02*
X110374436Y-117383320D01*
X110374436Y-117383320D02*
X110422055Y-117478558D01*
X110422055Y-117478558D02*
X110469674Y-117526177D01*
X110469674Y-117526177D02*
X110564912Y-117573796D01*
X110564912Y-117573796D02*
X110660150Y-117573796D01*
X110660150Y-117573796D02*
X110803007Y-117526177D01*
X110803007Y-117526177D02*
X111374436Y-116954749D01*
X111374436Y-116954749D02*
X111374436Y-117573796D01*
X111374436Y-118049987D02*
X111374436Y-118240463D01*
X111374436Y-118240463D02*
X111326817Y-118335701D01*
X111326817Y-118335701D02*
X111279197Y-118383320D01*
X111279197Y-118383320D02*
X111136340Y-118478558D01*
X111136340Y-118478558D02*
X110945864Y-118526177D01*
X110945864Y-118526177D02*
X110564912Y-118526177D01*
X110564912Y-118526177D02*
X110469674Y-118478558D01*
X110469674Y-118478558D02*
X110422055Y-118430939D01*
X110422055Y-118430939D02*
X110374436Y-118335701D01*
X110374436Y-118335701D02*
X110374436Y-118145225D01*
X110374436Y-118145225D02*
X110422055Y-118049987D01*
X110422055Y-118049987D02*
X110469674Y-118002368D01*
X110469674Y-118002368D02*
X110564912Y-117954749D01*
X110564912Y-117954749D02*
X110803007Y-117954749D01*
X110803007Y-117954749D02*
X110898245Y-118002368D01*
X110898245Y-118002368D02*
X110945864Y-118049987D01*
X110945864Y-118049987D02*
X110993483Y-118145225D01*
X110993483Y-118145225D02*
X110993483Y-118335701D01*
X110993483Y-118335701D02*
X110945864Y-118430939D01*
X110945864Y-118430939D02*
X110898245Y-118478558D01*
X110898245Y-118478558D02*
X110803007Y-118526177D01*
D11*
X89760735Y-105485714D02*
X89760735Y-105638095D01*
X89760735Y-105638095D02*
X89798830Y-105714285D01*
X89798830Y-105714285D02*
X89875020Y-105790476D01*
X89875020Y-105790476D02*
X90027401Y-105828571D01*
X90027401Y-105828571D02*
X90294068Y-105828571D01*
X90294068Y-105828571D02*
X90446449Y-105790476D01*
X90446449Y-105790476D02*
X90522640Y-105714285D01*
X90522640Y-105714285D02*
X90560735Y-105638095D01*
X90560735Y-105638095D02*
X90560735Y-105485714D01*
X90560735Y-105485714D02*
X90522640Y-105409523D01*
X90522640Y-105409523D02*
X90446449Y-105333333D01*
X90446449Y-105333333D02*
X90294068Y-105295237D01*
X90294068Y-105295237D02*
X90027401Y-105295237D01*
X90027401Y-105295237D02*
X89875020Y-105333333D01*
X89875020Y-105333333D02*
X89798830Y-105409523D01*
X89798830Y-105409523D02*
X89760735Y-105485714D01*
X90560735Y-106171428D02*
X89760735Y-106171428D01*
X89760735Y-106171428D02*
X90332163Y-106438094D01*
X90332163Y-106438094D02*
X89760735Y-106704761D01*
X89760735Y-106704761D02*
X90560735Y-106704761D01*
X90560735Y-107504761D02*
X90560735Y-107047618D01*
X90560735Y-107276190D02*
X89760735Y-107276190D01*
X89760735Y-107276190D02*
X89875020Y-107199999D01*
X89875020Y-107199999D02*
X89951211Y-107123809D01*
X89951211Y-107123809D02*
X89989306Y-107047618D01*
D10*
X92437704Y-110120112D02*
X92437704Y-109967731D01*
X92437704Y-109967731D02*
X92399609Y-109891541D01*
X92399609Y-109891541D02*
X92323419Y-109815350D01*
X92323419Y-109815350D02*
X92171038Y-109777255D01*
X92171038Y-109777255D02*
X91904371Y-109777255D01*
X91904371Y-109777255D02*
X91751990Y-109815350D01*
X91751990Y-109815350D02*
X91675800Y-109891541D01*
X91675800Y-109891541D02*
X91637704Y-109967731D01*
X91637704Y-109967731D02*
X91637704Y-110120112D01*
X91637704Y-110120112D02*
X91675800Y-110196303D01*
X91675800Y-110196303D02*
X91751990Y-110272493D01*
X91751990Y-110272493D02*
X91904371Y-110310589D01*
X91904371Y-110310589D02*
X92171038Y-110310589D01*
X92171038Y-110310589D02*
X92323419Y-110272493D01*
X92323419Y-110272493D02*
X92399609Y-110196303D01*
X92399609Y-110196303D02*
X92437704Y-110120112D01*
X91637704Y-109434398D02*
X92437704Y-109434398D01*
X92437704Y-109434398D02*
X91866276Y-109167732D01*
X91866276Y-109167732D02*
X92437704Y-108901065D01*
X92437704Y-108901065D02*
X91637704Y-108901065D01*
X91637704Y-108101065D02*
X91637704Y-108558208D01*
X91637704Y-108329636D02*
X92437704Y-108329636D01*
X92437704Y-108329636D02*
X92323419Y-108405827D01*
X92323419Y-108405827D02*
X92247228Y-108482017D01*
X92247228Y-108482017D02*
X92209133Y-108558208D01*
X95189580Y-106880952D02*
X95237200Y-106833333D01*
X95237200Y-106833333D02*
X95284819Y-106690476D01*
X95284819Y-106690476D02*
X95284819Y-106595238D01*
X95284819Y-106595238D02*
X95237200Y-106452381D01*
X95237200Y-106452381D02*
X95141961Y-106357143D01*
X95141961Y-106357143D02*
X95046723Y-106309524D01*
X95046723Y-106309524D02*
X94856247Y-106261905D01*
X94856247Y-106261905D02*
X94713390Y-106261905D01*
X94713390Y-106261905D02*
X94522914Y-106309524D01*
X94522914Y-106309524D02*
X94427676Y-106357143D01*
X94427676Y-106357143D02*
X94332438Y-106452381D01*
X94332438Y-106452381D02*
X94284819Y-106595238D01*
X94284819Y-106595238D02*
X94284819Y-106690476D01*
X94284819Y-106690476D02*
X94332438Y-106833333D01*
X94332438Y-106833333D02*
X94380057Y-106880952D01*
X95284819Y-107833333D02*
X95284819Y-107261905D01*
X95284819Y-107547619D02*
X94284819Y-107547619D01*
X94284819Y-107547619D02*
X94427676Y-107452381D01*
X94427676Y-107452381D02*
X94522914Y-107357143D01*
X94522914Y-107357143D02*
X94570533Y-107261905D01*
X95284819Y-108785714D02*
X95284819Y-108214286D01*
X95284819Y-108500000D02*
X94284819Y-108500000D01*
X94284819Y-108500000D02*
X94427676Y-108404762D01*
X94427676Y-108404762D02*
X94522914Y-108309524D01*
X94522914Y-108309524D02*
X94570533Y-108214286D01*
X94284819Y-109119048D02*
X94284819Y-109785714D01*
X94284819Y-109785714D02*
X95284819Y-109357143D01*
D11*
X116360735Y-106325000D02*
X115560735Y-106325000D01*
X116360735Y-106705952D02*
X115560735Y-106705952D01*
X115560735Y-106705952D02*
X116360735Y-107163095D01*
X116360735Y-107163095D02*
X115560735Y-107163095D01*
X116360735Y-107544047D02*
X115560735Y-107544047D01*
X115560735Y-107544047D02*
X115560735Y-107848809D01*
X115560735Y-107848809D02*
X115598830Y-107924999D01*
X115598830Y-107924999D02*
X115636925Y-107963094D01*
X115636925Y-107963094D02*
X115713116Y-108001190D01*
X115713116Y-108001190D02*
X115827401Y-108001190D01*
X115827401Y-108001190D02*
X115903592Y-107963094D01*
X115903592Y-107963094D02*
X115941687Y-107924999D01*
X115941687Y-107924999D02*
X115979782Y-107848809D01*
X115979782Y-107848809D02*
X115979782Y-107544047D01*
X116360735Y-108763094D02*
X116360735Y-108305951D01*
X116360735Y-108534523D02*
X115560735Y-108534523D01*
X115560735Y-108534523D02*
X115675020Y-108458332D01*
X115675020Y-108458332D02*
X115751211Y-108382142D01*
X115751211Y-108382142D02*
X115789306Y-108305951D01*
D10*
X112562295Y-109889160D02*
X111762295Y-109889160D01*
X112562295Y-110270112D02*
X111762295Y-110270112D01*
X111762295Y-110270112D02*
X112562295Y-110727255D01*
X112562295Y-110727255D02*
X111762295Y-110727255D01*
X112562295Y-111108207D02*
X111762295Y-111108207D01*
X111762295Y-111108207D02*
X111762295Y-111412969D01*
X111762295Y-111412969D02*
X111800390Y-111489159D01*
X111800390Y-111489159D02*
X111838485Y-111527254D01*
X111838485Y-111527254D02*
X111914676Y-111565350D01*
X111914676Y-111565350D02*
X112028961Y-111565350D01*
X112028961Y-111565350D02*
X112105152Y-111527254D01*
X112105152Y-111527254D02*
X112143247Y-111489159D01*
X112143247Y-111489159D02*
X112181342Y-111412969D01*
X112181342Y-111412969D02*
X112181342Y-111108207D01*
X112562295Y-112327254D02*
X112562295Y-111870111D01*
X112562295Y-112098683D02*
X111762295Y-112098683D01*
X111762295Y-112098683D02*
X111876580Y-112022492D01*
X111876580Y-112022492D02*
X111952771Y-111946302D01*
X111952771Y-111946302D02*
X111990866Y-111870111D01*
D12*
%TO.C,T\u002AC108*%
X121399314Y-118698752D02*
X121399314Y-118176248D01*
X122869314Y-118698752D02*
X122869314Y-118176248D01*
%TO.C,C127*%
X114410000Y-111253733D02*
X114410000Y-111546267D01*
X113390000Y-111253733D02*
X113390000Y-111546267D01*
D13*
%TO.C,D111*%
X103685000Y-105100000D02*
G75*
G02*
X103585000Y-105100000I-50000J0D01*
G01*
X103585000Y-105100000D02*
G75*
G02*
X103685000Y-105100000I50000J0D01*
G01*
D12*
%TO.C,R108*%
X97528733Y-110590000D02*
X97871267Y-110590000D01*
X97528733Y-111610000D02*
X97871267Y-111610000D01*
%TO.C,T\u002AC109*%
X119690000Y-118583767D02*
X119690000Y-118291233D01*
X120710000Y-118583767D02*
X120710000Y-118291233D01*
%TO.C,R128*%
X112220000Y-119753641D02*
X112220000Y-119446359D01*
X112980000Y-119753641D02*
X112980000Y-119446359D01*
%TO.C,C124*%
X123310000Y-111253733D02*
X123310000Y-111546267D01*
X122290000Y-111253733D02*
X122290000Y-111546267D01*
%TO.C,C131*%
X92938748Y-120890000D02*
X93461252Y-120890000D01*
X92938748Y-122310000D02*
X93461252Y-122310000D01*
%TO.C,C130*%
X93461252Y-120110000D02*
X92938748Y-120110000D01*
X93461252Y-118690000D02*
X92938748Y-118690000D01*
%TO.C,C125*%
X120710000Y-111353733D02*
X120710000Y-111646267D01*
X119690000Y-111353733D02*
X119690000Y-111646267D01*
%TO.C,C114*%
X91490000Y-113150000D02*
X91490000Y-117535000D01*
X91490000Y-117535000D02*
X94510000Y-117535000D01*
X94510000Y-117535000D02*
X94510000Y-113150000D01*
%TO.C,T\u002AC110*%
X115135000Y-117938748D02*
X115135000Y-118461252D01*
X113665000Y-117938748D02*
X113665000Y-118461252D01*
%TO.C,3V108*%
D13*
X117940000Y-116110000D02*
X120050000Y-116110000D01*
X120050000Y-115110000D01*
X117940000Y-115110000D01*
X117940000Y-116110000D01*
D12*
%TO.C,MCLK108*%
X91400000Y-100400000D02*
X94200000Y-100400000D01*
X91400000Y-98400000D02*
X91400000Y-100400000D01*
X94200000Y-100400000D02*
X94200000Y-98400000D01*
X94200000Y-98400000D02*
X91400000Y-98400000D01*
%TO.C,C122*%
X108475001Y-114290000D02*
X104090001Y-114290000D01*
X104090001Y-114290000D02*
X104090001Y-117310000D01*
X104090001Y-117310000D02*
X108475001Y-117310000D01*
%TO.C,R109*%
X93571267Y-111610000D02*
X93228733Y-111610000D01*
X93571267Y-110590000D02*
X93228733Y-110590000D01*
D13*
%TO.C,D113*%
X121315000Y-105035000D02*
G75*
G02*
X121215000Y-105035000I-50000J0D01*
G01*
X121215000Y-105035000D02*
G75*
G02*
X121315000Y-105035000I50000J0D01*
G01*
D12*
%TO.C,FB110*%
X117035000Y-107401248D02*
X117035000Y-107923752D01*
X115565000Y-107401248D02*
X115565000Y-107923752D01*
%TO.C,FB111*%
X113435000Y-107238748D02*
X113435000Y-107761252D01*
X111965000Y-107238748D02*
X111965000Y-107761252D01*
%TO.C,R111*%
X101828733Y-110590000D02*
X102171267Y-110590000D01*
X101828733Y-111610000D02*
X102171267Y-111610000D01*
D13*
%TO.C,D112*%
X124915000Y-105082500D02*
G75*
G02*
X124815000Y-105082500I-50000J0D01*
G01*
X124815000Y-105082500D02*
G75*
G02*
X124915000Y-105082500I50000J0D01*
G01*
D12*
%TO.C,C123*%
X105390000Y-108146267D02*
X105390000Y-107853733D01*
X106410000Y-108146267D02*
X106410000Y-107853733D01*
%TO.C,U109*%
X115651814Y-118415000D02*
X115651814Y-117615000D01*
X115651814Y-118415000D02*
X115651814Y-119215000D01*
X118771814Y-118415000D02*
X118771814Y-117615000D01*
X118771814Y-118415000D02*
X118771814Y-120215000D01*
D13*
%TO.C,D108*%
X95685000Y-105100000D02*
G75*
G02*
X95585000Y-105100000I-50000J0D01*
G01*
X95585000Y-105100000D02*
G75*
G02*
X95685000Y-105100000I50000J0D01*
G01*
D12*
%TO.C,C113*%
X97190000Y-108146267D02*
X97190000Y-107853733D01*
X98210000Y-108146267D02*
X98210000Y-107853733D01*
%TO.C,C126*%
X117110000Y-111253733D02*
X117110000Y-111546267D01*
X116090000Y-111253733D02*
X116090000Y-111546267D01*
D13*
%TO.C,D110*%
X99985000Y-105100000D02*
G75*
G02*
X99885000Y-105100000I-50000J0D01*
G01*
X99885000Y-105100000D02*
G75*
G02*
X99985000Y-105100000I50000J0D01*
G01*
D12*
%TO.C,C110*%
X95790000Y-113150000D02*
X95790000Y-117535000D01*
X95790000Y-117535000D02*
X98810000Y-117535000D01*
X98810000Y-117535000D02*
X98810000Y-113150000D01*
D13*
%TO.C,D109*%
X91385000Y-105100000D02*
G75*
G02*
X91285000Y-105100000I-50000J0D01*
G01*
X91285000Y-105100000D02*
G75*
G02*
X91385000Y-105100000I50000J0D01*
G01*
D12*
%TO.C,SCL109*%
X110967621Y-118620000D02*
X110632379Y-118620000D01*
X110967621Y-119380000D02*
X110632379Y-119380000D01*
%TO.C,C121*%
X101490000Y-108146267D02*
X101490000Y-107853733D01*
X102510000Y-108146267D02*
X102510000Y-107853733D01*
%TO.C,C120*%
X100090000Y-113150000D02*
X100090000Y-117535000D01*
X100090000Y-117535000D02*
X103110000Y-117535000D01*
X103110000Y-117535000D02*
X103110000Y-113150000D01*
D13*
%TO.C,D114*%
X117715000Y-105035000D02*
G75*
G02*
X117615000Y-105035000I-50000J0D01*
G01*
X117615000Y-105035000D02*
G75*
G02*
X117715000Y-105035000I50000J0D01*
G01*
D12*
%TO.C,R116*%
X106010000Y-111828733D02*
X106010000Y-112171267D01*
X104990000Y-111828733D02*
X104990000Y-112171267D01*
%TO.C,FB109*%
X120635000Y-107473748D02*
X120635000Y-107996252D01*
X119165000Y-107473748D02*
X119165000Y-107996252D01*
%TO.C,FB108*%
X124235000Y-107511248D02*
X124235000Y-108033752D01*
X122765000Y-107511248D02*
X122765000Y-108033752D01*
D13*
%TO.C,D115*%
X114115000Y-104900000D02*
G75*
G02*
X114015000Y-104900000I-50000J0D01*
G01*
X114015000Y-104900000D02*
G75*
G02*
X114115000Y-104900000I50000J0D01*
G01*
D12*
%TO.C,C129*%
X112859617Y-116641815D02*
X112859617Y-116934349D01*
X111839617Y-116641815D02*
X111839617Y-116934349D01*
%TO.C,C117*%
X92890000Y-108146267D02*
X92890000Y-107853733D01*
X93910000Y-108146267D02*
X93910000Y-107853733D01*
%TD*%
M02*
