%TF.GenerationSoftware,KiCad,Pcbnew,9.0.4*%
%TF.CreationDate,2025-08-20T17:26:20-04:00*%
%TF.ProjectId,tac5212_audio_board_single_ended,74616335-3231-4325-9f61-7564696f5f62,rev?*%
%TF.SameCoordinates,Original*%
%TF.FileFunction,Legend,Top*%
%TF.FilePolarity,Positive*%
%FSLAX46Y46*%
G04 Gerber Fmt 4.6, Leading zero omitted, Abs format (unit mm)*
G04 Created by KiCad (PCBNEW 9.0.4) date 2025-08-20 17:26:20*
%MOMM*%
%LPD*%
G01*
G04 APERTURE LIST*
%ADD10C,0.200000*%
%ADD11C,0.150000*%
%ADD12C,0.180000*%
%ADD13C,0.152400*%
%ADD14C,0.100000*%
%ADD15C,0.120000*%
G04 APERTURE END LIST*
D10*
X95827695Y-109504761D02*
X95827695Y-109047618D01*
X96627695Y-109276190D02*
X95827695Y-109276190D01*
X96322933Y-108780951D02*
X96322933Y-108171428D01*
X96627695Y-107790475D02*
X95827695Y-107790475D01*
X95827695Y-107790475D02*
X95827695Y-107599999D01*
X95827695Y-107599999D02*
X95865790Y-107485713D01*
X95865790Y-107485713D02*
X95941980Y-107409523D01*
X95941980Y-107409523D02*
X96018171Y-107371428D01*
X96018171Y-107371428D02*
X96170552Y-107333332D01*
X96170552Y-107333332D02*
X96284838Y-107333332D01*
X96284838Y-107333332D02*
X96437219Y-107371428D01*
X96437219Y-107371428D02*
X96513409Y-107409523D01*
X96513409Y-107409523D02*
X96589600Y-107485713D01*
X96589600Y-107485713D02*
X96627695Y-107599999D01*
X96627695Y-107599999D02*
X96627695Y-107790475D01*
X96589600Y-107028571D02*
X96627695Y-106914285D01*
X96627695Y-106914285D02*
X96627695Y-106723809D01*
X96627695Y-106723809D02*
X96589600Y-106647618D01*
X96589600Y-106647618D02*
X96551504Y-106609523D01*
X96551504Y-106609523D02*
X96475314Y-106571428D01*
X96475314Y-106571428D02*
X96399123Y-106571428D01*
X96399123Y-106571428D02*
X96322933Y-106609523D01*
X96322933Y-106609523D02*
X96284838Y-106647618D01*
X96284838Y-106647618D02*
X96246742Y-106723809D01*
X96246742Y-106723809D02*
X96208647Y-106876190D01*
X96208647Y-106876190D02*
X96170552Y-106952380D01*
X96170552Y-106952380D02*
X96132457Y-106990475D01*
X96132457Y-106990475D02*
X96056266Y-107028571D01*
X96056266Y-107028571D02*
X95980076Y-107028571D01*
X95980076Y-107028571D02*
X95903885Y-106990475D01*
X95903885Y-106990475D02*
X95865790Y-106952380D01*
X95865790Y-106952380D02*
X95827695Y-106876190D01*
X95827695Y-106876190D02*
X95827695Y-106685713D01*
X95827695Y-106685713D02*
X95865790Y-106571428D01*
X96627695Y-106228570D02*
X95827695Y-106228570D01*
X95827695Y-106228570D02*
X95827695Y-105923808D01*
X95827695Y-105923808D02*
X95865790Y-105847618D01*
X95865790Y-105847618D02*
X95903885Y-105809523D01*
X95903885Y-105809523D02*
X95980076Y-105771427D01*
X95980076Y-105771427D02*
X96094361Y-105771427D01*
X96094361Y-105771427D02*
X96170552Y-105809523D01*
X96170552Y-105809523D02*
X96208647Y-105847618D01*
X96208647Y-105847618D02*
X96246742Y-105923808D01*
X96246742Y-105923808D02*
X96246742Y-106228570D01*
X97115650Y-112876190D02*
X97115650Y-112419047D01*
X97915650Y-112647619D02*
X97115650Y-112647619D01*
X97687078Y-112190476D02*
X97687078Y-111809523D01*
X97915650Y-112266666D02*
X97115650Y-111999999D01*
X97115650Y-111999999D02*
X97915650Y-111733333D01*
X97839459Y-111009523D02*
X97877555Y-111047619D01*
X97877555Y-111047619D02*
X97915650Y-111161904D01*
X97915650Y-111161904D02*
X97915650Y-111238095D01*
X97915650Y-111238095D02*
X97877555Y-111352381D01*
X97877555Y-111352381D02*
X97801364Y-111428571D01*
X97801364Y-111428571D02*
X97725174Y-111466666D01*
X97725174Y-111466666D02*
X97572793Y-111504762D01*
X97572793Y-111504762D02*
X97458507Y-111504762D01*
X97458507Y-111504762D02*
X97306126Y-111466666D01*
X97306126Y-111466666D02*
X97229935Y-111428571D01*
X97229935Y-111428571D02*
X97153745Y-111352381D01*
X97153745Y-111352381D02*
X97115650Y-111238095D01*
X97115650Y-111238095D02*
X97115650Y-111161904D01*
X97115650Y-111161904D02*
X97153745Y-111047619D01*
X97153745Y-111047619D02*
X97191840Y-111009523D01*
X97115650Y-110285714D02*
X97115650Y-110666666D01*
X97115650Y-110666666D02*
X97496602Y-110704762D01*
X97496602Y-110704762D02*
X97458507Y-110666666D01*
X97458507Y-110666666D02*
X97420412Y-110590476D01*
X97420412Y-110590476D02*
X97420412Y-110400000D01*
X97420412Y-110400000D02*
X97458507Y-110323809D01*
X97458507Y-110323809D02*
X97496602Y-110285714D01*
X97496602Y-110285714D02*
X97572793Y-110247619D01*
X97572793Y-110247619D02*
X97763269Y-110247619D01*
X97763269Y-110247619D02*
X97839459Y-110285714D01*
X97839459Y-110285714D02*
X97877555Y-110323809D01*
X97877555Y-110323809D02*
X97915650Y-110400000D01*
X97915650Y-110400000D02*
X97915650Y-110590476D01*
X97915650Y-110590476D02*
X97877555Y-110666666D01*
X97877555Y-110666666D02*
X97839459Y-110704762D01*
X97191840Y-109942857D02*
X97153745Y-109904761D01*
X97153745Y-109904761D02*
X97115650Y-109828571D01*
X97115650Y-109828571D02*
X97115650Y-109638095D01*
X97115650Y-109638095D02*
X97153745Y-109561904D01*
X97153745Y-109561904D02*
X97191840Y-109523809D01*
X97191840Y-109523809D02*
X97268031Y-109485714D01*
X97268031Y-109485714D02*
X97344221Y-109485714D01*
X97344221Y-109485714D02*
X97458507Y-109523809D01*
X97458507Y-109523809D02*
X97915650Y-109980952D01*
X97915650Y-109980952D02*
X97915650Y-109485714D01*
X97915650Y-108723809D02*
X97915650Y-109180952D01*
X97915650Y-108952380D02*
X97115650Y-108952380D01*
X97115650Y-108952380D02*
X97229935Y-109028571D01*
X97229935Y-109028571D02*
X97306126Y-109104761D01*
X97306126Y-109104761D02*
X97344221Y-109180952D01*
X97191840Y-108419047D02*
X97153745Y-108380951D01*
X97153745Y-108380951D02*
X97115650Y-108304761D01*
X97115650Y-108304761D02*
X97115650Y-108114285D01*
X97115650Y-108114285D02*
X97153745Y-108038094D01*
X97153745Y-108038094D02*
X97191840Y-107999999D01*
X97191840Y-107999999D02*
X97268031Y-107961904D01*
X97268031Y-107961904D02*
X97344221Y-107961904D01*
X97344221Y-107961904D02*
X97458507Y-107999999D01*
X97458507Y-107999999D02*
X97915650Y-108457142D01*
X97915650Y-108457142D02*
X97915650Y-107961904D01*
X97991840Y-107085713D02*
X97953745Y-107161903D01*
X97953745Y-107161903D02*
X97877555Y-107238094D01*
X97877555Y-107238094D02*
X97763269Y-107352380D01*
X97763269Y-107352380D02*
X97725174Y-107428570D01*
X97725174Y-107428570D02*
X97725174Y-107504761D01*
X97915650Y-107466665D02*
X97877555Y-107542856D01*
X97877555Y-107542856D02*
X97801364Y-107619046D01*
X97801364Y-107619046D02*
X97648983Y-107657142D01*
X97648983Y-107657142D02*
X97382316Y-107657142D01*
X97382316Y-107657142D02*
X97229935Y-107619046D01*
X97229935Y-107619046D02*
X97153745Y-107542856D01*
X97153745Y-107542856D02*
X97115650Y-107466665D01*
X97115650Y-107466665D02*
X97115650Y-107314284D01*
X97115650Y-107314284D02*
X97153745Y-107238094D01*
X97153745Y-107238094D02*
X97229935Y-107161903D01*
X97229935Y-107161903D02*
X97382316Y-107123808D01*
X97382316Y-107123808D02*
X97648983Y-107123808D01*
X97648983Y-107123808D02*
X97801364Y-107161903D01*
X97801364Y-107161903D02*
X97877555Y-107238094D01*
X97877555Y-107238094D02*
X97915650Y-107314284D01*
X97915650Y-107314284D02*
X97915650Y-107466665D01*
X97915650Y-106361904D02*
X97915650Y-106819047D01*
X97915650Y-106590475D02*
X97115650Y-106590475D01*
X97115650Y-106590475D02*
X97229935Y-106666666D01*
X97229935Y-106666666D02*
X97306126Y-106742856D01*
X97306126Y-106742856D02*
X97344221Y-106819047D01*
X97115650Y-105523808D02*
X97915650Y-105257141D01*
X97915650Y-105257141D02*
X97115650Y-104990475D01*
X97115650Y-104571427D02*
X97115650Y-104495237D01*
X97115650Y-104495237D02*
X97153745Y-104419046D01*
X97153745Y-104419046D02*
X97191840Y-104380951D01*
X97191840Y-104380951D02*
X97268031Y-104342856D01*
X97268031Y-104342856D02*
X97420412Y-104304761D01*
X97420412Y-104304761D02*
X97610888Y-104304761D01*
X97610888Y-104304761D02*
X97763269Y-104342856D01*
X97763269Y-104342856D02*
X97839459Y-104380951D01*
X97839459Y-104380951D02*
X97877555Y-104419046D01*
X97877555Y-104419046D02*
X97915650Y-104495237D01*
X97915650Y-104495237D02*
X97915650Y-104571427D01*
X97915650Y-104571427D02*
X97877555Y-104647618D01*
X97877555Y-104647618D02*
X97839459Y-104685713D01*
X97839459Y-104685713D02*
X97763269Y-104723808D01*
X97763269Y-104723808D02*
X97610888Y-104761904D01*
X97610888Y-104761904D02*
X97420412Y-104761904D01*
X97420412Y-104761904D02*
X97268031Y-104723808D01*
X97268031Y-104723808D02*
X97191840Y-104685713D01*
X97191840Y-104685713D02*
X97153745Y-104647618D01*
X97153745Y-104647618D02*
X97115650Y-104571427D01*
X97839459Y-103961903D02*
X97877555Y-103923808D01*
X97877555Y-103923808D02*
X97915650Y-103961903D01*
X97915650Y-103961903D02*
X97877555Y-103999999D01*
X97877555Y-103999999D02*
X97839459Y-103961903D01*
X97839459Y-103961903D02*
X97915650Y-103961903D01*
X97915650Y-103542856D02*
X97915650Y-103390475D01*
X97915650Y-103390475D02*
X97877555Y-103314285D01*
X97877555Y-103314285D02*
X97839459Y-103276189D01*
X97839459Y-103276189D02*
X97725174Y-103199999D01*
X97725174Y-103199999D02*
X97572793Y-103161904D01*
X97572793Y-103161904D02*
X97268031Y-103161904D01*
X97268031Y-103161904D02*
X97191840Y-103199999D01*
X97191840Y-103199999D02*
X97153745Y-103238094D01*
X97153745Y-103238094D02*
X97115650Y-103314285D01*
X97115650Y-103314285D02*
X97115650Y-103466666D01*
X97115650Y-103466666D02*
X97153745Y-103542856D01*
X97153745Y-103542856D02*
X97191840Y-103580951D01*
X97191840Y-103580951D02*
X97268031Y-103619047D01*
X97268031Y-103619047D02*
X97458507Y-103619047D01*
X97458507Y-103619047D02*
X97534697Y-103580951D01*
X97534697Y-103580951D02*
X97572793Y-103542856D01*
X97572793Y-103542856D02*
X97610888Y-103466666D01*
X97610888Y-103466666D02*
X97610888Y-103314285D01*
X97610888Y-103314285D02*
X97572793Y-103238094D01*
X97572793Y-103238094D02*
X97534697Y-103199999D01*
X97534697Y-103199999D02*
X97458507Y-103161904D01*
X97915650Y-102399999D02*
X97915650Y-102857142D01*
X97915650Y-102628570D02*
X97115650Y-102628570D01*
X97115650Y-102628570D02*
X97229935Y-102704761D01*
X97229935Y-102704761D02*
X97306126Y-102780951D01*
X97306126Y-102780951D02*
X97344221Y-102857142D01*
D11*
X111659793Y-114757634D02*
X111760808Y-114185215D01*
X111255732Y-114353573D02*
X111962839Y-113646466D01*
X111962839Y-113646466D02*
X112232213Y-113915840D01*
X112232213Y-113915840D02*
X112265885Y-114016856D01*
X112265885Y-114016856D02*
X112265885Y-114084199D01*
X112265885Y-114084199D02*
X112232213Y-114185215D01*
X112232213Y-114185215D02*
X112131198Y-114286230D01*
X112131198Y-114286230D02*
X112030182Y-114319902D01*
X112030182Y-114319902D02*
X111962839Y-114319902D01*
X111962839Y-114319902D02*
X111861824Y-114286230D01*
X111861824Y-114286230D02*
X111592450Y-114016856D01*
X112333228Y-115431069D02*
X111929167Y-115027008D01*
X112131198Y-115229039D02*
X112838304Y-114521932D01*
X112838304Y-114521932D02*
X112669946Y-114555604D01*
X112669946Y-114555604D02*
X112535259Y-114555604D01*
X112535259Y-114555604D02*
X112434243Y-114521932D01*
X113006663Y-116104504D02*
X112602602Y-115700443D01*
X112804633Y-115902474D02*
X113511739Y-115195367D01*
X113511739Y-115195367D02*
X113343381Y-115229039D01*
X113343381Y-115229039D02*
X113208694Y-115229039D01*
X113208694Y-115229039D02*
X113107678Y-115195367D01*
X113949472Y-115633100D02*
X114387205Y-116070833D01*
X114387205Y-116070833D02*
X113882129Y-116104504D01*
X113882129Y-116104504D02*
X113983144Y-116205520D01*
X113983144Y-116205520D02*
X114016816Y-116306535D01*
X114016816Y-116306535D02*
X114016816Y-116373878D01*
X114016816Y-116373878D02*
X113983144Y-116474894D01*
X113983144Y-116474894D02*
X113814785Y-116643252D01*
X113814785Y-116643252D02*
X113713770Y-116676924D01*
X113713770Y-116676924D02*
X113646426Y-116676924D01*
X113646426Y-116676924D02*
X113545411Y-116643252D01*
X113545411Y-116643252D02*
X113343381Y-116441222D01*
X113343381Y-116441222D02*
X113309709Y-116340207D01*
X113309709Y-116340207D02*
X113309709Y-116272863D01*
X110114423Y-116103004D02*
X110215438Y-115530585D01*
X109710362Y-115698943D02*
X110417469Y-114991836D01*
X110417469Y-114991836D02*
X110686843Y-115261210D01*
X110686843Y-115261210D02*
X110720515Y-115362226D01*
X110720515Y-115362226D02*
X110720515Y-115429569D01*
X110720515Y-115429569D02*
X110686843Y-115530585D01*
X110686843Y-115530585D02*
X110585828Y-115631600D01*
X110585828Y-115631600D02*
X110484812Y-115665272D01*
X110484812Y-115665272D02*
X110417469Y-115665272D01*
X110417469Y-115665272D02*
X110316454Y-115631600D01*
X110316454Y-115631600D02*
X110047080Y-115362226D01*
X110787858Y-116776439D02*
X110383797Y-116372378D01*
X110585828Y-116574409D02*
X111292934Y-115867302D01*
X111292934Y-115867302D02*
X111124576Y-115900974D01*
X111124576Y-115900974D02*
X110989889Y-115900974D01*
X110989889Y-115900974D02*
X110888873Y-115867302D01*
X111696995Y-116406050D02*
X111764339Y-116406050D01*
X111764339Y-116406050D02*
X111865354Y-116439722D01*
X111865354Y-116439722D02*
X112033713Y-116608081D01*
X112033713Y-116608081D02*
X112067385Y-116709096D01*
X112067385Y-116709096D02*
X112067385Y-116776439D01*
X112067385Y-116776439D02*
X112033713Y-116877455D01*
X112033713Y-116877455D02*
X111966369Y-116944798D01*
X111966369Y-116944798D02*
X111831682Y-117012142D01*
X111831682Y-117012142D02*
X111023560Y-117012142D01*
X111023560Y-117012142D02*
X111461293Y-117449874D01*
X112134728Y-118123309D02*
X111730667Y-117719248D01*
X111932698Y-117921279D02*
X112639804Y-117214172D01*
X112639804Y-117214172D02*
X112471446Y-117247844D01*
X112471446Y-117247844D02*
X112336759Y-117247844D01*
X112336759Y-117247844D02*
X112235743Y-117214172D01*
X98470594Y-141959819D02*
X98470594Y-140959819D01*
X98470594Y-141340771D02*
X98565832Y-141293152D01*
X98565832Y-141293152D02*
X98756308Y-141293152D01*
X98756308Y-141293152D02*
X98851546Y-141340771D01*
X98851546Y-141340771D02*
X98899165Y-141388390D01*
X98899165Y-141388390D02*
X98946784Y-141483628D01*
X98946784Y-141483628D02*
X98946784Y-141769342D01*
X98946784Y-141769342D02*
X98899165Y-141864580D01*
X98899165Y-141864580D02*
X98851546Y-141912200D01*
X98851546Y-141912200D02*
X98756308Y-141959819D01*
X98756308Y-141959819D02*
X98565832Y-141959819D01*
X98565832Y-141959819D02*
X98470594Y-141912200D01*
X99518213Y-141959819D02*
X99422975Y-141912200D01*
X99422975Y-141912200D02*
X99375356Y-141864580D01*
X99375356Y-141864580D02*
X99327737Y-141769342D01*
X99327737Y-141769342D02*
X99327737Y-141483628D01*
X99327737Y-141483628D02*
X99375356Y-141388390D01*
X99375356Y-141388390D02*
X99422975Y-141340771D01*
X99422975Y-141340771D02*
X99518213Y-141293152D01*
X99518213Y-141293152D02*
X99661070Y-141293152D01*
X99661070Y-141293152D02*
X99756308Y-141340771D01*
X99756308Y-141340771D02*
X99803927Y-141388390D01*
X99803927Y-141388390D02*
X99851546Y-141483628D01*
X99851546Y-141483628D02*
X99851546Y-141769342D01*
X99851546Y-141769342D02*
X99803927Y-141864580D01*
X99803927Y-141864580D02*
X99756308Y-141912200D01*
X99756308Y-141912200D02*
X99661070Y-141959819D01*
X99661070Y-141959819D02*
X99518213Y-141959819D01*
X100708689Y-141959819D02*
X100708689Y-141436009D01*
X100708689Y-141436009D02*
X100661070Y-141340771D01*
X100661070Y-141340771D02*
X100565832Y-141293152D01*
X100565832Y-141293152D02*
X100375356Y-141293152D01*
X100375356Y-141293152D02*
X100280118Y-141340771D01*
X100708689Y-141912200D02*
X100613451Y-141959819D01*
X100613451Y-141959819D02*
X100375356Y-141959819D01*
X100375356Y-141959819D02*
X100280118Y-141912200D01*
X100280118Y-141912200D02*
X100232499Y-141816961D01*
X100232499Y-141816961D02*
X100232499Y-141721723D01*
X100232499Y-141721723D02*
X100280118Y-141626485D01*
X100280118Y-141626485D02*
X100375356Y-141578866D01*
X100375356Y-141578866D02*
X100613451Y-141578866D01*
X100613451Y-141578866D02*
X100708689Y-141531247D01*
X101184880Y-141959819D02*
X101184880Y-141293152D01*
X101184880Y-141483628D02*
X101232499Y-141388390D01*
X101232499Y-141388390D02*
X101280118Y-141340771D01*
X101280118Y-141340771D02*
X101375356Y-141293152D01*
X101375356Y-141293152D02*
X101470594Y-141293152D01*
X102232499Y-141959819D02*
X102232499Y-140959819D01*
X102232499Y-141912200D02*
X102137261Y-141959819D01*
X102137261Y-141959819D02*
X101946785Y-141959819D01*
X101946785Y-141959819D02*
X101851547Y-141912200D01*
X101851547Y-141912200D02*
X101803928Y-141864580D01*
X101803928Y-141864580D02*
X101756309Y-141769342D01*
X101756309Y-141769342D02*
X101756309Y-141483628D01*
X101756309Y-141483628D02*
X101803928Y-141388390D01*
X101803928Y-141388390D02*
X101851547Y-141340771D01*
X101851547Y-141340771D02*
X101946785Y-141293152D01*
X101946785Y-141293152D02*
X102137261Y-141293152D01*
X102137261Y-141293152D02*
X102232499Y-141340771D01*
X102470595Y-142055057D02*
X103232499Y-142055057D01*
X103613452Y-141959819D02*
X103518214Y-141912200D01*
X103518214Y-141912200D02*
X103470595Y-141864580D01*
X103470595Y-141864580D02*
X103422976Y-141769342D01*
X103422976Y-141769342D02*
X103422976Y-141483628D01*
X103422976Y-141483628D02*
X103470595Y-141388390D01*
X103470595Y-141388390D02*
X103518214Y-141340771D01*
X103518214Y-141340771D02*
X103613452Y-141293152D01*
X103613452Y-141293152D02*
X103756309Y-141293152D01*
X103756309Y-141293152D02*
X103851547Y-141340771D01*
X103851547Y-141340771D02*
X103899166Y-141388390D01*
X103899166Y-141388390D02*
X103946785Y-141483628D01*
X103946785Y-141483628D02*
X103946785Y-141769342D01*
X103946785Y-141769342D02*
X103899166Y-141864580D01*
X103899166Y-141864580D02*
X103851547Y-141912200D01*
X103851547Y-141912200D02*
X103756309Y-141959819D01*
X103756309Y-141959819D02*
X103613452Y-141959819D01*
X104803928Y-141293152D02*
X104803928Y-141959819D01*
X104375357Y-141293152D02*
X104375357Y-141816961D01*
X104375357Y-141816961D02*
X104422976Y-141912200D01*
X104422976Y-141912200D02*
X104518214Y-141959819D01*
X104518214Y-141959819D02*
X104661071Y-141959819D01*
X104661071Y-141959819D02*
X104756309Y-141912200D01*
X104756309Y-141912200D02*
X104803928Y-141864580D01*
X105137262Y-141293152D02*
X105518214Y-141293152D01*
X105280119Y-140959819D02*
X105280119Y-141816961D01*
X105280119Y-141816961D02*
X105327738Y-141912200D01*
X105327738Y-141912200D02*
X105422976Y-141959819D01*
X105422976Y-141959819D02*
X105518214Y-141959819D01*
X105994405Y-141959819D02*
X105899167Y-141912200D01*
X105899167Y-141912200D02*
X105851548Y-141816961D01*
X105851548Y-141816961D02*
X105851548Y-140959819D01*
X106375358Y-141959819D02*
X106375358Y-141293152D01*
X106375358Y-140959819D02*
X106327739Y-141007438D01*
X106327739Y-141007438D02*
X106375358Y-141055057D01*
X106375358Y-141055057D02*
X106422977Y-141007438D01*
X106422977Y-141007438D02*
X106375358Y-140959819D01*
X106375358Y-140959819D02*
X106375358Y-141055057D01*
X106851548Y-141293152D02*
X106851548Y-141959819D01*
X106851548Y-141388390D02*
X106899167Y-141340771D01*
X106899167Y-141340771D02*
X106994405Y-141293152D01*
X106994405Y-141293152D02*
X107137262Y-141293152D01*
X107137262Y-141293152D02*
X107232500Y-141340771D01*
X107232500Y-141340771D02*
X107280119Y-141436009D01*
X107280119Y-141436009D02*
X107280119Y-141959819D01*
X108137262Y-141912200D02*
X108042024Y-141959819D01*
X108042024Y-141959819D02*
X107851548Y-141959819D01*
X107851548Y-141959819D02*
X107756310Y-141912200D01*
X107756310Y-141912200D02*
X107708691Y-141816961D01*
X107708691Y-141816961D02*
X107708691Y-141436009D01*
X107708691Y-141436009D02*
X107756310Y-141340771D01*
X107756310Y-141340771D02*
X107851548Y-141293152D01*
X107851548Y-141293152D02*
X108042024Y-141293152D01*
X108042024Y-141293152D02*
X108137262Y-141340771D01*
X108137262Y-141340771D02*
X108184881Y-141436009D01*
X108184881Y-141436009D02*
X108184881Y-141531247D01*
X108184881Y-141531247D02*
X107708691Y-141626485D01*
X109137262Y-141959819D02*
X108565834Y-141959819D01*
X108851548Y-141959819D02*
X108851548Y-140959819D01*
X108851548Y-140959819D02*
X108756310Y-141102676D01*
X108756310Y-141102676D02*
X108661072Y-141197914D01*
X108661072Y-141197914D02*
X108565834Y-141245533D01*
X109756310Y-140959819D02*
X109851548Y-140959819D01*
X109851548Y-140959819D02*
X109946786Y-141007438D01*
X109946786Y-141007438D02*
X109994405Y-141055057D01*
X109994405Y-141055057D02*
X110042024Y-141150295D01*
X110042024Y-141150295D02*
X110089643Y-141340771D01*
X110089643Y-141340771D02*
X110089643Y-141578866D01*
X110089643Y-141578866D02*
X110042024Y-141769342D01*
X110042024Y-141769342D02*
X109994405Y-141864580D01*
X109994405Y-141864580D02*
X109946786Y-141912200D01*
X109946786Y-141912200D02*
X109851548Y-141959819D01*
X109851548Y-141959819D02*
X109756310Y-141959819D01*
X109756310Y-141959819D02*
X109661072Y-141912200D01*
X109661072Y-141912200D02*
X109613453Y-141864580D01*
X109613453Y-141864580D02*
X109565834Y-141769342D01*
X109565834Y-141769342D02*
X109518215Y-141578866D01*
X109518215Y-141578866D02*
X109518215Y-141340771D01*
X109518215Y-141340771D02*
X109565834Y-141150295D01*
X109565834Y-141150295D02*
X109613453Y-141055057D01*
X109613453Y-141055057D02*
X109661072Y-141007438D01*
X109661072Y-141007438D02*
X109756310Y-140959819D01*
X110661072Y-141388390D02*
X110565834Y-141340771D01*
X110565834Y-141340771D02*
X110518215Y-141293152D01*
X110518215Y-141293152D02*
X110470596Y-141197914D01*
X110470596Y-141197914D02*
X110470596Y-141150295D01*
X110470596Y-141150295D02*
X110518215Y-141055057D01*
X110518215Y-141055057D02*
X110565834Y-141007438D01*
X110565834Y-141007438D02*
X110661072Y-140959819D01*
X110661072Y-140959819D02*
X110851548Y-140959819D01*
X110851548Y-140959819D02*
X110946786Y-141007438D01*
X110946786Y-141007438D02*
X110994405Y-141055057D01*
X110994405Y-141055057D02*
X111042024Y-141150295D01*
X111042024Y-141150295D02*
X111042024Y-141197914D01*
X111042024Y-141197914D02*
X110994405Y-141293152D01*
X110994405Y-141293152D02*
X110946786Y-141340771D01*
X110946786Y-141340771D02*
X110851548Y-141388390D01*
X110851548Y-141388390D02*
X110661072Y-141388390D01*
X110661072Y-141388390D02*
X110565834Y-141436009D01*
X110565834Y-141436009D02*
X110518215Y-141483628D01*
X110518215Y-141483628D02*
X110470596Y-141578866D01*
X110470596Y-141578866D02*
X110470596Y-141769342D01*
X110470596Y-141769342D02*
X110518215Y-141864580D01*
X110518215Y-141864580D02*
X110565834Y-141912200D01*
X110565834Y-141912200D02*
X110661072Y-141959819D01*
X110661072Y-141959819D02*
X110851548Y-141959819D01*
X110851548Y-141959819D02*
X110946786Y-141912200D01*
X110946786Y-141912200D02*
X110994405Y-141864580D01*
X110994405Y-141864580D02*
X111042024Y-141769342D01*
X111042024Y-141769342D02*
X111042024Y-141578866D01*
X111042024Y-141578866D02*
X110994405Y-141483628D01*
X110994405Y-141483628D02*
X110946786Y-141436009D01*
X110946786Y-141436009D02*
X110851548Y-141388390D01*
X93710595Y-119604819D02*
X93234405Y-119604819D01*
X93234405Y-119604819D02*
X93186786Y-120081009D01*
X93186786Y-120081009D02*
X93234405Y-120033390D01*
X93234405Y-120033390D02*
X93329643Y-119985771D01*
X93329643Y-119985771D02*
X93567738Y-119985771D01*
X93567738Y-119985771D02*
X93662976Y-120033390D01*
X93662976Y-120033390D02*
X93710595Y-120081009D01*
X93710595Y-120081009D02*
X93758214Y-120176247D01*
X93758214Y-120176247D02*
X93758214Y-120414342D01*
X93758214Y-120414342D02*
X93710595Y-120509580D01*
X93710595Y-120509580D02*
X93662976Y-120557200D01*
X93662976Y-120557200D02*
X93567738Y-120604819D01*
X93567738Y-120604819D02*
X93329643Y-120604819D01*
X93329643Y-120604819D02*
X93234405Y-120557200D01*
X93234405Y-120557200D02*
X93186786Y-120509580D01*
X92686786Y-102777200D02*
X92829643Y-102824819D01*
X92829643Y-102824819D02*
X93067738Y-102824819D01*
X93067738Y-102824819D02*
X93162976Y-102777200D01*
X93162976Y-102777200D02*
X93210595Y-102729580D01*
X93210595Y-102729580D02*
X93258214Y-102634342D01*
X93258214Y-102634342D02*
X93258214Y-102539104D01*
X93258214Y-102539104D02*
X93210595Y-102443866D01*
X93210595Y-102443866D02*
X93162976Y-102396247D01*
X93162976Y-102396247D02*
X93067738Y-102348628D01*
X93067738Y-102348628D02*
X92877262Y-102301009D01*
X92877262Y-102301009D02*
X92782024Y-102253390D01*
X92782024Y-102253390D02*
X92734405Y-102205771D01*
X92734405Y-102205771D02*
X92686786Y-102110533D01*
X92686786Y-102110533D02*
X92686786Y-102015295D01*
X92686786Y-102015295D02*
X92734405Y-101920057D01*
X92734405Y-101920057D02*
X92782024Y-101872438D01*
X92782024Y-101872438D02*
X92877262Y-101824819D01*
X92877262Y-101824819D02*
X93115357Y-101824819D01*
X93115357Y-101824819D02*
X93258214Y-101872438D01*
X94258214Y-102729580D02*
X94210595Y-102777200D01*
X94210595Y-102777200D02*
X94067738Y-102824819D01*
X94067738Y-102824819D02*
X93972500Y-102824819D01*
X93972500Y-102824819D02*
X93829643Y-102777200D01*
X93829643Y-102777200D02*
X93734405Y-102681961D01*
X93734405Y-102681961D02*
X93686786Y-102586723D01*
X93686786Y-102586723D02*
X93639167Y-102396247D01*
X93639167Y-102396247D02*
X93639167Y-102253390D01*
X93639167Y-102253390D02*
X93686786Y-102062914D01*
X93686786Y-102062914D02*
X93734405Y-101967676D01*
X93734405Y-101967676D02*
X93829643Y-101872438D01*
X93829643Y-101872438D02*
X93972500Y-101824819D01*
X93972500Y-101824819D02*
X94067738Y-101824819D01*
X94067738Y-101824819D02*
X94210595Y-101872438D01*
X94210595Y-101872438D02*
X94258214Y-101920057D01*
X109282557Y-105209761D02*
X109234938Y-105162142D01*
X109234938Y-105162142D02*
X109187319Y-105066904D01*
X109187319Y-105066904D02*
X109187319Y-104828809D01*
X109187319Y-104828809D02*
X109234938Y-104733571D01*
X109234938Y-104733571D02*
X109282557Y-104685952D01*
X109282557Y-104685952D02*
X109377795Y-104638333D01*
X109377795Y-104638333D02*
X109473033Y-104638333D01*
X109473033Y-104638333D02*
X109615890Y-104685952D01*
X109615890Y-104685952D02*
X110187319Y-105257380D01*
X110187319Y-105257380D02*
X110187319Y-104638333D01*
X109806366Y-104209761D02*
X109806366Y-103447857D01*
X93282023Y-118064819D02*
X92710595Y-118064819D01*
X92996309Y-118064819D02*
X92996309Y-117064819D01*
X92996309Y-117064819D02*
X92901071Y-117207676D01*
X92901071Y-117207676D02*
X92805833Y-117302914D01*
X92805833Y-117302914D02*
X92710595Y-117350533D01*
X93662976Y-117160057D02*
X93710595Y-117112438D01*
X93710595Y-117112438D02*
X93805833Y-117064819D01*
X93805833Y-117064819D02*
X94043928Y-117064819D01*
X94043928Y-117064819D02*
X94139166Y-117112438D01*
X94139166Y-117112438D02*
X94186785Y-117160057D01*
X94186785Y-117160057D02*
X94234404Y-117255295D01*
X94234404Y-117255295D02*
X94234404Y-117350533D01*
X94234404Y-117350533D02*
X94186785Y-117493390D01*
X94186785Y-117493390D02*
X93615357Y-118064819D01*
X93615357Y-118064819D02*
X94234404Y-118064819D01*
X92639167Y-100284819D02*
X92639167Y-99284819D01*
X92639167Y-99284819D02*
X92972500Y-99999104D01*
X92972500Y-99999104D02*
X93305833Y-99284819D01*
X93305833Y-99284819D02*
X93305833Y-100284819D01*
X93782024Y-100284819D02*
X93782024Y-99284819D01*
X94353452Y-100284819D02*
X93924881Y-99713390D01*
X94353452Y-99284819D02*
X93782024Y-99856247D01*
X92710595Y-111984819D02*
X93282023Y-111984819D01*
X92996309Y-112984819D02*
X92996309Y-111984819D01*
X93520119Y-111984819D02*
X94186785Y-112984819D01*
X94186785Y-111984819D02*
X93520119Y-112984819D01*
G36*
X105273787Y-105969077D02*
G01*
X105345729Y-106041019D01*
X105386071Y-106202386D01*
X105386071Y-106517251D01*
X105345729Y-106678617D01*
X105273786Y-106750561D01*
X105205271Y-106784819D01*
X105050205Y-106784819D01*
X104981689Y-106750561D01*
X104909746Y-106678617D01*
X104869405Y-106517251D01*
X104869405Y-106202386D01*
X104909746Y-106041019D01*
X104981689Y-105969077D01*
X105050205Y-105934819D01*
X105205271Y-105934819D01*
X105273787Y-105969077D01*
G37*
G36*
X107550503Y-107045930D02*
G01*
X104608294Y-107045930D01*
X104608294Y-106193152D01*
X104719405Y-106193152D01*
X104719405Y-106526485D01*
X104719656Y-106529038D01*
X104719494Y-106530131D01*
X104720303Y-106535604D01*
X104720846Y-106541117D01*
X104721268Y-106542138D01*
X104721644Y-106544675D01*
X104769263Y-106735151D01*
X104774210Y-106748997D01*
X104777529Y-106753476D01*
X104779663Y-106758628D01*
X104788991Y-106769994D01*
X104884229Y-106865233D01*
X104889979Y-106869953D01*
X104891278Y-106871450D01*
X104893532Y-106872869D01*
X104895594Y-106874561D01*
X104897426Y-106875319D01*
X104903721Y-106879282D01*
X104998959Y-106926901D01*
X105012690Y-106932156D01*
X105015379Y-106932347D01*
X105017868Y-106933378D01*
X105032500Y-106934819D01*
X105222976Y-106934819D01*
X105237608Y-106933378D01*
X105240097Y-106932346D01*
X105242785Y-106932156D01*
X105256517Y-106926901D01*
X105351755Y-106879282D01*
X105358054Y-106875317D01*
X105359882Y-106874560D01*
X105361938Y-106872871D01*
X105364198Y-106871450D01*
X105365497Y-106869951D01*
X105371247Y-106865233D01*
X105466486Y-106769993D01*
X105475813Y-106758628D01*
X105477946Y-106753476D01*
X105481266Y-106748997D01*
X105486213Y-106735151D01*
X105533832Y-106544675D01*
X105534207Y-106542138D01*
X105534630Y-106541117D01*
X105535172Y-106535604D01*
X105535982Y-106530131D01*
X105535819Y-106529038D01*
X105536071Y-106526485D01*
X105536071Y-106193152D01*
X105535819Y-106190598D01*
X105535982Y-106189506D01*
X105535172Y-106184032D01*
X105534630Y-106178520D01*
X105534207Y-106177498D01*
X105533832Y-106174962D01*
X105486213Y-105984486D01*
X105481266Y-105970640D01*
X105477947Y-105966161D01*
X105475813Y-105961008D01*
X105466485Y-105949643D01*
X105376661Y-105859819D01*
X105814643Y-105859819D01*
X105814643Y-106669342D01*
X105816084Y-106683974D01*
X105817115Y-106686463D01*
X105817306Y-106689151D01*
X105822561Y-106702883D01*
X105870180Y-106798121D01*
X105874143Y-106804417D01*
X105874901Y-106806247D01*
X105876590Y-106808305D01*
X105878012Y-106810564D01*
X105879510Y-106811863D01*
X105884228Y-106817612D01*
X105931847Y-106865232D01*
X105937596Y-106869950D01*
X105938897Y-106871450D01*
X105941156Y-106872872D01*
X105943213Y-106874560D01*
X105945040Y-106875317D01*
X105951340Y-106879282D01*
X106046578Y-106926901D01*
X106060309Y-106932156D01*
X106062998Y-106932347D01*
X106065487Y-106933378D01*
X106080119Y-106934819D01*
X106270595Y-106934819D01*
X106285227Y-106933378D01*
X106287716Y-106932346D01*
X106290404Y-106932156D01*
X106304136Y-106926901D01*
X106399374Y-106879282D01*
X106405673Y-106875317D01*
X106407501Y-106874560D01*
X106409557Y-106872872D01*
X106411817Y-106871450D01*
X106413117Y-106869950D01*
X106418867Y-106865232D01*
X106466485Y-106817613D01*
X106471203Y-106811863D01*
X106472702Y-106810564D01*
X106474123Y-106808305D01*
X106475813Y-106806247D01*
X106476570Y-106804417D01*
X106480534Y-106798121D01*
X106528153Y-106702883D01*
X106533408Y-106689152D01*
X106533599Y-106686462D01*
X106534630Y-106683974D01*
X106536071Y-106669342D01*
X106536071Y-105859819D01*
X106534630Y-105845187D01*
X106720846Y-105845187D01*
X106720846Y-105874451D01*
X106732045Y-105901487D01*
X106752737Y-105922179D01*
X106779773Y-105933378D01*
X106794405Y-105934819D01*
X107005119Y-105934819D01*
X107005119Y-106859819D01*
X107006560Y-106874451D01*
X107017759Y-106901487D01*
X107038451Y-106922179D01*
X107065487Y-106933378D01*
X107094751Y-106933378D01*
X107121787Y-106922179D01*
X107142479Y-106901487D01*
X107153678Y-106874451D01*
X107155119Y-106859819D01*
X107155119Y-105934819D01*
X107365833Y-105934819D01*
X107380465Y-105933378D01*
X107407501Y-105922179D01*
X107428193Y-105901487D01*
X107439392Y-105874451D01*
X107439392Y-105845187D01*
X107428193Y-105818151D01*
X107407501Y-105797459D01*
X107380465Y-105786260D01*
X107365833Y-105784819D01*
X106794405Y-105784819D01*
X106779773Y-105786260D01*
X106752737Y-105797459D01*
X106732045Y-105818151D01*
X106720846Y-105845187D01*
X106534630Y-105845187D01*
X106523431Y-105818151D01*
X106502739Y-105797459D01*
X106475703Y-105786260D01*
X106446439Y-105786260D01*
X106419403Y-105797459D01*
X106398711Y-105818151D01*
X106387512Y-105845187D01*
X106386071Y-105859819D01*
X106386071Y-106651637D01*
X106351812Y-106720153D01*
X106321405Y-106750561D01*
X106252890Y-106784819D01*
X106097824Y-106784819D01*
X106029308Y-106750561D01*
X105998901Y-106720153D01*
X105964643Y-106651637D01*
X105964643Y-105859819D01*
X105963202Y-105845187D01*
X105952003Y-105818151D01*
X105931311Y-105797459D01*
X105904275Y-105786260D01*
X105875011Y-105786260D01*
X105847975Y-105797459D01*
X105827283Y-105818151D01*
X105816084Y-105845187D01*
X105814643Y-105859819D01*
X105376661Y-105859819D01*
X105371247Y-105854405D01*
X105365497Y-105849686D01*
X105364198Y-105848188D01*
X105361938Y-105846766D01*
X105359882Y-105845078D01*
X105358054Y-105844320D01*
X105351755Y-105840356D01*
X105256517Y-105792737D01*
X105242785Y-105787482D01*
X105240097Y-105787291D01*
X105237608Y-105786260D01*
X105222976Y-105784819D01*
X105032500Y-105784819D01*
X105017868Y-105786260D01*
X105015379Y-105787290D01*
X105012690Y-105787482D01*
X104998959Y-105792737D01*
X104903721Y-105840356D01*
X104897426Y-105844318D01*
X104895594Y-105845077D01*
X104893532Y-105846768D01*
X104891278Y-105848188D01*
X104889979Y-105849684D01*
X104884229Y-105854405D01*
X104788991Y-105949643D01*
X104779664Y-105961008D01*
X104777530Y-105966158D01*
X104774210Y-105970640D01*
X104769263Y-105984486D01*
X104721644Y-106174962D01*
X104721268Y-106177498D01*
X104720846Y-106178520D01*
X104720303Y-106184032D01*
X104719494Y-106189506D01*
X104719656Y-106190598D01*
X104719405Y-106193152D01*
X104608294Y-106193152D01*
X104608294Y-105673708D01*
X107550503Y-105673708D01*
X107550503Y-107045930D01*
G37*
X102459700Y-120785713D02*
X102507319Y-120642856D01*
X102507319Y-120642856D02*
X102507319Y-120404761D01*
X102507319Y-120404761D02*
X102459700Y-120309523D01*
X102459700Y-120309523D02*
X102412080Y-120261904D01*
X102412080Y-120261904D02*
X102316842Y-120214285D01*
X102316842Y-120214285D02*
X102221604Y-120214285D01*
X102221604Y-120214285D02*
X102126366Y-120261904D01*
X102126366Y-120261904D02*
X102078747Y-120309523D01*
X102078747Y-120309523D02*
X102031128Y-120404761D01*
X102031128Y-120404761D02*
X101983509Y-120595237D01*
X101983509Y-120595237D02*
X101935890Y-120690475D01*
X101935890Y-120690475D02*
X101888271Y-120738094D01*
X101888271Y-120738094D02*
X101793033Y-120785713D01*
X101793033Y-120785713D02*
X101697795Y-120785713D01*
X101697795Y-120785713D02*
X101602557Y-120738094D01*
X101602557Y-120738094D02*
X101554938Y-120690475D01*
X101554938Y-120690475D02*
X101507319Y-120595237D01*
X101507319Y-120595237D02*
X101507319Y-120357142D01*
X101507319Y-120357142D02*
X101554938Y-120214285D01*
X102412080Y-119214285D02*
X102459700Y-119261904D01*
X102459700Y-119261904D02*
X102507319Y-119404761D01*
X102507319Y-119404761D02*
X102507319Y-119499999D01*
X102507319Y-119499999D02*
X102459700Y-119642856D01*
X102459700Y-119642856D02*
X102364461Y-119738094D01*
X102364461Y-119738094D02*
X102269223Y-119785713D01*
X102269223Y-119785713D02*
X102078747Y-119833332D01*
X102078747Y-119833332D02*
X101935890Y-119833332D01*
X101935890Y-119833332D02*
X101745414Y-119785713D01*
X101745414Y-119785713D02*
X101650176Y-119738094D01*
X101650176Y-119738094D02*
X101554938Y-119642856D01*
X101554938Y-119642856D02*
X101507319Y-119499999D01*
X101507319Y-119499999D02*
X101507319Y-119404761D01*
X101507319Y-119404761D02*
X101554938Y-119261904D01*
X101554938Y-119261904D02*
X101602557Y-119214285D01*
X112667319Y-120904999D02*
X111667319Y-120904999D01*
X111667319Y-120238333D02*
X111667319Y-120047857D01*
X111667319Y-120047857D02*
X111714938Y-119952619D01*
X111714938Y-119952619D02*
X111810176Y-119857381D01*
X111810176Y-119857381D02*
X112000652Y-119809762D01*
X112000652Y-119809762D02*
X112333985Y-119809762D01*
X112333985Y-119809762D02*
X112524461Y-119857381D01*
X112524461Y-119857381D02*
X112619700Y-119952619D01*
X112619700Y-119952619D02*
X112667319Y-120047857D01*
X112667319Y-120047857D02*
X112667319Y-120238333D01*
X112667319Y-120238333D02*
X112619700Y-120333571D01*
X112619700Y-120333571D02*
X112524461Y-120428809D01*
X112524461Y-120428809D02*
X112333985Y-120476428D01*
X112333985Y-120476428D02*
X112000652Y-120476428D01*
X112000652Y-120476428D02*
X111810176Y-120428809D01*
X111810176Y-120428809D02*
X111714938Y-120333571D01*
X111714938Y-120333571D02*
X111667319Y-120238333D01*
X111762557Y-119428809D02*
X111714938Y-119381190D01*
X111714938Y-119381190D02*
X111667319Y-119285952D01*
X111667319Y-119285952D02*
X111667319Y-119047857D01*
X111667319Y-119047857D02*
X111714938Y-118952619D01*
X111714938Y-118952619D02*
X111762557Y-118905000D01*
X111762557Y-118905000D02*
X111857795Y-118857381D01*
X111857795Y-118857381D02*
X111953033Y-118857381D01*
X111953033Y-118857381D02*
X112095890Y-118905000D01*
X112095890Y-118905000D02*
X112667319Y-119476428D01*
X112667319Y-119476428D02*
X112667319Y-118857381D01*
X125884795Y-115614523D02*
X125884795Y-115119285D01*
X125884795Y-115119285D02*
X126189557Y-115385951D01*
X126189557Y-115385951D02*
X126189557Y-115271666D01*
X126189557Y-115271666D02*
X126227652Y-115195475D01*
X126227652Y-115195475D02*
X126265747Y-115157380D01*
X126265747Y-115157380D02*
X126341938Y-115119285D01*
X126341938Y-115119285D02*
X126532414Y-115119285D01*
X126532414Y-115119285D02*
X126608604Y-115157380D01*
X126608604Y-115157380D02*
X126646700Y-115195475D01*
X126646700Y-115195475D02*
X126684795Y-115271666D01*
X126684795Y-115271666D02*
X126684795Y-115500237D01*
X126684795Y-115500237D02*
X126646700Y-115576428D01*
X126646700Y-115576428D02*
X126608604Y-115614523D01*
X125884795Y-114890713D02*
X126684795Y-114624046D01*
X126684795Y-114624046D02*
X125884795Y-114357380D01*
X117747319Y-120476189D02*
X116747319Y-120476189D01*
X117747319Y-119476190D02*
X117747319Y-120047618D01*
X117747319Y-119761904D02*
X116747319Y-119761904D01*
X116747319Y-119761904D02*
X116890176Y-119857142D01*
X116890176Y-119857142D02*
X116985414Y-119952380D01*
X116985414Y-119952380D02*
X117033033Y-120047618D01*
X106634938Y-120338095D02*
X106587319Y-120433333D01*
X106587319Y-120433333D02*
X106587319Y-120576190D01*
X106587319Y-120576190D02*
X106634938Y-120719047D01*
X106634938Y-120719047D02*
X106730176Y-120814285D01*
X106730176Y-120814285D02*
X106825414Y-120861904D01*
X106825414Y-120861904D02*
X107015890Y-120909523D01*
X107015890Y-120909523D02*
X107158747Y-120909523D01*
X107158747Y-120909523D02*
X107349223Y-120861904D01*
X107349223Y-120861904D02*
X107444461Y-120814285D01*
X107444461Y-120814285D02*
X107539700Y-120719047D01*
X107539700Y-120719047D02*
X107587319Y-120576190D01*
X107587319Y-120576190D02*
X107587319Y-120480952D01*
X107587319Y-120480952D02*
X107539700Y-120338095D01*
X107539700Y-120338095D02*
X107492080Y-120290476D01*
X107492080Y-120290476D02*
X107158747Y-120290476D01*
X107158747Y-120290476D02*
X107158747Y-120480952D01*
X93305833Y-115524819D02*
X92972500Y-115048628D01*
X92734405Y-115524819D02*
X92734405Y-114524819D01*
X92734405Y-114524819D02*
X93115357Y-114524819D01*
X93115357Y-114524819D02*
X93210595Y-114572438D01*
X93210595Y-114572438D02*
X93258214Y-114620057D01*
X93258214Y-114620057D02*
X93305833Y-114715295D01*
X93305833Y-114715295D02*
X93305833Y-114858152D01*
X93305833Y-114858152D02*
X93258214Y-114953390D01*
X93258214Y-114953390D02*
X93210595Y-115001009D01*
X93210595Y-115001009D02*
X93115357Y-115048628D01*
X93115357Y-115048628D02*
X92734405Y-115048628D01*
X93639167Y-114524819D02*
X94305833Y-115524819D01*
X94305833Y-114524819D02*
X93639167Y-115524819D01*
X110127319Y-120904999D02*
X109127319Y-120904999D01*
X109127319Y-120238333D02*
X109127319Y-120047857D01*
X109127319Y-120047857D02*
X109174938Y-119952619D01*
X109174938Y-119952619D02*
X109270176Y-119857381D01*
X109270176Y-119857381D02*
X109460652Y-119809762D01*
X109460652Y-119809762D02*
X109793985Y-119809762D01*
X109793985Y-119809762D02*
X109984461Y-119857381D01*
X109984461Y-119857381D02*
X110079700Y-119952619D01*
X110079700Y-119952619D02*
X110127319Y-120047857D01*
X110127319Y-120047857D02*
X110127319Y-120238333D01*
X110127319Y-120238333D02*
X110079700Y-120333571D01*
X110079700Y-120333571D02*
X109984461Y-120428809D01*
X109984461Y-120428809D02*
X109793985Y-120476428D01*
X109793985Y-120476428D02*
X109460652Y-120476428D01*
X109460652Y-120476428D02*
X109270176Y-120428809D01*
X109270176Y-120428809D02*
X109174938Y-120333571D01*
X109174938Y-120333571D02*
X109127319Y-120238333D01*
X110127319Y-118857381D02*
X110127319Y-119428809D01*
X110127319Y-119143095D02*
X109127319Y-119143095D01*
X109127319Y-119143095D02*
X109270176Y-119238333D01*
X109270176Y-119238333D02*
X109365414Y-119333571D01*
X109365414Y-119333571D02*
X109413033Y-119428809D01*
X106742557Y-105304761D02*
X106694938Y-105257142D01*
X106694938Y-105257142D02*
X106647319Y-105161904D01*
X106647319Y-105161904D02*
X106647319Y-104923809D01*
X106647319Y-104923809D02*
X106694938Y-104828571D01*
X106694938Y-104828571D02*
X106742557Y-104780952D01*
X106742557Y-104780952D02*
X106837795Y-104733333D01*
X106837795Y-104733333D02*
X106933033Y-104733333D01*
X106933033Y-104733333D02*
X107075890Y-104780952D01*
X107075890Y-104780952D02*
X107647319Y-105352380D01*
X107647319Y-105352380D02*
X107647319Y-104733333D01*
X107266366Y-104304761D02*
X107266366Y-103542857D01*
X107647319Y-103923809D02*
X106885414Y-103923809D01*
X112727319Y-104638333D02*
X112727319Y-105209761D01*
X112727319Y-104924047D02*
X111727319Y-104924047D01*
X111727319Y-104924047D02*
X111870176Y-105019285D01*
X111870176Y-105019285D02*
X111965414Y-105114523D01*
X111965414Y-105114523D02*
X112013033Y-105209761D01*
X112346366Y-104209761D02*
X112346366Y-103447857D01*
X112727319Y-103828809D02*
X111965414Y-103828809D01*
X119442557Y-105304761D02*
X119394938Y-105257142D01*
X119394938Y-105257142D02*
X119347319Y-105161904D01*
X119347319Y-105161904D02*
X119347319Y-104923809D01*
X119347319Y-104923809D02*
X119394938Y-104828571D01*
X119394938Y-104828571D02*
X119442557Y-104780952D01*
X119442557Y-104780952D02*
X119537795Y-104733333D01*
X119537795Y-104733333D02*
X119633033Y-104733333D01*
X119633033Y-104733333D02*
X119775890Y-104780952D01*
X119775890Y-104780952D02*
X120347319Y-105352380D01*
X120347319Y-105352380D02*
X120347319Y-104733333D01*
X119966366Y-104304761D02*
X119966366Y-103542857D01*
X114207319Y-120571428D02*
X114207319Y-120380952D01*
X114207319Y-120380952D02*
X114254938Y-120285714D01*
X114254938Y-120285714D02*
X114350176Y-120190476D01*
X114350176Y-120190476D02*
X114540652Y-120142857D01*
X114540652Y-120142857D02*
X114873985Y-120142857D01*
X114873985Y-120142857D02*
X115064461Y-120190476D01*
X115064461Y-120190476D02*
X115159700Y-120285714D01*
X115159700Y-120285714D02*
X115207319Y-120380952D01*
X115207319Y-120380952D02*
X115207319Y-120571428D01*
X115207319Y-120571428D02*
X115159700Y-120666666D01*
X115159700Y-120666666D02*
X115064461Y-120761904D01*
X115064461Y-120761904D02*
X114873985Y-120809523D01*
X114873985Y-120809523D02*
X114540652Y-120809523D01*
X114540652Y-120809523D02*
X114350176Y-120761904D01*
X114350176Y-120761904D02*
X114254938Y-120666666D01*
X114254938Y-120666666D02*
X114207319Y-120571428D01*
X115207319Y-119190476D02*
X115207319Y-119761904D01*
X115207319Y-119476190D02*
X114207319Y-119476190D01*
X114207319Y-119476190D02*
X114350176Y-119571428D01*
X114350176Y-119571428D02*
X114445414Y-119666666D01*
X114445414Y-119666666D02*
X114493033Y-119761904D01*
X115267319Y-104733333D02*
X115267319Y-105304761D01*
X115267319Y-105019047D02*
X114267319Y-105019047D01*
X114267319Y-105019047D02*
X114410176Y-105114285D01*
X114410176Y-105114285D02*
X114505414Y-105209523D01*
X114505414Y-105209523D02*
X114553033Y-105304761D01*
X114886366Y-104304761D02*
X114886366Y-103542857D01*
X125907890Y-112270476D02*
X125869795Y-112346666D01*
X125869795Y-112346666D02*
X125869795Y-112460952D01*
X125869795Y-112460952D02*
X125907890Y-112575238D01*
X125907890Y-112575238D02*
X125984080Y-112651428D01*
X125984080Y-112651428D02*
X126060271Y-112689523D01*
X126060271Y-112689523D02*
X126212652Y-112727619D01*
X126212652Y-112727619D02*
X126326938Y-112727619D01*
X126326938Y-112727619D02*
X126479319Y-112689523D01*
X126479319Y-112689523D02*
X126555509Y-112651428D01*
X126555509Y-112651428D02*
X126631700Y-112575238D01*
X126631700Y-112575238D02*
X126669795Y-112460952D01*
X126669795Y-112460952D02*
X126669795Y-112384761D01*
X126669795Y-112384761D02*
X126631700Y-112270476D01*
X126631700Y-112270476D02*
X126593604Y-112232380D01*
X126593604Y-112232380D02*
X126326938Y-112232380D01*
X126326938Y-112232380D02*
X126326938Y-112384761D01*
X92686786Y-105317200D02*
X92829643Y-105364819D01*
X92829643Y-105364819D02*
X93067738Y-105364819D01*
X93067738Y-105364819D02*
X93162976Y-105317200D01*
X93162976Y-105317200D02*
X93210595Y-105269580D01*
X93210595Y-105269580D02*
X93258214Y-105174342D01*
X93258214Y-105174342D02*
X93258214Y-105079104D01*
X93258214Y-105079104D02*
X93210595Y-104983866D01*
X93210595Y-104983866D02*
X93162976Y-104936247D01*
X93162976Y-104936247D02*
X93067738Y-104888628D01*
X93067738Y-104888628D02*
X92877262Y-104841009D01*
X92877262Y-104841009D02*
X92782024Y-104793390D01*
X92782024Y-104793390D02*
X92734405Y-104745771D01*
X92734405Y-104745771D02*
X92686786Y-104650533D01*
X92686786Y-104650533D02*
X92686786Y-104555295D01*
X92686786Y-104555295D02*
X92734405Y-104460057D01*
X92734405Y-104460057D02*
X92782024Y-104412438D01*
X92782024Y-104412438D02*
X92877262Y-104364819D01*
X92877262Y-104364819D02*
X93115357Y-104364819D01*
X93115357Y-104364819D02*
X93258214Y-104412438D01*
X93686786Y-105364819D02*
X93686786Y-104364819D01*
X93686786Y-104364819D02*
X93924881Y-104364819D01*
X93924881Y-104364819D02*
X94067738Y-104412438D01*
X94067738Y-104412438D02*
X94162976Y-104507676D01*
X94162976Y-104507676D02*
X94210595Y-104602914D01*
X94210595Y-104602914D02*
X94258214Y-104793390D01*
X94258214Y-104793390D02*
X94258214Y-104936247D01*
X94258214Y-104936247D02*
X94210595Y-105126723D01*
X94210595Y-105126723D02*
X94162976Y-105221961D01*
X94162976Y-105221961D02*
X94067738Y-105317200D01*
X94067738Y-105317200D02*
X93924881Y-105364819D01*
X93924881Y-105364819D02*
X93686786Y-105364819D01*
X116902557Y-105304761D02*
X116854938Y-105257142D01*
X116854938Y-105257142D02*
X116807319Y-105161904D01*
X116807319Y-105161904D02*
X116807319Y-104923809D01*
X116807319Y-104923809D02*
X116854938Y-104828571D01*
X116854938Y-104828571D02*
X116902557Y-104780952D01*
X116902557Y-104780952D02*
X116997795Y-104733333D01*
X116997795Y-104733333D02*
X117093033Y-104733333D01*
X117093033Y-104733333D02*
X117235890Y-104780952D01*
X117235890Y-104780952D02*
X117807319Y-105352380D01*
X117807319Y-105352380D02*
X117807319Y-104733333D01*
X117426366Y-104304761D02*
X117426366Y-103542857D01*
X117807319Y-103923809D02*
X117045414Y-103923809D01*
X105107319Y-104733333D02*
X105107319Y-105304761D01*
X105107319Y-105019047D02*
X104107319Y-105019047D01*
X104107319Y-105019047D02*
X104250176Y-105114285D01*
X104250176Y-105114285D02*
X104345414Y-105209523D01*
X104345414Y-105209523D02*
X104393033Y-105304761D01*
X104726366Y-104304761D02*
X104726366Y-103542857D01*
X93192023Y-123059819D02*
X92858690Y-122583628D01*
X92620595Y-123059819D02*
X92620595Y-122059819D01*
X92620595Y-122059819D02*
X93001547Y-122059819D01*
X93001547Y-122059819D02*
X93096785Y-122107438D01*
X93096785Y-122107438D02*
X93144404Y-122155057D01*
X93144404Y-122155057D02*
X93192023Y-122250295D01*
X93192023Y-122250295D02*
X93192023Y-122393152D01*
X93192023Y-122393152D02*
X93144404Y-122488390D01*
X93144404Y-122488390D02*
X93096785Y-122536009D01*
X93096785Y-122536009D02*
X93001547Y-122583628D01*
X93001547Y-122583628D02*
X92620595Y-122583628D01*
X93377023Y-107904819D02*
X92900833Y-107904819D01*
X92900833Y-107904819D02*
X92900833Y-106904819D01*
X94281785Y-107904819D02*
X93948452Y-107428628D01*
X93710357Y-107904819D02*
X93710357Y-106904819D01*
X93710357Y-106904819D02*
X94091309Y-106904819D01*
X94091309Y-106904819D02*
X94186547Y-106952438D01*
X94186547Y-106952438D02*
X94234166Y-107000057D01*
X94234166Y-107000057D02*
X94281785Y-107095295D01*
X94281785Y-107095295D02*
X94281785Y-107238152D01*
X94281785Y-107238152D02*
X94234166Y-107333390D01*
X94234166Y-107333390D02*
X94186547Y-107381009D01*
X94186547Y-107381009D02*
X94091309Y-107428628D01*
X94091309Y-107428628D02*
X93710357Y-107428628D01*
X93138928Y-109921009D02*
X93281785Y-109968628D01*
X93281785Y-109968628D02*
X93329404Y-110016247D01*
X93329404Y-110016247D02*
X93377023Y-110111485D01*
X93377023Y-110111485D02*
X93377023Y-110254342D01*
X93377023Y-110254342D02*
X93329404Y-110349580D01*
X93329404Y-110349580D02*
X93281785Y-110397200D01*
X93281785Y-110397200D02*
X93186547Y-110444819D01*
X93186547Y-110444819D02*
X92805595Y-110444819D01*
X92805595Y-110444819D02*
X92805595Y-109444819D01*
X92805595Y-109444819D02*
X93138928Y-109444819D01*
X93138928Y-109444819D02*
X93234166Y-109492438D01*
X93234166Y-109492438D02*
X93281785Y-109540057D01*
X93281785Y-109540057D02*
X93329404Y-109635295D01*
X93329404Y-109635295D02*
X93329404Y-109730533D01*
X93329404Y-109730533D02*
X93281785Y-109825771D01*
X93281785Y-109825771D02*
X93234166Y-109873390D01*
X93234166Y-109873390D02*
X93138928Y-109921009D01*
X93138928Y-109921009D02*
X92805595Y-109921009D01*
X94377023Y-110349580D02*
X94329404Y-110397200D01*
X94329404Y-110397200D02*
X94186547Y-110444819D01*
X94186547Y-110444819D02*
X94091309Y-110444819D01*
X94091309Y-110444819D02*
X93948452Y-110397200D01*
X93948452Y-110397200D02*
X93853214Y-110301961D01*
X93853214Y-110301961D02*
X93805595Y-110206723D01*
X93805595Y-110206723D02*
X93757976Y-110016247D01*
X93757976Y-110016247D02*
X93757976Y-109873390D01*
X93757976Y-109873390D02*
X93805595Y-109682914D01*
X93805595Y-109682914D02*
X93853214Y-109587676D01*
X93853214Y-109587676D02*
X93948452Y-109492438D01*
X93948452Y-109492438D02*
X94091309Y-109444819D01*
X94091309Y-109444819D02*
X94186547Y-109444819D01*
X94186547Y-109444819D02*
X94329404Y-109492438D01*
X94329404Y-109492438D02*
X94377023Y-109540057D01*
X104999700Y-120785713D02*
X105047319Y-120642856D01*
X105047319Y-120642856D02*
X105047319Y-120404761D01*
X105047319Y-120404761D02*
X104999700Y-120309523D01*
X104999700Y-120309523D02*
X104952080Y-120261904D01*
X104952080Y-120261904D02*
X104856842Y-120214285D01*
X104856842Y-120214285D02*
X104761604Y-120214285D01*
X104761604Y-120214285D02*
X104666366Y-120261904D01*
X104666366Y-120261904D02*
X104618747Y-120309523D01*
X104618747Y-120309523D02*
X104571128Y-120404761D01*
X104571128Y-120404761D02*
X104523509Y-120595237D01*
X104523509Y-120595237D02*
X104475890Y-120690475D01*
X104475890Y-120690475D02*
X104428271Y-120738094D01*
X104428271Y-120738094D02*
X104333033Y-120785713D01*
X104333033Y-120785713D02*
X104237795Y-120785713D01*
X104237795Y-120785713D02*
X104142557Y-120738094D01*
X104142557Y-120738094D02*
X104094938Y-120690475D01*
X104094938Y-120690475D02*
X104047319Y-120595237D01*
X104047319Y-120595237D02*
X104047319Y-120357142D01*
X104047319Y-120357142D02*
X104094938Y-120214285D01*
X105047319Y-119785713D02*
X104047319Y-119785713D01*
X104047319Y-119785713D02*
X104047319Y-119547618D01*
X104047319Y-119547618D02*
X104094938Y-119404761D01*
X104094938Y-119404761D02*
X104190176Y-119309523D01*
X104190176Y-119309523D02*
X104285414Y-119261904D01*
X104285414Y-119261904D02*
X104475890Y-119214285D01*
X104475890Y-119214285D02*
X104618747Y-119214285D01*
X104618747Y-119214285D02*
X104809223Y-119261904D01*
X104809223Y-119261904D02*
X104904461Y-119309523D01*
X104904461Y-119309523D02*
X104999700Y-119404761D01*
X104999700Y-119404761D02*
X105047319Y-119547618D01*
X105047319Y-119547618D02*
X105047319Y-119785713D01*
X120287319Y-120833332D02*
X119287319Y-120833332D01*
X119287319Y-120833332D02*
X120001604Y-120499999D01*
X120001604Y-120499999D02*
X119287319Y-120166666D01*
X119287319Y-120166666D02*
X120287319Y-120166666D01*
X119763509Y-119357142D02*
X119811128Y-119214285D01*
X119811128Y-119214285D02*
X119858747Y-119166666D01*
X119858747Y-119166666D02*
X119953985Y-119119047D01*
X119953985Y-119119047D02*
X120096842Y-119119047D01*
X120096842Y-119119047D02*
X120192080Y-119166666D01*
X120192080Y-119166666D02*
X120239700Y-119214285D01*
X120239700Y-119214285D02*
X120287319Y-119309523D01*
X120287319Y-119309523D02*
X120287319Y-119690475D01*
X120287319Y-119690475D02*
X119287319Y-119690475D01*
X119287319Y-119690475D02*
X119287319Y-119357142D01*
X119287319Y-119357142D02*
X119334938Y-119261904D01*
X119334938Y-119261904D02*
X119382557Y-119214285D01*
X119382557Y-119214285D02*
X119477795Y-119166666D01*
X119477795Y-119166666D02*
X119573033Y-119166666D01*
X119573033Y-119166666D02*
X119668271Y-119214285D01*
X119668271Y-119214285D02*
X119715890Y-119261904D01*
X119715890Y-119261904D02*
X119763509Y-119357142D01*
X119763509Y-119357142D02*
X119763509Y-119690475D01*
X125914795Y-117707380D02*
X125914795Y-118088332D01*
X125914795Y-118088332D02*
X126295747Y-118126428D01*
X126295747Y-118126428D02*
X126257652Y-118088332D01*
X126257652Y-118088332D02*
X126219557Y-118012142D01*
X126219557Y-118012142D02*
X126219557Y-117821666D01*
X126219557Y-117821666D02*
X126257652Y-117745475D01*
X126257652Y-117745475D02*
X126295747Y-117707380D01*
X126295747Y-117707380D02*
X126371938Y-117669285D01*
X126371938Y-117669285D02*
X126562414Y-117669285D01*
X126562414Y-117669285D02*
X126638604Y-117707380D01*
X126638604Y-117707380D02*
X126676700Y-117745475D01*
X126676700Y-117745475D02*
X126714795Y-117821666D01*
X126714795Y-117821666D02*
X126714795Y-118012142D01*
X126714795Y-118012142D02*
X126676700Y-118088332D01*
X126676700Y-118088332D02*
X126638604Y-118126428D01*
X125914795Y-117440713D02*
X126714795Y-117174046D01*
X126714795Y-117174046D02*
X125914795Y-116907380D01*
X102567319Y-104733333D02*
X102567319Y-105304761D01*
X102567319Y-105019047D02*
X101567319Y-105019047D01*
X101567319Y-105019047D02*
X101710176Y-105114285D01*
X101710176Y-105114285D02*
X101805414Y-105209523D01*
X101805414Y-105209523D02*
X101853033Y-105304761D01*
X102186366Y-104304761D02*
X102186366Y-103542857D01*
X102567319Y-103923809D02*
X101805414Y-103923809D01*
G36*
X116342420Y-107045747D02*
G01*
X114922580Y-107045747D01*
X114922580Y-105859819D01*
X115033691Y-105859819D01*
X115033691Y-106859819D01*
X115035132Y-106874451D01*
X115046331Y-106901487D01*
X115067023Y-106922179D01*
X115094059Y-106933378D01*
X115123323Y-106933378D01*
X115150359Y-106922179D01*
X115171051Y-106901487D01*
X115182250Y-106874451D01*
X115183691Y-106859819D01*
X115183691Y-105859819D01*
X115509881Y-105859819D01*
X115509881Y-106859819D01*
X115511322Y-106874451D01*
X115522521Y-106901487D01*
X115543213Y-106922179D01*
X115570249Y-106933378D01*
X115599513Y-106933378D01*
X115626549Y-106922179D01*
X115647241Y-106901487D01*
X115658440Y-106874451D01*
X115659881Y-106859819D01*
X115659881Y-106142235D01*
X116091191Y-106897030D01*
X116093380Y-106900114D01*
X116093949Y-106901487D01*
X116095346Y-106902884D01*
X116099701Y-106909019D01*
X116107589Y-106915127D01*
X116114641Y-106922179D01*
X116119059Y-106924009D01*
X116122839Y-106926936D01*
X116132460Y-106929560D01*
X116141677Y-106933378D01*
X116146458Y-106933378D01*
X116151070Y-106934636D01*
X116160967Y-106933378D01*
X116170941Y-106933378D01*
X116175356Y-106931548D01*
X116180100Y-106930946D01*
X116188764Y-106925995D01*
X116197977Y-106922179D01*
X116201355Y-106918800D01*
X116205509Y-106916427D01*
X116211618Y-106908537D01*
X116218669Y-106901487D01*
X116220498Y-106897070D01*
X116223426Y-106893290D01*
X116226050Y-106883666D01*
X116229868Y-106874451D01*
X116230604Y-106866968D01*
X116231126Y-106865058D01*
X116230938Y-106863582D01*
X116231309Y-106859819D01*
X116231309Y-105859819D01*
X116229868Y-105845187D01*
X116218669Y-105818151D01*
X116197977Y-105797459D01*
X116170941Y-105786260D01*
X116141677Y-105786260D01*
X116114641Y-105797459D01*
X116093949Y-105818151D01*
X116082750Y-105845187D01*
X116081309Y-105859819D01*
X116081309Y-106577402D01*
X115649999Y-105822609D01*
X115647810Y-105819525D01*
X115647241Y-105818151D01*
X115645841Y-105816751D01*
X115641489Y-105810619D01*
X115633599Y-105804509D01*
X115626549Y-105797459D01*
X115622132Y-105795629D01*
X115618352Y-105792702D01*
X115608728Y-105790077D01*
X115599513Y-105786260D01*
X115594732Y-105786260D01*
X115590120Y-105785002D01*
X115580223Y-105786260D01*
X115570249Y-105786260D01*
X115565833Y-105788089D01*
X115561090Y-105788692D01*
X115552425Y-105793642D01*
X115543213Y-105797459D01*
X115539834Y-105800837D01*
X115535681Y-105803211D01*
X115529571Y-105811100D01*
X115522521Y-105818151D01*
X115520691Y-105822567D01*
X115517764Y-105826348D01*
X115515139Y-105835971D01*
X115511322Y-105845187D01*
X115510585Y-105852669D01*
X115510064Y-105854580D01*
X115510251Y-105856055D01*
X115509881Y-105859819D01*
X115183691Y-105859819D01*
X115182250Y-105845187D01*
X115171051Y-105818151D01*
X115150359Y-105797459D01*
X115123323Y-105786260D01*
X115094059Y-105786260D01*
X115067023Y-105797459D01*
X115046331Y-105818151D01*
X115035132Y-105845187D01*
X115033691Y-105859819D01*
X114922580Y-105859819D01*
X114922580Y-105673891D01*
X116342420Y-105673891D01*
X116342420Y-107045747D01*
G37*
X116562295Y-114497619D02*
X116562295Y-114878571D01*
X116562295Y-114878571D02*
X116943247Y-114916667D01*
X116943247Y-114916667D02*
X116905152Y-114878571D01*
X116905152Y-114878571D02*
X116867057Y-114802381D01*
X116867057Y-114802381D02*
X116867057Y-114611905D01*
X116867057Y-114611905D02*
X116905152Y-114535714D01*
X116905152Y-114535714D02*
X116943247Y-114497619D01*
X116943247Y-114497619D02*
X117019438Y-114459524D01*
X117019438Y-114459524D02*
X117209914Y-114459524D01*
X117209914Y-114459524D02*
X117286104Y-114497619D01*
X117286104Y-114497619D02*
X117324200Y-114535714D01*
X117324200Y-114535714D02*
X117362295Y-114611905D01*
X117362295Y-114611905D02*
X117362295Y-114802381D01*
X117362295Y-114802381D02*
X117324200Y-114878571D01*
X117324200Y-114878571D02*
X117286104Y-114916667D01*
X116562295Y-113964285D02*
X116562295Y-113888095D01*
X116562295Y-113888095D02*
X116600390Y-113811904D01*
X116600390Y-113811904D02*
X116638485Y-113773809D01*
X116638485Y-113773809D02*
X116714676Y-113735714D01*
X116714676Y-113735714D02*
X116867057Y-113697619D01*
X116867057Y-113697619D02*
X117057533Y-113697619D01*
X117057533Y-113697619D02*
X117209914Y-113735714D01*
X117209914Y-113735714D02*
X117286104Y-113773809D01*
X117286104Y-113773809D02*
X117324200Y-113811904D01*
X117324200Y-113811904D02*
X117362295Y-113888095D01*
X117362295Y-113888095D02*
X117362295Y-113964285D01*
X117362295Y-113964285D02*
X117324200Y-114040476D01*
X117324200Y-114040476D02*
X117286104Y-114078571D01*
X117286104Y-114078571D02*
X117209914Y-114116666D01*
X117209914Y-114116666D02*
X117057533Y-114154762D01*
X117057533Y-114154762D02*
X116867057Y-114154762D01*
X116867057Y-114154762D02*
X116714676Y-114116666D01*
X116714676Y-114116666D02*
X116638485Y-114078571D01*
X116638485Y-114078571D02*
X116600390Y-114040476D01*
X116600390Y-114040476D02*
X116562295Y-113964285D01*
X117133723Y-109126189D02*
X117133723Y-108745236D01*
X117362295Y-109202379D02*
X116562295Y-108935712D01*
X116562295Y-108935712D02*
X117362295Y-108669046D01*
X116562295Y-108249998D02*
X116562295Y-108173808D01*
X116562295Y-108173808D02*
X116600390Y-108097617D01*
X116600390Y-108097617D02*
X116638485Y-108059522D01*
X116638485Y-108059522D02*
X116714676Y-108021427D01*
X116714676Y-108021427D02*
X116867057Y-107983332D01*
X116867057Y-107983332D02*
X117057533Y-107983332D01*
X117057533Y-107983332D02*
X117209914Y-108021427D01*
X117209914Y-108021427D02*
X117286104Y-108059522D01*
X117286104Y-108059522D02*
X117324200Y-108097617D01*
X117324200Y-108097617D02*
X117362295Y-108173808D01*
X117362295Y-108173808D02*
X117362295Y-108249998D01*
X117362295Y-108249998D02*
X117324200Y-108326189D01*
X117324200Y-108326189D02*
X117286104Y-108364284D01*
X117286104Y-108364284D02*
X117209914Y-108402379D01*
X117209914Y-108402379D02*
X117057533Y-108440475D01*
X117057533Y-108440475D02*
X116867057Y-108440475D01*
X116867057Y-108440475D02*
X116714676Y-108402379D01*
X116714676Y-108402379D02*
X116638485Y-108364284D01*
X116638485Y-108364284D02*
X116600390Y-108326189D01*
X116600390Y-108326189D02*
X116562295Y-108249998D01*
X112459793Y-113957634D02*
X112560808Y-113385215D01*
X112055732Y-113553573D02*
X112762839Y-112846466D01*
X112762839Y-112846466D02*
X113032213Y-113115840D01*
X113032213Y-113115840D02*
X113065885Y-113216856D01*
X113065885Y-113216856D02*
X113065885Y-113284199D01*
X113065885Y-113284199D02*
X113032213Y-113385215D01*
X113032213Y-113385215D02*
X112931198Y-113486230D01*
X112931198Y-113486230D02*
X112830182Y-113519902D01*
X112830182Y-113519902D02*
X112762839Y-113519902D01*
X112762839Y-113519902D02*
X112661824Y-113486230D01*
X112661824Y-113486230D02*
X112392450Y-113216856D01*
X113133228Y-114631069D02*
X112729167Y-114227008D01*
X112931198Y-114429039D02*
X113638304Y-113721932D01*
X113638304Y-113721932D02*
X113469946Y-113755604D01*
X113469946Y-113755604D02*
X113335259Y-113755604D01*
X113335259Y-113755604D02*
X113234243Y-113721932D01*
X113806663Y-115304504D02*
X113402602Y-114900443D01*
X113604633Y-115102474D02*
X114311739Y-114395367D01*
X114311739Y-114395367D02*
X114143381Y-114429039D01*
X114143381Y-114429039D02*
X114008694Y-114429039D01*
X114008694Y-114429039D02*
X113907678Y-114395367D01*
X114715800Y-114934115D02*
X114783144Y-114934115D01*
X114783144Y-114934115D02*
X114884159Y-114967787D01*
X114884159Y-114967787D02*
X115052518Y-115136146D01*
X115052518Y-115136146D02*
X115086190Y-115237161D01*
X115086190Y-115237161D02*
X115086190Y-115304504D01*
X115086190Y-115304504D02*
X115052518Y-115405520D01*
X115052518Y-115405520D02*
X114985174Y-115472863D01*
X114985174Y-115472863D02*
X114850487Y-115540207D01*
X114850487Y-115540207D02*
X114042365Y-115540207D01*
X114042365Y-115540207D02*
X114480098Y-115977939D01*
X104004762Y-119736104D02*
X103966666Y-119774200D01*
X103966666Y-119774200D02*
X103852381Y-119812295D01*
X103852381Y-119812295D02*
X103776190Y-119812295D01*
X103776190Y-119812295D02*
X103661904Y-119774200D01*
X103661904Y-119774200D02*
X103585714Y-119698009D01*
X103585714Y-119698009D02*
X103547619Y-119621819D01*
X103547619Y-119621819D02*
X103509523Y-119469438D01*
X103509523Y-119469438D02*
X103509523Y-119355152D01*
X103509523Y-119355152D02*
X103547619Y-119202771D01*
X103547619Y-119202771D02*
X103585714Y-119126580D01*
X103585714Y-119126580D02*
X103661904Y-119050390D01*
X103661904Y-119050390D02*
X103776190Y-119012295D01*
X103776190Y-119012295D02*
X103852381Y-119012295D01*
X103852381Y-119012295D02*
X103966666Y-119050390D01*
X103966666Y-119050390D02*
X104004762Y-119088485D01*
X104766666Y-119812295D02*
X104309523Y-119812295D01*
X104538095Y-119812295D02*
X104538095Y-119012295D01*
X104538095Y-119012295D02*
X104461904Y-119126580D01*
X104461904Y-119126580D02*
X104385714Y-119202771D01*
X104385714Y-119202771D02*
X104309523Y-119240866D01*
X105528571Y-119812295D02*
X105071428Y-119812295D01*
X105300000Y-119812295D02*
X105300000Y-119012295D01*
X105300000Y-119012295D02*
X105223809Y-119126580D01*
X105223809Y-119126580D02*
X105147619Y-119202771D01*
X105147619Y-119202771D02*
X105071428Y-119240866D01*
X106290476Y-119812295D02*
X105833333Y-119812295D01*
X106061905Y-119812295D02*
X106061905Y-119012295D01*
X106061905Y-119012295D02*
X105985714Y-119126580D01*
X105985714Y-119126580D02*
X105909524Y-119202771D01*
X105909524Y-119202771D02*
X105833333Y-119240866D01*
X110859793Y-115557634D02*
X110960808Y-114985215D01*
X110455732Y-115153573D02*
X111162839Y-114446466D01*
X111162839Y-114446466D02*
X111432213Y-114715840D01*
X111432213Y-114715840D02*
X111465885Y-114816856D01*
X111465885Y-114816856D02*
X111465885Y-114884199D01*
X111465885Y-114884199D02*
X111432213Y-114985215D01*
X111432213Y-114985215D02*
X111331198Y-115086230D01*
X111331198Y-115086230D02*
X111230182Y-115119902D01*
X111230182Y-115119902D02*
X111162839Y-115119902D01*
X111162839Y-115119902D02*
X111061824Y-115086230D01*
X111061824Y-115086230D02*
X110792450Y-114816856D01*
X111533228Y-116231069D02*
X111129167Y-115827008D01*
X111331198Y-116029039D02*
X112038304Y-115321932D01*
X112038304Y-115321932D02*
X111869946Y-115355604D01*
X111869946Y-115355604D02*
X111735259Y-115355604D01*
X111735259Y-115355604D02*
X111634243Y-115321932D01*
X112206663Y-116904504D02*
X111802602Y-116500443D01*
X112004633Y-116702474D02*
X112711739Y-115995367D01*
X112711739Y-115995367D02*
X112543381Y-116029039D01*
X112543381Y-116029039D02*
X112408694Y-116029039D01*
X112408694Y-116029039D02*
X112307678Y-115995367D01*
X113284159Y-117039191D02*
X112812755Y-117510596D01*
X113385174Y-116601459D02*
X112711739Y-116938176D01*
X112711739Y-116938176D02*
X113149472Y-117375909D01*
X104570834Y-114571784D02*
X103998415Y-114470769D01*
X104166773Y-114975845D02*
X103459666Y-114268738D01*
X103459666Y-114268738D02*
X103729040Y-113999364D01*
X103729040Y-113999364D02*
X103830056Y-113965692D01*
X103830056Y-113965692D02*
X103897399Y-113965692D01*
X103897399Y-113965692D02*
X103998415Y-113999364D01*
X103998415Y-113999364D02*
X104099430Y-114100379D01*
X104099430Y-114100379D02*
X104133102Y-114201395D01*
X104133102Y-114201395D02*
X104133102Y-114268738D01*
X104133102Y-114268738D02*
X104099430Y-114369753D01*
X104099430Y-114369753D02*
X103830056Y-114639127D01*
X105244269Y-113898349D02*
X104840208Y-114302410D01*
X105042239Y-114100379D02*
X104335132Y-113393273D01*
X104335132Y-113393273D02*
X104368804Y-113561631D01*
X104368804Y-113561631D02*
X104368804Y-113696318D01*
X104368804Y-113696318D02*
X104335132Y-113797334D01*
X105917704Y-113224914D02*
X105513643Y-113628975D01*
X105715674Y-113426944D02*
X105008567Y-112719838D01*
X105008567Y-112719838D02*
X105042239Y-112888196D01*
X105042239Y-112888196D02*
X105042239Y-113022883D01*
X105042239Y-113022883D02*
X105008567Y-113123899D01*
X105850361Y-111878044D02*
X105513643Y-112214761D01*
X105513643Y-112214761D02*
X105816689Y-112585151D01*
X105816689Y-112585151D02*
X105816689Y-112517807D01*
X105816689Y-112517807D02*
X105850361Y-112416792D01*
X105850361Y-112416792D02*
X106018720Y-112248433D01*
X106018720Y-112248433D02*
X106119735Y-112214761D01*
X106119735Y-112214761D02*
X106187078Y-112214761D01*
X106187078Y-112214761D02*
X106288094Y-112248433D01*
X106288094Y-112248433D02*
X106456452Y-112416792D01*
X106456452Y-112416792D02*
X106490124Y-112517807D01*
X106490124Y-112517807D02*
X106490124Y-112585151D01*
X106490124Y-112585151D02*
X106456452Y-112686166D01*
X106456452Y-112686166D02*
X106288094Y-112854525D01*
X106288094Y-112854525D02*
X106187078Y-112888196D01*
X106187078Y-112888196D02*
X106119735Y-112888196D01*
X118162295Y-114497619D02*
X118162295Y-114878571D01*
X118162295Y-114878571D02*
X118543247Y-114916667D01*
X118543247Y-114916667D02*
X118505152Y-114878571D01*
X118505152Y-114878571D02*
X118467057Y-114802381D01*
X118467057Y-114802381D02*
X118467057Y-114611905D01*
X118467057Y-114611905D02*
X118505152Y-114535714D01*
X118505152Y-114535714D02*
X118543247Y-114497619D01*
X118543247Y-114497619D02*
X118619438Y-114459524D01*
X118619438Y-114459524D02*
X118809914Y-114459524D01*
X118809914Y-114459524D02*
X118886104Y-114497619D01*
X118886104Y-114497619D02*
X118924200Y-114535714D01*
X118924200Y-114535714D02*
X118962295Y-114611905D01*
X118962295Y-114611905D02*
X118962295Y-114802381D01*
X118962295Y-114802381D02*
X118924200Y-114878571D01*
X118924200Y-114878571D02*
X118886104Y-114916667D01*
X118962295Y-113697619D02*
X118962295Y-114154762D01*
X118962295Y-113926190D02*
X118162295Y-113926190D01*
X118162295Y-113926190D02*
X118276580Y-114002381D01*
X118276580Y-114002381D02*
X118352771Y-114078571D01*
X118352771Y-114078571D02*
X118390866Y-114154762D01*
X118733723Y-109126189D02*
X118733723Y-108745236D01*
X118962295Y-109202379D02*
X118162295Y-108935712D01*
X118162295Y-108935712D02*
X118962295Y-108669046D01*
X118238485Y-108440475D02*
X118200390Y-108402379D01*
X118200390Y-108402379D02*
X118162295Y-108326189D01*
X118162295Y-108326189D02*
X118162295Y-108135713D01*
X118162295Y-108135713D02*
X118200390Y-108059522D01*
X118200390Y-108059522D02*
X118238485Y-108021427D01*
X118238485Y-108021427D02*
X118314676Y-107983332D01*
X118314676Y-107983332D02*
X118390866Y-107983332D01*
X118390866Y-107983332D02*
X118505152Y-108021427D01*
X118505152Y-108021427D02*
X118962295Y-108478570D01*
X118962295Y-108478570D02*
X118962295Y-107983332D01*
X103334208Y-109083220D02*
X103266864Y-109083220D01*
X103266864Y-109083220D02*
X103132177Y-109015876D01*
X103132177Y-109015876D02*
X103064834Y-108948533D01*
X103064834Y-108948533D02*
X102997490Y-108813846D01*
X102997490Y-108813846D02*
X102997490Y-108679159D01*
X102997490Y-108679159D02*
X103031162Y-108578144D01*
X103031162Y-108578144D02*
X103132177Y-108409785D01*
X103132177Y-108409785D02*
X103233192Y-108308769D01*
X103233192Y-108308769D02*
X103401551Y-108207754D01*
X103401551Y-108207754D02*
X103502566Y-108174082D01*
X103502566Y-108174082D02*
X103637253Y-108174082D01*
X103637253Y-108174082D02*
X103771940Y-108241426D01*
X103771940Y-108241426D02*
X103839284Y-108308769D01*
X103839284Y-108308769D02*
X103906627Y-108443456D01*
X103906627Y-108443456D02*
X103906627Y-108510800D01*
X103940299Y-109823998D02*
X103536238Y-109419937D01*
X103738269Y-109621968D02*
X104445375Y-108914861D01*
X104445375Y-108914861D02*
X104277017Y-108948533D01*
X104277017Y-108948533D02*
X104142330Y-108948533D01*
X104142330Y-108948533D02*
X104041314Y-108914861D01*
X105085139Y-109554624D02*
X105152482Y-109621968D01*
X105152482Y-109621968D02*
X105186154Y-109722983D01*
X105186154Y-109722983D02*
X105186154Y-109790327D01*
X105186154Y-109790327D02*
X105152482Y-109891342D01*
X105152482Y-109891342D02*
X105051467Y-110059701D01*
X105051467Y-110059701D02*
X104883108Y-110228059D01*
X104883108Y-110228059D02*
X104714749Y-110329075D01*
X104714749Y-110329075D02*
X104613734Y-110362746D01*
X104613734Y-110362746D02*
X104546391Y-110362746D01*
X104546391Y-110362746D02*
X104445375Y-110329075D01*
X104445375Y-110329075D02*
X104378032Y-110261731D01*
X104378032Y-110261731D02*
X104344360Y-110160716D01*
X104344360Y-110160716D02*
X104344360Y-110093372D01*
X104344360Y-110093372D02*
X104378032Y-109992357D01*
X104378032Y-109992357D02*
X104479047Y-109823998D01*
X104479047Y-109823998D02*
X104647406Y-109655640D01*
X104647406Y-109655640D02*
X104815765Y-109554624D01*
X104815765Y-109554624D02*
X104916780Y-109520953D01*
X104916780Y-109520953D02*
X104984123Y-109520953D01*
X104984123Y-109520953D02*
X105085139Y-109554624D01*
X104950452Y-110834151D02*
X105085139Y-110968838D01*
X105085139Y-110968838D02*
X105186154Y-111002510D01*
X105186154Y-111002510D02*
X105253497Y-111002510D01*
X105253497Y-111002510D02*
X105421856Y-110968838D01*
X105421856Y-110968838D02*
X105590215Y-110867823D01*
X105590215Y-110867823D02*
X105859589Y-110598449D01*
X105859589Y-110598449D02*
X105893261Y-110497433D01*
X105893261Y-110497433D02*
X105893261Y-110430090D01*
X105893261Y-110430090D02*
X105859589Y-110329075D01*
X105859589Y-110329075D02*
X105724902Y-110194388D01*
X105724902Y-110194388D02*
X105623887Y-110160716D01*
X105623887Y-110160716D02*
X105556543Y-110160716D01*
X105556543Y-110160716D02*
X105455528Y-110194388D01*
X105455528Y-110194388D02*
X105287169Y-110362746D01*
X105287169Y-110362746D02*
X105253497Y-110463762D01*
X105253497Y-110463762D02*
X105253497Y-110531105D01*
X105253497Y-110531105D02*
X105287169Y-110632120D01*
X105287169Y-110632120D02*
X105421856Y-110766807D01*
X105421856Y-110766807D02*
X105522871Y-110800479D01*
X105522871Y-110800479D02*
X105590215Y-110800479D01*
X105590215Y-110800479D02*
X105691230Y-110766807D01*
X119762295Y-114497619D02*
X119762295Y-114878571D01*
X119762295Y-114878571D02*
X120143247Y-114916667D01*
X120143247Y-114916667D02*
X120105152Y-114878571D01*
X120105152Y-114878571D02*
X120067057Y-114802381D01*
X120067057Y-114802381D02*
X120067057Y-114611905D01*
X120067057Y-114611905D02*
X120105152Y-114535714D01*
X120105152Y-114535714D02*
X120143247Y-114497619D01*
X120143247Y-114497619D02*
X120219438Y-114459524D01*
X120219438Y-114459524D02*
X120409914Y-114459524D01*
X120409914Y-114459524D02*
X120486104Y-114497619D01*
X120486104Y-114497619D02*
X120524200Y-114535714D01*
X120524200Y-114535714D02*
X120562295Y-114611905D01*
X120562295Y-114611905D02*
X120562295Y-114802381D01*
X120562295Y-114802381D02*
X120524200Y-114878571D01*
X120524200Y-114878571D02*
X120486104Y-114916667D01*
X119838485Y-114154762D02*
X119800390Y-114116666D01*
X119800390Y-114116666D02*
X119762295Y-114040476D01*
X119762295Y-114040476D02*
X119762295Y-113850000D01*
X119762295Y-113850000D02*
X119800390Y-113773809D01*
X119800390Y-113773809D02*
X119838485Y-113735714D01*
X119838485Y-113735714D02*
X119914676Y-113697619D01*
X119914676Y-113697619D02*
X119990866Y-113697619D01*
X119990866Y-113697619D02*
X120105152Y-113735714D01*
X120105152Y-113735714D02*
X120562295Y-114192857D01*
X120562295Y-114192857D02*
X120562295Y-113697619D01*
X120333723Y-109126189D02*
X120333723Y-108745236D01*
X120562295Y-109202379D02*
X119762295Y-108935712D01*
X119762295Y-108935712D02*
X120562295Y-108669046D01*
X120028961Y-108059522D02*
X120562295Y-108059522D01*
X119724200Y-108249998D02*
X120295628Y-108440475D01*
X120295628Y-108440475D02*
X120295628Y-107945236D01*
X99610070Y-114082450D02*
X99556195Y-114082450D01*
X99556195Y-114082450D02*
X99448446Y-114028575D01*
X99448446Y-114028575D02*
X99394571Y-113974701D01*
X99394571Y-113974701D02*
X99340696Y-113866951D01*
X99340696Y-113866951D02*
X99340696Y-113759201D01*
X99340696Y-113759201D02*
X99367633Y-113678389D01*
X99367633Y-113678389D02*
X99448446Y-113543702D01*
X99448446Y-113543702D02*
X99529258Y-113462890D01*
X99529258Y-113462890D02*
X99663945Y-113382078D01*
X99663945Y-113382078D02*
X99744757Y-113355140D01*
X99744757Y-113355140D02*
X99852507Y-113355140D01*
X99852507Y-113355140D02*
X99960256Y-113409015D01*
X99960256Y-113409015D02*
X100014131Y-113462890D01*
X100014131Y-113462890D02*
X100068006Y-113570640D01*
X100068006Y-113570640D02*
X100068006Y-113624514D01*
X100094943Y-114675073D02*
X99771694Y-114351824D01*
X99933319Y-114513449D02*
X100499004Y-113947763D01*
X100499004Y-113947763D02*
X100364317Y-113974701D01*
X100364317Y-113974701D02*
X100256568Y-113974701D01*
X100256568Y-113974701D02*
X100175755Y-113947763D01*
X100633691Y-115213821D02*
X100310443Y-114890572D01*
X100472067Y-115052197D02*
X101037752Y-114486511D01*
X101037752Y-114486511D02*
X100903065Y-114513449D01*
X100903065Y-114513449D02*
X100795316Y-114513449D01*
X100795316Y-114513449D02*
X100714504Y-114486511D01*
X101711188Y-115159947D02*
X101441814Y-114890573D01*
X101441814Y-114890573D02*
X101145502Y-115133009D01*
X101145502Y-115133009D02*
X101199377Y-115133009D01*
X101199377Y-115133009D02*
X101280189Y-115159947D01*
X101280189Y-115159947D02*
X101414876Y-115294634D01*
X101414876Y-115294634D02*
X101441814Y-115375446D01*
X101441814Y-115375446D02*
X101441814Y-115429321D01*
X101441814Y-115429321D02*
X101414876Y-115510133D01*
X101414876Y-115510133D02*
X101280189Y-115644820D01*
X101280189Y-115644820D02*
X101199377Y-115671757D01*
X101199377Y-115671757D02*
X101145502Y-115671757D01*
X101145502Y-115671757D02*
X101064690Y-115644820D01*
X101064690Y-115644820D02*
X100930003Y-115510133D01*
X100930003Y-115510133D02*
X100903066Y-115429321D01*
X100903066Y-115429321D02*
X100903066Y-115375446D01*
X94285714Y-116954819D02*
X94285714Y-117764342D01*
X94285714Y-117764342D02*
X94333333Y-117859580D01*
X94333333Y-117859580D02*
X94380952Y-117907200D01*
X94380952Y-117907200D02*
X94476190Y-117954819D01*
X94476190Y-117954819D02*
X94666666Y-117954819D01*
X94666666Y-117954819D02*
X94761904Y-117907200D01*
X94761904Y-117907200D02*
X94809523Y-117859580D01*
X94809523Y-117859580D02*
X94857142Y-117764342D01*
X94857142Y-117764342D02*
X94857142Y-116954819D01*
X95857142Y-117954819D02*
X95285714Y-117954819D01*
X95571428Y-117954819D02*
X95571428Y-116954819D01*
X95571428Y-116954819D02*
X95476190Y-117097676D01*
X95476190Y-117097676D02*
X95380952Y-117192914D01*
X95380952Y-117192914D02*
X95285714Y-117240533D01*
X96476190Y-116954819D02*
X96571428Y-116954819D01*
X96571428Y-116954819D02*
X96666666Y-117002438D01*
X96666666Y-117002438D02*
X96714285Y-117050057D01*
X96714285Y-117050057D02*
X96761904Y-117145295D01*
X96761904Y-117145295D02*
X96809523Y-117335771D01*
X96809523Y-117335771D02*
X96809523Y-117573866D01*
X96809523Y-117573866D02*
X96761904Y-117764342D01*
X96761904Y-117764342D02*
X96714285Y-117859580D01*
X96714285Y-117859580D02*
X96666666Y-117907200D01*
X96666666Y-117907200D02*
X96571428Y-117954819D01*
X96571428Y-117954819D02*
X96476190Y-117954819D01*
X96476190Y-117954819D02*
X96380952Y-117907200D01*
X96380952Y-117907200D02*
X96333333Y-117859580D01*
X96333333Y-117859580D02*
X96285714Y-117764342D01*
X96285714Y-117764342D02*
X96238095Y-117573866D01*
X96238095Y-117573866D02*
X96238095Y-117335771D01*
X96238095Y-117335771D02*
X96285714Y-117145295D01*
X96285714Y-117145295D02*
X96333333Y-117050057D01*
X96333333Y-117050057D02*
X96380952Y-117002438D01*
X96380952Y-117002438D02*
X96476190Y-116954819D01*
X97380952Y-117383390D02*
X97285714Y-117335771D01*
X97285714Y-117335771D02*
X97238095Y-117288152D01*
X97238095Y-117288152D02*
X97190476Y-117192914D01*
X97190476Y-117192914D02*
X97190476Y-117145295D01*
X97190476Y-117145295D02*
X97238095Y-117050057D01*
X97238095Y-117050057D02*
X97285714Y-117002438D01*
X97285714Y-117002438D02*
X97380952Y-116954819D01*
X97380952Y-116954819D02*
X97571428Y-116954819D01*
X97571428Y-116954819D02*
X97666666Y-117002438D01*
X97666666Y-117002438D02*
X97714285Y-117050057D01*
X97714285Y-117050057D02*
X97761904Y-117145295D01*
X97761904Y-117145295D02*
X97761904Y-117192914D01*
X97761904Y-117192914D02*
X97714285Y-117288152D01*
X97714285Y-117288152D02*
X97666666Y-117335771D01*
X97666666Y-117335771D02*
X97571428Y-117383390D01*
X97571428Y-117383390D02*
X97380952Y-117383390D01*
X97380952Y-117383390D02*
X97285714Y-117431009D01*
X97285714Y-117431009D02*
X97238095Y-117478628D01*
X97238095Y-117478628D02*
X97190476Y-117573866D01*
X97190476Y-117573866D02*
X97190476Y-117764342D01*
X97190476Y-117764342D02*
X97238095Y-117859580D01*
X97238095Y-117859580D02*
X97285714Y-117907200D01*
X97285714Y-117907200D02*
X97380952Y-117954819D01*
X97380952Y-117954819D02*
X97571428Y-117954819D01*
X97571428Y-117954819D02*
X97666666Y-117907200D01*
X97666666Y-117907200D02*
X97714285Y-117859580D01*
X97714285Y-117859580D02*
X97761904Y-117764342D01*
X97761904Y-117764342D02*
X97761904Y-117573866D01*
X97761904Y-117573866D02*
X97714285Y-117478628D01*
X97714285Y-117478628D02*
X97666666Y-117431009D01*
X97666666Y-117431009D02*
X97571428Y-117383390D01*
X105914337Y-115915287D02*
X105341918Y-115814272D01*
X105510276Y-116319348D02*
X104803169Y-115612241D01*
X104803169Y-115612241D02*
X105072543Y-115342867D01*
X105072543Y-115342867D02*
X105173559Y-115309195D01*
X105173559Y-115309195D02*
X105240902Y-115309195D01*
X105240902Y-115309195D02*
X105341918Y-115342867D01*
X105341918Y-115342867D02*
X105442933Y-115443882D01*
X105442933Y-115443882D02*
X105476605Y-115544898D01*
X105476605Y-115544898D02*
X105476605Y-115612241D01*
X105476605Y-115612241D02*
X105442933Y-115713256D01*
X105442933Y-115713256D02*
X105173559Y-115982630D01*
X106587772Y-115241852D02*
X106183711Y-115645913D01*
X106385742Y-115443882D02*
X105678635Y-114736776D01*
X105678635Y-114736776D02*
X105712307Y-114905134D01*
X105712307Y-114905134D02*
X105712307Y-115039821D01*
X105712307Y-115039821D02*
X105678635Y-115140837D01*
X107261207Y-114568417D02*
X106857146Y-114972478D01*
X107059177Y-114770447D02*
X106352070Y-114063341D01*
X106352070Y-114063341D02*
X106385742Y-114231699D01*
X106385742Y-114231699D02*
X106385742Y-114366386D01*
X106385742Y-114366386D02*
X106352070Y-114467402D01*
X107261207Y-113760295D02*
X107160192Y-113793967D01*
X107160192Y-113793967D02*
X107092849Y-113793967D01*
X107092849Y-113793967D02*
X106991833Y-113760295D01*
X106991833Y-113760295D02*
X106958162Y-113726623D01*
X106958162Y-113726623D02*
X106924490Y-113625608D01*
X106924490Y-113625608D02*
X106924490Y-113558264D01*
X106924490Y-113558264D02*
X106958162Y-113457249D01*
X106958162Y-113457249D02*
X107092849Y-113322562D01*
X107092849Y-113322562D02*
X107193864Y-113288890D01*
X107193864Y-113288890D02*
X107261207Y-113288890D01*
X107261207Y-113288890D02*
X107362223Y-113322562D01*
X107362223Y-113322562D02*
X107395894Y-113356234D01*
X107395894Y-113356234D02*
X107429566Y-113457249D01*
X107429566Y-113457249D02*
X107429566Y-113524593D01*
X107429566Y-113524593D02*
X107395894Y-113625608D01*
X107395894Y-113625608D02*
X107261207Y-113760295D01*
X107261207Y-113760295D02*
X107227536Y-113861310D01*
X107227536Y-113861310D02*
X107227536Y-113928654D01*
X107227536Y-113928654D02*
X107261207Y-114029669D01*
X107261207Y-114029669D02*
X107395894Y-114164356D01*
X107395894Y-114164356D02*
X107496910Y-114198028D01*
X107496910Y-114198028D02*
X107564253Y-114198028D01*
X107564253Y-114198028D02*
X107665268Y-114164356D01*
X107665268Y-114164356D02*
X107799955Y-114029669D01*
X107799955Y-114029669D02*
X107833627Y-113928654D01*
X107833627Y-113928654D02*
X107833627Y-113861310D01*
X107833627Y-113861310D02*
X107799955Y-113760295D01*
X107799955Y-113760295D02*
X107665268Y-113625608D01*
X107665268Y-113625608D02*
X107564253Y-113591936D01*
X107564253Y-113591936D02*
X107496910Y-113591936D01*
X107496910Y-113591936D02*
X107395894Y-113625608D01*
X123824819Y-118019047D02*
X123348628Y-118352380D01*
X123824819Y-118590475D02*
X122824819Y-118590475D01*
X122824819Y-118590475D02*
X122824819Y-118209523D01*
X122824819Y-118209523D02*
X122872438Y-118114285D01*
X122872438Y-118114285D02*
X122920057Y-118066666D01*
X122920057Y-118066666D02*
X123015295Y-118019047D01*
X123015295Y-118019047D02*
X123158152Y-118019047D01*
X123158152Y-118019047D02*
X123253390Y-118066666D01*
X123253390Y-118066666D02*
X123301009Y-118114285D01*
X123301009Y-118114285D02*
X123348628Y-118209523D01*
X123348628Y-118209523D02*
X123348628Y-118590475D01*
X123824819Y-117066666D02*
X123824819Y-117638094D01*
X123824819Y-117352380D02*
X122824819Y-117352380D01*
X122824819Y-117352380D02*
X122967676Y-117447618D01*
X122967676Y-117447618D02*
X123062914Y-117542856D01*
X123062914Y-117542856D02*
X123110533Y-117638094D01*
X122920057Y-116685713D02*
X122872438Y-116638094D01*
X122872438Y-116638094D02*
X122824819Y-116542856D01*
X122824819Y-116542856D02*
X122824819Y-116304761D01*
X122824819Y-116304761D02*
X122872438Y-116209523D01*
X122872438Y-116209523D02*
X122920057Y-116161904D01*
X122920057Y-116161904D02*
X123015295Y-116114285D01*
X123015295Y-116114285D02*
X123110533Y-116114285D01*
X123110533Y-116114285D02*
X123253390Y-116161904D01*
X123253390Y-116161904D02*
X123824819Y-116733332D01*
X123824819Y-116733332D02*
X123824819Y-116114285D01*
X122824819Y-115257142D02*
X122824819Y-115447618D01*
X122824819Y-115447618D02*
X122872438Y-115542856D01*
X122872438Y-115542856D02*
X122920057Y-115590475D01*
X122920057Y-115590475D02*
X123062914Y-115685713D01*
X123062914Y-115685713D02*
X123253390Y-115733332D01*
X123253390Y-115733332D02*
X123634342Y-115733332D01*
X123634342Y-115733332D02*
X123729580Y-115685713D01*
X123729580Y-115685713D02*
X123777200Y-115638094D01*
X123777200Y-115638094D02*
X123824819Y-115542856D01*
X123824819Y-115542856D02*
X123824819Y-115352380D01*
X123824819Y-115352380D02*
X123777200Y-115257142D01*
X123777200Y-115257142D02*
X123729580Y-115209523D01*
X123729580Y-115209523D02*
X123634342Y-115161904D01*
X123634342Y-115161904D02*
X123396247Y-115161904D01*
X123396247Y-115161904D02*
X123301009Y-115209523D01*
X123301009Y-115209523D02*
X123253390Y-115257142D01*
X123253390Y-115257142D02*
X123205771Y-115352380D01*
X123205771Y-115352380D02*
X123205771Y-115542856D01*
X123205771Y-115542856D02*
X123253390Y-115638094D01*
X123253390Y-115638094D02*
X123301009Y-115685713D01*
X123301009Y-115685713D02*
X123396247Y-115733332D01*
D12*
X100641687Y-100514285D02*
X100641687Y-100247619D01*
X101060735Y-100133333D02*
X101060735Y-100514285D01*
X101060735Y-100514285D02*
X100260735Y-100514285D01*
X100260735Y-100514285D02*
X100260735Y-100133333D01*
X101060735Y-99371428D02*
X101060735Y-99828571D01*
X101060735Y-99599999D02*
X100260735Y-99599999D01*
X100260735Y-99599999D02*
X100375020Y-99676190D01*
X100375020Y-99676190D02*
X100451211Y-99752380D01*
X100451211Y-99752380D02*
X100489306Y-99828571D01*
X100260735Y-98876189D02*
X100260735Y-98799999D01*
X100260735Y-98799999D02*
X100298830Y-98723808D01*
X100298830Y-98723808D02*
X100336925Y-98685713D01*
X100336925Y-98685713D02*
X100413116Y-98647618D01*
X100413116Y-98647618D02*
X100565497Y-98609523D01*
X100565497Y-98609523D02*
X100755973Y-98609523D01*
X100755973Y-98609523D02*
X100908354Y-98647618D01*
X100908354Y-98647618D02*
X100984544Y-98685713D01*
X100984544Y-98685713D02*
X101022640Y-98723808D01*
X101022640Y-98723808D02*
X101060735Y-98799999D01*
X101060735Y-98799999D02*
X101060735Y-98876189D01*
X101060735Y-98876189D02*
X101022640Y-98952380D01*
X101022640Y-98952380D02*
X100984544Y-98990475D01*
X100984544Y-98990475D02*
X100908354Y-99028570D01*
X100908354Y-99028570D02*
X100755973Y-99066666D01*
X100755973Y-99066666D02*
X100565497Y-99066666D01*
X100565497Y-99066666D02*
X100413116Y-99028570D01*
X100413116Y-99028570D02*
X100336925Y-98990475D01*
X100336925Y-98990475D02*
X100298830Y-98952380D01*
X100298830Y-98952380D02*
X100260735Y-98876189D01*
X100603592Y-98152380D02*
X100565497Y-98228570D01*
X100565497Y-98228570D02*
X100527401Y-98266665D01*
X100527401Y-98266665D02*
X100451211Y-98304761D01*
X100451211Y-98304761D02*
X100413116Y-98304761D01*
X100413116Y-98304761D02*
X100336925Y-98266665D01*
X100336925Y-98266665D02*
X100298830Y-98228570D01*
X100298830Y-98228570D02*
X100260735Y-98152380D01*
X100260735Y-98152380D02*
X100260735Y-97999999D01*
X100260735Y-97999999D02*
X100298830Y-97923808D01*
X100298830Y-97923808D02*
X100336925Y-97885713D01*
X100336925Y-97885713D02*
X100413116Y-97847618D01*
X100413116Y-97847618D02*
X100451211Y-97847618D01*
X100451211Y-97847618D02*
X100527401Y-97885713D01*
X100527401Y-97885713D02*
X100565497Y-97923808D01*
X100565497Y-97923808D02*
X100603592Y-97999999D01*
X100603592Y-97999999D02*
X100603592Y-98152380D01*
X100603592Y-98152380D02*
X100641687Y-98228570D01*
X100641687Y-98228570D02*
X100679782Y-98266665D01*
X100679782Y-98266665D02*
X100755973Y-98304761D01*
X100755973Y-98304761D02*
X100908354Y-98304761D01*
X100908354Y-98304761D02*
X100984544Y-98266665D01*
X100984544Y-98266665D02*
X101022640Y-98228570D01*
X101022640Y-98228570D02*
X101060735Y-98152380D01*
X101060735Y-98152380D02*
X101060735Y-97999999D01*
X101060735Y-97999999D02*
X101022640Y-97923808D01*
X101022640Y-97923808D02*
X100984544Y-97885713D01*
X100984544Y-97885713D02*
X100908354Y-97847618D01*
X100908354Y-97847618D02*
X100755973Y-97847618D01*
X100755973Y-97847618D02*
X100679782Y-97885713D01*
X100679782Y-97885713D02*
X100641687Y-97923808D01*
X100641687Y-97923808D02*
X100603592Y-97999999D01*
D11*
X99643247Y-98610839D02*
X99643247Y-98344173D01*
X100062295Y-98229887D02*
X100062295Y-98610839D01*
X100062295Y-98610839D02*
X99262295Y-98610839D01*
X99262295Y-98610839D02*
X99262295Y-98229887D01*
X124129580Y-104919047D02*
X124177200Y-104966666D01*
X124177200Y-104966666D02*
X124224819Y-105109523D01*
X124224819Y-105109523D02*
X124224819Y-105204761D01*
X124224819Y-105204761D02*
X124177200Y-105347618D01*
X124177200Y-105347618D02*
X124081961Y-105442856D01*
X124081961Y-105442856D02*
X123986723Y-105490475D01*
X123986723Y-105490475D02*
X123796247Y-105538094D01*
X123796247Y-105538094D02*
X123653390Y-105538094D01*
X123653390Y-105538094D02*
X123462914Y-105490475D01*
X123462914Y-105490475D02*
X123367676Y-105442856D01*
X123367676Y-105442856D02*
X123272438Y-105347618D01*
X123272438Y-105347618D02*
X123224819Y-105204761D01*
X123224819Y-105204761D02*
X123224819Y-105109523D01*
X123224819Y-105109523D02*
X123272438Y-104966666D01*
X123272438Y-104966666D02*
X123320057Y-104919047D01*
X124224819Y-103966666D02*
X124224819Y-104538094D01*
X124224819Y-104252380D02*
X123224819Y-104252380D01*
X123224819Y-104252380D02*
X123367676Y-104347618D01*
X123367676Y-104347618D02*
X123462914Y-104442856D01*
X123462914Y-104442856D02*
X123510533Y-104538094D01*
X124224819Y-103014285D02*
X124224819Y-103585713D01*
X124224819Y-103299999D02*
X123224819Y-103299999D01*
X123224819Y-103299999D02*
X123367676Y-103395237D01*
X123367676Y-103395237D02*
X123462914Y-103490475D01*
X123462914Y-103490475D02*
X123510533Y-103585713D01*
X123653390Y-102442856D02*
X123605771Y-102538094D01*
X123605771Y-102538094D02*
X123558152Y-102585713D01*
X123558152Y-102585713D02*
X123462914Y-102633332D01*
X123462914Y-102633332D02*
X123415295Y-102633332D01*
X123415295Y-102633332D02*
X123320057Y-102585713D01*
X123320057Y-102585713D02*
X123272438Y-102538094D01*
X123272438Y-102538094D02*
X123224819Y-102442856D01*
X123224819Y-102442856D02*
X123224819Y-102252380D01*
X123224819Y-102252380D02*
X123272438Y-102157142D01*
X123272438Y-102157142D02*
X123320057Y-102109523D01*
X123320057Y-102109523D02*
X123415295Y-102061904D01*
X123415295Y-102061904D02*
X123462914Y-102061904D01*
X123462914Y-102061904D02*
X123558152Y-102109523D01*
X123558152Y-102109523D02*
X123605771Y-102157142D01*
X123605771Y-102157142D02*
X123653390Y-102252380D01*
X123653390Y-102252380D02*
X123653390Y-102442856D01*
X123653390Y-102442856D02*
X123701009Y-102538094D01*
X123701009Y-102538094D02*
X123748628Y-102585713D01*
X123748628Y-102585713D02*
X123843866Y-102633332D01*
X123843866Y-102633332D02*
X124034342Y-102633332D01*
X124034342Y-102633332D02*
X124129580Y-102585713D01*
X124129580Y-102585713D02*
X124177200Y-102538094D01*
X124177200Y-102538094D02*
X124224819Y-102442856D01*
X124224819Y-102442856D02*
X124224819Y-102252380D01*
X124224819Y-102252380D02*
X124177200Y-102157142D01*
X124177200Y-102157142D02*
X124129580Y-102109523D01*
X124129580Y-102109523D02*
X124034342Y-102061904D01*
X124034342Y-102061904D02*
X123843866Y-102061904D01*
X123843866Y-102061904D02*
X123748628Y-102109523D01*
X123748628Y-102109523D02*
X123701009Y-102157142D01*
X123701009Y-102157142D02*
X123653390Y-102252380D01*
X104683220Y-114465791D02*
X104683220Y-114533135D01*
X104683220Y-114533135D02*
X104615876Y-114667822D01*
X104615876Y-114667822D02*
X104548533Y-114735165D01*
X104548533Y-114735165D02*
X104413846Y-114802509D01*
X104413846Y-114802509D02*
X104279159Y-114802509D01*
X104279159Y-114802509D02*
X104178144Y-114768837D01*
X104178144Y-114768837D02*
X104009785Y-114667822D01*
X104009785Y-114667822D02*
X103908769Y-114566807D01*
X103908769Y-114566807D02*
X103807754Y-114398448D01*
X103807754Y-114398448D02*
X103774082Y-114297433D01*
X103774082Y-114297433D02*
X103774082Y-114162746D01*
X103774082Y-114162746D02*
X103841426Y-114028059D01*
X103841426Y-114028059D02*
X103908769Y-113960715D01*
X103908769Y-113960715D02*
X104043456Y-113893372D01*
X104043456Y-113893372D02*
X104110800Y-113893372D01*
X105423998Y-113859700D02*
X105019937Y-114263761D01*
X105221968Y-114061730D02*
X104514861Y-113354624D01*
X104514861Y-113354624D02*
X104548533Y-113522982D01*
X104548533Y-113522982D02*
X104548533Y-113657669D01*
X104548533Y-113657669D02*
X104514861Y-113758685D01*
X106097433Y-113186265D02*
X105693372Y-113590326D01*
X105895403Y-113388295D02*
X105188296Y-112681189D01*
X105188296Y-112681189D02*
X105221968Y-112849547D01*
X105221968Y-112849547D02*
X105221968Y-112984234D01*
X105221968Y-112984234D02*
X105188296Y-113085250D01*
X105996418Y-111873067D02*
X105861731Y-112007754D01*
X105861731Y-112007754D02*
X105828059Y-112108769D01*
X105828059Y-112108769D02*
X105828059Y-112176112D01*
X105828059Y-112176112D02*
X105861731Y-112344471D01*
X105861731Y-112344471D02*
X105962746Y-112512830D01*
X105962746Y-112512830D02*
X106232120Y-112782204D01*
X106232120Y-112782204D02*
X106333136Y-112815876D01*
X106333136Y-112815876D02*
X106400479Y-112815876D01*
X106400479Y-112815876D02*
X106501494Y-112782204D01*
X106501494Y-112782204D02*
X106636181Y-112647517D01*
X106636181Y-112647517D02*
X106669853Y-112546502D01*
X106669853Y-112546502D02*
X106669853Y-112479158D01*
X106669853Y-112479158D02*
X106636181Y-112378143D01*
X106636181Y-112378143D02*
X106467823Y-112209784D01*
X106467823Y-112209784D02*
X106366807Y-112176112D01*
X106366807Y-112176112D02*
X106299464Y-112176112D01*
X106299464Y-112176112D02*
X106198449Y-112209784D01*
X106198449Y-112209784D02*
X106063762Y-112344471D01*
X106063762Y-112344471D02*
X106030090Y-112445486D01*
X106030090Y-112445486D02*
X106030090Y-112512830D01*
X106030090Y-112512830D02*
X106063762Y-112613845D01*
X102382450Y-111689929D02*
X102382450Y-111743804D01*
X102382450Y-111743804D02*
X102328575Y-111851553D01*
X102328575Y-111851553D02*
X102274701Y-111905428D01*
X102274701Y-111905428D02*
X102166951Y-111959303D01*
X102166951Y-111959303D02*
X102059201Y-111959303D01*
X102059201Y-111959303D02*
X101978389Y-111932366D01*
X101978389Y-111932366D02*
X101843702Y-111851553D01*
X101843702Y-111851553D02*
X101762890Y-111770741D01*
X101762890Y-111770741D02*
X101682078Y-111636054D01*
X101682078Y-111636054D02*
X101655140Y-111555242D01*
X101655140Y-111555242D02*
X101655140Y-111447492D01*
X101655140Y-111447492D02*
X101709015Y-111339743D01*
X101709015Y-111339743D02*
X101762890Y-111285868D01*
X101762890Y-111285868D02*
X101870640Y-111231993D01*
X101870640Y-111231993D02*
X101924514Y-111231993D01*
X102975073Y-111205056D02*
X102651824Y-111528305D01*
X102813449Y-111366680D02*
X102247763Y-110800995D01*
X102247763Y-110800995D02*
X102274701Y-110935682D01*
X102274701Y-110935682D02*
X102274701Y-111043431D01*
X102274701Y-111043431D02*
X102247763Y-111124244D01*
X102759574Y-110289184D02*
X102813449Y-110235309D01*
X102813449Y-110235309D02*
X102894261Y-110208372D01*
X102894261Y-110208372D02*
X102948136Y-110208372D01*
X102948136Y-110208372D02*
X103028948Y-110235309D01*
X103028948Y-110235309D02*
X103163635Y-110316121D01*
X103163635Y-110316121D02*
X103298322Y-110450808D01*
X103298322Y-110450808D02*
X103379134Y-110585495D01*
X103379134Y-110585495D02*
X103406072Y-110666308D01*
X103406072Y-110666308D02*
X103406072Y-110720182D01*
X103406072Y-110720182D02*
X103379134Y-110800995D01*
X103379134Y-110800995D02*
X103325260Y-110854869D01*
X103325260Y-110854869D02*
X103244447Y-110881807D01*
X103244447Y-110881807D02*
X103190572Y-110881807D01*
X103190572Y-110881807D02*
X103109760Y-110854869D01*
X103109760Y-110854869D02*
X102975073Y-110774057D01*
X102975073Y-110774057D02*
X102840386Y-110639370D01*
X102840386Y-110639370D02*
X102759574Y-110504683D01*
X102759574Y-110504683D02*
X102732637Y-110423871D01*
X102732637Y-110423871D02*
X102732637Y-110369996D01*
X102732637Y-110369996D02*
X102759574Y-110289184D01*
X103513821Y-110019810D02*
X103433009Y-110046747D01*
X103433009Y-110046747D02*
X103379134Y-110046747D01*
X103379134Y-110046747D02*
X103298322Y-110019810D01*
X103298322Y-110019810D02*
X103271385Y-109992872D01*
X103271385Y-109992872D02*
X103244447Y-109912060D01*
X103244447Y-109912060D02*
X103244447Y-109858185D01*
X103244447Y-109858185D02*
X103271385Y-109777373D01*
X103271385Y-109777373D02*
X103379134Y-109669624D01*
X103379134Y-109669624D02*
X103459947Y-109642686D01*
X103459947Y-109642686D02*
X103513821Y-109642686D01*
X103513821Y-109642686D02*
X103594634Y-109669624D01*
X103594634Y-109669624D02*
X103621571Y-109696561D01*
X103621571Y-109696561D02*
X103648508Y-109777373D01*
X103648508Y-109777373D02*
X103648508Y-109831248D01*
X103648508Y-109831248D02*
X103621571Y-109912060D01*
X103621571Y-109912060D02*
X103513821Y-110019810D01*
X103513821Y-110019810D02*
X103486884Y-110100622D01*
X103486884Y-110100622D02*
X103486884Y-110154497D01*
X103486884Y-110154497D02*
X103513821Y-110235309D01*
X103513821Y-110235309D02*
X103621571Y-110343059D01*
X103621571Y-110343059D02*
X103702383Y-110369996D01*
X103702383Y-110369996D02*
X103756258Y-110369996D01*
X103756258Y-110369996D02*
X103837070Y-110343059D01*
X103837070Y-110343059D02*
X103944820Y-110235309D01*
X103944820Y-110235309D02*
X103971757Y-110154497D01*
X103971757Y-110154497D02*
X103971757Y-110100622D01*
X103971757Y-110100622D02*
X103944820Y-110019810D01*
X103944820Y-110019810D02*
X103837070Y-109912060D01*
X103837070Y-109912060D02*
X103756258Y-109885123D01*
X103756258Y-109885123D02*
X103702383Y-109885123D01*
X103702383Y-109885123D02*
X103621571Y-109912060D01*
X122304819Y-118790475D02*
X121304819Y-118790475D01*
X121304819Y-118790475D02*
X121304819Y-118552380D01*
X121304819Y-118552380D02*
X121352438Y-118409523D01*
X121352438Y-118409523D02*
X121447676Y-118314285D01*
X121447676Y-118314285D02*
X121542914Y-118266666D01*
X121542914Y-118266666D02*
X121733390Y-118219047D01*
X121733390Y-118219047D02*
X121876247Y-118219047D01*
X121876247Y-118219047D02*
X122066723Y-118266666D01*
X122066723Y-118266666D02*
X122161961Y-118314285D01*
X122161961Y-118314285D02*
X122257200Y-118409523D01*
X122257200Y-118409523D02*
X122304819Y-118552380D01*
X122304819Y-118552380D02*
X122304819Y-118790475D01*
X122304819Y-117266666D02*
X122304819Y-117838094D01*
X122304819Y-117552380D02*
X121304819Y-117552380D01*
X121304819Y-117552380D02*
X121447676Y-117647618D01*
X121447676Y-117647618D02*
X121542914Y-117742856D01*
X121542914Y-117742856D02*
X121590533Y-117838094D01*
X122304819Y-116314285D02*
X122304819Y-116885713D01*
X122304819Y-116599999D02*
X121304819Y-116599999D01*
X121304819Y-116599999D02*
X121447676Y-116695237D01*
X121447676Y-116695237D02*
X121542914Y-116790475D01*
X121542914Y-116790475D02*
X121590533Y-116885713D01*
X121304819Y-115457142D02*
X121304819Y-115647618D01*
X121304819Y-115647618D02*
X121352438Y-115742856D01*
X121352438Y-115742856D02*
X121400057Y-115790475D01*
X121400057Y-115790475D02*
X121542914Y-115885713D01*
X121542914Y-115885713D02*
X121733390Y-115933332D01*
X121733390Y-115933332D02*
X122114342Y-115933332D01*
X122114342Y-115933332D02*
X122209580Y-115885713D01*
X122209580Y-115885713D02*
X122257200Y-115838094D01*
X122257200Y-115838094D02*
X122304819Y-115742856D01*
X122304819Y-115742856D02*
X122304819Y-115552380D01*
X122304819Y-115552380D02*
X122257200Y-115457142D01*
X122257200Y-115457142D02*
X122209580Y-115409523D01*
X122209580Y-115409523D02*
X122114342Y-115361904D01*
X122114342Y-115361904D02*
X121876247Y-115361904D01*
X121876247Y-115361904D02*
X121781009Y-115409523D01*
X121781009Y-115409523D02*
X121733390Y-115457142D01*
X121733390Y-115457142D02*
X121685771Y-115552380D01*
X121685771Y-115552380D02*
X121685771Y-115742856D01*
X121685771Y-115742856D02*
X121733390Y-115838094D01*
X121733390Y-115838094D02*
X121781009Y-115885713D01*
X121781009Y-115885713D02*
X121876247Y-115933332D01*
X119044295Y-118660839D02*
X118244295Y-118660839D01*
X118244295Y-118660839D02*
X118244295Y-118356077D01*
X118244295Y-118356077D02*
X118282390Y-118279887D01*
X118282390Y-118279887D02*
X118320485Y-118241792D01*
X118320485Y-118241792D02*
X118396676Y-118203696D01*
X118396676Y-118203696D02*
X118510961Y-118203696D01*
X118510961Y-118203696D02*
X118587152Y-118241792D01*
X118587152Y-118241792D02*
X118625247Y-118279887D01*
X118625247Y-118279887D02*
X118663342Y-118356077D01*
X118663342Y-118356077D02*
X118663342Y-118660839D01*
X118244295Y-117937030D02*
X119044295Y-117746554D01*
X119044295Y-117746554D02*
X118472866Y-117594173D01*
X118472866Y-117594173D02*
X119044295Y-117441792D01*
X119044295Y-117441792D02*
X118244295Y-117251316D01*
X119044295Y-116489410D02*
X118663342Y-116756077D01*
X119044295Y-116946553D02*
X118244295Y-116946553D01*
X118244295Y-116946553D02*
X118244295Y-116641791D01*
X118244295Y-116641791D02*
X118282390Y-116565601D01*
X118282390Y-116565601D02*
X118320485Y-116527506D01*
X118320485Y-116527506D02*
X118396676Y-116489410D01*
X118396676Y-116489410D02*
X118510961Y-116489410D01*
X118510961Y-116489410D02*
X118587152Y-116527506D01*
X118587152Y-116527506D02*
X118625247Y-116565601D01*
X118625247Y-116565601D02*
X118663342Y-116641791D01*
X118663342Y-116641791D02*
X118663342Y-116946553D01*
X118510961Y-116146553D02*
X118739533Y-115537030D01*
X118739533Y-115537030D02*
X118968104Y-116146553D01*
D13*
X110789099Y-107119490D02*
X111112348Y-107442739D01*
X110385038Y-107846800D02*
X110950723Y-107281114D01*
X110869911Y-108008424D02*
X111139285Y-108277798D01*
X110654412Y-108116174D02*
X111408659Y-107739050D01*
X111408659Y-107739050D02*
X111031536Y-108493298D01*
X111597221Y-108951233D02*
X111543346Y-108951233D01*
X111543346Y-108951233D02*
X111435596Y-108897358D01*
X111435596Y-108897358D02*
X111381722Y-108843484D01*
X111381722Y-108843484D02*
X111327847Y-108735734D01*
X111327847Y-108735734D02*
X111327847Y-108627984D01*
X111327847Y-108627984D02*
X111354784Y-108547172D01*
X111354784Y-108547172D02*
X111435596Y-108412485D01*
X111435596Y-108412485D02*
X111516409Y-108331673D01*
X111516409Y-108331673D02*
X111651096Y-108250861D01*
X111651096Y-108250861D02*
X111731908Y-108223923D01*
X111731908Y-108223923D02*
X111839657Y-108223923D01*
X111839657Y-108223923D02*
X111947407Y-108277798D01*
X111947407Y-108277798D02*
X112001282Y-108331673D01*
X112001282Y-108331673D02*
X112055157Y-108439423D01*
X112055157Y-108439423D02*
X112055157Y-108493297D01*
X112620842Y-108951233D02*
X112351468Y-108681859D01*
X112351468Y-108681859D02*
X112055157Y-108924296D01*
X112055157Y-108924296D02*
X112109031Y-108924296D01*
X112109031Y-108924296D02*
X112189844Y-108951233D01*
X112189844Y-108951233D02*
X112324531Y-109085920D01*
X112324531Y-109085920D02*
X112351468Y-109166732D01*
X112351468Y-109166732D02*
X112351468Y-109220607D01*
X112351468Y-109220607D02*
X112324531Y-109301419D01*
X112324531Y-109301419D02*
X112189844Y-109436106D01*
X112189844Y-109436106D02*
X112109031Y-109463044D01*
X112109031Y-109463044D02*
X112055157Y-109463044D01*
X112055157Y-109463044D02*
X111974344Y-109436106D01*
X111974344Y-109436106D02*
X111839657Y-109301419D01*
X111839657Y-109301419D02*
X111812720Y-109220607D01*
X111812720Y-109220607D02*
X111812720Y-109166732D01*
X112809404Y-109247545D02*
X112863279Y-109247545D01*
X112863279Y-109247545D02*
X112944091Y-109274482D01*
X112944091Y-109274482D02*
X113078778Y-109409169D01*
X113078778Y-109409169D02*
X113105715Y-109489981D01*
X113105715Y-109489981D02*
X113105715Y-109543856D01*
X113105715Y-109543856D02*
X113078778Y-109624668D01*
X113078778Y-109624668D02*
X113024903Y-109678543D01*
X113024903Y-109678543D02*
X112917154Y-109732418D01*
X112917154Y-109732418D02*
X112270656Y-109732418D01*
X112270656Y-109732418D02*
X112620842Y-110082604D01*
X113159590Y-110621352D02*
X112836342Y-110298104D01*
X112997966Y-110459728D02*
X113563651Y-109894043D01*
X113563651Y-109894043D02*
X113428964Y-109920980D01*
X113428964Y-109920980D02*
X113321215Y-109920980D01*
X113321215Y-109920980D02*
X113240403Y-109894043D01*
X113886900Y-110325041D02*
X113940775Y-110325041D01*
X113940775Y-110325041D02*
X114021587Y-110351979D01*
X114021587Y-110351979D02*
X114156274Y-110486666D01*
X114156274Y-110486666D02*
X114183212Y-110567478D01*
X114183212Y-110567478D02*
X114183212Y-110621353D01*
X114183212Y-110621353D02*
X114156274Y-110702165D01*
X114156274Y-110702165D02*
X114102400Y-110756040D01*
X114102400Y-110756040D02*
X113994650Y-110809914D01*
X113994650Y-110809914D02*
X113348152Y-110809914D01*
X113348152Y-110809914D02*
X113698339Y-111160101D01*
D11*
X108483220Y-118465791D02*
X108483220Y-118533135D01*
X108483220Y-118533135D02*
X108415876Y-118667822D01*
X108415876Y-118667822D02*
X108348533Y-118735165D01*
X108348533Y-118735165D02*
X108213846Y-118802509D01*
X108213846Y-118802509D02*
X108079159Y-118802509D01*
X108079159Y-118802509D02*
X107978144Y-118768837D01*
X107978144Y-118768837D02*
X107809785Y-118667822D01*
X107809785Y-118667822D02*
X107708769Y-118566807D01*
X107708769Y-118566807D02*
X107607754Y-118398448D01*
X107607754Y-118398448D02*
X107574082Y-118297433D01*
X107574082Y-118297433D02*
X107574082Y-118162746D01*
X107574082Y-118162746D02*
X107641426Y-118028059D01*
X107641426Y-118028059D02*
X107708769Y-117960715D01*
X107708769Y-117960715D02*
X107843456Y-117893372D01*
X107843456Y-117893372D02*
X107910800Y-117893372D01*
X109223998Y-117859700D02*
X108819937Y-118263761D01*
X109021968Y-118061730D02*
X108314861Y-117354624D01*
X108314861Y-117354624D02*
X108348533Y-117522982D01*
X108348533Y-117522982D02*
X108348533Y-117657669D01*
X108348533Y-117657669D02*
X108314861Y-117758685D01*
X109897433Y-117186265D02*
X109493372Y-117590326D01*
X109695403Y-117388295D02*
X108988296Y-116681189D01*
X108988296Y-116681189D02*
X109021968Y-116849547D01*
X109021968Y-116849547D02*
X109021968Y-116984234D01*
X109021968Y-116984234D02*
X108988296Y-117085250D01*
X109527044Y-116277128D02*
X109527044Y-116209784D01*
X109527044Y-116209784D02*
X109560716Y-116108769D01*
X109560716Y-116108769D02*
X109729075Y-115940410D01*
X109729075Y-115940410D02*
X109830090Y-115906738D01*
X109830090Y-115906738D02*
X109897433Y-115906738D01*
X109897433Y-115906738D02*
X109998449Y-115940410D01*
X109998449Y-115940410D02*
X110065792Y-116007754D01*
X110065792Y-116007754D02*
X110133136Y-116142441D01*
X110133136Y-116142441D02*
X110133136Y-116950563D01*
X110133136Y-116950563D02*
X110570868Y-116512830D01*
D12*
X123041687Y-100514285D02*
X123041687Y-100247619D01*
X123460735Y-100133333D02*
X123460735Y-100514285D01*
X123460735Y-100514285D02*
X122660735Y-100514285D01*
X122660735Y-100514285D02*
X122660735Y-100133333D01*
X123460735Y-99371428D02*
X123460735Y-99828571D01*
X123460735Y-99599999D02*
X122660735Y-99599999D01*
X122660735Y-99599999D02*
X122775020Y-99676190D01*
X122775020Y-99676190D02*
X122851211Y-99752380D01*
X122851211Y-99752380D02*
X122889306Y-99828571D01*
X122660735Y-98876189D02*
X122660735Y-98799999D01*
X122660735Y-98799999D02*
X122698830Y-98723808D01*
X122698830Y-98723808D02*
X122736925Y-98685713D01*
X122736925Y-98685713D02*
X122813116Y-98647618D01*
X122813116Y-98647618D02*
X122965497Y-98609523D01*
X122965497Y-98609523D02*
X123155973Y-98609523D01*
X123155973Y-98609523D02*
X123308354Y-98647618D01*
X123308354Y-98647618D02*
X123384544Y-98685713D01*
X123384544Y-98685713D02*
X123422640Y-98723808D01*
X123422640Y-98723808D02*
X123460735Y-98799999D01*
X123460735Y-98799999D02*
X123460735Y-98876189D01*
X123460735Y-98876189D02*
X123422640Y-98952380D01*
X123422640Y-98952380D02*
X123384544Y-98990475D01*
X123384544Y-98990475D02*
X123308354Y-99028570D01*
X123308354Y-99028570D02*
X123155973Y-99066666D01*
X123155973Y-99066666D02*
X122965497Y-99066666D01*
X122965497Y-99066666D02*
X122813116Y-99028570D01*
X122813116Y-99028570D02*
X122736925Y-98990475D01*
X122736925Y-98990475D02*
X122698830Y-98952380D01*
X122698830Y-98952380D02*
X122660735Y-98876189D01*
X123460735Y-98228570D02*
X123460735Y-98076189D01*
X123460735Y-98076189D02*
X123422640Y-97999999D01*
X123422640Y-97999999D02*
X123384544Y-97961903D01*
X123384544Y-97961903D02*
X123270259Y-97885713D01*
X123270259Y-97885713D02*
X123117878Y-97847618D01*
X123117878Y-97847618D02*
X122813116Y-97847618D01*
X122813116Y-97847618D02*
X122736925Y-97885713D01*
X122736925Y-97885713D02*
X122698830Y-97923808D01*
X122698830Y-97923808D02*
X122660735Y-97999999D01*
X122660735Y-97999999D02*
X122660735Y-98152380D01*
X122660735Y-98152380D02*
X122698830Y-98228570D01*
X122698830Y-98228570D02*
X122736925Y-98266665D01*
X122736925Y-98266665D02*
X122813116Y-98304761D01*
X122813116Y-98304761D02*
X123003592Y-98304761D01*
X123003592Y-98304761D02*
X123079782Y-98266665D01*
X123079782Y-98266665D02*
X123117878Y-98228570D01*
X123117878Y-98228570D02*
X123155973Y-98152380D01*
X123155973Y-98152380D02*
X123155973Y-97999999D01*
X123155973Y-97999999D02*
X123117878Y-97923808D01*
X123117878Y-97923808D02*
X123079782Y-97885713D01*
X123079782Y-97885713D02*
X123003592Y-97847618D01*
D11*
X122043247Y-98610839D02*
X122043247Y-98344173D01*
X122462295Y-98229887D02*
X122462295Y-98610839D01*
X122462295Y-98610839D02*
X121662295Y-98610839D01*
X121662295Y-98610839D02*
X121662295Y-98229887D01*
X121362295Y-114497619D02*
X121362295Y-114878571D01*
X121362295Y-114878571D02*
X121743247Y-114916667D01*
X121743247Y-114916667D02*
X121705152Y-114878571D01*
X121705152Y-114878571D02*
X121667057Y-114802381D01*
X121667057Y-114802381D02*
X121667057Y-114611905D01*
X121667057Y-114611905D02*
X121705152Y-114535714D01*
X121705152Y-114535714D02*
X121743247Y-114497619D01*
X121743247Y-114497619D02*
X121819438Y-114459524D01*
X121819438Y-114459524D02*
X122009914Y-114459524D01*
X122009914Y-114459524D02*
X122086104Y-114497619D01*
X122086104Y-114497619D02*
X122124200Y-114535714D01*
X122124200Y-114535714D02*
X122162295Y-114611905D01*
X122162295Y-114611905D02*
X122162295Y-114802381D01*
X122162295Y-114802381D02*
X122124200Y-114878571D01*
X122124200Y-114878571D02*
X122086104Y-114916667D01*
X121362295Y-114192857D02*
X121362295Y-113697619D01*
X121362295Y-113697619D02*
X121667057Y-113964285D01*
X121667057Y-113964285D02*
X121667057Y-113850000D01*
X121667057Y-113850000D02*
X121705152Y-113773809D01*
X121705152Y-113773809D02*
X121743247Y-113735714D01*
X121743247Y-113735714D02*
X121819438Y-113697619D01*
X121819438Y-113697619D02*
X122009914Y-113697619D01*
X122009914Y-113697619D02*
X122086104Y-113735714D01*
X122086104Y-113735714D02*
X122124200Y-113773809D01*
X122124200Y-113773809D02*
X122162295Y-113850000D01*
X122162295Y-113850000D02*
X122162295Y-114078571D01*
X122162295Y-114078571D02*
X122124200Y-114154762D01*
X122124200Y-114154762D02*
X122086104Y-114192857D01*
X121933723Y-109126189D02*
X121933723Y-108745236D01*
X122162295Y-109202379D02*
X121362295Y-108935712D01*
X121362295Y-108935712D02*
X122162295Y-108669046D01*
X121362295Y-108059522D02*
X121362295Y-108211903D01*
X121362295Y-108211903D02*
X121400390Y-108288094D01*
X121400390Y-108288094D02*
X121438485Y-108326189D01*
X121438485Y-108326189D02*
X121552771Y-108402379D01*
X121552771Y-108402379D02*
X121705152Y-108440475D01*
X121705152Y-108440475D02*
X122009914Y-108440475D01*
X122009914Y-108440475D02*
X122086104Y-108402379D01*
X122086104Y-108402379D02*
X122124200Y-108364284D01*
X122124200Y-108364284D02*
X122162295Y-108288094D01*
X122162295Y-108288094D02*
X122162295Y-108135713D01*
X122162295Y-108135713D02*
X122124200Y-108059522D01*
X122124200Y-108059522D02*
X122086104Y-108021427D01*
X122086104Y-108021427D02*
X122009914Y-107983332D01*
X122009914Y-107983332D02*
X121819438Y-107983332D01*
X121819438Y-107983332D02*
X121743247Y-108021427D01*
X121743247Y-108021427D02*
X121705152Y-108059522D01*
X121705152Y-108059522D02*
X121667057Y-108135713D01*
X121667057Y-108135713D02*
X121667057Y-108288094D01*
X121667057Y-108288094D02*
X121705152Y-108364284D01*
X121705152Y-108364284D02*
X121743247Y-108402379D01*
X121743247Y-108402379D02*
X121819438Y-108440475D01*
D12*
X97634075Y-112830018D02*
X98199760Y-112264333D01*
X98199760Y-112264333D02*
X98334447Y-112399020D01*
X98334447Y-112399020D02*
X98388322Y-112506769D01*
X98388322Y-112506769D02*
X98388322Y-112614519D01*
X98388322Y-112614519D02*
X98361384Y-112695331D01*
X98361384Y-112695331D02*
X98280572Y-112830018D01*
X98280572Y-112830018D02*
X98199760Y-112910830D01*
X98199760Y-112910830D02*
X98065073Y-112991643D01*
X98065073Y-112991643D02*
X97984261Y-113018580D01*
X97984261Y-113018580D02*
X97876511Y-113018580D01*
X97876511Y-113018580D02*
X97768762Y-112964705D01*
X97768762Y-112964705D02*
X97634075Y-112830018D01*
X98873195Y-112937768D02*
X98980945Y-113045517D01*
X98980945Y-113045517D02*
X99007882Y-113126330D01*
X99007882Y-113126330D02*
X99007882Y-113234079D01*
X99007882Y-113234079D02*
X98927070Y-113368766D01*
X98927070Y-113368766D02*
X98738508Y-113557328D01*
X98738508Y-113557328D02*
X98603821Y-113638140D01*
X98603821Y-113638140D02*
X98496071Y-113638140D01*
X98496071Y-113638140D02*
X98415259Y-113611203D01*
X98415259Y-113611203D02*
X98307510Y-113503453D01*
X98307510Y-113503453D02*
X98280572Y-113422641D01*
X98280572Y-113422641D02*
X98280572Y-113314891D01*
X98280572Y-113314891D02*
X98361384Y-113180204D01*
X98361384Y-113180204D02*
X98549946Y-112991643D01*
X98549946Y-112991643D02*
X98684633Y-112910830D01*
X98684633Y-112910830D02*
X98792383Y-112910830D01*
X98792383Y-112910830D02*
X98873195Y-112937768D01*
X99358068Y-113422641D02*
X98900132Y-113880577D01*
X98900132Y-113880577D02*
X98873195Y-113961389D01*
X98873195Y-113961389D02*
X98873195Y-114015264D01*
X98873195Y-114015264D02*
X98900132Y-114096076D01*
X98900132Y-114096076D02*
X99007882Y-114203826D01*
X99007882Y-114203826D02*
X99088694Y-114230763D01*
X99088694Y-114230763D02*
X99142569Y-114230763D01*
X99142569Y-114230763D02*
X99223381Y-114203826D01*
X99223381Y-114203826D02*
X99681317Y-113745890D01*
X99869879Y-113934451D02*
X100193127Y-114257700D01*
X99465818Y-114661761D02*
X100031503Y-114096076D01*
X100112315Y-115308259D02*
X99789066Y-114985010D01*
X99950691Y-115146635D02*
X100516376Y-114580949D01*
X100516376Y-114580949D02*
X100381689Y-114607887D01*
X100381689Y-114607887D02*
X100273940Y-114607887D01*
X100273940Y-114607887D02*
X100193128Y-114580949D01*
X101028187Y-115092760D02*
X101082062Y-115146635D01*
X101082062Y-115146635D02*
X101108999Y-115227447D01*
X101108999Y-115227447D02*
X101108999Y-115281322D01*
X101108999Y-115281322D02*
X101082062Y-115362134D01*
X101082062Y-115362134D02*
X101001250Y-115496821D01*
X101001250Y-115496821D02*
X100866563Y-115631508D01*
X100866563Y-115631508D02*
X100731876Y-115712320D01*
X100731876Y-115712320D02*
X100651063Y-115739258D01*
X100651063Y-115739258D02*
X100597189Y-115739258D01*
X100597189Y-115739258D02*
X100516376Y-115712320D01*
X100516376Y-115712320D02*
X100462502Y-115658445D01*
X100462502Y-115658445D02*
X100435564Y-115577633D01*
X100435564Y-115577633D02*
X100435564Y-115523758D01*
X100435564Y-115523758D02*
X100462502Y-115442946D01*
X100462502Y-115442946D02*
X100543314Y-115308259D01*
X100543314Y-115308259D02*
X100678001Y-115173572D01*
X100678001Y-115173572D02*
X100812688Y-115092760D01*
X100812688Y-115092760D02*
X100893500Y-115065823D01*
X100893500Y-115065823D02*
X100947375Y-115065823D01*
X100947375Y-115065823D02*
X101028187Y-115092760D01*
X101297561Y-115847007D02*
X101270624Y-115766195D01*
X101270624Y-115766195D02*
X101270624Y-115712320D01*
X101270624Y-115712320D02*
X101297561Y-115631508D01*
X101297561Y-115631508D02*
X101324499Y-115604571D01*
X101324499Y-115604571D02*
X101405311Y-115577633D01*
X101405311Y-115577633D02*
X101459186Y-115577633D01*
X101459186Y-115577633D02*
X101539998Y-115604571D01*
X101539998Y-115604571D02*
X101647748Y-115712320D01*
X101647748Y-115712320D02*
X101674685Y-115793133D01*
X101674685Y-115793133D02*
X101674685Y-115847007D01*
X101674685Y-115847007D02*
X101647748Y-115927820D01*
X101647748Y-115927820D02*
X101620810Y-115954757D01*
X101620810Y-115954757D02*
X101539998Y-115981694D01*
X101539998Y-115981694D02*
X101486123Y-115981694D01*
X101486123Y-115981694D02*
X101405311Y-115954757D01*
X101405311Y-115954757D02*
X101297561Y-115847007D01*
X101297561Y-115847007D02*
X101216749Y-115820070D01*
X101216749Y-115820070D02*
X101162874Y-115820070D01*
X101162874Y-115820070D02*
X101082062Y-115847007D01*
X101082062Y-115847007D02*
X100974312Y-115954757D01*
X100974312Y-115954757D02*
X100947375Y-116035569D01*
X100947375Y-116035569D02*
X100947375Y-116089444D01*
X100947375Y-116089444D02*
X100974312Y-116170256D01*
X100974312Y-116170256D02*
X101082062Y-116278006D01*
X101082062Y-116278006D02*
X101162874Y-116304943D01*
X101162874Y-116304943D02*
X101216749Y-116304943D01*
X101216749Y-116304943D02*
X101297561Y-116278006D01*
X101297561Y-116278006D02*
X101405311Y-116170256D01*
X101405311Y-116170256D02*
X101432248Y-116089444D01*
X101432248Y-116089444D02*
X101432248Y-116035569D01*
X101432248Y-116035569D02*
X101405311Y-115954757D01*
D14*
X98572495Y-115319383D02*
X98168434Y-114915322D01*
X98370464Y-115117352D02*
X99077571Y-114410246D01*
X99077571Y-114410246D02*
X98909212Y-114443917D01*
X98909212Y-114443917D02*
X98774525Y-114443917D01*
X98774525Y-114443917D02*
X98673510Y-114410246D01*
X100020380Y-115487742D02*
X100087724Y-115487742D01*
X100087724Y-115487742D02*
X100188739Y-115521414D01*
X100188739Y-115521414D02*
X100357098Y-115689772D01*
X100357098Y-115689772D02*
X100390769Y-115790788D01*
X100390769Y-115790788D02*
X100390769Y-115858131D01*
X100390769Y-115858131D02*
X100357098Y-115959146D01*
X100357098Y-115959146D02*
X100289754Y-116026490D01*
X100289754Y-116026490D02*
X100155067Y-116093833D01*
X100155067Y-116093833D02*
X99346945Y-116093833D01*
X99346945Y-116093833D02*
X99784678Y-116531566D01*
D11*
X99813970Y-116426333D02*
X100379656Y-115860648D01*
X100379656Y-115860648D02*
X100514343Y-115995335D01*
X100514343Y-115995335D02*
X100568217Y-116103084D01*
X100568217Y-116103084D02*
X100568217Y-116210834D01*
X100568217Y-116210834D02*
X100541280Y-116291646D01*
X100541280Y-116291646D02*
X100460468Y-116426333D01*
X100460468Y-116426333D02*
X100379656Y-116507145D01*
X100379656Y-116507145D02*
X100244969Y-116587957D01*
X100244969Y-116587957D02*
X100164156Y-116614895D01*
X100164156Y-116614895D02*
X100056407Y-116614895D01*
X100056407Y-116614895D02*
X99948657Y-116561020D01*
X99948657Y-116561020D02*
X99813970Y-116426333D01*
X101053091Y-116534083D02*
X101160840Y-116641832D01*
X101160840Y-116641832D02*
X101187778Y-116722644D01*
X101187778Y-116722644D02*
X101187778Y-116830394D01*
X101187778Y-116830394D02*
X101106965Y-116965081D01*
X101106965Y-116965081D02*
X100918404Y-117153643D01*
X100918404Y-117153643D02*
X100783717Y-117234455D01*
X100783717Y-117234455D02*
X100675967Y-117234455D01*
X100675967Y-117234455D02*
X100595155Y-117207518D01*
X100595155Y-117207518D02*
X100487405Y-117099768D01*
X100487405Y-117099768D02*
X100460468Y-117018956D01*
X100460468Y-117018956D02*
X100460468Y-116911206D01*
X100460468Y-116911206D02*
X100541280Y-116776519D01*
X100541280Y-116776519D02*
X100729842Y-116587957D01*
X100729842Y-116587957D02*
X100864529Y-116507145D01*
X100864529Y-116507145D02*
X100972278Y-116507145D01*
X100972278Y-116507145D02*
X101053091Y-116534083D01*
X101537964Y-117018956D02*
X101080028Y-117476892D01*
X101080028Y-117476892D02*
X101053090Y-117557704D01*
X101053090Y-117557704D02*
X101053090Y-117611579D01*
X101053090Y-117611579D02*
X101080028Y-117692391D01*
X101080028Y-117692391D02*
X101187778Y-117800140D01*
X101187778Y-117800140D02*
X101268590Y-117827078D01*
X101268590Y-117827078D02*
X101322465Y-117827078D01*
X101322465Y-117827078D02*
X101403277Y-117800140D01*
X101403277Y-117800140D02*
X101861213Y-117342205D01*
X102049774Y-117530766D02*
X102373023Y-117854015D01*
X101645713Y-118258076D02*
X102211399Y-117692391D01*
X113259793Y-113157634D02*
X113360808Y-112585215D01*
X112855732Y-112753573D02*
X113562839Y-112046466D01*
X113562839Y-112046466D02*
X113832213Y-112315840D01*
X113832213Y-112315840D02*
X113865885Y-112416856D01*
X113865885Y-112416856D02*
X113865885Y-112484199D01*
X113865885Y-112484199D02*
X113832213Y-112585215D01*
X113832213Y-112585215D02*
X113731198Y-112686230D01*
X113731198Y-112686230D02*
X113630182Y-112719902D01*
X113630182Y-112719902D02*
X113562839Y-112719902D01*
X113562839Y-112719902D02*
X113461824Y-112686230D01*
X113461824Y-112686230D02*
X113192450Y-112416856D01*
X113933228Y-113831069D02*
X113529167Y-113427008D01*
X113731198Y-113629039D02*
X114438304Y-112921932D01*
X114438304Y-112921932D02*
X114269946Y-112955604D01*
X114269946Y-112955604D02*
X114135259Y-112955604D01*
X114135259Y-112955604D02*
X114034243Y-112921932D01*
X114606663Y-114504504D02*
X114202602Y-114100443D01*
X114404633Y-114302474D02*
X115111739Y-113595367D01*
X115111739Y-113595367D02*
X114943381Y-113629039D01*
X114943381Y-113629039D02*
X114808694Y-113629039D01*
X114808694Y-113629039D02*
X114707678Y-113595367D01*
X115751503Y-114235130D02*
X115818846Y-114302474D01*
X115818846Y-114302474D02*
X115852518Y-114403489D01*
X115852518Y-114403489D02*
X115852518Y-114470833D01*
X115852518Y-114470833D02*
X115818846Y-114571848D01*
X115818846Y-114571848D02*
X115717831Y-114740207D01*
X115717831Y-114740207D02*
X115549472Y-114908565D01*
X115549472Y-114908565D02*
X115381113Y-115009581D01*
X115381113Y-115009581D02*
X115280098Y-115043252D01*
X115280098Y-115043252D02*
X115212755Y-115043252D01*
X115212755Y-115043252D02*
X115111739Y-115009581D01*
X115111739Y-115009581D02*
X115044396Y-114942237D01*
X115044396Y-114942237D02*
X115010724Y-114841222D01*
X115010724Y-114841222D02*
X115010724Y-114773878D01*
X115010724Y-114773878D02*
X115044396Y-114672863D01*
X115044396Y-114672863D02*
X115145411Y-114504504D01*
X115145411Y-114504504D02*
X115313770Y-114336146D01*
X115313770Y-114336146D02*
X115482129Y-114235130D01*
X115482129Y-114235130D02*
X115583144Y-114201459D01*
X115583144Y-114201459D02*
X115650487Y-114201459D01*
X115650487Y-114201459D02*
X115751503Y-114235130D01*
D12*
X91104761Y-119860735D02*
X90723809Y-119860735D01*
X90723809Y-119860735D02*
X90685713Y-120241687D01*
X90685713Y-120241687D02*
X90723809Y-120203592D01*
X90723809Y-120203592D02*
X90799999Y-120165497D01*
X90799999Y-120165497D02*
X90990475Y-120165497D01*
X90990475Y-120165497D02*
X91066666Y-120203592D01*
X91066666Y-120203592D02*
X91104761Y-120241687D01*
X91104761Y-120241687D02*
X91142856Y-120317878D01*
X91142856Y-120317878D02*
X91142856Y-120508354D01*
X91142856Y-120508354D02*
X91104761Y-120584544D01*
X91104761Y-120584544D02*
X91066666Y-120622640D01*
X91066666Y-120622640D02*
X90990475Y-120660735D01*
X90990475Y-120660735D02*
X90799999Y-120660735D01*
X90799999Y-120660735D02*
X90723809Y-120622640D01*
X90723809Y-120622640D02*
X90685713Y-120584544D01*
X91371428Y-119860735D02*
X91638095Y-120660735D01*
X91638095Y-120660735D02*
X91904761Y-119860735D01*
X92590475Y-120660735D02*
X92133332Y-120660735D01*
X92361904Y-120660735D02*
X92361904Y-119860735D01*
X92361904Y-119860735D02*
X92285713Y-119975020D01*
X92285713Y-119975020D02*
X92209523Y-120051211D01*
X92209523Y-120051211D02*
X92133332Y-120089306D01*
X93085714Y-119860735D02*
X93161904Y-119860735D01*
X93161904Y-119860735D02*
X93238095Y-119898830D01*
X93238095Y-119898830D02*
X93276190Y-119936925D01*
X93276190Y-119936925D02*
X93314285Y-120013116D01*
X93314285Y-120013116D02*
X93352380Y-120165497D01*
X93352380Y-120165497D02*
X93352380Y-120355973D01*
X93352380Y-120355973D02*
X93314285Y-120508354D01*
X93314285Y-120508354D02*
X93276190Y-120584544D01*
X93276190Y-120584544D02*
X93238095Y-120622640D01*
X93238095Y-120622640D02*
X93161904Y-120660735D01*
X93161904Y-120660735D02*
X93085714Y-120660735D01*
X93085714Y-120660735D02*
X93009523Y-120622640D01*
X93009523Y-120622640D02*
X92971428Y-120584544D01*
X92971428Y-120584544D02*
X92933333Y-120508354D01*
X92933333Y-120508354D02*
X92895237Y-120355973D01*
X92895237Y-120355973D02*
X92895237Y-120165497D01*
X92895237Y-120165497D02*
X92933333Y-120013116D01*
X92933333Y-120013116D02*
X92971428Y-119936925D01*
X92971428Y-119936925D02*
X93009523Y-119898830D01*
X93009523Y-119898830D02*
X93085714Y-119860735D01*
X93809523Y-120203592D02*
X93733333Y-120165497D01*
X93733333Y-120165497D02*
X93695238Y-120127401D01*
X93695238Y-120127401D02*
X93657142Y-120051211D01*
X93657142Y-120051211D02*
X93657142Y-120013116D01*
X93657142Y-120013116D02*
X93695238Y-119936925D01*
X93695238Y-119936925D02*
X93733333Y-119898830D01*
X93733333Y-119898830D02*
X93809523Y-119860735D01*
X93809523Y-119860735D02*
X93961904Y-119860735D01*
X93961904Y-119860735D02*
X94038095Y-119898830D01*
X94038095Y-119898830D02*
X94076190Y-119936925D01*
X94076190Y-119936925D02*
X94114285Y-120013116D01*
X94114285Y-120013116D02*
X94114285Y-120051211D01*
X94114285Y-120051211D02*
X94076190Y-120127401D01*
X94076190Y-120127401D02*
X94038095Y-120165497D01*
X94038095Y-120165497D02*
X93961904Y-120203592D01*
X93961904Y-120203592D02*
X93809523Y-120203592D01*
X93809523Y-120203592D02*
X93733333Y-120241687D01*
X93733333Y-120241687D02*
X93695238Y-120279782D01*
X93695238Y-120279782D02*
X93657142Y-120355973D01*
X93657142Y-120355973D02*
X93657142Y-120508354D01*
X93657142Y-120508354D02*
X93695238Y-120584544D01*
X93695238Y-120584544D02*
X93733333Y-120622640D01*
X93733333Y-120622640D02*
X93809523Y-120660735D01*
X93809523Y-120660735D02*
X93961904Y-120660735D01*
X93961904Y-120660735D02*
X94038095Y-120622640D01*
X94038095Y-120622640D02*
X94076190Y-120584544D01*
X94076190Y-120584544D02*
X94114285Y-120508354D01*
X94114285Y-120508354D02*
X94114285Y-120355973D01*
X94114285Y-120355973D02*
X94076190Y-120279782D01*
X94076190Y-120279782D02*
X94038095Y-120241687D01*
X94038095Y-120241687D02*
X93961904Y-120203592D01*
D11*
X91179887Y-121747704D02*
X91560839Y-121747704D01*
X91560839Y-121747704D02*
X91598935Y-121366752D01*
X91598935Y-121366752D02*
X91560839Y-121404847D01*
X91560839Y-121404847D02*
X91484649Y-121442942D01*
X91484649Y-121442942D02*
X91294173Y-121442942D01*
X91294173Y-121442942D02*
X91217982Y-121404847D01*
X91217982Y-121404847D02*
X91179887Y-121366752D01*
X91179887Y-121366752D02*
X91141792Y-121290561D01*
X91141792Y-121290561D02*
X91141792Y-121100085D01*
X91141792Y-121100085D02*
X91179887Y-121023895D01*
X91179887Y-121023895D02*
X91217982Y-120985800D01*
X91217982Y-120985800D02*
X91294173Y-120947704D01*
X91294173Y-120947704D02*
X91484649Y-120947704D01*
X91484649Y-120947704D02*
X91560839Y-120985800D01*
X91560839Y-120985800D02*
X91598935Y-121023895D01*
X90913220Y-121747704D02*
X90646553Y-120947704D01*
X90646553Y-120947704D02*
X90379887Y-121747704D01*
X95680952Y-116929580D02*
X95633333Y-116977200D01*
X95633333Y-116977200D02*
X95490476Y-117024819D01*
X95490476Y-117024819D02*
X95395238Y-117024819D01*
X95395238Y-117024819D02*
X95252381Y-116977200D01*
X95252381Y-116977200D02*
X95157143Y-116881961D01*
X95157143Y-116881961D02*
X95109524Y-116786723D01*
X95109524Y-116786723D02*
X95061905Y-116596247D01*
X95061905Y-116596247D02*
X95061905Y-116453390D01*
X95061905Y-116453390D02*
X95109524Y-116262914D01*
X95109524Y-116262914D02*
X95157143Y-116167676D01*
X95157143Y-116167676D02*
X95252381Y-116072438D01*
X95252381Y-116072438D02*
X95395238Y-116024819D01*
X95395238Y-116024819D02*
X95490476Y-116024819D01*
X95490476Y-116024819D02*
X95633333Y-116072438D01*
X95633333Y-116072438D02*
X95680952Y-116120057D01*
X96633333Y-117024819D02*
X96061905Y-117024819D01*
X96347619Y-117024819D02*
X96347619Y-116024819D01*
X96347619Y-116024819D02*
X96252381Y-116167676D01*
X96252381Y-116167676D02*
X96157143Y-116262914D01*
X96157143Y-116262914D02*
X96061905Y-116310533D01*
X97014286Y-116120057D02*
X97061905Y-116072438D01*
X97061905Y-116072438D02*
X97157143Y-116024819D01*
X97157143Y-116024819D02*
X97395238Y-116024819D01*
X97395238Y-116024819D02*
X97490476Y-116072438D01*
X97490476Y-116072438D02*
X97538095Y-116120057D01*
X97538095Y-116120057D02*
X97585714Y-116215295D01*
X97585714Y-116215295D02*
X97585714Y-116310533D01*
X97585714Y-116310533D02*
X97538095Y-116453390D01*
X97538095Y-116453390D02*
X96966667Y-117024819D01*
X96966667Y-117024819D02*
X97585714Y-117024819D01*
X98157143Y-116453390D02*
X98061905Y-116405771D01*
X98061905Y-116405771D02*
X98014286Y-116358152D01*
X98014286Y-116358152D02*
X97966667Y-116262914D01*
X97966667Y-116262914D02*
X97966667Y-116215295D01*
X97966667Y-116215295D02*
X98014286Y-116120057D01*
X98014286Y-116120057D02*
X98061905Y-116072438D01*
X98061905Y-116072438D02*
X98157143Y-116024819D01*
X98157143Y-116024819D02*
X98347619Y-116024819D01*
X98347619Y-116024819D02*
X98442857Y-116072438D01*
X98442857Y-116072438D02*
X98490476Y-116120057D01*
X98490476Y-116120057D02*
X98538095Y-116215295D01*
X98538095Y-116215295D02*
X98538095Y-116262914D01*
X98538095Y-116262914D02*
X98490476Y-116358152D01*
X98490476Y-116358152D02*
X98442857Y-116405771D01*
X98442857Y-116405771D02*
X98347619Y-116453390D01*
X98347619Y-116453390D02*
X98157143Y-116453390D01*
X98157143Y-116453390D02*
X98061905Y-116501009D01*
X98061905Y-116501009D02*
X98014286Y-116548628D01*
X98014286Y-116548628D02*
X97966667Y-116643866D01*
X97966667Y-116643866D02*
X97966667Y-116834342D01*
X97966667Y-116834342D02*
X98014286Y-116929580D01*
X98014286Y-116929580D02*
X98061905Y-116977200D01*
X98061905Y-116977200D02*
X98157143Y-117024819D01*
X98157143Y-117024819D02*
X98347619Y-117024819D01*
X98347619Y-117024819D02*
X98442857Y-116977200D01*
X98442857Y-116977200D02*
X98490476Y-116929580D01*
X98490476Y-116929580D02*
X98538095Y-116834342D01*
X98538095Y-116834342D02*
X98538095Y-116643866D01*
X98538095Y-116643866D02*
X98490476Y-116548628D01*
X98490476Y-116548628D02*
X98442857Y-116501009D01*
X98442857Y-116501009D02*
X98347619Y-116453390D01*
X120480952Y-112184819D02*
X120147619Y-111708628D01*
X119909524Y-112184819D02*
X119909524Y-111184819D01*
X119909524Y-111184819D02*
X120290476Y-111184819D01*
X120290476Y-111184819D02*
X120385714Y-111232438D01*
X120385714Y-111232438D02*
X120433333Y-111280057D01*
X120433333Y-111280057D02*
X120480952Y-111375295D01*
X120480952Y-111375295D02*
X120480952Y-111518152D01*
X120480952Y-111518152D02*
X120433333Y-111613390D01*
X120433333Y-111613390D02*
X120385714Y-111661009D01*
X120385714Y-111661009D02*
X120290476Y-111708628D01*
X120290476Y-111708628D02*
X119909524Y-111708628D01*
X121433333Y-112184819D02*
X120861905Y-112184819D01*
X121147619Y-112184819D02*
X121147619Y-111184819D01*
X121147619Y-111184819D02*
X121052381Y-111327676D01*
X121052381Y-111327676D02*
X120957143Y-111422914D01*
X120957143Y-111422914D02*
X120861905Y-111470533D01*
X121814286Y-111280057D02*
X121861905Y-111232438D01*
X121861905Y-111232438D02*
X121957143Y-111184819D01*
X121957143Y-111184819D02*
X122195238Y-111184819D01*
X122195238Y-111184819D02*
X122290476Y-111232438D01*
X122290476Y-111232438D02*
X122338095Y-111280057D01*
X122338095Y-111280057D02*
X122385714Y-111375295D01*
X122385714Y-111375295D02*
X122385714Y-111470533D01*
X122385714Y-111470533D02*
X122338095Y-111613390D01*
X122338095Y-111613390D02*
X121766667Y-112184819D01*
X121766667Y-112184819D02*
X122385714Y-112184819D01*
X122719048Y-111184819D02*
X123338095Y-111184819D01*
X123338095Y-111184819D02*
X123004762Y-111565771D01*
X123004762Y-111565771D02*
X123147619Y-111565771D01*
X123147619Y-111565771D02*
X123242857Y-111613390D01*
X123242857Y-111613390D02*
X123290476Y-111661009D01*
X123290476Y-111661009D02*
X123338095Y-111756247D01*
X123338095Y-111756247D02*
X123338095Y-111994342D01*
X123338095Y-111994342D02*
X123290476Y-112089580D01*
X123290476Y-112089580D02*
X123242857Y-112137200D01*
X123242857Y-112137200D02*
X123147619Y-112184819D01*
X123147619Y-112184819D02*
X122861905Y-112184819D01*
X122861905Y-112184819D02*
X122766667Y-112137200D01*
X122766667Y-112137200D02*
X122719048Y-112089580D01*
X101651813Y-111434384D02*
X101651813Y-111501728D01*
X101651813Y-111501728D02*
X101584469Y-111636415D01*
X101584469Y-111636415D02*
X101517126Y-111703758D01*
X101517126Y-111703758D02*
X101382439Y-111771102D01*
X101382439Y-111771102D02*
X101247752Y-111771102D01*
X101247752Y-111771102D02*
X101146737Y-111737430D01*
X101146737Y-111737430D02*
X100978378Y-111636415D01*
X100978378Y-111636415D02*
X100877362Y-111535400D01*
X100877362Y-111535400D02*
X100776347Y-111367041D01*
X100776347Y-111367041D02*
X100742675Y-111266026D01*
X100742675Y-111266026D02*
X100742675Y-111131339D01*
X100742675Y-111131339D02*
X100810019Y-110996652D01*
X100810019Y-110996652D02*
X100877362Y-110929308D01*
X100877362Y-110929308D02*
X101012049Y-110861965D01*
X101012049Y-110861965D02*
X101079393Y-110861965D01*
X102392591Y-110828293D02*
X101988530Y-111232354D01*
X102190561Y-111030323D02*
X101483454Y-110323217D01*
X101483454Y-110323217D02*
X101517126Y-110491575D01*
X101517126Y-110491575D02*
X101517126Y-110626262D01*
X101517126Y-110626262D02*
X101483454Y-110727278D01*
X103066026Y-110154858D02*
X102661965Y-110558919D01*
X102863996Y-110356888D02*
X102156889Y-109649782D01*
X102156889Y-109649782D02*
X102190561Y-109818140D01*
X102190561Y-109818140D02*
X102190561Y-109952827D01*
X102190561Y-109952827D02*
X102156889Y-110053843D01*
X103402744Y-109818140D02*
X103537431Y-109683453D01*
X103537431Y-109683453D02*
X103571103Y-109582438D01*
X103571103Y-109582438D02*
X103571103Y-109515095D01*
X103571103Y-109515095D02*
X103537431Y-109346736D01*
X103537431Y-109346736D02*
X103436416Y-109178377D01*
X103436416Y-109178377D02*
X103167042Y-108909003D01*
X103167042Y-108909003D02*
X103066026Y-108875331D01*
X103066026Y-108875331D02*
X102998683Y-108875331D01*
X102998683Y-108875331D02*
X102897668Y-108909003D01*
X102897668Y-108909003D02*
X102762981Y-109043690D01*
X102762981Y-109043690D02*
X102729309Y-109144705D01*
X102729309Y-109144705D02*
X102729309Y-109212049D01*
X102729309Y-109212049D02*
X102762981Y-109313064D01*
X102762981Y-109313064D02*
X102931339Y-109481423D01*
X102931339Y-109481423D02*
X103032355Y-109515095D01*
X103032355Y-109515095D02*
X103099698Y-109515095D01*
X103099698Y-109515095D02*
X103200713Y-109481423D01*
X103200713Y-109481423D02*
X103335400Y-109346736D01*
X103335400Y-109346736D02*
X103369072Y-109245721D01*
X103369072Y-109245721D02*
X103369072Y-109178377D01*
X103369072Y-109178377D02*
X103335400Y-109077362D01*
X116280952Y-114524819D02*
X115947619Y-114048628D01*
X115709524Y-114524819D02*
X115709524Y-113524819D01*
X115709524Y-113524819D02*
X116090476Y-113524819D01*
X116090476Y-113524819D02*
X116185714Y-113572438D01*
X116185714Y-113572438D02*
X116233333Y-113620057D01*
X116233333Y-113620057D02*
X116280952Y-113715295D01*
X116280952Y-113715295D02*
X116280952Y-113858152D01*
X116280952Y-113858152D02*
X116233333Y-113953390D01*
X116233333Y-113953390D02*
X116185714Y-114001009D01*
X116185714Y-114001009D02*
X116090476Y-114048628D01*
X116090476Y-114048628D02*
X115709524Y-114048628D01*
X117233333Y-114524819D02*
X116661905Y-114524819D01*
X116947619Y-114524819D02*
X116947619Y-113524819D01*
X116947619Y-113524819D02*
X116852381Y-113667676D01*
X116852381Y-113667676D02*
X116757143Y-113762914D01*
X116757143Y-113762914D02*
X116661905Y-113810533D01*
X117614286Y-113620057D02*
X117661905Y-113572438D01*
X117661905Y-113572438D02*
X117757143Y-113524819D01*
X117757143Y-113524819D02*
X117995238Y-113524819D01*
X117995238Y-113524819D02*
X118090476Y-113572438D01*
X118090476Y-113572438D02*
X118138095Y-113620057D01*
X118138095Y-113620057D02*
X118185714Y-113715295D01*
X118185714Y-113715295D02*
X118185714Y-113810533D01*
X118185714Y-113810533D02*
X118138095Y-113953390D01*
X118138095Y-113953390D02*
X117566667Y-114524819D01*
X117566667Y-114524819D02*
X118185714Y-114524819D01*
X119042857Y-113858152D02*
X119042857Y-114524819D01*
X118804762Y-113477200D02*
X118566667Y-114191485D01*
X118566667Y-114191485D02*
X119185714Y-114191485D01*
X103899083Y-113900032D02*
X103326664Y-113799017D01*
X103495022Y-114304093D02*
X102787915Y-113596986D01*
X102787915Y-113596986D02*
X103057289Y-113327612D01*
X103057289Y-113327612D02*
X103158305Y-113293940D01*
X103158305Y-113293940D02*
X103225648Y-113293940D01*
X103225648Y-113293940D02*
X103326664Y-113327612D01*
X103326664Y-113327612D02*
X103427679Y-113428627D01*
X103427679Y-113428627D02*
X103461351Y-113529643D01*
X103461351Y-113529643D02*
X103461351Y-113596986D01*
X103461351Y-113596986D02*
X103427679Y-113698001D01*
X103427679Y-113698001D02*
X103158305Y-113967375D01*
X104572518Y-113226597D02*
X104168457Y-113630658D01*
X104370488Y-113428627D02*
X103663381Y-112721521D01*
X103663381Y-112721521D02*
X103697053Y-112889879D01*
X103697053Y-112889879D02*
X103697053Y-113024566D01*
X103697053Y-113024566D02*
X103663381Y-113125582D01*
X105245953Y-112553162D02*
X104841892Y-112957223D01*
X105043923Y-112755192D02*
X104336816Y-112048086D01*
X104336816Y-112048086D02*
X104370488Y-112216444D01*
X104370488Y-112216444D02*
X104370488Y-112351131D01*
X104370488Y-112351131D02*
X104336816Y-112452147D01*
X105582671Y-112216444D02*
X105717358Y-112081757D01*
X105717358Y-112081757D02*
X105751030Y-111980742D01*
X105751030Y-111980742D02*
X105751030Y-111913399D01*
X105751030Y-111913399D02*
X105717358Y-111745040D01*
X105717358Y-111745040D02*
X105616343Y-111576681D01*
X105616343Y-111576681D02*
X105346969Y-111307307D01*
X105346969Y-111307307D02*
X105245953Y-111273635D01*
X105245953Y-111273635D02*
X105178610Y-111273635D01*
X105178610Y-111273635D02*
X105077595Y-111307307D01*
X105077595Y-111307307D02*
X104942908Y-111441994D01*
X104942908Y-111441994D02*
X104909236Y-111543009D01*
X104909236Y-111543009D02*
X104909236Y-111610353D01*
X104909236Y-111610353D02*
X104942908Y-111711368D01*
X104942908Y-111711368D02*
X105111266Y-111879727D01*
X105111266Y-111879727D02*
X105212282Y-111913399D01*
X105212282Y-111913399D02*
X105279625Y-111913399D01*
X105279625Y-111913399D02*
X105380640Y-111879727D01*
X105380640Y-111879727D02*
X105515327Y-111745040D01*
X105515327Y-111745040D02*
X105548999Y-111644025D01*
X105548999Y-111644025D02*
X105548999Y-111576681D01*
X105548999Y-111576681D02*
X105515327Y-111475666D01*
X107239160Y-117894295D02*
X107239160Y-117094295D01*
X107239160Y-117094295D02*
X107543922Y-117094295D01*
X107543922Y-117094295D02*
X107620112Y-117132390D01*
X107620112Y-117132390D02*
X107658207Y-117170485D01*
X107658207Y-117170485D02*
X107696303Y-117246676D01*
X107696303Y-117246676D02*
X107696303Y-117360961D01*
X107696303Y-117360961D02*
X107658207Y-117437152D01*
X107658207Y-117437152D02*
X107620112Y-117475247D01*
X107620112Y-117475247D02*
X107543922Y-117513342D01*
X107543922Y-117513342D02*
X107239160Y-117513342D01*
X108039160Y-117094295D02*
X108039160Y-117741914D01*
X108039160Y-117741914D02*
X108077255Y-117818104D01*
X108077255Y-117818104D02*
X108115350Y-117856200D01*
X108115350Y-117856200D02*
X108191541Y-117894295D01*
X108191541Y-117894295D02*
X108343922Y-117894295D01*
X108343922Y-117894295D02*
X108420112Y-117856200D01*
X108420112Y-117856200D02*
X108458207Y-117818104D01*
X108458207Y-117818104D02*
X108496303Y-117741914D01*
X108496303Y-117741914D02*
X108496303Y-117094295D01*
X105242586Y-115243535D02*
X104670167Y-115142520D01*
X104838525Y-115647596D02*
X104131418Y-114940489D01*
X104131418Y-114940489D02*
X104400792Y-114671115D01*
X104400792Y-114671115D02*
X104501808Y-114637443D01*
X104501808Y-114637443D02*
X104569151Y-114637443D01*
X104569151Y-114637443D02*
X104670167Y-114671115D01*
X104670167Y-114671115D02*
X104771182Y-114772130D01*
X104771182Y-114772130D02*
X104804854Y-114873146D01*
X104804854Y-114873146D02*
X104804854Y-114940489D01*
X104804854Y-114940489D02*
X104771182Y-115041504D01*
X104771182Y-115041504D02*
X104501808Y-115310878D01*
X105916021Y-114570100D02*
X105511960Y-114974161D01*
X105713991Y-114772130D02*
X105006884Y-114065024D01*
X105006884Y-114065024D02*
X105040556Y-114233382D01*
X105040556Y-114233382D02*
X105040556Y-114368069D01*
X105040556Y-114368069D02*
X105006884Y-114469085D01*
X106589456Y-113896665D02*
X106185395Y-114300726D01*
X106387426Y-114098695D02*
X105680319Y-113391589D01*
X105680319Y-113391589D02*
X105713991Y-113559947D01*
X105713991Y-113559947D02*
X105713991Y-113694634D01*
X105713991Y-113694634D02*
X105680319Y-113795650D01*
X106118052Y-112953856D02*
X106589456Y-112482451D01*
X106589456Y-112482451D02*
X106993517Y-113492604D01*
D12*
X122798830Y-123033333D02*
X122760735Y-123109523D01*
X122760735Y-123109523D02*
X122760735Y-123223809D01*
X122760735Y-123223809D02*
X122798830Y-123338095D01*
X122798830Y-123338095D02*
X122875020Y-123414285D01*
X122875020Y-123414285D02*
X122951211Y-123452380D01*
X122951211Y-123452380D02*
X123103592Y-123490476D01*
X123103592Y-123490476D02*
X123217878Y-123490476D01*
X123217878Y-123490476D02*
X123370259Y-123452380D01*
X123370259Y-123452380D02*
X123446449Y-123414285D01*
X123446449Y-123414285D02*
X123522640Y-123338095D01*
X123522640Y-123338095D02*
X123560735Y-123223809D01*
X123560735Y-123223809D02*
X123560735Y-123147618D01*
X123560735Y-123147618D02*
X123522640Y-123033333D01*
X123522640Y-123033333D02*
X123484544Y-122995237D01*
X123484544Y-122995237D02*
X123217878Y-122995237D01*
X123217878Y-122995237D02*
X123217878Y-123147618D01*
X123560735Y-122233333D02*
X123560735Y-122690476D01*
X123560735Y-122461904D02*
X122760735Y-122461904D01*
X122760735Y-122461904D02*
X122875020Y-122538095D01*
X122875020Y-122538095D02*
X122951211Y-122614285D01*
X122951211Y-122614285D02*
X122989306Y-122690476D01*
X123560735Y-121471428D02*
X123560735Y-121928571D01*
X123560735Y-121699999D02*
X122760735Y-121699999D01*
X122760735Y-121699999D02*
X122875020Y-121776190D01*
X122875020Y-121776190D02*
X122951211Y-121852380D01*
X122951211Y-121852380D02*
X122989306Y-121928571D01*
X123103592Y-121014285D02*
X123065497Y-121090475D01*
X123065497Y-121090475D02*
X123027401Y-121128570D01*
X123027401Y-121128570D02*
X122951211Y-121166666D01*
X122951211Y-121166666D02*
X122913116Y-121166666D01*
X122913116Y-121166666D02*
X122836925Y-121128570D01*
X122836925Y-121128570D02*
X122798830Y-121090475D01*
X122798830Y-121090475D02*
X122760735Y-121014285D01*
X122760735Y-121014285D02*
X122760735Y-120861904D01*
X122760735Y-120861904D02*
X122798830Y-120785713D01*
X122798830Y-120785713D02*
X122836925Y-120747618D01*
X122836925Y-120747618D02*
X122913116Y-120709523D01*
X122913116Y-120709523D02*
X122951211Y-120709523D01*
X122951211Y-120709523D02*
X123027401Y-120747618D01*
X123027401Y-120747618D02*
X123065497Y-120785713D01*
X123065497Y-120785713D02*
X123103592Y-120861904D01*
X123103592Y-120861904D02*
X123103592Y-121014285D01*
X123103592Y-121014285D02*
X123141687Y-121090475D01*
X123141687Y-121090475D02*
X123179782Y-121128570D01*
X123179782Y-121128570D02*
X123255973Y-121166666D01*
X123255973Y-121166666D02*
X123408354Y-121166666D01*
X123408354Y-121166666D02*
X123484544Y-121128570D01*
X123484544Y-121128570D02*
X123522640Y-121090475D01*
X123522640Y-121090475D02*
X123560735Y-121014285D01*
X123560735Y-121014285D02*
X123560735Y-120861904D01*
X123560735Y-120861904D02*
X123522640Y-120785713D01*
X123522640Y-120785713D02*
X123484544Y-120747618D01*
X123484544Y-120747618D02*
X123408354Y-120709523D01*
X123408354Y-120709523D02*
X123255973Y-120709523D01*
X123255973Y-120709523D02*
X123179782Y-120747618D01*
X123179782Y-120747618D02*
X123141687Y-120785713D01*
X123141687Y-120785713D02*
X123103592Y-120861904D01*
D11*
X121800390Y-121091792D02*
X121762295Y-121167982D01*
X121762295Y-121167982D02*
X121762295Y-121282268D01*
X121762295Y-121282268D02*
X121800390Y-121396554D01*
X121800390Y-121396554D02*
X121876580Y-121472744D01*
X121876580Y-121472744D02*
X121952771Y-121510839D01*
X121952771Y-121510839D02*
X122105152Y-121548935D01*
X122105152Y-121548935D02*
X122219438Y-121548935D01*
X122219438Y-121548935D02*
X122371819Y-121510839D01*
X122371819Y-121510839D02*
X122448009Y-121472744D01*
X122448009Y-121472744D02*
X122524200Y-121396554D01*
X122524200Y-121396554D02*
X122562295Y-121282268D01*
X122562295Y-121282268D02*
X122562295Y-121206077D01*
X122562295Y-121206077D02*
X122524200Y-121091792D01*
X122524200Y-121091792D02*
X122486104Y-121053696D01*
X122486104Y-121053696D02*
X122219438Y-121053696D01*
X122219438Y-121053696D02*
X122219438Y-121206077D01*
X118480952Y-114524819D02*
X118147619Y-114048628D01*
X117909524Y-114524819D02*
X117909524Y-113524819D01*
X117909524Y-113524819D02*
X118290476Y-113524819D01*
X118290476Y-113524819D02*
X118385714Y-113572438D01*
X118385714Y-113572438D02*
X118433333Y-113620057D01*
X118433333Y-113620057D02*
X118480952Y-113715295D01*
X118480952Y-113715295D02*
X118480952Y-113858152D01*
X118480952Y-113858152D02*
X118433333Y-113953390D01*
X118433333Y-113953390D02*
X118385714Y-114001009D01*
X118385714Y-114001009D02*
X118290476Y-114048628D01*
X118290476Y-114048628D02*
X117909524Y-114048628D01*
X119433333Y-114524819D02*
X118861905Y-114524819D01*
X119147619Y-114524819D02*
X119147619Y-113524819D01*
X119147619Y-113524819D02*
X119052381Y-113667676D01*
X119052381Y-113667676D02*
X118957143Y-113762914D01*
X118957143Y-113762914D02*
X118861905Y-113810533D01*
X119814286Y-113620057D02*
X119861905Y-113572438D01*
X119861905Y-113572438D02*
X119957143Y-113524819D01*
X119957143Y-113524819D02*
X120195238Y-113524819D01*
X120195238Y-113524819D02*
X120290476Y-113572438D01*
X120290476Y-113572438D02*
X120338095Y-113620057D01*
X120338095Y-113620057D02*
X120385714Y-113715295D01*
X120385714Y-113715295D02*
X120385714Y-113810533D01*
X120385714Y-113810533D02*
X120338095Y-113953390D01*
X120338095Y-113953390D02*
X119766667Y-114524819D01*
X119766667Y-114524819D02*
X120385714Y-114524819D01*
X120766667Y-113620057D02*
X120814286Y-113572438D01*
X120814286Y-113572438D02*
X120909524Y-113524819D01*
X120909524Y-113524819D02*
X121147619Y-113524819D01*
X121147619Y-113524819D02*
X121242857Y-113572438D01*
X121242857Y-113572438D02*
X121290476Y-113620057D01*
X121290476Y-113620057D02*
X121338095Y-113715295D01*
X121338095Y-113715295D02*
X121338095Y-113810533D01*
X121338095Y-113810533D02*
X121290476Y-113953390D01*
X121290476Y-113953390D02*
X120719048Y-114524819D01*
X120719048Y-114524819D02*
X121338095Y-114524819D01*
X93980952Y-111884819D02*
X93647619Y-111408628D01*
X93409524Y-111884819D02*
X93409524Y-110884819D01*
X93409524Y-110884819D02*
X93790476Y-110884819D01*
X93790476Y-110884819D02*
X93885714Y-110932438D01*
X93885714Y-110932438D02*
X93933333Y-110980057D01*
X93933333Y-110980057D02*
X93980952Y-111075295D01*
X93980952Y-111075295D02*
X93980952Y-111218152D01*
X93980952Y-111218152D02*
X93933333Y-111313390D01*
X93933333Y-111313390D02*
X93885714Y-111361009D01*
X93885714Y-111361009D02*
X93790476Y-111408628D01*
X93790476Y-111408628D02*
X93409524Y-111408628D01*
X94933333Y-111884819D02*
X94361905Y-111884819D01*
X94647619Y-111884819D02*
X94647619Y-110884819D01*
X94647619Y-110884819D02*
X94552381Y-111027676D01*
X94552381Y-111027676D02*
X94457143Y-111122914D01*
X94457143Y-111122914D02*
X94361905Y-111170533D01*
X95314286Y-110980057D02*
X95361905Y-110932438D01*
X95361905Y-110932438D02*
X95457143Y-110884819D01*
X95457143Y-110884819D02*
X95695238Y-110884819D01*
X95695238Y-110884819D02*
X95790476Y-110932438D01*
X95790476Y-110932438D02*
X95838095Y-110980057D01*
X95838095Y-110980057D02*
X95885714Y-111075295D01*
X95885714Y-111075295D02*
X95885714Y-111170533D01*
X95885714Y-111170533D02*
X95838095Y-111313390D01*
X95838095Y-111313390D02*
X95266667Y-111884819D01*
X95266667Y-111884819D02*
X95885714Y-111884819D01*
X96790476Y-110884819D02*
X96314286Y-110884819D01*
X96314286Y-110884819D02*
X96266667Y-111361009D01*
X96266667Y-111361009D02*
X96314286Y-111313390D01*
X96314286Y-111313390D02*
X96409524Y-111265771D01*
X96409524Y-111265771D02*
X96647619Y-111265771D01*
X96647619Y-111265771D02*
X96742857Y-111313390D01*
X96742857Y-111313390D02*
X96790476Y-111361009D01*
X96790476Y-111361009D02*
X96838095Y-111456247D01*
X96838095Y-111456247D02*
X96838095Y-111694342D01*
X96838095Y-111694342D02*
X96790476Y-111789580D01*
X96790476Y-111789580D02*
X96742857Y-111837200D01*
X96742857Y-111837200D02*
X96647619Y-111884819D01*
X96647619Y-111884819D02*
X96409524Y-111884819D01*
X96409524Y-111884819D02*
X96314286Y-111837200D01*
X96314286Y-111837200D02*
X96266667Y-111789580D01*
D12*
X100098830Y-122433333D02*
X100060735Y-122509523D01*
X100060735Y-122509523D02*
X100060735Y-122623809D01*
X100060735Y-122623809D02*
X100098830Y-122738095D01*
X100098830Y-122738095D02*
X100175020Y-122814285D01*
X100175020Y-122814285D02*
X100251211Y-122852380D01*
X100251211Y-122852380D02*
X100403592Y-122890476D01*
X100403592Y-122890476D02*
X100517878Y-122890476D01*
X100517878Y-122890476D02*
X100670259Y-122852380D01*
X100670259Y-122852380D02*
X100746449Y-122814285D01*
X100746449Y-122814285D02*
X100822640Y-122738095D01*
X100822640Y-122738095D02*
X100860735Y-122623809D01*
X100860735Y-122623809D02*
X100860735Y-122547618D01*
X100860735Y-122547618D02*
X100822640Y-122433333D01*
X100822640Y-122433333D02*
X100784544Y-122395237D01*
X100784544Y-122395237D02*
X100517878Y-122395237D01*
X100517878Y-122395237D02*
X100517878Y-122547618D01*
X100860735Y-121633333D02*
X100860735Y-122090476D01*
X100860735Y-121861904D02*
X100060735Y-121861904D01*
X100060735Y-121861904D02*
X100175020Y-121938095D01*
X100175020Y-121938095D02*
X100251211Y-122014285D01*
X100251211Y-122014285D02*
X100289306Y-122090476D01*
X100860735Y-120871428D02*
X100860735Y-121328571D01*
X100860735Y-121099999D02*
X100060735Y-121099999D01*
X100060735Y-121099999D02*
X100175020Y-121176190D01*
X100175020Y-121176190D02*
X100251211Y-121252380D01*
X100251211Y-121252380D02*
X100289306Y-121328571D01*
X100060735Y-120604761D02*
X100060735Y-120071427D01*
X100060735Y-120071427D02*
X100860735Y-120414285D01*
D11*
X99100390Y-120491792D02*
X99062295Y-120567982D01*
X99062295Y-120567982D02*
X99062295Y-120682268D01*
X99062295Y-120682268D02*
X99100390Y-120796554D01*
X99100390Y-120796554D02*
X99176580Y-120872744D01*
X99176580Y-120872744D02*
X99252771Y-120910839D01*
X99252771Y-120910839D02*
X99405152Y-120948935D01*
X99405152Y-120948935D02*
X99519438Y-120948935D01*
X99519438Y-120948935D02*
X99671819Y-120910839D01*
X99671819Y-120910839D02*
X99748009Y-120872744D01*
X99748009Y-120872744D02*
X99824200Y-120796554D01*
X99824200Y-120796554D02*
X99862295Y-120682268D01*
X99862295Y-120682268D02*
X99862295Y-120606077D01*
X99862295Y-120606077D02*
X99824200Y-120491792D01*
X99824200Y-120491792D02*
X99786104Y-120453696D01*
X99786104Y-120453696D02*
X99519438Y-120453696D01*
X99519438Y-120453696D02*
X99519438Y-120606077D01*
X109259793Y-116957634D02*
X109360808Y-116385215D01*
X108855732Y-116553573D02*
X109562839Y-115846466D01*
X109562839Y-115846466D02*
X109832213Y-116115840D01*
X109832213Y-116115840D02*
X109865885Y-116216856D01*
X109865885Y-116216856D02*
X109865885Y-116284199D01*
X109865885Y-116284199D02*
X109832213Y-116385215D01*
X109832213Y-116385215D02*
X109731198Y-116486230D01*
X109731198Y-116486230D02*
X109630182Y-116519902D01*
X109630182Y-116519902D02*
X109562839Y-116519902D01*
X109562839Y-116519902D02*
X109461824Y-116486230D01*
X109461824Y-116486230D02*
X109192450Y-116216856D01*
X109933228Y-117631069D02*
X109529167Y-117227008D01*
X109731198Y-117429039D02*
X110438304Y-116721932D01*
X110438304Y-116721932D02*
X110269946Y-116755604D01*
X110269946Y-116755604D02*
X110135259Y-116755604D01*
X110135259Y-116755604D02*
X110034243Y-116721932D01*
X110842365Y-117260680D02*
X110909709Y-117260680D01*
X110909709Y-117260680D02*
X111010724Y-117294352D01*
X111010724Y-117294352D02*
X111179083Y-117462711D01*
X111179083Y-117462711D02*
X111212755Y-117563726D01*
X111212755Y-117563726D02*
X111212755Y-117631069D01*
X111212755Y-117631069D02*
X111179083Y-117732085D01*
X111179083Y-117732085D02*
X111111739Y-117799428D01*
X111111739Y-117799428D02*
X110977052Y-117866772D01*
X110977052Y-117866772D02*
X110168930Y-117866772D01*
X110168930Y-117866772D02*
X110606663Y-118304504D01*
X111751503Y-118035130D02*
X111818846Y-118102474D01*
X111818846Y-118102474D02*
X111852518Y-118203489D01*
X111852518Y-118203489D02*
X111852518Y-118270833D01*
X111852518Y-118270833D02*
X111818846Y-118371848D01*
X111818846Y-118371848D02*
X111717831Y-118540207D01*
X111717831Y-118540207D02*
X111549472Y-118708565D01*
X111549472Y-118708565D02*
X111381113Y-118809581D01*
X111381113Y-118809581D02*
X111280098Y-118843252D01*
X111280098Y-118843252D02*
X111212755Y-118843252D01*
X111212755Y-118843252D02*
X111111739Y-118809581D01*
X111111739Y-118809581D02*
X111044396Y-118742237D01*
X111044396Y-118742237D02*
X111010724Y-118641222D01*
X111010724Y-118641222D02*
X111010724Y-118573878D01*
X111010724Y-118573878D02*
X111044396Y-118472863D01*
X111044396Y-118472863D02*
X111145411Y-118304504D01*
X111145411Y-118304504D02*
X111313770Y-118136146D01*
X111313770Y-118136146D02*
X111482129Y-118035130D01*
X111482129Y-118035130D02*
X111583144Y-118001459D01*
X111583144Y-118001459D02*
X111650487Y-118001459D01*
X111650487Y-118001459D02*
X111751503Y-118035130D01*
D15*
%TO.C,R113*%
X113987227Y-114249825D02*
X113750175Y-114012773D01*
X113449825Y-114787227D02*
X113212773Y-114550175D01*
%TO.C,R121*%
X110022659Y-117560060D02*
X110239940Y-117777341D01*
X110560060Y-117022659D02*
X110777341Y-117239940D01*
%TO.C,board_outline108*%
X85467500Y-123930000D02*
X85467500Y-98410000D01*
X88067500Y-121330000D02*
X88067500Y-123930000D01*
X88067500Y-123930000D02*
X85467500Y-123930000D01*
X90667500Y-98410000D02*
X85467500Y-98410000D01*
X90667500Y-121330000D02*
X88067500Y-121330000D01*
X90667500Y-121330000D02*
X90667500Y-98410000D01*
X90667500Y-122600000D02*
X90667500Y-123930000D01*
X90667500Y-123930000D02*
X89337500Y-123930000D01*
X92677500Y-109245000D02*
X93987500Y-109245000D01*
X93532500Y-122705000D02*
X94532500Y-123205000D01*
X93987500Y-113345000D02*
X92677500Y-113345000D01*
X94532500Y-122205000D02*
X93532500Y-122705000D01*
X100717500Y-98415000D02*
X121157500Y-98415000D01*
X100717500Y-103615000D02*
X100717500Y-98415000D01*
X100717500Y-103615000D02*
X100717500Y-107105000D01*
X100717500Y-123935000D02*
X100717500Y-122605000D01*
X102047500Y-123935000D02*
X100717500Y-123935000D01*
X103317500Y-121275000D02*
X121157500Y-121275000D01*
X103317500Y-123935000D02*
X103317500Y-121275000D01*
X103317500Y-123935000D02*
X121157500Y-123935000D01*
X110937500Y-98415000D02*
X110937500Y-107105000D01*
X121157500Y-101075000D02*
X121157500Y-98415000D01*
X121157500Y-107105000D02*
X121157500Y-100955000D01*
X121157500Y-123935000D02*
X121157500Y-121275000D01*
G36*
X101032500Y-105605000D02*
G01*
X104632500Y-105605000D01*
X104632500Y-107105000D01*
X101032500Y-107105000D01*
X101032500Y-105605000D01*
G37*
G36*
X101032500Y-105605000D02*
G01*
X110632500Y-105605000D01*
X110632500Y-105705000D01*
X101032500Y-105705000D01*
X101032500Y-105605000D01*
G37*
G36*
X101032500Y-107005000D02*
G01*
X110632500Y-107005000D01*
X110632500Y-107105000D01*
X101032500Y-107105000D01*
X101032500Y-107005000D01*
G37*
G36*
X107532500Y-105605000D02*
G01*
X110632500Y-105605000D01*
X110632500Y-107105000D01*
X107532500Y-107105000D01*
X107532500Y-105605000D01*
G37*
G36*
X111232500Y-105605000D02*
G01*
X120832500Y-105605000D01*
X120832500Y-105705000D01*
X111232500Y-105705000D01*
X111232500Y-105605000D01*
G37*
G36*
X111232500Y-107005000D02*
G01*
X120832500Y-107005000D01*
X120832500Y-107105000D01*
X111232500Y-107105000D01*
X111232500Y-107005000D01*
G37*
G36*
X111242500Y-105605000D02*
G01*
X114932500Y-105605000D01*
X114932500Y-107105000D01*
X111242500Y-107105000D01*
X111242500Y-105605000D01*
G37*
G36*
X116332500Y-105605000D02*
G01*
X120862500Y-105605000D01*
X120862500Y-107105000D01*
X116332500Y-107105000D01*
X116332500Y-105605000D01*
G37*
%TO.C,ADD108*%
X116400000Y-112200000D02*
X116400000Y-109700000D01*
X117600000Y-112200000D02*
X116400000Y-112200000D01*
X116400000Y-109700000D02*
X117600000Y-109700000D01*
X117600000Y-109700000D02*
X117600000Y-112200000D01*
%TO.C,R112*%
X114787227Y-113449825D02*
X114550175Y-113212773D01*
X114249825Y-113987227D02*
X114012773Y-113750175D01*
%TO.C,C111*%
X105261252Y-117465000D02*
X104738748Y-117465000D01*
X105261252Y-118935000D02*
X104738748Y-118935000D01*
%TO.C,R114*%
X113187227Y-115049825D02*
X112950175Y-114812773D01*
X112649825Y-115587227D02*
X112412773Y-115350175D01*
%TO.C,R115*%
X106018005Y-114673435D02*
X106255057Y-114436383D01*
X105480603Y-114136033D02*
X105717655Y-113898981D01*
%TO.C,ADD112*%
X118000000Y-112200000D02*
X118000000Y-109700000D01*
X119200000Y-112200000D02*
X118000000Y-112200000D01*
X118000000Y-109700000D02*
X119200000Y-109700000D01*
X119200000Y-109700000D02*
X119200000Y-112200000D01*
%TO.C,C109*%
X105021693Y-109130810D02*
X104869190Y-108978307D01*
X105530810Y-108621693D02*
X105378307Y-108469190D01*
%TO.C,ADD110*%
X119600000Y-112200000D02*
X119600000Y-109700000D01*
X120800000Y-112200000D02*
X119600000Y-112200000D01*
X119600000Y-109700000D02*
X120800000Y-109700000D01*
X120800000Y-109700000D02*
X120800000Y-112200000D01*
%TO.C,C115*%
X102104457Y-113365010D02*
X101734990Y-112995543D01*
X101065010Y-114404457D02*
X100695543Y-114034990D01*
%TO.C,U108*%
X96000000Y-113540000D02*
X95200000Y-113540000D01*
X96000000Y-113540000D02*
X96800000Y-113540000D01*
X96000000Y-116660000D02*
X95200000Y-116660000D01*
X96000000Y-116660000D02*
X97800000Y-116660000D01*
%TO.C,R118*%
X107361508Y-116016938D02*
X107598560Y-115779886D01*
X106824106Y-115479536D02*
X107061158Y-115242484D01*
%TO.C,R126*%
X121820000Y-116746359D02*
X121820000Y-117053641D01*
X122580000Y-116746359D02*
X122580000Y-117053641D01*
%TO.C,C118*%
X125710000Y-103946267D02*
X125710000Y-103653733D01*
X124690000Y-103946267D02*
X124690000Y-103653733D01*
%TO.C,C116*%
X104730810Y-112778307D02*
X104578307Y-112930810D01*
X104221693Y-112269190D02*
X104069190Y-112421693D01*
%TO.C,C108*%
X101665010Y-109195543D02*
X101295543Y-109565010D01*
X102704457Y-110234990D02*
X102334990Y-110604457D01*
%TO.C,D116*%
X121160000Y-115415000D02*
X119240000Y-115415000D01*
X119240000Y-115415000D02*
X119240000Y-118100000D01*
X121160000Y-118100000D02*
X121160000Y-115415000D01*
%TO.C,TAC5212*%
X109769033Y-114369505D02*
X109433157Y-114033629D01*
X107120918Y-111049638D02*
X106785042Y-111385514D01*
X110104909Y-114033629D02*
X109769033Y-114369505D01*
X109433157Y-108737399D02*
X109769033Y-108401523D01*
X112417148Y-111721390D02*
X112753024Y-111385514D01*
X109769033Y-108401523D02*
X110104909Y-108737399D01*
X112753024Y-111385514D02*
X112417148Y-111049638D01*
%TO.C,C112*%
X108530810Y-116778307D02*
X108378307Y-116930810D01*
X108021693Y-116269190D02*
X107869190Y-116421693D01*
%TO.C,ADD111*%
X121200000Y-112200000D02*
X121200000Y-109700000D01*
X122400000Y-112200000D02*
X121200000Y-112200000D01*
X121200000Y-109700000D02*
X122400000Y-109700000D01*
X122400000Y-109700000D02*
X122400000Y-112200000D01*
%TO.C,R110*%
X115587227Y-112649825D02*
X115350175Y-112412773D01*
X115049825Y-113187227D02*
X114812773Y-112950175D01*
%TO.C,5V108*%
D14*
X93960000Y-121810000D02*
X91850000Y-121810000D01*
X91850000Y-120810000D01*
X93960000Y-120810000D01*
X93960000Y-121810000D01*
D15*
%TO.C,C128*%
X96653733Y-118510000D02*
X96946267Y-118510000D01*
X96653733Y-117490000D02*
X96946267Y-117490000D01*
%TO.C,R123*%
X121446359Y-113280000D02*
X121753641Y-113280000D01*
X121446359Y-112520000D02*
X121753641Y-112520000D01*
%TO.C,C119*%
X103457198Y-111864051D02*
X103664051Y-111657198D01*
X102735949Y-111142802D02*
X102942802Y-110935949D01*
%TO.C,R124*%
X117553641Y-112520000D02*
X117246359Y-112520000D01*
X117553641Y-113280000D02*
X117246359Y-113280000D01*
%TO.C,R119*%
X105346254Y-114001683D02*
X105583306Y-113764631D01*
X104808852Y-113464281D02*
X105045904Y-113227229D01*
%TO.C,PU_EN108*%
X106950000Y-118000000D02*
X109450000Y-118000000D01*
X106950000Y-119200000D02*
X106950000Y-118000000D01*
X109450000Y-118000000D02*
X109450000Y-119200000D01*
X109450000Y-119200000D02*
X106950000Y-119200000D01*
%TO.C,R117*%
X106689757Y-115345186D02*
X106926809Y-115108134D01*
X106152355Y-114807784D02*
X106389407Y-114570732D01*
%TO.C,R122*%
X119753641Y-112520000D02*
X119446359Y-112520000D01*
X119753641Y-113280000D02*
X119446359Y-113280000D01*
%TO.C,R125*%
X94932379Y-112980000D02*
X95267621Y-112980000D01*
X94932379Y-112220000D02*
X95267621Y-112220000D01*
%TO.C,R120*%
X111577341Y-116439940D02*
X111360060Y-116222659D01*
X111039940Y-116977341D02*
X110822659Y-116760060D01*
%TD*%
M02*
