%TF.GenerationSoftware,KiCad,Pcbnew,9.0.4*%
%TF.CreationDate,2025-08-20T17:26:20-04:00*%
%TF.ProjectId,tac5212_audio_board_single_ended,74616335-3231-4325-9f61-7564696f5f62,rev?*%
%TF.SameCoordinates,Original*%
%TF.FileFunction,Copper,L4,Bot*%
%TF.FilePolarity,Positive*%
%FSLAX46Y46*%
G04 Gerber Fmt 4.6, Leading zero omitted, Abs format (unit mm)*
G04 Created by KiCad (PCBNEW 9.0.4) date 2025-08-20 17:26:20*
%MOMM*%
%LPD*%
G01*
G04 APERTURE LIST*
G04 Aperture macros list*
%AMRoundRect*
0 Rectangle with rounded corners*
0 $1 Rounding radius*
0 $2 $3 $4 $5 $6 $7 $8 $9 X,Y pos of 4 corners*
0 Add a 4 corners polygon primitive as box body*
4,1,4,$2,$3,$4,$5,$6,$7,$8,$9,$2,$3,0*
0 Add four circle primitives for the rounded corners*
1,1,$1+$1,$2,$3*
1,1,$1+$1,$4,$5*
1,1,$1+$1,$6,$7*
1,1,$1+$1,$8,$9*
0 Add four rect primitives between the rounded corners*
20,1,$1+$1,$2,$3,$4,$5,0*
20,1,$1+$1,$4,$5,$6,$7,0*
20,1,$1+$1,$6,$7,$8,$9,0*
20,1,$1+$1,$8,$9,$2,$3,0*%
%AMRotRect*
0 Rectangle, with rotation*
0 The origin of the aperture is its center*
0 $1 length*
0 $2 width*
0 $3 Rotation angle, in degrees counterclockwise*
0 Add horizontal line*
21,1,$1,$2,0,0,$3*%
G04 Aperture macros list end*
%TA.AperFunction,EtchedComponent*%
%ADD10C,0.000000*%
%TD*%
%TA.AperFunction,ComponentPad*%
%ADD11R,1.700000X1.700000*%
%TD*%
%TA.AperFunction,ComponentPad*%
%ADD12O,1.700000X1.700000*%
%TD*%
%TA.AperFunction,ComponentPad*%
%ADD13C,3.200000*%
%TD*%
%TA.AperFunction,ComponentPad*%
%ADD14C,0.500000*%
%TD*%
%TA.AperFunction,SMDPad,CuDef*%
%ADD15RotRect,2.450000X2.450000X45.000000*%
%TD*%
%TA.AperFunction,SMDPad,CuDef*%
%ADD16RoundRect,0.250000X-0.475000X0.337500X-0.475000X-0.337500X0.475000X-0.337500X0.475000X0.337500X0*%
%TD*%
%TA.AperFunction,SMDPad,CuDef*%
%ADD17RoundRect,0.237500X0.237500X-0.300000X0.237500X0.300000X-0.237500X0.300000X-0.237500X-0.300000X0*%
%TD*%
%TA.AperFunction,SMDPad,CuDef*%
%ADD18R,0.500000X0.500000*%
%TD*%
%TA.AperFunction,SMDPad,CuDef*%
%ADD19R,0.500000X0.550000*%
%TD*%
%TA.AperFunction,ComponentPad*%
%ADD20R,0.500000X0.500000*%
%TD*%
%TA.AperFunction,SMDPad,CuDef*%
%ADD21RoundRect,0.160000X-0.222500X-0.160000X0.222500X-0.160000X0.222500X0.160000X-0.222500X0.160000X0*%
%TD*%
%TA.AperFunction,SMDPad,CuDef*%
%ADD22RoundRect,0.237500X0.287500X0.237500X-0.287500X0.237500X-0.287500X-0.237500X0.287500X-0.237500X0*%
%TD*%
%TA.AperFunction,SMDPad,CuDef*%
%ADD23RoundRect,0.237500X-0.237500X0.300000X-0.237500X-0.300000X0.237500X-0.300000X0.237500X0.300000X0*%
%TD*%
%TA.AperFunction,SMDPad,CuDef*%
%ADD24RoundRect,0.135000X-0.185000X0.135000X-0.185000X-0.135000X0.185000X-0.135000X0.185000X0.135000X0*%
%TD*%
%TA.AperFunction,SMDPad,CuDef*%
%ADD25RoundRect,0.250000X0.325000X0.450000X-0.325000X0.450000X-0.325000X-0.450000X0.325000X-0.450000X0*%
%TD*%
%TA.AperFunction,SMDPad,CuDef*%
%ADD26RoundRect,0.250000X-0.325000X-0.450000X0.325000X-0.450000X0.325000X0.450000X-0.325000X0.450000X0*%
%TD*%
%TA.AperFunction,SMDPad,CuDef*%
%ADD27R,0.508000X0.500000*%
%TD*%
%TA.AperFunction,SMDPad,CuDef*%
%ADD28R,0.508000X0.508000*%
%TD*%
%TA.AperFunction,SMDPad,CuDef*%
%ADD29RoundRect,0.250001X-0.924999X0.499999X-0.924999X-0.499999X0.924999X-0.499999X0.924999X0.499999X0*%
%TD*%
%TA.AperFunction,SMDPad,CuDef*%
%ADD30RoundRect,0.250000X0.475000X-0.337500X0.475000X0.337500X-0.475000X0.337500X-0.475000X-0.337500X0*%
%TD*%
%TA.AperFunction,SMDPad,CuDef*%
%ADD31R,0.954000X1.000000*%
%TD*%
%TA.AperFunction,SMDPad,CuDef*%
%ADD32R,0.500000X0.508000*%
%TD*%
%TA.AperFunction,SMDPad,CuDef*%
%ADD33R,1.000000X1.500000*%
%TD*%
%TA.AperFunction,SMDPad,CuDef*%
%ADD34RoundRect,0.250001X0.499999X0.924999X-0.499999X0.924999X-0.499999X-0.924999X0.499999X-0.924999X0*%
%TD*%
%TA.AperFunction,SMDPad,CuDef*%
%ADD35RoundRect,0.237500X-0.287500X-0.237500X0.287500X-0.237500X0.287500X0.237500X-0.287500X0.237500X0*%
%TD*%
%TA.AperFunction,SMDPad,CuDef*%
%ADD36RoundRect,0.160000X0.222500X0.160000X-0.222500X0.160000X-0.222500X-0.160000X0.222500X-0.160000X0*%
%TD*%
%TA.AperFunction,SMDPad,CuDef*%
%ADD37C,0.200000*%
%TD*%
%TA.AperFunction,SMDPad,CuDef*%
%ADD38RoundRect,0.150000X-0.150000X0.512500X-0.150000X-0.512500X0.150000X-0.512500X0.150000X0.512500X0*%
%TD*%
%TA.AperFunction,SMDPad,CuDef*%
%ADD39RoundRect,0.160000X0.197500X0.160000X-0.197500X0.160000X-0.197500X-0.160000X0.197500X-0.160000X0*%
%TD*%
%TA.AperFunction,SMDPad,CuDef*%
%ADD40RoundRect,0.237500X0.237500X-0.287500X0.237500X0.287500X-0.237500X0.287500X-0.237500X-0.287500X0*%
%TD*%
%TA.AperFunction,ViaPad*%
%ADD41C,0.450000*%
%TD*%
%TA.AperFunction,ViaPad*%
%ADD42C,0.800000*%
%TD*%
%TA.AperFunction,Conductor*%
%ADD43C,0.200000*%
%TD*%
G04 APERTURE END LIST*
%TA.AperFunction,EtchedComponent*%
%TO.C,GND108*%
G36*
X109429000Y-105279000D02*
G01*
X108971000Y-105279000D01*
X108971000Y-104704000D01*
X109429000Y-104704000D01*
X109429000Y-105279000D01*
G37*
%TD.AperFunction*%
D10*
%TA.AperFunction,EtchedComponent*%
%TO.C,3V108*%
G36*
X119125000Y-115800000D02*
G01*
X118875000Y-115800000D01*
X118875000Y-115400000D01*
X119125000Y-115400000D01*
X119125000Y-115800000D01*
G37*
%TD.AperFunction*%
%TA.AperFunction,EtchedComponent*%
%TO.C,SDA108*%
G36*
X91321000Y-102629000D02*
G01*
X91896000Y-102629000D01*
X91896000Y-102171000D01*
X91321000Y-102171000D01*
X91321000Y-102629000D01*
G37*
%TD.AperFunction*%
%TA.AperFunction,EtchedComponent*%
%TO.C,SCL108*%
G36*
X92521000Y-101429000D02*
G01*
X93096000Y-101429000D01*
X93096000Y-100971000D01*
X92521000Y-100971000D01*
X92521000Y-101429000D01*
G37*
%TD.AperFunction*%
%TA.AperFunction,EtchedComponent*%
%TO.C,NT108*%
G36*
X123829810Y-118711612D02*
G01*
X123511612Y-119029810D01*
X123370190Y-118888388D01*
X123688388Y-118570190D01*
X123829810Y-118711612D01*
G37*
%TD.AperFunction*%
%TA.AperFunction,EtchedComponent*%
%TO.C,G119*%
G36*
X121879000Y-115371000D02*
G01*
X121304000Y-115371000D01*
X121304000Y-115829000D01*
X121879000Y-115829000D01*
X121879000Y-115371000D01*
G37*
%TD.AperFunction*%
%TD*%
D11*
%TO.P,board_outline108,1,HELD_HIGH*%
%TO.N,EN_HELD_HIGH*%
X89337500Y-122600000D03*
D12*
%TO.P,board_outline108,2,HELD_LOW*%
%TO.N,unconnected-(board_outline108-HELD_LOW-Pad2)*%
X86797500Y-122600000D03*
%TO.P,board_outline108,3,5V*%
%TO.N,Net-(5V108-Pad2)*%
X89337500Y-120060000D03*
%TO.P,board_outline108,4,GNDD*%
%TO.N,3.3v_IDE*%
X86797500Y-120060000D03*
%TO.P,board_outline108,5,12V*%
%TO.N,unconnected-(board_outline108-12V-Pad5)*%
X89337500Y-117520000D03*
%TO.P,board_outline108,6,GNDD*%
%TO.N,GNDD*%
X86797500Y-117520000D03*
%TO.P,board_outline108,7,DSP_DOUT*%
%TO.N,5212_DIN1*%
X89337500Y-114980000D03*
%TO.P,board_outline108,8,GNDD*%
%TO.N,GNDD*%
X86797500Y-114980000D03*
%TO.P,board_outline108,9,DSP_DIN*%
%TO.N,5212_DOUT1+*%
X89337500Y-112440000D03*
%TO.P,board_outline108,10,GNDD*%
%TO.N,GNDD*%
X86797500Y-112440000D03*
%TO.P,board_outline108,11,BCLK*%
%TO.N,5212_BCLK1*%
X89337500Y-109900000D03*
%TO.P,board_outline108,12,GNDD*%
%TO.N,GNDD*%
X86797500Y-109900000D03*
%TO.P,board_outline108,13,LRCK*%
%TO.N,5212_LRCK1*%
X89337500Y-107360000D03*
%TO.P,board_outline108,14,GNDD*%
%TO.N,GNDD*%
X86797500Y-107360000D03*
%TO.P,board_outline108,15,SDA*%
%TO.N,DSP_SDA*%
X89337500Y-104820000D03*
%TO.P,board_outline108,16,GNDD*%
%TO.N,GNDD*%
X86797500Y-104820000D03*
%TO.P,board_outline108,17,SCL*%
%TO.N,DSP_SCL*%
X89337500Y-102280000D03*
%TO.P,board_outline108,18,GNDD*%
%TO.N,GNDD*%
X86797500Y-102280000D03*
%TO.P,board_outline108,19,MCLK*%
%TO.N,5212_MCLK1*%
X89337500Y-99740000D03*
%TO.P,board_outline108,20,GNDD*%
%TO.N,GNDD*%
X86797500Y-99740000D03*
D11*
%TO.P,board_outline108,21,OUTP*%
%TO.N,OUT1P+*%
X102047500Y-102285000D03*
%TO.P,board_outline108,22,AGND*%
%TO.N,Earth*%
X102047500Y-99745000D03*
D12*
%TO.P,board_outline108,23,OUT1M*%
%TO.N,OUT1M+*%
X104587500Y-102285000D03*
%TO.P,board_outline108,24,AGND*%
%TO.N,Earth*%
X104587500Y-99745000D03*
%TO.P,board_outline108,25,OUT2P*%
%TO.N,OUT2P+*%
X107127500Y-102285000D03*
%TO.P,board_outline108,26,AGND*%
%TO.N,Earth*%
X107127500Y-99745000D03*
%TO.P,board_outline108,27,OUT2M*%
%TO.N,OUT2M+*%
X109667500Y-102285000D03*
%TO.P,board_outline108,28,AGND*%
%TO.N,Earth*%
X109667500Y-99745000D03*
%TO.P,board_outline108,29,IN1P*%
%TO.N,IN1P+*%
X112207500Y-102285000D03*
%TO.P,board_outline108,30,AGND*%
%TO.N,Earth*%
X112207500Y-99745000D03*
%TO.P,board_outline108,31,IN1M*%
%TO.N,IN1M+*%
X114747500Y-102285000D03*
%TO.P,board_outline108,32,AGND*%
%TO.N,Earth*%
X114747500Y-99745000D03*
%TO.P,board_outline108,33,IN2P*%
%TO.N,IN2P+*%
X117287500Y-102285000D03*
%TO.P,board_outline108,34,AGND*%
%TO.N,Earth*%
X117287500Y-99745000D03*
%TO.P,board_outline108,35,IN2M*%
%TO.N,IN2M+*%
X119827500Y-102285000D03*
%TO.P,board_outline108,36,AGND*%
%TO.N,Earth*%
X119827500Y-99745000D03*
D11*
%TO.P,board_outline108,37,SCL*%
%TO.N,5212_SCL*%
X102047500Y-122605000D03*
D12*
%TO.P,board_outline108,38,SDA*%
%TO.N,5212_SDA*%
X104587500Y-122605000D03*
%TO.P,board_outline108,39,GNDD*%
%TO.N,GNDD*%
X107127500Y-122605000D03*
%TO.P,board_outline108,40,GPIO1*%
%TO.N,GPIO1*%
X109667500Y-122605000D03*
%TO.P,board_outline108,41,GPIO2*%
%TO.N,GPIO2*%
X112207500Y-122605000D03*
%TO.P,board_outline108,42,GPO1*%
%TO.N,GPO1*%
X114747500Y-122605000D03*
%TO.P,board_outline108,43,GPI1*%
%TO.N,GPI1*%
X117287500Y-122605000D03*
%TO.P,board_outline108,44,GNDD*%
%TO.N,GNDD*%
X119827500Y-122605000D03*
%TO.P,board_outline108,45,5V*%
%TO.N,5V*%
X124892500Y-117525000D03*
%TO.P,board_outline108,46,3.3V*%
%TO.N,3.3V_LDO*%
X124892500Y-114985000D03*
%TO.P,board_outline108,47,GNDD*%
%TO.N,GNDD*%
X124892500Y-112445000D03*
%TO.P,board_outline108,48,MIC_BIAS*%
%TO.N,MICBIAS*%
X122352500Y-102285000D03*
D13*
%TO.P,board_outline108,49,AGND*%
%TO.N,Net-(E108-Pad2)*%
X96952500Y-99745000D03*
%TO.P,board_outline108,50,AGND*%
%TO.N,Net-(E109-Pad2)*%
X124892500Y-99745000D03*
%TO.P,board_outline108,51,DGND*%
%TO.N,Net-(G117-Pad1)*%
X96952500Y-122605000D03*
%TO.P,board_outline108,52,DGND*%
%TO.N,Net-(G118-Pad1)*%
X124892500Y-122605000D03*
%TD*%
D14*
%TO.P,G110,1,1*%
%TO.N,Earth*%
X117100000Y-114000000D03*
%TD*%
%TO.P,G109,1,1*%
%TO.N,Earth*%
X99200000Y-117200000D03*
%TD*%
%TO.P,G112,1,1*%
%TO.N,Earth*%
X118400000Y-114000000D03*
%TD*%
%TO.P,G111,1,1*%
%TO.N,Earth*%
X92000000Y-118200000D03*
%TD*%
%TO.P,G113,1,1*%
%TO.N,Earth*%
X102200000Y-118400000D03*
%TD*%
%TO.P,TAC5212,25,VSS*%
%TO.N,GNDD*%
X109274058Y-111880489D03*
X109274058Y-110890539D03*
X109769033Y-111385514D03*
D15*
X109769033Y-111385514D03*
D14*
X110264008Y-111880489D03*
X110264008Y-110890539D03*
%TD*%
%TO.P,G115,1,1*%
%TO.N,Earth*%
X105000000Y-119800000D03*
%TD*%
%TO.P,G114,1,1*%
%TO.N,Earth*%
X123000000Y-115600000D03*
%TD*%
%TO.P,G116,1,1*%
%TO.N,Earth*%
X125900000Y-110200000D03*
%TD*%
%TO.P,G108,1,1*%
%TO.N,Earth*%
X115800000Y-114500000D03*
%TD*%
D16*
%TO.P,T\u002AC108,1*%
%TO.N,5V_THIN*%
X122134314Y-119475000D03*
%TO.P,T\u002AC108,2*%
%TO.N,Net-(U109-GND)*%
X122134314Y-117400000D03*
%TD*%
D17*
%TO.P,C127,1*%
%TO.N,Net-(C127-Pad1)*%
X113900000Y-110537500D03*
%TO.P,C127,2*%
%TO.N,IN1P*%
X113900000Y-112262500D03*
%TD*%
D18*
%TO.P,OP2,1,1*%
%TO.N,OUT2P+*%
X100300000Y-106325000D03*
D19*
%TO.P,OP2,2,2*%
%TO.N,OUT2P*%
X100300000Y-107200000D03*
D20*
X100300000Y-107425000D03*
%TD*%
D21*
%TO.P,D111,1,K*%
%TO.N,OUT2M+*%
X104327500Y-105100000D03*
%TO.P,D111,2,K*%
%TO.N,Earth*%
X105472500Y-105100000D03*
%TD*%
D22*
%TO.P,R108,1*%
%TO.N,OUT1P+*%
X96825000Y-111100000D03*
%TO.P,R108,2*%
%TO.N,Net-(C110-Pad2)*%
X98575000Y-111100000D03*
%TD*%
D18*
%TO.P,INP2,1,1*%
%TO.N,IN2P+*%
X121400000Y-106335000D03*
D19*
%TO.P,INP2,2,2*%
%TO.N,IN2P*%
X121400000Y-107210000D03*
D20*
X121400000Y-107435000D03*
%TD*%
D23*
%TO.P,T\u002AC109,1*%
%TO.N,5V_THIN*%
X120200000Y-119300000D03*
%TO.P,T\u002AC109,2*%
%TO.N,Net-(U109-GND)*%
X120200000Y-117575000D03*
%TD*%
D24*
%TO.P,R128,1*%
%TO.N,EN_HELD_HIGH*%
X112600000Y-120110000D03*
%TO.P,R128,2*%
%TO.N,Net-(R128-Pad2)*%
X112600000Y-119090000D03*
%TD*%
D17*
%TO.P,C124,1*%
%TO.N,Net-(C124-Pad1)*%
X122800000Y-110537500D03*
%TO.P,C124,2*%
%TO.N,IN2M*%
X122800000Y-112262500D03*
%TD*%
D25*
%TO.P,C131,1*%
%TO.N,3.3v_IDE*%
X92175000Y-121600000D03*
%TO.P,C131,2*%
%TO.N,GNDD*%
X94225000Y-121600000D03*
%TD*%
D26*
%TO.P,C130,1*%
%TO.N,5V*%
X94225000Y-119400000D03*
%TO.P,C130,2*%
%TO.N,GNDD*%
X92175000Y-119400000D03*
%TD*%
D27*
%TO.P,GND108,1,1*%
%TO.N,GNDD*%
X109200000Y-105504000D03*
D28*
%TO.P,GND108,2,2*%
%TO.N,Earth*%
X109200000Y-104500000D03*
%TD*%
D17*
%TO.P,C125,1*%
%TO.N,Net-(C125-Pad1)*%
X120200000Y-110637500D03*
%TO.P,C125,2*%
%TO.N,IN2P*%
X120200000Y-112362500D03*
%TD*%
D18*
%TO.P,INM2,1,1*%
%TO.N,IN2M+*%
X125000000Y-106382500D03*
D19*
%TO.P,INM2,2,2*%
%TO.N,IN2M*%
X125000000Y-107257500D03*
D20*
X125000000Y-107482500D03*
%TD*%
D29*
%TO.P,C114,1*%
%TO.N,OUT1M*%
X93000000Y-116525000D03*
%TO.P,C114,2*%
%TO.N,Net-(C114-Pad2)*%
X93000000Y-113275000D03*
%TD*%
D30*
%TO.P,T\u002AC110,1*%
%TO.N,3.3V_A*%
X114400000Y-117162500D03*
%TO.P,T\u002AC110,2*%
%TO.N,Net-(U109-GND)*%
X114400000Y-119237500D03*
%TD*%
D18*
%TO.P,OM2,1,1*%
%TO.N,OUT2M+*%
X104200000Y-106100000D03*
D19*
%TO.P,OM2,2,2*%
%TO.N,OUT2M*%
X104200000Y-106975000D03*
D20*
X104200000Y-107200000D03*
%TD*%
D31*
%TO.P,3V108,1,1*%
%TO.N,3.3V_A*%
X118423000Y-115600000D03*
%TO.P,3V108,2,2*%
%TO.N,3.3V_LDO*%
X119574987Y-115600001D03*
%TD*%
D32*
%TO.P,SDA108,1,1*%
%TO.N,DSP_SDA*%
X91096000Y-102400000D03*
D28*
%TO.P,SDA108,2,2*%
%TO.N,5212_SDA*%
X92100000Y-102400000D03*
%TD*%
D33*
%TO.P,MCLK108,1,1*%
%TO.N,5212_MCLK1*%
X92150000Y-99400000D03*
%TO.P,MCLK108,2,2*%
%TO.N,GPI1*%
X93450000Y-99400000D03*
%TD*%
D34*
%TO.P,C122,1*%
%TO.N,OUT2M*%
X105100001Y-115800000D03*
%TO.P,C122,2*%
%TO.N,Net-(C122-Pad2)*%
X108350001Y-115800000D03*
%TD*%
D32*
%TO.P,SCL108,1,1*%
%TO.N,DSP_SCL*%
X92296000Y-101200000D03*
D28*
%TO.P,SCL108,2,2*%
%TO.N,5212_SCL*%
X93300000Y-101200000D03*
%TD*%
D35*
%TO.P,R109,1*%
%TO.N,OUT1M+*%
X94275000Y-111100000D03*
%TO.P,R109,2*%
%TO.N,Net-(C114-Pad2)*%
X92525000Y-111100000D03*
%TD*%
D36*
%TO.P,D113,1,K*%
%TO.N,Net-(C125-Pad1)*%
X120572500Y-105035000D03*
%TO.P,D113,2,K*%
%TO.N,Earth*%
X119427500Y-105035000D03*
%TD*%
D30*
%TO.P,FB110,1*%
%TO.N,IN1M+*%
X116300000Y-106625000D03*
%TO.P,FB110,2*%
%TO.N,Net-(C126-Pad1)*%
X116300000Y-108700000D03*
%TD*%
%TO.P,FB111,1*%
%TO.N,IN1P+*%
X112700000Y-106462500D03*
%TO.P,FB111,2*%
%TO.N,Net-(C127-Pad1)*%
X112700000Y-108537500D03*
%TD*%
D22*
%TO.P,R111,1*%
%TO.N,OUT2P+*%
X101125000Y-111100000D03*
%TO.P,R111,2*%
%TO.N,Net-(C120-Pad2)*%
X102875000Y-111100000D03*
%TD*%
D36*
%TO.P,D112,1,K*%
%TO.N,Net-(C124-Pad1)*%
X124172500Y-105082500D03*
%TO.P,D112,2,K*%
%TO.N,Earth*%
X123027500Y-105082500D03*
%TD*%
D23*
%TO.P,C123,1*%
%TO.N,OUT2M+*%
X105900000Y-108862500D03*
%TO.P,C123,2*%
%TO.N,Earth*%
X105900000Y-107137500D03*
%TD*%
D37*
%TO.P,NT108,1,1*%
%TO.N,5V*%
X123759099Y-118640901D03*
%TO.P,NT108,2,2*%
%TO.N,5V_THIN*%
X123440901Y-118959099D03*
%TD*%
D38*
%TO.P,U109,1,IN*%
%TO.N,5V_THIN*%
X118161814Y-119552500D03*
%TO.P,U109,2,GND*%
%TO.N,Net-(U109-GND)*%
X117211814Y-119552500D03*
%TO.P,U109,3,EN*%
%TO.N,EN_HELD_HIGH*%
X116261814Y-119552500D03*
%TO.P,U109,4,NC*%
%TO.N,unconnected-(U109-NC-Pad4)*%
X116261814Y-117277500D03*
%TO.P,U109,5,OUT*%
%TO.N,3.3V_A*%
X118161814Y-117277500D03*
%TD*%
D21*
%TO.P,D108,1,K*%
%TO.N,OUT1P+*%
X96327500Y-105100000D03*
%TO.P,D108,2,K*%
%TO.N,Earth*%
X97472500Y-105100000D03*
%TD*%
D23*
%TO.P,C113,1*%
%TO.N,OUT1P+*%
X97700000Y-108862500D03*
%TO.P,C113,2*%
%TO.N,Earth*%
X97700000Y-107137500D03*
%TD*%
D17*
%TO.P,C126,1*%
%TO.N,Net-(C126-Pad1)*%
X116600000Y-110537500D03*
%TO.P,C126,2*%
%TO.N,IN1M*%
X116600000Y-112262500D03*
%TD*%
D21*
%TO.P,D110,1,K*%
%TO.N,OUT2P+*%
X100627500Y-105100000D03*
%TO.P,D110,2,K*%
%TO.N,Earth*%
X101772500Y-105100000D03*
%TD*%
D29*
%TO.P,C110,1*%
%TO.N,OUT1P*%
X97300000Y-116525000D03*
%TO.P,C110,2*%
%TO.N,Net-(C110-Pad2)*%
X97300000Y-113275000D03*
%TD*%
D21*
%TO.P,D109,1,K*%
%TO.N,OUT1M+*%
X92027500Y-105100000D03*
%TO.P,D109,2,K*%
%TO.N,Earth*%
X93172500Y-105100000D03*
%TD*%
D39*
%TO.P,SCL109,1,1*%
%TO.N,Net-(R128-Pad2)*%
X111397500Y-119000000D03*
%TO.P,SCL109,2,2*%
%TO.N,3.3v_IDE*%
X110202500Y-119000000D03*
%TD*%
D23*
%TO.P,C121,1*%
%TO.N,OUT2P+*%
X102000000Y-108862500D03*
%TO.P,C121,2*%
%TO.N,Earth*%
X102000000Y-107137500D03*
%TD*%
D29*
%TO.P,C120,1*%
%TO.N,OUT2P*%
X101600000Y-116525000D03*
%TO.P,C120,2*%
%TO.N,Net-(C120-Pad2)*%
X101600000Y-113275000D03*
%TD*%
D36*
%TO.P,D114,1,K*%
%TO.N,Net-(C126-Pad1)*%
X116972500Y-105035000D03*
%TO.P,D114,2,K*%
%TO.N,Earth*%
X115827500Y-105035000D03*
%TD*%
D18*
%TO.P,OP1,1,1*%
%TO.N,OUT1P+*%
X96000000Y-106400000D03*
D19*
%TO.P,OP1,2,2*%
%TO.N,OUT1P*%
X96000000Y-107275000D03*
D20*
X96000000Y-107500000D03*
%TD*%
D40*
%TO.P,R116,1*%
%TO.N,OUT2M+*%
X105500000Y-111125000D03*
%TO.P,R116,2*%
%TO.N,Net-(C122-Pad2)*%
X105500000Y-112875000D03*
%TD*%
D18*
%TO.P,INM1,1,1*%
%TO.N,IN1M+*%
X117800000Y-106262500D03*
D19*
%TO.P,INM1,2,2*%
%TO.N,IN1M*%
X117800000Y-107137500D03*
D20*
X117800000Y-107362500D03*
%TD*%
D30*
%TO.P,FB109,1*%
%TO.N,IN2P+*%
X119900000Y-106697500D03*
%TO.P,FB109,2*%
%TO.N,Net-(C125-Pad1)*%
X119900000Y-108772500D03*
%TD*%
D32*
%TO.P,G119,1,1*%
%TO.N,Earth*%
X122104000Y-115600000D03*
D28*
%TO.P,G119,2,2*%
%TO.N,Net-(U109-GND)*%
X121100000Y-115600000D03*
%TD*%
D30*
%TO.P,FB108,1*%
%TO.N,IN2M+*%
X123500000Y-106735000D03*
%TO.P,FB108,2*%
%TO.N,Net-(C124-Pad1)*%
X123500000Y-108810000D03*
%TD*%
D36*
%TO.P,D115,1,K*%
%TO.N,Net-(C127-Pad1)*%
X113372500Y-104900000D03*
%TO.P,D115,2,K*%
%TO.N,Earth*%
X112227500Y-104900000D03*
%TD*%
D17*
%TO.P,C129,1*%
%TO.N,EN_HELD_HIGH*%
X112349617Y-115925582D03*
%TO.P,C129,2*%
%TO.N,GNDD*%
X112349617Y-117650582D03*
%TD*%
D18*
%TO.P,OM1,1,1*%
%TO.N,OUT1M+*%
X92000000Y-107600000D03*
%TO.P,OM1,2,2*%
%TO.N,OUT1M*%
X92000000Y-106750000D03*
D20*
X92000000Y-106500000D03*
%TD*%
D23*
%TO.P,C117,1*%
%TO.N,OUT1M+*%
X93400000Y-108862500D03*
%TO.P,C117,2*%
%TO.N,Earth*%
X93400000Y-107137500D03*
%TD*%
D18*
%TO.P,INP1,1,1*%
%TO.N,IN1P+*%
X114200000Y-106325000D03*
D19*
%TO.P,INP1,2,2*%
%TO.N,IN1P*%
X114200000Y-107200000D03*
D20*
X114200000Y-107425000D03*
%TD*%
D41*
%TO.N,GNDD*%
X93000000Y-114800000D03*
X112200000Y-118400000D03*
X99400000Y-123800000D03*
D42*
X109200000Y-107025000D03*
D41*
X92250000Y-112000000D03*
X119400000Y-114600000D03*
X93363425Y-118278913D03*
X98000000Y-110000000D03*
X115600000Y-115400000D03*
X117200000Y-117600000D03*
X104000000Y-118100000D03*
X115800000Y-111200000D03*
X99006587Y-119580000D03*
X124800000Y-119000000D03*
X93200000Y-123600000D03*
%TO.N,5V*%
X123908750Y-118508750D03*
D42*
X94314682Y-119660000D03*
D41*
%TO.N,Earth*%
X94600000Y-105800000D03*
X94400000Y-101000000D03*
X91800000Y-123600000D03*
X103224739Y-107762663D03*
X126400000Y-113600000D03*
X96200000Y-103200000D03*
X94400000Y-98400000D03*
X107753490Y-104649666D03*
X111200000Y-104200000D03*
X126200000Y-102000000D03*
X122150000Y-104650000D03*
%TO.N,EN_HELD_HIGH*%
X112200000Y-116000000D03*
%TO.N,5212_SCL*%
X101934085Y-119700000D03*
%TO.N,5212_SDA*%
X90762790Y-117786552D03*
%TO.N,3.3V_LDO*%
X104000000Y-109600000D03*
%TO.N,GPI1*%
X85600000Y-116400000D03*
%TO.N,Net-(PU_EN108-Pad1)*%
X110704037Y-118225583D03*
X107303448Y-118794456D03*
%TO.N,3.3v_IDE*%
X108861982Y-118748569D03*
X94800000Y-116000000D03*
X95900000Y-118000000D03*
%TD*%
D43*
%TO.N,Earth*%
X100538604Y-99745000D02*
X102047500Y-99745000D01*
X98613604Y-101670000D02*
X100538604Y-99745000D01*
X94516179Y-101670000D02*
X98613604Y-101670000D01*
X92325930Y-103860249D02*
X94516179Y-101670000D01*
X92003681Y-103860249D02*
X92325930Y-103860249D01*
X91230081Y-104633849D02*
X92003681Y-103860249D01*
X91235448Y-104639215D02*
X91230081Y-104633849D01*
X90975000Y-108361396D02*
X90975000Y-106838604D01*
X91235448Y-108621844D02*
X90975000Y-108361396D01*
X91235448Y-110426080D02*
X91235448Y-108621844D01*
X90975000Y-106838604D02*
X91235448Y-106578156D01*
X91225000Y-110436528D02*
X91235448Y-110426080D01*
X91235448Y-111773920D02*
X91225000Y-111763472D01*
X91235448Y-112158056D02*
X91235448Y-111773920D01*
X91050000Y-112343504D02*
X91235448Y-112158056D01*
X91500000Y-114842101D02*
X91050000Y-114392101D01*
X91500000Y-117700000D02*
X91500000Y-114842101D01*
X91225000Y-111763472D02*
X91225000Y-110436528D01*
X92000000Y-118200000D02*
X91500000Y-117700000D01*
X91235448Y-106578156D02*
X91235448Y-104639215D01*
X91050000Y-114392101D02*
X91050000Y-112343504D01*
X92500000Y-117700000D02*
X92000000Y-118200000D01*
X94070100Y-117700000D02*
X92500000Y-117700000D01*
X95325000Y-108887500D02*
X93400000Y-106962500D01*
X95325000Y-116445100D02*
X95325000Y-108887500D01*
X94070100Y-117700000D02*
X95325000Y-116445100D01*
%TO.N,GNDD*%
X99000000Y-119586587D02*
X99006587Y-119580000D01*
X92175000Y-119400000D02*
X93296087Y-118278913D01*
X107127500Y-119369456D02*
X107127500Y-122605000D01*
X106700000Y-118600000D02*
X106728448Y-118628448D01*
X104000000Y-120300000D02*
X104000000Y-118100000D01*
X107027182Y-122605000D02*
X105322182Y-120900000D01*
X112300200Y-117700000D02*
X107600000Y-117700000D01*
X99400000Y-123800000D02*
X99000000Y-123400000D01*
X109200000Y-110816481D02*
X109274058Y-110890539D01*
X107065275Y-118219456D02*
X106728448Y-118556283D01*
X112349617Y-118250383D02*
X112200000Y-118400000D01*
X110675000Y-112275000D02*
X110675000Y-115837501D01*
X93296087Y-118278913D02*
X93363425Y-118278913D01*
X106728448Y-118571552D02*
X106700000Y-118600000D01*
X109400000Y-111000000D02*
X110675000Y-112275000D01*
X94224999Y-121600000D02*
X94224999Y-122575001D01*
X99000000Y-123400000D02*
X99000000Y-119586587D01*
X104600000Y-120900000D02*
X104000000Y-120300000D01*
X107600000Y-117700000D02*
X107080544Y-118219456D01*
X107127500Y-122605000D02*
X107027182Y-122605000D01*
X106728448Y-118628448D02*
X106728448Y-119032629D01*
X109200000Y-105504000D02*
X109200000Y-107025000D01*
X105322182Y-120900000D02*
X104600000Y-120900000D01*
X106728448Y-118556283D02*
X106728448Y-118571552D01*
X107080544Y-118219456D02*
X107065275Y-118219456D01*
X112349617Y-117650583D02*
X112349617Y-118250383D01*
X112349617Y-117650583D02*
X112300200Y-117700000D01*
X106728448Y-119032629D02*
X107065275Y-119369456D01*
X94224999Y-122575001D02*
X93200000Y-123600000D01*
X110675000Y-115837501D02*
X112500000Y-117662501D01*
X107065275Y-119369456D02*
X107127500Y-119369456D01*
X109200000Y-107025000D02*
X109200000Y-110816481D01*
%TO.N,Earth*%
X114260799Y-104060799D02*
X114260799Y-103460000D01*
X103400000Y-108520000D02*
X103620000Y-108300000D01*
X107210744Y-103460000D02*
X107614201Y-103460000D01*
X99625000Y-109556398D02*
X99450000Y-109381398D01*
X125900000Y-102300000D02*
X126200000Y-102000000D01*
X115200000Y-107793996D02*
X114800000Y-107393996D01*
X114800000Y-107393996D02*
X114800000Y-104600000D01*
X109844906Y-114084424D02*
X106895101Y-111134619D01*
X105000000Y-119800000D02*
X105000000Y-119446447D01*
X119340799Y-103460000D02*
X118652500Y-102771701D01*
X118400000Y-114000000D02*
X118150000Y-113750000D01*
X110542843Y-106843984D02*
X110542843Y-105509951D01*
X118150000Y-113750000D02*
X118150000Y-112725000D01*
X118150000Y-112725000D02*
X118375000Y-112500000D01*
X109588771Y-117300000D02*
X109844906Y-117043865D01*
X103620000Y-108300000D02*
X103620000Y-104734672D01*
X116560000Y-103460000D02*
X116112500Y-103012500D01*
X124200000Y-102000000D02*
X126200000Y-102000000D01*
X106895101Y-106522601D02*
X105472500Y-105100000D01*
X103700000Y-116900000D02*
X103700000Y-110633278D01*
X117100000Y-114000000D02*
X116900000Y-114000000D01*
X106670744Y-104000000D02*
X107210744Y-103460000D01*
X113125000Y-110595100D02*
X110425000Y-107895100D01*
X118652500Y-100920000D02*
X119827500Y-99745000D01*
X117160000Y-103460000D02*
X116560000Y-103460000D01*
X116900000Y-114000000D02*
X115200000Y-112300000D01*
X103620000Y-108157924D02*
X103224739Y-107762663D01*
X122104000Y-115600000D02*
X123000000Y-115600000D01*
X110425000Y-107895100D02*
X110425000Y-106961827D01*
X103700000Y-110633278D02*
X103400000Y-110333278D01*
X113572500Y-101110000D02*
X112207500Y-99745000D01*
X111152794Y-104900000D02*
X112227500Y-104900000D01*
X122582500Y-105082500D02*
X122150000Y-104650000D01*
X115200000Y-112300000D02*
X115200000Y-107793996D01*
X116112500Y-103012500D02*
X116112500Y-100920000D01*
X125900000Y-110200000D02*
X125900000Y-102300000D01*
X107146447Y-117300000D02*
X109588771Y-117300000D01*
X110542843Y-105509951D02*
X111152794Y-104900000D01*
X108302500Y-102771701D02*
X108302500Y-100920000D01*
X109844906Y-117043865D02*
X109844906Y-114084424D01*
X102000000Y-107350000D02*
X102000000Y-106962500D01*
X118652500Y-102771701D02*
X118652500Y-100920000D01*
X99625000Y-116775000D02*
X99625000Y-109556398D01*
X115800000Y-114500000D02*
X114113173Y-114500000D01*
X106895101Y-111134619D02*
X106895101Y-106522601D01*
X116112500Y-100920000D02*
X117287500Y-99745000D01*
X122150000Y-104650000D02*
X120960000Y-103460000D01*
X105000000Y-119446447D02*
X107146447Y-117300000D01*
X104354672Y-104000000D02*
X106670744Y-104000000D01*
X114260799Y-103460000D02*
X113572500Y-102771701D01*
X119827500Y-99745000D02*
X121945000Y-99745000D01*
X107614201Y-103460000D02*
X108302500Y-102771701D01*
X114800000Y-104600000D02*
X114260799Y-104060799D01*
X123027500Y-105082500D02*
X122582500Y-105082500D01*
X118375000Y-104675000D02*
X117160000Y-103460000D01*
X113572500Y-102771701D02*
X113572500Y-101110000D01*
X99450000Y-109381398D02*
X99450000Y-107077500D01*
X99200000Y-117200000D02*
X99625000Y-116775000D01*
X108302500Y-100920000D02*
X107127500Y-99745000D01*
X102200000Y-118400000D02*
X103700000Y-116900000D01*
X99450000Y-107077500D02*
X97472500Y-105100000D01*
X103400000Y-110333278D02*
X103400000Y-108520000D01*
X113125000Y-113511827D02*
X113125000Y-110595100D01*
X118375000Y-112500000D02*
X118375000Y-104675000D01*
X121945000Y-99745000D02*
X124200000Y-102000000D01*
X103620000Y-108300000D02*
X103620000Y-108157924D01*
X110425000Y-106961827D02*
X110542843Y-106843984D01*
X103620000Y-104734672D02*
X104354672Y-104000000D01*
X120960000Y-103460000D02*
X119340799Y-103460000D01*
X114113173Y-114500000D02*
X113125000Y-113511827D01*
%TO.N,EN_HELD_HIGH*%
X112600000Y-120109999D02*
X112615001Y-120125000D01*
X115689315Y-120125000D02*
X116261815Y-119552500D01*
X113245000Y-119464999D02*
X113245000Y-116682499D01*
X112615001Y-120125000D02*
X115689315Y-120125000D01*
X113245000Y-116682499D02*
X112500000Y-115937499D01*
X112600000Y-120109999D02*
X113245000Y-119464999D01*
%TO.N,IN2P*%
X120200000Y-112362500D02*
X121400000Y-111162500D01*
X121400000Y-111162500D02*
X121400000Y-107435000D01*
%TO.N,IN1M*%
X116600000Y-112262500D02*
X117800000Y-111062500D01*
X117800000Y-111062500D02*
X117800000Y-107362500D01*
%TO.N,IN1P*%
X113900000Y-112262500D02*
X114700000Y-111462500D01*
X114700000Y-107930392D02*
X114200000Y-107430392D01*
X114200000Y-107430392D02*
X114200000Y-107425000D01*
X114700000Y-111462500D02*
X114700000Y-107930392D01*
%TO.N,Net-(C110-Pad2)*%
X98700000Y-111100000D02*
X98700000Y-111875000D01*
X98700000Y-111875000D02*
X97300000Y-113275000D01*
%TO.N,IN2M*%
X123950000Y-109992600D02*
X125000000Y-108942600D01*
X122800000Y-112262500D02*
X122800000Y-111977076D01*
X123950000Y-110827076D02*
X123950000Y-109992600D01*
X122800000Y-111977076D02*
X123950000Y-110827076D01*
X125000000Y-108942600D02*
X125000000Y-107482500D01*
%TO.N,OUT1P*%
X95775000Y-115000000D02*
X95775000Y-107725000D01*
X97300000Y-116525000D02*
X95775000Y-115000000D01*
X95775000Y-107725000D02*
X96000000Y-107500000D01*
%TO.N,Net-(C114-Pad2)*%
X93000000Y-113275000D02*
X93000000Y-111700000D01*
X93000000Y-111700000D02*
X92400000Y-111100000D01*
%TO.N,OUT1M*%
X91685448Y-106814552D02*
X91685448Y-107025000D01*
X93000000Y-115775001D02*
X93000000Y-116525000D01*
X91685448Y-107025000D02*
X91425000Y-107025000D01*
X91500000Y-112529900D02*
X91500000Y-114020100D01*
X91675000Y-110622924D02*
X91675000Y-111577076D01*
X91500000Y-114020100D02*
X91685448Y-114205548D01*
X91685448Y-111587524D02*
X91685448Y-112344452D01*
X91685448Y-112344452D02*
X91500000Y-112529900D01*
X92000000Y-106500000D02*
X91685448Y-106814552D01*
X91685448Y-108175000D02*
X91685448Y-110612476D01*
X91425000Y-108175000D02*
X91685448Y-108175000D01*
X91685448Y-110612476D02*
X91675000Y-110622924D01*
X91425000Y-107025000D02*
X91425000Y-108175000D01*
X91685448Y-114205548D02*
X91685448Y-114460449D01*
X91675000Y-111577076D02*
X91685448Y-111587524D01*
X91685448Y-114460449D02*
X93000000Y-115775001D01*
%TO.N,OUT2P*%
X100075000Y-115000000D02*
X100075000Y-109370002D01*
X99900000Y-107825000D02*
X100300000Y-107425000D01*
X99900000Y-109195002D02*
X99900000Y-107825000D01*
X101600000Y-116525000D02*
X100075000Y-115000000D01*
X100075000Y-109370002D02*
X99900000Y-109195002D01*
%TO.N,OUT2M*%
X104600000Y-115299999D02*
X104600000Y-108400000D01*
X104200000Y-108000000D02*
X104200000Y-107500000D01*
X105100001Y-115800000D02*
X104600000Y-115299999D01*
X104600000Y-108400000D02*
X104200000Y-108000000D01*
%TO.N,Net-(C120-Pad2)*%
X103000000Y-111875000D02*
X101600000Y-113275000D01*
X103000000Y-111100000D02*
X103000000Y-111875000D01*
%TO.N,Net-(C122-Pad2)*%
X105550001Y-113000000D02*
X108350001Y-115800000D01*
X105500000Y-113000000D02*
X105550001Y-113000000D01*
%TO.N,Net-(C124-Pad1)*%
X122450000Y-106152400D02*
X122779900Y-105822500D01*
X122779900Y-105822500D02*
X123432501Y-105822500D01*
X123500000Y-108810000D02*
X122450000Y-107760000D01*
X123432501Y-105822500D02*
X124172501Y-105082500D01*
X123500000Y-109837500D02*
X123500000Y-108810000D01*
X122450000Y-107760000D02*
X122450000Y-106152400D01*
X122800000Y-110537500D02*
X123500000Y-109837500D01*
%TO.N,Net-(C125-Pad1)*%
X119907501Y-105700000D02*
X120572501Y-105035000D01*
X119264900Y-105700000D02*
X119907501Y-105700000D01*
X118850000Y-106114900D02*
X119264900Y-105700000D01*
X120200000Y-110637500D02*
X120200000Y-109072500D01*
X120200000Y-109072500D02*
X119900000Y-108772500D01*
X118850000Y-107280100D02*
X118850000Y-106114900D01*
X119900000Y-108330100D02*
X118850000Y-107280100D01*
X119900000Y-108772500D02*
X119900000Y-108330100D01*
%TO.N,Net-(C126-Pad1)*%
X116300000Y-108700000D02*
X116300000Y-108257600D01*
X115250000Y-107207600D02*
X115250000Y-106042400D01*
X116600000Y-109000000D02*
X116300000Y-108700000D01*
X115250000Y-106042400D02*
X115592400Y-105700000D01*
X116600000Y-110537500D02*
X116600000Y-109000000D01*
X116307501Y-105700000D02*
X116972501Y-105035000D01*
X115592400Y-105700000D02*
X116307501Y-105700000D01*
X116300000Y-108257600D02*
X115250000Y-107207600D01*
%TO.N,5212_SCL*%
X88861154Y-103670000D02*
X88187500Y-104343654D01*
X102047500Y-119813415D02*
X101934085Y-119700000D01*
X102047500Y-122605000D02*
X102047500Y-119813415D01*
X93154000Y-101846000D02*
X90546000Y-101846000D01*
X90487500Y-102756346D02*
X89573846Y-103670000D01*
X91615256Y-120400000D02*
X97373414Y-120400000D01*
X88187500Y-104343654D02*
X88187500Y-117996346D01*
X89573846Y-103670000D02*
X88861154Y-103670000D01*
X88861154Y-118670000D02*
X89885256Y-118670000D01*
X90546000Y-101846000D02*
X90487500Y-101904500D01*
X88187500Y-117996346D02*
X88861154Y-118670000D01*
X97373414Y-120400000D02*
X98768414Y-119005000D01*
X89885256Y-118670000D02*
X91615256Y-120400000D01*
X98768414Y-119005000D02*
X101239085Y-119005000D01*
X101239085Y-119005000D02*
X101934085Y-119700000D01*
X93300000Y-101700000D02*
X93154000Y-101846000D01*
X90487500Y-101904500D02*
X90487500Y-102756346D01*
X93300000Y-101200000D02*
X93300000Y-101700000D01*
%TO.N,5212_SDA*%
X92007954Y-103082209D02*
X90525000Y-104565163D01*
X90525000Y-117548762D02*
X90762790Y-117786552D01*
X90525000Y-104565163D02*
X90525000Y-117548762D01*
X92100000Y-102400000D02*
X92100000Y-102990163D01*
X92100000Y-102990163D02*
X92007954Y-103082209D01*
%TO.N,3.3V_LDO*%
X124307500Y-114400000D02*
X124892500Y-114985000D01*
X119499999Y-115600000D02*
X120699999Y-114400000D01*
X120699999Y-114400000D02*
X124307500Y-114400000D01*
%TO.N,Net-(C127-Pad1)*%
X111984900Y-105545000D02*
X112727501Y-105545000D01*
X113900000Y-109900000D02*
X112700000Y-108700000D01*
X112700000Y-108537500D02*
X111675000Y-107512500D01*
X112700000Y-108700000D02*
X112700000Y-108537500D01*
X111675000Y-105854900D02*
X111984900Y-105545000D01*
X112727501Y-105545000D02*
X113372501Y-104900000D01*
X113900000Y-110537500D02*
X113900000Y-109900000D01*
X111675000Y-107512500D02*
X111675000Y-105854900D01*
%TO.N,5212_MCLK1*%
X92150000Y-99400000D02*
X89677500Y-99400000D01*
X89677500Y-99400000D02*
X89337500Y-99740000D01*
%TO.N,GPI1*%
X93450000Y-99400000D02*
X93450000Y-98950000D01*
X93450000Y-98950000D02*
X92850000Y-98350000D01*
X86525799Y-98350000D02*
X85600000Y-99275799D01*
X92850000Y-98350000D02*
X86525799Y-98350000D01*
X85600000Y-99275799D02*
X85600000Y-116400000D01*
%TO.N,DSP_SCL*%
X90417500Y-101200000D02*
X89337500Y-102280000D01*
X92296000Y-101200000D02*
X90417500Y-101200000D01*
%TO.N,DSP_SDA*%
X91096000Y-103061500D02*
X91096000Y-102400000D01*
X89337500Y-104820000D02*
X91096000Y-103061500D01*
%TO.N,OUT1M+*%
X92000000Y-107600000D02*
X92000000Y-107637500D01*
X92000000Y-107637500D02*
X94400000Y-110037500D01*
X104587500Y-102285000D02*
X103412500Y-101110000D01*
X92600000Y-105672500D02*
X92027500Y-105100000D01*
X92000000Y-107600000D02*
X92200000Y-107600000D01*
X94400000Y-110037500D02*
X94400000Y-111100000D01*
X92200000Y-107600000D02*
X92600000Y-107200000D01*
X99200000Y-102400000D02*
X94727500Y-102400000D01*
X103412500Y-101110000D02*
X100490000Y-101110000D01*
X94727500Y-102400000D02*
X92027500Y-105100000D01*
X100490000Y-101110000D02*
X99200000Y-102400000D01*
X92600000Y-107200000D02*
X92600000Y-105672500D01*
%TO.N,OUT2M+*%
X106852140Y-104455000D02*
X107397140Y-103910000D01*
X104850000Y-107987500D02*
X104850000Y-106250000D01*
X104327500Y-105100000D02*
X104972500Y-104455000D01*
X104327500Y-105972500D02*
X104200000Y-106100000D01*
X105500000Y-111000000D02*
X105500000Y-109437500D01*
X108042500Y-103910000D02*
X109667500Y-102285000D01*
X105900000Y-109037500D02*
X104850000Y-107987500D01*
X104972500Y-104455000D02*
X106852140Y-104455000D01*
X104700000Y-106100000D02*
X104200000Y-106100000D01*
X104327500Y-105100000D02*
X104327500Y-105972500D01*
X104850000Y-106250000D02*
X104700000Y-106100000D01*
X105500000Y-109437500D02*
X105900000Y-109037500D01*
X107397140Y-103910000D02*
X108042500Y-103910000D01*
%TO.N,OUT2P+*%
X100300000Y-105427500D02*
X100627500Y-105100000D01*
X100627500Y-105100000D02*
X102267500Y-103460000D01*
X102000000Y-109037500D02*
X100950000Y-107987500D01*
X100300000Y-106325000D02*
X100300000Y-105427500D01*
X102000000Y-110100000D02*
X101000000Y-111100000D01*
X100725000Y-106325000D02*
X100300000Y-106325000D01*
X102267500Y-103460000D02*
X105403276Y-103460000D01*
X105403276Y-103460000D02*
X106578276Y-102285000D01*
X106578276Y-102285000D02*
X107127500Y-102285000D01*
X100950000Y-106550000D02*
X100725000Y-106325000D01*
X100950000Y-107987500D02*
X100950000Y-106550000D01*
X102000000Y-109037500D02*
X102000000Y-110100000D01*
%TO.N,IN1M+*%
X115972500Y-103910000D02*
X114347500Y-102285000D01*
X116662500Y-106262500D02*
X117800000Y-106262500D01*
X116920328Y-103910000D02*
X115972500Y-103910000D01*
X117800000Y-106262500D02*
X117800000Y-104789672D01*
X116300000Y-106625000D02*
X116662500Y-106262500D01*
X117800000Y-104789672D02*
X116920328Y-103910000D01*
%TO.N,IN1P+*%
X114200000Y-106325000D02*
X114200000Y-104654671D01*
X114200000Y-104654671D02*
X111830329Y-102285000D01*
X112700000Y-106462500D02*
X112837500Y-106325000D01*
X112837500Y-106325000D02*
X114200000Y-106325000D01*
X112230329Y-102285000D02*
X112207500Y-102285000D01*
%TO.N,IN2P+*%
X120262500Y-106335000D02*
X121400000Y-106335000D01*
X121400000Y-104789672D02*
X120560328Y-103950000D01*
X118552500Y-103950000D02*
X116887500Y-102285000D01*
X120560328Y-103950000D02*
X118552500Y-103950000D01*
X119900000Y-106697500D02*
X120262500Y-106335000D01*
X121400000Y-106335000D02*
X121400000Y-104789672D01*
%TO.N,IN2M+*%
X120690799Y-102285000D02*
X122005799Y-103600000D01*
X124500000Y-103600000D02*
X125000000Y-104100000D01*
X123500000Y-106735000D02*
X123852500Y-106382500D01*
X123852500Y-106382500D02*
X125000000Y-106382500D01*
X125000000Y-104100000D02*
X125000000Y-106382500D01*
X119827500Y-102285000D02*
X120690799Y-102285000D01*
X122005799Y-103600000D02*
X124500000Y-103600000D01*
%TO.N,OUT1P+*%
X96327500Y-105100000D02*
X98027500Y-103400000D01*
X96500000Y-106400000D02*
X96000000Y-106400000D01*
X96650000Y-106550000D02*
X96500000Y-106400000D01*
X96700000Y-110037500D02*
X97700000Y-109037500D01*
X97700000Y-109037500D02*
X96650000Y-107987500D01*
X96650000Y-107987500D02*
X96650000Y-106550000D01*
X96000000Y-105427500D02*
X96327500Y-105100000D01*
X100932500Y-103400000D02*
X102047500Y-102285000D01*
X96000000Y-106400000D02*
X96000000Y-105427500D01*
X98027500Y-103400000D02*
X100932500Y-103400000D01*
X96700000Y-111100000D02*
X96700000Y-110037500D01*
%TO.N,3.3V_A*%
X118161814Y-117277500D02*
X118161814Y-115886186D01*
X114400000Y-117162500D02*
X115247500Y-116315000D01*
X115247500Y-116315000D02*
X117199313Y-116315000D01*
X117199313Y-116315000D02*
X118161813Y-117277500D01*
X118161814Y-115886186D02*
X118448000Y-115600000D01*
%TO.N,Net-(PU_EN108-Pad1)*%
X110704037Y-118225583D02*
X110678454Y-118200000D01*
X107897904Y-118200000D02*
X107303448Y-118794456D01*
X110678454Y-118200000D02*
X107897904Y-118200000D01*
%TO.N,Net-(R128-Pad2)*%
X111304000Y-119000000D02*
X112509999Y-119000000D01*
X112509999Y-119000000D02*
X112600000Y-119090001D01*
%TO.N,3.3v_IDE*%
X109113413Y-119000000D02*
X108861982Y-118748569D01*
X88162500Y-123775000D02*
X88162500Y-121425000D01*
X88162500Y-121425000D02*
X86797500Y-120060000D01*
X92175001Y-121600000D02*
X92175001Y-122300000D01*
X90700001Y-123775000D02*
X88162500Y-123775000D01*
X92175001Y-122300000D02*
X90700001Y-123775000D01*
X110300001Y-119000000D02*
X109113413Y-119000000D01*
%TO.N,5V_THIN*%
X120200000Y-119300000D02*
X119947500Y-119552500D01*
X122650215Y-118959099D02*
X122134314Y-119475000D01*
X121959314Y-119300000D02*
X122134314Y-119475000D01*
X120200000Y-119300000D02*
X121959314Y-119300000D01*
X123440901Y-118959099D02*
X122650215Y-118959099D01*
X119947500Y-119552500D02*
X118161813Y-119552500D01*
%TO.N,Net-(U109-GND)*%
X117211814Y-119552500D02*
X117211814Y-118890001D01*
X121100001Y-115600000D02*
X121100001Y-116365687D01*
X115047500Y-118590000D02*
X114400000Y-119237500D01*
X120200000Y-117575000D02*
X121959314Y-117575000D01*
X119535000Y-118240000D02*
X118160000Y-118240000D01*
X121100001Y-116365687D02*
X122134314Y-117400000D01*
X121959314Y-117575000D02*
X122134314Y-117400000D01*
X118160000Y-118240000D02*
X117211814Y-119188186D01*
X117211814Y-118890001D02*
X116911813Y-118590000D01*
X120200000Y-117575000D02*
X119535000Y-118240000D01*
X117211814Y-119188186D02*
X117211814Y-119552500D01*
X116911813Y-118590000D02*
X115047500Y-118590000D01*
%TD*%
%TA.AperFunction,Conductor*%
%TO.N,Earth*%
G36*
X86189635Y-97951594D02*
G01*
X86247801Y-97970571D01*
X86283706Y-98020113D01*
X86283633Y-98081299D01*
X86259519Y-98120598D01*
X85319528Y-99060589D01*
X85285499Y-99119530D01*
X85285499Y-99119531D01*
X85273387Y-99140508D01*
X85273386Y-99140510D01*
X85273386Y-99140511D01*
X85250270Y-99226784D01*
X85249500Y-99229656D01*
X85249500Y-116037033D01*
X85230593Y-116095224D01*
X85220510Y-116107030D01*
X85219508Y-116108031D01*
X85156905Y-116216463D01*
X85156905Y-116216464D01*
X85124500Y-116337399D01*
X85124500Y-116462601D01*
X85156905Y-116583536D01*
X85219505Y-116691964D01*
X85308036Y-116780495D01*
X85416464Y-116843095D01*
X85537399Y-116875500D01*
X85537401Y-116875500D01*
X85662601Y-116875500D01*
X85712064Y-116862246D01*
X85773164Y-116865447D01*
X85820714Y-116903951D01*
X85836551Y-116963051D01*
X85825897Y-117002816D01*
X85777627Y-117097552D01*
X85777623Y-117097561D01*
X85724098Y-117262293D01*
X85724097Y-117262297D01*
X85697000Y-117433385D01*
X85697000Y-117606614D01*
X85724097Y-117777702D01*
X85724098Y-117777706D01*
X85777623Y-117942438D01*
X85777625Y-117942441D01*
X85855550Y-118095380D01*
X85856268Y-118096788D01*
X85958086Y-118236928D01*
X86080572Y-118359414D01*
X86220712Y-118461232D01*
X86375055Y-118539873D01*
X86375057Y-118539873D01*
X86375058Y-118539874D01*
X86375061Y-118539876D01*
X86539793Y-118593401D01*
X86539797Y-118593402D01*
X86710886Y-118620500D01*
X86710889Y-118620500D01*
X86884114Y-118620500D01*
X87055202Y-118593402D01*
X87055206Y-118593401D01*
X87219938Y-118539876D01*
X87219940Y-118539874D01*
X87219945Y-118539873D01*
X87374288Y-118461232D01*
X87514428Y-118359414D01*
X87636914Y-118236928D01*
X87705981Y-118141864D01*
X87755480Y-118105902D01*
X87816665Y-118105901D01*
X87866165Y-118141865D01*
X87871809Y-118150555D01*
X87894872Y-118190500D01*
X87907030Y-118211558D01*
X88645942Y-118950470D01*
X88661583Y-118959500D01*
X88704440Y-118984244D01*
X88704442Y-118984245D01*
X88704451Y-118984250D01*
X88706562Y-118985469D01*
X88706935Y-118985684D01*
X88747881Y-119031149D01*
X88754283Y-119091999D01*
X88723695Y-119144990D01*
X88715635Y-119151517D01*
X88620577Y-119220581D01*
X88498085Y-119343073D01*
X88396266Y-119483214D01*
X88317625Y-119637558D01*
X88317623Y-119637561D01*
X88264098Y-119802293D01*
X88264097Y-119802297D01*
X88237000Y-119973385D01*
X88237000Y-120146614D01*
X88264097Y-120317702D01*
X88264098Y-120317706D01*
X88317623Y-120482438D01*
X88317625Y-120482441D01*
X88387500Y-120619581D01*
X88396268Y-120636788D01*
X88498086Y-120776928D01*
X88620572Y-120899414D01*
X88760712Y-121001232D01*
X88915055Y-121079873D01*
X88915057Y-121079873D01*
X88915058Y-121079874D01*
X88915061Y-121079876D01*
X89079793Y-121133401D01*
X89079797Y-121133402D01*
X89250886Y-121160500D01*
X89250889Y-121160500D01*
X89424114Y-121160500D01*
X89595202Y-121133402D01*
X89595206Y-121133401D01*
X89759938Y-121079876D01*
X89759940Y-121079874D01*
X89759945Y-121079873D01*
X89914288Y-121001232D01*
X90054428Y-120899414D01*
X90176914Y-120776928D01*
X90278732Y-120636788D01*
X90357373Y-120482445D01*
X90357374Y-120482440D01*
X90357376Y-120482438D01*
X90410901Y-120317706D01*
X90410902Y-120317702D01*
X90438000Y-120146614D01*
X90438000Y-119973384D01*
X90437683Y-119971383D01*
X90437789Y-119970709D01*
X90437695Y-119969507D01*
X90437983Y-119969484D01*
X90447255Y-119910951D01*
X90490520Y-119867687D01*
X90550952Y-119858116D01*
X90605465Y-119885891D01*
X91400043Y-120680469D01*
X91426502Y-120695745D01*
X91467442Y-120741214D01*
X91473838Y-120802064D01*
X91456254Y-120840810D01*
X91406202Y-120907670D01*
X91355910Y-121042511D01*
X91355908Y-121042522D01*
X91349500Y-121102129D01*
X91349500Y-122097866D01*
X91349501Y-122097870D01*
X91355908Y-122157480D01*
X91355909Y-122157485D01*
X91406202Y-122292329D01*
X91475001Y-122384232D01*
X91494738Y-122442147D01*
X91476664Y-122500602D01*
X91465752Y-122513565D01*
X90607004Y-123372314D01*
X90552487Y-123400091D01*
X90492055Y-123390520D01*
X90448790Y-123347255D01*
X90438000Y-123302310D01*
X90438000Y-121725327D01*
X90437998Y-121725315D01*
X90425755Y-121663768D01*
X90423466Y-121652260D01*
X90399228Y-121615985D01*
X90368102Y-121569400D01*
X90368099Y-121569397D01*
X90285242Y-121514035D01*
X90285240Y-121514034D01*
X90285237Y-121514033D01*
X90285236Y-121514033D01*
X90212184Y-121499501D01*
X90212174Y-121499500D01*
X90212173Y-121499500D01*
X88612000Y-121499500D01*
X88553809Y-121480593D01*
X88517845Y-121431093D01*
X88513000Y-121400500D01*
X88513000Y-121378857D01*
X88513000Y-121378856D01*
X88489114Y-121289712D01*
X88466474Y-121250499D01*
X88466473Y-121250497D01*
X88442972Y-121209791D01*
X88442971Y-121209790D01*
X88442970Y-121209788D01*
X87833889Y-120600707D01*
X87806112Y-120546190D01*
X87815682Y-120485763D01*
X87817373Y-120482445D01*
X87857747Y-120358189D01*
X87870902Y-120317702D01*
X87898000Y-120146614D01*
X87898000Y-119973385D01*
X87870902Y-119802297D01*
X87870901Y-119802293D01*
X87817376Y-119637561D01*
X87817374Y-119637558D01*
X87817373Y-119637557D01*
X87817373Y-119637555D01*
X87738732Y-119483212D01*
X87636914Y-119343072D01*
X87514428Y-119220586D01*
X87374288Y-119118768D01*
X87374287Y-119118767D01*
X87374285Y-119118766D01*
X87219941Y-119040125D01*
X87219938Y-119040123D01*
X87055206Y-118986598D01*
X87055202Y-118986597D01*
X86884114Y-118959500D01*
X86884111Y-118959500D01*
X86710889Y-118959500D01*
X86710886Y-118959500D01*
X86539797Y-118986597D01*
X86539793Y-118986598D01*
X86375061Y-119040123D01*
X86375058Y-119040125D01*
X86220714Y-119118766D01*
X86080573Y-119220585D01*
X85958085Y-119343073D01*
X85856266Y-119483214D01*
X85777625Y-119637558D01*
X85777623Y-119637561D01*
X85724098Y-119802293D01*
X85724097Y-119802297D01*
X85697000Y-119973385D01*
X85697000Y-120146614D01*
X85724097Y-120317702D01*
X85724098Y-120317706D01*
X85777623Y-120482438D01*
X85777625Y-120482441D01*
X85847500Y-120619581D01*
X85856268Y-120636788D01*
X85958086Y-120776928D01*
X86080572Y-120899414D01*
X86220712Y-121001232D01*
X86375055Y-121079873D01*
X86375057Y-121079873D01*
X86375058Y-121079874D01*
X86375061Y-121079876D01*
X86539793Y-121133401D01*
X86539797Y-121133402D01*
X86710886Y-121160500D01*
X86710889Y-121160500D01*
X86884114Y-121160500D01*
X87055202Y-121133402D01*
X87151436Y-121102133D01*
X87219945Y-121079873D01*
X87223247Y-121078190D01*
X87283674Y-121068609D01*
X87338195Y-121096378D01*
X87338207Y-121096389D01*
X87783004Y-121541186D01*
X87810781Y-121595703D01*
X87812000Y-121611190D01*
X87812000Y-121819720D01*
X87793093Y-121877911D01*
X87743593Y-121913875D01*
X87682407Y-121913875D01*
X87639968Y-121885518D01*
X87639664Y-121885823D01*
X87638134Y-121884293D01*
X87637722Y-121884018D01*
X87636919Y-121883078D01*
X87636916Y-121883075D01*
X87636914Y-121883072D01*
X87514428Y-121760586D01*
X87374288Y-121658768D01*
X87374287Y-121658767D01*
X87374285Y-121658766D01*
X87219941Y-121580125D01*
X87219938Y-121580123D01*
X87055206Y-121526598D01*
X87055202Y-121526597D01*
X86884114Y-121499500D01*
X86884111Y-121499500D01*
X86710889Y-121499500D01*
X86710886Y-121499500D01*
X86539797Y-121526597D01*
X86539793Y-121526598D01*
X86375061Y-121580123D01*
X86375058Y-121580125D01*
X86220714Y-121658766D01*
X86080573Y-121760585D01*
X85958085Y-121883073D01*
X85856266Y-122023214D01*
X85777625Y-122177558D01*
X85777623Y-122177561D01*
X85724098Y-122342293D01*
X85724097Y-122342297D01*
X85697000Y-122513385D01*
X85697000Y-122686612D01*
X85724097Y-122857702D01*
X85724098Y-122857706D01*
X85777623Y-123022438D01*
X85777625Y-123022441D01*
X85853581Y-123171516D01*
X85856268Y-123176788D01*
X85958086Y-123316928D01*
X86080572Y-123439414D01*
X86220712Y-123541232D01*
X86375055Y-123619873D01*
X86375057Y-123619873D01*
X86375058Y-123619874D01*
X86375061Y-123619876D01*
X86539793Y-123673401D01*
X86539797Y-123673402D01*
X86710886Y-123700500D01*
X86710889Y-123700500D01*
X86884114Y-123700500D01*
X87055202Y-123673402D01*
X87055206Y-123673401D01*
X87219938Y-123619876D01*
X87219940Y-123619874D01*
X87219945Y-123619873D01*
X87374288Y-123541232D01*
X87514428Y-123439414D01*
X87636914Y-123316928D01*
X87636920Y-123316919D01*
X87637714Y-123315991D01*
X87638065Y-123315775D01*
X87639664Y-123314177D01*
X87640047Y-123314560D01*
X87689880Y-123284017D01*
X87750877Y-123288811D01*
X87797407Y-123328544D01*
X87812000Y-123380279D01*
X87812000Y-123728856D01*
X87812000Y-123821144D01*
X87835886Y-123910288D01*
X87835887Y-123910290D01*
X87878176Y-123983536D01*
X87882031Y-123990212D01*
X87947288Y-124055469D01*
X88027212Y-124101614D01*
X88116356Y-124125500D01*
X88116358Y-124125500D01*
X90746143Y-124125500D01*
X90746145Y-124125500D01*
X90835289Y-124101614D01*
X90871913Y-124080469D01*
X90915213Y-124055470D01*
X92391187Y-122579494D01*
X92445704Y-122551718D01*
X92461191Y-122550499D01*
X92547867Y-122550499D01*
X92547872Y-122550499D01*
X92607483Y-122544091D01*
X92689328Y-122513565D01*
X92742329Y-122493797D01*
X92742329Y-122493796D01*
X92742331Y-122493796D01*
X92857546Y-122407546D01*
X92943796Y-122292331D01*
X92994091Y-122157483D01*
X93000500Y-122097873D01*
X93000499Y-121102128D01*
X92994091Y-121042517D01*
X92956516Y-120941772D01*
X92943796Y-120907668D01*
X92940404Y-120901456D01*
X92941876Y-120900651D01*
X92924928Y-120850908D01*
X92943006Y-120792454D01*
X92991989Y-120755790D01*
X93023918Y-120750500D01*
X93376082Y-120750500D01*
X93434273Y-120769407D01*
X93470237Y-120818907D01*
X93470237Y-120880093D01*
X93459255Y-120901270D01*
X93459596Y-120901456D01*
X93456203Y-120907668D01*
X93405910Y-121042511D01*
X93405908Y-121042522D01*
X93399500Y-121102129D01*
X93399500Y-122097866D01*
X93399501Y-122097870D01*
X93405908Y-122157480D01*
X93405909Y-122157485D01*
X93456202Y-122292329D01*
X93525001Y-122384232D01*
X93542454Y-122407546D01*
X93542457Y-122407548D01*
X93542458Y-122407549D01*
X93653620Y-122490765D01*
X93688873Y-122540774D01*
X93687999Y-122601953D01*
X93664295Y-122640021D01*
X93208814Y-123095503D01*
X93154297Y-123123281D01*
X93138810Y-123124500D01*
X93137399Y-123124500D01*
X93056775Y-123146103D01*
X93016463Y-123156905D01*
X92908036Y-123219505D01*
X92819505Y-123308036D01*
X92756905Y-123416463D01*
X92756905Y-123416464D01*
X92724500Y-123537399D01*
X92724500Y-123662601D01*
X92756905Y-123783536D01*
X92819505Y-123891964D01*
X92908036Y-123980495D01*
X93016464Y-124043095D01*
X93137399Y-124075500D01*
X93137401Y-124075500D01*
X93262599Y-124075500D01*
X93262601Y-124075500D01*
X93383536Y-124043095D01*
X93491964Y-123980495D01*
X93580495Y-123891964D01*
X93643095Y-123783536D01*
X93675500Y-123662601D01*
X93675500Y-123661189D01*
X93675812Y-123660226D01*
X93676347Y-123656168D01*
X93677099Y-123656267D01*
X93694407Y-123602998D01*
X93704490Y-123591191D01*
X94505468Y-122790214D01*
X94551613Y-122710289D01*
X94556617Y-122691614D01*
X94557957Y-122686612D01*
X94557957Y-122686611D01*
X94575499Y-122621145D01*
X94575499Y-122621143D01*
X94576761Y-122616434D01*
X94610086Y-122565120D01*
X94651972Y-122547716D01*
X94651452Y-122545516D01*
X94657478Y-122544091D01*
X94657483Y-122544091D01*
X94739328Y-122513565D01*
X94792329Y-122493797D01*
X94792329Y-122493796D01*
X94792331Y-122493796D01*
X94907546Y-122407546D01*
X94928857Y-122379077D01*
X94978865Y-122343825D01*
X95040044Y-122344699D01*
X95089026Y-122381366D01*
X95107100Y-122439821D01*
X95106263Y-122451328D01*
X95102000Y-122483708D01*
X95102000Y-122726289D01*
X95133661Y-122966781D01*
X95133661Y-122966786D01*
X95196444Y-123201092D01*
X95196448Y-123201105D01*
X95289272Y-123425204D01*
X95289274Y-123425208D01*
X95289276Y-123425212D01*
X95404551Y-123624874D01*
X95410566Y-123635292D01*
X95558229Y-123827731D01*
X95558231Y-123827733D01*
X95558235Y-123827738D01*
X95729762Y-123999265D01*
X95729766Y-123999268D01*
X95729768Y-123999270D01*
X95850570Y-124091964D01*
X95922211Y-124146936D01*
X96040559Y-124215264D01*
X96081499Y-124260733D01*
X96087895Y-124321583D01*
X96057302Y-124374571D01*
X96001406Y-124399458D01*
X95991058Y-124400000D01*
X84949000Y-124400000D01*
X84890809Y-124381093D01*
X84854845Y-124331593D01*
X84850000Y-124301000D01*
X84850000Y-98049117D01*
X84868907Y-97990926D01*
X84918407Y-97954962D01*
X84949111Y-97950117D01*
X86189635Y-97951594D01*
G37*
%TD.AperFunction*%
%TA.AperFunction,Conductor*%
G36*
X104121575Y-99552007D02*
G01*
X104087500Y-99679174D01*
X104087500Y-99810826D01*
X104121575Y-99937993D01*
X104154488Y-99995000D01*
X102480512Y-99995000D01*
X102513425Y-99937993D01*
X102547500Y-99810826D01*
X102547500Y-99679174D01*
X102513425Y-99552007D01*
X102480512Y-99495000D01*
X104154488Y-99495000D01*
X104121575Y-99552007D01*
G37*
%TD.AperFunction*%
%TA.AperFunction,Conductor*%
G36*
X106661575Y-99552007D02*
G01*
X106627500Y-99679174D01*
X106627500Y-99810826D01*
X106661575Y-99937993D01*
X106694488Y-99995000D01*
X105020512Y-99995000D01*
X105053425Y-99937993D01*
X105087500Y-99810826D01*
X105087500Y-99679174D01*
X105053425Y-99552007D01*
X105020512Y-99495000D01*
X106694488Y-99495000D01*
X106661575Y-99552007D01*
G37*
%TD.AperFunction*%
%TA.AperFunction,Conductor*%
G36*
X109201575Y-99552007D02*
G01*
X109167500Y-99679174D01*
X109167500Y-99810826D01*
X109201575Y-99937993D01*
X109234488Y-99995000D01*
X107560512Y-99995000D01*
X107593425Y-99937993D01*
X107627500Y-99810826D01*
X107627500Y-99679174D01*
X107593425Y-99552007D01*
X107560512Y-99495000D01*
X109234488Y-99495000D01*
X109201575Y-99552007D01*
G37*
%TD.AperFunction*%
%TA.AperFunction,Conductor*%
G36*
X111741575Y-99552007D02*
G01*
X111707500Y-99679174D01*
X111707500Y-99810826D01*
X111741575Y-99937993D01*
X111774488Y-99995000D01*
X110100512Y-99995000D01*
X110133425Y-99937993D01*
X110167500Y-99810826D01*
X110167500Y-99679174D01*
X110133425Y-99552007D01*
X110100512Y-99495000D01*
X111774488Y-99495000D01*
X111741575Y-99552007D01*
G37*
%TD.AperFunction*%
%TA.AperFunction,Conductor*%
G36*
X114281575Y-99552007D02*
G01*
X114247500Y-99679174D01*
X114247500Y-99810826D01*
X114281575Y-99937993D01*
X114314488Y-99995000D01*
X112640512Y-99995000D01*
X112673425Y-99937993D01*
X112707500Y-99810826D01*
X112707500Y-99679174D01*
X112673425Y-99552007D01*
X112640512Y-99495000D01*
X114314488Y-99495000D01*
X114281575Y-99552007D01*
G37*
%TD.AperFunction*%
%TA.AperFunction,Conductor*%
G36*
X116821575Y-99552007D02*
G01*
X116787500Y-99679174D01*
X116787500Y-99810826D01*
X116821575Y-99937993D01*
X116854488Y-99995000D01*
X115180512Y-99995000D01*
X115213425Y-99937993D01*
X115247500Y-99810826D01*
X115247500Y-99679174D01*
X115213425Y-99552007D01*
X115180512Y-99495000D01*
X116854488Y-99495000D01*
X116821575Y-99552007D01*
G37*
%TD.AperFunction*%
%TA.AperFunction,Conductor*%
G36*
X119361575Y-99552007D02*
G01*
X119327500Y-99679174D01*
X119327500Y-99810826D01*
X119361575Y-99937993D01*
X119394488Y-99995000D01*
X117720512Y-99995000D01*
X117753425Y-99937993D01*
X117787500Y-99810826D01*
X117787500Y-99679174D01*
X117753425Y-99552007D01*
X117720512Y-99495000D01*
X119394488Y-99495000D01*
X119361575Y-99552007D01*
G37*
%TD.AperFunction*%
%TA.AperFunction,Conductor*%
G36*
X95968253Y-97963235D02*
G01*
X96026419Y-97982212D01*
X96062324Y-98031754D01*
X96062251Y-98092940D01*
X96026228Y-98142397D01*
X96017633Y-98147971D01*
X95922213Y-98203062D01*
X95729768Y-98350729D01*
X95558229Y-98522268D01*
X95410566Y-98714707D01*
X95289272Y-98924795D01*
X95196448Y-99148894D01*
X95196444Y-99148907D01*
X95133661Y-99383213D01*
X95133661Y-99383218D01*
X95102000Y-99623710D01*
X95102000Y-99866289D01*
X95133661Y-100106781D01*
X95133661Y-100106786D01*
X95196444Y-100341092D01*
X95196448Y-100341105D01*
X95289272Y-100565204D01*
X95289274Y-100565208D01*
X95289276Y-100565212D01*
X95404853Y-100765397D01*
X95410566Y-100775292D01*
X95558229Y-100967731D01*
X95558231Y-100967733D01*
X95558235Y-100967738D01*
X95729762Y-101139265D01*
X95729766Y-101139268D01*
X95729768Y-101139270D01*
X95893784Y-101265123D01*
X95922211Y-101286936D01*
X96132288Y-101408224D01*
X96356400Y-101501054D01*
X96590711Y-101563838D01*
X96831212Y-101595500D01*
X96831213Y-101595500D01*
X97073787Y-101595500D01*
X97073788Y-101595500D01*
X97314289Y-101563838D01*
X97548600Y-101501054D01*
X97772712Y-101408224D01*
X97982789Y-101286936D01*
X98175238Y-101139265D01*
X98346765Y-100967738D01*
X98494436Y-100775289D01*
X98615724Y-100565212D01*
X98708554Y-100341100D01*
X98771338Y-100106789D01*
X98803000Y-99866288D01*
X98803000Y-99623712D01*
X98771338Y-99383211D01*
X98708554Y-99148900D01*
X98656435Y-99023073D01*
X98615726Y-98924791D01*
X98615723Y-98924786D01*
X98597962Y-98894024D01*
X98494436Y-98714711D01*
X98447014Y-98652909D01*
X98346770Y-98522268D01*
X98346768Y-98522266D01*
X98346765Y-98522262D01*
X98175238Y-98350735D01*
X98175233Y-98350731D01*
X98175231Y-98350729D01*
X97982792Y-98203066D01*
X97982789Y-98203064D01*
X97891432Y-98150319D01*
X97850492Y-98104850D01*
X97844096Y-98044000D01*
X97874689Y-97991012D01*
X97930585Y-97966125D01*
X97941022Y-97965584D01*
X123850763Y-97996429D01*
X123908927Y-98015405D01*
X123944832Y-98064947D01*
X123944759Y-98126133D01*
X123908736Y-98175590D01*
X123900142Y-98181164D01*
X123862210Y-98203064D01*
X123669768Y-98350729D01*
X123498229Y-98522268D01*
X123350566Y-98714707D01*
X123229272Y-98924795D01*
X123136448Y-99148894D01*
X123136444Y-99148907D01*
X123073661Y-99383213D01*
X123073661Y-99383218D01*
X123042000Y-99623710D01*
X123042000Y-99866289D01*
X123073661Y-100106781D01*
X123073661Y-100106786D01*
X123136444Y-100341092D01*
X123136448Y-100341105D01*
X123229272Y-100565204D01*
X123229274Y-100565208D01*
X123229276Y-100565212D01*
X123344853Y-100765397D01*
X123350566Y-100775292D01*
X123498229Y-100967731D01*
X123498231Y-100967733D01*
X123498235Y-100967738D01*
X123669762Y-101139265D01*
X123669766Y-101139268D01*
X123669768Y-101139270D01*
X123833784Y-101265123D01*
X123862211Y-101286936D01*
X124072288Y-101408224D01*
X124296400Y-101501054D01*
X124530711Y-101563838D01*
X124771212Y-101595500D01*
X124771213Y-101595500D01*
X125013787Y-101595500D01*
X125013788Y-101595500D01*
X125254289Y-101563838D01*
X125488600Y-101501054D01*
X125712712Y-101408224D01*
X125922789Y-101286936D01*
X126115238Y-101139265D01*
X126286765Y-100967738D01*
X126434436Y-100775289D01*
X126555724Y-100565212D01*
X126641536Y-100358041D01*
X126681272Y-100311516D01*
X126740767Y-100297232D01*
X126797295Y-100320646D01*
X126829265Y-100372815D01*
X126832000Y-100395927D01*
X126832000Y-121954072D01*
X126813093Y-122012263D01*
X126763593Y-122048227D01*
X126702407Y-122048227D01*
X126652907Y-122012263D01*
X126641536Y-121991957D01*
X126555727Y-121784795D01*
X126555726Y-121784794D01*
X126555724Y-121784788D01*
X126434436Y-121574711D01*
X126430360Y-121569399D01*
X126286770Y-121382268D01*
X126286768Y-121382266D01*
X126286765Y-121382262D01*
X126115238Y-121210735D01*
X126115233Y-121210731D01*
X126115231Y-121210729D01*
X125922792Y-121063066D01*
X125887209Y-121042522D01*
X125712712Y-120941776D01*
X125712708Y-120941774D01*
X125712704Y-120941772D01*
X125488605Y-120848948D01*
X125488604Y-120848947D01*
X125488600Y-120848946D01*
X125254289Y-120786162D01*
X125254286Y-120786161D01*
X125254284Y-120786161D01*
X125013789Y-120754500D01*
X125013788Y-120754500D01*
X124771212Y-120754500D01*
X124771210Y-120754500D01*
X124530718Y-120786161D01*
X124530713Y-120786161D01*
X124296407Y-120848944D01*
X124296394Y-120848948D01*
X124072295Y-120941772D01*
X123862207Y-121063066D01*
X123669768Y-121210729D01*
X123498229Y-121382268D01*
X123350566Y-121574707D01*
X123229272Y-121784795D01*
X123136448Y-122008894D01*
X123136444Y-122008907D01*
X123073661Y-122243213D01*
X123073661Y-122243218D01*
X123042000Y-122483710D01*
X123042000Y-122726289D01*
X123073661Y-122966781D01*
X123073661Y-122966786D01*
X123136444Y-123201092D01*
X123136448Y-123201105D01*
X123229272Y-123425204D01*
X123229274Y-123425208D01*
X123229276Y-123425212D01*
X123344551Y-123624874D01*
X123350566Y-123635292D01*
X123498229Y-123827731D01*
X123498231Y-123827733D01*
X123498235Y-123827738D01*
X123669762Y-123999265D01*
X123669766Y-123999268D01*
X123669768Y-123999270D01*
X123790570Y-124091964D01*
X123862211Y-124146936D01*
X123980559Y-124215264D01*
X124021499Y-124260733D01*
X124027895Y-124321583D01*
X123997302Y-124374571D01*
X123941406Y-124399458D01*
X123931058Y-124400000D01*
X99681242Y-124400000D01*
X99623051Y-124381093D01*
X99587087Y-124331593D01*
X99587087Y-124270407D01*
X99623051Y-124220907D01*
X99631732Y-124215269D01*
X99691964Y-124180495D01*
X99780495Y-124091964D01*
X99843095Y-123983536D01*
X99875500Y-123862601D01*
X99875500Y-123737399D01*
X99843095Y-123616464D01*
X99780495Y-123508036D01*
X99691964Y-123419505D01*
X99583536Y-123356905D01*
X99462601Y-123324500D01*
X99462599Y-123324500D01*
X99461190Y-123324500D01*
X99460228Y-123324187D01*
X99456168Y-123323653D01*
X99456267Y-123322900D01*
X99453592Y-123322031D01*
X99445703Y-123323281D01*
X99425047Y-123312756D01*
X99402999Y-123305593D01*
X99391186Y-123295504D01*
X99379496Y-123283814D01*
X99351719Y-123229297D01*
X99350500Y-123213810D01*
X99350500Y-119949553D01*
X99369407Y-119891362D01*
X99379490Y-119879555D01*
X99387082Y-119871964D01*
X99449682Y-119763536D01*
X99482087Y-119642601D01*
X99482087Y-119517399D01*
X99472099Y-119480123D01*
X99475300Y-119419023D01*
X99513805Y-119371472D01*
X99567725Y-119355500D01*
X101052896Y-119355500D01*
X101111087Y-119374407D01*
X101122899Y-119384496D01*
X101429588Y-119691184D01*
X101457366Y-119745701D01*
X101458585Y-119761188D01*
X101458585Y-119762601D01*
X101490990Y-119883536D01*
X101553590Y-119991964D01*
X101642121Y-120080495D01*
X101647493Y-120083596D01*
X101688438Y-120129062D01*
X101697000Y-120169336D01*
X101697000Y-121405500D01*
X101678093Y-121463691D01*
X101628593Y-121499655D01*
X101598000Y-121504500D01*
X101172826Y-121504500D01*
X101172825Y-121504500D01*
X101172815Y-121504501D01*
X101099763Y-121519033D01*
X101099757Y-121519035D01*
X101016900Y-121574397D01*
X101016897Y-121574400D01*
X100961535Y-121657257D01*
X100961533Y-121657263D01*
X100947001Y-121730315D01*
X100947000Y-121730327D01*
X100947000Y-123479672D01*
X100947001Y-123479684D01*
X100961533Y-123552736D01*
X100961535Y-123552742D01*
X101016897Y-123635599D01*
X101016900Y-123635602D01*
X101057308Y-123662601D01*
X101099760Y-123690966D01*
X101147690Y-123700500D01*
X101172815Y-123705498D01*
X101172820Y-123705498D01*
X101172826Y-123705500D01*
X101172827Y-123705500D01*
X102922173Y-123705500D01*
X102922174Y-123705500D01*
X102995240Y-123690966D01*
X103078101Y-123635601D01*
X103133466Y-123552740D01*
X103148000Y-123479674D01*
X103148000Y-122518385D01*
X103487000Y-122518385D01*
X103487000Y-122691614D01*
X103514097Y-122862702D01*
X103514098Y-122862706D01*
X103567623Y-123027438D01*
X103567625Y-123027441D01*
X103643718Y-123176785D01*
X103646268Y-123181788D01*
X103748086Y-123321928D01*
X103870572Y-123444414D01*
X104010712Y-123546232D01*
X104165055Y-123624873D01*
X104165057Y-123624873D01*
X104165058Y-123624874D01*
X104165061Y-123624876D01*
X104329793Y-123678401D01*
X104329797Y-123678402D01*
X104500886Y-123705500D01*
X104500889Y-123705500D01*
X104674114Y-123705500D01*
X104845202Y-123678402D01*
X104845206Y-123678401D01*
X105009938Y-123624876D01*
X105009940Y-123624874D01*
X105009945Y-123624873D01*
X105164288Y-123546232D01*
X105304428Y-123444414D01*
X105426914Y-123321928D01*
X105528732Y-123181788D01*
X105607373Y-123027445D01*
X105607374Y-123027440D01*
X105607376Y-123027438D01*
X105660901Y-122862706D01*
X105660902Y-122862702D01*
X105688000Y-122691614D01*
X105688000Y-122518385D01*
X105660902Y-122347297D01*
X105660901Y-122347293D01*
X105607376Y-122182561D01*
X105607374Y-122182558D01*
X105607373Y-122182557D01*
X105607373Y-122182555D01*
X105528732Y-122028212D01*
X105426914Y-121888072D01*
X105304428Y-121765586D01*
X105164288Y-121663768D01*
X105164287Y-121663767D01*
X105164285Y-121663766D01*
X105009941Y-121585125D01*
X105009938Y-121585123D01*
X104845206Y-121531598D01*
X104845202Y-121531597D01*
X104674114Y-121504500D01*
X104674111Y-121504500D01*
X104500889Y-121504500D01*
X104500886Y-121504500D01*
X104329797Y-121531597D01*
X104329793Y-121531598D01*
X104165061Y-121585123D01*
X104165058Y-121585125D01*
X104010714Y-121663766D01*
X103870573Y-121765585D01*
X103748085Y-121888073D01*
X103646266Y-122028214D01*
X103567625Y-122182558D01*
X103567623Y-122182561D01*
X103514098Y-122347293D01*
X103514097Y-122347297D01*
X103487000Y-122518385D01*
X103148000Y-122518385D01*
X103148000Y-121730326D01*
X103147005Y-121725326D01*
X103144515Y-121712808D01*
X103133466Y-121657260D01*
X103115214Y-121629944D01*
X103078102Y-121574400D01*
X103078099Y-121574397D01*
X102995242Y-121519035D01*
X102995240Y-121519034D01*
X102995237Y-121519033D01*
X102995236Y-121519033D01*
X102922184Y-121504501D01*
X102922174Y-121504500D01*
X102922173Y-121504500D01*
X102497000Y-121504500D01*
X102438809Y-121485593D01*
X102402845Y-121436093D01*
X102398000Y-121405500D01*
X102398000Y-119818871D01*
X102401373Y-119793248D01*
X102402173Y-119790261D01*
X102409585Y-119762601D01*
X102409585Y-119637399D01*
X102377180Y-119516464D01*
X102314580Y-119408036D01*
X102226049Y-119319505D01*
X102117621Y-119256905D01*
X101996686Y-119224500D01*
X101996684Y-119224500D01*
X101995274Y-119224500D01*
X101994311Y-119224187D01*
X101990253Y-119223653D01*
X101990352Y-119222900D01*
X101937083Y-119205593D01*
X101925270Y-119195504D01*
X101707758Y-118977992D01*
X101454297Y-118724530D01*
X101374373Y-118678386D01*
X101285229Y-118654500D01*
X98722270Y-118654500D01*
X98633126Y-118678386D01*
X98553202Y-118724530D01*
X97257228Y-120020504D01*
X97202711Y-120048281D01*
X97187224Y-120049500D01*
X95144412Y-120049500D01*
X95086221Y-120030593D01*
X95050257Y-119981093D01*
X95045979Y-119939919D01*
X95050500Y-119897873D01*
X95050499Y-118902128D01*
X95044091Y-118842517D01*
X95043221Y-118840184D01*
X94993797Y-118707670D01*
X94907549Y-118592458D01*
X94907548Y-118592457D01*
X94907546Y-118592454D01*
X94890378Y-118579602D01*
X94792329Y-118506202D01*
X94657488Y-118455910D01*
X94657483Y-118455909D01*
X94657481Y-118455908D01*
X94657477Y-118455908D01*
X94624762Y-118452391D01*
X94597873Y-118449500D01*
X94597870Y-118449500D01*
X93937596Y-118449500D01*
X93879405Y-118430593D01*
X93843441Y-118381093D01*
X93840402Y-118348003D01*
X93838925Y-118348003D01*
X93838925Y-118216314D01*
X93838925Y-118216312D01*
X93806520Y-118095377D01*
X93743920Y-117986949D01*
X93655389Y-117898418D01*
X93546961Y-117835818D01*
X93426026Y-117803413D01*
X93300824Y-117803413D01*
X93233238Y-117821523D01*
X93179888Y-117835818D01*
X93089019Y-117888281D01*
X93071461Y-117898418D01*
X92982930Y-117986949D01*
X92920520Y-118095049D01*
X92920329Y-118095379D01*
X92920328Y-118095380D01*
X92903912Y-118156646D01*
X92878290Y-118201026D01*
X92655354Y-118423962D01*
X92600837Y-118451739D01*
X92574770Y-118452391D01*
X92550908Y-118449826D01*
X92547873Y-118449500D01*
X92547872Y-118449500D01*
X91802133Y-118449500D01*
X91802129Y-118449500D01*
X91802128Y-118449501D01*
X91794949Y-118450272D01*
X91742519Y-118455908D01*
X91742514Y-118455909D01*
X91607670Y-118506202D01*
X91492458Y-118592450D01*
X91492450Y-118592458D01*
X91406202Y-118707670D01*
X91355910Y-118842511D01*
X91355908Y-118842522D01*
X91349500Y-118902129D01*
X91349500Y-119399554D01*
X91330593Y-119457745D01*
X91281093Y-119493709D01*
X91219907Y-119493709D01*
X91180496Y-119469558D01*
X90132393Y-118421455D01*
X90104616Y-118366938D01*
X90114187Y-118306506D01*
X90132391Y-118281450D01*
X90176914Y-118236928D01*
X90261869Y-118119996D01*
X90311368Y-118084034D01*
X90372554Y-118084034D01*
X90411962Y-118108183D01*
X90470826Y-118167047D01*
X90579254Y-118229647D01*
X90700189Y-118262052D01*
X90700191Y-118262052D01*
X90825389Y-118262052D01*
X90825391Y-118262052D01*
X90946326Y-118229647D01*
X91054754Y-118167047D01*
X91143285Y-118078516D01*
X91205885Y-117970088D01*
X91238290Y-117849153D01*
X91238290Y-117723951D01*
X91205885Y-117603016D01*
X91143285Y-117494588D01*
X91054754Y-117406057D01*
X90946326Y-117343457D01*
X90946324Y-117343456D01*
X90946320Y-117343454D01*
X90940330Y-117340973D01*
X90941106Y-117339098D01*
X90897551Y-117310801D01*
X90875635Y-117253675D01*
X90875500Y-117248513D01*
X90875500Y-106978856D01*
X91074500Y-106978856D01*
X91074500Y-108221144D01*
X91098386Y-108310288D01*
X91098387Y-108310290D01*
X91138561Y-108379873D01*
X91144531Y-108390212D01*
X91209788Y-108455469D01*
X91285450Y-108499153D01*
X91326389Y-108544621D01*
X91334948Y-108584888D01*
X91334948Y-110524752D01*
X91331575Y-110550373D01*
X91324500Y-110576777D01*
X91324500Y-110576780D01*
X91324500Y-111623220D01*
X91331575Y-111649623D01*
X91334948Y-111675246D01*
X91334948Y-112158262D01*
X91316041Y-112216453D01*
X91305952Y-112228265D01*
X91219530Y-112314687D01*
X91209994Y-112331204D01*
X91181251Y-112380989D01*
X91181250Y-112380989D01*
X91173387Y-112394609D01*
X91173386Y-112394611D01*
X91173386Y-112394612D01*
X91149500Y-112483756D01*
X91149500Y-114066244D01*
X91156325Y-114091715D01*
X91165110Y-114124500D01*
X91165110Y-114124501D01*
X91173384Y-114155384D01*
X91173385Y-114155387D01*
X91173386Y-114155388D01*
X91219530Y-114235312D01*
X91305953Y-114321735D01*
X91333729Y-114376250D01*
X91334948Y-114391737D01*
X91334948Y-114506592D01*
X91349942Y-114562554D01*
X91358832Y-114595733D01*
X91358833Y-114595735D01*
X91358834Y-114595737D01*
X91404978Y-114675661D01*
X91833227Y-115103909D01*
X92085494Y-115356176D01*
X92113271Y-115410693D01*
X92103700Y-115471125D01*
X92060435Y-115514390D01*
X92026074Y-115524613D01*
X91967522Y-115530908D01*
X91967512Y-115530910D01*
X91832671Y-115581202D01*
X91717458Y-115667450D01*
X91717450Y-115667458D01*
X91631202Y-115782671D01*
X91580910Y-115917512D01*
X91580908Y-115917523D01*
X91577230Y-115951736D01*
X91574500Y-115977128D01*
X91574500Y-117072872D01*
X91577154Y-117097555D01*
X91580908Y-117132476D01*
X91580910Y-117132487D01*
X91631202Y-117267328D01*
X91710597Y-117373386D01*
X91717454Y-117382546D01*
X91717457Y-117382548D01*
X91717458Y-117382549D01*
X91832671Y-117468797D01*
X91967512Y-117519089D01*
X91967513Y-117519089D01*
X91967518Y-117519091D01*
X92027128Y-117525500D01*
X92027131Y-117525500D01*
X93972869Y-117525500D01*
X93972872Y-117525500D01*
X94032482Y-117519091D01*
X94130478Y-117482541D01*
X94167328Y-117468797D01*
X94167328Y-117468796D01*
X94167330Y-117468796D01*
X94282546Y-117382546D01*
X94368796Y-117267330D01*
X94368809Y-117267297D01*
X94409982Y-117156905D01*
X94419091Y-117132482D01*
X94425500Y-117072872D01*
X94425500Y-116504315D01*
X94444407Y-116446124D01*
X94493907Y-116410160D01*
X94555093Y-116410160D01*
X94573994Y-116418575D01*
X94616464Y-116443095D01*
X94737399Y-116475500D01*
X94737401Y-116475500D01*
X94862599Y-116475500D01*
X94862601Y-116475500D01*
X94983536Y-116443095D01*
X95091964Y-116380495D01*
X95180495Y-116291964D01*
X95243095Y-116183536D01*
X95275500Y-116062601D01*
X95275500Y-115937399D01*
X95243095Y-115816464D01*
X95180495Y-115708036D01*
X95091964Y-115619505D01*
X94983536Y-115556905D01*
X94862601Y-115524500D01*
X94737399Y-115524500D01*
X94656775Y-115546103D01*
X94616463Y-115556905D01*
X94508033Y-115619507D01*
X94439341Y-115688199D01*
X94384824Y-115715976D01*
X94324392Y-115706404D01*
X94290086Y-115677526D01*
X94282548Y-115667457D01*
X94282546Y-115667454D01*
X94246953Y-115640809D01*
X94167328Y-115581202D01*
X94032487Y-115530910D01*
X94032482Y-115530909D01*
X94032480Y-115530908D01*
X94032476Y-115530908D01*
X94001248Y-115527550D01*
X93972872Y-115524500D01*
X93972869Y-115524500D01*
X93286188Y-115524500D01*
X93278590Y-115522031D01*
X93270701Y-115523281D01*
X93250045Y-115512756D01*
X93227997Y-115505593D01*
X93216184Y-115495504D01*
X93131465Y-115410785D01*
X93103688Y-115356268D01*
X93113259Y-115295836D01*
X93156524Y-115252571D01*
X93175847Y-115245155D01*
X93183536Y-115243095D01*
X93291964Y-115180495D01*
X93380495Y-115091964D01*
X93443095Y-114983536D01*
X93475500Y-114862601D01*
X93475500Y-114737399D01*
X93443095Y-114616464D01*
X93380495Y-114508036D01*
X93316960Y-114444501D01*
X93289185Y-114389987D01*
X93298756Y-114329555D01*
X93342021Y-114286290D01*
X93386966Y-114275500D01*
X93972869Y-114275500D01*
X93972872Y-114275500D01*
X94032482Y-114269091D01*
X94079304Y-114251627D01*
X94167328Y-114218797D01*
X94167328Y-114218796D01*
X94167330Y-114218796D01*
X94282546Y-114132546D01*
X94368796Y-114017330D01*
X94388267Y-113965127D01*
X94419089Y-113882487D01*
X94419088Y-113882487D01*
X94419091Y-113882482D01*
X94425500Y-113822872D01*
X94425500Y-112727128D01*
X94419091Y-112667518D01*
X94419011Y-112667304D01*
X94368797Y-112532671D01*
X94282549Y-112417458D01*
X94282548Y-112417457D01*
X94282546Y-112417454D01*
X94272833Y-112410183D01*
X94167328Y-112331202D01*
X94032487Y-112280910D01*
X94032482Y-112280909D01*
X94032480Y-112280908D01*
X94032476Y-112280908D01*
X94001248Y-112277550D01*
X93972872Y-112274500D01*
X93972869Y-112274500D01*
X93449500Y-112274500D01*
X93391309Y-112255593D01*
X93355345Y-112206093D01*
X93350500Y-112175500D01*
X93350500Y-111653857D01*
X93350500Y-111653856D01*
X93326614Y-111564712D01*
X93307111Y-111530932D01*
X93302532Y-111523002D01*
X93294962Y-111487375D01*
X93289814Y-111463163D01*
X93289815Y-111463156D01*
X93289815Y-111463154D01*
X93289817Y-111463148D01*
X93293279Y-111448432D01*
X93292827Y-111448325D01*
X93294251Y-111442299D01*
X93296097Y-111425125D01*
X93300500Y-111384174D01*
X93300500Y-110815826D01*
X93294251Y-110757701D01*
X93294248Y-110757692D01*
X93245213Y-110626223D01*
X93161119Y-110513888D01*
X93161118Y-110513887D01*
X93161116Y-110513884D01*
X93127726Y-110488888D01*
X93048776Y-110429786D01*
X92917304Y-110380750D01*
X92917299Y-110380749D01*
X92917297Y-110380748D01*
X92917293Y-110380748D01*
X92891011Y-110377922D01*
X92859174Y-110374500D01*
X92190826Y-110374500D01*
X92190824Y-110374500D01*
X92145528Y-110379369D01*
X92085650Y-110366789D01*
X92044602Y-110321416D01*
X92035948Y-110280936D01*
X92035948Y-108408138D01*
X92054855Y-108349947D01*
X92104355Y-108313983D01*
X92165541Y-108313983D01*
X92204952Y-108338134D01*
X92645504Y-108778686D01*
X92673281Y-108833203D01*
X92674500Y-108848690D01*
X92674500Y-109209170D01*
X92674499Y-109209170D01*
X92680748Y-109267293D01*
X92680750Y-109267304D01*
X92729786Y-109398776D01*
X92792236Y-109482198D01*
X92813884Y-109511116D01*
X92813887Y-109511118D01*
X92813888Y-109511119D01*
X92926223Y-109595213D01*
X93057695Y-109644249D01*
X93057696Y-109644249D01*
X93057701Y-109644251D01*
X93115826Y-109650500D01*
X93476310Y-109650500D01*
X93534501Y-109669407D01*
X93546314Y-109679496D01*
X94020504Y-110153686D01*
X94024130Y-110160803D01*
X94030593Y-110165499D01*
X94037756Y-110187547D01*
X94048281Y-110208203D01*
X94049500Y-110223690D01*
X94049500Y-110275500D01*
X94030593Y-110333691D01*
X93981093Y-110369655D01*
X93950500Y-110374500D01*
X93940826Y-110374500D01*
X93912823Y-110377510D01*
X93882706Y-110380748D01*
X93882695Y-110380750D01*
X93751223Y-110429786D01*
X93638888Y-110513880D01*
X93638880Y-110513888D01*
X93554786Y-110626223D01*
X93505750Y-110757695D01*
X93505748Y-110757706D01*
X93503398Y-110779565D01*
X93501887Y-110793628D01*
X93499500Y-110815829D01*
X93499500Y-111384170D01*
X93499499Y-111384170D01*
X93505748Y-111442293D01*
X93505750Y-111442304D01*
X93554786Y-111573776D01*
X93638880Y-111686111D01*
X93638884Y-111686116D01*
X93638887Y-111686118D01*
X93638888Y-111686119D01*
X93751223Y-111770213D01*
X93882695Y-111819249D01*
X93882696Y-111819249D01*
X93882701Y-111819251D01*
X93940826Y-111825500D01*
X93940830Y-111825500D01*
X94609170Y-111825500D01*
X94609174Y-111825500D01*
X94667299Y-111819251D01*
X94750502Y-111788218D01*
X94798776Y-111770213D01*
X94798776Y-111770212D01*
X94798778Y-111770212D01*
X94911116Y-111686116D01*
X94995212Y-111573778D01*
X94998594Y-111564712D01*
X95036472Y-111463156D01*
X95044251Y-111442299D01*
X95050500Y-111384174D01*
X95050500Y-110815826D01*
X95044251Y-110757701D01*
X95044248Y-110757692D01*
X94995213Y-110626223D01*
X94911119Y-110513888D01*
X94911118Y-110513887D01*
X94911116Y-110513884D01*
X94877726Y-110488888D01*
X94793110Y-110425544D01*
X94794545Y-110423626D01*
X94760041Y-110387089D01*
X94750500Y-110344686D01*
X94750500Y-109991357D01*
X94750500Y-109991356D01*
X94726614Y-109902212D01*
X94718919Y-109888884D01*
X94718918Y-109888883D01*
X94689183Y-109837380D01*
X94680470Y-109822288D01*
X94153347Y-109295165D01*
X94125570Y-109240648D01*
X94124919Y-109214575D01*
X94125500Y-109209174D01*
X94125500Y-108515826D01*
X94119251Y-108457701D01*
X94110188Y-108433401D01*
X94070213Y-108326223D01*
X94016908Y-108255017D01*
X93987066Y-108215153D01*
X93967330Y-108157240D01*
X93985404Y-108098786D01*
X94014347Y-108071565D01*
X94098038Y-108019943D01*
X94219946Y-107898035D01*
X94310451Y-107751306D01*
X94364681Y-107587648D01*
X94375000Y-107486655D01*
X94375000Y-107387501D01*
X94374999Y-107387500D01*
X93499000Y-107387500D01*
X93440809Y-107368593D01*
X93404845Y-107319093D01*
X93400000Y-107288500D01*
X93400000Y-107137501D01*
X93399999Y-107137500D01*
X93249000Y-107137500D01*
X93190809Y-107118593D01*
X93154845Y-107069093D01*
X93150000Y-107038500D01*
X93150000Y-106100001D01*
X93650000Y-106100001D01*
X93650000Y-106887499D01*
X93650001Y-106887500D01*
X94374998Y-106887500D01*
X94374999Y-106887499D01*
X94374999Y-106788345D01*
X94364682Y-106687357D01*
X94364679Y-106687345D01*
X94310451Y-106523693D01*
X94219946Y-106376964D01*
X94098035Y-106255053D01*
X93951306Y-106164548D01*
X93787648Y-106110318D01*
X93686655Y-106100000D01*
X93650001Y-106100000D01*
X93650000Y-106100001D01*
X93150000Y-106100001D01*
X93150000Y-106100000D01*
X93113364Y-106100000D01*
X93059560Y-106105497D01*
X92999750Y-106092600D01*
X92958942Y-106047011D01*
X92950500Y-106007009D01*
X92950500Y-105626357D01*
X92950500Y-105626356D01*
X92926614Y-105537212D01*
X92926612Y-105537209D01*
X92925873Y-105534449D01*
X92922500Y-105508826D01*
X92922500Y-105350001D01*
X93422500Y-105350001D01*
X93422500Y-105919999D01*
X93422501Y-105920000D01*
X93448334Y-105920000D01*
X93448345Y-105919999D01*
X93514841Y-105913957D01*
X93514847Y-105913955D01*
X93667855Y-105866276D01*
X93667867Y-105866271D01*
X93805020Y-105783359D01*
X93918359Y-105670020D01*
X94001271Y-105532867D01*
X94001276Y-105532855D01*
X94048956Y-105379844D01*
X94051668Y-105350000D01*
X93422501Y-105350000D01*
X93422500Y-105350001D01*
X92922500Y-105350001D01*
X92922500Y-105199000D01*
X92941407Y-105140809D01*
X92990907Y-105104845D01*
X93021500Y-105100000D01*
X93172499Y-105100000D01*
X93172500Y-105099999D01*
X93172500Y-104949000D01*
X93191407Y-104890809D01*
X93240907Y-104854845D01*
X93271500Y-104850000D01*
X94051668Y-104850000D01*
X94051668Y-104849999D01*
X94048956Y-104820155D01*
X94001276Y-104667144D01*
X94001271Y-104667132D01*
X93918359Y-104529979D01*
X93805020Y-104416640D01*
X93667867Y-104333728D01*
X93667855Y-104333723D01*
X93535708Y-104292544D01*
X93485777Y-104257181D01*
X93466168Y-104199223D01*
X93484371Y-104140808D01*
X93495149Y-104128031D01*
X94843686Y-102779496D01*
X94898203Y-102751719D01*
X94913690Y-102750500D01*
X99246142Y-102750500D01*
X99246144Y-102750500D01*
X99335288Y-102726614D01*
X99362332Y-102711000D01*
X99415212Y-102680470D01*
X100606186Y-101489496D01*
X100613303Y-101485869D01*
X100617999Y-101479407D01*
X100640047Y-101472243D01*
X100660703Y-101461719D01*
X100676190Y-101460500D01*
X100848000Y-101460500D01*
X100906191Y-101479407D01*
X100942155Y-101528907D01*
X100947000Y-101559500D01*
X100947000Y-102848810D01*
X100928093Y-102907001D01*
X100918004Y-102918814D01*
X100816314Y-103020504D01*
X100761797Y-103048281D01*
X100746310Y-103049500D01*
X97981356Y-103049500D01*
X97892212Y-103073386D01*
X97832876Y-103107644D01*
X97812285Y-103119532D01*
X96431311Y-104500504D01*
X96376795Y-104528281D01*
X96361308Y-104529500D01*
X96072691Y-104529500D01*
X95976567Y-104544725D01*
X95976560Y-104544727D01*
X95860708Y-104603757D01*
X95768757Y-104695708D01*
X95709726Y-104811563D01*
X95709725Y-104811565D01*
X95694500Y-104907691D01*
X95694500Y-105229114D01*
X95681236Y-105278614D01*
X95673387Y-105292207D01*
X95649500Y-105381357D01*
X95649500Y-105862960D01*
X95630593Y-105921151D01*
X95605501Y-105945276D01*
X95569400Y-105969397D01*
X95569397Y-105969400D01*
X95514035Y-106052257D01*
X95514033Y-106052263D01*
X95499501Y-106125315D01*
X95499500Y-106125327D01*
X95499500Y-106674672D01*
X95499501Y-106674684D01*
X95514033Y-106747736D01*
X95514035Y-106747743D01*
X95528907Y-106770000D01*
X95545515Y-106828888D01*
X95528907Y-106880000D01*
X95514035Y-106902256D01*
X95514033Y-106902263D01*
X95499501Y-106975315D01*
X95499500Y-106975327D01*
X95499500Y-107474653D01*
X95486237Y-107524151D01*
X95460992Y-107567878D01*
X95458186Y-107572739D01*
X95458185Y-107572740D01*
X95448387Y-107589709D01*
X95448386Y-107589711D01*
X95448386Y-107589712D01*
X95424500Y-107678856D01*
X95424500Y-115046144D01*
X95444164Y-115119531D01*
X95448386Y-115135288D01*
X95494530Y-115215212D01*
X95494532Y-115215214D01*
X95926535Y-115647218D01*
X95954312Y-115701734D01*
X95944741Y-115762166D01*
X95935788Y-115776545D01*
X95931203Y-115782670D01*
X95880910Y-115917512D01*
X95880908Y-115917523D01*
X95877230Y-115951736D01*
X95874500Y-115977128D01*
X95874500Y-117072872D01*
X95877154Y-117097555D01*
X95880908Y-117132476D01*
X95880910Y-117132487D01*
X95931202Y-117267328D01*
X95958586Y-117303908D01*
X96000417Y-117359788D01*
X96005196Y-117366171D01*
X96024933Y-117424086D01*
X96006859Y-117482541D01*
X95957877Y-117519208D01*
X95925943Y-117524500D01*
X95837399Y-117524500D01*
X95756775Y-117546103D01*
X95716463Y-117556905D01*
X95608036Y-117619505D01*
X95519505Y-117708036D01*
X95456905Y-117816463D01*
X95455551Y-117821518D01*
X95424500Y-117937399D01*
X95424500Y-118062601D01*
X95456905Y-118183536D01*
X95519505Y-118291964D01*
X95608036Y-118380495D01*
X95716464Y-118443095D01*
X95837399Y-118475500D01*
X95837401Y-118475500D01*
X95962599Y-118475500D01*
X95962601Y-118475500D01*
X96083536Y-118443095D01*
X96191964Y-118380495D01*
X96280495Y-118291964D01*
X96343095Y-118183536D01*
X96375500Y-118062601D01*
X96375500Y-117937399D01*
X96343095Y-117816464D01*
X96280495Y-117708036D01*
X96266960Y-117694501D01*
X96239185Y-117639987D01*
X96248756Y-117579555D01*
X96292021Y-117536290D01*
X96336966Y-117525500D01*
X98272869Y-117525500D01*
X98272872Y-117525500D01*
X98332482Y-117519091D01*
X98430478Y-117482541D01*
X98467328Y-117468797D01*
X98467328Y-117468796D01*
X98467330Y-117468796D01*
X98582546Y-117382546D01*
X98668796Y-117267330D01*
X98668809Y-117267297D01*
X98709982Y-117156905D01*
X98719091Y-117132482D01*
X98725500Y-117072872D01*
X98725500Y-115977128D01*
X98719091Y-115917518D01*
X98711100Y-115896093D01*
X98668797Y-115782671D01*
X98582549Y-115667458D01*
X98582548Y-115667457D01*
X98582546Y-115667454D01*
X98546953Y-115640809D01*
X98467328Y-115581202D01*
X98332487Y-115530910D01*
X98332482Y-115530909D01*
X98332480Y-115530908D01*
X98332476Y-115530908D01*
X98301248Y-115527550D01*
X98272872Y-115524500D01*
X98272869Y-115524500D01*
X96836190Y-115524500D01*
X96777999Y-115505593D01*
X96766186Y-115495504D01*
X96154496Y-114883814D01*
X96126719Y-114829297D01*
X96125500Y-114813810D01*
X96125500Y-114358707D01*
X96144407Y-114300516D01*
X96193907Y-114264552D01*
X96255093Y-114264552D01*
X96259073Y-114265941D01*
X96267518Y-114269091D01*
X96327128Y-114275500D01*
X96327131Y-114275500D01*
X98272869Y-114275500D01*
X98272872Y-114275500D01*
X98332482Y-114269091D01*
X98379304Y-114251627D01*
X98467328Y-114218797D01*
X98467328Y-114218796D01*
X98467330Y-114218796D01*
X98582546Y-114132546D01*
X98668796Y-114017330D01*
X98688267Y-113965127D01*
X98719089Y-113882487D01*
X98719088Y-113882487D01*
X98719091Y-113882482D01*
X98725500Y-113822872D01*
X98725500Y-112727128D01*
X98719091Y-112667518D01*
X98719009Y-112667299D01*
X98668796Y-112532670D01*
X98664216Y-112526552D01*
X98644477Y-112468638D01*
X98662549Y-112410183D01*
X98673457Y-112397223D01*
X98980470Y-112090212D01*
X99026614Y-112010288D01*
X99030991Y-111993953D01*
X99050500Y-111921144D01*
X99050500Y-111855313D01*
X99069407Y-111797122D01*
X99093935Y-111775560D01*
X99093109Y-111774456D01*
X99143380Y-111736823D01*
X99211116Y-111686116D01*
X99295212Y-111573778D01*
X99298594Y-111564712D01*
X99336472Y-111463156D01*
X99344251Y-111442299D01*
X99350500Y-111384174D01*
X99350500Y-110815826D01*
X99344251Y-110757701D01*
X99344248Y-110757692D01*
X99295213Y-110626223D01*
X99211119Y-110513888D01*
X99211118Y-110513887D01*
X99211116Y-110513884D01*
X99177726Y-110488888D01*
X99098776Y-110429786D01*
X98967304Y-110380750D01*
X98967299Y-110380749D01*
X98967297Y-110380748D01*
X98967293Y-110380748D01*
X98941011Y-110377922D01*
X98909174Y-110374500D01*
X98909170Y-110374500D01*
X98504315Y-110374500D01*
X98446124Y-110355593D01*
X98410160Y-110306093D01*
X98410160Y-110244907D01*
X98418575Y-110226005D01*
X98443095Y-110183536D01*
X98475500Y-110062601D01*
X98475500Y-109937399D01*
X98443095Y-109816464D01*
X98380495Y-109708036D01*
X98302873Y-109630414D01*
X98275098Y-109575900D01*
X98284669Y-109515468D01*
X98293626Y-109501084D01*
X98318736Y-109467541D01*
X98370212Y-109398778D01*
X98370617Y-109397694D01*
X98408694Y-109295603D01*
X98419251Y-109267299D01*
X98425500Y-109209174D01*
X98425500Y-108515826D01*
X98419251Y-108457701D01*
X98410188Y-108433401D01*
X98370213Y-108326223D01*
X98316908Y-108255017D01*
X98287066Y-108215153D01*
X98267330Y-108157240D01*
X98285404Y-108098786D01*
X98314347Y-108071565D01*
X98398038Y-108019943D01*
X98519946Y-107898035D01*
X98610451Y-107751306D01*
X98664681Y-107587648D01*
X98675000Y-107486655D01*
X98675000Y-107387501D01*
X98674999Y-107387500D01*
X97799000Y-107387500D01*
X97740809Y-107368593D01*
X97704845Y-107319093D01*
X97700000Y-107288500D01*
X97700000Y-107137501D01*
X97699999Y-107137500D01*
X97549000Y-107137500D01*
X97490809Y-107118593D01*
X97454845Y-107069093D01*
X97450000Y-107038500D01*
X97450000Y-106100001D01*
X97950000Y-106100001D01*
X97950000Y-106887499D01*
X97950001Y-106887500D01*
X98674998Y-106887500D01*
X98674999Y-106887499D01*
X98674999Y-106788345D01*
X98664682Y-106687357D01*
X98664679Y-106687345D01*
X98610451Y-106523693D01*
X98519946Y-106376964D01*
X98398035Y-106255053D01*
X98251306Y-106164548D01*
X98087648Y-106110318D01*
X97986655Y-106100000D01*
X97950001Y-106100000D01*
X97950000Y-106100001D01*
X97450000Y-106100001D01*
X97450000Y-106100000D01*
X97413357Y-106100000D01*
X97413351Y-106100001D01*
X97312357Y-106110317D01*
X97312345Y-106110320D01*
X97148693Y-106164548D01*
X97001964Y-106255053D01*
X97001956Y-106255059D01*
X96996349Y-106260667D01*
X96941831Y-106288442D01*
X96881399Y-106278867D01*
X96856348Y-106260666D01*
X96715212Y-106119530D01*
X96635288Y-106073386D01*
X96630094Y-106071994D01*
X96620408Y-106069398D01*
X96620408Y-106069399D01*
X96546144Y-106049500D01*
X96546142Y-106049500D01*
X96537039Y-106049500D01*
X96478848Y-106030593D01*
X96467035Y-106020503D01*
X96460140Y-106013608D01*
X96430601Y-105969399D01*
X96386394Y-105939861D01*
X96379496Y-105932963D01*
X96369818Y-105913969D01*
X96356619Y-105897226D01*
X96354099Y-105883118D01*
X96351719Y-105878446D01*
X96352445Y-105873856D01*
X96350500Y-105862960D01*
X96350500Y-105769499D01*
X96369407Y-105711308D01*
X96418907Y-105675344D01*
X96449500Y-105670499D01*
X96582308Y-105670499D01*
X96605561Y-105666816D01*
X96657498Y-105658590D01*
X96717928Y-105668161D01*
X96742987Y-105686367D01*
X96839979Y-105783359D01*
X96977132Y-105866271D01*
X96977144Y-105866276D01*
X97130152Y-105913955D01*
X97130158Y-105913957D01*
X97196654Y-105919999D01*
X97196666Y-105920000D01*
X97222499Y-105920000D01*
X97222500Y-105919999D01*
X97222500Y-105350001D01*
X97722500Y-105350001D01*
X97722500Y-105919999D01*
X97722501Y-105920000D01*
X97748334Y-105920000D01*
X97748345Y-105919999D01*
X97814841Y-105913957D01*
X97814847Y-105913955D01*
X97967855Y-105866276D01*
X97967867Y-105866271D01*
X98105020Y-105783359D01*
X98218359Y-105670020D01*
X98301271Y-105532867D01*
X98301276Y-105532855D01*
X98348956Y-105379844D01*
X98351668Y-105350000D01*
X97722501Y-105350000D01*
X97722500Y-105350001D01*
X97222500Y-105350001D01*
X97222500Y-105199000D01*
X97241407Y-105140809D01*
X97290907Y-105104845D01*
X97321500Y-105100000D01*
X97472499Y-105100000D01*
X97472500Y-105099999D01*
X97472500Y-104949000D01*
X97491407Y-104890809D01*
X97540907Y-104854845D01*
X97571500Y-104850000D01*
X98351668Y-104850000D01*
X98351668Y-104849999D01*
X98348956Y-104820155D01*
X98301276Y-104667144D01*
X98301271Y-104667132D01*
X98218359Y-104529979D01*
X98105020Y-104416640D01*
X97967867Y-104333728D01*
X97967855Y-104333723D01*
X97835709Y-104292544D01*
X97785778Y-104257181D01*
X97766169Y-104199223D01*
X97784372Y-104140808D01*
X97795159Y-104128023D01*
X98143687Y-103779496D01*
X98198203Y-103751719D01*
X98213690Y-103750500D01*
X100978642Y-103750500D01*
X100978644Y-103750500D01*
X101067788Y-103726614D01*
X101076002Y-103721871D01*
X101080109Y-103719501D01*
X101100924Y-103707483D01*
X101147712Y-103680470D01*
X101313089Y-103515093D01*
X101413687Y-103414496D01*
X101420803Y-103410870D01*
X101425499Y-103404407D01*
X101447548Y-103397242D01*
X101468203Y-103386719D01*
X101483690Y-103385500D01*
X101607311Y-103385500D01*
X101665502Y-103404407D01*
X101701466Y-103453907D01*
X101701466Y-103515093D01*
X101677314Y-103554504D01*
X100731311Y-104500504D01*
X100676795Y-104528281D01*
X100661308Y-104529500D01*
X100372691Y-104529500D01*
X100276567Y-104544725D01*
X100276560Y-104544727D01*
X100160708Y-104603757D01*
X100068757Y-104695708D01*
X100009726Y-104811563D01*
X100009725Y-104811565D01*
X99994500Y-104907691D01*
X99994500Y-105229114D01*
X99981236Y-105278614D01*
X99973387Y-105292207D01*
X99949500Y-105381357D01*
X99949500Y-105787960D01*
X99930593Y-105846151D01*
X99905501Y-105870276D01*
X99869400Y-105894397D01*
X99869397Y-105894400D01*
X99814035Y-105977257D01*
X99814033Y-105977263D01*
X99799501Y-106050315D01*
X99799500Y-106050327D01*
X99799500Y-106599672D01*
X99799501Y-106599684D01*
X99814033Y-106672736D01*
X99814035Y-106672743D01*
X99828907Y-106695000D01*
X99845515Y-106753888D01*
X99828907Y-106805000D01*
X99814035Y-106827256D01*
X99814033Y-106827263D01*
X99799501Y-106900315D01*
X99799500Y-106900327D01*
X99799500Y-107388810D01*
X99780593Y-107447001D01*
X99770504Y-107458813D01*
X99619529Y-107609788D01*
X99582812Y-107673385D01*
X99582812Y-107673386D01*
X99573387Y-107689709D01*
X99573386Y-107689711D01*
X99573386Y-107689712D01*
X99569047Y-107705908D01*
X99549500Y-107778857D01*
X99549500Y-109241145D01*
X99571663Y-109323859D01*
X99571664Y-109323862D01*
X99573386Y-109330291D01*
X99573387Y-109330293D01*
X99619530Y-109410214D01*
X99619531Y-109410216D01*
X99695503Y-109486186D01*
X99723281Y-109540702D01*
X99724500Y-109556190D01*
X99724500Y-115046144D01*
X99744164Y-115119531D01*
X99748386Y-115135288D01*
X99794530Y-115215212D01*
X99794532Y-115215214D01*
X100226535Y-115647218D01*
X100254312Y-115701734D01*
X100244741Y-115762166D01*
X100235788Y-115776545D01*
X100231203Y-115782670D01*
X100180910Y-115917512D01*
X100180908Y-115917523D01*
X100177230Y-115951736D01*
X100174500Y-115977128D01*
X100174500Y-117072872D01*
X100177154Y-117097555D01*
X100180908Y-117132476D01*
X100180910Y-117132487D01*
X100231202Y-117267328D01*
X100310597Y-117373386D01*
X100317454Y-117382546D01*
X100317457Y-117382548D01*
X100317458Y-117382549D01*
X100432671Y-117468797D01*
X100567512Y-117519089D01*
X100567513Y-117519089D01*
X100567518Y-117519091D01*
X100627128Y-117525500D01*
X100627131Y-117525500D01*
X102572869Y-117525500D01*
X102572872Y-117525500D01*
X102632482Y-117519091D01*
X102730478Y-117482541D01*
X102767328Y-117468797D01*
X102767328Y-117468796D01*
X102767330Y-117468796D01*
X102882546Y-117382546D01*
X102968796Y-117267330D01*
X102968809Y-117267297D01*
X103009982Y-117156905D01*
X103019091Y-117132482D01*
X103025500Y-117072872D01*
X103025500Y-115977128D01*
X103019091Y-115917518D01*
X103011100Y-115896093D01*
X102968797Y-115782671D01*
X102882549Y-115667458D01*
X102882548Y-115667457D01*
X102882546Y-115667454D01*
X102846953Y-115640809D01*
X102767328Y-115581202D01*
X102632487Y-115530910D01*
X102632482Y-115530909D01*
X102632480Y-115530908D01*
X102632476Y-115530908D01*
X102601248Y-115527550D01*
X102572872Y-115524500D01*
X102572869Y-115524500D01*
X101136190Y-115524500D01*
X101077999Y-115505593D01*
X101066186Y-115495504D01*
X100454496Y-114883814D01*
X100426719Y-114829297D01*
X100425500Y-114813810D01*
X100425500Y-114358707D01*
X100444407Y-114300516D01*
X100493907Y-114264552D01*
X100555093Y-114264552D01*
X100559073Y-114265941D01*
X100567518Y-114269091D01*
X100627128Y-114275500D01*
X100627131Y-114275500D01*
X102572869Y-114275500D01*
X102572872Y-114275500D01*
X102632482Y-114269091D01*
X102679304Y-114251627D01*
X102767328Y-114218797D01*
X102767328Y-114218796D01*
X102767330Y-114218796D01*
X102882546Y-114132546D01*
X102968796Y-114017330D01*
X102988267Y-113965127D01*
X103019089Y-113882487D01*
X103019088Y-113882487D01*
X103019091Y-113882482D01*
X103025500Y-113822872D01*
X103025500Y-112727128D01*
X103019091Y-112667518D01*
X103019009Y-112667299D01*
X102968796Y-112532670D01*
X102964216Y-112526552D01*
X102944477Y-112468638D01*
X102962549Y-112410183D01*
X102973457Y-112397223D01*
X103280470Y-112090212D01*
X103326614Y-112010288D01*
X103330991Y-111993953D01*
X103350500Y-111921144D01*
X103350500Y-111855313D01*
X103369407Y-111797122D01*
X103393935Y-111775560D01*
X103393109Y-111774456D01*
X103443380Y-111736823D01*
X103511116Y-111686116D01*
X103595212Y-111573778D01*
X103598594Y-111564712D01*
X103636472Y-111463156D01*
X103644251Y-111442299D01*
X103650500Y-111384174D01*
X103650500Y-110815826D01*
X103644251Y-110757701D01*
X103644248Y-110757692D01*
X103595213Y-110626223D01*
X103511119Y-110513888D01*
X103511118Y-110513887D01*
X103511116Y-110513884D01*
X103477726Y-110488888D01*
X103398776Y-110429786D01*
X103267304Y-110380750D01*
X103267299Y-110380749D01*
X103267297Y-110380748D01*
X103267293Y-110380748D01*
X103241011Y-110377922D01*
X103209174Y-110374500D01*
X102540826Y-110374500D01*
X102512823Y-110377510D01*
X102482706Y-110380748D01*
X102482695Y-110380750D01*
X102434777Y-110398623D01*
X102373648Y-110401243D01*
X102322653Y-110367431D01*
X102301272Y-110310104D01*
X102314444Y-110256366D01*
X102326614Y-110235288D01*
X102332003Y-110215172D01*
X102333977Y-110207810D01*
X102350500Y-110146143D01*
X102350500Y-109709929D01*
X102369407Y-109651738D01*
X102414904Y-109617171D01*
X102473776Y-109595213D01*
X102473776Y-109595212D01*
X102473778Y-109595212D01*
X102586116Y-109511116D01*
X102670212Y-109398778D01*
X102670617Y-109397694D01*
X102708694Y-109295603D01*
X102719251Y-109267299D01*
X102725500Y-109209174D01*
X102725500Y-108515826D01*
X102719251Y-108457701D01*
X102710188Y-108433401D01*
X102670213Y-108326223D01*
X102616908Y-108255017D01*
X102587066Y-108215153D01*
X102567330Y-108157240D01*
X102585404Y-108098786D01*
X102614347Y-108071565D01*
X102698038Y-108019943D01*
X102819946Y-107898035D01*
X102910451Y-107751306D01*
X102964681Y-107587648D01*
X102975000Y-107486655D01*
X102975000Y-107387501D01*
X102974999Y-107387500D01*
X102099000Y-107387500D01*
X102040809Y-107368593D01*
X102004845Y-107319093D01*
X102000000Y-107288500D01*
X102000000Y-107137501D01*
X101999999Y-107137500D01*
X101849000Y-107137500D01*
X101790809Y-107118593D01*
X101754845Y-107069093D01*
X101750000Y-107038500D01*
X101750000Y-106100001D01*
X102250000Y-106100001D01*
X102250000Y-106887499D01*
X102250001Y-106887500D01*
X102974998Y-106887500D01*
X102974999Y-106887499D01*
X102974999Y-106788345D01*
X102964682Y-106687357D01*
X102964679Y-106687345D01*
X102910451Y-106523693D01*
X102819946Y-106376964D01*
X102698035Y-106255053D01*
X102551306Y-106164548D01*
X102387648Y-106110318D01*
X102286655Y-106100000D01*
X102250001Y-106100000D01*
X102250000Y-106100001D01*
X101750000Y-106100001D01*
X101750000Y-106100000D01*
X101713357Y-106100000D01*
X101713351Y-106100001D01*
X101612357Y-106110317D01*
X101612345Y-106110320D01*
X101448693Y-106164548D01*
X101301964Y-106255053D01*
X101301956Y-106255059D01*
X101296349Y-106260667D01*
X101241831Y-106288442D01*
X101181399Y-106278867D01*
X101156348Y-106260666D01*
X100940212Y-106044530D01*
X100940209Y-106044528D01*
X100860291Y-105998387D01*
X100860293Y-105998387D01*
X100846364Y-105994655D01*
X100822940Y-105988378D01*
X100776624Y-105960763D01*
X100770891Y-105954699D01*
X100730601Y-105894399D01*
X100685224Y-105864080D01*
X100677558Y-105855970D01*
X100668990Y-105837919D01*
X100656619Y-105822226D01*
X100653649Y-105805596D01*
X100651323Y-105800695D01*
X100652065Y-105796728D01*
X100650500Y-105787960D01*
X100650500Y-105769499D01*
X100669407Y-105711308D01*
X100718907Y-105675344D01*
X100749500Y-105670499D01*
X100882308Y-105670499D01*
X100905561Y-105666816D01*
X100957498Y-105658590D01*
X101017928Y-105668161D01*
X101042987Y-105686367D01*
X101139979Y-105783359D01*
X101277132Y-105866271D01*
X101277144Y-105866276D01*
X101430152Y-105913955D01*
X101430158Y-105913957D01*
X101496654Y-105919999D01*
X101496666Y-105920000D01*
X101522499Y-105920000D01*
X101522500Y-105919999D01*
X101522500Y-105350001D01*
X102022500Y-105350001D01*
X102022500Y-105919999D01*
X102022501Y-105920000D01*
X102048334Y-105920000D01*
X102048345Y-105919999D01*
X102114841Y-105913957D01*
X102114847Y-105913955D01*
X102267855Y-105866276D01*
X102267867Y-105866271D01*
X102405020Y-105783359D01*
X102518359Y-105670020D01*
X102601271Y-105532867D01*
X102601276Y-105532855D01*
X102648956Y-105379844D01*
X102651668Y-105350000D01*
X102022501Y-105350000D01*
X102022500Y-105350001D01*
X101522500Y-105350001D01*
X101522500Y-105199000D01*
X101541407Y-105140809D01*
X101590907Y-105104845D01*
X101621500Y-105100000D01*
X101772499Y-105100000D01*
X101772500Y-105099999D01*
X101772500Y-104949000D01*
X101791407Y-104890809D01*
X101840907Y-104854845D01*
X101871500Y-104850000D01*
X102651668Y-104850000D01*
X102651668Y-104849999D01*
X102648956Y-104820155D01*
X102601276Y-104667144D01*
X102601271Y-104667132D01*
X102518359Y-104529979D01*
X102405020Y-104416640D01*
X102267867Y-104333728D01*
X102267855Y-104333723D01*
X102135708Y-104292544D01*
X102085777Y-104257181D01*
X102066168Y-104199223D01*
X102084371Y-104140808D01*
X102095158Y-104128023D01*
X102383686Y-103839496D01*
X102438202Y-103811719D01*
X102453689Y-103810500D01*
X105449418Y-103810500D01*
X105449420Y-103810500D01*
X105538564Y-103786614D01*
X105618488Y-103740470D01*
X106252556Y-103106401D01*
X106307071Y-103078626D01*
X106367503Y-103088197D01*
X106392558Y-103106400D01*
X106410572Y-103124414D01*
X106550712Y-103226232D01*
X106705055Y-103304873D01*
X106705057Y-103304873D01*
X106705058Y-103304874D01*
X106705061Y-103304876D01*
X106869793Y-103358401D01*
X106869797Y-103358402D01*
X107040886Y-103385500D01*
X107040889Y-103385500D01*
X107214113Y-103385500D01*
X107237278Y-103381830D01*
X107289553Y-103373551D01*
X107357948Y-103362719D01*
X107385202Y-103358402D01*
X107385206Y-103358401D01*
X107549938Y-103304876D01*
X107549940Y-103304874D01*
X107549945Y-103304873D01*
X107704288Y-103226232D01*
X107844428Y-103124414D01*
X107966914Y-103001928D01*
X108068732Y-102861788D01*
X108147373Y-102707445D01*
X108147374Y-102707440D01*
X108147376Y-102707438D01*
X108200901Y-102542706D01*
X108200902Y-102542702D01*
X108228000Y-102371614D01*
X108228000Y-102198385D01*
X108200902Y-102027297D01*
X108200901Y-102027293D01*
X108147376Y-101862561D01*
X108147374Y-101862558D01*
X108147373Y-101862557D01*
X108147373Y-101862555D01*
X108068732Y-101708212D01*
X107966914Y-101568072D01*
X107844428Y-101445586D01*
X107704288Y-101343768D01*
X107704287Y-101343767D01*
X107704285Y-101343766D01*
X107549941Y-101265125D01*
X107473611Y-101240323D01*
X107424112Y-101204359D01*
X107405205Y-101146168D01*
X107424113Y-101087977D01*
X107473613Y-101052014D01*
X107645713Y-100996096D01*
X107835052Y-100899624D01*
X108006964Y-100774722D01*
X108157222Y-100624464D01*
X108282123Y-100452552D01*
X108309290Y-100399235D01*
X108352554Y-100355971D01*
X108412986Y-100346399D01*
X108467503Y-100374176D01*
X108485710Y-100399235D01*
X108512876Y-100452552D01*
X108637777Y-100624464D01*
X108788035Y-100774722D01*
X108959947Y-100899624D01*
X109149286Y-100996096D01*
X109321386Y-101052014D01*
X109370886Y-101087978D01*
X109389794Y-101146169D01*
X109370887Y-101204359D01*
X109321388Y-101240323D01*
X109245058Y-101265125D01*
X109090714Y-101343766D01*
X108950573Y-101445585D01*
X108828085Y-101568073D01*
X108726266Y-101708214D01*
X108647625Y-101862558D01*
X108647623Y-101862561D01*
X108594098Y-102027293D01*
X108594097Y-102027297D01*
X108567000Y-102198385D01*
X108567000Y-102371614D01*
X108594097Y-102542702D01*
X108594098Y-102542706D01*
X108647623Y-102707438D01*
X108647627Y-102707447D01*
X108649315Y-102710759D01*
X108658886Y-102771191D01*
X108631109Y-102825706D01*
X107926314Y-103530503D01*
X107871797Y-103558281D01*
X107856310Y-103559500D01*
X107350996Y-103559500D01*
X107307309Y-103571205D01*
X107307295Y-103571208D01*
X107261852Y-103583385D01*
X107181929Y-103629529D01*
X106735954Y-104075504D01*
X106681438Y-104103281D01*
X106665951Y-104104500D01*
X104926356Y-104104500D01*
X104849058Y-104125212D01*
X104849057Y-104125211D01*
X104839279Y-104127832D01*
X104837212Y-104128386D01*
X104757288Y-104174530D01*
X104757285Y-104174532D01*
X104431312Y-104500504D01*
X104376796Y-104528281D01*
X104361309Y-104529500D01*
X104072691Y-104529500D01*
X103976567Y-104544725D01*
X103976560Y-104544727D01*
X103860708Y-104603757D01*
X103768757Y-104695708D01*
X103709726Y-104811563D01*
X103709725Y-104811565D01*
X103694500Y-104907691D01*
X103694500Y-105292308D01*
X103709725Y-105388432D01*
X103709727Y-105388439D01*
X103768757Y-105504291D01*
X103768759Y-105504294D01*
X103782690Y-105518225D01*
X103810466Y-105572740D01*
X103800895Y-105633172D01*
X103775518Y-105661728D01*
X103776294Y-105662504D01*
X103769397Y-105669400D01*
X103714035Y-105752257D01*
X103714033Y-105752263D01*
X103699501Y-105825315D01*
X103699500Y-105825327D01*
X103699500Y-106374672D01*
X103699501Y-106374684D01*
X103714033Y-106447736D01*
X103714035Y-106447743D01*
X103728907Y-106470000D01*
X103745515Y-106528888D01*
X103728907Y-106580000D01*
X103714035Y-106602256D01*
X103714033Y-106602263D01*
X103699501Y-106675315D01*
X103699500Y-106675327D01*
X103699500Y-107474672D01*
X103699501Y-107474684D01*
X103714033Y-107547736D01*
X103714035Y-107547742D01*
X103730911Y-107572999D01*
X103769399Y-107630601D01*
X103805501Y-107654723D01*
X103843380Y-107702770D01*
X103849500Y-107737038D01*
X103849500Y-108046144D01*
X103850006Y-108048031D01*
X103866743Y-108110498D01*
X103873386Y-108135289D01*
X103873387Y-108135291D01*
X103906515Y-108192670D01*
X103919530Y-108215212D01*
X104084194Y-108379876D01*
X104220503Y-108516184D01*
X104248281Y-108570701D01*
X104249500Y-108586188D01*
X104249500Y-109045560D01*
X104230593Y-109103751D01*
X104181093Y-109139715D01*
X104124877Y-109141187D01*
X104062601Y-109124500D01*
X103937399Y-109124500D01*
X103867768Y-109143158D01*
X103816463Y-109156905D01*
X103708036Y-109219505D01*
X103619505Y-109308036D01*
X103556905Y-109416463D01*
X103546103Y-109456775D01*
X103524500Y-109537399D01*
X103524500Y-109662601D01*
X103556905Y-109783536D01*
X103619505Y-109891964D01*
X103708036Y-109980495D01*
X103816464Y-110043095D01*
X103937399Y-110075500D01*
X103937401Y-110075500D01*
X104062602Y-110075500D01*
X104062602Y-110075499D01*
X104124876Y-110058813D01*
X104185977Y-110062014D01*
X104233528Y-110100519D01*
X104249500Y-110154439D01*
X104249500Y-114475092D01*
X104230593Y-114533283D01*
X104229754Y-114534420D01*
X104156203Y-114632671D01*
X104105911Y-114767512D01*
X104105909Y-114767523D01*
X104104622Y-114779496D01*
X104099501Y-114827128D01*
X104099501Y-116772872D01*
X104100321Y-116780495D01*
X104105909Y-116832476D01*
X104105911Y-116832487D01*
X104156203Y-116967328D01*
X104209649Y-117038723D01*
X104242455Y-117082546D01*
X104242458Y-117082548D01*
X104242459Y-117082549D01*
X104357672Y-117168797D01*
X104492513Y-117219089D01*
X104492514Y-117219089D01*
X104492519Y-117219091D01*
X104552129Y-117225500D01*
X104552132Y-117225500D01*
X105647870Y-117225500D01*
X105647873Y-117225500D01*
X105707483Y-117219091D01*
X105754305Y-117201627D01*
X105842329Y-117168797D01*
X105842329Y-117168796D01*
X105842331Y-117168796D01*
X105957547Y-117082546D01*
X106043797Y-116967330D01*
X106048390Y-116955017D01*
X106090134Y-116843094D01*
X106094092Y-116832482D01*
X106100501Y-116772872D01*
X106100501Y-114827128D01*
X106094092Y-114767518D01*
X106094090Y-114767512D01*
X106043798Y-114632671D01*
X105957550Y-114517458D01*
X105957549Y-114517457D01*
X105957547Y-114517454D01*
X105944966Y-114508036D01*
X105842329Y-114431202D01*
X105707488Y-114380910D01*
X105707483Y-114380909D01*
X105707481Y-114380908D01*
X105707477Y-114380908D01*
X105676249Y-114377550D01*
X105647873Y-114374500D01*
X105647870Y-114374500D01*
X105049500Y-114374500D01*
X104991309Y-114355593D01*
X104955345Y-114306093D01*
X104950500Y-114275500D01*
X104950500Y-113709556D01*
X104969407Y-113651365D01*
X105018907Y-113615401D01*
X105080093Y-113615401D01*
X105084088Y-113616795D01*
X105157701Y-113644251D01*
X105215826Y-113650500D01*
X105663811Y-113650500D01*
X105722002Y-113669407D01*
X105733815Y-113679496D01*
X107320505Y-115266186D01*
X107348282Y-115320703D01*
X107349501Y-115336190D01*
X107349501Y-116772872D01*
X107350321Y-116780495D01*
X107355909Y-116832476D01*
X107355911Y-116832487D01*
X107406203Y-116967328D01*
X107459649Y-117038723D01*
X107492455Y-117082546D01*
X107492458Y-117082548D01*
X107492459Y-117082549D01*
X107610945Y-117171247D01*
X107646198Y-117221255D01*
X107645324Y-117282434D01*
X107608657Y-117331416D01*
X107560048Y-117346826D01*
X107560289Y-117348653D01*
X107553858Y-117349499D01*
X107515461Y-117359787D01*
X107515461Y-117359788D01*
X107491639Y-117366171D01*
X107464711Y-117373386D01*
X107384785Y-117419532D01*
X106895400Y-117908915D01*
X106874901Y-117924645D01*
X106850066Y-117938984D01*
X106850061Y-117938988D01*
X106447977Y-118341070D01*
X106433634Y-118365913D01*
X106423242Y-118379457D01*
X106423480Y-118379639D01*
X106419533Y-118384782D01*
X106373384Y-118464715D01*
X106349501Y-118553855D01*
X106349501Y-118553856D01*
X106349501Y-118646144D01*
X106367496Y-118713307D01*
X106374575Y-118739724D01*
X106377948Y-118765346D01*
X106377948Y-119078772D01*
X106395682Y-119144957D01*
X106395682Y-119144958D01*
X106401831Y-119167911D01*
X106401832Y-119167913D01*
X106401833Y-119167916D01*
X106401834Y-119167917D01*
X106447978Y-119247841D01*
X106612328Y-119412191D01*
X106748003Y-119547865D01*
X106775781Y-119602382D01*
X106777000Y-119617869D01*
X106777000Y-121489823D01*
X106769566Y-121512702D01*
X106765364Y-121536391D01*
X106760561Y-121540416D01*
X106758093Y-121548014D01*
X106721306Y-121578849D01*
X106715129Y-121581853D01*
X106705055Y-121585127D01*
X106634517Y-121621067D01*
X106633644Y-121621492D01*
X106604190Y-121625600D01*
X106574849Y-121630247D01*
X106573994Y-121629811D01*
X106573046Y-121629944D01*
X106546859Y-121615985D01*
X106520334Y-121602470D01*
X106051265Y-121133401D01*
X105537394Y-120619530D01*
X105457470Y-120573386D01*
X105368326Y-120549500D01*
X105368324Y-120549500D01*
X104786190Y-120549500D01*
X104727999Y-120530593D01*
X104716186Y-120520504D01*
X104379496Y-120183814D01*
X104351719Y-120129297D01*
X104350500Y-120113810D01*
X104350500Y-118462966D01*
X104369407Y-118404775D01*
X104379490Y-118392968D01*
X104380495Y-118391964D01*
X104443095Y-118283536D01*
X104475500Y-118162601D01*
X104475500Y-118037399D01*
X104443095Y-117916464D01*
X104380495Y-117808036D01*
X104291964Y-117719505D01*
X104183536Y-117656905D01*
X104062601Y-117624500D01*
X103937399Y-117624500D01*
X103879602Y-117639987D01*
X103816463Y-117656905D01*
X103708036Y-117719505D01*
X103619505Y-117808036D01*
X103556905Y-117916463D01*
X103548527Y-117947729D01*
X103524500Y-118037399D01*
X103524500Y-118162601D01*
X103556905Y-118283536D01*
X103619505Y-118391964D01*
X103620505Y-118392964D01*
X103620966Y-118393868D01*
X103623456Y-118397114D01*
X103622854Y-118397575D01*
X103648281Y-118447479D01*
X103649500Y-118462966D01*
X103649500Y-120346144D01*
X103673386Y-120435288D01*
X103719530Y-120515212D01*
X104384788Y-121180470D01*
X104407901Y-121193814D01*
X104437206Y-121210734D01*
X104437211Y-121210736D01*
X104464708Y-121226612D01*
X104464709Y-121226612D01*
X104464712Y-121226614D01*
X104553856Y-121250500D01*
X105135992Y-121250500D01*
X105194183Y-121269407D01*
X105205996Y-121279496D01*
X106065078Y-122138578D01*
X106092855Y-122193095D01*
X106089229Y-122239174D01*
X106054097Y-122347299D01*
X106027000Y-122518385D01*
X106027000Y-122691614D01*
X106054097Y-122862702D01*
X106054098Y-122862706D01*
X106107623Y-123027438D01*
X106107625Y-123027441D01*
X106183718Y-123176785D01*
X106186268Y-123181788D01*
X106288086Y-123321928D01*
X106410572Y-123444414D01*
X106550712Y-123546232D01*
X106705055Y-123624873D01*
X106705057Y-123624873D01*
X106705058Y-123624874D01*
X106705061Y-123624876D01*
X106869793Y-123678401D01*
X106869797Y-123678402D01*
X107040886Y-123705500D01*
X107040889Y-123705500D01*
X107214114Y-123705500D01*
X107385202Y-123678402D01*
X107385206Y-123678401D01*
X107549938Y-123624876D01*
X107549940Y-123624874D01*
X107549945Y-123624873D01*
X107704288Y-123546232D01*
X107844428Y-123444414D01*
X107966914Y-123321928D01*
X108068732Y-123181788D01*
X108147373Y-123027445D01*
X108147374Y-123027440D01*
X108147376Y-123027438D01*
X108200901Y-122862706D01*
X108200902Y-122862702D01*
X108228000Y-122691614D01*
X108228000Y-122518385D01*
X108567000Y-122518385D01*
X108567000Y-122691614D01*
X108594097Y-122862702D01*
X108594098Y-122862706D01*
X108647623Y-123027438D01*
X108647625Y-123027441D01*
X108723718Y-123176785D01*
X108726268Y-123181788D01*
X108828086Y-123321928D01*
X108950572Y-123444414D01*
X109090712Y-123546232D01*
X109245055Y-123624873D01*
X109245057Y-123624873D01*
X109245058Y-123624874D01*
X109245061Y-123624876D01*
X109409793Y-123678401D01*
X109409797Y-123678402D01*
X109580886Y-123705500D01*
X109580889Y-123705500D01*
X109754114Y-123705500D01*
X109925202Y-123678402D01*
X109925206Y-123678401D01*
X110089938Y-123624876D01*
X110089940Y-123624874D01*
X110089945Y-123624873D01*
X110244288Y-123546232D01*
X110384428Y-123444414D01*
X110506914Y-123321928D01*
X110608732Y-123181788D01*
X110687373Y-123027445D01*
X110687374Y-123027440D01*
X110687376Y-123027438D01*
X110740901Y-122862706D01*
X110740902Y-122862702D01*
X110768000Y-122691614D01*
X110768000Y-122518385D01*
X111107000Y-122518385D01*
X111107000Y-122691614D01*
X111134097Y-122862702D01*
X111134098Y-122862706D01*
X111187623Y-123027438D01*
X111187625Y-123027441D01*
X111263718Y-123176785D01*
X111266268Y-123181788D01*
X111368086Y-123321928D01*
X111490572Y-123444414D01*
X111630712Y-123546232D01*
X111785055Y-123624873D01*
X111785057Y-123624873D01*
X111785058Y-123624874D01*
X111785061Y-123624876D01*
X111949793Y-123678401D01*
X111949797Y-123678402D01*
X112120886Y-123705500D01*
X112120889Y-123705500D01*
X112294114Y-123705500D01*
X112465202Y-123678402D01*
X112465206Y-123678401D01*
X112629938Y-123624876D01*
X112629940Y-123624874D01*
X112629945Y-123624873D01*
X112784288Y-123546232D01*
X112924428Y-123444414D01*
X113046914Y-123321928D01*
X113148732Y-123181788D01*
X113227373Y-123027445D01*
X113227374Y-123027440D01*
X113227376Y-123027438D01*
X113280901Y-122862706D01*
X113280902Y-122862702D01*
X113308000Y-122691614D01*
X113308000Y-122518385D01*
X113647000Y-122518385D01*
X113647000Y-122691614D01*
X113674097Y-122862702D01*
X113674098Y-122862706D01*
X113727623Y-123027438D01*
X113727625Y-123027441D01*
X113803718Y-123176785D01*
X113806268Y-123181788D01*
X113908086Y-123321928D01*
X114030572Y-123444414D01*
X114170712Y-123546232D01*
X114325055Y-123624873D01*
X114325057Y-123624873D01*
X114325058Y-123624874D01*
X114325061Y-123624876D01*
X114489793Y-123678401D01*
X114489797Y-123678402D01*
X114660886Y-123705500D01*
X114660889Y-123705500D01*
X114834114Y-123705500D01*
X115005202Y-123678402D01*
X115005206Y-123678401D01*
X115169938Y-123624876D01*
X115169940Y-123624874D01*
X115169945Y-123624873D01*
X115324288Y-123546232D01*
X115464428Y-123444414D01*
X115586914Y-123321928D01*
X115688732Y-123181788D01*
X115767373Y-123027445D01*
X115767374Y-123027440D01*
X115767376Y-123027438D01*
X115820901Y-122862706D01*
X115820902Y-122862702D01*
X115848000Y-122691614D01*
X115848000Y-122518385D01*
X116187000Y-122518385D01*
X116187000Y-122691614D01*
X116214097Y-122862702D01*
X116214098Y-122862706D01*
X116267623Y-123027438D01*
X116267625Y-123027441D01*
X116343718Y-123176785D01*
X116346268Y-123181788D01*
X116448086Y-123321928D01*
X116570572Y-123444414D01*
X116710712Y-123546232D01*
X116865055Y-123624873D01*
X116865057Y-123624873D01*
X116865058Y-123624874D01*
X116865061Y-123624876D01*
X117029793Y-123678401D01*
X117029797Y-123678402D01*
X117200886Y-123705500D01*
X117200889Y-123705500D01*
X117374114Y-123705500D01*
X117545202Y-123678402D01*
X117545206Y-123678401D01*
X117709938Y-123624876D01*
X117709940Y-123624874D01*
X117709945Y-123624873D01*
X117864288Y-123546232D01*
X118004428Y-123444414D01*
X118126914Y-123321928D01*
X118228732Y-123181788D01*
X118307373Y-123027445D01*
X118307374Y-123027440D01*
X118307376Y-123027438D01*
X118360901Y-122862706D01*
X118360902Y-122862702D01*
X118388000Y-122691614D01*
X118388000Y-122518385D01*
X118727000Y-122518385D01*
X118727000Y-122691614D01*
X118754097Y-122862702D01*
X118754098Y-122862706D01*
X118807623Y-123027438D01*
X118807625Y-123027441D01*
X118883718Y-123176785D01*
X118886268Y-123181788D01*
X118988086Y-123321928D01*
X119110572Y-123444414D01*
X119250712Y-123546232D01*
X119405055Y-123624873D01*
X119405057Y-123624873D01*
X119405058Y-123624874D01*
X119405061Y-123624876D01*
X119569793Y-123678401D01*
X119569797Y-123678402D01*
X119740886Y-123705500D01*
X119740889Y-123705500D01*
X119914114Y-123705500D01*
X120085202Y-123678402D01*
X120085206Y-123678401D01*
X120249938Y-123624876D01*
X120249940Y-123624874D01*
X120249945Y-123624873D01*
X120404288Y-123546232D01*
X120544428Y-123444414D01*
X120666914Y-123321928D01*
X120768732Y-123181788D01*
X120847373Y-123027445D01*
X120847374Y-123027440D01*
X120847376Y-123027438D01*
X120900901Y-122862706D01*
X120900902Y-122862702D01*
X120928000Y-122691614D01*
X120928000Y-122518385D01*
X120900902Y-122347297D01*
X120900901Y-122347293D01*
X120847376Y-122182561D01*
X120847374Y-122182558D01*
X120847373Y-122182557D01*
X120847373Y-122182555D01*
X120768732Y-122028212D01*
X120666914Y-121888072D01*
X120544428Y-121765586D01*
X120404288Y-121663768D01*
X120404287Y-121663767D01*
X120404285Y-121663766D01*
X120249941Y-121585125D01*
X120249938Y-121585123D01*
X120085206Y-121531598D01*
X120085202Y-121531597D01*
X119914114Y-121504500D01*
X119914111Y-121504500D01*
X119740889Y-121504500D01*
X119740886Y-121504500D01*
X119569797Y-121531597D01*
X119569793Y-121531598D01*
X119405061Y-121585123D01*
X119405058Y-121585125D01*
X119250714Y-121663766D01*
X119110573Y-121765585D01*
X118988085Y-121888073D01*
X118886266Y-122028214D01*
X118807625Y-122182558D01*
X118807623Y-122182561D01*
X118754098Y-122347293D01*
X118754097Y-122347297D01*
X118727000Y-122518385D01*
X118388000Y-122518385D01*
X118360902Y-122347297D01*
X118360901Y-122347293D01*
X118307376Y-122182561D01*
X118307374Y-122182558D01*
X118307373Y-122182557D01*
X118307373Y-122182555D01*
X118228732Y-122028212D01*
X118126914Y-121888072D01*
X118004428Y-121765586D01*
X117864288Y-121663768D01*
X117864287Y-121663767D01*
X117864285Y-121663766D01*
X117709941Y-121585125D01*
X117709938Y-121585123D01*
X117545206Y-121531598D01*
X117545202Y-121531597D01*
X117374114Y-121504500D01*
X117374111Y-121504500D01*
X117200889Y-121504500D01*
X117200886Y-121504500D01*
X117029797Y-121531597D01*
X117029793Y-121531598D01*
X116865061Y-121585123D01*
X116865058Y-121585125D01*
X116710714Y-121663766D01*
X116570573Y-121765585D01*
X116448085Y-121888073D01*
X116346266Y-122028214D01*
X116267625Y-122182558D01*
X116267623Y-122182561D01*
X116214098Y-122347293D01*
X116214097Y-122347297D01*
X116187000Y-122518385D01*
X115848000Y-122518385D01*
X115820902Y-122347297D01*
X115820901Y-122347293D01*
X115767376Y-122182561D01*
X115767374Y-122182558D01*
X115767373Y-122182557D01*
X115767373Y-122182555D01*
X115688732Y-122028212D01*
X115586914Y-121888072D01*
X115464428Y-121765586D01*
X115324288Y-121663768D01*
X115324287Y-121663767D01*
X115324285Y-121663766D01*
X115169941Y-121585125D01*
X115169938Y-121585123D01*
X115005206Y-121531598D01*
X115005202Y-121531597D01*
X114834114Y-121504500D01*
X114834111Y-121504500D01*
X114660889Y-121504500D01*
X114660886Y-121504500D01*
X114489797Y-121531597D01*
X114489793Y-121531598D01*
X114325061Y-121585123D01*
X114325058Y-121585125D01*
X114170714Y-121663766D01*
X114030573Y-121765585D01*
X113908085Y-121888073D01*
X113806266Y-122028214D01*
X113727625Y-122182558D01*
X113727623Y-122182561D01*
X113674098Y-122347293D01*
X113674097Y-122347297D01*
X113647000Y-122518385D01*
X113308000Y-122518385D01*
X113280902Y-122347297D01*
X113280901Y-122347293D01*
X113227376Y-122182561D01*
X113227374Y-122182558D01*
X113227373Y-122182557D01*
X113227373Y-122182555D01*
X113148732Y-122028212D01*
X113046914Y-121888072D01*
X112924428Y-121765586D01*
X112784288Y-121663768D01*
X112784287Y-121663767D01*
X112784285Y-121663766D01*
X112629941Y-121585125D01*
X112629938Y-121585123D01*
X112465206Y-121531598D01*
X112465202Y-121531597D01*
X112294114Y-121504500D01*
X112294111Y-121504500D01*
X112120889Y-121504500D01*
X112120886Y-121504500D01*
X111949797Y-121531597D01*
X111949793Y-121531598D01*
X111785061Y-121585123D01*
X111785058Y-121585125D01*
X111630714Y-121663766D01*
X111490573Y-121765585D01*
X111368085Y-121888073D01*
X111266266Y-122028214D01*
X111187625Y-122182558D01*
X111187623Y-122182561D01*
X111134098Y-122347293D01*
X111134097Y-122347297D01*
X111107000Y-122518385D01*
X110768000Y-122518385D01*
X110740902Y-122347297D01*
X110740901Y-122347293D01*
X110687376Y-122182561D01*
X110687374Y-122182558D01*
X110687373Y-122182557D01*
X110687373Y-122182555D01*
X110608732Y-122028212D01*
X110506914Y-121888072D01*
X110384428Y-121765586D01*
X110244288Y-121663768D01*
X110244287Y-121663767D01*
X110244285Y-121663766D01*
X110089941Y-121585125D01*
X110089938Y-121585123D01*
X109925206Y-121531598D01*
X109925202Y-121531597D01*
X109754114Y-121504500D01*
X109754111Y-121504500D01*
X109580889Y-121504500D01*
X109580886Y-121504500D01*
X109409797Y-121531597D01*
X109409793Y-121531598D01*
X109245061Y-121585123D01*
X109245058Y-121585125D01*
X109090714Y-121663766D01*
X108950573Y-121765585D01*
X108828085Y-121888073D01*
X108726266Y-122028214D01*
X108647625Y-122182558D01*
X108647623Y-122182561D01*
X108594098Y-122347293D01*
X108594097Y-122347297D01*
X108567000Y-122518385D01*
X108228000Y-122518385D01*
X108200902Y-122347297D01*
X108200901Y-122347293D01*
X108147376Y-122182561D01*
X108147374Y-122182558D01*
X108147373Y-122182557D01*
X108147373Y-122182555D01*
X108068732Y-122028212D01*
X107966914Y-121888072D01*
X107844428Y-121765586D01*
X107704288Y-121663768D01*
X107704287Y-121663767D01*
X107704285Y-121663766D01*
X107549946Y-121585127D01*
X107547937Y-121584474D01*
X107546404Y-121583976D01*
X107496906Y-121548011D01*
X107478000Y-121489823D01*
X107478000Y-119323311D01*
X107477153Y-119316878D01*
X107479508Y-119316567D01*
X107482158Y-119265826D01*
X107520654Y-119218268D01*
X107525055Y-119215570D01*
X107595412Y-119174951D01*
X107683943Y-119086420D01*
X107746543Y-118977992D01*
X107778948Y-118857057D01*
X107778948Y-118855646D01*
X107779260Y-118854684D01*
X107779795Y-118850624D01*
X107780547Y-118850723D01*
X107797855Y-118797455D01*
X107807944Y-118785642D01*
X108014090Y-118579496D01*
X108068607Y-118551719D01*
X108084094Y-118550500D01*
X108293761Y-118550500D01*
X108351952Y-118569407D01*
X108387916Y-118618907D01*
X108389388Y-118675122D01*
X108388514Y-118678386D01*
X108386482Y-118685968D01*
X108386482Y-118811170D01*
X108418887Y-118932105D01*
X108481487Y-119040533D01*
X108570018Y-119129064D01*
X108678446Y-119191664D01*
X108799381Y-119224069D01*
X108800792Y-119224069D01*
X108801755Y-119224381D01*
X108805814Y-119224916D01*
X108805715Y-119225666D01*
X108858931Y-119242939D01*
X108865267Y-119247536D01*
X108898201Y-119280470D01*
X108954715Y-119313098D01*
X108959182Y-119315677D01*
X108978121Y-119326612D01*
X108978122Y-119326612D01*
X108978125Y-119326614D01*
X109067269Y-119350500D01*
X109580682Y-119350500D01*
X109638873Y-119369407D01*
X109663625Y-119398389D01*
X109664177Y-119397988D01*
X109668755Y-119404289D01*
X109668757Y-119404291D01*
X109668759Y-119404294D01*
X109760706Y-119496241D01*
X109876567Y-119555275D01*
X109972693Y-119570500D01*
X110432306Y-119570499D01*
X110432308Y-119570499D01*
X110452948Y-119567229D01*
X110528433Y-119555275D01*
X110644294Y-119496241D01*
X110729998Y-119410536D01*
X110784513Y-119382761D01*
X110844945Y-119392332D01*
X110870000Y-119410535D01*
X110955706Y-119496241D01*
X111071567Y-119555275D01*
X111167693Y-119570500D01*
X111627306Y-119570499D01*
X111627308Y-119570499D01*
X111647948Y-119567229D01*
X111723433Y-119555275D01*
X111839294Y-119496241D01*
X111928779Y-119406755D01*
X111983293Y-119378979D01*
X112043726Y-119388550D01*
X112073827Y-119412191D01*
X112082130Y-119421841D01*
X112096924Y-119452102D01*
X112177445Y-119532623D01*
X112179861Y-119535431D01*
X112190308Y-119560397D01*
X112202596Y-119584513D01*
X112201993Y-119588318D01*
X112203481Y-119591874D01*
X112197258Y-119618213D01*
X112193025Y-119644945D01*
X112189940Y-119649190D01*
X112189414Y-119651420D01*
X112186497Y-119653929D01*
X112174821Y-119670000D01*
X112129918Y-119714904D01*
X112096923Y-119747899D01*
X112062634Y-119818038D01*
X112040418Y-119863482D01*
X112029500Y-119938418D01*
X112029500Y-120281582D01*
X112040418Y-120356518D01*
X112096924Y-120472102D01*
X112187898Y-120563076D01*
X112303482Y-120619582D01*
X112378418Y-120630500D01*
X112378421Y-120630500D01*
X112821578Y-120630500D01*
X112821582Y-120630500D01*
X112896518Y-120619582D01*
X113012102Y-120563076D01*
X113054674Y-120520504D01*
X113070683Y-120504496D01*
X113125200Y-120476719D01*
X113140686Y-120475500D01*
X115735457Y-120475500D01*
X115735459Y-120475500D01*
X115824603Y-120451614D01*
X115834079Y-120446143D01*
X115854842Y-120434154D01*
X115914689Y-120421432D01*
X115949289Y-120431680D01*
X115986510Y-120450646D01*
X116080295Y-120465500D01*
X116443332Y-120465499D01*
X116443334Y-120465499D01*
X116443335Y-120465498D01*
X116490225Y-120458072D01*
X116537113Y-120450647D01*
X116537113Y-120450646D01*
X116537118Y-120450646D01*
X116650156Y-120393050D01*
X116666812Y-120376393D01*
X116721327Y-120348618D01*
X116781759Y-120358189D01*
X116806814Y-120376392D01*
X116823472Y-120393050D01*
X116936510Y-120450646D01*
X117030295Y-120465500D01*
X117393332Y-120465499D01*
X117393334Y-120465499D01*
X117393335Y-120465498D01*
X117440225Y-120458072D01*
X117487113Y-120450647D01*
X117487113Y-120450646D01*
X117487118Y-120450646D01*
X117600156Y-120393050D01*
X117616812Y-120376393D01*
X117671327Y-120348618D01*
X117731759Y-120358189D01*
X117756814Y-120376392D01*
X117773472Y-120393050D01*
X117886510Y-120450646D01*
X117980295Y-120465500D01*
X118343332Y-120465499D01*
X118343334Y-120465499D01*
X118343335Y-120465498D01*
X118390225Y-120458072D01*
X118437113Y-120450647D01*
X118437113Y-120450646D01*
X118437118Y-120450646D01*
X118550156Y-120393050D01*
X118639864Y-120303342D01*
X118697460Y-120190304D01*
X118712314Y-120096519D01*
X118712314Y-120002000D01*
X118731221Y-119943809D01*
X118780721Y-119907845D01*
X118811314Y-119903000D01*
X119530181Y-119903000D01*
X119588372Y-119921907D01*
X119609432Y-119942669D01*
X119613884Y-119948616D01*
X119613887Y-119948618D01*
X119613888Y-119948619D01*
X119726223Y-120032713D01*
X119857695Y-120081749D01*
X119857696Y-120081749D01*
X119857701Y-120081751D01*
X119915826Y-120088000D01*
X119915830Y-120088000D01*
X120484170Y-120088000D01*
X120484174Y-120088000D01*
X120542299Y-120081751D01*
X120651970Y-120040846D01*
X120673776Y-120032713D01*
X120673776Y-120032712D01*
X120673778Y-120032712D01*
X120786116Y-119948616D01*
X120870212Y-119836278D01*
X120876705Y-119818871D01*
X120915482Y-119714904D01*
X120933244Y-119692536D01*
X120950049Y-119669407D01*
X120952155Y-119668722D01*
X120953532Y-119666989D01*
X121008240Y-119650500D01*
X121059815Y-119650500D01*
X121118006Y-119669407D01*
X121153970Y-119718907D01*
X121158815Y-119749500D01*
X121158815Y-119860370D01*
X121165222Y-119919980D01*
X121165223Y-119919985D01*
X121215516Y-120054829D01*
X121290368Y-120154818D01*
X121301768Y-120170046D01*
X121301771Y-120170048D01*
X121301772Y-120170049D01*
X121416984Y-120256297D01*
X121551825Y-120306589D01*
X121551826Y-120306589D01*
X121551831Y-120306591D01*
X121611441Y-120313000D01*
X122657186Y-120312999D01*
X122716797Y-120306591D01*
X122784221Y-120281443D01*
X122851643Y-120256297D01*
X122851643Y-120256296D01*
X122851645Y-120256296D01*
X122966860Y-120170046D01*
X123053110Y-120054831D01*
X123055099Y-120049500D01*
X123103403Y-119919988D01*
X123103404Y-119919985D01*
X123103405Y-119919983D01*
X123109814Y-119860373D01*
X123109813Y-119408598D01*
X123128720Y-119350408D01*
X123178220Y-119314444D01*
X123208813Y-119309599D01*
X123487043Y-119309599D01*
X123487045Y-119309599D01*
X123576189Y-119285713D01*
X123656113Y-119239568D01*
X123664066Y-119231613D01*
X123679068Y-119219302D01*
X123692278Y-119210476D01*
X123840156Y-119062598D01*
X123889509Y-119013246D01*
X123944025Y-118985469D01*
X123959512Y-118984250D01*
X123971349Y-118984250D01*
X123971351Y-118984250D01*
X124092286Y-118951845D01*
X124176003Y-118903511D01*
X124235848Y-118890791D01*
X124291744Y-118915678D01*
X124322337Y-118968666D01*
X124324500Y-118989249D01*
X124324500Y-119062601D01*
X124356905Y-119183536D01*
X124419505Y-119291964D01*
X124508036Y-119380495D01*
X124616464Y-119443095D01*
X124737399Y-119475500D01*
X124737401Y-119475500D01*
X124862599Y-119475500D01*
X124862601Y-119475500D01*
X124983536Y-119443095D01*
X125091964Y-119380495D01*
X125180495Y-119291964D01*
X125243095Y-119183536D01*
X125275500Y-119062601D01*
X125275500Y-118937399D01*
X125243095Y-118816464D01*
X125183536Y-118713303D01*
X125170816Y-118653458D01*
X125195703Y-118597563D01*
X125238680Y-118569653D01*
X125314945Y-118544873D01*
X125469288Y-118466232D01*
X125609428Y-118364414D01*
X125731914Y-118241928D01*
X125833732Y-118101788D01*
X125912373Y-117947445D01*
X125912374Y-117947440D01*
X125912376Y-117947438D01*
X125965901Y-117782706D01*
X125965902Y-117782702D01*
X125993000Y-117611614D01*
X125993000Y-117438385D01*
X125965902Y-117267297D01*
X125965901Y-117267293D01*
X125912376Y-117102561D01*
X125912374Y-117102558D01*
X125912373Y-117102557D01*
X125912373Y-117102555D01*
X125833732Y-116948212D01*
X125731914Y-116808072D01*
X125609428Y-116685586D01*
X125469288Y-116583768D01*
X125469287Y-116583767D01*
X125469285Y-116583766D01*
X125314941Y-116505125D01*
X125314938Y-116505123D01*
X125150206Y-116451598D01*
X125150202Y-116451597D01*
X124979114Y-116424500D01*
X124979111Y-116424500D01*
X124805889Y-116424500D01*
X124805886Y-116424500D01*
X124634797Y-116451597D01*
X124634793Y-116451598D01*
X124470061Y-116505123D01*
X124470058Y-116505125D01*
X124315714Y-116583766D01*
X124175573Y-116685585D01*
X124053085Y-116808073D01*
X123951266Y-116948214D01*
X123872625Y-117102558D01*
X123872623Y-117102561D01*
X123819098Y-117267293D01*
X123819097Y-117267297D01*
X123792000Y-117438385D01*
X123792000Y-117611614D01*
X123819097Y-117782698D01*
X123863915Y-117920633D01*
X123863915Y-117981819D01*
X123827951Y-118031319D01*
X123795384Y-118046852D01*
X123725217Y-118065653D01*
X123725216Y-118065654D01*
X123725214Y-118065654D01*
X123725214Y-118065655D01*
X123616786Y-118128255D01*
X123528255Y-118216786D01*
X123472485Y-118313385D01*
X123465654Y-118325216D01*
X123465653Y-118325217D01*
X123433582Y-118444905D01*
X123407960Y-118489284D01*
X123317643Y-118579602D01*
X123263127Y-118607380D01*
X123247639Y-118608599D01*
X122604071Y-118608599D01*
X122526392Y-118629413D01*
X122526390Y-118629413D01*
X122510662Y-118633627D01*
X122485041Y-118637000D01*
X121611447Y-118637000D01*
X121611443Y-118637000D01*
X121611442Y-118637001D01*
X121604263Y-118637772D01*
X121551833Y-118643408D01*
X121551828Y-118643409D01*
X121416984Y-118693702D01*
X121301772Y-118779950D01*
X121301764Y-118779958D01*
X121215517Y-118895169D01*
X121213999Y-118897950D01*
X121212077Y-118899764D01*
X121211274Y-118900838D01*
X121211088Y-118900698D01*
X121198131Y-118912934D01*
X121185302Y-118930593D01*
X121176354Y-118933500D01*
X121169515Y-118939959D01*
X121127111Y-118949500D01*
X121008240Y-118949500D01*
X120950049Y-118930593D01*
X120915482Y-118885096D01*
X120870213Y-118763723D01*
X120786119Y-118651388D01*
X120786118Y-118651387D01*
X120786116Y-118651384D01*
X120786111Y-118651380D01*
X120673776Y-118567286D01*
X120574496Y-118530258D01*
X120526581Y-118492208D01*
X120510183Y-118433261D01*
X120531564Y-118375933D01*
X120574496Y-118344742D01*
X120584339Y-118341071D01*
X120626853Y-118325214D01*
X120673776Y-118307713D01*
X120673776Y-118307712D01*
X120673778Y-118307712D01*
X120786116Y-118223616D01*
X120870212Y-118111278D01*
X120870724Y-118109907D01*
X120915482Y-117989904D01*
X120933244Y-117967536D01*
X120950049Y-117944407D01*
X120952155Y-117943722D01*
X120953532Y-117941989D01*
X121008240Y-117925500D01*
X121127111Y-117925500D01*
X121185302Y-117944407D01*
X121213999Y-117977050D01*
X121215517Y-117979830D01*
X121289393Y-118078516D01*
X121301768Y-118095046D01*
X121301771Y-118095048D01*
X121301772Y-118095049D01*
X121416984Y-118181297D01*
X121551825Y-118231589D01*
X121551826Y-118231589D01*
X121551831Y-118231591D01*
X121611441Y-118238000D01*
X122657186Y-118237999D01*
X122716797Y-118231591D01*
X122826968Y-118190500D01*
X122851643Y-118181297D01*
X122851643Y-118181296D01*
X122851645Y-118181296D01*
X122966860Y-118095046D01*
X123053110Y-117979831D01*
X123059245Y-117963384D01*
X123103403Y-117844988D01*
X123103402Y-117844988D01*
X123103405Y-117844983D01*
X123109814Y-117785373D01*
X123109813Y-117014628D01*
X123103405Y-116955017D01*
X123095683Y-116934313D01*
X123053111Y-116820170D01*
X122966863Y-116704958D01*
X122966862Y-116704957D01*
X122966860Y-116704954D01*
X122949508Y-116691964D01*
X122851643Y-116618702D01*
X122716802Y-116568410D01*
X122716797Y-116568409D01*
X122716795Y-116568408D01*
X122716791Y-116568408D01*
X122685563Y-116565050D01*
X122657187Y-116562000D01*
X122657184Y-116562000D01*
X121833004Y-116562000D01*
X121825406Y-116559531D01*
X121817517Y-116560781D01*
X121796861Y-116550256D01*
X121774813Y-116543093D01*
X121763000Y-116533004D01*
X121753000Y-116523004D01*
X121725223Y-116468487D01*
X121734794Y-116408055D01*
X121778059Y-116364790D01*
X121823004Y-116354000D01*
X121853999Y-116354000D01*
X121854000Y-116353999D01*
X121854000Y-115850001D01*
X122354000Y-115850001D01*
X122354000Y-116353999D01*
X122354001Y-116354000D01*
X122401824Y-116354000D01*
X122461370Y-116347598D01*
X122461381Y-116347596D01*
X122596088Y-116297353D01*
X122596090Y-116297352D01*
X122711184Y-116211192D01*
X122711192Y-116211184D01*
X122797352Y-116096090D01*
X122797353Y-116096088D01*
X122847596Y-115961381D01*
X122847598Y-115961370D01*
X122854000Y-115901824D01*
X122854000Y-115850001D01*
X122853999Y-115850000D01*
X122354001Y-115850000D01*
X122354000Y-115850001D01*
X121854000Y-115850001D01*
X121854000Y-115699000D01*
X121872907Y-115640809D01*
X121922407Y-115604845D01*
X121953000Y-115600000D01*
X122103999Y-115600000D01*
X122104000Y-115599999D01*
X122104000Y-115449000D01*
X122122907Y-115390809D01*
X122172407Y-115354845D01*
X122203000Y-115350000D01*
X122853999Y-115350000D01*
X122854000Y-115349999D01*
X122854000Y-115298175D01*
X122847598Y-115238629D01*
X122847596Y-115238618D01*
X122797353Y-115103911D01*
X122797352Y-115103909D01*
X122711192Y-114988815D01*
X122711184Y-114988807D01*
X122630963Y-114928753D01*
X122595710Y-114878744D01*
X122596584Y-114817565D01*
X122633252Y-114768584D01*
X122690292Y-114750500D01*
X123699509Y-114750500D01*
X123757700Y-114769407D01*
X123793664Y-114818907D01*
X123797290Y-114864987D01*
X123792000Y-114898386D01*
X123792000Y-115071614D01*
X123819097Y-115242702D01*
X123819098Y-115242706D01*
X123872623Y-115407438D01*
X123872625Y-115407441D01*
X123935534Y-115530909D01*
X123951268Y-115561788D01*
X124053086Y-115701928D01*
X124175572Y-115824414D01*
X124315712Y-115926232D01*
X124470055Y-116004873D01*
X124470057Y-116004873D01*
X124470058Y-116004874D01*
X124470061Y-116004876D01*
X124634793Y-116058401D01*
X124634797Y-116058402D01*
X124805886Y-116085500D01*
X124805889Y-116085500D01*
X124979114Y-116085500D01*
X125150202Y-116058402D01*
X125150206Y-116058401D01*
X125314938Y-116004876D01*
X125314940Y-116004874D01*
X125314945Y-116004873D01*
X125469288Y-115926232D01*
X125609428Y-115824414D01*
X125731914Y-115701928D01*
X125833732Y-115561788D01*
X125912373Y-115407445D01*
X125912374Y-115407440D01*
X125912376Y-115407438D01*
X125965901Y-115242706D01*
X125965902Y-115242702D01*
X125993000Y-115071614D01*
X125993000Y-114898385D01*
X125965902Y-114727297D01*
X125965901Y-114727293D01*
X125912374Y-114562556D01*
X125833733Y-114408214D01*
X125833732Y-114408212D01*
X125731914Y-114268072D01*
X125609428Y-114145586D01*
X125469288Y-114043768D01*
X125469287Y-114043767D01*
X125469285Y-114043766D01*
X125314941Y-113965125D01*
X125314938Y-113965123D01*
X125150206Y-113911598D01*
X125150202Y-113911597D01*
X124979114Y-113884500D01*
X124979111Y-113884500D01*
X124805889Y-113884500D01*
X124805886Y-113884500D01*
X124634797Y-113911597D01*
X124634793Y-113911598D01*
X124470061Y-113965123D01*
X124470058Y-113965125D01*
X124325639Y-114038710D01*
X124280694Y-114049500D01*
X120653855Y-114049500D01*
X120564711Y-114073386D01*
X120564710Y-114073386D01*
X120564708Y-114073387D01*
X120484788Y-114119529D01*
X120484786Y-114119531D01*
X120037200Y-114567116D01*
X119982684Y-114594893D01*
X119922252Y-114585322D01*
X119878987Y-114542057D01*
X119871572Y-114522741D01*
X119843095Y-114416464D01*
X119780495Y-114308036D01*
X119691964Y-114219505D01*
X119583536Y-114156905D01*
X119462601Y-114124500D01*
X119337399Y-114124500D01*
X119258710Y-114145585D01*
X119216463Y-114156905D01*
X119108036Y-114219505D01*
X119019505Y-114308036D01*
X118956905Y-114416463D01*
X118946440Y-114455521D01*
X118924500Y-114537399D01*
X118924500Y-114662601D01*
X118929579Y-114681556D01*
X118941187Y-114724877D01*
X118937984Y-114785978D01*
X118899479Y-114833528D01*
X118845560Y-114849500D01*
X117921326Y-114849500D01*
X117921325Y-114849500D01*
X117921315Y-114849501D01*
X117848263Y-114864033D01*
X117848257Y-114864035D01*
X117765400Y-114919397D01*
X117765397Y-114919400D01*
X117710035Y-115002257D01*
X117710033Y-115002263D01*
X117695501Y-115075315D01*
X117695500Y-115075327D01*
X117695500Y-116076497D01*
X117676593Y-116134688D01*
X117627093Y-116170652D01*
X117565907Y-116170652D01*
X117526497Y-116146501D01*
X117414527Y-116034532D01*
X117414525Y-116034530D01*
X117334601Y-115988386D01*
X117245457Y-115964500D01*
X115942730Y-115964500D01*
X115884539Y-115945593D01*
X115848575Y-115896093D01*
X115848575Y-115834907D01*
X115884539Y-115785407D01*
X115891197Y-115781083D01*
X115891957Y-115780500D01*
X115891959Y-115780497D01*
X115891964Y-115780495D01*
X115980495Y-115691964D01*
X116043095Y-115583536D01*
X116075500Y-115462601D01*
X116075500Y-115337399D01*
X116043095Y-115216464D01*
X115980495Y-115108036D01*
X115891964Y-115019505D01*
X115783536Y-114956905D01*
X115662601Y-114924500D01*
X115537399Y-114924500D01*
X115462871Y-114944470D01*
X115416463Y-114956905D01*
X115308036Y-115019505D01*
X115219505Y-115108036D01*
X115156905Y-115216463D01*
X115156905Y-115216464D01*
X115124500Y-115337399D01*
X115124500Y-115462601D01*
X115156905Y-115583536D01*
X115219505Y-115691964D01*
X115308036Y-115780495D01*
X115308038Y-115780496D01*
X115308042Y-115780500D01*
X115313182Y-115784444D01*
X115312170Y-115785762D01*
X115347710Y-115825230D01*
X115354107Y-115886080D01*
X115323517Y-115939069D01*
X115267622Y-115963957D01*
X115257270Y-115964500D01*
X115201356Y-115964500D01*
X115112212Y-115988386D01*
X115062766Y-116016934D01*
X115032285Y-116034532D01*
X114771313Y-116295504D01*
X114716797Y-116323281D01*
X114701310Y-116324500D01*
X113877133Y-116324500D01*
X113877129Y-116324500D01*
X113877128Y-116324501D01*
X113869949Y-116325272D01*
X113817519Y-116330908D01*
X113817514Y-116330909D01*
X113682670Y-116381202D01*
X113612213Y-116433947D01*
X113554298Y-116453684D01*
X113495843Y-116435610D01*
X113482880Y-116424697D01*
X113104113Y-116045929D01*
X113076336Y-115991413D01*
X113075117Y-115975926D01*
X113075117Y-115578911D01*
X113072751Y-115556905D01*
X113068868Y-115520783D01*
X113065874Y-115512756D01*
X113019830Y-115389305D01*
X112935736Y-115276970D01*
X112935735Y-115276969D01*
X112935733Y-115276966D01*
X112921333Y-115266186D01*
X112823393Y-115192868D01*
X112691921Y-115143832D01*
X112691916Y-115143831D01*
X112691914Y-115143830D01*
X112691910Y-115143830D01*
X112665628Y-115141004D01*
X112633791Y-115137582D01*
X112065443Y-115137582D01*
X112037440Y-115140592D01*
X112007323Y-115143830D01*
X112007312Y-115143832D01*
X111875840Y-115192868D01*
X111763505Y-115276962D01*
X111763497Y-115276970D01*
X111679403Y-115389305D01*
X111630367Y-115520777D01*
X111630365Y-115520788D01*
X111624117Y-115578911D01*
X111624117Y-116051928D01*
X111605210Y-116110119D01*
X111555710Y-116146083D01*
X111494524Y-116146083D01*
X111455113Y-116121932D01*
X111054496Y-115721315D01*
X111026719Y-115666798D01*
X111025500Y-115651311D01*
X111025500Y-112256726D01*
X111044407Y-112198535D01*
X111054496Y-112186722D01*
X111357786Y-111883432D01*
X111696022Y-111545197D01*
X111737410Y-111483255D01*
X111756853Y-111385514D01*
X111737410Y-111287773D01*
X111696022Y-111225831D01*
X109928716Y-109458525D01*
X109866774Y-109417137D01*
X109769033Y-109397694D01*
X109769032Y-109397694D01*
X109734844Y-109404495D01*
X109671292Y-109417137D01*
X109671291Y-109417137D01*
X109668815Y-109417630D01*
X109608053Y-109410439D01*
X109563123Y-109368906D01*
X109550500Y-109320532D01*
X109550500Y-107626069D01*
X109569407Y-107567878D01*
X109594499Y-107543753D01*
X109606852Y-107535499D01*
X109614669Y-107530276D01*
X109705276Y-107439669D01*
X109776465Y-107333127D01*
X109825501Y-107214744D01*
X109850500Y-107089069D01*
X109850500Y-106960931D01*
X109825501Y-106835256D01*
X109776465Y-106716873D01*
X109776463Y-106716870D01*
X109776461Y-106716866D01*
X109745178Y-106670049D01*
X109705276Y-106610331D01*
X109614669Y-106519724D01*
X109596643Y-106507679D01*
X109594496Y-106506244D01*
X109556618Y-106458193D01*
X109550500Y-106423930D01*
X109550500Y-106043712D01*
X109569407Y-105985521D01*
X109594500Y-105961396D01*
X109634597Y-105934604D01*
X109634597Y-105934603D01*
X109634601Y-105934601D01*
X109689966Y-105851740D01*
X109704500Y-105778674D01*
X109704500Y-105240611D01*
X109723407Y-105182420D01*
X109744172Y-105161357D01*
X109811185Y-105111191D01*
X109811192Y-105111184D01*
X109897352Y-104996090D01*
X109897353Y-104996088D01*
X109947596Y-104861381D01*
X109947598Y-104861370D01*
X109954000Y-104801824D01*
X109954000Y-104750001D01*
X109953999Y-104750000D01*
X108446001Y-104750000D01*
X108446000Y-104750001D01*
X108446000Y-104801824D01*
X108445999Y-104801824D01*
X108452401Y-104861370D01*
X108452403Y-104861381D01*
X108502646Y-104996088D01*
X108502647Y-104996090D01*
X108588807Y-105111184D01*
X108588814Y-105111191D01*
X108655828Y-105161357D01*
X108691082Y-105211366D01*
X108695500Y-105240611D01*
X108695500Y-105778672D01*
X108695501Y-105778684D01*
X108710033Y-105851736D01*
X108710035Y-105851742D01*
X108765397Y-105934599D01*
X108765402Y-105934604D01*
X108805500Y-105961396D01*
X108843381Y-106009445D01*
X108849500Y-106043712D01*
X108849500Y-106423930D01*
X108830593Y-106482121D01*
X108805504Y-106506244D01*
X108785330Y-106519724D01*
X108694727Y-106610327D01*
X108694724Y-106610331D01*
X108623538Y-106716866D01*
X108623534Y-106716874D01*
X108574500Y-106835252D01*
X108574499Y-106835255D01*
X108574499Y-106835256D01*
X108574100Y-106837263D01*
X108550118Y-106957826D01*
X108549500Y-106960931D01*
X108549500Y-107089069D01*
X108567584Y-107179983D01*
X108574499Y-107214742D01*
X108574500Y-107214747D01*
X108623534Y-107333125D01*
X108623538Y-107333133D01*
X108660402Y-107388303D01*
X108694724Y-107439669D01*
X108694727Y-107439672D01*
X108694731Y-107439677D01*
X108785331Y-107530276D01*
X108805501Y-107543753D01*
X108843381Y-107591803D01*
X108849500Y-107626069D01*
X108849500Y-110177367D01*
X108830593Y-110235558D01*
X108820504Y-110247371D01*
X107842041Y-111225834D01*
X107801763Y-111286116D01*
X107800656Y-111287773D01*
X107781213Y-111385514D01*
X107800656Y-111483255D01*
X107814361Y-111503766D01*
X107832512Y-111530932D01*
X107842044Y-111545197D01*
X109609350Y-113312503D01*
X109671292Y-113353891D01*
X109769033Y-113373334D01*
X109866774Y-113353891D01*
X109928716Y-113312503D01*
X110155498Y-113085720D01*
X110210013Y-113057945D01*
X110270445Y-113067516D01*
X110313710Y-113110781D01*
X110324500Y-113155726D01*
X110324500Y-115883645D01*
X110329371Y-115901824D01*
X110342745Y-115951739D01*
X110348384Y-115972785D01*
X110348385Y-115972787D01*
X110348386Y-115972789D01*
X110394530Y-116052713D01*
X110960519Y-116618702D01*
X111522313Y-117180496D01*
X111550090Y-117235013D01*
X111540519Y-117295445D01*
X111497254Y-117338710D01*
X111452309Y-117349500D01*
X109148386Y-117349500D01*
X109090195Y-117330593D01*
X109054231Y-117281093D01*
X109054231Y-117219907D01*
X109089057Y-117171247D01*
X109140834Y-117132487D01*
X109207547Y-117082546D01*
X109293797Y-116967330D01*
X109298390Y-116955017D01*
X109340134Y-116843094D01*
X109344092Y-116832482D01*
X109350501Y-116772872D01*
X109350501Y-114827128D01*
X109344092Y-114767518D01*
X109344090Y-114767512D01*
X109293798Y-114632671D01*
X109207550Y-114517458D01*
X109207549Y-114517457D01*
X109207547Y-114517454D01*
X109194966Y-114508036D01*
X109092329Y-114431202D01*
X108957488Y-114380910D01*
X108957483Y-114380909D01*
X108957481Y-114380908D01*
X108957477Y-114380908D01*
X108926249Y-114377550D01*
X108897873Y-114374500D01*
X107802129Y-114374500D01*
X107777638Y-114377133D01*
X107742524Y-114380908D01*
X107742513Y-114380910D01*
X107607671Y-114431203D01*
X107601546Y-114435788D01*
X107543630Y-114455521D01*
X107485176Y-114437443D01*
X107472218Y-114426535D01*
X106254496Y-113208813D01*
X106226719Y-113154296D01*
X106225500Y-113138809D01*
X106225500Y-112540829D01*
X106224623Y-112532670D01*
X106219251Y-112482701D01*
X106194917Y-112417458D01*
X106170213Y-112351223D01*
X106086119Y-112238888D01*
X106086118Y-112238887D01*
X106086116Y-112238884D01*
X106086111Y-112238880D01*
X105973776Y-112154786D01*
X105842304Y-112105750D01*
X105842299Y-112105749D01*
X105842297Y-112105748D01*
X105842293Y-112105748D01*
X105816011Y-112102922D01*
X105784174Y-112099500D01*
X105215826Y-112099500D01*
X105192489Y-112102009D01*
X105157706Y-112105748D01*
X105157702Y-112105748D01*
X105157701Y-112105749D01*
X105131566Y-112115497D01*
X105084096Y-112133202D01*
X105081883Y-112133296D01*
X105080093Y-112134598D01*
X105051512Y-112134598D01*
X105022966Y-112135821D01*
X105021122Y-112134598D01*
X105018907Y-112134598D01*
X104995778Y-112117794D01*
X104971972Y-112102009D01*
X104971198Y-112099935D01*
X104969407Y-112098634D01*
X104960573Y-112071446D01*
X104950591Y-112044681D01*
X104950500Y-112040443D01*
X104950500Y-111959556D01*
X104969407Y-111901365D01*
X105018907Y-111865401D01*
X105080093Y-111865401D01*
X105084088Y-111866795D01*
X105157701Y-111894251D01*
X105215826Y-111900500D01*
X105215830Y-111900500D01*
X105784170Y-111900500D01*
X105784174Y-111900500D01*
X105842299Y-111894251D01*
X105912107Y-111868214D01*
X105973776Y-111845213D01*
X105973776Y-111845212D01*
X105973778Y-111845212D01*
X106086116Y-111761116D01*
X106170212Y-111648778D01*
X106195536Y-111580883D01*
X106202740Y-111561567D01*
X106219251Y-111517299D01*
X106225500Y-111459174D01*
X106225500Y-110790826D01*
X106219251Y-110732701D01*
X106219249Y-110732695D01*
X106170213Y-110601223D01*
X106086119Y-110488888D01*
X106086118Y-110488887D01*
X106086116Y-110488884D01*
X106086111Y-110488880D01*
X105973781Y-110404789D01*
X105914902Y-110382828D01*
X105866988Y-110344776D01*
X105850500Y-110290070D01*
X105850500Y-109749500D01*
X105869407Y-109691309D01*
X105918907Y-109655345D01*
X105949500Y-109650500D01*
X106184170Y-109650500D01*
X106184174Y-109650500D01*
X106242299Y-109644251D01*
X106308646Y-109619505D01*
X106373776Y-109595213D01*
X106373776Y-109595212D01*
X106373778Y-109595212D01*
X106486116Y-109511116D01*
X106570212Y-109398778D01*
X106570617Y-109397694D01*
X106608694Y-109295603D01*
X106619251Y-109267299D01*
X106625500Y-109209174D01*
X106625500Y-108515826D01*
X106619251Y-108457701D01*
X106610188Y-108433401D01*
X106570213Y-108326223D01*
X106516908Y-108255017D01*
X106487066Y-108215153D01*
X106467330Y-108157240D01*
X106485404Y-108098786D01*
X106514347Y-108071565D01*
X106598038Y-108019943D01*
X106719946Y-107898035D01*
X106810451Y-107751306D01*
X106864681Y-107587648D01*
X106875000Y-107486655D01*
X106875000Y-107387501D01*
X106874999Y-107387500D01*
X105999000Y-107387500D01*
X105940809Y-107368593D01*
X105904845Y-107319093D01*
X105900000Y-107288500D01*
X105900000Y-107137501D01*
X105899999Y-107137500D01*
X105749000Y-107137500D01*
X105690809Y-107118593D01*
X105654845Y-107069093D01*
X105650000Y-107038500D01*
X105650000Y-106100001D01*
X106150000Y-106100001D01*
X106150000Y-106887499D01*
X106150001Y-106887500D01*
X106874998Y-106887500D01*
X106874999Y-106887499D01*
X106874999Y-106788345D01*
X106864682Y-106687357D01*
X106864679Y-106687345D01*
X106810451Y-106523693D01*
X106719946Y-106376964D01*
X106598035Y-106255053D01*
X106451306Y-106164548D01*
X106287648Y-106110318D01*
X106186655Y-106100000D01*
X106150001Y-106100000D01*
X106150000Y-106100001D01*
X105650000Y-106100001D01*
X105649998Y-106099999D01*
X105613358Y-106100000D01*
X105613351Y-106100001D01*
X105512357Y-106110317D01*
X105512345Y-106110320D01*
X105348692Y-106164548D01*
X105325658Y-106178756D01*
X105266205Y-106193211D01*
X105209610Y-106169959D01*
X105183126Y-106134488D01*
X105180041Y-106127503D01*
X105176614Y-106114712D01*
X105169834Y-106102969D01*
X105149932Y-106068498D01*
X105137212Y-106008651D01*
X105162099Y-105952756D01*
X105215087Y-105922163D01*
X105220952Y-105921546D01*
X105222500Y-105919999D01*
X105222500Y-105350001D01*
X105722500Y-105350001D01*
X105722500Y-105919999D01*
X105722501Y-105920000D01*
X105748334Y-105920000D01*
X105748345Y-105919999D01*
X105814841Y-105913957D01*
X105814847Y-105913955D01*
X105967855Y-105866276D01*
X105967867Y-105866271D01*
X106105020Y-105783359D01*
X106218359Y-105670020D01*
X106301271Y-105532867D01*
X106301276Y-105532855D01*
X106348956Y-105379844D01*
X106351668Y-105350000D01*
X105722501Y-105350000D01*
X105722500Y-105350001D01*
X105222500Y-105350001D01*
X105222500Y-105199000D01*
X105241407Y-105140809D01*
X105290907Y-105104845D01*
X105321500Y-105100000D01*
X105472499Y-105100000D01*
X105472500Y-105099999D01*
X105472500Y-104949000D01*
X105491407Y-104890809D01*
X105540907Y-104854845D01*
X105571500Y-104850000D01*
X106351669Y-104850000D01*
X106362865Y-104837740D01*
X106416067Y-104807521D01*
X106435968Y-104805500D01*
X106898282Y-104805500D01*
X106898284Y-104805500D01*
X106987428Y-104781614D01*
X107016703Y-104764712D01*
X107067352Y-104735470D01*
X107152823Y-104649999D01*
X111348331Y-104649999D01*
X111348332Y-104650000D01*
X111977499Y-104650000D01*
X111977500Y-104649999D01*
X111977500Y-104080001D01*
X111977499Y-104080000D01*
X111951654Y-104080000D01*
X111885158Y-104086042D01*
X111885152Y-104086044D01*
X111732144Y-104133723D01*
X111732132Y-104133728D01*
X111594979Y-104216640D01*
X111481640Y-104329979D01*
X111398728Y-104467132D01*
X111398723Y-104467144D01*
X111351043Y-104620155D01*
X111348331Y-104649999D01*
X107152823Y-104649999D01*
X107513324Y-104289496D01*
X107567841Y-104261719D01*
X107583328Y-104260500D01*
X108088642Y-104260500D01*
X108088644Y-104260500D01*
X108177788Y-104236614D01*
X108215808Y-104214663D01*
X108257712Y-104190470D01*
X108282549Y-104165632D01*
X108288901Y-104161029D01*
X108310906Y-104153907D01*
X108331513Y-104143408D01*
X108339458Y-104144666D01*
X108347114Y-104142189D01*
X108369101Y-104149361D01*
X108391945Y-104152979D01*
X108397633Y-104158667D01*
X108405283Y-104161163D01*
X108418855Y-104179889D01*
X108435210Y-104196244D01*
X108437439Y-104205530D01*
X108441190Y-104210705D01*
X108441177Y-104221103D01*
X108446000Y-104241189D01*
X108446000Y-104249999D01*
X108446001Y-104250000D01*
X108949999Y-104250000D01*
X108950000Y-104249999D01*
X108950000Y-103764154D01*
X108916253Y-103746001D01*
X109450000Y-103746001D01*
X109450000Y-104249999D01*
X109450001Y-104250000D01*
X109953999Y-104250000D01*
X109954000Y-104249999D01*
X109954000Y-104198175D01*
X109947598Y-104138629D01*
X109947596Y-104138618D01*
X109897353Y-104003911D01*
X109897352Y-104003909D01*
X109811192Y-103888815D01*
X109811184Y-103888807D01*
X109696090Y-103802647D01*
X109696088Y-103802646D01*
X109561381Y-103752403D01*
X109561370Y-103752401D01*
X109501824Y-103746000D01*
X109450001Y-103746000D01*
X109450000Y-103746001D01*
X108916253Y-103746001D01*
X108894290Y-103734187D01*
X108889537Y-103729217D01*
X108882998Y-103727093D01*
X108868750Y-103707483D01*
X108852000Y-103689969D01*
X108851076Y-103683156D01*
X108847034Y-103677593D01*
X108847034Y-103653353D01*
X108843777Y-103629339D01*
X108847034Y-103623284D01*
X108847034Y-103616407D01*
X108871185Y-103576997D01*
X109126791Y-103321390D01*
X109181308Y-103293612D01*
X109241737Y-103303182D01*
X109241743Y-103303185D01*
X109241744Y-103303186D01*
X109245053Y-103304872D01*
X109245063Y-103304876D01*
X109409793Y-103358401D01*
X109409797Y-103358402D01*
X109580886Y-103385500D01*
X109580889Y-103385500D01*
X109754114Y-103385500D01*
X109925202Y-103358402D01*
X109925206Y-103358401D01*
X110089938Y-103304876D01*
X110089940Y-103304874D01*
X110089945Y-103304873D01*
X110244288Y-103226232D01*
X110384428Y-103124414D01*
X110506914Y-103001928D01*
X110608732Y-102861788D01*
X110687373Y-102707445D01*
X110687374Y-102707440D01*
X110687376Y-102707438D01*
X110740901Y-102542706D01*
X110740902Y-102542702D01*
X110768000Y-102371614D01*
X110768000Y-102198385D01*
X110740902Y-102027297D01*
X110740901Y-102027293D01*
X110687376Y-101862561D01*
X110687374Y-101862558D01*
X110687373Y-101862557D01*
X110687373Y-101862555D01*
X110608732Y-101708212D01*
X110506914Y-101568072D01*
X110384428Y-101445586D01*
X110244288Y-101343768D01*
X110244287Y-101343767D01*
X110244285Y-101343766D01*
X110089941Y-101265125D01*
X110013611Y-101240323D01*
X109964112Y-101204359D01*
X109945205Y-101146168D01*
X109964113Y-101087977D01*
X110013613Y-101052014D01*
X110185713Y-100996096D01*
X110375052Y-100899624D01*
X110546964Y-100774722D01*
X110697222Y-100624464D01*
X110822123Y-100452552D01*
X110849290Y-100399235D01*
X110892554Y-100355971D01*
X110952986Y-100346399D01*
X111007503Y-100374176D01*
X111025710Y-100399235D01*
X111052876Y-100452552D01*
X111177777Y-100624464D01*
X111328035Y-100774722D01*
X111499947Y-100899624D01*
X111689286Y-100996096D01*
X111861386Y-101052014D01*
X111910886Y-101087978D01*
X111929794Y-101146169D01*
X111910887Y-101204359D01*
X111861388Y-101240323D01*
X111785058Y-101265125D01*
X111630714Y-101343766D01*
X111490573Y-101445585D01*
X111368085Y-101568073D01*
X111266266Y-101708214D01*
X111187625Y-101862558D01*
X111187623Y-101862561D01*
X111134098Y-102027293D01*
X111134097Y-102027297D01*
X111107000Y-102198385D01*
X111107000Y-102371614D01*
X111134097Y-102542702D01*
X111134098Y-102542706D01*
X111187623Y-102707438D01*
X111187625Y-102707441D01*
X111263718Y-102856785D01*
X111266268Y-102861788D01*
X111368086Y-103001928D01*
X111490572Y-103124414D01*
X111630712Y-103226232D01*
X111785055Y-103304873D01*
X111785057Y-103304873D01*
X111785058Y-103304874D01*
X111785061Y-103304876D01*
X111949793Y-103358401D01*
X111949797Y-103358402D01*
X112120886Y-103385500D01*
X112120889Y-103385500D01*
X112294113Y-103385500D01*
X112325679Y-103380500D01*
X112366040Y-103374107D01*
X112426471Y-103383678D01*
X112451531Y-103401884D01*
X113210143Y-104160496D01*
X113218169Y-104176248D01*
X113230140Y-104189258D01*
X113231715Y-104202835D01*
X113237920Y-104215013D01*
X113235154Y-104232475D01*
X113237192Y-104250036D01*
X113230487Y-104261944D01*
X113228349Y-104275445D01*
X113215846Y-104287947D01*
X113207174Y-104303351D01*
X113196137Y-104307656D01*
X113185084Y-104318710D01*
X113151550Y-104328840D01*
X113145854Y-104329500D01*
X113117694Y-104329501D01*
X113040504Y-104341725D01*
X113038426Y-104341967D01*
X113010354Y-104336316D01*
X112982068Y-104331836D01*
X112979757Y-104330157D01*
X112978444Y-104329893D01*
X112976528Y-104327811D01*
X112957011Y-104313631D01*
X112860020Y-104216640D01*
X112722867Y-104133728D01*
X112722855Y-104133723D01*
X112569847Y-104086044D01*
X112569841Y-104086042D01*
X112503345Y-104080000D01*
X112477501Y-104080000D01*
X112477500Y-104080001D01*
X112477500Y-104801000D01*
X112458593Y-104859191D01*
X112409093Y-104895155D01*
X112378500Y-104900000D01*
X112227501Y-104900000D01*
X112227500Y-104900001D01*
X112227500Y-105051000D01*
X112208593Y-105109191D01*
X112159093Y-105145155D01*
X112128500Y-105150000D01*
X111348331Y-105150000D01*
X111351043Y-105179844D01*
X111398723Y-105332855D01*
X111398728Y-105332867D01*
X111472619Y-105455097D01*
X111486543Y-105514677D01*
X111462787Y-105571062D01*
X111457901Y-105576316D01*
X111394529Y-105639688D01*
X111350595Y-105715785D01*
X111350594Y-105715787D01*
X111348387Y-105719608D01*
X111344783Y-105733058D01*
X111324500Y-105808756D01*
X111324500Y-107558644D01*
X111345542Y-107637174D01*
X111348341Y-107647620D01*
X111348387Y-107647790D01*
X111348388Y-107647793D01*
X111394529Y-107727711D01*
X111700176Y-108033359D01*
X111727953Y-108087875D01*
X111728605Y-108113944D01*
X111724500Y-108152129D01*
X111724500Y-108922866D01*
X111724501Y-108922870D01*
X111730908Y-108982476D01*
X111730909Y-108982485D01*
X111781202Y-109117329D01*
X111867450Y-109232541D01*
X111867454Y-109232546D01*
X111867457Y-109232548D01*
X111867458Y-109232549D01*
X111982670Y-109318797D01*
X112117511Y-109369089D01*
X112117512Y-109369089D01*
X112117517Y-109369091D01*
X112177127Y-109375500D01*
X112838810Y-109375499D01*
X112897001Y-109394406D01*
X112908813Y-109404495D01*
X113119129Y-109614811D01*
X113287182Y-109782863D01*
X113314960Y-109837380D01*
X113305389Y-109897812D01*
X113296432Y-109912196D01*
X113229786Y-110001223D01*
X113180750Y-110132695D01*
X113180748Y-110132706D01*
X113174500Y-110190829D01*
X113174500Y-110884170D01*
X113174499Y-110884170D01*
X113180748Y-110942293D01*
X113180750Y-110942304D01*
X113229786Y-111073776D01*
X113277416Y-111137401D01*
X113313884Y-111186116D01*
X113313887Y-111186118D01*
X113313888Y-111186119D01*
X113426223Y-111270213D01*
X113525503Y-111307242D01*
X113573418Y-111345292D01*
X113589816Y-111404239D01*
X113568434Y-111461567D01*
X113525503Y-111492758D01*
X113426223Y-111529786D01*
X113313888Y-111613880D01*
X113313880Y-111613888D01*
X113229786Y-111726223D01*
X113180750Y-111857695D01*
X113180748Y-111857706D01*
X113174500Y-111915829D01*
X113174500Y-112609170D01*
X113174499Y-112609170D01*
X113180748Y-112667293D01*
X113180750Y-112667304D01*
X113229786Y-112798776D01*
X113281189Y-112867441D01*
X113313884Y-112911116D01*
X113313887Y-112911118D01*
X113313888Y-112911119D01*
X113426223Y-112995213D01*
X113557695Y-113044249D01*
X113557696Y-113044249D01*
X113557701Y-113044251D01*
X113615826Y-113050500D01*
X113615830Y-113050500D01*
X114184170Y-113050500D01*
X114184174Y-113050500D01*
X114242299Y-113044251D01*
X114302533Y-113021785D01*
X114373776Y-112995213D01*
X114373776Y-112995212D01*
X114373778Y-112995212D01*
X114486116Y-112911116D01*
X114570212Y-112798778D01*
X114619251Y-112667299D01*
X114625500Y-112609174D01*
X114625500Y-112073688D01*
X114644407Y-112015498D01*
X114654490Y-112003691D01*
X114980470Y-111677712D01*
X115026614Y-111597788D01*
X115050500Y-111508644D01*
X115050500Y-111416356D01*
X115050500Y-107884248D01*
X115026614Y-107795104D01*
X115018409Y-107780892D01*
X114980470Y-107715180D01*
X114854999Y-107589709D01*
X114729496Y-107464205D01*
X114701719Y-107409689D01*
X114700500Y-107394202D01*
X114700500Y-106900327D01*
X114700498Y-106900315D01*
X114690066Y-106847873D01*
X114685966Y-106827260D01*
X114671094Y-106805002D01*
X114654485Y-106746113D01*
X114671094Y-106694998D01*
X114679284Y-106682740D01*
X114685966Y-106672740D01*
X114700500Y-106599674D01*
X114700500Y-106050326D01*
X114685966Y-105977260D01*
X114680712Y-105969397D01*
X114630602Y-105894400D01*
X114630599Y-105894397D01*
X114594499Y-105870276D01*
X114556619Y-105822226D01*
X114550500Y-105787960D01*
X114550500Y-104608528D01*
X114549222Y-104603757D01*
X114526614Y-104519383D01*
X114522351Y-104512000D01*
X114480470Y-104439459D01*
X113105030Y-103064019D01*
X113077253Y-103009502D01*
X113086824Y-102949070D01*
X113094938Y-102935828D01*
X113148732Y-102861788D01*
X113227373Y-102707445D01*
X113227374Y-102707440D01*
X113227376Y-102707438D01*
X113280901Y-102542706D01*
X113280902Y-102542702D01*
X113308000Y-102371614D01*
X113308000Y-102198385D01*
X113280902Y-102027297D01*
X113280901Y-102027293D01*
X113227376Y-101862561D01*
X113227374Y-101862558D01*
X113227373Y-101862557D01*
X113227373Y-101862555D01*
X113148732Y-101708212D01*
X113046914Y-101568072D01*
X112924428Y-101445586D01*
X112784288Y-101343768D01*
X112784287Y-101343767D01*
X112784285Y-101343766D01*
X112629941Y-101265125D01*
X112553611Y-101240323D01*
X112504112Y-101204359D01*
X112485205Y-101146168D01*
X112504113Y-101087977D01*
X112553613Y-101052014D01*
X112725713Y-100996096D01*
X112915052Y-100899624D01*
X113086964Y-100774722D01*
X113237222Y-100624464D01*
X113362123Y-100452552D01*
X113389290Y-100399235D01*
X113432554Y-100355971D01*
X113492986Y-100346399D01*
X113547503Y-100374176D01*
X113565710Y-100399235D01*
X113592876Y-100452552D01*
X113717777Y-100624464D01*
X113868035Y-100774722D01*
X114039947Y-100899624D01*
X114229286Y-100996096D01*
X114401386Y-101052014D01*
X114450886Y-101087978D01*
X114469794Y-101146169D01*
X114450887Y-101204359D01*
X114401388Y-101240323D01*
X114325058Y-101265125D01*
X114170714Y-101343766D01*
X114030573Y-101445585D01*
X113908085Y-101568073D01*
X113806266Y-101708214D01*
X113727625Y-101862558D01*
X113727623Y-101862561D01*
X113674098Y-102027293D01*
X113674097Y-102027297D01*
X113647000Y-102198385D01*
X113647000Y-102371614D01*
X113674097Y-102542702D01*
X113674098Y-102542706D01*
X113727623Y-102707438D01*
X113727625Y-102707441D01*
X113803718Y-102856785D01*
X113806268Y-102861788D01*
X113908086Y-103001928D01*
X114030572Y-103124414D01*
X114170712Y-103226232D01*
X114325055Y-103304873D01*
X114325057Y-103304873D01*
X114325058Y-103304874D01*
X114325061Y-103304876D01*
X114489793Y-103358401D01*
X114489797Y-103358402D01*
X114660886Y-103385500D01*
X114660889Y-103385500D01*
X114834111Y-103385500D01*
X114886332Y-103377228D01*
X114946762Y-103386798D01*
X114971823Y-103405005D01*
X115613177Y-104046359D01*
X115640954Y-104100876D01*
X115631383Y-104161308D01*
X115588118Y-104204573D01*
X115552132Y-104214957D01*
X115485158Y-104221042D01*
X115485152Y-104221044D01*
X115332144Y-104268723D01*
X115332132Y-104268728D01*
X115194979Y-104351640D01*
X115081640Y-104464979D01*
X114998728Y-104602132D01*
X114998723Y-104602144D01*
X114951043Y-104755155D01*
X114948331Y-104784999D01*
X114948332Y-104785000D01*
X115728500Y-104785000D01*
X115786691Y-104803907D01*
X115822655Y-104853407D01*
X115827500Y-104884000D01*
X115827500Y-105186000D01*
X115808593Y-105244191D01*
X115759093Y-105280155D01*
X115728500Y-105285000D01*
X114948331Y-105285000D01*
X114951043Y-105314844D01*
X114998723Y-105467855D01*
X114998728Y-105467867D01*
X115082980Y-105607236D01*
X115096904Y-105666816D01*
X115073148Y-105723201D01*
X115068262Y-105728455D01*
X114969529Y-105827188D01*
X114930726Y-105894398D01*
X114930726Y-105894399D01*
X114929094Y-105897226D01*
X114923386Y-105907111D01*
X114915327Y-105937187D01*
X114901120Y-105990212D01*
X114899500Y-105996257D01*
X114899500Y-107253743D01*
X114913359Y-107305468D01*
X114923385Y-107342885D01*
X114923386Y-107342888D01*
X114969530Y-107422812D01*
X115246219Y-107699500D01*
X115442850Y-107896131D01*
X115470627Y-107950648D01*
X115461056Y-108011080D01*
X115452100Y-108025463D01*
X115381202Y-108120170D01*
X115330910Y-108255011D01*
X115330908Y-108255022D01*
X115327777Y-108284147D01*
X115325377Y-108306475D01*
X115324500Y-108314629D01*
X115324500Y-109085366D01*
X115324501Y-109085370D01*
X115330908Y-109144980D01*
X115330909Y-109144985D01*
X115381202Y-109279829D01*
X115464692Y-109391357D01*
X115467454Y-109395046D01*
X115467457Y-109395048D01*
X115467458Y-109395049D01*
X115582670Y-109481297D01*
X115717511Y-109531589D01*
X115717512Y-109531589D01*
X115717517Y-109531591D01*
X115777127Y-109538000D01*
X116150500Y-109537999D01*
X116165412Y-109542844D01*
X116181093Y-109542844D01*
X116193778Y-109552060D01*
X116208691Y-109556906D01*
X116217907Y-109569591D01*
X116230593Y-109578808D01*
X116235438Y-109593720D01*
X116244655Y-109606406D01*
X116249500Y-109636999D01*
X116249500Y-109690070D01*
X116230593Y-109748261D01*
X116185098Y-109782828D01*
X116126218Y-109804789D01*
X116013888Y-109888880D01*
X116013885Y-109888882D01*
X116013884Y-109888884D01*
X116007737Y-109897096D01*
X115929786Y-110001223D01*
X115880750Y-110132695D01*
X115880748Y-110132706D01*
X115874500Y-110190829D01*
X115874500Y-110625500D01*
X115855593Y-110683691D01*
X115806093Y-110719655D01*
X115775500Y-110724500D01*
X115737399Y-110724500D01*
X115660692Y-110745054D01*
X115616463Y-110756905D01*
X115508036Y-110819505D01*
X115419505Y-110908036D01*
X115356905Y-111016463D01*
X115356905Y-111016464D01*
X115324500Y-111137399D01*
X115324500Y-111262601D01*
X115356905Y-111383536D01*
X115419505Y-111491964D01*
X115508036Y-111580495D01*
X115616464Y-111643095D01*
X115737399Y-111675500D01*
X115737401Y-111675500D01*
X115806119Y-111675500D01*
X115864310Y-111694407D01*
X115900274Y-111743907D01*
X115900274Y-111805093D01*
X115898877Y-111809096D01*
X115880750Y-111857695D01*
X115880748Y-111857706D01*
X115874500Y-111915829D01*
X115874500Y-112609170D01*
X115874499Y-112609170D01*
X115880748Y-112667293D01*
X115880750Y-112667304D01*
X115929786Y-112798776D01*
X115981189Y-112867441D01*
X116013884Y-112911116D01*
X116013887Y-112911118D01*
X116013888Y-112911119D01*
X116126223Y-112995213D01*
X116257695Y-113044249D01*
X116257696Y-113044249D01*
X116257701Y-113044251D01*
X116315826Y-113050500D01*
X116315830Y-113050500D01*
X116884170Y-113050500D01*
X116884174Y-113050500D01*
X116942299Y-113044251D01*
X117002533Y-113021785D01*
X117073776Y-112995213D01*
X117073776Y-112995212D01*
X117073778Y-112995212D01*
X117186116Y-112911116D01*
X117270212Y-112798778D01*
X117319251Y-112667299D01*
X117325500Y-112609174D01*
X117325500Y-112073688D01*
X117344407Y-112015497D01*
X117354490Y-112003690D01*
X118080469Y-111277712D01*
X118126614Y-111197788D01*
X118133789Y-111171009D01*
X118150500Y-111108644D01*
X118150500Y-107899538D01*
X118169407Y-107841347D01*
X118194496Y-107817224D01*
X118230601Y-107793101D01*
X118285966Y-107710240D01*
X118300500Y-107637174D01*
X118300500Y-107087826D01*
X118300500Y-106837826D01*
X118300387Y-106837260D01*
X118287008Y-106770000D01*
X118285966Y-106764760D01*
X118271094Y-106742502D01*
X118254485Y-106683613D01*
X118271094Y-106632498D01*
X118283603Y-106613776D01*
X118285966Y-106610240D01*
X118300500Y-106537174D01*
X118300500Y-105987826D01*
X118300387Y-105987260D01*
X118295117Y-105960763D01*
X118285966Y-105914760D01*
X118272362Y-105894400D01*
X118230602Y-105831900D01*
X118230599Y-105831897D01*
X118194499Y-105807776D01*
X118156619Y-105759726D01*
X118150500Y-105725460D01*
X118150500Y-104743529D01*
X118148341Y-104735470D01*
X118126614Y-104654384D01*
X118080470Y-104574460D01*
X117135540Y-103629530D01*
X117055616Y-103583386D01*
X116966472Y-103559500D01*
X116966470Y-103559500D01*
X116158690Y-103559500D01*
X116100499Y-103540593D01*
X116088686Y-103530504D01*
X115635423Y-103077241D01*
X115607646Y-103022724D01*
X115617217Y-102962292D01*
X115625335Y-102949046D01*
X115688732Y-102861788D01*
X115767373Y-102707445D01*
X115767374Y-102707440D01*
X115767376Y-102707438D01*
X115820901Y-102542706D01*
X115820902Y-102542702D01*
X115848000Y-102371614D01*
X115848000Y-102198385D01*
X115820902Y-102027297D01*
X115820901Y-102027293D01*
X115767376Y-101862561D01*
X115767374Y-101862558D01*
X115767373Y-101862557D01*
X115767373Y-101862555D01*
X115688732Y-101708212D01*
X115586914Y-101568072D01*
X115464428Y-101445586D01*
X115324288Y-101343768D01*
X115324287Y-101343767D01*
X115324285Y-101343766D01*
X115169941Y-101265125D01*
X115093611Y-101240323D01*
X115044112Y-101204359D01*
X115025205Y-101146168D01*
X115044113Y-101087977D01*
X115093613Y-101052014D01*
X115265713Y-100996096D01*
X115455052Y-100899624D01*
X115626964Y-100774722D01*
X115777222Y-100624464D01*
X115902123Y-100452552D01*
X115929290Y-100399235D01*
X115972554Y-100355971D01*
X116032986Y-100346399D01*
X116087503Y-100374176D01*
X116105710Y-100399235D01*
X116132876Y-100452552D01*
X116257777Y-100624464D01*
X116408035Y-100774722D01*
X116579947Y-100899624D01*
X116769286Y-100996096D01*
X116941386Y-101052014D01*
X116990886Y-101087978D01*
X117009794Y-101146169D01*
X116990887Y-101204359D01*
X116941388Y-101240323D01*
X116865058Y-101265125D01*
X116710714Y-101343766D01*
X116570573Y-101445585D01*
X116448085Y-101568073D01*
X116346266Y-101708214D01*
X116267625Y-101862558D01*
X116267623Y-101862561D01*
X116214098Y-102027293D01*
X116214097Y-102027297D01*
X116187000Y-102198385D01*
X116187000Y-102371614D01*
X116214097Y-102542702D01*
X116214098Y-102542706D01*
X116267623Y-102707438D01*
X116267625Y-102707441D01*
X116343718Y-102856785D01*
X116346268Y-102861788D01*
X116448086Y-103001928D01*
X116570572Y-103124414D01*
X116710712Y-103226232D01*
X116865055Y-103304873D01*
X116865057Y-103304873D01*
X116865058Y-103304874D01*
X116865061Y-103304876D01*
X117029793Y-103358401D01*
X117029797Y-103358402D01*
X117200886Y-103385500D01*
X117200889Y-103385500D01*
X117374111Y-103385500D01*
X117426332Y-103377228D01*
X117486762Y-103386798D01*
X117511823Y-103405005D01*
X118337288Y-104230470D01*
X118355854Y-104241189D01*
X118389299Y-104260499D01*
X118389302Y-104260500D01*
X118391803Y-104261944D01*
X118417208Y-104276612D01*
X118417209Y-104276612D01*
X118417212Y-104276614D01*
X118506356Y-104300500D01*
X118506357Y-104300500D01*
X118598644Y-104300500D01*
X118607175Y-104300500D01*
X118665366Y-104319407D01*
X118701330Y-104368907D01*
X118701330Y-104430093D01*
X118685110Y-104460551D01*
X118681640Y-104464980D01*
X118598728Y-104602132D01*
X118598723Y-104602144D01*
X118551043Y-104755155D01*
X118548331Y-104784999D01*
X118548332Y-104785000D01*
X119328500Y-104785000D01*
X119386691Y-104803907D01*
X119422655Y-104853407D01*
X119427500Y-104884000D01*
X119427500Y-105186000D01*
X119408593Y-105244191D01*
X119359093Y-105280155D01*
X119328500Y-105285000D01*
X118548331Y-105285000D01*
X118551043Y-105314844D01*
X118598723Y-105467855D01*
X118598728Y-105467867D01*
X118681640Y-105605020D01*
X118702915Y-105626295D01*
X118730692Y-105680812D01*
X118721121Y-105741244D01*
X118702915Y-105766302D01*
X118569529Y-105899688D01*
X118529205Y-105969532D01*
X118523388Y-105979606D01*
X118523387Y-105979608D01*
X118521337Y-105987260D01*
X118499500Y-106068756D01*
X118499500Y-107326244D01*
X118517146Y-107392099D01*
X118520950Y-107406296D01*
X118520950Y-107406297D01*
X118523338Y-107415212D01*
X118523386Y-107415388D01*
X118569530Y-107495312D01*
X118846959Y-107772740D01*
X119042850Y-107968631D01*
X119070627Y-108023148D01*
X119061056Y-108083580D01*
X119052100Y-108097963D01*
X118981202Y-108192670D01*
X118930910Y-108327511D01*
X118930908Y-108327522D01*
X118924500Y-108387129D01*
X118924500Y-109157866D01*
X118924501Y-109157870D01*
X118930908Y-109217480D01*
X118930909Y-109217485D01*
X118981202Y-109352329D01*
X119060701Y-109458525D01*
X119067454Y-109467546D01*
X119067457Y-109467548D01*
X119067458Y-109467549D01*
X119182670Y-109553797D01*
X119317511Y-109604089D01*
X119317512Y-109604089D01*
X119317517Y-109604091D01*
X119377127Y-109610500D01*
X119750500Y-109610499D01*
X119765412Y-109615344D01*
X119781093Y-109615344D01*
X119793778Y-109624560D01*
X119808691Y-109629406D01*
X119817907Y-109642091D01*
X119830593Y-109651308D01*
X119835438Y-109666220D01*
X119844655Y-109678906D01*
X119849500Y-109709499D01*
X119849500Y-109790070D01*
X119830593Y-109848261D01*
X119785098Y-109882828D01*
X119726218Y-109904789D01*
X119613888Y-109988880D01*
X119613880Y-109988888D01*
X119529786Y-110101223D01*
X119480750Y-110232695D01*
X119480748Y-110232706D01*
X119479172Y-110247371D01*
X119474582Y-110290070D01*
X119474500Y-110290829D01*
X119474500Y-110984170D01*
X119474499Y-110984170D01*
X119480748Y-111042293D01*
X119480750Y-111042304D01*
X119529786Y-111173776D01*
X119607593Y-111277712D01*
X119613884Y-111286116D01*
X119613887Y-111286118D01*
X119613888Y-111286119D01*
X119726223Y-111370213D01*
X119825503Y-111407242D01*
X119873418Y-111445292D01*
X119889816Y-111504239D01*
X119868434Y-111561567D01*
X119825503Y-111592758D01*
X119726223Y-111629786D01*
X119613888Y-111713880D01*
X119613880Y-111713888D01*
X119529786Y-111826223D01*
X119480750Y-111957695D01*
X119480748Y-111957706D01*
X119477067Y-111991947D01*
X119474536Y-112015498D01*
X119474500Y-112015829D01*
X119474500Y-112709170D01*
X119474499Y-112709170D01*
X119480748Y-112767293D01*
X119480750Y-112767304D01*
X119529786Y-112898776D01*
X119601978Y-112995212D01*
X119613884Y-113011116D01*
X119613887Y-113011118D01*
X119613888Y-113011119D01*
X119726223Y-113095213D01*
X119857695Y-113144249D01*
X119857696Y-113144249D01*
X119857701Y-113144251D01*
X119915826Y-113150500D01*
X119915830Y-113150500D01*
X120484170Y-113150500D01*
X120484174Y-113150500D01*
X120542299Y-113144251D01*
X120632036Y-113110781D01*
X120673776Y-113095213D01*
X120673776Y-113095212D01*
X120673778Y-113095212D01*
X120786116Y-113011116D01*
X120870212Y-112898778D01*
X120883764Y-112862445D01*
X120919249Y-112767304D01*
X120919248Y-112767304D01*
X120919251Y-112767299D01*
X120925500Y-112709174D01*
X120925500Y-112173688D01*
X120944407Y-112115497D01*
X120954490Y-112103690D01*
X121680469Y-111377712D01*
X121726614Y-111297788D01*
X121726805Y-111297073D01*
X121728421Y-111291045D01*
X121728422Y-111291039D01*
X121745894Y-111225834D01*
X121750500Y-111208644D01*
X121750500Y-107972038D01*
X121769407Y-107913847D01*
X121794496Y-107889724D01*
X121830601Y-107865601D01*
X121885966Y-107782740D01*
X121900500Y-107709674D01*
X121900500Y-107160326D01*
X121900500Y-106910326D01*
X121899934Y-106907483D01*
X121896399Y-106889709D01*
X121885966Y-106837260D01*
X121871094Y-106815002D01*
X121854485Y-106756113D01*
X121871094Y-106704998D01*
X121877774Y-106695000D01*
X121885966Y-106682740D01*
X121900500Y-106609674D01*
X121900500Y-106060326D01*
X121885966Y-105987260D01*
X121846221Y-105927776D01*
X121830602Y-105904400D01*
X121830599Y-105904397D01*
X121794499Y-105880276D01*
X121756619Y-105832226D01*
X121750500Y-105797960D01*
X121750500Y-104832499D01*
X122148331Y-104832499D01*
X122148332Y-104832500D01*
X122777499Y-104832500D01*
X122777500Y-104832499D01*
X122777500Y-104262501D01*
X122777499Y-104262500D01*
X122751654Y-104262500D01*
X122685158Y-104268542D01*
X122685152Y-104268544D01*
X122532144Y-104316223D01*
X122532132Y-104316228D01*
X122394979Y-104399140D01*
X122281640Y-104512479D01*
X122198728Y-104649632D01*
X122198723Y-104649644D01*
X122151043Y-104802655D01*
X122148331Y-104832499D01*
X121750500Y-104832499D01*
X121750500Y-104743529D01*
X121748341Y-104735470D01*
X121726614Y-104654384D01*
X121680470Y-104574460D01*
X120775540Y-103669530D01*
X120695616Y-103623386D01*
X120606472Y-103599500D01*
X120606470Y-103599500D01*
X118738690Y-103599500D01*
X118680499Y-103580593D01*
X118668686Y-103570504D01*
X118175423Y-103077241D01*
X118147646Y-103022724D01*
X118157217Y-102962292D01*
X118165335Y-102949046D01*
X118228732Y-102861788D01*
X118307373Y-102707445D01*
X118307374Y-102707440D01*
X118307376Y-102707438D01*
X118360901Y-102542706D01*
X118360902Y-102542702D01*
X118388000Y-102371614D01*
X118388000Y-102198385D01*
X118360902Y-102027297D01*
X118360901Y-102027293D01*
X118307376Y-101862561D01*
X118307374Y-101862558D01*
X118307373Y-101862557D01*
X118307373Y-101862555D01*
X118228732Y-101708212D01*
X118126914Y-101568072D01*
X118004428Y-101445586D01*
X117864288Y-101343768D01*
X117864287Y-101343767D01*
X117864285Y-101343766D01*
X117709941Y-101265125D01*
X117633611Y-101240323D01*
X117584112Y-101204359D01*
X117565205Y-101146168D01*
X117584113Y-101087977D01*
X117633613Y-101052014D01*
X117805713Y-100996096D01*
X117995052Y-100899624D01*
X118166964Y-100774722D01*
X118317222Y-100624464D01*
X118442123Y-100452552D01*
X118469290Y-100399235D01*
X118512554Y-100355971D01*
X118572986Y-100346399D01*
X118627503Y-100374176D01*
X118645710Y-100399235D01*
X118672876Y-100452552D01*
X118797777Y-100624464D01*
X118948035Y-100774722D01*
X119119947Y-100899624D01*
X119309286Y-100996096D01*
X119481386Y-101052014D01*
X119530886Y-101087978D01*
X119549794Y-101146169D01*
X119530887Y-101204359D01*
X119481388Y-101240323D01*
X119405058Y-101265125D01*
X119250714Y-101343766D01*
X119110573Y-101445585D01*
X118988085Y-101568073D01*
X118886266Y-101708214D01*
X118807625Y-101862558D01*
X118807623Y-101862561D01*
X118754098Y-102027293D01*
X118754097Y-102027297D01*
X118727000Y-102198385D01*
X118727000Y-102371614D01*
X118754097Y-102542702D01*
X118754098Y-102542706D01*
X118807623Y-102707438D01*
X118807625Y-102707441D01*
X118883718Y-102856785D01*
X118886268Y-102861788D01*
X118988086Y-103001928D01*
X119110572Y-103124414D01*
X119250712Y-103226232D01*
X119405055Y-103304873D01*
X119405057Y-103304873D01*
X119405058Y-103304874D01*
X119405061Y-103304876D01*
X119569793Y-103358401D01*
X119569797Y-103358402D01*
X119740886Y-103385500D01*
X119740889Y-103385500D01*
X119914114Y-103385500D01*
X120085202Y-103358402D01*
X120085206Y-103358401D01*
X120249938Y-103304876D01*
X120249940Y-103304874D01*
X120249945Y-103304873D01*
X120404288Y-103226232D01*
X120544428Y-103124414D01*
X120666914Y-103001928D01*
X120701935Y-102953725D01*
X120751432Y-102917763D01*
X120812617Y-102917762D01*
X120852030Y-102941913D01*
X121790587Y-103880470D01*
X121831095Y-103903857D01*
X121870511Y-103926614D01*
X121959655Y-103950500D01*
X124313810Y-103950500D01*
X124372001Y-103969407D01*
X124383814Y-103979496D01*
X124620504Y-104216186D01*
X124624130Y-104223303D01*
X124630593Y-104227999D01*
X124637756Y-104250047D01*
X124648281Y-104270703D01*
X124649500Y-104286190D01*
X124649500Y-104431924D01*
X124630593Y-104490115D01*
X124581093Y-104526079D01*
X124531501Y-104526084D01*
X124531128Y-104528444D01*
X124523433Y-104527225D01*
X124442056Y-104514336D01*
X124427308Y-104512000D01*
X123917695Y-104512000D01*
X123842500Y-104523909D01*
X123782068Y-104514336D01*
X123757011Y-104496131D01*
X123660020Y-104399140D01*
X123522867Y-104316228D01*
X123522855Y-104316223D01*
X123369847Y-104268544D01*
X123369841Y-104268542D01*
X123303345Y-104262500D01*
X123277501Y-104262500D01*
X123277500Y-104262501D01*
X123277500Y-104983500D01*
X123258593Y-105041691D01*
X123209093Y-105077655D01*
X123178500Y-105082500D01*
X123027501Y-105082500D01*
X123027500Y-105082501D01*
X123027500Y-105233500D01*
X123008593Y-105291691D01*
X122959093Y-105327655D01*
X122928500Y-105332500D01*
X122148331Y-105332500D01*
X122151043Y-105362344D01*
X122198723Y-105515355D01*
X122198728Y-105515367D01*
X122281640Y-105652520D01*
X122297915Y-105668795D01*
X122325692Y-105723312D01*
X122316121Y-105783744D01*
X122297915Y-105808802D01*
X122169530Y-105937187D01*
X122133777Y-105999111D01*
X122133778Y-105999112D01*
X122123386Y-106017111D01*
X122116040Y-106044528D01*
X122099704Y-106105497D01*
X122099500Y-106106257D01*
X122099500Y-107806143D01*
X122116183Y-107868407D01*
X122120428Y-107884248D01*
X122123386Y-107895288D01*
X122169530Y-107975212D01*
X122351558Y-108157240D01*
X122500175Y-108305856D01*
X122527953Y-108360373D01*
X122528605Y-108386441D01*
X122524500Y-108424627D01*
X122524500Y-109195366D01*
X122524501Y-109195370D01*
X122530908Y-109254980D01*
X122530909Y-109254985D01*
X122581202Y-109389829D01*
X122649675Y-109481297D01*
X122667454Y-109505046D01*
X122667457Y-109505048D01*
X122667458Y-109505049D01*
X122755887Y-109571247D01*
X122791140Y-109621255D01*
X122790266Y-109682435D01*
X122753599Y-109731416D01*
X122696558Y-109749500D01*
X122515826Y-109749500D01*
X122487823Y-109752510D01*
X122457706Y-109755748D01*
X122457695Y-109755750D01*
X122326223Y-109804786D01*
X122213888Y-109888880D01*
X122213885Y-109888882D01*
X122213884Y-109888884D01*
X122207737Y-109897096D01*
X122129786Y-110001223D01*
X122080750Y-110132695D01*
X122080748Y-110132706D01*
X122074500Y-110190829D01*
X122074500Y-110884170D01*
X122074499Y-110884170D01*
X122080748Y-110942293D01*
X122080750Y-110942304D01*
X122129786Y-111073776D01*
X122177416Y-111137401D01*
X122213884Y-111186116D01*
X122213887Y-111186118D01*
X122213888Y-111186119D01*
X122326223Y-111270213D01*
X122425503Y-111307242D01*
X122473418Y-111345292D01*
X122489816Y-111404239D01*
X122468434Y-111461567D01*
X122425503Y-111492758D01*
X122326223Y-111529786D01*
X122213888Y-111613880D01*
X122213880Y-111613888D01*
X122129786Y-111726223D01*
X122080750Y-111857695D01*
X122080748Y-111857706D01*
X122074500Y-111915829D01*
X122074500Y-112609170D01*
X122074499Y-112609170D01*
X122080748Y-112667293D01*
X122080750Y-112667304D01*
X122129786Y-112798776D01*
X122181189Y-112867441D01*
X122213884Y-112911116D01*
X122213887Y-112911118D01*
X122213888Y-112911119D01*
X122326223Y-112995213D01*
X122457695Y-113044249D01*
X122457696Y-113044249D01*
X122457701Y-113044251D01*
X122515826Y-113050500D01*
X122515830Y-113050500D01*
X123084170Y-113050500D01*
X123084174Y-113050500D01*
X123142299Y-113044251D01*
X123202533Y-113021785D01*
X123273776Y-112995213D01*
X123273776Y-112995212D01*
X123273778Y-112995212D01*
X123386116Y-112911116D01*
X123470212Y-112798778D01*
X123519251Y-112667299D01*
X123525500Y-112609174D01*
X123525500Y-112358385D01*
X123792000Y-112358385D01*
X123792000Y-112531614D01*
X123819097Y-112702702D01*
X123819098Y-112702706D01*
X123872623Y-112867438D01*
X123872625Y-112867441D01*
X123945831Y-113011119D01*
X123951268Y-113021788D01*
X124053086Y-113161928D01*
X124175572Y-113284414D01*
X124315712Y-113386232D01*
X124470055Y-113464873D01*
X124470057Y-113464873D01*
X124470058Y-113464874D01*
X124470061Y-113464876D01*
X124634793Y-113518401D01*
X124634797Y-113518402D01*
X124805886Y-113545500D01*
X124805889Y-113545500D01*
X124979114Y-113545500D01*
X125150202Y-113518402D01*
X125150206Y-113518401D01*
X125314938Y-113464876D01*
X125314940Y-113464874D01*
X125314945Y-113464873D01*
X125469288Y-113386232D01*
X125609428Y-113284414D01*
X125731914Y-113161928D01*
X125833732Y-113021788D01*
X125912373Y-112867445D01*
X125912374Y-112867440D01*
X125912376Y-112867438D01*
X125965901Y-112702706D01*
X125965902Y-112702702D01*
X125993000Y-112531614D01*
X125993000Y-112358385D01*
X125965902Y-112187297D01*
X125965901Y-112187293D01*
X125912376Y-112022561D01*
X125912374Y-112022558D01*
X125912373Y-112022557D01*
X125912373Y-112022555D01*
X125833732Y-111868212D01*
X125731914Y-111728072D01*
X125609428Y-111605586D01*
X125469288Y-111503768D01*
X125469287Y-111503767D01*
X125469285Y-111503766D01*
X125314941Y-111425125D01*
X125314938Y-111425123D01*
X125150206Y-111371598D01*
X125150202Y-111371597D01*
X124979114Y-111344500D01*
X124979111Y-111344500D01*
X124805889Y-111344500D01*
X124805886Y-111344500D01*
X124634797Y-111371597D01*
X124634793Y-111371598D01*
X124470061Y-111425123D01*
X124470058Y-111425125D01*
X124315714Y-111503766D01*
X124175573Y-111605585D01*
X124053085Y-111728073D01*
X123951266Y-111868214D01*
X123872625Y-112022558D01*
X123872623Y-112022561D01*
X123819098Y-112187293D01*
X123819097Y-112187297D01*
X123792000Y-112358385D01*
X123525500Y-112358385D01*
X123525500Y-111915826D01*
X123519251Y-111857701D01*
X123513179Y-111841424D01*
X123510558Y-111780298D01*
X123535931Y-111736825D01*
X124230470Y-111042288D01*
X124276614Y-110962364D01*
X124281989Y-110942304D01*
X124288092Y-110919530D01*
X124292633Y-110902579D01*
X124300500Y-110873220D01*
X124300500Y-110178788D01*
X124319407Y-110120597D01*
X124329490Y-110108790D01*
X125280469Y-109157812D01*
X125326614Y-109077888D01*
X125331250Y-109060586D01*
X125331251Y-109060584D01*
X125344345Y-109011715D01*
X125350500Y-108988744D01*
X125350500Y-108019538D01*
X125369407Y-107961347D01*
X125394496Y-107937224D01*
X125430601Y-107913101D01*
X125485966Y-107830240D01*
X125500500Y-107757174D01*
X125500500Y-107207826D01*
X125500500Y-106957826D01*
X125485966Y-106884760D01*
X125471094Y-106862502D01*
X125454485Y-106803613D01*
X125471094Y-106752498D01*
X125477773Y-106742502D01*
X125485966Y-106730240D01*
X125500500Y-106657174D01*
X125500500Y-106107826D01*
X125498943Y-106100001D01*
X125492856Y-106069397D01*
X125485966Y-106034760D01*
X125462407Y-105999501D01*
X125430602Y-105951900D01*
X125430599Y-105951897D01*
X125394499Y-105927776D01*
X125356619Y-105879726D01*
X125350500Y-105845460D01*
X125350500Y-104053857D01*
X125337117Y-104003911D01*
X125326614Y-103964712D01*
X125291479Y-103903857D01*
X125280470Y-103884788D01*
X124715212Y-103319530D01*
X124635288Y-103273386D01*
X124546144Y-103249500D01*
X124546142Y-103249500D01*
X123183349Y-103249500D01*
X123125158Y-103230593D01*
X123089194Y-103181093D01*
X123089194Y-103119907D01*
X123113343Y-103080498D01*
X123191914Y-103001928D01*
X123293732Y-102861788D01*
X123372373Y-102707445D01*
X123372374Y-102707440D01*
X123372376Y-102707438D01*
X123425901Y-102542706D01*
X123425902Y-102542702D01*
X123453000Y-102371614D01*
X123453000Y-102198385D01*
X123425902Y-102027297D01*
X123425901Y-102027293D01*
X123372376Y-101862561D01*
X123372374Y-101862558D01*
X123372373Y-101862557D01*
X123372373Y-101862555D01*
X123293732Y-101708212D01*
X123191914Y-101568072D01*
X123069428Y-101445586D01*
X122929288Y-101343768D01*
X122929287Y-101343767D01*
X122929285Y-101343766D01*
X122774941Y-101265125D01*
X122774938Y-101265123D01*
X122610206Y-101211598D01*
X122610202Y-101211597D01*
X122439114Y-101184500D01*
X122439111Y-101184500D01*
X122265889Y-101184500D01*
X122265886Y-101184500D01*
X122094797Y-101211597D01*
X122094793Y-101211598D01*
X121930061Y-101265123D01*
X121930058Y-101265125D01*
X121775714Y-101343766D01*
X121635573Y-101445585D01*
X121513085Y-101568073D01*
X121411266Y-101708214D01*
X121332625Y-101862558D01*
X121332623Y-101862561D01*
X121279098Y-102027293D01*
X121279097Y-102027297D01*
X121261594Y-102137811D01*
X121233817Y-102192328D01*
X121179300Y-102220105D01*
X121118868Y-102210534D01*
X121093810Y-102192328D01*
X120904290Y-102002809D01*
X120880138Y-101963397D01*
X120847373Y-101862555D01*
X120768733Y-101708214D01*
X120768732Y-101708212D01*
X120666914Y-101568072D01*
X120544428Y-101445586D01*
X120404288Y-101343768D01*
X120404287Y-101343767D01*
X120404285Y-101343766D01*
X120249941Y-101265125D01*
X120173611Y-101240323D01*
X120124112Y-101204359D01*
X120105205Y-101146168D01*
X120124113Y-101087977D01*
X120173613Y-101052014D01*
X120345713Y-100996096D01*
X120535052Y-100899624D01*
X120706964Y-100774722D01*
X120857222Y-100624464D01*
X120982124Y-100452552D01*
X121078595Y-100263215D01*
X121144258Y-100061122D01*
X121154731Y-99995000D01*
X120260512Y-99995000D01*
X120293425Y-99937993D01*
X120327500Y-99810826D01*
X120327500Y-99679174D01*
X120293425Y-99552007D01*
X120260512Y-99495000D01*
X121154731Y-99495000D01*
X121154731Y-99494999D01*
X121144258Y-99428877D01*
X121078595Y-99226784D01*
X120982124Y-99037447D01*
X120857222Y-98865535D01*
X120706964Y-98715277D01*
X120535052Y-98590375D01*
X120345715Y-98493904D01*
X120143620Y-98428240D01*
X120077500Y-98417767D01*
X120077500Y-99311988D01*
X120020493Y-99279075D01*
X119893326Y-99245000D01*
X119761674Y-99245000D01*
X119634507Y-99279075D01*
X119577500Y-99311988D01*
X119577500Y-98417768D01*
X119577499Y-98417767D01*
X119511380Y-98428240D01*
X119511378Y-98428240D01*
X119309284Y-98493904D01*
X119119947Y-98590375D01*
X118948035Y-98715277D01*
X118797777Y-98865535D01*
X118672875Y-99037448D01*
X118645710Y-99090764D01*
X118602445Y-99134029D01*
X118542013Y-99143600D01*
X118487496Y-99115822D01*
X118469290Y-99090764D01*
X118442124Y-99037448D01*
X118317222Y-98865535D01*
X118166964Y-98715277D01*
X117995052Y-98590375D01*
X117805715Y-98493904D01*
X117603620Y-98428240D01*
X117537500Y-98417767D01*
X117537500Y-99311988D01*
X117480493Y-99279075D01*
X117353326Y-99245000D01*
X117221674Y-99245000D01*
X117094507Y-99279075D01*
X117037500Y-99311988D01*
X117037500Y-98417768D01*
X117037499Y-98417767D01*
X116971380Y-98428240D01*
X116971378Y-98428240D01*
X116769284Y-98493904D01*
X116579947Y-98590375D01*
X116408035Y-98715277D01*
X116257777Y-98865535D01*
X116132875Y-99037448D01*
X116105710Y-99090764D01*
X116062445Y-99134029D01*
X116002013Y-99143600D01*
X115947496Y-99115822D01*
X115929290Y-99090764D01*
X115902124Y-99037448D01*
X115777222Y-98865535D01*
X115626964Y-98715277D01*
X115455052Y-98590375D01*
X115265715Y-98493904D01*
X115063620Y-98428240D01*
X114997500Y-98417767D01*
X114997500Y-99311988D01*
X114940493Y-99279075D01*
X114813326Y-99245000D01*
X114681674Y-99245000D01*
X114554507Y-99279075D01*
X114497500Y-99311988D01*
X114497500Y-98417768D01*
X114497499Y-98417767D01*
X114431380Y-98428240D01*
X114431378Y-98428240D01*
X114229284Y-98493904D01*
X114039947Y-98590375D01*
X113868035Y-98715277D01*
X113717777Y-98865535D01*
X113592875Y-99037448D01*
X113565710Y-99090764D01*
X113522445Y-99134029D01*
X113462013Y-99143600D01*
X113407496Y-99115822D01*
X113389290Y-99090764D01*
X113362124Y-99037448D01*
X113237222Y-98865535D01*
X113086964Y-98715277D01*
X112915052Y-98590375D01*
X112725715Y-98493904D01*
X112523620Y-98428240D01*
X112457500Y-98417767D01*
X112457500Y-99311988D01*
X112400493Y-99279075D01*
X112273326Y-99245000D01*
X112141674Y-99245000D01*
X112014507Y-99279075D01*
X111957500Y-99311988D01*
X111957500Y-98417768D01*
X111957499Y-98417767D01*
X111891380Y-98428240D01*
X111891378Y-98428240D01*
X111689284Y-98493904D01*
X111499947Y-98590375D01*
X111328035Y-98715277D01*
X111177777Y-98865535D01*
X111052875Y-99037448D01*
X111025710Y-99090764D01*
X110982445Y-99134029D01*
X110922013Y-99143600D01*
X110867496Y-99115822D01*
X110849290Y-99090764D01*
X110822124Y-99037448D01*
X110697222Y-98865535D01*
X110546964Y-98715277D01*
X110375052Y-98590375D01*
X110185715Y-98493904D01*
X109983620Y-98428240D01*
X109917500Y-98417767D01*
X109917500Y-99311988D01*
X109860493Y-99279075D01*
X109733326Y-99245000D01*
X109601674Y-99245000D01*
X109474507Y-99279075D01*
X109417500Y-99311988D01*
X109417500Y-98417768D01*
X109417499Y-98417767D01*
X109351380Y-98428240D01*
X109351378Y-98428240D01*
X109149284Y-98493904D01*
X108959947Y-98590375D01*
X108788035Y-98715277D01*
X108637777Y-98865535D01*
X108512875Y-99037448D01*
X108485710Y-99090764D01*
X108442445Y-99134029D01*
X108382013Y-99143600D01*
X108327496Y-99115822D01*
X108309290Y-99090764D01*
X108282124Y-99037448D01*
X108157222Y-98865535D01*
X108006964Y-98715277D01*
X107835052Y-98590375D01*
X107645715Y-98493904D01*
X107443620Y-98428240D01*
X107377500Y-98417767D01*
X107377500Y-99311988D01*
X107320493Y-99279075D01*
X107193326Y-99245000D01*
X107061674Y-99245000D01*
X106934507Y-99279075D01*
X106877500Y-99311988D01*
X106877500Y-98417768D01*
X106877499Y-98417767D01*
X106811380Y-98428240D01*
X106811378Y-98428240D01*
X106609284Y-98493904D01*
X106419947Y-98590375D01*
X106248035Y-98715277D01*
X106097777Y-98865535D01*
X105972875Y-99037448D01*
X105945710Y-99090764D01*
X105902445Y-99134029D01*
X105842013Y-99143600D01*
X105787496Y-99115822D01*
X105769290Y-99090764D01*
X105742124Y-99037448D01*
X105617222Y-98865535D01*
X105466964Y-98715277D01*
X105295052Y-98590375D01*
X105105715Y-98493904D01*
X104903620Y-98428240D01*
X104837500Y-98417767D01*
X104837500Y-99311988D01*
X104780493Y-99279075D01*
X104653326Y-99245000D01*
X104521674Y-99245000D01*
X104394507Y-99279075D01*
X104337500Y-99311988D01*
X104337500Y-98417768D01*
X104337499Y-98417767D01*
X104271380Y-98428240D01*
X104271378Y-98428240D01*
X104069284Y-98493904D01*
X103879947Y-98590375D01*
X103708031Y-98715280D01*
X103561158Y-98862153D01*
X103506642Y-98889930D01*
X103446210Y-98880358D01*
X103402945Y-98837094D01*
X103392722Y-98802731D01*
X103391098Y-98787629D01*
X103391096Y-98787618D01*
X103340853Y-98652911D01*
X103340852Y-98652909D01*
X103254692Y-98537815D01*
X103254684Y-98537807D01*
X103139590Y-98451647D01*
X103139588Y-98451646D01*
X103004881Y-98401403D01*
X103004870Y-98401401D01*
X102945324Y-98395000D01*
X102297501Y-98395000D01*
X102297500Y-98395001D01*
X102297500Y-99311988D01*
X102240493Y-99279075D01*
X102113326Y-99245000D01*
X101981674Y-99245000D01*
X101854507Y-99279075D01*
X101797500Y-99311988D01*
X101797500Y-98395001D01*
X101797499Y-98395000D01*
X101149676Y-98395000D01*
X101090129Y-98401401D01*
X101090118Y-98401403D01*
X100955411Y-98451646D01*
X100955409Y-98451647D01*
X100840315Y-98537807D01*
X100840307Y-98537815D01*
X100754147Y-98652909D01*
X100754146Y-98652911D01*
X100703903Y-98787618D01*
X100703901Y-98787629D01*
X100697500Y-98847175D01*
X100697500Y-99494999D01*
X100697501Y-99495000D01*
X101614488Y-99495000D01*
X101581575Y-99552007D01*
X101547500Y-99679174D01*
X101547500Y-99810826D01*
X101581575Y-99937993D01*
X101614488Y-99995000D01*
X100697501Y-99995000D01*
X100697500Y-99995001D01*
X100697500Y-100642832D01*
X100698262Y-100649914D01*
X100685686Y-100709793D01*
X100640315Y-100750843D01*
X100599830Y-100759500D01*
X100443856Y-100759500D01*
X100389297Y-100774118D01*
X100354707Y-100783387D01*
X100274791Y-100829527D01*
X99083814Y-102020504D01*
X99029297Y-102048281D01*
X99013810Y-102049500D01*
X94681356Y-102049500D01*
X94643498Y-102059644D01*
X94605639Y-102069788D01*
X94605638Y-102069787D01*
X94592214Y-102073385D01*
X94512288Y-102119530D01*
X92131312Y-104500504D01*
X92076795Y-104528281D01*
X92061308Y-104529500D01*
X91772691Y-104529500D01*
X91676567Y-104544725D01*
X91676560Y-104544727D01*
X91560708Y-104603757D01*
X91468757Y-104695708D01*
X91409726Y-104811563D01*
X91409725Y-104811565D01*
X91394500Y-104907691D01*
X91394500Y-105292308D01*
X91409725Y-105388432D01*
X91409727Y-105388439D01*
X91468757Y-105504291D01*
X91468759Y-105504294D01*
X91560706Y-105596241D01*
X91560708Y-105596242D01*
X91674492Y-105654218D01*
X91676567Y-105655275D01*
X91772693Y-105670500D01*
X92061310Y-105670499D01*
X92068907Y-105672967D01*
X92076796Y-105671718D01*
X92097450Y-105682241D01*
X92119500Y-105689406D01*
X92131313Y-105699495D01*
X92220503Y-105788684D01*
X92248281Y-105843200D01*
X92249500Y-105858688D01*
X92249500Y-105900500D01*
X92230593Y-105958691D01*
X92181093Y-105994655D01*
X92150500Y-105999500D01*
X91725326Y-105999500D01*
X91725325Y-105999500D01*
X91725315Y-105999501D01*
X91652263Y-106014033D01*
X91652257Y-106014035D01*
X91569400Y-106069397D01*
X91569399Y-106069399D01*
X91514035Y-106152257D01*
X91514033Y-106152263D01*
X91499501Y-106225315D01*
X91499500Y-106225327D01*
X91499500Y-106463810D01*
X91498584Y-106466627D01*
X91499337Y-106469493D01*
X91493219Y-106483139D01*
X91480593Y-106522001D01*
X91477120Y-106526502D01*
X91473987Y-106530330D01*
X91404978Y-106599340D01*
X91374909Y-106651421D01*
X91369810Y-106657653D01*
X91350508Y-106670049D01*
X91333455Y-106685403D01*
X91318815Y-106690587D01*
X91289711Y-106698385D01*
X91209790Y-106744529D01*
X91144529Y-106809790D01*
X91098387Y-106889709D01*
X91098386Y-106889711D01*
X91098386Y-106889712D01*
X91074500Y-106978856D01*
X90875500Y-106978856D01*
X90875500Y-104751353D01*
X90894407Y-104693162D01*
X90904496Y-104681349D01*
X92288424Y-103297421D01*
X92315316Y-103270529D01*
X92380470Y-103205375D01*
X92426614Y-103125451D01*
X92430888Y-103109500D01*
X92440566Y-103073385D01*
X92447292Y-103048281D01*
X92450500Y-103036307D01*
X92450500Y-102943712D01*
X92469407Y-102885521D01*
X92494500Y-102861396D01*
X92534597Y-102834604D01*
X92534597Y-102834603D01*
X92534601Y-102834601D01*
X92589966Y-102751740D01*
X92604500Y-102678674D01*
X92604500Y-102295500D01*
X92623407Y-102237309D01*
X92672907Y-102201345D01*
X92703500Y-102196500D01*
X93200142Y-102196500D01*
X93200144Y-102196500D01*
X93289288Y-102172614D01*
X93369212Y-102126470D01*
X93580470Y-101915212D01*
X93626614Y-101835288D01*
X93627421Y-101832273D01*
X93635646Y-101801583D01*
X93641082Y-101781290D01*
X93650500Y-101746144D01*
X93650500Y-101743712D01*
X93651038Y-101742055D01*
X93651347Y-101739710D01*
X93651781Y-101739767D01*
X93669407Y-101685521D01*
X93694500Y-101661396D01*
X93734597Y-101634604D01*
X93734597Y-101634603D01*
X93734601Y-101634601D01*
X93789966Y-101551740D01*
X93804500Y-101478674D01*
X93804500Y-100921326D01*
X93789966Y-100848260D01*
X93766675Y-100813402D01*
X93734602Y-100765400D01*
X93734599Y-100765397D01*
X93651742Y-100710035D01*
X93651740Y-100710034D01*
X93651737Y-100710033D01*
X93651736Y-100710033D01*
X93578684Y-100695501D01*
X93578674Y-100695500D01*
X93021326Y-100695500D01*
X93021325Y-100695500D01*
X93021315Y-100695501D01*
X92948263Y-100710033D01*
X92948261Y-100710033D01*
X92948260Y-100710034D01*
X92948259Y-100710034D01*
X92941185Y-100712965D01*
X92935670Y-100713398D01*
X92931101Y-100716517D01*
X92903301Y-100720500D01*
X92688699Y-100720500D01*
X92650815Y-100712965D01*
X92643742Y-100710035D01*
X92643740Y-100710034D01*
X92643736Y-100710033D01*
X92570684Y-100695501D01*
X92570674Y-100695500D01*
X92021326Y-100695500D01*
X92021325Y-100695500D01*
X92021315Y-100695501D01*
X91948263Y-100710033D01*
X91948257Y-100710035D01*
X91865400Y-100765397D01*
X91865395Y-100765402D01*
X91838604Y-100805500D01*
X91790555Y-100843381D01*
X91756288Y-100849500D01*
X90371356Y-100849500D01*
X90282212Y-100873386D01*
X90236767Y-100899624D01*
X90202285Y-100919532D01*
X89878207Y-101243609D01*
X89823691Y-101271386D01*
X89763265Y-101261818D01*
X89759945Y-101260126D01*
X89759938Y-101260123D01*
X89595206Y-101206598D01*
X89595202Y-101206597D01*
X89424114Y-101179500D01*
X89424111Y-101179500D01*
X89250889Y-101179500D01*
X89250886Y-101179500D01*
X89079797Y-101206597D01*
X89079793Y-101206598D01*
X88915061Y-101260123D01*
X88915058Y-101260125D01*
X88760714Y-101338766D01*
X88620573Y-101440585D01*
X88498085Y-101563073D01*
X88396266Y-101703214D01*
X88317625Y-101857558D01*
X88317623Y-101857561D01*
X88264098Y-102022293D01*
X88264097Y-102022297D01*
X88237000Y-102193385D01*
X88237000Y-102366614D01*
X88264097Y-102537702D01*
X88264098Y-102537706D01*
X88317623Y-102702438D01*
X88317625Y-102702441D01*
X88384964Y-102834604D01*
X88396268Y-102856788D01*
X88498086Y-102996928D01*
X88620572Y-103119414D01*
X88715635Y-103188481D01*
X88751598Y-103237980D01*
X88751598Y-103299166D01*
X88715634Y-103348666D01*
X88706945Y-103354308D01*
X88645944Y-103389528D01*
X88645942Y-103389530D01*
X87907030Y-104128442D01*
X87880421Y-104174531D01*
X87871810Y-104189446D01*
X87826339Y-104230386D01*
X87765489Y-104236780D01*
X87712501Y-104206186D01*
X87705986Y-104198141D01*
X87636914Y-104103072D01*
X87514428Y-103980586D01*
X87374288Y-103878768D01*
X87374287Y-103878767D01*
X87374285Y-103878766D01*
X87219941Y-103800125D01*
X87219938Y-103800123D01*
X87055206Y-103746598D01*
X87055202Y-103746597D01*
X86884114Y-103719500D01*
X86884111Y-103719500D01*
X86710889Y-103719500D01*
X86710886Y-103719500D01*
X86539797Y-103746597D01*
X86539793Y-103746598D01*
X86375061Y-103800123D01*
X86375058Y-103800125D01*
X86220713Y-103878766D01*
X86107691Y-103960883D01*
X86049500Y-103979790D01*
X85991309Y-103960883D01*
X85955345Y-103911383D01*
X85950500Y-103880790D01*
X85950500Y-103219209D01*
X85969407Y-103161018D01*
X86018907Y-103125054D01*
X86080093Y-103125054D01*
X86107691Y-103139117D01*
X86217927Y-103219209D01*
X86220712Y-103221232D01*
X86375055Y-103299873D01*
X86375057Y-103299873D01*
X86375058Y-103299874D01*
X86375061Y-103299876D01*
X86539793Y-103353401D01*
X86539797Y-103353402D01*
X86710886Y-103380500D01*
X86710889Y-103380500D01*
X86884114Y-103380500D01*
X87055202Y-103353402D01*
X87055206Y-103353401D01*
X87219938Y-103299876D01*
X87219940Y-103299874D01*
X87219945Y-103299873D01*
X87374288Y-103221232D01*
X87514428Y-103119414D01*
X87636914Y-102996928D01*
X87738732Y-102856788D01*
X87817373Y-102702445D01*
X87817374Y-102702440D01*
X87817376Y-102702438D01*
X87870901Y-102537706D01*
X87870902Y-102537702D01*
X87898000Y-102366614D01*
X87898000Y-102193385D01*
X87870902Y-102022297D01*
X87870901Y-102022293D01*
X87817376Y-101857561D01*
X87817374Y-101857558D01*
X87817373Y-101857557D01*
X87817373Y-101857555D01*
X87738732Y-101703212D01*
X87636914Y-101563072D01*
X87514428Y-101440586D01*
X87374288Y-101338768D01*
X87374287Y-101338767D01*
X87374285Y-101338766D01*
X87219941Y-101260125D01*
X87219938Y-101260123D01*
X87055206Y-101206598D01*
X87055202Y-101206597D01*
X86884114Y-101179500D01*
X86884111Y-101179500D01*
X86710889Y-101179500D01*
X86710886Y-101179500D01*
X86539797Y-101206597D01*
X86539793Y-101206598D01*
X86375061Y-101260123D01*
X86375058Y-101260125D01*
X86220713Y-101338766D01*
X86107691Y-101420883D01*
X86049500Y-101439790D01*
X85991309Y-101420883D01*
X85955345Y-101371383D01*
X85950500Y-101340790D01*
X85950500Y-100679209D01*
X85969407Y-100621018D01*
X86018907Y-100585054D01*
X86080093Y-100585054D01*
X86107691Y-100599117D01*
X86217927Y-100679209D01*
X86220712Y-100681232D01*
X86375055Y-100759873D01*
X86375057Y-100759873D01*
X86375058Y-100759874D01*
X86375061Y-100759876D01*
X86539793Y-100813401D01*
X86539797Y-100813402D01*
X86710886Y-100840500D01*
X86710889Y-100840500D01*
X86884114Y-100840500D01*
X87055202Y-100813402D01*
X87055206Y-100813401D01*
X87219938Y-100759876D01*
X87219940Y-100759874D01*
X87219945Y-100759873D01*
X87374288Y-100681232D01*
X87514428Y-100579414D01*
X87636914Y-100456928D01*
X87738732Y-100316788D01*
X87817373Y-100162445D01*
X87817374Y-100162440D01*
X87817376Y-100162438D01*
X87870901Y-99997706D01*
X87870902Y-99997702D01*
X87898000Y-99826614D01*
X87898000Y-99653385D01*
X87870902Y-99482297D01*
X87870901Y-99482293D01*
X87817376Y-99317561D01*
X87817374Y-99317558D01*
X87817373Y-99317557D01*
X87817373Y-99317555D01*
X87738732Y-99163212D01*
X87636914Y-99023072D01*
X87514428Y-98900586D01*
X87485532Y-98879591D01*
X87449569Y-98830092D01*
X87449569Y-98768907D01*
X87485533Y-98719407D01*
X87543724Y-98700500D01*
X88591276Y-98700500D01*
X88649467Y-98719407D01*
X88685431Y-98768907D01*
X88685431Y-98830093D01*
X88649467Y-98879591D01*
X88635239Y-98889930D01*
X88620573Y-98900585D01*
X88498085Y-99023073D01*
X88396266Y-99163214D01*
X88317625Y-99317558D01*
X88317623Y-99317561D01*
X88264098Y-99482293D01*
X88264097Y-99482297D01*
X88237000Y-99653385D01*
X88237000Y-99826614D01*
X88264097Y-99997702D01*
X88264098Y-99997706D01*
X88317623Y-100162438D01*
X88317625Y-100162441D01*
X88393581Y-100311516D01*
X88396268Y-100316788D01*
X88498086Y-100456928D01*
X88620572Y-100579414D01*
X88760712Y-100681232D01*
X88915055Y-100759873D01*
X88915057Y-100759873D01*
X88915058Y-100759874D01*
X88915061Y-100759876D01*
X89079793Y-100813401D01*
X89079797Y-100813402D01*
X89250886Y-100840500D01*
X89250889Y-100840500D01*
X89424114Y-100840500D01*
X89595202Y-100813402D01*
X89595206Y-100813401D01*
X89759938Y-100759876D01*
X89759940Y-100759874D01*
X89759945Y-100759873D01*
X89914288Y-100681232D01*
X90054428Y-100579414D01*
X90176914Y-100456928D01*
X90278732Y-100316788D01*
X90357373Y-100162445D01*
X90357374Y-100162440D01*
X90357376Y-100162438D01*
X90410901Y-99997706D01*
X90410902Y-99997702D01*
X90436828Y-99834013D01*
X90464605Y-99779496D01*
X90519122Y-99751719D01*
X90534609Y-99750500D01*
X91300500Y-99750500D01*
X91358691Y-99769407D01*
X91394655Y-99818907D01*
X91399500Y-99849500D01*
X91399500Y-100174672D01*
X91399501Y-100174684D01*
X91414033Y-100247736D01*
X91414035Y-100247742D01*
X91469397Y-100330599D01*
X91469400Y-100330602D01*
X91510468Y-100358042D01*
X91552260Y-100385966D01*
X91607808Y-100397015D01*
X91625315Y-100400498D01*
X91625320Y-100400498D01*
X91625326Y-100400500D01*
X91625327Y-100400500D01*
X92674673Y-100400500D01*
X92674674Y-100400500D01*
X92747740Y-100385966D01*
X92747746Y-100385961D01*
X92756752Y-100382233D01*
X92757586Y-100384248D01*
X92759633Y-100383670D01*
X92772200Y-100375096D01*
X92788339Y-100375572D01*
X92803880Y-100371189D01*
X92820276Y-100376516D01*
X92833359Y-100376903D01*
X92841989Y-100383571D01*
X92842610Y-100383773D01*
X92843248Y-100382233D01*
X92852255Y-100385962D01*
X92852260Y-100385966D01*
X92907808Y-100397015D01*
X92925315Y-100400498D01*
X92925320Y-100400498D01*
X92925326Y-100400500D01*
X92925327Y-100400500D01*
X93974673Y-100400500D01*
X93974674Y-100400500D01*
X94047740Y-100385966D01*
X94130601Y-100330601D01*
X94185966Y-100247740D01*
X94200500Y-100174674D01*
X94200500Y-98625326D01*
X94185966Y-98552260D01*
X94165922Y-98522262D01*
X94130602Y-98469400D01*
X94130599Y-98469397D01*
X94047742Y-98414035D01*
X94047740Y-98414034D01*
X94047737Y-98414033D01*
X94047736Y-98414033D01*
X93974684Y-98399501D01*
X93974674Y-98399500D01*
X93974673Y-98399500D01*
X93436190Y-98399500D01*
X93377999Y-98380593D01*
X93366187Y-98370504D01*
X93124619Y-98128937D01*
X93096841Y-98074420D01*
X93106412Y-98013988D01*
X93149677Y-97970723D01*
X93194735Y-97959934D01*
X95968253Y-97963235D01*
G37*
%TD.AperFunction*%
%TD*%
M02*
