G04 #@! TF.GenerationSoftware,KiCad,Pcbnew,9.0.4*
G04 #@! TF.CreationDate,2025-08-20T18:41:51-04:00*
G04 #@! TF.ProjectId,tac5212_audio_board_single_ended,74616335-3231-4325-9f61-7564696f5f62,rev?*
G04 #@! TF.SameCoordinates,Original*
G04 #@! TF.FileFunction,Copper,L4,Bot*
G04 #@! TF.FilePolarity,Positive*
%FSLAX46Y46*%
G04 Gerber Fmt 4.6, Leading zero omitted, Abs format (unit mm)*
G04 Created by KiCad (PCBNEW 9.0.4) date 2025-08-20 18:41:51*
%MOMM*%
%LPD*%
G01*
G04 APERTURE LIST*
G04 Aperture macros list*
%AMRoundRect*
0 Rectangle with rounded corners*
0 $1 Rounding radius*
0 $2 $3 $4 $5 $6 $7 $8 $9 X,Y pos of 4 corners*
0 Add a 4 corners polygon primitive as box body*
4,1,4,$2,$3,$4,$5,$6,$7,$8,$9,$2,$3,0*
0 Add four circle primitives for the rounded corners*
1,1,$1+$1,$2,$3*
1,1,$1+$1,$4,$5*
1,1,$1+$1,$6,$7*
1,1,$1+$1,$8,$9*
0 Add four rect primitives between the rounded corners*
20,1,$1+$1,$2,$3,$4,$5,0*
20,1,$1+$1,$4,$5,$6,$7,0*
20,1,$1+$1,$6,$7,$8,$9,0*
20,1,$1+$1,$8,$9,$2,$3,0*%
%AMRotRect*
0 Rectangle, with rotation*
0 The origin of the aperture is its center*
0 $1 length*
0 $2 width*
0 $3 Rotation angle, in degrees counterclockwise*
0 Add horizontal line*
21,1,$1,$2,0,0,$3*%
G04 Aperture macros list end*
G04 #@! TA.AperFunction,EtchedComponent*
%ADD10C,0.000000*%
G04 #@! TD*
G04 #@! TA.AperFunction,ComponentPad*
%ADD11R,1.700000X1.700000*%
G04 #@! TD*
G04 #@! TA.AperFunction,ComponentPad*
%ADD12O,1.700000X1.700000*%
G04 #@! TD*
G04 #@! TA.AperFunction,ComponentPad*
%ADD13C,3.200000*%
G04 #@! TD*
G04 #@! TA.AperFunction,ComponentPad*
%ADD14C,0.500000*%
G04 #@! TD*
G04 #@! TA.AperFunction,SMDPad,CuDef*
%ADD15RotRect,2.450000X2.450000X45.000000*%
G04 #@! TD*
G04 #@! TA.AperFunction,SMDPad,CuDef*
%ADD16RoundRect,0.250000X0.475000X-0.337500X0.475000X0.337500X-0.475000X0.337500X-0.475000X-0.337500X0*%
G04 #@! TD*
G04 #@! TA.AperFunction,SMDPad,CuDef*
%ADD17RoundRect,0.237500X-0.237500X0.300000X-0.237500X-0.300000X0.237500X-0.300000X0.237500X0.300000X0*%
G04 #@! TD*
G04 #@! TA.AperFunction,SMDPad,CuDef*
%ADD18R,0.500000X0.500000*%
G04 #@! TD*
G04 #@! TA.AperFunction,SMDPad,CuDef*
%ADD19R,0.500000X0.550000*%
G04 #@! TD*
G04 #@! TA.AperFunction,ComponentPad*
%ADD20R,0.500000X0.500000*%
G04 #@! TD*
G04 #@! TA.AperFunction,SMDPad,CuDef*
%ADD21RoundRect,0.160000X0.222500X0.160000X-0.222500X0.160000X-0.222500X-0.160000X0.222500X-0.160000X0*%
G04 #@! TD*
G04 #@! TA.AperFunction,SMDPad,CuDef*
%ADD22RoundRect,0.237500X-0.287500X-0.237500X0.287500X-0.237500X0.287500X0.237500X-0.287500X0.237500X0*%
G04 #@! TD*
G04 #@! TA.AperFunction,SMDPad,CuDef*
%ADD23RoundRect,0.237500X0.237500X-0.300000X0.237500X0.300000X-0.237500X0.300000X-0.237500X-0.300000X0*%
G04 #@! TD*
G04 #@! TA.AperFunction,SMDPad,CuDef*
%ADD24RoundRect,0.135000X0.185000X-0.135000X0.185000X0.135000X-0.185000X0.135000X-0.185000X-0.135000X0*%
G04 #@! TD*
G04 #@! TA.AperFunction,SMDPad,CuDef*
%ADD25RoundRect,0.250000X-0.325000X-0.450000X0.325000X-0.450000X0.325000X0.450000X-0.325000X0.450000X0*%
G04 #@! TD*
G04 #@! TA.AperFunction,SMDPad,CuDef*
%ADD26RoundRect,0.250000X0.325000X0.450000X-0.325000X0.450000X-0.325000X-0.450000X0.325000X-0.450000X0*%
G04 #@! TD*
G04 #@! TA.AperFunction,SMDPad,CuDef*
%ADD27R,0.508000X0.500000*%
G04 #@! TD*
G04 #@! TA.AperFunction,SMDPad,CuDef*
%ADD28R,0.508000X0.508000*%
G04 #@! TD*
G04 #@! TA.AperFunction,SMDPad,CuDef*
%ADD29RoundRect,0.250001X0.924999X-0.499999X0.924999X0.499999X-0.924999X0.499999X-0.924999X-0.499999X0*%
G04 #@! TD*
G04 #@! TA.AperFunction,SMDPad,CuDef*
%ADD30RoundRect,0.250000X-0.475000X0.337500X-0.475000X-0.337500X0.475000X-0.337500X0.475000X0.337500X0*%
G04 #@! TD*
G04 #@! TA.AperFunction,SMDPad,CuDef*
%ADD31R,0.954000X1.000000*%
G04 #@! TD*
G04 #@! TA.AperFunction,SMDPad,CuDef*
%ADD32R,0.500000X0.508000*%
G04 #@! TD*
G04 #@! TA.AperFunction,SMDPad,CuDef*
%ADD33R,1.000000X1.500000*%
G04 #@! TD*
G04 #@! TA.AperFunction,SMDPad,CuDef*
%ADD34RoundRect,0.250001X-0.499999X-0.924999X0.499999X-0.924999X0.499999X0.924999X-0.499999X0.924999X0*%
G04 #@! TD*
G04 #@! TA.AperFunction,SMDPad,CuDef*
%ADD35RoundRect,0.237500X0.287500X0.237500X-0.287500X0.237500X-0.287500X-0.237500X0.287500X-0.237500X0*%
G04 #@! TD*
G04 #@! TA.AperFunction,SMDPad,CuDef*
%ADD36RoundRect,0.160000X-0.222500X-0.160000X0.222500X-0.160000X0.222500X0.160000X-0.222500X0.160000X0*%
G04 #@! TD*
G04 #@! TA.AperFunction,SMDPad,CuDef*
%ADD37C,0.200000*%
G04 #@! TD*
G04 #@! TA.AperFunction,SMDPad,CuDef*
%ADD38RoundRect,0.150000X0.150000X-0.512500X0.150000X0.512500X-0.150000X0.512500X-0.150000X-0.512500X0*%
G04 #@! TD*
G04 #@! TA.AperFunction,SMDPad,CuDef*
%ADD39RoundRect,0.160000X0.197500X0.160000X-0.197500X0.160000X-0.197500X-0.160000X0.197500X-0.160000X0*%
G04 #@! TD*
G04 #@! TA.AperFunction,SMDPad,CuDef*
%ADD40RoundRect,0.237500X-0.237500X0.287500X-0.237500X-0.287500X0.237500X-0.287500X0.237500X0.287500X0*%
G04 #@! TD*
G04 #@! TA.AperFunction,ViaPad*
%ADD41C,0.450000*%
G04 #@! TD*
G04 #@! TA.AperFunction,ViaPad*
%ADD42C,0.800000*%
G04 #@! TD*
G04 #@! TA.AperFunction,Conductor*
%ADD43C,0.200000*%
G04 #@! TD*
G04 APERTURE END LIST*
G04 #@! TA.AperFunction,EtchedComponent*
G04 #@! TO.C,GND108*
G36*
X22629000Y17321000D02*
G01*
X22171000Y17321000D01*
X22171000Y17896000D01*
X22629000Y17896000D01*
X22629000Y17321000D01*
G37*
G04 #@! TD.AperFunction*
D10*
G04 #@! TA.AperFunction,EtchedComponent*
G04 #@! TO.C,3V108*
G36*
X32325000Y6800000D02*
G01*
X32075000Y6800000D01*
X32075000Y7200000D01*
X32325000Y7200000D01*
X32325000Y6800000D01*
G37*
G04 #@! TD.AperFunction*
G04 #@! TA.AperFunction,EtchedComponent*
G04 #@! TO.C,SDA108*
G36*
X4521000Y19971000D02*
G01*
X5096000Y19971000D01*
X5096000Y20429000D01*
X4521000Y20429000D01*
X4521000Y19971000D01*
G37*
G04 #@! TD.AperFunction*
G04 #@! TA.AperFunction,EtchedComponent*
G04 #@! TO.C,SCL108*
G36*
X5721000Y21171000D02*
G01*
X6296000Y21171000D01*
X6296000Y21629000D01*
X5721000Y21629000D01*
X5721000Y21171000D01*
G37*
G04 #@! TD.AperFunction*
G04 #@! TA.AperFunction,EtchedComponent*
G04 #@! TO.C,NT108*
G36*
X37029810Y3888388D02*
G01*
X36711612Y3570190D01*
X36570190Y3711612D01*
X36888388Y4029810D01*
X37029810Y3888388D01*
G37*
G04 #@! TD.AperFunction*
G04 #@! TA.AperFunction,EtchedComponent*
G04 #@! TO.C,G119*
G36*
X35079000Y7229000D02*
G01*
X34504000Y7229000D01*
X34504000Y6771000D01*
X35079000Y6771000D01*
X35079000Y7229000D01*
G37*
G04 #@! TD.AperFunction*
G04 #@! TD*
D11*
G04 #@! TO.P,board_outline108,1,HELD_HIGH*
G04 #@! TO.N,EN_HELD_HIGH*
X2537500Y0D03*
D12*
G04 #@! TO.P,board_outline108,2,HELD_LOW*
G04 #@! TO.N,unconnected-(board_outline108-HELD_LOW-Pad2)*
X-2500Y0D03*
G04 #@! TO.P,board_outline108,3,5V*
G04 #@! TO.N,Net-(5V108-Pad2)*
X2537500Y2540000D03*
G04 #@! TO.P,board_outline108,4,GNDD*
G04 #@! TO.N,3.3v_IDE*
X-2500Y2540000D03*
G04 #@! TO.P,board_outline108,5,12V*
G04 #@! TO.N,unconnected-(board_outline108-12V-Pad5)*
X2537500Y5080000D03*
G04 #@! TO.P,board_outline108,6,GNDD*
G04 #@! TO.N,GNDD*
X-2500Y5080000D03*
G04 #@! TO.P,board_outline108,7,DSP_DOUT*
G04 #@! TO.N,5212_DIN1*
X2537500Y7620000D03*
G04 #@! TO.P,board_outline108,8,GNDD*
G04 #@! TO.N,GNDD*
X-2500Y7620000D03*
G04 #@! TO.P,board_outline108,9,DSP_DIN*
G04 #@! TO.N,5212_DOUT1+*
X2537500Y10160000D03*
G04 #@! TO.P,board_outline108,10,GNDD*
G04 #@! TO.N,GNDD*
X-2500Y10160000D03*
G04 #@! TO.P,board_outline108,11,BCLK*
G04 #@! TO.N,5212_BCLK1*
X2537500Y12700000D03*
G04 #@! TO.P,board_outline108,12,GNDD*
G04 #@! TO.N,GNDD*
X-2500Y12700000D03*
G04 #@! TO.P,board_outline108,13,LRCK*
G04 #@! TO.N,5212_LRCK1*
X2537500Y15240000D03*
G04 #@! TO.P,board_outline108,14,GNDD*
G04 #@! TO.N,GNDD*
X-2500Y15240000D03*
G04 #@! TO.P,board_outline108,15,SDA*
G04 #@! TO.N,DSP_SDA*
X2537500Y17780000D03*
G04 #@! TO.P,board_outline108,16,GNDD*
G04 #@! TO.N,GNDD*
X-2500Y17780000D03*
G04 #@! TO.P,board_outline108,17,SCL*
G04 #@! TO.N,DSP_SCL*
X2537500Y20320000D03*
G04 #@! TO.P,board_outline108,18,GNDD*
G04 #@! TO.N,GNDD*
X-2500Y20320000D03*
G04 #@! TO.P,board_outline108,19,MCLK*
G04 #@! TO.N,5212_MCLK1*
X2537500Y22860000D03*
G04 #@! TO.P,board_outline108,20,GNDD*
G04 #@! TO.N,GNDD*
X-2500Y22860000D03*
D11*
G04 #@! TO.P,board_outline108,21,OUTP*
G04 #@! TO.N,OUT1P+*
X15247500Y20315000D03*
G04 #@! TO.P,board_outline108,22,AGND*
G04 #@! TO.N,Earth*
X15247500Y22855000D03*
D12*
G04 #@! TO.P,board_outline108,23,OUT1M*
G04 #@! TO.N,OUT1M+*
X17787500Y20315000D03*
G04 #@! TO.P,board_outline108,24,AGND*
G04 #@! TO.N,Earth*
X17787500Y22855000D03*
G04 #@! TO.P,board_outline108,25,OUT2P*
G04 #@! TO.N,OUT2P+*
X20327500Y20315000D03*
G04 #@! TO.P,board_outline108,26,AGND*
G04 #@! TO.N,Earth*
X20327500Y22855000D03*
G04 #@! TO.P,board_outline108,27,OUT2M*
G04 #@! TO.N,OUT2M+*
X22867500Y20315000D03*
G04 #@! TO.P,board_outline108,28,AGND*
G04 #@! TO.N,Earth*
X22867500Y22855000D03*
G04 #@! TO.P,board_outline108,29,IN1P*
G04 #@! TO.N,IN1P+*
X25407500Y20315000D03*
G04 #@! TO.P,board_outline108,30,AGND*
G04 #@! TO.N,Earth*
X25407500Y22855000D03*
G04 #@! TO.P,board_outline108,31,IN1M*
G04 #@! TO.N,IN1M+*
X27947500Y20315000D03*
G04 #@! TO.P,board_outline108,32,AGND*
G04 #@! TO.N,Earth*
X27947500Y22855000D03*
G04 #@! TO.P,board_outline108,33,IN2P*
G04 #@! TO.N,IN2P+*
X30487500Y20315000D03*
G04 #@! TO.P,board_outline108,34,AGND*
G04 #@! TO.N,Earth*
X30487500Y22855000D03*
G04 #@! TO.P,board_outline108,35,IN2M*
G04 #@! TO.N,IN2M+*
X33027500Y20315000D03*
G04 #@! TO.P,board_outline108,36,AGND*
G04 #@! TO.N,Earth*
X33027500Y22855000D03*
D11*
G04 #@! TO.P,board_outline108,37,SCL*
G04 #@! TO.N,5212_SCL*
X15247500Y-5000D03*
D12*
G04 #@! TO.P,board_outline108,38,SDA*
G04 #@! TO.N,5212_SDA*
X17787500Y-5000D03*
G04 #@! TO.P,board_outline108,39,GNDD*
G04 #@! TO.N,GNDD*
X20327500Y-5000D03*
G04 #@! TO.P,board_outline108,40,GPIO1*
G04 #@! TO.N,GPIO1*
X22867500Y-5000D03*
G04 #@! TO.P,board_outline108,41,GPIO2*
G04 #@! TO.N,GPIO2*
X25407500Y-5000D03*
G04 #@! TO.P,board_outline108,42,GPO1*
G04 #@! TO.N,GPO1*
X27947500Y-5000D03*
G04 #@! TO.P,board_outline108,43,GPI1*
G04 #@! TO.N,GPI1*
X30487500Y-5000D03*
G04 #@! TO.P,board_outline108,44,GNDD*
G04 #@! TO.N,GNDD*
X33027500Y-5000D03*
G04 #@! TO.P,board_outline108,45,5V*
G04 #@! TO.N,5V*
X38092500Y5075000D03*
G04 #@! TO.P,board_outline108,46,3.3V*
G04 #@! TO.N,3.3V_LDO*
X38092500Y7615000D03*
G04 #@! TO.P,board_outline108,47,GNDD*
G04 #@! TO.N,GNDD*
X38092500Y10155000D03*
G04 #@! TO.P,board_outline108,48,MIC_BIAS*
G04 #@! TO.N,MICBIAS*
X35552500Y20315000D03*
D13*
G04 #@! TO.P,board_outline108,49,AGND*
G04 #@! TO.N,Net-(E108-Pad2)*
X10152500Y22855000D03*
G04 #@! TO.P,board_outline108,50,AGND*
G04 #@! TO.N,Net-(E109-Pad2)*
X38092500Y22855000D03*
G04 #@! TO.P,board_outline108,51,DGND*
G04 #@! TO.N,Net-(G117-Pad1)*
X10152500Y-5000D03*
G04 #@! TO.P,board_outline108,52,DGND*
G04 #@! TO.N,Net-(G118-Pad1)*
X38092500Y-5000D03*
G04 #@! TD*
D14*
G04 #@! TO.P,G110,1,1*
G04 #@! TO.N,Earth*
X30300000Y8600000D03*
G04 #@! TD*
G04 #@! TO.P,G109,1,1*
G04 #@! TO.N,Earth*
X12400000Y5400000D03*
G04 #@! TD*
G04 #@! TO.P,G112,1,1*
G04 #@! TO.N,Earth*
X31600000Y8600000D03*
G04 #@! TD*
G04 #@! TO.P,G111,1,1*
G04 #@! TO.N,Earth*
X5200000Y4400000D03*
G04 #@! TD*
G04 #@! TO.P,G113,1,1*
G04 #@! TO.N,Earth*
X15400000Y4200000D03*
G04 #@! TD*
G04 #@! TO.P,TAC5212,25,VSS*
G04 #@! TO.N,GNDD*
X22474058Y10719511D03*
X22474058Y11709461D03*
X22969033Y11214486D03*
D15*
X22969033Y11214486D03*
D14*
X23464008Y10719511D03*
X23464008Y11709461D03*
G04 #@! TD*
G04 #@! TO.P,G115,1,1*
G04 #@! TO.N,Earth*
X18200000Y2800000D03*
G04 #@! TD*
G04 #@! TO.P,G114,1,1*
G04 #@! TO.N,Earth*
X36200000Y7000000D03*
G04 #@! TD*
G04 #@! TO.P,G116,1,1*
G04 #@! TO.N,Earth*
X39100000Y12400000D03*
G04 #@! TD*
G04 #@! TO.P,G108,1,1*
G04 #@! TO.N,Earth*
X29000000Y8100000D03*
G04 #@! TD*
D16*
G04 #@! TO.P,T\u002AC108,1*
G04 #@! TO.N,5V_THIN*
X35334314Y3125000D03*
G04 #@! TO.P,T\u002AC108,2*
G04 #@! TO.N,Net-(U109-GND)*
X35334314Y5200000D03*
G04 #@! TD*
D17*
G04 #@! TO.P,C127,1*
G04 #@! TO.N,Net-(C127-Pad1)*
X27100000Y12062500D03*
G04 #@! TO.P,C127,2*
G04 #@! TO.N,IN1P*
X27100000Y10337500D03*
G04 #@! TD*
D18*
G04 #@! TO.P,OP2,1,1*
G04 #@! TO.N,OUT2P+*
X13500000Y16275000D03*
D19*
G04 #@! TO.P,OP2,2,2*
G04 #@! TO.N,OUT2P*
X13500000Y15400000D03*
D20*
X13500000Y15175000D03*
G04 #@! TD*
D21*
G04 #@! TO.P,D111,1,K*
G04 #@! TO.N,OUT2M+*
X17527500Y17500000D03*
G04 #@! TO.P,D111,2,K*
G04 #@! TO.N,Earth*
X18672500Y17500000D03*
G04 #@! TD*
D22*
G04 #@! TO.P,R108,1*
G04 #@! TO.N,OUT1P+*
X10025000Y11500000D03*
G04 #@! TO.P,R108,2*
G04 #@! TO.N,Net-(C110-Pad2)*
X11775000Y11500000D03*
G04 #@! TD*
D18*
G04 #@! TO.P,INP2,1,1*
G04 #@! TO.N,IN2P+*
X34600000Y16265000D03*
D19*
G04 #@! TO.P,INP2,2,2*
G04 #@! TO.N,IN2P*
X34600000Y15390000D03*
D20*
X34600000Y15165000D03*
G04 #@! TD*
D23*
G04 #@! TO.P,T\u002AC109,1*
G04 #@! TO.N,5V_THIN*
X33400000Y3300000D03*
G04 #@! TO.P,T\u002AC109,2*
G04 #@! TO.N,Net-(U109-GND)*
X33400000Y5025000D03*
G04 #@! TD*
D24*
G04 #@! TO.P,R128,1*
G04 #@! TO.N,EN_HELD_HIGH*
X25800000Y2490000D03*
G04 #@! TO.P,R128,2*
G04 #@! TO.N,Net-(R128-Pad2)*
X25800000Y3510000D03*
G04 #@! TD*
D17*
G04 #@! TO.P,C124,1*
G04 #@! TO.N,Net-(C124-Pad1)*
X36000000Y12062500D03*
G04 #@! TO.P,C124,2*
G04 #@! TO.N,IN2M*
X36000000Y10337500D03*
G04 #@! TD*
D25*
G04 #@! TO.P,C131,1*
G04 #@! TO.N,3.3v_IDE*
X5375000Y1000000D03*
G04 #@! TO.P,C131,2*
G04 #@! TO.N,GNDD*
X7425000Y1000000D03*
G04 #@! TD*
D26*
G04 #@! TO.P,C130,1*
G04 #@! TO.N,5V*
X7425000Y3200000D03*
G04 #@! TO.P,C130,2*
G04 #@! TO.N,GNDD*
X5375000Y3200000D03*
G04 #@! TD*
D27*
G04 #@! TO.P,GND108,1,1*
G04 #@! TO.N,GNDD*
X22400000Y17096000D03*
D28*
G04 #@! TO.P,GND108,2,2*
G04 #@! TO.N,Earth*
X22400000Y18100000D03*
G04 #@! TD*
D17*
G04 #@! TO.P,C125,1*
G04 #@! TO.N,Net-(C125-Pad1)*
X33400000Y11962500D03*
G04 #@! TO.P,C125,2*
G04 #@! TO.N,IN2P*
X33400000Y10237500D03*
G04 #@! TD*
D18*
G04 #@! TO.P,INM2,1,1*
G04 #@! TO.N,IN2M+*
X38200000Y16217500D03*
D19*
G04 #@! TO.P,INM2,2,2*
G04 #@! TO.N,IN2M*
X38200000Y15342500D03*
D20*
X38200000Y15117500D03*
G04 #@! TD*
D29*
G04 #@! TO.P,C114,1*
G04 #@! TO.N,OUT1M*
X6200000Y6075000D03*
G04 #@! TO.P,C114,2*
G04 #@! TO.N,Net-(C114-Pad2)*
X6200000Y9325000D03*
G04 #@! TD*
D30*
G04 #@! TO.P,T\u002AC110,1*
G04 #@! TO.N,3.3V_A*
X27600000Y5437500D03*
G04 #@! TO.P,T\u002AC110,2*
G04 #@! TO.N,Net-(U109-GND)*
X27600000Y3362500D03*
G04 #@! TD*
D18*
G04 #@! TO.P,OM2,1,1*
G04 #@! TO.N,OUT2M+*
X17400000Y16500000D03*
D19*
G04 #@! TO.P,OM2,2,2*
G04 #@! TO.N,OUT2M*
X17400000Y15625000D03*
D20*
X17400000Y15400000D03*
G04 #@! TD*
D31*
G04 #@! TO.P,3V108,1,1*
G04 #@! TO.N,3.3V_A*
X31623000Y7000000D03*
G04 #@! TO.P,3V108,2,2*
G04 #@! TO.N,3.3V_LDO*
X32774987Y6999999D03*
G04 #@! TD*
D32*
G04 #@! TO.P,SDA108,1,1*
G04 #@! TO.N,DSP_SDA*
X4296000Y20200000D03*
D28*
G04 #@! TO.P,SDA108,2,2*
G04 #@! TO.N,5212_SDA*
X5300000Y20200000D03*
G04 #@! TD*
D33*
G04 #@! TO.P,MCLK108,1,1*
G04 #@! TO.N,5212_MCLK1*
X5350000Y23200000D03*
G04 #@! TO.P,MCLK108,2,2*
G04 #@! TO.N,GPI1*
X6650000Y23200000D03*
G04 #@! TD*
D34*
G04 #@! TO.P,C122,1*
G04 #@! TO.N,OUT2M*
X18300001Y6800000D03*
G04 #@! TO.P,C122,2*
G04 #@! TO.N,Net-(C122-Pad2)*
X21550001Y6800000D03*
G04 #@! TD*
D32*
G04 #@! TO.P,SCL108,1,1*
G04 #@! TO.N,DSP_SCL*
X5496000Y21400000D03*
D28*
G04 #@! TO.P,SCL108,2,2*
G04 #@! TO.N,5212_SCL*
X6500000Y21400000D03*
G04 #@! TD*
D35*
G04 #@! TO.P,R109,1*
G04 #@! TO.N,OUT1M+*
X7475000Y11500000D03*
G04 #@! TO.P,R109,2*
G04 #@! TO.N,Net-(C114-Pad2)*
X5725000Y11500000D03*
G04 #@! TD*
D36*
G04 #@! TO.P,D113,1,K*
G04 #@! TO.N,Net-(C125-Pad1)*
X33772500Y17565000D03*
G04 #@! TO.P,D113,2,K*
G04 #@! TO.N,Earth*
X32627500Y17565000D03*
G04 #@! TD*
D30*
G04 #@! TO.P,FB110,1*
G04 #@! TO.N,IN1M+*
X29500000Y15975000D03*
G04 #@! TO.P,FB110,2*
G04 #@! TO.N,Net-(C126-Pad1)*
X29500000Y13900000D03*
G04 #@! TD*
G04 #@! TO.P,FB111,1*
G04 #@! TO.N,IN1P+*
X25900000Y16137500D03*
G04 #@! TO.P,FB111,2*
G04 #@! TO.N,Net-(C127-Pad1)*
X25900000Y14062500D03*
G04 #@! TD*
D22*
G04 #@! TO.P,R111,1*
G04 #@! TO.N,OUT2P+*
X14325000Y11500000D03*
G04 #@! TO.P,R111,2*
G04 #@! TO.N,Net-(C120-Pad2)*
X16075000Y11500000D03*
G04 #@! TD*
D36*
G04 #@! TO.P,D112,1,K*
G04 #@! TO.N,Net-(C124-Pad1)*
X37372500Y17517500D03*
G04 #@! TO.P,D112,2,K*
G04 #@! TO.N,Earth*
X36227500Y17517500D03*
G04 #@! TD*
D23*
G04 #@! TO.P,C123,1*
G04 #@! TO.N,OUT2M+*
X19100000Y13737500D03*
G04 #@! TO.P,C123,2*
G04 #@! TO.N,Earth*
X19100000Y15462500D03*
G04 #@! TD*
D37*
G04 #@! TO.P,NT108,1,1*
G04 #@! TO.N,5V*
X36959099Y3959099D03*
G04 #@! TO.P,NT108,2,2*
G04 #@! TO.N,5V_THIN*
X36640901Y3640901D03*
G04 #@! TD*
D38*
G04 #@! TO.P,U109,1,IN*
G04 #@! TO.N,5V_THIN*
X31361814Y3047500D03*
G04 #@! TO.P,U109,2,GND*
G04 #@! TO.N,Net-(U109-GND)*
X30411814Y3047500D03*
G04 #@! TO.P,U109,3,EN*
G04 #@! TO.N,EN_HELD_HIGH*
X29461814Y3047500D03*
G04 #@! TO.P,U109,4,NC*
G04 #@! TO.N,unconnected-(U109-NC-Pad4)*
X29461814Y5322500D03*
G04 #@! TO.P,U109,5,OUT*
G04 #@! TO.N,3.3V_A*
X31361814Y5322500D03*
G04 #@! TD*
D21*
G04 #@! TO.P,D108,1,K*
G04 #@! TO.N,OUT1P+*
X9527500Y17500000D03*
G04 #@! TO.P,D108,2,K*
G04 #@! TO.N,Earth*
X10672500Y17500000D03*
G04 #@! TD*
D23*
G04 #@! TO.P,C113,1*
G04 #@! TO.N,OUT1P+*
X10900000Y13737500D03*
G04 #@! TO.P,C113,2*
G04 #@! TO.N,Earth*
X10900000Y15462500D03*
G04 #@! TD*
D17*
G04 #@! TO.P,C126,1*
G04 #@! TO.N,Net-(C126-Pad1)*
X29800000Y12062500D03*
G04 #@! TO.P,C126,2*
G04 #@! TO.N,IN1M*
X29800000Y10337500D03*
G04 #@! TD*
D21*
G04 #@! TO.P,D110,1,K*
G04 #@! TO.N,OUT2P+*
X13827500Y17500000D03*
G04 #@! TO.P,D110,2,K*
G04 #@! TO.N,Earth*
X14972500Y17500000D03*
G04 #@! TD*
D29*
G04 #@! TO.P,C110,1*
G04 #@! TO.N,OUT1P*
X10500000Y6075000D03*
G04 #@! TO.P,C110,2*
G04 #@! TO.N,Net-(C110-Pad2)*
X10500000Y9325000D03*
G04 #@! TD*
D21*
G04 #@! TO.P,D109,1,K*
G04 #@! TO.N,OUT1M+*
X5227500Y17500000D03*
G04 #@! TO.P,D109,2,K*
G04 #@! TO.N,Earth*
X6372500Y17500000D03*
G04 #@! TD*
D39*
G04 #@! TO.P,SCL109,1,1*
G04 #@! TO.N,Net-(R128-Pad2)*
X24597500Y3600000D03*
G04 #@! TO.P,SCL109,2,2*
G04 #@! TO.N,3.3v_IDE*
X23402500Y3600000D03*
G04 #@! TD*
D23*
G04 #@! TO.P,C121,1*
G04 #@! TO.N,OUT2P+*
X15200000Y13737500D03*
G04 #@! TO.P,C121,2*
G04 #@! TO.N,Earth*
X15200000Y15462500D03*
G04 #@! TD*
D29*
G04 #@! TO.P,C120,1*
G04 #@! TO.N,OUT2P*
X14800000Y6075000D03*
G04 #@! TO.P,C120,2*
G04 #@! TO.N,Net-(C120-Pad2)*
X14800000Y9325000D03*
G04 #@! TD*
D36*
G04 #@! TO.P,D114,1,K*
G04 #@! TO.N,Net-(C126-Pad1)*
X30172500Y17565000D03*
G04 #@! TO.P,D114,2,K*
G04 #@! TO.N,Earth*
X29027500Y17565000D03*
G04 #@! TD*
D18*
G04 #@! TO.P,OP1,1,1*
G04 #@! TO.N,OUT1P+*
X9200000Y16200000D03*
D19*
G04 #@! TO.P,OP1,2,2*
G04 #@! TO.N,OUT1P*
X9200000Y15325000D03*
D20*
X9200000Y15100000D03*
G04 #@! TD*
D40*
G04 #@! TO.P,R116,1*
G04 #@! TO.N,OUT2M+*
X18700000Y11475000D03*
G04 #@! TO.P,R116,2*
G04 #@! TO.N,Net-(C122-Pad2)*
X18700000Y9725000D03*
G04 #@! TD*
D18*
G04 #@! TO.P,INM1,1,1*
G04 #@! TO.N,IN1M+*
X31000000Y16337500D03*
D19*
G04 #@! TO.P,INM1,2,2*
G04 #@! TO.N,IN1M*
X31000000Y15462500D03*
D20*
X31000000Y15237500D03*
G04 #@! TD*
D30*
G04 #@! TO.P,FB109,1*
G04 #@! TO.N,IN2P+*
X33100000Y15902500D03*
G04 #@! TO.P,FB109,2*
G04 #@! TO.N,Net-(C125-Pad1)*
X33100000Y13827500D03*
G04 #@! TD*
D32*
G04 #@! TO.P,G119,1,1*
G04 #@! TO.N,Earth*
X35304000Y7000000D03*
D28*
G04 #@! TO.P,G119,2,2*
G04 #@! TO.N,Net-(U109-GND)*
X34300000Y7000000D03*
G04 #@! TD*
D30*
G04 #@! TO.P,FB108,1*
G04 #@! TO.N,IN2M+*
X36700000Y15865000D03*
G04 #@! TO.P,FB108,2*
G04 #@! TO.N,Net-(C124-Pad1)*
X36700000Y13790000D03*
G04 #@! TD*
D36*
G04 #@! TO.P,D115,1,K*
G04 #@! TO.N,Net-(C127-Pad1)*
X26572500Y17700000D03*
G04 #@! TO.P,D115,2,K*
G04 #@! TO.N,Earth*
X25427500Y17700000D03*
G04 #@! TD*
D17*
G04 #@! TO.P,C129,1*
G04 #@! TO.N,EN_HELD_HIGH*
X25549617Y6674418D03*
G04 #@! TO.P,C129,2*
G04 #@! TO.N,GNDD*
X25549617Y4949418D03*
G04 #@! TD*
D18*
G04 #@! TO.P,OM1,1,1*
G04 #@! TO.N,OUT1M+*
X5200000Y15000000D03*
G04 #@! TO.P,OM1,2,2*
G04 #@! TO.N,OUT1M*
X5200000Y15850000D03*
D20*
X5200000Y16100000D03*
G04 #@! TD*
D23*
G04 #@! TO.P,C117,1*
G04 #@! TO.N,OUT1M+*
X6600000Y13737500D03*
G04 #@! TO.P,C117,2*
G04 #@! TO.N,Earth*
X6600000Y15462500D03*
G04 #@! TD*
D18*
G04 #@! TO.P,INP1,1,1*
G04 #@! TO.N,IN1P+*
X27400000Y16275000D03*
D19*
G04 #@! TO.P,INP1,2,2*
G04 #@! TO.N,IN1P*
X27400000Y15400000D03*
D20*
X27400000Y15175000D03*
G04 #@! TD*
D41*
G04 #@! TO.N,GNDD*
X6200000Y7800000D03*
X25400000Y4200000D03*
X12600000Y-1200000D03*
D42*
X22400000Y15575000D03*
D41*
X5450000Y10600000D03*
X32600000Y8000000D03*
X6563425Y4321087D03*
X11200000Y12600000D03*
X28800000Y7200000D03*
X30400000Y5000000D03*
X17200000Y4500000D03*
X29000000Y11400000D03*
X12206587Y3020000D03*
X38000000Y3600000D03*
X6400000Y-1000000D03*
G04 #@! TO.N,5V*
X37108750Y4091250D03*
D42*
X7514682Y2940000D03*
D41*
G04 #@! TO.N,Earth*
X7800000Y16800000D03*
X7600000Y21600000D03*
X5000000Y-1000000D03*
X16424739Y14837337D03*
X39600000Y9000000D03*
X9400000Y19400000D03*
X7600000Y24200000D03*
X20953490Y17950334D03*
X24400000Y18400000D03*
X39400000Y20600000D03*
X35350000Y17950000D03*
G04 #@! TO.N,EN_HELD_HIGH*
X25400000Y6600000D03*
G04 #@! TO.N,5212_SCL*
X15134085Y2900000D03*
G04 #@! TO.N,5212_SDA*
X3962790Y4813448D03*
G04 #@! TO.N,3.3V_LDO*
X17200000Y13000000D03*
G04 #@! TO.N,GPI1*
X-1200000Y6200000D03*
G04 #@! TO.N,Net-(PU_EN108-Pad1)*
X23904037Y4374417D03*
X20503448Y3805544D03*
G04 #@! TO.N,3.3v_IDE*
X22061982Y3851431D03*
X8000000Y6600000D03*
X9100000Y4600000D03*
G04 #@! TD*
D43*
G04 #@! TO.N,GNDD*
X12200000Y3013413D02*
X12206587Y3020000D01*
X5375000Y3200000D02*
X6496087Y4321087D01*
X20327500Y3230544D02*
X20327500Y-5000D01*
X19900000Y4000000D02*
X19928448Y3971552D01*
X17200000Y2300000D02*
X17200000Y4500000D01*
X20227182Y-5000D02*
X18522182Y1700000D01*
X25500200Y4900000D02*
X20800000Y4900000D01*
X12600000Y-1200000D02*
X12200000Y-800000D01*
X22400000Y11783519D02*
X22474058Y11709461D01*
X20265275Y4380544D02*
X19928448Y4043717D01*
X25549617Y4349617D02*
X25400000Y4200000D01*
X23875000Y10325000D02*
X23875000Y6762499D01*
X6496087Y4321087D02*
X6563425Y4321087D01*
X19928448Y4028448D02*
X19900000Y4000000D01*
X22600000Y11600000D02*
X23875000Y10325000D01*
X7424999Y1000000D02*
X7424999Y24999D01*
X12200000Y-800000D02*
X12200000Y3013413D01*
X17800000Y1700000D02*
X17200000Y2300000D01*
X20800000Y4900000D02*
X20280544Y4380544D01*
X20327500Y-5000D02*
X20227182Y-5000D01*
X19928448Y3971552D02*
X19928448Y3567371D01*
X22400000Y17096000D02*
X22400000Y15575000D01*
X18522182Y1700000D02*
X17800000Y1700000D01*
X19928448Y4043717D02*
X19928448Y4028448D01*
X20280544Y4380544D02*
X20265275Y4380544D01*
X25549617Y4949417D02*
X25549617Y4349617D01*
X25549617Y4949417D02*
X25500200Y4900000D01*
X19928448Y3567371D02*
X20265275Y3230544D01*
X7424999Y24999D02*
X6400000Y-1000000D01*
X23875000Y6762499D02*
X25700000Y4937499D01*
X20265275Y3230544D02*
X20327500Y3230544D01*
X22400000Y15575000D02*
X22400000Y11783519D01*
G04 #@! TO.N,Earth*
X27460799Y18539201D02*
X27460799Y19140000D01*
X16600000Y14080000D02*
X16820000Y14300000D01*
X20410744Y19140000D02*
X20814201Y19140000D01*
X12825000Y13043602D02*
X12650000Y13218602D01*
X39100000Y20300000D02*
X39400000Y20600000D01*
X28400000Y14806004D02*
X28000000Y15206004D01*
X28000000Y15206004D02*
X28000000Y18000000D01*
X23044906Y8515576D02*
X20095101Y11465381D01*
X18200000Y2800000D02*
X18200000Y3153553D01*
X32540799Y19140000D02*
X31852500Y19828299D01*
X31600000Y8600000D02*
X31350000Y8850000D01*
X23742843Y15756016D02*
X23742843Y17090049D01*
X31350000Y8850000D02*
X31350000Y9875000D01*
X31350000Y9875000D02*
X31575000Y10100000D01*
X22788771Y5300000D02*
X23044906Y5556135D01*
X16820000Y14300000D02*
X16820000Y17865328D01*
X13738604Y22855000D02*
X15247500Y22855000D01*
X29760000Y19140000D02*
X29312500Y19587500D01*
X37400000Y20600000D02*
X39400000Y20600000D01*
X4435448Y16021844D02*
X4435448Y17960785D01*
X20095101Y16077399D02*
X18672500Y17500000D01*
X4250000Y10256496D02*
X4435448Y10441944D01*
X16900000Y5700000D02*
X16900000Y11966722D01*
X4435448Y13978156D02*
X4175000Y14238604D01*
X30300000Y8600000D02*
X30100000Y8600000D01*
X8525000Y13712500D02*
X6600000Y15637500D01*
X19870744Y18600000D02*
X20410744Y19140000D01*
X5525930Y18739751D02*
X7716179Y20930000D01*
X26325000Y12004900D02*
X23625000Y14704900D01*
X4435448Y10441944D02*
X4435448Y10826080D01*
X31852500Y21680000D02*
X33027500Y22855000D01*
X11813604Y20930000D02*
X13738604Y22855000D01*
X30360000Y19140000D02*
X29760000Y19140000D01*
X5200000Y4400000D02*
X4700000Y4900000D01*
X4430081Y17966151D02*
X5203681Y18739751D01*
X30100000Y8600000D02*
X28400000Y10300000D01*
X16820000Y14442076D02*
X16424739Y14837337D01*
X35304000Y7000000D02*
X36200000Y7000000D01*
X4700000Y7757899D02*
X4250000Y8207899D01*
X4175000Y14238604D02*
X4175000Y15761396D01*
X23625000Y14704900D02*
X23625000Y15638173D01*
X4425000Y10836528D02*
X4425000Y12163472D01*
X4250000Y8207899D02*
X4250000Y10256496D01*
X16900000Y11966722D02*
X16600000Y12266722D01*
X26772500Y21490000D02*
X25407500Y22855000D01*
X24352794Y17700000D02*
X25427500Y17700000D01*
X35782500Y17517500D02*
X35350000Y17950000D01*
X28400000Y10300000D02*
X28400000Y14806004D01*
X29312500Y19587500D02*
X29312500Y21680000D01*
X39100000Y12400000D02*
X39100000Y20300000D01*
X20346447Y5300000D02*
X22788771Y5300000D01*
X23742843Y17090049D02*
X24352794Y17700000D01*
X21502500Y19828299D02*
X21502500Y21680000D01*
X23044906Y5556135D02*
X23044906Y8515576D01*
X7716179Y20930000D02*
X11813604Y20930000D01*
X15200000Y15250000D02*
X15200000Y15637500D01*
X31852500Y19828299D02*
X31852500Y21680000D01*
X5700000Y4900000D02*
X5200000Y4400000D01*
X12825000Y5825000D02*
X12825000Y13043602D01*
X29000000Y8100000D02*
X27313173Y8100000D01*
X20095101Y11465381D02*
X20095101Y16077399D01*
X4175000Y15761396D02*
X4435448Y16021844D01*
X29312500Y21680000D02*
X30487500Y22855000D01*
X8525000Y6154900D02*
X8525000Y13712500D01*
X7270100Y4900000D02*
X5700000Y4900000D01*
X35350000Y17950000D02*
X34160000Y19140000D01*
X18200000Y3153553D02*
X20346447Y5300000D01*
X5203681Y18739751D02*
X5525930Y18739751D01*
X17554672Y18600000D02*
X19870744Y18600000D01*
X27460799Y19140000D02*
X26772500Y19828299D01*
X33027500Y22855000D02*
X35145000Y22855000D01*
X20814201Y19140000D02*
X21502500Y19828299D01*
X4435448Y17960785D02*
X4430081Y17966151D01*
X28000000Y18000000D02*
X27460799Y18539201D01*
X36227500Y17517500D02*
X35782500Y17517500D01*
X31575000Y17925000D02*
X30360000Y19140000D01*
X26772500Y19828299D02*
X26772500Y21490000D01*
X12650000Y13218602D02*
X12650000Y15522500D01*
X4435448Y12173920D02*
X4435448Y13978156D01*
X12400000Y5400000D02*
X12825000Y5825000D01*
X21502500Y21680000D02*
X20327500Y22855000D01*
X4425000Y12163472D02*
X4435448Y12173920D01*
X15400000Y4200000D02*
X16900000Y5700000D01*
X12650000Y15522500D02*
X10672500Y17500000D01*
X16600000Y12266722D02*
X16600000Y14080000D01*
X26325000Y9088173D02*
X26325000Y12004900D01*
X7270100Y4900000D02*
X8525000Y6154900D01*
X31575000Y10100000D02*
X31575000Y17925000D01*
X35145000Y22855000D02*
X37400000Y20600000D01*
X16820000Y14300000D02*
X16820000Y14442076D01*
X4700000Y4900000D02*
X4700000Y7757899D01*
X23625000Y15638173D02*
X23742843Y15756016D01*
X16820000Y17865328D02*
X17554672Y18600000D01*
X4435448Y10826080D02*
X4425000Y10836528D01*
X34160000Y19140000D02*
X32540799Y19140000D01*
X27313173Y8100000D02*
X26325000Y9088173D01*
G04 #@! TO.N,EN_HELD_HIGH*
X25800000Y2490001D02*
X25815001Y2475000D01*
X28889315Y2475000D02*
X29461815Y3047500D01*
X26445000Y3135001D02*
X26445000Y5917501D01*
X25815001Y2475000D02*
X28889315Y2475000D01*
X26445000Y5917501D02*
X25700000Y6662501D01*
X25800000Y2490001D02*
X26445000Y3135001D01*
G04 #@! TO.N,IN2P*
X33400000Y10237500D02*
X34600000Y11437500D01*
X34600000Y11437500D02*
X34600000Y15165000D01*
G04 #@! TO.N,IN1M*
X29800000Y10337500D02*
X31000000Y11537500D01*
X31000000Y11537500D02*
X31000000Y15237500D01*
G04 #@! TO.N,IN1P*
X27100000Y10337500D02*
X27900000Y11137500D01*
X27900000Y14669608D02*
X27400000Y15169608D01*
X27400000Y15169608D02*
X27400000Y15175000D01*
X27900000Y11137500D02*
X27900000Y14669608D01*
G04 #@! TO.N,Net-(C110-Pad2)*
X11900000Y11500000D02*
X11900000Y10725000D01*
X11900000Y10725000D02*
X10500000Y9325000D01*
G04 #@! TO.N,IN2M*
X37150000Y12607400D02*
X38200000Y13657400D01*
X36000000Y10337500D02*
X36000000Y10622924D01*
X37150000Y11772924D02*
X37150000Y12607400D01*
X36000000Y10622924D02*
X37150000Y11772924D01*
X38200000Y13657400D02*
X38200000Y15117500D01*
G04 #@! TO.N,OUT1P*
X8975000Y7600000D02*
X8975000Y14875000D01*
X10500000Y6075000D02*
X8975000Y7600000D01*
X8975000Y14875000D02*
X9200000Y15100000D01*
G04 #@! TO.N,Net-(C114-Pad2)*
X6200000Y9325000D02*
X6200000Y10900000D01*
X6200000Y10900000D02*
X5600000Y11500000D01*
G04 #@! TO.N,OUT1M*
X4885448Y15785448D02*
X4885448Y15575000D01*
X6200000Y6824999D02*
X6200000Y6075000D01*
X4885448Y15575000D02*
X4625000Y15575000D01*
X4700000Y10070100D02*
X4700000Y8579900D01*
X4875000Y11977076D02*
X4875000Y11022924D01*
X4700000Y8579900D02*
X4885448Y8394452D01*
X4885448Y11012476D02*
X4885448Y10255548D01*
X4885448Y10255548D02*
X4700000Y10070100D01*
X5200000Y16100000D02*
X4885448Y15785448D01*
X4885448Y14425000D02*
X4885448Y11987524D01*
X4625000Y14425000D02*
X4885448Y14425000D01*
X4885448Y11987524D02*
X4875000Y11977076D01*
X4625000Y15575000D02*
X4625000Y14425000D01*
X4885448Y8394452D02*
X4885448Y8139551D01*
X4875000Y11022924D02*
X4885448Y11012476D01*
X4885448Y8139551D02*
X6200000Y6824999D01*
G04 #@! TO.N,OUT2P*
X13275000Y7600000D02*
X13275000Y13229998D01*
X13100000Y14775000D02*
X13500000Y15175000D01*
X13100000Y13404998D02*
X13100000Y14775000D01*
X14800000Y6075000D02*
X13275000Y7600000D01*
X13275000Y13229998D02*
X13100000Y13404998D01*
G04 #@! TO.N,OUT2M*
X17800000Y7300001D02*
X17800000Y14200000D01*
X17400000Y14600000D02*
X17400000Y15100000D01*
X18300001Y6800000D02*
X17800000Y7300001D01*
X17800000Y14200000D02*
X17400000Y14600000D01*
G04 #@! TO.N,Net-(C120-Pad2)*
X16200000Y10725000D02*
X14800000Y9325000D01*
X16200000Y11500000D02*
X16200000Y10725000D01*
G04 #@! TO.N,Net-(C122-Pad2)*
X18750001Y9600000D02*
X21550001Y6800000D01*
X18700000Y9600000D02*
X18750001Y9600000D01*
G04 #@! TO.N,Net-(C124-Pad1)*
X35650000Y16447600D02*
X35979900Y16777500D01*
X35979900Y16777500D02*
X36632501Y16777500D01*
X36700000Y13790000D02*
X35650000Y14840000D01*
X36632501Y16777500D02*
X37372501Y17517500D01*
X36700000Y12762500D02*
X36700000Y13790000D01*
X35650000Y14840000D02*
X35650000Y16447600D01*
X36000000Y12062500D02*
X36700000Y12762500D01*
G04 #@! TO.N,Net-(C125-Pad1)*
X33107501Y16900000D02*
X33772501Y17565000D01*
X32464900Y16900000D02*
X33107501Y16900000D01*
X32050000Y16485100D02*
X32464900Y16900000D01*
X33400000Y11962500D02*
X33400000Y13527500D01*
X33400000Y13527500D02*
X33100000Y13827500D01*
X32050000Y15319900D02*
X32050000Y16485100D01*
X33100000Y14269900D02*
X32050000Y15319900D01*
X33100000Y13827500D02*
X33100000Y14269900D01*
G04 #@! TO.N,Net-(C126-Pad1)*
X29500000Y13900000D02*
X29500000Y14342400D01*
X28450000Y15392400D02*
X28450000Y16557600D01*
X29800000Y13600000D02*
X29500000Y13900000D01*
X28450000Y16557600D02*
X28792400Y16900000D01*
X29800000Y12062500D02*
X29800000Y13600000D01*
X29507501Y16900000D02*
X30172501Y17565000D01*
X28792400Y16900000D02*
X29507501Y16900000D01*
X29500000Y14342400D02*
X28450000Y15392400D01*
G04 #@! TO.N,5212_SCL*
X2061154Y18930000D02*
X1387500Y18256346D01*
X15247500Y2786585D02*
X15134085Y2900000D01*
X15247500Y-5000D02*
X15247500Y2786585D01*
X6354000Y20754000D02*
X3746000Y20754000D01*
X3687500Y19843654D02*
X2773846Y18930000D01*
X4815256Y2200000D02*
X10573414Y2200000D01*
X1387500Y18256346D02*
X1387500Y4603654D01*
X2773846Y18930000D02*
X2061154Y18930000D01*
X2061154Y3930000D02*
X3085256Y3930000D01*
X3746000Y20754000D02*
X3687500Y20695500D01*
X1387500Y4603654D02*
X2061154Y3930000D01*
X10573414Y2200000D02*
X11968414Y3595000D01*
X3085256Y3930000D02*
X4815256Y2200000D01*
X11968414Y3595000D02*
X14439085Y3595000D01*
X14439085Y3595000D02*
X15134085Y2900000D01*
X6500000Y20900000D02*
X6354000Y20754000D01*
X3687500Y20695500D02*
X3687500Y19843654D01*
X6500000Y21400000D02*
X6500000Y20900000D01*
G04 #@! TO.N,5212_SDA*
X5207954Y19517791D02*
X3725000Y18034837D01*
X3725000Y5051238D02*
X3962790Y4813448D01*
X3725000Y18034837D02*
X3725000Y5051238D01*
X5300000Y20200000D02*
X5300000Y19609837D01*
X5300000Y19609837D02*
X5207954Y19517791D01*
G04 #@! TO.N,3.3V_LDO*
X37507500Y8200000D02*
X38092500Y7615000D01*
X32699999Y7000000D02*
X33899999Y8200000D01*
X33899999Y8200000D02*
X37507500Y8200000D01*
G04 #@! TO.N,Net-(C127-Pad1)*
X25184900Y17055000D02*
X25927501Y17055000D01*
X27100000Y12700000D02*
X25900000Y13900000D01*
X25900000Y14062500D02*
X24875000Y15087500D01*
X25900000Y13900000D02*
X25900000Y14062500D01*
X24875000Y16745100D02*
X25184900Y17055000D01*
X25927501Y17055000D02*
X26572501Y17700000D01*
X27100000Y12062500D02*
X27100000Y12700000D01*
X24875000Y15087500D02*
X24875000Y16745100D01*
G04 #@! TO.N,5212_MCLK1*
X5350000Y23200000D02*
X2877500Y23200000D01*
X2877500Y23200000D02*
X2537500Y22860000D01*
G04 #@! TO.N,GPI1*
X6650000Y23200000D02*
X6650000Y23650000D01*
X6650000Y23650000D02*
X6050000Y24250000D01*
X-274201Y24250000D02*
X-1200000Y23324201D01*
X6050000Y24250000D02*
X-274201Y24250000D01*
X-1200000Y23324201D02*
X-1200000Y6200000D01*
G04 #@! TO.N,DSP_SCL*
X3617500Y21400000D02*
X2537500Y20320000D01*
X5496000Y21400000D02*
X3617500Y21400000D01*
G04 #@! TO.N,DSP_SDA*
X4296000Y19538500D02*
X4296000Y20200000D01*
X2537500Y17780000D02*
X4296000Y19538500D01*
G04 #@! TO.N,OUT1M+*
X5200000Y15000000D02*
X5200000Y14962500D01*
X5200000Y14962500D02*
X7600000Y12562500D01*
X17787500Y20315000D02*
X16612500Y21490000D01*
X5800000Y16927500D02*
X5227500Y17500000D01*
X5200000Y15000000D02*
X5400000Y15000000D01*
X7600000Y12562500D02*
X7600000Y11500000D01*
X5400000Y15000000D02*
X5800000Y15400000D01*
X12400000Y20200000D02*
X7927500Y20200000D01*
X16612500Y21490000D02*
X13690000Y21490000D01*
X7927500Y20200000D02*
X5227500Y17500000D01*
X13690000Y21490000D02*
X12400000Y20200000D01*
X5800000Y15400000D02*
X5800000Y16927500D01*
G04 #@! TO.N,OUT2M+*
X20052140Y18145000D02*
X20597140Y18690000D01*
X18050000Y14612500D02*
X18050000Y16350000D01*
X17527500Y17500000D02*
X18172500Y18145000D01*
X17527500Y16627500D02*
X17400000Y16500000D01*
X18700000Y11600000D02*
X18700000Y13162500D01*
X21242500Y18690000D02*
X22867500Y20315000D01*
X19100000Y13562500D02*
X18050000Y14612500D01*
X18172500Y18145000D02*
X20052140Y18145000D01*
X17900000Y16500000D02*
X17400000Y16500000D01*
X17527500Y17500000D02*
X17527500Y16627500D01*
X18050000Y16350000D02*
X17900000Y16500000D01*
X18700000Y13162500D02*
X19100000Y13562500D01*
X20597140Y18690000D02*
X21242500Y18690000D01*
G04 #@! TO.N,OUT2P+*
X13500000Y17172500D02*
X13827500Y17500000D01*
X13827500Y17500000D02*
X15467500Y19140000D01*
X15200000Y13562500D02*
X14150000Y14612500D01*
X13500000Y16275000D02*
X13500000Y17172500D01*
X15200000Y12500000D02*
X14200000Y11500000D01*
X13925000Y16275000D02*
X13500000Y16275000D01*
X15467500Y19140000D02*
X18603276Y19140000D01*
X18603276Y19140000D02*
X19778276Y20315000D01*
X19778276Y20315000D02*
X20327500Y20315000D01*
X14150000Y16050000D02*
X13925000Y16275000D01*
X14150000Y14612500D02*
X14150000Y16050000D01*
X15200000Y13562500D02*
X15200000Y12500000D01*
G04 #@! TO.N,IN1M+*
X29172500Y18690000D02*
X27547500Y20315000D01*
X29862500Y16337500D02*
X31000000Y16337500D01*
X30120328Y18690000D02*
X29172500Y18690000D01*
X31000000Y16337500D02*
X31000000Y17810328D01*
X29500000Y15975000D02*
X29862500Y16337500D01*
X31000000Y17810328D02*
X30120328Y18690000D01*
G04 #@! TO.N,IN1P+*
X27400000Y16275000D02*
X27400000Y17945329D01*
X27400000Y17945329D02*
X25030329Y20315000D01*
X25900000Y16137500D02*
X26037500Y16275000D01*
X26037500Y16275000D02*
X27400000Y16275000D01*
X25430329Y20315000D02*
X25407500Y20315000D01*
G04 #@! TO.N,IN2P+*
X33462500Y16265000D02*
X34600000Y16265000D01*
X34600000Y17810328D02*
X33760328Y18650000D01*
X31752500Y18650000D02*
X30087500Y20315000D01*
X33760328Y18650000D02*
X31752500Y18650000D01*
X33100000Y15902500D02*
X33462500Y16265000D01*
X34600000Y16265000D02*
X34600000Y17810328D01*
G04 #@! TO.N,IN2M+*
X33890799Y20315000D02*
X35205799Y19000000D01*
X37700000Y19000000D02*
X38200000Y18500000D01*
X36700000Y15865000D02*
X37052500Y16217500D01*
X37052500Y16217500D02*
X38200000Y16217500D01*
X38200000Y18500000D02*
X38200000Y16217500D01*
X33027500Y20315000D02*
X33890799Y20315000D01*
X35205799Y19000000D02*
X37700000Y19000000D01*
G04 #@! TO.N,OUT1P+*
X9527500Y17500000D02*
X11227500Y19200000D01*
X9700000Y16200000D02*
X9200000Y16200000D01*
X9850000Y16050000D02*
X9700000Y16200000D01*
X9900000Y12562500D02*
X10900000Y13562500D01*
X10900000Y13562500D02*
X9850000Y14612500D01*
X9850000Y14612500D02*
X9850000Y16050000D01*
X9200000Y17172500D02*
X9527500Y17500000D01*
X14132500Y19200000D02*
X15247500Y20315000D01*
X9200000Y16200000D02*
X9200000Y17172500D01*
X11227500Y19200000D02*
X14132500Y19200000D01*
X9900000Y11500000D02*
X9900000Y12562500D01*
G04 #@! TO.N,3.3V_A*
X31361814Y5322500D02*
X31361814Y6713814D01*
X27600000Y5437500D02*
X28447500Y6285000D01*
X28447500Y6285000D02*
X30399313Y6285000D01*
X30399313Y6285000D02*
X31361813Y5322500D01*
X31361814Y6713814D02*
X31648000Y7000000D01*
G04 #@! TO.N,Net-(PU_EN108-Pad1)*
X23904037Y4374417D02*
X23878454Y4400000D01*
X21097904Y4400000D02*
X20503448Y3805544D01*
X23878454Y4400000D02*
X21097904Y4400000D01*
G04 #@! TO.N,Net-(R128-Pad2)*
X24504000Y3600000D02*
X25709999Y3600000D01*
X25709999Y3600000D02*
X25800000Y3509999D01*
G04 #@! TO.N,3.3v_IDE*
X22313413Y3600000D02*
X22061982Y3851431D01*
X1362500Y-1175000D02*
X1362500Y1175000D01*
X1362500Y1175000D02*
X-2500Y2540000D01*
X5375001Y1000000D02*
X5375001Y300000D01*
X3900001Y-1175000D02*
X1362500Y-1175000D01*
X5375001Y300000D02*
X3900001Y-1175000D01*
X23500001Y3600000D02*
X22313413Y3600000D01*
G04 #@! TO.N,5V_THIN*
X33400000Y3300000D02*
X33147500Y3047500D01*
X35850215Y3640901D02*
X35334314Y3125000D01*
X35159314Y3300000D02*
X35334314Y3125000D01*
X33400000Y3300000D02*
X35159314Y3300000D01*
X36640901Y3640901D02*
X35850215Y3640901D01*
X33147500Y3047500D02*
X31361813Y3047500D01*
G04 #@! TO.N,Net-(U109-GND)*
X30411814Y3047500D02*
X30411814Y3709999D01*
X34300001Y7000000D02*
X34300001Y6234313D01*
X28247500Y4010000D02*
X27600000Y3362500D01*
X33400000Y5025000D02*
X35159314Y5025000D01*
X32735000Y4360000D02*
X31360000Y4360000D01*
X34300001Y6234313D02*
X35334314Y5200000D01*
X35159314Y5025000D02*
X35334314Y5200000D01*
X31360000Y4360000D02*
X30411814Y3411814D01*
X30411814Y3709999D02*
X30111813Y4010000D01*
X33400000Y5025000D02*
X32735000Y4360000D01*
X30411814Y3411814D02*
X30411814Y3047500D01*
X30111813Y4010000D02*
X28247500Y4010000D01*
G04 #@! TD*
G04 #@! TA.AperFunction,Conductor*
G04 #@! TO.N,Earth*
G36*
X-610365Y24648406D02*
G01*
X-552199Y24629429D01*
X-516294Y24579887D01*
X-516367Y24518701D01*
X-540481Y24479402D01*
X-1480472Y23539411D01*
X-1514501Y23480470D01*
X-1514501Y23480469D01*
X-1526613Y23459492D01*
X-1526614Y23459490D01*
X-1526614Y23459489D01*
X-1549730Y23373216D01*
X-1550500Y23370344D01*
X-1550500Y6562967D01*
X-1569407Y6504776D01*
X-1579490Y6492970D01*
X-1580492Y6491969D01*
X-1643095Y6383537D01*
X-1643095Y6383536D01*
X-1675500Y6262601D01*
X-1675500Y6137399D01*
X-1643095Y6016464D01*
X-1580495Y5908036D01*
X-1491964Y5819505D01*
X-1383536Y5756905D01*
X-1262601Y5724500D01*
X-1262599Y5724500D01*
X-1137399Y5724500D01*
X-1087936Y5737754D01*
X-1026836Y5734553D01*
X-979286Y5696049D01*
X-963449Y5636949D01*
X-974103Y5597184D01*
X-1022373Y5502448D01*
X-1022377Y5502439D01*
X-1075902Y5337707D01*
X-1075903Y5337703D01*
X-1103000Y5166615D01*
X-1103000Y4993386D01*
X-1075903Y4822298D01*
X-1075902Y4822294D01*
X-1022377Y4657562D01*
X-1022375Y4657559D01*
X-944450Y4504620D01*
X-943732Y4503212D01*
X-841914Y4363072D01*
X-719428Y4240586D01*
X-579288Y4138768D01*
X-424945Y4060127D01*
X-424943Y4060127D01*
X-424942Y4060126D01*
X-424939Y4060124D01*
X-260207Y4006599D01*
X-260203Y4006598D01*
X-89114Y3979500D01*
X-89111Y3979500D01*
X84114Y3979500D01*
X255202Y4006598D01*
X255206Y4006599D01*
X419938Y4060124D01*
X419940Y4060126D01*
X419945Y4060127D01*
X574288Y4138768D01*
X714428Y4240586D01*
X836914Y4363072D01*
X905981Y4458136D01*
X955480Y4494098D01*
X1016665Y4494099D01*
X1066165Y4458135D01*
X1071809Y4449445D01*
X1094872Y4409500D01*
X1107030Y4388442D01*
X1845942Y3649530D01*
X1861583Y3640500D01*
X1904440Y3615756D01*
X1904442Y3615755D01*
X1904451Y3615750D01*
X1906562Y3614531D01*
X1906935Y3614316D01*
X1947881Y3568851D01*
X1954283Y3508001D01*
X1923695Y3455010D01*
X1915635Y3448483D01*
X1820577Y3379419D01*
X1698085Y3256927D01*
X1596266Y3116786D01*
X1517625Y2962442D01*
X1517623Y2962439D01*
X1464098Y2797707D01*
X1464097Y2797703D01*
X1437000Y2626615D01*
X1437000Y2453386D01*
X1464097Y2282298D01*
X1464098Y2282294D01*
X1517623Y2117562D01*
X1517625Y2117559D01*
X1587500Y1980419D01*
X1596268Y1963212D01*
X1698086Y1823072D01*
X1820572Y1700586D01*
X1960712Y1598768D01*
X2115055Y1520127D01*
X2115057Y1520127D01*
X2115058Y1520126D01*
X2115061Y1520124D01*
X2279793Y1466599D01*
X2279797Y1466598D01*
X2450886Y1439500D01*
X2450889Y1439500D01*
X2624114Y1439500D01*
X2795202Y1466598D01*
X2795206Y1466599D01*
X2959938Y1520124D01*
X2959940Y1520126D01*
X2959945Y1520127D01*
X3114288Y1598768D01*
X3254428Y1700586D01*
X3376914Y1823072D01*
X3478732Y1963212D01*
X3557373Y2117555D01*
X3557374Y2117560D01*
X3557376Y2117562D01*
X3610901Y2282294D01*
X3610902Y2282298D01*
X3638000Y2453386D01*
X3638000Y2626616D01*
X3637683Y2628617D01*
X3637789Y2629291D01*
X3637695Y2630493D01*
X3637983Y2630516D01*
X3647255Y2689049D01*
X3690520Y2732313D01*
X3750952Y2741884D01*
X3805465Y2714109D01*
X4600043Y1919531D01*
X4626502Y1904255D01*
X4667442Y1858786D01*
X4673838Y1797936D01*
X4656254Y1759190D01*
X4606202Y1692330D01*
X4555910Y1557489D01*
X4555908Y1557478D01*
X4549500Y1497871D01*
X4549500Y502134D01*
X4549501Y502130D01*
X4555908Y442520D01*
X4555909Y442515D01*
X4606202Y307671D01*
X4675001Y215768D01*
X4694738Y157853D01*
X4676664Y99398D01*
X4665752Y86435D01*
X3807004Y-772314D01*
X3752487Y-800091D01*
X3692055Y-790520D01*
X3648790Y-747255D01*
X3638000Y-702310D01*
X3638000Y874673D01*
X3637998Y874685D01*
X3625755Y936232D01*
X3623466Y947740D01*
X3599228Y984015D01*
X3568102Y1030600D01*
X3568099Y1030603D01*
X3485242Y1085965D01*
X3485240Y1085966D01*
X3485237Y1085967D01*
X3485236Y1085967D01*
X3412184Y1100499D01*
X3412174Y1100500D01*
X3412173Y1100500D01*
X1812000Y1100500D01*
X1753809Y1119407D01*
X1717845Y1168907D01*
X1713000Y1199500D01*
X1713000Y1221143D01*
X1713000Y1221144D01*
X1689114Y1310288D01*
X1666474Y1349501D01*
X1666473Y1349503D01*
X1642972Y1390209D01*
X1642971Y1390210D01*
X1642970Y1390212D01*
X1033889Y1999293D01*
X1006112Y2053810D01*
X1015682Y2114237D01*
X1017373Y2117555D01*
X1057747Y2241811D01*
X1070902Y2282298D01*
X1098000Y2453386D01*
X1098000Y2626615D01*
X1070902Y2797703D01*
X1070901Y2797707D01*
X1017376Y2962439D01*
X1017374Y2962442D01*
X1017373Y2962443D01*
X1017373Y2962445D01*
X938732Y3116788D01*
X836914Y3256928D01*
X714428Y3379414D01*
X574288Y3481232D01*
X574287Y3481233D01*
X574285Y3481234D01*
X419941Y3559875D01*
X419938Y3559877D01*
X255206Y3613402D01*
X255202Y3613403D01*
X84114Y3640500D01*
X84111Y3640500D01*
X-89111Y3640500D01*
X-89114Y3640500D01*
X-260203Y3613403D01*
X-260207Y3613402D01*
X-424939Y3559877D01*
X-424942Y3559875D01*
X-579286Y3481234D01*
X-719427Y3379415D01*
X-841915Y3256927D01*
X-943734Y3116786D01*
X-1022375Y2962442D01*
X-1022377Y2962439D01*
X-1075902Y2797707D01*
X-1075903Y2797703D01*
X-1103000Y2626615D01*
X-1103000Y2453386D01*
X-1075903Y2282298D01*
X-1075902Y2282294D01*
X-1022377Y2117562D01*
X-1022375Y2117559D01*
X-952500Y1980419D01*
X-943732Y1963212D01*
X-841914Y1823072D01*
X-719428Y1700586D01*
X-579288Y1598768D01*
X-424945Y1520127D01*
X-424943Y1520127D01*
X-424942Y1520126D01*
X-424939Y1520124D01*
X-260207Y1466599D01*
X-260203Y1466598D01*
X-89114Y1439500D01*
X-89111Y1439500D01*
X84114Y1439500D01*
X255202Y1466598D01*
X351436Y1497867D01*
X419945Y1520127D01*
X423247Y1521810D01*
X483674Y1531391D01*
X538195Y1503622D01*
X538207Y1503611D01*
X983004Y1058814D01*
X1010781Y1004297D01*
X1012000Y988810D01*
X1012000Y780280D01*
X993093Y722089D01*
X943593Y686125D01*
X882407Y686125D01*
X839968Y714482D01*
X839664Y714177D01*
X838134Y715707D01*
X837722Y715982D01*
X836919Y716922D01*
X836916Y716925D01*
X836914Y716928D01*
X714428Y839414D01*
X574288Y941232D01*
X574287Y941233D01*
X574285Y941234D01*
X419941Y1019875D01*
X419938Y1019877D01*
X255206Y1073402D01*
X255202Y1073403D01*
X84114Y1100500D01*
X84111Y1100500D01*
X-89111Y1100500D01*
X-89114Y1100500D01*
X-260203Y1073403D01*
X-260207Y1073402D01*
X-424939Y1019877D01*
X-424942Y1019875D01*
X-579286Y941234D01*
X-719427Y839415D01*
X-841915Y716927D01*
X-943734Y576786D01*
X-1022375Y422442D01*
X-1022377Y422439D01*
X-1075902Y257707D01*
X-1075903Y257703D01*
X-1103000Y86615D01*
X-1103000Y-86612D01*
X-1075903Y-257702D01*
X-1075902Y-257706D01*
X-1022377Y-422438D01*
X-1022375Y-422441D01*
X-946419Y-571516D01*
X-943732Y-576788D01*
X-841914Y-716928D01*
X-719428Y-839414D01*
X-579288Y-941232D01*
X-424945Y-1019873D01*
X-424943Y-1019873D01*
X-424942Y-1019874D01*
X-424939Y-1019876D01*
X-260207Y-1073401D01*
X-260203Y-1073402D01*
X-89114Y-1100500D01*
X-89111Y-1100500D01*
X84114Y-1100500D01*
X255202Y-1073402D01*
X255206Y-1073401D01*
X419938Y-1019876D01*
X419940Y-1019874D01*
X419945Y-1019873D01*
X574288Y-941232D01*
X714428Y-839414D01*
X836914Y-716928D01*
X836920Y-716919D01*
X837714Y-715991D01*
X838065Y-715775D01*
X839664Y-714177D01*
X840047Y-714560D01*
X889880Y-684017D01*
X950877Y-688811D01*
X997407Y-728544D01*
X1012000Y-780279D01*
X1012000Y-1128856D01*
X1012000Y-1221144D01*
X1035886Y-1310288D01*
X1035887Y-1310290D01*
X1078176Y-1383536D01*
X1082031Y-1390212D01*
X1147288Y-1455469D01*
X1227212Y-1501614D01*
X1316356Y-1525500D01*
X1316358Y-1525500D01*
X3946143Y-1525500D01*
X3946145Y-1525500D01*
X4035289Y-1501614D01*
X4071913Y-1480469D01*
X4115213Y-1455470D01*
X5591187Y20506D01*
X5645704Y48282D01*
X5661191Y49501D01*
X5747867Y49501D01*
X5747872Y49501D01*
X5807483Y55909D01*
X5889328Y86435D01*
X5942329Y106203D01*
X5942329Y106204D01*
X5942331Y106204D01*
X6057546Y192454D01*
X6143796Y307669D01*
X6194091Y442517D01*
X6200500Y502127D01*
X6200499Y1497872D01*
X6194091Y1557483D01*
X6156516Y1658228D01*
X6143796Y1692332D01*
X6140404Y1698544D01*
X6141876Y1699349D01*
X6124928Y1749092D01*
X6143006Y1807546D01*
X6191989Y1844210D01*
X6223918Y1849500D01*
X6576082Y1849500D01*
X6634273Y1830593D01*
X6670237Y1781093D01*
X6670237Y1719907D01*
X6659255Y1698730D01*
X6659596Y1698544D01*
X6656203Y1692332D01*
X6605910Y1557489D01*
X6605908Y1557478D01*
X6599500Y1497871D01*
X6599500Y502134D01*
X6599501Y502130D01*
X6605908Y442520D01*
X6605909Y442515D01*
X6656202Y307671D01*
X6725001Y215768D01*
X6742454Y192454D01*
X6742457Y192452D01*
X6742458Y192451D01*
X6853620Y109235D01*
X6888873Y59226D01*
X6887999Y-1953D01*
X6864295Y-40021D01*
X6408814Y-495503D01*
X6354297Y-523281D01*
X6338810Y-524500D01*
X6337399Y-524500D01*
X6256775Y-546103D01*
X6216463Y-556905D01*
X6108036Y-619505D01*
X6019505Y-708036D01*
X5956905Y-816463D01*
X5956905Y-816464D01*
X5924500Y-937399D01*
X5924500Y-1062601D01*
X5956905Y-1183536D01*
X6019505Y-1291964D01*
X6108036Y-1380495D01*
X6216464Y-1443095D01*
X6337399Y-1475500D01*
X6337401Y-1475500D01*
X6462599Y-1475500D01*
X6462601Y-1475500D01*
X6583536Y-1443095D01*
X6691964Y-1380495D01*
X6780495Y-1291964D01*
X6843095Y-1183536D01*
X6875500Y-1062601D01*
X6875500Y-1061189D01*
X6875812Y-1060226D01*
X6876347Y-1056168D01*
X6877099Y-1056267D01*
X6894407Y-1002998D01*
X6904490Y-991191D01*
X7705468Y-190214D01*
X7751613Y-110289D01*
X7756617Y-91614D01*
X7757957Y-86612D01*
X7757957Y-86611D01*
X7775499Y-21145D01*
X7775499Y-21143D01*
X7776761Y-16434D01*
X7810086Y34880D01*
X7851972Y52284D01*
X7851452Y54484D01*
X7857478Y55909D01*
X7857483Y55909D01*
X7939328Y86435D01*
X7992329Y106203D01*
X7992329Y106204D01*
X7992331Y106204D01*
X8107546Y192454D01*
X8128857Y220923D01*
X8178865Y256175D01*
X8240044Y255301D01*
X8289026Y218634D01*
X8307100Y160179D01*
X8306263Y148672D01*
X8302000Y116292D01*
X8302000Y-126289D01*
X8333661Y-366781D01*
X8333661Y-366786D01*
X8396444Y-601092D01*
X8396448Y-601105D01*
X8489272Y-825204D01*
X8489274Y-825208D01*
X8489276Y-825212D01*
X8604551Y-1024874D01*
X8610566Y-1035292D01*
X8758229Y-1227731D01*
X8758231Y-1227733D01*
X8758235Y-1227738D01*
X8929762Y-1399265D01*
X8929766Y-1399268D01*
X8929768Y-1399270D01*
X9050570Y-1491964D01*
X9122211Y-1546936D01*
X9240559Y-1615264D01*
X9281499Y-1660733D01*
X9287895Y-1721583D01*
X9257302Y-1774571D01*
X9201406Y-1799458D01*
X9191058Y-1800000D01*
X-1851000Y-1800000D01*
X-1909191Y-1781093D01*
X-1945155Y-1731593D01*
X-1950000Y-1701000D01*
X-1950000Y24550883D01*
X-1931093Y24609074D01*
X-1881593Y24645038D01*
X-1850889Y24649883D01*
X-610365Y24648406D01*
G37*
G04 #@! TD.AperFunction*
G04 #@! TA.AperFunction,Conductor*
G36*
X17321575Y23047993D02*
G01*
X17287500Y22920826D01*
X17287500Y22789174D01*
X17321575Y22662007D01*
X17354488Y22605000D01*
X15680512Y22605000D01*
X15713425Y22662007D01*
X15747500Y22789174D01*
X15747500Y22920826D01*
X15713425Y23047993D01*
X15680512Y23105000D01*
X17354488Y23105000D01*
X17321575Y23047993D01*
G37*
G04 #@! TD.AperFunction*
G04 #@! TA.AperFunction,Conductor*
G36*
X19861575Y23047993D02*
G01*
X19827500Y22920826D01*
X19827500Y22789174D01*
X19861575Y22662007D01*
X19894488Y22605000D01*
X18220512Y22605000D01*
X18253425Y22662007D01*
X18287500Y22789174D01*
X18287500Y22920826D01*
X18253425Y23047993D01*
X18220512Y23105000D01*
X19894488Y23105000D01*
X19861575Y23047993D01*
G37*
G04 #@! TD.AperFunction*
G04 #@! TA.AperFunction,Conductor*
G36*
X22401575Y23047993D02*
G01*
X22367500Y22920826D01*
X22367500Y22789174D01*
X22401575Y22662007D01*
X22434488Y22605000D01*
X20760512Y22605000D01*
X20793425Y22662007D01*
X20827500Y22789174D01*
X20827500Y22920826D01*
X20793425Y23047993D01*
X20760512Y23105000D01*
X22434488Y23105000D01*
X22401575Y23047993D01*
G37*
G04 #@! TD.AperFunction*
G04 #@! TA.AperFunction,Conductor*
G36*
X24941575Y23047993D02*
G01*
X24907500Y22920826D01*
X24907500Y22789174D01*
X24941575Y22662007D01*
X24974488Y22605000D01*
X23300512Y22605000D01*
X23333425Y22662007D01*
X23367500Y22789174D01*
X23367500Y22920826D01*
X23333425Y23047993D01*
X23300512Y23105000D01*
X24974488Y23105000D01*
X24941575Y23047993D01*
G37*
G04 #@! TD.AperFunction*
G04 #@! TA.AperFunction,Conductor*
G36*
X27481575Y23047993D02*
G01*
X27447500Y22920826D01*
X27447500Y22789174D01*
X27481575Y22662007D01*
X27514488Y22605000D01*
X25840512Y22605000D01*
X25873425Y22662007D01*
X25907500Y22789174D01*
X25907500Y22920826D01*
X25873425Y23047993D01*
X25840512Y23105000D01*
X27514488Y23105000D01*
X27481575Y23047993D01*
G37*
G04 #@! TD.AperFunction*
G04 #@! TA.AperFunction,Conductor*
G36*
X30021575Y23047993D02*
G01*
X29987500Y22920826D01*
X29987500Y22789174D01*
X30021575Y22662007D01*
X30054488Y22605000D01*
X28380512Y22605000D01*
X28413425Y22662007D01*
X28447500Y22789174D01*
X28447500Y22920826D01*
X28413425Y23047993D01*
X28380512Y23105000D01*
X30054488Y23105000D01*
X30021575Y23047993D01*
G37*
G04 #@! TD.AperFunction*
G04 #@! TA.AperFunction,Conductor*
G36*
X32561575Y23047993D02*
G01*
X32527500Y22920826D01*
X32527500Y22789174D01*
X32561575Y22662007D01*
X32594488Y22605000D01*
X30920512Y22605000D01*
X30953425Y22662007D01*
X30987500Y22789174D01*
X30987500Y22920826D01*
X30953425Y23047993D01*
X30920512Y23105000D01*
X32594488Y23105000D01*
X32561575Y23047993D01*
G37*
G04 #@! TD.AperFunction*
G04 #@! TA.AperFunction,Conductor*
G36*
X9168253Y24636765D02*
G01*
X9226419Y24617788D01*
X9262324Y24568246D01*
X9262251Y24507060D01*
X9226228Y24457603D01*
X9217633Y24452029D01*
X9122213Y24396938D01*
X8929768Y24249271D01*
X8758229Y24077732D01*
X8610566Y23885293D01*
X8489272Y23675205D01*
X8396448Y23451106D01*
X8396444Y23451093D01*
X8333661Y23216787D01*
X8333661Y23216782D01*
X8302000Y22976290D01*
X8302000Y22733711D01*
X8333661Y22493219D01*
X8333661Y22493214D01*
X8396444Y22258908D01*
X8396448Y22258895D01*
X8489272Y22034796D01*
X8489274Y22034792D01*
X8489276Y22034788D01*
X8604853Y21834603D01*
X8610566Y21824708D01*
X8758229Y21632269D01*
X8758231Y21632267D01*
X8758235Y21632262D01*
X8929762Y21460735D01*
X8929766Y21460732D01*
X8929768Y21460730D01*
X9093784Y21334877D01*
X9122211Y21313064D01*
X9332288Y21191776D01*
X9556400Y21098946D01*
X9790711Y21036162D01*
X10031212Y21004500D01*
X10031213Y21004500D01*
X10273787Y21004500D01*
X10273788Y21004500D01*
X10514289Y21036162D01*
X10748600Y21098946D01*
X10972712Y21191776D01*
X11182789Y21313064D01*
X11375238Y21460735D01*
X11546765Y21632262D01*
X11694436Y21824711D01*
X11815724Y22034788D01*
X11908554Y22258900D01*
X11971338Y22493211D01*
X12003000Y22733712D01*
X12003000Y22976288D01*
X11971338Y23216789D01*
X11908554Y23451100D01*
X11856435Y23576927D01*
X11815726Y23675209D01*
X11815723Y23675214D01*
X11797962Y23705976D01*
X11694436Y23885289D01*
X11647014Y23947091D01*
X11546770Y24077732D01*
X11546768Y24077734D01*
X11546765Y24077738D01*
X11375238Y24249265D01*
X11375233Y24249269D01*
X11375231Y24249271D01*
X11182792Y24396934D01*
X11182789Y24396936D01*
X11091432Y24449681D01*
X11050492Y24495150D01*
X11044096Y24556000D01*
X11074689Y24608988D01*
X11130585Y24633875D01*
X11141022Y24634416D01*
X37050763Y24603571D01*
X37108927Y24584595D01*
X37144832Y24535053D01*
X37144759Y24473867D01*
X37108736Y24424410D01*
X37100142Y24418836D01*
X37062210Y24396936D01*
X36869768Y24249271D01*
X36698229Y24077732D01*
X36550566Y23885293D01*
X36429272Y23675205D01*
X36336448Y23451106D01*
X36336444Y23451093D01*
X36273661Y23216787D01*
X36273661Y23216782D01*
X36242000Y22976290D01*
X36242000Y22733711D01*
X36273661Y22493219D01*
X36273661Y22493214D01*
X36336444Y22258908D01*
X36336448Y22258895D01*
X36429272Y22034796D01*
X36429274Y22034792D01*
X36429276Y22034788D01*
X36544853Y21834603D01*
X36550566Y21824708D01*
X36698229Y21632269D01*
X36698231Y21632267D01*
X36698235Y21632262D01*
X36869762Y21460735D01*
X36869766Y21460732D01*
X36869768Y21460730D01*
X37033784Y21334877D01*
X37062211Y21313064D01*
X37272288Y21191776D01*
X37496400Y21098946D01*
X37730711Y21036162D01*
X37971212Y21004500D01*
X37971213Y21004500D01*
X38213787Y21004500D01*
X38213788Y21004500D01*
X38454289Y21036162D01*
X38688600Y21098946D01*
X38912712Y21191776D01*
X39122789Y21313064D01*
X39315238Y21460735D01*
X39486765Y21632262D01*
X39634436Y21824711D01*
X39755724Y22034788D01*
X39841536Y22241959D01*
X39881272Y22288484D01*
X39940767Y22302768D01*
X39997295Y22279354D01*
X40029265Y22227185D01*
X40032000Y22204073D01*
X40032000Y645928D01*
X40013093Y587737D01*
X39963593Y551773D01*
X39902407Y551773D01*
X39852907Y587737D01*
X39841536Y608043D01*
X39755727Y815205D01*
X39755726Y815206D01*
X39755724Y815212D01*
X39634436Y1025289D01*
X39630360Y1030601D01*
X39486770Y1217732D01*
X39486768Y1217734D01*
X39486765Y1217738D01*
X39315238Y1389265D01*
X39315233Y1389269D01*
X39315231Y1389271D01*
X39122792Y1536934D01*
X39087209Y1557478D01*
X38912712Y1658224D01*
X38912708Y1658226D01*
X38912704Y1658228D01*
X38688605Y1751052D01*
X38688604Y1751053D01*
X38688600Y1751054D01*
X38454289Y1813838D01*
X38454286Y1813839D01*
X38454284Y1813839D01*
X38213789Y1845500D01*
X38213788Y1845500D01*
X37971212Y1845500D01*
X37971210Y1845500D01*
X37730718Y1813839D01*
X37730713Y1813839D01*
X37496407Y1751056D01*
X37496394Y1751052D01*
X37272295Y1658228D01*
X37062207Y1536934D01*
X36869768Y1389271D01*
X36698229Y1217732D01*
X36550566Y1025293D01*
X36429272Y815205D01*
X36336448Y591106D01*
X36336444Y591093D01*
X36273661Y356787D01*
X36273661Y356782D01*
X36242000Y116290D01*
X36242000Y-126289D01*
X36273661Y-366781D01*
X36273661Y-366786D01*
X36336444Y-601092D01*
X36336448Y-601105D01*
X36429272Y-825204D01*
X36429274Y-825208D01*
X36429276Y-825212D01*
X36544551Y-1024874D01*
X36550566Y-1035292D01*
X36698229Y-1227731D01*
X36698231Y-1227733D01*
X36698235Y-1227738D01*
X36869762Y-1399265D01*
X36869766Y-1399268D01*
X36869768Y-1399270D01*
X36990570Y-1491964D01*
X37062211Y-1546936D01*
X37180559Y-1615264D01*
X37221499Y-1660733D01*
X37227895Y-1721583D01*
X37197302Y-1774571D01*
X37141406Y-1799458D01*
X37131058Y-1800000D01*
X12881242Y-1800000D01*
X12823051Y-1781093D01*
X12787087Y-1731593D01*
X12787087Y-1670407D01*
X12823051Y-1620907D01*
X12831732Y-1615269D01*
X12891964Y-1580495D01*
X12980495Y-1491964D01*
X13043095Y-1383536D01*
X13075500Y-1262601D01*
X13075500Y-1137399D01*
X13043095Y-1016464D01*
X12980495Y-908036D01*
X12891964Y-819505D01*
X12783536Y-756905D01*
X12662601Y-724500D01*
X12662599Y-724500D01*
X12661190Y-724500D01*
X12660228Y-724187D01*
X12656168Y-723653D01*
X12656267Y-722900D01*
X12653592Y-722031D01*
X12645703Y-723281D01*
X12625047Y-712756D01*
X12602999Y-705593D01*
X12591186Y-695504D01*
X12579496Y-683814D01*
X12551719Y-629297D01*
X12550500Y-613810D01*
X12550500Y2650447D01*
X12569407Y2708638D01*
X12579490Y2720445D01*
X12587082Y2728036D01*
X12649682Y2836464D01*
X12682087Y2957399D01*
X12682087Y3082601D01*
X12672099Y3119877D01*
X12675300Y3180977D01*
X12713805Y3228528D01*
X12767725Y3244500D01*
X14252896Y3244500D01*
X14311087Y3225593D01*
X14322899Y3215504D01*
X14629588Y2908816D01*
X14657366Y2854299D01*
X14658585Y2838812D01*
X14658585Y2837399D01*
X14690990Y2716464D01*
X14753590Y2608036D01*
X14842121Y2519505D01*
X14847493Y2516404D01*
X14888438Y2470938D01*
X14897000Y2430664D01*
X14897000Y1194500D01*
X14878093Y1136309D01*
X14828593Y1100345D01*
X14798000Y1095500D01*
X14372826Y1095500D01*
X14372825Y1095500D01*
X14372815Y1095499D01*
X14299763Y1080967D01*
X14299757Y1080965D01*
X14216900Y1025603D01*
X14216897Y1025600D01*
X14161535Y942743D01*
X14161533Y942737D01*
X14147001Y869685D01*
X14147000Y869673D01*
X14147000Y-879672D01*
X14147001Y-879684D01*
X14161533Y-952736D01*
X14161535Y-952742D01*
X14216897Y-1035599D01*
X14216900Y-1035602D01*
X14257308Y-1062601D01*
X14299760Y-1090966D01*
X14347690Y-1100500D01*
X14372815Y-1105498D01*
X14372820Y-1105498D01*
X14372826Y-1105500D01*
X14372827Y-1105500D01*
X16122173Y-1105500D01*
X16122174Y-1105500D01*
X16195240Y-1090966D01*
X16278101Y-1035601D01*
X16333466Y-952740D01*
X16348000Y-879674D01*
X16348000Y81615D01*
X16687000Y81615D01*
X16687000Y-91614D01*
X16714097Y-262702D01*
X16714098Y-262706D01*
X16767623Y-427438D01*
X16767625Y-427441D01*
X16843718Y-576785D01*
X16846268Y-581788D01*
X16948086Y-721928D01*
X17070572Y-844414D01*
X17210712Y-946232D01*
X17365055Y-1024873D01*
X17365057Y-1024873D01*
X17365058Y-1024874D01*
X17365061Y-1024876D01*
X17529793Y-1078401D01*
X17529797Y-1078402D01*
X17700886Y-1105500D01*
X17700889Y-1105500D01*
X17874114Y-1105500D01*
X18045202Y-1078402D01*
X18045206Y-1078401D01*
X18209938Y-1024876D01*
X18209940Y-1024874D01*
X18209945Y-1024873D01*
X18364288Y-946232D01*
X18504428Y-844414D01*
X18626914Y-721928D01*
X18728732Y-581788D01*
X18807373Y-427445D01*
X18807374Y-427440D01*
X18807376Y-427438D01*
X18860901Y-262706D01*
X18860902Y-262702D01*
X18888000Y-91614D01*
X18888000Y81615D01*
X18860902Y252703D01*
X18860901Y252707D01*
X18807376Y417439D01*
X18807374Y417442D01*
X18807373Y417443D01*
X18807373Y417445D01*
X18728732Y571788D01*
X18626914Y711928D01*
X18504428Y834414D01*
X18364288Y936232D01*
X18364287Y936233D01*
X18364285Y936234D01*
X18209941Y1014875D01*
X18209938Y1014877D01*
X18045206Y1068402D01*
X18045202Y1068403D01*
X17874114Y1095500D01*
X17874111Y1095500D01*
X17700889Y1095500D01*
X17700886Y1095500D01*
X17529797Y1068403D01*
X17529793Y1068402D01*
X17365061Y1014877D01*
X17365058Y1014875D01*
X17210714Y936234D01*
X17070573Y834415D01*
X16948085Y711927D01*
X16846266Y571786D01*
X16767625Y417442D01*
X16767623Y417439D01*
X16714098Y252707D01*
X16714097Y252703D01*
X16687000Y81615D01*
X16348000Y81615D01*
X16348000Y869674D01*
X16347005Y874674D01*
X16344515Y887192D01*
X16333466Y942740D01*
X16315214Y970056D01*
X16278102Y1025600D01*
X16278099Y1025603D01*
X16195242Y1080965D01*
X16195240Y1080966D01*
X16195237Y1080967D01*
X16195236Y1080967D01*
X16122184Y1095499D01*
X16122174Y1095500D01*
X16122173Y1095500D01*
X15697000Y1095500D01*
X15638809Y1114407D01*
X15602845Y1163907D01*
X15598000Y1194500D01*
X15598000Y2781129D01*
X15601373Y2806752D01*
X15602173Y2809739D01*
X15609585Y2837399D01*
X15609585Y2962601D01*
X15577180Y3083536D01*
X15514580Y3191964D01*
X15426049Y3280495D01*
X15317621Y3343095D01*
X15196686Y3375500D01*
X15196684Y3375500D01*
X15195274Y3375500D01*
X15194311Y3375813D01*
X15190253Y3376347D01*
X15190352Y3377100D01*
X15137083Y3394407D01*
X15125270Y3404496D01*
X14907758Y3622008D01*
X14654297Y3875470D01*
X14574373Y3921614D01*
X14485229Y3945500D01*
X11922270Y3945500D01*
X11833126Y3921614D01*
X11753202Y3875470D01*
X10457228Y2579496D01*
X10402711Y2551719D01*
X10387224Y2550500D01*
X8344412Y2550500D01*
X8286221Y2569407D01*
X8250257Y2618907D01*
X8245979Y2660081D01*
X8250500Y2702127D01*
X8250499Y3697872D01*
X8244091Y3757483D01*
X8243221Y3759816D01*
X8193797Y3892330D01*
X8107549Y4007542D01*
X8107548Y4007543D01*
X8107546Y4007546D01*
X8090378Y4020398D01*
X7992329Y4093798D01*
X7857488Y4144090D01*
X7857483Y4144091D01*
X7857481Y4144092D01*
X7857477Y4144092D01*
X7824762Y4147609D01*
X7797873Y4150500D01*
X7797870Y4150500D01*
X7137596Y4150500D01*
X7079405Y4169407D01*
X7043441Y4218907D01*
X7040402Y4251997D01*
X7038925Y4251997D01*
X7038925Y4383686D01*
X7038925Y4383688D01*
X7006520Y4504623D01*
X6943920Y4613051D01*
X6855389Y4701582D01*
X6746961Y4764182D01*
X6626026Y4796587D01*
X6500824Y4796587D01*
X6433238Y4778477D01*
X6379888Y4764182D01*
X6289019Y4711719D01*
X6271461Y4701582D01*
X6182930Y4613051D01*
X6120520Y4504951D01*
X6120329Y4504621D01*
X6120328Y4504620D01*
X6103912Y4443354D01*
X6078290Y4398974D01*
X5855354Y4176038D01*
X5800837Y4148261D01*
X5774770Y4147609D01*
X5750908Y4150174D01*
X5747873Y4150500D01*
X5747872Y4150500D01*
X5002133Y4150500D01*
X5002129Y4150500D01*
X5002128Y4150499D01*
X4994949Y4149728D01*
X4942519Y4144092D01*
X4942514Y4144091D01*
X4807670Y4093798D01*
X4692458Y4007550D01*
X4692450Y4007542D01*
X4606202Y3892330D01*
X4555910Y3757489D01*
X4555908Y3757478D01*
X4549500Y3697871D01*
X4549500Y3200446D01*
X4530593Y3142255D01*
X4481093Y3106291D01*
X4419907Y3106291D01*
X4380496Y3130442D01*
X3332393Y4178545D01*
X3304616Y4233062D01*
X3314187Y4293494D01*
X3332391Y4318550D01*
X3376914Y4363072D01*
X3461869Y4480004D01*
X3511368Y4515966D01*
X3572554Y4515966D01*
X3611962Y4491817D01*
X3670826Y4432953D01*
X3779254Y4370353D01*
X3900189Y4337948D01*
X3900191Y4337948D01*
X4025389Y4337948D01*
X4025391Y4337948D01*
X4146326Y4370353D01*
X4254754Y4432953D01*
X4343285Y4521484D01*
X4405885Y4629912D01*
X4438290Y4750847D01*
X4438290Y4876049D01*
X4405885Y4996984D01*
X4343285Y5105412D01*
X4254754Y5193943D01*
X4146326Y5256543D01*
X4146324Y5256544D01*
X4146320Y5256546D01*
X4140330Y5259027D01*
X4141106Y5260902D01*
X4097551Y5289199D01*
X4075635Y5346325D01*
X4075500Y5351487D01*
X4075500Y15621144D01*
X4274500Y15621144D01*
X4274500Y14378856D01*
X4298386Y14289712D01*
X4298387Y14289710D01*
X4338561Y14220127D01*
X4344531Y14209788D01*
X4409788Y14144531D01*
X4485450Y14100847D01*
X4526389Y14055379D01*
X4534948Y14015112D01*
X4534948Y12075248D01*
X4531575Y12049627D01*
X4524500Y12023223D01*
X4524500Y12023220D01*
X4524500Y10976780D01*
X4531575Y10950377D01*
X4534948Y10924754D01*
X4534948Y10441738D01*
X4516041Y10383547D01*
X4505952Y10371735D01*
X4419530Y10285313D01*
X4409994Y10268796D01*
X4381251Y10219011D01*
X4381250Y10219011D01*
X4373387Y10205391D01*
X4373386Y10205389D01*
X4373386Y10205388D01*
X4349500Y10116244D01*
X4349500Y8533756D01*
X4356325Y8508285D01*
X4365110Y8475500D01*
X4365110Y8475499D01*
X4373384Y8444616D01*
X4373385Y8444613D01*
X4373386Y8444612D01*
X4419530Y8364688D01*
X4505953Y8278265D01*
X4533729Y8223750D01*
X4534948Y8208263D01*
X4534948Y8093408D01*
X4549942Y8037446D01*
X4558832Y8004267D01*
X4558833Y8004265D01*
X4558834Y8004263D01*
X4604978Y7924339D01*
X5033227Y7496091D01*
X5285494Y7243824D01*
X5313271Y7189307D01*
X5303700Y7128875D01*
X5260435Y7085610D01*
X5226074Y7075387D01*
X5167522Y7069092D01*
X5167512Y7069090D01*
X5032671Y7018798D01*
X4917458Y6932550D01*
X4917450Y6932542D01*
X4831202Y6817329D01*
X4780910Y6682488D01*
X4780908Y6682477D01*
X4777230Y6648264D01*
X4774500Y6622872D01*
X4774500Y5527128D01*
X4777154Y5502445D01*
X4780908Y5467524D01*
X4780910Y5467513D01*
X4831202Y5332672D01*
X4910597Y5226614D01*
X4917454Y5217454D01*
X4917457Y5217452D01*
X4917458Y5217451D01*
X5032671Y5131203D01*
X5167512Y5080911D01*
X5167513Y5080911D01*
X5167518Y5080909D01*
X5227128Y5074500D01*
X5227131Y5074500D01*
X7172869Y5074500D01*
X7172872Y5074500D01*
X7232482Y5080909D01*
X7330478Y5117459D01*
X7367328Y5131203D01*
X7367328Y5131204D01*
X7367330Y5131204D01*
X7482546Y5217454D01*
X7568796Y5332670D01*
X7568809Y5332703D01*
X7609982Y5443095D01*
X7619091Y5467518D01*
X7625500Y5527128D01*
X7625500Y6095685D01*
X7644407Y6153876D01*
X7693907Y6189840D01*
X7755093Y6189840D01*
X7773994Y6181425D01*
X7816464Y6156905D01*
X7937399Y6124500D01*
X7937401Y6124500D01*
X8062599Y6124500D01*
X8062601Y6124500D01*
X8183536Y6156905D01*
X8291964Y6219505D01*
X8380495Y6308036D01*
X8443095Y6416464D01*
X8475500Y6537399D01*
X8475500Y6662601D01*
X8443095Y6783536D01*
X8380495Y6891964D01*
X8291964Y6980495D01*
X8183536Y7043095D01*
X8062601Y7075500D01*
X7937399Y7075500D01*
X7856775Y7053897D01*
X7816463Y7043095D01*
X7708033Y6980493D01*
X7639341Y6911801D01*
X7584824Y6884024D01*
X7524392Y6893596D01*
X7490086Y6922474D01*
X7482548Y6932543D01*
X7482546Y6932546D01*
X7446953Y6959191D01*
X7367328Y7018798D01*
X7232487Y7069090D01*
X7232482Y7069091D01*
X7232480Y7069092D01*
X7232476Y7069092D01*
X7201248Y7072450D01*
X7172872Y7075500D01*
X7172869Y7075500D01*
X6486188Y7075500D01*
X6478590Y7077969D01*
X6470701Y7076719D01*
X6450045Y7087244D01*
X6427997Y7094407D01*
X6416184Y7104496D01*
X6331465Y7189215D01*
X6303688Y7243732D01*
X6313259Y7304164D01*
X6356524Y7347429D01*
X6375847Y7354845D01*
X6383536Y7356905D01*
X6491964Y7419505D01*
X6580495Y7508036D01*
X6643095Y7616464D01*
X6675500Y7737399D01*
X6675500Y7862601D01*
X6643095Y7983536D01*
X6580495Y8091964D01*
X6516960Y8155499D01*
X6489185Y8210013D01*
X6498756Y8270445D01*
X6542021Y8313710D01*
X6586966Y8324500D01*
X7172869Y8324500D01*
X7172872Y8324500D01*
X7232482Y8330909D01*
X7279304Y8348373D01*
X7367328Y8381203D01*
X7367328Y8381204D01*
X7367330Y8381204D01*
X7482546Y8467454D01*
X7568796Y8582670D01*
X7588267Y8634873D01*
X7619089Y8717513D01*
X7619088Y8717513D01*
X7619091Y8717518D01*
X7625500Y8777128D01*
X7625500Y9872872D01*
X7619091Y9932482D01*
X7619011Y9932696D01*
X7568797Y10067329D01*
X7482549Y10182542D01*
X7482548Y10182543D01*
X7482546Y10182546D01*
X7472833Y10189817D01*
X7367328Y10268798D01*
X7232487Y10319090D01*
X7232482Y10319091D01*
X7232480Y10319092D01*
X7232476Y10319092D01*
X7201248Y10322450D01*
X7172872Y10325500D01*
X7172869Y10325500D01*
X6649500Y10325500D01*
X6591309Y10344407D01*
X6555345Y10393907D01*
X6550500Y10424500D01*
X6550500Y10946143D01*
X6550500Y10946144D01*
X6526614Y11035288D01*
X6507111Y11069068D01*
X6502532Y11076998D01*
X6494962Y11112625D01*
X6489814Y11136837D01*
X6489815Y11136844D01*
X6489815Y11136846D01*
X6489817Y11136852D01*
X6493279Y11151568D01*
X6492827Y11151675D01*
X6494251Y11157701D01*
X6496097Y11174875D01*
X6500500Y11215826D01*
X6500500Y11784174D01*
X6494251Y11842299D01*
X6494248Y11842308D01*
X6445213Y11973777D01*
X6361119Y12086112D01*
X6361118Y12086113D01*
X6361116Y12086116D01*
X6327726Y12111112D01*
X6248776Y12170214D01*
X6117304Y12219250D01*
X6117299Y12219251D01*
X6117297Y12219252D01*
X6117293Y12219252D01*
X6091011Y12222078D01*
X6059174Y12225500D01*
X5390826Y12225500D01*
X5390824Y12225500D01*
X5345528Y12220631D01*
X5285650Y12233211D01*
X5244602Y12278584D01*
X5235948Y12319064D01*
X5235948Y14191862D01*
X5254855Y14250053D01*
X5304355Y14286017D01*
X5365541Y14286017D01*
X5404952Y14261866D01*
X5845504Y13821314D01*
X5873281Y13766797D01*
X5874500Y13751310D01*
X5874500Y13390830D01*
X5874499Y13390830D01*
X5880748Y13332707D01*
X5880750Y13332696D01*
X5929786Y13201224D01*
X5992236Y13117802D01*
X6013884Y13088884D01*
X6013887Y13088882D01*
X6013888Y13088881D01*
X6126223Y13004787D01*
X6257695Y12955751D01*
X6257696Y12955751D01*
X6257701Y12955749D01*
X6315826Y12949500D01*
X6676310Y12949500D01*
X6734501Y12930593D01*
X6746314Y12920504D01*
X7220504Y12446314D01*
X7224130Y12439197D01*
X7230593Y12434501D01*
X7237756Y12412453D01*
X7248281Y12391797D01*
X7249500Y12376310D01*
X7249500Y12324500D01*
X7230593Y12266309D01*
X7181093Y12230345D01*
X7150500Y12225500D01*
X7140826Y12225500D01*
X7112823Y12222490D01*
X7082706Y12219252D01*
X7082695Y12219250D01*
X6951223Y12170214D01*
X6838888Y12086120D01*
X6838880Y12086112D01*
X6754786Y11973777D01*
X6705750Y11842305D01*
X6705748Y11842294D01*
X6703398Y11820435D01*
X6701887Y11806372D01*
X6699500Y11784171D01*
X6699500Y11215830D01*
X6699499Y11215830D01*
X6705748Y11157707D01*
X6705750Y11157696D01*
X6754786Y11026224D01*
X6838880Y10913889D01*
X6838884Y10913884D01*
X6838887Y10913882D01*
X6838888Y10913881D01*
X6951223Y10829787D01*
X7082695Y10780751D01*
X7082696Y10780751D01*
X7082701Y10780749D01*
X7140826Y10774500D01*
X7140830Y10774500D01*
X7809170Y10774500D01*
X7809174Y10774500D01*
X7867299Y10780749D01*
X7950502Y10811782D01*
X7998776Y10829787D01*
X7998776Y10829788D01*
X7998778Y10829788D01*
X8111116Y10913884D01*
X8195212Y11026222D01*
X8198594Y11035288D01*
X8236472Y11136844D01*
X8244251Y11157701D01*
X8250500Y11215826D01*
X8250500Y11784174D01*
X8244251Y11842299D01*
X8244248Y11842308D01*
X8195213Y11973777D01*
X8111119Y12086112D01*
X8111118Y12086113D01*
X8111116Y12086116D01*
X8077726Y12111112D01*
X7993110Y12174456D01*
X7994545Y12176374D01*
X7960041Y12212911D01*
X7950500Y12255314D01*
X7950500Y12608643D01*
X7950500Y12608644D01*
X7926614Y12697788D01*
X7918919Y12711116D01*
X7918918Y12711117D01*
X7889183Y12762620D01*
X7880470Y12777712D01*
X7353347Y13304835D01*
X7325570Y13359352D01*
X7324919Y13385425D01*
X7325500Y13390826D01*
X7325500Y14084174D01*
X7319251Y14142299D01*
X7310188Y14166599D01*
X7270213Y14273777D01*
X7216908Y14344983D01*
X7187066Y14384847D01*
X7167330Y14442760D01*
X7185404Y14501214D01*
X7214347Y14528435D01*
X7298038Y14580057D01*
X7419946Y14701965D01*
X7510451Y14848694D01*
X7564681Y15012352D01*
X7575000Y15113345D01*
X7575000Y15212499D01*
X7574999Y15212500D01*
X6699000Y15212500D01*
X6640809Y15231407D01*
X6604845Y15280907D01*
X6600000Y15311500D01*
X6600000Y15462499D01*
X6599999Y15462500D01*
X6449000Y15462500D01*
X6390809Y15481407D01*
X6354845Y15530907D01*
X6350000Y15561500D01*
X6350000Y16499999D01*
X6850000Y16499999D01*
X6850000Y15712501D01*
X6850001Y15712500D01*
X7574998Y15712500D01*
X7574999Y15712501D01*
X7574999Y15811655D01*
X7564682Y15912643D01*
X7564679Y15912655D01*
X7510451Y16076307D01*
X7419946Y16223036D01*
X7298035Y16344947D01*
X7151306Y16435452D01*
X6987648Y16489682D01*
X6886655Y16500000D01*
X6850001Y16500000D01*
X6850000Y16499999D01*
X6350000Y16499999D01*
X6350000Y16500000D01*
X6313364Y16500000D01*
X6259560Y16494503D01*
X6199750Y16507400D01*
X6158942Y16552989D01*
X6150500Y16592991D01*
X6150500Y16973643D01*
X6150500Y16973644D01*
X6126614Y17062788D01*
X6126612Y17062791D01*
X6125873Y17065551D01*
X6122500Y17091174D01*
X6122500Y17249999D01*
X6622500Y17249999D01*
X6622500Y16680001D01*
X6622501Y16680000D01*
X6648334Y16680000D01*
X6648345Y16680001D01*
X6714841Y16686043D01*
X6714847Y16686045D01*
X6867855Y16733724D01*
X6867867Y16733729D01*
X7005020Y16816641D01*
X7118359Y16929980D01*
X7201271Y17067133D01*
X7201276Y17067145D01*
X7248956Y17220156D01*
X7251668Y17250000D01*
X6622501Y17250000D01*
X6622500Y17249999D01*
X6122500Y17249999D01*
X6122500Y17401000D01*
X6141407Y17459191D01*
X6190907Y17495155D01*
X6221500Y17500000D01*
X6372499Y17500000D01*
X6372500Y17500001D01*
X6372500Y17651000D01*
X6391407Y17709191D01*
X6440907Y17745155D01*
X6471500Y17750000D01*
X7251668Y17750000D01*
X7251668Y17750001D01*
X7248956Y17779845D01*
X7201276Y17932856D01*
X7201271Y17932868D01*
X7118359Y18070021D01*
X7005020Y18183360D01*
X6867867Y18266272D01*
X6867855Y18266277D01*
X6735708Y18307456D01*
X6685777Y18342819D01*
X6666168Y18400777D01*
X6684371Y18459192D01*
X6695149Y18471969D01*
X8043686Y19820504D01*
X8098203Y19848281D01*
X8113690Y19849500D01*
X12446142Y19849500D01*
X12446144Y19849500D01*
X12535288Y19873386D01*
X12562332Y19889000D01*
X12615212Y19919530D01*
X13806186Y21110504D01*
X13813303Y21114131D01*
X13817999Y21120593D01*
X13840047Y21127757D01*
X13860703Y21138281D01*
X13876190Y21139500D01*
X14048000Y21139500D01*
X14106191Y21120593D01*
X14142155Y21071093D01*
X14147000Y21040500D01*
X14147000Y19751190D01*
X14128093Y19692999D01*
X14118004Y19681186D01*
X14016314Y19579496D01*
X13961797Y19551719D01*
X13946310Y19550500D01*
X11181356Y19550500D01*
X11092212Y19526614D01*
X11032876Y19492356D01*
X11012285Y19480468D01*
X9631311Y18099496D01*
X9576795Y18071719D01*
X9561308Y18070500D01*
X9272691Y18070500D01*
X9176567Y18055275D01*
X9176560Y18055273D01*
X9060708Y17996243D01*
X8968757Y17904292D01*
X8909726Y17788437D01*
X8909725Y17788435D01*
X8894500Y17692309D01*
X8894500Y17370886D01*
X8881236Y17321386D01*
X8873387Y17307793D01*
X8849500Y17218643D01*
X8849500Y16737040D01*
X8830593Y16678849D01*
X8805501Y16654724D01*
X8769400Y16630603D01*
X8769397Y16630600D01*
X8714035Y16547743D01*
X8714033Y16547737D01*
X8699501Y16474685D01*
X8699500Y16474673D01*
X8699500Y15925328D01*
X8699501Y15925316D01*
X8714033Y15852264D01*
X8714035Y15852257D01*
X8728907Y15830000D01*
X8745515Y15771112D01*
X8728907Y15720000D01*
X8714035Y15697744D01*
X8714033Y15697737D01*
X8699501Y15624685D01*
X8699500Y15624673D01*
X8699500Y15125347D01*
X8686237Y15075849D01*
X8660992Y15032122D01*
X8658186Y15027261D01*
X8658185Y15027260D01*
X8648387Y15010291D01*
X8648386Y15010289D01*
X8648386Y15010288D01*
X8624500Y14921144D01*
X8624500Y7553856D01*
X8644164Y7480469D01*
X8648386Y7464712D01*
X8694530Y7384788D01*
X8694532Y7384786D01*
X9126535Y6952782D01*
X9154312Y6898266D01*
X9144741Y6837834D01*
X9135788Y6823455D01*
X9131203Y6817330D01*
X9080910Y6682488D01*
X9080908Y6682477D01*
X9077230Y6648264D01*
X9074500Y6622872D01*
X9074500Y5527128D01*
X9077154Y5502445D01*
X9080908Y5467524D01*
X9080910Y5467513D01*
X9131202Y5332672D01*
X9158586Y5296092D01*
X9200417Y5240212D01*
X9205196Y5233829D01*
X9224933Y5175914D01*
X9206859Y5117459D01*
X9157877Y5080792D01*
X9125943Y5075500D01*
X9037399Y5075500D01*
X8956775Y5053897D01*
X8916463Y5043095D01*
X8808036Y4980495D01*
X8719505Y4891964D01*
X8656905Y4783537D01*
X8655551Y4778482D01*
X8624500Y4662601D01*
X8624500Y4537399D01*
X8656905Y4416464D01*
X8719505Y4308036D01*
X8808036Y4219505D01*
X8916464Y4156905D01*
X9037399Y4124500D01*
X9037401Y4124500D01*
X9162599Y4124500D01*
X9162601Y4124500D01*
X9283536Y4156905D01*
X9391964Y4219505D01*
X9480495Y4308036D01*
X9543095Y4416464D01*
X9575500Y4537399D01*
X9575500Y4662601D01*
X9543095Y4783536D01*
X9480495Y4891964D01*
X9466960Y4905499D01*
X9439185Y4960013D01*
X9448756Y5020445D01*
X9492021Y5063710D01*
X9536966Y5074500D01*
X11472869Y5074500D01*
X11472872Y5074500D01*
X11532482Y5080909D01*
X11630478Y5117459D01*
X11667328Y5131203D01*
X11667328Y5131204D01*
X11667330Y5131204D01*
X11782546Y5217454D01*
X11868796Y5332670D01*
X11868809Y5332703D01*
X11909982Y5443095D01*
X11919091Y5467518D01*
X11925500Y5527128D01*
X11925500Y6622872D01*
X11919091Y6682482D01*
X11911100Y6703907D01*
X11868797Y6817329D01*
X11782549Y6932542D01*
X11782548Y6932543D01*
X11782546Y6932546D01*
X11746953Y6959191D01*
X11667328Y7018798D01*
X11532487Y7069090D01*
X11532482Y7069091D01*
X11532480Y7069092D01*
X11532476Y7069092D01*
X11501248Y7072450D01*
X11472872Y7075500D01*
X11472869Y7075500D01*
X10036190Y7075500D01*
X9977999Y7094407D01*
X9966186Y7104496D01*
X9354496Y7716186D01*
X9326719Y7770703D01*
X9325500Y7786190D01*
X9325500Y8241293D01*
X9344407Y8299484D01*
X9393907Y8335448D01*
X9455093Y8335448D01*
X9459073Y8334059D01*
X9467518Y8330909D01*
X9527128Y8324500D01*
X9527131Y8324500D01*
X11472869Y8324500D01*
X11472872Y8324500D01*
X11532482Y8330909D01*
X11579304Y8348373D01*
X11667328Y8381203D01*
X11667328Y8381204D01*
X11667330Y8381204D01*
X11782546Y8467454D01*
X11868796Y8582670D01*
X11888267Y8634873D01*
X11919089Y8717513D01*
X11919088Y8717513D01*
X11919091Y8717518D01*
X11925500Y8777128D01*
X11925500Y9872872D01*
X11919091Y9932482D01*
X11919009Y9932701D01*
X11868796Y10067330D01*
X11864216Y10073448D01*
X11844477Y10131362D01*
X11862549Y10189817D01*
X11873457Y10202777D01*
X12180470Y10509788D01*
X12226614Y10589712D01*
X12230991Y10606047D01*
X12250500Y10678856D01*
X12250500Y10744687D01*
X12269407Y10802878D01*
X12293935Y10824440D01*
X12293109Y10825544D01*
X12343380Y10863177D01*
X12411116Y10913884D01*
X12495212Y11026222D01*
X12498594Y11035288D01*
X12536472Y11136844D01*
X12544251Y11157701D01*
X12550500Y11215826D01*
X12550500Y11784174D01*
X12544251Y11842299D01*
X12544248Y11842308D01*
X12495213Y11973777D01*
X12411119Y12086112D01*
X12411118Y12086113D01*
X12411116Y12086116D01*
X12377726Y12111112D01*
X12298776Y12170214D01*
X12167304Y12219250D01*
X12167299Y12219251D01*
X12167297Y12219252D01*
X12167293Y12219252D01*
X12141011Y12222078D01*
X12109174Y12225500D01*
X12109170Y12225500D01*
X11704315Y12225500D01*
X11646124Y12244407D01*
X11610160Y12293907D01*
X11610160Y12355093D01*
X11618575Y12373995D01*
X11643095Y12416464D01*
X11675500Y12537399D01*
X11675500Y12662601D01*
X11643095Y12783536D01*
X11580495Y12891964D01*
X11502873Y12969586D01*
X11475098Y13024100D01*
X11484669Y13084532D01*
X11493626Y13098916D01*
X11518736Y13132459D01*
X11570212Y13201222D01*
X11570617Y13202306D01*
X11608694Y13304397D01*
X11619251Y13332701D01*
X11625500Y13390826D01*
X11625500Y14084174D01*
X11619251Y14142299D01*
X11610188Y14166599D01*
X11570213Y14273777D01*
X11516908Y14344983D01*
X11487066Y14384847D01*
X11467330Y14442760D01*
X11485404Y14501214D01*
X11514347Y14528435D01*
X11598038Y14580057D01*
X11719946Y14701965D01*
X11810451Y14848694D01*
X11864681Y15012352D01*
X11875000Y15113345D01*
X11875000Y15212499D01*
X11874999Y15212500D01*
X10999000Y15212500D01*
X10940809Y15231407D01*
X10904845Y15280907D01*
X10900000Y15311500D01*
X10900000Y15462499D01*
X10899999Y15462500D01*
X10749000Y15462500D01*
X10690809Y15481407D01*
X10654845Y15530907D01*
X10650000Y15561500D01*
X10650000Y16499999D01*
X11150000Y16499999D01*
X11150000Y15712501D01*
X11150001Y15712500D01*
X11874998Y15712500D01*
X11874999Y15712501D01*
X11874999Y15811655D01*
X11864682Y15912643D01*
X11864679Y15912655D01*
X11810451Y16076307D01*
X11719946Y16223036D01*
X11598035Y16344947D01*
X11451306Y16435452D01*
X11287648Y16489682D01*
X11186655Y16500000D01*
X11150001Y16500000D01*
X11150000Y16499999D01*
X10650000Y16499999D01*
X10650000Y16500000D01*
X10613357Y16500000D01*
X10613351Y16499999D01*
X10512357Y16489683D01*
X10512345Y16489680D01*
X10348693Y16435452D01*
X10201964Y16344947D01*
X10201956Y16344941D01*
X10196349Y16339333D01*
X10141831Y16311558D01*
X10081399Y16321133D01*
X10056348Y16339334D01*
X9915212Y16480470D01*
X9835288Y16526614D01*
X9830094Y16528006D01*
X9820408Y16530602D01*
X9820408Y16530601D01*
X9746144Y16550500D01*
X9746142Y16550500D01*
X9737039Y16550500D01*
X9678848Y16569407D01*
X9667035Y16579497D01*
X9660140Y16586392D01*
X9630601Y16630601D01*
X9586394Y16660139D01*
X9579496Y16667037D01*
X9569818Y16686031D01*
X9556619Y16702774D01*
X9554099Y16716882D01*
X9551719Y16721554D01*
X9552445Y16726144D01*
X9550500Y16737040D01*
X9550500Y16830501D01*
X9569407Y16888692D01*
X9618907Y16924656D01*
X9649500Y16929501D01*
X9782308Y16929501D01*
X9805561Y16933184D01*
X9857498Y16941410D01*
X9917928Y16931839D01*
X9942987Y16913633D01*
X10039979Y16816641D01*
X10177132Y16733729D01*
X10177144Y16733724D01*
X10330152Y16686045D01*
X10330158Y16686043D01*
X10396654Y16680001D01*
X10396666Y16680000D01*
X10422499Y16680000D01*
X10422500Y16680001D01*
X10422500Y17249999D01*
X10922500Y17249999D01*
X10922500Y16680001D01*
X10922501Y16680000D01*
X10948334Y16680000D01*
X10948345Y16680001D01*
X11014841Y16686043D01*
X11014847Y16686045D01*
X11167855Y16733724D01*
X11167867Y16733729D01*
X11305020Y16816641D01*
X11418359Y16929980D01*
X11501271Y17067133D01*
X11501276Y17067145D01*
X11548956Y17220156D01*
X11551668Y17250000D01*
X10922501Y17250000D01*
X10922500Y17249999D01*
X10422500Y17249999D01*
X10422500Y17401000D01*
X10441407Y17459191D01*
X10490907Y17495155D01*
X10521500Y17500000D01*
X10672499Y17500000D01*
X10672500Y17500001D01*
X10672500Y17651000D01*
X10691407Y17709191D01*
X10740907Y17745155D01*
X10771500Y17750000D01*
X11551668Y17750000D01*
X11551668Y17750001D01*
X11548956Y17779845D01*
X11501276Y17932856D01*
X11501271Y17932868D01*
X11418359Y18070021D01*
X11305020Y18183360D01*
X11167867Y18266272D01*
X11167855Y18266277D01*
X11035709Y18307456D01*
X10985778Y18342819D01*
X10966169Y18400777D01*
X10984372Y18459192D01*
X10995159Y18471977D01*
X11343687Y18820504D01*
X11398203Y18848281D01*
X11413690Y18849500D01*
X14178642Y18849500D01*
X14178644Y18849500D01*
X14267788Y18873386D01*
X14276002Y18878129D01*
X14280109Y18880499D01*
X14300924Y18892517D01*
X14347712Y18919530D01*
X14513089Y19084907D01*
X14613687Y19185504D01*
X14620803Y19189130D01*
X14625499Y19195593D01*
X14647548Y19202758D01*
X14668203Y19213281D01*
X14683690Y19214500D01*
X14807311Y19214500D01*
X14865502Y19195593D01*
X14901466Y19146093D01*
X14901466Y19084907D01*
X14877314Y19045496D01*
X13931311Y18099496D01*
X13876795Y18071719D01*
X13861308Y18070500D01*
X13572691Y18070500D01*
X13476567Y18055275D01*
X13476560Y18055273D01*
X13360708Y17996243D01*
X13268757Y17904292D01*
X13209726Y17788437D01*
X13209725Y17788435D01*
X13194500Y17692309D01*
X13194500Y17370886D01*
X13181236Y17321386D01*
X13173387Y17307793D01*
X13149500Y17218643D01*
X13149500Y16812040D01*
X13130593Y16753849D01*
X13105501Y16729724D01*
X13069400Y16705603D01*
X13069397Y16705600D01*
X13014035Y16622743D01*
X13014033Y16622737D01*
X12999501Y16549685D01*
X12999500Y16549673D01*
X12999500Y16000328D01*
X12999501Y16000316D01*
X13014033Y15927264D01*
X13014035Y15927257D01*
X13028907Y15905000D01*
X13045515Y15846112D01*
X13028907Y15795000D01*
X13014035Y15772744D01*
X13014033Y15772737D01*
X12999501Y15699685D01*
X12999500Y15699673D01*
X12999500Y15211190D01*
X12980593Y15152999D01*
X12970504Y15141187D01*
X12819529Y14990212D01*
X12782812Y14926615D01*
X12782812Y14926614D01*
X12773387Y14910291D01*
X12773386Y14910289D01*
X12773386Y14910288D01*
X12769047Y14894092D01*
X12749500Y14821143D01*
X12749500Y13358855D01*
X12771663Y13276141D01*
X12771664Y13276138D01*
X12773386Y13269709D01*
X12773387Y13269707D01*
X12819530Y13189786D01*
X12819531Y13189784D01*
X12895503Y13113814D01*
X12923281Y13059298D01*
X12924500Y13043810D01*
X12924500Y7553856D01*
X12944164Y7480469D01*
X12948386Y7464712D01*
X12994530Y7384788D01*
X12994532Y7384786D01*
X13426535Y6952782D01*
X13454312Y6898266D01*
X13444741Y6837834D01*
X13435788Y6823455D01*
X13431203Y6817330D01*
X13380910Y6682488D01*
X13380908Y6682477D01*
X13377230Y6648264D01*
X13374500Y6622872D01*
X13374500Y5527128D01*
X13377154Y5502445D01*
X13380908Y5467524D01*
X13380910Y5467513D01*
X13431202Y5332672D01*
X13510597Y5226614D01*
X13517454Y5217454D01*
X13517457Y5217452D01*
X13517458Y5217451D01*
X13632671Y5131203D01*
X13767512Y5080911D01*
X13767513Y5080911D01*
X13767518Y5080909D01*
X13827128Y5074500D01*
X13827131Y5074500D01*
X15772869Y5074500D01*
X15772872Y5074500D01*
X15832482Y5080909D01*
X15930478Y5117459D01*
X15967328Y5131203D01*
X15967328Y5131204D01*
X15967330Y5131204D01*
X16082546Y5217454D01*
X16168796Y5332670D01*
X16168809Y5332703D01*
X16209982Y5443095D01*
X16219091Y5467518D01*
X16225500Y5527128D01*
X16225500Y6622872D01*
X16219091Y6682482D01*
X16211100Y6703907D01*
X16168797Y6817329D01*
X16082549Y6932542D01*
X16082548Y6932543D01*
X16082546Y6932546D01*
X16046953Y6959191D01*
X15967328Y7018798D01*
X15832487Y7069090D01*
X15832482Y7069091D01*
X15832480Y7069092D01*
X15832476Y7069092D01*
X15801248Y7072450D01*
X15772872Y7075500D01*
X15772869Y7075500D01*
X14336190Y7075500D01*
X14277999Y7094407D01*
X14266186Y7104496D01*
X13654496Y7716186D01*
X13626719Y7770703D01*
X13625500Y7786190D01*
X13625500Y8241293D01*
X13644407Y8299484D01*
X13693907Y8335448D01*
X13755093Y8335448D01*
X13759073Y8334059D01*
X13767518Y8330909D01*
X13827128Y8324500D01*
X13827131Y8324500D01*
X15772869Y8324500D01*
X15772872Y8324500D01*
X15832482Y8330909D01*
X15879304Y8348373D01*
X15967328Y8381203D01*
X15967328Y8381204D01*
X15967330Y8381204D01*
X16082546Y8467454D01*
X16168796Y8582670D01*
X16188267Y8634873D01*
X16219089Y8717513D01*
X16219088Y8717513D01*
X16219091Y8717518D01*
X16225500Y8777128D01*
X16225500Y9872872D01*
X16219091Y9932482D01*
X16219009Y9932701D01*
X16168796Y10067330D01*
X16164216Y10073448D01*
X16144477Y10131362D01*
X16162549Y10189817D01*
X16173457Y10202777D01*
X16480470Y10509788D01*
X16526614Y10589712D01*
X16530991Y10606047D01*
X16550500Y10678856D01*
X16550500Y10744687D01*
X16569407Y10802878D01*
X16593935Y10824440D01*
X16593109Y10825544D01*
X16643380Y10863177D01*
X16711116Y10913884D01*
X16795212Y11026222D01*
X16798594Y11035288D01*
X16836472Y11136844D01*
X16844251Y11157701D01*
X16850500Y11215826D01*
X16850500Y11784174D01*
X16844251Y11842299D01*
X16844248Y11842308D01*
X16795213Y11973777D01*
X16711119Y12086112D01*
X16711118Y12086113D01*
X16711116Y12086116D01*
X16677726Y12111112D01*
X16598776Y12170214D01*
X16467304Y12219250D01*
X16467299Y12219251D01*
X16467297Y12219252D01*
X16467293Y12219252D01*
X16441011Y12222078D01*
X16409174Y12225500D01*
X15740826Y12225500D01*
X15712823Y12222490D01*
X15682706Y12219252D01*
X15682695Y12219250D01*
X15634777Y12201377D01*
X15573648Y12198757D01*
X15522653Y12232569D01*
X15501272Y12289896D01*
X15514444Y12343634D01*
X15526614Y12364712D01*
X15532003Y12384828D01*
X15533977Y12392190D01*
X15550500Y12453857D01*
X15550500Y12890071D01*
X15569407Y12948262D01*
X15614904Y12982829D01*
X15673776Y13004787D01*
X15673776Y13004788D01*
X15673778Y13004788D01*
X15786116Y13088884D01*
X15870212Y13201222D01*
X15870617Y13202306D01*
X15908694Y13304397D01*
X15919251Y13332701D01*
X15925500Y13390826D01*
X15925500Y14084174D01*
X15919251Y14142299D01*
X15910188Y14166599D01*
X15870213Y14273777D01*
X15816908Y14344983D01*
X15787066Y14384847D01*
X15767330Y14442760D01*
X15785404Y14501214D01*
X15814347Y14528435D01*
X15898038Y14580057D01*
X16019946Y14701965D01*
X16110451Y14848694D01*
X16164681Y15012352D01*
X16175000Y15113345D01*
X16175000Y15212499D01*
X16174999Y15212500D01*
X15299000Y15212500D01*
X15240809Y15231407D01*
X15204845Y15280907D01*
X15200000Y15311500D01*
X15200000Y15462499D01*
X15199999Y15462500D01*
X15049000Y15462500D01*
X14990809Y15481407D01*
X14954845Y15530907D01*
X14950000Y15561500D01*
X14950000Y16499999D01*
X15450000Y16499999D01*
X15450000Y15712501D01*
X15450001Y15712500D01*
X16174998Y15712500D01*
X16174999Y15712501D01*
X16174999Y15811655D01*
X16164682Y15912643D01*
X16164679Y15912655D01*
X16110451Y16076307D01*
X16019946Y16223036D01*
X15898035Y16344947D01*
X15751306Y16435452D01*
X15587648Y16489682D01*
X15486655Y16500000D01*
X15450001Y16500000D01*
X15450000Y16499999D01*
X14950000Y16499999D01*
X14950000Y16500000D01*
X14913357Y16500000D01*
X14913351Y16499999D01*
X14812357Y16489683D01*
X14812345Y16489680D01*
X14648693Y16435452D01*
X14501964Y16344947D01*
X14501956Y16344941D01*
X14496349Y16339333D01*
X14441831Y16311558D01*
X14381399Y16321133D01*
X14356348Y16339334D01*
X14140212Y16555470D01*
X14140209Y16555472D01*
X14060291Y16601613D01*
X14060293Y16601613D01*
X14046364Y16605345D01*
X14022940Y16611622D01*
X13976624Y16639237D01*
X13970891Y16645301D01*
X13930601Y16705601D01*
X13885224Y16735920D01*
X13877558Y16744030D01*
X13868990Y16762081D01*
X13856619Y16777774D01*
X13853649Y16794404D01*
X13851323Y16799305D01*
X13852065Y16803272D01*
X13850500Y16812040D01*
X13850500Y16830501D01*
X13869407Y16888692D01*
X13918907Y16924656D01*
X13949500Y16929501D01*
X14082308Y16929501D01*
X14105561Y16933184D01*
X14157498Y16941410D01*
X14217928Y16931839D01*
X14242987Y16913633D01*
X14339979Y16816641D01*
X14477132Y16733729D01*
X14477144Y16733724D01*
X14630152Y16686045D01*
X14630158Y16686043D01*
X14696654Y16680001D01*
X14696666Y16680000D01*
X14722499Y16680000D01*
X14722500Y16680001D01*
X14722500Y17249999D01*
X15222500Y17249999D01*
X15222500Y16680001D01*
X15222501Y16680000D01*
X15248334Y16680000D01*
X15248345Y16680001D01*
X15314841Y16686043D01*
X15314847Y16686045D01*
X15467855Y16733724D01*
X15467867Y16733729D01*
X15605020Y16816641D01*
X15718359Y16929980D01*
X15801271Y17067133D01*
X15801276Y17067145D01*
X15848956Y17220156D01*
X15851668Y17250000D01*
X15222501Y17250000D01*
X15222500Y17249999D01*
X14722500Y17249999D01*
X14722500Y17401000D01*
X14741407Y17459191D01*
X14790907Y17495155D01*
X14821500Y17500000D01*
X14972499Y17500000D01*
X14972500Y17500001D01*
X14972500Y17651000D01*
X14991407Y17709191D01*
X15040907Y17745155D01*
X15071500Y17750000D01*
X15851668Y17750000D01*
X15851668Y17750001D01*
X15848956Y17779845D01*
X15801276Y17932856D01*
X15801271Y17932868D01*
X15718359Y18070021D01*
X15605020Y18183360D01*
X15467867Y18266272D01*
X15467855Y18266277D01*
X15335708Y18307456D01*
X15285777Y18342819D01*
X15266168Y18400777D01*
X15284371Y18459192D01*
X15295158Y18471977D01*
X15583686Y18760504D01*
X15638202Y18788281D01*
X15653689Y18789500D01*
X18649418Y18789500D01*
X18649420Y18789500D01*
X18738564Y18813386D01*
X18818488Y18859530D01*
X19452556Y19493599D01*
X19507071Y19521374D01*
X19567503Y19511803D01*
X19592558Y19493600D01*
X19610572Y19475586D01*
X19750712Y19373768D01*
X19905055Y19295127D01*
X19905057Y19295127D01*
X19905058Y19295126D01*
X19905061Y19295124D01*
X20069793Y19241599D01*
X20069797Y19241598D01*
X20240886Y19214500D01*
X20240889Y19214500D01*
X20414113Y19214500D01*
X20437278Y19218170D01*
X20489553Y19226449D01*
X20557948Y19237281D01*
X20585202Y19241598D01*
X20585206Y19241599D01*
X20749938Y19295124D01*
X20749940Y19295126D01*
X20749945Y19295127D01*
X20904288Y19373768D01*
X21044428Y19475586D01*
X21166914Y19598072D01*
X21268732Y19738212D01*
X21347373Y19892555D01*
X21347374Y19892560D01*
X21347376Y19892562D01*
X21400901Y20057294D01*
X21400902Y20057298D01*
X21428000Y20228386D01*
X21428000Y20401615D01*
X21400902Y20572703D01*
X21400901Y20572707D01*
X21347376Y20737439D01*
X21347374Y20737442D01*
X21347373Y20737443D01*
X21347373Y20737445D01*
X21268732Y20891788D01*
X21166914Y21031928D01*
X21044428Y21154414D01*
X20904288Y21256232D01*
X20904287Y21256233D01*
X20904285Y21256234D01*
X20749941Y21334875D01*
X20673611Y21359677D01*
X20624112Y21395641D01*
X20605205Y21453832D01*
X20624113Y21512023D01*
X20673613Y21547986D01*
X20845713Y21603904D01*
X21035052Y21700376D01*
X21206964Y21825278D01*
X21357222Y21975536D01*
X21482123Y22147448D01*
X21509290Y22200765D01*
X21552554Y22244029D01*
X21612986Y22253601D01*
X21667503Y22225824D01*
X21685710Y22200765D01*
X21712876Y22147448D01*
X21837777Y21975536D01*
X21988035Y21825278D01*
X22159947Y21700376D01*
X22349286Y21603904D01*
X22521386Y21547986D01*
X22570886Y21512022D01*
X22589794Y21453831D01*
X22570887Y21395641D01*
X22521388Y21359677D01*
X22445058Y21334875D01*
X22290714Y21256234D01*
X22150573Y21154415D01*
X22028085Y21031927D01*
X21926266Y20891786D01*
X21847625Y20737442D01*
X21847623Y20737439D01*
X21794098Y20572707D01*
X21794097Y20572703D01*
X21767000Y20401615D01*
X21767000Y20228386D01*
X21794097Y20057298D01*
X21794098Y20057294D01*
X21847623Y19892562D01*
X21847627Y19892553D01*
X21849315Y19889241D01*
X21858886Y19828809D01*
X21831109Y19774294D01*
X21126314Y19069497D01*
X21071797Y19041719D01*
X21056310Y19040500D01*
X20550996Y19040500D01*
X20507309Y19028795D01*
X20507295Y19028792D01*
X20461852Y19016615D01*
X20381929Y18970471D01*
X19935954Y18524496D01*
X19881438Y18496719D01*
X19865951Y18495500D01*
X18126356Y18495500D01*
X18049058Y18474788D01*
X18049057Y18474789D01*
X18039279Y18472168D01*
X18037212Y18471614D01*
X17957288Y18425470D01*
X17957285Y18425468D01*
X17631312Y18099496D01*
X17576796Y18071719D01*
X17561309Y18070500D01*
X17272691Y18070500D01*
X17176567Y18055275D01*
X17176560Y18055273D01*
X17060708Y17996243D01*
X16968757Y17904292D01*
X16909726Y17788437D01*
X16909725Y17788435D01*
X16894500Y17692309D01*
X16894500Y17307692D01*
X16909725Y17211568D01*
X16909727Y17211561D01*
X16968757Y17095709D01*
X16968759Y17095706D01*
X16982690Y17081775D01*
X17010466Y17027260D01*
X17000895Y16966828D01*
X16975518Y16938272D01*
X16976294Y16937496D01*
X16969397Y16930600D01*
X16914035Y16847743D01*
X16914033Y16847737D01*
X16899501Y16774685D01*
X16899500Y16774673D01*
X16899500Y16225328D01*
X16899501Y16225316D01*
X16914033Y16152264D01*
X16914035Y16152257D01*
X16928907Y16130000D01*
X16945515Y16071112D01*
X16928907Y16020000D01*
X16914035Y15997744D01*
X16914033Y15997737D01*
X16899501Y15924685D01*
X16899500Y15924673D01*
X16899500Y15125328D01*
X16899501Y15125316D01*
X16914033Y15052264D01*
X16914035Y15052258D01*
X16930911Y15027001D01*
X16969399Y14969399D01*
X17005501Y14945277D01*
X17043380Y14897230D01*
X17049500Y14862962D01*
X17049500Y14553856D01*
X17050006Y14551969D01*
X17066743Y14489502D01*
X17073386Y14464711D01*
X17073387Y14464709D01*
X17106515Y14407330D01*
X17119530Y14384788D01*
X17284194Y14220124D01*
X17420503Y14083816D01*
X17448281Y14029299D01*
X17449500Y14013812D01*
X17449500Y13554440D01*
X17430593Y13496249D01*
X17381093Y13460285D01*
X17324877Y13458813D01*
X17262601Y13475500D01*
X17137399Y13475500D01*
X17067768Y13456842D01*
X17016463Y13443095D01*
X16908036Y13380495D01*
X16819505Y13291964D01*
X16756905Y13183537D01*
X16746103Y13143225D01*
X16724500Y13062601D01*
X16724500Y12937399D01*
X16756905Y12816464D01*
X16819505Y12708036D01*
X16908036Y12619505D01*
X17016464Y12556905D01*
X17137399Y12524500D01*
X17137401Y12524500D01*
X17262602Y12524500D01*
X17262602Y12524501D01*
X17324876Y12541187D01*
X17385977Y12537986D01*
X17433528Y12499481D01*
X17449500Y12445561D01*
X17449500Y8124908D01*
X17430593Y8066717D01*
X17429754Y8065580D01*
X17356203Y7967329D01*
X17305911Y7832488D01*
X17305909Y7832477D01*
X17304622Y7820504D01*
X17299501Y7772872D01*
X17299501Y5827128D01*
X17300321Y5819505D01*
X17305909Y5767524D01*
X17305911Y5767513D01*
X17356203Y5632672D01*
X17409649Y5561277D01*
X17442455Y5517454D01*
X17442458Y5517452D01*
X17442459Y5517451D01*
X17557672Y5431203D01*
X17692513Y5380911D01*
X17692514Y5380911D01*
X17692519Y5380909D01*
X17752129Y5374500D01*
X17752132Y5374500D01*
X18847870Y5374500D01*
X18847873Y5374500D01*
X18907483Y5380909D01*
X18954305Y5398373D01*
X19042329Y5431203D01*
X19042329Y5431204D01*
X19042331Y5431204D01*
X19157547Y5517454D01*
X19243797Y5632670D01*
X19248390Y5644983D01*
X19290134Y5756906D01*
X19294092Y5767518D01*
X19300501Y5827128D01*
X19300501Y7772872D01*
X19294092Y7832482D01*
X19294090Y7832488D01*
X19243798Y7967329D01*
X19157550Y8082542D01*
X19157549Y8082543D01*
X19157547Y8082546D01*
X19144966Y8091964D01*
X19042329Y8168798D01*
X18907488Y8219090D01*
X18907483Y8219091D01*
X18907481Y8219092D01*
X18907477Y8219092D01*
X18876249Y8222450D01*
X18847873Y8225500D01*
X18847870Y8225500D01*
X18249500Y8225500D01*
X18191309Y8244407D01*
X18155345Y8293907D01*
X18150500Y8324500D01*
X18150500Y8890444D01*
X18169407Y8948635D01*
X18218907Y8984599D01*
X18280093Y8984599D01*
X18284088Y8983205D01*
X18357701Y8955749D01*
X18415826Y8949500D01*
X18863811Y8949500D01*
X18922002Y8930593D01*
X18933815Y8920504D01*
X20520505Y7333814D01*
X20548282Y7279297D01*
X20549501Y7263810D01*
X20549501Y5827128D01*
X20550321Y5819505D01*
X20555909Y5767524D01*
X20555911Y5767513D01*
X20606203Y5632672D01*
X20659649Y5561277D01*
X20692455Y5517454D01*
X20692458Y5517452D01*
X20692459Y5517451D01*
X20810945Y5428753D01*
X20846198Y5378745D01*
X20845324Y5317566D01*
X20808657Y5268584D01*
X20760048Y5253174D01*
X20760289Y5251347D01*
X20753858Y5250501D01*
X20715461Y5240213D01*
X20715461Y5240212D01*
X20691639Y5233829D01*
X20664711Y5226614D01*
X20584785Y5180468D01*
X20095400Y4691085D01*
X20074901Y4675355D01*
X20050066Y4661016D01*
X20050061Y4661012D01*
X19647977Y4258930D01*
X19633634Y4234087D01*
X19623242Y4220543D01*
X19623480Y4220361D01*
X19619533Y4215218D01*
X19573384Y4135285D01*
X19549501Y4046145D01*
X19549501Y4046144D01*
X19549501Y3953856D01*
X19567496Y3886693D01*
X19574575Y3860276D01*
X19577948Y3834654D01*
X19577948Y3521228D01*
X19595682Y3455043D01*
X19595682Y3455042D01*
X19601831Y3432089D01*
X19601832Y3432087D01*
X19601833Y3432084D01*
X19601834Y3432083D01*
X19647978Y3352159D01*
X19812328Y3187809D01*
X19948003Y3052135D01*
X19975781Y2997618D01*
X19977000Y2982131D01*
X19977000Y1110177D01*
X19969566Y1087298D01*
X19965364Y1063609D01*
X19960561Y1059584D01*
X19958093Y1051986D01*
X19921306Y1021151D01*
X19915129Y1018147D01*
X19905055Y1014873D01*
X19834517Y978933D01*
X19833644Y978508D01*
X19804190Y974400D01*
X19774849Y969753D01*
X19773994Y970189D01*
X19773046Y970056D01*
X19746859Y984015D01*
X19720334Y997530D01*
X19251265Y1466599D01*
X18737394Y1980470D01*
X18657470Y2026614D01*
X18568326Y2050500D01*
X18568324Y2050500D01*
X17986190Y2050500D01*
X17927999Y2069407D01*
X17916186Y2079496D01*
X17579496Y2416186D01*
X17551719Y2470703D01*
X17550500Y2486190D01*
X17550500Y4137034D01*
X17569407Y4195225D01*
X17579490Y4207032D01*
X17580495Y4208036D01*
X17643095Y4316464D01*
X17675500Y4437399D01*
X17675500Y4562601D01*
X17643095Y4683536D01*
X17580495Y4791964D01*
X17491964Y4880495D01*
X17383536Y4943095D01*
X17262601Y4975500D01*
X17137399Y4975500D01*
X17079602Y4960013D01*
X17016463Y4943095D01*
X16908036Y4880495D01*
X16819505Y4791964D01*
X16756905Y4683537D01*
X16748527Y4652271D01*
X16724500Y4562601D01*
X16724500Y4437399D01*
X16756905Y4316464D01*
X16819505Y4208036D01*
X16820505Y4207036D01*
X16820966Y4206132D01*
X16823456Y4202886D01*
X16822854Y4202425D01*
X16848281Y4152521D01*
X16849500Y4137034D01*
X16849500Y2253856D01*
X16873386Y2164712D01*
X16919530Y2084788D01*
X17584788Y1419530D01*
X17607901Y1406186D01*
X17637206Y1389266D01*
X17637211Y1389264D01*
X17664708Y1373388D01*
X17664709Y1373388D01*
X17664712Y1373386D01*
X17753856Y1349500D01*
X18335992Y1349500D01*
X18394183Y1330593D01*
X18405996Y1320504D01*
X19265078Y461422D01*
X19292855Y406905D01*
X19289229Y360826D01*
X19254097Y252701D01*
X19227000Y81615D01*
X19227000Y-91614D01*
X19254097Y-262702D01*
X19254098Y-262706D01*
X19307623Y-427438D01*
X19307625Y-427441D01*
X19383718Y-576785D01*
X19386268Y-581788D01*
X19488086Y-721928D01*
X19610572Y-844414D01*
X19750712Y-946232D01*
X19905055Y-1024873D01*
X19905057Y-1024873D01*
X19905058Y-1024874D01*
X19905061Y-1024876D01*
X20069793Y-1078401D01*
X20069797Y-1078402D01*
X20240886Y-1105500D01*
X20240889Y-1105500D01*
X20414114Y-1105500D01*
X20585202Y-1078402D01*
X20585206Y-1078401D01*
X20749938Y-1024876D01*
X20749940Y-1024874D01*
X20749945Y-1024873D01*
X20904288Y-946232D01*
X21044428Y-844414D01*
X21166914Y-721928D01*
X21268732Y-581788D01*
X21347373Y-427445D01*
X21347374Y-427440D01*
X21347376Y-427438D01*
X21400901Y-262706D01*
X21400902Y-262702D01*
X21428000Y-91614D01*
X21428000Y81615D01*
X21767000Y81615D01*
X21767000Y-91614D01*
X21794097Y-262702D01*
X21794098Y-262706D01*
X21847623Y-427438D01*
X21847625Y-427441D01*
X21923718Y-576785D01*
X21926268Y-581788D01*
X22028086Y-721928D01*
X22150572Y-844414D01*
X22290712Y-946232D01*
X22445055Y-1024873D01*
X22445057Y-1024873D01*
X22445058Y-1024874D01*
X22445061Y-1024876D01*
X22609793Y-1078401D01*
X22609797Y-1078402D01*
X22780886Y-1105500D01*
X22780889Y-1105500D01*
X22954114Y-1105500D01*
X23125202Y-1078402D01*
X23125206Y-1078401D01*
X23289938Y-1024876D01*
X23289940Y-1024874D01*
X23289945Y-1024873D01*
X23444288Y-946232D01*
X23584428Y-844414D01*
X23706914Y-721928D01*
X23808732Y-581788D01*
X23887373Y-427445D01*
X23887374Y-427440D01*
X23887376Y-427438D01*
X23940901Y-262706D01*
X23940902Y-262702D01*
X23968000Y-91614D01*
X23968000Y81615D01*
X24307000Y81615D01*
X24307000Y-91614D01*
X24334097Y-262702D01*
X24334098Y-262706D01*
X24387623Y-427438D01*
X24387625Y-427441D01*
X24463718Y-576785D01*
X24466268Y-581788D01*
X24568086Y-721928D01*
X24690572Y-844414D01*
X24830712Y-946232D01*
X24985055Y-1024873D01*
X24985057Y-1024873D01*
X24985058Y-1024874D01*
X24985061Y-1024876D01*
X25149793Y-1078401D01*
X25149797Y-1078402D01*
X25320886Y-1105500D01*
X25320889Y-1105500D01*
X25494114Y-1105500D01*
X25665202Y-1078402D01*
X25665206Y-1078401D01*
X25829938Y-1024876D01*
X25829940Y-1024874D01*
X25829945Y-1024873D01*
X25984288Y-946232D01*
X26124428Y-844414D01*
X26246914Y-721928D01*
X26348732Y-581788D01*
X26427373Y-427445D01*
X26427374Y-427440D01*
X26427376Y-427438D01*
X26480901Y-262706D01*
X26480902Y-262702D01*
X26508000Y-91614D01*
X26508000Y81615D01*
X26847000Y81615D01*
X26847000Y-91614D01*
X26874097Y-262702D01*
X26874098Y-262706D01*
X26927623Y-427438D01*
X26927625Y-427441D01*
X27003718Y-576785D01*
X27006268Y-581788D01*
X27108086Y-721928D01*
X27230572Y-844414D01*
X27370712Y-946232D01*
X27525055Y-1024873D01*
X27525057Y-1024873D01*
X27525058Y-1024874D01*
X27525061Y-1024876D01*
X27689793Y-1078401D01*
X27689797Y-1078402D01*
X27860886Y-1105500D01*
X27860889Y-1105500D01*
X28034114Y-1105500D01*
X28205202Y-1078402D01*
X28205206Y-1078401D01*
X28369938Y-1024876D01*
X28369940Y-1024874D01*
X28369945Y-1024873D01*
X28524288Y-946232D01*
X28664428Y-844414D01*
X28786914Y-721928D01*
X28888732Y-581788D01*
X28967373Y-427445D01*
X28967374Y-427440D01*
X28967376Y-427438D01*
X29020901Y-262706D01*
X29020902Y-262702D01*
X29048000Y-91614D01*
X29048000Y81615D01*
X29387000Y81615D01*
X29387000Y-91614D01*
X29414097Y-262702D01*
X29414098Y-262706D01*
X29467623Y-427438D01*
X29467625Y-427441D01*
X29543718Y-576785D01*
X29546268Y-581788D01*
X29648086Y-721928D01*
X29770572Y-844414D01*
X29910712Y-946232D01*
X30065055Y-1024873D01*
X30065057Y-1024873D01*
X30065058Y-1024874D01*
X30065061Y-1024876D01*
X30229793Y-1078401D01*
X30229797Y-1078402D01*
X30400886Y-1105500D01*
X30400889Y-1105500D01*
X30574114Y-1105500D01*
X30745202Y-1078402D01*
X30745206Y-1078401D01*
X30909938Y-1024876D01*
X30909940Y-1024874D01*
X30909945Y-1024873D01*
X31064288Y-946232D01*
X31204428Y-844414D01*
X31326914Y-721928D01*
X31428732Y-581788D01*
X31507373Y-427445D01*
X31507374Y-427440D01*
X31507376Y-427438D01*
X31560901Y-262706D01*
X31560902Y-262702D01*
X31588000Y-91614D01*
X31588000Y81615D01*
X31927000Y81615D01*
X31927000Y-91614D01*
X31954097Y-262702D01*
X31954098Y-262706D01*
X32007623Y-427438D01*
X32007625Y-427441D01*
X32083718Y-576785D01*
X32086268Y-581788D01*
X32188086Y-721928D01*
X32310572Y-844414D01*
X32450712Y-946232D01*
X32605055Y-1024873D01*
X32605057Y-1024873D01*
X32605058Y-1024874D01*
X32605061Y-1024876D01*
X32769793Y-1078401D01*
X32769797Y-1078402D01*
X32940886Y-1105500D01*
X32940889Y-1105500D01*
X33114114Y-1105500D01*
X33285202Y-1078402D01*
X33285206Y-1078401D01*
X33449938Y-1024876D01*
X33449940Y-1024874D01*
X33449945Y-1024873D01*
X33604288Y-946232D01*
X33744428Y-844414D01*
X33866914Y-721928D01*
X33968732Y-581788D01*
X34047373Y-427445D01*
X34047374Y-427440D01*
X34047376Y-427438D01*
X34100901Y-262706D01*
X34100902Y-262702D01*
X34128000Y-91614D01*
X34128000Y81615D01*
X34100902Y252703D01*
X34100901Y252707D01*
X34047376Y417439D01*
X34047374Y417442D01*
X34047373Y417443D01*
X34047373Y417445D01*
X33968732Y571788D01*
X33866914Y711928D01*
X33744428Y834414D01*
X33604288Y936232D01*
X33604287Y936233D01*
X33604285Y936234D01*
X33449941Y1014875D01*
X33449938Y1014877D01*
X33285206Y1068402D01*
X33285202Y1068403D01*
X33114114Y1095500D01*
X33114111Y1095500D01*
X32940889Y1095500D01*
X32940886Y1095500D01*
X32769797Y1068403D01*
X32769793Y1068402D01*
X32605061Y1014877D01*
X32605058Y1014875D01*
X32450714Y936234D01*
X32310573Y834415D01*
X32188085Y711927D01*
X32086266Y571786D01*
X32007625Y417442D01*
X32007623Y417439D01*
X31954098Y252707D01*
X31954097Y252703D01*
X31927000Y81615D01*
X31588000Y81615D01*
X31560902Y252703D01*
X31560901Y252707D01*
X31507376Y417439D01*
X31507374Y417442D01*
X31507373Y417443D01*
X31507373Y417445D01*
X31428732Y571788D01*
X31326914Y711928D01*
X31204428Y834414D01*
X31064288Y936232D01*
X31064287Y936233D01*
X31064285Y936234D01*
X30909941Y1014875D01*
X30909938Y1014877D01*
X30745206Y1068402D01*
X30745202Y1068403D01*
X30574114Y1095500D01*
X30574111Y1095500D01*
X30400889Y1095500D01*
X30400886Y1095500D01*
X30229797Y1068403D01*
X30229793Y1068402D01*
X30065061Y1014877D01*
X30065058Y1014875D01*
X29910714Y936234D01*
X29770573Y834415D01*
X29648085Y711927D01*
X29546266Y571786D01*
X29467625Y417442D01*
X29467623Y417439D01*
X29414098Y252707D01*
X29414097Y252703D01*
X29387000Y81615D01*
X29048000Y81615D01*
X29020902Y252703D01*
X29020901Y252707D01*
X28967376Y417439D01*
X28967374Y417442D01*
X28967373Y417443D01*
X28967373Y417445D01*
X28888732Y571788D01*
X28786914Y711928D01*
X28664428Y834414D01*
X28524288Y936232D01*
X28524287Y936233D01*
X28524285Y936234D01*
X28369941Y1014875D01*
X28369938Y1014877D01*
X28205206Y1068402D01*
X28205202Y1068403D01*
X28034114Y1095500D01*
X28034111Y1095500D01*
X27860889Y1095500D01*
X27860886Y1095500D01*
X27689797Y1068403D01*
X27689793Y1068402D01*
X27525061Y1014877D01*
X27525058Y1014875D01*
X27370714Y936234D01*
X27230573Y834415D01*
X27108085Y711927D01*
X27006266Y571786D01*
X26927625Y417442D01*
X26927623Y417439D01*
X26874098Y252707D01*
X26874097Y252703D01*
X26847000Y81615D01*
X26508000Y81615D01*
X26480902Y252703D01*
X26480901Y252707D01*
X26427376Y417439D01*
X26427374Y417442D01*
X26427373Y417443D01*
X26427373Y417445D01*
X26348732Y571788D01*
X26246914Y711928D01*
X26124428Y834414D01*
X25984288Y936232D01*
X25984287Y936233D01*
X25984285Y936234D01*
X25829941Y1014875D01*
X25829938Y1014877D01*
X25665206Y1068402D01*
X25665202Y1068403D01*
X25494114Y1095500D01*
X25494111Y1095500D01*
X25320889Y1095500D01*
X25320886Y1095500D01*
X25149797Y1068403D01*
X25149793Y1068402D01*
X24985061Y1014877D01*
X24985058Y1014875D01*
X24830714Y936234D01*
X24690573Y834415D01*
X24568085Y711927D01*
X24466266Y571786D01*
X24387625Y417442D01*
X24387623Y417439D01*
X24334098Y252707D01*
X24334097Y252703D01*
X24307000Y81615D01*
X23968000Y81615D01*
X23940902Y252703D01*
X23940901Y252707D01*
X23887376Y417439D01*
X23887374Y417442D01*
X23887373Y417443D01*
X23887373Y417445D01*
X23808732Y571788D01*
X23706914Y711928D01*
X23584428Y834414D01*
X23444288Y936232D01*
X23444287Y936233D01*
X23444285Y936234D01*
X23289941Y1014875D01*
X23289938Y1014877D01*
X23125206Y1068402D01*
X23125202Y1068403D01*
X22954114Y1095500D01*
X22954111Y1095500D01*
X22780889Y1095500D01*
X22780886Y1095500D01*
X22609797Y1068403D01*
X22609793Y1068402D01*
X22445061Y1014877D01*
X22445058Y1014875D01*
X22290714Y936234D01*
X22150573Y834415D01*
X22028085Y711927D01*
X21926266Y571786D01*
X21847625Y417442D01*
X21847623Y417439D01*
X21794098Y252707D01*
X21794097Y252703D01*
X21767000Y81615D01*
X21428000Y81615D01*
X21400902Y252703D01*
X21400901Y252707D01*
X21347376Y417439D01*
X21347374Y417442D01*
X21347373Y417443D01*
X21347373Y417445D01*
X21268732Y571788D01*
X21166914Y711928D01*
X21044428Y834414D01*
X20904288Y936232D01*
X20904287Y936233D01*
X20904285Y936234D01*
X20749946Y1014873D01*
X20747937Y1015526D01*
X20746404Y1016024D01*
X20696906Y1051989D01*
X20678000Y1110177D01*
X20678000Y3276689D01*
X20677153Y3283122D01*
X20679508Y3283433D01*
X20682158Y3334174D01*
X20720654Y3381732D01*
X20725055Y3384430D01*
X20795412Y3425049D01*
X20883943Y3513580D01*
X20946543Y3622008D01*
X20978948Y3742943D01*
X20978948Y3744354D01*
X20979260Y3745316D01*
X20979795Y3749376D01*
X20980547Y3749277D01*
X20997855Y3802545D01*
X21007944Y3814358D01*
X21214090Y4020504D01*
X21268607Y4048281D01*
X21284094Y4049500D01*
X21493761Y4049500D01*
X21551952Y4030593D01*
X21587916Y3981093D01*
X21589388Y3924878D01*
X21588514Y3921614D01*
X21586482Y3914032D01*
X21586482Y3788830D01*
X21618887Y3667895D01*
X21681487Y3559467D01*
X21770018Y3470936D01*
X21878446Y3408336D01*
X21999381Y3375931D01*
X22000792Y3375931D01*
X22001755Y3375619D01*
X22005814Y3375084D01*
X22005715Y3374334D01*
X22058931Y3357061D01*
X22065267Y3352464D01*
X22098201Y3319530D01*
X22154715Y3286902D01*
X22159182Y3284323D01*
X22178121Y3273388D01*
X22178122Y3273388D01*
X22178125Y3273386D01*
X22267269Y3249500D01*
X22780682Y3249500D01*
X22838873Y3230593D01*
X22863625Y3201611D01*
X22864177Y3202012D01*
X22868755Y3195711D01*
X22868757Y3195709D01*
X22868759Y3195706D01*
X22960706Y3103759D01*
X23076567Y3044725D01*
X23172693Y3029500D01*
X23632306Y3029501D01*
X23632308Y3029501D01*
X23652948Y3032771D01*
X23728433Y3044725D01*
X23844294Y3103759D01*
X23929998Y3189464D01*
X23984513Y3217239D01*
X24044945Y3207668D01*
X24070000Y3189465D01*
X24155706Y3103759D01*
X24271567Y3044725D01*
X24367693Y3029500D01*
X24827306Y3029501D01*
X24827308Y3029501D01*
X24847948Y3032771D01*
X24923433Y3044725D01*
X25039294Y3103759D01*
X25128779Y3193245D01*
X25183293Y3221021D01*
X25243726Y3211450D01*
X25273827Y3187809D01*
X25282130Y3178159D01*
X25296924Y3147898D01*
X25377445Y3067377D01*
X25379861Y3064569D01*
X25390308Y3039603D01*
X25402596Y3015487D01*
X25401993Y3011682D01*
X25403481Y3008126D01*
X25397258Y2981787D01*
X25393025Y2955055D01*
X25389940Y2950810D01*
X25389414Y2948580D01*
X25386497Y2946071D01*
X25374821Y2930000D01*
X25329918Y2885096D01*
X25296923Y2852101D01*
X25262634Y2781962D01*
X25240418Y2736518D01*
X25229500Y2661582D01*
X25229500Y2318418D01*
X25240418Y2243482D01*
X25296924Y2127898D01*
X25387898Y2036924D01*
X25503482Y1980418D01*
X25578418Y1969500D01*
X25578421Y1969500D01*
X26021578Y1969500D01*
X26021582Y1969500D01*
X26096518Y1980418D01*
X26212102Y2036924D01*
X26254674Y2079496D01*
X26270683Y2095504D01*
X26325200Y2123281D01*
X26340686Y2124500D01*
X28935457Y2124500D01*
X28935459Y2124500D01*
X29024603Y2148386D01*
X29034079Y2153857D01*
X29054842Y2165846D01*
X29114689Y2178568D01*
X29149289Y2168320D01*
X29186510Y2149354D01*
X29280295Y2134500D01*
X29643332Y2134501D01*
X29643334Y2134501D01*
X29643335Y2134502D01*
X29690225Y2141928D01*
X29737113Y2149353D01*
X29737113Y2149354D01*
X29737118Y2149354D01*
X29850156Y2206950D01*
X29866812Y2223607D01*
X29921327Y2251382D01*
X29981759Y2241811D01*
X30006814Y2223608D01*
X30023472Y2206950D01*
X30136510Y2149354D01*
X30230295Y2134500D01*
X30593332Y2134501D01*
X30593334Y2134501D01*
X30593335Y2134502D01*
X30640225Y2141928D01*
X30687113Y2149353D01*
X30687113Y2149354D01*
X30687118Y2149354D01*
X30800156Y2206950D01*
X30816812Y2223607D01*
X30871327Y2251382D01*
X30931759Y2241811D01*
X30956814Y2223608D01*
X30973472Y2206950D01*
X31086510Y2149354D01*
X31180295Y2134500D01*
X31543332Y2134501D01*
X31543334Y2134501D01*
X31543335Y2134502D01*
X31590225Y2141928D01*
X31637113Y2149353D01*
X31637113Y2149354D01*
X31637118Y2149354D01*
X31750156Y2206950D01*
X31839864Y2296658D01*
X31897460Y2409696D01*
X31912314Y2503481D01*
X31912314Y2598000D01*
X31931221Y2656191D01*
X31980721Y2692155D01*
X32011314Y2697000D01*
X32730181Y2697000D01*
X32788372Y2678093D01*
X32809432Y2657331D01*
X32813884Y2651384D01*
X32813887Y2651382D01*
X32813888Y2651381D01*
X32926223Y2567287D01*
X33057695Y2518251D01*
X33057696Y2518251D01*
X33057701Y2518249D01*
X33115826Y2512000D01*
X33115830Y2512000D01*
X33684170Y2512000D01*
X33684174Y2512000D01*
X33742299Y2518249D01*
X33851970Y2559154D01*
X33873776Y2567287D01*
X33873776Y2567288D01*
X33873778Y2567288D01*
X33986116Y2651384D01*
X34070212Y2763722D01*
X34076705Y2781129D01*
X34115482Y2885096D01*
X34133244Y2907464D01*
X34150049Y2930593D01*
X34152155Y2931278D01*
X34153532Y2933011D01*
X34208240Y2949500D01*
X34259815Y2949500D01*
X34318006Y2930593D01*
X34353970Y2881093D01*
X34358815Y2850500D01*
X34358815Y2739630D01*
X34365222Y2680020D01*
X34365223Y2680015D01*
X34415516Y2545171D01*
X34490368Y2445182D01*
X34501768Y2429954D01*
X34501771Y2429952D01*
X34501772Y2429951D01*
X34616984Y2343703D01*
X34751825Y2293411D01*
X34751826Y2293411D01*
X34751831Y2293409D01*
X34811441Y2287000D01*
X35857186Y2287001D01*
X35916797Y2293409D01*
X35984221Y2318557D01*
X36051643Y2343703D01*
X36051643Y2343704D01*
X36051645Y2343704D01*
X36166860Y2429954D01*
X36253110Y2545169D01*
X36255099Y2550500D01*
X36303403Y2680012D01*
X36303404Y2680015D01*
X36303405Y2680017D01*
X36309814Y2739627D01*
X36309813Y3191402D01*
X36328720Y3249592D01*
X36378220Y3285556D01*
X36408813Y3290401D01*
X36687043Y3290401D01*
X36687045Y3290401D01*
X36776189Y3314287D01*
X36856113Y3360432D01*
X36864066Y3368387D01*
X36879068Y3380698D01*
X36892278Y3389524D01*
X37040156Y3537402D01*
X37089509Y3586754D01*
X37144025Y3614531D01*
X37159512Y3615750D01*
X37171349Y3615750D01*
X37171351Y3615750D01*
X37292286Y3648155D01*
X37376003Y3696489D01*
X37435848Y3709209D01*
X37491744Y3684322D01*
X37522337Y3631334D01*
X37524500Y3610751D01*
X37524500Y3537399D01*
X37556905Y3416464D01*
X37619505Y3308036D01*
X37708036Y3219505D01*
X37816464Y3156905D01*
X37937399Y3124500D01*
X37937401Y3124500D01*
X38062599Y3124500D01*
X38062601Y3124500D01*
X38183536Y3156905D01*
X38291964Y3219505D01*
X38380495Y3308036D01*
X38443095Y3416464D01*
X38475500Y3537399D01*
X38475500Y3662601D01*
X38443095Y3783536D01*
X38383536Y3886697D01*
X38370816Y3946542D01*
X38395703Y4002437D01*
X38438680Y4030347D01*
X38514945Y4055127D01*
X38669288Y4133768D01*
X38809428Y4235586D01*
X38931914Y4358072D01*
X39033732Y4498212D01*
X39112373Y4652555D01*
X39112374Y4652560D01*
X39112376Y4652562D01*
X39165901Y4817294D01*
X39165902Y4817298D01*
X39193000Y4988386D01*
X39193000Y5161615D01*
X39165902Y5332703D01*
X39165901Y5332707D01*
X39112376Y5497439D01*
X39112374Y5497442D01*
X39112373Y5497443D01*
X39112373Y5497445D01*
X39033732Y5651788D01*
X38931914Y5791928D01*
X38809428Y5914414D01*
X38669288Y6016232D01*
X38669287Y6016233D01*
X38669285Y6016234D01*
X38514941Y6094875D01*
X38514938Y6094877D01*
X38350206Y6148402D01*
X38350202Y6148403D01*
X38179114Y6175500D01*
X38179111Y6175500D01*
X38005889Y6175500D01*
X38005886Y6175500D01*
X37834797Y6148403D01*
X37834793Y6148402D01*
X37670061Y6094877D01*
X37670058Y6094875D01*
X37515714Y6016234D01*
X37375573Y5914415D01*
X37253085Y5791927D01*
X37151266Y5651786D01*
X37072625Y5497442D01*
X37072623Y5497439D01*
X37019098Y5332707D01*
X37019097Y5332703D01*
X36992000Y5161615D01*
X36992000Y4988386D01*
X37019097Y4817302D01*
X37063915Y4679367D01*
X37063915Y4618181D01*
X37027951Y4568681D01*
X36995384Y4553148D01*
X36925217Y4534347D01*
X36925216Y4534346D01*
X36925214Y4534346D01*
X36925214Y4534345D01*
X36816786Y4471745D01*
X36728255Y4383214D01*
X36672485Y4286615D01*
X36665654Y4274784D01*
X36665653Y4274783D01*
X36633582Y4155095D01*
X36607960Y4110716D01*
X36517643Y4020398D01*
X36463127Y3992620D01*
X36447639Y3991401D01*
X35804071Y3991401D01*
X35726392Y3970587D01*
X35726390Y3970587D01*
X35710662Y3966373D01*
X35685041Y3963000D01*
X34811447Y3963000D01*
X34811443Y3963000D01*
X34811442Y3962999D01*
X34804263Y3962228D01*
X34751833Y3956592D01*
X34751828Y3956591D01*
X34616984Y3906298D01*
X34501772Y3820050D01*
X34501764Y3820042D01*
X34415517Y3704831D01*
X34413999Y3702050D01*
X34412077Y3700236D01*
X34411274Y3699162D01*
X34411088Y3699302D01*
X34398131Y3687066D01*
X34385302Y3669407D01*
X34376354Y3666500D01*
X34369515Y3660041D01*
X34327111Y3650500D01*
X34208240Y3650500D01*
X34150049Y3669407D01*
X34115482Y3714904D01*
X34070213Y3836277D01*
X33986119Y3948612D01*
X33986118Y3948613D01*
X33986116Y3948616D01*
X33986111Y3948620D01*
X33873776Y4032714D01*
X33774496Y4069742D01*
X33726581Y4107792D01*
X33710183Y4166739D01*
X33731564Y4224067D01*
X33774496Y4255258D01*
X33784339Y4258929D01*
X33826853Y4274786D01*
X33873776Y4292287D01*
X33873776Y4292288D01*
X33873778Y4292288D01*
X33986116Y4376384D01*
X34070212Y4488722D01*
X34070724Y4490093D01*
X34115482Y4610096D01*
X34133244Y4632464D01*
X34150049Y4655593D01*
X34152155Y4656278D01*
X34153532Y4658011D01*
X34208240Y4674500D01*
X34327111Y4674500D01*
X34385302Y4655593D01*
X34413999Y4622950D01*
X34415517Y4620170D01*
X34489393Y4521484D01*
X34501768Y4504954D01*
X34501771Y4504952D01*
X34501772Y4504951D01*
X34616984Y4418703D01*
X34751825Y4368411D01*
X34751826Y4368411D01*
X34751831Y4368409D01*
X34811441Y4362000D01*
X35857186Y4362001D01*
X35916797Y4368409D01*
X36026968Y4409500D01*
X36051643Y4418703D01*
X36051643Y4418704D01*
X36051645Y4418704D01*
X36166860Y4504954D01*
X36253110Y4620169D01*
X36259245Y4636616D01*
X36303403Y4755012D01*
X36303402Y4755012D01*
X36303405Y4755017D01*
X36309814Y4814627D01*
X36309813Y5585372D01*
X36303405Y5644983D01*
X36295683Y5665687D01*
X36253111Y5779830D01*
X36166863Y5895042D01*
X36166862Y5895043D01*
X36166860Y5895046D01*
X36149508Y5908036D01*
X36051643Y5981298D01*
X35916802Y6031590D01*
X35916797Y6031591D01*
X35916795Y6031592D01*
X35916791Y6031592D01*
X35885563Y6034950D01*
X35857187Y6038000D01*
X35857184Y6038000D01*
X35033004Y6038000D01*
X35025406Y6040469D01*
X35017517Y6039219D01*
X34996861Y6049744D01*
X34974813Y6056907D01*
X34963000Y6066996D01*
X34953000Y6076996D01*
X34925223Y6131513D01*
X34934794Y6191945D01*
X34978059Y6235210D01*
X35023004Y6246000D01*
X35053999Y6246000D01*
X35054000Y6246001D01*
X35054000Y6749999D01*
X35554000Y6749999D01*
X35554000Y6246001D01*
X35554001Y6246000D01*
X35601824Y6246000D01*
X35661370Y6252402D01*
X35661381Y6252404D01*
X35796088Y6302647D01*
X35796090Y6302648D01*
X35911184Y6388808D01*
X35911192Y6388816D01*
X35997352Y6503910D01*
X35997353Y6503912D01*
X36047596Y6638619D01*
X36047598Y6638630D01*
X36054000Y6698176D01*
X36054000Y6749999D01*
X36053999Y6750000D01*
X35554001Y6750000D01*
X35554000Y6749999D01*
X35054000Y6749999D01*
X35054000Y6901000D01*
X35072907Y6959191D01*
X35122407Y6995155D01*
X35153000Y7000000D01*
X35303999Y7000000D01*
X35304000Y7000001D01*
X35304000Y7151000D01*
X35322907Y7209191D01*
X35372407Y7245155D01*
X35403000Y7250000D01*
X36053999Y7250000D01*
X36054000Y7250001D01*
X36054000Y7301825D01*
X36047598Y7361371D01*
X36047596Y7361382D01*
X35997353Y7496089D01*
X35997352Y7496091D01*
X35911192Y7611185D01*
X35911184Y7611193D01*
X35830963Y7671247D01*
X35795710Y7721256D01*
X35796584Y7782435D01*
X35833252Y7831416D01*
X35890292Y7849500D01*
X36899509Y7849500D01*
X36957700Y7830593D01*
X36993664Y7781093D01*
X36997290Y7735013D01*
X36992000Y7701614D01*
X36992000Y7528386D01*
X37019097Y7357298D01*
X37019098Y7357294D01*
X37072623Y7192562D01*
X37072625Y7192559D01*
X37135534Y7069091D01*
X37151268Y7038212D01*
X37253086Y6898072D01*
X37375572Y6775586D01*
X37515712Y6673768D01*
X37670055Y6595127D01*
X37670057Y6595127D01*
X37670058Y6595126D01*
X37670061Y6595124D01*
X37834793Y6541599D01*
X37834797Y6541598D01*
X38005886Y6514500D01*
X38005889Y6514500D01*
X38179114Y6514500D01*
X38350202Y6541598D01*
X38350206Y6541599D01*
X38514938Y6595124D01*
X38514940Y6595126D01*
X38514945Y6595127D01*
X38669288Y6673768D01*
X38809428Y6775586D01*
X38931914Y6898072D01*
X39033732Y7038212D01*
X39112373Y7192555D01*
X39112374Y7192560D01*
X39112376Y7192562D01*
X39165901Y7357294D01*
X39165902Y7357298D01*
X39193000Y7528386D01*
X39193000Y7701615D01*
X39165902Y7872703D01*
X39165901Y7872707D01*
X39112374Y8037444D01*
X39033733Y8191786D01*
X39033732Y8191788D01*
X38931914Y8331928D01*
X38809428Y8454414D01*
X38669288Y8556232D01*
X38669287Y8556233D01*
X38669285Y8556234D01*
X38514941Y8634875D01*
X38514938Y8634877D01*
X38350206Y8688402D01*
X38350202Y8688403D01*
X38179114Y8715500D01*
X38179111Y8715500D01*
X38005889Y8715500D01*
X38005886Y8715500D01*
X37834797Y8688403D01*
X37834793Y8688402D01*
X37670061Y8634877D01*
X37670058Y8634875D01*
X37525639Y8561290D01*
X37480694Y8550500D01*
X33853855Y8550500D01*
X33764711Y8526614D01*
X33764710Y8526614D01*
X33764708Y8526613D01*
X33684788Y8480471D01*
X33684786Y8480469D01*
X33237200Y8032884D01*
X33182684Y8005107D01*
X33122252Y8014678D01*
X33078987Y8057943D01*
X33071572Y8077259D01*
X33043095Y8183536D01*
X32980495Y8291964D01*
X32891964Y8380495D01*
X32783536Y8443095D01*
X32662601Y8475500D01*
X32537399Y8475500D01*
X32458710Y8454415D01*
X32416463Y8443095D01*
X32308036Y8380495D01*
X32219505Y8291964D01*
X32156905Y8183537D01*
X32146440Y8144479D01*
X32124500Y8062601D01*
X32124500Y7937399D01*
X32129579Y7918444D01*
X32141187Y7875123D01*
X32137984Y7814022D01*
X32099479Y7766472D01*
X32045560Y7750500D01*
X31121326Y7750500D01*
X31121325Y7750500D01*
X31121315Y7750499D01*
X31048263Y7735967D01*
X31048257Y7735965D01*
X30965400Y7680603D01*
X30965397Y7680600D01*
X30910035Y7597743D01*
X30910033Y7597737D01*
X30895501Y7524685D01*
X30895500Y7524673D01*
X30895500Y6523503D01*
X30876593Y6465312D01*
X30827093Y6429348D01*
X30765907Y6429348D01*
X30726497Y6453499D01*
X30614527Y6565468D01*
X30614525Y6565470D01*
X30534601Y6611614D01*
X30445457Y6635500D01*
X29142730Y6635500D01*
X29084539Y6654407D01*
X29048575Y6703907D01*
X29048575Y6765093D01*
X29084539Y6814593D01*
X29091197Y6818917D01*
X29091957Y6819500D01*
X29091959Y6819503D01*
X29091964Y6819505D01*
X29180495Y6908036D01*
X29243095Y7016464D01*
X29275500Y7137399D01*
X29275500Y7262601D01*
X29243095Y7383536D01*
X29180495Y7491964D01*
X29091964Y7580495D01*
X28983536Y7643095D01*
X28862601Y7675500D01*
X28737399Y7675500D01*
X28662871Y7655530D01*
X28616463Y7643095D01*
X28508036Y7580495D01*
X28419505Y7491964D01*
X28356905Y7383537D01*
X28356905Y7383536D01*
X28324500Y7262601D01*
X28324500Y7137399D01*
X28356905Y7016464D01*
X28419505Y6908036D01*
X28508036Y6819505D01*
X28508038Y6819504D01*
X28508042Y6819500D01*
X28513182Y6815556D01*
X28512170Y6814238D01*
X28547710Y6774770D01*
X28554107Y6713920D01*
X28523517Y6660931D01*
X28467622Y6636043D01*
X28457270Y6635500D01*
X28401356Y6635500D01*
X28312212Y6611614D01*
X28262766Y6583066D01*
X28232285Y6565468D01*
X27971313Y6304496D01*
X27916797Y6276719D01*
X27901310Y6275500D01*
X27077133Y6275500D01*
X27077129Y6275500D01*
X27077128Y6275499D01*
X27069949Y6274728D01*
X27017519Y6269092D01*
X27017514Y6269091D01*
X26882670Y6218798D01*
X26812213Y6166053D01*
X26754298Y6146316D01*
X26695843Y6164390D01*
X26682880Y6175303D01*
X26304113Y6554071D01*
X26276336Y6608587D01*
X26275117Y6624074D01*
X26275117Y7021089D01*
X26272751Y7043095D01*
X26268868Y7079217D01*
X26265874Y7087244D01*
X26219830Y7210695D01*
X26135736Y7323030D01*
X26135735Y7323031D01*
X26135733Y7323034D01*
X26121333Y7333814D01*
X26023393Y7407132D01*
X25891921Y7456168D01*
X25891916Y7456169D01*
X25891914Y7456170D01*
X25891910Y7456170D01*
X25865628Y7458996D01*
X25833791Y7462418D01*
X25265443Y7462418D01*
X25237440Y7459408D01*
X25207323Y7456170D01*
X25207312Y7456168D01*
X25075840Y7407132D01*
X24963505Y7323038D01*
X24963497Y7323030D01*
X24879403Y7210695D01*
X24830367Y7079223D01*
X24830365Y7079212D01*
X24824117Y7021089D01*
X24824117Y6548072D01*
X24805210Y6489881D01*
X24755710Y6453917D01*
X24694524Y6453917D01*
X24655113Y6478068D01*
X24254496Y6878685D01*
X24226719Y6933202D01*
X24225500Y6948689D01*
X24225500Y10343274D01*
X24244407Y10401465D01*
X24254496Y10413278D01*
X24557786Y10716568D01*
X24896022Y11054803D01*
X24937410Y11116745D01*
X24956853Y11214486D01*
X24937410Y11312227D01*
X24896022Y11374169D01*
X23128716Y13141475D01*
X23066774Y13182863D01*
X22969033Y13202306D01*
X22969032Y13202306D01*
X22934844Y13195505D01*
X22871292Y13182863D01*
X22871291Y13182863D01*
X22868815Y13182370D01*
X22808053Y13189561D01*
X22763123Y13231094D01*
X22750500Y13279468D01*
X22750500Y14973931D01*
X22769407Y15032122D01*
X22794499Y15056247D01*
X22806852Y15064501D01*
X22814669Y15069724D01*
X22905276Y15160331D01*
X22976465Y15266873D01*
X23025501Y15385256D01*
X23050500Y15510931D01*
X23050500Y15639069D01*
X23025501Y15764744D01*
X22976465Y15883127D01*
X22976463Y15883130D01*
X22976461Y15883134D01*
X22945178Y15929951D01*
X22905276Y15989669D01*
X22814669Y16080276D01*
X22796643Y16092321D01*
X22794496Y16093756D01*
X22756618Y16141807D01*
X22750500Y16176070D01*
X22750500Y16556288D01*
X22769407Y16614479D01*
X22794500Y16638604D01*
X22834597Y16665396D01*
X22834597Y16665397D01*
X22834601Y16665399D01*
X22889966Y16748260D01*
X22904500Y16821326D01*
X22904500Y17359389D01*
X22923407Y17417580D01*
X22944172Y17438643D01*
X23011185Y17488809D01*
X23011192Y17488816D01*
X23097352Y17603910D01*
X23097353Y17603912D01*
X23147596Y17738619D01*
X23147598Y17738630D01*
X23154000Y17798176D01*
X23154000Y17849999D01*
X23153999Y17850000D01*
X21646001Y17850000D01*
X21646000Y17849999D01*
X21646000Y17798176D01*
X21645999Y17798176D01*
X21652401Y17738630D01*
X21652403Y17738619D01*
X21702646Y17603912D01*
X21702647Y17603910D01*
X21788807Y17488816D01*
X21788814Y17488809D01*
X21855828Y17438643D01*
X21891082Y17388634D01*
X21895500Y17359389D01*
X21895500Y16821328D01*
X21895501Y16821316D01*
X21910033Y16748264D01*
X21910035Y16748258D01*
X21965397Y16665401D01*
X21965402Y16665396D01*
X22005500Y16638604D01*
X22043381Y16590555D01*
X22049500Y16556288D01*
X22049500Y16176070D01*
X22030593Y16117879D01*
X22005504Y16093756D01*
X21985330Y16080276D01*
X21894727Y15989673D01*
X21894724Y15989669D01*
X21823538Y15883134D01*
X21823534Y15883126D01*
X21774500Y15764748D01*
X21774499Y15764745D01*
X21774499Y15764744D01*
X21774100Y15762737D01*
X21750118Y15642174D01*
X21749500Y15639069D01*
X21749500Y15510931D01*
X21767584Y15420017D01*
X21774499Y15385258D01*
X21774500Y15385253D01*
X21823534Y15266875D01*
X21823538Y15266867D01*
X21860402Y15211697D01*
X21894724Y15160331D01*
X21894727Y15160328D01*
X21894731Y15160323D01*
X21985331Y15069724D01*
X22005501Y15056247D01*
X22043381Y15008197D01*
X22049500Y14973931D01*
X22049500Y12422633D01*
X22030593Y12364442D01*
X22020504Y12352629D01*
X21042041Y11374166D01*
X21001763Y11313884D01*
X21000656Y11312227D01*
X20981213Y11214486D01*
X21000656Y11116745D01*
X21014361Y11096234D01*
X21032512Y11069068D01*
X21042044Y11054803D01*
X22809350Y9287497D01*
X22871292Y9246109D01*
X22969033Y9226666D01*
X23066774Y9246109D01*
X23128716Y9287497D01*
X23355498Y9514280D01*
X23410013Y9542055D01*
X23470445Y9532484D01*
X23513710Y9489219D01*
X23524500Y9444274D01*
X23524500Y6716355D01*
X23529371Y6698176D01*
X23542745Y6648261D01*
X23548384Y6627215D01*
X23548385Y6627213D01*
X23548386Y6627211D01*
X23594530Y6547287D01*
X24160519Y5981298D01*
X24722313Y5419504D01*
X24750090Y5364987D01*
X24740519Y5304555D01*
X24697254Y5261290D01*
X24652309Y5250500D01*
X22348386Y5250500D01*
X22290195Y5269407D01*
X22254231Y5318907D01*
X22254231Y5380093D01*
X22289057Y5428753D01*
X22340834Y5467513D01*
X22407547Y5517454D01*
X22493797Y5632670D01*
X22498390Y5644983D01*
X22540134Y5756906D01*
X22544092Y5767518D01*
X22550501Y5827128D01*
X22550501Y7772872D01*
X22544092Y7832482D01*
X22544090Y7832488D01*
X22493798Y7967329D01*
X22407550Y8082542D01*
X22407549Y8082543D01*
X22407547Y8082546D01*
X22394966Y8091964D01*
X22292329Y8168798D01*
X22157488Y8219090D01*
X22157483Y8219091D01*
X22157481Y8219092D01*
X22157477Y8219092D01*
X22126249Y8222450D01*
X22097873Y8225500D01*
X21002129Y8225500D01*
X20977638Y8222867D01*
X20942524Y8219092D01*
X20942513Y8219090D01*
X20807671Y8168797D01*
X20801546Y8164212D01*
X20743630Y8144479D01*
X20685176Y8162557D01*
X20672218Y8173465D01*
X19454496Y9391187D01*
X19426719Y9445704D01*
X19425500Y9461191D01*
X19425500Y10059171D01*
X19424623Y10067330D01*
X19419251Y10117299D01*
X19394917Y10182542D01*
X19370213Y10248777D01*
X19286119Y10361112D01*
X19286118Y10361113D01*
X19286116Y10361116D01*
X19286111Y10361120D01*
X19173776Y10445214D01*
X19042304Y10494250D01*
X19042299Y10494251D01*
X19042297Y10494252D01*
X19042293Y10494252D01*
X19016011Y10497078D01*
X18984174Y10500500D01*
X18415826Y10500500D01*
X18392489Y10497991D01*
X18357706Y10494252D01*
X18357702Y10494252D01*
X18357701Y10494251D01*
X18331566Y10484503D01*
X18284096Y10466798D01*
X18281883Y10466704D01*
X18280093Y10465402D01*
X18251512Y10465402D01*
X18222966Y10464179D01*
X18221122Y10465402D01*
X18218907Y10465402D01*
X18195778Y10482206D01*
X18171972Y10497991D01*
X18171198Y10500065D01*
X18169407Y10501366D01*
X18160573Y10528554D01*
X18150591Y10555319D01*
X18150500Y10559557D01*
X18150500Y10640444D01*
X18169407Y10698635D01*
X18218907Y10734599D01*
X18280093Y10734599D01*
X18284088Y10733205D01*
X18357701Y10705749D01*
X18415826Y10699500D01*
X18415830Y10699500D01*
X18984170Y10699500D01*
X18984174Y10699500D01*
X19042299Y10705749D01*
X19112107Y10731786D01*
X19173776Y10754787D01*
X19173776Y10754788D01*
X19173778Y10754788D01*
X19286116Y10838884D01*
X19370212Y10951222D01*
X19395536Y11019117D01*
X19402740Y11038433D01*
X19419251Y11082701D01*
X19425500Y11140826D01*
X19425500Y11809174D01*
X19419251Y11867299D01*
X19419249Y11867305D01*
X19370213Y11998777D01*
X19286119Y12111112D01*
X19286118Y12111113D01*
X19286116Y12111116D01*
X19286111Y12111120D01*
X19173781Y12195211D01*
X19114902Y12217172D01*
X19066988Y12255224D01*
X19050500Y12309930D01*
X19050500Y12850500D01*
X19069407Y12908691D01*
X19118907Y12944655D01*
X19149500Y12949500D01*
X19384170Y12949500D01*
X19384174Y12949500D01*
X19442299Y12955749D01*
X19508646Y12980495D01*
X19573776Y13004787D01*
X19573776Y13004788D01*
X19573778Y13004788D01*
X19686116Y13088884D01*
X19770212Y13201222D01*
X19770617Y13202306D01*
X19808694Y13304397D01*
X19819251Y13332701D01*
X19825500Y13390826D01*
X19825500Y14084174D01*
X19819251Y14142299D01*
X19810188Y14166599D01*
X19770213Y14273777D01*
X19716908Y14344983D01*
X19687066Y14384847D01*
X19667330Y14442760D01*
X19685404Y14501214D01*
X19714347Y14528435D01*
X19798038Y14580057D01*
X19919946Y14701965D01*
X20010451Y14848694D01*
X20064681Y15012352D01*
X20075000Y15113345D01*
X20075000Y15212499D01*
X20074999Y15212500D01*
X19199000Y15212500D01*
X19140809Y15231407D01*
X19104845Y15280907D01*
X19100000Y15311500D01*
X19100000Y15462499D01*
X19099999Y15462500D01*
X18949000Y15462500D01*
X18890809Y15481407D01*
X18854845Y15530907D01*
X18850000Y15561500D01*
X18850000Y16499999D01*
X19350000Y16499999D01*
X19350000Y15712501D01*
X19350001Y15712500D01*
X20074998Y15712500D01*
X20074999Y15712501D01*
X20074999Y15811655D01*
X20064682Y15912643D01*
X20064679Y15912655D01*
X20010451Y16076307D01*
X19919946Y16223036D01*
X19798035Y16344947D01*
X19651306Y16435452D01*
X19487648Y16489682D01*
X19386655Y16500000D01*
X19350001Y16500000D01*
X19350000Y16499999D01*
X18850000Y16499999D01*
X18849998Y16500001D01*
X18813358Y16500000D01*
X18813351Y16499999D01*
X18712357Y16489683D01*
X18712345Y16489680D01*
X18548692Y16435452D01*
X18525658Y16421244D01*
X18466205Y16406789D01*
X18409610Y16430041D01*
X18383126Y16465512D01*
X18380041Y16472497D01*
X18376614Y16485288D01*
X18369834Y16497031D01*
X18349932Y16531502D01*
X18337212Y16591349D01*
X18362099Y16647244D01*
X18415087Y16677837D01*
X18420952Y16678454D01*
X18422500Y16680001D01*
X18422500Y17249999D01*
X18922500Y17249999D01*
X18922500Y16680001D01*
X18922501Y16680000D01*
X18948334Y16680000D01*
X18948345Y16680001D01*
X19014841Y16686043D01*
X19014847Y16686045D01*
X19167855Y16733724D01*
X19167867Y16733729D01*
X19305020Y16816641D01*
X19418359Y16929980D01*
X19501271Y17067133D01*
X19501276Y17067145D01*
X19548956Y17220156D01*
X19551668Y17250000D01*
X18922501Y17250000D01*
X18922500Y17249999D01*
X18422500Y17249999D01*
X18422500Y17401000D01*
X18441407Y17459191D01*
X18490907Y17495155D01*
X18521500Y17500000D01*
X18672499Y17500000D01*
X18672500Y17500001D01*
X18672500Y17651000D01*
X18691407Y17709191D01*
X18740907Y17745155D01*
X18771500Y17750000D01*
X19551669Y17750000D01*
X19562865Y17762260D01*
X19616067Y17792479D01*
X19635968Y17794500D01*
X20098282Y17794500D01*
X20098284Y17794500D01*
X20187428Y17818386D01*
X20216703Y17835288D01*
X20267352Y17864530D01*
X20352823Y17950001D01*
X24548331Y17950001D01*
X24548332Y17950000D01*
X25177499Y17950000D01*
X25177500Y17950001D01*
X25177500Y18519999D01*
X25177499Y18520000D01*
X25151654Y18520000D01*
X25085158Y18513958D01*
X25085152Y18513956D01*
X24932144Y18466277D01*
X24932132Y18466272D01*
X24794979Y18383360D01*
X24681640Y18270021D01*
X24598728Y18132868D01*
X24598723Y18132856D01*
X24551043Y17979845D01*
X24548331Y17950001D01*
X20352823Y17950001D01*
X20713324Y18310504D01*
X20767841Y18338281D01*
X20783328Y18339500D01*
X21288642Y18339500D01*
X21288644Y18339500D01*
X21377788Y18363386D01*
X21415808Y18385337D01*
X21457712Y18409530D01*
X21482549Y18434368D01*
X21488901Y18438971D01*
X21510906Y18446093D01*
X21531513Y18456592D01*
X21539458Y18455334D01*
X21547114Y18457811D01*
X21569101Y18450639D01*
X21591945Y18447021D01*
X21597633Y18441333D01*
X21605283Y18438837D01*
X21618855Y18420111D01*
X21635210Y18403756D01*
X21637439Y18394470D01*
X21641190Y18389295D01*
X21641177Y18378897D01*
X21646000Y18358811D01*
X21646000Y18350001D01*
X21646001Y18350000D01*
X22149999Y18350000D01*
X22150000Y18350001D01*
X22150000Y18835846D01*
X22116253Y18853999D01*
X22650000Y18853999D01*
X22650000Y18350001D01*
X22650001Y18350000D01*
X23153999Y18350000D01*
X23154000Y18350001D01*
X23154000Y18401825D01*
X23147598Y18461371D01*
X23147596Y18461382D01*
X23097353Y18596089D01*
X23097352Y18596091D01*
X23011192Y18711185D01*
X23011184Y18711193D01*
X22896090Y18797353D01*
X22896088Y18797354D01*
X22761381Y18847597D01*
X22761370Y18847599D01*
X22701824Y18854000D01*
X22650001Y18854000D01*
X22650000Y18853999D01*
X22116253Y18853999D01*
X22094290Y18865813D01*
X22089537Y18870783D01*
X22082998Y18872907D01*
X22068750Y18892517D01*
X22052000Y18910031D01*
X22051076Y18916844D01*
X22047034Y18922407D01*
X22047034Y18946647D01*
X22043777Y18970661D01*
X22047034Y18976716D01*
X22047034Y18983593D01*
X22071185Y19023003D01*
X22326791Y19278610D01*
X22381308Y19306388D01*
X22441737Y19296818D01*
X22441743Y19296815D01*
X22441744Y19296814D01*
X22445053Y19295128D01*
X22445063Y19295124D01*
X22609793Y19241599D01*
X22609797Y19241598D01*
X22780886Y19214500D01*
X22780889Y19214500D01*
X22954114Y19214500D01*
X23125202Y19241598D01*
X23125206Y19241599D01*
X23289938Y19295124D01*
X23289940Y19295126D01*
X23289945Y19295127D01*
X23444288Y19373768D01*
X23584428Y19475586D01*
X23706914Y19598072D01*
X23808732Y19738212D01*
X23887373Y19892555D01*
X23887374Y19892560D01*
X23887376Y19892562D01*
X23940901Y20057294D01*
X23940902Y20057298D01*
X23968000Y20228386D01*
X23968000Y20401615D01*
X23940902Y20572703D01*
X23940901Y20572707D01*
X23887376Y20737439D01*
X23887374Y20737442D01*
X23887373Y20737443D01*
X23887373Y20737445D01*
X23808732Y20891788D01*
X23706914Y21031928D01*
X23584428Y21154414D01*
X23444288Y21256232D01*
X23444287Y21256233D01*
X23444285Y21256234D01*
X23289941Y21334875D01*
X23213611Y21359677D01*
X23164112Y21395641D01*
X23145205Y21453832D01*
X23164113Y21512023D01*
X23213613Y21547986D01*
X23385713Y21603904D01*
X23575052Y21700376D01*
X23746964Y21825278D01*
X23897222Y21975536D01*
X24022123Y22147448D01*
X24049290Y22200765D01*
X24092554Y22244029D01*
X24152986Y22253601D01*
X24207503Y22225824D01*
X24225710Y22200765D01*
X24252876Y22147448D01*
X24377777Y21975536D01*
X24528035Y21825278D01*
X24699947Y21700376D01*
X24889286Y21603904D01*
X25061386Y21547986D01*
X25110886Y21512022D01*
X25129794Y21453831D01*
X25110887Y21395641D01*
X25061388Y21359677D01*
X24985058Y21334875D01*
X24830714Y21256234D01*
X24690573Y21154415D01*
X24568085Y21031927D01*
X24466266Y20891786D01*
X24387625Y20737442D01*
X24387623Y20737439D01*
X24334098Y20572707D01*
X24334097Y20572703D01*
X24307000Y20401615D01*
X24307000Y20228386D01*
X24334097Y20057298D01*
X24334098Y20057294D01*
X24387623Y19892562D01*
X24387625Y19892559D01*
X24463718Y19743215D01*
X24466268Y19738212D01*
X24568086Y19598072D01*
X24690572Y19475586D01*
X24830712Y19373768D01*
X24985055Y19295127D01*
X24985057Y19295127D01*
X24985058Y19295126D01*
X24985061Y19295124D01*
X25149793Y19241599D01*
X25149797Y19241598D01*
X25320886Y19214500D01*
X25320889Y19214500D01*
X25494113Y19214500D01*
X25525679Y19219500D01*
X25566040Y19225893D01*
X25626471Y19216322D01*
X25651531Y19198116D01*
X26410143Y18439504D01*
X26418169Y18423752D01*
X26430140Y18410742D01*
X26431715Y18397165D01*
X26437920Y18384987D01*
X26435154Y18367525D01*
X26437192Y18349964D01*
X26430487Y18338056D01*
X26428349Y18324555D01*
X26415846Y18312053D01*
X26407174Y18296649D01*
X26396137Y18292344D01*
X26385084Y18281290D01*
X26351550Y18271160D01*
X26345854Y18270500D01*
X26317694Y18270499D01*
X26240504Y18258275D01*
X26238426Y18258033D01*
X26210354Y18263684D01*
X26182068Y18268164D01*
X26179757Y18269843D01*
X26178444Y18270107D01*
X26176528Y18272189D01*
X26157011Y18286369D01*
X26060020Y18383360D01*
X25922867Y18466272D01*
X25922855Y18466277D01*
X25769847Y18513956D01*
X25769841Y18513958D01*
X25703345Y18520000D01*
X25677501Y18520000D01*
X25677500Y18519999D01*
X25677500Y17799000D01*
X25658593Y17740809D01*
X25609093Y17704845D01*
X25578500Y17700000D01*
X25427501Y17700000D01*
X25427500Y17699999D01*
X25427500Y17549000D01*
X25408593Y17490809D01*
X25359093Y17454845D01*
X25328500Y17450000D01*
X24548331Y17450000D01*
X24551043Y17420156D01*
X24598723Y17267145D01*
X24598728Y17267133D01*
X24672619Y17144903D01*
X24686543Y17085323D01*
X24662787Y17028938D01*
X24657901Y17023684D01*
X24594529Y16960312D01*
X24550595Y16884215D01*
X24550594Y16884213D01*
X24548387Y16880392D01*
X24544783Y16866942D01*
X24524500Y16791244D01*
X24524500Y15041356D01*
X24545542Y14962826D01*
X24548341Y14952380D01*
X24548387Y14952210D01*
X24548388Y14952207D01*
X24594529Y14872289D01*
X24900176Y14566641D01*
X24927953Y14512125D01*
X24928605Y14486056D01*
X24924500Y14447871D01*
X24924500Y13677134D01*
X24924501Y13677130D01*
X24930908Y13617524D01*
X24930909Y13617515D01*
X24981202Y13482671D01*
X25067450Y13367459D01*
X25067454Y13367454D01*
X25067457Y13367452D01*
X25067458Y13367451D01*
X25182670Y13281203D01*
X25317511Y13230911D01*
X25317512Y13230911D01*
X25317517Y13230909D01*
X25377127Y13224500D01*
X26038810Y13224501D01*
X26097001Y13205594D01*
X26108813Y13195505D01*
X26319129Y12985189D01*
X26487182Y12817137D01*
X26514960Y12762620D01*
X26505389Y12702188D01*
X26496432Y12687804D01*
X26429786Y12598777D01*
X26380750Y12467305D01*
X26380748Y12467294D01*
X26374500Y12409171D01*
X26374500Y11715830D01*
X26374499Y11715830D01*
X26380748Y11657707D01*
X26380750Y11657696D01*
X26429786Y11526224D01*
X26477416Y11462599D01*
X26513884Y11413884D01*
X26513887Y11413882D01*
X26513888Y11413881D01*
X26626223Y11329787D01*
X26725503Y11292758D01*
X26773418Y11254708D01*
X26789816Y11195761D01*
X26768434Y11138433D01*
X26725503Y11107242D01*
X26626223Y11070214D01*
X26513888Y10986120D01*
X26513880Y10986112D01*
X26429786Y10873777D01*
X26380750Y10742305D01*
X26380748Y10742294D01*
X26374500Y10684171D01*
X26374500Y9990830D01*
X26374499Y9990830D01*
X26380748Y9932707D01*
X26380750Y9932696D01*
X26429786Y9801224D01*
X26481189Y9732559D01*
X26513884Y9688884D01*
X26513887Y9688882D01*
X26513888Y9688881D01*
X26626223Y9604787D01*
X26757695Y9555751D01*
X26757696Y9555751D01*
X26757701Y9555749D01*
X26815826Y9549500D01*
X26815830Y9549500D01*
X27384170Y9549500D01*
X27384174Y9549500D01*
X27442299Y9555749D01*
X27502533Y9578215D01*
X27573776Y9604787D01*
X27573776Y9604788D01*
X27573778Y9604788D01*
X27686116Y9688884D01*
X27770212Y9801222D01*
X27819251Y9932701D01*
X27825500Y9990826D01*
X27825500Y10526312D01*
X27844407Y10584502D01*
X27854490Y10596309D01*
X28180470Y10922288D01*
X28226614Y11002212D01*
X28250500Y11091356D01*
X28250500Y11183644D01*
X28250500Y14715752D01*
X28226614Y14804896D01*
X28218409Y14819108D01*
X28180470Y14884820D01*
X28054999Y15010291D01*
X27929496Y15135795D01*
X27901719Y15190311D01*
X27900500Y15205798D01*
X27900500Y15699673D01*
X27900498Y15699685D01*
X27890066Y15752127D01*
X27885966Y15772740D01*
X27871094Y15794998D01*
X27854485Y15853887D01*
X27871094Y15905002D01*
X27879284Y15917260D01*
X27885966Y15927260D01*
X27900500Y16000326D01*
X27900500Y16549674D01*
X27885966Y16622740D01*
X27880712Y16630603D01*
X27830602Y16705600D01*
X27830599Y16705603D01*
X27794499Y16729724D01*
X27756619Y16777774D01*
X27750500Y16812040D01*
X27750500Y17991472D01*
X27749222Y17996243D01*
X27726614Y18080617D01*
X27722351Y18088000D01*
X27680470Y18160541D01*
X26305030Y19535981D01*
X26277253Y19590498D01*
X26286824Y19650930D01*
X26294938Y19664172D01*
X26348732Y19738212D01*
X26427373Y19892555D01*
X26427374Y19892560D01*
X26427376Y19892562D01*
X26480901Y20057294D01*
X26480902Y20057298D01*
X26508000Y20228386D01*
X26508000Y20401615D01*
X26480902Y20572703D01*
X26480901Y20572707D01*
X26427376Y20737439D01*
X26427374Y20737442D01*
X26427373Y20737443D01*
X26427373Y20737445D01*
X26348732Y20891788D01*
X26246914Y21031928D01*
X26124428Y21154414D01*
X25984288Y21256232D01*
X25984287Y21256233D01*
X25984285Y21256234D01*
X25829941Y21334875D01*
X25753611Y21359677D01*
X25704112Y21395641D01*
X25685205Y21453832D01*
X25704113Y21512023D01*
X25753613Y21547986D01*
X25925713Y21603904D01*
X26115052Y21700376D01*
X26286964Y21825278D01*
X26437222Y21975536D01*
X26562123Y22147448D01*
X26589290Y22200765D01*
X26632554Y22244029D01*
X26692986Y22253601D01*
X26747503Y22225824D01*
X26765710Y22200765D01*
X26792876Y22147448D01*
X26917777Y21975536D01*
X27068035Y21825278D01*
X27239947Y21700376D01*
X27429286Y21603904D01*
X27601386Y21547986D01*
X27650886Y21512022D01*
X27669794Y21453831D01*
X27650887Y21395641D01*
X27601388Y21359677D01*
X27525058Y21334875D01*
X27370714Y21256234D01*
X27230573Y21154415D01*
X27108085Y21031927D01*
X27006266Y20891786D01*
X26927625Y20737442D01*
X26927623Y20737439D01*
X26874098Y20572707D01*
X26874097Y20572703D01*
X26847000Y20401615D01*
X26847000Y20228386D01*
X26874097Y20057298D01*
X26874098Y20057294D01*
X26927623Y19892562D01*
X26927625Y19892559D01*
X27003718Y19743215D01*
X27006268Y19738212D01*
X27108086Y19598072D01*
X27230572Y19475586D01*
X27370712Y19373768D01*
X27525055Y19295127D01*
X27525057Y19295127D01*
X27525058Y19295126D01*
X27525061Y19295124D01*
X27689793Y19241599D01*
X27689797Y19241598D01*
X27860886Y19214500D01*
X27860889Y19214500D01*
X28034111Y19214500D01*
X28086332Y19222772D01*
X28146762Y19213202D01*
X28171823Y19194995D01*
X28813177Y18553641D01*
X28840954Y18499124D01*
X28831383Y18438692D01*
X28788118Y18395427D01*
X28752132Y18385043D01*
X28685158Y18378958D01*
X28685152Y18378956D01*
X28532144Y18331277D01*
X28532132Y18331272D01*
X28394979Y18248360D01*
X28281640Y18135021D01*
X28198728Y17997868D01*
X28198723Y17997856D01*
X28151043Y17844845D01*
X28148331Y17815001D01*
X28148332Y17815000D01*
X28928500Y17815000D01*
X28986691Y17796093D01*
X29022655Y17746593D01*
X29027500Y17716000D01*
X29027500Y17414000D01*
X29008593Y17355809D01*
X28959093Y17319845D01*
X28928500Y17315000D01*
X28148331Y17315000D01*
X28151043Y17285156D01*
X28198723Y17132145D01*
X28198728Y17132133D01*
X28282980Y16992764D01*
X28296904Y16933184D01*
X28273148Y16876799D01*
X28268262Y16871545D01*
X28169529Y16772812D01*
X28130726Y16705602D01*
X28130726Y16705601D01*
X28129094Y16702774D01*
X28123386Y16692889D01*
X28115327Y16662813D01*
X28101120Y16609788D01*
X28099500Y16603743D01*
X28099500Y15346257D01*
X28113359Y15294532D01*
X28123385Y15257115D01*
X28123386Y15257112D01*
X28169530Y15177188D01*
X28446219Y14900500D01*
X28642850Y14703869D01*
X28670627Y14649352D01*
X28661056Y14588920D01*
X28652100Y14574537D01*
X28581202Y14479830D01*
X28530910Y14344989D01*
X28530908Y14344978D01*
X28527777Y14315853D01*
X28525377Y14293525D01*
X28524500Y14285371D01*
X28524500Y13514634D01*
X28524501Y13514630D01*
X28530908Y13455020D01*
X28530909Y13455015D01*
X28581202Y13320171D01*
X28664692Y13208643D01*
X28667454Y13204954D01*
X28667457Y13204952D01*
X28667458Y13204951D01*
X28782670Y13118703D01*
X28917511Y13068411D01*
X28917512Y13068411D01*
X28917517Y13068409D01*
X28977127Y13062000D01*
X29350500Y13062001D01*
X29365412Y13057156D01*
X29381093Y13057156D01*
X29393778Y13047940D01*
X29408691Y13043094D01*
X29417907Y13030409D01*
X29430593Y13021192D01*
X29435438Y13006280D01*
X29444655Y12993594D01*
X29449500Y12963001D01*
X29449500Y12909930D01*
X29430593Y12851739D01*
X29385098Y12817172D01*
X29326218Y12795211D01*
X29213888Y12711120D01*
X29213885Y12711118D01*
X29213884Y12711116D01*
X29207737Y12702904D01*
X29129786Y12598777D01*
X29080750Y12467305D01*
X29080748Y12467294D01*
X29074500Y12409171D01*
X29074500Y11974500D01*
X29055593Y11916309D01*
X29006093Y11880345D01*
X28975500Y11875500D01*
X28937399Y11875500D01*
X28860692Y11854946D01*
X28816463Y11843095D01*
X28708036Y11780495D01*
X28619505Y11691964D01*
X28556905Y11583537D01*
X28556905Y11583536D01*
X28524500Y11462601D01*
X28524500Y11337399D01*
X28556905Y11216464D01*
X28619505Y11108036D01*
X28708036Y11019505D01*
X28816464Y10956905D01*
X28937399Y10924500D01*
X28937401Y10924500D01*
X29006119Y10924500D01*
X29064310Y10905593D01*
X29100274Y10856093D01*
X29100274Y10794907D01*
X29098877Y10790904D01*
X29080750Y10742305D01*
X29080748Y10742294D01*
X29074500Y10684171D01*
X29074500Y9990830D01*
X29074499Y9990830D01*
X29080748Y9932707D01*
X29080750Y9932696D01*
X29129786Y9801224D01*
X29181189Y9732559D01*
X29213884Y9688884D01*
X29213887Y9688882D01*
X29213888Y9688881D01*
X29326223Y9604787D01*
X29457695Y9555751D01*
X29457696Y9555751D01*
X29457701Y9555749D01*
X29515826Y9549500D01*
X29515830Y9549500D01*
X30084170Y9549500D01*
X30084174Y9549500D01*
X30142299Y9555749D01*
X30202533Y9578215D01*
X30273776Y9604787D01*
X30273776Y9604788D01*
X30273778Y9604788D01*
X30386116Y9688884D01*
X30470212Y9801222D01*
X30519251Y9932701D01*
X30525500Y9990826D01*
X30525500Y10526312D01*
X30544407Y10584503D01*
X30554490Y10596310D01*
X31280469Y11322288D01*
X31326614Y11402212D01*
X31333789Y11428991D01*
X31350500Y11491356D01*
X31350500Y14700462D01*
X31369407Y14758653D01*
X31394496Y14782776D01*
X31430601Y14806899D01*
X31485966Y14889760D01*
X31500500Y14962826D01*
X31500500Y15512174D01*
X31500500Y15762174D01*
X31500387Y15762740D01*
X31487008Y15830000D01*
X31485966Y15835240D01*
X31471094Y15857498D01*
X31454485Y15916387D01*
X31471094Y15967502D01*
X31483603Y15986224D01*
X31485966Y15989760D01*
X31500500Y16062826D01*
X31500500Y16612174D01*
X31500387Y16612740D01*
X31495117Y16639237D01*
X31485966Y16685240D01*
X31472362Y16705600D01*
X31430602Y16768100D01*
X31430599Y16768103D01*
X31394499Y16792224D01*
X31356619Y16840274D01*
X31350500Y16874540D01*
X31350500Y17856471D01*
X31348341Y17864530D01*
X31326614Y17945616D01*
X31280470Y18025540D01*
X30335540Y18970470D01*
X30255616Y19016614D01*
X30166472Y19040500D01*
X30166470Y19040500D01*
X29358690Y19040500D01*
X29300499Y19059407D01*
X29288686Y19069496D01*
X28835423Y19522759D01*
X28807646Y19577276D01*
X28817217Y19637708D01*
X28825335Y19650954D01*
X28888732Y19738212D01*
X28967373Y19892555D01*
X28967374Y19892560D01*
X28967376Y19892562D01*
X29020901Y20057294D01*
X29020902Y20057298D01*
X29048000Y20228386D01*
X29048000Y20401615D01*
X29020902Y20572703D01*
X29020901Y20572707D01*
X28967376Y20737439D01*
X28967374Y20737442D01*
X28967373Y20737443D01*
X28967373Y20737445D01*
X28888732Y20891788D01*
X28786914Y21031928D01*
X28664428Y21154414D01*
X28524288Y21256232D01*
X28524287Y21256233D01*
X28524285Y21256234D01*
X28369941Y21334875D01*
X28293611Y21359677D01*
X28244112Y21395641D01*
X28225205Y21453832D01*
X28244113Y21512023D01*
X28293613Y21547986D01*
X28465713Y21603904D01*
X28655052Y21700376D01*
X28826964Y21825278D01*
X28977222Y21975536D01*
X29102123Y22147448D01*
X29129290Y22200765D01*
X29172554Y22244029D01*
X29232986Y22253601D01*
X29287503Y22225824D01*
X29305710Y22200765D01*
X29332876Y22147448D01*
X29457777Y21975536D01*
X29608035Y21825278D01*
X29779947Y21700376D01*
X29969286Y21603904D01*
X30141386Y21547986D01*
X30190886Y21512022D01*
X30209794Y21453831D01*
X30190887Y21395641D01*
X30141388Y21359677D01*
X30065058Y21334875D01*
X29910714Y21256234D01*
X29770573Y21154415D01*
X29648085Y21031927D01*
X29546266Y20891786D01*
X29467625Y20737442D01*
X29467623Y20737439D01*
X29414098Y20572707D01*
X29414097Y20572703D01*
X29387000Y20401615D01*
X29387000Y20228386D01*
X29414097Y20057298D01*
X29414098Y20057294D01*
X29467623Y19892562D01*
X29467625Y19892559D01*
X29543718Y19743215D01*
X29546268Y19738212D01*
X29648086Y19598072D01*
X29770572Y19475586D01*
X29910712Y19373768D01*
X30065055Y19295127D01*
X30065057Y19295127D01*
X30065058Y19295126D01*
X30065061Y19295124D01*
X30229793Y19241599D01*
X30229797Y19241598D01*
X30400886Y19214500D01*
X30400889Y19214500D01*
X30574111Y19214500D01*
X30626332Y19222772D01*
X30686762Y19213202D01*
X30711823Y19194995D01*
X31537288Y18369530D01*
X31555854Y18358811D01*
X31589299Y18339501D01*
X31589302Y18339500D01*
X31591803Y18338056D01*
X31617208Y18323388D01*
X31617209Y18323388D01*
X31617212Y18323386D01*
X31706356Y18299500D01*
X31706357Y18299500D01*
X31798644Y18299500D01*
X31807175Y18299500D01*
X31865366Y18280593D01*
X31901330Y18231093D01*
X31901330Y18169907D01*
X31885110Y18139449D01*
X31881640Y18135020D01*
X31798728Y17997868D01*
X31798723Y17997856D01*
X31751043Y17844845D01*
X31748331Y17815001D01*
X31748332Y17815000D01*
X32528500Y17815000D01*
X32586691Y17796093D01*
X32622655Y17746593D01*
X32627500Y17716000D01*
X32627500Y17414000D01*
X32608593Y17355809D01*
X32559093Y17319845D01*
X32528500Y17315000D01*
X31748331Y17315000D01*
X31751043Y17285156D01*
X31798723Y17132145D01*
X31798728Y17132133D01*
X31881640Y16994980D01*
X31902915Y16973705D01*
X31930692Y16919188D01*
X31921121Y16858756D01*
X31902915Y16833698D01*
X31769529Y16700312D01*
X31729205Y16630468D01*
X31723388Y16620394D01*
X31723387Y16620392D01*
X31721337Y16612740D01*
X31699500Y16531244D01*
X31699500Y15273756D01*
X31717146Y15207901D01*
X31720950Y15193704D01*
X31720950Y15193703D01*
X31723338Y15184788D01*
X31723386Y15184612D01*
X31769530Y15104688D01*
X32046959Y14827260D01*
X32242850Y14631369D01*
X32270627Y14576852D01*
X32261056Y14516420D01*
X32252100Y14502037D01*
X32181202Y14407330D01*
X32130910Y14272489D01*
X32130908Y14272478D01*
X32124500Y14212871D01*
X32124500Y13442134D01*
X32124501Y13442130D01*
X32130908Y13382520D01*
X32130909Y13382515D01*
X32181202Y13247671D01*
X32260701Y13141475D01*
X32267454Y13132454D01*
X32267457Y13132452D01*
X32267458Y13132451D01*
X32382670Y13046203D01*
X32517511Y12995911D01*
X32517512Y12995911D01*
X32517517Y12995909D01*
X32577127Y12989500D01*
X32950500Y12989501D01*
X32965412Y12984656D01*
X32981093Y12984656D01*
X32993778Y12975440D01*
X33008691Y12970594D01*
X33017907Y12957909D01*
X33030593Y12948692D01*
X33035438Y12933780D01*
X33044655Y12921094D01*
X33049500Y12890501D01*
X33049500Y12809930D01*
X33030593Y12751739D01*
X32985098Y12717172D01*
X32926218Y12695211D01*
X32813888Y12611120D01*
X32813880Y12611112D01*
X32729786Y12498777D01*
X32680750Y12367305D01*
X32680748Y12367294D01*
X32679172Y12352629D01*
X32674582Y12309930D01*
X32674500Y12309171D01*
X32674500Y11615830D01*
X32674499Y11615830D01*
X32680748Y11557707D01*
X32680750Y11557696D01*
X32729786Y11426224D01*
X32807593Y11322288D01*
X32813884Y11313884D01*
X32813887Y11313882D01*
X32813888Y11313881D01*
X32926223Y11229787D01*
X33025503Y11192758D01*
X33073418Y11154708D01*
X33089816Y11095761D01*
X33068434Y11038433D01*
X33025503Y11007242D01*
X32926223Y10970214D01*
X32813888Y10886120D01*
X32813880Y10886112D01*
X32729786Y10773777D01*
X32680750Y10642305D01*
X32680748Y10642294D01*
X32677067Y10608053D01*
X32674536Y10584502D01*
X32674500Y10584171D01*
X32674500Y9890830D01*
X32674499Y9890830D01*
X32680748Y9832707D01*
X32680750Y9832696D01*
X32729786Y9701224D01*
X32801978Y9604788D01*
X32813884Y9588884D01*
X32813887Y9588882D01*
X32813888Y9588881D01*
X32926223Y9504787D01*
X33057695Y9455751D01*
X33057696Y9455751D01*
X33057701Y9455749D01*
X33115826Y9449500D01*
X33115830Y9449500D01*
X33684170Y9449500D01*
X33684174Y9449500D01*
X33742299Y9455749D01*
X33832036Y9489219D01*
X33873776Y9504787D01*
X33873776Y9504788D01*
X33873778Y9504788D01*
X33986116Y9588884D01*
X34070212Y9701222D01*
X34083764Y9737555D01*
X34119249Y9832696D01*
X34119248Y9832696D01*
X34119251Y9832701D01*
X34125500Y9890826D01*
X34125500Y10426312D01*
X34144407Y10484503D01*
X34154490Y10496310D01*
X34880469Y11222288D01*
X34926614Y11302212D01*
X34926805Y11302927D01*
X34928421Y11308955D01*
X34928422Y11308961D01*
X34945894Y11374166D01*
X34950500Y11391356D01*
X34950500Y14627962D01*
X34969407Y14686153D01*
X34994496Y14710276D01*
X35030601Y14734399D01*
X35085966Y14817260D01*
X35100500Y14890326D01*
X35100500Y15439674D01*
X35100500Y15689674D01*
X35099934Y15692517D01*
X35096399Y15710291D01*
X35085966Y15762740D01*
X35071094Y15784998D01*
X35054485Y15843887D01*
X35071094Y15895002D01*
X35077774Y15905000D01*
X35085966Y15917260D01*
X35100500Y15990326D01*
X35100500Y16539674D01*
X35085966Y16612740D01*
X35046221Y16672224D01*
X35030602Y16695600D01*
X35030599Y16695603D01*
X34994499Y16719724D01*
X34956619Y16767774D01*
X34950500Y16802040D01*
X34950500Y17767501D01*
X35348331Y17767501D01*
X35348332Y17767500D01*
X35977499Y17767500D01*
X35977500Y17767501D01*
X35977500Y18337499D01*
X35977499Y18337500D01*
X35951654Y18337500D01*
X35885158Y18331458D01*
X35885152Y18331456D01*
X35732144Y18283777D01*
X35732132Y18283772D01*
X35594979Y18200860D01*
X35481640Y18087521D01*
X35398728Y17950368D01*
X35398723Y17950356D01*
X35351043Y17797345D01*
X35348331Y17767501D01*
X34950500Y17767501D01*
X34950500Y17856471D01*
X34948341Y17864530D01*
X34926614Y17945616D01*
X34880470Y18025540D01*
X33975540Y18930470D01*
X33895616Y18976614D01*
X33806472Y19000500D01*
X33806470Y19000500D01*
X31938690Y19000500D01*
X31880499Y19019407D01*
X31868686Y19029496D01*
X31375423Y19522759D01*
X31347646Y19577276D01*
X31357217Y19637708D01*
X31365335Y19650954D01*
X31428732Y19738212D01*
X31507373Y19892555D01*
X31507374Y19892560D01*
X31507376Y19892562D01*
X31560901Y20057294D01*
X31560902Y20057298D01*
X31588000Y20228386D01*
X31588000Y20401615D01*
X31560902Y20572703D01*
X31560901Y20572707D01*
X31507376Y20737439D01*
X31507374Y20737442D01*
X31507373Y20737443D01*
X31507373Y20737445D01*
X31428732Y20891788D01*
X31326914Y21031928D01*
X31204428Y21154414D01*
X31064288Y21256232D01*
X31064287Y21256233D01*
X31064285Y21256234D01*
X30909941Y21334875D01*
X30833611Y21359677D01*
X30784112Y21395641D01*
X30765205Y21453832D01*
X30784113Y21512023D01*
X30833613Y21547986D01*
X31005713Y21603904D01*
X31195052Y21700376D01*
X31366964Y21825278D01*
X31517222Y21975536D01*
X31642123Y22147448D01*
X31669290Y22200765D01*
X31712554Y22244029D01*
X31772986Y22253601D01*
X31827503Y22225824D01*
X31845710Y22200765D01*
X31872876Y22147448D01*
X31997777Y21975536D01*
X32148035Y21825278D01*
X32319947Y21700376D01*
X32509286Y21603904D01*
X32681386Y21547986D01*
X32730886Y21512022D01*
X32749794Y21453831D01*
X32730887Y21395641D01*
X32681388Y21359677D01*
X32605058Y21334875D01*
X32450714Y21256234D01*
X32310573Y21154415D01*
X32188085Y21031927D01*
X32086266Y20891786D01*
X32007625Y20737442D01*
X32007623Y20737439D01*
X31954098Y20572707D01*
X31954097Y20572703D01*
X31927000Y20401615D01*
X31927000Y20228386D01*
X31954097Y20057298D01*
X31954098Y20057294D01*
X32007623Y19892562D01*
X32007625Y19892559D01*
X32083718Y19743215D01*
X32086268Y19738212D01*
X32188086Y19598072D01*
X32310572Y19475586D01*
X32450712Y19373768D01*
X32605055Y19295127D01*
X32605057Y19295127D01*
X32605058Y19295126D01*
X32605061Y19295124D01*
X32769793Y19241599D01*
X32769797Y19241598D01*
X32940886Y19214500D01*
X32940889Y19214500D01*
X33114114Y19214500D01*
X33285202Y19241598D01*
X33285206Y19241599D01*
X33449938Y19295124D01*
X33449940Y19295126D01*
X33449945Y19295127D01*
X33604288Y19373768D01*
X33744428Y19475586D01*
X33866914Y19598072D01*
X33901935Y19646275D01*
X33951432Y19682237D01*
X34012617Y19682238D01*
X34052030Y19658087D01*
X34990587Y18719530D01*
X35031095Y18696143D01*
X35070511Y18673386D01*
X35159655Y18649500D01*
X37513810Y18649500D01*
X37572001Y18630593D01*
X37583814Y18620504D01*
X37820504Y18383814D01*
X37824130Y18376697D01*
X37830593Y18372001D01*
X37837756Y18349953D01*
X37848281Y18329297D01*
X37849500Y18313810D01*
X37849500Y18168076D01*
X37830593Y18109885D01*
X37781093Y18073921D01*
X37731501Y18073916D01*
X37731128Y18071556D01*
X37723433Y18072775D01*
X37642056Y18085664D01*
X37627308Y18088000D01*
X37117695Y18088000D01*
X37042500Y18076091D01*
X36982068Y18085664D01*
X36957011Y18103869D01*
X36860020Y18200860D01*
X36722867Y18283772D01*
X36722855Y18283777D01*
X36569847Y18331456D01*
X36569841Y18331458D01*
X36503345Y18337500D01*
X36477501Y18337500D01*
X36477500Y18337499D01*
X36477500Y17616500D01*
X36458593Y17558309D01*
X36409093Y17522345D01*
X36378500Y17517500D01*
X36227501Y17517500D01*
X36227500Y17517499D01*
X36227500Y17366500D01*
X36208593Y17308309D01*
X36159093Y17272345D01*
X36128500Y17267500D01*
X35348331Y17267500D01*
X35351043Y17237656D01*
X35398723Y17084645D01*
X35398728Y17084633D01*
X35481640Y16947480D01*
X35497915Y16931205D01*
X35525692Y16876688D01*
X35516121Y16816256D01*
X35497915Y16791198D01*
X35369530Y16662813D01*
X35333777Y16600889D01*
X35333778Y16600888D01*
X35323386Y16582889D01*
X35316040Y16555472D01*
X35299704Y16494503D01*
X35299500Y16493743D01*
X35299500Y14793857D01*
X35316183Y14731593D01*
X35320428Y14715752D01*
X35323386Y14704712D01*
X35369530Y14624788D01*
X35551558Y14442760D01*
X35700175Y14294144D01*
X35727953Y14239627D01*
X35728605Y14213559D01*
X35724500Y14175373D01*
X35724500Y13404634D01*
X35724501Y13404630D01*
X35730908Y13345020D01*
X35730909Y13345015D01*
X35781202Y13210171D01*
X35849675Y13118703D01*
X35867454Y13094954D01*
X35867457Y13094952D01*
X35867458Y13094951D01*
X35955887Y13028753D01*
X35991140Y12978745D01*
X35990266Y12917565D01*
X35953599Y12868584D01*
X35896558Y12850500D01*
X35715826Y12850500D01*
X35687823Y12847490D01*
X35657706Y12844252D01*
X35657695Y12844250D01*
X35526223Y12795214D01*
X35413888Y12711120D01*
X35413885Y12711118D01*
X35413884Y12711116D01*
X35407737Y12702904D01*
X35329786Y12598777D01*
X35280750Y12467305D01*
X35280748Y12467294D01*
X35274500Y12409171D01*
X35274500Y11715830D01*
X35274499Y11715830D01*
X35280748Y11657707D01*
X35280750Y11657696D01*
X35329786Y11526224D01*
X35377416Y11462599D01*
X35413884Y11413884D01*
X35413887Y11413882D01*
X35413888Y11413881D01*
X35526223Y11329787D01*
X35625503Y11292758D01*
X35673418Y11254708D01*
X35689816Y11195761D01*
X35668434Y11138433D01*
X35625503Y11107242D01*
X35526223Y11070214D01*
X35413888Y10986120D01*
X35413880Y10986112D01*
X35329786Y10873777D01*
X35280750Y10742305D01*
X35280748Y10742294D01*
X35274500Y10684171D01*
X35274500Y9990830D01*
X35274499Y9990830D01*
X35280748Y9932707D01*
X35280750Y9932696D01*
X35329786Y9801224D01*
X35381189Y9732559D01*
X35413884Y9688884D01*
X35413887Y9688882D01*
X35413888Y9688881D01*
X35526223Y9604787D01*
X35657695Y9555751D01*
X35657696Y9555751D01*
X35657701Y9555749D01*
X35715826Y9549500D01*
X35715830Y9549500D01*
X36284170Y9549500D01*
X36284174Y9549500D01*
X36342299Y9555749D01*
X36402533Y9578215D01*
X36473776Y9604787D01*
X36473776Y9604788D01*
X36473778Y9604788D01*
X36586116Y9688884D01*
X36670212Y9801222D01*
X36719251Y9932701D01*
X36725500Y9990826D01*
X36725500Y10241615D01*
X36992000Y10241615D01*
X36992000Y10068386D01*
X37019097Y9897298D01*
X37019098Y9897294D01*
X37072623Y9732562D01*
X37072625Y9732559D01*
X37145831Y9588881D01*
X37151268Y9578212D01*
X37253086Y9438072D01*
X37375572Y9315586D01*
X37515712Y9213768D01*
X37670055Y9135127D01*
X37670057Y9135127D01*
X37670058Y9135126D01*
X37670061Y9135124D01*
X37834793Y9081599D01*
X37834797Y9081598D01*
X38005886Y9054500D01*
X38005889Y9054500D01*
X38179114Y9054500D01*
X38350202Y9081598D01*
X38350206Y9081599D01*
X38514938Y9135124D01*
X38514940Y9135126D01*
X38514945Y9135127D01*
X38669288Y9213768D01*
X38809428Y9315586D01*
X38931914Y9438072D01*
X39033732Y9578212D01*
X39112373Y9732555D01*
X39112374Y9732560D01*
X39112376Y9732562D01*
X39165901Y9897294D01*
X39165902Y9897298D01*
X39193000Y10068386D01*
X39193000Y10241615D01*
X39165902Y10412703D01*
X39165901Y10412707D01*
X39112376Y10577439D01*
X39112374Y10577442D01*
X39112373Y10577443D01*
X39112373Y10577445D01*
X39033732Y10731788D01*
X38931914Y10871928D01*
X38809428Y10994414D01*
X38669288Y11096232D01*
X38669287Y11096233D01*
X38669285Y11096234D01*
X38514941Y11174875D01*
X38514938Y11174877D01*
X38350206Y11228402D01*
X38350202Y11228403D01*
X38179114Y11255500D01*
X38179111Y11255500D01*
X38005889Y11255500D01*
X38005886Y11255500D01*
X37834797Y11228403D01*
X37834793Y11228402D01*
X37670061Y11174877D01*
X37670058Y11174875D01*
X37515714Y11096234D01*
X37375573Y10994415D01*
X37253085Y10871927D01*
X37151266Y10731786D01*
X37072625Y10577442D01*
X37072623Y10577439D01*
X37019098Y10412707D01*
X37019097Y10412703D01*
X36992000Y10241615D01*
X36725500Y10241615D01*
X36725500Y10684174D01*
X36719251Y10742299D01*
X36713179Y10758576D01*
X36710558Y10819702D01*
X36735931Y10863175D01*
X37430470Y11557712D01*
X37476614Y11637636D01*
X37481989Y11657696D01*
X37488092Y11680470D01*
X37492633Y11697421D01*
X37500500Y11726780D01*
X37500500Y12421212D01*
X37519407Y12479403D01*
X37529490Y12491210D01*
X38480469Y13442188D01*
X38526614Y13522112D01*
X38531250Y13539414D01*
X38531251Y13539416D01*
X38544345Y13588285D01*
X38550500Y13611256D01*
X38550500Y14580462D01*
X38569407Y14638653D01*
X38594496Y14662776D01*
X38630601Y14686899D01*
X38685966Y14769760D01*
X38700500Y14842826D01*
X38700500Y15392174D01*
X38700500Y15642174D01*
X38685966Y15715240D01*
X38671094Y15737498D01*
X38654485Y15796387D01*
X38671094Y15847502D01*
X38677773Y15857498D01*
X38685966Y15869760D01*
X38700500Y15942826D01*
X38700500Y16492174D01*
X38698943Y16499999D01*
X38692856Y16530603D01*
X38685966Y16565240D01*
X38662407Y16600499D01*
X38630602Y16648100D01*
X38630599Y16648103D01*
X38594499Y16672224D01*
X38556619Y16720274D01*
X38550500Y16754540D01*
X38550500Y18546143D01*
X38537117Y18596089D01*
X38526614Y18635288D01*
X38491479Y18696143D01*
X38480470Y18715212D01*
X37915212Y19280470D01*
X37835288Y19326614D01*
X37746144Y19350500D01*
X37746142Y19350500D01*
X36383349Y19350500D01*
X36325158Y19369407D01*
X36289194Y19418907D01*
X36289194Y19480093D01*
X36313343Y19519502D01*
X36391914Y19598072D01*
X36493732Y19738212D01*
X36572373Y19892555D01*
X36572374Y19892560D01*
X36572376Y19892562D01*
X36625901Y20057294D01*
X36625902Y20057298D01*
X36653000Y20228386D01*
X36653000Y20401615D01*
X36625902Y20572703D01*
X36625901Y20572707D01*
X36572376Y20737439D01*
X36572374Y20737442D01*
X36572373Y20737443D01*
X36572373Y20737445D01*
X36493732Y20891788D01*
X36391914Y21031928D01*
X36269428Y21154414D01*
X36129288Y21256232D01*
X36129287Y21256233D01*
X36129285Y21256234D01*
X35974941Y21334875D01*
X35974938Y21334877D01*
X35810206Y21388402D01*
X35810202Y21388403D01*
X35639114Y21415500D01*
X35639111Y21415500D01*
X35465889Y21415500D01*
X35465886Y21415500D01*
X35294797Y21388403D01*
X35294793Y21388402D01*
X35130061Y21334877D01*
X35130058Y21334875D01*
X34975714Y21256234D01*
X34835573Y21154415D01*
X34713085Y21031927D01*
X34611266Y20891786D01*
X34532625Y20737442D01*
X34532623Y20737439D01*
X34479098Y20572707D01*
X34479097Y20572703D01*
X34461594Y20462189D01*
X34433817Y20407672D01*
X34379300Y20379895D01*
X34318868Y20389466D01*
X34293810Y20407672D01*
X34104290Y20597191D01*
X34080138Y20636603D01*
X34047373Y20737445D01*
X33968733Y20891786D01*
X33968732Y20891788D01*
X33866914Y21031928D01*
X33744428Y21154414D01*
X33604288Y21256232D01*
X33604287Y21256233D01*
X33604285Y21256234D01*
X33449941Y21334875D01*
X33373611Y21359677D01*
X33324112Y21395641D01*
X33305205Y21453832D01*
X33324113Y21512023D01*
X33373613Y21547986D01*
X33545713Y21603904D01*
X33735052Y21700376D01*
X33906964Y21825278D01*
X34057222Y21975536D01*
X34182124Y22147448D01*
X34278595Y22336785D01*
X34344258Y22538878D01*
X34354731Y22605000D01*
X33460512Y22605000D01*
X33493425Y22662007D01*
X33527500Y22789174D01*
X33527500Y22920826D01*
X33493425Y23047993D01*
X33460512Y23105000D01*
X34354731Y23105000D01*
X34354731Y23105001D01*
X34344258Y23171123D01*
X34278595Y23373216D01*
X34182124Y23562553D01*
X34057222Y23734465D01*
X33906964Y23884723D01*
X33735052Y24009625D01*
X33545715Y24106096D01*
X33343620Y24171760D01*
X33277500Y24182233D01*
X33277500Y23288012D01*
X33220493Y23320925D01*
X33093326Y23355000D01*
X32961674Y23355000D01*
X32834507Y23320925D01*
X32777500Y23288012D01*
X32777500Y24182232D01*
X32777499Y24182233D01*
X32711380Y24171760D01*
X32711378Y24171760D01*
X32509284Y24106096D01*
X32319947Y24009625D01*
X32148035Y23884723D01*
X31997777Y23734465D01*
X31872875Y23562552D01*
X31845710Y23509236D01*
X31802445Y23465971D01*
X31742013Y23456400D01*
X31687496Y23484178D01*
X31669290Y23509236D01*
X31642124Y23562552D01*
X31517222Y23734465D01*
X31366964Y23884723D01*
X31195052Y24009625D01*
X31005715Y24106096D01*
X30803620Y24171760D01*
X30737500Y24182233D01*
X30737500Y23288012D01*
X30680493Y23320925D01*
X30553326Y23355000D01*
X30421674Y23355000D01*
X30294507Y23320925D01*
X30237500Y23288012D01*
X30237500Y24182232D01*
X30237499Y24182233D01*
X30171380Y24171760D01*
X30171378Y24171760D01*
X29969284Y24106096D01*
X29779947Y24009625D01*
X29608035Y23884723D01*
X29457777Y23734465D01*
X29332875Y23562552D01*
X29305710Y23509236D01*
X29262445Y23465971D01*
X29202013Y23456400D01*
X29147496Y23484178D01*
X29129290Y23509236D01*
X29102124Y23562552D01*
X28977222Y23734465D01*
X28826964Y23884723D01*
X28655052Y24009625D01*
X28465715Y24106096D01*
X28263620Y24171760D01*
X28197500Y24182233D01*
X28197500Y23288012D01*
X28140493Y23320925D01*
X28013326Y23355000D01*
X27881674Y23355000D01*
X27754507Y23320925D01*
X27697500Y23288012D01*
X27697500Y24182232D01*
X27697499Y24182233D01*
X27631380Y24171760D01*
X27631378Y24171760D01*
X27429284Y24106096D01*
X27239947Y24009625D01*
X27068035Y23884723D01*
X26917777Y23734465D01*
X26792875Y23562552D01*
X26765710Y23509236D01*
X26722445Y23465971D01*
X26662013Y23456400D01*
X26607496Y23484178D01*
X26589290Y23509236D01*
X26562124Y23562552D01*
X26437222Y23734465D01*
X26286964Y23884723D01*
X26115052Y24009625D01*
X25925715Y24106096D01*
X25723620Y24171760D01*
X25657500Y24182233D01*
X25657500Y23288012D01*
X25600493Y23320925D01*
X25473326Y23355000D01*
X25341674Y23355000D01*
X25214507Y23320925D01*
X25157500Y23288012D01*
X25157500Y24182232D01*
X25157499Y24182233D01*
X25091380Y24171760D01*
X25091378Y24171760D01*
X24889284Y24106096D01*
X24699947Y24009625D01*
X24528035Y23884723D01*
X24377777Y23734465D01*
X24252875Y23562552D01*
X24225710Y23509236D01*
X24182445Y23465971D01*
X24122013Y23456400D01*
X24067496Y23484178D01*
X24049290Y23509236D01*
X24022124Y23562552D01*
X23897222Y23734465D01*
X23746964Y23884723D01*
X23575052Y24009625D01*
X23385715Y24106096D01*
X23183620Y24171760D01*
X23117500Y24182233D01*
X23117500Y23288012D01*
X23060493Y23320925D01*
X22933326Y23355000D01*
X22801674Y23355000D01*
X22674507Y23320925D01*
X22617500Y23288012D01*
X22617500Y24182232D01*
X22617499Y24182233D01*
X22551380Y24171760D01*
X22551378Y24171760D01*
X22349284Y24106096D01*
X22159947Y24009625D01*
X21988035Y23884723D01*
X21837777Y23734465D01*
X21712875Y23562552D01*
X21685710Y23509236D01*
X21642445Y23465971D01*
X21582013Y23456400D01*
X21527496Y23484178D01*
X21509290Y23509236D01*
X21482124Y23562552D01*
X21357222Y23734465D01*
X21206964Y23884723D01*
X21035052Y24009625D01*
X20845715Y24106096D01*
X20643620Y24171760D01*
X20577500Y24182233D01*
X20577500Y23288012D01*
X20520493Y23320925D01*
X20393326Y23355000D01*
X20261674Y23355000D01*
X20134507Y23320925D01*
X20077500Y23288012D01*
X20077500Y24182232D01*
X20077499Y24182233D01*
X20011380Y24171760D01*
X20011378Y24171760D01*
X19809284Y24106096D01*
X19619947Y24009625D01*
X19448035Y23884723D01*
X19297777Y23734465D01*
X19172875Y23562552D01*
X19145710Y23509236D01*
X19102445Y23465971D01*
X19042013Y23456400D01*
X18987496Y23484178D01*
X18969290Y23509236D01*
X18942124Y23562552D01*
X18817222Y23734465D01*
X18666964Y23884723D01*
X18495052Y24009625D01*
X18305715Y24106096D01*
X18103620Y24171760D01*
X18037500Y24182233D01*
X18037500Y23288012D01*
X17980493Y23320925D01*
X17853326Y23355000D01*
X17721674Y23355000D01*
X17594507Y23320925D01*
X17537500Y23288012D01*
X17537500Y24182232D01*
X17537499Y24182233D01*
X17471380Y24171760D01*
X17471378Y24171760D01*
X17269284Y24106096D01*
X17079947Y24009625D01*
X16908031Y23884720D01*
X16761158Y23737847D01*
X16706642Y23710070D01*
X16646210Y23719642D01*
X16602945Y23762906D01*
X16592722Y23797269D01*
X16591098Y23812371D01*
X16591096Y23812382D01*
X16540853Y23947089D01*
X16540852Y23947091D01*
X16454692Y24062185D01*
X16454684Y24062193D01*
X16339590Y24148353D01*
X16339588Y24148354D01*
X16204881Y24198597D01*
X16204870Y24198599D01*
X16145324Y24205000D01*
X15497501Y24205000D01*
X15497500Y24204999D01*
X15497500Y23288012D01*
X15440493Y23320925D01*
X15313326Y23355000D01*
X15181674Y23355000D01*
X15054507Y23320925D01*
X14997500Y23288012D01*
X14997500Y24204999D01*
X14997499Y24205000D01*
X14349676Y24205000D01*
X14290129Y24198599D01*
X14290118Y24198597D01*
X14155411Y24148354D01*
X14155409Y24148353D01*
X14040315Y24062193D01*
X14040307Y24062185D01*
X13954147Y23947091D01*
X13954146Y23947089D01*
X13903903Y23812382D01*
X13903901Y23812371D01*
X13897500Y23752825D01*
X13897500Y23105001D01*
X13897501Y23105000D01*
X14814488Y23105000D01*
X14781575Y23047993D01*
X14747500Y22920826D01*
X14747500Y22789174D01*
X14781575Y22662007D01*
X14814488Y22605000D01*
X13897501Y22605000D01*
X13897500Y22604999D01*
X13897500Y21957168D01*
X13898262Y21950086D01*
X13885686Y21890207D01*
X13840315Y21849157D01*
X13799830Y21840500D01*
X13643856Y21840500D01*
X13589297Y21825882D01*
X13554707Y21816613D01*
X13474791Y21770473D01*
X12283814Y20579496D01*
X12229297Y20551719D01*
X12213810Y20550500D01*
X7881356Y20550500D01*
X7843498Y20540356D01*
X7805639Y20530212D01*
X7805638Y20530213D01*
X7792214Y20526615D01*
X7712288Y20480470D01*
X5331312Y18099496D01*
X5276795Y18071719D01*
X5261308Y18070500D01*
X4972691Y18070500D01*
X4876567Y18055275D01*
X4876560Y18055273D01*
X4760708Y17996243D01*
X4668757Y17904292D01*
X4609726Y17788437D01*
X4609725Y17788435D01*
X4594500Y17692309D01*
X4594500Y17307692D01*
X4609725Y17211568D01*
X4609727Y17211561D01*
X4668757Y17095709D01*
X4668759Y17095706D01*
X4760706Y17003759D01*
X4760708Y17003758D01*
X4874492Y16945782D01*
X4876567Y16944725D01*
X4972693Y16929500D01*
X5261310Y16929501D01*
X5268907Y16927033D01*
X5276796Y16928282D01*
X5297450Y16917759D01*
X5319500Y16910594D01*
X5331313Y16900505D01*
X5420503Y16811316D01*
X5448281Y16756800D01*
X5449500Y16741312D01*
X5449500Y16699500D01*
X5430593Y16641309D01*
X5381093Y16605345D01*
X5350500Y16600500D01*
X4925326Y16600500D01*
X4925325Y16600500D01*
X4925315Y16600499D01*
X4852263Y16585967D01*
X4852257Y16585965D01*
X4769400Y16530603D01*
X4769399Y16530601D01*
X4714035Y16447743D01*
X4714033Y16447737D01*
X4699501Y16374685D01*
X4699500Y16374673D01*
X4699500Y16136190D01*
X4698584Y16133373D01*
X4699337Y16130507D01*
X4693219Y16116861D01*
X4680593Y16077999D01*
X4677120Y16073498D01*
X4673987Y16069670D01*
X4604978Y16000660D01*
X4574909Y15948579D01*
X4569810Y15942347D01*
X4550508Y15929951D01*
X4533455Y15914597D01*
X4518815Y15909413D01*
X4489711Y15901615D01*
X4409790Y15855471D01*
X4344529Y15790210D01*
X4298387Y15710291D01*
X4298386Y15710289D01*
X4298386Y15710288D01*
X4274500Y15621144D01*
X4075500Y15621144D01*
X4075500Y17848647D01*
X4094407Y17906838D01*
X4104496Y17918651D01*
X5488424Y19302579D01*
X5515316Y19329471D01*
X5580470Y19394625D01*
X5626614Y19474549D01*
X5630888Y19490500D01*
X5640566Y19526615D01*
X5647292Y19551719D01*
X5650500Y19563693D01*
X5650500Y19656288D01*
X5669407Y19714479D01*
X5694500Y19738604D01*
X5734597Y19765396D01*
X5734597Y19765397D01*
X5734601Y19765399D01*
X5789966Y19848260D01*
X5804500Y19921326D01*
X5804500Y20304500D01*
X5823407Y20362691D01*
X5872907Y20398655D01*
X5903500Y20403500D01*
X6400142Y20403500D01*
X6400144Y20403500D01*
X6489288Y20427386D01*
X6569212Y20473530D01*
X6780470Y20684788D01*
X6826614Y20764712D01*
X6827421Y20767727D01*
X6835646Y20798417D01*
X6841082Y20818710D01*
X6850500Y20853856D01*
X6850500Y20856288D01*
X6851038Y20857945D01*
X6851347Y20860290D01*
X6851781Y20860233D01*
X6869407Y20914479D01*
X6894500Y20938604D01*
X6934597Y20965396D01*
X6934597Y20965397D01*
X6934601Y20965399D01*
X6989966Y21048260D01*
X7004500Y21121326D01*
X7004500Y21678674D01*
X6989966Y21751740D01*
X6966675Y21786598D01*
X6934602Y21834600D01*
X6934599Y21834603D01*
X6851742Y21889965D01*
X6851740Y21889966D01*
X6851737Y21889967D01*
X6851736Y21889967D01*
X6778684Y21904499D01*
X6778674Y21904500D01*
X6221326Y21904500D01*
X6221325Y21904500D01*
X6221315Y21904499D01*
X6148263Y21889967D01*
X6148261Y21889967D01*
X6148260Y21889966D01*
X6148259Y21889966D01*
X6141185Y21887035D01*
X6135670Y21886602D01*
X6131101Y21883483D01*
X6103301Y21879500D01*
X5888699Y21879500D01*
X5850815Y21887035D01*
X5843742Y21889965D01*
X5843740Y21889966D01*
X5843736Y21889967D01*
X5770684Y21904499D01*
X5770674Y21904500D01*
X5221326Y21904500D01*
X5221325Y21904500D01*
X5221315Y21904499D01*
X5148263Y21889967D01*
X5148257Y21889965D01*
X5065400Y21834603D01*
X5065395Y21834598D01*
X5038604Y21794500D01*
X4990555Y21756619D01*
X4956288Y21750500D01*
X3571356Y21750500D01*
X3482212Y21726614D01*
X3436767Y21700376D01*
X3402285Y21680468D01*
X3078207Y21356391D01*
X3023691Y21328614D01*
X2963265Y21338182D01*
X2959945Y21339874D01*
X2959938Y21339877D01*
X2795206Y21393402D01*
X2795202Y21393403D01*
X2624114Y21420500D01*
X2624111Y21420500D01*
X2450889Y21420500D01*
X2450886Y21420500D01*
X2279797Y21393403D01*
X2279793Y21393402D01*
X2115061Y21339877D01*
X2115058Y21339875D01*
X1960714Y21261234D01*
X1820573Y21159415D01*
X1698085Y21036927D01*
X1596266Y20896786D01*
X1517625Y20742442D01*
X1517623Y20742439D01*
X1464098Y20577707D01*
X1464097Y20577703D01*
X1437000Y20406615D01*
X1437000Y20233386D01*
X1464097Y20062298D01*
X1464098Y20062294D01*
X1517623Y19897562D01*
X1517625Y19897559D01*
X1584964Y19765396D01*
X1596268Y19743212D01*
X1698086Y19603072D01*
X1820572Y19480586D01*
X1915635Y19411519D01*
X1951598Y19362020D01*
X1951598Y19300834D01*
X1915634Y19251334D01*
X1906945Y19245692D01*
X1845944Y19210472D01*
X1845942Y19210470D01*
X1107030Y18471558D01*
X1080421Y18425469D01*
X1071810Y18410554D01*
X1026339Y18369614D01*
X965489Y18363220D01*
X912501Y18393814D01*
X905986Y18401859D01*
X836914Y18496928D01*
X714428Y18619414D01*
X574288Y18721232D01*
X574287Y18721233D01*
X574285Y18721234D01*
X419941Y18799875D01*
X419938Y18799877D01*
X255206Y18853402D01*
X255202Y18853403D01*
X84114Y18880500D01*
X84111Y18880500D01*
X-89111Y18880500D01*
X-89114Y18880500D01*
X-260203Y18853403D01*
X-260207Y18853402D01*
X-424939Y18799877D01*
X-424942Y18799875D01*
X-579287Y18721234D01*
X-692309Y18639117D01*
X-750500Y18620210D01*
X-808691Y18639117D01*
X-844655Y18688617D01*
X-849500Y18719210D01*
X-849500Y19380791D01*
X-830593Y19438982D01*
X-781093Y19474946D01*
X-719907Y19474946D01*
X-692309Y19460883D01*
X-582073Y19380791D01*
X-579288Y19378768D01*
X-424945Y19300127D01*
X-424943Y19300127D01*
X-424942Y19300126D01*
X-424939Y19300124D01*
X-260207Y19246599D01*
X-260203Y19246598D01*
X-89114Y19219500D01*
X-89111Y19219500D01*
X84114Y19219500D01*
X255202Y19246598D01*
X255206Y19246599D01*
X419938Y19300124D01*
X419940Y19300126D01*
X419945Y19300127D01*
X574288Y19378768D01*
X714428Y19480586D01*
X836914Y19603072D01*
X938732Y19743212D01*
X1017373Y19897555D01*
X1017374Y19897560D01*
X1017376Y19897562D01*
X1070901Y20062294D01*
X1070902Y20062298D01*
X1098000Y20233386D01*
X1098000Y20406615D01*
X1070902Y20577703D01*
X1070901Y20577707D01*
X1017376Y20742439D01*
X1017374Y20742442D01*
X1017373Y20742443D01*
X1017373Y20742445D01*
X938732Y20896788D01*
X836914Y21036928D01*
X714428Y21159414D01*
X574288Y21261232D01*
X574287Y21261233D01*
X574285Y21261234D01*
X419941Y21339875D01*
X419938Y21339877D01*
X255206Y21393402D01*
X255202Y21393403D01*
X84114Y21420500D01*
X84111Y21420500D01*
X-89111Y21420500D01*
X-89114Y21420500D01*
X-260203Y21393403D01*
X-260207Y21393402D01*
X-424939Y21339877D01*
X-424942Y21339875D01*
X-579287Y21261234D01*
X-692309Y21179117D01*
X-750500Y21160210D01*
X-808691Y21179117D01*
X-844655Y21228617D01*
X-849500Y21259210D01*
X-849500Y21920791D01*
X-830593Y21978982D01*
X-781093Y22014946D01*
X-719907Y22014946D01*
X-692309Y22000883D01*
X-582073Y21920791D01*
X-579288Y21918768D01*
X-424945Y21840127D01*
X-424943Y21840127D01*
X-424942Y21840126D01*
X-424939Y21840124D01*
X-260207Y21786599D01*
X-260203Y21786598D01*
X-89114Y21759500D01*
X-89111Y21759500D01*
X84114Y21759500D01*
X255202Y21786598D01*
X255206Y21786599D01*
X419938Y21840124D01*
X419940Y21840126D01*
X419945Y21840127D01*
X574288Y21918768D01*
X714428Y22020586D01*
X836914Y22143072D01*
X938732Y22283212D01*
X1017373Y22437555D01*
X1017374Y22437560D01*
X1017376Y22437562D01*
X1070901Y22602294D01*
X1070902Y22602298D01*
X1098000Y22773386D01*
X1098000Y22946615D01*
X1070902Y23117703D01*
X1070901Y23117707D01*
X1017376Y23282439D01*
X1017374Y23282442D01*
X1017373Y23282443D01*
X1017373Y23282445D01*
X938732Y23436788D01*
X836914Y23576928D01*
X714428Y23699414D01*
X685532Y23720409D01*
X649569Y23769908D01*
X649569Y23831093D01*
X685533Y23880593D01*
X743724Y23899500D01*
X1791276Y23899500D01*
X1849467Y23880593D01*
X1885431Y23831093D01*
X1885431Y23769907D01*
X1849467Y23720409D01*
X1835239Y23710070D01*
X1820573Y23699415D01*
X1698085Y23576927D01*
X1596266Y23436786D01*
X1517625Y23282442D01*
X1517623Y23282439D01*
X1464098Y23117707D01*
X1464097Y23117703D01*
X1437000Y22946615D01*
X1437000Y22773386D01*
X1464097Y22602298D01*
X1464098Y22602294D01*
X1517623Y22437562D01*
X1517625Y22437559D01*
X1593581Y22288484D01*
X1596268Y22283212D01*
X1698086Y22143072D01*
X1820572Y22020586D01*
X1960712Y21918768D01*
X2115055Y21840127D01*
X2115057Y21840127D01*
X2115058Y21840126D01*
X2115061Y21840124D01*
X2279793Y21786599D01*
X2279797Y21786598D01*
X2450886Y21759500D01*
X2450889Y21759500D01*
X2624114Y21759500D01*
X2795202Y21786598D01*
X2795206Y21786599D01*
X2959938Y21840124D01*
X2959940Y21840126D01*
X2959945Y21840127D01*
X3114288Y21918768D01*
X3254428Y22020586D01*
X3376914Y22143072D01*
X3478732Y22283212D01*
X3557373Y22437555D01*
X3557374Y22437560D01*
X3557376Y22437562D01*
X3610901Y22602294D01*
X3610902Y22602298D01*
X3636828Y22765987D01*
X3664605Y22820504D01*
X3719122Y22848281D01*
X3734609Y22849500D01*
X4500500Y22849500D01*
X4558691Y22830593D01*
X4594655Y22781093D01*
X4599500Y22750500D01*
X4599500Y22425328D01*
X4599501Y22425316D01*
X4614033Y22352264D01*
X4614035Y22352258D01*
X4669397Y22269401D01*
X4669400Y22269398D01*
X4710468Y22241958D01*
X4752260Y22214034D01*
X4807808Y22202985D01*
X4825315Y22199502D01*
X4825320Y22199502D01*
X4825326Y22199500D01*
X4825327Y22199500D01*
X5874673Y22199500D01*
X5874674Y22199500D01*
X5947740Y22214034D01*
X5947746Y22214039D01*
X5956752Y22217767D01*
X5957586Y22215752D01*
X5959633Y22216330D01*
X5972200Y22224904D01*
X5988339Y22224428D01*
X6003880Y22228811D01*
X6020276Y22223484D01*
X6033359Y22223097D01*
X6041989Y22216429D01*
X6042610Y22216227D01*
X6043248Y22217767D01*
X6052255Y22214038D01*
X6052260Y22214034D01*
X6107808Y22202985D01*
X6125315Y22199502D01*
X6125320Y22199502D01*
X6125326Y22199500D01*
X6125327Y22199500D01*
X7174673Y22199500D01*
X7174674Y22199500D01*
X7247740Y22214034D01*
X7330601Y22269399D01*
X7385966Y22352260D01*
X7400500Y22425326D01*
X7400500Y23974674D01*
X7385966Y24047740D01*
X7365922Y24077738D01*
X7330602Y24130600D01*
X7330599Y24130603D01*
X7247742Y24185965D01*
X7247740Y24185966D01*
X7247737Y24185967D01*
X7247736Y24185967D01*
X7174684Y24200499D01*
X7174674Y24200500D01*
X7174673Y24200500D01*
X6636190Y24200500D01*
X6577999Y24219407D01*
X6566187Y24229496D01*
X6324619Y24471063D01*
X6296841Y24525580D01*
X6306412Y24586012D01*
X6349677Y24629277D01*
X6394735Y24640066D01*
X9168253Y24636765D01*
G37*
G04 #@! TD.AperFunction*
G04 #@! TD*
M02*
