G04 #@! TF.GenerationSoftware,KiCad,Pcbnew,9.0.4*
G04 #@! TF.CreationDate,2025-08-20T18:41:51-04:00*
G04 #@! TF.ProjectId,tac5212_audio_board_single_ended,74616335-3231-4325-9f61-7564696f5f62,rev?*
G04 #@! TF.SameCoordinates,Original*
G04 #@! TF.FileFunction,Copper,L1,Top*
G04 #@! TF.FilePolarity,Positive*
%FSLAX46Y46*%
G04 Gerber Fmt 4.6, Leading zero omitted, Abs format (unit mm)*
G04 Created by KiCad (PCBNEW 9.0.4) date 2025-08-20 18:41:51*
%MOMM*%
%LPD*%
G01*
G04 APERTURE LIST*
G04 Aperture macros list*
%AMRoundRect*
0 Rectangle with rounded corners*
0 $1 Rounding radius*
0 $2 $3 $4 $5 $6 $7 $8 $9 X,Y pos of 4 corners*
0 Add a 4 corners polygon primitive as box body*
4,1,4,$2,$3,$4,$5,$6,$7,$8,$9,$2,$3,0*
0 Add four circle primitives for the rounded corners*
1,1,$1+$1,$2,$3*
1,1,$1+$1,$4,$5*
1,1,$1+$1,$6,$7*
1,1,$1+$1,$8,$9*
0 Add four rect primitives between the rounded corners*
20,1,$1+$1,$2,$3,$4,$5,0*
20,1,$1+$1,$4,$5,$6,$7,0*
20,1,$1+$1,$6,$7,$8,$9,0*
20,1,$1+$1,$8,$9,$2,$3,0*%
%AMRotRect*
0 Rectangle, with rotation*
0 The origin of the aperture is its center*
0 $1 length*
0 $2 width*
0 $3 Rotation angle, in degrees counterclockwise*
0 Add horizontal line*
21,1,$1,$2,0,0,$3*%
G04 Aperture macros list end*
G04 #@! TA.AperFunction,EtchedComponent*
%ADD10C,0.000000*%
G04 #@! TD*
G04 #@! TA.AperFunction,SMDPad,CuDef*
%ADD11RoundRect,0.160000X-0.252791X0.026517X0.026517X-0.252791X0.252791X-0.026517X-0.026517X0.252791X0*%
G04 #@! TD*
G04 #@! TA.AperFunction,SMDPad,CuDef*
%ADD12RoundRect,0.135000X-0.226274X-0.035355X-0.035355X-0.226274X0.226274X0.035355X0.035355X0.226274X0*%
G04 #@! TD*
G04 #@! TA.AperFunction,ComponentPad*
%ADD13R,1.700000X1.700000*%
G04 #@! TD*
G04 #@! TA.AperFunction,ComponentPad*
%ADD14O,1.700000X1.700000*%
G04 #@! TD*
G04 #@! TA.AperFunction,ComponentPad*
%ADD15C,3.200000*%
G04 #@! TD*
G04 #@! TA.AperFunction,ComponentPad*
%ADD16C,0.500000*%
G04 #@! TD*
G04 #@! TA.AperFunction,SMDPad,CuDef*
%ADD17R,1.000000X1.000000*%
G04 #@! TD*
G04 #@! TA.AperFunction,SMDPad,CuDef*
%ADD18RoundRect,0.250000X0.337500X0.475000X-0.337500X0.475000X-0.337500X-0.475000X0.337500X-0.475000X0*%
G04 #@! TD*
G04 #@! TA.AperFunction,SMDPad,CuDef*
%ADD19RoundRect,0.160000X0.026517X0.252791X-0.252791X-0.026517X-0.026517X-0.252791X0.252791X0.026517X0*%
G04 #@! TD*
G04 #@! TA.AperFunction,SMDPad,CuDef*
%ADD20RoundRect,0.140000X0.219203X0.021213X0.021213X0.219203X-0.219203X-0.021213X-0.021213X-0.219203X0*%
G04 #@! TD*
G04 #@! TA.AperFunction,SMDPad,CuDef*
%ADD21RoundRect,0.250000X0.574524X0.097227X0.097227X0.574524X-0.574524X-0.097227X-0.097227X-0.574524X0*%
G04 #@! TD*
G04 #@! TA.AperFunction,SMDPad,CuDef*
%ADD22RoundRect,0.150000X0.512500X0.150000X-0.512500X0.150000X-0.512500X-0.150000X0.512500X-0.150000X0*%
G04 #@! TD*
G04 #@! TA.AperFunction,SMDPad,CuDef*
%ADD23RoundRect,0.135000X-0.185000X0.135000X-0.185000X-0.135000X0.185000X-0.135000X0.185000X0.135000X0*%
G04 #@! TD*
G04 #@! TA.AperFunction,SMDPad,CuDef*
%ADD24R,0.508000X0.500000*%
G04 #@! TD*
G04 #@! TA.AperFunction,SMDPad,CuDef*
%ADD25R,0.508000X0.508000*%
G04 #@! TD*
G04 #@! TA.AperFunction,SMDPad,CuDef*
%ADD26RoundRect,0.237500X0.237500X-0.300000X0.237500X0.300000X-0.237500X0.300000X-0.237500X-0.300000X0*%
G04 #@! TD*
G04 #@! TA.AperFunction,SMDPad,CuDef*
%ADD27RoundRect,0.140000X-0.021213X0.219203X-0.219203X0.021213X0.021213X-0.219203X0.219203X-0.021213X0*%
G04 #@! TD*
G04 #@! TA.AperFunction,SMDPad,CuDef*
%ADD28RoundRect,0.250000X-0.097227X0.574524X-0.574524X0.097227X0.097227X-0.574524X0.574524X-0.097227X0*%
G04 #@! TD*
G04 #@! TA.AperFunction,SMDPad,CuDef*
%ADD29RoundRect,0.250000X-0.450000X0.325000X-0.450000X-0.325000X0.450000X-0.325000X0.450000X0.325000X0*%
G04 #@! TD*
G04 #@! TA.AperFunction,SMDPad,CuDef*
%ADD30RoundRect,0.062500X-0.185616X-0.274004X0.274004X0.185616X0.185616X0.274004X-0.274004X-0.185616X0*%
G04 #@! TD*
G04 #@! TA.AperFunction,SMDPad,CuDef*
%ADD31RoundRect,0.062500X0.185616X-0.274004X0.274004X-0.185616X-0.185616X0.274004X-0.274004X0.185616X0*%
G04 #@! TD*
G04 #@! TA.AperFunction,SMDPad,CuDef*
%ADD32RotRect,2.100000X2.100000X45.000000*%
G04 #@! TD*
G04 #@! TA.AperFunction,SMDPad,CuDef*
%ADD33RoundRect,0.062500X0.000000X-0.088388X0.088388X0.000000X0.000000X0.088388X-0.088388X0.000000X0*%
G04 #@! TD*
G04 #@! TA.AperFunction,SMDPad,CuDef*
%ADD34RotRect,0.508000X0.508000X315.000000*%
G04 #@! TD*
G04 #@! TA.AperFunction,SMDPad,CuDef*
%ADD35R,0.954000X1.000000*%
G04 #@! TD*
G04 #@! TA.AperFunction,SMDPad,CuDef*
%ADD36RoundRect,0.237500X-0.300000X-0.237500X0.300000X-0.237500X0.300000X0.237500X-0.300000X0.237500X0*%
G04 #@! TD*
G04 #@! TA.AperFunction,SMDPad,CuDef*
%ADD37RoundRect,0.135000X-0.135000X-0.185000X0.135000X-0.185000X0.135000X0.185000X-0.135000X0.185000X0*%
G04 #@! TD*
G04 #@! TA.AperFunction,SMDPad,CuDef*
%ADD38RoundRect,0.237500X-0.044194X-0.380070X0.380070X0.044194X0.044194X0.380070X-0.380070X-0.044194X0*%
G04 #@! TD*
G04 #@! TA.AperFunction,SMDPad,CuDef*
%ADD39RoundRect,0.135000X0.135000X0.185000X-0.135000X0.185000X-0.135000X-0.185000X0.135000X-0.185000X0*%
G04 #@! TD*
G04 #@! TA.AperFunction,SMDPad,CuDef*
%ADD40C,0.200000*%
G04 #@! TD*
G04 #@! TA.AperFunction,SMDPad,CuDef*
%ADD41RoundRect,0.160000X0.197500X0.160000X-0.197500X0.160000X-0.197500X-0.160000X0.197500X-0.160000X0*%
G04 #@! TD*
G04 #@! TA.AperFunction,SMDPad,CuDef*
%ADD42RoundRect,0.135000X0.226274X0.035355X0.035355X0.226274X-0.226274X-0.035355X-0.035355X-0.226274X0*%
G04 #@! TD*
G04 #@! TA.AperFunction,ComponentPad*
%ADD43R,0.500000X0.500000*%
G04 #@! TD*
G04 #@! TA.AperFunction,ViaPad*
%ADD44C,0.450000*%
G04 #@! TD*
G04 #@! TA.AperFunction,ViaPad*
%ADD45C,0.800000*%
G04 #@! TD*
G04 #@! TA.AperFunction,Conductor*
%ADD46C,0.200000*%
G04 #@! TD*
G04 #@! TA.AperFunction,Conductor*
%ADD47C,0.500000*%
G04 #@! TD*
G04 #@! TA.AperFunction,Conductor*
%ADD48C,0.750000*%
G04 #@! TD*
G04 #@! TA.AperFunction,Conductor*
%ADD49C,0.250000*%
G04 #@! TD*
G04 APERTURE END LIST*
G04 #@! TA.AperFunction,EtchedComponent*
G04 #@! TO.C,E108*
G36*
X12671000Y22621000D02*
G01*
X13129000Y22621000D01*
X13129000Y23196000D01*
X12671000Y23196000D01*
X12671000Y22621000D01*
G37*
G04 #@! TD.AperFunction*
G04 #@! TA.AperFunction,EtchedComponent*
G04 #@! TO.C,E109*
G36*
X35071000Y22621000D02*
G01*
X35529000Y22621000D01*
X35529000Y23196000D01*
X35071000Y23196000D01*
X35071000Y22621000D01*
G37*
G04 #@! TD.AperFunction*
D10*
G04 #@! TA.AperFunction,EtchedComponent*
G04 #@! TO.C,5V108*
G36*
X6225000Y1100000D02*
G01*
X5975000Y1100000D01*
X5975000Y1500000D01*
X6225000Y1500000D01*
X6225000Y1100000D01*
G37*
G04 #@! TD.AperFunction*
G04 #@! TA.AperFunction,EtchedComponent*
G04 #@! TO.C,G118*
G36*
X35171000Y-279000D02*
G01*
X35629000Y-279000D01*
X35629000Y296000D01*
X35171000Y296000D01*
X35171000Y-279000D01*
G37*
G04 #@! TD.AperFunction*
G04 #@! TA.AperFunction,EtchedComponent*
G04 #@! TO.C,NT109*
G36*
X18025000Y12900000D02*
G01*
X17575000Y12900000D01*
X17575000Y13100000D01*
X18025000Y13100000D01*
X18025000Y12900000D01*
G37*
G04 #@! TD.AperFunction*
G04 #@! TA.AperFunction,EtchedComponent*
G04 #@! TO.C,G117*
G36*
X12471000Y321000D02*
G01*
X12929000Y321000D01*
X12929000Y896000D01*
X12471000Y896000D01*
X12471000Y321000D01*
G37*
G04 #@! TD.AperFunction*
G04 #@! TD*
D11*
G04 #@! TO.P,R113,1*
G04 #@! TO.N,GPIO2*
X27222496Y7777504D03*
G04 #@! TO.P,R113,2*
G04 #@! TO.N,Net-(TAC5212-GPIO2)*
X26377504Y8622496D03*
G04 #@! TD*
D12*
G04 #@! TO.P,R121,1*
G04 #@! TO.N,5212_SCL*
X23239376Y5560624D03*
G04 #@! TO.P,R121,2*
G04 #@! TO.N,Net-(PU_EN108-Pad1)*
X23960624Y4839376D03*
G04 #@! TD*
D13*
G04 #@! TO.P,board_outline108,1,HELD_HIGH*
G04 #@! TO.N,EN_HELD_HIGH*
X2537500Y0D03*
D14*
G04 #@! TO.P,board_outline108,2,HELD_LOW*
G04 #@! TO.N,unconnected-(board_outline108-HELD_LOW-Pad2)*
X-2500Y0D03*
G04 #@! TO.P,board_outline108,3,5V*
G04 #@! TO.N,Net-(5V108-Pad2)*
X2537500Y2540000D03*
G04 #@! TO.P,board_outline108,4,GNDD*
G04 #@! TO.N,3.3v_IDE*
X-2500Y2540000D03*
G04 #@! TO.P,board_outline108,5,12V*
G04 #@! TO.N,unconnected-(board_outline108-12V-Pad5)*
X2537500Y5080000D03*
G04 #@! TO.P,board_outline108,6,GNDD*
G04 #@! TO.N,GNDD*
X-2500Y5080000D03*
G04 #@! TO.P,board_outline108,7,DSP_DOUT*
G04 #@! TO.N,5212_DIN1*
X2537500Y7620000D03*
G04 #@! TO.P,board_outline108,8,GNDD*
G04 #@! TO.N,GNDD*
X-2500Y7620000D03*
G04 #@! TO.P,board_outline108,9,DSP_DIN*
G04 #@! TO.N,5212_DOUT1+*
X2537500Y10160000D03*
G04 #@! TO.P,board_outline108,10,GNDD*
G04 #@! TO.N,GNDD*
X-2500Y10160000D03*
G04 #@! TO.P,board_outline108,11,BCLK*
G04 #@! TO.N,5212_BCLK1*
X2537500Y12700000D03*
G04 #@! TO.P,board_outline108,12,GNDD*
G04 #@! TO.N,GNDD*
X-2500Y12700000D03*
G04 #@! TO.P,board_outline108,13,LRCK*
G04 #@! TO.N,5212_LRCK1*
X2537500Y15240000D03*
G04 #@! TO.P,board_outline108,14,GNDD*
G04 #@! TO.N,GNDD*
X-2500Y15240000D03*
G04 #@! TO.P,board_outline108,15,SDA*
G04 #@! TO.N,DSP_SDA*
X2537500Y17780000D03*
G04 #@! TO.P,board_outline108,16,GNDD*
G04 #@! TO.N,GNDD*
X-2500Y17780000D03*
G04 #@! TO.P,board_outline108,17,SCL*
G04 #@! TO.N,DSP_SCL*
X2537500Y20320000D03*
G04 #@! TO.P,board_outline108,18,GNDD*
G04 #@! TO.N,GNDD*
X-2500Y20320000D03*
G04 #@! TO.P,board_outline108,19,MCLK*
G04 #@! TO.N,5212_MCLK1*
X2537500Y22860000D03*
G04 #@! TO.P,board_outline108,20,GNDD*
G04 #@! TO.N,GNDD*
X-2500Y22860000D03*
D13*
G04 #@! TO.P,board_outline108,21,OUTP*
G04 #@! TO.N,OUT1P+*
X15247500Y20315000D03*
G04 #@! TO.P,board_outline108,22,AGND*
G04 #@! TO.N,Earth*
X15247500Y22855000D03*
D14*
G04 #@! TO.P,board_outline108,23,OUT1M*
G04 #@! TO.N,OUT1M+*
X17787500Y20315000D03*
G04 #@! TO.P,board_outline108,24,AGND*
G04 #@! TO.N,Earth*
X17787500Y22855000D03*
G04 #@! TO.P,board_outline108,25,OUT2P*
G04 #@! TO.N,OUT2P+*
X20327500Y20315000D03*
G04 #@! TO.P,board_outline108,26,AGND*
G04 #@! TO.N,Earth*
X20327500Y22855000D03*
G04 #@! TO.P,board_outline108,27,OUT2M*
G04 #@! TO.N,OUT2M+*
X22867500Y20315000D03*
G04 #@! TO.P,board_outline108,28,AGND*
G04 #@! TO.N,Earth*
X22867500Y22855000D03*
G04 #@! TO.P,board_outline108,29,IN1P*
G04 #@! TO.N,IN1P+*
X25407500Y20315000D03*
G04 #@! TO.P,board_outline108,30,AGND*
G04 #@! TO.N,Earth*
X25407500Y22855000D03*
G04 #@! TO.P,board_outline108,31,IN1M*
G04 #@! TO.N,IN1M+*
X27947500Y20315000D03*
G04 #@! TO.P,board_outline108,32,AGND*
G04 #@! TO.N,Earth*
X27947500Y22855000D03*
G04 #@! TO.P,board_outline108,33,IN2P*
G04 #@! TO.N,IN2P+*
X30487500Y20315000D03*
G04 #@! TO.P,board_outline108,34,AGND*
G04 #@! TO.N,Earth*
X30487500Y22855000D03*
G04 #@! TO.P,board_outline108,35,IN2M*
G04 #@! TO.N,IN2M+*
X33027500Y20315000D03*
G04 #@! TO.P,board_outline108,36,AGND*
G04 #@! TO.N,Earth*
X33027500Y22855000D03*
D13*
G04 #@! TO.P,board_outline108,37,SCL*
G04 #@! TO.N,5212_SCL*
X15247500Y-5000D03*
D14*
G04 #@! TO.P,board_outline108,38,SDA*
G04 #@! TO.N,5212_SDA*
X17787500Y-5000D03*
G04 #@! TO.P,board_outline108,39,GNDD*
G04 #@! TO.N,GNDD*
X20327500Y-5000D03*
G04 #@! TO.P,board_outline108,40,GPIO1*
G04 #@! TO.N,GPIO1*
X22867500Y-5000D03*
G04 #@! TO.P,board_outline108,41,GPIO2*
G04 #@! TO.N,GPIO2*
X25407500Y-5000D03*
G04 #@! TO.P,board_outline108,42,GPO1*
G04 #@! TO.N,GPO1*
X27947500Y-5000D03*
G04 #@! TO.P,board_outline108,43,GPI1*
G04 #@! TO.N,GPI1*
X30487500Y-5000D03*
G04 #@! TO.P,board_outline108,44,GNDD*
G04 #@! TO.N,GNDD*
X33027500Y-5000D03*
G04 #@! TO.P,board_outline108,45,5V*
G04 #@! TO.N,5V*
X38092500Y5075000D03*
G04 #@! TO.P,board_outline108,46,3.3V*
G04 #@! TO.N,3.3V_LDO*
X38092500Y7615000D03*
G04 #@! TO.P,board_outline108,47,GNDD*
G04 #@! TO.N,GNDD*
X38092500Y10155000D03*
G04 #@! TO.P,board_outline108,48,MIC_BIAS*
G04 #@! TO.N,MICBIAS*
X35552500Y20315000D03*
D15*
G04 #@! TO.P,board_outline108,49,AGND*
G04 #@! TO.N,Net-(E108-Pad2)*
X10152500Y22855000D03*
G04 #@! TO.P,board_outline108,50,AGND*
G04 #@! TO.N,Net-(E109-Pad2)*
X38092500Y22855000D03*
G04 #@! TO.P,board_outline108,51,DGND*
G04 #@! TO.N,Net-(G117-Pad1)*
X10152500Y-5000D03*
G04 #@! TO.P,board_outline108,52,DGND*
G04 #@! TO.N,Net-(G118-Pad1)*
X38092500Y-5000D03*
G04 #@! TD*
D16*
G04 #@! TO.P,G110,1,1*
G04 #@! TO.N,Earth*
X30300000Y8600000D03*
G04 #@! TD*
D17*
G04 #@! TO.P,ADD108,1,1*
G04 #@! TO.N,GNDD*
X30200000Y11000000D03*
G04 #@! TO.P,ADD108,2,2*
G04 #@! TO.N,Net-(TAC5212-ADDR)*
X30200000Y12300000D03*
G04 #@! TD*
D11*
G04 #@! TO.P,R112,1*
G04 #@! TO.N,GPO1*
X28022496Y8577504D03*
G04 #@! TO.P,R112,2*
G04 #@! TO.N,Net-(TAC5212-GPO1)*
X27177504Y9422496D03*
G04 #@! TD*
D18*
G04 #@! TO.P,C111,1*
G04 #@! TO.N,3.3v_IDE*
X19237500Y4400000D03*
G04 #@! TO.P,C111,2*
G04 #@! TO.N,GNDD*
X17162500Y4400000D03*
G04 #@! TD*
D11*
G04 #@! TO.P,R114,1*
G04 #@! TO.N,GPIO1*
X26422496Y6977504D03*
G04 #@! TO.P,R114,2*
G04 #@! TO.N,Net-(TAC5212-GPIO1)*
X25577504Y7822496D03*
G04 #@! TD*
D19*
G04 #@! TO.P,R115,1*
G04 #@! TO.N,5212_LRCK1*
X18645334Y7891296D03*
G04 #@! TO.P,R115,2*
G04 #@! TO.N,Net-(TAC5212-FSYNC)*
X19490326Y8736288D03*
G04 #@! TD*
D17*
G04 #@! TO.P,ADD112,1,1*
G04 #@! TO.N,Net-(ADD112-Pad1)*
X31800000Y11000000D03*
G04 #@! TO.P,ADD112,2,2*
G04 #@! TO.N,Net-(TAC5212-ADDR)*
X31800000Y12300000D03*
G04 #@! TD*
D20*
G04 #@! TO.P,C109,1*
G04 #@! TO.N,3.3V_THIN*
X18739411Y13460589D03*
G04 #@! TO.P,C109,2*
G04 #@! TO.N,Earth*
X18060589Y14139411D03*
G04 #@! TD*
D17*
G04 #@! TO.P,ADD110,1,1*
G04 #@! TO.N,Net-(ADD110-Pad1)*
X33400000Y11000000D03*
G04 #@! TO.P,ADD110,2,2*
G04 #@! TO.N,Net-(TAC5212-ADDR)*
X33400000Y12300000D03*
G04 #@! TD*
D21*
G04 #@! TO.P,C115,1*
G04 #@! TO.N,Net-(TAC5212-DREG)*
X15333623Y8166377D03*
G04 #@! TO.P,C115,2*
G04 #@! TO.N,GNDD*
X13866377Y9633623D03*
G04 #@! TD*
D16*
G04 #@! TO.P,G109,1,1*
G04 #@! TO.N,Earth*
X12400000Y5400000D03*
G04 #@! TD*
G04 #@! TO.P,G112,1,1*
G04 #@! TO.N,Earth*
X31600000Y8600000D03*
G04 #@! TD*
D22*
G04 #@! TO.P,U108,1,OE*
G04 #@! TO.N,GNDD*
X10337500Y6550000D03*
G04 #@! TO.P,U108,2,A*
G04 #@! TO.N,5212_DOUT1*
X10337500Y7500000D03*
G04 #@! TO.P,U108,3,GND*
G04 #@! TO.N,GNDD*
X10337500Y8450000D03*
G04 #@! TO.P,U108,4,Y*
G04 #@! TO.N,Net-(U108-Y)*
X8062500Y8450000D03*
G04 #@! TO.P,U108,5,VCC*
G04 #@! TO.N,3.3v_IDE*
X8062500Y6550000D03*
G04 #@! TD*
D19*
G04 #@! TO.P,R118,1*
G04 #@! TO.N,5212_DIN1*
X19988837Y6547793D03*
G04 #@! TO.P,R118,2*
G04 #@! TO.N,Net-(TAC5212-DIN)*
X20833829Y7392785D03*
G04 #@! TD*
D16*
G04 #@! TO.P,G111,1,1*
G04 #@! TO.N,Earth*
X5200000Y4400000D03*
G04 #@! TD*
G04 #@! TO.P,G113,1,1*
G04 #@! TO.N,Earth*
X15400000Y4200000D03*
G04 #@! TD*
D23*
G04 #@! TO.P,R126,1*
G04 #@! TO.N,3.3V_LDO*
X35400000Y6210000D03*
G04 #@! TO.P,R126,2*
G04 #@! TO.N,Net-(D116-A)*
X35400000Y5190000D03*
G04 #@! TD*
D24*
G04 #@! TO.P,E108,1,1*
G04 #@! TO.N,Earth*
X12900000Y22396000D03*
D25*
G04 #@! TO.P,E108,2,2*
G04 #@! TO.N,Net-(E108-Pad2)*
X12900000Y23400000D03*
G04 #@! TD*
D26*
G04 #@! TO.P,C118,1*
G04 #@! TO.N,MICBIAS*
X38400000Y17937500D03*
G04 #@! TO.P,C118,2*
G04 #@! TO.N,Earth*
X38400000Y19662500D03*
G04 #@! TD*
D27*
G04 #@! TO.P,C116,1*
G04 #@! TO.N,Net-(TAC5212-DREG)*
X17939411Y10339411D03*
G04 #@! TO.P,C116,2*
G04 #@! TO.N,GNDD*
X17260589Y9660589D03*
G04 #@! TD*
D28*
G04 #@! TO.P,C108,1*
G04 #@! TO.N,3.3V_THIN*
X15933623Y13433623D03*
G04 #@! TO.P,C108,2*
G04 #@! TO.N,Earth*
X14466377Y11966377D03*
G04 #@! TD*
D29*
G04 #@! TO.P,D116,1,K*
G04 #@! TO.N,GNDD*
X33375000Y6350000D03*
G04 #@! TO.P,D116,2,A*
G04 #@! TO.N,Net-(D116-A)*
X33375000Y4300000D03*
G04 #@! TD*
D30*
G04 #@! TO.P,TAC5212,1,DREG*
G04 #@! TO.N,Net-(TAC5212-DREG)*
X20679775Y10692995D03*
G04 #@! TO.P,TAC5212,2,BCLK*
G04 #@! TO.N,Net-(TAC5212-BCLK)*
X21033328Y10339441D03*
G04 #@! TO.P,TAC5212,3,FSYNC*
G04 #@! TO.N,Net-(TAC5212-FSYNC)*
X21386882Y9985888D03*
G04 #@! TO.P,TAC5212,4,DOUT*
G04 #@! TO.N,Net-(TAC5212-DOUT)*
X21740435Y9632335D03*
G04 #@! TO.P,TAC5212,5,DIN*
G04 #@! TO.N,Net-(TAC5212-DIN)*
X22093988Y9278781D03*
G04 #@! TO.P,TAC5212,6,IOVDD*
G04 #@! TO.N,3.3v_IDE*
X22447542Y8925228D03*
D31*
G04 #@! TO.P,TAC5212,7,SCL*
G04 #@! TO.N,5212_SCL*
X23490524Y8925228D03*
G04 #@! TO.P,TAC5212,8,SDA*
G04 #@! TO.N,5212_SDA*
X23844078Y9278781D03*
G04 #@! TO.P,TAC5212,9,GPIO1*
G04 #@! TO.N,Net-(TAC5212-GPIO1)*
X24197631Y9632335D03*
G04 #@! TO.P,TAC5212,10,GPIO2*
G04 #@! TO.N,Net-(TAC5212-GPIO2)*
X24551184Y9985888D03*
G04 #@! TO.P,TAC5212,11,GPO1*
G04 #@! TO.N,Net-(TAC5212-GPO1)*
X24904738Y10339441D03*
G04 #@! TO.P,TAC5212,12,GPI1*
G04 #@! TO.N,Net-(TAC5212-GPI1)*
X25258291Y10692995D03*
D30*
G04 #@! TO.P,TAC5212,13,ADDR*
G04 #@! TO.N,Net-(TAC5212-ADDR)*
X25258291Y11735977D03*
G04 #@! TO.P,TAC5212,14,MICBIAS*
G04 #@! TO.N,MICBIAS*
X24904738Y12089531D03*
G04 #@! TO.P,TAC5212,15,IN1P*
G04 #@! TO.N,IN1P*
X24551184Y12443084D03*
G04 #@! TO.P,TAC5212,16,IN1M*
G04 #@! TO.N,IN1M*
X24197631Y12796637D03*
G04 #@! TO.P,TAC5212,17,IN2P*
G04 #@! TO.N,IN2P*
X23844078Y13150191D03*
G04 #@! TO.P,TAC5212,18,IN2M*
G04 #@! TO.N,IN2M*
X23490524Y13503744D03*
D31*
G04 #@! TO.P,TAC5212,19,OUT1M*
G04 #@! TO.N,OUT1M*
X22447542Y13503744D03*
G04 #@! TO.P,TAC5212,20,OUT1P*
G04 #@! TO.N,OUT1P*
X22093988Y13150191D03*
G04 #@! TO.P,TAC5212,21,OUT2P*
G04 #@! TO.N,OUT2P*
X21740435Y12796637D03*
G04 #@! TO.P,TAC5212,22,OUT2M*
G04 #@! TO.N,OUT2M*
X21386882Y12443084D03*
G04 #@! TO.P,TAC5212,23,AVDD*
G04 #@! TO.N,3.3V_THIN*
X21033328Y12089531D03*
G04 #@! TO.P,TAC5212,24,VREF*
G04 #@! TO.N,Net-(TAC5212-VREF)*
X20679775Y11735977D03*
D16*
G04 #@! TO.P,TAC5212,25,VSS*
G04 #@! TO.N,GNDD*
X22474058Y10719511D03*
X22474058Y11709461D03*
X22969033Y11214486D03*
D32*
X22969033Y11214486D03*
D16*
X23464008Y10719511D03*
X23464008Y11709461D03*
D33*
G04 #@! TO.P,TAC5212,A1,VSS*
X20536586Y11214486D03*
G04 #@! TO.P,TAC5212,A2,VSS*
X22969033Y8782039D03*
G04 #@! TO.P,TAC5212,A3,VSS*
X25401480Y11214486D03*
G04 #@! TO.P,TAC5212,A4,VSS*
X22969033Y13646933D03*
G04 #@! TD*
D27*
G04 #@! TO.P,C112,1*
G04 #@! TO.N,3.3v_IDE*
X21739411Y6339411D03*
G04 #@! TO.P,C112,2*
G04 #@! TO.N,GNDD*
X21060589Y5660589D03*
G04 #@! TD*
D24*
G04 #@! TO.P,E109,1,1*
G04 #@! TO.N,Earth*
X35300000Y22396000D03*
D25*
G04 #@! TO.P,E109,2,2*
G04 #@! TO.N,Net-(E109-Pad2)*
X35300000Y23400000D03*
G04 #@! TD*
D17*
G04 #@! TO.P,ADD111,1,1*
G04 #@! TO.N,Net-(ADD111-Pad1)*
X35000000Y11000000D03*
G04 #@! TO.P,ADD111,2,2*
G04 #@! TO.N,Net-(TAC5212-ADDR)*
X35000000Y12300000D03*
G04 #@! TD*
D34*
G04 #@! TO.P,DOUT108,1,1*
G04 #@! TO.N,5212_DOUT1*
X12853553Y6846447D03*
G04 #@! TO.P,DOUT108,2,2*
G04 #@! TO.N,5212_DOUT1+*
X12146447Y7553553D03*
G04 #@! TD*
D11*
G04 #@! TO.P,R110,1*
G04 #@! TO.N,GPI1*
X28822496Y9377504D03*
G04 #@! TO.P,R110,2*
G04 #@! TO.N,Net-(TAC5212-GPI1)*
X27977504Y10222496D03*
G04 #@! TD*
D35*
G04 #@! TO.P,5V108,1,1*
G04 #@! TO.N,5V*
X6677000Y1300000D03*
G04 #@! TO.P,5V108,2,2*
G04 #@! TO.N,Net-(5V108-Pad2)*
X5525013Y1299999D03*
G04 #@! TD*
D36*
G04 #@! TO.P,C128,1*
G04 #@! TO.N,3.3v_IDE*
X9137500Y4600000D03*
G04 #@! TO.P,C128,2*
G04 #@! TO.N,GNDD*
X10862500Y4600000D03*
G04 #@! TD*
D37*
G04 #@! TO.P,R123,1*
G04 #@! TO.N,Net-(ADD111-Pad1)*
X34290000Y9700000D03*
G04 #@! TO.P,R123,2*
G04 #@! TO.N,3.3V_LDO*
X35310000Y9700000D03*
G04 #@! TD*
D38*
G04 #@! TO.P,C119,1*
G04 #@! TO.N,Earth*
X15790120Y10590120D03*
G04 #@! TO.P,C119,2*
G04 #@! TO.N,Net-(TAC5212-VREF)*
X17009880Y11809880D03*
G04 #@! TD*
D39*
G04 #@! TO.P,R124,1*
G04 #@! TO.N,Net-(ADD112-Pad1)*
X31110000Y9700000D03*
G04 #@! TO.P,R124,2*
G04 #@! TO.N,GNDD*
X30090000Y9700000D03*
G04 #@! TD*
D19*
G04 #@! TO.P,R119,1*
G04 #@! TO.N,5212_BCLK1*
X17973583Y8563048D03*
G04 #@! TO.P,R119,2*
G04 #@! TO.N,Net-(TAC5212-BCLK)*
X18818575Y9408040D03*
G04 #@! TD*
D17*
G04 #@! TO.P,PU_EN108,1,1*
G04 #@! TO.N,Net-(PU_EN108-Pad1)*
X20750000Y4000000D03*
G04 #@! TO.P,PU_EN108,2,2*
G04 #@! TO.N,3.3v_IDE*
X22050000Y4000000D03*
G04 #@! TD*
D19*
G04 #@! TO.P,R117,1*
G04 #@! TO.N,5212_DOUT1*
X19317086Y7219545D03*
G04 #@! TO.P,R117,2*
G04 #@! TO.N,Net-(TAC5212-DOUT)*
X20162078Y8064537D03*
G04 #@! TD*
D24*
G04 #@! TO.P,G118,1,1*
G04 #@! TO.N,Net-(G118-Pad1)*
X35400000Y-504000D03*
D25*
G04 #@! TO.P,G118,2,2*
G04 #@! TO.N,GNDD*
X35400000Y500000D03*
G04 #@! TD*
D39*
G04 #@! TO.P,R122,1*
G04 #@! TO.N,Net-(ADD110-Pad1)*
X33310000Y9700000D03*
G04 #@! TO.P,R122,2*
G04 #@! TO.N,3.3V_LDO*
X32290000Y9700000D03*
G04 #@! TD*
D40*
G04 #@! TO.P,NT109,1,1*
G04 #@! TO.N,3.3V_LDO*
X17575000Y13000000D03*
G04 #@! TO.P,NT109,2,2*
G04 #@! TO.N,3.3V_THIN*
X18025000Y13000000D03*
G04 #@! TD*
D16*
G04 #@! TO.P,G115,1,1*
G04 #@! TO.N,Earth*
X18200000Y2800000D03*
G04 #@! TD*
G04 #@! TO.P,G114,1,1*
G04 #@! TO.N,Earth*
X36200000Y7000000D03*
G04 #@! TD*
D41*
G04 #@! TO.P,R125,1*
G04 #@! TO.N,5212_DOUT1+*
X7702500Y10000000D03*
G04 #@! TO.P,R125,2*
G04 #@! TO.N,Net-(U108-Y)*
X8897500Y10000000D03*
G04 #@! TD*
D24*
G04 #@! TO.P,G117,1,1*
G04 #@! TO.N,Net-(G117-Pad1)*
X12700000Y96000D03*
D25*
G04 #@! TO.P,G117,2,2*
G04 #@! TO.N,GNDD*
X12700000Y1100000D03*
G04 #@! TD*
D16*
G04 #@! TO.P,G116,1,1*
G04 #@! TO.N,Earth*
X39100000Y12400000D03*
G04 #@! TD*
G04 #@! TO.P,G108,1,1*
G04 #@! TO.N,Earth*
X29000000Y8100000D03*
G04 #@! TD*
D42*
G04 #@! TO.P,R120,1*
G04 #@! TO.N,5212_SDA*
X24760624Y5639376D03*
G04 #@! TO.P,R120,2*
G04 #@! TO.N,Net-(PU_EN108-Pad1)*
X24039376Y6360624D03*
G04 #@! TD*
D43*
G04 #@! TO.P,OP2,2,2*
G04 #@! TO.N,OUT2P*
X13500000Y15175000D03*
G04 #@! TD*
G04 #@! TO.P,INP2,2,2*
G04 #@! TO.N,IN2P*
X34600000Y15165000D03*
G04 #@! TD*
G04 #@! TO.P,INM2,2,2*
G04 #@! TO.N,IN2M*
X38200000Y15117500D03*
G04 #@! TD*
G04 #@! TO.P,OM2,2,2*
G04 #@! TO.N,OUT2M*
X17400000Y15400000D03*
G04 #@! TD*
G04 #@! TO.P,OP1,2,2*
G04 #@! TO.N,OUT1P*
X9200000Y15100000D03*
G04 #@! TD*
G04 #@! TO.P,INM1,2,2*
G04 #@! TO.N,IN1M*
X31000000Y15237500D03*
G04 #@! TD*
G04 #@! TO.P,OM1,2,2*
G04 #@! TO.N,OUT1M*
X5200000Y16100000D03*
G04 #@! TD*
G04 #@! TO.P,INP1,2,2*
G04 #@! TO.N,IN1P*
X27400000Y15175000D03*
G04 #@! TD*
D44*
G04 #@! TO.N,GNDD*
X6200000Y7800000D03*
X25400000Y4200000D03*
X12600000Y-1200000D03*
D45*
X22400000Y15575000D03*
D44*
X5450000Y10600000D03*
X32600000Y8000000D03*
X6563425Y4321087D03*
X11200000Y12600000D03*
X28800000Y7200000D03*
X30400000Y5000000D03*
X17200000Y4500000D03*
X29000000Y11400000D03*
X12206587Y3020000D03*
X38000000Y3600000D03*
X6400000Y-1000000D03*
G04 #@! TO.N,5V*
X37108750Y4091250D03*
D45*
X7514682Y2940000D03*
D44*
G04 #@! TO.N,Earth*
X7800000Y16800000D03*
X7600000Y21600000D03*
X5000000Y-1000000D03*
X16424739Y14837337D03*
X39600000Y9000000D03*
X9400000Y19400000D03*
X7600000Y24200000D03*
X20953490Y17950334D03*
X24400000Y18400000D03*
X39400000Y20600000D03*
X35350000Y17950000D03*
G04 #@! TO.N,EN_HELD_HIGH*
X25400000Y6600000D03*
G04 #@! TO.N,5212_SCL*
X15134085Y2900000D03*
G04 #@! TO.N,5212_SDA*
X3962790Y4813448D03*
G04 #@! TO.N,3.3V_LDO*
X17200000Y13000000D03*
G04 #@! TO.N,GPI1*
X-1200000Y6200000D03*
G04 #@! TO.N,Net-(PU_EN108-Pad1)*
X23904037Y4374417D03*
X20503448Y3805544D03*
G04 #@! TO.N,3.3v_IDE*
X22061982Y3851431D03*
X8000000Y6600000D03*
X9100000Y4600000D03*
G04 #@! TD*
D46*
G04 #@! TO.N,GNDD*
X13550000Y-250000D02*
X13550000Y250000D01*
X22400000Y14215966D02*
X22969033Y13646933D01*
X17233623Y9633623D02*
X17260589Y9660589D01*
X22850000Y3200000D02*
X22250000Y2600000D01*
X19739612Y11214486D02*
X19638990Y11113864D01*
X22400000Y15575000D02*
X22400000Y14215966D01*
X10862500Y4600000D02*
X10862500Y4364087D01*
X25401480Y11214486D02*
X28814486Y11214486D01*
X22250000Y2600000D02*
X19177818Y2600000D01*
X1172500Y11335000D02*
X4715000Y11335000D01*
X22969033Y8782039D02*
X22969033Y6671007D01*
X22850000Y4800000D02*
X22850000Y3200000D01*
X10862500Y4364087D02*
X12206587Y3020000D01*
X31050000Y8740000D02*
X31050000Y8150000D01*
X21989411Y5660589D02*
X22850000Y4800000D01*
X13866377Y9633623D02*
X17233623Y9633623D01*
X17260589Y10523259D02*
X17260589Y9660589D01*
X31050000Y8150000D02*
X31200000Y8000000D01*
X13550000Y250000D02*
X12700000Y1100000D01*
X17851194Y11113864D02*
X17260589Y10523259D01*
X21698026Y5400000D02*
X21321178Y5400000D01*
X12600000Y-1200000D02*
X13550000Y-250000D01*
X21321178Y5400000D02*
X21060589Y5660589D01*
X33532500Y500000D02*
X33027500Y-5000D01*
X22969033Y6671007D02*
X21698026Y5400000D01*
X-2500Y10160000D02*
X1172500Y11335000D01*
X31200000Y8000000D02*
X32600000Y8000000D01*
X19638990Y11113864D02*
X17851194Y11113864D01*
X17377818Y4400000D02*
X17162500Y4400000D01*
X21060589Y5660589D02*
X21989411Y5660589D01*
X28814486Y11214486D02*
X29000000Y11400000D01*
X35400000Y500000D02*
X33532500Y500000D01*
X20536586Y11214486D02*
X19739612Y11214486D01*
X4715000Y11335000D02*
X5450000Y10600000D01*
X19177818Y2600000D02*
X17377818Y4400000D01*
X30090000Y9700000D02*
X31050000Y8740000D01*
D47*
G04 #@! TO.N,5V*
X6652000Y1300000D02*
X7550000Y2198000D01*
X7550000Y2904682D02*
X7514682Y2940000D01*
X7550000Y2198000D02*
X7550000Y2904682D01*
D46*
G04 #@! TO.N,Earth*
X16362076Y14900000D02*
X14375000Y14900000D01*
X13150000Y13425709D02*
X14466377Y12109332D01*
X14075000Y14600000D02*
X13723681Y14600000D01*
X38400000Y19662501D02*
X38462501Y19662501D01*
X18060589Y14139411D02*
X17362663Y14837337D01*
X35300000Y22400000D02*
X33482500Y22400000D01*
X13150000Y14026319D02*
X13150000Y13425709D01*
X14375000Y14900000D02*
X14075000Y14600000D01*
X38462501Y19662501D02*
X39400000Y20600000D01*
X16424739Y14837337D02*
X16362076Y14900000D01*
X13723681Y14600000D02*
X13150000Y14026319D01*
X15790120Y10642634D02*
X15790120Y10590120D01*
X33482500Y22400000D02*
X33027500Y22855000D01*
X17362663Y14837337D02*
X16424739Y14837337D01*
X12900000Y22400000D02*
X14792500Y22400000D01*
X14466377Y12109332D02*
X14466377Y11966377D01*
X14466377Y11966377D02*
X15790120Y10642634D01*
X14792500Y22400000D02*
X15247500Y22855000D01*
G04 #@! TO.N,Net-(ADD110-Pad1)*
X33310000Y10910000D02*
X33400000Y11000000D01*
X33310000Y9700000D02*
X33310000Y10910000D01*
G04 #@! TO.N,Net-(ADD111-Pad1)*
X34290001Y9700000D02*
X34290001Y10290001D01*
X34290001Y10290001D02*
X35000000Y11000000D01*
G04 #@! TO.N,Net-(ADD112-Pad1)*
X31800000Y10390000D02*
X31800000Y11000000D01*
X31110000Y9700000D02*
X31800000Y10390000D01*
G04 #@! TO.N,IN2P*
X32765000Y17400000D02*
X34600000Y15565000D01*
X25800000Y16000000D02*
X27200000Y17400000D01*
X25800000Y15106113D02*
X25800000Y16000000D01*
X34600000Y15565000D02*
X34600000Y15165000D01*
X27200000Y17400000D02*
X32765000Y17400000D01*
X23844078Y13150191D02*
X25800000Y15106113D01*
G04 #@! TO.N,IN1M*
X26200000Y15000000D02*
X27400000Y16200000D01*
X26200000Y14799006D02*
X26200000Y15000000D01*
X27400000Y16200000D02*
X30037500Y16200000D01*
X24197631Y12796637D02*
X26200000Y14799006D01*
X30037500Y16200000D02*
X31000000Y15237500D01*
G04 #@! TO.N,IN1P*
X25526987Y12926987D02*
X27400000Y14800000D01*
X27400000Y14800000D02*
X27400000Y15175000D01*
X25526987Y12926987D02*
X25035087Y12926987D01*
X27400000Y15175000D02*
X27375000Y15175000D01*
X25035087Y12926987D02*
X24551184Y12443084D01*
G04 #@! TO.N,IN2M*
X33800000Y18400000D02*
X26400000Y18400000D01*
X25150000Y17150000D02*
X25150000Y15150000D01*
X23503744Y13503744D02*
X25150000Y15150000D01*
X37082500Y15117500D02*
X33800000Y18400000D01*
X23490524Y13503744D02*
X23503744Y13503744D01*
X38200000Y15117500D02*
X37082500Y15117500D01*
X26400000Y18400000D02*
X25150000Y17150000D01*
G04 #@! TO.N,OUT1P*
X17700000Y17300000D02*
X20391422Y14608578D01*
X9300000Y15118750D02*
X11481250Y17300000D01*
X20678963Y14571037D02*
X22093988Y13156012D01*
X22093988Y13156012D02*
X22093988Y13150191D01*
X20592089Y14608578D02*
X20629630Y14571037D01*
X20629630Y14571037D02*
X20678963Y14571037D01*
X11481250Y17300000D02*
X17700000Y17300000D01*
X20391422Y14608578D02*
X20592089Y14608578D01*
G04 #@! TO.N,OUT1M*
X17267767Y18500000D02*
X7300000Y18500000D01*
X20795730Y14972037D02*
X17267767Y18500000D01*
X20979249Y14972037D02*
X22447542Y13503744D01*
X20795730Y14972037D02*
X20979249Y14972037D01*
X7300000Y18500000D02*
X4900000Y16099999D01*
G04 #@! TO.N,OUT2P*
X20342422Y14207578D02*
X21740435Y12809565D01*
X13500000Y15175000D02*
X14425000Y16100000D01*
X19832900Y14600000D02*
X20225322Y14207578D01*
X18100000Y16100000D02*
X19600000Y14600000D01*
X20225322Y14207578D02*
X20342422Y14207578D01*
X19600000Y14600000D02*
X19832900Y14600000D01*
X14425000Y16100000D02*
X18100000Y16100000D01*
X21740435Y12809565D02*
X21740435Y12796637D01*
G04 #@! TO.N,OUT2M*
X18000000Y15400000D02*
X19201000Y14199000D01*
X19630966Y14199000D02*
X21386882Y12443084D01*
X17400000Y15400000D02*
X18000000Y15400000D01*
X19201000Y14199000D02*
X19630966Y14199000D01*
G04 #@! TO.N,5212_BCLK1*
X1362500Y13875000D02*
X2537500Y12700000D01*
X2939201Y16500000D02*
X1800000Y16500000D01*
X12400000Y9400000D02*
X12400000Y9800000D01*
X16422490Y7011955D02*
X14788045Y7011955D01*
X3712500Y13995467D02*
X3712500Y15726701D01*
X1800000Y16500000D02*
X1362500Y16062500D01*
X12400000Y9800000D02*
X10100000Y12100000D01*
X5607967Y12100000D02*
X3712500Y13995467D01*
X1362500Y16062500D02*
X1362500Y13875000D01*
X14788045Y7011955D02*
X12400000Y9400000D01*
X3712500Y15726701D02*
X2939201Y16500000D01*
X17973583Y8563048D02*
X16422490Y7011955D01*
X10100000Y12100000D02*
X5607967Y12100000D01*
G04 #@! TO.N,5212_LRCK1*
X2537500Y14534071D02*
X2537500Y15240000D01*
X18645334Y7891296D02*
X17315993Y6561955D01*
X11950000Y9613604D02*
X9963604Y11600000D01*
X14601649Y6561955D02*
X11950000Y9213604D01*
X5471571Y11600000D02*
X2537500Y14534071D01*
X11950000Y9213604D02*
X11950000Y9613604D01*
X9963604Y11600000D02*
X5471571Y11600000D01*
X17315993Y6561955D02*
X14601649Y6561955D01*
G04 #@! TO.N,5212_SCL*
X23490524Y8925228D02*
X23490524Y6619290D01*
X22600000Y2200000D02*
X15834085Y2200000D01*
X15834085Y2200000D02*
X15134085Y2900000D01*
X23250000Y5550000D02*
X23250000Y2850000D01*
X23250000Y2850000D02*
X22600000Y2200000D01*
X23490524Y6619290D02*
X23239376Y6368142D01*
X23239376Y5560624D02*
X23250000Y5550000D01*
X23239376Y6368142D02*
X23239376Y5560624D01*
G04 #@! TO.N,5212_SDA*
X15982500Y1800000D02*
X11802728Y1800000D01*
X6728984Y3600000D02*
X4700000Y3600000D01*
X24760624Y5639376D02*
X24741009Y5619761D01*
X24741009Y2556037D02*
X23862986Y1678014D01*
X3962790Y4337210D02*
X3962790Y4813448D01*
X24741009Y5619761D02*
X24741009Y2556037D01*
X11552728Y2050000D02*
X9671016Y2050000D01*
X23862986Y1678014D02*
X19470514Y1678014D01*
X11802728Y1800000D02*
X11552728Y2050000D01*
X23844078Y9278781D02*
X24760624Y8362235D01*
X24760624Y8362235D02*
X24760624Y5639376D01*
X4700000Y3600000D02*
X3962790Y4337210D01*
X9671016Y2050000D02*
X7746016Y3975000D01*
X7103984Y3975000D02*
X6728984Y3600000D01*
X19470514Y1678014D02*
X17787500Y-5000D01*
X17787500Y-5000D02*
X15982500Y1800000D01*
X7746016Y3975000D02*
X7103984Y3975000D01*
G04 #@! TO.N,5212_DOUT1*
X12657106Y6650000D02*
X12853553Y6846447D01*
X12853553Y6846447D02*
X13588045Y6111955D01*
X13588045Y6111955D02*
X18209496Y6111955D01*
X12231170Y6650000D02*
X12657106Y6650000D01*
X10337500Y7500000D02*
X11381170Y7500000D01*
X18209496Y6111955D02*
X19317086Y7219545D01*
X11381170Y7500000D02*
X12231170Y6650000D01*
G04 #@! TO.N,5212_DIN1*
X19041044Y5600000D02*
X19988837Y6547793D01*
X6700000Y5100000D02*
X6878913Y4921087D01*
X9947924Y2450000D02*
X11718414Y2450000D01*
X5057500Y5100000D02*
X6700000Y5100000D01*
X11968414Y2200000D02*
X12444760Y2200000D01*
X12444760Y2200000D02*
X15844760Y5600000D01*
X6878913Y4921087D02*
X7476837Y4921087D01*
X11718414Y2450000D02*
X11968414Y2200000D01*
X2537500Y7620000D02*
X5057500Y5100000D01*
X15844760Y5600000D02*
X19041044Y5600000D01*
X7476837Y4921087D02*
X9947924Y2450000D01*
G04 #@! TO.N,5212_DOUT1+*
X9400000Y10645000D02*
X8347500Y10645000D01*
X11150000Y9777208D02*
X10282208Y10645000D01*
X2537500Y10160000D02*
X2697500Y10000000D01*
X12146447Y7553553D02*
X12146447Y8117157D01*
X10282208Y10645000D02*
X9400000Y10645000D01*
X11150000Y9113604D02*
X11150000Y9777208D01*
X12146447Y8117157D02*
X11150000Y9113604D01*
X2697500Y10000000D02*
X7702500Y10000000D01*
X8347500Y10645000D02*
X7702500Y10000000D01*
G04 #@! TO.N,MICBIAS*
X35552500Y20315000D02*
X36022499Y20315000D01*
X39400000Y16337498D02*
X38400000Y17337498D01*
X24904738Y12089531D02*
X25265207Y12450000D01*
X39000000Y13600000D02*
X39400000Y14000000D01*
X38400000Y17337498D02*
X38400000Y17937499D01*
X36022499Y20315000D02*
X38400000Y17937499D01*
X25265207Y12450000D02*
X25750000Y12450000D01*
X25750000Y12450000D02*
X26900000Y13600000D01*
X26900000Y13600000D02*
X39000000Y13600000D01*
X39400000Y14000000D02*
X39400000Y16337498D01*
G04 #@! TO.N,3.3V_LDO*
X34690000Y9080000D02*
X35310000Y9700000D01*
D48*
X35400000Y6210000D02*
X35435000Y6175000D01*
X35435000Y6175000D02*
X36652500Y6175000D01*
D46*
X35310000Y9700000D02*
X36007500Y9700000D01*
X32910000Y9080000D02*
X34690000Y9080000D01*
X32290000Y9700000D02*
X32910000Y9080000D01*
D49*
X17575000Y13000000D02*
X17200000Y13000000D01*
D48*
X36652500Y6175000D02*
X38092500Y7615000D01*
D46*
X36007500Y9700000D02*
X38092500Y7615000D01*
G04 #@! TO.N,5212_MCLK1*
X2597500Y22800000D02*
X2537500Y22860000D01*
G04 #@! TO.N,GPI1*
X29575000Y8625000D02*
X29575000Y4225000D01*
X30487500Y3312500D02*
X30487500Y-5000D01*
X28822496Y9377504D02*
X29575000Y8625000D01*
X29575000Y4225000D02*
X30487500Y3312500D01*
G04 #@! TO.N,Net-(D116-A)*
X35400000Y5190000D02*
X34090000Y5190000D01*
X34090000Y5190000D02*
X33400000Y4500000D01*
G04 #@! TO.N,GPO1*
X28200000Y8400000D02*
X28022496Y8577504D01*
X28200000Y247500D02*
X28200000Y8400000D01*
X27947500Y-5000D02*
X28200000Y247500D01*
G04 #@! TO.N,GPIO1*
X26200000Y6755008D02*
X26422496Y6977504D01*
X23252412Y-5000D02*
X26200000Y2942588D01*
X22867500Y-5000D02*
X23252412Y-5000D01*
X26200000Y2942588D02*
X26200000Y6755008D01*
G04 #@! TO.N,GPIO2*
X25407500Y-5000D02*
X27400000Y1987500D01*
X27400000Y7600000D02*
X27222496Y7777504D01*
X27400000Y1987500D02*
X27400000Y7600000D01*
G04 #@! TO.N,Net-(PU_EN108-Pad1)*
X23960624Y4431004D02*
X23904037Y4374417D01*
X23960624Y4839376D02*
X23960624Y4431004D01*
X24039376Y4509756D02*
X23904037Y4374417D01*
X23960624Y4960624D02*
X23960624Y4839376D01*
X24039376Y6360624D02*
X24039376Y4509756D01*
G04 #@! TO.N,Net-(U108-Y)*
X8062500Y9165000D02*
X8897500Y10000000D01*
X8062500Y8450000D02*
X8062500Y9165000D01*
G04 #@! TO.N,3.3v_IDE*
X22061982Y3611982D02*
X22061982Y3851431D01*
X19237500Y4735526D02*
X19237500Y4400000D01*
X21450000Y3000000D02*
X22061982Y3611982D01*
X21739411Y8217097D02*
X22447542Y8925228D01*
X8062500Y5675000D02*
X9137500Y4600000D01*
X21060588Y6558614D02*
X19237500Y4735526D01*
X19237500Y4400000D02*
X19237500Y3675000D01*
X8062500Y6550000D02*
X8062500Y5675000D01*
X19237500Y3675000D02*
X19912500Y3000000D01*
X21520208Y6558614D02*
X21060588Y6558614D01*
X21739411Y6339411D02*
X21739411Y8217097D01*
X19912500Y3000000D02*
X21450000Y3000000D01*
X21739411Y6339411D02*
X21520208Y6558614D01*
G04 #@! TO.N,3.3V_THIN*
X19992544Y12439689D02*
X20683170Y12439689D01*
X17537330Y13800000D02*
X17876741Y13460589D01*
X17876741Y13460589D02*
X18739411Y13460589D01*
X19332233Y13100000D02*
X19992544Y12439689D01*
X15933623Y13433623D02*
X16300000Y13800000D01*
X20683170Y12439689D02*
X21033328Y12089531D01*
X18278822Y13000000D02*
X18025000Y13000000D01*
X19100000Y13100000D02*
X19332233Y13100000D01*
X18739411Y13460589D02*
X19100000Y13100000D01*
X18739411Y13460589D02*
X18278822Y13000000D01*
X16300000Y13800000D02*
X17537330Y13800000D01*
G04 #@! TO.N,Net-(TAC5212-DREG)*
X19571644Y10339411D02*
X17939411Y10339411D01*
X17939411Y10339411D02*
X17939411Y9476741D01*
X19925228Y10692995D02*
X19571644Y10339411D01*
X16629047Y8166377D02*
X15333623Y8166377D01*
X20679775Y10692995D02*
X19925228Y10692995D01*
X17939411Y9476741D02*
X16629047Y8166377D01*
G04 #@! TO.N,Net-(TAC5212-VREF)*
X19638990Y12086136D02*
X19989149Y11735977D01*
X19638990Y12086136D02*
X18255286Y12086136D01*
X18255286Y12086136D02*
X17979030Y11809880D01*
X19989149Y11735977D02*
X20679775Y11735977D01*
X17979030Y11809880D02*
X17009880Y11809880D01*
G04 #@! TO.N,Net-(TAC5212-GPI1)*
X25258291Y10692995D02*
X27507005Y10692995D01*
X27507005Y10692995D02*
X27977504Y10222496D01*
G04 #@! TO.N,Net-(TAC5212-GPO1)*
X24904738Y10339441D02*
X25194179Y10050000D01*
X26550000Y10050000D02*
X27177504Y9422496D01*
X25194179Y10050000D02*
X26550000Y10050000D01*
G04 #@! TO.N,Net-(TAC5212-GPIO2)*
X24551184Y9985888D02*
X25914576Y8622496D01*
X25914576Y8622496D02*
X26377504Y8622496D01*
G04 #@! TO.N,Net-(TAC5212-GPIO1)*
X24197631Y9632335D02*
X25577504Y8252462D01*
X25577504Y8252462D02*
X25577504Y7822496D01*
G04 #@! TO.N,Net-(TAC5212-FSYNC)*
X19953038Y9199000D02*
X19490326Y8736288D01*
X20599994Y9199000D02*
X19953038Y9199000D01*
X19490326Y8736288D02*
X19490326Y8843879D01*
X21386882Y9985888D02*
X20599994Y9199000D01*
G04 #@! TO.N,Net-(TAC5212-DOUT)*
X21740435Y9632335D02*
X21729876Y9632335D01*
X21729876Y9632335D02*
X20162078Y8064537D01*
G04 #@! TO.N,Net-(TAC5212-DIN)*
X21338411Y8523204D02*
X21338411Y7897367D01*
X22093988Y9278781D02*
X21338411Y8523204D01*
X21338411Y7897367D02*
X20833829Y7392785D01*
G04 #@! TO.N,Net-(TAC5212-BCLK)*
X20293887Y9600000D02*
X19400000Y9600000D01*
X19208040Y9408040D02*
X19400000Y9600000D01*
X21033328Y10339441D02*
X20293887Y9600000D01*
X18818575Y9408040D02*
X19208040Y9408040D01*
G04 #@! TO.N,Net-(TAC5212-ADDR)*
X25603077Y11735977D02*
X26167100Y12300000D01*
X25258291Y11735977D02*
X25603077Y11735977D01*
X35000000Y12300000D02*
X30200000Y12300000D01*
X26167100Y12300000D02*
X30200000Y12300000D01*
G04 #@! TO.N,Net-(5V108-Pad2)*
X3777500Y1300000D02*
X2537500Y2540000D01*
X5600000Y1300000D02*
X3777500Y1300000D01*
G04 #@! TO.N,Net-(G118-Pad1)*
X37497500Y-600000D02*
X35400000Y-600000D01*
X38092500Y-5000D02*
X37497500Y-600000D01*
G04 #@! TO.N,Net-(E108-Pad2)*
X12900000Y23404000D02*
X10701500Y23404000D01*
X10701500Y23404000D02*
X10152500Y22855000D01*
G04 #@! TO.N,Net-(E109-Pad2)*
X37543500Y23404000D02*
X38092500Y22855000D01*
X35300000Y23404000D02*
X37543500Y23404000D01*
G04 #@! TO.N,Net-(G117-Pad1)*
X10152500Y-5000D02*
X12599000Y-5000D01*
X12599000Y-5000D02*
X12700000Y96000D01*
G04 #@! TD*
G04 #@! TA.AperFunction,Conductor*
G04 #@! TO.N,Earth*
G36*
X17138262Y18129815D02*
G01*
X17158904Y18113181D01*
X17409904Y17862181D01*
X17443389Y17800858D01*
X17438405Y17731166D01*
X17396533Y17675233D01*
X17331069Y17650816D01*
X17322223Y17650500D01*
X11435106Y17650500D01*
X11345962Y17626614D01*
X11345961Y17626614D01*
X11345959Y17626613D01*
X11345956Y17626612D01*
X11266044Y17580474D01*
X11266035Y17580467D01*
X9322387Y15636819D01*
X9261064Y15603334D01*
X9234706Y15600500D01*
X8925323Y15600500D01*
X8852264Y15585968D01*
X8852260Y15585967D01*
X8769399Y15530601D01*
X8714033Y15447740D01*
X8714032Y15447736D01*
X8699500Y15374679D01*
X8699500Y14825322D01*
X8714032Y14752265D01*
X8714033Y14752261D01*
X8724230Y14737000D01*
X8769399Y14669399D01*
X8847821Y14617000D01*
X8852260Y14614034D01*
X8852264Y14614033D01*
X8925321Y14599501D01*
X8925324Y14599500D01*
X8925326Y14599500D01*
X9474676Y14599500D01*
X9474677Y14599501D01*
X9547740Y14614034D01*
X9630601Y14669399D01*
X9685966Y14752260D01*
X9700500Y14825326D01*
X9700500Y14972207D01*
X9720185Y15039246D01*
X9736819Y15059888D01*
X11590112Y16913181D01*
X11651435Y16946666D01*
X11677793Y16949500D01*
X17503456Y16949500D01*
X17570495Y16929815D01*
X17591137Y16913181D01*
X17842137Y16662181D01*
X17875622Y16600858D01*
X17870638Y16531166D01*
X17828766Y16475233D01*
X17763302Y16450816D01*
X17754456Y16450500D01*
X14378856Y16450500D01*
X14368556Y16447740D01*
X14343917Y16441138D01*
X14289710Y16426614D01*
X14289709Y16426613D01*
X14209791Y16380473D01*
X14209786Y16380469D01*
X13541137Y15711819D01*
X13479814Y15678334D01*
X13453456Y15675500D01*
X13225323Y15675500D01*
X13152264Y15660968D01*
X13152260Y15660967D01*
X13069399Y15605601D01*
X13014033Y15522740D01*
X13014032Y15522736D01*
X12999500Y15449679D01*
X12999500Y14900322D01*
X13014032Y14827265D01*
X13014033Y14827261D01*
X13032405Y14799765D01*
X13069399Y14744399D01*
X13139750Y14697393D01*
X13152260Y14689034D01*
X13152264Y14689033D01*
X13225321Y14674501D01*
X13225324Y14674500D01*
X13225326Y14674500D01*
X13774676Y14674500D01*
X13774677Y14674501D01*
X13847740Y14689034D01*
X13930601Y14744399D01*
X13985966Y14827260D01*
X14000500Y14900326D01*
X14000500Y15128456D01*
X14020185Y15195495D01*
X14036819Y15216137D01*
X14533863Y15713181D01*
X14595186Y15746666D01*
X14621544Y15749500D01*
X16775500Y15749500D01*
X16842539Y15729815D01*
X16888294Y15677011D01*
X16899500Y15625500D01*
X16899500Y15125322D01*
X16914032Y15052265D01*
X16914033Y15052261D01*
X16927615Y15031934D01*
X16969399Y14969399D01*
X17052260Y14914034D01*
X17052264Y14914033D01*
X17125321Y14899501D01*
X17125324Y14899500D01*
X17602691Y14899500D01*
X17669730Y14879815D01*
X17690372Y14863181D01*
X18149684Y14403869D01*
X18183169Y14342546D01*
X18178185Y14272854D01*
X18149684Y14228507D01*
X17971493Y14050315D01*
X17910170Y14016830D01*
X17840479Y14021814D01*
X17796131Y14050315D01*
X17333123Y14513323D01*
X17319501Y14497374D01*
X17241600Y14355674D01*
X17241600Y14355672D01*
X17212842Y14243663D01*
X17177104Y14183625D01*
X17114580Y14152439D01*
X17092737Y14150500D01*
X16453218Y14150500D01*
X16386179Y14170185D01*
X16365537Y14186819D01*
X16156454Y14395901D01*
X16156448Y14395906D01*
X16156444Y14395910D01*
X16109769Y14433525D01*
X15978851Y14493313D01*
X15978853Y14493313D01*
X15836396Y14513794D01*
X15693939Y14493313D01*
X15563023Y14433525D01*
X15563018Y14433522D01*
X15516342Y14395909D01*
X15516334Y14395902D01*
X14971349Y13850914D01*
X14971343Y13850907D01*
X14933721Y13804222D01*
X14933720Y13804220D01*
X14873933Y13673307D01*
X14853452Y13530850D01*
X14873933Y13388394D01*
X14882713Y13369169D01*
X14892656Y13300010D01*
X14863630Y13236455D01*
X14804851Y13198681D01*
X14734981Y13198682D01*
X14714267Y13206849D01*
X14627414Y13250468D01*
X14456810Y13290902D01*
X14281490Y13290902D01*
X14110885Y13250468D01*
X13954209Y13171783D01*
X13874166Y13106578D01*
X13874157Y13106570D01*
X13776947Y13009360D01*
X14643154Y12143154D01*
X15538707Y11247601D01*
X15572192Y11186278D01*
X15574091Y11168607D01*
X14876740Y11164765D01*
X14861081Y11193443D01*
X14858247Y11219799D01*
X14858246Y11220954D01*
X14289600Y11789600D01*
X13423395Y12655806D01*
X13326182Y12558592D01*
X13326172Y12558581D01*
X13260976Y12478550D01*
X13260967Y12478537D01*
X13182284Y12321866D01*
X13157465Y12217147D01*
X13122851Y12156454D01*
X13060918Y12124110D01*
X12991330Y12130385D01*
X12947006Y12160236D01*
X12763028Y12353453D01*
X11100000Y14100000D01*
X5037544Y14100000D01*
X4970505Y14119685D01*
X4968761Y14120826D01*
X4921342Y14152439D01*
X4906729Y14162181D01*
X4869772Y14186819D01*
X4754897Y14263402D01*
X4710036Y14316967D01*
X4699681Y14365977D01*
X4699584Y14386152D01*
X4694232Y15493778D01*
X4713593Y15560908D01*
X4766175Y15606917D01*
X4835285Y15617195D01*
X4842422Y15615990D01*
X4925321Y15599501D01*
X4925324Y15599500D01*
X4925326Y15599500D01*
X5474676Y15599500D01*
X5474677Y15599501D01*
X5547740Y15614034D01*
X5630601Y15669399D01*
X5685966Y15752260D01*
X5700500Y15825326D01*
X5700500Y16353457D01*
X5720185Y16420496D01*
X5736819Y16441138D01*
X7408863Y18113181D01*
X7470186Y18146666D01*
X7496544Y18149500D01*
X17071223Y18149500D01*
X17138262Y18129815D01*
G37*
G04 #@! TD.AperFunction*
G04 #@! TA.AperFunction,Conductor*
G36*
X9164797Y24630315D02*
G01*
X9210552Y24577511D01*
X9220496Y24508353D01*
X9191471Y24444797D01*
X9159761Y24418616D01*
X9122211Y24396936D01*
X9122206Y24396933D01*
X8929763Y24249267D01*
X8929756Y24249261D01*
X8758239Y24077744D01*
X8758233Y24077737D01*
X8610567Y23885294D01*
X8489277Y23675215D01*
X8489273Y23675206D01*
X8396447Y23451105D01*
X8333661Y23216786D01*
X8302000Y22976289D01*
X8302000Y22733712D01*
X8333661Y22493215D01*
X8396447Y22258896D01*
X8489273Y22034795D01*
X8489277Y22034786D01*
X8511474Y21996339D01*
X8610564Y21824711D01*
X8610566Y21824708D01*
X8610567Y21824707D01*
X8758233Y21632264D01*
X8758239Y21632257D01*
X8929756Y21460740D01*
X8929763Y21460734D01*
X8994394Y21411141D01*
X9122211Y21313064D01*
X9332288Y21191776D01*
X9556400Y21098946D01*
X9790711Y21036162D01*
X9971086Y21012416D01*
X10031211Y21004500D01*
X10031212Y21004500D01*
X10273789Y21004500D01*
X10321888Y21010833D01*
X10514289Y21036162D01*
X10748600Y21098946D01*
X10972712Y21191776D01*
X11182789Y21313064D01*
X11375238Y21460735D01*
X11546765Y21632262D01*
X11694436Y21824711D01*
X11815724Y22034788D01*
X11907439Y22256208D01*
X11951280Y22310611D01*
X12017574Y22332676D01*
X12085273Y22315397D01*
X12132884Y22264260D01*
X12146000Y22208755D01*
X12146000Y22098156D01*
X12152401Y22038628D01*
X12152403Y22038621D01*
X12202645Y21903914D01*
X12202649Y21903907D01*
X12288809Y21788813D01*
X12288812Y21788810D01*
X12403906Y21702650D01*
X12403913Y21702646D01*
X12538620Y21652404D01*
X12538627Y21652402D01*
X12598155Y21646001D01*
X12598172Y21646000D01*
X12650000Y21646000D01*
X12650000Y22272000D01*
X12669685Y22339039D01*
X12722489Y22384794D01*
X12774000Y22396000D01*
X13026000Y22396000D01*
X13093039Y22376315D01*
X13138794Y22323511D01*
X13150000Y22272000D01*
X13150000Y21646000D01*
X13201828Y21646000D01*
X13201844Y21646001D01*
X13261372Y21652402D01*
X13261379Y21652404D01*
X13396086Y21702646D01*
X13396093Y21702650D01*
X13511187Y21788810D01*
X13511190Y21788813D01*
X13597350Y21903907D01*
X13597354Y21903914D01*
X13647596Y22038621D01*
X13647598Y22038628D01*
X13650211Y22062925D01*
X13676949Y22127476D01*
X13734342Y22167324D01*
X13804167Y22169817D01*
X13864256Y22134164D01*
X13895530Y22071684D01*
X13897500Y22049669D01*
X13897500Y21957156D01*
X13903901Y21897628D01*
X13903903Y21897621D01*
X13954145Y21762914D01*
X13954149Y21762907D01*
X14040309Y21647813D01*
X14040312Y21647810D01*
X14155406Y21561650D01*
X14155412Y21561647D01*
X14176768Y21553681D01*
X14232701Y21511809D01*
X14257118Y21446344D01*
X14242266Y21378072D01*
X14221119Y21349821D01*
X14216900Y21345603D01*
X14161533Y21262740D01*
X14161532Y21262736D01*
X14147000Y21189679D01*
X14147000Y19440322D01*
X14161532Y19367265D01*
X14161533Y19367261D01*
X14161534Y19367260D01*
X14216899Y19284399D01*
X14299760Y19229034D01*
X14299764Y19229033D01*
X14372821Y19214501D01*
X14372824Y19214500D01*
X14372826Y19214500D01*
X16122176Y19214500D01*
X16122177Y19214501D01*
X16195240Y19229034D01*
X16278101Y19284399D01*
X16333466Y19367260D01*
X16348000Y19440326D01*
X16348000Y21189674D01*
X16348000Y21189677D01*
X16347999Y21189679D01*
X16333467Y21262736D01*
X16333466Y21262740D01*
X16299838Y21313068D01*
X16278101Y21345601D01*
X16278099Y21345603D01*
X16278098Y21345604D01*
X16273884Y21349818D01*
X16240399Y21411141D01*
X16245383Y21480833D01*
X16287255Y21536766D01*
X16318232Y21553681D01*
X16339586Y21561646D01*
X16339593Y21561650D01*
X16454687Y21647810D01*
X16454690Y21647813D01*
X16540850Y21762907D01*
X16540854Y21762914D01*
X16590114Y21894987D01*
X16631985Y21950921D01*
X16697449Y21975338D01*
X16765722Y21960487D01*
X16793977Y21939335D01*
X16908035Y21825277D01*
X16908040Y21825273D01*
X17079942Y21700380D01*
X17269284Y21603904D01*
X17368211Y21571761D01*
X17425887Y21532324D01*
X17453086Y21467966D01*
X17441172Y21399119D01*
X17393928Y21347643D01*
X17368222Y21335903D01*
X17367022Y21335513D01*
X17365050Y21334872D01*
X17210711Y21256232D01*
X17130756Y21198141D01*
X17070572Y21154414D01*
X17070570Y21154412D01*
X17070569Y21154412D01*
X16948088Y21031931D01*
X16948088Y21031930D01*
X16948086Y21031928D01*
X16904359Y20971744D01*
X16846268Y20891789D01*
X16767628Y20737448D01*
X16714097Y20572698D01*
X16690394Y20423039D01*
X16687000Y20401611D01*
X16687000Y20228389D01*
X16714098Y20057299D01*
X16767627Y19892555D01*
X16846268Y19738212D01*
X16948086Y19598072D01*
X17070572Y19475586D01*
X17210712Y19373768D01*
X17365055Y19295127D01*
X17529799Y19241598D01*
X17700889Y19214500D01*
X17700890Y19214500D01*
X17874110Y19214500D01*
X17874111Y19214500D01*
X18045201Y19241598D01*
X18209945Y19295127D01*
X18364288Y19373768D01*
X18504428Y19475586D01*
X18626914Y19598072D01*
X18728732Y19738212D01*
X18807373Y19892555D01*
X18860902Y20057299D01*
X18888000Y20228389D01*
X18888000Y20401611D01*
X18860902Y20572701D01*
X18807373Y20737445D01*
X18728732Y20891788D01*
X18626914Y21031928D01*
X18504428Y21154414D01*
X18364288Y21256232D01*
X18351515Y21262740D01*
X18209946Y21334873D01*
X18206784Y21335900D01*
X18205736Y21336617D01*
X18205452Y21336734D01*
X18205476Y21336794D01*
X18149109Y21375339D01*
X18121913Y21439698D01*
X18133829Y21508544D01*
X18181074Y21560019D01*
X18206788Y21571761D01*
X18305715Y21603904D01*
X18495057Y21700380D01*
X18666959Y21825273D01*
X18666964Y21825277D01*
X18817223Y21975536D01*
X18817227Y21975541D01*
X18942120Y22147442D01*
X18947014Y22157046D01*
X18994988Y22207843D01*
X19062808Y22224639D01*
X19128944Y22202103D01*
X19167986Y22157046D01*
X19172879Y22147442D01*
X19297772Y21975541D01*
X19297776Y21975536D01*
X19448035Y21825277D01*
X19448040Y21825273D01*
X19619942Y21700380D01*
X19809284Y21603904D01*
X19908211Y21571761D01*
X19965887Y21532324D01*
X19993086Y21467966D01*
X19981172Y21399119D01*
X19933928Y21347643D01*
X19908222Y21335903D01*
X19907022Y21335513D01*
X19905050Y21334872D01*
X19750711Y21256232D01*
X19670756Y21198141D01*
X19610572Y21154414D01*
X19610570Y21154412D01*
X19610569Y21154412D01*
X19488088Y21031931D01*
X19488088Y21031930D01*
X19488086Y21031928D01*
X19444359Y20971744D01*
X19386268Y20891789D01*
X19307628Y20737448D01*
X19254097Y20572698D01*
X19230394Y20423039D01*
X19227000Y20401611D01*
X19227000Y20228389D01*
X19254098Y20057299D01*
X19307627Y19892555D01*
X19386268Y19738212D01*
X19488086Y19598072D01*
X19610572Y19475586D01*
X19750712Y19373768D01*
X19905055Y19295127D01*
X20069799Y19241598D01*
X20240889Y19214500D01*
X20240890Y19214500D01*
X20414110Y19214500D01*
X20414111Y19214500D01*
X20585201Y19241598D01*
X20749945Y19295127D01*
X20904288Y19373768D01*
X21044428Y19475586D01*
X21166914Y19598072D01*
X21268732Y19738212D01*
X21347373Y19892555D01*
X21400902Y20057299D01*
X21428000Y20228389D01*
X21428000Y20401611D01*
X21400902Y20572701D01*
X21347373Y20737445D01*
X21268732Y20891788D01*
X21166914Y21031928D01*
X21044428Y21154414D01*
X20904288Y21256232D01*
X20891515Y21262740D01*
X20749946Y21334873D01*
X20746784Y21335900D01*
X20745736Y21336617D01*
X20745452Y21336734D01*
X20745476Y21336794D01*
X20689109Y21375339D01*
X20661913Y21439698D01*
X20673829Y21508544D01*
X20721074Y21560019D01*
X20746788Y21571761D01*
X20845715Y21603904D01*
X21035057Y21700380D01*
X21206959Y21825273D01*
X21206964Y21825277D01*
X21357223Y21975536D01*
X21357227Y21975541D01*
X21482120Y22147442D01*
X21487014Y22157046D01*
X21534988Y22207843D01*
X21602808Y22224639D01*
X21668944Y22202103D01*
X21707986Y22157046D01*
X21712879Y22147442D01*
X21837772Y21975541D01*
X21837776Y21975536D01*
X21988035Y21825277D01*
X21988040Y21825273D01*
X22159942Y21700380D01*
X22349284Y21603904D01*
X22448211Y21571761D01*
X22505887Y21532324D01*
X22533086Y21467966D01*
X22521172Y21399119D01*
X22473928Y21347643D01*
X22448222Y21335903D01*
X22447022Y21335513D01*
X22445050Y21334872D01*
X22290711Y21256232D01*
X22210756Y21198141D01*
X22150572Y21154414D01*
X22150570Y21154412D01*
X22150569Y21154412D01*
X22028088Y21031931D01*
X22028088Y21031930D01*
X22028086Y21031928D01*
X21984359Y20971744D01*
X21926268Y20891789D01*
X21847628Y20737448D01*
X21794097Y20572698D01*
X21770394Y20423039D01*
X21767000Y20401611D01*
X21767000Y20228389D01*
X21794098Y20057299D01*
X21847627Y19892555D01*
X21926268Y19738212D01*
X22028086Y19598072D01*
X22150572Y19475586D01*
X22290712Y19373768D01*
X22445055Y19295127D01*
X22609799Y19241598D01*
X22780889Y19214500D01*
X22780890Y19214500D01*
X22954110Y19214500D01*
X22954111Y19214500D01*
X23125201Y19241598D01*
X23289945Y19295127D01*
X23444288Y19373768D01*
X23584428Y19475586D01*
X23706914Y19598072D01*
X23808732Y19738212D01*
X23887373Y19892555D01*
X23940902Y20057299D01*
X23968000Y20228389D01*
X23968000Y20401611D01*
X23940902Y20572701D01*
X23887373Y20737445D01*
X23808732Y20891788D01*
X23706914Y21031928D01*
X23584428Y21154414D01*
X23444288Y21256232D01*
X23431515Y21262740D01*
X23289946Y21334873D01*
X23286784Y21335900D01*
X23285736Y21336617D01*
X23285452Y21336734D01*
X23285476Y21336794D01*
X23229109Y21375339D01*
X23201913Y21439698D01*
X23213829Y21508544D01*
X23261074Y21560019D01*
X23286788Y21571761D01*
X23385715Y21603904D01*
X23575057Y21700380D01*
X23746959Y21825273D01*
X23746964Y21825277D01*
X23897223Y21975536D01*
X23897227Y21975541D01*
X24022120Y22147442D01*
X24027014Y22157046D01*
X24074988Y22207843D01*
X24142808Y22224639D01*
X24208944Y22202103D01*
X24247986Y22157046D01*
X24252879Y22147442D01*
X24377772Y21975541D01*
X24377776Y21975536D01*
X24528035Y21825277D01*
X24528040Y21825273D01*
X24699942Y21700380D01*
X24889284Y21603904D01*
X24988211Y21571761D01*
X25045887Y21532324D01*
X25073086Y21467966D01*
X25061172Y21399119D01*
X25013928Y21347643D01*
X24988222Y21335903D01*
X24987022Y21335513D01*
X24985050Y21334872D01*
X24830711Y21256232D01*
X24750756Y21198141D01*
X24690572Y21154414D01*
X24690570Y21154412D01*
X24690569Y21154412D01*
X24568088Y21031931D01*
X24568088Y21031930D01*
X24568086Y21031928D01*
X24524359Y20971744D01*
X24466268Y20891789D01*
X24387628Y20737448D01*
X24334097Y20572698D01*
X24310394Y20423039D01*
X24307000Y20401611D01*
X24307000Y20228389D01*
X24334098Y20057299D01*
X24387627Y19892555D01*
X24466268Y19738212D01*
X24568086Y19598072D01*
X24690572Y19475586D01*
X24830712Y19373768D01*
X24985055Y19295127D01*
X25149799Y19241598D01*
X25320889Y19214500D01*
X25320890Y19214500D01*
X25494110Y19214500D01*
X25494111Y19214500D01*
X25665201Y19241598D01*
X25829945Y19295127D01*
X25984288Y19373768D01*
X26124428Y19475586D01*
X26246914Y19598072D01*
X26348732Y19738212D01*
X26427373Y19892555D01*
X26480902Y20057299D01*
X26508000Y20228389D01*
X26508000Y20401611D01*
X26480902Y20572701D01*
X26427373Y20737445D01*
X26348732Y20891788D01*
X26246914Y21031928D01*
X26124428Y21154414D01*
X25984288Y21256232D01*
X25971515Y21262740D01*
X25829946Y21334873D01*
X25826784Y21335900D01*
X25825736Y21336617D01*
X25825452Y21336734D01*
X25825476Y21336794D01*
X25769109Y21375339D01*
X25741913Y21439698D01*
X25753829Y21508544D01*
X25801074Y21560019D01*
X25826788Y21571761D01*
X25925715Y21603904D01*
X26115057Y21700380D01*
X26286959Y21825273D01*
X26286964Y21825277D01*
X26437223Y21975536D01*
X26437227Y21975541D01*
X26562120Y22147442D01*
X26567014Y22157046D01*
X26614988Y22207843D01*
X26682808Y22224639D01*
X26748944Y22202103D01*
X26787986Y22157046D01*
X26792879Y22147442D01*
X26917772Y21975541D01*
X26917776Y21975536D01*
X27068035Y21825277D01*
X27068040Y21825273D01*
X27239942Y21700380D01*
X27429284Y21603904D01*
X27528211Y21571761D01*
X27585887Y21532324D01*
X27613086Y21467966D01*
X27601172Y21399119D01*
X27553928Y21347643D01*
X27528222Y21335903D01*
X27527022Y21335513D01*
X27525050Y21334872D01*
X27370711Y21256232D01*
X27290756Y21198141D01*
X27230572Y21154414D01*
X27230570Y21154412D01*
X27230569Y21154412D01*
X27108088Y21031931D01*
X27108088Y21031930D01*
X27108086Y21031928D01*
X27064359Y20971744D01*
X27006268Y20891789D01*
X26927628Y20737448D01*
X26874097Y20572698D01*
X26850394Y20423039D01*
X26847000Y20401611D01*
X26847000Y20228389D01*
X26874098Y20057299D01*
X26927627Y19892555D01*
X27006268Y19738212D01*
X27108086Y19598072D01*
X27230572Y19475586D01*
X27370712Y19373768D01*
X27525055Y19295127D01*
X27689799Y19241598D01*
X27860889Y19214500D01*
X27860890Y19214500D01*
X28034110Y19214500D01*
X28034111Y19214500D01*
X28205201Y19241598D01*
X28369945Y19295127D01*
X28524288Y19373768D01*
X28664428Y19475586D01*
X28786914Y19598072D01*
X28888732Y19738212D01*
X28967373Y19892555D01*
X29020902Y20057299D01*
X29048000Y20228389D01*
X29048000Y20401611D01*
X29020902Y20572701D01*
X28967373Y20737445D01*
X28888732Y20891788D01*
X28786914Y21031928D01*
X28664428Y21154414D01*
X28524288Y21256232D01*
X28511515Y21262740D01*
X28369946Y21334873D01*
X28366784Y21335900D01*
X28365736Y21336617D01*
X28365452Y21336734D01*
X28365476Y21336794D01*
X28309109Y21375339D01*
X28281913Y21439698D01*
X28293829Y21508544D01*
X28341074Y21560019D01*
X28366788Y21571761D01*
X28465715Y21603904D01*
X28655057Y21700380D01*
X28826959Y21825273D01*
X28826964Y21825277D01*
X28977223Y21975536D01*
X28977227Y21975541D01*
X29102120Y22147442D01*
X29107014Y22157046D01*
X29154988Y22207843D01*
X29222808Y22224639D01*
X29288944Y22202103D01*
X29327986Y22157046D01*
X29332879Y22147442D01*
X29457772Y21975541D01*
X29457776Y21975536D01*
X29608035Y21825277D01*
X29608040Y21825273D01*
X29779942Y21700380D01*
X29969284Y21603904D01*
X30068211Y21571761D01*
X30125887Y21532324D01*
X30153086Y21467966D01*
X30141172Y21399119D01*
X30093928Y21347643D01*
X30068222Y21335903D01*
X30067022Y21335513D01*
X30065050Y21334872D01*
X29910711Y21256232D01*
X29830756Y21198141D01*
X29770572Y21154414D01*
X29770570Y21154412D01*
X29770569Y21154412D01*
X29648088Y21031931D01*
X29648088Y21031930D01*
X29648086Y21031928D01*
X29604359Y20971744D01*
X29546268Y20891789D01*
X29467628Y20737448D01*
X29414097Y20572698D01*
X29390394Y20423039D01*
X29387000Y20401611D01*
X29387000Y20228389D01*
X29414098Y20057299D01*
X29467627Y19892555D01*
X29546268Y19738212D01*
X29648086Y19598072D01*
X29770572Y19475586D01*
X29910712Y19373768D01*
X30065055Y19295127D01*
X30229799Y19241598D01*
X30400889Y19214500D01*
X30400890Y19214500D01*
X30574110Y19214500D01*
X30574111Y19214500D01*
X30745201Y19241598D01*
X30909945Y19295127D01*
X31064288Y19373768D01*
X31204428Y19475586D01*
X31326914Y19598072D01*
X31428732Y19738212D01*
X31507373Y19892555D01*
X31560902Y20057299D01*
X31588000Y20228389D01*
X31588000Y20401611D01*
X31560902Y20572701D01*
X31507373Y20737445D01*
X31428732Y20891788D01*
X31326914Y21031928D01*
X31204428Y21154414D01*
X31064288Y21256232D01*
X31051515Y21262740D01*
X30909946Y21334873D01*
X30906784Y21335900D01*
X30905736Y21336617D01*
X30905452Y21336734D01*
X30905476Y21336794D01*
X30849109Y21375339D01*
X30821913Y21439698D01*
X30833829Y21508544D01*
X30881074Y21560019D01*
X30906788Y21571761D01*
X31005715Y21603904D01*
X31195057Y21700380D01*
X31366959Y21825273D01*
X31366964Y21825277D01*
X31517223Y21975536D01*
X31517227Y21975541D01*
X31642120Y22147442D01*
X31647014Y22157046D01*
X31694988Y22207843D01*
X31762808Y22224639D01*
X31828944Y22202103D01*
X31867986Y22157046D01*
X31872879Y22147442D01*
X31997772Y21975541D01*
X31997776Y21975536D01*
X32148035Y21825277D01*
X32148040Y21825273D01*
X32319942Y21700380D01*
X32509284Y21603904D01*
X32608211Y21571761D01*
X32665887Y21532324D01*
X32693086Y21467966D01*
X32681172Y21399119D01*
X32633928Y21347643D01*
X32608222Y21335903D01*
X32607022Y21335513D01*
X32605050Y21334872D01*
X32450711Y21256232D01*
X32370756Y21198141D01*
X32310572Y21154414D01*
X32310570Y21154412D01*
X32310569Y21154412D01*
X32188088Y21031931D01*
X32188088Y21031930D01*
X32188086Y21031928D01*
X32144359Y20971744D01*
X32086268Y20891789D01*
X32007628Y20737448D01*
X31954097Y20572698D01*
X31930394Y20423039D01*
X31927000Y20401611D01*
X31927000Y20228389D01*
X31954098Y20057299D01*
X32007627Y19892555D01*
X32086268Y19738212D01*
X32188086Y19598072D01*
X32310572Y19475586D01*
X32450712Y19373768D01*
X32605055Y19295127D01*
X32769799Y19241598D01*
X32940889Y19214500D01*
X32940890Y19214500D01*
X33114110Y19214500D01*
X33114111Y19214500D01*
X33285201Y19241598D01*
X33449945Y19295127D01*
X33604288Y19373768D01*
X33744428Y19475586D01*
X33866914Y19598072D01*
X33968732Y19738212D01*
X34047373Y19892555D01*
X34100902Y20057299D01*
X34128000Y20228389D01*
X34128000Y20401611D01*
X34100902Y20572701D01*
X34047373Y20737445D01*
X33968732Y20891788D01*
X33866914Y21031928D01*
X33744428Y21154414D01*
X33604288Y21256232D01*
X33591515Y21262740D01*
X33449946Y21334873D01*
X33446784Y21335900D01*
X33445736Y21336617D01*
X33445452Y21336734D01*
X33445476Y21336794D01*
X33389109Y21375339D01*
X33361913Y21439698D01*
X33373829Y21508544D01*
X33421074Y21560019D01*
X33446788Y21571761D01*
X33545715Y21603904D01*
X33735057Y21700380D01*
X33906959Y21825273D01*
X33906964Y21825277D01*
X34057223Y21975536D01*
X34057227Y21975541D01*
X34146312Y22098156D01*
X34546000Y22098156D01*
X34552401Y22038628D01*
X34552403Y22038621D01*
X34602645Y21903914D01*
X34602649Y21903907D01*
X34688809Y21788813D01*
X34688812Y21788810D01*
X34803906Y21702650D01*
X34803913Y21702646D01*
X34938620Y21652404D01*
X34938627Y21652402D01*
X34998155Y21646001D01*
X34998172Y21646000D01*
X35050000Y21646000D01*
X35050000Y21661291D01*
X35550000Y21661291D01*
X35674196Y21657184D01*
X35796086Y21702646D01*
X35796093Y21702650D01*
X35911187Y21788810D01*
X35911190Y21788813D01*
X35997350Y21903907D01*
X35997354Y21903914D01*
X36047596Y22038621D01*
X36047598Y22038628D01*
X36053999Y22098156D01*
X36054000Y22098173D01*
X36054000Y22146000D01*
X35550000Y22146000D01*
X35550000Y21661291D01*
X35050000Y21661291D01*
X35050000Y22146000D01*
X34546000Y22146000D01*
X34546000Y22098156D01*
X34146312Y22098156D01*
X34182122Y22147445D01*
X34236242Y22253658D01*
X34278595Y22336783D01*
X34344159Y22538569D01*
X34325628Y22605000D01*
X33460512Y22605000D01*
X33493425Y22662007D01*
X33527500Y22789174D01*
X33527500Y22920826D01*
X33493425Y23047993D01*
X33460512Y23105000D01*
X34354731Y23105000D01*
X34344257Y23171127D01*
X34344257Y23171130D01*
X34278595Y23373218D01*
X34182120Y23562558D01*
X34057227Y23734460D01*
X34057223Y23734465D01*
X33906964Y23884724D01*
X33906959Y23884728D01*
X33735057Y24009621D01*
X33545715Y24106097D01*
X33343624Y24171759D01*
X33277500Y24182232D01*
X33277500Y23288012D01*
X33220493Y23320925D01*
X33093326Y23355000D01*
X32961674Y23355000D01*
X32834507Y23320925D01*
X32777500Y23288012D01*
X32777500Y24182232D01*
X32777499Y24182232D01*
X32711375Y24171759D01*
X32509284Y24106097D01*
X32319942Y24009621D01*
X32148040Y23884728D01*
X32148035Y23884724D01*
X31997776Y23734465D01*
X31997772Y23734460D01*
X31872877Y23562556D01*
X31867984Y23552952D01*
X31820009Y23502156D01*
X31752188Y23485362D01*
X31686053Y23507900D01*
X31647016Y23552952D01*
X31642122Y23562556D01*
X31517227Y23734460D01*
X31517223Y23734465D01*
X31366964Y23884724D01*
X31366959Y23884728D01*
X31195057Y24009621D01*
X31005715Y24106097D01*
X30803624Y24171759D01*
X30737500Y24182232D01*
X30737500Y23288012D01*
X30680493Y23320925D01*
X30553326Y23355000D01*
X30421674Y23355000D01*
X30294507Y23320925D01*
X30237500Y23288012D01*
X30237500Y24182232D01*
X30237499Y24182232D01*
X30171375Y24171759D01*
X29969284Y24106097D01*
X29779942Y24009621D01*
X29608040Y23884728D01*
X29608035Y23884724D01*
X29457776Y23734465D01*
X29457772Y23734460D01*
X29332877Y23562556D01*
X29327984Y23552952D01*
X29280009Y23502156D01*
X29212188Y23485362D01*
X29146053Y23507900D01*
X29107016Y23552952D01*
X29102122Y23562556D01*
X28977227Y23734460D01*
X28977223Y23734465D01*
X28826964Y23884724D01*
X28826959Y23884728D01*
X28655057Y24009621D01*
X28465715Y24106097D01*
X28263624Y24171759D01*
X28197500Y24182232D01*
X28197500Y23288012D01*
X28140493Y23320925D01*
X28013326Y23355000D01*
X27881674Y23355000D01*
X27754507Y23320925D01*
X27697500Y23288012D01*
X27697500Y24182232D01*
X27697499Y24182232D01*
X27631375Y24171759D01*
X27429284Y24106097D01*
X27239942Y24009621D01*
X27068040Y23884728D01*
X27068035Y23884724D01*
X26917776Y23734465D01*
X26917772Y23734460D01*
X26792877Y23562556D01*
X26787984Y23552952D01*
X26740009Y23502156D01*
X26672188Y23485362D01*
X26606053Y23507900D01*
X26567016Y23552952D01*
X26562122Y23562556D01*
X26437227Y23734460D01*
X26437223Y23734465D01*
X26286964Y23884724D01*
X26286959Y23884728D01*
X26115057Y24009621D01*
X25925715Y24106097D01*
X25723624Y24171759D01*
X25657500Y24182232D01*
X25657500Y23288012D01*
X25600493Y23320925D01*
X25473326Y23355000D01*
X25341674Y23355000D01*
X25214507Y23320925D01*
X25157500Y23288012D01*
X25157500Y24182232D01*
X25157499Y24182232D01*
X25091375Y24171759D01*
X24889284Y24106097D01*
X24699942Y24009621D01*
X24528040Y23884728D01*
X24528035Y23884724D01*
X24377776Y23734465D01*
X24377772Y23734460D01*
X24252877Y23562556D01*
X24247984Y23552952D01*
X24200009Y23502156D01*
X24132188Y23485362D01*
X24066053Y23507900D01*
X24027016Y23552952D01*
X24022122Y23562556D01*
X23897227Y23734460D01*
X23897223Y23734465D01*
X23746964Y23884724D01*
X23746959Y23884728D01*
X23575057Y24009621D01*
X23385715Y24106097D01*
X23183624Y24171759D01*
X23117500Y24182232D01*
X23117500Y23288012D01*
X23060493Y23320925D01*
X22933326Y23355000D01*
X22801674Y23355000D01*
X22674507Y23320925D01*
X22617500Y23288012D01*
X22617500Y24182232D01*
X22617499Y24182232D01*
X22551375Y24171759D01*
X22349284Y24106097D01*
X22159942Y24009621D01*
X21988040Y23884728D01*
X21988035Y23884724D01*
X21837776Y23734465D01*
X21837772Y23734460D01*
X21712877Y23562556D01*
X21707984Y23552952D01*
X21660009Y23502156D01*
X21592188Y23485362D01*
X21526053Y23507900D01*
X21487016Y23552952D01*
X21482122Y23562556D01*
X21357227Y23734460D01*
X21357223Y23734465D01*
X21206964Y23884724D01*
X21206959Y23884728D01*
X21035057Y24009621D01*
X20845715Y24106097D01*
X20643624Y24171759D01*
X20577500Y24182232D01*
X20577500Y23288012D01*
X20520493Y23320925D01*
X20393326Y23355000D01*
X20261674Y23355000D01*
X20134507Y23320925D01*
X20077500Y23288012D01*
X20077500Y24182232D01*
X20077499Y24182232D01*
X20011375Y24171759D01*
X19809284Y24106097D01*
X19619942Y24009621D01*
X19448040Y23884728D01*
X19448035Y23884724D01*
X19297776Y23734465D01*
X19297772Y23734460D01*
X19172877Y23562556D01*
X19167984Y23552952D01*
X19120009Y23502156D01*
X19052188Y23485362D01*
X18986053Y23507900D01*
X18947016Y23552952D01*
X18942122Y23562556D01*
X18817227Y23734460D01*
X18817223Y23734465D01*
X18666964Y23884724D01*
X18666959Y23884728D01*
X18495057Y24009621D01*
X18305715Y24106097D01*
X18103624Y24171759D01*
X18037500Y24182232D01*
X18037500Y23288012D01*
X17980493Y23320925D01*
X17853326Y23355000D01*
X17721674Y23355000D01*
X17594507Y23320925D01*
X17537500Y23288012D01*
X17537500Y24182232D01*
X17537499Y24182232D01*
X17471375Y24171759D01*
X17269284Y24106097D01*
X17079942Y24009621D01*
X16908041Y23884729D01*
X16793977Y23770665D01*
X16732654Y23737181D01*
X16662962Y23742165D01*
X16607029Y23784037D01*
X16590114Y23815014D01*
X16540854Y23947087D01*
X16540850Y23947094D01*
X16454690Y24062188D01*
X16454687Y24062191D01*
X16339593Y24148351D01*
X16339586Y24148355D01*
X16204879Y24198597D01*
X16204872Y24198599D01*
X16145344Y24205000D01*
X15497500Y24205000D01*
X15497500Y23288012D01*
X15440493Y23320925D01*
X15313326Y23355000D01*
X15181674Y23355000D01*
X15054507Y23320925D01*
X14997500Y23288012D01*
X14997500Y24205000D01*
X14349655Y24205000D01*
X14290127Y24198599D01*
X14290120Y24198597D01*
X14155413Y24148355D01*
X14155406Y24148351D01*
X14040312Y24062191D01*
X14040309Y24062188D01*
X13954149Y23947094D01*
X13954145Y23947087D01*
X13903903Y23812380D01*
X13903901Y23812373D01*
X13897500Y23752845D01*
X13897500Y23105000D01*
X14814488Y23105000D01*
X14781575Y23047993D01*
X14747500Y22920826D01*
X14747500Y22789174D01*
X14781575Y22662007D01*
X14814488Y22605000D01*
X13897500Y22605000D01*
X13865681Y22573181D01*
X13804358Y22539696D01*
X13734666Y22544680D01*
X13678733Y22586552D01*
X13654316Y22652016D01*
X13654000Y22660862D01*
X13654000Y22693828D01*
X13653999Y22693845D01*
X13647598Y22753373D01*
X13647596Y22753380D01*
X13597354Y22888087D01*
X13597350Y22888094D01*
X13511191Y23003186D01*
X13511185Y23003193D01*
X13454188Y23045861D01*
X13412318Y23101795D01*
X13404500Y23145127D01*
X13404500Y23678677D01*
X13404499Y23678679D01*
X13393902Y23731958D01*
X13389967Y23751737D01*
X13389966Y23751740D01*
X13368386Y23784037D01*
X13334601Y23834601D01*
X13279235Y23871595D01*
X13251739Y23889967D01*
X13251735Y23889968D01*
X13178677Y23904500D01*
X13178674Y23904500D01*
X12621326Y23904500D01*
X12621323Y23904500D01*
X12548264Y23889968D01*
X12548260Y23889967D01*
X12465398Y23834601D01*
X12448700Y23809609D01*
X12395088Y23764804D01*
X12345598Y23754500D01*
X11841538Y23754500D01*
X11774499Y23774185D01*
X11734151Y23816500D01*
X11694436Y23885289D01*
X11694435Y23885291D01*
X11546766Y24077737D01*
X11546760Y24077744D01*
X11375243Y24249261D01*
X11375236Y24249267D01*
X11182793Y24396933D01*
X11182792Y24396934D01*
X11182789Y24396936D01*
X11145240Y24418615D01*
X11097027Y24469180D01*
X11083803Y24537787D01*
X11109771Y24602651D01*
X11166685Y24643180D01*
X11207242Y24650000D01*
X37037758Y24650000D01*
X37040688Y24649140D01*
X37043659Y24649860D01*
X37074004Y24639357D01*
X37104797Y24630315D01*
X37106797Y24628007D01*
X37109685Y24627007D01*
X37129536Y24601765D01*
X37150552Y24577511D01*
X37150986Y24574489D01*
X37152876Y24572086D01*
X37155927Y24540125D01*
X37160496Y24508353D01*
X37159226Y24505574D01*
X37159517Y24502532D01*
X37144806Y24473999D01*
X37131471Y24444797D01*
X37128478Y24442327D01*
X37127501Y24440430D01*
X37099761Y24418616D01*
X37062211Y24396936D01*
X37062206Y24396933D01*
X36869763Y24249267D01*
X36869756Y24249261D01*
X36698239Y24077744D01*
X36698233Y24077737D01*
X36550564Y23885291D01*
X36526315Y23843290D01*
X36510848Y23816500D01*
X36460283Y23768285D01*
X36403462Y23754500D01*
X35854402Y23754500D01*
X35787363Y23774185D01*
X35751300Y23809609D01*
X35734601Y23834601D01*
X35651739Y23889967D01*
X35651735Y23889968D01*
X35578677Y23904500D01*
X35578674Y23904500D01*
X35021326Y23904500D01*
X35021323Y23904500D01*
X34948264Y23889968D01*
X34948260Y23889967D01*
X34865399Y23834601D01*
X34810033Y23751740D01*
X34810032Y23751736D01*
X34795500Y23678679D01*
X34795500Y23145127D01*
X34775815Y23078088D01*
X34745812Y23045861D01*
X34688814Y23003193D01*
X34688808Y23003186D01*
X34602649Y22888094D01*
X34602645Y22888087D01*
X34552403Y22753380D01*
X34552401Y22753374D01*
X34549426Y22725704D01*
X34571659Y22646000D01*
X36055219Y22646000D01*
X36113853Y22678018D01*
X36183545Y22673034D01*
X36239479Y22631164D01*
X36263152Y22573038D01*
X36273661Y22493215D01*
X36336447Y22258896D01*
X36429273Y22034795D01*
X36429277Y22034786D01*
X36451474Y21996339D01*
X36550564Y21824711D01*
X36550566Y21824708D01*
X36550567Y21824707D01*
X36698233Y21632264D01*
X36698239Y21632257D01*
X36869756Y21460740D01*
X36869763Y21460734D01*
X36934394Y21411141D01*
X37062211Y21313064D01*
X37272288Y21191776D01*
X37496400Y21098946D01*
X37730711Y21036162D01*
X37911086Y21012416D01*
X37971211Y21004500D01*
X37971212Y21004500D01*
X38213789Y21004500D01*
X38261888Y21010833D01*
X38454289Y21036162D01*
X38688600Y21098946D01*
X38912712Y21191776D01*
X39122789Y21313064D01*
X39315238Y21460735D01*
X39486765Y21632262D01*
X39634436Y21824711D01*
X39755724Y22034788D01*
X39773677Y22078133D01*
X39817517Y22132533D01*
X39883811Y22154599D01*
X39951510Y22137320D01*
X39999121Y22086184D01*
X40012237Y22031257D01*
X40031999Y17802214D01*
X40032000Y17801635D01*
X40032000Y14073502D01*
X40029511Y14065026D01*
X40030799Y14056287D01*
X40019819Y14032019D01*
X40012315Y14006463D01*
X40005639Y14000679D01*
X40001998Y13992630D01*
X39979639Y13978150D01*
X39959511Y13960708D01*
X39949225Y13958452D01*
X39943354Y13954649D01*
X39908437Y13949503D01*
X39874937Y13949385D01*
X39807828Y13968833D01*
X39761888Y14021476D01*
X39750500Y14073384D01*
X39750500Y16383640D01*
X39750500Y16383642D01*
X39726614Y16472786D01*
X39695536Y16526614D01*
X39695536Y16526615D01*
X39695534Y16526617D01*
X39693234Y16530601D01*
X39680470Y16552710D01*
X39680469Y16552711D01*
X39680466Y16552715D01*
X39044189Y17188991D01*
X39010704Y17250314D01*
X39015688Y17320005D01*
X39032603Y17350983D01*
X39043258Y17365216D01*
X39070212Y17401222D01*
X39119251Y17532701D01*
X39125499Y17590810D01*
X39125500Y17590827D01*
X39125500Y18284174D01*
X39125499Y18284191D01*
X39119251Y18342300D01*
X39104665Y18381406D01*
X39070212Y18473778D01*
X39003460Y18562948D01*
X38979043Y18628410D01*
X38993894Y18696683D01*
X39037631Y18742796D01*
X39098037Y18780055D01*
X39219944Y18901962D01*
X39219947Y18901966D01*
X39310448Y19048689D01*
X39310453Y19048700D01*
X39364680Y19212348D01*
X39374999Y19313346D01*
X39375000Y19313359D01*
X39375000Y19412500D01*
X37472043Y19412500D01*
X37405004Y19432185D01*
X37384362Y19448819D01*
X36821526Y20011655D01*
X37425000Y20011655D01*
X37425000Y19912500D01*
X38150000Y19912500D01*
X38650000Y19912500D01*
X39374999Y19912500D01*
X39374999Y20011640D01*
X39374998Y20011655D01*
X39364680Y20112653D01*
X39310453Y20276301D01*
X39310448Y20276312D01*
X39219947Y20423035D01*
X39219944Y20423039D01*
X39098038Y20544945D01*
X39098034Y20544948D01*
X38951311Y20635449D01*
X38951300Y20635454D01*
X38787652Y20689681D01*
X38686654Y20700000D01*
X38650000Y20700000D01*
X38650000Y19912500D01*
X38150000Y19912500D01*
X38150000Y20700000D01*
X38113361Y20700000D01*
X38113343Y20699999D01*
X38012347Y20689681D01*
X37848699Y20635454D01*
X37848688Y20635449D01*
X37701965Y20544948D01*
X37701961Y20544945D01*
X37580055Y20423039D01*
X37580052Y20423035D01*
X37489551Y20276312D01*
X37489546Y20276301D01*
X37435319Y20112653D01*
X37425000Y20011655D01*
X36821526Y20011655D01*
X36689319Y20143862D01*
X36655834Y20205185D01*
X36653000Y20231543D01*
X36653000Y20401611D01*
X36630298Y20544945D01*
X36625902Y20572701D01*
X36572373Y20737445D01*
X36493732Y20891788D01*
X36391914Y21031928D01*
X36269428Y21154414D01*
X36129288Y21256232D01*
X35974945Y21334873D01*
X35810201Y21388402D01*
X35810199Y21388403D01*
X35810198Y21388403D01*
X35681334Y21408813D01*
X35681330Y21408814D01*
X35639111Y21415500D01*
X35465889Y21415500D01*
X35426228Y21409219D01*
X35294802Y21388403D01*
X35294799Y21388402D01*
X35135423Y21336617D01*
X35130052Y21334872D01*
X34975711Y21256232D01*
X34895756Y21198141D01*
X34835572Y21154414D01*
X34835570Y21154412D01*
X34835569Y21154412D01*
X34713088Y21031931D01*
X34713088Y21031930D01*
X34713086Y21031928D01*
X34669359Y20971744D01*
X34611268Y20891789D01*
X34532628Y20737448D01*
X34479097Y20572698D01*
X34455394Y20423039D01*
X34452000Y20401611D01*
X34452000Y20228389D01*
X34479098Y20057299D01*
X34532627Y19892555D01*
X34611268Y19738212D01*
X34713086Y19598072D01*
X34835572Y19475586D01*
X34975712Y19373768D01*
X35130055Y19295127D01*
X35294799Y19241598D01*
X35465889Y19214500D01*
X35465890Y19214500D01*
X35639110Y19214500D01*
X35639111Y19214500D01*
X35810201Y19241598D01*
X35974945Y19295127D01*
X36129288Y19373768D01*
X36239818Y19454074D01*
X36305621Y19477552D01*
X36373675Y19461727D01*
X36400382Y19441435D01*
X37638181Y18203636D01*
X37671666Y18142313D01*
X37674500Y18115955D01*
X37674500Y17590810D01*
X37680748Y17532701D01*
X37719854Y17427856D01*
X37729788Y17401222D01*
X37813884Y17288884D01*
X37926222Y17204788D01*
X38057701Y17155749D01*
X38057706Y17155749D01*
X38060572Y17155071D01*
X38062697Y17153886D01*
X38064970Y17153038D01*
X38064840Y17152691D01*
X38119742Y17122074D01*
X39013181Y16228635D01*
X39046666Y16167312D01*
X39049500Y16140954D01*
X39049500Y14196544D01*
X39040855Y14167104D01*
X39034332Y14137117D01*
X39030577Y14132102D01*
X39029815Y14129505D01*
X39013181Y14108863D01*
X38891137Y13986819D01*
X38829814Y13953334D01*
X38803456Y13950500D01*
X27345543Y13950500D01*
X27278504Y13970185D01*
X27232749Y14022989D01*
X27222805Y14092147D01*
X27251830Y14155703D01*
X27257862Y14162181D01*
X27461658Y14365977D01*
X27680469Y14584788D01*
X27721752Y14656292D01*
X27760246Y14697391D01*
X27830601Y14744399D01*
X27885966Y14827260D01*
X27900500Y14900326D01*
X27900500Y15449674D01*
X27900500Y15449677D01*
X27900499Y15449679D01*
X27885967Y15522736D01*
X27885966Y15522740D01*
X27844208Y15585236D01*
X27830601Y15605601D01*
X27828631Y15606917D01*
X27805462Y15622398D01*
X27760657Y15676010D01*
X27751950Y15745335D01*
X27782104Y15808362D01*
X27841547Y15845082D01*
X27874353Y15849500D01*
X29840956Y15849500D01*
X29907995Y15829815D01*
X29928637Y15813181D01*
X30463181Y15278637D01*
X30496666Y15217314D01*
X30499500Y15190956D01*
X30499500Y14962822D01*
X30514032Y14889765D01*
X30514033Y14889761D01*
X30514034Y14889760D01*
X30569399Y14806899D01*
X30651166Y14752265D01*
X30652260Y14751534D01*
X30652264Y14751533D01*
X30725321Y14737001D01*
X30725324Y14737000D01*
X30725326Y14737000D01*
X31274676Y14737000D01*
X31274677Y14737001D01*
X31347740Y14751534D01*
X31430601Y14806899D01*
X31485966Y14889760D01*
X31500500Y14962826D01*
X31500500Y15512174D01*
X31500500Y15512177D01*
X31500499Y15512179D01*
X31485967Y15585236D01*
X31485966Y15585240D01*
X31485480Y15585968D01*
X31430601Y15668101D01*
X31347740Y15723466D01*
X31347739Y15723467D01*
X31347735Y15723468D01*
X31274677Y15738000D01*
X31274674Y15738000D01*
X31046544Y15738000D01*
X30979505Y15757685D01*
X30958863Y15774319D01*
X30252713Y16480469D01*
X30252708Y16480473D01*
X30172790Y16526613D01*
X30172783Y16526616D01*
X30157909Y16530602D01*
X30157909Y16530601D01*
X30120776Y16540551D01*
X30083644Y16550500D01*
X27353856Y16550500D01*
X27279591Y16530601D01*
X27279590Y16530602D01*
X27264711Y16526614D01*
X27264706Y16526612D01*
X27184794Y16480474D01*
X27184785Y16480467D01*
X26362181Y15657863D01*
X26342744Y15647251D01*
X26326011Y15632750D01*
X26312679Y15630834D01*
X26300858Y15624378D01*
X26278771Y15625958D01*
X26256853Y15622806D01*
X26244601Y15628402D01*
X26231166Y15629362D01*
X26213439Y15642633D01*
X26193297Y15651831D01*
X26186014Y15663163D01*
X26175233Y15671234D01*
X26167495Y15691980D01*
X26155523Y15710609D01*
X26152371Y15732528D01*
X26150816Y15736698D01*
X26150500Y15745544D01*
X26150500Y15803456D01*
X26170185Y15870495D01*
X26186819Y15891137D01*
X27308863Y17013181D01*
X27370186Y17046666D01*
X27396544Y17049500D01*
X32568456Y17049500D01*
X32635495Y17029815D01*
X32656137Y17013181D01*
X34074225Y15595093D01*
X34107710Y15533770D01*
X34108162Y15483222D01*
X34099500Y15439674D01*
X34099500Y14890322D01*
X34114032Y14817265D01*
X34114033Y14817261D01*
X34120956Y14806900D01*
X34169399Y14734399D01*
X34240489Y14686899D01*
X34252260Y14679034D01*
X34252264Y14679033D01*
X34325321Y14664501D01*
X34325324Y14664500D01*
X34325326Y14664500D01*
X34874676Y14664500D01*
X34874677Y14664501D01*
X34947740Y14679034D01*
X35030601Y14734399D01*
X35085966Y14817260D01*
X35100500Y14890326D01*
X35100500Y15439674D01*
X35100500Y15439677D01*
X35100499Y15439679D01*
X35085967Y15512736D01*
X35085966Y15512740D01*
X35062339Y15548101D01*
X35030601Y15595601D01*
X35030599Y15595602D01*
X35030599Y15595603D01*
X34976909Y15631477D01*
X34932103Y15685089D01*
X34927758Y15697524D01*
X34926615Y15700283D01*
X34926614Y15700288D01*
X34896608Y15752260D01*
X34880472Y15780209D01*
X34880468Y15780214D01*
X32980213Y17680469D01*
X32980208Y17680473D01*
X32900290Y17726613D01*
X32900289Y17726614D01*
X32900288Y17726614D01*
X32811144Y17750500D01*
X27153856Y17750500D01*
X27064712Y17726614D01*
X27064709Y17726613D01*
X26984791Y17680473D01*
X26984786Y17680469D01*
X25712181Y16407864D01*
X25650858Y16374379D01*
X25581166Y16379363D01*
X25525233Y16421235D01*
X25500816Y16486699D01*
X25500500Y16495545D01*
X25500500Y16953456D01*
X25520185Y17020495D01*
X25536819Y17041137D01*
X26508863Y18013181D01*
X26570186Y18046666D01*
X26596544Y18049500D01*
X33603456Y18049500D01*
X33670495Y18029815D01*
X33691137Y18013181D01*
X36867288Y14837030D01*
X36867289Y14837029D01*
X36867291Y14837028D01*
X36884210Y14827260D01*
X36901522Y14817265D01*
X36919474Y14806901D01*
X36919476Y14806899D01*
X36919477Y14806899D01*
X36947212Y14790886D01*
X37036356Y14767000D01*
X37649598Y14767000D01*
X37716637Y14747315D01*
X37752700Y14711891D01*
X37769399Y14686899D01*
X37852260Y14631534D01*
X37852264Y14631533D01*
X37925321Y14617001D01*
X37925324Y14617000D01*
X37925326Y14617000D01*
X38474676Y14617000D01*
X38474677Y14617001D01*
X38547740Y14631534D01*
X38630601Y14686899D01*
X38685966Y14769760D01*
X38700500Y14842826D01*
X38700500Y15392174D01*
X38700500Y15392177D01*
X38700499Y15392179D01*
X38685967Y15465236D01*
X38685966Y15465240D01*
X38666898Y15493778D01*
X38630601Y15548101D01*
X38573928Y15585968D01*
X38547739Y15603467D01*
X38547735Y15603468D01*
X38474677Y15618000D01*
X38474674Y15618000D01*
X37925326Y15618000D01*
X37925323Y15618000D01*
X37852264Y15603468D01*
X37852260Y15603467D01*
X37769398Y15548101D01*
X37752700Y15523109D01*
X37699088Y15478304D01*
X37649598Y15468000D01*
X37279044Y15468000D01*
X37212005Y15487685D01*
X37191363Y15504319D01*
X34015213Y18680469D01*
X34015208Y18680473D01*
X33935290Y18726613D01*
X33935289Y18726614D01*
X33935288Y18726614D01*
X33846144Y18750500D01*
X26353856Y18750500D01*
X26264712Y18726614D01*
X26264709Y18726613D01*
X26184791Y18680473D01*
X26184786Y18680469D01*
X24869533Y17365217D01*
X24869532Y17365216D01*
X24858522Y17346144D01*
X24858520Y17346142D01*
X24823388Y17285294D01*
X24823387Y17285291D01*
X24823386Y17285289D01*
X24823386Y17285288D01*
X24814015Y17250314D01*
X24799500Y17196144D01*
X24799500Y15346545D01*
X24779815Y15279506D01*
X24763181Y15258864D01*
X23599693Y14095377D01*
X23554425Y14066537D01*
X23517225Y14052997D01*
X23480754Y14025011D01*
X23389053Y13933310D01*
X23388634Y13933082D01*
X23388403Y13932665D01*
X23357992Y13916351D01*
X23327729Y13899826D01*
X23327254Y13899860D01*
X23326833Y13899634D01*
X23292452Y13902349D01*
X23258038Y13904810D01*
X23257494Y13905110D01*
X23257181Y13905134D01*
X23255654Y13906123D01*
X23226330Y13922277D01*
X23219636Y13927366D01*
X23164421Y13982580D01*
X23127947Y14010569D01*
X23093869Y14022973D01*
X23078903Y14034350D01*
X23074758Y14039973D01*
X23066264Y14045384D01*
X22786819Y14324829D01*
X22753334Y14386152D01*
X22750500Y14412510D01*
X22750500Y14960569D01*
X22770185Y15027608D01*
X22805610Y15063672D01*
X22814669Y15069724D01*
X22905276Y15160331D01*
X22976465Y15266873D01*
X23025501Y15385256D01*
X23038315Y15449674D01*
X23050500Y15510929D01*
X23050500Y15639072D01*
X23025502Y15764739D01*
X23025501Y15764740D01*
X23025501Y15764744D01*
X22976465Y15883127D01*
X22976464Y15883128D01*
X22976461Y15883134D01*
X22905276Y15989669D01*
X22905273Y15989673D01*
X22814672Y16080274D01*
X22814668Y16080277D01*
X22708133Y16151462D01*
X22708124Y16151467D01*
X22589744Y16200501D01*
X22589738Y16200503D01*
X22464071Y16225500D01*
X22464069Y16225500D01*
X22335931Y16225500D01*
X22335929Y16225500D01*
X22210261Y16200503D01*
X22210255Y16200501D01*
X22091875Y16151467D01*
X22091866Y16151462D01*
X21985331Y16080277D01*
X21985327Y16080274D01*
X21894726Y15989673D01*
X21894723Y15989669D01*
X21823538Y15883134D01*
X21823533Y15883125D01*
X21774499Y15764745D01*
X21774497Y15764739D01*
X21749500Y15639072D01*
X21749500Y15639069D01*
X21749500Y15510931D01*
X21749500Y15510929D01*
X21749499Y15510929D01*
X21774497Y15385262D01*
X21774499Y15385256D01*
X21823533Y15266876D01*
X21823538Y15266867D01*
X21894723Y15160332D01*
X21894726Y15160328D01*
X21985325Y15069729D01*
X21985328Y15069727D01*
X21985331Y15069724D01*
X21994388Y15063673D01*
X22039193Y15010065D01*
X22049500Y14960569D01*
X22049500Y14696830D01*
X22029815Y14629791D01*
X21977011Y14584036D01*
X21907853Y14574092D01*
X21844297Y14603117D01*
X21837819Y14609149D01*
X21194462Y15252506D01*
X21194457Y15252510D01*
X21114539Y15298650D01*
X21114538Y15298651D01*
X21114537Y15298651D01*
X21025393Y15322537D01*
X21025392Y15322537D01*
X20992274Y15322537D01*
X20925235Y15342222D01*
X20904593Y15358856D01*
X17482980Y18780469D01*
X17482975Y18780473D01*
X17403057Y18826613D01*
X17403056Y18826614D01*
X17403055Y18826614D01*
X17313911Y18850500D01*
X7253856Y18850500D01*
X7164712Y18826614D01*
X7164711Y18826614D01*
X7164709Y18826613D01*
X7164706Y18826612D01*
X7084794Y18780474D01*
X7084785Y18780467D01*
X4926324Y16622007D01*
X4911039Y16613550D01*
X4899281Y16601526D01*
X4869311Y16590462D01*
X4866352Y16588824D01*
X4864545Y16588410D01*
X4852260Y16585966D01*
X4851410Y16585399D01*
X4840098Y16582805D01*
X4815175Y16584308D01*
X4790344Y16581644D01*
X4780897Y16586376D01*
X4770355Y16587011D01*
X4750199Y16601751D01*
X4727872Y16612934D01*
X4722484Y16622020D01*
X4713958Y16628255D01*
X4704969Y16651555D01*
X4692234Y16673031D01*
X4690024Y16690296D01*
X4688811Y16693442D01*
X4689311Y16695872D01*
X4688391Y16703063D01*
X4650602Y24525401D01*
X4669963Y24592535D01*
X4722545Y24638544D01*
X4774601Y24650000D01*
X9097758Y24650000D01*
X9164797Y24630315D01*
G37*
G04 #@! TD.AperFunction*
G04 #@! TA.AperFunction,Conductor*
G36*
X17321575Y23047993D02*
G01*
X17287500Y22920826D01*
X17287500Y22789174D01*
X17321575Y22662007D01*
X17354488Y22605000D01*
X15680512Y22605000D01*
X15713425Y22662007D01*
X15747500Y22789174D01*
X15747500Y22920826D01*
X15713425Y23047993D01*
X15680512Y23105000D01*
X17354488Y23105000D01*
X17321575Y23047993D01*
G37*
G04 #@! TD.AperFunction*
G04 #@! TA.AperFunction,Conductor*
G36*
X19861575Y23047993D02*
G01*
X19827500Y22920826D01*
X19827500Y22789174D01*
X19861575Y22662007D01*
X19894488Y22605000D01*
X18220512Y22605000D01*
X18253425Y22662007D01*
X18287500Y22789174D01*
X18287500Y22920826D01*
X18253425Y23047993D01*
X18220512Y23105000D01*
X19894488Y23105000D01*
X19861575Y23047993D01*
G37*
G04 #@! TD.AperFunction*
G04 #@! TA.AperFunction,Conductor*
G36*
X22401575Y23047993D02*
G01*
X22367500Y22920826D01*
X22367500Y22789174D01*
X22401575Y22662007D01*
X22434488Y22605000D01*
X20760512Y22605000D01*
X20793425Y22662007D01*
X20827500Y22789174D01*
X20827500Y22920826D01*
X20793425Y23047993D01*
X20760512Y23105000D01*
X22434488Y23105000D01*
X22401575Y23047993D01*
G37*
G04 #@! TD.AperFunction*
G04 #@! TA.AperFunction,Conductor*
G36*
X24941575Y23047993D02*
G01*
X24907500Y22920826D01*
X24907500Y22789174D01*
X24941575Y22662007D01*
X24974488Y22605000D01*
X23300512Y22605000D01*
X23333425Y22662007D01*
X23367500Y22789174D01*
X23367500Y22920826D01*
X23333425Y23047993D01*
X23300512Y23105000D01*
X24974488Y23105000D01*
X24941575Y23047993D01*
G37*
G04 #@! TD.AperFunction*
G04 #@! TA.AperFunction,Conductor*
G36*
X27481575Y23047993D02*
G01*
X27447500Y22920826D01*
X27447500Y22789174D01*
X27481575Y22662007D01*
X27514488Y22605000D01*
X25840512Y22605000D01*
X25873425Y22662007D01*
X25907500Y22789174D01*
X25907500Y22920826D01*
X25873425Y23047993D01*
X25840512Y23105000D01*
X27514488Y23105000D01*
X27481575Y23047993D01*
G37*
G04 #@! TD.AperFunction*
G04 #@! TA.AperFunction,Conductor*
G36*
X30021575Y23047993D02*
G01*
X29987500Y22920826D01*
X29987500Y22789174D01*
X30021575Y22662007D01*
X30054488Y22605000D01*
X28380512Y22605000D01*
X28413425Y22662007D01*
X28447500Y22789174D01*
X28447500Y22920826D01*
X28413425Y23047993D01*
X28380512Y23105000D01*
X30054488Y23105000D01*
X30021575Y23047993D01*
G37*
G04 #@! TD.AperFunction*
G04 #@! TA.AperFunction,Conductor*
G36*
X32561575Y23047993D02*
G01*
X32527500Y22920826D01*
X32527500Y22789174D01*
X32561575Y22662007D01*
X32594488Y22605000D01*
X30920512Y22605000D01*
X30953425Y22662007D01*
X30987500Y22789174D01*
X30987500Y22920826D01*
X30953425Y23047993D01*
X30920512Y23105000D01*
X32594488Y23105000D01*
X32561575Y23047993D01*
G37*
G04 #@! TD.AperFunction*
G04 #@! TD*
G04 #@! TA.AperFunction,Conductor*
G04 #@! TO.N,GNDD*
G36*
X4357072Y24631093D02*
G01*
X4393036Y24581593D01*
X4396940Y24537381D01*
X4395105Y24524170D01*
X4432893Y16701832D01*
X4433303Y16695630D01*
X4433306Y16695592D01*
X4434957Y16670639D01*
X4435877Y16663448D01*
X4436269Y16663499D01*
X4436788Y16657882D01*
X4436592Y16657856D01*
X4437303Y16652296D01*
X4437304Y16652293D01*
X4439278Y16636863D01*
X4446381Y16616715D01*
X4449162Y16606062D01*
X4450414Y16601532D01*
X4465242Y16563076D01*
X4465722Y16561847D01*
X4472468Y16542712D01*
X4474290Y16539639D01*
X4475582Y16536291D01*
X4476237Y16534960D01*
X4476240Y16534953D01*
X4495693Y16495437D01*
X4495695Y16495433D01*
X4495696Y16495432D01*
X4495698Y16495429D01*
X4506444Y16483730D01*
X4506445Y16483730D01*
X4510420Y16479404D01*
X4534737Y16445665D01*
X4558085Y16427519D01*
X4563138Y16422018D01*
X4571664Y16415783D01*
X4574419Y16413768D01*
X4610228Y16364157D01*
X4610038Y16302971D01*
X4601716Y16284359D01*
X4573388Y16235292D01*
X4573384Y16235284D01*
X4549501Y16146144D01*
X4549501Y16053855D01*
X4573384Y15964715D01*
X4573387Y15964709D01*
X4604438Y15910927D01*
X4617160Y15851079D01*
X4592273Y15795183D01*
X4583894Y15786922D01*
X4545345Y15753193D01*
X4513882Y15720271D01*
X4468100Y15631714D01*
X4448737Y15564579D01*
X4438735Y15492543D01*
X4444183Y14364754D01*
X4444183Y14364750D01*
X4444184Y14364743D01*
X4446548Y14342635D01*
X4447976Y14329277D01*
X4449700Y14313160D01*
X4460055Y14264150D01*
X4460058Y14264136D01*
X4460061Y14264125D01*
X4466290Y14240364D01*
X4466290Y14240363D01*
X4498426Y14181657D01*
X4514158Y14152918D01*
X4529111Y14135063D01*
X4559013Y14099359D01*
X4559019Y14099353D01*
X4613171Y14050813D01*
X4666973Y14014945D01*
X4826950Y13908293D01*
X4827035Y13908237D01*
X4828879Y13907019D01*
X4829046Y13906910D01*
X4830621Y13905879D01*
X4830622Y13905878D01*
X4853375Y13895375D01*
X4898520Y13874535D01*
X4965559Y13854850D01*
X5005550Y13849100D01*
X5037540Y13844500D01*
X5037544Y13844500D01*
X10948049Y13844500D01*
X11006240Y13825593D01*
X11019746Y13813768D01*
X12658523Y12092691D01*
X12761970Y11984049D01*
X12804283Y11948315D01*
X12848607Y11918464D01*
X12872750Y11904069D01*
X12968384Y11875917D01*
X13037972Y11869642D01*
X13077014Y11869617D01*
X13083518Y11869612D01*
X13083518Y11869613D01*
X13083521Y11869612D01*
X13083523Y11869613D01*
X13083525Y11869613D01*
X13105051Y11875918D01*
X13179193Y11897634D01*
X13241126Y11929978D01*
X13241135Y11929984D01*
X13241136Y11929984D01*
X13269951Y11948476D01*
X13329136Y11963993D01*
X13386138Y11941758D01*
X13413474Y11906285D01*
X13466474Y11790234D01*
X13466476Y11790231D01*
X13504094Y11743549D01*
X14057921Y11189723D01*
X14120493Y11127152D01*
X14148271Y11072635D01*
X14138700Y11012203D01*
X14095435Y10968938D01*
X14050490Y10958148D01*
X13875941Y10958148D01*
X13705350Y10917718D01*
X13705345Y10917716D01*
X13548666Y10839029D01*
X13468611Y10773815D01*
X13468607Y10773811D01*
X13274175Y10579380D01*
X13866376Y9987179D01*
X14555805Y10676607D01*
X14513382Y10719029D01*
X14507327Y10730911D01*
X14497452Y10739874D01*
X14493778Y10757503D01*
X14485604Y10773545D01*
X14487690Y10786717D01*
X14484969Y10799773D01*
X14492358Y10816194D01*
X14495175Y10833977D01*
X14504605Y10843408D01*
X14510078Y10855569D01*
X14524344Y10863147D01*
X14538439Y10877242D01*
X14563187Y10885951D01*
X14566204Y10886580D01*
X14706061Y10906688D01*
X14742463Y10923313D01*
X14753308Y10925573D01*
X14772421Y10923488D01*
X14792281Y10925858D01*
X14878148Y10909269D01*
X14884922Y10909307D01*
X14943216Y10890725D01*
X14979455Y10841427D01*
X14979797Y10780242D01*
X14975527Y10769184D01*
X14937002Y10684824D01*
X14917033Y10545930D01*
X14917033Y10545928D01*
X14917033Y10545926D01*
X14922152Y10510320D01*
X14937031Y10406827D01*
X14926596Y10346538D01*
X14909042Y10322735D01*
X14113157Y9526850D01*
X14058640Y9499073D01*
X13998208Y9508644D01*
X13973149Y9526850D01*
X13866376Y9633623D01*
X13759603Y9526850D01*
X13705087Y9499073D01*
X13644655Y9508645D01*
X13619596Y9526850D01*
X12920621Y10225824D01*
X12765243Y10070446D01*
X12710727Y10042669D01*
X12650295Y10052240D01*
X12625236Y10070446D01*
X11470632Y11225050D01*
X10315212Y12380470D01*
X10235288Y12426614D01*
X10146144Y12450500D01*
X10146142Y12450500D01*
X5794157Y12450500D01*
X5735966Y12469407D01*
X5724153Y12479496D01*
X4091996Y14111653D01*
X4064219Y14166170D01*
X4063000Y14181657D01*
X4063000Y15772844D01*
X4059228Y15786922D01*
X4039114Y15861989D01*
X4032534Y15873386D01*
X4031645Y15874925D01*
X4002709Y15925044D01*
X3992970Y15941913D01*
X3185723Y16749160D01*
X3157948Y16803674D01*
X3167519Y16864106D01*
X3197538Y16899253D01*
X3254428Y16940586D01*
X3376914Y17063072D01*
X3478732Y17203212D01*
X3557373Y17357555D01*
X3557374Y17357560D01*
X3557376Y17357562D01*
X3610901Y17522294D01*
X3610902Y17522298D01*
X3638000Y17693386D01*
X3638000Y17866615D01*
X3610902Y18037703D01*
X3610901Y18037707D01*
X3557376Y18202439D01*
X3557374Y18202442D01*
X3557373Y18202443D01*
X3557373Y18202445D01*
X3478732Y18356788D01*
X3376914Y18496928D01*
X3254428Y18619414D01*
X3114288Y18721232D01*
X3114287Y18721233D01*
X3114285Y18721234D01*
X2959941Y18799875D01*
X2959938Y18799877D01*
X2795206Y18853402D01*
X2795202Y18853403D01*
X2624114Y18880500D01*
X2624111Y18880500D01*
X2450889Y18880500D01*
X2450886Y18880500D01*
X2279797Y18853403D01*
X2279793Y18853402D01*
X2115061Y18799877D01*
X2115058Y18799875D01*
X1960714Y18721234D01*
X1820573Y18619415D01*
X1698085Y18496927D01*
X1596266Y18356786D01*
X1517625Y18202442D01*
X1492823Y18126112D01*
X1456859Y18076612D01*
X1398667Y18057706D01*
X1340477Y18076614D01*
X1304514Y18126114D01*
X1248596Y18298214D01*
X1152124Y18487553D01*
X1027222Y18659465D01*
X876964Y18809723D01*
X705052Y18934624D01*
X651735Y18961790D01*
X608471Y19005054D01*
X598899Y19065486D01*
X626676Y19120003D01*
X651735Y19138210D01*
X705052Y19165377D01*
X876964Y19290278D01*
X1027222Y19440536D01*
X1152124Y19612448D01*
X1248596Y19801787D01*
X1304514Y19973887D01*
X1340478Y20023387D01*
X1398668Y20042295D01*
X1456859Y20023388D01*
X1492823Y19973889D01*
X1517625Y19897559D01*
X1517626Y19897556D01*
X1517627Y19897555D01*
X1596268Y19743212D01*
X1698086Y19603072D01*
X1820572Y19480586D01*
X1960712Y19378768D01*
X2115055Y19300127D01*
X2115057Y19300127D01*
X2115058Y19300126D01*
X2115061Y19300124D01*
X2279793Y19246599D01*
X2279797Y19246598D01*
X2450886Y19219500D01*
X2450889Y19219500D01*
X2624114Y19219500D01*
X2795202Y19246598D01*
X2795206Y19246599D01*
X2959938Y19300124D01*
X2959940Y19300126D01*
X2959945Y19300127D01*
X3114288Y19378768D01*
X3254428Y19480586D01*
X3376914Y19603072D01*
X3478732Y19743212D01*
X3557373Y19897555D01*
X3557374Y19897560D01*
X3557376Y19897562D01*
X3610901Y20062294D01*
X3610902Y20062298D01*
X3638000Y20233386D01*
X3638000Y20406615D01*
X3610902Y20577703D01*
X3610901Y20577707D01*
X3557376Y20742439D01*
X3557374Y20742442D01*
X3557373Y20742443D01*
X3557373Y20742445D01*
X3478732Y20896788D01*
X3376914Y21036928D01*
X3254428Y21159414D01*
X3114288Y21261232D01*
X3114287Y21261233D01*
X3114285Y21261234D01*
X2959941Y21339875D01*
X2959938Y21339877D01*
X2795206Y21393402D01*
X2795202Y21393403D01*
X2624114Y21420500D01*
X2624111Y21420500D01*
X2450889Y21420500D01*
X2450886Y21420500D01*
X2279797Y21393403D01*
X2279793Y21393402D01*
X2115061Y21339877D01*
X2115058Y21339875D01*
X1960714Y21261234D01*
X1820573Y21159415D01*
X1698085Y21036927D01*
X1596266Y20896786D01*
X1517625Y20742442D01*
X1492823Y20666112D01*
X1456859Y20616612D01*
X1398667Y20597706D01*
X1340477Y20616614D01*
X1304514Y20666114D01*
X1248596Y20838214D01*
X1152124Y21027553D01*
X1027222Y21199465D01*
X876964Y21349723D01*
X705052Y21474624D01*
X651735Y21501790D01*
X608471Y21545054D01*
X598899Y21605486D01*
X626676Y21660003D01*
X651735Y21678210D01*
X705052Y21705377D01*
X876964Y21830278D01*
X1027222Y21980536D01*
X1152124Y22152448D01*
X1248596Y22341787D01*
X1304514Y22513887D01*
X1340478Y22563387D01*
X1398668Y22582295D01*
X1456859Y22563388D01*
X1492823Y22513889D01*
X1517625Y22437559D01*
X1583885Y22307514D01*
X1596268Y22283212D01*
X1698086Y22143072D01*
X1820572Y22020586D01*
X1960712Y21918768D01*
X2115055Y21840127D01*
X2115057Y21840127D01*
X2115058Y21840126D01*
X2115061Y21840124D01*
X2279793Y21786599D01*
X2279797Y21786598D01*
X2450886Y21759500D01*
X2450889Y21759500D01*
X2624114Y21759500D01*
X2795202Y21786598D01*
X2795206Y21786599D01*
X2959938Y21840124D01*
X2959940Y21840126D01*
X2959945Y21840127D01*
X3114288Y21918768D01*
X3254428Y22020586D01*
X3376914Y22143072D01*
X3478732Y22283212D01*
X3557373Y22437555D01*
X3557374Y22437560D01*
X3557376Y22437562D01*
X3610901Y22602294D01*
X3610902Y22602298D01*
X3638000Y22773386D01*
X3638000Y22946615D01*
X3610902Y23117703D01*
X3610901Y23117707D01*
X3557376Y23282439D01*
X3557374Y23282442D01*
X3557373Y23282443D01*
X3557373Y23282445D01*
X3478732Y23436788D01*
X3376914Y23576928D01*
X3254428Y23699414D01*
X3114288Y23801232D01*
X3114287Y23801233D01*
X3114285Y23801234D01*
X2959941Y23879875D01*
X2959938Y23879877D01*
X2795206Y23933402D01*
X2795202Y23933403D01*
X2624114Y23960500D01*
X2624111Y23960500D01*
X2450889Y23960500D01*
X2450886Y23960500D01*
X2279797Y23933403D01*
X2279793Y23933402D01*
X2115061Y23879877D01*
X2115058Y23879875D01*
X1960714Y23801234D01*
X1820573Y23699415D01*
X1698085Y23576927D01*
X1596266Y23436786D01*
X1517625Y23282442D01*
X1492823Y23206112D01*
X1456859Y23156612D01*
X1398667Y23137706D01*
X1340477Y23156614D01*
X1304514Y23206114D01*
X1248596Y23378214D01*
X1152124Y23567553D01*
X1027222Y23739465D01*
X876964Y23889723D01*
X705052Y24014625D01*
X515715Y24111096D01*
X313620Y24176760D01*
X247500Y24187233D01*
X247500Y23293012D01*
X190493Y23325925D01*
X63326Y23360000D01*
X-68326Y23360000D01*
X-195493Y23325925D01*
X-252500Y23293012D01*
X-252500Y24187232D01*
X-252501Y24187233D01*
X-318620Y24176760D01*
X-318622Y24176760D01*
X-520716Y24111096D01*
X-710053Y24014625D01*
X-881965Y23889723D01*
X-1032223Y23739465D01*
X-1157125Y23567553D01*
X-1253596Y23378216D01*
X-1319259Y23176123D01*
X-1329732Y23110001D01*
X-1329731Y23110000D01*
X-435512Y23110000D01*
X-468425Y23052993D01*
X-502500Y22925826D01*
X-502500Y22794174D01*
X-468425Y22667007D01*
X-435512Y22610000D01*
X-1329731Y22610000D01*
X-1319259Y22543878D01*
X-1253596Y22341785D01*
X-1157125Y22152448D01*
X-1032223Y21980536D01*
X-881965Y21830278D01*
X-710052Y21705376D01*
X-656736Y21678210D01*
X-613471Y21634945D01*
X-603900Y21574513D01*
X-631678Y21519996D01*
X-656736Y21501790D01*
X-710052Y21474625D01*
X-881965Y21349723D01*
X-1032223Y21199465D01*
X-1157125Y21027553D01*
X-1253596Y20838216D01*
X-1319259Y20636123D01*
X-1329732Y20570001D01*
X-1329731Y20570000D01*
X-435512Y20570000D01*
X-468425Y20512993D01*
X-502500Y20385826D01*
X-502500Y20254174D01*
X-468425Y20127007D01*
X-435512Y20070000D01*
X-1329731Y20070000D01*
X-1319259Y20003878D01*
X-1253596Y19801785D01*
X-1157125Y19612448D01*
X-1032223Y19440536D01*
X-881965Y19290278D01*
X-710052Y19165376D01*
X-656736Y19138210D01*
X-613471Y19094945D01*
X-603900Y19034513D01*
X-631678Y18979996D01*
X-656736Y18961790D01*
X-710052Y18934625D01*
X-881965Y18809723D01*
X-1032223Y18659465D01*
X-1157125Y18487553D01*
X-1253596Y18298216D01*
X-1319259Y18096123D01*
X-1329732Y18030001D01*
X-1329731Y18030000D01*
X-435512Y18030000D01*
X-468425Y17972993D01*
X-502500Y17845826D01*
X-502500Y17714174D01*
X-468425Y17587007D01*
X-435512Y17530000D01*
X-1329731Y17530000D01*
X-1319259Y17463878D01*
X-1253596Y17261785D01*
X-1157125Y17072448D01*
X-1032223Y16900536D01*
X-881965Y16750278D01*
X-710052Y16625376D01*
X-656736Y16598210D01*
X-613471Y16554945D01*
X-603900Y16494513D01*
X-631678Y16439996D01*
X-656736Y16421790D01*
X-710052Y16394625D01*
X-881965Y16269723D01*
X-1032223Y16119465D01*
X-1157125Y15947553D01*
X-1253596Y15758216D01*
X-1319259Y15556123D01*
X-1329732Y15490001D01*
X-1329731Y15490000D01*
X-435512Y15490000D01*
X-468425Y15432993D01*
X-502500Y15305826D01*
X-502500Y15174174D01*
X-468425Y15047007D01*
X-435512Y14990000D01*
X-1329731Y14990000D01*
X-1319259Y14923878D01*
X-1253596Y14721785D01*
X-1157125Y14532448D01*
X-1032223Y14360536D01*
X-881965Y14210278D01*
X-710052Y14085376D01*
X-656736Y14058210D01*
X-613471Y14014945D01*
X-603900Y13954513D01*
X-631678Y13899996D01*
X-656736Y13881790D01*
X-710052Y13854625D01*
X-881965Y13729723D01*
X-1032223Y13579465D01*
X-1157125Y13407553D01*
X-1253596Y13218216D01*
X-1319259Y13016123D01*
X-1329732Y12950001D01*
X-1329731Y12950000D01*
X-435512Y12950000D01*
X-468425Y12892993D01*
X-502500Y12765826D01*
X-502500Y12634174D01*
X-468425Y12507007D01*
X-435512Y12450000D01*
X-1329731Y12450000D01*
X-1319259Y12383878D01*
X-1253596Y12181785D01*
X-1157125Y11992448D01*
X-1032223Y11820536D01*
X-881965Y11670278D01*
X-710052Y11545376D01*
X-656736Y11518210D01*
X-613471Y11474945D01*
X-603900Y11414513D01*
X-631678Y11359996D01*
X-656736Y11341790D01*
X-710052Y11314625D01*
X-881965Y11189723D01*
X-1032223Y11039465D01*
X-1157125Y10867553D01*
X-1253596Y10678216D01*
X-1319259Y10476123D01*
X-1329732Y10410001D01*
X-1329731Y10410000D01*
X-435512Y10410000D01*
X-468425Y10352993D01*
X-502500Y10225826D01*
X-502500Y10094174D01*
X-468425Y9967007D01*
X-435512Y9910000D01*
X-1329731Y9910000D01*
X-1319259Y9843878D01*
X-1253596Y9641785D01*
X-1157125Y9452448D01*
X-1032223Y9280536D01*
X-881965Y9130278D01*
X-710052Y9005376D01*
X-656736Y8978210D01*
X-613471Y8934945D01*
X-603900Y8874513D01*
X-631678Y8819996D01*
X-656736Y8801790D01*
X-710052Y8774625D01*
X-881965Y8649723D01*
X-1032223Y8499465D01*
X-1157125Y8327553D01*
X-1253596Y8138216D01*
X-1319259Y7936123D01*
X-1329732Y7870001D01*
X-1329731Y7870000D01*
X-435512Y7870000D01*
X-468425Y7812993D01*
X-502500Y7685826D01*
X-502500Y7554174D01*
X-468425Y7427007D01*
X-435512Y7370000D01*
X-1329731Y7370000D01*
X-1319259Y7303878D01*
X-1253596Y7101785D01*
X-1157128Y6912455D01*
X-1157126Y6912450D01*
X-1099177Y6832691D01*
X-1080270Y6774500D01*
X-1099177Y6716309D01*
X-1148677Y6680345D01*
X-1179270Y6675500D01*
X-1262601Y6675500D01*
X-1343225Y6653897D01*
X-1383537Y6643095D01*
X-1491964Y6580495D01*
X-1580495Y6491964D01*
X-1643095Y6383537D01*
X-1652539Y6348292D01*
X-1675500Y6262601D01*
X-1675500Y6137399D01*
X-1643095Y6016464D01*
X-1580495Y5908036D01*
X-1491964Y5819505D01*
X-1383536Y5756905D01*
X-1316150Y5738849D01*
X-1264838Y5705526D01*
X-1242911Y5648404D01*
X-1252755Y5602082D01*
X-1252106Y5601813D01*
X-1253554Y5598318D01*
X-1253560Y5598289D01*
X-1253591Y5598229D01*
X-1253593Y5598225D01*
X-1319259Y5396123D01*
X-1329732Y5330001D01*
X-1329731Y5330000D01*
X-435512Y5330000D01*
X-468425Y5272993D01*
X-502500Y5145826D01*
X-502500Y5014174D01*
X-468425Y4887007D01*
X-435512Y4830000D01*
X-1329731Y4830000D01*
X-1319259Y4763878D01*
X-1253596Y4561785D01*
X-1157125Y4372448D01*
X-1032223Y4200536D01*
X-881965Y4050278D01*
X-710053Y3925376D01*
X-520714Y3828904D01*
X-348614Y3772986D01*
X-299114Y3737022D01*
X-280206Y3678831D01*
X-299113Y3620641D01*
X-348612Y3584677D01*
X-424942Y3559875D01*
X-579286Y3481234D01*
X-719427Y3379415D01*
X-841915Y3256927D01*
X-943734Y3116786D01*
X-1022375Y2962442D01*
X-1022377Y2962439D01*
X-1075902Y2797707D01*
X-1075903Y2797703D01*
X-1103000Y2626615D01*
X-1103000Y2453386D01*
X-1075903Y2282298D01*
X-1075902Y2282294D01*
X-1022377Y2117562D01*
X-1022375Y2117559D01*
X-1022374Y2117556D01*
X-1022373Y2117555D01*
X-943732Y1963212D01*
X-841914Y1823072D01*
X-719428Y1700586D01*
X-579288Y1598768D01*
X-424945Y1520127D01*
X-424943Y1520127D01*
X-424942Y1520126D01*
X-424939Y1520124D01*
X-260207Y1466599D01*
X-260203Y1466598D01*
X-89114Y1439500D01*
X-89111Y1439500D01*
X84114Y1439500D01*
X255202Y1466598D01*
X255206Y1466599D01*
X419938Y1520124D01*
X419940Y1520126D01*
X419945Y1520127D01*
X574288Y1598768D01*
X714428Y1700586D01*
X836914Y1823072D01*
X938732Y1963212D01*
X1017373Y2117555D01*
X1017374Y2117560D01*
X1017376Y2117562D01*
X1070901Y2282294D01*
X1070902Y2282298D01*
X1098000Y2453386D01*
X1098000Y2626615D01*
X1070902Y2797703D01*
X1070901Y2797707D01*
X1017376Y2962439D01*
X1017374Y2962442D01*
X1017373Y2962443D01*
X1017373Y2962445D01*
X938732Y3116788D01*
X836914Y3256928D01*
X714428Y3379414D01*
X574288Y3481232D01*
X574287Y3481233D01*
X574285Y3481234D01*
X419941Y3559875D01*
X343611Y3584677D01*
X294112Y3620641D01*
X275205Y3678832D01*
X294113Y3737023D01*
X343613Y3772986D01*
X515713Y3828904D01*
X705052Y3925376D01*
X876964Y4050278D01*
X1027222Y4200536D01*
X1152124Y4372448D01*
X1248596Y4561787D01*
X1304514Y4733887D01*
X1340478Y4783387D01*
X1398668Y4802295D01*
X1456859Y4783388D01*
X1492823Y4733889D01*
X1517625Y4657559D01*
X1594177Y4507314D01*
X1596268Y4503212D01*
X1698086Y4363072D01*
X1820572Y4240586D01*
X1960712Y4138768D01*
X2115055Y4060127D01*
X2115057Y4060127D01*
X2115058Y4060126D01*
X2115061Y4060124D01*
X2279793Y4006599D01*
X2279797Y4006598D01*
X2450886Y3979500D01*
X2450889Y3979500D01*
X2624114Y3979500D01*
X2795202Y4006598D01*
X2795206Y4006599D01*
X2959938Y4060124D01*
X2959940Y4060126D01*
X2959945Y4060127D01*
X3114288Y4138768D01*
X3254428Y4240586D01*
X3376914Y4363072D01*
X3433199Y4440542D01*
X3453714Y4455447D01*
X3472450Y4472533D01*
X3478098Y4473163D01*
X3482697Y4476504D01*
X3508060Y4476504D01*
X3533259Y4479314D01*
X3538198Y4476504D01*
X3543883Y4476504D01*
X3564402Y4461596D01*
X3586440Y4449058D01*
X3588313Y4444224D01*
X3593383Y4440540D01*
X3611680Y4393321D01*
X3612290Y4387851D01*
X3612290Y4291066D01*
X3628844Y4229287D01*
X3630777Y4222072D01*
X3630778Y4222065D01*
X3636173Y4201928D01*
X3636174Y4201926D01*
X3636175Y4201923D01*
X3636176Y4201922D01*
X3682320Y4121998D01*
X4419531Y3384788D01*
X4419530Y3384788D01*
X4484787Y3319532D01*
X4484789Y3319530D01*
X4517750Y3300500D01*
X4564712Y3273386D01*
X4653856Y3249500D01*
X4653858Y3249500D01*
X6775124Y3249500D01*
X6775128Y3249500D01*
X6775131Y3249502D01*
X6779734Y3250107D01*
X6839895Y3238958D01*
X6882014Y3194577D01*
X6890002Y3133915D01*
X6889757Y3132639D01*
X6889181Y3129745D01*
X6889181Y3129744D01*
X6864182Y3004069D01*
X6864182Y2875931D01*
X6879743Y2797701D01*
X6889181Y2750258D01*
X6889182Y2750253D01*
X6938216Y2631875D01*
X6938220Y2631867D01*
X6973213Y2579497D01*
X7009406Y2525331D01*
X7009409Y2525328D01*
X7019457Y2515280D01*
X7047234Y2460763D01*
X7037663Y2400331D01*
X7019457Y2375273D01*
X6723682Y2079497D01*
X6669165Y2051719D01*
X6653678Y2050500D01*
X6175323Y2050500D01*
X6120317Y2039558D01*
X6081690Y2039558D01*
X6026687Y2050499D01*
X5023339Y2050499D01*
X5023338Y2050499D01*
X5023328Y2050498D01*
X4950276Y2035966D01*
X4950270Y2035964D01*
X4867413Y1980602D01*
X4867410Y1980599D01*
X4812048Y1897742D01*
X4812046Y1897736D01*
X4797514Y1824684D01*
X4797513Y1824672D01*
X4797513Y1749500D01*
X4778606Y1691309D01*
X4729106Y1655345D01*
X4698513Y1650500D01*
X3963690Y1650500D01*
X3905499Y1669407D01*
X3893686Y1679496D01*
X3573889Y1999293D01*
X3546112Y2053810D01*
X3555682Y2114237D01*
X3557373Y2117555D01*
X3592585Y2225927D01*
X3610902Y2282298D01*
X3638000Y2453386D01*
X3638000Y2626615D01*
X3610902Y2797703D01*
X3610901Y2797707D01*
X3557376Y2962439D01*
X3557374Y2962442D01*
X3557373Y2962443D01*
X3557373Y2962445D01*
X3478732Y3116788D01*
X3376914Y3256928D01*
X3254428Y3379414D01*
X3114288Y3481232D01*
X3114287Y3481233D01*
X3114285Y3481234D01*
X2959941Y3559875D01*
X2959938Y3559877D01*
X2795206Y3613402D01*
X2795202Y3613403D01*
X2624114Y3640500D01*
X2624111Y3640500D01*
X2450889Y3640500D01*
X2450886Y3640500D01*
X2279797Y3613403D01*
X2279793Y3613402D01*
X2115061Y3559877D01*
X2115058Y3559875D01*
X1960714Y3481234D01*
X1820573Y3379415D01*
X1698085Y3256927D01*
X1596266Y3116786D01*
X1517625Y2962442D01*
X1517623Y2962439D01*
X1464098Y2797707D01*
X1464097Y2797703D01*
X1437000Y2626615D01*
X1437000Y2453386D01*
X1464097Y2282298D01*
X1464098Y2282294D01*
X1517623Y2117562D01*
X1517625Y2117559D01*
X1517626Y2117556D01*
X1517627Y2117555D01*
X1596268Y1963212D01*
X1698086Y1823072D01*
X1820572Y1700586D01*
X1960712Y1598768D01*
X2115055Y1520127D01*
X2115057Y1520127D01*
X2115058Y1520126D01*
X2115061Y1520124D01*
X2279793Y1466599D01*
X2279797Y1466598D01*
X2450886Y1439500D01*
X2450889Y1439500D01*
X2624114Y1439500D01*
X2795202Y1466598D01*
X2851573Y1484915D01*
X2959945Y1520127D01*
X2963247Y1521810D01*
X3023674Y1531391D01*
X3078195Y1503622D01*
X3078207Y1503611D01*
X3312314Y1269504D01*
X3340091Y1214987D01*
X3330520Y1154555D01*
X3287255Y1111290D01*
X3242310Y1100500D01*
X1662826Y1100500D01*
X1662825Y1100500D01*
X1662815Y1100499D01*
X1589763Y1085967D01*
X1589757Y1085965D01*
X1506900Y1030603D01*
X1506897Y1030600D01*
X1451535Y947743D01*
X1451533Y947737D01*
X1437001Y874685D01*
X1437000Y874673D01*
X1437000Y-874672D01*
X1437001Y-874684D01*
X1451533Y-947736D01*
X1451535Y-947742D01*
X1506897Y-1030599D01*
X1506900Y-1030602D01*
X1534648Y-1049142D01*
X1589760Y-1085966D01*
X1645308Y-1097015D01*
X1662815Y-1100498D01*
X1662820Y-1100498D01*
X1662826Y-1100500D01*
X1662827Y-1100500D01*
X3412173Y-1100500D01*
X3412174Y-1100500D01*
X3485240Y-1085966D01*
X3568101Y-1030601D01*
X3623466Y-947740D01*
X3625523Y-937399D01*
X4524500Y-937399D01*
X4524500Y-1062601D01*
X4556905Y-1183536D01*
X4619505Y-1291964D01*
X4708036Y-1380495D01*
X4816464Y-1443095D01*
X4937399Y-1475500D01*
X4937401Y-1475500D01*
X5062599Y-1475500D01*
X5062601Y-1475500D01*
X5183536Y-1443095D01*
X5291964Y-1380495D01*
X5380495Y-1291964D01*
X5443095Y-1183536D01*
X5475500Y-1062601D01*
X5475500Y-937399D01*
X5443095Y-816464D01*
X5380495Y-708036D01*
X5291964Y-619505D01*
X5183536Y-556905D01*
X5062601Y-524500D01*
X4937399Y-524500D01*
X4856775Y-546103D01*
X4816463Y-556905D01*
X4708036Y-619505D01*
X4619505Y-708036D01*
X4556905Y-816463D01*
X4556905Y-816464D01*
X4524500Y-937399D01*
X3625523Y-937399D01*
X3636053Y-884464D01*
X3637999Y-874681D01*
X3638000Y-874672D01*
X3638000Y850500D01*
X3656907Y908691D01*
X3706407Y944655D01*
X3737000Y949500D01*
X4698513Y949500D01*
X4756704Y930593D01*
X4792668Y881093D01*
X4797513Y850500D01*
X4797513Y775327D01*
X4797514Y775315D01*
X4812046Y702263D01*
X4812048Y702257D01*
X4867410Y619400D01*
X4867413Y619397D01*
X4909774Y591093D01*
X4950273Y564033D01*
X5005821Y552984D01*
X5023328Y549501D01*
X5023333Y549501D01*
X5023339Y549499D01*
X5023340Y549499D01*
X6026686Y549499D01*
X6026687Y549499D01*
X6026688Y549500D01*
X6026694Y549500D01*
X6047953Y553730D01*
X6081695Y560441D01*
X6120323Y560441D01*
X6135211Y557480D01*
X6175318Y549501D01*
X6175324Y549501D01*
X6175326Y549500D01*
X6175327Y549500D01*
X7178673Y549500D01*
X7178674Y549500D01*
X7251740Y564034D01*
X7334601Y619399D01*
X7389966Y702260D01*
X7404500Y775326D01*
X7404500Y1303679D01*
X7423407Y1361870D01*
X7433490Y1373677D01*
X7950500Y1890686D01*
X7954574Y1897742D01*
X8016390Y2004810D01*
X8016390Y2004812D01*
X8016392Y2004814D01*
X8050500Y2132108D01*
X8050500Y2263893D01*
X8050500Y2541010D01*
X8067185Y2596012D01*
X8091147Y2631873D01*
X8140183Y2750256D01*
X8159612Y2847932D01*
X8189509Y2901314D01*
X8245074Y2926930D01*
X8305084Y2914993D01*
X8326714Y2898620D01*
X9393565Y1831769D01*
X9421341Y1777254D01*
X9411770Y1716822D01*
X9368505Y1673557D01*
X9361449Y1670304D01*
X9332291Y1658226D01*
X9122207Y1536934D01*
X8929768Y1389271D01*
X8758229Y1217732D01*
X8610566Y1025293D01*
X8489272Y815205D01*
X8396448Y591106D01*
X8396444Y591093D01*
X8333661Y356787D01*
X8333661Y356782D01*
X8302000Y116290D01*
X8302000Y-126289D01*
X8333661Y-366781D01*
X8333661Y-366786D01*
X8396444Y-601092D01*
X8396448Y-601105D01*
X8489272Y-825204D01*
X8489274Y-825208D01*
X8489276Y-825212D01*
X8607858Y-1030602D01*
X8610566Y-1035292D01*
X8758229Y-1227731D01*
X8758231Y-1227733D01*
X8758235Y-1227738D01*
X8929762Y-1399265D01*
X8929766Y-1399268D01*
X8929768Y-1399270D01*
X9122207Y-1546933D01*
X9122211Y-1546936D01*
X9246914Y-1618933D01*
X9287854Y-1664402D01*
X9294250Y-1725252D01*
X9263657Y-1778240D01*
X9207762Y-1803127D01*
X9197425Y-1803669D01*
X2229250Y-1804500D01*
X-1868000Y-1804500D01*
X-1926191Y-1785593D01*
X-1962155Y-1736093D01*
X-1967000Y-1705500D01*
X-1967000Y-1049142D01*
X-1966249Y86615D01*
X-1103000Y86615D01*
X-1103000Y-86614D01*
X-1075903Y-257702D01*
X-1075902Y-257706D01*
X-1022377Y-422438D01*
X-1022375Y-422441D01*
X-980310Y-505000D01*
X-943732Y-576788D01*
X-841914Y-716928D01*
X-719428Y-839414D01*
X-579288Y-941232D01*
X-424945Y-1019873D01*
X-424943Y-1019873D01*
X-424942Y-1019874D01*
X-424939Y-1019876D01*
X-260207Y-1073401D01*
X-260203Y-1073402D01*
X-89114Y-1100500D01*
X-89111Y-1100500D01*
X84114Y-1100500D01*
X255202Y-1073402D01*
X255206Y-1073401D01*
X419938Y-1019876D01*
X419940Y-1019874D01*
X419945Y-1019873D01*
X574288Y-941232D01*
X714428Y-839414D01*
X836914Y-716928D01*
X938732Y-576788D01*
X1017373Y-422445D01*
X1017374Y-422440D01*
X1017376Y-422438D01*
X1070901Y-257706D01*
X1070902Y-257702D01*
X1098000Y-86614D01*
X1098000Y86615D01*
X1070902Y257703D01*
X1070901Y257707D01*
X1017376Y422439D01*
X1017374Y422442D01*
X1017373Y422443D01*
X1017373Y422445D01*
X938732Y576788D01*
X836914Y716928D01*
X714428Y839414D01*
X574288Y941232D01*
X574287Y941233D01*
X574285Y941234D01*
X419941Y1019875D01*
X419938Y1019877D01*
X255206Y1073402D01*
X255202Y1073403D01*
X84114Y1100500D01*
X84111Y1100500D01*
X-89111Y1100500D01*
X-89114Y1100500D01*
X-260203Y1073403D01*
X-260207Y1073402D01*
X-424939Y1019877D01*
X-424942Y1019875D01*
X-579286Y941234D01*
X-719427Y839415D01*
X-841915Y716927D01*
X-943734Y576786D01*
X-1022375Y422442D01*
X-1022377Y422439D01*
X-1075902Y257707D01*
X-1075903Y257703D01*
X-1103000Y86615D01*
X-1966249Y86615D01*
X-1966246Y90566D01*
X-1963408Y4381093D01*
X-1959491Y10302072D01*
X-1958050Y12479657D01*
X-1958050Y12479658D01*
X-1956370Y15019656D01*
X-1952569Y20766406D01*
X-1951127Y22946615D01*
X-1951038Y23080475D01*
X-1950065Y24551066D01*
X-1931119Y24609244D01*
X-1881595Y24645175D01*
X-1851065Y24650000D01*
X4298881Y24650000D01*
X4357072Y24631093D01*
G37*
G04 #@! TD.AperFunction*
G04 #@! TA.AperFunction,Conductor*
G36*
X31717699Y9438722D02*
G01*
X31721947Y9439107D01*
X31744863Y9425442D01*
X31768836Y9413722D01*
X31772138Y9409177D01*
X31774499Y9407769D01*
X31776421Y9403282D01*
X31788938Y9386054D01*
X31836924Y9287898D01*
X31927898Y9196924D01*
X32043482Y9140418D01*
X32118418Y9129500D01*
X32323811Y9129500D01*
X32382002Y9110593D01*
X32393815Y9100504D01*
X32629531Y8864788D01*
X32629530Y8864788D01*
X32694787Y8799532D01*
X32694789Y8799530D01*
X32720536Y8784665D01*
X32774712Y8753386D01*
X32863856Y8729500D01*
X32863858Y8729500D01*
X34736142Y8729500D01*
X34736144Y8729500D01*
X34825288Y8753386D01*
X34829423Y8755774D01*
X34832449Y8757520D01*
X34862075Y8774625D01*
X34905212Y8799530D01*
X35125501Y9019819D01*
X35206187Y9100504D01*
X35260703Y9128281D01*
X35276190Y9129500D01*
X35481578Y9129500D01*
X35481582Y9129500D01*
X35556518Y9140418D01*
X35672102Y9196924D01*
X35763076Y9287898D01*
X35763077Y9287901D01*
X35768876Y9293699D01*
X35770097Y9292478D01*
X35811337Y9322976D01*
X35872520Y9323494D01*
X35912730Y9299088D01*
X37056110Y8155709D01*
X37083887Y8101192D01*
X37074316Y8040761D01*
X37072627Y8037448D01*
X37072623Y8037439D01*
X37019098Y7872707D01*
X37019097Y7872703D01*
X36992000Y7701615D01*
X36992000Y7528386D01*
X37001787Y7466593D01*
X36992216Y7406161D01*
X36974010Y7381103D01*
X36801437Y7208529D01*
X36746920Y7180751D01*
X36686488Y7190322D01*
X36645697Y7229032D01*
X36600503Y7307310D01*
X36600501Y7307312D01*
X36600500Y7307314D01*
X36507314Y7400500D01*
X36507311Y7400502D01*
X36507309Y7400504D01*
X36393189Y7466391D01*
X36393191Y7466391D01*
X36329095Y7483565D01*
X36265892Y7500500D01*
X36134108Y7500500D01*
X36070905Y7483565D01*
X36006809Y7466391D01*
X35892690Y7400504D01*
X35799496Y7307310D01*
X35733609Y7193191D01*
X35716411Y7129005D01*
X35699824Y7067099D01*
X35699500Y7065891D01*
X35699500Y6934109D01*
X35699501Y6934101D01*
X35699598Y6933739D01*
X35699583Y6933472D01*
X35700347Y6927676D01*
X35699272Y6927535D01*
X35696392Y6872638D01*
X35657883Y6825091D01*
X35598782Y6809259D01*
X35584657Y6811025D01*
X35461611Y6835500D01*
X35461607Y6835500D01*
X35338393Y6835500D01*
X35338390Y6835500D01*
X35217549Y6811463D01*
X35217547Y6811463D01*
X35103716Y6764314D01*
X35001270Y6695860D01*
X34914140Y6608730D01*
X34845686Y6506284D01*
X34798537Y6392453D01*
X34798537Y6392451D01*
X34774500Y6271610D01*
X34774500Y6148391D01*
X34798537Y6027550D01*
X34798537Y6027548D01*
X34845686Y5913717D01*
X34908637Y5819506D01*
X34914143Y5811267D01*
X34949140Y5776270D01*
X34949142Y5776267D01*
X34965113Y5760296D01*
X34972231Y5746326D01*
X34983317Y5735240D01*
X34985769Y5719754D01*
X34992889Y5705781D01*
X34990436Y5690294D01*
X34992889Y5674808D01*
X34985771Y5660838D01*
X34983318Y5645349D01*
X34965112Y5620291D01*
X34914319Y5569497D01*
X34859803Y5541719D01*
X34844315Y5540500D01*
X34584734Y5540500D01*
X34526543Y5559407D01*
X34490579Y5608907D01*
X34490579Y5670093D01*
X34500473Y5691471D01*
X34509355Y5705873D01*
X34564506Y5872307D01*
X34575000Y5975013D01*
X34575000Y6099999D01*
X34574999Y6100000D01*
X32175002Y6100000D01*
X32175001Y6099999D01*
X32175001Y5975014D01*
X32185492Y5872313D01*
X32185495Y5872301D01*
X32240643Y5705876D01*
X32332680Y5556660D01*
X32456659Y5432681D01*
X32605875Y5340644D01*
X32765552Y5287732D01*
X32814842Y5251481D01*
X32833410Y5193181D01*
X32814165Y5135101D01*
X32769009Y5100999D01*
X32682669Y5068797D01*
X32567458Y4982550D01*
X32567450Y4982542D01*
X32481202Y4867330D01*
X32430910Y4732489D01*
X32430908Y4732478D01*
X32429010Y4714819D01*
X32424749Y4675184D01*
X32424500Y4672871D01*
X32424500Y3927132D01*
X32430908Y3867520D01*
X32430909Y3867515D01*
X32481202Y3732671D01*
X32561804Y3625001D01*
X32567454Y3617454D01*
X32567457Y3617452D01*
X32567458Y3617451D01*
X32682670Y3531203D01*
X32817511Y3480911D01*
X32817512Y3480911D01*
X32817517Y3480909D01*
X32877127Y3474500D01*
X33872872Y3474501D01*
X33932483Y3480909D01*
X34057966Y3527711D01*
X34067329Y3531203D01*
X34067329Y3531204D01*
X34067331Y3531204D01*
X34182546Y3617454D01*
X34268796Y3732669D01*
X34286470Y3780054D01*
X34319089Y3867512D01*
X34319090Y3867515D01*
X34319091Y3867517D01*
X34325500Y3927127D01*
X34325499Y4672872D01*
X34319367Y4729920D01*
X34331947Y4789798D01*
X34377320Y4830846D01*
X34417800Y4839500D01*
X34844315Y4839500D01*
X34902506Y4820593D01*
X34914312Y4810510D01*
X34987898Y4736924D01*
X35103482Y4680418D01*
X35178418Y4669500D01*
X35178421Y4669500D01*
X35621578Y4669500D01*
X35621582Y4669500D01*
X35696518Y4680418D01*
X35812102Y4736924D01*
X35903076Y4827898D01*
X35959582Y4943482D01*
X35970500Y5018418D01*
X35970500Y5361582D01*
X35959624Y5436229D01*
X35969944Y5496535D01*
X36013742Y5539260D01*
X36057590Y5549500D01*
X36714106Y5549500D01*
X36714107Y5549500D01*
X36774529Y5561519D01*
X36834952Y5573537D01*
X36873724Y5589597D01*
X36939759Y5616950D01*
X37000755Y5621748D01*
X37052924Y5589778D01*
X37076337Y5533249D01*
X37071797Y5494891D01*
X37019097Y5332699D01*
X36992000Y5161615D01*
X36992000Y4988386D01*
X37019097Y4817302D01*
X37063915Y4679367D01*
X37063915Y4618181D01*
X37027951Y4568681D01*
X36995384Y4553148D01*
X36925217Y4534347D01*
X36925216Y4534346D01*
X36925214Y4534346D01*
X36925214Y4534345D01*
X36871289Y4503212D01*
X36816786Y4471745D01*
X36728255Y4383214D01*
X36665655Y4274787D01*
X36661077Y4257701D01*
X36633250Y4153851D01*
X36633250Y4028649D01*
X36665655Y3907714D01*
X36728255Y3799286D01*
X36816786Y3710755D01*
X36925214Y3648155D01*
X37046149Y3615750D01*
X37046151Y3615750D01*
X37171349Y3615750D01*
X37171351Y3615750D01*
X37292286Y3648155D01*
X37400714Y3710755D01*
X37489245Y3799286D01*
X37551845Y3907714D01*
X37570648Y3977888D01*
X37603970Y4029198D01*
X37661091Y4051125D01*
X37696866Y4046415D01*
X37834793Y4001599D01*
X37834797Y4001598D01*
X38005886Y3974500D01*
X38005889Y3974500D01*
X38179114Y3974500D01*
X38350202Y4001598D01*
X38350206Y4001599D01*
X38514938Y4055124D01*
X38514940Y4055126D01*
X38514945Y4055127D01*
X38669288Y4133768D01*
X38809428Y4235586D01*
X38931914Y4358072D01*
X39033732Y4498212D01*
X39112373Y4652555D01*
X39112374Y4652560D01*
X39112376Y4652562D01*
X39165901Y4817294D01*
X39165902Y4817298D01*
X39193000Y4988386D01*
X39193000Y5161615D01*
X39165902Y5332703D01*
X39165901Y5332707D01*
X39112376Y5497439D01*
X39112374Y5497442D01*
X39112373Y5497443D01*
X39112373Y5497445D01*
X39033732Y5651788D01*
X38931914Y5791928D01*
X38809428Y5914414D01*
X38669288Y6016232D01*
X38669287Y6016233D01*
X38669285Y6016234D01*
X38514941Y6094875D01*
X38514938Y6094877D01*
X38350206Y6148402D01*
X38350202Y6148403D01*
X38179114Y6175500D01*
X38179111Y6175500D01*
X38005889Y6175500D01*
X38005886Y6175500D01*
X37834799Y6148403D01*
X37746583Y6119740D01*
X37685398Y6119741D01*
X37635898Y6155705D01*
X37616991Y6213896D01*
X37635899Y6272086D01*
X37645984Y6283895D01*
X37858601Y6496511D01*
X37913117Y6524288D01*
X37944090Y6524288D01*
X37971069Y6520015D01*
X38005887Y6514500D01*
X38005889Y6514500D01*
X38179114Y6514500D01*
X38350202Y6541598D01*
X38350206Y6541599D01*
X38514938Y6595124D01*
X38514940Y6595126D01*
X38514945Y6595127D01*
X38669288Y6673768D01*
X38809428Y6775586D01*
X38931914Y6898072D01*
X39033732Y7038212D01*
X39112373Y7192555D01*
X39112374Y7192560D01*
X39112376Y7192562D01*
X39165901Y7357294D01*
X39165902Y7357298D01*
X39193000Y7528386D01*
X39193000Y7701615D01*
X39165902Y7872703D01*
X39165901Y7872707D01*
X39112376Y8037439D01*
X39112374Y8037442D01*
X39112373Y8037443D01*
X39112373Y8037445D01*
X39033732Y8191788D01*
X38931914Y8331928D01*
X38809428Y8454414D01*
X38669288Y8556232D01*
X38669287Y8556233D01*
X38669285Y8556234D01*
X38514941Y8634875D01*
X38438611Y8659677D01*
X38389112Y8695641D01*
X38370205Y8753832D01*
X38389113Y8812023D01*
X38438613Y8847986D01*
X38610713Y8903904D01*
X38800051Y9000376D01*
X38967309Y9121896D01*
X39025500Y9140803D01*
X39083691Y9121896D01*
X39119655Y9072396D01*
X39124500Y9041803D01*
X39124500Y8937399D01*
X39156905Y8816464D01*
X39219505Y8708036D01*
X39308036Y8619505D01*
X39416464Y8556905D01*
X39537399Y8524500D01*
X39537401Y8524500D01*
X39662599Y8524500D01*
X39662601Y8524500D01*
X39783536Y8556905D01*
X39851501Y8596145D01*
X39911348Y8608866D01*
X39967244Y8583980D01*
X39997837Y8530992D01*
X40000000Y8510408D01*
X40000000Y723184D01*
X39981093Y664993D01*
X39931593Y629029D01*
X39870407Y629029D01*
X39820907Y664993D01*
X39809536Y685299D01*
X39755727Y815205D01*
X39755726Y815206D01*
X39755724Y815212D01*
X39634436Y1025289D01*
X39630360Y1030601D01*
X39486770Y1217732D01*
X39486768Y1217734D01*
X39486765Y1217738D01*
X39315238Y1389265D01*
X39315233Y1389269D01*
X39315231Y1389271D01*
X39122792Y1536934D01*
X39122789Y1536936D01*
X38912712Y1658224D01*
X38912708Y1658226D01*
X38912704Y1658228D01*
X38688605Y1751052D01*
X38688604Y1751053D01*
X38688600Y1751054D01*
X38454289Y1813838D01*
X38454286Y1813839D01*
X38454284Y1813839D01*
X38213789Y1845500D01*
X38213788Y1845500D01*
X37971212Y1845500D01*
X37971210Y1845500D01*
X37730718Y1813839D01*
X37730713Y1813839D01*
X37496407Y1751056D01*
X37496394Y1751052D01*
X37272295Y1658228D01*
X37062207Y1536934D01*
X36869768Y1389271D01*
X36698229Y1217732D01*
X36550566Y1025293D01*
X36429272Y815205D01*
X36344464Y610458D01*
X36304728Y563932D01*
X36245233Y549648D01*
X36188705Y573063D01*
X36156735Y625232D01*
X36154000Y648343D01*
X36154000Y801825D01*
X36147598Y861371D01*
X36147596Y861382D01*
X36097353Y996089D01*
X36097352Y996091D01*
X36011192Y1111185D01*
X36011184Y1111193D01*
X35896090Y1197353D01*
X35896088Y1197354D01*
X35761381Y1247597D01*
X35761370Y1247599D01*
X35701824Y1254000D01*
X35650001Y1254000D01*
X35650000Y1253999D01*
X35650000Y599000D01*
X35631093Y540809D01*
X35581593Y504845D01*
X35551000Y500000D01*
X35400001Y500000D01*
X35400000Y499999D01*
X35400000Y349000D01*
X35381093Y290809D01*
X35331593Y254845D01*
X35301000Y250000D01*
X34646001Y250000D01*
X34646000Y249999D01*
X34646000Y198176D01*
X34645999Y198176D01*
X34652401Y138630D01*
X34652403Y138619D01*
X34702646Y3912D01*
X34702647Y3910D01*
X34788807Y-111184D01*
X34788814Y-111191D01*
X34855828Y-161357D01*
X34891082Y-211366D01*
X34895500Y-240611D01*
X34895500Y-778672D01*
X34895501Y-778684D01*
X34910033Y-851736D01*
X34910035Y-851742D01*
X34965397Y-934599D01*
X34965400Y-934602D01*
X34985066Y-947742D01*
X35048260Y-989966D01*
X35103808Y-1001015D01*
X35121315Y-1004498D01*
X35121320Y-1004498D01*
X35121326Y-1004500D01*
X35121327Y-1004500D01*
X35678673Y-1004500D01*
X35678674Y-1004500D01*
X35751740Y-989966D01*
X35785836Y-967183D01*
X35840837Y-950500D01*
X36444454Y-950500D01*
X36502645Y-969407D01*
X36530189Y-999999D01*
X36544550Y-1024873D01*
X36550564Y-1035289D01*
X36698229Y-1227731D01*
X36698231Y-1227733D01*
X36698235Y-1227738D01*
X36869762Y-1399265D01*
X36869766Y-1399268D01*
X36869768Y-1399270D01*
X37062207Y-1546933D01*
X37062211Y-1546936D01*
X37181150Y-1615605D01*
X37222089Y-1661073D01*
X37228485Y-1721923D01*
X37197892Y-1774911D01*
X37141997Y-1799798D01*
X37131660Y-1800340D01*
X11107993Y-1803441D01*
X11049800Y-1784541D01*
X11013830Y-1735045D01*
X11013823Y-1673860D01*
X11049781Y-1624355D01*
X11058463Y-1618715D01*
X11182789Y-1546936D01*
X11375238Y-1399265D01*
X11546765Y-1227738D01*
X11694436Y-1035289D01*
X11815724Y-825212D01*
X11908554Y-601100D01*
X11954701Y-428875D01*
X11988025Y-377563D01*
X12045147Y-355636D01*
X12050328Y-355500D01*
X12266646Y-355500D01*
X12321646Y-372183D01*
X12348260Y-389966D01*
X12403808Y-401015D01*
X12421315Y-404498D01*
X12421320Y-404498D01*
X12421326Y-404500D01*
X12421327Y-404500D01*
X12978673Y-404500D01*
X12978674Y-404500D01*
X13051740Y-389966D01*
X13134601Y-334601D01*
X13189966Y-251740D01*
X13204500Y-178674D01*
X13204500Y359389D01*
X13223407Y417580D01*
X13244172Y438643D01*
X13311185Y488809D01*
X13311192Y488816D01*
X13397352Y603910D01*
X13397353Y603912D01*
X13447596Y738619D01*
X13447598Y738630D01*
X13454000Y798176D01*
X13454000Y849999D01*
X13453999Y850000D01*
X11946000Y850000D01*
X11941904Y845904D01*
X11887387Y818128D01*
X11826955Y827700D01*
X11786167Y866407D01*
X11694436Y1025289D01*
X11690360Y1030601D01*
X11546770Y1217732D01*
X11546768Y1217734D01*
X11546765Y1217738D01*
X11375238Y1389265D01*
X11375233Y1389269D01*
X11375231Y1389271D01*
X11202309Y1521958D01*
X11185690Y1546138D01*
X11168421Y1569907D01*
X11168421Y1571265D01*
X11167653Y1572382D01*
X11168421Y1601723D01*
X11168421Y1631093D01*
X11169218Y1632191D01*
X11169254Y1633547D01*
X11187117Y1656827D01*
X11204385Y1680593D01*
X11205676Y1681013D01*
X11206502Y1682088D01*
X11262576Y1699500D01*
X11366539Y1699500D01*
X11424730Y1680593D01*
X11436542Y1670504D01*
X11522258Y1584789D01*
X11522259Y1584787D01*
X11587515Y1519532D01*
X11587517Y1519530D01*
X11636430Y1491290D01*
X11667440Y1473386D01*
X11756584Y1449500D01*
X11847000Y1449500D01*
X11905191Y1430593D01*
X11941155Y1381093D01*
X11946000Y1350500D01*
X11946000Y1350001D01*
X11946001Y1350000D01*
X13453999Y1350000D01*
X13454000Y1350001D01*
X13454000Y1350500D01*
X13472907Y1408691D01*
X13522407Y1444655D01*
X13553000Y1449500D01*
X15796310Y1449500D01*
X15854501Y1430593D01*
X15866314Y1420504D01*
X16022314Y1264504D01*
X16050091Y1209987D01*
X16040520Y1149555D01*
X15997255Y1106290D01*
X15952310Y1095500D01*
X14372826Y1095500D01*
X14372825Y1095500D01*
X14372815Y1095499D01*
X14299763Y1080967D01*
X14299757Y1080965D01*
X14216900Y1025603D01*
X14216897Y1025600D01*
X14161535Y942743D01*
X14161533Y942737D01*
X14147001Y869685D01*
X14147000Y869673D01*
X14147000Y-879672D01*
X14147001Y-879684D01*
X14161533Y-952736D01*
X14161535Y-952742D01*
X14216897Y-1035599D01*
X14216900Y-1035602D01*
X14257308Y-1062601D01*
X14299760Y-1090966D01*
X14347680Y-1100498D01*
X14372815Y-1105498D01*
X14372820Y-1105498D01*
X14372826Y-1105500D01*
X14372827Y-1105500D01*
X16122173Y-1105500D01*
X16122174Y-1105500D01*
X16195240Y-1090966D01*
X16278101Y-1035601D01*
X16333466Y-952740D01*
X16348000Y-879674D01*
X16348000Y699810D01*
X16366907Y758001D01*
X16416407Y793965D01*
X16477593Y793965D01*
X16517004Y769814D01*
X16751109Y535709D01*
X16778886Y481192D01*
X16769320Y420771D01*
X16767630Y417454D01*
X16767623Y417439D01*
X16714098Y252707D01*
X16714097Y252703D01*
X16687000Y81615D01*
X16687000Y-91614D01*
X16714097Y-262702D01*
X16714098Y-262706D01*
X16767623Y-427438D01*
X16767625Y-427441D01*
X16843718Y-576785D01*
X16846268Y-581788D01*
X16948086Y-721928D01*
X17070572Y-844414D01*
X17210712Y-946232D01*
X17365055Y-1024873D01*
X17365057Y-1024873D01*
X17365058Y-1024874D01*
X17365061Y-1024876D01*
X17529793Y-1078401D01*
X17529797Y-1078402D01*
X17700886Y-1105500D01*
X17700889Y-1105500D01*
X17874114Y-1105500D01*
X18045202Y-1078402D01*
X18045206Y-1078401D01*
X18209938Y-1024876D01*
X18209940Y-1024874D01*
X18209945Y-1024873D01*
X18364288Y-946232D01*
X18504428Y-844414D01*
X18626914Y-721928D01*
X18728732Y-581788D01*
X18807373Y-427445D01*
X18832175Y-351111D01*
X18868139Y-301612D01*
X18926330Y-282705D01*
X18984521Y-301612D01*
X19020485Y-351112D01*
X19076404Y-523215D01*
X19172875Y-712552D01*
X19297777Y-884464D01*
X19448035Y-1034722D01*
X19619947Y-1159624D01*
X19809284Y-1256095D01*
X20011377Y-1321758D01*
X20077499Y-1332231D01*
X20077500Y-1332230D01*
X20077500Y-438012D01*
X20134507Y-470925D01*
X20261674Y-505000D01*
X20393326Y-505000D01*
X20520493Y-470925D01*
X20577500Y-438012D01*
X20577500Y-1332231D01*
X20643622Y-1321758D01*
X20845715Y-1256095D01*
X21035052Y-1159624D01*
X21206964Y-1034722D01*
X21357222Y-884464D01*
X21482124Y-712552D01*
X21578596Y-523213D01*
X21634514Y-351113D01*
X21670478Y-301613D01*
X21728668Y-282705D01*
X21786859Y-301612D01*
X21822823Y-351111D01*
X21847625Y-427441D01*
X21923718Y-576785D01*
X21926268Y-581788D01*
X22028086Y-721928D01*
X22150572Y-844414D01*
X22290712Y-946232D01*
X22445055Y-1024873D01*
X22445057Y-1024873D01*
X22445058Y-1024874D01*
X22445061Y-1024876D01*
X22609793Y-1078401D01*
X22609797Y-1078402D01*
X22780886Y-1105500D01*
X22780889Y-1105500D01*
X22954114Y-1105500D01*
X23125202Y-1078402D01*
X23125206Y-1078401D01*
X23289938Y-1024876D01*
X23289940Y-1024874D01*
X23289945Y-1024873D01*
X23444288Y-946232D01*
X23584428Y-844414D01*
X23706914Y-721928D01*
X23808732Y-581788D01*
X23887373Y-427445D01*
X23887374Y-427440D01*
X23887376Y-427438D01*
X23940901Y-262706D01*
X23940902Y-262702D01*
X23968000Y-91614D01*
X23968000Y81613D01*
X23958970Y138619D01*
X23957665Y146860D01*
X23967235Y207289D01*
X23985439Y232347D01*
X24200527Y447435D01*
X24255042Y475210D01*
X24315474Y465639D01*
X24358739Y422374D01*
X24368310Y361942D01*
X24364684Y346836D01*
X24334097Y252699D01*
X24307000Y81615D01*
X24307000Y-91614D01*
X24334097Y-262702D01*
X24334098Y-262706D01*
X24387623Y-427438D01*
X24387625Y-427441D01*
X24463718Y-576785D01*
X24466268Y-581788D01*
X24568086Y-721928D01*
X24690572Y-844414D01*
X24830712Y-946232D01*
X24985055Y-1024873D01*
X24985057Y-1024873D01*
X24985058Y-1024874D01*
X24985061Y-1024876D01*
X25149793Y-1078401D01*
X25149797Y-1078402D01*
X25320886Y-1105500D01*
X25320889Y-1105500D01*
X25494114Y-1105500D01*
X25665202Y-1078402D01*
X25665206Y-1078401D01*
X25829938Y-1024876D01*
X25829940Y-1024874D01*
X25829945Y-1024873D01*
X25984288Y-946232D01*
X26124428Y-844414D01*
X26246914Y-721928D01*
X26348732Y-581788D01*
X26427373Y-427445D01*
X26427374Y-427440D01*
X26427376Y-427438D01*
X26480901Y-262706D01*
X26480902Y-262702D01*
X26508000Y-91614D01*
X26508000Y81615D01*
X26480902Y252703D01*
X26480901Y252707D01*
X26427376Y417437D01*
X26427372Y417447D01*
X26425686Y420756D01*
X26416111Y481187D01*
X26443886Y535705D01*
X26443885Y535705D01*
X27680470Y1772288D01*
X27680471Y1772291D01*
X27680496Y1772315D01*
X27735013Y1800092D01*
X27795445Y1790521D01*
X27838710Y1747256D01*
X27849500Y1702311D01*
X27849500Y1178251D01*
X27830593Y1120060D01*
X27781093Y1084096D01*
X27765988Y1080470D01*
X27689806Y1068404D01*
X27689800Y1068403D01*
X27689799Y1068402D01*
X27639276Y1051986D01*
X27525054Y1014873D01*
X27370714Y936234D01*
X27230573Y834415D01*
X27108085Y711927D01*
X27006266Y571786D01*
X26927625Y417442D01*
X26927623Y417439D01*
X26874098Y252707D01*
X26874097Y252703D01*
X26847000Y81615D01*
X26847000Y-91614D01*
X26874097Y-262702D01*
X26874098Y-262706D01*
X26927623Y-427438D01*
X26927625Y-427441D01*
X27003718Y-576785D01*
X27006268Y-581788D01*
X27108086Y-721928D01*
X27230572Y-844414D01*
X27370712Y-946232D01*
X27525055Y-1024873D01*
X27525057Y-1024873D01*
X27525058Y-1024874D01*
X27525061Y-1024876D01*
X27689793Y-1078401D01*
X27689797Y-1078402D01*
X27860886Y-1105500D01*
X27860889Y-1105500D01*
X28034114Y-1105500D01*
X28205202Y-1078402D01*
X28205206Y-1078401D01*
X28369938Y-1024876D01*
X28369940Y-1024874D01*
X28369945Y-1024873D01*
X28524288Y-946232D01*
X28664428Y-844414D01*
X28786914Y-721928D01*
X28888732Y-581788D01*
X28967373Y-427445D01*
X28967374Y-427440D01*
X28967376Y-427438D01*
X29020901Y-262706D01*
X29020902Y-262702D01*
X29048000Y-91614D01*
X29048000Y81615D01*
X29020902Y252703D01*
X29020901Y252707D01*
X28967376Y417439D01*
X28967374Y417442D01*
X28967373Y417443D01*
X28967373Y417445D01*
X28888732Y571788D01*
X28786914Y711928D01*
X28664428Y834414D01*
X28652406Y843148D01*
X28591308Y887540D01*
X28555345Y937041D01*
X28550500Y967632D01*
X28550500Y7610118D01*
X28569407Y7668309D01*
X28618907Y7704273D01*
X28680093Y7704273D01*
X28699000Y7695854D01*
X28806810Y7633610D01*
X28806808Y7633610D01*
X28806812Y7633609D01*
X28806814Y7633608D01*
X28934108Y7599500D01*
X28934110Y7599500D01*
X29065889Y7599500D01*
X29065892Y7599500D01*
X29099879Y7608607D01*
X29160978Y7605405D01*
X29208528Y7566900D01*
X29224500Y7512980D01*
X29224500Y4178857D01*
X29239065Y4124499D01*
X29248384Y4089716D01*
X29248385Y4089713D01*
X29248386Y4089712D01*
X29294530Y4009788D01*
X30108005Y3196313D01*
X30135781Y3141798D01*
X30137000Y3126311D01*
X30137000Y1110177D01*
X30118093Y1051986D01*
X30068595Y1016024D01*
X30067617Y1015706D01*
X30065053Y1014873D01*
X29910714Y936234D01*
X29770573Y834415D01*
X29648085Y711927D01*
X29546266Y571786D01*
X29467625Y417442D01*
X29467623Y417439D01*
X29414098Y252707D01*
X29414097Y252703D01*
X29387000Y81615D01*
X29387000Y-91614D01*
X29414097Y-262702D01*
X29414098Y-262706D01*
X29467623Y-427438D01*
X29467625Y-427441D01*
X29543718Y-576785D01*
X29546268Y-581788D01*
X29648086Y-721928D01*
X29770572Y-844414D01*
X29910712Y-946232D01*
X30065055Y-1024873D01*
X30065057Y-1024873D01*
X30065058Y-1024874D01*
X30065061Y-1024876D01*
X30229793Y-1078401D01*
X30229797Y-1078402D01*
X30400886Y-1105500D01*
X30400889Y-1105500D01*
X30574114Y-1105500D01*
X30745202Y-1078402D01*
X30745206Y-1078401D01*
X30909938Y-1024876D01*
X30909940Y-1024874D01*
X30909945Y-1024873D01*
X31064288Y-946232D01*
X31204428Y-844414D01*
X31326914Y-721928D01*
X31428732Y-581788D01*
X31507373Y-427445D01*
X31532175Y-351111D01*
X31568139Y-301612D01*
X31626330Y-282705D01*
X31684521Y-301612D01*
X31720485Y-351112D01*
X31776404Y-523215D01*
X31872875Y-712552D01*
X31997777Y-884464D01*
X32148035Y-1034722D01*
X32319947Y-1159624D01*
X32509284Y-1256095D01*
X32711377Y-1321758D01*
X32777499Y-1332231D01*
X32777500Y-1332230D01*
X32777500Y-438012D01*
X32834507Y-470925D01*
X32961674Y-505000D01*
X33093326Y-505000D01*
X33220493Y-470925D01*
X33277500Y-438012D01*
X33277500Y-1332231D01*
X33343622Y-1321758D01*
X33545715Y-1256095D01*
X33735052Y-1159624D01*
X33906964Y-1034722D01*
X34057222Y-884464D01*
X34182124Y-712552D01*
X34278595Y-523215D01*
X34344258Y-321122D01*
X34354731Y-255000D01*
X33460512Y-255000D01*
X33493425Y-197993D01*
X33527500Y-70826D01*
X33527500Y60826D01*
X33493425Y187993D01*
X33460512Y245000D01*
X34354731Y245000D01*
X34354731Y245001D01*
X34344258Y311123D01*
X34278595Y513216D01*
X34182124Y702553D01*
X34150348Y746288D01*
X34109998Y801825D01*
X34646000Y801825D01*
X34646000Y750001D01*
X34646001Y750000D01*
X35149999Y750000D01*
X35150000Y750001D01*
X35150000Y1253999D01*
X35149999Y1254000D01*
X35098176Y1254000D01*
X35038629Y1247599D01*
X35038618Y1247597D01*
X34903911Y1197354D01*
X34903909Y1197353D01*
X34788815Y1111193D01*
X34788807Y1111185D01*
X34702647Y996091D01*
X34702646Y996089D01*
X34652403Y861382D01*
X34652401Y861371D01*
X34646000Y801825D01*
X34109998Y801825D01*
X34057222Y874465D01*
X33906964Y1024723D01*
X33735052Y1149625D01*
X33545715Y1246096D01*
X33343620Y1311760D01*
X33277500Y1322233D01*
X33277500Y428012D01*
X33220493Y460925D01*
X33093326Y495000D01*
X32961674Y495000D01*
X32834507Y460925D01*
X32777500Y428012D01*
X32777500Y1322232D01*
X32777499Y1322233D01*
X32711380Y1311760D01*
X32711378Y1311760D01*
X32509284Y1246096D01*
X32319947Y1149625D01*
X32148035Y1024723D01*
X31997777Y874465D01*
X31872875Y702553D01*
X31776404Y513216D01*
X31720485Y341113D01*
X31684521Y291613D01*
X31626330Y272706D01*
X31568139Y291613D01*
X31532176Y341113D01*
X31507376Y417439D01*
X31507374Y417442D01*
X31507373Y417443D01*
X31507373Y417445D01*
X31428732Y571788D01*
X31326914Y711928D01*
X31204428Y834414D01*
X31064288Y936232D01*
X31064287Y936233D01*
X31064285Y936234D01*
X30909946Y1014873D01*
X30907937Y1015526D01*
X30906404Y1016024D01*
X30856906Y1051989D01*
X30838000Y1110177D01*
X30838000Y3358643D01*
X30832863Y3377814D01*
X30814114Y3447788D01*
X30804343Y3464712D01*
X30804342Y3464714D01*
X30804342Y3464715D01*
X30774463Y3516465D01*
X30767970Y3527712D01*
X29954496Y4341186D01*
X29926719Y4395703D01*
X29925500Y4411190D01*
X29925500Y6724988D01*
X32175000Y6724988D01*
X32175000Y6600001D01*
X32175001Y6600000D01*
X33124999Y6600000D01*
X33125000Y6600001D01*
X33125000Y7424999D01*
X33625000Y7424999D01*
X33625000Y6600001D01*
X33625001Y6600000D01*
X34574998Y6600000D01*
X34574999Y6600001D01*
X34574999Y6724987D01*
X34564507Y6827688D01*
X34564504Y6827700D01*
X34509356Y6994125D01*
X34417319Y7143341D01*
X34293340Y7267320D01*
X34144124Y7359357D01*
X33977693Y7414507D01*
X33874987Y7425000D01*
X33625001Y7425000D01*
X33625000Y7424999D01*
X33125000Y7424999D01*
X33124999Y7425000D01*
X32875013Y7425000D01*
X32772312Y7414508D01*
X32772300Y7414505D01*
X32605875Y7359357D01*
X32456659Y7267320D01*
X32332680Y7143341D01*
X32240643Y6994125D01*
X32185493Y6827694D01*
X32175000Y6724988D01*
X29925500Y6724988D01*
X29925500Y8066817D01*
X29944407Y8125008D01*
X29993907Y8160972D01*
X30055093Y8160972D01*
X30073998Y8152555D01*
X30106814Y8133608D01*
X30234108Y8099500D01*
X30234110Y8099500D01*
X30365890Y8099500D01*
X30365892Y8099500D01*
X30493186Y8133608D01*
X30493188Y8133610D01*
X30493190Y8133610D01*
X30607309Y8199497D01*
X30607309Y8199498D01*
X30607314Y8199500D01*
X30700500Y8292686D01*
X30700503Y8292691D01*
X30766390Y8406810D01*
X30766390Y8406812D01*
X30766392Y8406814D01*
X30800500Y8534108D01*
X30800500Y8665892D01*
X30766392Y8793186D01*
X30766390Y8793189D01*
X30766390Y8793191D01*
X30700503Y8907310D01*
X30700501Y8907312D01*
X30700500Y8907314D01*
X30677920Y8929894D01*
X30670852Y8943766D01*
X30659819Y8954749D01*
X30657313Y8970339D01*
X30650145Y8984408D01*
X30652580Y8999788D01*
X30650110Y9015160D01*
X30657236Y9029187D01*
X30659716Y9044840D01*
X30677763Y9069739D01*
X30735897Y9128138D01*
X30757926Y9139426D01*
X30778397Y9153351D01*
X30784720Y9153156D01*
X30790351Y9156040D01*
X30814812Y9152223D01*
X30839553Y9151456D01*
X30849527Y9147240D01*
X30863482Y9140418D01*
X30938418Y9129500D01*
X30938421Y9129500D01*
X31182679Y9129500D01*
X31240870Y9110593D01*
X31276834Y9061093D01*
X31276834Y8999907D01*
X31252684Y8960499D01*
X31222077Y8929891D01*
X31199497Y8907311D01*
X31199496Y8907310D01*
X31133609Y8793191D01*
X31115419Y8725304D01*
X31099500Y8665892D01*
X31099500Y8534108D01*
X31122037Y8449999D01*
X31133609Y8406810D01*
X31199496Y8292691D01*
X31199498Y8292689D01*
X31199500Y8292686D01*
X31292686Y8199500D01*
X31292688Y8199499D01*
X31292690Y8199497D01*
X31406810Y8133610D01*
X31406808Y8133610D01*
X31406812Y8133609D01*
X31406814Y8133608D01*
X31534108Y8099500D01*
X31534110Y8099500D01*
X31665890Y8099500D01*
X31665892Y8099500D01*
X31793186Y8133608D01*
X31793188Y8133610D01*
X31793190Y8133610D01*
X31907309Y8199497D01*
X31907309Y8199498D01*
X31907314Y8199500D01*
X32000500Y8292686D01*
X32000503Y8292691D01*
X32066390Y8406810D01*
X32066390Y8406812D01*
X32066392Y8406814D01*
X32100500Y8534108D01*
X32100500Y8665892D01*
X32066392Y8793186D01*
X32066390Y8793189D01*
X32066390Y8793191D01*
X32000503Y8907310D01*
X32000501Y8907312D01*
X32000500Y8907314D01*
X31907314Y9000500D01*
X31793186Y9066392D01*
X31665892Y9100500D01*
X31614685Y9100500D01*
X31556494Y9119407D01*
X31520530Y9168907D01*
X31520530Y9230093D01*
X31529655Y9250205D01*
X31535965Y9260788D01*
X31563076Y9287898D01*
X31612872Y9389758D01*
X31614970Y9393275D01*
X31635051Y9410850D01*
X31653602Y9430024D01*
X31657803Y9430761D01*
X31661013Y9433570D01*
X31687588Y9435985D01*
X31713868Y9440594D01*
X31717699Y9438722D01*
G37*
G04 #@! TD.AperFunction*
G04 #@! TA.AperFunction,Conductor*
G36*
X16062350Y5225166D02*
G01*
X16105615Y5181901D01*
X16115186Y5121469D01*
X16111380Y5105816D01*
X16085493Y5027694D01*
X16075000Y4924988D01*
X16075000Y4650001D01*
X16075001Y4650000D01*
X17063500Y4650000D01*
X17121691Y4631093D01*
X17157655Y4581593D01*
X17162500Y4551000D01*
X17162500Y4400001D01*
X17162501Y4400000D01*
X17313500Y4400000D01*
X17371691Y4381093D01*
X17407655Y4331593D01*
X17412500Y4301000D01*
X17412500Y3175002D01*
X17412501Y3175001D01*
X17549986Y3175001D01*
X17652687Y3185493D01*
X17653837Y3185739D01*
X17654462Y3185675D01*
X17658073Y3186043D01*
X17658149Y3185293D01*
X17714697Y3179439D01*
X17760231Y3138569D01*
X17773046Y3078741D01*
X17760309Y3039436D01*
X17733609Y2993190D01*
X17733608Y2993186D01*
X17699500Y2865892D01*
X17699500Y2734108D01*
X17710987Y2691235D01*
X17715305Y2675122D01*
X17712102Y2614021D01*
X17673597Y2566471D01*
X17619678Y2550500D01*
X16020275Y2550500D01*
X15962084Y2569407D01*
X15950271Y2579496D01*
X15638581Y2891186D01*
X15610804Y2945703D01*
X15609585Y2961190D01*
X15609585Y2962599D01*
X15609585Y2962601D01*
X15577180Y3083536D01*
X15514580Y3191964D01*
X15426049Y3280495D01*
X15317621Y3343095D01*
X15196686Y3375500D01*
X15071484Y3375500D01*
X15008578Y3358644D01*
X14950548Y3343095D01*
X14842121Y3280495D01*
X14753590Y3191964D01*
X14690990Y3083537D01*
X14690990Y3083536D01*
X14658585Y2962601D01*
X14658585Y2837399D01*
X14690990Y2716464D01*
X14753590Y2608036D01*
X14842121Y2519505D01*
X14950549Y2456905D01*
X15071484Y2424500D01*
X15072895Y2424500D01*
X15073856Y2424188D01*
X15077917Y2423653D01*
X15077817Y2422901D01*
X15080492Y2422032D01*
X15088382Y2423281D01*
X15109037Y2412757D01*
X15131086Y2405593D01*
X15142899Y2395504D01*
X15218899Y2319504D01*
X15246676Y2264987D01*
X15237105Y2204555D01*
X15193840Y2161290D01*
X15148895Y2150500D01*
X13129950Y2150500D01*
X13071759Y2169407D01*
X13035795Y2218907D01*
X13035795Y2280093D01*
X13059946Y2319504D01*
X13915444Y3175002D01*
X14774260Y4033819D01*
X14828775Y4061594D01*
X14889207Y4052023D01*
X14929370Y4011860D01*
X14930363Y4012433D01*
X14999496Y3892691D01*
X14999498Y3892689D01*
X14999500Y3892686D01*
X15092686Y3799500D01*
X15092688Y3799499D01*
X15092690Y3799497D01*
X15206810Y3733610D01*
X15206808Y3733610D01*
X15206812Y3733609D01*
X15206814Y3733608D01*
X15334108Y3699500D01*
X15334110Y3699500D01*
X15465890Y3699500D01*
X15465892Y3699500D01*
X15593186Y3733608D01*
X15593188Y3733610D01*
X15593190Y3733610D01*
X15707309Y3799497D01*
X15707309Y3799498D01*
X15707314Y3799500D01*
X15800500Y3892686D01*
X15800503Y3892691D01*
X15866390Y4006810D01*
X15866390Y4006812D01*
X15866392Y4006814D01*
X15871796Y4026982D01*
X16075001Y4026982D01*
X16075001Y3875014D01*
X16085492Y3772313D01*
X16085495Y3772301D01*
X16140643Y3605876D01*
X16232680Y3456660D01*
X16356659Y3332681D01*
X16505875Y3240644D01*
X16672306Y3185494D01*
X16775013Y3175001D01*
X16912500Y3175001D01*
X16912500Y4149999D01*
X16912499Y4150000D01*
X16090961Y4150000D01*
X16075001Y4026982D01*
X15871796Y4026982D01*
X15900500Y4134108D01*
X15900500Y4265892D01*
X15866392Y4393186D01*
X15866390Y4393189D01*
X15866390Y4393191D01*
X15800503Y4507310D01*
X15800501Y4507312D01*
X15800500Y4507314D01*
X15707314Y4600500D01*
X15707311Y4600502D01*
X15707309Y4600504D01*
X15587567Y4669637D01*
X15589033Y4672178D01*
X15551751Y4704051D01*
X15537496Y4763553D01*
X15560937Y4820069D01*
X15566170Y4825729D01*
X15947403Y5206962D01*
X16001918Y5234737D01*
X16062350Y5225166D01*
G37*
G04 #@! TD.AperFunction*
G04 #@! TA.AperFunction,Conductor*
G36*
X25806574Y6221224D02*
G01*
X25843821Y6172683D01*
X25849500Y6139635D01*
X25849500Y3128778D01*
X25830593Y3070587D01*
X25820504Y3058774D01*
X25260513Y2498783D01*
X25205996Y2471006D01*
X25145564Y2480577D01*
X25102299Y2523842D01*
X25091509Y2568787D01*
X25091509Y5193155D01*
X25110416Y5251346D01*
X25120505Y5263159D01*
X25285355Y5428009D01*
X25302126Y5450500D01*
X25330623Y5488717D01*
X25330624Y5488719D01*
X25372397Y5610402D01*
X25372397Y5739062D01*
X25330624Y5860745D01*
X25311718Y5886099D01*
X25285355Y5921454D01*
X25249858Y5956951D01*
X25222081Y6011468D01*
X25231652Y6071900D01*
X25274917Y6115165D01*
X25332788Y6125107D01*
X25337397Y6124500D01*
X25337399Y6124500D01*
X25462599Y6124500D01*
X25462601Y6124500D01*
X25583536Y6156905D01*
X25691964Y6219505D01*
X25691966Y6219508D01*
X25697583Y6222750D01*
X25698527Y6221114D01*
X25747908Y6238601D01*
X25806574Y6221224D01*
G37*
G04 #@! TD.AperFunction*
G04 #@! TA.AperFunction,Conductor*
G36*
X10154209Y10275593D02*
G01*
X10166022Y10265504D01*
X10770504Y9661022D01*
X10798281Y9606505D01*
X10799500Y9591018D01*
X10799500Y9349000D01*
X10780593Y9290809D01*
X10731093Y9254845D01*
X10700500Y9250000D01*
X10587501Y9250000D01*
X10587500Y9249999D01*
X10587500Y8549000D01*
X10568593Y8490809D01*
X10519093Y8454845D01*
X10488500Y8450000D01*
X10337501Y8450000D01*
X10337500Y8449999D01*
X10337500Y8299000D01*
X10318593Y8240809D01*
X10269093Y8204845D01*
X10238500Y8200000D01*
X9177704Y8200000D01*
X9177899Y8197514D01*
X9177901Y8197507D01*
X9223719Y8039800D01*
X9223719Y8039799D01*
X9307314Y7898448D01*
X9402469Y7803293D01*
X9430246Y7748776D01*
X9430246Y7717803D01*
X9424500Y7681523D01*
X9424500Y7318480D01*
X9430247Y7282200D01*
X9420675Y7221768D01*
X9402470Y7196710D01*
X9307316Y7101556D01*
X9307315Y7101554D01*
X9223719Y6960202D01*
X9223719Y6960201D01*
X9177901Y6802494D01*
X9177899Y6802487D01*
X9177704Y6800000D01*
X11522936Y6800000D01*
X11523136Y6800112D01*
X11524083Y6800000D01*
X11540599Y6800000D01*
X11540599Y6798048D01*
X11583898Y6792929D01*
X11612466Y6773021D01*
X11825698Y6559790D01*
X12015958Y6369530D01*
X12039490Y6355944D01*
X12079950Y6332584D01*
X12079953Y6332583D01*
X12079956Y6332581D01*
X12095882Y6323386D01*
X12185026Y6299500D01*
X12185027Y6299500D01*
X12277314Y6299500D01*
X12653600Y6299500D01*
X12708601Y6282816D01*
X12755812Y6251271D01*
X12853553Y6231828D01*
X12900856Y6241238D01*
X12961616Y6234047D01*
X12990173Y6214144D01*
X13183084Y6021234D01*
X13372833Y5831485D01*
X13393583Y5819505D01*
X13441342Y5791931D01*
X13441345Y5791930D01*
X13441348Y5791928D01*
X13452757Y5785341D01*
X13541901Y5761455D01*
X13541902Y5761455D01*
X13634189Y5761455D01*
X15271525Y5761455D01*
X15329716Y5742548D01*
X15365680Y5693048D01*
X15365680Y5631862D01*
X15341529Y5592451D01*
X12328574Y2579496D01*
X12321456Y2575870D01*
X12316761Y2569407D01*
X12294712Y2562244D01*
X12274057Y2551719D01*
X12258570Y2550500D01*
X12154602Y2550500D01*
X12096411Y2569407D01*
X12084598Y2579497D01*
X12029307Y2634788D01*
X11933626Y2730470D01*
X11853702Y2776614D01*
X11764558Y2800500D01*
X11764556Y2800500D01*
X10134114Y2800500D01*
X10075923Y2819407D01*
X10064110Y2829496D01*
X9188110Y3705496D01*
X9160333Y3760013D01*
X9169904Y3820445D01*
X9213169Y3863710D01*
X9258114Y3874500D01*
X9484170Y3874500D01*
X9484174Y3874500D01*
X9542299Y3880749D01*
X9591009Y3898917D01*
X9673776Y3929787D01*
X9673776Y3929788D01*
X9673778Y3929788D01*
X9784846Y4012935D01*
X9842758Y4032670D01*
X9901213Y4014596D01*
X9928433Y3985653D01*
X9980053Y3901965D01*
X10101964Y3780054D01*
X10248693Y3689549D01*
X10412351Y3635319D01*
X10513345Y3625001D01*
X10612500Y3625001D01*
X10612500Y4349999D01*
X11112500Y4349999D01*
X11112500Y3625002D01*
X11112501Y3625001D01*
X11211654Y3625001D01*
X11312642Y3635318D01*
X11312654Y3635321D01*
X11476306Y3689549D01*
X11623035Y3780054D01*
X11744946Y3901965D01*
X11835451Y4048694D01*
X11889681Y4212352D01*
X11900000Y4313345D01*
X11900000Y4349999D01*
X11899999Y4350000D01*
X11112501Y4350000D01*
X11112500Y4349999D01*
X10612500Y4349999D01*
X10612500Y4501000D01*
X10631407Y4559191D01*
X10680907Y4595155D01*
X10711500Y4600000D01*
X10862499Y4600000D01*
X10862500Y4600001D01*
X10862500Y4751000D01*
X10881407Y4809191D01*
X10930907Y4845155D01*
X10961500Y4850000D01*
X11899998Y4850000D01*
X11899999Y4850001D01*
X11899999Y4886653D01*
X11893515Y4950114D01*
X11906409Y5009926D01*
X11951998Y5050734D01*
X12012866Y5056953D01*
X12062003Y5030183D01*
X12092686Y4999500D01*
X12092688Y4999499D01*
X12092690Y4999497D01*
X12206810Y4933610D01*
X12206808Y4933610D01*
X12206812Y4933609D01*
X12206814Y4933608D01*
X12334108Y4899500D01*
X12334110Y4899500D01*
X12465890Y4899500D01*
X12465892Y4899500D01*
X12593186Y4933608D01*
X12593188Y4933610D01*
X12593190Y4933610D01*
X12707309Y4999497D01*
X12707309Y4999498D01*
X12707314Y4999500D01*
X12800500Y5092686D01*
X12806156Y5102483D01*
X12866390Y5206810D01*
X12866390Y5206812D01*
X12866392Y5206814D01*
X12900500Y5334108D01*
X12900500Y5465892D01*
X12866392Y5593186D01*
X12866390Y5593189D01*
X12866390Y5593191D01*
X12800503Y5707310D01*
X12800501Y5707312D01*
X12800500Y5707314D01*
X12707314Y5800500D01*
X12707311Y5800502D01*
X12707309Y5800504D01*
X12593189Y5866391D01*
X12593191Y5866391D01*
X12533760Y5882315D01*
X12465892Y5900500D01*
X12334108Y5900500D01*
X12266240Y5882315D01*
X12206809Y5866391D01*
X12092690Y5800504D01*
X11999496Y5707310D01*
X11933609Y5593191D01*
X11919491Y5540500D01*
X11900727Y5470469D01*
X11899500Y5465891D01*
X11899500Y5382490D01*
X11880593Y5324299D01*
X11831093Y5288335D01*
X11769907Y5288335D01*
X11730496Y5312486D01*
X11623035Y5419947D01*
X11476306Y5510452D01*
X11312648Y5564682D01*
X11211655Y5575000D01*
X11035763Y5575000D01*
X10977572Y5593907D01*
X10941608Y5643407D01*
X10941608Y5704593D01*
X10977572Y5754093D01*
X11008143Y5769069D01*
X11110200Y5798720D01*
X11110201Y5798720D01*
X11251552Y5882315D01*
X11367685Y5998448D01*
X11451280Y6139799D01*
X11451280Y6139800D01*
X11497098Y6297507D01*
X11497100Y6297514D01*
X11497296Y6300000D01*
X10587501Y6300000D01*
X10587500Y6299999D01*
X10587500Y5750001D01*
X10593497Y5744004D01*
X10621274Y5689487D01*
X10611703Y5629055D01*
X10568438Y5585790D01*
X10523501Y5575000D01*
X10513345Y5575000D01*
X10412357Y5564683D01*
X10412345Y5564680D01*
X10248693Y5510452D01*
X10101964Y5419947D01*
X9980055Y5298038D01*
X9928433Y5214347D01*
X9881791Y5174747D01*
X9820781Y5170124D01*
X9784844Y5187068D01*
X9673776Y5270214D01*
X9542304Y5319250D01*
X9542299Y5319251D01*
X9542297Y5319252D01*
X9542293Y5319252D01*
X9516011Y5322078D01*
X9484174Y5325500D01*
X9484170Y5325500D01*
X8948690Y5325500D01*
X8890499Y5344407D01*
X8878686Y5354496D01*
X8441996Y5791186D01*
X8438369Y5798304D01*
X8431907Y5802999D01*
X8424743Y5825048D01*
X8414219Y5845703D01*
X8413000Y5861190D01*
X8413000Y5900501D01*
X8431907Y5958692D01*
X8481407Y5994656D01*
X8512000Y5999501D01*
X8606521Y5999501D01*
X8606522Y5999502D01*
X8653411Y6006928D01*
X8700299Y6014353D01*
X8700299Y6014354D01*
X8700304Y6014354D01*
X8813342Y6071950D01*
X8903050Y6161658D01*
X8960646Y6274696D01*
X8964654Y6300000D01*
X9177704Y6300000D01*
X9177899Y6297514D01*
X9177901Y6297507D01*
X9223719Y6139800D01*
X9223719Y6139799D01*
X9307314Y5998448D01*
X9423447Y5882315D01*
X9564799Y5798720D01*
X9722510Y5752900D01*
X9759363Y5750000D01*
X10087499Y5750000D01*
X10087500Y5750001D01*
X10087500Y6299999D01*
X10087499Y6300000D01*
X9177704Y6300000D01*
X8964654Y6300000D01*
X8975500Y6368481D01*
X8975499Y6731518D01*
X8970305Y6764314D01*
X8960647Y6825300D01*
X8960646Y6825302D01*
X8960646Y6825304D01*
X8903050Y6938342D01*
X8813342Y7028050D01*
X8700304Y7085646D01*
X8700305Y7085646D01*
X8606521Y7100500D01*
X7518478Y7100500D01*
X7518476Y7100499D01*
X7424700Y7085648D01*
X7424695Y7085646D01*
X7311659Y7028051D01*
X7221949Y6938341D01*
X7164354Y6825305D01*
X7149500Y6731523D01*
X7149500Y6368480D01*
X7149501Y6368477D01*
X7164352Y6274701D01*
X7164354Y6274696D01*
X7221950Y6161658D01*
X7311658Y6071950D01*
X7424696Y6014354D01*
X7518481Y5999500D01*
X7613000Y5999501D01*
X7671190Y5980594D01*
X7707154Y5931095D01*
X7712000Y5900501D01*
X7712000Y5628856D01*
X7721556Y5593191D01*
X7732095Y5553859D01*
X7735886Y5539710D01*
X7735887Y5539709D01*
X7775863Y5470469D01*
X7782030Y5459788D01*
X8320505Y4921313D01*
X8324130Y4914198D01*
X8330593Y4909502D01*
X8337756Y4887454D01*
X8348281Y4866798D01*
X8349500Y4851311D01*
X8349500Y4783114D01*
X8330593Y4724923D01*
X8281093Y4688959D01*
X8219907Y4688959D01*
X8180496Y4713110D01*
X7943492Y4950114D01*
X7692049Y5201557D01*
X7612125Y5247701D01*
X7612122Y5247702D01*
X7608766Y5248601D01*
X7605409Y5249501D01*
X7605407Y5249502D01*
X7605407Y5249501D01*
X7522981Y5271587D01*
X7522979Y5271587D01*
X7065103Y5271587D01*
X7006912Y5290494D01*
X6995100Y5300583D01*
X6915211Y5380471D01*
X6835291Y5426613D01*
X6835287Y5426615D01*
X6830084Y5428009D01*
X6774123Y5443003D01*
X6746144Y5450500D01*
X6746143Y5450500D01*
X5243690Y5450500D01*
X5185499Y5469407D01*
X5173686Y5479496D01*
X3573889Y7079293D01*
X3546112Y7133810D01*
X3555682Y7194237D01*
X3557373Y7197555D01*
X3609277Y7357298D01*
X3610902Y7362298D01*
X3638000Y7533386D01*
X3638000Y7706615D01*
X3610902Y7877703D01*
X3610901Y7877707D01*
X3557376Y8042439D01*
X3557374Y8042442D01*
X3557373Y8042443D01*
X3557373Y8042445D01*
X3478732Y8196788D01*
X3376914Y8336928D01*
X3254428Y8459414D01*
X3114288Y8561232D01*
X3114287Y8561233D01*
X3114285Y8561234D01*
X2959941Y8639875D01*
X2959938Y8639877D01*
X2795206Y8693402D01*
X2795202Y8693403D01*
X2624114Y8720500D01*
X2624111Y8720500D01*
X2450889Y8720500D01*
X2450886Y8720500D01*
X2279797Y8693403D01*
X2279793Y8693402D01*
X2115061Y8639877D01*
X2115058Y8639875D01*
X1960714Y8561234D01*
X1820573Y8459415D01*
X1698085Y8336927D01*
X1596266Y8196786D01*
X1517625Y8042442D01*
X1492823Y7966112D01*
X1456859Y7916612D01*
X1398667Y7897706D01*
X1340477Y7916614D01*
X1304514Y7966114D01*
X1248596Y8138214D01*
X1152124Y8327553D01*
X1027222Y8499465D01*
X876964Y8649723D01*
X705052Y8774624D01*
X651735Y8801790D01*
X608471Y8845054D01*
X598899Y8905486D01*
X626676Y8960003D01*
X651735Y8978210D01*
X705052Y9005377D01*
X876964Y9130278D01*
X1027222Y9280536D01*
X1152124Y9452448D01*
X1248596Y9641787D01*
X1304514Y9813887D01*
X1340478Y9863387D01*
X1398668Y9882295D01*
X1456859Y9863388D01*
X1492823Y9813889D01*
X1517625Y9737559D01*
X1595527Y9584665D01*
X1596268Y9583212D01*
X1698086Y9443072D01*
X1820572Y9320586D01*
X1960712Y9218768D01*
X2115055Y9140127D01*
X2115057Y9140127D01*
X2115058Y9140126D01*
X2115061Y9140124D01*
X2279793Y9086599D01*
X2279797Y9086598D01*
X2450886Y9059500D01*
X2450889Y9059500D01*
X2624114Y9059500D01*
X2795202Y9086598D01*
X2795206Y9086599D01*
X2959938Y9140124D01*
X2959940Y9140126D01*
X2959945Y9140127D01*
X3114288Y9218768D01*
X3254428Y9320586D01*
X3376914Y9443072D01*
X3478732Y9583212D01*
X3484965Y9595445D01*
X3528230Y9638710D01*
X3573175Y9649500D01*
X7080682Y9649500D01*
X7138873Y9630593D01*
X7163625Y9601611D01*
X7164177Y9602012D01*
X7168755Y9595711D01*
X7168757Y9595709D01*
X7168759Y9595706D01*
X7260706Y9503759D01*
X7376567Y9444725D01*
X7472693Y9429500D01*
X7641489Y9429501D01*
X7699679Y9410594D01*
X7735643Y9361094D01*
X7737116Y9304878D01*
X7735886Y9300289D01*
X7735886Y9300288D01*
X7715999Y9226066D01*
X7712000Y9211143D01*
X7712000Y9099500D01*
X7693093Y9041309D01*
X7643593Y9005345D01*
X7613001Y9000500D01*
X7518479Y9000500D01*
X7518476Y9000499D01*
X7424700Y8985648D01*
X7424695Y8985646D01*
X7311659Y8928051D01*
X7221949Y8838341D01*
X7164354Y8725305D01*
X7149500Y8631523D01*
X7149500Y8268480D01*
X7149501Y8268477D01*
X7164352Y8174701D01*
X7164354Y8174696D01*
X7221950Y8061658D01*
X7311658Y7971950D01*
X7424696Y7914354D01*
X7518481Y7899500D01*
X8606518Y7899501D01*
X8606521Y7899501D01*
X8606522Y7899502D01*
X8653411Y7906928D01*
X8700299Y7914353D01*
X8700299Y7914354D01*
X8700304Y7914354D01*
X8813342Y7971950D01*
X8903050Y8061658D01*
X8960646Y8174696D01*
X8975500Y8268481D01*
X8975499Y8631518D01*
X8974968Y8634873D01*
X8972713Y8649113D01*
X8972713Y8649115D01*
X8964654Y8700000D01*
X9177704Y8700000D01*
X10087499Y8700000D01*
X10087500Y8700001D01*
X10087500Y9249999D01*
X10087499Y9250000D01*
X9759363Y9250000D01*
X9722510Y9247101D01*
X9564799Y9201281D01*
X9564798Y9201281D01*
X9423447Y9117686D01*
X9307314Y9001553D01*
X9223719Y8860202D01*
X9223719Y8860201D01*
X9177901Y8702494D01*
X9177899Y8702487D01*
X9177704Y8700000D01*
X8964654Y8700000D01*
X8960647Y8725301D01*
X8960646Y8725303D01*
X8960646Y8725304D01*
X8903050Y8838342D01*
X8813342Y8928050D01*
X8700304Y8985646D01*
X8700305Y8985646D01*
X8614687Y8999207D01*
X8560171Y9026985D01*
X8532394Y9081502D01*
X8541966Y9141934D01*
X8560166Y9166987D01*
X8793686Y9400507D01*
X8848201Y9428282D01*
X8863688Y9429501D01*
X9127308Y9429501D01*
X9152998Y9433570D01*
X9223433Y9444725D01*
X9339294Y9503759D01*
X9431241Y9595706D01*
X9490275Y9711567D01*
X9505500Y9807693D01*
X9505499Y10192306D01*
X9505499Y10195500D01*
X9524406Y10253691D01*
X9573906Y10289655D01*
X9604499Y10294500D01*
X10096018Y10294500D01*
X10154209Y10275593D01*
G37*
G04 #@! TD.AperFunction*
G04 #@! TA.AperFunction,Conductor*
G36*
X18358684Y3824510D02*
G01*
X18385951Y3816924D01*
X18387513Y3814957D01*
X18389899Y3814166D01*
X18424001Y3769009D01*
X18456202Y3682671D01*
X18542450Y3567459D01*
X18542454Y3567454D01*
X18542457Y3567452D01*
X18542458Y3567451D01*
X18657670Y3481203D01*
X18792511Y3430911D01*
X18792512Y3430911D01*
X18792517Y3430909D01*
X18852127Y3424500D01*
X18951308Y3424501D01*
X19009499Y3405594D01*
X19021313Y3395505D01*
X19697288Y2719530D01*
X19697290Y2719529D01*
X19697315Y2719504D01*
X19725092Y2664987D01*
X19715521Y2604555D01*
X19672256Y2561290D01*
X19627311Y2550500D01*
X18780322Y2550500D01*
X18722131Y2569407D01*
X18686167Y2618907D01*
X18684695Y2675122D01*
X18687083Y2684036D01*
X18700500Y2734108D01*
X18700500Y2865892D01*
X18666392Y2993186D01*
X18666390Y2993190D01*
X18666390Y2993191D01*
X18600503Y3107310D01*
X18600501Y3107312D01*
X18600500Y3107314D01*
X18507314Y3200500D01*
X18507311Y3200502D01*
X18507309Y3200504D01*
X18393189Y3266391D01*
X18393191Y3266391D01*
X18340552Y3280495D01*
X18265892Y3300500D01*
X18173333Y3300500D01*
X18115142Y3319407D01*
X18079178Y3368907D01*
X18079178Y3430093D01*
X18090399Y3451064D01*
X18089290Y3451748D01*
X18184356Y3605876D01*
X18237268Y3765553D01*
X18254036Y3788353D01*
X18269676Y3811941D01*
X18272030Y3812820D01*
X18273519Y3814843D01*
X18300483Y3823431D01*
X18327004Y3833322D01*
X18329424Y3832649D01*
X18331819Y3833411D01*
X18358684Y3824510D01*
G37*
G04 #@! TD.AperFunction*
G04 #@! TA.AperFunction,Conductor*
G36*
X22845445Y3337500D02*
G01*
X22888710Y3294235D01*
X22899500Y3249290D01*
X22899500Y3036190D01*
X22880593Y2977999D01*
X22870504Y2966186D01*
X22483814Y2579496D01*
X22429297Y2551719D01*
X22413810Y2550500D01*
X21735189Y2550500D01*
X21676998Y2569407D01*
X21641034Y2618907D01*
X21641034Y2680093D01*
X21665185Y2719504D01*
X21665209Y2719529D01*
X21665212Y2719530D01*
X22166185Y3220505D01*
X22220702Y3248281D01*
X22236189Y3249500D01*
X22574673Y3249500D01*
X22574674Y3249500D01*
X22647740Y3264034D01*
X22702316Y3300500D01*
X22738709Y3324816D01*
X22739375Y3323819D01*
X22785013Y3347071D01*
X22845445Y3337500D01*
G37*
G04 #@! TD.AperFunction*
G04 #@! TA.AperFunction,Conductor*
G36*
X6572001Y4730593D02*
G01*
X6583813Y4720504D01*
X6623899Y4680419D01*
X6663701Y4640617D01*
X6733186Y4600500D01*
X6743625Y4594473D01*
X6832769Y4570587D01*
X7290647Y4570587D01*
X7298244Y4568119D01*
X7306134Y4569368D01*
X7326789Y4558844D01*
X7348838Y4551680D01*
X7360651Y4541591D01*
X7407738Y4494504D01*
X7435515Y4439987D01*
X7425944Y4379555D01*
X7382679Y4336290D01*
X7337734Y4325500D01*
X7057840Y4325500D01*
X6968696Y4301614D01*
X6892637Y4257701D01*
X6888769Y4255468D01*
X6612797Y3979496D01*
X6558281Y3951719D01*
X6542794Y3950500D01*
X5689882Y3950500D01*
X5631691Y3969407D01*
X5595727Y4018907D01*
X5595727Y4080093D01*
X5604146Y4099000D01*
X5666390Y4206810D01*
X5666390Y4206812D01*
X5666392Y4206814D01*
X5700500Y4334108D01*
X5700500Y4465892D01*
X5666392Y4593186D01*
X5662457Y4600001D01*
X5661882Y4600998D01*
X5649159Y4660846D01*
X5674044Y4716742D01*
X5727031Y4747336D01*
X5747617Y4749500D01*
X6513810Y4749500D01*
X6572001Y4730593D01*
G37*
G04 #@! TD.AperFunction*
G04 #@! TA.AperFunction,Conductor*
G36*
X22947155Y8797064D02*
G01*
X22972214Y8778858D01*
X22987417Y8763655D01*
X23015194Y8709138D01*
X23005623Y8648706D01*
X22987416Y8623647D01*
X22617864Y8254097D01*
X22685358Y8202307D01*
X22822190Y8145630D01*
X22822189Y8145630D01*
X22969032Y8126297D01*
X23028101Y8134073D01*
X23088262Y8122923D01*
X23130380Y8078541D01*
X23140024Y8035920D01*
X23140024Y6805480D01*
X23121117Y6747289D01*
X23111028Y6735477D01*
X22958906Y6583355D01*
X22922040Y6519503D01*
X22922041Y6519502D01*
X22912762Y6503431D01*
X22906849Y6481362D01*
X22895287Y6438210D01*
X22888876Y6414285D01*
X22888876Y5987230D01*
X22869969Y5929039D01*
X22859880Y5917226D01*
X22714646Y5771993D01*
X22669375Y5711282D01*
X22627603Y5589599D01*
X22627603Y5460939D01*
X22669375Y5339256D01*
X22684293Y5319250D01*
X22709325Y5285680D01*
X22714646Y5278545D01*
X22870504Y5122687D01*
X22898281Y5068170D01*
X22899500Y5052683D01*
X22899500Y4750710D01*
X22880593Y4692519D01*
X22831093Y4656555D01*
X22769907Y4656555D01*
X22738940Y4675532D01*
X22738709Y4675184D01*
X22647742Y4735965D01*
X22647740Y4735966D01*
X22647737Y4735967D01*
X22647736Y4735967D01*
X22574684Y4750499D01*
X22574674Y4750500D01*
X21539145Y4750500D01*
X21480954Y4769407D01*
X21444990Y4818907D01*
X21444990Y4880093D01*
X21448389Y4884772D01*
X21452682Y4914941D01*
X21060588Y5307035D01*
X20686677Y4933125D01*
X20696450Y4924778D01*
X20728417Y4872608D01*
X20723615Y4811611D01*
X20683876Y4765087D01*
X20632152Y4750500D01*
X20225322Y4750500D01*
X20193813Y4744232D01*
X20172730Y4746728D01*
X20151569Y4745022D01*
X20143009Y4750246D01*
X20133051Y4751424D01*
X20117462Y4765835D01*
X20099340Y4776893D01*
X20096138Y4785547D01*
X20088122Y4792957D01*
X20075819Y4833377D01*
X20075499Y4837348D01*
X20075499Y4922872D01*
X20069091Y4982483D01*
X20062343Y5000574D01*
X20061237Y5014304D01*
X20065286Y5031315D01*
X20064537Y5048784D01*
X20072828Y5062989D01*
X20075408Y5073825D01*
X20082904Y5080253D01*
X20089911Y5092257D01*
X20255559Y5257905D01*
X20310073Y5285680D01*
X20329448Y5286823D01*
X20333122Y5286679D01*
X20813808Y5767363D01*
X20868325Y5795140D01*
X20928757Y5785569D01*
X20953816Y5767363D01*
X21060589Y5660590D01*
X21167361Y5767362D01*
X21221878Y5795140D01*
X21282310Y5785569D01*
X21307369Y5767363D01*
X21806237Y5268496D01*
X21879578Y5401902D01*
X21919791Y5558523D01*
X21919792Y5558528D01*
X21919792Y5702723D01*
X21938699Y5760914D01*
X21960596Y5782812D01*
X22015016Y5822350D01*
X22256471Y6063806D01*
X22310889Y6138704D01*
X22349114Y6256349D01*
X22349114Y6380047D01*
X22310889Y6497691D01*
X22256472Y6572590D01*
X22194591Y6634471D01*
X22118907Y6710156D01*
X22091130Y6764672D01*
X22089911Y6780159D01*
X22089911Y8030909D01*
X22108818Y8089100D01*
X22118901Y8100906D01*
X22363077Y8345083D01*
X22399222Y8368108D01*
X22420841Y8375976D01*
X22426813Y8380558D01*
X22457311Y8403961D01*
X22457310Y8403961D01*
X22457315Y8403964D01*
X22832208Y8778859D01*
X22886723Y8806635D01*
X22947155Y8797064D01*
G37*
G04 #@! TD.AperFunction*
G04 #@! TA.AperFunction,Conductor*
G36*
X247500Y5513012D02*
G01*
X190493Y5545925D01*
X63326Y5580000D01*
X-68326Y5580000D01*
X-195493Y5545925D01*
X-252500Y5513012D01*
X-252500Y7186988D01*
X-195493Y7154075D01*
X-68326Y7120000D01*
X63326Y7120000D01*
X190493Y7154075D01*
X247500Y7186988D01*
X247500Y5513012D01*
G37*
G04 #@! TD.AperFunction*
G04 #@! TA.AperFunction,Conductor*
G36*
X247500Y8053012D02*
G01*
X190493Y8085925D01*
X63326Y8120000D01*
X-68326Y8120000D01*
X-195493Y8085925D01*
X-252500Y8053012D01*
X-252500Y9726988D01*
X-195493Y9694075D01*
X-68326Y9660000D01*
X63326Y9660000D01*
X190493Y9694075D01*
X247500Y9726988D01*
X247500Y8053012D01*
G37*
G04 #@! TD.AperFunction*
G04 #@! TA.AperFunction,Conductor*
G36*
X16426477Y10103724D02*
G01*
X16469742Y10060459D01*
X16479313Y10000027D01*
X16468287Y9967822D01*
X16441599Y9919277D01*
X16441598Y9919274D01*
X16401386Y9762656D01*
X16401386Y9600949D01*
X16441598Y9444332D01*
X16519498Y9302631D01*
X16519500Y9302628D01*
X16533122Y9286679D01*
X17013807Y9767363D01*
X17068324Y9795140D01*
X17128756Y9785569D01*
X17153815Y9767363D01*
X17367362Y9553816D01*
X17395139Y9499299D01*
X17385568Y9438867D01*
X17367362Y9413808D01*
X16873095Y8919543D01*
X16868873Y8904575D01*
X16856565Y8889579D01*
X16512862Y8545874D01*
X16505745Y8542248D01*
X16501049Y8535784D01*
X16478998Y8528620D01*
X16458345Y8518096D01*
X16442858Y8516877D01*
X16397088Y8516877D01*
X16338897Y8535784D01*
X16320002Y8553759D01*
X16295911Y8583655D01*
X16295902Y8583665D01*
X15750904Y9128660D01*
X15704225Y9166277D01*
X15704215Y9166283D01*
X15573307Y9226067D01*
X15430853Y9246548D01*
X15430847Y9246548D01*
X15288393Y9226067D01*
X15288391Y9226067D01*
X15204572Y9187787D01*
X15143786Y9180812D01*
X15090509Y9210899D01*
X15065091Y9266555D01*
X15074976Y9322271D01*
X15150469Y9472592D01*
X15150471Y9472597D01*
X15190902Y9643188D01*
X15190902Y9818515D01*
X15190233Y9824237D01*
X15192540Y9824507D01*
X15196724Y9875880D01*
X15236586Y9922298D01*
X15296119Y9936420D01*
X15352584Y9912853D01*
X15358075Y9907764D01*
X15433861Y9831978D01*
X15433866Y9831974D01*
X15433870Y9831970D01*
X15479377Y9795300D01*
X15479381Y9795297D01*
X15479382Y9795297D01*
X15479386Y9795294D01*
X15607026Y9737003D01*
X15745923Y9717033D01*
X15745926Y9717033D01*
X15745929Y9717033D01*
X15884822Y9737002D01*
X15884823Y9737003D01*
X15884826Y9737003D01*
X16012471Y9795297D01*
X16057990Y9831978D01*
X16311530Y10085519D01*
X16366045Y10113295D01*
X16426477Y10103724D01*
G37*
G04 #@! TD.AperFunction*
G04 #@! TA.AperFunction,Conductor*
G36*
X39693081Y13735287D02*
G01*
X39722973Y13730552D01*
X39723570Y13730245D01*
X39736711Y13723430D01*
X39803820Y13703982D01*
X39875837Y13693887D01*
X39875846Y13693888D01*
X39875847Y13693887D01*
X39877201Y13693892D01*
X39900648Y13693975D01*
X39958905Y13675275D01*
X39995045Y13625904D01*
X40000000Y13594976D01*
X40000000Y9489593D01*
X39981093Y9431402D01*
X39931593Y9395438D01*
X39870407Y9395438D01*
X39851501Y9403856D01*
X39783538Y9443094D01*
X39783537Y9443095D01*
X39783536Y9443095D01*
X39662601Y9475500D01*
X39537399Y9475500D01*
X39432560Y9447409D01*
X39371460Y9450610D01*
X39323910Y9489115D01*
X39308074Y9548216D01*
X39318728Y9587980D01*
X39343595Y9636785D01*
X39409258Y9838878D01*
X39419731Y9905000D01*
X38525512Y9905000D01*
X38558425Y9962007D01*
X38592500Y10089174D01*
X38592500Y10220826D01*
X38558425Y10347993D01*
X38525512Y10405000D01*
X39419731Y10405000D01*
X39419731Y10405001D01*
X39409258Y10471123D01*
X39343595Y10673216D01*
X39247124Y10862553D01*
X39122222Y11034465D01*
X38971964Y11184723D01*
X38800052Y11309625D01*
X38610715Y11406096D01*
X38408620Y11471760D01*
X38342500Y11482233D01*
X38342500Y10588012D01*
X38285493Y10620925D01*
X38158326Y10655000D01*
X38026674Y10655000D01*
X37899507Y10620925D01*
X37842500Y10588012D01*
X37842500Y11482232D01*
X37842499Y11482233D01*
X37776380Y11471760D01*
X37776378Y11471760D01*
X37574284Y11406096D01*
X37384947Y11309625D01*
X37213035Y11184723D01*
X37062777Y11034465D01*
X36937875Y10862553D01*
X36841404Y10673216D01*
X36775741Y10471123D01*
X36765268Y10405001D01*
X36765269Y10405000D01*
X37659488Y10405000D01*
X37626575Y10347993D01*
X37592500Y10220826D01*
X37592500Y10089174D01*
X37626575Y9962007D01*
X37659488Y9905000D01*
X36765269Y9905000D01*
X36775741Y9838878D01*
X36841405Y9636782D01*
X36843322Y9633020D01*
X36852892Y9572588D01*
X36825112Y9518072D01*
X36770595Y9490296D01*
X36710163Y9499870D01*
X36685109Y9518073D01*
X36222712Y9980470D01*
X36142788Y10026614D01*
X36053644Y10050500D01*
X36053642Y10050500D01*
X35854990Y10050500D01*
X35796799Y10069407D01*
X35781427Y10083247D01*
X35772143Y10093556D01*
X35763076Y10112102D01*
X35686226Y10188952D01*
X35684495Y10190874D01*
X35673051Y10216568D01*
X35660277Y10241640D01*
X35660698Y10244304D01*
X35659602Y10246766D01*
X35665446Y10274281D01*
X35669848Y10302072D01*
X35672203Y10306091D01*
X35672315Y10306616D01*
X35672730Y10306991D01*
X35675742Y10312128D01*
X35680599Y10319399D01*
X35680601Y10319399D01*
X35735966Y10402260D01*
X35750500Y10475326D01*
X35750500Y11524674D01*
X35735966Y11597740D01*
X35735962Y11597745D01*
X35732233Y11606752D01*
X35734248Y11607587D01*
X35721189Y11653880D01*
X35733773Y11692611D01*
X35732233Y11693248D01*
X35735961Y11702254D01*
X35735966Y11702260D01*
X35750500Y11775326D01*
X35750500Y12465892D01*
X38599500Y12465892D01*
X38599500Y12334108D01*
X38626304Y12234075D01*
X38633609Y12206810D01*
X38699496Y12092691D01*
X38699498Y12092689D01*
X38699500Y12092686D01*
X38792686Y11999500D01*
X38792688Y11999499D01*
X38792690Y11999497D01*
X38906810Y11933610D01*
X38906808Y11933610D01*
X38906812Y11933609D01*
X38906814Y11933608D01*
X39034108Y11899500D01*
X39034110Y11899500D01*
X39165890Y11899500D01*
X39165892Y11899500D01*
X39293186Y11933608D01*
X39293188Y11933610D01*
X39293190Y11933610D01*
X39407309Y11999497D01*
X39407309Y11999498D01*
X39407314Y11999500D01*
X39500500Y12092686D01*
X39544311Y12168568D01*
X39566390Y12206810D01*
X39566390Y12206812D01*
X39566392Y12206814D01*
X39600500Y12334108D01*
X39600500Y12465892D01*
X39566392Y12593186D01*
X39566390Y12593189D01*
X39566390Y12593191D01*
X39500503Y12707310D01*
X39500501Y12707312D01*
X39500500Y12707314D01*
X39407314Y12800500D01*
X39407311Y12800502D01*
X39407309Y12800504D01*
X39293189Y12866391D01*
X39293191Y12866391D01*
X39224411Y12884820D01*
X39165892Y12900500D01*
X39034108Y12900500D01*
X38975589Y12884820D01*
X38906809Y12866391D01*
X38792690Y12800504D01*
X38699496Y12707310D01*
X38633609Y12593191D01*
X38614631Y12522364D01*
X38599500Y12465892D01*
X35750500Y12465892D01*
X35750500Y12824674D01*
X35735966Y12897740D01*
X35708961Y12938157D01*
X35680602Y12980600D01*
X35680599Y12980603D01*
X35597742Y13035965D01*
X35597740Y13035966D01*
X35597737Y13035967D01*
X35597736Y13035967D01*
X35524684Y13050499D01*
X35524674Y13050500D01*
X34475326Y13050500D01*
X34475325Y13050500D01*
X34475315Y13050499D01*
X34402263Y13035967D01*
X34402257Y13035965D01*
X34319400Y12980603D01*
X34319397Y12980600D01*
X34282316Y12925102D01*
X34234266Y12887222D01*
X34173128Y12884820D01*
X34122254Y12918812D01*
X34117684Y12925102D01*
X34080602Y12980600D01*
X34080599Y12980603D01*
X33997742Y13035965D01*
X33997740Y13035966D01*
X33997737Y13035967D01*
X33997736Y13035967D01*
X33924684Y13050499D01*
X33924674Y13050500D01*
X32875326Y13050500D01*
X32875325Y13050500D01*
X32875315Y13050499D01*
X32802263Y13035967D01*
X32802257Y13035965D01*
X32719400Y12980603D01*
X32719397Y12980600D01*
X32682316Y12925102D01*
X32634266Y12887222D01*
X32573128Y12884820D01*
X32522254Y12918812D01*
X32517684Y12925102D01*
X32480602Y12980600D01*
X32480599Y12980603D01*
X32397742Y13035965D01*
X32397740Y13035966D01*
X32397737Y13035967D01*
X32397736Y13035967D01*
X32324684Y13050499D01*
X32324674Y13050500D01*
X31275326Y13050500D01*
X31275325Y13050500D01*
X31275315Y13050499D01*
X31202263Y13035967D01*
X31202257Y13035965D01*
X31119400Y12980603D01*
X31119397Y12980600D01*
X31082316Y12925102D01*
X31034266Y12887222D01*
X30973128Y12884820D01*
X30922254Y12918812D01*
X30917684Y12925102D01*
X30880602Y12980600D01*
X30880599Y12980603D01*
X30797742Y13035965D01*
X30797740Y13035966D01*
X30797737Y13035967D01*
X30797736Y13035967D01*
X30724684Y13050499D01*
X30724674Y13050500D01*
X29675326Y13050500D01*
X29675325Y13050500D01*
X29675315Y13050499D01*
X29602263Y13035967D01*
X29602257Y13035965D01*
X29519400Y12980603D01*
X29519397Y12980600D01*
X29464035Y12897743D01*
X29464033Y12897737D01*
X29449501Y12824685D01*
X29449500Y12824673D01*
X29449500Y12749500D01*
X29430593Y12691309D01*
X29381093Y12655345D01*
X29350500Y12650500D01*
X28912568Y12650500D01*
X28854377Y12669407D01*
X28818413Y12718907D01*
X28818413Y12780093D01*
X28844696Y12821573D01*
X28874057Y12849220D01*
X28883245Y12858322D01*
X28891947Y12867390D01*
X28940010Y12938159D01*
X28969035Y13001715D01*
X28984188Y13044668D01*
X28989523Y13144217D01*
X28989521Y13144228D01*
X28989439Y13146087D01*
X28989667Y13146913D01*
X28989783Y13149074D01*
X28990257Y13149049D01*
X29005734Y13205063D01*
X29053582Y13243197D01*
X29088341Y13249500D01*
X39046142Y13249500D01*
X39046144Y13249500D01*
X39135288Y13273386D01*
X39147552Y13280468D01*
X39147555Y13280468D01*
X39167655Y13292074D01*
X39215212Y13319530D01*
X39608026Y13712347D01*
X39608357Y13712515D01*
X39608530Y13712848D01*
X39635637Y13726415D01*
X39662541Y13740123D01*
X39662910Y13740065D01*
X39663245Y13740232D01*
X39693081Y13735287D01*
G37*
G04 #@! TD.AperFunction*
G04 #@! TA.AperFunction,Conductor*
G36*
X29272327Y11930593D02*
G01*
X29308291Y11881093D01*
X29308291Y11819907D01*
X29293389Y11791171D01*
X29256647Y11742091D01*
X29256646Y11742089D01*
X29206403Y11607382D01*
X29206401Y11607371D01*
X29200000Y11547825D01*
X29200000Y11250001D01*
X29200001Y11250000D01*
X30101000Y11250000D01*
X30159191Y11231093D01*
X30195155Y11181593D01*
X30200000Y11151000D01*
X30200000Y11000001D01*
X30200001Y11000000D01*
X30351000Y11000000D01*
X30409191Y10981093D01*
X30445155Y10931593D01*
X30450000Y10901000D01*
X30450000Y9994000D01*
X30431093Y9935809D01*
X30381593Y9899845D01*
X30351000Y9895000D01*
X30340001Y9895000D01*
X30340000Y9894999D01*
X30340000Y9799000D01*
X30321093Y9740809D01*
X30271593Y9704845D01*
X30241000Y9700000D01*
X29939000Y9700000D01*
X29880809Y9718907D01*
X29844845Y9768407D01*
X29840000Y9799000D01*
X29840000Y10526000D01*
X29858907Y10584191D01*
X29908407Y10620155D01*
X29939000Y10625000D01*
X29949999Y10625000D01*
X29950000Y10625001D01*
X29950000Y10749999D01*
X29949999Y10750000D01*
X29200001Y10750000D01*
X29200000Y10749999D01*
X29200000Y10452176D01*
X29199999Y10452176D01*
X29206401Y10392630D01*
X29206403Y10392619D01*
X29256646Y10257912D01*
X29256647Y10257910D01*
X29331829Y10157480D01*
X29335019Y10148117D01*
X29341845Y10140954D01*
X29343242Y10123990D01*
X29351566Y10099565D01*
X29349955Y10080309D01*
X29318379Y9907973D01*
X29307903Y9888586D01*
X29301093Y9867624D01*
X29293660Y9862224D01*
X29289294Y9854143D01*
X29269425Y9844617D01*
X29251593Y9831660D01*
X29242405Y9831660D01*
X29234123Y9827689D01*
X29212450Y9831660D01*
X29190407Y9831660D01*
X29181005Y9837422D01*
X29173939Y9838716D01*
X29166986Y9846013D01*
X29150997Y9855811D01*
X29063403Y9943405D01*
X28984665Y10000612D01*
X28964100Y10007294D01*
X28860996Y10040795D01*
X28739795Y10040795D01*
X28681604Y10059702D01*
X28645640Y10109202D01*
X28640795Y10139795D01*
X28640795Y10260994D01*
X28640795Y10260996D01*
X28600612Y10384665D01*
X28590932Y10397988D01*
X28543410Y10463398D01*
X28543405Y10463404D01*
X28218410Y10788397D01*
X28139673Y10845604D01*
X28106222Y10856473D01*
X28016004Y10885787D01*
X27885971Y10885787D01*
X27878272Y10884568D01*
X27878064Y10885877D01*
X27825056Y10885881D01*
X27785654Y10910028D01*
X27722217Y10973465D01*
X27642293Y11019609D01*
X27553149Y11043495D01*
X27553147Y11043495D01*
X26147599Y11043495D01*
X26127597Y11049994D01*
X26106701Y11052338D01*
X26099143Y11059239D01*
X26089408Y11062402D01*
X26077045Y11079418D01*
X26061518Y11093596D01*
X26059597Y11103433D01*
X26053444Y11111902D01*
X26049216Y11153532D01*
X26057840Y11230408D01*
X26068302Y11253473D01*
X26076130Y11277562D01*
X26080755Y11280923D01*
X26083117Y11286128D01*
X26105134Y11298636D01*
X26125630Y11313526D01*
X26132912Y11314415D01*
X26136318Y11316349D01*
X26142805Y11315622D01*
X26163282Y11318119D01*
X26165573Y11317956D01*
X26165578Y11317954D01*
X26167364Y11317827D01*
X26174340Y11317077D01*
X26227130Y11309486D01*
X26227133Y11309486D01*
X27088393Y11309486D01*
X27088399Y11309486D01*
X27098178Y11309937D01*
X27111859Y11310567D01*
X27111866Y11310568D01*
X27111894Y11310569D01*
X27134602Y11312666D01*
X27226771Y11339263D01*
X27289070Y11370892D01*
X27348566Y11412703D01*
X27493540Y11549221D01*
X27502728Y11558323D01*
X27505843Y11561569D01*
X27511427Y11567387D01*
X27532041Y11597740D01*
X27559492Y11638159D01*
X27588517Y11701715D01*
X27603670Y11744668D01*
X27609005Y11844217D01*
X27609003Y11844228D01*
X27608921Y11846087D01*
X27609149Y11846913D01*
X27609265Y11849074D01*
X27609739Y11849049D01*
X27625216Y11905063D01*
X27673064Y11943197D01*
X27707823Y11949500D01*
X29214136Y11949500D01*
X29272327Y11930593D01*
G37*
G04 #@! TD.AperFunction*
G04 #@! TA.AperFunction,Conductor*
G36*
X18072149Y11440473D02*
G01*
X18099986Y11409372D01*
X18113897Y11384943D01*
X18122670Y11369536D01*
X18122675Y11369530D01*
X18168410Y11316748D01*
X18168419Y11316738D01*
X18168423Y11316734D01*
X18168425Y11316732D01*
X18189050Y11296830D01*
X18201199Y11285107D01*
X18201202Y11285105D01*
X18289532Y11238900D01*
X18289534Y11238899D01*
X18289535Y11238899D01*
X18289537Y11238898D01*
X18315981Y11231133D01*
X18356573Y11219214D01*
X18395702Y11213588D01*
X18428554Y11208864D01*
X18428558Y11208864D01*
X19442430Y11208864D01*
X19442446Y11208864D01*
X19469773Y11210330D01*
X19477684Y11211181D01*
X19477683Y11211182D01*
X19482221Y11211670D01*
X19482222Y11211669D01*
X19496105Y11213161D01*
X19496118Y11213162D01*
X19496123Y11213164D01*
X19500062Y11213588D01*
X19502259Y11215086D01*
X19524230Y11221966D01*
X19537004Y11225050D01*
X19544158Y11226282D01*
X19546588Y11227216D01*
X19546587Y11227217D01*
X19568211Y11235528D01*
X19568253Y11235544D01*
X19571163Y11236662D01*
X19591254Y11242952D01*
X19600006Y11247732D01*
X19609317Y11251307D01*
X19617339Y11255790D01*
X19623945Y11257098D01*
X19653878Y11274695D01*
X19653879Y11274694D01*
X19654027Y11274781D01*
X19667332Y11283724D01*
X19672824Y11286792D01*
X19679391Y11291809D01*
X19679487Y11291893D01*
X19679605Y11291972D01*
X19685966Y11296829D01*
X19688281Y11299179D01*
X19693734Y11304309D01*
X19704177Y11313406D01*
X19704295Y11313523D01*
X19704293Y11313525D01*
X19716682Y11325806D01*
X19771316Y11353353D01*
X19831707Y11343526D01*
X19874788Y11300078D01*
X19884542Y11242586D01*
X19880843Y11214488D01*
X19880843Y11214486D01*
X19891195Y11135855D01*
X19880045Y11075694D01*
X19835663Y11033577D01*
X19818667Y11027307D01*
X19789939Y11019609D01*
X19710017Y10973466D01*
X19455458Y10718907D01*
X19400942Y10691130D01*
X19385455Y10689911D01*
X18380158Y10689911D01*
X18321967Y10708818D01*
X18310155Y10718907D01*
X18172588Y10856473D01*
X18097693Y10910888D01*
X18097691Y10910889D01*
X17980047Y10949114D01*
X17856349Y10949114D01*
X17818429Y10936793D01*
X17738702Y10910889D01*
X17663807Y10856474D01*
X17422351Y10615017D01*
X17382814Y10560600D01*
X17333313Y10524637D01*
X17302722Y10519792D01*
X17158522Y10519792D01*
X17001904Y10479580D01*
X17001898Y10479578D01*
X16860204Y10401681D01*
X16832529Y10378043D01*
X16773472Y10318986D01*
X16718955Y10291209D01*
X16658523Y10300781D01*
X16615259Y10344046D01*
X16605688Y10404478D01*
X16613414Y10430114D01*
X16643237Y10495414D01*
X16643237Y10495416D01*
X16643238Y10495417D01*
X16663207Y10634311D01*
X16663207Y10634318D01*
X16643238Y10773212D01*
X16625309Y10812471D01*
X16599216Y10869604D01*
X16592242Y10930390D01*
X16622328Y10983667D01*
X16677984Y11009085D01*
X16730396Y11000784D01*
X16741965Y10995500D01*
X16826788Y10956762D01*
X16965683Y10936793D01*
X16965686Y10936793D01*
X16965689Y10936793D01*
X17104582Y10956762D01*
X17104583Y10956763D01*
X17104586Y10956763D01*
X17232231Y11015057D01*
X17277750Y11051738D01*
X17561185Y11335173D01*
X17656397Y11430384D01*
X17710913Y11458161D01*
X17726400Y11459380D01*
X18013958Y11459380D01*
X18072149Y11440473D01*
G37*
G04 #@! TD.AperFunction*
G04 #@! TA.AperFunction,Conductor*
G36*
X3807001Y12768888D02*
G01*
X5256359Y11319530D01*
X5336283Y11273386D01*
X5425427Y11249500D01*
X9777414Y11249500D01*
X9785011Y11247032D01*
X9792901Y11248281D01*
X9813556Y11237757D01*
X9835605Y11230593D01*
X9847418Y11220504D01*
X9903418Y11164504D01*
X9931195Y11109987D01*
X9921624Y11049555D01*
X9878359Y11006290D01*
X9833414Y10995500D01*
X9446144Y10995500D01*
X8301356Y10995500D01*
X8255105Y10983107D01*
X8255104Y10983108D01*
X8212215Y10971616D01*
X8173241Y10949114D01*
X8132467Y10925573D01*
X8132285Y10925468D01*
X7806312Y10599496D01*
X7751796Y10571719D01*
X7736309Y10570500D01*
X7472691Y10570500D01*
X7376567Y10555275D01*
X7376560Y10555273D01*
X7260708Y10496243D01*
X7168755Y10404290D01*
X7164177Y10397988D01*
X7163103Y10398768D01*
X7125629Y10361291D01*
X7080682Y10350500D01*
X3704664Y10350500D01*
X3646473Y10369407D01*
X3610511Y10418905D01*
X3557373Y10582445D01*
X3478732Y10736788D01*
X3376914Y10876928D01*
X3254428Y10999414D01*
X3114288Y11101232D01*
X3114287Y11101233D01*
X3114285Y11101234D01*
X2959941Y11179875D01*
X2959938Y11179877D01*
X2795206Y11233402D01*
X2795202Y11233403D01*
X2624114Y11260500D01*
X2624111Y11260500D01*
X2450889Y11260500D01*
X2450886Y11260500D01*
X2279797Y11233403D01*
X2279793Y11233402D01*
X2115061Y11179877D01*
X2115058Y11179875D01*
X1960714Y11101234D01*
X1820573Y10999415D01*
X1698085Y10876927D01*
X1596266Y10736786D01*
X1517625Y10582442D01*
X1492823Y10506112D01*
X1456859Y10456612D01*
X1398667Y10437706D01*
X1340477Y10456614D01*
X1304514Y10506114D01*
X1248596Y10678214D01*
X1152124Y10867553D01*
X1027222Y11039465D01*
X876964Y11189723D01*
X705052Y11314624D01*
X651735Y11341790D01*
X608471Y11385054D01*
X598899Y11445486D01*
X626676Y11500003D01*
X651735Y11518210D01*
X705052Y11545377D01*
X876964Y11670278D01*
X1027222Y11820536D01*
X1152124Y11992448D01*
X1248596Y12181787D01*
X1304514Y12353887D01*
X1340478Y12403387D01*
X1398668Y12422295D01*
X1456859Y12403388D01*
X1492823Y12353889D01*
X1517625Y12277559D01*
X1584155Y12146984D01*
X1596268Y12123212D01*
X1698086Y11983072D01*
X1820572Y11860586D01*
X1960712Y11758768D01*
X2115055Y11680127D01*
X2115057Y11680127D01*
X2115058Y11680126D01*
X2115061Y11680124D01*
X2279793Y11626599D01*
X2279797Y11626598D01*
X2450886Y11599500D01*
X2450889Y11599500D01*
X2624114Y11599500D01*
X2795202Y11626598D01*
X2795206Y11626599D01*
X2959938Y11680124D01*
X2959940Y11680126D01*
X2959945Y11680127D01*
X3114288Y11758768D01*
X3254428Y11860586D01*
X3376914Y11983072D01*
X3478732Y12123212D01*
X3557373Y12277555D01*
X3557374Y12277560D01*
X3557376Y12277562D01*
X3610901Y12442294D01*
X3610902Y12442298D01*
X3638000Y12613386D01*
X3638000Y12698882D01*
X3656907Y12757073D01*
X3706407Y12793037D01*
X3767593Y12793037D01*
X3807001Y12768888D01*
G37*
G04 #@! TD.AperFunction*
G04 #@! TA.AperFunction,Conductor*
G36*
X23423199Y11940554D02*
G01*
X23459163Y11891054D01*
X23464008Y11860461D01*
X23464008Y11809461D01*
X23444117Y11809461D01*
X23407363Y11794237D01*
X23379232Y11766106D01*
X23364008Y11729352D01*
X23364008Y11689570D01*
X23379232Y11652816D01*
X23407363Y11624685D01*
X23444117Y11609461D01*
X23483899Y11609461D01*
X23520653Y11624685D01*
X23548784Y11652816D01*
X23564008Y11689570D01*
X23564008Y11709461D01*
X23615008Y11709461D01*
X23673199Y11690554D01*
X23709163Y11641054D01*
X23714008Y11610461D01*
X23714008Y10818511D01*
X23695101Y10760320D01*
X23645601Y10724356D01*
X23615008Y10719511D01*
X23564008Y10719511D01*
X23564008Y10739402D01*
X23548784Y10776156D01*
X23520653Y10804287D01*
X23483899Y10819511D01*
X23444117Y10819511D01*
X23407363Y10804287D01*
X23379232Y10776156D01*
X23364008Y10739402D01*
X23364008Y10699620D01*
X23379232Y10662866D01*
X23407363Y10634735D01*
X23444117Y10619511D01*
X23464008Y10619511D01*
X23464008Y10568511D01*
X23445101Y10510320D01*
X23395601Y10474356D01*
X23365008Y10469511D01*
X22573058Y10469511D01*
X22514867Y10488418D01*
X22478903Y10537918D01*
X22474058Y10568511D01*
X22474058Y10619511D01*
X22493949Y10619511D01*
X22530703Y10634735D01*
X22558834Y10662866D01*
X22574058Y10699620D01*
X22574058Y10739402D01*
X22558834Y10776156D01*
X22530703Y10804287D01*
X22493949Y10819511D01*
X22454167Y10819511D01*
X22417413Y10804287D01*
X22389282Y10776156D01*
X22374058Y10739402D01*
X22374058Y10719511D01*
X22323058Y10719511D01*
X22264867Y10738418D01*
X22228903Y10787918D01*
X22224058Y10818511D01*
X22224058Y11459460D01*
X22724058Y11459460D01*
X22724058Y10969512D01*
X22724059Y10969511D01*
X23214007Y10969511D01*
X23214008Y10969512D01*
X23214008Y11459460D01*
X23214007Y11459461D01*
X22724059Y11459461D01*
X22724058Y11459460D01*
X22224058Y11459460D01*
X22224058Y11610461D01*
X22242965Y11668652D01*
X22292465Y11704616D01*
X22323058Y11709461D01*
X22374058Y11709461D01*
X22374058Y11689570D01*
X22389282Y11652816D01*
X22417413Y11624685D01*
X22454167Y11609461D01*
X22493949Y11609461D01*
X22530703Y11624685D01*
X22558834Y11652816D01*
X22574058Y11689570D01*
X22574058Y11729352D01*
X22558834Y11766106D01*
X22530703Y11794237D01*
X22493949Y11809461D01*
X22474058Y11809461D01*
X22474058Y11860461D01*
X22492965Y11918652D01*
X22542465Y11954616D01*
X22573058Y11959461D01*
X23365008Y11959461D01*
X23423199Y11940554D01*
G37*
G04 #@! TD.AperFunction*
G04 #@! TA.AperFunction,Conductor*
G36*
X247500Y10593012D02*
G01*
X190493Y10625925D01*
X63326Y10660000D01*
X-68326Y10660000D01*
X-195493Y10625925D01*
X-252500Y10593012D01*
X-252500Y12266988D01*
X-195493Y12234075D01*
X-68326Y12200000D01*
X63326Y12200000D01*
X190493Y12234075D01*
X247500Y12266988D01*
X247500Y10593012D01*
G37*
G04 #@! TD.AperFunction*
G04 #@! TA.AperFunction,Conductor*
G36*
X247500Y13133012D02*
G01*
X190493Y13165925D01*
X63326Y13200000D01*
X-68326Y13200000D01*
X-195493Y13165925D01*
X-252500Y13133012D01*
X-252500Y14806988D01*
X-195493Y14774075D01*
X-68326Y14740000D01*
X63326Y14740000D01*
X190493Y14774075D01*
X247500Y14806988D01*
X247500Y13133012D01*
G37*
G04 #@! TD.AperFunction*
G04 #@! TA.AperFunction,Conductor*
G36*
X22439681Y14722951D02*
G01*
X22483559Y14680309D01*
X22495000Y14634109D01*
X22495000Y14412510D01*
X22496463Y14385204D01*
X22499297Y14358842D01*
X22499297Y14358840D01*
X22499298Y14358838D01*
X22529087Y14263704D01*
X22529088Y14263701D01*
X22529089Y14263700D01*
X22529091Y14263696D01*
X22562568Y14202386D01*
X22562571Y14202381D01*
X22585808Y14171340D01*
X22605544Y14113425D01*
X22587469Y14054970D01*
X22538487Y14018304D01*
X22477308Y14017430D01*
X22446285Y14033472D01*
X22420842Y14052996D01*
X22420841Y14052997D01*
X22399220Y14060866D01*
X22363077Y14083891D01*
X22172208Y14274760D01*
X22170720Y14277680D01*
X22167905Y14279347D01*
X22156964Y14304678D01*
X22144431Y14329277D01*
X22144943Y14332512D01*
X22143645Y14335517D01*
X22149684Y14362446D01*
X22154002Y14389709D01*
X22156519Y14392927D01*
X22157034Y14395219D01*
X22161149Y14398843D01*
X22177382Y14419584D01*
X22197132Y14436697D01*
X22228757Y14469471D01*
X22274965Y14557806D01*
X22294650Y14624845D01*
X22298008Y14648199D01*
X22325004Y14703106D01*
X22379119Y14731659D01*
X22439681Y14722951D01*
G37*
G04 #@! TD.AperFunction*
G04 #@! TA.AperFunction,Conductor*
G36*
X22448465Y15968098D02*
G01*
X22459438Y15965916D01*
X22505653Y15956724D01*
X22524215Y15951093D01*
X22578101Y15928773D01*
X22595206Y15919630D01*
X22643685Y15887237D01*
X22658687Y15874926D01*
X22699923Y15833690D01*
X22712229Y15818695D01*
X22744623Y15770217D01*
X22753772Y15753100D01*
X22776090Y15699218D01*
X22781722Y15680653D01*
X22793097Y15623474D01*
X22795000Y15604158D01*
X22795000Y15545843D01*
X22793097Y15526526D01*
X22781722Y15469349D01*
X22776089Y15450780D01*
X22753775Y15396909D01*
X22744626Y15379794D01*
X22712232Y15331313D01*
X22699921Y15316310D01*
X22644022Y15260411D01*
X22637167Y15254171D01*
X22623339Y15242719D01*
X22587910Y15206651D01*
X22587891Y15206630D01*
X22571243Y15187930D01*
X22571242Y15187928D01*
X22525035Y15099595D01*
X22525033Y15099590D01*
X22505353Y15032567D01*
X22505349Y15032550D01*
X22498532Y14985141D01*
X22471535Y14930234D01*
X22417420Y14901682D01*
X22356857Y14910390D01*
X22312980Y14953034D01*
X22302062Y14989085D01*
X22299634Y15012657D01*
X22289327Y15062153D01*
X22283017Y15086421D01*
X22235237Y15173916D01*
X22223524Y15187930D01*
X22190434Y15227522D01*
X22176992Y15239596D01*
X22173144Y15243243D01*
X22100076Y15316311D01*
X22087768Y15331308D01*
X22055367Y15379798D01*
X22046227Y15396900D01*
X22023906Y15450788D01*
X22018275Y15469352D01*
X22006902Y15526528D01*
X22005000Y15545842D01*
X22005000Y15604155D01*
X22006902Y15623467D01*
X22017251Y15675500D01*
X22018276Y15680656D01*
X22023909Y15699223D01*
X22032626Y15720268D01*
X22046227Y15753104D01*
X22055367Y15770205D01*
X22087766Y15818693D01*
X22100069Y15833685D01*
X22141314Y15874930D01*
X22156304Y15887231D01*
X22204792Y15919630D01*
X22221900Y15928774D01*
X22275780Y15951092D01*
X22294340Y15956722D01*
X22334526Y15964715D01*
X22351535Y15968098D01*
X22370848Y15970000D01*
X22429153Y15970000D01*
X22448465Y15968098D01*
G37*
G04 #@! TD.AperFunction*
G04 #@! TA.AperFunction,Conductor*
G36*
X247500Y15673012D02*
G01*
X190493Y15705925D01*
X63326Y15740000D01*
X-68326Y15740000D01*
X-195493Y15705925D01*
X-252500Y15673012D01*
X-252500Y17346988D01*
X-195493Y17314075D01*
X-68326Y17280000D01*
X63326Y17280000D01*
X190493Y17314075D01*
X247500Y17346988D01*
X247500Y15673012D01*
G37*
G04 #@! TD.AperFunction*
G04 #@! TA.AperFunction,Conductor*
G36*
X247500Y18213012D02*
G01*
X190493Y18245925D01*
X63326Y18280000D01*
X-68326Y18280000D01*
X-195493Y18245925D01*
X-252500Y18213012D01*
X-252500Y19886988D01*
X-195493Y19854075D01*
X-68326Y19820000D01*
X63326Y19820000D01*
X190493Y19854075D01*
X247500Y19886988D01*
X247500Y18213012D01*
G37*
G04 #@! TD.AperFunction*
G04 #@! TA.AperFunction,Conductor*
G36*
X247500Y20753012D02*
G01*
X190493Y20785925D01*
X63326Y20820000D01*
X-68326Y20820000D01*
X-195493Y20785925D01*
X-252500Y20753012D01*
X-252500Y22426988D01*
X-195493Y22394075D01*
X-68326Y22360000D01*
X63326Y22360000D01*
X190493Y22394075D01*
X247500Y22426988D01*
X247500Y20753012D01*
G37*
G04 #@! TD.AperFunction*
G04 #@! TD*
M02*
