G04 #@! TF.GenerationSoftware,KiCad,Pcbnew,9.0.4*
G04 #@! TF.CreationDate,2025-08-20T18:41:51-04:00*
G04 #@! TF.ProjectId,tac5212_audio_board_single_ended,74616335-3231-4325-9f61-7564696f5f62,rev?*
G04 #@! TF.SameCoordinates,Original*
G04 #@! TF.FileFunction,Soldermask,Top*
G04 #@! TF.FilePolarity,Negative*
%FSLAX46Y46*%
G04 Gerber Fmt 4.6, Leading zero omitted, Abs format (unit mm)*
G04 Created by KiCad (PCBNEW 9.0.4) date 2025-08-20 18:41:51*
%MOMM*%
%LPD*%
G01*
G04 APERTURE LIST*
G04 Aperture macros list*
%AMRoundRect*
0 Rectangle with rounded corners*
0 $1 Rounding radius*
0 $2 $3 $4 $5 $6 $7 $8 $9 X,Y pos of 4 corners*
0 Add a 4 corners polygon primitive as box body*
4,1,4,$2,$3,$4,$5,$6,$7,$8,$9,$2,$3,0*
0 Add four circle primitives for the rounded corners*
1,1,$1+$1,$2,$3*
1,1,$1+$1,$4,$5*
1,1,$1+$1,$6,$7*
1,1,$1+$1,$8,$9*
0 Add four rect primitives between the rounded corners*
20,1,$1+$1,$2,$3,$4,$5,0*
20,1,$1+$1,$4,$5,$6,$7,0*
20,1,$1+$1,$6,$7,$8,$9,0*
20,1,$1+$1,$8,$9,$2,$3,0*%
%AMRotRect*
0 Rectangle, with rotation*
0 The origin of the aperture is its center*
0 $1 length*
0 $2 width*
0 $3 Rotation angle, in degrees counterclockwise*
0 Add horizontal line*
21,1,$1,$2,0,0,$3*%
G04 Aperture macros list end*
%ADD10C,0.000000*%
%ADD11C,0.010000*%
%ADD12RoundRect,0.160000X-0.252791X0.026517X0.026517X-0.252791X0.252791X-0.026517X-0.026517X0.252791X0*%
%ADD13RoundRect,0.135000X-0.226274X-0.035355X-0.035355X-0.226274X0.226274X0.035355X0.035355X0.226274X0*%
%ADD14R,1.700000X1.700000*%
%ADD15O,1.700000X1.700000*%
%ADD16C,3.200000*%
%ADD17R,1.000000X1.000000*%
%ADD18RoundRect,0.250000X0.337500X0.475000X-0.337500X0.475000X-0.337500X-0.475000X0.337500X-0.475000X0*%
%ADD19RoundRect,0.160000X0.026517X0.252791X-0.252791X-0.026517X-0.026517X-0.252791X0.252791X0.026517X0*%
%ADD20RoundRect,0.140000X0.219203X0.021213X0.021213X0.219203X-0.219203X-0.021213X-0.021213X-0.219203X0*%
%ADD21RoundRect,0.250000X0.574524X0.097227X0.097227X0.574524X-0.574524X-0.097227X-0.097227X-0.574524X0*%
%ADD22RoundRect,0.150000X0.512500X0.150000X-0.512500X0.150000X-0.512500X-0.150000X0.512500X-0.150000X0*%
%ADD23RoundRect,0.135000X-0.185000X0.135000X-0.185000X-0.135000X0.185000X-0.135000X0.185000X0.135000X0*%
%ADD24R,0.508000X0.500000*%
%ADD25R,0.508000X0.508000*%
%ADD26RoundRect,0.237500X0.237500X-0.300000X0.237500X0.300000X-0.237500X0.300000X-0.237500X-0.300000X0*%
%ADD27RoundRect,0.140000X-0.021213X0.219203X-0.219203X0.021213X0.021213X-0.219203X0.219203X-0.021213X0*%
%ADD28RoundRect,0.250000X-0.097227X0.574524X-0.574524X0.097227X0.097227X-0.574524X0.574524X-0.097227X0*%
%ADD29RoundRect,0.250000X-0.450000X0.325000X-0.450000X-0.325000X0.450000X-0.325000X0.450000X0.325000X0*%
%ADD30RoundRect,0.062500X-0.185616X-0.274004X0.274004X0.185616X0.185616X0.274004X-0.274004X-0.185616X0*%
%ADD31RoundRect,0.062500X0.185616X-0.274004X0.274004X-0.185616X-0.185616X0.274004X-0.274004X0.185616X0*%
%ADD32RotRect,2.100000X2.100000X45.000000*%
%ADD33RoundRect,0.062500X0.000000X-0.088388X0.088388X0.000000X0.000000X0.088388X-0.088388X0.000000X0*%
%ADD34RotRect,0.508000X0.508000X315.000000*%
%ADD35RoundRect,0.237500X-0.300000X-0.237500X0.300000X-0.237500X0.300000X0.237500X-0.300000X0.237500X0*%
%ADD36RoundRect,0.135000X-0.135000X-0.185000X0.135000X-0.185000X0.135000X0.185000X-0.135000X0.185000X0*%
%ADD37RoundRect,0.237500X-0.044194X-0.380070X0.380070X0.044194X0.044194X0.380070X-0.380070X-0.044194X0*%
%ADD38RoundRect,0.135000X0.135000X0.185000X-0.135000X0.185000X-0.135000X-0.185000X0.135000X-0.185000X0*%
%ADD39RoundRect,0.160000X0.197500X0.160000X-0.197500X0.160000X-0.197500X-0.160000X0.197500X-0.160000X0*%
%ADD40RoundRect,0.135000X0.226274X0.035355X0.035355X0.226274X-0.226274X-0.035355X-0.035355X-0.226274X0*%
G04 APERTURE END LIST*
G04 #@! TO.C,E108*
G36*
X12646000Y22646000D02*
G01*
X13154000Y22646000D01*
X13154000Y23146000D01*
X12646000Y23146000D01*
X12646000Y22646000D01*
G37*
G04 #@! TO.C,E109*
G36*
X35046000Y22646000D02*
G01*
X35554000Y22646000D01*
X35554000Y23146000D01*
X35046000Y23146000D01*
X35046000Y22646000D01*
G37*
D10*
G04 #@! TO.C,DOUT108*
G36*
X12853553Y7205657D02*
G01*
X12494343Y6846447D01*
X12146447Y7194343D01*
X12505657Y7553553D01*
X12853553Y7205657D01*
G37*
G04 #@! TO.C,5V108*
D11*
X7160000Y800000D02*
X5050000Y800000D01*
X5050000Y1800000D01*
X7160000Y1800000D01*
X7160000Y800000D01*
G36*
X7160000Y800000D02*
G01*
X5050000Y800000D01*
X5050000Y1800000D01*
X7160000Y1800000D01*
X7160000Y800000D01*
G37*
G04 #@! TO.C,G118*
G36*
X35146000Y-254000D02*
G01*
X35654000Y-254000D01*
X35654000Y246000D01*
X35146000Y246000D01*
X35146000Y-254000D01*
G37*
G04 #@! TO.C,G117*
G36*
X12446000Y346000D02*
G01*
X12954000Y346000D01*
X12954000Y846000D01*
X12446000Y846000D01*
X12446000Y346000D01*
G37*
G04 #@! TD*
D12*
G04 #@! TO.C,R113*
X27222496Y7777504D03*
X26377504Y8622496D03*
G04 #@! TD*
D13*
G04 #@! TO.C,R121*
X23239376Y5560624D03*
X23960624Y4839376D03*
G04 #@! TD*
D14*
G04 #@! TO.C,board_outline108*
X2537500Y0D03*
D15*
X-2500Y0D03*
X2537500Y2540000D03*
X-2500Y2540000D03*
X2537500Y5080000D03*
X-2500Y5080000D03*
X2537500Y7620000D03*
X-2500Y7620000D03*
X2537500Y10160000D03*
X-2500Y10160000D03*
X2537500Y12700000D03*
X-2500Y12700000D03*
X2537500Y15240000D03*
X-2500Y15240000D03*
X2537500Y17780000D03*
X-2500Y17780000D03*
X2537500Y20320000D03*
X-2500Y20320000D03*
X2537500Y22860000D03*
X-2500Y22860000D03*
D14*
X15247500Y20315000D03*
X15247500Y22855000D03*
D15*
X17787500Y20315000D03*
X17787500Y22855000D03*
X20327500Y20315000D03*
X20327500Y22855000D03*
X22867500Y20315000D03*
X22867500Y22855000D03*
X25407500Y20315000D03*
X25407500Y22855000D03*
X27947500Y20315000D03*
X27947500Y22855000D03*
X30487500Y20315000D03*
X30487500Y22855000D03*
X33027500Y20315000D03*
X33027500Y22855000D03*
D14*
X15247500Y-5000D03*
D15*
X17787500Y-5000D03*
X20327500Y-5000D03*
X22867500Y-5000D03*
X25407500Y-5000D03*
X27947500Y-5000D03*
X30487500Y-5000D03*
X33027500Y-5000D03*
X38092500Y5075000D03*
X38092500Y7615000D03*
X38092500Y10155000D03*
X35552500Y20315000D03*
D16*
X10152500Y22855000D03*
X38092500Y22855000D03*
X10152500Y-5000D03*
X38092500Y-5000D03*
G04 #@! TD*
D17*
G04 #@! TO.C,ADD108*
X30200000Y11000000D03*
X30200000Y12300000D03*
G04 #@! TD*
D12*
G04 #@! TO.C,R112*
X28022496Y8577504D03*
X27177504Y9422496D03*
G04 #@! TD*
D18*
G04 #@! TO.C,C111*
X19237500Y4400000D03*
X17162500Y4400000D03*
G04 #@! TD*
D12*
G04 #@! TO.C,R114*
X26422496Y6977504D03*
X25577504Y7822496D03*
G04 #@! TD*
D19*
G04 #@! TO.C,R115*
X18645334Y7891296D03*
X19490326Y8736288D03*
G04 #@! TD*
D17*
G04 #@! TO.C,ADD112*
X31800000Y11000000D03*
X31800000Y12300000D03*
G04 #@! TD*
D20*
G04 #@! TO.C,C109*
X18739411Y13460589D03*
X18060589Y14139411D03*
G04 #@! TD*
D17*
G04 #@! TO.C,ADD110*
X33400000Y11000000D03*
X33400000Y12300000D03*
G04 #@! TD*
D21*
G04 #@! TO.C,C115*
X15333623Y8166377D03*
X13866377Y9633623D03*
G04 #@! TD*
D22*
G04 #@! TO.C,U108*
X10337500Y6550000D03*
X10337500Y7500000D03*
X10337500Y8450000D03*
X8062500Y8450000D03*
X8062500Y6550000D03*
G04 #@! TD*
D19*
G04 #@! TO.C,R118*
X19988837Y6547793D03*
X20833829Y7392785D03*
G04 #@! TD*
D23*
G04 #@! TO.C,R126*
X35400000Y6210000D03*
X35400000Y5190000D03*
G04 #@! TD*
D24*
G04 #@! TO.C,E108*
X12900000Y22396000D03*
D25*
X12900000Y23400000D03*
G04 #@! TD*
D26*
G04 #@! TO.C,C118*
X38400000Y17937500D03*
X38400000Y19662500D03*
G04 #@! TD*
D27*
G04 #@! TO.C,C116*
X17939411Y10339411D03*
X17260589Y9660589D03*
G04 #@! TD*
D28*
G04 #@! TO.C,C108*
X15933623Y13433623D03*
X14466377Y11966377D03*
G04 #@! TD*
D29*
G04 #@! TO.C,D116*
X33375000Y6350000D03*
X33375000Y4300000D03*
G04 #@! TD*
D30*
G04 #@! TO.C,TAC5212*
X20679775Y10692995D03*
X21033328Y10339441D03*
X21386882Y9985888D03*
X21740435Y9632335D03*
X22093988Y9278781D03*
X22447542Y8925228D03*
D31*
X23490524Y8925228D03*
X23844078Y9278781D03*
X24197631Y9632335D03*
X24551184Y9985888D03*
X24904738Y10339441D03*
X25258291Y10692995D03*
D30*
X25258291Y11735977D03*
X24904738Y12089531D03*
X24551184Y12443084D03*
X24197631Y12796637D03*
X23844078Y13150191D03*
X23490524Y13503744D03*
D31*
X22447542Y13503744D03*
X22093988Y13150191D03*
X21740435Y12796637D03*
X21386882Y12443084D03*
X21033328Y12089531D03*
X20679775Y11735977D03*
D32*
X22969033Y11214486D03*
D33*
X20536586Y11214486D03*
X22969033Y8782039D03*
X25401480Y11214486D03*
X22969033Y13646933D03*
G04 #@! TD*
D27*
G04 #@! TO.C,C112*
X21739411Y6339411D03*
X21060589Y5660589D03*
G04 #@! TD*
D24*
G04 #@! TO.C,E109*
X35300000Y22396000D03*
D25*
X35300000Y23400000D03*
G04 #@! TD*
D17*
G04 #@! TO.C,ADD111*
X35000000Y11000000D03*
X35000000Y12300000D03*
G04 #@! TD*
D34*
G04 #@! TO.C,DOUT108*
X12853553Y6846447D03*
X12146447Y7553553D03*
G04 #@! TD*
D12*
G04 #@! TO.C,R110*
X28822496Y9377504D03*
X27977504Y10222496D03*
G04 #@! TD*
D35*
G04 #@! TO.C,C128*
X9137500Y4600000D03*
X10862500Y4600000D03*
G04 #@! TD*
D36*
G04 #@! TO.C,R123*
X34290000Y9700000D03*
X35310000Y9700000D03*
G04 #@! TD*
D37*
G04 #@! TO.C,C119*
X15790120Y10590120D03*
X17009880Y11809880D03*
G04 #@! TD*
D38*
G04 #@! TO.C,R124*
X31110000Y9700000D03*
X30090000Y9700000D03*
G04 #@! TD*
D19*
G04 #@! TO.C,R119*
X17973583Y8563048D03*
X18818575Y9408040D03*
G04 #@! TD*
D17*
G04 #@! TO.C,PU_EN108*
X20750000Y4000000D03*
X22050000Y4000000D03*
G04 #@! TD*
D19*
G04 #@! TO.C,R117*
X19317086Y7219545D03*
X20162078Y8064537D03*
G04 #@! TD*
D24*
G04 #@! TO.C,G118*
X35400000Y-504000D03*
D25*
X35400000Y500000D03*
G04 #@! TD*
D38*
G04 #@! TO.C,R122*
X33310000Y9700000D03*
X32290000Y9700000D03*
G04 #@! TD*
D39*
G04 #@! TO.C,R125*
X7702500Y10000000D03*
X8897500Y10000000D03*
G04 #@! TD*
D24*
G04 #@! TO.C,G117*
X12700000Y96000D03*
D25*
X12700000Y1100000D03*
G04 #@! TD*
D40*
G04 #@! TO.C,R120*
X24760624Y5639376D03*
X24039376Y6360624D03*
G04 #@! TD*
M02*
