M48
; DRILL file {KiCad 9.0.4} date 2025-08-20T19:30:37-0400
; FORMAT={-:-/ absolute / metric / decimal}
; #@! TF.CreationDate,2025-08-20T19:30:37-04:00
; #@! TF.GenerationSoftware,Kicad,Pcbnew,9.0.4
; #@! TF.FileFunction,Plated,1,4,PTH
FMAT,2
METRIC
; #@! TA.AperFunction,Plated,PTH,ViaDrill
T1C0.200
; #@! TA.AperFunction,Plated,PTH,ComponentDrill
T2C0.200
; #@! TA.AperFunction,Plated,PTH,ViaDrill
T3C0.400
; #@! TA.AperFunction,Plated,PTH,ComponentDrill
T4C1.000
; #@! TA.AperFunction,Plated,PTH,ComponentDrill
T5C2.200
%
G90
G05
T1
X-1.2Y6.2
X3.963Y4.813
X5.0Y-1.0
X5.45Y10.6
X6.2Y7.8
X6.4Y-1.0
X6.563Y4.321
X7.6Y24.2
X7.6Y21.6
X7.8Y16.8
X8.0Y6.6
X9.1Y4.6
X9.4Y19.4
X11.2Y12.6
X12.207Y3.02
X12.6Y-1.2
X15.134Y2.9
X16.425Y14.837
X17.2Y13.0
X17.2Y4.5
X20.503Y3.806
X20.953Y17.95
X22.062Y3.851
X23.904Y4.374
X24.4Y18.4
X25.4Y6.6
X25.4Y4.2
X28.8Y7.2
X29.0Y11.4
X30.4Y5.0
X32.6Y8.0
X35.35Y17.95
X37.109Y4.091
X38.0Y3.6
X38.5Y20.2
X39.6Y9.0
T2
X5.2Y16.1
X5.2Y4.4
X9.2Y15.1
X12.4Y5.4
X13.5Y15.175
X15.4Y4.2
X17.4Y15.4
X18.2Y2.8
X22.474Y11.709
X22.474Y10.72
X22.969Y11.214
X23.464Y11.709
X23.464Y10.72
X27.4Y15.175
X29.0Y8.1
X30.3Y8.6
X31.0Y15.237
X31.6Y8.6
X34.6Y15.165
X36.2Y7.0
X38.2Y15.117
X39.1Y12.4
T3
X7.515Y2.94
X22.4Y15.575
T4
X-0.003Y22.86
X-0.003Y20.32
X-0.003Y17.78
X-0.003Y15.24
X-0.003Y12.7
X-0.003Y10.16
X-0.003Y7.62
X-0.003Y5.08
X-0.003Y2.54
X-0.003Y0.0
X2.538Y22.86
X2.538Y20.32
X2.538Y17.78
X2.538Y15.24
X2.538Y12.7
X2.538Y10.16
X2.538Y7.62
X2.538Y5.08
X2.538Y2.54
X2.538Y0.0
X15.247Y22.855
X15.247Y20.315
X15.247Y-0.005
X17.787Y22.855
X17.787Y20.315
X17.787Y-0.005
X20.328Y22.855
X20.328Y20.315
X20.328Y-0.005
X22.867Y22.855
X22.867Y20.315
X22.867Y-0.005
X25.407Y22.855
X25.407Y20.315
X25.407Y-0.005
X27.947Y22.855
X27.947Y20.315
X27.947Y-0.005
X30.487Y22.855
X30.487Y20.315
X30.487Y-0.005
X33.027Y22.855
X33.027Y20.315
X33.027Y-0.005
X35.552Y20.315
X38.093Y10.155
X38.093Y7.615
X38.093Y5.075
T5
X10.152Y22.855
X10.152Y-0.005
X38.093Y22.855
X38.093Y-0.005
M30
