G04 #@! TF.GenerationSoftware,KiCad,Pcbnew,9.0.4*
G04 #@! TF.CreationDate,2025-08-20T18:41:51-04:00*
G04 #@! TF.ProjectId,tac5212_audio_board_single_ended,74616335-3231-4325-9f61-7564696f5f62,rev?*
G04 #@! TF.SameCoordinates,Original*
G04 #@! TF.FileFunction,Copper,L2,Inr*
G04 #@! TF.FilePolarity,Positive*
%FSLAX46Y46*%
G04 Gerber Fmt 4.6, Leading zero omitted, Abs format (unit mm)*
G04 Created by KiCad (PCBNEW 9.0.4) date 2025-08-20 18:41:51*
%MOMM*%
%LPD*%
G01*
G04 APERTURE LIST*
G04 #@! TA.AperFunction,ComponentPad*
%ADD10R,1.700000X1.700000*%
G04 #@! TD*
G04 #@! TA.AperFunction,ComponentPad*
%ADD11O,1.700000X1.700000*%
G04 #@! TD*
G04 #@! TA.AperFunction,ComponentPad*
%ADD12C,3.200000*%
G04 #@! TD*
G04 #@! TA.AperFunction,ComponentPad*
%ADD13C,0.500000*%
G04 #@! TD*
G04 #@! TA.AperFunction,ComponentPad*
%ADD14R,0.500000X0.500000*%
G04 #@! TD*
G04 #@! TA.AperFunction,ViaPad*
%ADD15C,0.450000*%
G04 #@! TD*
G04 #@! TA.AperFunction,ViaPad*
%ADD16C,0.800000*%
G04 #@! TD*
G04 #@! TA.AperFunction,Conductor*
%ADD17C,0.200000*%
G04 #@! TD*
G04 APERTURE END LIST*
D10*
G04 #@! TO.N,EN_HELD_HIGH*
G04 #@! TO.C,board_outline108*
X2537500Y0D03*
D11*
G04 #@! TO.N,unconnected-(board_outline108-HELD_LOW-Pad2)*
X-2500Y0D03*
G04 #@! TO.N,Net-(5V108-Pad2)*
X2537500Y2540000D03*
G04 #@! TO.N,3.3v_IDE*
X-2500Y2540000D03*
G04 #@! TO.N,unconnected-(board_outline108-12V-Pad5)*
X2537500Y5080000D03*
G04 #@! TO.N,GNDD*
X-2500Y5080000D03*
G04 #@! TO.N,5212_DIN1*
X2537500Y7620000D03*
G04 #@! TO.N,GNDD*
X-2500Y7620000D03*
G04 #@! TO.N,5212_DOUT1+*
X2537500Y10160000D03*
G04 #@! TO.N,GNDD*
X-2500Y10160000D03*
G04 #@! TO.N,5212_BCLK1*
X2537500Y12700000D03*
G04 #@! TO.N,GNDD*
X-2500Y12700000D03*
G04 #@! TO.N,5212_LRCK1*
X2537500Y15240000D03*
G04 #@! TO.N,GNDD*
X-2500Y15240000D03*
G04 #@! TO.N,DSP_SDA*
X2537500Y17780000D03*
G04 #@! TO.N,GNDD*
X-2500Y17780000D03*
G04 #@! TO.N,DSP_SCL*
X2537500Y20320000D03*
G04 #@! TO.N,GNDD*
X-2500Y20320000D03*
G04 #@! TO.N,5212_MCLK1*
X2537500Y22860000D03*
G04 #@! TO.N,GNDD*
X-2500Y22860000D03*
D10*
G04 #@! TO.N,OUT1P+*
X15247500Y20315000D03*
G04 #@! TO.N,Earth*
X15247500Y22855000D03*
D11*
G04 #@! TO.N,OUT1M+*
X17787500Y20315000D03*
G04 #@! TO.N,Earth*
X17787500Y22855000D03*
G04 #@! TO.N,OUT2P+*
X20327500Y20315000D03*
G04 #@! TO.N,Earth*
X20327500Y22855000D03*
G04 #@! TO.N,OUT2M+*
X22867500Y20315000D03*
G04 #@! TO.N,Earth*
X22867500Y22855000D03*
G04 #@! TO.N,IN1P+*
X25407500Y20315000D03*
G04 #@! TO.N,Earth*
X25407500Y22855000D03*
G04 #@! TO.N,IN1M+*
X27947500Y20315000D03*
G04 #@! TO.N,Earth*
X27947500Y22855000D03*
G04 #@! TO.N,IN2P+*
X30487500Y20315000D03*
G04 #@! TO.N,Earth*
X30487500Y22855000D03*
G04 #@! TO.N,IN2M+*
X33027500Y20315000D03*
G04 #@! TO.N,Earth*
X33027500Y22855000D03*
D10*
G04 #@! TO.N,5212_SCL*
X15247500Y-5000D03*
D11*
G04 #@! TO.N,5212_SDA*
X17787500Y-5000D03*
G04 #@! TO.N,GNDD*
X20327500Y-5000D03*
G04 #@! TO.N,GPIO1*
X22867500Y-5000D03*
G04 #@! TO.N,GPIO2*
X25407500Y-5000D03*
G04 #@! TO.N,GPO1*
X27947500Y-5000D03*
G04 #@! TO.N,GPI1*
X30487500Y-5000D03*
G04 #@! TO.N,GNDD*
X33027500Y-5000D03*
G04 #@! TO.N,5V*
X38092500Y5075000D03*
G04 #@! TO.N,3.3V_LDO*
X38092500Y7615000D03*
G04 #@! TO.N,GNDD*
X38092500Y10155000D03*
G04 #@! TO.N,MICBIAS*
X35552500Y20315000D03*
D12*
G04 #@! TO.N,Net-(E108-Pad2)*
X10152500Y22855000D03*
G04 #@! TO.N,Net-(E109-Pad2)*
X38092500Y22855000D03*
G04 #@! TO.N,Net-(G117-Pad1)*
X10152500Y-5000D03*
G04 #@! TO.N,Net-(G118-Pad1)*
X38092500Y-5000D03*
G04 #@! TD*
D13*
G04 #@! TO.N,Earth*
G04 #@! TO.C,G110*
X30300000Y8600000D03*
G04 #@! TD*
G04 #@! TO.N,Earth*
G04 #@! TO.C,G109*
X12400000Y5400000D03*
G04 #@! TD*
G04 #@! TO.N,Earth*
G04 #@! TO.C,G112*
X31600000Y8600000D03*
G04 #@! TD*
G04 #@! TO.N,Earth*
G04 #@! TO.C,G111*
X5200000Y4400000D03*
G04 #@! TD*
G04 #@! TO.N,Earth*
G04 #@! TO.C,G113*
X15400000Y4200000D03*
G04 #@! TD*
G04 #@! TO.N,GNDD*
G04 #@! TO.C,TAC5212*
X22474058Y10719511D03*
X22474058Y11709461D03*
X22969033Y11214486D03*
X23464008Y10719511D03*
X23464008Y11709461D03*
G04 #@! TD*
G04 #@! TO.N,Earth*
G04 #@! TO.C,G115*
X18200000Y2800000D03*
G04 #@! TD*
G04 #@! TO.N,Earth*
G04 #@! TO.C,G114*
X36200000Y7000000D03*
G04 #@! TD*
G04 #@! TO.N,Earth*
G04 #@! TO.C,G116*
X39100000Y12400000D03*
G04 #@! TD*
G04 #@! TO.N,Earth*
G04 #@! TO.C,G108*
X29000000Y8100000D03*
G04 #@! TD*
D14*
G04 #@! TO.N,OUT2P*
G04 #@! TO.C,OP2*
X13500000Y15175000D03*
G04 #@! TD*
G04 #@! TO.N,IN2P*
G04 #@! TO.C,INP2*
X34600000Y15165000D03*
G04 #@! TD*
G04 #@! TO.N,IN2M*
G04 #@! TO.C,INM2*
X38200000Y15117500D03*
G04 #@! TD*
G04 #@! TO.N,OUT2M*
G04 #@! TO.C,OM2*
X17400000Y15400000D03*
G04 #@! TD*
G04 #@! TO.N,OUT1P*
G04 #@! TO.C,OP1*
X9200000Y15100000D03*
G04 #@! TD*
G04 #@! TO.N,IN1M*
G04 #@! TO.C,INM1*
X31000000Y15237500D03*
G04 #@! TD*
G04 #@! TO.N,OUT1M*
G04 #@! TO.C,OM1*
X5200000Y16100000D03*
G04 #@! TD*
G04 #@! TO.N,IN1P*
G04 #@! TO.C,INP1*
X27400000Y15175000D03*
G04 #@! TD*
D15*
G04 #@! TO.N,GNDD*
X6200000Y7800000D03*
X25400000Y4200000D03*
X12600000Y-1200000D03*
D16*
X22400000Y15575000D03*
D15*
X5450000Y10600000D03*
X32600000Y8000000D03*
X6563425Y4321087D03*
X11200000Y12600000D03*
X28800000Y7200000D03*
X30400000Y5000000D03*
X17200000Y4500000D03*
X29000000Y11400000D03*
X12206587Y3020000D03*
X38000000Y3600000D03*
X6400000Y-1000000D03*
G04 #@! TO.N,5V*
X37108750Y4091250D03*
D16*
X7514682Y2940000D03*
D15*
G04 #@! TO.N,Earth*
X7800000Y16800000D03*
X7600000Y21600000D03*
X5000000Y-1000000D03*
X16424739Y14837337D03*
X39600000Y9000000D03*
X9400000Y19400000D03*
X7600000Y24200000D03*
X20953490Y17950334D03*
X24400000Y18400000D03*
X39400000Y20600000D03*
X35350000Y17950000D03*
G04 #@! TO.N,EN_HELD_HIGH*
X25400000Y6600000D03*
G04 #@! TO.N,5212_SCL*
X15134085Y2900000D03*
G04 #@! TO.N,5212_SDA*
X3962790Y4813448D03*
G04 #@! TO.N,3.3V_LDO*
X17200000Y13000000D03*
G04 #@! TO.N,GPI1*
X-1200000Y6200000D03*
G04 #@! TO.N,Net-(PU_EN108-Pad1)*
X23904037Y4374417D03*
X20503448Y3805544D03*
G04 #@! TO.N,3.3v_IDE*
X22061982Y3851431D03*
X8000000Y6600000D03*
X9100000Y4600000D03*
G04 #@! TD*
D17*
G04 #@! TO.N,GPI1*
X28317500Y2165000D02*
X7193666Y2165000D01*
X-800000Y3900000D02*
X-1200000Y4300000D01*
X4700000Y3900000D02*
X-800000Y3900000D01*
X-1200000Y4300000D02*
X-1200000Y6200000D01*
X6328984Y3200000D02*
X5400000Y3200000D01*
X7193666Y2165000D02*
X6739682Y2618984D01*
X5400000Y3200000D02*
X4700000Y3900000D01*
X6739682Y2618984D02*
X6739682Y2789302D01*
X30487500Y-5000D02*
X28317500Y2165000D01*
X6739682Y2789302D02*
X6328984Y3200000D01*
G04 #@! TD*
G04 #@! TA.AperFunction,Conductor*
G04 #@! TO.N,Earth*
G36*
X17321575Y23047993D02*
G01*
X17287500Y22920826D01*
X17287500Y22789174D01*
X17321575Y22662007D01*
X17354488Y22605000D01*
X15680512Y22605000D01*
X15713425Y22662007D01*
X15747500Y22789174D01*
X15747500Y22920826D01*
X15713425Y23047993D01*
X15680512Y23105000D01*
X17354488Y23105000D01*
X17321575Y23047993D01*
G37*
G04 #@! TD.AperFunction*
G04 #@! TA.AperFunction,Conductor*
G36*
X19861575Y23047993D02*
G01*
X19827500Y22920826D01*
X19827500Y22789174D01*
X19861575Y22662007D01*
X19894488Y22605000D01*
X18220512Y22605000D01*
X18253425Y22662007D01*
X18287500Y22789174D01*
X18287500Y22920826D01*
X18253425Y23047993D01*
X18220512Y23105000D01*
X19894488Y23105000D01*
X19861575Y23047993D01*
G37*
G04 #@! TD.AperFunction*
G04 #@! TA.AperFunction,Conductor*
G36*
X22401575Y23047993D02*
G01*
X22367500Y22920826D01*
X22367500Y22789174D01*
X22401575Y22662007D01*
X22434488Y22605000D01*
X20760512Y22605000D01*
X20793425Y22662007D01*
X20827500Y22789174D01*
X20827500Y22920826D01*
X20793425Y23047993D01*
X20760512Y23105000D01*
X22434488Y23105000D01*
X22401575Y23047993D01*
G37*
G04 #@! TD.AperFunction*
G04 #@! TA.AperFunction,Conductor*
G36*
X24941575Y23047993D02*
G01*
X24907500Y22920826D01*
X24907500Y22789174D01*
X24941575Y22662007D01*
X24974488Y22605000D01*
X23300512Y22605000D01*
X23333425Y22662007D01*
X23367500Y22789174D01*
X23367500Y22920826D01*
X23333425Y23047993D01*
X23300512Y23105000D01*
X24974488Y23105000D01*
X24941575Y23047993D01*
G37*
G04 #@! TD.AperFunction*
G04 #@! TA.AperFunction,Conductor*
G36*
X27481575Y23047993D02*
G01*
X27447500Y22920826D01*
X27447500Y22789174D01*
X27481575Y22662007D01*
X27514488Y22605000D01*
X25840512Y22605000D01*
X25873425Y22662007D01*
X25907500Y22789174D01*
X25907500Y22920826D01*
X25873425Y23047993D01*
X25840512Y23105000D01*
X27514488Y23105000D01*
X27481575Y23047993D01*
G37*
G04 #@! TD.AperFunction*
G04 #@! TA.AperFunction,Conductor*
G36*
X30021575Y23047993D02*
G01*
X29987500Y22920826D01*
X29987500Y22789174D01*
X30021575Y22662007D01*
X30054488Y22605000D01*
X28380512Y22605000D01*
X28413425Y22662007D01*
X28447500Y22789174D01*
X28447500Y22920826D01*
X28413425Y23047993D01*
X28380512Y23105000D01*
X30054488Y23105000D01*
X30021575Y23047993D01*
G37*
G04 #@! TD.AperFunction*
G04 #@! TA.AperFunction,Conductor*
G36*
X32561575Y23047993D02*
G01*
X32527500Y22920826D01*
X32527500Y22789174D01*
X32561575Y22662007D01*
X32594488Y22605000D01*
X30920512Y22605000D01*
X30953425Y22662007D01*
X30987500Y22789174D01*
X30987500Y22920826D01*
X30953425Y23047993D01*
X30920512Y23105000D01*
X32594488Y23105000D01*
X32561575Y23047993D01*
G37*
G04 #@! TD.AperFunction*
G04 #@! TA.AperFunction,Conductor*
G36*
X9164797Y24630315D02*
G01*
X9210552Y24577511D01*
X9220496Y24508353D01*
X9191471Y24444797D01*
X9159761Y24418616D01*
X9122211Y24396936D01*
X9122206Y24396933D01*
X8929763Y24249267D01*
X8929756Y24249261D01*
X8758239Y24077744D01*
X8758233Y24077737D01*
X8610567Y23885294D01*
X8489277Y23675215D01*
X8489273Y23675206D01*
X8396447Y23451105D01*
X8333661Y23216786D01*
X8302000Y22976289D01*
X8302000Y22733712D01*
X8333661Y22493215D01*
X8396447Y22258896D01*
X8489273Y22034795D01*
X8489277Y22034786D01*
X8511474Y21996339D01*
X8610564Y21824711D01*
X8610566Y21824708D01*
X8610567Y21824707D01*
X8758233Y21632264D01*
X8758239Y21632257D01*
X8929756Y21460740D01*
X8929763Y21460734D01*
X8994394Y21411141D01*
X9122211Y21313064D01*
X9332288Y21191776D01*
X9556400Y21098946D01*
X9790711Y21036162D01*
X9971086Y21012416D01*
X10031211Y21004500D01*
X10031212Y21004500D01*
X10273789Y21004500D01*
X10321888Y21010833D01*
X10514289Y21036162D01*
X10748600Y21098946D01*
X10972712Y21191776D01*
X11182789Y21313064D01*
X11375238Y21460735D01*
X11546765Y21632262D01*
X11694436Y21824711D01*
X11815724Y22034788D01*
X11908554Y22258900D01*
X11971338Y22493211D01*
X12003000Y22733712D01*
X12003000Y22976288D01*
X11971338Y23216789D01*
X11908554Y23451100D01*
X11815724Y23675212D01*
X11770903Y23752845D01*
X13897500Y23752845D01*
X13897500Y23105000D01*
X14814488Y23105000D01*
X14781575Y23047993D01*
X14747500Y22920826D01*
X14747500Y22789174D01*
X14781575Y22662007D01*
X14814488Y22605000D01*
X13897500Y22605000D01*
X13897500Y21957156D01*
X13903901Y21897628D01*
X13903903Y21897621D01*
X13954145Y21762914D01*
X13954149Y21762907D01*
X14040309Y21647813D01*
X14040312Y21647810D01*
X14155406Y21561650D01*
X14155412Y21561647D01*
X14176768Y21553681D01*
X14232701Y21511809D01*
X14257118Y21446344D01*
X14242266Y21378072D01*
X14221119Y21349821D01*
X14216900Y21345603D01*
X14161533Y21262740D01*
X14161532Y21262736D01*
X14147000Y21189679D01*
X14147000Y19440322D01*
X14161532Y19367265D01*
X14161533Y19367261D01*
X14161534Y19367260D01*
X14216899Y19284399D01*
X14299760Y19229034D01*
X14299764Y19229033D01*
X14372821Y19214501D01*
X14372824Y19214500D01*
X14372826Y19214500D01*
X16122176Y19214500D01*
X16122177Y19214501D01*
X16195240Y19229034D01*
X16278101Y19284399D01*
X16333466Y19367260D01*
X16348000Y19440326D01*
X16348000Y21189674D01*
X16348000Y21189677D01*
X16347999Y21189679D01*
X16333467Y21262736D01*
X16333466Y21262740D01*
X16299838Y21313068D01*
X16278101Y21345601D01*
X16278099Y21345603D01*
X16278098Y21345604D01*
X16273884Y21349818D01*
X16240399Y21411141D01*
X16245383Y21480833D01*
X16287255Y21536766D01*
X16318232Y21553681D01*
X16339586Y21561646D01*
X16339593Y21561650D01*
X16454687Y21647810D01*
X16454690Y21647813D01*
X16540850Y21762907D01*
X16540854Y21762914D01*
X16590114Y21894987D01*
X16631985Y21950921D01*
X16697449Y21975338D01*
X16765722Y21960487D01*
X16793977Y21939335D01*
X16908035Y21825277D01*
X16908040Y21825273D01*
X17079942Y21700380D01*
X17269284Y21603904D01*
X17368211Y21571761D01*
X17425887Y21532324D01*
X17453086Y21467966D01*
X17441172Y21399119D01*
X17393928Y21347643D01*
X17368222Y21335903D01*
X17367022Y21335513D01*
X17365050Y21334872D01*
X17210711Y21256232D01*
X17130756Y21198141D01*
X17070572Y21154414D01*
X17070570Y21154412D01*
X17070569Y21154412D01*
X16948088Y21031931D01*
X16948088Y21031930D01*
X16948086Y21031928D01*
X16904359Y20971744D01*
X16846268Y20891789D01*
X16767628Y20737448D01*
X16714097Y20572698D01*
X16687000Y20401611D01*
X16687000Y20228389D01*
X16714098Y20057299D01*
X16767627Y19892555D01*
X16846268Y19738212D01*
X16948086Y19598072D01*
X17070572Y19475586D01*
X17210712Y19373768D01*
X17365055Y19295127D01*
X17529799Y19241598D01*
X17700889Y19214500D01*
X17700890Y19214500D01*
X17874110Y19214500D01*
X17874111Y19214500D01*
X18045201Y19241598D01*
X18209945Y19295127D01*
X18364288Y19373768D01*
X18504428Y19475586D01*
X18626914Y19598072D01*
X18728732Y19738212D01*
X18807373Y19892555D01*
X18860902Y20057299D01*
X18888000Y20228389D01*
X18888000Y20401611D01*
X18860902Y20572701D01*
X18807373Y20737445D01*
X18728732Y20891788D01*
X18626914Y21031928D01*
X18504428Y21154414D01*
X18364288Y21256232D01*
X18351515Y21262740D01*
X18209946Y21334873D01*
X18206784Y21335900D01*
X18205736Y21336617D01*
X18205452Y21336734D01*
X18205476Y21336794D01*
X18149109Y21375339D01*
X18121913Y21439698D01*
X18133829Y21508544D01*
X18181074Y21560019D01*
X18206788Y21571761D01*
X18305715Y21603904D01*
X18495057Y21700380D01*
X18666959Y21825273D01*
X18666964Y21825277D01*
X18817223Y21975536D01*
X18817227Y21975541D01*
X18942120Y22147442D01*
X18947014Y22157046D01*
X18994988Y22207843D01*
X19062808Y22224639D01*
X19128944Y22202103D01*
X19167986Y22157046D01*
X19172879Y22147442D01*
X19297772Y21975541D01*
X19297776Y21975536D01*
X19448035Y21825277D01*
X19448040Y21825273D01*
X19619942Y21700380D01*
X19809284Y21603904D01*
X19908211Y21571761D01*
X19965887Y21532324D01*
X19993086Y21467966D01*
X19981172Y21399119D01*
X19933928Y21347643D01*
X19908222Y21335903D01*
X19907022Y21335513D01*
X19905050Y21334872D01*
X19750711Y21256232D01*
X19670756Y21198141D01*
X19610572Y21154414D01*
X19610570Y21154412D01*
X19610569Y21154412D01*
X19488088Y21031931D01*
X19488088Y21031930D01*
X19488086Y21031928D01*
X19444359Y20971744D01*
X19386268Y20891789D01*
X19307628Y20737448D01*
X19254097Y20572698D01*
X19227000Y20401611D01*
X19227000Y20228389D01*
X19254098Y20057299D01*
X19307627Y19892555D01*
X19386268Y19738212D01*
X19488086Y19598072D01*
X19610572Y19475586D01*
X19750712Y19373768D01*
X19905055Y19295127D01*
X20069799Y19241598D01*
X20240889Y19214500D01*
X20240890Y19214500D01*
X20414110Y19214500D01*
X20414111Y19214500D01*
X20585201Y19241598D01*
X20749945Y19295127D01*
X20904288Y19373768D01*
X21044428Y19475586D01*
X21166914Y19598072D01*
X21268732Y19738212D01*
X21347373Y19892555D01*
X21400902Y20057299D01*
X21428000Y20228389D01*
X21428000Y20401611D01*
X21400902Y20572701D01*
X21347373Y20737445D01*
X21268732Y20891788D01*
X21166914Y21031928D01*
X21044428Y21154414D01*
X20904288Y21256232D01*
X20891515Y21262740D01*
X20749946Y21334873D01*
X20746784Y21335900D01*
X20745736Y21336617D01*
X20745452Y21336734D01*
X20745476Y21336794D01*
X20689109Y21375339D01*
X20661913Y21439698D01*
X20673829Y21508544D01*
X20721074Y21560019D01*
X20746788Y21571761D01*
X20845715Y21603904D01*
X21035057Y21700380D01*
X21206959Y21825273D01*
X21206964Y21825277D01*
X21357223Y21975536D01*
X21357227Y21975541D01*
X21482120Y22147442D01*
X21487014Y22157046D01*
X21534988Y22207843D01*
X21602808Y22224639D01*
X21668944Y22202103D01*
X21707986Y22157046D01*
X21712879Y22147442D01*
X21837772Y21975541D01*
X21837776Y21975536D01*
X21988035Y21825277D01*
X21988040Y21825273D01*
X22159942Y21700380D01*
X22349284Y21603904D01*
X22448211Y21571761D01*
X22505887Y21532324D01*
X22533086Y21467966D01*
X22521172Y21399119D01*
X22473928Y21347643D01*
X22448222Y21335903D01*
X22447022Y21335513D01*
X22445050Y21334872D01*
X22290711Y21256232D01*
X22210756Y21198141D01*
X22150572Y21154414D01*
X22150570Y21154412D01*
X22150569Y21154412D01*
X22028088Y21031931D01*
X22028088Y21031930D01*
X22028086Y21031928D01*
X21984359Y20971744D01*
X21926268Y20891789D01*
X21847628Y20737448D01*
X21794097Y20572698D01*
X21767000Y20401611D01*
X21767000Y20228389D01*
X21794098Y20057299D01*
X21847627Y19892555D01*
X21926268Y19738212D01*
X22028086Y19598072D01*
X22150572Y19475586D01*
X22290712Y19373768D01*
X22445055Y19295127D01*
X22609799Y19241598D01*
X22780889Y19214500D01*
X22780890Y19214500D01*
X22954110Y19214500D01*
X22954111Y19214500D01*
X23125201Y19241598D01*
X23289945Y19295127D01*
X23444288Y19373768D01*
X23584428Y19475586D01*
X23706914Y19598072D01*
X23808732Y19738212D01*
X23887373Y19892555D01*
X23940902Y20057299D01*
X23968000Y20228389D01*
X23968000Y20401611D01*
X23940902Y20572701D01*
X23887373Y20737445D01*
X23808732Y20891788D01*
X23706914Y21031928D01*
X23584428Y21154414D01*
X23444288Y21256232D01*
X23431515Y21262740D01*
X23289946Y21334873D01*
X23286784Y21335900D01*
X23285736Y21336617D01*
X23285452Y21336734D01*
X23285476Y21336794D01*
X23229109Y21375339D01*
X23201913Y21439698D01*
X23213829Y21508544D01*
X23261074Y21560019D01*
X23286788Y21571761D01*
X23385715Y21603904D01*
X23575057Y21700380D01*
X23746959Y21825273D01*
X23746964Y21825277D01*
X23897223Y21975536D01*
X23897227Y21975541D01*
X24022120Y22147442D01*
X24027014Y22157046D01*
X24074988Y22207843D01*
X24142808Y22224639D01*
X24208944Y22202103D01*
X24247986Y22157046D01*
X24252879Y22147442D01*
X24377772Y21975541D01*
X24377776Y21975536D01*
X24528035Y21825277D01*
X24528040Y21825273D01*
X24699942Y21700380D01*
X24889284Y21603904D01*
X24988211Y21571761D01*
X25045887Y21532324D01*
X25073086Y21467966D01*
X25061172Y21399119D01*
X25013928Y21347643D01*
X24988222Y21335903D01*
X24987022Y21335513D01*
X24985050Y21334872D01*
X24830711Y21256232D01*
X24750756Y21198141D01*
X24690572Y21154414D01*
X24690570Y21154412D01*
X24690569Y21154412D01*
X24568088Y21031931D01*
X24568088Y21031930D01*
X24568086Y21031928D01*
X24524359Y20971744D01*
X24466268Y20891789D01*
X24387628Y20737448D01*
X24334097Y20572698D01*
X24307000Y20401611D01*
X24307000Y20228389D01*
X24334098Y20057299D01*
X24387627Y19892555D01*
X24466268Y19738212D01*
X24568086Y19598072D01*
X24690572Y19475586D01*
X24830712Y19373768D01*
X24985055Y19295127D01*
X25149799Y19241598D01*
X25320889Y19214500D01*
X25320890Y19214500D01*
X25494110Y19214500D01*
X25494111Y19214500D01*
X25665201Y19241598D01*
X25829945Y19295127D01*
X25984288Y19373768D01*
X26124428Y19475586D01*
X26246914Y19598072D01*
X26348732Y19738212D01*
X26427373Y19892555D01*
X26480902Y20057299D01*
X26508000Y20228389D01*
X26508000Y20401611D01*
X26480902Y20572701D01*
X26427373Y20737445D01*
X26348732Y20891788D01*
X26246914Y21031928D01*
X26124428Y21154414D01*
X25984288Y21256232D01*
X25971515Y21262740D01*
X25829946Y21334873D01*
X25826784Y21335900D01*
X25825736Y21336617D01*
X25825452Y21336734D01*
X25825476Y21336794D01*
X25769109Y21375339D01*
X25741913Y21439698D01*
X25753829Y21508544D01*
X25801074Y21560019D01*
X25826788Y21571761D01*
X25925715Y21603904D01*
X26115057Y21700380D01*
X26286959Y21825273D01*
X26286964Y21825277D01*
X26437223Y21975536D01*
X26437227Y21975541D01*
X26562120Y22147442D01*
X26567014Y22157046D01*
X26614988Y22207843D01*
X26682808Y22224639D01*
X26748944Y22202103D01*
X26787986Y22157046D01*
X26792879Y22147442D01*
X26917772Y21975541D01*
X26917776Y21975536D01*
X27068035Y21825277D01*
X27068040Y21825273D01*
X27239942Y21700380D01*
X27429284Y21603904D01*
X27528211Y21571761D01*
X27585887Y21532324D01*
X27613086Y21467966D01*
X27601172Y21399119D01*
X27553928Y21347643D01*
X27528222Y21335903D01*
X27527022Y21335513D01*
X27525050Y21334872D01*
X27370711Y21256232D01*
X27290756Y21198141D01*
X27230572Y21154414D01*
X27230570Y21154412D01*
X27230569Y21154412D01*
X27108088Y21031931D01*
X27108088Y21031930D01*
X27108086Y21031928D01*
X27064359Y20971744D01*
X27006268Y20891789D01*
X26927628Y20737448D01*
X26874097Y20572698D01*
X26847000Y20401611D01*
X26847000Y20228389D01*
X26874098Y20057299D01*
X26927627Y19892555D01*
X27006268Y19738212D01*
X27108086Y19598072D01*
X27230572Y19475586D01*
X27370712Y19373768D01*
X27525055Y19295127D01*
X27689799Y19241598D01*
X27860889Y19214500D01*
X27860890Y19214500D01*
X28034110Y19214500D01*
X28034111Y19214500D01*
X28205201Y19241598D01*
X28369945Y19295127D01*
X28524288Y19373768D01*
X28664428Y19475586D01*
X28786914Y19598072D01*
X28888732Y19738212D01*
X28967373Y19892555D01*
X29020902Y20057299D01*
X29048000Y20228389D01*
X29048000Y20401611D01*
X29020902Y20572701D01*
X28967373Y20737445D01*
X28888732Y20891788D01*
X28786914Y21031928D01*
X28664428Y21154414D01*
X28524288Y21256232D01*
X28511515Y21262740D01*
X28369946Y21334873D01*
X28366784Y21335900D01*
X28365736Y21336617D01*
X28365452Y21336734D01*
X28365476Y21336794D01*
X28309109Y21375339D01*
X28281913Y21439698D01*
X28293829Y21508544D01*
X28341074Y21560019D01*
X28366788Y21571761D01*
X28465715Y21603904D01*
X28655057Y21700380D01*
X28826959Y21825273D01*
X28826964Y21825277D01*
X28977223Y21975536D01*
X28977227Y21975541D01*
X29102120Y22147442D01*
X29107014Y22157046D01*
X29154988Y22207843D01*
X29222808Y22224639D01*
X29288944Y22202103D01*
X29327986Y22157046D01*
X29332879Y22147442D01*
X29457772Y21975541D01*
X29457776Y21975536D01*
X29608035Y21825277D01*
X29608040Y21825273D01*
X29779942Y21700380D01*
X29969284Y21603904D01*
X30068211Y21571761D01*
X30125887Y21532324D01*
X30153086Y21467966D01*
X30141172Y21399119D01*
X30093928Y21347643D01*
X30068222Y21335903D01*
X30067022Y21335513D01*
X30065050Y21334872D01*
X29910711Y21256232D01*
X29830756Y21198141D01*
X29770572Y21154414D01*
X29770570Y21154412D01*
X29770569Y21154412D01*
X29648088Y21031931D01*
X29648088Y21031930D01*
X29648086Y21031928D01*
X29604359Y20971744D01*
X29546268Y20891789D01*
X29467628Y20737448D01*
X29414097Y20572698D01*
X29387000Y20401611D01*
X29387000Y20228389D01*
X29414098Y20057299D01*
X29467627Y19892555D01*
X29546268Y19738212D01*
X29648086Y19598072D01*
X29770572Y19475586D01*
X29910712Y19373768D01*
X30065055Y19295127D01*
X30229799Y19241598D01*
X30400889Y19214500D01*
X30400890Y19214500D01*
X30574110Y19214500D01*
X30574111Y19214500D01*
X30745201Y19241598D01*
X30909945Y19295127D01*
X31064288Y19373768D01*
X31204428Y19475586D01*
X31326914Y19598072D01*
X31428732Y19738212D01*
X31507373Y19892555D01*
X31560902Y20057299D01*
X31588000Y20228389D01*
X31588000Y20401611D01*
X31560902Y20572701D01*
X31507373Y20737445D01*
X31428732Y20891788D01*
X31326914Y21031928D01*
X31204428Y21154414D01*
X31064288Y21256232D01*
X31051515Y21262740D01*
X30909946Y21334873D01*
X30906784Y21335900D01*
X30905736Y21336617D01*
X30905452Y21336734D01*
X30905476Y21336794D01*
X30849109Y21375339D01*
X30821913Y21439698D01*
X30833829Y21508544D01*
X30881074Y21560019D01*
X30906788Y21571761D01*
X31005715Y21603904D01*
X31195057Y21700380D01*
X31366959Y21825273D01*
X31366964Y21825277D01*
X31517223Y21975536D01*
X31517227Y21975541D01*
X31642120Y22147442D01*
X31647014Y22157046D01*
X31694988Y22207843D01*
X31762808Y22224639D01*
X31828944Y22202103D01*
X31867986Y22157046D01*
X31872879Y22147442D01*
X31997772Y21975541D01*
X31997776Y21975536D01*
X32148035Y21825277D01*
X32148040Y21825273D01*
X32319942Y21700380D01*
X32509284Y21603904D01*
X32608211Y21571761D01*
X32665887Y21532324D01*
X32693086Y21467966D01*
X32681172Y21399119D01*
X32633928Y21347643D01*
X32608222Y21335903D01*
X32607022Y21335513D01*
X32605050Y21334872D01*
X32450711Y21256232D01*
X32370756Y21198141D01*
X32310572Y21154414D01*
X32310570Y21154412D01*
X32310569Y21154412D01*
X32188088Y21031931D01*
X32188088Y21031930D01*
X32188086Y21031928D01*
X32144359Y20971744D01*
X32086268Y20891789D01*
X32007628Y20737448D01*
X31954097Y20572698D01*
X31927000Y20401611D01*
X31927000Y20228389D01*
X31954098Y20057299D01*
X32007627Y19892555D01*
X32086268Y19738212D01*
X32188086Y19598072D01*
X32310572Y19475586D01*
X32450712Y19373768D01*
X32605055Y19295127D01*
X32769799Y19241598D01*
X32940889Y19214500D01*
X32940890Y19214500D01*
X33114110Y19214500D01*
X33114111Y19214500D01*
X33285201Y19241598D01*
X33449945Y19295127D01*
X33604288Y19373768D01*
X33744428Y19475586D01*
X33866914Y19598072D01*
X33968732Y19738212D01*
X34047373Y19892555D01*
X34100902Y20057299D01*
X34128000Y20228389D01*
X34128000Y20401611D01*
X34452000Y20401611D01*
X34452000Y20228389D01*
X34479098Y20057299D01*
X34532627Y19892555D01*
X34611268Y19738212D01*
X34713086Y19598072D01*
X34835572Y19475586D01*
X34975712Y19373768D01*
X35130055Y19295127D01*
X35294799Y19241598D01*
X35465889Y19214500D01*
X35465890Y19214500D01*
X35639110Y19214500D01*
X35639111Y19214500D01*
X35810201Y19241598D01*
X35974945Y19295127D01*
X36129288Y19373768D01*
X36269428Y19475586D01*
X36391914Y19598072D01*
X36493732Y19738212D01*
X36572373Y19892555D01*
X36625902Y20057299D01*
X36653000Y20228389D01*
X36653000Y20401611D01*
X36625902Y20572701D01*
X36572373Y20737445D01*
X36493732Y20891788D01*
X36391914Y21031928D01*
X36269428Y21154414D01*
X36129288Y21256232D01*
X35974945Y21334873D01*
X35810201Y21388402D01*
X35810199Y21388403D01*
X35810198Y21388403D01*
X35678771Y21409219D01*
X35639111Y21415500D01*
X35465889Y21415500D01*
X35426228Y21409219D01*
X35294802Y21388403D01*
X35294799Y21388402D01*
X35135423Y21336617D01*
X35130052Y21334872D01*
X34975711Y21256232D01*
X34895756Y21198141D01*
X34835572Y21154414D01*
X34835570Y21154412D01*
X34835569Y21154412D01*
X34713088Y21031931D01*
X34713088Y21031930D01*
X34713086Y21031928D01*
X34669359Y20971744D01*
X34611268Y20891789D01*
X34532628Y20737448D01*
X34479097Y20572698D01*
X34452000Y20401611D01*
X34128000Y20401611D01*
X34100902Y20572701D01*
X34047373Y20737445D01*
X33968732Y20891788D01*
X33866914Y21031928D01*
X33744428Y21154414D01*
X33604288Y21256232D01*
X33591515Y21262740D01*
X33449946Y21334873D01*
X33446784Y21335900D01*
X33445736Y21336617D01*
X33445452Y21336734D01*
X33445476Y21336794D01*
X33389109Y21375339D01*
X33361913Y21439698D01*
X33373829Y21508544D01*
X33421074Y21560019D01*
X33446788Y21571761D01*
X33545715Y21603904D01*
X33735057Y21700380D01*
X33906959Y21825273D01*
X33906964Y21825277D01*
X34057223Y21975536D01*
X34057227Y21975541D01*
X34182120Y22147443D01*
X34278595Y22336783D01*
X34344257Y22538871D01*
X34344257Y22538874D01*
X34354731Y22605000D01*
X33460512Y22605000D01*
X33493425Y22662007D01*
X33527500Y22789174D01*
X33527500Y22920826D01*
X33493425Y23047993D01*
X33460512Y23105000D01*
X34354731Y23105000D01*
X34344257Y23171127D01*
X34344257Y23171130D01*
X34278595Y23373218D01*
X34182120Y23562558D01*
X34057227Y23734460D01*
X34057223Y23734465D01*
X33906964Y23884724D01*
X33906959Y23884728D01*
X33735057Y24009621D01*
X33545715Y24106097D01*
X33343624Y24171759D01*
X33277500Y24182232D01*
X33277500Y23288012D01*
X33220493Y23320925D01*
X33093326Y23355000D01*
X32961674Y23355000D01*
X32834507Y23320925D01*
X32777500Y23288012D01*
X32777500Y24182232D01*
X32777499Y24182232D01*
X32711375Y24171759D01*
X32509284Y24106097D01*
X32319942Y24009621D01*
X32148040Y23884728D01*
X32148035Y23884724D01*
X31997776Y23734465D01*
X31997772Y23734460D01*
X31872877Y23562556D01*
X31867984Y23552952D01*
X31820009Y23502156D01*
X31752188Y23485362D01*
X31686053Y23507900D01*
X31647016Y23552952D01*
X31642122Y23562556D01*
X31517227Y23734460D01*
X31517223Y23734465D01*
X31366964Y23884724D01*
X31366959Y23884728D01*
X31195057Y24009621D01*
X31005715Y24106097D01*
X30803624Y24171759D01*
X30737500Y24182232D01*
X30737500Y23288012D01*
X30680493Y23320925D01*
X30553326Y23355000D01*
X30421674Y23355000D01*
X30294507Y23320925D01*
X30237500Y23288012D01*
X30237500Y24182232D01*
X30237499Y24182232D01*
X30171375Y24171759D01*
X29969284Y24106097D01*
X29779942Y24009621D01*
X29608040Y23884728D01*
X29608035Y23884724D01*
X29457776Y23734465D01*
X29457772Y23734460D01*
X29332877Y23562556D01*
X29327984Y23552952D01*
X29280009Y23502156D01*
X29212188Y23485362D01*
X29146053Y23507900D01*
X29107016Y23552952D01*
X29102122Y23562556D01*
X28977227Y23734460D01*
X28977223Y23734465D01*
X28826964Y23884724D01*
X28826959Y23884728D01*
X28655057Y24009621D01*
X28465715Y24106097D01*
X28263624Y24171759D01*
X28197500Y24182232D01*
X28197500Y23288012D01*
X28140493Y23320925D01*
X28013326Y23355000D01*
X27881674Y23355000D01*
X27754507Y23320925D01*
X27697500Y23288012D01*
X27697500Y24182232D01*
X27697499Y24182232D01*
X27631375Y24171759D01*
X27429284Y24106097D01*
X27239942Y24009621D01*
X27068040Y23884728D01*
X27068035Y23884724D01*
X26917776Y23734465D01*
X26917772Y23734460D01*
X26792877Y23562556D01*
X26787984Y23552952D01*
X26740009Y23502156D01*
X26672188Y23485362D01*
X26606053Y23507900D01*
X26567016Y23552952D01*
X26562122Y23562556D01*
X26437227Y23734460D01*
X26437223Y23734465D01*
X26286964Y23884724D01*
X26286959Y23884728D01*
X26115057Y24009621D01*
X25925715Y24106097D01*
X25723624Y24171759D01*
X25657500Y24182232D01*
X25657500Y23288012D01*
X25600493Y23320925D01*
X25473326Y23355000D01*
X25341674Y23355000D01*
X25214507Y23320925D01*
X25157500Y23288012D01*
X25157500Y24182232D01*
X25157499Y24182232D01*
X25091375Y24171759D01*
X24889284Y24106097D01*
X24699942Y24009621D01*
X24528040Y23884728D01*
X24528035Y23884724D01*
X24377776Y23734465D01*
X24377772Y23734460D01*
X24252877Y23562556D01*
X24247984Y23552952D01*
X24200009Y23502156D01*
X24132188Y23485362D01*
X24066053Y23507900D01*
X24027016Y23552952D01*
X24022122Y23562556D01*
X23897227Y23734460D01*
X23897223Y23734465D01*
X23746964Y23884724D01*
X23746959Y23884728D01*
X23575057Y24009621D01*
X23385715Y24106097D01*
X23183624Y24171759D01*
X23117500Y24182232D01*
X23117500Y23288012D01*
X23060493Y23320925D01*
X22933326Y23355000D01*
X22801674Y23355000D01*
X22674507Y23320925D01*
X22617500Y23288012D01*
X22617500Y24182232D01*
X22617499Y24182232D01*
X22551375Y24171759D01*
X22349284Y24106097D01*
X22159942Y24009621D01*
X21988040Y23884728D01*
X21988035Y23884724D01*
X21837776Y23734465D01*
X21837772Y23734460D01*
X21712877Y23562556D01*
X21707984Y23552952D01*
X21660009Y23502156D01*
X21592188Y23485362D01*
X21526053Y23507900D01*
X21487016Y23552952D01*
X21482122Y23562556D01*
X21357227Y23734460D01*
X21357223Y23734465D01*
X21206964Y23884724D01*
X21206959Y23884728D01*
X21035057Y24009621D01*
X20845715Y24106097D01*
X20643624Y24171759D01*
X20577500Y24182232D01*
X20577500Y23288012D01*
X20520493Y23320925D01*
X20393326Y23355000D01*
X20261674Y23355000D01*
X20134507Y23320925D01*
X20077500Y23288012D01*
X20077500Y24182232D01*
X20077499Y24182232D01*
X20011375Y24171759D01*
X19809284Y24106097D01*
X19619942Y24009621D01*
X19448040Y23884728D01*
X19448035Y23884724D01*
X19297776Y23734465D01*
X19297772Y23734460D01*
X19172877Y23562556D01*
X19167984Y23552952D01*
X19120009Y23502156D01*
X19052188Y23485362D01*
X18986053Y23507900D01*
X18947016Y23552952D01*
X18942122Y23562556D01*
X18817227Y23734460D01*
X18817223Y23734465D01*
X18666964Y23884724D01*
X18666959Y23884728D01*
X18495057Y24009621D01*
X18305715Y24106097D01*
X18103624Y24171759D01*
X18037500Y24182232D01*
X18037500Y23288012D01*
X17980493Y23320925D01*
X17853326Y23355000D01*
X17721674Y23355000D01*
X17594507Y23320925D01*
X17537500Y23288012D01*
X17537500Y24182232D01*
X17537499Y24182232D01*
X17471375Y24171759D01*
X17269284Y24106097D01*
X17079942Y24009621D01*
X16908041Y23884729D01*
X16793977Y23770665D01*
X16732654Y23737181D01*
X16662962Y23742165D01*
X16607029Y23784037D01*
X16590114Y23815014D01*
X16540854Y23947087D01*
X16540850Y23947094D01*
X16454690Y24062188D01*
X16454687Y24062191D01*
X16339593Y24148351D01*
X16339586Y24148355D01*
X16204879Y24198597D01*
X16204872Y24198599D01*
X16145344Y24205000D01*
X15497500Y24205000D01*
X15497500Y23288012D01*
X15440493Y23320925D01*
X15313326Y23355000D01*
X15181674Y23355000D01*
X15054507Y23320925D01*
X14997500Y23288012D01*
X14997500Y24205000D01*
X14349655Y24205000D01*
X14290127Y24198599D01*
X14290120Y24198597D01*
X14155413Y24148355D01*
X14155406Y24148351D01*
X14040312Y24062191D01*
X14040309Y24062188D01*
X13954149Y23947094D01*
X13954145Y23947087D01*
X13903903Y23812380D01*
X13903901Y23812373D01*
X13897500Y23752845D01*
X11770903Y23752845D01*
X11694436Y23885289D01*
X11546765Y24077738D01*
X11546760Y24077744D01*
X11375243Y24249261D01*
X11375236Y24249267D01*
X11182793Y24396933D01*
X11182792Y24396934D01*
X11182789Y24396936D01*
X11145240Y24418615D01*
X11097027Y24469180D01*
X11083803Y24537787D01*
X11109771Y24602651D01*
X11166685Y24643180D01*
X11207242Y24650000D01*
X37037758Y24650000D01*
X37104797Y24630315D01*
X37150552Y24577511D01*
X37160496Y24508353D01*
X37131471Y24444797D01*
X37099761Y24418616D01*
X37062211Y24396936D01*
X37062206Y24396933D01*
X36869763Y24249267D01*
X36869756Y24249261D01*
X36698239Y24077744D01*
X36698233Y24077737D01*
X36550567Y23885294D01*
X36429277Y23675215D01*
X36429273Y23675206D01*
X36336447Y23451105D01*
X36273661Y23216786D01*
X36242000Y22976289D01*
X36242000Y22733712D01*
X36273661Y22493215D01*
X36336447Y22258896D01*
X36429273Y22034795D01*
X36429277Y22034786D01*
X36451474Y21996339D01*
X36550564Y21824711D01*
X36550566Y21824708D01*
X36550567Y21824707D01*
X36698233Y21632264D01*
X36698239Y21632257D01*
X36869756Y21460740D01*
X36869763Y21460734D01*
X36934394Y21411141D01*
X37062211Y21313064D01*
X37272288Y21191776D01*
X37496400Y21098946D01*
X37730711Y21036162D01*
X37911086Y21012416D01*
X37971211Y21004500D01*
X37971212Y21004500D01*
X38213789Y21004500D01*
X38261888Y21010833D01*
X38454289Y21036162D01*
X38688600Y21098946D01*
X38912712Y21191776D01*
X39122789Y21313064D01*
X39315238Y21460735D01*
X39486765Y21632262D01*
X39634436Y21824711D01*
X39755724Y22034788D01*
X39773677Y22078133D01*
X39817517Y22132533D01*
X39883811Y22154599D01*
X39951510Y22137320D01*
X39999121Y22086184D01*
X40012237Y22031257D01*
X40031999Y17802214D01*
X40032000Y17801635D01*
X40032000Y14073502D01*
X40012315Y14006463D01*
X39959511Y13960708D01*
X39908437Y13949503D01*
X29631352Y13913300D01*
X27123483Y11551701D01*
X27061182Y11520072D01*
X27034201Y11518049D01*
X26100002Y11550260D01*
X23997409Y11229353D01*
X23928167Y11238698D01*
X23874969Y11283994D01*
X23854705Y11350861D01*
X23871312Y11413933D01*
X23930400Y11516275D01*
X23964508Y11643569D01*
X23964508Y11775353D01*
X23930400Y11902647D01*
X23864508Y12016775D01*
X23771322Y12109961D01*
X23690013Y12156905D01*
X23657195Y12175853D01*
X23593547Y12192907D01*
X23529900Y12209961D01*
X23398116Y12209961D01*
X23270820Y12175853D01*
X23156694Y12109961D01*
X23156691Y12109959D01*
X23057761Y12011028D01*
X23055575Y12013214D01*
X23010961Y11980649D01*
X22941215Y11976506D01*
X22880300Y12010728D01*
X22878320Y12013013D01*
X22781374Y12109959D01*
X22781372Y12109961D01*
X22700063Y12156905D01*
X22667245Y12175853D01*
X22603597Y12192907D01*
X22539950Y12209961D01*
X22408166Y12209961D01*
X22280870Y12175853D01*
X22166744Y12109961D01*
X22166741Y12109959D01*
X22073560Y12016778D01*
X22073558Y12016775D01*
X22007666Y11902649D01*
X21973558Y11775353D01*
X21973558Y11643570D01*
X22007666Y11516274D01*
X22038655Y11462601D01*
X22073558Y11402147D01*
X22073559Y11402146D01*
X22077622Y11395109D01*
X22076145Y11394257D01*
X22097819Y11338196D01*
X22083781Y11269751D01*
X22034968Y11219760D01*
X21974932Y11203879D01*
X13953554Y11159678D01*
X13886407Y11178993D01*
X13863069Y11198168D01*
X12161472Y12985221D01*
X12087792Y13062601D01*
X16724500Y13062601D01*
X16724500Y12937399D01*
X16756905Y12816464D01*
X16819505Y12708036D01*
X16908036Y12619505D01*
X17016464Y12556905D01*
X17137399Y12524500D01*
X17137401Y12524500D01*
X17262599Y12524500D01*
X17262601Y12524500D01*
X17383536Y12556905D01*
X17491964Y12619505D01*
X17580495Y12708036D01*
X17643095Y12816464D01*
X17675500Y12937399D01*
X17675500Y13062601D01*
X17643095Y13183536D01*
X17580495Y13291964D01*
X17491964Y13380495D01*
X17383536Y13443095D01*
X17383537Y13443095D01*
X17343224Y13453897D01*
X17262601Y13475500D01*
X17137399Y13475500D01*
X17056775Y13453897D01*
X17016463Y13443095D01*
X16908037Y13380496D01*
X16908034Y13380494D01*
X16819506Y13291966D01*
X16819504Y13291963D01*
X16756905Y13183537D01*
X16756905Y13183536D01*
X16724500Y13062601D01*
X12087792Y13062601D01*
X11100000Y14100000D01*
X5037544Y14100000D01*
X4970505Y14119685D01*
X4968761Y14120826D01*
X4754897Y14263402D01*
X4710036Y14316967D01*
X4699681Y14365977D01*
X4698483Y14614034D01*
X4694807Y15374679D01*
X8699500Y15374679D01*
X8699500Y14825322D01*
X8714032Y14752265D01*
X8714033Y14752261D01*
X8724230Y14737000D01*
X8769399Y14669399D01*
X8847821Y14617000D01*
X8852260Y14614034D01*
X8852264Y14614033D01*
X8925321Y14599501D01*
X8925324Y14599500D01*
X8925326Y14599500D01*
X9474676Y14599500D01*
X9474677Y14599501D01*
X9547740Y14614034D01*
X9630601Y14669399D01*
X9685966Y14752260D01*
X9700500Y14825326D01*
X9700500Y15374674D01*
X9700500Y15374677D01*
X9689182Y15431574D01*
X9689181Y15431576D01*
X9687570Y15439674D01*
X9685966Y15447740D01*
X9684670Y15449679D01*
X12999500Y15449679D01*
X12999500Y14900322D01*
X13014032Y14827265D01*
X13014033Y14827261D01*
X13032405Y14799765D01*
X13069399Y14744399D01*
X13152260Y14689034D01*
X13152264Y14689033D01*
X13225321Y14674501D01*
X13225324Y14674500D01*
X13225326Y14674500D01*
X13774676Y14674500D01*
X13774677Y14674501D01*
X13847740Y14689034D01*
X13930601Y14744399D01*
X13985966Y14827260D01*
X14000500Y14900326D01*
X14000500Y15449674D01*
X14000500Y15449677D01*
X14000499Y15449679D01*
X13985967Y15522736D01*
X13985966Y15522740D01*
X13930601Y15605601D01*
X13847739Y15660967D01*
X13847735Y15660968D01*
X13778804Y15674679D01*
X16899500Y15674679D01*
X16899500Y15125322D01*
X16914032Y15052265D01*
X16914033Y15052261D01*
X16914034Y15052260D01*
X16969399Y14969399D01*
X17052260Y14914034D01*
X17052264Y14914033D01*
X17125321Y14899501D01*
X17125324Y14899500D01*
X17125326Y14899500D01*
X17674676Y14899500D01*
X17674677Y14899501D01*
X17747740Y14914034D01*
X17830601Y14969399D01*
X17885966Y15052260D01*
X17900500Y15125326D01*
X17900500Y15510929D01*
X21749499Y15510929D01*
X21774497Y15385262D01*
X21774499Y15385256D01*
X21823533Y15266876D01*
X21823538Y15266867D01*
X21894723Y15160332D01*
X21894726Y15160328D01*
X21985327Y15069727D01*
X21985331Y15069724D01*
X22091866Y14998539D01*
X22091872Y14998536D01*
X22091873Y14998535D01*
X22210256Y14949499D01*
X22210260Y14949499D01*
X22210261Y14949498D01*
X22335928Y14924500D01*
X22335931Y14924500D01*
X22464071Y14924500D01*
X22548615Y14941318D01*
X22589744Y14949499D01*
X22708127Y14998535D01*
X22814669Y15069724D01*
X22905276Y15160331D01*
X22976465Y15266873D01*
X23025501Y15385256D01*
X23038316Y15449679D01*
X26899500Y15449679D01*
X26899500Y14900322D01*
X26914032Y14827265D01*
X26914033Y14827261D01*
X26932405Y14799765D01*
X26969399Y14744399D01*
X27052260Y14689034D01*
X27052264Y14689033D01*
X27125321Y14674501D01*
X27125324Y14674500D01*
X27125326Y14674500D01*
X27674676Y14674500D01*
X27674677Y14674501D01*
X27747740Y14689034D01*
X27830601Y14744399D01*
X27885966Y14827260D01*
X27900500Y14900326D01*
X27900500Y15449674D01*
X27900500Y15449677D01*
X27900499Y15449679D01*
X27891669Y15494075D01*
X27888067Y15512179D01*
X30499500Y15512179D01*
X30499500Y14962822D01*
X30514032Y14889765D01*
X30514033Y14889761D01*
X30514034Y14889760D01*
X30569399Y14806899D01*
X30651166Y14752265D01*
X30652260Y14751534D01*
X30652264Y14751533D01*
X30725321Y14737001D01*
X30725324Y14737000D01*
X30725326Y14737000D01*
X31274676Y14737000D01*
X31274677Y14737001D01*
X31347740Y14751534D01*
X31430601Y14806899D01*
X31485966Y14889760D01*
X31500500Y14962826D01*
X31500500Y15439679D01*
X34099500Y15439679D01*
X34099500Y14890322D01*
X34114032Y14817265D01*
X34114033Y14817261D01*
X34114034Y14817260D01*
X34169399Y14734399D01*
X34240489Y14686899D01*
X34252260Y14679034D01*
X34252264Y14679033D01*
X34325321Y14664501D01*
X34325324Y14664500D01*
X34325326Y14664500D01*
X34874676Y14664500D01*
X34874677Y14664501D01*
X34947740Y14679034D01*
X35030601Y14734399D01*
X35085966Y14817260D01*
X35100500Y14890326D01*
X35100500Y15392179D01*
X37699500Y15392179D01*
X37699500Y14842822D01*
X37714032Y14769765D01*
X37714033Y14769761D01*
X37725726Y14752261D01*
X37769399Y14686899D01*
X37852260Y14631534D01*
X37852264Y14631533D01*
X37925321Y14617001D01*
X37925324Y14617000D01*
X37925326Y14617000D01*
X38474676Y14617000D01*
X38474677Y14617001D01*
X38547740Y14631534D01*
X38630601Y14686899D01*
X38685966Y14769760D01*
X38700500Y14842826D01*
X38700500Y15392174D01*
X38700500Y15392177D01*
X38700499Y15392179D01*
X38685967Y15465236D01*
X38685966Y15465240D01*
X38655437Y15510930D01*
X38630601Y15548101D01*
X38553676Y15599500D01*
X38547739Y15603467D01*
X38547735Y15603468D01*
X38474677Y15618000D01*
X38474674Y15618000D01*
X37925326Y15618000D01*
X37925323Y15618000D01*
X37852264Y15603468D01*
X37852260Y15603467D01*
X37769399Y15548101D01*
X37714033Y15465240D01*
X37714032Y15465236D01*
X37699500Y15392179D01*
X35100500Y15392179D01*
X35100500Y15439674D01*
X35100500Y15439677D01*
X35100499Y15439679D01*
X35085967Y15512736D01*
X35085966Y15512740D01*
X35062339Y15548101D01*
X35030601Y15595601D01*
X34975235Y15632595D01*
X34947739Y15650967D01*
X34947735Y15650968D01*
X34874677Y15665500D01*
X34874674Y15665500D01*
X34325326Y15665500D01*
X34325323Y15665500D01*
X34252264Y15650968D01*
X34252260Y15650967D01*
X34169399Y15595601D01*
X34114033Y15512740D01*
X34114032Y15512736D01*
X34099500Y15439679D01*
X31500500Y15439679D01*
X31500500Y15512174D01*
X31500500Y15512177D01*
X31500499Y15512179D01*
X31485967Y15585236D01*
X31485966Y15585240D01*
X31473787Y15603467D01*
X31430601Y15668101D01*
X31347740Y15723466D01*
X31347739Y15723467D01*
X31347735Y15723468D01*
X31274677Y15738000D01*
X31274674Y15738000D01*
X30725326Y15738000D01*
X30725323Y15738000D01*
X30652264Y15723468D01*
X30652260Y15723467D01*
X30569399Y15668101D01*
X30514033Y15585240D01*
X30514032Y15585236D01*
X30499500Y15512179D01*
X27888067Y15512179D01*
X27885967Y15522737D01*
X27885966Y15522740D01*
X27830601Y15605601D01*
X27775235Y15642595D01*
X27747739Y15660967D01*
X27747735Y15660968D01*
X27674677Y15675500D01*
X27674674Y15675500D01*
X27125326Y15675500D01*
X27125323Y15675500D01*
X27052264Y15660968D01*
X27052260Y15660967D01*
X26969399Y15605601D01*
X26914033Y15522740D01*
X26914032Y15522736D01*
X26899500Y15449679D01*
X23038316Y15449679D01*
X23050500Y15510931D01*
X23050500Y15639069D01*
X23050500Y15639072D01*
X23025502Y15764739D01*
X23025501Y15764740D01*
X23025501Y15764744D01*
X22976465Y15883127D01*
X22976464Y15883128D01*
X22976461Y15883134D01*
X22905276Y15989669D01*
X22905273Y15989673D01*
X22814672Y16080274D01*
X22814668Y16080277D01*
X22708133Y16151462D01*
X22708124Y16151467D01*
X22589744Y16200501D01*
X22589738Y16200503D01*
X22464071Y16225500D01*
X22464069Y16225500D01*
X22335931Y16225500D01*
X22335929Y16225500D01*
X22210261Y16200503D01*
X22210255Y16200501D01*
X22091875Y16151467D01*
X22091866Y16151462D01*
X21985331Y16080277D01*
X21985327Y16080274D01*
X21894726Y15989673D01*
X21894723Y15989669D01*
X21823538Y15883134D01*
X21823533Y15883125D01*
X21774499Y15764745D01*
X21774497Y15764739D01*
X21749500Y15639072D01*
X21749500Y15639069D01*
X21749500Y15510931D01*
X21749500Y15510929D01*
X21749499Y15510929D01*
X17900500Y15510929D01*
X17900500Y15674674D01*
X17900500Y15674677D01*
X17900499Y15674679D01*
X17885967Y15747736D01*
X17885966Y15747740D01*
X17882945Y15752261D01*
X17830601Y15830601D01*
X17751989Y15883127D01*
X17747739Y15885967D01*
X17747735Y15885968D01*
X17674677Y15900500D01*
X17674674Y15900500D01*
X17125326Y15900500D01*
X17125323Y15900500D01*
X17052264Y15885968D01*
X17052260Y15885967D01*
X16969399Y15830601D01*
X16914033Y15747740D01*
X16914032Y15747736D01*
X16899500Y15674679D01*
X13778804Y15674679D01*
X13774677Y15675500D01*
X13774674Y15675500D01*
X13225326Y15675500D01*
X13225323Y15675500D01*
X13152264Y15660968D01*
X13152260Y15660967D01*
X13069399Y15605601D01*
X13014033Y15522740D01*
X13014032Y15522736D01*
X12999500Y15449679D01*
X9684670Y15449679D01*
X9630601Y15530601D01*
X9547740Y15585966D01*
X9547739Y15585967D01*
X9547735Y15585968D01*
X9474677Y15600500D01*
X9474674Y15600500D01*
X8925326Y15600500D01*
X8925323Y15600500D01*
X8852264Y15585968D01*
X8852260Y15585967D01*
X8769399Y15530601D01*
X8714033Y15447740D01*
X8714032Y15447736D01*
X8699500Y15374679D01*
X4694807Y15374679D01*
X4694232Y15493778D01*
X4713593Y15560908D01*
X4766175Y15606917D01*
X4835285Y15617195D01*
X4842422Y15615990D01*
X4925321Y15599501D01*
X4925324Y15599500D01*
X4925326Y15599500D01*
X5474676Y15599500D01*
X5474677Y15599501D01*
X5547740Y15614034D01*
X5630601Y15669399D01*
X5685966Y15752260D01*
X5700500Y15825326D01*
X5700500Y16374674D01*
X5700500Y16374677D01*
X5700499Y16374679D01*
X5685967Y16447736D01*
X5685966Y16447740D01*
X5630601Y16530601D01*
X5575235Y16567595D01*
X5547739Y16585967D01*
X5547735Y16585968D01*
X5474677Y16600500D01*
X5474674Y16600500D01*
X4925326Y16600500D01*
X4925323Y16600500D01*
X4840281Y16583584D01*
X4839615Y16586930D01*
X4790344Y16581644D01*
X4727872Y16612934D01*
X4692234Y16673031D01*
X4688391Y16703063D01*
X4650602Y24525401D01*
X4669963Y24592535D01*
X4722545Y24638544D01*
X4774601Y24650000D01*
X9097758Y24650000D01*
X9164797Y24630315D01*
G37*
G04 #@! TD.AperFunction*
G04 #@! TD*
G04 #@! TA.AperFunction,Conductor*
G04 #@! TO.N,GNDD*
G36*
X4357072Y24631093D02*
G01*
X4393036Y24581593D01*
X4396940Y24537381D01*
X4395105Y24524170D01*
X4432893Y16701836D01*
X4434958Y16670627D01*
X4438798Y16640626D01*
X4439326Y16636728D01*
X4439327Y16636725D01*
X4472469Y16542712D01*
X4472470Y16542709D01*
X4508107Y16482612D01*
X4508109Y16482610D01*
X4534736Y16445666D01*
X4534735Y16445666D01*
X4534736Y16445665D01*
X4534738Y16445663D01*
X4613451Y16384487D01*
X4644835Y16368768D01*
X4688396Y16325806D01*
X4699500Y16280251D01*
X4699500Y15914925D01*
X4680593Y15856734D01*
X4649905Y15829134D01*
X4597928Y15799203D01*
X4545345Y15753193D01*
X4513882Y15720271D01*
X4468100Y15631714D01*
X4448737Y15564579D01*
X4438735Y15492543D01*
X4439310Y15373445D01*
X4441815Y14855000D01*
X4444183Y14364753D01*
X4444183Y14364749D01*
X4444184Y14364742D01*
X4449700Y14313160D01*
X4460055Y14264150D01*
X4460058Y14264136D01*
X4460061Y14264125D01*
X4466290Y14240364D01*
X4466290Y14240363D01*
X4482759Y14210278D01*
X4514158Y14152918D01*
X4514161Y14152915D01*
X4559013Y14099359D01*
X4559019Y14099353D01*
X4613171Y14050813D01*
X4613179Y14050808D01*
X4826950Y13908293D01*
X4827035Y13908237D01*
X4828879Y13907019D01*
X4829046Y13906910D01*
X4830621Y13905879D01*
X4830622Y13905878D01*
X4859730Y13892442D01*
X4898520Y13874535D01*
X4965559Y13854850D01*
X5005550Y13849100D01*
X5037540Y13844500D01*
X5037544Y13844500D01*
X10948048Y13844500D01*
X11006239Y13825593D01*
X11019745Y13813768D01*
X11586819Y13218216D01*
X11767022Y13028963D01*
X11902756Y12886413D01*
X11902756Y12886414D01*
X13249762Y11471760D01*
X13678032Y11021982D01*
X13678054Y11021961D01*
X13700841Y11000781D01*
X13700858Y11000766D01*
X13700870Y11000755D01*
X13724208Y10981580D01*
X13727187Y10979170D01*
X13815776Y10933450D01*
X13815778Y10933450D01*
X13815781Y10933448D01*
X13860185Y10920676D01*
X13882923Y10914135D01*
X13954962Y10904182D01*
X13954969Y10904183D01*
X13954970Y10904182D01*
X17729728Y10924983D01*
X21976340Y10948383D01*
X22040271Y10956875D01*
X22065948Y10963668D01*
X22075596Y10966219D01*
X22100912Y10969511D01*
X22224057Y10969511D01*
X22224058Y10969512D01*
X22224058Y11007379D01*
X22242965Y11065570D01*
X22252223Y11076541D01*
X22266588Y11091252D01*
X22295374Y11126543D01*
X22334071Y11218417D01*
X22348109Y11286862D01*
X22353247Y11332120D01*
X22336129Y11430330D01*
X22336127Y11430336D01*
X22324867Y11459460D01*
X22724058Y11459460D01*
X22724058Y10969512D01*
X22724059Y10969511D01*
X23214007Y10969511D01*
X23214008Y10969512D01*
X23214008Y11459460D01*
X23214007Y11459461D01*
X22724059Y11459461D01*
X22724058Y11459460D01*
X22324867Y11459460D01*
X22323195Y11463786D01*
X22323185Y11463810D01*
X22314455Y11486391D01*
X22313985Y11486210D01*
X22299341Y11521864D01*
X22298893Y11522851D01*
X22298890Y11522861D01*
X22276893Y11560960D01*
X22264171Y11620808D01*
X22289057Y11676704D01*
X22342044Y11707297D01*
X22362629Y11709461D01*
X22374058Y11709461D01*
X22374058Y11689570D01*
X22389282Y11652816D01*
X22417413Y11624685D01*
X22454167Y11609461D01*
X22493949Y11609461D01*
X22530703Y11624685D01*
X22558834Y11652816D01*
X22574058Y11689570D01*
X22574058Y11729352D01*
X22558834Y11766106D01*
X22530703Y11794237D01*
X22493949Y11809461D01*
X22474058Y11809461D01*
X22474058Y11816936D01*
X22480484Y11836716D01*
X22482701Y11857390D01*
X22489726Y11865161D01*
X22492965Y11875127D01*
X22509791Y11887353D01*
X22523736Y11902775D01*
X22533987Y11904932D01*
X22542465Y11911091D01*
X22563262Y11911091D01*
X22583610Y11915372D01*
X22592562Y11911091D01*
X22603651Y11911091D01*
X22639454Y11890370D01*
X22641300Y11888701D01*
X22697654Y11832347D01*
X22699052Y11833746D01*
X22755157Y11787974D01*
X22816072Y11753752D01*
X22857608Y11735072D01*
X22956365Y11721456D01*
X23026111Y11725599D01*
X23071156Y11732341D01*
X23161597Y11774278D01*
X23206211Y11806843D01*
X23206210Y11806845D01*
X23231247Y11825119D01*
X23232724Y11826553D01*
X23238428Y11830363D01*
X23295526Y11887463D01*
X23296083Y11888002D01*
X23322881Y11901145D01*
X23349520Y11914718D01*
X23350304Y11914594D01*
X23351017Y11914943D01*
X23380422Y11909824D01*
X23409952Y11905147D01*
X23410513Y11904586D01*
X23411296Y11904449D01*
X23432095Y11883005D01*
X23453217Y11861883D01*
X23453426Y11861012D01*
X23453894Y11860529D01*
X23454410Y11856914D01*
X23464008Y11816937D01*
X23464008Y11809461D01*
X23444117Y11809461D01*
X23407363Y11794237D01*
X23379232Y11766106D01*
X23364008Y11729352D01*
X23364008Y11689570D01*
X23379232Y11652816D01*
X23407363Y11624685D01*
X23444117Y11609461D01*
X23483899Y11609461D01*
X23520653Y11624685D01*
X23548784Y11652816D01*
X23564008Y11689570D01*
X23564008Y11709461D01*
X23575436Y11709461D01*
X23633627Y11690554D01*
X23669591Y11641054D01*
X23669591Y11579868D01*
X23661172Y11560960D01*
X23650042Y11541684D01*
X23650042Y11541683D01*
X23624234Y11478992D01*
X23624232Y11478989D01*
X23607627Y11415924D01*
X23600442Y11375974D01*
X23610187Y11276759D01*
X23630454Y11209884D01*
X23630455Y11209882D01*
X23647489Y11167661D01*
X23647493Y11167654D01*
X23692661Y11110537D01*
X23713926Y11053166D01*
X23714008Y11049129D01*
X23714008Y10969512D01*
X23714009Y10969511D01*
X24175265Y10969511D01*
X24216938Y11002365D01*
X24236254Y11007349D01*
X26105884Y11292701D01*
X26124229Y11293774D01*
X27025397Y11262701D01*
X27053304Y11263264D01*
X27080285Y11265287D01*
X27080855Y11265331D01*
X27176843Y11292250D01*
X27239144Y11323879D01*
X27298643Y11365692D01*
X28466985Y12465892D01*
X38599500Y12465892D01*
X38599500Y12334108D01*
X38614652Y12277559D01*
X38633609Y12206810D01*
X38699496Y12092691D01*
X38699498Y12092689D01*
X38699500Y12092686D01*
X38792686Y11999500D01*
X38792688Y11999499D01*
X38792690Y11999497D01*
X38906810Y11933610D01*
X38906808Y11933610D01*
X38906812Y11933609D01*
X38906814Y11933608D01*
X39034108Y11899500D01*
X39034110Y11899500D01*
X39165890Y11899500D01*
X39165892Y11899500D01*
X39293186Y11933608D01*
X39293188Y11933610D01*
X39293190Y11933610D01*
X39407309Y11999497D01*
X39407309Y11999498D01*
X39407314Y11999500D01*
X39500500Y12092686D01*
X39518126Y12123215D01*
X39566390Y12206810D01*
X39566390Y12206812D01*
X39566392Y12206814D01*
X39600500Y12334108D01*
X39600500Y12465892D01*
X39566392Y12593186D01*
X39566390Y12593189D01*
X39566390Y12593191D01*
X39500503Y12707310D01*
X39500501Y12707312D01*
X39500500Y12707314D01*
X39407314Y12800500D01*
X39407311Y12800502D01*
X39407309Y12800504D01*
X39293189Y12866391D01*
X39293191Y12866391D01*
X39243799Y12879625D01*
X39165892Y12900500D01*
X39034108Y12900500D01*
X38956200Y12879625D01*
X38906809Y12866391D01*
X38792690Y12800504D01*
X38699496Y12707310D01*
X38633609Y12593191D01*
X38633608Y12593186D01*
X38599500Y12465892D01*
X28466985Y12465892D01*
X29704650Y13631372D01*
X29759975Y13657499D01*
X29772164Y13658296D01*
X39900652Y13693975D01*
X39958908Y13675273D01*
X39995046Y13625900D01*
X40000000Y13594976D01*
X40000000Y9489593D01*
X39981093Y9431402D01*
X39931593Y9395438D01*
X39870407Y9395438D01*
X39851501Y9403856D01*
X39783538Y9443094D01*
X39783537Y9443095D01*
X39783536Y9443095D01*
X39662601Y9475500D01*
X39537399Y9475500D01*
X39432560Y9447409D01*
X39371460Y9450610D01*
X39323910Y9489115D01*
X39308074Y9548216D01*
X39318728Y9587980D01*
X39343595Y9636785D01*
X39409258Y9838878D01*
X39419731Y9905000D01*
X38525512Y9905000D01*
X38558425Y9962007D01*
X38592500Y10089174D01*
X38592500Y10220826D01*
X38558425Y10347993D01*
X38525512Y10405000D01*
X39419731Y10405000D01*
X39419731Y10405001D01*
X39409258Y10471123D01*
X39343595Y10673216D01*
X39247124Y10862553D01*
X39122222Y11034465D01*
X38971964Y11184723D01*
X38800052Y11309625D01*
X38610715Y11406096D01*
X38408620Y11471760D01*
X38342500Y11482233D01*
X38342500Y10588012D01*
X38285493Y10620925D01*
X38158326Y10655000D01*
X38026674Y10655000D01*
X37899507Y10620925D01*
X37842500Y10588012D01*
X37842500Y11482232D01*
X37842499Y11482233D01*
X37776380Y11471760D01*
X37776378Y11471760D01*
X37574284Y11406096D01*
X37384947Y11309625D01*
X37213035Y11184723D01*
X37062777Y11034465D01*
X36937875Y10862553D01*
X36841404Y10673216D01*
X36775741Y10471123D01*
X36765268Y10405001D01*
X36765269Y10405000D01*
X37659488Y10405000D01*
X37626575Y10347993D01*
X37592500Y10220826D01*
X37592500Y10089174D01*
X37626575Y9962007D01*
X37659488Y9905000D01*
X36765269Y9905000D01*
X36775741Y9838878D01*
X36841404Y9636785D01*
X36937875Y9447448D01*
X37062777Y9275536D01*
X37213035Y9125278D01*
X37384947Y9000376D01*
X37574286Y8903904D01*
X37746386Y8847986D01*
X37795886Y8812022D01*
X37814794Y8753831D01*
X37795887Y8695641D01*
X37746388Y8659677D01*
X37670058Y8634875D01*
X37515714Y8556234D01*
X37375573Y8454415D01*
X37253085Y8331927D01*
X37151266Y8191786D01*
X37072625Y8037442D01*
X37072623Y8037439D01*
X37019098Y7872707D01*
X37019097Y7872703D01*
X36992000Y7701615D01*
X36992000Y7528386D01*
X37019097Y7357298D01*
X37019098Y7357294D01*
X37072623Y7192562D01*
X37072625Y7192559D01*
X37148718Y7043215D01*
X37151268Y7038212D01*
X37253086Y6898072D01*
X37375572Y6775586D01*
X37515712Y6673768D01*
X37670055Y6595127D01*
X37670057Y6595127D01*
X37670058Y6595126D01*
X37670061Y6595124D01*
X37834793Y6541599D01*
X37834797Y6541598D01*
X38005886Y6514500D01*
X38005889Y6514500D01*
X38179114Y6514500D01*
X38350202Y6541598D01*
X38350206Y6541599D01*
X38514938Y6595124D01*
X38514940Y6595126D01*
X38514945Y6595127D01*
X38669288Y6673768D01*
X38809428Y6775586D01*
X38931914Y6898072D01*
X39033732Y7038212D01*
X39112373Y7192555D01*
X39112374Y7192560D01*
X39112376Y7192562D01*
X39165901Y7357294D01*
X39165902Y7357298D01*
X39193000Y7528386D01*
X39193000Y7701615D01*
X39165902Y7872703D01*
X39165901Y7872707D01*
X39112376Y8037439D01*
X39112374Y8037442D01*
X39112373Y8037443D01*
X39112373Y8037445D01*
X39033732Y8191788D01*
X38931914Y8331928D01*
X38809428Y8454414D01*
X38669288Y8556232D01*
X38669287Y8556233D01*
X38669285Y8556234D01*
X38514941Y8634875D01*
X38438611Y8659677D01*
X38389112Y8695641D01*
X38370205Y8753832D01*
X38389113Y8812023D01*
X38438613Y8847986D01*
X38610713Y8903904D01*
X38800051Y9000376D01*
X38967309Y9121896D01*
X39025500Y9140803D01*
X39083691Y9121896D01*
X39119655Y9072396D01*
X39124500Y9041803D01*
X39124500Y8937399D01*
X39156905Y8816464D01*
X39219505Y8708036D01*
X39308036Y8619505D01*
X39416464Y8556905D01*
X39537399Y8524500D01*
X39537401Y8524500D01*
X39662599Y8524500D01*
X39662601Y8524500D01*
X39783536Y8556905D01*
X39851501Y8596145D01*
X39911348Y8608866D01*
X39967244Y8583980D01*
X39997837Y8530992D01*
X40000000Y8510408D01*
X40000000Y723184D01*
X39981093Y664993D01*
X39931593Y629029D01*
X39870407Y629029D01*
X39820907Y664993D01*
X39809536Y685299D01*
X39755727Y815205D01*
X39755726Y815206D01*
X39755724Y815212D01*
X39634436Y1025289D01*
X39630360Y1030601D01*
X39486770Y1217732D01*
X39486768Y1217734D01*
X39486765Y1217738D01*
X39315238Y1389265D01*
X39315233Y1389269D01*
X39315231Y1389271D01*
X39122792Y1536934D01*
X39122789Y1536936D01*
X38912712Y1658224D01*
X38912708Y1658226D01*
X38912704Y1658228D01*
X38688605Y1751052D01*
X38688604Y1751053D01*
X38688600Y1751054D01*
X38454289Y1813838D01*
X38454286Y1813839D01*
X38454284Y1813839D01*
X38213789Y1845500D01*
X38213788Y1845500D01*
X37971212Y1845500D01*
X37971210Y1845500D01*
X37730718Y1813839D01*
X37730713Y1813839D01*
X37496407Y1751056D01*
X37496394Y1751052D01*
X37272295Y1658228D01*
X37062207Y1536934D01*
X36869768Y1389271D01*
X36698229Y1217732D01*
X36550566Y1025293D01*
X36429272Y815205D01*
X36336448Y591106D01*
X36336444Y591093D01*
X36273661Y356787D01*
X36273661Y356782D01*
X36242000Y116290D01*
X36242000Y-126289D01*
X36273661Y-366781D01*
X36273661Y-366786D01*
X36336444Y-601092D01*
X36336448Y-601105D01*
X36429272Y-825204D01*
X36429274Y-825208D01*
X36429276Y-825212D01*
X36547858Y-1030602D01*
X36550566Y-1035292D01*
X36698229Y-1227731D01*
X36698231Y-1227733D01*
X36698235Y-1227738D01*
X36869762Y-1399265D01*
X36869766Y-1399268D01*
X36869768Y-1399270D01*
X37062207Y-1546933D01*
X37062211Y-1546936D01*
X37181150Y-1615605D01*
X37222089Y-1661073D01*
X37228485Y-1721923D01*
X37197892Y-1774911D01*
X37141997Y-1799798D01*
X37131660Y-1800340D01*
X11107993Y-1803441D01*
X11049800Y-1784541D01*
X11013830Y-1735045D01*
X11013823Y-1673860D01*
X11049781Y-1624355D01*
X11058463Y-1618715D01*
X11182789Y-1546936D01*
X11375238Y-1399265D01*
X11546765Y-1227738D01*
X11694436Y-1035289D01*
X11815724Y-825212D01*
X11908554Y-601100D01*
X11971338Y-366789D01*
X12003000Y-126288D01*
X12003000Y116288D01*
X11971338Y356789D01*
X11908554Y591100D01*
X11856435Y716927D01*
X11815728Y815204D01*
X11815725Y815209D01*
X11815724Y815212D01*
X11784281Y869673D01*
X14147000Y869673D01*
X14147000Y-879672D01*
X14147001Y-879684D01*
X14161533Y-952736D01*
X14161535Y-952742D01*
X14216897Y-1035599D01*
X14216900Y-1035602D01*
X14257308Y-1062601D01*
X14299760Y-1090966D01*
X14347680Y-1100498D01*
X14372815Y-1105498D01*
X14372820Y-1105498D01*
X14372826Y-1105500D01*
X14372827Y-1105500D01*
X16122173Y-1105500D01*
X16122174Y-1105500D01*
X16195240Y-1090966D01*
X16278101Y-1035601D01*
X16333466Y-952740D01*
X16348000Y-879674D01*
X16348000Y81615D01*
X16687000Y81615D01*
X16687000Y-91614D01*
X16714097Y-262702D01*
X16714098Y-262706D01*
X16767623Y-427438D01*
X16767625Y-427441D01*
X16843718Y-576785D01*
X16846268Y-581788D01*
X16948086Y-721928D01*
X17070572Y-844414D01*
X17210712Y-946232D01*
X17365055Y-1024873D01*
X17365057Y-1024873D01*
X17365058Y-1024874D01*
X17365061Y-1024876D01*
X17529793Y-1078401D01*
X17529797Y-1078402D01*
X17700886Y-1105500D01*
X17700889Y-1105500D01*
X17874114Y-1105500D01*
X18045202Y-1078402D01*
X18045206Y-1078401D01*
X18209938Y-1024876D01*
X18209940Y-1024874D01*
X18209945Y-1024873D01*
X18364288Y-946232D01*
X18504428Y-844414D01*
X18626914Y-721928D01*
X18728732Y-581788D01*
X18807373Y-427445D01*
X18832175Y-351111D01*
X18868139Y-301612D01*
X18926330Y-282705D01*
X18984521Y-301612D01*
X19020485Y-351112D01*
X19076404Y-523215D01*
X19172875Y-712552D01*
X19297777Y-884464D01*
X19448035Y-1034722D01*
X19619947Y-1159624D01*
X19809284Y-1256095D01*
X20011377Y-1321758D01*
X20077499Y-1332231D01*
X20077500Y-1332230D01*
X20077500Y-438012D01*
X20134507Y-470925D01*
X20261674Y-505000D01*
X20393326Y-505000D01*
X20520493Y-470925D01*
X20577500Y-438012D01*
X20577500Y-1332231D01*
X20643622Y-1321758D01*
X20845715Y-1256095D01*
X21035052Y-1159624D01*
X21206964Y-1034722D01*
X21357222Y-884464D01*
X21482124Y-712552D01*
X21578596Y-523213D01*
X21634514Y-351113D01*
X21670478Y-301613D01*
X21728668Y-282705D01*
X21786859Y-301612D01*
X21822823Y-351111D01*
X21847625Y-427441D01*
X21923718Y-576785D01*
X21926268Y-581788D01*
X22028086Y-721928D01*
X22150572Y-844414D01*
X22290712Y-946232D01*
X22445055Y-1024873D01*
X22445057Y-1024873D01*
X22445058Y-1024874D01*
X22445061Y-1024876D01*
X22609793Y-1078401D01*
X22609797Y-1078402D01*
X22780886Y-1105500D01*
X22780889Y-1105500D01*
X22954114Y-1105500D01*
X23125202Y-1078402D01*
X23125206Y-1078401D01*
X23289938Y-1024876D01*
X23289940Y-1024874D01*
X23289945Y-1024873D01*
X23444288Y-946232D01*
X23584428Y-844414D01*
X23706914Y-721928D01*
X23808732Y-581788D01*
X23887373Y-427445D01*
X23887374Y-427440D01*
X23887376Y-427438D01*
X23940901Y-262706D01*
X23940902Y-262702D01*
X23968000Y-91614D01*
X23968000Y81615D01*
X24307000Y81615D01*
X24307000Y-91614D01*
X24334097Y-262702D01*
X24334098Y-262706D01*
X24387623Y-427438D01*
X24387625Y-427441D01*
X24463718Y-576785D01*
X24466268Y-581788D01*
X24568086Y-721928D01*
X24690572Y-844414D01*
X24830712Y-946232D01*
X24985055Y-1024873D01*
X24985057Y-1024873D01*
X24985058Y-1024874D01*
X24985061Y-1024876D01*
X25149793Y-1078401D01*
X25149797Y-1078402D01*
X25320886Y-1105500D01*
X25320889Y-1105500D01*
X25494114Y-1105500D01*
X25665202Y-1078402D01*
X25665206Y-1078401D01*
X25829938Y-1024876D01*
X25829940Y-1024874D01*
X25829945Y-1024873D01*
X25984288Y-946232D01*
X26124428Y-844414D01*
X26246914Y-721928D01*
X26348732Y-581788D01*
X26427373Y-427445D01*
X26427374Y-427440D01*
X26427376Y-427438D01*
X26480901Y-262706D01*
X26480902Y-262702D01*
X26508000Y-91614D01*
X26508000Y81615D01*
X26847000Y81615D01*
X26847000Y-91614D01*
X26874097Y-262702D01*
X26874098Y-262706D01*
X26927623Y-427438D01*
X26927625Y-427441D01*
X27003718Y-576785D01*
X27006268Y-581788D01*
X27108086Y-721928D01*
X27230572Y-844414D01*
X27370712Y-946232D01*
X27525055Y-1024873D01*
X27525057Y-1024873D01*
X27525058Y-1024874D01*
X27525061Y-1024876D01*
X27689793Y-1078401D01*
X27689797Y-1078402D01*
X27860886Y-1105500D01*
X27860889Y-1105500D01*
X28034114Y-1105500D01*
X28205202Y-1078402D01*
X28205206Y-1078401D01*
X28369938Y-1024876D01*
X28369940Y-1024874D01*
X28369945Y-1024873D01*
X28524288Y-946232D01*
X28664428Y-844414D01*
X28786914Y-721928D01*
X28888732Y-581788D01*
X28967373Y-427445D01*
X28967374Y-427440D01*
X28967376Y-427438D01*
X29020901Y-262706D01*
X29020902Y-262702D01*
X29048000Y-91614D01*
X29048000Y81615D01*
X29020902Y252703D01*
X29020901Y252707D01*
X28967376Y417439D01*
X28967374Y417442D01*
X28967373Y417443D01*
X28967373Y417445D01*
X28888732Y571788D01*
X28786914Y711928D01*
X28664428Y834414D01*
X28524288Y936232D01*
X28524287Y936233D01*
X28524285Y936234D01*
X28369941Y1014875D01*
X28369938Y1014877D01*
X28205206Y1068402D01*
X28205202Y1068403D01*
X28034114Y1095500D01*
X28034111Y1095500D01*
X27860889Y1095500D01*
X27860886Y1095500D01*
X27689797Y1068403D01*
X27689793Y1068402D01*
X27525061Y1014877D01*
X27525058Y1014875D01*
X27370714Y936234D01*
X27230573Y834415D01*
X27108085Y711927D01*
X27006266Y571786D01*
X26927625Y417442D01*
X26927623Y417439D01*
X26874098Y252707D01*
X26874097Y252703D01*
X26847000Y81615D01*
X26508000Y81615D01*
X26480902Y252703D01*
X26480901Y252707D01*
X26427376Y417439D01*
X26427374Y417442D01*
X26427373Y417443D01*
X26427373Y417445D01*
X26348732Y571788D01*
X26246914Y711928D01*
X26124428Y834414D01*
X25984288Y936232D01*
X25984287Y936233D01*
X25984285Y936234D01*
X25829941Y1014875D01*
X25829938Y1014877D01*
X25665206Y1068402D01*
X25665202Y1068403D01*
X25494114Y1095500D01*
X25494111Y1095500D01*
X25320889Y1095500D01*
X25320886Y1095500D01*
X25149797Y1068403D01*
X25149793Y1068402D01*
X24985061Y1014877D01*
X24985058Y1014875D01*
X24830714Y936234D01*
X24690573Y834415D01*
X24568085Y711927D01*
X24466266Y571786D01*
X24387625Y417442D01*
X24387623Y417439D01*
X24334098Y252707D01*
X24334097Y252703D01*
X24307000Y81615D01*
X23968000Y81615D01*
X23940902Y252703D01*
X23940901Y252707D01*
X23887376Y417439D01*
X23887374Y417442D01*
X23887373Y417443D01*
X23887373Y417445D01*
X23808732Y571788D01*
X23706914Y711928D01*
X23584428Y834414D01*
X23444288Y936232D01*
X23444287Y936233D01*
X23444285Y936234D01*
X23289941Y1014875D01*
X23289938Y1014877D01*
X23125206Y1068402D01*
X23125202Y1068403D01*
X22954114Y1095500D01*
X22954111Y1095500D01*
X22780889Y1095500D01*
X22780886Y1095500D01*
X22609797Y1068403D01*
X22609793Y1068402D01*
X22445061Y1014877D01*
X22445058Y1014875D01*
X22290714Y936234D01*
X22150573Y834415D01*
X22028085Y711927D01*
X21926266Y571786D01*
X21847625Y417442D01*
X21822823Y341112D01*
X21786859Y291612D01*
X21728667Y272706D01*
X21670477Y291614D01*
X21634514Y341114D01*
X21578596Y513214D01*
X21482124Y702553D01*
X21357222Y874465D01*
X21206964Y1024723D01*
X21035052Y1149625D01*
X20845715Y1246096D01*
X20643620Y1311760D01*
X20577500Y1322233D01*
X20577500Y428012D01*
X20520493Y460925D01*
X20393326Y495000D01*
X20261674Y495000D01*
X20134507Y460925D01*
X20077500Y428012D01*
X20077500Y1322232D01*
X20077499Y1322233D01*
X20011380Y1311760D01*
X20011378Y1311760D01*
X19809284Y1246096D01*
X19619947Y1149625D01*
X19448035Y1024723D01*
X19297777Y874465D01*
X19172875Y702553D01*
X19076404Y513216D01*
X19020485Y341113D01*
X18984521Y291613D01*
X18926330Y272706D01*
X18868139Y291613D01*
X18832176Y341113D01*
X18807376Y417439D01*
X18807374Y417442D01*
X18807373Y417443D01*
X18807373Y417445D01*
X18728732Y571788D01*
X18626914Y711928D01*
X18504428Y834414D01*
X18364288Y936232D01*
X18364287Y936233D01*
X18364285Y936234D01*
X18209941Y1014875D01*
X18209938Y1014877D01*
X18045206Y1068402D01*
X18045202Y1068403D01*
X17874114Y1095500D01*
X17874111Y1095500D01*
X17700889Y1095500D01*
X17700886Y1095500D01*
X17529797Y1068403D01*
X17529793Y1068402D01*
X17365061Y1014877D01*
X17365058Y1014875D01*
X17210714Y936234D01*
X17070573Y834415D01*
X16948085Y711927D01*
X16846266Y571786D01*
X16767625Y417442D01*
X16767623Y417439D01*
X16714098Y252707D01*
X16714097Y252703D01*
X16687000Y81615D01*
X16348000Y81615D01*
X16348000Y869674D01*
X16347005Y874674D01*
X16344515Y887192D01*
X16333466Y942740D01*
X16285268Y1014875D01*
X16278102Y1025600D01*
X16278099Y1025603D01*
X16195242Y1080965D01*
X16195240Y1080966D01*
X16195237Y1080967D01*
X16195236Y1080967D01*
X16122184Y1095499D01*
X16122174Y1095500D01*
X14372826Y1095500D01*
X14372825Y1095500D01*
X14372815Y1095499D01*
X14299763Y1080967D01*
X14299757Y1080965D01*
X14216900Y1025603D01*
X14216897Y1025600D01*
X14161535Y942743D01*
X14161533Y942737D01*
X14147001Y869685D01*
X14147000Y869673D01*
X11784281Y869673D01*
X11694436Y1025289D01*
X11690360Y1030601D01*
X11546770Y1217732D01*
X11546768Y1217734D01*
X11546765Y1217738D01*
X11375238Y1389265D01*
X11375233Y1389269D01*
X11375231Y1389271D01*
X11182792Y1536934D01*
X11182789Y1536936D01*
X11022006Y1629765D01*
X10981066Y1675233D01*
X10974670Y1736083D01*
X11005263Y1789071D01*
X11061159Y1813958D01*
X11071507Y1814500D01*
X28131310Y1814500D01*
X28189501Y1795593D01*
X28201314Y1785504D01*
X29451110Y535709D01*
X29478887Y481192D01*
X29469316Y420761D01*
X29467627Y417448D01*
X29467623Y417439D01*
X29414098Y252707D01*
X29414097Y252703D01*
X29387000Y81615D01*
X29387000Y-91614D01*
X29414097Y-262702D01*
X29414098Y-262706D01*
X29467623Y-427438D01*
X29467625Y-427441D01*
X29543718Y-576785D01*
X29546268Y-581788D01*
X29648086Y-721928D01*
X29770572Y-844414D01*
X29910712Y-946232D01*
X30065055Y-1024873D01*
X30065057Y-1024873D01*
X30065058Y-1024874D01*
X30065061Y-1024876D01*
X30229793Y-1078401D01*
X30229797Y-1078402D01*
X30400886Y-1105500D01*
X30400889Y-1105500D01*
X30574114Y-1105500D01*
X30745202Y-1078402D01*
X30745206Y-1078401D01*
X30909938Y-1024876D01*
X30909940Y-1024874D01*
X30909945Y-1024873D01*
X31064288Y-946232D01*
X31204428Y-844414D01*
X31326914Y-721928D01*
X31428732Y-581788D01*
X31507373Y-427445D01*
X31532175Y-351111D01*
X31568139Y-301612D01*
X31626330Y-282705D01*
X31684521Y-301612D01*
X31720485Y-351112D01*
X31776404Y-523215D01*
X31872875Y-712552D01*
X31997777Y-884464D01*
X32148035Y-1034722D01*
X32319947Y-1159624D01*
X32509284Y-1256095D01*
X32711377Y-1321758D01*
X32777499Y-1332231D01*
X32777500Y-1332230D01*
X32777500Y-438012D01*
X32834507Y-470925D01*
X32961674Y-505000D01*
X33093326Y-505000D01*
X33220493Y-470925D01*
X33277500Y-438012D01*
X33277500Y-1332231D01*
X33343622Y-1321758D01*
X33545715Y-1256095D01*
X33735052Y-1159624D01*
X33906964Y-1034722D01*
X34057222Y-884464D01*
X34182124Y-712552D01*
X34278595Y-523215D01*
X34344258Y-321122D01*
X34354731Y-255000D01*
X33460512Y-255000D01*
X33493425Y-197993D01*
X33527500Y-70826D01*
X33527500Y60826D01*
X33493425Y187993D01*
X33460512Y245000D01*
X34354731Y245000D01*
X34354731Y245001D01*
X34344258Y311123D01*
X34278595Y513216D01*
X34182124Y702553D01*
X34057222Y874465D01*
X33906964Y1024723D01*
X33735052Y1149625D01*
X33545715Y1246096D01*
X33343620Y1311760D01*
X33277500Y1322233D01*
X33277500Y428012D01*
X33220493Y460925D01*
X33093326Y495000D01*
X32961674Y495000D01*
X32834507Y460925D01*
X32777500Y428012D01*
X32777500Y1322232D01*
X32777499Y1322233D01*
X32711380Y1311760D01*
X32711378Y1311760D01*
X32509284Y1246096D01*
X32319947Y1149625D01*
X32148035Y1024723D01*
X31997777Y874465D01*
X31872875Y702553D01*
X31776404Y513216D01*
X31720485Y341113D01*
X31684521Y291613D01*
X31626330Y272706D01*
X31568139Y291613D01*
X31532176Y341113D01*
X31507376Y417439D01*
X31507374Y417442D01*
X31507373Y417443D01*
X31507373Y417445D01*
X31428732Y571788D01*
X31326914Y711928D01*
X31204428Y834414D01*
X31064288Y936232D01*
X31064287Y936233D01*
X31064285Y936234D01*
X30909941Y1014875D01*
X30909938Y1014877D01*
X30745206Y1068402D01*
X30745202Y1068403D01*
X30574114Y1095500D01*
X30574111Y1095500D01*
X30400889Y1095500D01*
X30400886Y1095500D01*
X30229797Y1068403D01*
X30229793Y1068402D01*
X30065061Y1014877D01*
X30065052Y1014873D01*
X30061739Y1013184D01*
X30001307Y1003613D01*
X29946791Y1031390D01*
X29277595Y1700586D01*
X28532712Y2445470D01*
X28452788Y2491614D01*
X28452787Y2491615D01*
X28452784Y2491616D01*
X28448791Y2492685D01*
X28448787Y2492688D01*
X28448787Y2492686D01*
X28363644Y2515500D01*
X28363642Y2515500D01*
X18770944Y2515500D01*
X18712753Y2534407D01*
X18676789Y2583907D01*
X18675317Y2640122D01*
X18679229Y2654724D01*
X18700500Y2734108D01*
X18700500Y2865892D01*
X18666392Y2993186D01*
X18666390Y2993189D01*
X18666390Y2993191D01*
X18600503Y3107310D01*
X18600501Y3107312D01*
X18600500Y3107314D01*
X18507314Y3200500D01*
X18507311Y3200502D01*
X18507309Y3200504D01*
X18393189Y3266391D01*
X18393191Y3266391D01*
X18340552Y3280495D01*
X18265892Y3300500D01*
X18134108Y3300500D01*
X18059448Y3280495D01*
X18006809Y3266391D01*
X17892690Y3200504D01*
X17799496Y3107310D01*
X17733609Y2993191D01*
X17733608Y2993186D01*
X17702191Y2875933D01*
X17699500Y2865891D01*
X17699500Y2734109D01*
X17724683Y2640122D01*
X17721480Y2579021D01*
X17682975Y2531471D01*
X17629056Y2515500D01*
X15632627Y2515500D01*
X15574436Y2534407D01*
X15538472Y2583907D01*
X15538472Y2645093D01*
X15546890Y2663999D01*
X15553356Y2675200D01*
X15577180Y2716464D01*
X15609585Y2837399D01*
X15609585Y2962601D01*
X15577180Y3083536D01*
X15514580Y3191964D01*
X15426049Y3280495D01*
X15317621Y3343095D01*
X15196686Y3375500D01*
X15071484Y3375500D01*
X14993758Y3354673D01*
X14950548Y3343095D01*
X14842121Y3280495D01*
X14753590Y3191964D01*
X14690990Y3083537D01*
X14690990Y3083536D01*
X14658585Y2962601D01*
X14658585Y2837399D01*
X14690990Y2716464D01*
X14690991Y2716462D01*
X14721280Y2663999D01*
X14734001Y2604151D01*
X14709114Y2548255D01*
X14656125Y2517663D01*
X14635543Y2515500D01*
X8191108Y2515500D01*
X8132917Y2534407D01*
X8096953Y2583907D01*
X8096953Y2645093D01*
X8099644Y2652386D01*
X8126185Y2716462D01*
X8140183Y2750256D01*
X8165182Y2875931D01*
X8165182Y3004069D01*
X8140183Y3129744D01*
X8091147Y3248127D01*
X8091145Y3248130D01*
X8091143Y3248134D01*
X8062399Y3291152D01*
X8019958Y3354669D01*
X7929351Y3445276D01*
X7886908Y3473635D01*
X7822815Y3516462D01*
X7822807Y3516466D01*
X7704429Y3565500D01*
X7704427Y3565501D01*
X7704426Y3565501D01*
X7578751Y3590500D01*
X7450613Y3590500D01*
X7450612Y3590500D01*
X7395294Y3579496D01*
X7324938Y3565501D01*
X7324937Y3565501D01*
X7324934Y3565500D01*
X7206556Y3516466D01*
X7206548Y3516462D01*
X7100013Y3445276D01*
X7100009Y3445273D01*
X7009409Y3354673D01*
X7009406Y3354669D01*
X6940477Y3251510D01*
X6892427Y3213631D01*
X6831289Y3211229D01*
X6788159Y3236508D01*
X6544198Y3480468D01*
X6544196Y3480470D01*
X6464272Y3526614D01*
X6375128Y3550500D01*
X6375126Y3550500D01*
X5586190Y3550500D01*
X5527999Y3569407D01*
X5516186Y3579496D01*
X5332163Y3763519D01*
X5304386Y3818036D01*
X5313957Y3878468D01*
X5357222Y3921733D01*
X5376543Y3929149D01*
X5393186Y3933608D01*
X5497653Y3993922D01*
X5507309Y3999497D01*
X5507309Y3999498D01*
X5507314Y3999500D01*
X5600500Y4092686D01*
X5637578Y4156906D01*
X5666390Y4206810D01*
X5666390Y4206812D01*
X5666392Y4206814D01*
X5700500Y4334108D01*
X5700500Y4465892D01*
X5666392Y4593186D01*
X5626315Y4662601D01*
X8624500Y4662601D01*
X8624500Y4537399D01*
X8656905Y4416464D01*
X8719505Y4308036D01*
X8808036Y4219505D01*
X8916464Y4156905D01*
X9037399Y4124500D01*
X9037401Y4124500D01*
X9162599Y4124500D01*
X9162601Y4124500D01*
X9283536Y4156905D01*
X9391964Y4219505D01*
X9438351Y4265892D01*
X14899500Y4265892D01*
X14899500Y4134108D01*
X14927610Y4029198D01*
X14933609Y4006810D01*
X14999496Y3892691D01*
X14999498Y3892689D01*
X14999500Y3892686D01*
X15092686Y3799500D01*
X15092688Y3799499D01*
X15092690Y3799497D01*
X15206810Y3733610D01*
X15206808Y3733610D01*
X15206812Y3733609D01*
X15206814Y3733608D01*
X15334108Y3699500D01*
X15334110Y3699500D01*
X15465890Y3699500D01*
X15465892Y3699500D01*
X15593186Y3733608D01*
X15593188Y3733610D01*
X15593190Y3733610D01*
X15707309Y3799497D01*
X15707309Y3799498D01*
X15707314Y3799500D01*
X15775959Y3868145D01*
X20027948Y3868145D01*
X20027948Y3742943D01*
X20060353Y3622008D01*
X20122953Y3513580D01*
X20211484Y3425049D01*
X20319912Y3362449D01*
X20440847Y3330044D01*
X20440849Y3330044D01*
X20566047Y3330044D01*
X20566049Y3330044D01*
X20686984Y3362449D01*
X20795412Y3425049D01*
X20883943Y3513580D01*
X20946543Y3622008D01*
X20978948Y3742943D01*
X20978948Y3868145D01*
X20966652Y3914032D01*
X21586482Y3914032D01*
X21586482Y3788830D01*
X21618887Y3667895D01*
X21681487Y3559467D01*
X21770018Y3470936D01*
X21878446Y3408336D01*
X21999381Y3375931D01*
X21999383Y3375931D01*
X22124581Y3375931D01*
X22124583Y3375931D01*
X22245518Y3408336D01*
X22353946Y3470936D01*
X22442477Y3559467D01*
X22505077Y3667895D01*
X22537482Y3788830D01*
X22537482Y3914032D01*
X22505077Y4034967D01*
X22442477Y4143395D01*
X22353946Y4231926D01*
X22245518Y4294526D01*
X22124583Y4326931D01*
X21999381Y4326931D01*
X21928869Y4308037D01*
X21878445Y4294526D01*
X21770018Y4231926D01*
X21681487Y4143395D01*
X21618887Y4034968D01*
X21618887Y4034967D01*
X21586482Y3914032D01*
X20966652Y3914032D01*
X20946543Y3989080D01*
X20883943Y4097508D01*
X20795412Y4186039D01*
X20686984Y4248639D01*
X20566049Y4281044D01*
X20440847Y4281044D01*
X20360223Y4259441D01*
X20319911Y4248639D01*
X20211484Y4186039D01*
X20122953Y4097508D01*
X20060353Y3989081D01*
X20060353Y3989080D01*
X20027948Y3868145D01*
X15775959Y3868145D01*
X15800500Y3892686D01*
X15822807Y3931323D01*
X15866390Y4006810D01*
X15866390Y4006812D01*
X15866392Y4006814D01*
X15900500Y4134108D01*
X15900500Y4265892D01*
X15866392Y4393186D01*
X15866389Y4393191D01*
X15865918Y4394008D01*
X15865917Y4394010D01*
X15841086Y4437018D01*
X23428537Y4437018D01*
X23428537Y4311816D01*
X23460942Y4190881D01*
X23523542Y4082453D01*
X23612073Y3993922D01*
X23720501Y3931322D01*
X23841436Y3898917D01*
X23841438Y3898917D01*
X23966636Y3898917D01*
X23966638Y3898917D01*
X24087573Y3931322D01*
X24196001Y3993922D01*
X24284532Y4082453D01*
X24325753Y4153851D01*
X36633250Y4153851D01*
X36633250Y4028649D01*
X36665655Y3907714D01*
X36728255Y3799286D01*
X36816786Y3710755D01*
X36925214Y3648155D01*
X37046149Y3615750D01*
X37046151Y3615750D01*
X37171349Y3615750D01*
X37171351Y3615750D01*
X37292286Y3648155D01*
X37400714Y3710755D01*
X37489245Y3799286D01*
X37551845Y3907714D01*
X37570648Y3977888D01*
X37603970Y4029198D01*
X37661091Y4051125D01*
X37696866Y4046415D01*
X37834793Y4001599D01*
X37834797Y4001598D01*
X38005886Y3974500D01*
X38005889Y3974500D01*
X38179114Y3974500D01*
X38350202Y4001598D01*
X38350206Y4001599D01*
X38514938Y4055124D01*
X38514940Y4055126D01*
X38514945Y4055127D01*
X38669288Y4133768D01*
X38809428Y4235586D01*
X38931914Y4358072D01*
X39033732Y4498212D01*
X39112373Y4652555D01*
X39112374Y4652560D01*
X39112376Y4652562D01*
X39165901Y4817294D01*
X39165902Y4817298D01*
X39193000Y4988386D01*
X39193000Y5161615D01*
X39165902Y5332703D01*
X39165901Y5332707D01*
X39112376Y5497439D01*
X39112374Y5497442D01*
X39112373Y5497443D01*
X39112373Y5497445D01*
X39033732Y5651788D01*
X38931914Y5791928D01*
X38809428Y5914414D01*
X38669288Y6016232D01*
X38669287Y6016233D01*
X38669285Y6016234D01*
X38514941Y6094875D01*
X38514938Y6094877D01*
X38350206Y6148402D01*
X38350202Y6148403D01*
X38179114Y6175500D01*
X38179111Y6175500D01*
X38005889Y6175500D01*
X38005886Y6175500D01*
X37834797Y6148403D01*
X37834793Y6148402D01*
X37670061Y6094877D01*
X37670058Y6094875D01*
X37515714Y6016234D01*
X37375573Y5914415D01*
X37253085Y5791927D01*
X37151266Y5651786D01*
X37072625Y5497442D01*
X37072623Y5497439D01*
X37019098Y5332707D01*
X37019097Y5332703D01*
X36992000Y5161615D01*
X36992000Y4988386D01*
X37019097Y4817302D01*
X37063915Y4679367D01*
X37063915Y4618181D01*
X37027951Y4568681D01*
X36995384Y4553148D01*
X36925217Y4534347D01*
X36925216Y4534346D01*
X36925214Y4534346D01*
X36925214Y4534345D01*
X36902938Y4521484D01*
X36816786Y4471745D01*
X36728255Y4383214D01*
X36665655Y4274787D01*
X36660446Y4255346D01*
X36633250Y4153851D01*
X24325753Y4153851D01*
X24347132Y4190881D01*
X24379537Y4311816D01*
X24379537Y4437018D01*
X24347132Y4557953D01*
X24284532Y4666381D01*
X24196001Y4754912D01*
X24087573Y4817512D01*
X23966638Y4849917D01*
X23841436Y4849917D01*
X23760812Y4828314D01*
X23720500Y4817512D01*
X23612073Y4754912D01*
X23523542Y4666381D01*
X23460942Y4557954D01*
X23460942Y4557953D01*
X23428537Y4437018D01*
X15841086Y4437018D01*
X15800503Y4507310D01*
X15800501Y4507312D01*
X15800500Y4507314D01*
X15707314Y4600500D01*
X15707311Y4600502D01*
X15707309Y4600504D01*
X15593189Y4666391D01*
X15593191Y4666391D01*
X15542769Y4679901D01*
X15465892Y4700500D01*
X15334108Y4700500D01*
X15257231Y4679901D01*
X15206809Y4666391D01*
X15092690Y4600504D01*
X14999496Y4507310D01*
X14933609Y4393191D01*
X14927490Y4370353D01*
X14899500Y4265892D01*
X9438351Y4265892D01*
X9480495Y4308036D01*
X9543095Y4416464D01*
X9575500Y4537399D01*
X9575500Y4662601D01*
X9543095Y4783536D01*
X9480495Y4891964D01*
X9391964Y4980495D01*
X9283536Y5043095D01*
X9162601Y5075500D01*
X9037399Y5075500D01*
X8956775Y5053897D01*
X8916463Y5043095D01*
X8808036Y4980495D01*
X8719505Y4891964D01*
X8656905Y4783537D01*
X8656905Y4783536D01*
X8624500Y4662601D01*
X5626315Y4662601D01*
X5600500Y4707314D01*
X5507314Y4800500D01*
X5507311Y4800502D01*
X5507309Y4800504D01*
X5393189Y4866391D01*
X5393191Y4866391D01*
X5343799Y4879625D01*
X5265892Y4900500D01*
X5134108Y4900500D01*
X5056200Y4879625D01*
X5006809Y4866391D01*
X4892690Y4800504D01*
X4799496Y4707310D01*
X4733609Y4593191D01*
X4725195Y4561787D01*
X4701069Y4471745D01*
X4699500Y4465891D01*
X4699500Y4349500D01*
X4680593Y4291309D01*
X4631093Y4255345D01*
X4600500Y4250500D01*
X4308208Y4250500D01*
X4250017Y4269407D01*
X4214053Y4318907D01*
X4214053Y4380093D01*
X4250017Y4429593D01*
X4252348Y4431107D01*
X4254747Y4432948D01*
X4254749Y4432951D01*
X4254754Y4432953D01*
X4343285Y4521484D01*
X4405885Y4629912D01*
X4438290Y4750847D01*
X4438290Y4876049D01*
X4405885Y4996984D01*
X4343285Y5105412D01*
X4254754Y5193943D01*
X4146326Y5256543D01*
X4025391Y5288948D01*
X3900189Y5288948D01*
X3793541Y5260372D01*
X3779250Y5256542D01*
X3761528Y5246310D01*
X3734994Y5240672D01*
X3708937Y5233096D01*
X3705377Y5234377D01*
X3701679Y5233591D01*
X3676897Y5244626D01*
X3651365Y5253813D01*
X3649613Y5256774D01*
X3645784Y5258479D01*
X3616966Y5304413D01*
X3615226Y5310397D01*
X3610902Y5337701D01*
X3576602Y5443264D01*
X3576597Y5443282D01*
X3569251Y5465892D01*
X11899500Y5465892D01*
X11899500Y5334108D01*
X11924536Y5240672D01*
X11933609Y5206810D01*
X11999496Y5092691D01*
X11999498Y5092689D01*
X11999500Y5092686D01*
X12092686Y4999500D01*
X12092688Y4999499D01*
X12092690Y4999497D01*
X12206810Y4933610D01*
X12206808Y4933610D01*
X12206812Y4933609D01*
X12206814Y4933608D01*
X12334108Y4899500D01*
X12334110Y4899500D01*
X12465890Y4899500D01*
X12465892Y4899500D01*
X12593186Y4933608D01*
X12593188Y4933610D01*
X12593190Y4933610D01*
X12707309Y4999497D01*
X12707309Y4999498D01*
X12707314Y4999500D01*
X12800500Y5092686D01*
X12804092Y5098907D01*
X12866390Y5206810D01*
X12866390Y5206812D01*
X12866392Y5206814D01*
X12900500Y5334108D01*
X12900500Y5465892D01*
X12866392Y5593186D01*
X12866390Y5593189D01*
X12866390Y5593191D01*
X12800503Y5707310D01*
X12800501Y5707312D01*
X12800500Y5707314D01*
X12707314Y5800500D01*
X12707311Y5800502D01*
X12707309Y5800504D01*
X12593189Y5866391D01*
X12593191Y5866391D01*
X12543799Y5879625D01*
X12465892Y5900500D01*
X12334108Y5900500D01*
X12256200Y5879625D01*
X12206809Y5866391D01*
X12092690Y5800504D01*
X11999496Y5707310D01*
X11933609Y5593191D01*
X11914539Y5522022D01*
X11899500Y5465892D01*
X3569251Y5465892D01*
X3557376Y5502439D01*
X3557374Y5502442D01*
X3557373Y5502443D01*
X3557373Y5502445D01*
X3478732Y5656788D01*
X3376914Y5796928D01*
X3254428Y5919414D01*
X3114288Y6021232D01*
X3114287Y6021233D01*
X3114285Y6021234D01*
X2959941Y6099875D01*
X2959938Y6099877D01*
X2795206Y6153402D01*
X2795202Y6153403D01*
X2624114Y6180500D01*
X2624111Y6180500D01*
X2450889Y6180500D01*
X2450886Y6180500D01*
X2279797Y6153403D01*
X2279793Y6153402D01*
X2115061Y6099877D01*
X2115058Y6099875D01*
X1960714Y6021234D01*
X1820573Y5919415D01*
X1698085Y5796927D01*
X1596266Y5656786D01*
X1517625Y5502442D01*
X1492823Y5426112D01*
X1456859Y5376612D01*
X1398667Y5357706D01*
X1340477Y5376614D01*
X1304514Y5426114D01*
X1248596Y5598214D01*
X1152124Y5787553D01*
X1027222Y5959465D01*
X876964Y6109723D01*
X705052Y6234624D01*
X651735Y6261790D01*
X608471Y6305054D01*
X598899Y6365486D01*
X626676Y6420003D01*
X651735Y6438210D01*
X705052Y6465377D01*
X876964Y6590278D01*
X1027222Y6740536D01*
X1152124Y6912448D01*
X1248596Y7101787D01*
X1304514Y7273887D01*
X1340478Y7323387D01*
X1398668Y7342295D01*
X1456859Y7323388D01*
X1492823Y7273889D01*
X1517625Y7197559D01*
X1584712Y7065891D01*
X1596268Y7043212D01*
X1698086Y6903072D01*
X1820572Y6780586D01*
X1960712Y6678768D01*
X2115055Y6600127D01*
X2115057Y6600127D01*
X2115058Y6600126D01*
X2115061Y6600124D01*
X2279793Y6546599D01*
X2279797Y6546598D01*
X2450886Y6519500D01*
X2450889Y6519500D01*
X2624114Y6519500D01*
X2795202Y6546598D01*
X2795206Y6546599D01*
X2959938Y6600124D01*
X2959940Y6600126D01*
X2959945Y6600127D01*
X3082558Y6662601D01*
X7524500Y6662601D01*
X7524500Y6537399D01*
X7556905Y6416464D01*
X7619505Y6308036D01*
X7708036Y6219505D01*
X7816464Y6156905D01*
X7937399Y6124500D01*
X7937401Y6124500D01*
X8062599Y6124500D01*
X8062601Y6124500D01*
X8183536Y6156905D01*
X8291964Y6219505D01*
X8380495Y6308036D01*
X8443095Y6416464D01*
X8475500Y6537399D01*
X8475500Y6662601D01*
X24924500Y6662601D01*
X24924500Y6537399D01*
X24956905Y6416464D01*
X25019505Y6308036D01*
X25108036Y6219505D01*
X25216464Y6156905D01*
X25337399Y6124500D01*
X25337401Y6124500D01*
X25462599Y6124500D01*
X25462601Y6124500D01*
X25583536Y6156905D01*
X25691964Y6219505D01*
X25780495Y6308036D01*
X25843095Y6416464D01*
X25875500Y6537399D01*
X25875500Y6662601D01*
X25843095Y6783536D01*
X25780495Y6891964D01*
X25691964Y6980495D01*
X25583536Y7043095D01*
X25498458Y7065892D01*
X35699500Y7065892D01*
X35699500Y6934108D01*
X35726674Y6832691D01*
X35733609Y6806810D01*
X35799496Y6692691D01*
X35799498Y6692689D01*
X35799500Y6692686D01*
X35892686Y6599500D01*
X35892688Y6599499D01*
X35892690Y6599497D01*
X36006810Y6533610D01*
X36006808Y6533610D01*
X36006812Y6533609D01*
X36006814Y6533608D01*
X36134108Y6499500D01*
X36134110Y6499500D01*
X36265890Y6499500D01*
X36265892Y6499500D01*
X36393186Y6533608D01*
X36393188Y6533610D01*
X36393190Y6533610D01*
X36507309Y6599497D01*
X36507309Y6599498D01*
X36507314Y6599500D01*
X36600500Y6692686D01*
X36633119Y6749184D01*
X36666390Y6806810D01*
X36666390Y6806812D01*
X36666392Y6806814D01*
X36700500Y6934108D01*
X36700500Y7065892D01*
X36666392Y7193186D01*
X36666390Y7193189D01*
X36666390Y7193191D01*
X36600503Y7307310D01*
X36600501Y7307312D01*
X36600500Y7307314D01*
X36507314Y7400500D01*
X36507311Y7400502D01*
X36507309Y7400504D01*
X36393189Y7466391D01*
X36393191Y7466391D01*
X36343799Y7479625D01*
X36265892Y7500500D01*
X36134108Y7500500D01*
X36056200Y7479625D01*
X36006809Y7466391D01*
X35892690Y7400504D01*
X35799496Y7307310D01*
X35733609Y7193191D01*
X35733440Y7192559D01*
X35699500Y7065892D01*
X25498458Y7065892D01*
X25462601Y7075500D01*
X25337399Y7075500D01*
X25256775Y7053897D01*
X25216463Y7043095D01*
X25108036Y6980495D01*
X25019505Y6891964D01*
X24956905Y6783537D01*
X24956113Y6780582D01*
X24924500Y6662601D01*
X8475500Y6662601D01*
X8443095Y6783536D01*
X8380495Y6891964D01*
X8291964Y6980495D01*
X8183536Y7043095D01*
X8062601Y7075500D01*
X7937399Y7075500D01*
X7856775Y7053897D01*
X7816463Y7043095D01*
X7708036Y6980495D01*
X7619505Y6891964D01*
X7556905Y6783537D01*
X7556113Y6780582D01*
X7524500Y6662601D01*
X3082558Y6662601D01*
X3114288Y6678768D01*
X3254428Y6780586D01*
X3376914Y6903072D01*
X3478732Y7043212D01*
X3557373Y7197555D01*
X3557374Y7197560D01*
X3557376Y7197562D01*
X3610901Y7362294D01*
X3610902Y7362298D01*
X3638000Y7533386D01*
X3638000Y7706615D01*
X3610902Y7877703D01*
X3610901Y7877707D01*
X3557376Y8042439D01*
X3557374Y8042442D01*
X3557373Y8042443D01*
X3557373Y8042445D01*
X3494474Y8165892D01*
X28499500Y8165892D01*
X28499500Y8034108D01*
X28525755Y7936123D01*
X28533609Y7906810D01*
X28599496Y7792691D01*
X28599498Y7792689D01*
X28599500Y7792686D01*
X28692686Y7699500D01*
X28692688Y7699499D01*
X28692690Y7699497D01*
X28806810Y7633610D01*
X28806808Y7633610D01*
X28806812Y7633609D01*
X28806814Y7633608D01*
X28934108Y7599500D01*
X28934110Y7599500D01*
X29065890Y7599500D01*
X29065892Y7599500D01*
X29193186Y7633608D01*
X29193188Y7633610D01*
X29193190Y7633610D01*
X29307309Y7699497D01*
X29307309Y7699498D01*
X29307314Y7699500D01*
X29400500Y7792686D01*
X29412224Y7812993D01*
X29466390Y7906810D01*
X29466390Y7906812D01*
X29466392Y7906814D01*
X29500500Y8034108D01*
X29500500Y8165892D01*
X29466392Y8293186D01*
X29466390Y8293189D01*
X29466390Y8293191D01*
X29400503Y8407310D01*
X29400501Y8407312D01*
X29400500Y8407314D01*
X29307314Y8500500D01*
X29307311Y8500502D01*
X29307309Y8500504D01*
X29193189Y8566391D01*
X29193191Y8566391D01*
X29178722Y8570268D01*
X29065892Y8600500D01*
X28934108Y8600500D01*
X28872454Y8583980D01*
X28806809Y8566391D01*
X28692690Y8500504D01*
X28599496Y8407310D01*
X28533609Y8293191D01*
X28533608Y8293186D01*
X28499500Y8165892D01*
X3494474Y8165892D01*
X3478732Y8196788D01*
X3376914Y8336928D01*
X3254428Y8459414D01*
X3114288Y8561232D01*
X3114287Y8561233D01*
X3114285Y8561234D01*
X2959941Y8639875D01*
X2959938Y8639877D01*
X2879873Y8665892D01*
X29799500Y8665892D01*
X29799500Y8534108D01*
X29820854Y8454414D01*
X29833609Y8406810D01*
X29899496Y8292691D01*
X29899498Y8292689D01*
X29899500Y8292686D01*
X29992686Y8199500D01*
X29992688Y8199499D01*
X29992690Y8199497D01*
X30106810Y8133610D01*
X30106808Y8133610D01*
X30106812Y8133609D01*
X30106814Y8133608D01*
X30234108Y8099500D01*
X30234110Y8099500D01*
X30365890Y8099500D01*
X30365892Y8099500D01*
X30493186Y8133608D01*
X30493188Y8133610D01*
X30493190Y8133610D01*
X30607309Y8199497D01*
X30607309Y8199498D01*
X30607314Y8199500D01*
X30700500Y8292686D01*
X30723156Y8331927D01*
X30766390Y8406810D01*
X30766390Y8406812D01*
X30766392Y8406814D01*
X30800500Y8534108D01*
X30800500Y8665892D01*
X31099500Y8665892D01*
X31099500Y8534108D01*
X31120854Y8454414D01*
X31133609Y8406810D01*
X31199496Y8292691D01*
X31199498Y8292689D01*
X31199500Y8292686D01*
X31292686Y8199500D01*
X31292688Y8199499D01*
X31292690Y8199497D01*
X31406810Y8133610D01*
X31406808Y8133610D01*
X31406812Y8133609D01*
X31406814Y8133608D01*
X31534108Y8099500D01*
X31534110Y8099500D01*
X31665890Y8099500D01*
X31665892Y8099500D01*
X31793186Y8133608D01*
X31793188Y8133610D01*
X31793190Y8133610D01*
X31907309Y8199497D01*
X31907309Y8199498D01*
X31907314Y8199500D01*
X32000500Y8292686D01*
X32023156Y8331927D01*
X32066390Y8406810D01*
X32066390Y8406812D01*
X32066392Y8406814D01*
X32100500Y8534108D01*
X32100500Y8665892D01*
X32066392Y8793186D01*
X32066390Y8793189D01*
X32066390Y8793191D01*
X32000503Y8907310D01*
X32000501Y8907312D01*
X32000500Y8907314D01*
X31907314Y9000500D01*
X31907311Y9000502D01*
X31907309Y9000504D01*
X31793189Y9066391D01*
X31793191Y9066391D01*
X31717775Y9086598D01*
X31665892Y9100500D01*
X31534108Y9100500D01*
X31482225Y9086598D01*
X31406809Y9066391D01*
X31292690Y9000504D01*
X31199496Y8907310D01*
X31133609Y8793191D01*
X31128634Y8774624D01*
X31099500Y8665892D01*
X30800500Y8665892D01*
X30766392Y8793186D01*
X30766390Y8793189D01*
X30766390Y8793191D01*
X30700503Y8907310D01*
X30700501Y8907312D01*
X30700500Y8907314D01*
X30607314Y9000500D01*
X30607311Y9000502D01*
X30607309Y9000504D01*
X30493189Y9066391D01*
X30493191Y9066391D01*
X30417775Y9086598D01*
X30365892Y9100500D01*
X30234108Y9100500D01*
X30182225Y9086598D01*
X30106809Y9066391D01*
X29992690Y9000504D01*
X29899496Y8907310D01*
X29833609Y8793191D01*
X29828634Y8774624D01*
X29799500Y8665892D01*
X2879873Y8665892D01*
X2795206Y8693402D01*
X2795202Y8693403D01*
X2624114Y8720500D01*
X2624111Y8720500D01*
X2450889Y8720500D01*
X2450886Y8720500D01*
X2279797Y8693403D01*
X2279793Y8693402D01*
X2115061Y8639877D01*
X2115058Y8639875D01*
X1960714Y8561234D01*
X1820573Y8459415D01*
X1698085Y8336927D01*
X1596266Y8196786D01*
X1517625Y8042442D01*
X1492823Y7966112D01*
X1456859Y7916612D01*
X1398667Y7897706D01*
X1340477Y7916614D01*
X1304514Y7966114D01*
X1248596Y8138214D01*
X1152124Y8327553D01*
X1027222Y8499465D01*
X876964Y8649723D01*
X705052Y8774624D01*
X651735Y8801790D01*
X608471Y8845054D01*
X598899Y8905486D01*
X626676Y8960003D01*
X651735Y8978210D01*
X705052Y9005377D01*
X876964Y9130278D01*
X1027222Y9280536D01*
X1152124Y9452448D01*
X1248596Y9641787D01*
X1304514Y9813887D01*
X1340478Y9863387D01*
X1398668Y9882295D01*
X1456859Y9863388D01*
X1492823Y9813889D01*
X1517625Y9737559D01*
X1593838Y9587980D01*
X1596268Y9583212D01*
X1698086Y9443072D01*
X1820572Y9320586D01*
X1960712Y9218768D01*
X2115055Y9140127D01*
X2115057Y9140127D01*
X2115058Y9140126D01*
X2115061Y9140124D01*
X2279793Y9086599D01*
X2279797Y9086598D01*
X2450886Y9059500D01*
X2450889Y9059500D01*
X2624114Y9059500D01*
X2795202Y9086598D01*
X2795206Y9086599D01*
X2959938Y9140124D01*
X2959940Y9140126D01*
X2959945Y9140127D01*
X3114288Y9218768D01*
X3254428Y9320586D01*
X3376914Y9443072D01*
X3478732Y9583212D01*
X3557373Y9737555D01*
X3557374Y9737560D01*
X3557376Y9737562D01*
X3610901Y9902294D01*
X3610902Y9902298D01*
X3638000Y10073386D01*
X3638000Y10246615D01*
X3610902Y10417703D01*
X3600434Y10449919D01*
X3600433Y10449920D01*
X3594068Y10469510D01*
X3594068Y10469511D01*
X21765817Y10469511D01*
X21809416Y10364255D01*
X21809423Y10364241D01*
X21891489Y10241421D01*
X21995964Y10136946D01*
X22118802Y10054869D01*
X22224057Y10011271D01*
X22224058Y10011272D01*
X22224058Y10469510D01*
X22724058Y10469510D01*
X22724058Y10011271D01*
X22829314Y10054870D01*
X22914031Y10111475D01*
X22972919Y10128084D01*
X23024035Y10111475D01*
X23108751Y10054870D01*
X23214007Y10011271D01*
X23214008Y10011272D01*
X23214008Y10469510D01*
X23714008Y10469510D01*
X23714008Y10011271D01*
X23819263Y10054869D01*
X23942101Y10136946D01*
X24046576Y10241421D01*
X24128642Y10364241D01*
X24128649Y10364255D01*
X24148963Y10413295D01*
X24148963Y10413296D01*
X24172249Y10469511D01*
X23714009Y10469511D01*
X23714008Y10469510D01*
X23214008Y10469510D01*
X23214007Y10469511D01*
X22724059Y10469511D01*
X22724058Y10469510D01*
X22224058Y10469510D01*
X22224057Y10469511D01*
X21765817Y10469511D01*
X3594068Y10469511D01*
X3557373Y10582445D01*
X3478732Y10736788D01*
X3476833Y10739402D01*
X22374058Y10739402D01*
X22374058Y10699620D01*
X22389282Y10662866D01*
X22417413Y10634735D01*
X22454167Y10619511D01*
X22493949Y10619511D01*
X22530703Y10634735D01*
X22558834Y10662866D01*
X22574058Y10699620D01*
X22574058Y10739402D01*
X23364008Y10739402D01*
X23364008Y10699620D01*
X23379232Y10662866D01*
X23407363Y10634735D01*
X23444117Y10619511D01*
X23483899Y10619511D01*
X23520653Y10634735D01*
X23548784Y10662866D01*
X23564008Y10699620D01*
X23564008Y10739402D01*
X23548784Y10776156D01*
X23520653Y10804287D01*
X23483899Y10819511D01*
X23444117Y10819511D01*
X23407363Y10804287D01*
X23379232Y10776156D01*
X23364008Y10739402D01*
X22574058Y10739402D01*
X22558834Y10776156D01*
X22530703Y10804287D01*
X22493949Y10819511D01*
X22454167Y10819511D01*
X22417413Y10804287D01*
X22389282Y10776156D01*
X22374058Y10739402D01*
X3476833Y10739402D01*
X3376914Y10876928D01*
X3254428Y10999414D01*
X3114288Y11101232D01*
X3114287Y11101233D01*
X3114285Y11101234D01*
X2959941Y11179875D01*
X2959938Y11179877D01*
X2795206Y11233402D01*
X2795202Y11233403D01*
X2624114Y11260500D01*
X2624111Y11260500D01*
X2450889Y11260500D01*
X2450886Y11260500D01*
X2279797Y11233403D01*
X2279793Y11233402D01*
X2115061Y11179877D01*
X2115058Y11179875D01*
X1960714Y11101234D01*
X1820573Y10999415D01*
X1698085Y10876927D01*
X1596266Y10736786D01*
X1517625Y10582442D01*
X1492823Y10506112D01*
X1456859Y10456612D01*
X1398667Y10437706D01*
X1340477Y10456614D01*
X1304514Y10506114D01*
X1248596Y10678214D01*
X1152124Y10867553D01*
X1027222Y11039465D01*
X876964Y11189723D01*
X705052Y11314624D01*
X651735Y11341790D01*
X608471Y11385054D01*
X598899Y11445486D01*
X626676Y11500003D01*
X651735Y11518210D01*
X705052Y11545377D01*
X876964Y11670278D01*
X1027222Y11820536D01*
X1152124Y11992448D01*
X1248596Y12181787D01*
X1304514Y12353887D01*
X1340478Y12403387D01*
X1398668Y12422295D01*
X1456859Y12403388D01*
X1492823Y12353889D01*
X1517625Y12277559D01*
X1517626Y12277556D01*
X1517627Y12277555D01*
X1596268Y12123212D01*
X1698086Y11983072D01*
X1820572Y11860586D01*
X1960712Y11758768D01*
X2115055Y11680127D01*
X2115057Y11680127D01*
X2115058Y11680126D01*
X2115061Y11680124D01*
X2279793Y11626599D01*
X2279797Y11626598D01*
X2450886Y11599500D01*
X2450889Y11599500D01*
X2624114Y11599500D01*
X2795202Y11626598D01*
X2795206Y11626599D01*
X2959938Y11680124D01*
X2959940Y11680126D01*
X2959945Y11680127D01*
X3114288Y11758768D01*
X3254428Y11860586D01*
X3376914Y11983072D01*
X3478732Y12123212D01*
X3557373Y12277555D01*
X3557374Y12277560D01*
X3557376Y12277562D01*
X3610901Y12442294D01*
X3610902Y12442298D01*
X3638000Y12613386D01*
X3638000Y12786615D01*
X3610902Y12957703D01*
X3610901Y12957707D01*
X3557376Y13122439D01*
X3557374Y13122442D01*
X3557373Y13122443D01*
X3557373Y13122445D01*
X3478732Y13276788D01*
X3376914Y13416928D01*
X3254428Y13539414D01*
X3114288Y13641232D01*
X3114287Y13641233D01*
X3114285Y13641234D01*
X2959941Y13719875D01*
X2959938Y13719877D01*
X2795206Y13773402D01*
X2795202Y13773403D01*
X2624114Y13800500D01*
X2624111Y13800500D01*
X2450889Y13800500D01*
X2450886Y13800500D01*
X2279797Y13773403D01*
X2279793Y13773402D01*
X2115061Y13719877D01*
X2115058Y13719875D01*
X1960714Y13641234D01*
X1820573Y13539415D01*
X1698085Y13416927D01*
X1596266Y13276786D01*
X1517625Y13122442D01*
X1492823Y13046112D01*
X1456859Y12996612D01*
X1398667Y12977706D01*
X1340477Y12996614D01*
X1304514Y13046114D01*
X1248596Y13218214D01*
X1152124Y13407553D01*
X1027222Y13579465D01*
X876964Y13729723D01*
X705052Y13854624D01*
X651735Y13881790D01*
X608471Y13925054D01*
X598899Y13985486D01*
X626676Y14040003D01*
X651735Y14058210D01*
X705052Y14085377D01*
X876964Y14210278D01*
X1027222Y14360536D01*
X1152124Y14532448D01*
X1248596Y14721787D01*
X1304514Y14893887D01*
X1340478Y14943387D01*
X1398668Y14962295D01*
X1456859Y14943388D01*
X1492823Y14893889D01*
X1517625Y14817559D01*
X1517626Y14817556D01*
X1517627Y14817555D01*
X1596268Y14663212D01*
X1698086Y14523072D01*
X1820572Y14400586D01*
X1960712Y14298768D01*
X2115055Y14220127D01*
X2115057Y14220127D01*
X2115058Y14220126D01*
X2115061Y14220124D01*
X2279793Y14166599D01*
X2279797Y14166598D01*
X2450886Y14139500D01*
X2450889Y14139500D01*
X2624114Y14139500D01*
X2795202Y14166598D01*
X2795206Y14166599D01*
X2959938Y14220124D01*
X2959940Y14220126D01*
X2959945Y14220127D01*
X3114288Y14298768D01*
X3254428Y14400586D01*
X3376914Y14523072D01*
X3478732Y14663212D01*
X3557373Y14817555D01*
X3557374Y14817560D01*
X3557376Y14817562D01*
X3610901Y14982294D01*
X3610902Y14982298D01*
X3638000Y15153386D01*
X3638000Y15326615D01*
X3610902Y15497703D01*
X3610901Y15497707D01*
X3557376Y15662439D01*
X3557374Y15662442D01*
X3557373Y15662443D01*
X3557373Y15662445D01*
X3478732Y15816788D01*
X3376914Y15956928D01*
X3254428Y16079414D01*
X3114288Y16181232D01*
X3114287Y16181233D01*
X3114285Y16181234D01*
X2959941Y16259875D01*
X2959938Y16259877D01*
X2795206Y16313402D01*
X2795202Y16313403D01*
X2624114Y16340500D01*
X2624111Y16340500D01*
X2450889Y16340500D01*
X2450886Y16340500D01*
X2279797Y16313403D01*
X2279793Y16313402D01*
X2115061Y16259877D01*
X2115058Y16259875D01*
X1960714Y16181234D01*
X1820573Y16079415D01*
X1698085Y15956927D01*
X1596266Y15816786D01*
X1517625Y15662442D01*
X1492823Y15586112D01*
X1456859Y15536612D01*
X1398667Y15517706D01*
X1340477Y15536614D01*
X1304514Y15586114D01*
X1248596Y15758214D01*
X1152124Y15947553D01*
X1027222Y16119465D01*
X876964Y16269723D01*
X705052Y16394624D01*
X651735Y16421790D01*
X608471Y16465054D01*
X598899Y16525486D01*
X626676Y16580003D01*
X651735Y16598210D01*
X705052Y16625377D01*
X876964Y16750278D01*
X1027222Y16900536D01*
X1152124Y17072448D01*
X1248596Y17261787D01*
X1304514Y17433887D01*
X1340478Y17483387D01*
X1398668Y17502295D01*
X1456859Y17483388D01*
X1492823Y17433889D01*
X1517625Y17357559D01*
X1517626Y17357556D01*
X1517627Y17357555D01*
X1596268Y17203212D01*
X1698086Y17063072D01*
X1820572Y16940586D01*
X1960712Y16838768D01*
X2115055Y16760127D01*
X2115057Y16760127D01*
X2115058Y16760126D01*
X2115061Y16760124D01*
X2279793Y16706599D01*
X2279797Y16706598D01*
X2450886Y16679500D01*
X2450889Y16679500D01*
X2624114Y16679500D01*
X2795202Y16706598D01*
X2795206Y16706599D01*
X2959938Y16760124D01*
X2959940Y16760126D01*
X2959945Y16760127D01*
X3114288Y16838768D01*
X3254428Y16940586D01*
X3376914Y17063072D01*
X3478732Y17203212D01*
X3557373Y17357555D01*
X3557374Y17357560D01*
X3557376Y17357562D01*
X3610901Y17522294D01*
X3610902Y17522298D01*
X3638000Y17693386D01*
X3638000Y17866615D01*
X3610902Y18037703D01*
X3610901Y18037707D01*
X3557376Y18202439D01*
X3557374Y18202442D01*
X3557373Y18202443D01*
X3557373Y18202445D01*
X3478732Y18356788D01*
X3376914Y18496928D01*
X3254428Y18619414D01*
X3114288Y18721232D01*
X3114287Y18721233D01*
X3114285Y18721234D01*
X2959941Y18799875D01*
X2959938Y18799877D01*
X2795206Y18853402D01*
X2795202Y18853403D01*
X2624114Y18880500D01*
X2624111Y18880500D01*
X2450889Y18880500D01*
X2450886Y18880500D01*
X2279797Y18853403D01*
X2279793Y18853402D01*
X2115061Y18799877D01*
X2115058Y18799875D01*
X1960714Y18721234D01*
X1820573Y18619415D01*
X1698085Y18496927D01*
X1596266Y18356786D01*
X1517625Y18202442D01*
X1492823Y18126112D01*
X1456859Y18076612D01*
X1398667Y18057706D01*
X1340477Y18076614D01*
X1304514Y18126114D01*
X1248596Y18298214D01*
X1152124Y18487553D01*
X1027222Y18659465D01*
X876964Y18809723D01*
X705052Y18934624D01*
X651735Y18961790D01*
X608471Y19005054D01*
X598899Y19065486D01*
X626676Y19120003D01*
X651735Y19138210D01*
X705052Y19165377D01*
X876964Y19290278D01*
X1027222Y19440536D01*
X1152124Y19612448D01*
X1248596Y19801787D01*
X1304514Y19973887D01*
X1340478Y20023387D01*
X1398668Y20042295D01*
X1456859Y20023388D01*
X1492823Y19973889D01*
X1517625Y19897559D01*
X1517626Y19897556D01*
X1517627Y19897555D01*
X1596268Y19743212D01*
X1698086Y19603072D01*
X1820572Y19480586D01*
X1960712Y19378768D01*
X2115055Y19300127D01*
X2115057Y19300127D01*
X2115058Y19300126D01*
X2115061Y19300124D01*
X2279793Y19246599D01*
X2279797Y19246598D01*
X2450886Y19219500D01*
X2450889Y19219500D01*
X2624114Y19219500D01*
X2795202Y19246598D01*
X2795206Y19246599D01*
X2959938Y19300124D01*
X2959940Y19300126D01*
X2959945Y19300127D01*
X3114288Y19378768D01*
X3254428Y19480586D01*
X3376914Y19603072D01*
X3478732Y19743212D01*
X3557373Y19897555D01*
X3557374Y19897560D01*
X3557376Y19897562D01*
X3610901Y20062294D01*
X3610902Y20062298D01*
X3638000Y20233386D01*
X3638000Y20406615D01*
X3610902Y20577703D01*
X3610901Y20577707D01*
X3557376Y20742439D01*
X3557374Y20742442D01*
X3557373Y20742443D01*
X3557373Y20742445D01*
X3478732Y20896788D01*
X3376914Y21036928D01*
X3254428Y21159414D01*
X3114288Y21261232D01*
X3114287Y21261233D01*
X3114285Y21261234D01*
X2959941Y21339875D01*
X2959938Y21339877D01*
X2795206Y21393402D01*
X2795202Y21393403D01*
X2624114Y21420500D01*
X2624111Y21420500D01*
X2450889Y21420500D01*
X2450886Y21420500D01*
X2279797Y21393403D01*
X2279793Y21393402D01*
X2115061Y21339877D01*
X2115058Y21339875D01*
X1960714Y21261234D01*
X1820573Y21159415D01*
X1698085Y21036927D01*
X1596266Y20896786D01*
X1517625Y20742442D01*
X1492823Y20666112D01*
X1456859Y20616612D01*
X1398667Y20597706D01*
X1340477Y20616614D01*
X1304514Y20666114D01*
X1248596Y20838214D01*
X1152124Y21027553D01*
X1027222Y21199465D01*
X876964Y21349723D01*
X705052Y21474624D01*
X651735Y21501790D01*
X608471Y21545054D01*
X598899Y21605486D01*
X626676Y21660003D01*
X651735Y21678210D01*
X705052Y21705377D01*
X876964Y21830278D01*
X1027222Y21980536D01*
X1152124Y22152448D01*
X1248596Y22341787D01*
X1304514Y22513887D01*
X1340478Y22563387D01*
X1398668Y22582295D01*
X1456859Y22563388D01*
X1492823Y22513889D01*
X1517625Y22437559D01*
X1583885Y22307514D01*
X1596268Y22283212D01*
X1698086Y22143072D01*
X1820572Y22020586D01*
X1960712Y21918768D01*
X2115055Y21840127D01*
X2115057Y21840127D01*
X2115058Y21840126D01*
X2115061Y21840124D01*
X2279793Y21786599D01*
X2279797Y21786598D01*
X2450886Y21759500D01*
X2450889Y21759500D01*
X2624114Y21759500D01*
X2795202Y21786598D01*
X2795206Y21786599D01*
X2959938Y21840124D01*
X2959940Y21840126D01*
X2959945Y21840127D01*
X3114288Y21918768D01*
X3254428Y22020586D01*
X3376914Y22143072D01*
X3478732Y22283212D01*
X3557373Y22437555D01*
X3557374Y22437560D01*
X3557376Y22437562D01*
X3610901Y22602294D01*
X3610902Y22602298D01*
X3638000Y22773386D01*
X3638000Y22946615D01*
X3610902Y23117703D01*
X3610901Y23117707D01*
X3557376Y23282439D01*
X3557374Y23282442D01*
X3557373Y23282443D01*
X3557373Y23282445D01*
X3478732Y23436788D01*
X3376914Y23576928D01*
X3254428Y23699414D01*
X3114288Y23801232D01*
X3114287Y23801233D01*
X3114285Y23801234D01*
X2959941Y23879875D01*
X2959938Y23879877D01*
X2795206Y23933402D01*
X2795202Y23933403D01*
X2624114Y23960500D01*
X2624111Y23960500D01*
X2450889Y23960500D01*
X2450886Y23960500D01*
X2279797Y23933403D01*
X2279793Y23933402D01*
X2115061Y23879877D01*
X2115058Y23879875D01*
X1960714Y23801234D01*
X1820573Y23699415D01*
X1698085Y23576927D01*
X1596266Y23436786D01*
X1517625Y23282442D01*
X1492823Y23206112D01*
X1456859Y23156612D01*
X1398667Y23137706D01*
X1340477Y23156614D01*
X1304514Y23206114D01*
X1248596Y23378214D01*
X1152124Y23567553D01*
X1027222Y23739465D01*
X876964Y23889723D01*
X705052Y24014625D01*
X515715Y24111096D01*
X313620Y24176760D01*
X247500Y24187233D01*
X247500Y23293012D01*
X190493Y23325925D01*
X63326Y23360000D01*
X-68326Y23360000D01*
X-195493Y23325925D01*
X-252500Y23293012D01*
X-252500Y24187232D01*
X-252501Y24187233D01*
X-318620Y24176760D01*
X-318622Y24176760D01*
X-520716Y24111096D01*
X-710053Y24014625D01*
X-881965Y23889723D01*
X-1032223Y23739465D01*
X-1157125Y23567553D01*
X-1253596Y23378216D01*
X-1319259Y23176123D01*
X-1329732Y23110001D01*
X-1329731Y23110000D01*
X-435512Y23110000D01*
X-468425Y23052993D01*
X-502500Y22925826D01*
X-502500Y22794174D01*
X-468425Y22667007D01*
X-435512Y22610000D01*
X-1329731Y22610000D01*
X-1319259Y22543878D01*
X-1253596Y22341785D01*
X-1157125Y22152448D01*
X-1032223Y21980536D01*
X-881965Y21830278D01*
X-710052Y21705376D01*
X-656736Y21678210D01*
X-613471Y21634945D01*
X-603900Y21574513D01*
X-631678Y21519996D01*
X-656736Y21501790D01*
X-710052Y21474625D01*
X-881965Y21349723D01*
X-1032223Y21199465D01*
X-1157125Y21027553D01*
X-1253596Y20838216D01*
X-1319259Y20636123D01*
X-1329732Y20570001D01*
X-1329731Y20570000D01*
X-435512Y20570000D01*
X-468425Y20512993D01*
X-502500Y20385826D01*
X-502500Y20254174D01*
X-468425Y20127007D01*
X-435512Y20070000D01*
X-1329731Y20070000D01*
X-1319259Y20003878D01*
X-1253596Y19801785D01*
X-1157125Y19612448D01*
X-1032223Y19440536D01*
X-881965Y19290278D01*
X-710052Y19165376D01*
X-656736Y19138210D01*
X-613471Y19094945D01*
X-603900Y19034513D01*
X-631678Y18979996D01*
X-656736Y18961790D01*
X-710052Y18934625D01*
X-881965Y18809723D01*
X-1032223Y18659465D01*
X-1157125Y18487553D01*
X-1253596Y18298216D01*
X-1319259Y18096123D01*
X-1329732Y18030001D01*
X-1329731Y18030000D01*
X-435512Y18030000D01*
X-468425Y17972993D01*
X-502500Y17845826D01*
X-502500Y17714174D01*
X-468425Y17587007D01*
X-435512Y17530000D01*
X-1329731Y17530000D01*
X-1319259Y17463878D01*
X-1253596Y17261785D01*
X-1157125Y17072448D01*
X-1032223Y16900536D01*
X-881965Y16750278D01*
X-710052Y16625376D01*
X-656736Y16598210D01*
X-613471Y16554945D01*
X-603900Y16494513D01*
X-631678Y16439996D01*
X-656736Y16421790D01*
X-710052Y16394625D01*
X-881965Y16269723D01*
X-1032223Y16119465D01*
X-1157125Y15947553D01*
X-1253596Y15758216D01*
X-1319259Y15556123D01*
X-1329732Y15490001D01*
X-1329731Y15490000D01*
X-435512Y15490000D01*
X-468425Y15432993D01*
X-502500Y15305826D01*
X-502500Y15174174D01*
X-468425Y15047007D01*
X-435512Y14990000D01*
X-1329731Y14990000D01*
X-1319259Y14923878D01*
X-1253596Y14721785D01*
X-1157125Y14532448D01*
X-1032223Y14360536D01*
X-881965Y14210278D01*
X-710052Y14085376D01*
X-656736Y14058210D01*
X-613471Y14014945D01*
X-603900Y13954513D01*
X-631678Y13899996D01*
X-656736Y13881790D01*
X-710052Y13854625D01*
X-881965Y13729723D01*
X-1032223Y13579465D01*
X-1157125Y13407553D01*
X-1253596Y13218216D01*
X-1319259Y13016123D01*
X-1329732Y12950001D01*
X-1329731Y12950000D01*
X-435512Y12950000D01*
X-468425Y12892993D01*
X-502500Y12765826D01*
X-502500Y12634174D01*
X-468425Y12507007D01*
X-435512Y12450000D01*
X-1329731Y12450000D01*
X-1319259Y12383878D01*
X-1253596Y12181785D01*
X-1157125Y11992448D01*
X-1032223Y11820536D01*
X-881965Y11670278D01*
X-710052Y11545376D01*
X-656736Y11518210D01*
X-613471Y11474945D01*
X-603900Y11414513D01*
X-631678Y11359996D01*
X-656736Y11341790D01*
X-710052Y11314625D01*
X-881965Y11189723D01*
X-1032223Y11039465D01*
X-1157125Y10867553D01*
X-1253596Y10678216D01*
X-1319259Y10476123D01*
X-1329732Y10410001D01*
X-1329731Y10410000D01*
X-435512Y10410000D01*
X-468425Y10352993D01*
X-502500Y10225826D01*
X-502500Y10094174D01*
X-468425Y9967007D01*
X-435512Y9910000D01*
X-1329731Y9910000D01*
X-1319259Y9843878D01*
X-1253596Y9641785D01*
X-1157125Y9452448D01*
X-1032223Y9280536D01*
X-881965Y9130278D01*
X-710052Y9005376D01*
X-656736Y8978210D01*
X-613471Y8934945D01*
X-603900Y8874513D01*
X-631678Y8819996D01*
X-656736Y8801790D01*
X-710052Y8774625D01*
X-881965Y8649723D01*
X-1032223Y8499465D01*
X-1157125Y8327553D01*
X-1253596Y8138216D01*
X-1319259Y7936123D01*
X-1329732Y7870001D01*
X-1329731Y7870000D01*
X-435512Y7870000D01*
X-468425Y7812993D01*
X-502500Y7685826D01*
X-502500Y7554174D01*
X-468425Y7427007D01*
X-435512Y7370000D01*
X-1329731Y7370000D01*
X-1319259Y7303878D01*
X-1253596Y7101785D01*
X-1157125Y6912449D01*
X-1099177Y6832691D01*
X-1080270Y6774500D01*
X-1099177Y6716309D01*
X-1148677Y6680345D01*
X-1179270Y6675500D01*
X-1262601Y6675500D01*
X-1310747Y6662599D01*
X-1383537Y6643095D01*
X-1491964Y6580495D01*
X-1580495Y6491964D01*
X-1643095Y6383537D01*
X-1643095Y6383536D01*
X-1675500Y6262601D01*
X-1675500Y6137399D01*
X-1643095Y6016464D01*
X-1580495Y5908036D01*
X-1579495Y5907036D01*
X-1579034Y5906132D01*
X-1576544Y5902886D01*
X-1577146Y5902425D01*
X-1551719Y5852521D01*
X-1550500Y5837034D01*
X-1550500Y4253856D01*
X-1526614Y4164712D01*
X-1480470Y4084788D01*
X-1480469Y4084787D01*
X-1480468Y4084786D01*
X-1080470Y3684789D01*
X-1080469Y3684787D01*
X-1015213Y3619532D01*
X-1015211Y3619530D01*
X-966298Y3591290D01*
X-935288Y3573386D01*
X-846144Y3549500D01*
X-788349Y3549500D01*
X-730158Y3530593D01*
X-694194Y3481093D01*
X-694194Y3419907D01*
X-718345Y3380496D01*
X-719425Y3379417D01*
X-719428Y3379414D01*
X-798342Y3300500D01*
X-841915Y3256927D01*
X-943734Y3116786D01*
X-1022375Y2962442D01*
X-1022377Y2962439D01*
X-1075902Y2797707D01*
X-1075903Y2797703D01*
X-1103000Y2626615D01*
X-1103000Y2453386D01*
X-1075903Y2282298D01*
X-1075902Y2282294D01*
X-1022377Y2117562D01*
X-1022375Y2117559D01*
X-1022374Y2117556D01*
X-1022373Y2117555D01*
X-943732Y1963212D01*
X-841914Y1823072D01*
X-719428Y1700586D01*
X-579288Y1598768D01*
X-424945Y1520127D01*
X-424943Y1520127D01*
X-424942Y1520126D01*
X-424939Y1520124D01*
X-260207Y1466599D01*
X-260203Y1466598D01*
X-89114Y1439500D01*
X-89111Y1439500D01*
X84114Y1439500D01*
X255202Y1466598D01*
X255206Y1466599D01*
X419938Y1520124D01*
X419940Y1520126D01*
X419945Y1520127D01*
X574288Y1598768D01*
X714428Y1700586D01*
X836914Y1823072D01*
X938732Y1963212D01*
X1017373Y2117555D01*
X1017374Y2117560D01*
X1017376Y2117562D01*
X1070901Y2282294D01*
X1070902Y2282298D01*
X1098000Y2453386D01*
X1098000Y2626615D01*
X1070902Y2797703D01*
X1070901Y2797707D01*
X1017376Y2962439D01*
X1017374Y2962442D01*
X1017373Y2962443D01*
X1017373Y2962445D01*
X938732Y3116788D01*
X836914Y3256928D01*
X714428Y3379414D01*
X714424Y3379417D01*
X713345Y3380496D01*
X685568Y3435013D01*
X695139Y3495445D01*
X738404Y3538710D01*
X783349Y3549500D01*
X1751651Y3549500D01*
X1809842Y3530593D01*
X1845806Y3481093D01*
X1845806Y3419907D01*
X1821655Y3380496D01*
X1820575Y3379417D01*
X1820572Y3379414D01*
X1741658Y3300500D01*
X1698085Y3256927D01*
X1596266Y3116786D01*
X1517625Y2962442D01*
X1517623Y2962439D01*
X1464098Y2797707D01*
X1464097Y2797703D01*
X1437000Y2626615D01*
X1437000Y2453386D01*
X1464097Y2282298D01*
X1464098Y2282294D01*
X1517623Y2117562D01*
X1517625Y2117559D01*
X1517626Y2117556D01*
X1517627Y2117555D01*
X1596268Y1963212D01*
X1698086Y1823072D01*
X1820572Y1700586D01*
X1960712Y1598768D01*
X2115055Y1520127D01*
X2115057Y1520127D01*
X2115058Y1520126D01*
X2115061Y1520124D01*
X2279793Y1466599D01*
X2279797Y1466598D01*
X2450886Y1439500D01*
X2450889Y1439500D01*
X2624114Y1439500D01*
X2795202Y1466598D01*
X2795206Y1466599D01*
X2959938Y1520124D01*
X2959940Y1520126D01*
X2959945Y1520127D01*
X3114288Y1598768D01*
X3254428Y1700586D01*
X3376914Y1823072D01*
X3478732Y1963212D01*
X3557373Y2117555D01*
X3557374Y2117560D01*
X3557376Y2117562D01*
X3610901Y2282294D01*
X3610902Y2282298D01*
X3638000Y2453386D01*
X3638000Y2626615D01*
X3610902Y2797703D01*
X3610901Y2797707D01*
X3557376Y2962439D01*
X3557374Y2962442D01*
X3557373Y2962443D01*
X3557373Y2962445D01*
X3478732Y3116788D01*
X3376914Y3256928D01*
X3254428Y3379414D01*
X3254424Y3379417D01*
X3253345Y3380496D01*
X3225568Y3435013D01*
X3235139Y3495445D01*
X3278404Y3538710D01*
X3323349Y3549500D01*
X4513810Y3549500D01*
X4572001Y3530593D01*
X4583814Y3520504D01*
X5184787Y2919531D01*
X5260304Y2875931D01*
X5260305Y2875930D01*
X5264708Y2873388D01*
X5264709Y2873388D01*
X5264712Y2873386D01*
X5353856Y2849500D01*
X6142794Y2849500D01*
X6200985Y2830593D01*
X6212798Y2820504D01*
X6360186Y2673116D01*
X6387963Y2618599D01*
X6389182Y2603112D01*
X6389182Y2572840D01*
X6395770Y2548255D01*
X6406332Y2508834D01*
X6410946Y2491616D01*
X6413068Y2483696D01*
X6459212Y2403772D01*
X6459213Y2403771D01*
X6459214Y2403770D01*
X6913196Y1949789D01*
X6913197Y1949787D01*
X6978453Y1884532D01*
X6978455Y1884530D01*
X7027368Y1856290D01*
X7058378Y1838386D01*
X7147522Y1814500D01*
X9233493Y1814500D01*
X9291684Y1795593D01*
X9327648Y1746093D01*
X9327648Y1684907D01*
X9291684Y1635407D01*
X9283000Y1629768D01*
X9182084Y1571505D01*
X9122207Y1536934D01*
X8929768Y1389271D01*
X8758229Y1217732D01*
X8610566Y1025293D01*
X8489272Y815205D01*
X8396448Y591106D01*
X8396444Y591093D01*
X8333661Y356787D01*
X8333661Y356782D01*
X8302000Y116290D01*
X8302000Y-126289D01*
X8333661Y-366781D01*
X8333661Y-366786D01*
X8396444Y-601092D01*
X8396448Y-601105D01*
X8489272Y-825204D01*
X8489274Y-825208D01*
X8489276Y-825212D01*
X8607858Y-1030602D01*
X8610566Y-1035292D01*
X8758229Y-1227731D01*
X8758231Y-1227733D01*
X8758235Y-1227738D01*
X8929762Y-1399265D01*
X8929766Y-1399268D01*
X8929768Y-1399270D01*
X9122207Y-1546933D01*
X9122211Y-1546936D01*
X9246914Y-1618933D01*
X9287854Y-1664402D01*
X9294250Y-1725252D01*
X9263657Y-1778240D01*
X9207762Y-1803127D01*
X9197425Y-1803669D01*
X2229250Y-1804500D01*
X-1868000Y-1804500D01*
X-1926191Y-1785593D01*
X-1962155Y-1736093D01*
X-1967000Y-1705500D01*
X-1967000Y-1049142D01*
X-1966249Y86615D01*
X-1103000Y86615D01*
X-1103000Y-86614D01*
X-1075903Y-257702D01*
X-1075902Y-257706D01*
X-1022377Y-422438D01*
X-1022375Y-422441D01*
X-980310Y-505000D01*
X-943732Y-576788D01*
X-841914Y-716928D01*
X-719428Y-839414D01*
X-579288Y-941232D01*
X-424945Y-1019873D01*
X-424943Y-1019873D01*
X-424942Y-1019874D01*
X-424939Y-1019876D01*
X-260207Y-1073401D01*
X-260203Y-1073402D01*
X-89114Y-1100500D01*
X-89111Y-1100500D01*
X84114Y-1100500D01*
X255202Y-1073402D01*
X255206Y-1073401D01*
X419938Y-1019876D01*
X419940Y-1019874D01*
X419945Y-1019873D01*
X574288Y-941232D01*
X714428Y-839414D01*
X836914Y-716928D01*
X938732Y-576788D01*
X1017373Y-422445D01*
X1017374Y-422440D01*
X1017376Y-422438D01*
X1070901Y-257706D01*
X1070902Y-257702D01*
X1098000Y-86614D01*
X1098000Y86615D01*
X1070902Y257703D01*
X1070901Y257707D01*
X1017376Y422439D01*
X1017374Y422442D01*
X1017373Y422443D01*
X1017373Y422445D01*
X938732Y576788D01*
X836914Y716928D01*
X714428Y839414D01*
X665898Y874673D01*
X1437000Y874673D01*
X1437000Y-874672D01*
X1437001Y-874684D01*
X1451533Y-947736D01*
X1451535Y-947742D01*
X1506897Y-1030599D01*
X1506900Y-1030602D01*
X1534648Y-1049142D01*
X1589760Y-1085966D01*
X1645308Y-1097015D01*
X1662815Y-1100498D01*
X1662820Y-1100498D01*
X1662826Y-1100500D01*
X1662827Y-1100500D01*
X3412173Y-1100500D01*
X3412174Y-1100500D01*
X3485240Y-1085966D01*
X3568101Y-1030601D01*
X3623466Y-947740D01*
X3625523Y-937399D01*
X4524500Y-937399D01*
X4524500Y-1062601D01*
X4556905Y-1183536D01*
X4619505Y-1291964D01*
X4708036Y-1380495D01*
X4816464Y-1443095D01*
X4937399Y-1475500D01*
X4937401Y-1475500D01*
X5062599Y-1475500D01*
X5062601Y-1475500D01*
X5183536Y-1443095D01*
X5291964Y-1380495D01*
X5380495Y-1291964D01*
X5443095Y-1183536D01*
X5475500Y-1062601D01*
X5475500Y-937399D01*
X5443095Y-816464D01*
X5380495Y-708036D01*
X5291964Y-619505D01*
X5183536Y-556905D01*
X5062601Y-524500D01*
X4937399Y-524500D01*
X4856775Y-546103D01*
X4816463Y-556905D01*
X4708036Y-619505D01*
X4619505Y-708036D01*
X4556905Y-816463D01*
X4556905Y-816464D01*
X4524500Y-937399D01*
X3625523Y-937399D01*
X3636053Y-884464D01*
X3637999Y-874681D01*
X3638000Y-874672D01*
X3638000Y874673D01*
X3637998Y874685D01*
X3625755Y936232D01*
X3623466Y947740D01*
X3601557Y980530D01*
X3568102Y1030600D01*
X3568099Y1030603D01*
X3485242Y1085965D01*
X3485240Y1085966D01*
X3485237Y1085967D01*
X3485236Y1085967D01*
X3412184Y1100499D01*
X3412174Y1100500D01*
X1662826Y1100500D01*
X1662825Y1100500D01*
X1662815Y1100499D01*
X1589763Y1085967D01*
X1589757Y1085965D01*
X1506900Y1030603D01*
X1506897Y1030600D01*
X1451535Y947743D01*
X1451533Y947737D01*
X1437001Y874685D01*
X1437000Y874673D01*
X665898Y874673D01*
X574288Y941232D01*
X574287Y941233D01*
X574285Y941234D01*
X419941Y1019875D01*
X419938Y1019877D01*
X255206Y1073402D01*
X255202Y1073403D01*
X84114Y1100500D01*
X84111Y1100500D01*
X-89111Y1100500D01*
X-89114Y1100500D01*
X-260203Y1073403D01*
X-260207Y1073402D01*
X-424939Y1019877D01*
X-424942Y1019875D01*
X-579286Y941234D01*
X-719427Y839415D01*
X-841915Y716927D01*
X-943734Y576786D01*
X-1022375Y422442D01*
X-1022377Y422439D01*
X-1075902Y257707D01*
X-1075903Y257703D01*
X-1103000Y86615D01*
X-1966249Y86615D01*
X-1966246Y90566D01*
X-1959730Y9939656D01*
X-1952569Y20766406D01*
X-1951038Y23080475D01*
X-1950065Y24551066D01*
X-1931119Y24609244D01*
X-1881595Y24645175D01*
X-1851065Y24650000D01*
X4298881Y24650000D01*
X4357072Y24631093D01*
G37*
G04 #@! TD.AperFunction*
G04 #@! TA.AperFunction,Conductor*
G36*
X247500Y5513012D02*
G01*
X190493Y5545925D01*
X63326Y5580000D01*
X-68326Y5580000D01*
X-195493Y5545925D01*
X-252500Y5513012D01*
X-252500Y7186988D01*
X-195493Y7154075D01*
X-68326Y7120000D01*
X63326Y7120000D01*
X190493Y7154075D01*
X247500Y7186988D01*
X247500Y5513012D01*
G37*
G04 #@! TD.AperFunction*
G04 #@! TA.AperFunction,Conductor*
G36*
X247500Y8053012D02*
G01*
X190493Y8085925D01*
X63326Y8120000D01*
X-68326Y8120000D01*
X-195493Y8085925D01*
X-252500Y8053012D01*
X-252500Y9726988D01*
X-195493Y9694075D01*
X-68326Y9660000D01*
X63326Y9660000D01*
X190493Y9694075D01*
X247500Y9726988D01*
X247500Y8053012D01*
G37*
G04 #@! TD.AperFunction*
G04 #@! TA.AperFunction,Conductor*
G36*
X247500Y10593012D02*
G01*
X190493Y10625925D01*
X63326Y10660000D01*
X-68326Y10660000D01*
X-195493Y10625925D01*
X-252500Y10593012D01*
X-252500Y12266988D01*
X-195493Y12234075D01*
X-68326Y12200000D01*
X63326Y12200000D01*
X190493Y12234075D01*
X247500Y12266988D01*
X247500Y10593012D01*
G37*
G04 #@! TD.AperFunction*
G04 #@! TA.AperFunction,Conductor*
G36*
X247500Y13133012D02*
G01*
X190493Y13165925D01*
X63326Y13200000D01*
X-68326Y13200000D01*
X-195493Y13165925D01*
X-252500Y13133012D01*
X-252500Y14806988D01*
X-195493Y14774075D01*
X-68326Y14740000D01*
X63326Y14740000D01*
X190493Y14774075D01*
X247500Y14806988D01*
X247500Y13133012D01*
G37*
G04 #@! TD.AperFunction*
G04 #@! TA.AperFunction,Conductor*
G36*
X22448465Y15968098D02*
G01*
X22459438Y15965916D01*
X22505653Y15956724D01*
X22524215Y15951093D01*
X22578101Y15928773D01*
X22595206Y15919630D01*
X22643685Y15887237D01*
X22658687Y15874926D01*
X22699923Y15833690D01*
X22712229Y15818695D01*
X22744623Y15770217D01*
X22753772Y15753100D01*
X22776090Y15699218D01*
X22781722Y15680653D01*
X22793097Y15623474D01*
X22795000Y15604158D01*
X22795000Y15545847D01*
X22793098Y15526533D01*
X22787726Y15499526D01*
X22787725Y15499523D01*
X22781722Y15469349D01*
X22776089Y15450780D01*
X22753775Y15396909D01*
X22744626Y15379794D01*
X22712232Y15331313D01*
X22699921Y15316310D01*
X22658690Y15275079D01*
X22643687Y15262768D01*
X22595206Y15230374D01*
X22578091Y15221225D01*
X22524220Y15198911D01*
X22505651Y15193278D01*
X22470510Y15186287D01*
X22448470Y15181903D01*
X22429157Y15180000D01*
X22370843Y15180000D01*
X22351528Y15181903D01*
X22323564Y15187466D01*
X22294346Y15193278D01*
X22275777Y15198911D01*
X22221905Y15221225D01*
X22204792Y15230372D01*
X22156308Y15262769D01*
X22141311Y15275076D01*
X22100075Y15316312D01*
X22087764Y15331314D01*
X22059613Y15373444D01*
X22055370Y15379794D01*
X22046227Y15396900D01*
X22023906Y15450788D01*
X22018275Y15469352D01*
X22006902Y15526528D01*
X22005000Y15545842D01*
X22005000Y15604155D01*
X22006902Y15623467D01*
X22014654Y15662442D01*
X22018276Y15680656D01*
X22023909Y15699223D01*
X22032626Y15720268D01*
X22046227Y15753104D01*
X22055367Y15770205D01*
X22087766Y15818693D01*
X22100069Y15833685D01*
X22141314Y15874930D01*
X22156304Y15887231D01*
X22204792Y15919630D01*
X22221900Y15928774D01*
X22275780Y15951092D01*
X22294340Y15956722D01*
X22331728Y15964159D01*
X22351535Y15968098D01*
X22370848Y15970000D01*
X22429153Y15970000D01*
X22448465Y15968098D01*
G37*
G04 #@! TD.AperFunction*
G04 #@! TA.AperFunction,Conductor*
G36*
X247500Y15673012D02*
G01*
X190493Y15705925D01*
X63326Y15740000D01*
X-68326Y15740000D01*
X-195493Y15705925D01*
X-252500Y15673012D01*
X-252500Y17346988D01*
X-195493Y17314075D01*
X-68326Y17280000D01*
X63326Y17280000D01*
X190493Y17314075D01*
X247500Y17346988D01*
X247500Y15673012D01*
G37*
G04 #@! TD.AperFunction*
G04 #@! TA.AperFunction,Conductor*
G36*
X247500Y18213012D02*
G01*
X190493Y18245925D01*
X63326Y18280000D01*
X-68326Y18280000D01*
X-195493Y18245925D01*
X-252500Y18213012D01*
X-252500Y19886988D01*
X-195493Y19854075D01*
X-68326Y19820000D01*
X63326Y19820000D01*
X190493Y19854075D01*
X247500Y19886988D01*
X247500Y18213012D01*
G37*
G04 #@! TD.AperFunction*
G04 #@! TA.AperFunction,Conductor*
G36*
X247500Y20753012D02*
G01*
X190493Y20785925D01*
X63326Y20820000D01*
X-68326Y20820000D01*
X-195493Y20785925D01*
X-252500Y20753012D01*
X-252500Y22426988D01*
X-195493Y22394075D01*
X-68326Y22360000D01*
X63326Y22360000D01*
X190493Y22394075D01*
X247500Y22426988D01*
X247500Y20753012D01*
G37*
G04 #@! TD.AperFunction*
G04 #@! TD*
M02*
