%TF.GenerationSoftware,KiCad,Pcbnew,9.0.4*%
%TF.CreationDate,2025-08-20T19:30:37-04:00*%
%TF.ProjectId,tac5212_audio_board_single_ended,74616335-3231-4325-9f61-7564696f5f62,rev?*%
%TF.SameCoordinates,Original*%
%TF.FileFunction,Drillmap*%
%TF.FilePolarity,Positive*%
%FSLAX45Y45*%
G04 Gerber Fmt 4.5, Leading zero omitted, Abs format (unit mm)*
G04 Created by KiCad (PCBNEW 9.0.4) date 2025-08-20 19:30:37*
%MOMM*%
%LPD*%
G01*
G04 APERTURE LIST*
%ADD10C,0.050000*%
%ADD11C,0.200000*%
G04 APERTURE END LIST*
D10*
X-196750Y2465500D02*
X4003250Y2465500D01*
X4003250Y-180500D01*
X-196750Y-180500D01*
X-196750Y2465500D01*
D11*
X61527Y-494484D02*
X61527Y-294484D01*
X61527Y-294484D02*
X109146Y-294484D01*
X109146Y-294484D02*
X137717Y-304008D01*
X137717Y-304008D02*
X156765Y-323055D01*
X156765Y-323055D02*
X166289Y-342103D01*
X166289Y-342103D02*
X175812Y-380198D01*
X175812Y-380198D02*
X175812Y-408769D01*
X175812Y-408769D02*
X166289Y-446865D01*
X166289Y-446865D02*
X156765Y-465912D01*
X156765Y-465912D02*
X137717Y-484960D01*
X137717Y-484960D02*
X109146Y-494484D01*
X109146Y-494484D02*
X61527Y-494484D01*
X261527Y-494484D02*
X261527Y-361150D01*
X261527Y-399246D02*
X271051Y-380198D01*
X271051Y-380198D02*
X280574Y-370674D01*
X280574Y-370674D02*
X299622Y-361150D01*
X299622Y-361150D02*
X318670Y-361150D01*
X385336Y-494484D02*
X385336Y-361150D01*
X385336Y-294484D02*
X375812Y-304008D01*
X375812Y-304008D02*
X385336Y-313531D01*
X385336Y-313531D02*
X394860Y-304008D01*
X394860Y-304008D02*
X385336Y-294484D01*
X385336Y-294484D02*
X385336Y-313531D01*
X509146Y-494484D02*
X490098Y-484960D01*
X490098Y-484960D02*
X480574Y-465912D01*
X480574Y-465912D02*
X480574Y-294484D01*
X613908Y-494484D02*
X594860Y-484960D01*
X594860Y-484960D02*
X585336Y-465912D01*
X585336Y-465912D02*
X585336Y-294484D01*
X842479Y-494484D02*
X842479Y-294484D01*
X842479Y-294484D02*
X909146Y-437341D01*
X909146Y-437341D02*
X975812Y-294484D01*
X975812Y-294484D02*
X975812Y-494484D01*
X1156765Y-494484D02*
X1156765Y-389722D01*
X1156765Y-389722D02*
X1147241Y-370674D01*
X1147241Y-370674D02*
X1128194Y-361150D01*
X1128194Y-361150D02*
X1090098Y-361150D01*
X1090098Y-361150D02*
X1071051Y-370674D01*
X1156765Y-484960D02*
X1137717Y-494484D01*
X1137717Y-494484D02*
X1090098Y-494484D01*
X1090098Y-494484D02*
X1071051Y-484960D01*
X1071051Y-484960D02*
X1061527Y-465912D01*
X1061527Y-465912D02*
X1061527Y-446865D01*
X1061527Y-446865D02*
X1071051Y-427817D01*
X1071051Y-427817D02*
X1090098Y-418293D01*
X1090098Y-418293D02*
X1137717Y-418293D01*
X1137717Y-418293D02*
X1156765Y-408769D01*
X1252003Y-361150D02*
X1252003Y-561150D01*
X1252003Y-370674D02*
X1271051Y-361150D01*
X1271051Y-361150D02*
X1309146Y-361150D01*
X1309146Y-361150D02*
X1328194Y-370674D01*
X1328194Y-370674D02*
X1337717Y-380198D01*
X1337717Y-380198D02*
X1347241Y-399246D01*
X1347241Y-399246D02*
X1347241Y-456388D01*
X1347241Y-456388D02*
X1337717Y-475436D01*
X1337717Y-475436D02*
X1328194Y-484960D01*
X1328194Y-484960D02*
X1309146Y-494484D01*
X1309146Y-494484D02*
X1271051Y-494484D01*
X1271051Y-494484D02*
X1252003Y-484960D01*
X1432955Y-475436D02*
X1442479Y-484960D01*
X1442479Y-484960D02*
X1432955Y-494484D01*
X1432955Y-494484D02*
X1423432Y-484960D01*
X1423432Y-484960D02*
X1432955Y-475436D01*
X1432955Y-475436D02*
X1432955Y-494484D01*
X1432955Y-370674D02*
X1442479Y-380198D01*
X1442479Y-380198D02*
X1432955Y-389722D01*
X1432955Y-389722D02*
X1423432Y-380198D01*
X1423432Y-380198D02*
X1432955Y-370674D01*
X1432955Y-370674D02*
X1432955Y-389722D01*
M02*
