G04 #@! TF.GenerationSoftware,KiCad,Pcbnew,9.0.4*
G04 #@! TF.CreationDate,2025-08-20T19:30:37-04:00*
G04 #@! TF.ProjectId,tac5212_audio_board_single_ended,74616335-3231-4325-9f61-7564696f5f62,rev?*
G04 #@! TF.SameCoordinates,Original*
G04 #@! TF.FileFunction,Paste,Bot*
G04 #@! TF.FilePolarity,Positive*
%FSLAX46Y46*%
G04 Gerber Fmt 4.6, Leading zero omitted, Abs format (unit mm)*
G04 Created by KiCad (PCBNEW 9.0.4) date 2025-08-20 19:30:37*
%MOMM*%
%LPD*%
G01*
G04 APERTURE LIST*
G04 Aperture macros list*
%AMRoundRect*
0 Rectangle with rounded corners*
0 $1 Rounding radius*
0 $2 $3 $4 $5 $6 $7 $8 $9 X,Y pos of 4 corners*
0 Add a 4 corners polygon primitive as box body*
4,1,4,$2,$3,$4,$5,$6,$7,$8,$9,$2,$3,0*
0 Add four circle primitives for the rounded corners*
1,1,$1+$1,$2,$3*
1,1,$1+$1,$4,$5*
1,1,$1+$1,$6,$7*
1,1,$1+$1,$8,$9*
0 Add four rect primitives between the rounded corners*
20,1,$1+$1,$2,$3,$4,$5,0*
20,1,$1+$1,$4,$5,$6,$7,0*
20,1,$1+$1,$6,$7,$8,$9,0*
20,1,$1+$1,$8,$9,$2,$3,0*%
G04 Aperture macros list end*
%ADD10RoundRect,0.250000X0.475000X-0.337500X0.475000X0.337500X-0.475000X0.337500X-0.475000X-0.337500X0*%
%ADD11RoundRect,0.237500X-0.237500X0.300000X-0.237500X-0.300000X0.237500X-0.300000X0.237500X0.300000X0*%
%ADD12RoundRect,0.160000X0.222500X0.160000X-0.222500X0.160000X-0.222500X-0.160000X0.222500X-0.160000X0*%
%ADD13RoundRect,0.237500X-0.287500X-0.237500X0.287500X-0.237500X0.287500X0.237500X-0.287500X0.237500X0*%
%ADD14RoundRect,0.237500X0.237500X-0.300000X0.237500X0.300000X-0.237500X0.300000X-0.237500X-0.300000X0*%
%ADD15RoundRect,0.135000X0.185000X-0.135000X0.185000X0.135000X-0.185000X0.135000X-0.185000X-0.135000X0*%
%ADD16RoundRect,0.250000X-0.325000X-0.450000X0.325000X-0.450000X0.325000X0.450000X-0.325000X0.450000X0*%
%ADD17RoundRect,0.250000X0.325000X0.450000X-0.325000X0.450000X-0.325000X-0.450000X0.325000X-0.450000X0*%
%ADD18RoundRect,0.250001X0.924999X-0.499999X0.924999X0.499999X-0.924999X0.499999X-0.924999X-0.499999X0*%
%ADD19RoundRect,0.250000X-0.475000X0.337500X-0.475000X-0.337500X0.475000X-0.337500X0.475000X0.337500X0*%
%ADD20RoundRect,0.250001X-0.499999X-0.924999X0.499999X-0.924999X0.499999X0.924999X-0.499999X0.924999X0*%
%ADD21RoundRect,0.237500X0.287500X0.237500X-0.287500X0.237500X-0.287500X-0.237500X0.287500X-0.237500X0*%
%ADD22RoundRect,0.160000X-0.222500X-0.160000X0.222500X-0.160000X0.222500X0.160000X-0.222500X0.160000X0*%
%ADD23RoundRect,0.150000X0.150000X-0.512500X0.150000X0.512500X-0.150000X0.512500X-0.150000X-0.512500X0*%
%ADD24RoundRect,0.160000X0.197500X0.160000X-0.197500X0.160000X-0.197500X-0.160000X0.197500X-0.160000X0*%
%ADD25RoundRect,0.237500X-0.237500X0.287500X-0.237500X-0.287500X0.237500X-0.287500X0.237500X0.287500X0*%
G04 APERTURE END LIST*
D10*
G04 #@! TO.C,T\u002AC108*
X35334314Y3125000D03*
X35334314Y5200000D03*
G04 #@! TD*
D11*
G04 #@! TO.C,C127*
X27100000Y12062500D03*
X27100000Y10337500D03*
G04 #@! TD*
D12*
G04 #@! TO.C,D111*
X17527500Y17500000D03*
X18672500Y17500000D03*
G04 #@! TD*
D13*
G04 #@! TO.C,R108*
X10025000Y11500000D03*
X11775000Y11500000D03*
G04 #@! TD*
D14*
G04 #@! TO.C,T\u002AC109*
X33400000Y3300000D03*
X33400000Y5025000D03*
G04 #@! TD*
D15*
G04 #@! TO.C,R128*
X25800000Y2490000D03*
X25800000Y3510000D03*
G04 #@! TD*
D11*
G04 #@! TO.C,C124*
X36000000Y12062500D03*
X36000000Y10337500D03*
G04 #@! TD*
D16*
G04 #@! TO.C,C131*
X5375000Y1000000D03*
X7425000Y1000000D03*
G04 #@! TD*
D17*
G04 #@! TO.C,C130*
X7425000Y3200000D03*
X5375000Y3200000D03*
G04 #@! TD*
D11*
G04 #@! TO.C,C125*
X33400000Y11962500D03*
X33400000Y10237500D03*
G04 #@! TD*
D18*
G04 #@! TO.C,C114*
X6200000Y6075000D03*
X6200000Y9325000D03*
G04 #@! TD*
D19*
G04 #@! TO.C,T\u002AC110*
X27600000Y5437500D03*
X27600000Y3362500D03*
G04 #@! TD*
D20*
G04 #@! TO.C,C122*
X18300001Y6800000D03*
X21550001Y6800000D03*
G04 #@! TD*
D21*
G04 #@! TO.C,R109*
X7475000Y11500000D03*
X5725000Y11500000D03*
G04 #@! TD*
D22*
G04 #@! TO.C,D113*
X33772500Y17565000D03*
X32627500Y17565000D03*
G04 #@! TD*
D19*
G04 #@! TO.C,FB110*
X29500000Y15975000D03*
X29500000Y13900000D03*
G04 #@! TD*
G04 #@! TO.C,FB111*
X25900000Y16137500D03*
X25900000Y14062500D03*
G04 #@! TD*
D13*
G04 #@! TO.C,R111*
X14325000Y11500000D03*
X16075000Y11500000D03*
G04 #@! TD*
D22*
G04 #@! TO.C,D112*
X37372500Y17517500D03*
X36227500Y17517500D03*
G04 #@! TD*
D14*
G04 #@! TO.C,C123*
X19100000Y13737500D03*
X19100000Y15462500D03*
G04 #@! TD*
D23*
G04 #@! TO.C,U109*
X31361814Y3047500D03*
X30411814Y3047500D03*
X29461814Y3047500D03*
X29461814Y5322500D03*
X31361814Y5322500D03*
G04 #@! TD*
D12*
G04 #@! TO.C,D108*
X9527500Y17500000D03*
X10672500Y17500000D03*
G04 #@! TD*
D14*
G04 #@! TO.C,C113*
X10900000Y13737500D03*
X10900000Y15462500D03*
G04 #@! TD*
D11*
G04 #@! TO.C,C126*
X29800000Y12062500D03*
X29800000Y10337500D03*
G04 #@! TD*
D12*
G04 #@! TO.C,D110*
X13827500Y17500000D03*
X14972500Y17500000D03*
G04 #@! TD*
D18*
G04 #@! TO.C,C110*
X10500000Y6075000D03*
X10500000Y9325000D03*
G04 #@! TD*
D12*
G04 #@! TO.C,D109*
X5227500Y17500000D03*
X6372500Y17500000D03*
G04 #@! TD*
D24*
G04 #@! TO.C,SCL109*
X24597500Y3600000D03*
X23402500Y3600000D03*
G04 #@! TD*
D14*
G04 #@! TO.C,C121*
X15200000Y13737500D03*
X15200000Y15462500D03*
G04 #@! TD*
D18*
G04 #@! TO.C,C120*
X14800000Y6075000D03*
X14800000Y9325000D03*
G04 #@! TD*
D22*
G04 #@! TO.C,D114*
X30172500Y17565000D03*
X29027500Y17565000D03*
G04 #@! TD*
D25*
G04 #@! TO.C,R116*
X18700000Y11475000D03*
X18700000Y9725000D03*
G04 #@! TD*
D19*
G04 #@! TO.C,FB109*
X33100000Y15902500D03*
X33100000Y13827500D03*
G04 #@! TD*
G04 #@! TO.C,FB108*
X36700000Y15865000D03*
X36700000Y13790000D03*
G04 #@! TD*
D22*
G04 #@! TO.C,D115*
X26572500Y17700000D03*
X25427500Y17700000D03*
G04 #@! TD*
D11*
G04 #@! TO.C,C129*
X25549617Y6674418D03*
X25549617Y4949418D03*
G04 #@! TD*
D14*
G04 #@! TO.C,C117*
X6600000Y13737500D03*
X6600000Y15462500D03*
G04 #@! TD*
M02*
