G04 #@! TF.GenerationSoftware,KiCad,Pcbnew,9.0.4*
G04 #@! TF.CreationDate,2025-08-20T19:30:37-04:00*
G04 #@! TF.ProjectId,tac5212_audio_board_single_ended,74616335-3231-4325-9f61-7564696f5f62,rev?*
G04 #@! TF.SameCoordinates,Original*
G04 #@! TF.FileFunction,Copper,L3,Inr*
G04 #@! TF.FilePolarity,Positive*
%FSLAX46Y46*%
G04 Gerber Fmt 4.6, Leading zero omitted, Abs format (unit mm)*
G04 Created by KiCad (PCBNEW 9.0.4) date 2025-08-20 19:30:37*
%MOMM*%
%LPD*%
G01*
G04 APERTURE LIST*
G04 #@! TA.AperFunction,ComponentPad*
%ADD10R,1.700000X1.700000*%
G04 #@! TD*
G04 #@! TA.AperFunction,ComponentPad*
%ADD11O,1.700000X1.700000*%
G04 #@! TD*
G04 #@! TA.AperFunction,ComponentPad*
%ADD12C,3.200000*%
G04 #@! TD*
G04 #@! TA.AperFunction,ComponentPad*
%ADD13C,0.500000*%
G04 #@! TD*
G04 #@! TA.AperFunction,ComponentPad*
%ADD14R,0.500000X0.500000*%
G04 #@! TD*
G04 #@! TA.AperFunction,ViaPad*
%ADD15C,0.450000*%
G04 #@! TD*
G04 #@! TA.AperFunction,ViaPad*
%ADD16C,0.800000*%
G04 #@! TD*
G04 #@! TA.AperFunction,Conductor*
%ADD17C,0.200000*%
G04 #@! TD*
G04 #@! TA.AperFunction,Conductor*
%ADD18C,0.750000*%
G04 #@! TD*
G04 APERTURE END LIST*
D10*
G04 #@! TO.N,EN_HELD_HIGH*
G04 #@! TO.C,board_outline108*
X2537500Y0D03*
D11*
G04 #@! TO.N,unconnected-(board_outline108-HELD_LOW-Pad2)*
X-2500Y0D03*
G04 #@! TO.N,Net-(5V108-Pad2)*
X2537500Y2540000D03*
G04 #@! TO.N,3.3v_IDE*
X-2500Y2540000D03*
G04 #@! TO.N,unconnected-(board_outline108-12V-Pad5)*
X2537500Y5080000D03*
G04 #@! TO.N,GNDD*
X-2500Y5080000D03*
G04 #@! TO.N,5212_DIN1*
X2537500Y7620000D03*
G04 #@! TO.N,GNDD*
X-2500Y7620000D03*
G04 #@! TO.N,5212_DOUT1+*
X2537500Y10160000D03*
G04 #@! TO.N,GNDD*
X-2500Y10160000D03*
G04 #@! TO.N,5212_BCLK1*
X2537500Y12700000D03*
G04 #@! TO.N,GNDD*
X-2500Y12700000D03*
G04 #@! TO.N,5212_LRCK1*
X2537500Y15240000D03*
G04 #@! TO.N,GNDD*
X-2500Y15240000D03*
G04 #@! TO.N,DSP_SDA*
X2537500Y17780000D03*
G04 #@! TO.N,GNDD*
X-2500Y17780000D03*
G04 #@! TO.N,DSP_SCL*
X2537500Y20320000D03*
G04 #@! TO.N,GNDD*
X-2500Y20320000D03*
G04 #@! TO.N,5212_MCLK1*
X2537500Y22860000D03*
G04 #@! TO.N,GNDD*
X-2500Y22860000D03*
D10*
G04 #@! TO.N,OUT1P+*
X15247500Y20315000D03*
G04 #@! TO.N,Earth*
X15247500Y22855000D03*
D11*
G04 #@! TO.N,OUT1M+*
X17787500Y20315000D03*
G04 #@! TO.N,Earth*
X17787500Y22855000D03*
G04 #@! TO.N,OUT2P+*
X20327500Y20315000D03*
G04 #@! TO.N,Earth*
X20327500Y22855000D03*
G04 #@! TO.N,OUT2M+*
X22867500Y20315000D03*
G04 #@! TO.N,Earth*
X22867500Y22855000D03*
G04 #@! TO.N,IN1P+*
X25407500Y20315000D03*
G04 #@! TO.N,Earth*
X25407500Y22855000D03*
G04 #@! TO.N,IN1M+*
X27947500Y20315000D03*
G04 #@! TO.N,Earth*
X27947500Y22855000D03*
G04 #@! TO.N,IN2P+*
X30487500Y20315000D03*
G04 #@! TO.N,Earth*
X30487500Y22855000D03*
G04 #@! TO.N,IN2M+*
X33027500Y20315000D03*
G04 #@! TO.N,Earth*
X33027500Y22855000D03*
D10*
G04 #@! TO.N,5212_SCL*
X15247500Y-5000D03*
D11*
G04 #@! TO.N,5212_SDA*
X17787500Y-5000D03*
G04 #@! TO.N,GNDD*
X20327500Y-5000D03*
G04 #@! TO.N,GPIO1*
X22867500Y-5000D03*
G04 #@! TO.N,GPIO2*
X25407500Y-5000D03*
G04 #@! TO.N,GPO1*
X27947500Y-5000D03*
G04 #@! TO.N,GPI1*
X30487500Y-5000D03*
G04 #@! TO.N,GNDD*
X33027500Y-5000D03*
G04 #@! TO.N,5V*
X38092500Y5075000D03*
G04 #@! TO.N,3.3V_LDO*
X38092500Y7615000D03*
G04 #@! TO.N,GNDD*
X38092500Y10155000D03*
G04 #@! TO.N,MICBIAS*
X35552500Y20315000D03*
D12*
G04 #@! TO.N,Net-(E108-Pad2)*
X10152500Y22855000D03*
G04 #@! TO.N,Net-(E109-Pad2)*
X38092500Y22855000D03*
G04 #@! TO.N,Net-(G117-Pad1)*
X10152500Y-5000D03*
G04 #@! TO.N,Net-(G118-Pad1)*
X38092500Y-5000D03*
G04 #@! TD*
D13*
G04 #@! TO.N,Earth*
G04 #@! TO.C,G110*
X30300000Y8600000D03*
G04 #@! TD*
G04 #@! TO.N,Earth*
G04 #@! TO.C,G109*
X12400000Y5400000D03*
G04 #@! TD*
G04 #@! TO.N,Earth*
G04 #@! TO.C,G112*
X31600000Y8600000D03*
G04 #@! TD*
G04 #@! TO.N,Earth*
G04 #@! TO.C,G111*
X5200000Y4400000D03*
G04 #@! TD*
G04 #@! TO.N,Earth*
G04 #@! TO.C,G113*
X15400000Y4200000D03*
G04 #@! TD*
G04 #@! TO.N,GNDD*
G04 #@! TO.C,TAC5212*
X22474058Y10719511D03*
X22474058Y11709461D03*
X22969033Y11214486D03*
X23464008Y10719511D03*
X23464008Y11709461D03*
G04 #@! TD*
G04 #@! TO.N,Earth*
G04 #@! TO.C,G115*
X18200000Y2800000D03*
G04 #@! TD*
G04 #@! TO.N,Earth*
G04 #@! TO.C,G114*
X36200000Y7000000D03*
G04 #@! TD*
G04 #@! TO.N,Earth*
G04 #@! TO.C,G116*
X39100000Y12400000D03*
G04 #@! TD*
G04 #@! TO.N,Earth*
G04 #@! TO.C,G108*
X29000000Y8100000D03*
G04 #@! TD*
D14*
G04 #@! TO.N,OUT2P*
G04 #@! TO.C,OP2*
X13500000Y15175000D03*
G04 #@! TD*
G04 #@! TO.N,IN2P*
G04 #@! TO.C,INP2*
X34600000Y15165000D03*
G04 #@! TD*
G04 #@! TO.N,IN2M*
G04 #@! TO.C,INM2*
X38200000Y15117500D03*
G04 #@! TD*
G04 #@! TO.N,OUT2M*
G04 #@! TO.C,OM2*
X17400000Y15400000D03*
G04 #@! TD*
G04 #@! TO.N,OUT1P*
G04 #@! TO.C,OP1*
X9200000Y15100000D03*
G04 #@! TD*
G04 #@! TO.N,IN1M*
G04 #@! TO.C,INM1*
X31000000Y15237500D03*
G04 #@! TD*
G04 #@! TO.N,OUT1M*
G04 #@! TO.C,OM1*
X5200000Y16100000D03*
G04 #@! TD*
G04 #@! TO.N,IN1P*
G04 #@! TO.C,INP1*
X27400000Y15175000D03*
G04 #@! TD*
D15*
G04 #@! TO.N,GNDD*
X6200000Y7800000D03*
X25400000Y4200000D03*
X12600000Y-1200000D03*
D16*
X22400000Y15575000D03*
D15*
X5450000Y10600000D03*
X32600000Y8000000D03*
X6563425Y4321087D03*
X11200000Y12600000D03*
X28800000Y7200000D03*
X30400000Y5000000D03*
X17200000Y4500000D03*
X29000000Y11400000D03*
X12206587Y3020000D03*
X38000000Y3600000D03*
X6400000Y-1000000D03*
G04 #@! TO.N,5V*
X37108750Y4091250D03*
D16*
X7514682Y2940000D03*
D15*
G04 #@! TO.N,Earth*
X7800000Y16800000D03*
X7600000Y21600000D03*
X5000000Y-1000000D03*
X16424739Y14837337D03*
X39600000Y9000000D03*
X9400000Y19400000D03*
X7600000Y24200000D03*
X20953490Y17950334D03*
X24400000Y18400000D03*
X38500000Y20200000D03*
X35350000Y17950000D03*
G04 #@! TO.N,EN_HELD_HIGH*
X25400000Y6600000D03*
G04 #@! TO.N,5212_SCL*
X15134085Y2900000D03*
G04 #@! TO.N,5212_SDA*
X3962790Y4813448D03*
G04 #@! TO.N,3.3V_LDO*
X17200000Y13000000D03*
G04 #@! TO.N,GPI1*
X-1200000Y6200000D03*
G04 #@! TO.N,Net-(PU_EN108-Pad1)*
X23904037Y4374417D03*
X20503448Y3805544D03*
G04 #@! TO.N,3.3v_IDE*
X22061982Y3851431D03*
X8000000Y6600000D03*
X9100000Y4600000D03*
G04 #@! TD*
D17*
G04 #@! TO.N,GNDD*
X12970000Y1170000D02*
X12600000Y800000D01*
X33027500Y-5000D02*
X31852500Y1170000D01*
X24527934Y1037569D02*
X23486632Y1037569D01*
X12600000Y800000D02*
X12600000Y-1200000D01*
X23354201Y1170000D02*
X12970000Y1170000D01*
X31852500Y1170000D02*
X24660365Y1170000D01*
X23486632Y1037569D02*
X23354201Y1170000D01*
X24660365Y1170000D02*
X24527934Y1037569D01*
D18*
G04 #@! TO.N,5V*
X13800000Y1875000D02*
X13505000Y2170000D01*
X37108750Y4091250D02*
X34892500Y1875000D01*
X13505000Y2170000D02*
X8284682Y2170000D01*
X34892500Y1875000D02*
X13800000Y1875000D01*
X38092500Y5075000D02*
X37108750Y4091250D01*
X8284682Y2170000D02*
X7514682Y2940000D01*
D17*
G04 #@! TO.N,EN_HELD_HIGH*
X2537500Y0D02*
X3587500Y0D01*
X5300000Y1712500D02*
X5300000Y3400000D01*
X5300000Y3400000D02*
X5900000Y4000000D01*
X5900000Y4000000D02*
X5900000Y4434315D01*
X24825000Y6025000D02*
X25400000Y6600000D01*
X3587500Y0D02*
X5300000Y1712500D01*
X7490685Y6025000D02*
X24825000Y6025000D01*
X5900000Y4434315D02*
X7490685Y6025000D01*
G04 #@! TO.N,3.3V_LDO*
X17200000Y13000000D02*
X17200000Y12999998D01*
D18*
X34150774Y10354645D02*
X28245355Y10354645D01*
X38092500Y7615000D02*
X36890419Y7615000D01*
X36890419Y7615000D02*
X34150774Y10354645D01*
X28245355Y10354645D02*
X24000000Y14600000D01*
D17*
X17200000Y13000000D02*
X17200000Y12975000D01*
D18*
X24000000Y14600000D02*
X18800002Y14600000D01*
X18800002Y14600000D02*
X17200000Y12999998D01*
D17*
G04 #@! TO.N,3.3v_IDE*
X-2500Y2540000D02*
X1257500Y3800000D01*
X21270735Y3851431D02*
X20022166Y5100000D01*
X12400000Y4600000D02*
X9100000Y4600000D01*
X12900000Y5100000D02*
X12400000Y4600000D01*
X22061982Y3851431D02*
X21270735Y3851431D01*
X20022166Y5100000D02*
X12900000Y5100000D01*
X1257500Y3800000D02*
X3700000Y3800000D01*
X3700000Y3800000D02*
X6500000Y6600000D01*
X6500000Y6600000D02*
X8000000Y6600000D01*
G04 #@! TD*
G04 #@! TA.AperFunction,Conductor*
G04 #@! TO.N,Earth*
G36*
X17321575Y23047993D02*
G01*
X17287500Y22920826D01*
X17287500Y22789174D01*
X17321575Y22662007D01*
X17354488Y22605000D01*
X15680512Y22605000D01*
X15713425Y22662007D01*
X15747500Y22789174D01*
X15747500Y22920826D01*
X15713425Y23047993D01*
X15680512Y23105000D01*
X17354488Y23105000D01*
X17321575Y23047993D01*
G37*
G04 #@! TD.AperFunction*
G04 #@! TA.AperFunction,Conductor*
G36*
X19861575Y23047993D02*
G01*
X19827500Y22920826D01*
X19827500Y22789174D01*
X19861575Y22662007D01*
X19894488Y22605000D01*
X18220512Y22605000D01*
X18253425Y22662007D01*
X18287500Y22789174D01*
X18287500Y22920826D01*
X18253425Y23047993D01*
X18220512Y23105000D01*
X19894488Y23105000D01*
X19861575Y23047993D01*
G37*
G04 #@! TD.AperFunction*
G04 #@! TA.AperFunction,Conductor*
G36*
X22401575Y23047993D02*
G01*
X22367500Y22920826D01*
X22367500Y22789174D01*
X22401575Y22662007D01*
X22434488Y22605000D01*
X20760512Y22605000D01*
X20793425Y22662007D01*
X20827500Y22789174D01*
X20827500Y22920826D01*
X20793425Y23047993D01*
X20760512Y23105000D01*
X22434488Y23105000D01*
X22401575Y23047993D01*
G37*
G04 #@! TD.AperFunction*
G04 #@! TA.AperFunction,Conductor*
G36*
X24941575Y23047993D02*
G01*
X24907500Y22920826D01*
X24907500Y22789174D01*
X24941575Y22662007D01*
X24974488Y22605000D01*
X23300512Y22605000D01*
X23333425Y22662007D01*
X23367500Y22789174D01*
X23367500Y22920826D01*
X23333425Y23047993D01*
X23300512Y23105000D01*
X24974488Y23105000D01*
X24941575Y23047993D01*
G37*
G04 #@! TD.AperFunction*
G04 #@! TA.AperFunction,Conductor*
G36*
X27481575Y23047993D02*
G01*
X27447500Y22920826D01*
X27447500Y22789174D01*
X27481575Y22662007D01*
X27514488Y22605000D01*
X25840512Y22605000D01*
X25873425Y22662007D01*
X25907500Y22789174D01*
X25907500Y22920826D01*
X25873425Y23047993D01*
X25840512Y23105000D01*
X27514488Y23105000D01*
X27481575Y23047993D01*
G37*
G04 #@! TD.AperFunction*
G04 #@! TA.AperFunction,Conductor*
G36*
X30021575Y23047993D02*
G01*
X29987500Y22920826D01*
X29987500Y22789174D01*
X30021575Y22662007D01*
X30054488Y22605000D01*
X28380512Y22605000D01*
X28413425Y22662007D01*
X28447500Y22789174D01*
X28447500Y22920826D01*
X28413425Y23047993D01*
X28380512Y23105000D01*
X30054488Y23105000D01*
X30021575Y23047993D01*
G37*
G04 #@! TD.AperFunction*
G04 #@! TA.AperFunction,Conductor*
G36*
X32561575Y23047993D02*
G01*
X32527500Y22920826D01*
X32527500Y22789174D01*
X32561575Y22662007D01*
X32594488Y22605000D01*
X30920512Y22605000D01*
X30953425Y22662007D01*
X30987500Y22789174D01*
X30987500Y22920826D01*
X30953425Y23047993D01*
X30920512Y23105000D01*
X32594488Y23105000D01*
X32561575Y23047993D01*
G37*
G04 #@! TD.AperFunction*
G04 #@! TA.AperFunction,Conductor*
G36*
X9168253Y24636765D02*
G01*
X9226419Y24617788D01*
X9262324Y24568246D01*
X9262251Y24507060D01*
X9226228Y24457603D01*
X9217633Y24452029D01*
X9122213Y24396938D01*
X8929768Y24249271D01*
X8758229Y24077732D01*
X8610566Y23885293D01*
X8489272Y23675205D01*
X8396448Y23451106D01*
X8396444Y23451093D01*
X8333661Y23216787D01*
X8333661Y23216782D01*
X8302000Y22976290D01*
X8302000Y22733711D01*
X8333661Y22493219D01*
X8333661Y22493214D01*
X8396444Y22258908D01*
X8396448Y22258895D01*
X8489272Y22034796D01*
X8489274Y22034792D01*
X8489276Y22034788D01*
X8610237Y21825278D01*
X8610566Y21824708D01*
X8758229Y21632269D01*
X8758231Y21632267D01*
X8758235Y21632262D01*
X8929762Y21460735D01*
X8929766Y21460732D01*
X8929768Y21460730D01*
X9087270Y21339875D01*
X9122211Y21313064D01*
X9332288Y21191776D01*
X9332294Y21191774D01*
X9332295Y21191773D01*
X9337365Y21189673D01*
X9556400Y21098946D01*
X9790711Y21036162D01*
X10031212Y21004500D01*
X10031213Y21004500D01*
X10273787Y21004500D01*
X10273788Y21004500D01*
X10514289Y21036162D01*
X10748600Y21098946D01*
X10972712Y21191776D01*
X11182789Y21313064D01*
X11375238Y21460735D01*
X11546765Y21632262D01*
X11694436Y21824711D01*
X11770915Y21957176D01*
X13897499Y21957176D01*
X13903901Y21897630D01*
X13903903Y21897619D01*
X13954146Y21762912D01*
X13954147Y21762910D01*
X14040307Y21647816D01*
X14040315Y21647808D01*
X14155409Y21561648D01*
X14155411Y21561647D01*
X14221128Y21537136D01*
X14269043Y21499086D01*
X14285441Y21440139D01*
X14264060Y21382811D01*
X14241534Y21362063D01*
X14216902Y21345605D01*
X14216897Y21345600D01*
X14161535Y21262743D01*
X14161533Y21262737D01*
X14147001Y21189685D01*
X14147000Y21189673D01*
X14147000Y19440328D01*
X14147001Y19440316D01*
X14161533Y19367264D01*
X14161535Y19367258D01*
X14216897Y19284401D01*
X14216899Y19284399D01*
X14299760Y19229034D01*
X14347690Y19219500D01*
X14372815Y19214502D01*
X14372820Y19214502D01*
X14372826Y19214500D01*
X14372827Y19214500D01*
X16122173Y19214500D01*
X16122174Y19214500D01*
X16195240Y19229034D01*
X16278101Y19284399D01*
X16333466Y19367260D01*
X16348000Y19440326D01*
X16348000Y21189674D01*
X16347582Y21191773D01*
X16344515Y21207192D01*
X16333466Y21262740D01*
X16285268Y21334875D01*
X16278102Y21345600D01*
X16278099Y21345603D01*
X16253466Y21362062D01*
X16215586Y21410112D01*
X16213184Y21471250D01*
X16247176Y21522124D01*
X16273871Y21537137D01*
X16339592Y21561649D01*
X16454684Y21647808D01*
X16454692Y21647816D01*
X16540852Y21762910D01*
X16540853Y21762912D01*
X16591096Y21897619D01*
X16591098Y21897630D01*
X16592722Y21912731D01*
X16617741Y21968568D01*
X16670801Y21999035D01*
X16731636Y21992496D01*
X16761159Y21972154D01*
X16908035Y21825278D01*
X17079947Y21700376D01*
X17269286Y21603904D01*
X17441386Y21547986D01*
X17490886Y21512022D01*
X17509794Y21453831D01*
X17490887Y21395641D01*
X17441388Y21359677D01*
X17365058Y21334875D01*
X17210714Y21256234D01*
X17070573Y21154415D01*
X16948085Y21031927D01*
X16846266Y20891786D01*
X16767625Y20737442D01*
X16767623Y20737439D01*
X16714098Y20572707D01*
X16714097Y20572703D01*
X16687000Y20401615D01*
X16687000Y20228386D01*
X16714097Y20057298D01*
X16714098Y20057294D01*
X16767623Y19892562D01*
X16767625Y19892559D01*
X16843718Y19743215D01*
X16846268Y19738212D01*
X16948086Y19598072D01*
X17070572Y19475586D01*
X17210712Y19373768D01*
X17365055Y19295127D01*
X17365057Y19295127D01*
X17365058Y19295126D01*
X17365061Y19295124D01*
X17529793Y19241599D01*
X17529797Y19241598D01*
X17700886Y19214500D01*
X17700889Y19214500D01*
X17874114Y19214500D01*
X18045202Y19241598D01*
X18045206Y19241599D01*
X18209938Y19295124D01*
X18209940Y19295126D01*
X18209945Y19295127D01*
X18364288Y19373768D01*
X18504428Y19475586D01*
X18626914Y19598072D01*
X18728732Y19738212D01*
X18807373Y19892555D01*
X18807374Y19892560D01*
X18807376Y19892562D01*
X18860901Y20057294D01*
X18860902Y20057298D01*
X18888000Y20228386D01*
X18888000Y20401615D01*
X18860902Y20572703D01*
X18860901Y20572707D01*
X18807376Y20737439D01*
X18807374Y20737442D01*
X18807373Y20737443D01*
X18807373Y20737445D01*
X18728732Y20891788D01*
X18626914Y21031928D01*
X18504428Y21154414D01*
X18364288Y21256232D01*
X18364287Y21256233D01*
X18364285Y21256234D01*
X18209941Y21334875D01*
X18133611Y21359677D01*
X18084112Y21395641D01*
X18065205Y21453832D01*
X18084113Y21512023D01*
X18133613Y21547986D01*
X18305713Y21603904D01*
X18495052Y21700376D01*
X18666964Y21825278D01*
X18817222Y21975536D01*
X18942123Y22147448D01*
X18969290Y22200765D01*
X19012554Y22244029D01*
X19072986Y22253601D01*
X19127503Y22225824D01*
X19145710Y22200765D01*
X19172876Y22147448D01*
X19297777Y21975536D01*
X19448035Y21825278D01*
X19619947Y21700376D01*
X19809286Y21603904D01*
X19981386Y21547986D01*
X20030886Y21512022D01*
X20049794Y21453831D01*
X20030887Y21395641D01*
X19981388Y21359677D01*
X19905058Y21334875D01*
X19750714Y21256234D01*
X19610573Y21154415D01*
X19488085Y21031927D01*
X19386266Y20891786D01*
X19307625Y20737442D01*
X19307623Y20737439D01*
X19254098Y20572707D01*
X19254097Y20572703D01*
X19227000Y20401615D01*
X19227000Y20228386D01*
X19254097Y20057298D01*
X19254098Y20057294D01*
X19307623Y19892562D01*
X19307625Y19892559D01*
X19383718Y19743215D01*
X19386268Y19738212D01*
X19488086Y19598072D01*
X19610572Y19475586D01*
X19750712Y19373768D01*
X19905055Y19295127D01*
X19905057Y19295127D01*
X19905058Y19295126D01*
X19905061Y19295124D01*
X20069793Y19241599D01*
X20069797Y19241598D01*
X20240886Y19214500D01*
X20240889Y19214500D01*
X20414114Y19214500D01*
X20585202Y19241598D01*
X20585206Y19241599D01*
X20749938Y19295124D01*
X20749940Y19295126D01*
X20749945Y19295127D01*
X20904288Y19373768D01*
X21044428Y19475586D01*
X21166914Y19598072D01*
X21268732Y19738212D01*
X21347373Y19892555D01*
X21347374Y19892560D01*
X21347376Y19892562D01*
X21400901Y20057294D01*
X21400902Y20057298D01*
X21428000Y20228386D01*
X21428000Y20401615D01*
X21400902Y20572703D01*
X21400901Y20572707D01*
X21347376Y20737439D01*
X21347374Y20737442D01*
X21347373Y20737443D01*
X21347373Y20737445D01*
X21268732Y20891788D01*
X21166914Y21031928D01*
X21044428Y21154414D01*
X20904288Y21256232D01*
X20904287Y21256233D01*
X20904285Y21256234D01*
X20749941Y21334875D01*
X20673611Y21359677D01*
X20624112Y21395641D01*
X20605205Y21453832D01*
X20624113Y21512023D01*
X20673613Y21547986D01*
X20845713Y21603904D01*
X21035052Y21700376D01*
X21206964Y21825278D01*
X21357222Y21975536D01*
X21482123Y22147448D01*
X21509290Y22200765D01*
X21552554Y22244029D01*
X21612986Y22253601D01*
X21667503Y22225824D01*
X21685710Y22200765D01*
X21712876Y22147448D01*
X21837777Y21975536D01*
X21988035Y21825278D01*
X22159947Y21700376D01*
X22349286Y21603904D01*
X22521386Y21547986D01*
X22570886Y21512022D01*
X22589794Y21453831D01*
X22570887Y21395641D01*
X22521388Y21359677D01*
X22445058Y21334875D01*
X22290714Y21256234D01*
X22150573Y21154415D01*
X22028085Y21031927D01*
X21926266Y20891786D01*
X21847625Y20737442D01*
X21847623Y20737439D01*
X21794098Y20572707D01*
X21794097Y20572703D01*
X21767000Y20401615D01*
X21767000Y20228386D01*
X21794097Y20057298D01*
X21794098Y20057294D01*
X21847623Y19892562D01*
X21847625Y19892559D01*
X21923718Y19743215D01*
X21926268Y19738212D01*
X22028086Y19598072D01*
X22150572Y19475586D01*
X22290712Y19373768D01*
X22445055Y19295127D01*
X22445057Y19295127D01*
X22445058Y19295126D01*
X22445061Y19295124D01*
X22609793Y19241599D01*
X22609797Y19241598D01*
X22780886Y19214500D01*
X22780889Y19214500D01*
X22954114Y19214500D01*
X23125202Y19241598D01*
X23125206Y19241599D01*
X23289938Y19295124D01*
X23289940Y19295126D01*
X23289945Y19295127D01*
X23444288Y19373768D01*
X23584428Y19475586D01*
X23706914Y19598072D01*
X23808732Y19738212D01*
X23887373Y19892555D01*
X23887374Y19892560D01*
X23887376Y19892562D01*
X23940901Y20057294D01*
X23940902Y20057298D01*
X23968000Y20228386D01*
X23968000Y20401615D01*
X23940902Y20572703D01*
X23940901Y20572707D01*
X23887376Y20737439D01*
X23887374Y20737442D01*
X23887373Y20737443D01*
X23887373Y20737445D01*
X23808732Y20891788D01*
X23706914Y21031928D01*
X23584428Y21154414D01*
X23444288Y21256232D01*
X23444287Y21256233D01*
X23444285Y21256234D01*
X23289941Y21334875D01*
X23213611Y21359677D01*
X23164112Y21395641D01*
X23145205Y21453832D01*
X23164113Y21512023D01*
X23213613Y21547986D01*
X23385713Y21603904D01*
X23575052Y21700376D01*
X23746964Y21825278D01*
X23897222Y21975536D01*
X24022123Y22147448D01*
X24049290Y22200765D01*
X24092554Y22244029D01*
X24152986Y22253601D01*
X24207503Y22225824D01*
X24225710Y22200765D01*
X24252876Y22147448D01*
X24377777Y21975536D01*
X24528035Y21825278D01*
X24699947Y21700376D01*
X24889286Y21603904D01*
X25061386Y21547986D01*
X25110886Y21512022D01*
X25129794Y21453831D01*
X25110887Y21395641D01*
X25061388Y21359677D01*
X24985058Y21334875D01*
X24830714Y21256234D01*
X24690573Y21154415D01*
X24568085Y21031927D01*
X24466266Y20891786D01*
X24387625Y20737442D01*
X24387623Y20737439D01*
X24334098Y20572707D01*
X24334097Y20572703D01*
X24307000Y20401615D01*
X24307000Y20228386D01*
X24334097Y20057298D01*
X24334098Y20057294D01*
X24387623Y19892562D01*
X24387625Y19892559D01*
X24463718Y19743215D01*
X24466268Y19738212D01*
X24568086Y19598072D01*
X24690572Y19475586D01*
X24830712Y19373768D01*
X24985055Y19295127D01*
X24985057Y19295127D01*
X24985058Y19295126D01*
X24985061Y19295124D01*
X25149793Y19241599D01*
X25149797Y19241598D01*
X25320886Y19214500D01*
X25320889Y19214500D01*
X25494114Y19214500D01*
X25665202Y19241598D01*
X25665206Y19241599D01*
X25829938Y19295124D01*
X25829940Y19295126D01*
X25829945Y19295127D01*
X25984288Y19373768D01*
X26124428Y19475586D01*
X26246914Y19598072D01*
X26348732Y19738212D01*
X26427373Y19892555D01*
X26427374Y19892560D01*
X26427376Y19892562D01*
X26480901Y20057294D01*
X26480902Y20057298D01*
X26508000Y20228386D01*
X26508000Y20401615D01*
X26480902Y20572703D01*
X26480901Y20572707D01*
X26427376Y20737439D01*
X26427374Y20737442D01*
X26427373Y20737443D01*
X26427373Y20737445D01*
X26348732Y20891788D01*
X26246914Y21031928D01*
X26124428Y21154414D01*
X25984288Y21256232D01*
X25984287Y21256233D01*
X25984285Y21256234D01*
X25829941Y21334875D01*
X25753611Y21359677D01*
X25704112Y21395641D01*
X25685205Y21453832D01*
X25704113Y21512023D01*
X25753613Y21547986D01*
X25925713Y21603904D01*
X26115052Y21700376D01*
X26286964Y21825278D01*
X26437222Y21975536D01*
X26562123Y22147448D01*
X26589290Y22200765D01*
X26632554Y22244029D01*
X26692986Y22253601D01*
X26747503Y22225824D01*
X26765710Y22200765D01*
X26792876Y22147448D01*
X26917777Y21975536D01*
X27068035Y21825278D01*
X27239947Y21700376D01*
X27429286Y21603904D01*
X27601386Y21547986D01*
X27650886Y21512022D01*
X27669794Y21453831D01*
X27650887Y21395641D01*
X27601388Y21359677D01*
X27525058Y21334875D01*
X27370714Y21256234D01*
X27230573Y21154415D01*
X27108085Y21031927D01*
X27006266Y20891786D01*
X26927625Y20737442D01*
X26927623Y20737439D01*
X26874098Y20572707D01*
X26874097Y20572703D01*
X26847000Y20401615D01*
X26847000Y20228386D01*
X26874097Y20057298D01*
X26874098Y20057294D01*
X26927623Y19892562D01*
X26927625Y19892559D01*
X27003718Y19743215D01*
X27006268Y19738212D01*
X27108086Y19598072D01*
X27230572Y19475586D01*
X27370712Y19373768D01*
X27525055Y19295127D01*
X27525057Y19295127D01*
X27525058Y19295126D01*
X27525061Y19295124D01*
X27689793Y19241599D01*
X27689797Y19241598D01*
X27860886Y19214500D01*
X27860889Y19214500D01*
X28034114Y19214500D01*
X28205202Y19241598D01*
X28205206Y19241599D01*
X28369938Y19295124D01*
X28369940Y19295126D01*
X28369945Y19295127D01*
X28524288Y19373768D01*
X28664428Y19475586D01*
X28786914Y19598072D01*
X28888732Y19738212D01*
X28967373Y19892555D01*
X28967374Y19892560D01*
X28967376Y19892562D01*
X29020901Y20057294D01*
X29020902Y20057298D01*
X29048000Y20228386D01*
X29048000Y20401615D01*
X29020902Y20572703D01*
X29020901Y20572707D01*
X28967376Y20737439D01*
X28967374Y20737442D01*
X28967373Y20737443D01*
X28967373Y20737445D01*
X28888732Y20891788D01*
X28786914Y21031928D01*
X28664428Y21154414D01*
X28524288Y21256232D01*
X28524287Y21256233D01*
X28524285Y21256234D01*
X28369941Y21334875D01*
X28293611Y21359677D01*
X28244112Y21395641D01*
X28225205Y21453832D01*
X28244113Y21512023D01*
X28293613Y21547986D01*
X28465713Y21603904D01*
X28655052Y21700376D01*
X28826964Y21825278D01*
X28977222Y21975536D01*
X29102123Y22147448D01*
X29129290Y22200765D01*
X29172554Y22244029D01*
X29232986Y22253601D01*
X29287503Y22225824D01*
X29305710Y22200765D01*
X29332876Y22147448D01*
X29457777Y21975536D01*
X29608035Y21825278D01*
X29779947Y21700376D01*
X29969286Y21603904D01*
X30141386Y21547986D01*
X30190886Y21512022D01*
X30209794Y21453831D01*
X30190887Y21395641D01*
X30141388Y21359677D01*
X30065058Y21334875D01*
X29910714Y21256234D01*
X29770573Y21154415D01*
X29648085Y21031927D01*
X29546266Y20891786D01*
X29467625Y20737442D01*
X29467623Y20737439D01*
X29414098Y20572707D01*
X29414097Y20572703D01*
X29387000Y20401615D01*
X29387000Y20228386D01*
X29414097Y20057298D01*
X29414098Y20057294D01*
X29467623Y19892562D01*
X29467625Y19892559D01*
X29543718Y19743215D01*
X29546268Y19738212D01*
X29648086Y19598072D01*
X29770572Y19475586D01*
X29910712Y19373768D01*
X30065055Y19295127D01*
X30065057Y19295127D01*
X30065058Y19295126D01*
X30065061Y19295124D01*
X30229793Y19241599D01*
X30229797Y19241598D01*
X30400886Y19214500D01*
X30400889Y19214500D01*
X30574114Y19214500D01*
X30745202Y19241598D01*
X30745206Y19241599D01*
X30909938Y19295124D01*
X30909940Y19295126D01*
X30909945Y19295127D01*
X31064288Y19373768D01*
X31204428Y19475586D01*
X31326914Y19598072D01*
X31428732Y19738212D01*
X31507373Y19892555D01*
X31507374Y19892560D01*
X31507376Y19892562D01*
X31560901Y20057294D01*
X31560902Y20057298D01*
X31588000Y20228386D01*
X31588000Y20401615D01*
X31560902Y20572703D01*
X31560901Y20572707D01*
X31507376Y20737439D01*
X31507374Y20737442D01*
X31507373Y20737443D01*
X31507373Y20737445D01*
X31428732Y20891788D01*
X31326914Y21031928D01*
X31204428Y21154414D01*
X31064288Y21256232D01*
X31064287Y21256233D01*
X31064285Y21256234D01*
X30909941Y21334875D01*
X30833611Y21359677D01*
X30784112Y21395641D01*
X30765205Y21453832D01*
X30784113Y21512023D01*
X30833613Y21547986D01*
X31005713Y21603904D01*
X31195052Y21700376D01*
X31366964Y21825278D01*
X31517222Y21975536D01*
X31642123Y22147448D01*
X31669290Y22200765D01*
X31712554Y22244029D01*
X31772986Y22253601D01*
X31827503Y22225824D01*
X31845710Y22200765D01*
X31872876Y22147448D01*
X31997777Y21975536D01*
X32148035Y21825278D01*
X32319947Y21700376D01*
X32509286Y21603904D01*
X32681386Y21547986D01*
X32730886Y21512022D01*
X32749794Y21453831D01*
X32730887Y21395641D01*
X32681388Y21359677D01*
X32605058Y21334875D01*
X32450714Y21256234D01*
X32310573Y21154415D01*
X32188085Y21031927D01*
X32086266Y20891786D01*
X32007625Y20737442D01*
X32007623Y20737439D01*
X31954098Y20572707D01*
X31954097Y20572703D01*
X31927000Y20401615D01*
X31927000Y20228386D01*
X31954097Y20057298D01*
X31954098Y20057294D01*
X32007623Y19892562D01*
X32007625Y19892559D01*
X32083718Y19743215D01*
X32086268Y19738212D01*
X32188086Y19598072D01*
X32310572Y19475586D01*
X32450712Y19373768D01*
X32605055Y19295127D01*
X32605057Y19295127D01*
X32605058Y19295126D01*
X32605061Y19295124D01*
X32769793Y19241599D01*
X32769797Y19241598D01*
X32940886Y19214500D01*
X32940889Y19214500D01*
X33114114Y19214500D01*
X33285202Y19241598D01*
X33285206Y19241599D01*
X33449938Y19295124D01*
X33449940Y19295126D01*
X33449945Y19295127D01*
X33604288Y19373768D01*
X33744428Y19475586D01*
X33866914Y19598072D01*
X33968732Y19738212D01*
X34047373Y19892555D01*
X34047374Y19892560D01*
X34047376Y19892562D01*
X34100901Y20057294D01*
X34100902Y20057298D01*
X34128000Y20228386D01*
X34128000Y20401615D01*
X34452000Y20401615D01*
X34452000Y20228386D01*
X34479097Y20057298D01*
X34479098Y20057294D01*
X34532623Y19892562D01*
X34532625Y19892559D01*
X34608718Y19743215D01*
X34611268Y19738212D01*
X34713086Y19598072D01*
X34835572Y19475586D01*
X34975712Y19373768D01*
X35130055Y19295127D01*
X35130057Y19295127D01*
X35130058Y19295126D01*
X35130061Y19295124D01*
X35294793Y19241599D01*
X35294797Y19241598D01*
X35465886Y19214500D01*
X35465889Y19214500D01*
X35639114Y19214500D01*
X35810202Y19241598D01*
X35810206Y19241599D01*
X35974938Y19295124D01*
X35974940Y19295126D01*
X35974945Y19295127D01*
X36129288Y19373768D01*
X36269428Y19475586D01*
X36391914Y19598072D01*
X36493732Y19738212D01*
X36572373Y19892555D01*
X36572374Y19892560D01*
X36572376Y19892562D01*
X36625901Y20057294D01*
X36625902Y20057298D01*
X36653000Y20228386D01*
X36653000Y20401615D01*
X36625902Y20572703D01*
X36625901Y20572707D01*
X36572376Y20737439D01*
X36572374Y20737442D01*
X36572373Y20737443D01*
X36572373Y20737445D01*
X36493732Y20891788D01*
X36391914Y21031928D01*
X36269428Y21154414D01*
X36129288Y21256232D01*
X36129287Y21256233D01*
X36129285Y21256234D01*
X35974941Y21334875D01*
X35974938Y21334877D01*
X35810206Y21388402D01*
X35810202Y21388403D01*
X35639114Y21415500D01*
X35639111Y21415500D01*
X35465889Y21415500D01*
X35465886Y21415500D01*
X35294797Y21388403D01*
X35294793Y21388402D01*
X35130061Y21334877D01*
X35130058Y21334875D01*
X34975714Y21256234D01*
X34835573Y21154415D01*
X34713085Y21031927D01*
X34611266Y20891786D01*
X34532625Y20737442D01*
X34532623Y20737439D01*
X34479098Y20572707D01*
X34479097Y20572703D01*
X34452000Y20401615D01*
X34128000Y20401615D01*
X34100902Y20572703D01*
X34100901Y20572707D01*
X34047376Y20737439D01*
X34047374Y20737442D01*
X34047373Y20737443D01*
X34047373Y20737445D01*
X33968732Y20891788D01*
X33866914Y21031928D01*
X33744428Y21154414D01*
X33604288Y21256232D01*
X33604287Y21256233D01*
X33604285Y21256234D01*
X33449941Y21334875D01*
X33373611Y21359677D01*
X33324112Y21395641D01*
X33305205Y21453832D01*
X33324113Y21512023D01*
X33373613Y21547986D01*
X33545713Y21603904D01*
X33735052Y21700376D01*
X33906964Y21825278D01*
X34057222Y21975536D01*
X34182124Y22147448D01*
X34278595Y22336785D01*
X34344258Y22538878D01*
X34354731Y22605000D01*
X33460512Y22605000D01*
X33493425Y22662007D01*
X33527500Y22789174D01*
X33527500Y22920826D01*
X33493425Y23047993D01*
X33460512Y23105000D01*
X34354731Y23105000D01*
X34354731Y23105001D01*
X34344258Y23171123D01*
X34278595Y23373216D01*
X34182124Y23562553D01*
X34057222Y23734465D01*
X33906964Y23884723D01*
X33735052Y24009625D01*
X33545715Y24106096D01*
X33343620Y24171760D01*
X33277500Y24182233D01*
X33277500Y23288012D01*
X33220493Y23320925D01*
X33093326Y23355000D01*
X32961674Y23355000D01*
X32834507Y23320925D01*
X32777500Y23288012D01*
X32777500Y24182232D01*
X32777499Y24182233D01*
X32711380Y24171760D01*
X32711378Y24171760D01*
X32509284Y24106096D01*
X32319947Y24009625D01*
X32148035Y23884723D01*
X31997777Y23734465D01*
X31872875Y23562552D01*
X31845710Y23509236D01*
X31802445Y23465971D01*
X31742013Y23456400D01*
X31687496Y23484178D01*
X31669290Y23509236D01*
X31642124Y23562552D01*
X31517222Y23734465D01*
X31366964Y23884723D01*
X31195052Y24009625D01*
X31005715Y24106096D01*
X30803620Y24171760D01*
X30737500Y24182233D01*
X30737500Y23288012D01*
X30680493Y23320925D01*
X30553326Y23355000D01*
X30421674Y23355000D01*
X30294507Y23320925D01*
X30237500Y23288012D01*
X30237500Y24182232D01*
X30237499Y24182233D01*
X30171380Y24171760D01*
X30171378Y24171760D01*
X29969284Y24106096D01*
X29779947Y24009625D01*
X29608035Y23884723D01*
X29457777Y23734465D01*
X29332875Y23562552D01*
X29305710Y23509236D01*
X29262445Y23465971D01*
X29202013Y23456400D01*
X29147496Y23484178D01*
X29129290Y23509236D01*
X29102124Y23562552D01*
X28977222Y23734465D01*
X28826964Y23884723D01*
X28655052Y24009625D01*
X28465715Y24106096D01*
X28263620Y24171760D01*
X28197500Y24182233D01*
X28197500Y23288012D01*
X28140493Y23320925D01*
X28013326Y23355000D01*
X27881674Y23355000D01*
X27754507Y23320925D01*
X27697500Y23288012D01*
X27697500Y24182232D01*
X27697499Y24182233D01*
X27631380Y24171760D01*
X27631378Y24171760D01*
X27429284Y24106096D01*
X27239947Y24009625D01*
X27068035Y23884723D01*
X26917777Y23734465D01*
X26792875Y23562552D01*
X26765710Y23509236D01*
X26722445Y23465971D01*
X26662013Y23456400D01*
X26607496Y23484178D01*
X26589290Y23509236D01*
X26562124Y23562552D01*
X26437222Y23734465D01*
X26286964Y23884723D01*
X26115052Y24009625D01*
X25925715Y24106096D01*
X25723620Y24171760D01*
X25657500Y24182233D01*
X25657500Y23288012D01*
X25600493Y23320925D01*
X25473326Y23355000D01*
X25341674Y23355000D01*
X25214507Y23320925D01*
X25157500Y23288012D01*
X25157500Y24182232D01*
X25157499Y24182233D01*
X25091380Y24171760D01*
X25091378Y24171760D01*
X24889284Y24106096D01*
X24699947Y24009625D01*
X24528035Y23884723D01*
X24377777Y23734465D01*
X24252875Y23562552D01*
X24225710Y23509236D01*
X24182445Y23465971D01*
X24122013Y23456400D01*
X24067496Y23484178D01*
X24049290Y23509236D01*
X24022124Y23562552D01*
X23897222Y23734465D01*
X23746964Y23884723D01*
X23575052Y24009625D01*
X23385715Y24106096D01*
X23183620Y24171760D01*
X23117500Y24182233D01*
X23117500Y23288012D01*
X23060493Y23320925D01*
X22933326Y23355000D01*
X22801674Y23355000D01*
X22674507Y23320925D01*
X22617500Y23288012D01*
X22617500Y24182232D01*
X22617499Y24182233D01*
X22551380Y24171760D01*
X22551378Y24171760D01*
X22349284Y24106096D01*
X22159947Y24009625D01*
X21988035Y23884723D01*
X21837777Y23734465D01*
X21712875Y23562552D01*
X21685710Y23509236D01*
X21642445Y23465971D01*
X21582013Y23456400D01*
X21527496Y23484178D01*
X21509290Y23509236D01*
X21482124Y23562552D01*
X21357222Y23734465D01*
X21206964Y23884723D01*
X21035052Y24009625D01*
X20845715Y24106096D01*
X20643620Y24171760D01*
X20577500Y24182233D01*
X20577500Y23288012D01*
X20520493Y23320925D01*
X20393326Y23355000D01*
X20261674Y23355000D01*
X20134507Y23320925D01*
X20077500Y23288012D01*
X20077500Y24182232D01*
X20077499Y24182233D01*
X20011380Y24171760D01*
X20011378Y24171760D01*
X19809284Y24106096D01*
X19619947Y24009625D01*
X19448035Y23884723D01*
X19297777Y23734465D01*
X19172875Y23562552D01*
X19145710Y23509236D01*
X19102445Y23465971D01*
X19042013Y23456400D01*
X18987496Y23484178D01*
X18969290Y23509236D01*
X18942124Y23562552D01*
X18817222Y23734465D01*
X18666964Y23884723D01*
X18495052Y24009625D01*
X18305715Y24106096D01*
X18103620Y24171760D01*
X18037500Y24182233D01*
X18037500Y23288012D01*
X17980493Y23320925D01*
X17853326Y23355000D01*
X17721674Y23355000D01*
X17594507Y23320925D01*
X17537500Y23288012D01*
X17537500Y24182232D01*
X17537499Y24182233D01*
X17471380Y24171760D01*
X17471378Y24171760D01*
X17269284Y24106096D01*
X17079947Y24009625D01*
X16908031Y23884720D01*
X16761158Y23737847D01*
X16706642Y23710070D01*
X16646210Y23719642D01*
X16602945Y23762906D01*
X16592722Y23797269D01*
X16591098Y23812371D01*
X16591096Y23812382D01*
X16540853Y23947089D01*
X16540852Y23947091D01*
X16454692Y24062185D01*
X16454684Y24062193D01*
X16339590Y24148353D01*
X16339588Y24148354D01*
X16204881Y24198597D01*
X16204870Y24198599D01*
X16145324Y24205000D01*
X15497501Y24205000D01*
X15497500Y24204999D01*
X15497500Y23288012D01*
X15440493Y23320925D01*
X15313326Y23355000D01*
X15181674Y23355000D01*
X15054507Y23320925D01*
X14997500Y23288012D01*
X14997500Y24204999D01*
X14997499Y24205000D01*
X14349676Y24205000D01*
X14290129Y24198599D01*
X14290118Y24198597D01*
X14155411Y24148354D01*
X14155409Y24148353D01*
X14040315Y24062193D01*
X14040307Y24062185D01*
X13954147Y23947091D01*
X13954146Y23947089D01*
X13903903Y23812382D01*
X13903901Y23812371D01*
X13897500Y23752825D01*
X13897500Y23105001D01*
X13897501Y23105000D01*
X14814488Y23105000D01*
X14781575Y23047993D01*
X14747500Y22920826D01*
X14747500Y22789174D01*
X14781575Y22662007D01*
X14814488Y22605000D01*
X13897501Y22605000D01*
X13897500Y22604999D01*
X13897500Y21957176D01*
X13897499Y21957176D01*
X11770915Y21957176D01*
X11815724Y22034788D01*
X11908554Y22258900D01*
X11971338Y22493211D01*
X12003000Y22733712D01*
X12003000Y22976288D01*
X11971338Y23216789D01*
X11908554Y23451100D01*
X11856435Y23576927D01*
X11815726Y23675209D01*
X11815723Y23675214D01*
X11797962Y23705976D01*
X11694436Y23885289D01*
X11599030Y24009625D01*
X11546770Y24077732D01*
X11546768Y24077734D01*
X11546765Y24077738D01*
X11375238Y24249265D01*
X11375233Y24249269D01*
X11375231Y24249271D01*
X11182792Y24396934D01*
X11182789Y24396936D01*
X11091432Y24449681D01*
X11050492Y24495150D01*
X11044096Y24556000D01*
X11074689Y24608988D01*
X11130585Y24633875D01*
X11141022Y24634416D01*
X37050763Y24603571D01*
X37108927Y24584595D01*
X37144832Y24535053D01*
X37144759Y24473867D01*
X37108736Y24424410D01*
X37100142Y24418836D01*
X37062210Y24396936D01*
X36869768Y24249271D01*
X36698229Y24077732D01*
X36550566Y23885293D01*
X36429272Y23675205D01*
X36336448Y23451106D01*
X36336444Y23451093D01*
X36273661Y23216787D01*
X36273661Y23216782D01*
X36242000Y22976290D01*
X36242000Y22733711D01*
X36273661Y22493219D01*
X36273661Y22493214D01*
X36336444Y22258908D01*
X36336448Y22258895D01*
X36429272Y22034796D01*
X36429274Y22034792D01*
X36429276Y22034788D01*
X36550237Y21825278D01*
X36550566Y21824708D01*
X36698229Y21632269D01*
X36698231Y21632267D01*
X36698235Y21632262D01*
X36869762Y21460735D01*
X36869766Y21460732D01*
X36869768Y21460730D01*
X37027270Y21339875D01*
X37062211Y21313064D01*
X37272288Y21191776D01*
X37272294Y21191774D01*
X37272295Y21191773D01*
X37277365Y21189673D01*
X37496400Y21098946D01*
X37730711Y21036162D01*
X37971212Y21004500D01*
X37971213Y21004500D01*
X38213787Y21004500D01*
X38213788Y21004500D01*
X38454289Y21036162D01*
X38688600Y21098946D01*
X38912712Y21191776D01*
X39122789Y21313064D01*
X39315238Y21460735D01*
X39486765Y21632262D01*
X39634436Y21824711D01*
X39755724Y22034788D01*
X39841536Y22241959D01*
X39881272Y22288484D01*
X39940767Y22302768D01*
X39997295Y22279354D01*
X40029265Y22227185D01*
X40032000Y22204073D01*
X40032000Y645928D01*
X40013093Y587737D01*
X39963593Y551773D01*
X39902407Y551773D01*
X39852907Y587737D01*
X39841536Y608043D01*
X39755727Y815205D01*
X39755726Y815206D01*
X39755724Y815212D01*
X39634436Y1025289D01*
X39630360Y1030601D01*
X39486770Y1217732D01*
X39486768Y1217734D01*
X39486765Y1217738D01*
X39315238Y1389265D01*
X39315233Y1389269D01*
X39315231Y1389271D01*
X39122792Y1536934D01*
X39122789Y1536936D01*
X38912712Y1658224D01*
X38912708Y1658226D01*
X38912704Y1658228D01*
X38688605Y1751052D01*
X38688604Y1751053D01*
X38688600Y1751054D01*
X38454289Y1813838D01*
X38454286Y1813839D01*
X38454284Y1813839D01*
X38213789Y1845500D01*
X38213788Y1845500D01*
X37971212Y1845500D01*
X37971210Y1845500D01*
X37730718Y1813839D01*
X37730713Y1813839D01*
X37496407Y1751056D01*
X37496394Y1751052D01*
X37272295Y1658228D01*
X37062207Y1536934D01*
X36869768Y1389271D01*
X36698229Y1217732D01*
X36550566Y1025293D01*
X36429272Y815205D01*
X36336448Y591106D01*
X36336444Y591093D01*
X36273661Y356787D01*
X36273661Y356782D01*
X36242000Y116290D01*
X36242000Y-126289D01*
X36273661Y-366781D01*
X36273661Y-366786D01*
X36336444Y-601092D01*
X36336448Y-601105D01*
X36429272Y-825204D01*
X36429274Y-825208D01*
X36429276Y-825212D01*
X36547858Y-1030602D01*
X36550566Y-1035292D01*
X36698229Y-1227731D01*
X36698231Y-1227733D01*
X36698235Y-1227738D01*
X36869762Y-1399265D01*
X36869766Y-1399268D01*
X36869768Y-1399270D01*
X36990570Y-1491964D01*
X37062211Y-1546936D01*
X37180559Y-1615264D01*
X37221499Y-1660733D01*
X37227895Y-1721583D01*
X37197302Y-1774571D01*
X37141406Y-1799458D01*
X37131058Y-1800000D01*
X12881242Y-1800000D01*
X12823051Y-1781093D01*
X12787087Y-1731593D01*
X12787087Y-1670407D01*
X12823051Y-1620907D01*
X12831732Y-1615269D01*
X12891964Y-1580495D01*
X12980495Y-1491964D01*
X13043095Y-1383536D01*
X13075500Y-1262601D01*
X13075500Y-1137399D01*
X13043095Y-1016464D01*
X12980495Y-908036D01*
X12980492Y-908033D01*
X12980491Y-908031D01*
X12979490Y-907030D01*
X12979028Y-906123D01*
X12976544Y-902886D01*
X12977144Y-902425D01*
X12951717Y-852511D01*
X12950500Y-837033D01*
X12950500Y613810D01*
X12952968Y621408D01*
X12951719Y629297D01*
X12962243Y649953D01*
X12969407Y672001D01*
X12979496Y683814D01*
X13086186Y790504D01*
X13140703Y818281D01*
X13156190Y819500D01*
X14048000Y819500D01*
X14106191Y800593D01*
X14142155Y751093D01*
X14147000Y720500D01*
X14147000Y-879672D01*
X14147001Y-879684D01*
X14161533Y-952736D01*
X14161535Y-952742D01*
X14216897Y-1035599D01*
X14216900Y-1035602D01*
X14257308Y-1062601D01*
X14299760Y-1090966D01*
X14347680Y-1100498D01*
X14372815Y-1105498D01*
X14372820Y-1105498D01*
X14372826Y-1105500D01*
X14372827Y-1105500D01*
X16122173Y-1105500D01*
X16122174Y-1105500D01*
X16195240Y-1090966D01*
X16278101Y-1035601D01*
X16333466Y-952740D01*
X16348000Y-879674D01*
X16348000Y720500D01*
X16366907Y778691D01*
X16416407Y814655D01*
X16447000Y819500D01*
X16831943Y819500D01*
X16890134Y800593D01*
X16926098Y751093D01*
X16926098Y689907D01*
X16912037Y662311D01*
X16900134Y645928D01*
X16846266Y571786D01*
X16767625Y417442D01*
X16767623Y417439D01*
X16714098Y252707D01*
X16714097Y252703D01*
X16687000Y81615D01*
X16687000Y-91614D01*
X16714097Y-262702D01*
X16714098Y-262706D01*
X16767623Y-427438D01*
X16767625Y-427441D01*
X16843718Y-576785D01*
X16846268Y-581788D01*
X16948086Y-721928D01*
X17070572Y-844414D01*
X17210712Y-946232D01*
X17365055Y-1024873D01*
X17365057Y-1024873D01*
X17365058Y-1024874D01*
X17365061Y-1024876D01*
X17529793Y-1078401D01*
X17529797Y-1078402D01*
X17700886Y-1105500D01*
X17700889Y-1105500D01*
X17874114Y-1105500D01*
X18045202Y-1078402D01*
X18045206Y-1078401D01*
X18209938Y-1024876D01*
X18209940Y-1024874D01*
X18209945Y-1024873D01*
X18364288Y-946232D01*
X18504428Y-844414D01*
X18626914Y-721928D01*
X18728732Y-581788D01*
X18807373Y-427445D01*
X18807374Y-427440D01*
X18807376Y-427438D01*
X18860901Y-262706D01*
X18860902Y-262702D01*
X18888000Y-91614D01*
X18888000Y81615D01*
X18860902Y252703D01*
X18860901Y252707D01*
X18807376Y417439D01*
X18807374Y417442D01*
X18807373Y417443D01*
X18807373Y417445D01*
X18728732Y571788D01*
X18662963Y662311D01*
X18644057Y720500D01*
X18662964Y778691D01*
X18712464Y814655D01*
X18743057Y819500D01*
X19371943Y819500D01*
X19430134Y800593D01*
X19466098Y751093D01*
X19466098Y689907D01*
X19452037Y662311D01*
X19440134Y645928D01*
X19386266Y571786D01*
X19307625Y417442D01*
X19307623Y417439D01*
X19254098Y252707D01*
X19254097Y252703D01*
X19227000Y81615D01*
X19227000Y-91614D01*
X19254097Y-262702D01*
X19254098Y-262706D01*
X19307623Y-427438D01*
X19307625Y-427441D01*
X19383718Y-576785D01*
X19386268Y-581788D01*
X19488086Y-721928D01*
X19610572Y-844414D01*
X19750712Y-946232D01*
X19905055Y-1024873D01*
X19905057Y-1024873D01*
X19905058Y-1024874D01*
X19905061Y-1024876D01*
X20069793Y-1078401D01*
X20069797Y-1078402D01*
X20240886Y-1105500D01*
X20240889Y-1105500D01*
X20414114Y-1105500D01*
X20585202Y-1078402D01*
X20585206Y-1078401D01*
X20749938Y-1024876D01*
X20749940Y-1024874D01*
X20749945Y-1024873D01*
X20904288Y-946232D01*
X21044428Y-844414D01*
X21166914Y-721928D01*
X21268732Y-581788D01*
X21347373Y-427445D01*
X21347374Y-427440D01*
X21347376Y-427438D01*
X21400901Y-262706D01*
X21400902Y-262702D01*
X21428000Y-91614D01*
X21428000Y81615D01*
X21400902Y252703D01*
X21400901Y252707D01*
X21347376Y417439D01*
X21347374Y417442D01*
X21347373Y417443D01*
X21347373Y417445D01*
X21268732Y571788D01*
X21202963Y662311D01*
X21184057Y720500D01*
X21202964Y778691D01*
X21252464Y814655D01*
X21283057Y819500D01*
X21911943Y819500D01*
X21970134Y800593D01*
X22006098Y751093D01*
X22006098Y689907D01*
X21992037Y662311D01*
X21980134Y645928D01*
X21926266Y571786D01*
X21847625Y417442D01*
X21847623Y417439D01*
X21794098Y252707D01*
X21794097Y252703D01*
X21767000Y81615D01*
X21767000Y-91614D01*
X21794097Y-262702D01*
X21794098Y-262706D01*
X21847623Y-427438D01*
X21847625Y-427441D01*
X21923718Y-576785D01*
X21926268Y-581788D01*
X22028086Y-721928D01*
X22150572Y-844414D01*
X22290712Y-946232D01*
X22445055Y-1024873D01*
X22445057Y-1024873D01*
X22445058Y-1024874D01*
X22445061Y-1024876D01*
X22609793Y-1078401D01*
X22609797Y-1078402D01*
X22780886Y-1105500D01*
X22780889Y-1105500D01*
X22954114Y-1105500D01*
X23125202Y-1078402D01*
X23125206Y-1078401D01*
X23289938Y-1024876D01*
X23289940Y-1024874D01*
X23289945Y-1024873D01*
X23444288Y-946232D01*
X23584428Y-844414D01*
X23706914Y-721928D01*
X23808732Y-581788D01*
X23887373Y-427445D01*
X23887374Y-427440D01*
X23887376Y-427438D01*
X23940901Y-262706D01*
X23940902Y-262702D01*
X23968000Y-91614D01*
X23968000Y81615D01*
X23940902Y252703D01*
X23940901Y252707D01*
X23887376Y417439D01*
X23887374Y417442D01*
X23887373Y417443D01*
X23887373Y417445D01*
X23823337Y543124D01*
X23813766Y603556D01*
X23841544Y658073D01*
X23896060Y685850D01*
X23911547Y687069D01*
X24363453Y687069D01*
X24421644Y668162D01*
X24457608Y618662D01*
X24457608Y557476D01*
X24451663Y543124D01*
X24387625Y417442D01*
X24387623Y417439D01*
X24334098Y252707D01*
X24334097Y252703D01*
X24307000Y81615D01*
X24307000Y-91614D01*
X24334097Y-262702D01*
X24334098Y-262706D01*
X24387623Y-427438D01*
X24387625Y-427441D01*
X24463718Y-576785D01*
X24466268Y-581788D01*
X24568086Y-721928D01*
X24690572Y-844414D01*
X24830712Y-946232D01*
X24985055Y-1024873D01*
X24985057Y-1024873D01*
X24985058Y-1024874D01*
X24985061Y-1024876D01*
X25149793Y-1078401D01*
X25149797Y-1078402D01*
X25320886Y-1105500D01*
X25320889Y-1105500D01*
X25494114Y-1105500D01*
X25665202Y-1078402D01*
X25665206Y-1078401D01*
X25829938Y-1024876D01*
X25829940Y-1024874D01*
X25829945Y-1024873D01*
X25984288Y-946232D01*
X26124428Y-844414D01*
X26246914Y-721928D01*
X26348732Y-581788D01*
X26427373Y-427445D01*
X26427374Y-427440D01*
X26427376Y-427438D01*
X26480901Y-262706D01*
X26480902Y-262702D01*
X26508000Y-91614D01*
X26508000Y81615D01*
X26480902Y252703D01*
X26480901Y252707D01*
X26427376Y417439D01*
X26427374Y417442D01*
X26427373Y417443D01*
X26427373Y417445D01*
X26348732Y571788D01*
X26282963Y662311D01*
X26264057Y720500D01*
X26282964Y778691D01*
X26332464Y814655D01*
X26363057Y819500D01*
X26991943Y819500D01*
X27050134Y800593D01*
X27086098Y751093D01*
X27086098Y689907D01*
X27072037Y662311D01*
X27060134Y645928D01*
X27006266Y571786D01*
X26927625Y417442D01*
X26927623Y417439D01*
X26874098Y252707D01*
X26874097Y252703D01*
X26847000Y81615D01*
X26847000Y-91614D01*
X26874097Y-262702D01*
X26874098Y-262706D01*
X26927623Y-427438D01*
X26927625Y-427441D01*
X27003718Y-576785D01*
X27006268Y-581788D01*
X27108086Y-721928D01*
X27230572Y-844414D01*
X27370712Y-946232D01*
X27525055Y-1024873D01*
X27525057Y-1024873D01*
X27525058Y-1024874D01*
X27525061Y-1024876D01*
X27689793Y-1078401D01*
X27689797Y-1078402D01*
X27860886Y-1105500D01*
X27860889Y-1105500D01*
X28034114Y-1105500D01*
X28205202Y-1078402D01*
X28205206Y-1078401D01*
X28369938Y-1024876D01*
X28369940Y-1024874D01*
X28369945Y-1024873D01*
X28524288Y-946232D01*
X28664428Y-844414D01*
X28786914Y-721928D01*
X28888732Y-581788D01*
X28967373Y-427445D01*
X28967374Y-427440D01*
X28967376Y-427438D01*
X29020901Y-262706D01*
X29020902Y-262702D01*
X29048000Y-91614D01*
X29048000Y81615D01*
X29020902Y252703D01*
X29020901Y252707D01*
X28967376Y417439D01*
X28967374Y417442D01*
X28967373Y417443D01*
X28967373Y417445D01*
X28888732Y571788D01*
X28822963Y662311D01*
X28804057Y720500D01*
X28822964Y778691D01*
X28872464Y814655D01*
X28903057Y819500D01*
X29531943Y819500D01*
X29590134Y800593D01*
X29626098Y751093D01*
X29626098Y689907D01*
X29612037Y662311D01*
X29600134Y645928D01*
X29546266Y571786D01*
X29467625Y417442D01*
X29467623Y417439D01*
X29414098Y252707D01*
X29414097Y252703D01*
X29387000Y81615D01*
X29387000Y-91614D01*
X29414097Y-262702D01*
X29414098Y-262706D01*
X29467623Y-427438D01*
X29467625Y-427441D01*
X29543718Y-576785D01*
X29546268Y-581788D01*
X29648086Y-721928D01*
X29770572Y-844414D01*
X29910712Y-946232D01*
X30065055Y-1024873D01*
X30065057Y-1024873D01*
X30065058Y-1024874D01*
X30065061Y-1024876D01*
X30229793Y-1078401D01*
X30229797Y-1078402D01*
X30400886Y-1105500D01*
X30400889Y-1105500D01*
X30574114Y-1105500D01*
X30745202Y-1078402D01*
X30745206Y-1078401D01*
X30909938Y-1024876D01*
X30909940Y-1024874D01*
X30909945Y-1024873D01*
X31064288Y-946232D01*
X31204428Y-844414D01*
X31326914Y-721928D01*
X31428732Y-581788D01*
X31507373Y-427445D01*
X31507374Y-427440D01*
X31507376Y-427438D01*
X31560901Y-262706D01*
X31560902Y-262702D01*
X31588000Y-91614D01*
X31588000Y81615D01*
X31560902Y252703D01*
X31560901Y252707D01*
X31507376Y417439D01*
X31507374Y417442D01*
X31507373Y417443D01*
X31507373Y417445D01*
X31428732Y571788D01*
X31362963Y662311D01*
X31344057Y720500D01*
X31362964Y778691D01*
X31412464Y814655D01*
X31443057Y819500D01*
X31666310Y819500D01*
X31724501Y800593D01*
X31736314Y790504D01*
X31991109Y535709D01*
X32018886Y481192D01*
X32009320Y420771D01*
X32007630Y417454D01*
X32007623Y417439D01*
X31954098Y252707D01*
X31954097Y252703D01*
X31927000Y81615D01*
X31927000Y-91614D01*
X31954097Y-262702D01*
X31954098Y-262706D01*
X32007623Y-427438D01*
X32007625Y-427441D01*
X32083718Y-576785D01*
X32086268Y-581788D01*
X32188086Y-721928D01*
X32310572Y-844414D01*
X32450712Y-946232D01*
X32605055Y-1024873D01*
X32605057Y-1024873D01*
X32605058Y-1024874D01*
X32605061Y-1024876D01*
X32769793Y-1078401D01*
X32769797Y-1078402D01*
X32940886Y-1105500D01*
X32940889Y-1105500D01*
X33114114Y-1105500D01*
X33285202Y-1078402D01*
X33285206Y-1078401D01*
X33449938Y-1024876D01*
X33449940Y-1024874D01*
X33449945Y-1024873D01*
X33604288Y-946232D01*
X33744428Y-844414D01*
X33866914Y-721928D01*
X33968732Y-581788D01*
X34047373Y-427445D01*
X34047374Y-427440D01*
X34047376Y-427438D01*
X34100901Y-262706D01*
X34100902Y-262702D01*
X34128000Y-91614D01*
X34128000Y81615D01*
X34100902Y252703D01*
X34100901Y252707D01*
X34047376Y417439D01*
X34047374Y417442D01*
X34047373Y417443D01*
X34047373Y417445D01*
X33968732Y571788D01*
X33866914Y711928D01*
X33744428Y834414D01*
X33604288Y936232D01*
X33604287Y936233D01*
X33604285Y936234D01*
X33449941Y1014875D01*
X33449938Y1014877D01*
X33322309Y1056346D01*
X33272809Y1092310D01*
X33253902Y1150500D01*
X33272810Y1208691D01*
X33322310Y1244655D01*
X33352902Y1249500D01*
X34954106Y1249500D01*
X34954107Y1249500D01*
X35014529Y1261519D01*
X35074952Y1273537D01*
X35108292Y1287348D01*
X35188786Y1320688D01*
X35253879Y1364183D01*
X35291233Y1389142D01*
X35378358Y1476267D01*
X35378360Y1476271D01*
X37385286Y3483197D01*
X37439802Y3510973D01*
X37500234Y3501402D01*
X37543499Y3458137D01*
X37550915Y3438817D01*
X37555822Y3420504D01*
X37556905Y3416464D01*
X37619505Y3308036D01*
X37708036Y3219505D01*
X37816464Y3156905D01*
X37937399Y3124500D01*
X37937401Y3124500D01*
X38062599Y3124500D01*
X38062601Y3124500D01*
X38183536Y3156905D01*
X38291964Y3219505D01*
X38380495Y3308036D01*
X38443095Y3416464D01*
X38475500Y3537399D01*
X38475500Y3662601D01*
X38443095Y3783536D01*
X38383536Y3886697D01*
X38370816Y3946542D01*
X38395703Y4002437D01*
X38438680Y4030347D01*
X38514945Y4055127D01*
X38669288Y4133768D01*
X38809428Y4235586D01*
X38931914Y4358072D01*
X39033732Y4498212D01*
X39112373Y4652555D01*
X39112374Y4652560D01*
X39112376Y4652562D01*
X39165901Y4817294D01*
X39165902Y4817298D01*
X39193000Y4988386D01*
X39193000Y5161615D01*
X39165902Y5332703D01*
X39165901Y5332707D01*
X39112376Y5497439D01*
X39112374Y5497442D01*
X39112373Y5497443D01*
X39112373Y5497445D01*
X39033732Y5651788D01*
X38931914Y5791928D01*
X38809428Y5914414D01*
X38669288Y6016232D01*
X38669287Y6016233D01*
X38669285Y6016234D01*
X38514941Y6094875D01*
X38514938Y6094877D01*
X38350206Y6148402D01*
X38350202Y6148403D01*
X38179114Y6175500D01*
X38179111Y6175500D01*
X38005889Y6175500D01*
X38005886Y6175500D01*
X37834797Y6148403D01*
X37834793Y6148402D01*
X37670061Y6094877D01*
X37670058Y6094875D01*
X37515714Y6016234D01*
X37375573Y5914415D01*
X37253085Y5791927D01*
X37151266Y5651786D01*
X37072625Y5497442D01*
X37072623Y5497439D01*
X37019098Y5332707D01*
X37019097Y5332703D01*
X36992000Y5161615D01*
X36992000Y4988386D01*
X37001787Y4926592D01*
X36992216Y4866160D01*
X36974010Y4841102D01*
X36710017Y4577108D01*
X36710017Y4577107D01*
X34662406Y2529496D01*
X34607889Y2501719D01*
X34592402Y2500500D01*
X15623966Y2500500D01*
X15565775Y2519407D01*
X15529811Y2568907D01*
X15529811Y2630093D01*
X15538224Y2648991D01*
X15577180Y2716464D01*
X15609585Y2837399D01*
X15609585Y2962601D01*
X15577180Y3083536D01*
X15514580Y3191964D01*
X15426049Y3280495D01*
X15317621Y3343095D01*
X15196686Y3375500D01*
X15071484Y3375500D01*
X14993758Y3354673D01*
X14950548Y3343095D01*
X14842121Y3280495D01*
X14753590Y3191964D01*
X14690990Y3083537D01*
X14690990Y3083536D01*
X14658585Y2962601D01*
X14658585Y2837399D01*
X14690990Y2716464D01*
X14729941Y2648997D01*
X14742662Y2589152D01*
X14717775Y2533256D01*
X14664787Y2502663D01*
X14644204Y2500500D01*
X14100098Y2500500D01*
X14092500Y2502969D01*
X14084611Y2501719D01*
X14063955Y2512244D01*
X14041907Y2519407D01*
X14030094Y2529496D01*
X13990860Y2568730D01*
X13990858Y2568733D01*
X13903735Y2655857D01*
X13857511Y2686743D01*
X13857509Y2686744D01*
X13852509Y2690085D01*
X13801286Y2724312D01*
X13703750Y2764712D01*
X13700322Y2766132D01*
X13700314Y2766136D01*
X13687455Y2771462D01*
X13687449Y2771464D01*
X13627029Y2783482D01*
X13627029Y2783483D01*
X13566611Y2795500D01*
X13566607Y2795500D01*
X13566606Y2795500D01*
X12767725Y2795500D01*
X12709534Y2814407D01*
X12673570Y2863907D01*
X12672099Y2920124D01*
X12682086Y2957397D01*
X12682087Y2957399D01*
X12682087Y3082599D01*
X12682087Y3082601D01*
X12649682Y3203536D01*
X12587082Y3311964D01*
X12498551Y3400495D01*
X12390123Y3463095D01*
X12269188Y3495500D01*
X12143986Y3495500D01*
X12063362Y3473897D01*
X12023050Y3463095D01*
X11914623Y3400495D01*
X11826092Y3311964D01*
X11763492Y3203537D01*
X11763492Y3203536D01*
X11731087Y3082601D01*
X11731087Y3082599D01*
X11731087Y2957397D01*
X11741075Y2920124D01*
X11737874Y2859023D01*
X11699369Y2811472D01*
X11645449Y2795500D01*
X8584780Y2795500D01*
X8526589Y2814407D01*
X8514777Y2824496D01*
X8098046Y3241226D01*
X8085734Y3256228D01*
X8069519Y3280495D01*
X8019958Y3354669D01*
X7929351Y3445276D01*
X7872600Y3483196D01*
X7822815Y3516462D01*
X7822807Y3516466D01*
X7704429Y3565500D01*
X7704427Y3565501D01*
X7704426Y3565501D01*
X7578751Y3590500D01*
X7450613Y3590500D01*
X7450612Y3590500D01*
X7437758Y3587943D01*
X7324938Y3565501D01*
X7324937Y3565501D01*
X7324934Y3565500D01*
X7206556Y3516466D01*
X7206548Y3516462D01*
X7100013Y3445276D01*
X7100009Y3445273D01*
X7009409Y3354673D01*
X7009406Y3354669D01*
X6938220Y3248134D01*
X6938216Y3248126D01*
X6889182Y3129748D01*
X6889181Y3129745D01*
X6889181Y3129744D01*
X6864182Y3004069D01*
X6864182Y2875931D01*
X6886305Y2764712D01*
X6889181Y2750258D01*
X6889182Y2750253D01*
X6938216Y2631875D01*
X6938220Y2631867D01*
X6954144Y2608036D01*
X7009406Y2525331D01*
X7100013Y2434724D01*
X7198451Y2368950D01*
X7213452Y2356640D01*
X7885948Y1684143D01*
X7988396Y1615689D01*
X8102230Y1568537D01*
X8223075Y1544500D01*
X8223076Y1544500D01*
X8845990Y1544500D01*
X8904181Y1525593D01*
X8940145Y1476093D01*
X8940145Y1414907D01*
X8915995Y1375499D01*
X8830117Y1289620D01*
X8758229Y1217732D01*
X8610566Y1025293D01*
X8489272Y815205D01*
X8396448Y591106D01*
X8396444Y591093D01*
X8333661Y356787D01*
X8333661Y356782D01*
X8302000Y116290D01*
X8302000Y-126289D01*
X8333661Y-366781D01*
X8333661Y-366786D01*
X8396444Y-601092D01*
X8396448Y-601105D01*
X8489272Y-825204D01*
X8489274Y-825208D01*
X8489276Y-825212D01*
X8607858Y-1030602D01*
X8610566Y-1035292D01*
X8758229Y-1227731D01*
X8758231Y-1227733D01*
X8758235Y-1227738D01*
X8929762Y-1399265D01*
X8929766Y-1399268D01*
X8929768Y-1399270D01*
X9050570Y-1491964D01*
X9122211Y-1546936D01*
X9240559Y-1615264D01*
X9281499Y-1660733D01*
X9287895Y-1721583D01*
X9257302Y-1774571D01*
X9201406Y-1799458D01*
X9191058Y-1800000D01*
X-1851000Y-1800000D01*
X-1909191Y-1781093D01*
X-1945155Y-1731593D01*
X-1950000Y-1701000D01*
X-1950000Y86615D01*
X-1103000Y86615D01*
X-1103000Y-86614D01*
X-1075903Y-257702D01*
X-1075902Y-257706D01*
X-1022377Y-422438D01*
X-1022375Y-422441D01*
X-946419Y-571516D01*
X-943732Y-576788D01*
X-841914Y-716928D01*
X-719428Y-839414D01*
X-579288Y-941232D01*
X-424945Y-1019873D01*
X-424943Y-1019873D01*
X-424942Y-1019874D01*
X-424939Y-1019876D01*
X-260207Y-1073401D01*
X-260203Y-1073402D01*
X-89114Y-1100500D01*
X-89111Y-1100500D01*
X84114Y-1100500D01*
X255202Y-1073402D01*
X255206Y-1073401D01*
X419938Y-1019876D01*
X419940Y-1019874D01*
X419945Y-1019873D01*
X574288Y-941232D01*
X714428Y-839414D01*
X836914Y-716928D01*
X938732Y-576788D01*
X1017373Y-422445D01*
X1017374Y-422440D01*
X1017376Y-422438D01*
X1070901Y-257706D01*
X1070902Y-257702D01*
X1098000Y-86614D01*
X1098000Y86615D01*
X1070902Y257703D01*
X1070901Y257707D01*
X1017376Y422439D01*
X1017374Y422442D01*
X1017373Y422443D01*
X1017373Y422445D01*
X938732Y576788D01*
X836914Y716928D01*
X714428Y839414D01*
X574288Y941232D01*
X574287Y941233D01*
X574285Y941234D01*
X419941Y1019875D01*
X419938Y1019877D01*
X255206Y1073402D01*
X255202Y1073403D01*
X84114Y1100500D01*
X84111Y1100500D01*
X-89111Y1100500D01*
X-89114Y1100500D01*
X-260203Y1073403D01*
X-260207Y1073402D01*
X-424939Y1019877D01*
X-424942Y1019875D01*
X-579286Y941234D01*
X-719427Y839415D01*
X-841915Y716927D01*
X-943734Y576786D01*
X-1022375Y422442D01*
X-1022377Y422439D01*
X-1075902Y257707D01*
X-1075903Y257703D01*
X-1103000Y86615D01*
X-1950000Y86615D01*
X-1950000Y2626615D01*
X-1103000Y2626615D01*
X-1103000Y2453386D01*
X-1075903Y2282298D01*
X-1075902Y2282294D01*
X-1022377Y2117562D01*
X-1022375Y2117559D01*
X-1022374Y2117556D01*
X-1022373Y2117555D01*
X-943732Y1963212D01*
X-841914Y1823072D01*
X-719428Y1700586D01*
X-579288Y1598768D01*
X-424945Y1520127D01*
X-424943Y1520127D01*
X-424942Y1520126D01*
X-424939Y1520124D01*
X-260207Y1466599D01*
X-260203Y1466598D01*
X-89114Y1439500D01*
X-89111Y1439500D01*
X84114Y1439500D01*
X255202Y1466598D01*
X255206Y1466599D01*
X419938Y1520124D01*
X419940Y1520126D01*
X419945Y1520127D01*
X574288Y1598768D01*
X714428Y1700586D01*
X836914Y1823072D01*
X938732Y1963212D01*
X1017373Y2117555D01*
X1017374Y2117560D01*
X1017376Y2117562D01*
X1070901Y2282294D01*
X1070902Y2282298D01*
X1098000Y2453386D01*
X1098000Y2626615D01*
X1070902Y2797703D01*
X1070901Y2797707D01*
X1017376Y2962437D01*
X1017373Y2962445D01*
X1015683Y2965762D01*
X1006112Y3026194D01*
X1033888Y3080708D01*
X1373686Y3420504D01*
X1428202Y3448281D01*
X1443689Y3449500D01*
X1651651Y3449500D01*
X1709842Y3430593D01*
X1745806Y3381093D01*
X1745806Y3319907D01*
X1721656Y3280499D01*
X1698086Y3256928D01*
X1698085Y3256927D01*
X1596266Y3116786D01*
X1517625Y2962442D01*
X1517623Y2962439D01*
X1464098Y2797707D01*
X1464097Y2797703D01*
X1437000Y2626615D01*
X1437000Y2453386D01*
X1464097Y2282298D01*
X1464098Y2282294D01*
X1517623Y2117562D01*
X1517625Y2117559D01*
X1517626Y2117556D01*
X1517627Y2117555D01*
X1596268Y1963212D01*
X1698086Y1823072D01*
X1820572Y1700586D01*
X1960712Y1598768D01*
X2115055Y1520127D01*
X2115057Y1520127D01*
X2115058Y1520126D01*
X2115061Y1520124D01*
X2279793Y1466599D01*
X2279797Y1466598D01*
X2450886Y1439500D01*
X2450889Y1439500D01*
X2624114Y1439500D01*
X2795202Y1466598D01*
X2795206Y1466599D01*
X2959938Y1520124D01*
X2959940Y1520126D01*
X2959945Y1520127D01*
X3114288Y1598768D01*
X3254428Y1700586D01*
X3376914Y1823072D01*
X3478732Y1963212D01*
X3557373Y2117555D01*
X3557374Y2117560D01*
X3557376Y2117562D01*
X3610901Y2282294D01*
X3610902Y2282298D01*
X3638000Y2453386D01*
X3638000Y2626615D01*
X3610902Y2797703D01*
X3610901Y2797707D01*
X3557376Y2962439D01*
X3557374Y2962442D01*
X3557373Y2962443D01*
X3557373Y2962445D01*
X3478732Y3116788D01*
X3376914Y3256928D01*
X3353343Y3280499D01*
X3325568Y3335013D01*
X3335139Y3395445D01*
X3378404Y3438710D01*
X3423349Y3449500D01*
X3746142Y3449500D01*
X3746144Y3449500D01*
X3835288Y3473386D01*
X3915212Y3519530D01*
X6616186Y6220504D01*
X6670703Y6248281D01*
X6686190Y6249500D01*
X6980496Y6249500D01*
X7038687Y6230593D01*
X7074651Y6181093D01*
X7074651Y6119907D01*
X7050500Y6080497D01*
X5619530Y4649527D01*
X5573386Y4569603D01*
X5555598Y4503215D01*
X5549500Y4480458D01*
X5549500Y4186190D01*
X5530593Y4127999D01*
X5520504Y4116186D01*
X5019529Y3615211D01*
X4990828Y3565501D01*
X4990829Y3565500D01*
X4973386Y3535290D01*
X4949500Y3446143D01*
X4949500Y1898690D01*
X4930593Y1840499D01*
X4920504Y1828686D01*
X3807004Y715186D01*
X3752487Y687409D01*
X3692055Y696980D01*
X3648790Y740245D01*
X3638000Y785190D01*
X3638000Y874673D01*
X3637998Y874685D01*
X3625943Y935288D01*
X3623466Y947740D01*
X3578609Y1014875D01*
X3568102Y1030600D01*
X3568099Y1030603D01*
X3485242Y1085965D01*
X3485240Y1085966D01*
X3485237Y1085967D01*
X3485236Y1085967D01*
X3412184Y1100499D01*
X3412174Y1100500D01*
X1662826Y1100500D01*
X1662825Y1100500D01*
X1662815Y1100499D01*
X1589763Y1085967D01*
X1589757Y1085965D01*
X1506900Y1030603D01*
X1506897Y1030600D01*
X1451535Y947743D01*
X1451534Y947741D01*
X1451534Y947740D01*
X1449449Y937262D01*
X1437001Y874685D01*
X1437000Y874673D01*
X1437000Y-874672D01*
X1437001Y-874684D01*
X1451533Y-947736D01*
X1451535Y-947742D01*
X1506897Y-1030599D01*
X1506900Y-1030602D01*
X1554787Y-1062598D01*
X1589760Y-1085966D01*
X1645308Y-1097015D01*
X1662815Y-1100498D01*
X1662820Y-1100498D01*
X1662826Y-1100500D01*
X1662827Y-1100500D01*
X3412173Y-1100500D01*
X3412174Y-1100500D01*
X3485240Y-1085966D01*
X3568101Y-1030601D01*
X3623466Y-947740D01*
X3625523Y-937399D01*
X5924500Y-937399D01*
X5924500Y-1062601D01*
X5956905Y-1183536D01*
X6019505Y-1291964D01*
X6108036Y-1380495D01*
X6216464Y-1443095D01*
X6337399Y-1475500D01*
X6337401Y-1475500D01*
X6462599Y-1475500D01*
X6462601Y-1475500D01*
X6583536Y-1443095D01*
X6691964Y-1380495D01*
X6780495Y-1291964D01*
X6843095Y-1183536D01*
X6875500Y-1062601D01*
X6875500Y-937399D01*
X6843095Y-816464D01*
X6780495Y-708036D01*
X6691964Y-619505D01*
X6583536Y-556905D01*
X6462601Y-524500D01*
X6337399Y-524500D01*
X6256775Y-546103D01*
X6216463Y-556905D01*
X6108036Y-619505D01*
X6019505Y-708036D01*
X5956905Y-816463D01*
X5956905Y-816464D01*
X5924500Y-937399D01*
X3625523Y-937399D01*
X3634440Y-892568D01*
X3637999Y-874681D01*
X3638000Y-874672D01*
X3638000Y-425298D01*
X3656907Y-367107D01*
X3706407Y-331143D01*
X3711367Y-329673D01*
X3722788Y-326614D01*
X3732091Y-321243D01*
X3802712Y-280470D01*
X5580470Y1497288D01*
X5626614Y1577212D01*
X5650500Y1666357D01*
X5650500Y1758644D01*
X5650500Y3213811D01*
X5669407Y3272002D01*
X5679490Y3283809D01*
X6180470Y3784788D01*
X6221183Y3855307D01*
X6266651Y3896247D01*
X6327502Y3902643D01*
X6356414Y3891545D01*
X6379889Y3877992D01*
X6500824Y3845587D01*
X6500826Y3845587D01*
X6626024Y3845587D01*
X6626026Y3845587D01*
X6746961Y3877992D01*
X6855389Y3940592D01*
X6943920Y4029123D01*
X7006520Y4137551D01*
X7038925Y4258486D01*
X7038925Y4383688D01*
X7006520Y4504623D01*
X6943920Y4613051D01*
X6894370Y4662601D01*
X8624500Y4662601D01*
X8624500Y4537399D01*
X8656905Y4416464D01*
X8719505Y4308036D01*
X8808036Y4219505D01*
X8916464Y4156905D01*
X9037399Y4124500D01*
X9037401Y4124500D01*
X9162599Y4124500D01*
X9162601Y4124500D01*
X9283536Y4156905D01*
X9391964Y4219505D01*
X9392964Y4220506D01*
X9393868Y4220967D01*
X9397114Y4223456D01*
X9397575Y4222855D01*
X9447479Y4248281D01*
X9462966Y4249500D01*
X12446142Y4249500D01*
X12446144Y4249500D01*
X12535288Y4273386D01*
X12548552Y4281044D01*
X12615212Y4319530D01*
X12915188Y4619506D01*
X13016187Y4720504D01*
X13070703Y4748281D01*
X13086190Y4749500D01*
X16645560Y4749500D01*
X16703751Y4730593D01*
X16739715Y4681093D01*
X16741187Y4624877D01*
X16724500Y4562601D01*
X16724500Y4437399D01*
X16756905Y4316464D01*
X16819505Y4208036D01*
X16908036Y4119505D01*
X17016464Y4056905D01*
X17137399Y4024500D01*
X17137401Y4024500D01*
X17262599Y4024500D01*
X17262601Y4024500D01*
X17383536Y4056905D01*
X17491964Y4119505D01*
X17580495Y4208036D01*
X17643095Y4316464D01*
X17675500Y4437399D01*
X17675500Y4562601D01*
X17658813Y4624877D01*
X17662016Y4685978D01*
X17700521Y4733528D01*
X17754440Y4749500D01*
X19835976Y4749500D01*
X19894167Y4730593D01*
X19905980Y4720504D01*
X20265409Y4361075D01*
X20293186Y4306558D01*
X20283615Y4246126D01*
X20244905Y4205335D01*
X20211486Y4186041D01*
X20122953Y4097508D01*
X20060353Y3989081D01*
X20057786Y3979500D01*
X20027948Y3868145D01*
X20027948Y3742943D01*
X20060353Y3622008D01*
X20122953Y3513580D01*
X20211484Y3425049D01*
X20319912Y3362449D01*
X20440847Y3330044D01*
X20440849Y3330044D01*
X20566047Y3330044D01*
X20566049Y3330044D01*
X20686984Y3362449D01*
X20795412Y3425049D01*
X20883943Y3513580D01*
X20903238Y3547002D01*
X20948707Y3587943D01*
X21009558Y3594339D01*
X21040492Y3582042D01*
X21050604Y3575880D01*
X21055523Y3570961D01*
X21114453Y3536938D01*
X21129176Y3528438D01*
X21135443Y3524819D01*
X21135444Y3524819D01*
X21135447Y3524817D01*
X21224591Y3500931D01*
X21699016Y3500931D01*
X21757207Y3482024D01*
X21769013Y3471941D01*
X21770018Y3470936D01*
X21878446Y3408336D01*
X21999381Y3375931D01*
X21999383Y3375931D01*
X22124581Y3375931D01*
X22124583Y3375931D01*
X22245518Y3408336D01*
X22353946Y3470936D01*
X22442477Y3559467D01*
X22505077Y3667895D01*
X22537482Y3788830D01*
X22537482Y3914032D01*
X22505077Y4034967D01*
X22442477Y4143395D01*
X22353946Y4231926D01*
X22245518Y4294526D01*
X22124583Y4326931D01*
X21999381Y4326931D01*
X21928869Y4308037D01*
X21878445Y4294526D01*
X21798966Y4248639D01*
X21770018Y4231926D01*
X21769017Y4230926D01*
X21768113Y4230465D01*
X21764868Y4227975D01*
X21764406Y4228577D01*
X21714503Y4203150D01*
X21699016Y4201931D01*
X21456925Y4201931D01*
X21398734Y4220838D01*
X21386921Y4230927D01*
X21244345Y4373503D01*
X21180830Y4437018D01*
X23428537Y4437018D01*
X23428537Y4311816D01*
X23460942Y4190881D01*
X23523542Y4082453D01*
X23612073Y3993922D01*
X23720501Y3931322D01*
X23841436Y3898917D01*
X23841438Y3898917D01*
X23966636Y3898917D01*
X23966638Y3898917D01*
X24087573Y3931322D01*
X24196001Y3993922D01*
X24284532Y4082453D01*
X24347132Y4190881D01*
X24355861Y4223456D01*
X24366350Y4262601D01*
X24924500Y4262601D01*
X24924500Y4137399D01*
X24956905Y4016464D01*
X25019505Y3908036D01*
X25108036Y3819505D01*
X25216464Y3756905D01*
X25337399Y3724500D01*
X25337401Y3724500D01*
X25462599Y3724500D01*
X25462601Y3724500D01*
X25583536Y3756905D01*
X25691964Y3819505D01*
X25780495Y3908036D01*
X25843095Y4016464D01*
X25875500Y4137399D01*
X25875500Y4262601D01*
X25843095Y4383536D01*
X25780495Y4491964D01*
X25691964Y4580495D01*
X25583536Y4643095D01*
X25462601Y4675500D01*
X25337399Y4675500D01*
X25270429Y4657555D01*
X25216463Y4643095D01*
X25108036Y4580495D01*
X25019505Y4491964D01*
X24956905Y4383537D01*
X24950886Y4361075D01*
X24924500Y4262601D01*
X24366350Y4262601D01*
X24374954Y4294711D01*
X24374954Y4294713D01*
X24379537Y4311817D01*
X24379537Y4437016D01*
X24379537Y4437018D01*
X24347132Y4557953D01*
X24284532Y4666381D01*
X24196001Y4754912D01*
X24087573Y4817512D01*
X23966638Y4849917D01*
X23841436Y4849917D01*
X23760812Y4828314D01*
X23720500Y4817512D01*
X23612073Y4754912D01*
X23523542Y4666381D01*
X23460942Y4557954D01*
X23460942Y4557953D01*
X23428537Y4437018D01*
X21180830Y4437018D01*
X20931870Y4685978D01*
X20555247Y5062601D01*
X29924500Y5062601D01*
X29924500Y4937399D01*
X29956905Y4816464D01*
X30019505Y4708036D01*
X30108036Y4619505D01*
X30216464Y4556905D01*
X30337399Y4524500D01*
X30337401Y4524500D01*
X30462599Y4524500D01*
X30462601Y4524500D01*
X30583536Y4556905D01*
X30691964Y4619505D01*
X30780495Y4708036D01*
X30843095Y4816464D01*
X30875500Y4937399D01*
X30875500Y5062601D01*
X30843095Y5183536D01*
X30780495Y5291964D01*
X30691964Y5380495D01*
X30583536Y5443095D01*
X30462601Y5475500D01*
X30337399Y5475500D01*
X30256775Y5453897D01*
X30216463Y5443095D01*
X30108036Y5380495D01*
X30019505Y5291964D01*
X29956905Y5183537D01*
X29956905Y5183536D01*
X29924500Y5062601D01*
X20555247Y5062601D01*
X20237378Y5380470D01*
X20157454Y5426614D01*
X20068310Y5450500D01*
X12946144Y5450500D01*
X12853856Y5450500D01*
X12764712Y5426614D01*
X12684832Y5380495D01*
X12684785Y5380468D01*
X12283813Y4979496D01*
X12229297Y4951719D01*
X12213810Y4950500D01*
X9462966Y4950500D01*
X9404775Y4969407D01*
X9392968Y4979491D01*
X9391964Y4980495D01*
X9283536Y5043095D01*
X9162601Y5075500D01*
X9037399Y5075500D01*
X8989253Y5062599D01*
X8916463Y5043095D01*
X8808036Y4980495D01*
X8719505Y4891964D01*
X8656905Y4783537D01*
X8656905Y4783536D01*
X8624500Y4662601D01*
X6894370Y4662601D01*
X6855389Y4701582D01*
X6835015Y4713345D01*
X6826542Y4721370D01*
X6817223Y4738493D01*
X6804179Y4752980D01*
X6802943Y4764733D01*
X6797295Y4775112D01*
X6799820Y4794443D01*
X6797783Y4813831D01*
X6803803Y4824920D01*
X6805223Y4835782D01*
X6815717Y4846863D01*
X6824616Y4863251D01*
X7194957Y5233591D01*
X7606870Y5645504D01*
X7661387Y5673281D01*
X7676874Y5674500D01*
X24871142Y5674500D01*
X24871144Y5674500D01*
X24960288Y5698386D01*
X24961710Y5699208D01*
X24963950Y5700500D01*
X24963951Y5700500D01*
X25022931Y5734553D01*
X25040212Y5744530D01*
X25302999Y6007317D01*
X25391187Y6095504D01*
X25445703Y6123281D01*
X25461190Y6124500D01*
X25462599Y6124500D01*
X25462601Y6124500D01*
X25583536Y6156905D01*
X25691964Y6219505D01*
X25780495Y6308036D01*
X25843095Y6416464D01*
X25875500Y6537399D01*
X25875500Y6662601D01*
X25843095Y6783536D01*
X25780495Y6891964D01*
X25691964Y6980495D01*
X25583536Y7043095D01*
X25462601Y7075500D01*
X25337399Y7075500D01*
X25282121Y7060688D01*
X25216463Y7043095D01*
X25108036Y6980495D01*
X25019505Y6891964D01*
X24956905Y6783537D01*
X24954775Y6775586D01*
X24924500Y6662601D01*
X24924500Y6662599D01*
X24924500Y6661190D01*
X24924187Y6660229D01*
X24923653Y6656168D01*
X24922900Y6656268D01*
X24905593Y6602999D01*
X24895504Y6591186D01*
X24708814Y6404496D01*
X24654297Y6376719D01*
X24638810Y6375500D01*
X8561138Y6375500D01*
X8502947Y6394407D01*
X8466983Y6443907D01*
X8465512Y6500124D01*
X8475499Y6537397D01*
X8475500Y6537399D01*
X8475500Y6662599D01*
X8475500Y6662601D01*
X8443095Y6783536D01*
X8380495Y6891964D01*
X8291964Y6980495D01*
X8183536Y7043095D01*
X8062601Y7075500D01*
X7937399Y7075500D01*
X7882121Y7060688D01*
X7816463Y7043095D01*
X7744453Y7001520D01*
X7708036Y6980495D01*
X7707035Y6979495D01*
X7706131Y6979034D01*
X7702886Y6976544D01*
X7702424Y6977146D01*
X7652521Y6951719D01*
X7637034Y6950500D01*
X6453856Y6950500D01*
X6364712Y6926614D01*
X6284788Y6880470D01*
X4495374Y5091058D01*
X4440857Y5063281D01*
X4380425Y5072852D01*
X4346828Y5100794D01*
X4343287Y5105408D01*
X4343285Y5105412D01*
X4254754Y5193943D01*
X4146326Y5256543D01*
X4025391Y5288948D01*
X3900189Y5288948D01*
X3793541Y5260372D01*
X3779250Y5256542D01*
X3761528Y5246310D01*
X3701679Y5233591D01*
X3645784Y5258479D01*
X3615194Y5311468D01*
X3614254Y5316536D01*
X3610902Y5337701D01*
X3610900Y5337707D01*
X3610900Y5337709D01*
X3557376Y5502439D01*
X3557374Y5502442D01*
X3557373Y5502443D01*
X3557373Y5502445D01*
X3478732Y5656788D01*
X3376914Y5796928D01*
X3254428Y5919414D01*
X3114288Y6021232D01*
X3114287Y6021233D01*
X3114285Y6021234D01*
X2959941Y6099875D01*
X2959938Y6099877D01*
X2795206Y6153402D01*
X2795202Y6153403D01*
X2624114Y6180500D01*
X2624111Y6180500D01*
X2450889Y6180500D01*
X2450886Y6180500D01*
X2279797Y6153403D01*
X2279793Y6153402D01*
X2115061Y6099877D01*
X2115058Y6099875D01*
X1960714Y6021234D01*
X1820573Y5919415D01*
X1698085Y5796927D01*
X1596266Y5656786D01*
X1517625Y5502442D01*
X1517623Y5502439D01*
X1464098Y5337707D01*
X1464097Y5337703D01*
X1437000Y5166615D01*
X1437000Y4993386D01*
X1464097Y4822298D01*
X1464098Y4822294D01*
X1517623Y4657562D01*
X1517625Y4657559D01*
X1595548Y4504624D01*
X1596268Y4503212D01*
X1698086Y4363072D01*
X1741656Y4319502D01*
X1769432Y4264987D01*
X1759861Y4204555D01*
X1716596Y4161290D01*
X1671651Y4150500D01*
X1211356Y4150500D01*
X1142903Y4132158D01*
X1142902Y4132159D01*
X1122213Y4126615D01*
X1104150Y4116186D01*
X1045725Y4082454D01*
X1042285Y4080468D01*
X538206Y3576391D01*
X483690Y3548614D01*
X423259Y3558185D01*
X419947Y3559873D01*
X419938Y3559877D01*
X255206Y3613402D01*
X255202Y3613403D01*
X84114Y3640500D01*
X84111Y3640500D01*
X-89111Y3640500D01*
X-89114Y3640500D01*
X-260203Y3613403D01*
X-260207Y3613402D01*
X-424939Y3559877D01*
X-424942Y3559875D01*
X-579286Y3481234D01*
X-719427Y3379415D01*
X-841915Y3256927D01*
X-943734Y3116786D01*
X-1022375Y2962442D01*
X-1022377Y2962439D01*
X-1075902Y2797707D01*
X-1075903Y2797703D01*
X-1103000Y2626615D01*
X-1950000Y2626615D01*
X-1950000Y6262601D01*
X-1675500Y6262601D01*
X-1675500Y6137399D01*
X-1643095Y6016464D01*
X-1580495Y5908036D01*
X-1491964Y5819505D01*
X-1383536Y5756905D01*
X-1262601Y5724500D01*
X-1262599Y5724500D01*
X-1137399Y5724500D01*
X-1087936Y5737754D01*
X-1026836Y5734553D01*
X-979286Y5696049D01*
X-963449Y5636949D01*
X-974103Y5597184D01*
X-1022373Y5502448D01*
X-1022377Y5502439D01*
X-1075902Y5337707D01*
X-1075903Y5337703D01*
X-1103000Y5166615D01*
X-1103000Y4993386D01*
X-1075903Y4822298D01*
X-1075902Y4822294D01*
X-1022377Y4657562D01*
X-1022375Y4657559D01*
X-944452Y4504624D01*
X-943732Y4503212D01*
X-841914Y4363072D01*
X-719428Y4240586D01*
X-579288Y4138768D01*
X-424945Y4060127D01*
X-424943Y4060127D01*
X-424942Y4060126D01*
X-424939Y4060124D01*
X-260207Y4006599D01*
X-260203Y4006598D01*
X-89114Y3979500D01*
X-89111Y3979500D01*
X84114Y3979500D01*
X255202Y4006598D01*
X255206Y4006599D01*
X419938Y4060124D01*
X419940Y4060126D01*
X419945Y4060127D01*
X574288Y4138768D01*
X714428Y4240586D01*
X836914Y4363072D01*
X938732Y4503212D01*
X1017373Y4657555D01*
X1017374Y4657560D01*
X1017376Y4657562D01*
X1070901Y4822294D01*
X1070902Y4822298D01*
X1098000Y4993386D01*
X1098000Y5166615D01*
X1070902Y5337703D01*
X1070901Y5337707D01*
X1017376Y5502439D01*
X1017374Y5502442D01*
X1017373Y5502443D01*
X1017373Y5502445D01*
X938732Y5656788D01*
X836914Y5796928D01*
X714428Y5919414D01*
X574288Y6021232D01*
X574287Y6021233D01*
X574285Y6021234D01*
X419941Y6099875D01*
X419938Y6099877D01*
X255206Y6153402D01*
X255202Y6153403D01*
X84114Y6180500D01*
X84111Y6180500D01*
X-89111Y6180500D01*
X-89114Y6180500D01*
X-260203Y6153403D01*
X-260207Y6153402D01*
X-424939Y6099877D01*
X-424942Y6099875D01*
X-582754Y6019466D01*
X-583277Y6020492D01*
X-638208Y6007317D01*
X-694731Y6030744D01*
X-726689Y6082920D01*
X-726045Y6131637D01*
X-724500Y6137399D01*
X-724500Y6262601D01*
X-756905Y6383536D01*
X-819505Y6491964D01*
X-908036Y6580495D01*
X-1016464Y6643095D01*
X-1137399Y6675500D01*
X-1262601Y6675500D01*
X-1334748Y6656168D01*
X-1383537Y6643095D01*
X-1491964Y6580495D01*
X-1580495Y6491964D01*
X-1643095Y6383537D01*
X-1643095Y6383536D01*
X-1675500Y6262601D01*
X-1950000Y6262601D01*
X-1950000Y7706615D01*
X-1103000Y7706615D01*
X-1103000Y7533386D01*
X-1075903Y7362298D01*
X-1075902Y7362294D01*
X-1022377Y7197562D01*
X-1022375Y7197559D01*
X-952637Y7060688D01*
X-943732Y7043212D01*
X-841914Y6903072D01*
X-719428Y6780586D01*
X-579288Y6678768D01*
X-424945Y6600127D01*
X-424943Y6600127D01*
X-424942Y6600126D01*
X-424939Y6600124D01*
X-260207Y6546599D01*
X-260203Y6546598D01*
X-89114Y6519500D01*
X-89111Y6519500D01*
X84114Y6519500D01*
X255202Y6546598D01*
X255206Y6546599D01*
X419938Y6600124D01*
X419940Y6600126D01*
X419945Y6600127D01*
X574288Y6678768D01*
X714428Y6780586D01*
X836914Y6903072D01*
X938732Y7043212D01*
X1017373Y7197555D01*
X1017374Y7197560D01*
X1017376Y7197562D01*
X1070901Y7362294D01*
X1070902Y7362298D01*
X1098000Y7533386D01*
X1098000Y7706615D01*
X1437000Y7706615D01*
X1437000Y7533386D01*
X1464097Y7362298D01*
X1464098Y7362294D01*
X1517623Y7197562D01*
X1517625Y7197559D01*
X1587363Y7060688D01*
X1596268Y7043212D01*
X1698086Y6903072D01*
X1820572Y6780586D01*
X1960712Y6678768D01*
X2115055Y6600127D01*
X2115057Y6600127D01*
X2115058Y6600126D01*
X2115061Y6600124D01*
X2279793Y6546599D01*
X2279797Y6546598D01*
X2450886Y6519500D01*
X2450889Y6519500D01*
X2624114Y6519500D01*
X2795202Y6546598D01*
X2795206Y6546599D01*
X2959938Y6600124D01*
X2959940Y6600126D01*
X2959945Y6600127D01*
X3114288Y6678768D01*
X3254428Y6780586D01*
X3376914Y6903072D01*
X3478732Y7043212D01*
X3557373Y7197555D01*
X3557374Y7197560D01*
X3557376Y7197562D01*
X3578509Y7262601D01*
X28324500Y7262601D01*
X28324500Y7137399D01*
X28356905Y7016464D01*
X28419505Y6908036D01*
X28508036Y6819505D01*
X28616464Y6756905D01*
X28737399Y6724500D01*
X28737401Y6724500D01*
X28862599Y6724500D01*
X28862601Y6724500D01*
X28983536Y6756905D01*
X29091964Y6819505D01*
X29180495Y6908036D01*
X29243095Y7016464D01*
X29275500Y7137399D01*
X29275500Y7262601D01*
X29243095Y7383536D01*
X29180495Y7491964D01*
X29091964Y7580495D01*
X28983536Y7643095D01*
X28862601Y7675500D01*
X28737399Y7675500D01*
X28656775Y7653897D01*
X28616463Y7643095D01*
X28508036Y7580495D01*
X28419505Y7491964D01*
X28356905Y7383537D01*
X28356905Y7383536D01*
X28324500Y7262601D01*
X3578509Y7262601D01*
X3610901Y7362294D01*
X3610902Y7362298D01*
X3638000Y7533386D01*
X3638000Y7706615D01*
X3614719Y7853603D01*
X3614719Y7853604D01*
X3613294Y7862601D01*
X5724500Y7862601D01*
X5724500Y7737399D01*
X5756905Y7616464D01*
X5819505Y7508036D01*
X5908036Y7419505D01*
X6016464Y7356905D01*
X6137399Y7324500D01*
X6137401Y7324500D01*
X6262599Y7324500D01*
X6262601Y7324500D01*
X6383536Y7356905D01*
X6491964Y7419505D01*
X6580495Y7508036D01*
X6643095Y7616464D01*
X6675500Y7737399D01*
X6675500Y7862601D01*
X6643095Y7983536D01*
X6597447Y8062601D01*
X32124500Y8062601D01*
X32124500Y7937399D01*
X32156905Y7816464D01*
X32219505Y7708036D01*
X32308036Y7619505D01*
X32416464Y7556905D01*
X32537399Y7524500D01*
X32537401Y7524500D01*
X32662599Y7524500D01*
X32662601Y7524500D01*
X32783536Y7556905D01*
X32891964Y7619505D01*
X32980495Y7708036D01*
X33043095Y7816464D01*
X33075500Y7937399D01*
X33075500Y8062601D01*
X33043095Y8183536D01*
X32980495Y8291964D01*
X32891964Y8380495D01*
X32783536Y8443095D01*
X32662601Y8475500D01*
X32537399Y8475500D01*
X32458710Y8454415D01*
X32416463Y8443095D01*
X32308036Y8380495D01*
X32219505Y8291964D01*
X32156905Y8183537D01*
X32156905Y8183536D01*
X32124500Y8062601D01*
X6597447Y8062601D01*
X6580495Y8091964D01*
X6491964Y8180495D01*
X6383536Y8243095D01*
X6262601Y8275500D01*
X6137399Y8275500D01*
X6056775Y8253897D01*
X6016463Y8243095D01*
X5908036Y8180495D01*
X5819505Y8091964D01*
X5756905Y7983537D01*
X5756905Y7983536D01*
X5724500Y7862601D01*
X3613294Y7862601D01*
X3610902Y7877701D01*
X3610901Y7877707D01*
X3557376Y8042439D01*
X3557374Y8042442D01*
X3557373Y8042443D01*
X3557373Y8042445D01*
X3478732Y8196788D01*
X3376914Y8336928D01*
X3254428Y8459414D01*
X3114288Y8561232D01*
X3114287Y8561233D01*
X3114285Y8561234D01*
X2959941Y8639875D01*
X2959938Y8639877D01*
X2795206Y8693402D01*
X2795202Y8693403D01*
X2624114Y8720500D01*
X2624111Y8720500D01*
X2450889Y8720500D01*
X2450886Y8720500D01*
X2279797Y8693403D01*
X2279793Y8693402D01*
X2115061Y8639877D01*
X2115058Y8639875D01*
X1960714Y8561234D01*
X1820573Y8459415D01*
X1698085Y8336927D01*
X1596266Y8196786D01*
X1517625Y8042442D01*
X1517623Y8042439D01*
X1464098Y7877707D01*
X1464097Y7877703D01*
X1437000Y7706615D01*
X1098000Y7706615D01*
X1070902Y7877703D01*
X1070901Y7877707D01*
X1017376Y8042439D01*
X1017374Y8042442D01*
X1017373Y8042443D01*
X1017373Y8042445D01*
X938732Y8196788D01*
X836914Y8336928D01*
X714428Y8459414D01*
X574288Y8561232D01*
X574287Y8561233D01*
X574285Y8561234D01*
X419941Y8639875D01*
X419938Y8639877D01*
X255206Y8693402D01*
X255202Y8693403D01*
X84114Y8720500D01*
X84111Y8720500D01*
X-89111Y8720500D01*
X-89114Y8720500D01*
X-260203Y8693403D01*
X-260207Y8693402D01*
X-424939Y8639877D01*
X-424942Y8639875D01*
X-579286Y8561234D01*
X-719427Y8459415D01*
X-841915Y8336927D01*
X-943734Y8196786D01*
X-1022375Y8042442D01*
X-1022377Y8042439D01*
X-1075902Y7877707D01*
X-1075903Y7877703D01*
X-1103000Y7706615D01*
X-1950000Y7706615D01*
X-1950000Y10246615D01*
X-1103000Y10246615D01*
X-1103000Y10073386D01*
X-1075903Y9902298D01*
X-1075902Y9902294D01*
X-1022377Y9737562D01*
X-1022375Y9737559D01*
X-1022374Y9737556D01*
X-1022373Y9737555D01*
X-943732Y9583212D01*
X-841914Y9443072D01*
X-719428Y9320586D01*
X-579288Y9218768D01*
X-424945Y9140127D01*
X-424943Y9140127D01*
X-424942Y9140126D01*
X-424939Y9140124D01*
X-260207Y9086599D01*
X-260203Y9086598D01*
X-89114Y9059500D01*
X-89111Y9059500D01*
X84114Y9059500D01*
X255202Y9086598D01*
X255206Y9086599D01*
X419938Y9140124D01*
X419940Y9140126D01*
X419945Y9140127D01*
X574288Y9218768D01*
X714428Y9320586D01*
X836914Y9443072D01*
X938732Y9583212D01*
X1017373Y9737555D01*
X1017374Y9737560D01*
X1017376Y9737562D01*
X1070901Y9902294D01*
X1070902Y9902298D01*
X1098000Y10073386D01*
X1098000Y10246615D01*
X1437000Y10246615D01*
X1437000Y10073386D01*
X1464097Y9902298D01*
X1464098Y9902294D01*
X1517623Y9737562D01*
X1517625Y9737559D01*
X1517626Y9737556D01*
X1517627Y9737555D01*
X1596268Y9583212D01*
X1698086Y9443072D01*
X1820572Y9320586D01*
X1960712Y9218768D01*
X2115055Y9140127D01*
X2115057Y9140127D01*
X2115058Y9140126D01*
X2115061Y9140124D01*
X2279793Y9086599D01*
X2279797Y9086598D01*
X2450886Y9059500D01*
X2450889Y9059500D01*
X2624114Y9059500D01*
X2795202Y9086598D01*
X2795206Y9086599D01*
X2959938Y9140124D01*
X2959940Y9140126D01*
X2959945Y9140127D01*
X3114288Y9218768D01*
X3254428Y9320586D01*
X3376914Y9443072D01*
X3478732Y9583212D01*
X3557373Y9737555D01*
X3557374Y9737560D01*
X3557376Y9737562D01*
X3610901Y9902294D01*
X3610902Y9902298D01*
X3638000Y10073386D01*
X3638000Y10246615D01*
X3610902Y10417703D01*
X3610901Y10417707D01*
X3557376Y10582439D01*
X3557374Y10582442D01*
X3557373Y10582443D01*
X3557373Y10582445D01*
X3516532Y10662601D01*
X4974500Y10662601D01*
X4974500Y10537399D01*
X5006905Y10416464D01*
X5069505Y10308036D01*
X5158036Y10219505D01*
X5266464Y10156905D01*
X5387399Y10124500D01*
X5387401Y10124500D01*
X5512599Y10124500D01*
X5512601Y10124500D01*
X5633536Y10156905D01*
X5741964Y10219505D01*
X5830495Y10308036D01*
X5893095Y10416464D01*
X5925500Y10537399D01*
X5925500Y10662601D01*
X5893095Y10783536D01*
X5830495Y10891964D01*
X5741964Y10980495D01*
X5633536Y11043095D01*
X5512601Y11075500D01*
X5387399Y11075500D01*
X5306775Y11053897D01*
X5266463Y11043095D01*
X5158036Y10980495D01*
X5069505Y10891964D01*
X5006905Y10783537D01*
X4998823Y10753375D01*
X4974500Y10662601D01*
X3516532Y10662601D01*
X3478732Y10736788D01*
X3376914Y10876928D01*
X3254428Y10999414D01*
X3114288Y11101232D01*
X3114287Y11101233D01*
X3114285Y11101234D01*
X2959941Y11179875D01*
X2959938Y11179877D01*
X2795206Y11233402D01*
X2795202Y11233403D01*
X2624114Y11260500D01*
X2624111Y11260500D01*
X2450889Y11260500D01*
X2450886Y11260500D01*
X2279797Y11233403D01*
X2279793Y11233402D01*
X2115061Y11179877D01*
X2115058Y11179875D01*
X1960714Y11101234D01*
X1820573Y10999415D01*
X1698085Y10876927D01*
X1596266Y10736786D01*
X1517625Y10582442D01*
X1517623Y10582439D01*
X1464098Y10417707D01*
X1464097Y10417703D01*
X1437000Y10246615D01*
X1098000Y10246615D01*
X1070902Y10417703D01*
X1070901Y10417707D01*
X1017376Y10582439D01*
X1017374Y10582442D01*
X1017373Y10582443D01*
X1017373Y10582445D01*
X938732Y10736788D01*
X836914Y10876928D01*
X714428Y10999414D01*
X574288Y11101232D01*
X574287Y11101233D01*
X574285Y11101234D01*
X419941Y11179875D01*
X419938Y11179877D01*
X255206Y11233402D01*
X255202Y11233403D01*
X84114Y11260500D01*
X84111Y11260500D01*
X-89111Y11260500D01*
X-89114Y11260500D01*
X-260203Y11233403D01*
X-260207Y11233402D01*
X-424939Y11179877D01*
X-424942Y11179875D01*
X-579286Y11101234D01*
X-719427Y10999415D01*
X-841915Y10876927D01*
X-943734Y10736786D01*
X-1022375Y10582442D01*
X-1022377Y10582439D01*
X-1075902Y10417707D01*
X-1075903Y10417703D01*
X-1103000Y10246615D01*
X-1950000Y10246615D01*
X-1950000Y12786615D01*
X-1103000Y12786615D01*
X-1103000Y12613386D01*
X-1075903Y12442298D01*
X-1075902Y12442294D01*
X-1022377Y12277562D01*
X-1022375Y12277559D01*
X-944389Y12124500D01*
X-943732Y12123212D01*
X-841914Y11983072D01*
X-719428Y11860586D01*
X-579288Y11758768D01*
X-424945Y11680127D01*
X-424943Y11680127D01*
X-424942Y11680126D01*
X-424939Y11680124D01*
X-260207Y11626599D01*
X-260203Y11626598D01*
X-89114Y11599500D01*
X-89111Y11599500D01*
X84114Y11599500D01*
X255202Y11626598D01*
X255206Y11626599D01*
X419938Y11680124D01*
X419940Y11680126D01*
X419945Y11680127D01*
X574288Y11758768D01*
X714428Y11860586D01*
X836914Y11983072D01*
X938732Y12123212D01*
X1017373Y12277555D01*
X1017374Y12277560D01*
X1017376Y12277562D01*
X1070901Y12442294D01*
X1070902Y12442298D01*
X1098000Y12613386D01*
X1098000Y12786615D01*
X1437000Y12786615D01*
X1437000Y12613386D01*
X1464097Y12442298D01*
X1464098Y12442294D01*
X1517623Y12277562D01*
X1517625Y12277559D01*
X1595611Y12124500D01*
X1596268Y12123212D01*
X1698086Y11983072D01*
X1820572Y11860586D01*
X1960712Y11758768D01*
X2115055Y11680127D01*
X2115057Y11680127D01*
X2115058Y11680126D01*
X2115061Y11680124D01*
X2279793Y11626599D01*
X2279797Y11626598D01*
X2450886Y11599500D01*
X2450889Y11599500D01*
X2624114Y11599500D01*
X2795202Y11626598D01*
X2795206Y11626599D01*
X2959938Y11680124D01*
X2959940Y11680126D01*
X2959945Y11680127D01*
X3114288Y11758768D01*
X3137115Y11775353D01*
X21973558Y11775353D01*
X21973558Y11643569D01*
X21989644Y11583536D01*
X22007667Y11516271D01*
X22073554Y11402152D01*
X22073556Y11402150D01*
X22073558Y11402147D01*
X22166744Y11308961D01*
X22166746Y11308960D01*
X22166748Y11308958D01*
X22181879Y11300222D01*
X22222820Y11254753D01*
X22229216Y11193902D01*
X22198623Y11140914D01*
X22181879Y11128750D01*
X22166748Y11120015D01*
X22073554Y11026821D01*
X22007667Y10912702D01*
X21996742Y10871928D01*
X21973558Y10785403D01*
X21973558Y10653619D01*
X21993970Y10577439D01*
X22007667Y10526321D01*
X22073554Y10412202D01*
X22073556Y10412200D01*
X22073558Y10412197D01*
X22166744Y10319011D01*
X22166746Y10319010D01*
X22166748Y10319008D01*
X22280868Y10253121D01*
X22280866Y10253121D01*
X22280870Y10253120D01*
X22280872Y10253119D01*
X22408166Y10219011D01*
X22408168Y10219011D01*
X22539948Y10219011D01*
X22539950Y10219011D01*
X22667244Y10253119D01*
X22667246Y10253121D01*
X22667248Y10253121D01*
X22781367Y10319008D01*
X22781367Y10319009D01*
X22781372Y10319011D01*
X22874558Y10412197D01*
X22883296Y10427333D01*
X22928764Y10468273D01*
X22989615Y10474670D01*
X23042603Y10444078D01*
X23054770Y10427332D01*
X23063213Y10412707D01*
X23063508Y10412197D01*
X23156694Y10319011D01*
X23156696Y10319010D01*
X23156698Y10319008D01*
X23270818Y10253121D01*
X23270816Y10253121D01*
X23270820Y10253120D01*
X23270822Y10253119D01*
X23398116Y10219011D01*
X23398118Y10219011D01*
X23529898Y10219011D01*
X23529900Y10219011D01*
X23657194Y10253119D01*
X23657196Y10253121D01*
X23657198Y10253121D01*
X23771317Y10319008D01*
X23771317Y10319009D01*
X23771322Y10319011D01*
X23864508Y10412197D01*
X23864800Y10412703D01*
X23930398Y10526321D01*
X23930398Y10526323D01*
X23930400Y10526325D01*
X23964508Y10653619D01*
X23964508Y10785403D01*
X23930400Y10912697D01*
X23930398Y10912700D01*
X23930398Y10912702D01*
X23864511Y11026821D01*
X23864509Y11026823D01*
X23864508Y11026825D01*
X23771322Y11120011D01*
X23771315Y11120015D01*
X23756187Y11128749D01*
X23715246Y11174217D01*
X23708849Y11235068D01*
X23739441Y11288056D01*
X23756187Y11300223D01*
X23771322Y11308961D01*
X23864508Y11402147D01*
X23930400Y11516275D01*
X23964508Y11643569D01*
X23964508Y11775353D01*
X23930400Y11902647D01*
X23930398Y11902650D01*
X23930398Y11902652D01*
X23864511Y12016771D01*
X23864509Y12016773D01*
X23864508Y12016775D01*
X23771322Y12109961D01*
X23771319Y12109963D01*
X23771317Y12109965D01*
X23657197Y12175852D01*
X23657199Y12175852D01*
X23607807Y12189086D01*
X23529900Y12209961D01*
X23398116Y12209961D01*
X23320208Y12189086D01*
X23270817Y12175852D01*
X23156698Y12109965D01*
X23063504Y12016771D01*
X23054769Y12001640D01*
X23009300Y11960699D01*
X22948449Y11954303D01*
X22895461Y11984896D01*
X22883297Y12001640D01*
X22874561Y12016771D01*
X22874559Y12016773D01*
X22874558Y12016775D01*
X22781372Y12109961D01*
X22781369Y12109963D01*
X22781367Y12109965D01*
X22667247Y12175852D01*
X22667249Y12175852D01*
X22617857Y12189086D01*
X22539950Y12209961D01*
X22408166Y12209961D01*
X22330258Y12189086D01*
X22280867Y12175852D01*
X22166748Y12109965D01*
X22073554Y12016771D01*
X22007667Y11902652D01*
X22007666Y11902647D01*
X21973558Y11775353D01*
X3137115Y11775353D01*
X3254428Y11860586D01*
X3376914Y11983072D01*
X3478732Y12123212D01*
X3557373Y12277555D01*
X3557374Y12277560D01*
X3557376Y12277562D01*
X3610901Y12442294D01*
X3610902Y12442298D01*
X3638000Y12613386D01*
X3638000Y12662601D01*
X10724500Y12662601D01*
X10724500Y12537399D01*
X10756905Y12416464D01*
X10819505Y12308036D01*
X10908036Y12219505D01*
X11016464Y12156905D01*
X11137399Y12124500D01*
X11137401Y12124500D01*
X11262599Y12124500D01*
X11262601Y12124500D01*
X11383536Y12156905D01*
X11491964Y12219505D01*
X11580495Y12308036D01*
X11643095Y12416464D01*
X11675500Y12537399D01*
X11675500Y12662601D01*
X11643095Y12783536D01*
X11580495Y12891964D01*
X11491964Y12980495D01*
X11383536Y13043095D01*
X11314446Y13061608D01*
X16574500Y13061608D01*
X16574500Y12938389D01*
X16598537Y12817548D01*
X16598537Y12817546D01*
X16645686Y12703715D01*
X16706043Y12613386D01*
X16714143Y12601265D01*
X16801267Y12514141D01*
X16903714Y12445686D01*
X16903715Y12445686D01*
X16903716Y12445685D01*
X16911903Y12442294D01*
X17017549Y12398535D01*
X17138393Y12374498D01*
X17138394Y12374498D01*
X17261606Y12374498D01*
X17261607Y12374498D01*
X17382451Y12398535D01*
X17496286Y12445686D01*
X17598733Y12514141D01*
X19030097Y13945504D01*
X19084614Y13973281D01*
X19100101Y13974500D01*
X23699902Y13974500D01*
X23758093Y13955593D01*
X23769906Y13945504D01*
X27846622Y9868787D01*
X27949062Y9800337D01*
X27949067Y9800335D01*
X27949070Y9800333D01*
X28015752Y9772713D01*
X28062903Y9753182D01*
X28082952Y9749194D01*
X28183749Y9729144D01*
X28183750Y9729144D01*
X28311842Y9729144D01*
X28311862Y9729145D01*
X33850676Y9729145D01*
X33908867Y9710238D01*
X33920680Y9700149D01*
X36404558Y7216271D01*
X36404561Y7216267D01*
X36491686Y7129142D01*
X36542909Y7094916D01*
X36594133Y7060688D01*
X36663275Y7032049D01*
X36667390Y7030345D01*
X36667395Y7030342D01*
X36700460Y7016647D01*
X36707967Y7013537D01*
X36768390Y7001519D01*
X36828812Y6989500D01*
X36828813Y6989500D01*
X37136217Y6989500D01*
X37194408Y6970593D01*
X37216308Y6948692D01*
X37232349Y6926614D01*
X37245846Y6908036D01*
X37253086Y6898072D01*
X37375572Y6775586D01*
X37515712Y6673768D01*
X37670055Y6595127D01*
X37670057Y6595127D01*
X37670058Y6595126D01*
X37670061Y6595124D01*
X37834793Y6541599D01*
X37834797Y6541598D01*
X38005886Y6514500D01*
X38005889Y6514500D01*
X38179114Y6514500D01*
X38350202Y6541598D01*
X38350206Y6541599D01*
X38514938Y6595124D01*
X38514940Y6595126D01*
X38514945Y6595127D01*
X38669288Y6673768D01*
X38809428Y6775586D01*
X38931914Y6898072D01*
X39033732Y7038212D01*
X39112373Y7192555D01*
X39112374Y7192560D01*
X39112376Y7192562D01*
X39165901Y7357294D01*
X39165902Y7357298D01*
X39193000Y7528386D01*
X39193000Y7701615D01*
X39165902Y7872703D01*
X39165901Y7872707D01*
X39112376Y8037439D01*
X39112374Y8037442D01*
X39112373Y8037443D01*
X39112373Y8037445D01*
X39033732Y8191788D01*
X38931914Y8331928D01*
X38809428Y8454414D01*
X38669288Y8556232D01*
X38669287Y8556233D01*
X38669285Y8556234D01*
X38514941Y8634875D01*
X38514938Y8634877D01*
X38350206Y8688402D01*
X38350202Y8688403D01*
X38179114Y8715500D01*
X38179111Y8715500D01*
X38005889Y8715500D01*
X38005886Y8715500D01*
X37834797Y8688403D01*
X37834793Y8688402D01*
X37670061Y8634877D01*
X37670058Y8634875D01*
X37515714Y8556234D01*
X37375573Y8454415D01*
X37253085Y8331927D01*
X37239157Y8312757D01*
X37189655Y8276795D01*
X37128470Y8276797D01*
X37089062Y8300947D01*
X35148394Y10241615D01*
X36992000Y10241615D01*
X36992000Y10068386D01*
X37019097Y9897298D01*
X37019098Y9897294D01*
X37072623Y9732562D01*
X37072625Y9732559D01*
X37148718Y9583215D01*
X37151268Y9578212D01*
X37253086Y9438072D01*
X37375572Y9315586D01*
X37515712Y9213768D01*
X37670055Y9135127D01*
X37670057Y9135127D01*
X37670058Y9135126D01*
X37670061Y9135124D01*
X37834793Y9081599D01*
X37834797Y9081598D01*
X38005886Y9054500D01*
X38005889Y9054500D01*
X38179114Y9054500D01*
X38350202Y9081598D01*
X38350206Y9081599D01*
X38514938Y9135124D01*
X38514940Y9135126D01*
X38514945Y9135127D01*
X38669288Y9213768D01*
X38809428Y9315586D01*
X38931914Y9438072D01*
X39033732Y9578212D01*
X39112373Y9732555D01*
X39112374Y9732560D01*
X39112376Y9732562D01*
X39165901Y9897294D01*
X39165902Y9897298D01*
X39193000Y10068386D01*
X39193000Y10241615D01*
X39165902Y10412703D01*
X39165901Y10412707D01*
X39112376Y10577439D01*
X39112374Y10577442D01*
X39112373Y10577443D01*
X39112373Y10577445D01*
X39033732Y10731788D01*
X38931914Y10871928D01*
X38809428Y10994414D01*
X38669288Y11096232D01*
X38669287Y11096233D01*
X38669285Y11096234D01*
X38514941Y11174875D01*
X38514938Y11174877D01*
X38350206Y11228402D01*
X38350202Y11228403D01*
X38179114Y11255500D01*
X38179111Y11255500D01*
X38005889Y11255500D01*
X38005886Y11255500D01*
X37834797Y11228403D01*
X37834793Y11228402D01*
X37670061Y11174877D01*
X37670058Y11174875D01*
X37515714Y11096234D01*
X37375573Y10994415D01*
X37253085Y10871927D01*
X37151266Y10731786D01*
X37072625Y10577442D01*
X37072623Y10577439D01*
X37019098Y10412707D01*
X37019097Y10412703D01*
X36992000Y10241615D01*
X35148394Y10241615D01*
X34636634Y10753375D01*
X34636634Y10753376D01*
X34549509Y10840502D01*
X34494664Y10877148D01*
X34489694Y10880469D01*
X34447060Y10908957D01*
X34366566Y10942298D01*
X34357050Y10946240D01*
X34333229Y10956107D01*
X34333223Y10956109D01*
X34272803Y10968127D01*
X34272803Y10968128D01*
X34212385Y10980145D01*
X34212381Y10980145D01*
X34212380Y10980145D01*
X29478130Y10980145D01*
X29419939Y10999052D01*
X29383975Y11048552D01*
X29383975Y11109738D01*
X29392393Y11128644D01*
X29418704Y11174217D01*
X29443095Y11216464D01*
X29475500Y11337399D01*
X29475500Y11462601D01*
X29443095Y11583536D01*
X29380495Y11691964D01*
X29291964Y11780495D01*
X29183536Y11843095D01*
X29062601Y11875500D01*
X28937399Y11875500D01*
X28856775Y11853897D01*
X28816463Y11843095D01*
X28708036Y11780495D01*
X28619505Y11691964D01*
X28556905Y11583537D01*
X28556905Y11583536D01*
X28524500Y11462601D01*
X28524500Y11337399D01*
X28556905Y11216464D01*
X28556906Y11216462D01*
X28575392Y11184443D01*
X28588113Y11124595D01*
X28563226Y11068699D01*
X28510237Y11038107D01*
X28449387Y11044503D01*
X28419651Y11064940D01*
X24485859Y14998731D01*
X24485859Y14998732D01*
X24398741Y15085851D01*
X24398737Y15085854D01*
X24398733Y15085858D01*
X24334382Y15128856D01*
X24296286Y15154312D01*
X24206852Y15191356D01*
X24203772Y15192632D01*
X24182455Y15201462D01*
X24182453Y15201463D01*
X24182452Y15201463D01*
X24083506Y15221144D01*
X24083505Y15221145D01*
X24061607Y15225500D01*
X23107492Y15225500D01*
X23049301Y15244407D01*
X23013337Y15293907D01*
X23011486Y15348664D01*
X23013254Y15355691D01*
X23025501Y15385256D01*
X23038315Y15449673D01*
X26899500Y15449673D01*
X26899500Y14900328D01*
X26899501Y14900316D01*
X26914033Y14827264D01*
X26914035Y14827258D01*
X26969397Y14744401D01*
X26969400Y14744398D01*
X27052257Y14689036D01*
X27052260Y14689034D01*
X27107808Y14677985D01*
X27125315Y14674502D01*
X27125320Y14674502D01*
X27125326Y14674500D01*
X27125327Y14674500D01*
X27674673Y14674500D01*
X27674674Y14674500D01*
X27747740Y14689034D01*
X27830601Y14744399D01*
X27885966Y14827260D01*
X27900500Y14900326D01*
X27900500Y15449674D01*
X27888068Y15512173D01*
X30499500Y15512173D01*
X30499500Y14962828D01*
X30499501Y14962816D01*
X30514033Y14889764D01*
X30514035Y14889758D01*
X30569397Y14806901D01*
X30569399Y14806899D01*
X30652260Y14751534D01*
X30707808Y14740485D01*
X30725315Y14737002D01*
X30725320Y14737002D01*
X30725326Y14737000D01*
X30725327Y14737000D01*
X31274673Y14737000D01*
X31274674Y14737000D01*
X31347740Y14751534D01*
X31430601Y14806899D01*
X31485966Y14889760D01*
X31500500Y14962826D01*
X31500500Y15439673D01*
X34099500Y15439673D01*
X34099500Y14890328D01*
X34099501Y14890316D01*
X34114033Y14817264D01*
X34114035Y14817258D01*
X34169397Y14734401D01*
X34169399Y14734399D01*
X34252260Y14679034D01*
X34300698Y14669399D01*
X34325315Y14664502D01*
X34325320Y14664502D01*
X34325326Y14664500D01*
X34325327Y14664500D01*
X34874673Y14664500D01*
X34874674Y14664500D01*
X34947740Y14679034D01*
X35030601Y14734399D01*
X35085966Y14817260D01*
X35100500Y14890326D01*
X35100500Y15392173D01*
X37699500Y15392173D01*
X37699500Y14842828D01*
X37699501Y14842816D01*
X37714033Y14769764D01*
X37714035Y14769758D01*
X37769397Y14686901D01*
X37769400Y14686898D01*
X37852257Y14631536D01*
X37852260Y14631534D01*
X37907808Y14620485D01*
X37925315Y14617002D01*
X37925320Y14617002D01*
X37925326Y14617000D01*
X37925327Y14617000D01*
X38474673Y14617000D01*
X38474674Y14617000D01*
X38547740Y14631534D01*
X38630601Y14686899D01*
X38685966Y14769760D01*
X38700500Y14842826D01*
X38700500Y15392174D01*
X38685966Y15465240D01*
X38655437Y15510931D01*
X38630602Y15548100D01*
X38630599Y15548103D01*
X38547742Y15603465D01*
X38547740Y15603466D01*
X38547737Y15603467D01*
X38547736Y15603467D01*
X38474684Y15617999D01*
X38474674Y15618000D01*
X37925326Y15618000D01*
X37925325Y15618000D01*
X37925315Y15617999D01*
X37852263Y15603467D01*
X37852257Y15603465D01*
X37769400Y15548103D01*
X37769397Y15548100D01*
X37714035Y15465243D01*
X37714033Y15465237D01*
X37699501Y15392185D01*
X37699500Y15392173D01*
X35100500Y15392173D01*
X35100500Y15439674D01*
X35085966Y15512740D01*
X35037522Y15585243D01*
X35030602Y15595600D01*
X35030599Y15595603D01*
X34947742Y15650965D01*
X34947740Y15650966D01*
X34947737Y15650967D01*
X34947736Y15650967D01*
X34874684Y15665499D01*
X34874674Y15665500D01*
X34325326Y15665500D01*
X34325325Y15665500D01*
X34325315Y15665499D01*
X34252263Y15650967D01*
X34252257Y15650965D01*
X34169400Y15595603D01*
X34169397Y15595600D01*
X34114035Y15512743D01*
X34114033Y15512737D01*
X34099501Y15439685D01*
X34099500Y15439673D01*
X31500500Y15439673D01*
X31500500Y15512174D01*
X31500387Y15512740D01*
X31493354Y15548100D01*
X31485966Y15585240D01*
X31476437Y15599502D01*
X31430602Y15668100D01*
X31430599Y15668103D01*
X31347742Y15723465D01*
X31347740Y15723466D01*
X31347737Y15723467D01*
X31347736Y15723467D01*
X31274684Y15737999D01*
X31274674Y15738000D01*
X30725326Y15738000D01*
X30725325Y15738000D01*
X30725315Y15737999D01*
X30652263Y15723467D01*
X30652257Y15723465D01*
X30569400Y15668103D01*
X30569397Y15668100D01*
X30514035Y15585243D01*
X30514033Y15585237D01*
X30499501Y15512185D01*
X30499500Y15512173D01*
X27888068Y15512173D01*
X27885966Y15522740D01*
X27843721Y15585965D01*
X27830602Y15605600D01*
X27830599Y15605603D01*
X27747742Y15660965D01*
X27747740Y15660966D01*
X27747737Y15660967D01*
X27747736Y15660967D01*
X27674684Y15675499D01*
X27674674Y15675500D01*
X27125326Y15675500D01*
X27125325Y15675500D01*
X27125315Y15675499D01*
X27052263Y15660967D01*
X27052257Y15660965D01*
X26969400Y15605603D01*
X26969397Y15605600D01*
X26914035Y15522743D01*
X26914033Y15522737D01*
X26899501Y15449685D01*
X26899500Y15449673D01*
X23038315Y15449673D01*
X23043612Y15476303D01*
X23050499Y15510923D01*
X23050500Y15510933D01*
X23050500Y15639068D01*
X23050500Y15639069D01*
X23025501Y15764744D01*
X22976465Y15883127D01*
X22976463Y15883130D01*
X22976461Y15883134D01*
X22927153Y15956927D01*
X22905276Y15989669D01*
X22814669Y16080276D01*
X22772226Y16108635D01*
X22708133Y16151462D01*
X22708125Y16151466D01*
X22589747Y16200500D01*
X22589745Y16200501D01*
X22589744Y16200501D01*
X22464069Y16225500D01*
X22335931Y16225500D01*
X22335930Y16225500D01*
X22273093Y16213001D01*
X22210256Y16200501D01*
X22210255Y16200501D01*
X22210252Y16200500D01*
X22091874Y16151466D01*
X22091866Y16151462D01*
X21985331Y16080276D01*
X21985327Y16080273D01*
X21894727Y15989673D01*
X21894724Y15989669D01*
X21823538Y15883134D01*
X21823534Y15883126D01*
X21774500Y15764748D01*
X21774499Y15764743D01*
X21751867Y15650966D01*
X21749500Y15639069D01*
X21749500Y15510931D01*
X21763674Y15439673D01*
X21774499Y15385258D01*
X21774501Y15385249D01*
X21783972Y15362385D01*
X21788773Y15301389D01*
X21756803Y15249220D01*
X21700275Y15225805D01*
X21692508Y15225500D01*
X18866509Y15225500D01*
X18866489Y15225501D01*
X18861609Y15225501D01*
X18738396Y15225501D01*
X18738393Y15225501D01*
X18688225Y15215522D01*
X18637599Y15205452D01*
X18637596Y15205452D01*
X18617550Y15201464D01*
X18617543Y15201462D01*
X18593151Y15191357D01*
X18593149Y15191356D01*
X18503719Y15154314D01*
X18503718Y15154314D01*
X18401269Y15085859D01*
X16714140Y13398728D01*
X16645686Y13296282D01*
X16598537Y13182451D01*
X16598537Y13182449D01*
X16574500Y13061608D01*
X11314446Y13061608D01*
X11262601Y13075500D01*
X11137399Y13075500D01*
X11056775Y13053897D01*
X11016463Y13043095D01*
X10908036Y12980495D01*
X10819505Y12891964D01*
X10756905Y12783537D01*
X10756905Y12783536D01*
X10724500Y12662601D01*
X3638000Y12662601D01*
X3638000Y12786615D01*
X3610902Y12957703D01*
X3610901Y12957707D01*
X3557376Y13122439D01*
X3557374Y13122442D01*
X3557373Y13122443D01*
X3557373Y13122445D01*
X3478732Y13276788D01*
X3376914Y13416928D01*
X3254428Y13539414D01*
X3114288Y13641232D01*
X3114287Y13641233D01*
X3114285Y13641234D01*
X2959941Y13719875D01*
X2959938Y13719877D01*
X2795206Y13773402D01*
X2795202Y13773403D01*
X2624114Y13800500D01*
X2624111Y13800500D01*
X2450889Y13800500D01*
X2450886Y13800500D01*
X2279797Y13773403D01*
X2279793Y13773402D01*
X2115061Y13719877D01*
X2115058Y13719875D01*
X1960714Y13641234D01*
X1820573Y13539415D01*
X1698085Y13416927D01*
X1596266Y13276786D01*
X1517625Y13122442D01*
X1517623Y13122439D01*
X1464098Y12957707D01*
X1464097Y12957703D01*
X1437000Y12786615D01*
X1098000Y12786615D01*
X1070902Y12957703D01*
X1070901Y12957707D01*
X1017376Y13122439D01*
X1017374Y13122442D01*
X1017373Y13122443D01*
X1017373Y13122445D01*
X938732Y13276788D01*
X836914Y13416928D01*
X714428Y13539414D01*
X574288Y13641232D01*
X574287Y13641233D01*
X574285Y13641234D01*
X419941Y13719875D01*
X419938Y13719877D01*
X255206Y13773402D01*
X255202Y13773403D01*
X84114Y13800500D01*
X84111Y13800500D01*
X-89111Y13800500D01*
X-89114Y13800500D01*
X-260203Y13773403D01*
X-260207Y13773402D01*
X-424939Y13719877D01*
X-424942Y13719875D01*
X-579286Y13641234D01*
X-719427Y13539415D01*
X-841915Y13416927D01*
X-943734Y13276786D01*
X-1022375Y13122442D01*
X-1022377Y13122439D01*
X-1075902Y12957707D01*
X-1075903Y12957703D01*
X-1103000Y12786615D01*
X-1950000Y12786615D01*
X-1950000Y15326615D01*
X-1103000Y15326615D01*
X-1103000Y15153386D01*
X-1075903Y14982298D01*
X-1075902Y14982294D01*
X-1022377Y14817562D01*
X-1022375Y14817559D01*
X-944389Y14664500D01*
X-943732Y14663212D01*
X-841914Y14523072D01*
X-719428Y14400586D01*
X-579288Y14298768D01*
X-424945Y14220127D01*
X-424943Y14220127D01*
X-424942Y14220126D01*
X-424939Y14220124D01*
X-260207Y14166599D01*
X-260203Y14166598D01*
X-89114Y14139500D01*
X-89111Y14139500D01*
X84114Y14139500D01*
X255202Y14166598D01*
X255206Y14166599D01*
X419938Y14220124D01*
X419940Y14220126D01*
X419945Y14220127D01*
X574288Y14298768D01*
X714428Y14400586D01*
X836914Y14523072D01*
X938732Y14663212D01*
X1017373Y14817555D01*
X1017374Y14817560D01*
X1017376Y14817562D01*
X1070901Y14982294D01*
X1070902Y14982298D01*
X1098000Y15153386D01*
X1098000Y15326615D01*
X1437000Y15326615D01*
X1437000Y15153386D01*
X1464097Y14982298D01*
X1464098Y14982294D01*
X1517623Y14817562D01*
X1517625Y14817559D01*
X1595611Y14664500D01*
X1596268Y14663212D01*
X1698086Y14523072D01*
X1820572Y14400586D01*
X1960712Y14298768D01*
X2115055Y14220127D01*
X2115057Y14220127D01*
X2115058Y14220126D01*
X2115061Y14220124D01*
X2279793Y14166599D01*
X2279797Y14166598D01*
X2450886Y14139500D01*
X2450889Y14139500D01*
X2624114Y14139500D01*
X2795202Y14166598D01*
X2795206Y14166599D01*
X2959938Y14220124D01*
X2959940Y14220126D01*
X2959945Y14220127D01*
X3114288Y14298768D01*
X3254428Y14400586D01*
X3376914Y14523072D01*
X3478732Y14663212D01*
X3557373Y14817555D01*
X3557374Y14817560D01*
X3557376Y14817562D01*
X3610901Y14982294D01*
X3610902Y14982298D01*
X3638000Y15153386D01*
X3638000Y15326616D01*
X3632071Y15364052D01*
X3630389Y15374673D01*
X8699500Y15374673D01*
X8699500Y14825328D01*
X8699501Y14825316D01*
X8714033Y14752264D01*
X8714035Y14752258D01*
X8769397Y14669401D01*
X8769400Y14669398D01*
X8826066Y14631536D01*
X8852260Y14614034D01*
X8907808Y14602985D01*
X8925315Y14599502D01*
X8925320Y14599502D01*
X8925326Y14599500D01*
X8925327Y14599500D01*
X9474673Y14599500D01*
X9474674Y14599500D01*
X9547740Y14614034D01*
X9630601Y14669399D01*
X9685966Y14752260D01*
X9700500Y14825326D01*
X9700500Y15374674D01*
X9698396Y15385249D01*
X9688459Y15435207D01*
X9685966Y15447740D01*
X9684674Y15449673D01*
X12999500Y15449673D01*
X12999500Y14900328D01*
X12999501Y14900316D01*
X13014033Y14827264D01*
X13014035Y14827258D01*
X13069397Y14744401D01*
X13069400Y14744398D01*
X13152257Y14689036D01*
X13152260Y14689034D01*
X13207808Y14677985D01*
X13225315Y14674502D01*
X13225320Y14674502D01*
X13225326Y14674500D01*
X13225327Y14674500D01*
X13774673Y14674500D01*
X13774674Y14674500D01*
X13847740Y14689034D01*
X13930601Y14744399D01*
X13985966Y14827260D01*
X14000500Y14900326D01*
X14000500Y15449674D01*
X13985966Y15522740D01*
X13943721Y15585965D01*
X13930602Y15605600D01*
X13930599Y15605603D01*
X13847742Y15660965D01*
X13847740Y15660966D01*
X13847737Y15660967D01*
X13847736Y15660967D01*
X13778836Y15674673D01*
X16899500Y15674673D01*
X16899500Y15125328D01*
X16899501Y15125316D01*
X16914033Y15052264D01*
X16914035Y15052258D01*
X16969397Y14969401D01*
X16969399Y14969399D01*
X17052260Y14914034D01*
X17107808Y14902985D01*
X17125315Y14899502D01*
X17125320Y14899502D01*
X17125326Y14899500D01*
X17125327Y14899500D01*
X17674673Y14899500D01*
X17674674Y14899500D01*
X17747740Y14914034D01*
X17830601Y14969399D01*
X17885966Y15052260D01*
X17900500Y15125326D01*
X17900500Y15674674D01*
X17885966Y15747740D01*
X17874605Y15764743D01*
X17830602Y15830600D01*
X17830599Y15830603D01*
X17747742Y15885965D01*
X17747740Y15885966D01*
X17747737Y15885967D01*
X17747736Y15885967D01*
X17674684Y15900499D01*
X17674674Y15900500D01*
X17125326Y15900500D01*
X17125325Y15900500D01*
X17125315Y15900499D01*
X17052263Y15885967D01*
X17052257Y15885965D01*
X16969400Y15830603D01*
X16969397Y15830600D01*
X16914035Y15747743D01*
X16914033Y15747737D01*
X16899501Y15674685D01*
X16899500Y15674673D01*
X13778836Y15674673D01*
X13774684Y15675499D01*
X13774674Y15675500D01*
X13225326Y15675500D01*
X13225325Y15675500D01*
X13225315Y15675499D01*
X13152263Y15660967D01*
X13152257Y15660965D01*
X13069400Y15605603D01*
X13069397Y15605600D01*
X13014035Y15522743D01*
X13014033Y15522737D01*
X12999501Y15449685D01*
X12999500Y15449673D01*
X9684674Y15449673D01*
X9652583Y15497702D01*
X9630602Y15530600D01*
X9630599Y15530603D01*
X9547742Y15585965D01*
X9547740Y15585966D01*
X9547737Y15585967D01*
X9547736Y15585967D01*
X9474684Y15600499D01*
X9474674Y15600500D01*
X8925326Y15600500D01*
X8925325Y15600500D01*
X8925315Y15600499D01*
X8852263Y15585967D01*
X8852257Y15585965D01*
X8769400Y15530603D01*
X8769397Y15530600D01*
X8714035Y15447743D01*
X8714033Y15447737D01*
X8699501Y15374685D01*
X8699500Y15374673D01*
X3630389Y15374673D01*
X3610902Y15497702D01*
X3610901Y15497707D01*
X3557376Y15662439D01*
X3557374Y15662442D01*
X3557373Y15662443D01*
X3557373Y15662445D01*
X3478732Y15816788D01*
X3376914Y15956928D01*
X3254428Y16079414D01*
X3114288Y16181232D01*
X3114287Y16181233D01*
X3114285Y16181234D01*
X2959941Y16259875D01*
X2959938Y16259877D01*
X2881434Y16285384D01*
X2795206Y16313402D01*
X2795202Y16313403D01*
X2624114Y16340500D01*
X2624111Y16340500D01*
X2450889Y16340500D01*
X2450886Y16340500D01*
X2279797Y16313403D01*
X2279793Y16313402D01*
X2115061Y16259877D01*
X2115058Y16259875D01*
X1960714Y16181234D01*
X1820573Y16079415D01*
X1698085Y15956927D01*
X1596266Y15816786D01*
X1517625Y15662442D01*
X1517623Y15662439D01*
X1464098Y15497707D01*
X1464097Y15497703D01*
X1437000Y15326615D01*
X1098000Y15326615D01*
X1070902Y15497703D01*
X1070901Y15497707D01*
X1017376Y15662439D01*
X1017374Y15662442D01*
X1017373Y15662443D01*
X1017373Y15662445D01*
X938732Y15816788D01*
X836914Y15956928D01*
X714428Y16079414D01*
X574288Y16181232D01*
X574287Y16181233D01*
X574285Y16181234D01*
X419941Y16259875D01*
X419938Y16259877D01*
X255206Y16313402D01*
X255202Y16313403D01*
X84114Y16340500D01*
X84111Y16340500D01*
X-89111Y16340500D01*
X-89114Y16340500D01*
X-260203Y16313403D01*
X-260207Y16313402D01*
X-424939Y16259877D01*
X-424942Y16259875D01*
X-579286Y16181234D01*
X-719427Y16079415D01*
X-841915Y15956927D01*
X-943734Y15816786D01*
X-1022375Y15662442D01*
X-1022377Y15662439D01*
X-1075902Y15497707D01*
X-1075903Y15497703D01*
X-1103000Y15326615D01*
X-1950000Y15326615D01*
X-1950000Y16374673D01*
X4699500Y16374673D01*
X4699500Y15825328D01*
X4699501Y15825316D01*
X4714033Y15752264D01*
X4714035Y15752258D01*
X4769397Y15669401D01*
X4769400Y15669398D01*
X4796985Y15650967D01*
X4852260Y15614034D01*
X4905383Y15603467D01*
X4925315Y15599502D01*
X4925320Y15599502D01*
X4925326Y15599500D01*
X4925327Y15599500D01*
X5474673Y15599500D01*
X5474674Y15599500D01*
X5547740Y15614034D01*
X5630601Y15669399D01*
X5685966Y15752260D01*
X5700500Y15825326D01*
X5700500Y16374674D01*
X5685966Y16447740D01*
X5630601Y16530601D01*
X5630599Y16530603D01*
X5547742Y16585965D01*
X5547740Y16585966D01*
X5547737Y16585967D01*
X5547736Y16585967D01*
X5474684Y16600499D01*
X5474674Y16600500D01*
X4925326Y16600500D01*
X4925325Y16600500D01*
X4925315Y16600499D01*
X4852263Y16585967D01*
X4852257Y16585965D01*
X4769400Y16530603D01*
X4769397Y16530600D01*
X4714035Y16447743D01*
X4714033Y16447737D01*
X4699501Y16374685D01*
X4699500Y16374673D01*
X-1950000Y16374673D01*
X-1950000Y17866615D01*
X-1103000Y17866615D01*
X-1103000Y17693386D01*
X-1075903Y17522298D01*
X-1075902Y17522294D01*
X-1022377Y17357562D01*
X-1022375Y17357559D01*
X-1022374Y17357556D01*
X-1022373Y17357555D01*
X-943732Y17203212D01*
X-841914Y17063072D01*
X-719428Y16940586D01*
X-579288Y16838768D01*
X-424945Y16760127D01*
X-424943Y16760127D01*
X-424942Y16760126D01*
X-424939Y16760124D01*
X-260207Y16706599D01*
X-260203Y16706598D01*
X-89114Y16679500D01*
X-89111Y16679500D01*
X84114Y16679500D01*
X255202Y16706598D01*
X255206Y16706599D01*
X419938Y16760124D01*
X419940Y16760126D01*
X419945Y16760127D01*
X574288Y16838768D01*
X714428Y16940586D01*
X836914Y17063072D01*
X938732Y17203212D01*
X1017373Y17357555D01*
X1017374Y17357560D01*
X1017376Y17357562D01*
X1070901Y17522294D01*
X1070902Y17522298D01*
X1098000Y17693386D01*
X1098000Y17866615D01*
X1437000Y17866615D01*
X1437000Y17693386D01*
X1464097Y17522298D01*
X1464098Y17522294D01*
X1517623Y17357562D01*
X1517625Y17357559D01*
X1517626Y17357556D01*
X1517627Y17357555D01*
X1596268Y17203212D01*
X1698086Y17063072D01*
X1820572Y16940586D01*
X1960712Y16838768D01*
X2115055Y16760127D01*
X2115057Y16760127D01*
X2115058Y16760126D01*
X2115061Y16760124D01*
X2279793Y16706599D01*
X2279797Y16706598D01*
X2450886Y16679500D01*
X2450889Y16679500D01*
X2624114Y16679500D01*
X2795202Y16706598D01*
X2795206Y16706599D01*
X2959938Y16760124D01*
X2959940Y16760126D01*
X2959945Y16760127D01*
X3114288Y16838768D01*
X3254428Y16940586D01*
X3376914Y17063072D01*
X3478732Y17203212D01*
X3557373Y17357555D01*
X3557374Y17357560D01*
X3557376Y17357562D01*
X3610901Y17522294D01*
X3610902Y17522298D01*
X3638000Y17693386D01*
X3638000Y17866615D01*
X3610902Y18037703D01*
X3610901Y18037707D01*
X3557376Y18202439D01*
X3557374Y18202442D01*
X3557373Y18202443D01*
X3557373Y18202445D01*
X3478732Y18356788D01*
X3376914Y18496928D01*
X3254428Y18619414D01*
X3114288Y18721232D01*
X3114287Y18721233D01*
X3114285Y18721234D01*
X2959941Y18799875D01*
X2959938Y18799877D01*
X2795206Y18853402D01*
X2795202Y18853403D01*
X2624114Y18880500D01*
X2624111Y18880500D01*
X2450889Y18880500D01*
X2450886Y18880500D01*
X2279797Y18853403D01*
X2279793Y18853402D01*
X2115061Y18799877D01*
X2115058Y18799875D01*
X1960714Y18721234D01*
X1820573Y18619415D01*
X1698085Y18496927D01*
X1596266Y18356786D01*
X1517625Y18202442D01*
X1517623Y18202439D01*
X1464098Y18037707D01*
X1464097Y18037703D01*
X1437000Y17866615D01*
X1098000Y17866615D01*
X1070902Y18037703D01*
X1070901Y18037707D01*
X1017376Y18202439D01*
X1017374Y18202442D01*
X1017373Y18202443D01*
X1017373Y18202445D01*
X938732Y18356788D01*
X836914Y18496928D01*
X714428Y18619414D01*
X574288Y18721232D01*
X574287Y18721233D01*
X574285Y18721234D01*
X419941Y18799875D01*
X419938Y18799877D01*
X255206Y18853402D01*
X255202Y18853403D01*
X84114Y18880500D01*
X84111Y18880500D01*
X-89111Y18880500D01*
X-89114Y18880500D01*
X-260203Y18853403D01*
X-260207Y18853402D01*
X-424939Y18799877D01*
X-424942Y18799875D01*
X-579286Y18721234D01*
X-719427Y18619415D01*
X-841915Y18496927D01*
X-943734Y18356786D01*
X-1022375Y18202442D01*
X-1022377Y18202439D01*
X-1075902Y18037707D01*
X-1075903Y18037703D01*
X-1103000Y17866615D01*
X-1950000Y17866615D01*
X-1950000Y20406615D01*
X-1103000Y20406615D01*
X-1103000Y20233386D01*
X-1075903Y20062298D01*
X-1075902Y20062294D01*
X-1022377Y19897562D01*
X-1022375Y19897559D01*
X-1022374Y19897556D01*
X-1022373Y19897555D01*
X-943732Y19743212D01*
X-841914Y19603072D01*
X-719428Y19480586D01*
X-579288Y19378768D01*
X-424945Y19300127D01*
X-424943Y19300127D01*
X-424942Y19300126D01*
X-424939Y19300124D01*
X-260207Y19246599D01*
X-260203Y19246598D01*
X-89114Y19219500D01*
X-89111Y19219500D01*
X84114Y19219500D01*
X255202Y19246598D01*
X255206Y19246599D01*
X419938Y19300124D01*
X419940Y19300126D01*
X419945Y19300127D01*
X574288Y19378768D01*
X714428Y19480586D01*
X836914Y19603072D01*
X938732Y19743212D01*
X1017373Y19897555D01*
X1017374Y19897560D01*
X1017376Y19897562D01*
X1070901Y20062294D01*
X1070902Y20062298D01*
X1098000Y20233386D01*
X1098000Y20406615D01*
X1437000Y20406615D01*
X1437000Y20233386D01*
X1464097Y20062298D01*
X1464098Y20062294D01*
X1517623Y19897562D01*
X1517625Y19897559D01*
X1517626Y19897556D01*
X1517627Y19897555D01*
X1596268Y19743212D01*
X1698086Y19603072D01*
X1820572Y19480586D01*
X1960712Y19378768D01*
X2115055Y19300127D01*
X2115057Y19300127D01*
X2115058Y19300126D01*
X2115061Y19300124D01*
X2279793Y19246599D01*
X2279797Y19246598D01*
X2450886Y19219500D01*
X2450889Y19219500D01*
X2624114Y19219500D01*
X2795202Y19246598D01*
X2795206Y19246599D01*
X2959938Y19300124D01*
X2959940Y19300126D01*
X2959945Y19300127D01*
X3114288Y19378768D01*
X3254428Y19480586D01*
X3376914Y19603072D01*
X3478732Y19743212D01*
X3557373Y19897555D01*
X3557374Y19897560D01*
X3557376Y19897562D01*
X3610901Y20062294D01*
X3610902Y20062298D01*
X3638000Y20233386D01*
X3638000Y20406615D01*
X3610902Y20577703D01*
X3610901Y20577707D01*
X3557376Y20742439D01*
X3557374Y20742442D01*
X3557373Y20742443D01*
X3557373Y20742445D01*
X3478732Y20896788D01*
X3376914Y21036928D01*
X3254428Y21159414D01*
X3114288Y21261232D01*
X3114287Y21261233D01*
X3114285Y21261234D01*
X2959941Y21339875D01*
X2959938Y21339877D01*
X2795206Y21393402D01*
X2795202Y21393403D01*
X2624114Y21420500D01*
X2624111Y21420500D01*
X2450889Y21420500D01*
X2450886Y21420500D01*
X2279797Y21393403D01*
X2279793Y21393402D01*
X2115061Y21339877D01*
X2115058Y21339875D01*
X1960714Y21261234D01*
X1820573Y21159415D01*
X1698085Y21036927D01*
X1596266Y20896786D01*
X1517625Y20742442D01*
X1517623Y20742439D01*
X1464098Y20577707D01*
X1464097Y20577703D01*
X1437000Y20406615D01*
X1098000Y20406615D01*
X1070902Y20577703D01*
X1070901Y20577707D01*
X1017376Y20742439D01*
X1017374Y20742442D01*
X1017373Y20742443D01*
X1017373Y20742445D01*
X938732Y20896788D01*
X836914Y21036928D01*
X714428Y21159414D01*
X574288Y21261232D01*
X574287Y21261233D01*
X574285Y21261234D01*
X419941Y21339875D01*
X419938Y21339877D01*
X255206Y21393402D01*
X255202Y21393403D01*
X84114Y21420500D01*
X84111Y21420500D01*
X-89111Y21420500D01*
X-89114Y21420500D01*
X-260203Y21393403D01*
X-260207Y21393402D01*
X-424939Y21339877D01*
X-424942Y21339875D01*
X-579286Y21261234D01*
X-719427Y21159415D01*
X-841915Y21036927D01*
X-943734Y20896786D01*
X-1022375Y20742442D01*
X-1022377Y20742439D01*
X-1075902Y20577707D01*
X-1075903Y20577703D01*
X-1103000Y20406615D01*
X-1950000Y20406615D01*
X-1950000Y22946615D01*
X-1103000Y22946615D01*
X-1103000Y22773386D01*
X-1075903Y22602298D01*
X-1075902Y22602294D01*
X-1022377Y22437562D01*
X-1022375Y22437559D01*
X-946419Y22288484D01*
X-943732Y22283212D01*
X-841914Y22143072D01*
X-719428Y22020586D01*
X-579288Y21918768D01*
X-424945Y21840127D01*
X-424943Y21840127D01*
X-424942Y21840126D01*
X-424939Y21840124D01*
X-260207Y21786599D01*
X-260203Y21786598D01*
X-89114Y21759500D01*
X-89111Y21759500D01*
X84114Y21759500D01*
X255202Y21786598D01*
X255206Y21786599D01*
X419938Y21840124D01*
X419940Y21840126D01*
X419945Y21840127D01*
X574288Y21918768D01*
X714428Y22020586D01*
X836914Y22143072D01*
X938732Y22283212D01*
X1017373Y22437555D01*
X1017374Y22437560D01*
X1017376Y22437562D01*
X1070901Y22602294D01*
X1070902Y22602298D01*
X1098000Y22773386D01*
X1098000Y22946615D01*
X1437000Y22946615D01*
X1437000Y22773386D01*
X1464097Y22602298D01*
X1464098Y22602294D01*
X1517623Y22437562D01*
X1517625Y22437559D01*
X1593581Y22288484D01*
X1596268Y22283212D01*
X1698086Y22143072D01*
X1820572Y22020586D01*
X1960712Y21918768D01*
X2115055Y21840127D01*
X2115057Y21840127D01*
X2115058Y21840126D01*
X2115061Y21840124D01*
X2279793Y21786599D01*
X2279797Y21786598D01*
X2450886Y21759500D01*
X2450889Y21759500D01*
X2624114Y21759500D01*
X2795202Y21786598D01*
X2795206Y21786599D01*
X2959938Y21840124D01*
X2959940Y21840126D01*
X2959945Y21840127D01*
X3114288Y21918768D01*
X3254428Y22020586D01*
X3376914Y22143072D01*
X3478732Y22283212D01*
X3557373Y22437555D01*
X3557374Y22437560D01*
X3557376Y22437562D01*
X3610901Y22602294D01*
X3610902Y22602298D01*
X3638000Y22773386D01*
X3638000Y22946615D01*
X3610902Y23117703D01*
X3610901Y23117707D01*
X3557376Y23282439D01*
X3557374Y23282442D01*
X3557373Y23282443D01*
X3557373Y23282445D01*
X3478732Y23436788D01*
X3376914Y23576928D01*
X3254428Y23699414D01*
X3114288Y23801232D01*
X3114287Y23801233D01*
X3114285Y23801234D01*
X2959941Y23879875D01*
X2959938Y23879877D01*
X2795206Y23933402D01*
X2795202Y23933403D01*
X2624114Y23960500D01*
X2624111Y23960500D01*
X2450889Y23960500D01*
X2450886Y23960500D01*
X2279797Y23933403D01*
X2279793Y23933402D01*
X2115061Y23879877D01*
X2115058Y23879875D01*
X1960714Y23801234D01*
X1820573Y23699415D01*
X1698085Y23576927D01*
X1596266Y23436786D01*
X1517625Y23282442D01*
X1517623Y23282439D01*
X1464098Y23117707D01*
X1464097Y23117703D01*
X1437000Y22946615D01*
X1098000Y22946615D01*
X1070902Y23117703D01*
X1070901Y23117707D01*
X1017376Y23282439D01*
X1017374Y23282442D01*
X1017373Y23282443D01*
X1017373Y23282445D01*
X938732Y23436788D01*
X836914Y23576928D01*
X714428Y23699414D01*
X574288Y23801232D01*
X574287Y23801233D01*
X574285Y23801234D01*
X419941Y23879875D01*
X419938Y23879877D01*
X255206Y23933402D01*
X255202Y23933403D01*
X84114Y23960500D01*
X84111Y23960500D01*
X-89111Y23960500D01*
X-89114Y23960500D01*
X-260203Y23933403D01*
X-260207Y23933402D01*
X-424939Y23879877D01*
X-424942Y23879875D01*
X-579286Y23801234D01*
X-719427Y23699415D01*
X-841915Y23576927D01*
X-943734Y23436786D01*
X-1022375Y23282442D01*
X-1022377Y23282439D01*
X-1075902Y23117707D01*
X-1075903Y23117703D01*
X-1103000Y22946615D01*
X-1950000Y22946615D01*
X-1950000Y24550883D01*
X-1931093Y24609074D01*
X-1881593Y24645038D01*
X-1850889Y24649883D01*
X9168253Y24636765D01*
G37*
G04 #@! TD.AperFunction*
G04 #@! TD*
M02*
