%TF.GenerationSoftware,KiCad,Pcbnew,8.0.7*%
%TF.CreationDate,2024-12-23T22:59:07-05:00*%
%TF.ProjectId,tac5212_audio_board_single_ended,74616335-3231-4325-9f61-7564696f5f62,rev?*%
%TF.SameCoordinates,Original*%
%TF.FileFunction,Paste,Top*%
%TF.FilePolarity,Positive*%
%FSLAX46Y46*%
G04 Gerber Fmt 4.6, Leading zero omitted, Abs format (unit mm)*
G04 Created by KiCad (PCBNEW 8.0.7) date 2024-12-23 22:59:07*
%MOMM*%
%LPD*%
G01*
G04 APERTURE LIST*
G04 Aperture macros list*
%AMRoundRect*
0 Rectangle with rounded corners*
0 $1 Rounding radius*
0 $2 $3 $4 $5 $6 $7 $8 $9 X,Y pos of 4 corners*
0 Add a 4 corners polygon primitive as box body*
4,1,4,$2,$3,$4,$5,$6,$7,$8,$9,$2,$3,0*
0 Add four circle primitives for the rounded corners*
1,1,$1+$1,$2,$3*
1,1,$1+$1,$4,$5*
1,1,$1+$1,$6,$7*
1,1,$1+$1,$8,$9*
0 Add four rect primitives between the rounded corners*
20,1,$1+$1,$2,$3,$4,$5,0*
20,1,$1+$1,$4,$5,$6,$7,0*
20,1,$1+$1,$6,$7,$8,$9,0*
20,1,$1+$1,$8,$9,$2,$3,0*%
%AMFreePoly0*
4,1,25,0.251037,0.433748,0.282717,0.409439,0.409439,0.282717,0.449030,0.214145,0.454242,0.174554,0.454242,-0.174554,0.433748,-0.251037,0.409439,-0.282717,0.282717,-0.409439,0.214145,-0.449030,0.174554,-0.454242,-0.174554,-0.454242,-0.251037,-0.433748,-0.282717,-0.409439,-0.409439,-0.282717,-0.449030,-0.214145,-0.454242,-0.174554,-0.454242,0.174554,-0.433748,0.251037,-0.409439,0.282717,
-0.282717,0.409439,-0.214145,0.449030,-0.174554,0.454242,0.174554,0.454242,0.251037,0.433748,0.251037,0.433748,$1*%
G04 Aperture macros list end*
%ADD10RoundRect,0.160000X0.252791X-0.026517X-0.026517X0.252791X-0.252791X0.026517X0.026517X-0.252791X0*%
%ADD11RoundRect,0.135000X-0.226274X-0.035355X-0.035355X-0.226274X0.226274X0.035355X0.035355X0.226274X0*%
%ADD12RoundRect,0.250000X0.337500X0.475000X-0.337500X0.475000X-0.337500X-0.475000X0.337500X-0.475000X0*%
%ADD13RoundRect,0.160000X-0.026517X-0.252791X0.252791X0.026517X0.026517X0.252791X-0.252791X-0.026517X0*%
%ADD14RoundRect,0.140000X0.219203X0.021213X0.021213X0.219203X-0.219203X-0.021213X-0.021213X-0.219203X0*%
%ADD15RoundRect,0.250000X0.574524X0.097227X0.097227X0.574524X-0.574524X-0.097227X-0.097227X-0.574524X0*%
%ADD16RoundRect,0.150000X0.512500X0.150000X-0.512500X0.150000X-0.512500X-0.150000X0.512500X-0.150000X0*%
%ADD17RoundRect,0.135000X-0.185000X0.135000X-0.185000X-0.135000X0.185000X-0.135000X0.185000X0.135000X0*%
%ADD18RoundRect,0.237500X-0.300000X-0.237500X0.300000X-0.237500X0.300000X0.237500X-0.300000X0.237500X0*%
%ADD19RoundRect,0.140000X-0.021213X0.219203X-0.219203X0.021213X0.021213X-0.219203X0.219203X-0.021213X0*%
%ADD20RoundRect,0.250000X-0.097227X0.574524X-0.574524X0.097227X0.097227X-0.574524X0.574524X-0.097227X0*%
%ADD21RoundRect,0.250000X-0.450000X0.350000X-0.450000X-0.350000X0.450000X-0.350000X0.450000X0.350000X0*%
%ADD22RoundRect,0.140000X0.021213X-0.219203X0.219203X-0.021213X-0.021213X0.219203X-0.219203X0.021213X0*%
%ADD23RoundRect,0.135000X-0.135000X-0.185000X0.135000X-0.185000X0.135000X0.185000X-0.135000X0.185000X0*%
%ADD24RoundRect,0.237500X-0.044194X-0.380070X0.380070X0.044194X0.044194X0.380070X-0.380070X-0.044194X0*%
%ADD25RoundRect,0.135000X0.135000X0.185000X-0.135000X0.185000X-0.135000X-0.185000X0.135000X-0.185000X0*%
%ADD26FreePoly0,45.000000*%
%ADD27RoundRect,0.062500X-0.185616X-0.274004X0.274004X0.185616X0.185616X0.274004X-0.274004X-0.185616X0*%
%ADD28RoundRect,0.062500X0.185616X-0.274004X0.274004X-0.185616X-0.185616X0.274004X-0.274004X0.185616X0*%
%ADD29RoundRect,0.062500X0.000000X-0.088388X0.088388X0.000000X0.000000X0.088388X-0.088388X0.000000X0*%
%ADD30RoundRect,0.160000X-0.197500X-0.160000X0.197500X-0.160000X0.197500X0.160000X-0.197500X0.160000X0*%
%ADD31RoundRect,0.135000X0.226274X0.035355X0.035355X0.226274X-0.226274X-0.035355X-0.035355X-0.226274X0*%
G04 APERTURE END LIST*
D10*
%TO.C,R113*%
X112937059Y-114705168D03*
X112092067Y-113860176D03*
%TD*%
D11*
%TO.C,R121*%
X109617194Y-116508362D03*
X110338442Y-117229610D03*
%TD*%
D10*
%TO.C,R112*%
X113677789Y-113964439D03*
X112832797Y-113119447D03*
%TD*%
D12*
%TO.C,C111*%
X108818261Y-118400000D03*
X106743261Y-118400000D03*
%TD*%
D10*
%TO.C,R114*%
X112157509Y-115484718D03*
X111312517Y-114639726D03*
%TD*%
D13*
%TO.C,R115*%
X105445334Y-114708704D03*
X106290326Y-113863712D03*
%TD*%
D14*
%TO.C,C109*%
X105939411Y-109539411D03*
X105260589Y-108860589D03*
%TD*%
D15*
%TO.C,C115*%
X102133623Y-114433623D03*
X100666377Y-112966377D03*
%TD*%
D16*
%TO.C,U108*%
X97137500Y-116050000D03*
X97137500Y-115100000D03*
X97137500Y-114150000D03*
X94862500Y-114150000D03*
X94862500Y-116050000D03*
%TD*%
D13*
%TO.C,R118*%
X106788837Y-116052207D03*
X107633829Y-115207215D03*
%TD*%
D17*
%TO.C,R126*%
X122200000Y-116390000D03*
X122200000Y-117410000D03*
%TD*%
D18*
%TO.C,C118*%
X113437500Y-108800000D03*
X115162500Y-108800000D03*
%TD*%
D19*
%TO.C,C116*%
X104937914Y-111892722D03*
X104259092Y-112571544D03*
%TD*%
D20*
%TO.C,C108*%
X102733623Y-109166377D03*
X101266377Y-110633623D03*
%TD*%
D21*
%TO.C,D116*%
X120200000Y-116100000D03*
X120200000Y-118100000D03*
%TD*%
D22*
%TO.C,C112*%
X108060589Y-116739411D03*
X108739411Y-116060589D03*
%TD*%
D10*
%TO.C,R110*%
X114420251Y-113221977D03*
X113575259Y-112376985D03*
%TD*%
D18*
%TO.C,C128*%
X95937500Y-118000000D03*
X97662500Y-118000000D03*
%TD*%
D23*
%TO.C,R123*%
X121090000Y-112900000D03*
X122110000Y-112900000D03*
%TD*%
D24*
%TO.C,C119*%
X102590120Y-112009880D03*
X103809880Y-110790120D03*
%TD*%
D25*
%TO.C,R124*%
X117410000Y-112900000D03*
X116390000Y-112900000D03*
%TD*%
D13*
%TO.C,R119*%
X104773583Y-114036952D03*
X105618575Y-113191960D03*
%TD*%
%TO.C,R117*%
X106117086Y-115380455D03*
X106962078Y-114535463D03*
%TD*%
D26*
%TO.C,TAC5212*%
X108510571Y-111000000D03*
X109200000Y-111689429D03*
X109200000Y-110310571D03*
X109889429Y-111000000D03*
D27*
X106910742Y-111521491D03*
X107264295Y-111875045D03*
X107617849Y-112228598D03*
X107971402Y-112582151D03*
X108324955Y-112935705D03*
X108678509Y-113289258D03*
D28*
X109721491Y-113289258D03*
X110075045Y-112935705D03*
X110428598Y-112582151D03*
X110782151Y-112228598D03*
X111135705Y-111875045D03*
X111489258Y-111521491D03*
D27*
X111489258Y-110478509D03*
X111135705Y-110124955D03*
X110782151Y-109771402D03*
X110428598Y-109417849D03*
X110075045Y-109064295D03*
X109721491Y-108710742D03*
D28*
X108678509Y-108710742D03*
X108324955Y-109064295D03*
X107971402Y-109417849D03*
X107617849Y-109771402D03*
X107264295Y-110124955D03*
X106910742Y-110478509D03*
D29*
X106767553Y-111000000D03*
X109200000Y-113432447D03*
X111632447Y-111000000D03*
X109200000Y-108567553D03*
%TD*%
D25*
%TO.C,R122*%
X119910000Y-112900000D03*
X118890000Y-112900000D03*
%TD*%
D30*
%TO.C,R125*%
X94502500Y-112600000D03*
X95697500Y-112600000D03*
%TD*%
D31*
%TO.C,R120*%
X111141385Y-116460624D03*
X110420137Y-115739376D03*
%TD*%
M02*
