%TF.GenerationSoftware,KiCad,Pcbnew,8.0.7*%
%TF.CreationDate,2025-01-05T20:36:38-05:00*%
%TF.ProjectId,tac5212_audio_board_single_ended,74616335-3231-4325-9f61-7564696f5f62,rev?*%
%TF.SameCoordinates,Original*%
%TF.FileFunction,Component,L1,Top*%
%TF.FilePolarity,Positive*%
%FSLAX46Y46*%
G04 Gerber Fmt 4.6, Leading zero omitted, Abs format (unit mm)*
G04 Created by KiCad (PCBNEW 8.0.7) date 2025-01-05 20:36:38*
%MOMM*%
%LPD*%
G01*
G04 APERTURE LIST*
%TA.AperFunction,ComponentMain*%
%ADD10C,0.300000*%
%TD*%
%TA.AperFunction,ComponentOutline,Courtyard*%
%ADD11C,0.100000*%
%TD*%
%TA.AperFunction,ComponentPin*%
%ADD12P,0.360000X4X0.000000*%
%TD*%
%TA.AperFunction,ComponentPin*%
%ADD13C,0.100000*%
%TD*%
%TA.AperFunction,ComponentOutline,Footprint*%
%ADD14C,0.100000*%
%TD*%
G04 APERTURE END LIST*
D10*
%TO.C,R113*%
%TO.CFtp,R_0402_1005Metric_Pad0.72x0.64mm_HandSolder*%
%TO.CVal,0 Ohm*%
%TO.CLbN,Resistor_SMD*%
%TO.CMnt,SMD*%
%TO.CRot,135*%
X112514563Y-114282672D03*
D11*
X113617649Y-114728149D02*
X112960040Y-115385758D01*
X111411477Y-113837195D01*
X112069086Y-113179586D01*
X113617649Y-114728149D01*
D12*
%TO.P,R113,1*%
X112937059Y-114705168D03*
D13*
%TO.P,R113,2*%
X112092067Y-113860176D03*
%TD*%
D10*
%TO.C,R121*%
%TO.CFtp,R_0402_1005Metric*%
%TO.CVal,2.21k ohm*%
%TO.CLbN,Resistor_SMD*%
%TO.CMnt,SMD*%
%TO.CRot,-45*%
X109977818Y-116868986D03*
D11*
X110960695Y-117194255D02*
X110303087Y-117851863D01*
X108994941Y-116543717D01*
X109652549Y-115886109D01*
X110960695Y-117194255D01*
D12*
%TO.P,R121,1*%
X109617194Y-116508362D03*
D13*
%TO.P,R121,2*%
X110338442Y-117229610D03*
%TD*%
D10*
%TO.C,board_outline108*%
%TO.CFtp,audio_module_board_outline_50x34.5_d1*%
%TO.CVal,board*%
%TO.CLbN,project_fp*%
%TO.CMnt,TH*%
%TO.CRot,0*%
X84832500Y-124405000D03*
D14*
X85947500Y-98145000D02*
X85947500Y-124205000D01*
X126492500Y-124205000D01*
X126492500Y-98145000D01*
X85947500Y-98145000D01*
D12*
%TO.P,board_outline108,1,HELD_HIGH*%
X89337500Y-122600000D03*
D13*
%TO.P,board_outline108,2,HELD_LOW*%
X86797500Y-122600000D03*
%TO.P,board_outline108,3,5V*%
X89337500Y-120060000D03*
%TO.P,board_outline108,4,GNDD*%
X86797500Y-120060000D03*
%TO.P,board_outline108,5,12V*%
X89337500Y-117520000D03*
%TO.P,board_outline108,6,GNDD*%
X86797500Y-117520000D03*
%TO.P,board_outline108,7,DSP_DOUT*%
X89337500Y-114980000D03*
%TO.P,board_outline108,8,GNDD*%
X86797500Y-114980000D03*
%TO.P,board_outline108,9,DSP_DIN*%
X89337500Y-112440000D03*
%TO.P,board_outline108,10,GNDD*%
X86797500Y-112440000D03*
%TO.P,board_outline108,11,BCLK*%
X89337500Y-109900000D03*
%TO.P,board_outline108,12,GNDD*%
X86797500Y-109900000D03*
%TO.P,board_outline108,13,LRCK*%
X89337500Y-107360000D03*
%TO.P,board_outline108,14,GNDD*%
X86797500Y-107360000D03*
%TO.P,board_outline108,15,SDA*%
X89337500Y-104820000D03*
%TO.P,board_outline108,16,GNDD*%
X86797500Y-104820000D03*
%TO.P,board_outline108,17,SCL*%
X89337500Y-102280000D03*
%TO.P,board_outline108,18,GNDD*%
X86797500Y-102280000D03*
%TO.P,board_outline108,19,MCLK*%
X89337500Y-99740000D03*
%TO.P,board_outline108,20,GNDD*%
X86797500Y-99740000D03*
%TO.P,board_outline108,21,OUTP*%
X102047500Y-102285000D03*
%TO.P,board_outline108,22,AGND*%
X102047500Y-99745000D03*
%TO.P,board_outline108,23,OUT1M*%
X104587500Y-102285000D03*
%TO.P,board_outline108,24,AGND*%
X104587500Y-99745000D03*
%TO.P,board_outline108,25,OUT2P*%
X107127500Y-102285000D03*
%TO.P,board_outline108,26,AGND*%
X107127500Y-99745000D03*
%TO.P,board_outline108,27,OUT2M*%
X109667500Y-102285000D03*
%TO.P,board_outline108,28,AGND*%
X109667500Y-99745000D03*
%TO.P,board_outline108,29,IN1P*%
X112207500Y-102285000D03*
%TO.P,board_outline108,30,AGND*%
X112207500Y-99745000D03*
%TO.P,board_outline108,31,IN1M*%
X114747500Y-102285000D03*
%TO.P,board_outline108,32,AGND*%
X114747500Y-99745000D03*
%TO.P,board_outline108,33,IN2P*%
X117287500Y-102285000D03*
%TO.P,board_outline108,34,AGND*%
X117287500Y-99745000D03*
%TO.P,board_outline108,35,IN2M*%
X119827500Y-102285000D03*
%TO.P,board_outline108,36,AGND*%
X119827500Y-99745000D03*
%TO.P,board_outline108,37,SCL*%
X102047500Y-122605000D03*
%TO.P,board_outline108,38,SDA*%
X104587500Y-122605000D03*
%TO.P,board_outline108,39,GNDD*%
X107127500Y-122605000D03*
%TO.P,board_outline108,40,GPIO1*%
X109667500Y-122605000D03*
%TO.P,board_outline108,41,GPIO2*%
X112207500Y-122605000D03*
%TO.P,board_outline108,42,GPO1*%
X114747500Y-122605000D03*
%TO.P,board_outline108,43,GPI1*%
X117287500Y-122605000D03*
%TO.P,board_outline108,44,GNDD*%
X119827500Y-122605000D03*
%TO.P,board_outline108,45,5V*%
X124892500Y-117525000D03*
%TO.P,board_outline108,46,3.3V*%
X124892500Y-114985000D03*
%TO.P,board_outline108,47,GNDD*%
X124892500Y-112445000D03*
%TO.P,board_outline108,48,MIC_BIAS*%
X122352500Y-102285000D03*
%TO.P,board_outline108,49,AGND*%
X96952500Y-99745000D03*
%TO.P,board_outline108,50,AGND*%
X124892500Y-99745000D03*
%TO.P,board_outline108,51,DGND*%
X96952500Y-122605000D03*
%TO.P,board_outline108,52,DGND*%
X124892500Y-122605000D03*
%TD*%
D10*
%TO.C,G110*%
%TO.CFtp,via*%
%TO.CVal,VIA*%
%TO.CLbN,project_fp*%
%TO.CMnt,TH*%
%TO.CRot,0*%
X117100000Y-114000000D03*
D14*
X116850000Y-113750000D02*
X116850000Y-114250000D01*
X117350000Y-114250000D01*
X117350000Y-113750000D01*
X116850000Y-113750000D01*
D12*
%TO.P,G110,1,1*%
X117100000Y-114000000D03*
%TD*%
D10*
%TO.C,ADD108*%
%TO.CFtp,SolderJumper-2_Open_Pad0.5x1.0mm_ADDR*%
%TO.CVal,0x50 | 0xA0*%
%TO.CLbN,project_fp*%
%TO.CMnt,Other*%
%TO.CRot,90*%
X117000000Y-110950000D03*
D11*
X117595000Y-109705000D02*
X117595000Y-112195000D01*
X116405000Y-112195000D01*
X116405000Y-109705000D01*
X117595000Y-109705000D01*
D12*
%TO.P,ADD108,1,1*%
X117000000Y-111600000D03*
D13*
%TO.P,ADD108,2,2*%
X117000000Y-110300000D03*
%TD*%
D10*
%TO.C,R112*%
%TO.CFtp,R_0402_1005Metric_Pad0.72x0.64mm_HandSolder*%
%TO.CVal,0 Ohm*%
%TO.CLbN,Resistor_SMD*%
%TO.CMnt,SMD*%
%TO.CRot,135*%
X113255293Y-113541943D03*
D11*
X114358379Y-113987420D02*
X113700770Y-114645029D01*
X112152207Y-113096466D01*
X112809816Y-112438857D01*
X114358379Y-113987420D01*
D12*
%TO.P,R112,1*%
X113677789Y-113964439D03*
D13*
%TO.P,R112,2*%
X112832797Y-113119447D03*
%TD*%
D10*
%TO.C,C111*%
%TO.CFtp,C_0805_2012Metric_Pad1.18x1.45mm_HandSolder*%
%TO.CVal,10uF*%
%TO.CLbN,project_fp*%
%TO.CMnt,SMD*%
%TO.CRot,180*%
X107780761Y-118400000D03*
D11*
X109655761Y-117425000D02*
X109655761Y-119375000D01*
X105905761Y-119375000D01*
X105905761Y-117425000D01*
X109655761Y-117425000D01*
D12*
%TO.P,C111,1*%
X108818261Y-118400000D03*
D13*
%TO.P,C111,2*%
X106743261Y-118400000D03*
%TD*%
D10*
%TO.C,R114*%
%TO.CFtp,R_0402_1005Metric_Pad0.72x0.64mm_HandSolder*%
%TO.CVal,0 Ohm*%
%TO.CLbN,Resistor_SMD*%
%TO.CMnt,SMD*%
%TO.CRot,135*%
X111735013Y-115062222D03*
D11*
X112838099Y-115507699D02*
X112180490Y-116165308D01*
X110631927Y-114616745D01*
X111289536Y-113959136D01*
X112838099Y-115507699D01*
D12*
%TO.P,R114,1*%
X112157509Y-115484718D03*
D13*
%TO.P,R114,2*%
X111312517Y-114639726D03*
%TD*%
D10*
%TO.C,R115*%
%TO.CFtp,R_0402_1005Metric_Pad0.72x0.64mm_HandSolder*%
%TO.CVal,0 Ohm*%
%TO.CLbN,Resistor_SMD*%
%TO.CMnt,SMD*%
%TO.CRot,45*%
X105867830Y-114286208D03*
D11*
X106970916Y-113840731D02*
X105422353Y-115389294D01*
X104764744Y-114731685D01*
X106313307Y-113183122D01*
X106970916Y-113840731D01*
D12*
%TO.P,R115,1*%
X105445334Y-114708704D03*
D13*
%TO.P,R115,2*%
X106290326Y-113863712D03*
%TD*%
D10*
%TO.C,ADD112*%
%TO.CFtp,SolderJumper-2_Open_Pad0.5x1.0mm_ADDR*%
%TO.CVal,0x51 | 0xA2*%
%TO.CLbN,project_fp*%
%TO.CMnt,Other*%
%TO.CRot,90*%
X118600000Y-110950000D03*
D11*
X119195000Y-109705000D02*
X119195000Y-112195000D01*
X118005000Y-112195000D01*
X118005000Y-109705000D01*
X119195000Y-109705000D01*
D12*
%TO.P,ADD112,1,1*%
X118600000Y-111600000D03*
D13*
%TO.P,ADD112,2,2*%
X118600000Y-110300000D03*
%TD*%
D10*
%TO.C,C109*%
%TO.CFtp,C_0402_1005Metric*%
%TO.CVal,0.1uF*%
%TO.CLbN,Capacitor_SMD*%
%TO.CMnt,SMD*%
%TO.CRot,135*%
X105600000Y-109200000D03*
D11*
X106561664Y-109518198D02*
X105918198Y-110161664D01*
X104638336Y-108881802D01*
X105281802Y-108238336D01*
X106561664Y-109518198D01*
D12*
%TO.P,C109,1*%
X105939411Y-109539411D03*
D13*
%TO.P,C109,2*%
X105260589Y-108860589D03*
%TD*%
D10*
%TO.C,ADD110*%
%TO.CFtp,SolderJumper-2_Open_Pad0.5x1.0mm_ADDR*%
%TO.CVal,0x52 | 0xA4*%
%TO.CLbN,project_fp*%
%TO.CMnt,Other*%
%TO.CRot,90*%
X120200000Y-110950000D03*
D11*
X120795000Y-109705000D02*
X120795000Y-112195000D01*
X119605000Y-112195000D01*
X119605000Y-109705000D01*
X120795000Y-109705000D01*
D12*
%TO.P,ADD110,1,1*%
X120200000Y-111600000D03*
D13*
%TO.P,ADD110,2,2*%
X120200000Y-110300000D03*
%TD*%
D10*
%TO.C,C115*%
%TO.CFtp,C_0805_2012Metric_Pad1.18x1.45mm_HandSolder*%
%TO.CVal,10uF*%
%TO.CLbN,project_fp*%
%TO.CMnt,SMD*%
%TO.CRot,135*%
X101400000Y-113700000D03*
D11*
X103415253Y-114336396D02*
X102036396Y-115715253D01*
X99384747Y-113063604D01*
X100763604Y-111684747D01*
X103415253Y-114336396D01*
D12*
%TO.P,C115,1*%
X102133623Y-114433623D03*
D13*
%TO.P,C115,2*%
X100666377Y-112966377D03*
%TD*%
D10*
%TO.C,G109*%
%TO.CFtp,via*%
%TO.CVal,VIA*%
%TO.CLbN,project_fp*%
%TO.CMnt,TH*%
%TO.CRot,0*%
X99200000Y-117200000D03*
D14*
X98950000Y-116950000D02*
X98950000Y-117450000D01*
X99450000Y-117450000D01*
X99450000Y-116950000D01*
X98950000Y-116950000D01*
D12*
%TO.P,G109,1,1*%
X99200000Y-117200000D03*
%TD*%
D10*
%TO.C,G112*%
%TO.CFtp,via*%
%TO.CVal,VIA*%
%TO.CLbN,project_fp*%
%TO.CMnt,TH*%
%TO.CRot,0*%
X118400000Y-114000000D03*
D14*
X118150000Y-113750000D02*
X118150000Y-114250000D01*
X118650000Y-114250000D01*
X118650000Y-113750000D01*
X118150000Y-113750000D01*
D12*
%TO.P,G112,1,1*%
X118400000Y-114000000D03*
%TD*%
D10*
%TO.C,U108*%
%TO.CFtp,SOT-23-5*%
%TO.CVal,Single Buffer - 74LVC1G125GV\u002C125 - SOT-23-5*%
%TO.CLbN,project_fp*%
%TO.CMnt,SMD*%
%TO.CRot,180*%
X96000000Y-115100000D03*
D11*
X98045000Y-113405000D02*
X98045000Y-116795000D01*
X93955000Y-116795000D01*
X93955000Y-113405000D01*
X98045000Y-113405000D01*
D12*
%TO.P,U108,1,OE*%
X97137500Y-116050000D03*
D13*
%TO.P,U108,2,A*%
X97137500Y-115100000D03*
%TO.P,U108,3,GND*%
X97137500Y-114150000D03*
%TO.P,U108,4,Y*%
X94862500Y-114150000D03*
%TO.P,U108,5,VCC*%
X94862500Y-116050000D03*
%TD*%
D10*
%TO.C,R118*%
%TO.CFtp,R_0402_1005Metric_Pad0.72x0.64mm_HandSolder*%
%TO.CVal,0 Ohm*%
%TO.CLbN,Resistor_SMD*%
%TO.CMnt,SMD*%
%TO.CRot,45*%
X107211333Y-115629711D03*
D11*
X108314419Y-115184234D02*
X106765856Y-116732797D01*
X106108247Y-116075188D01*
X107656810Y-114526625D01*
X108314419Y-115184234D01*
D12*
%TO.P,R118,1*%
X106788837Y-116052207D03*
D13*
%TO.P,R118,2*%
X107633829Y-115207215D03*
%TD*%
D10*
%TO.C,G111*%
%TO.CFtp,via*%
%TO.CVal,VIA*%
%TO.CLbN,project_fp*%
%TO.CMnt,TH*%
%TO.CRot,0*%
X92300000Y-118400000D03*
D14*
X92050000Y-118150000D02*
X92050000Y-118650000D01*
X92550000Y-118650000D01*
X92550000Y-118150000D01*
X92050000Y-118150000D01*
D12*
%TO.P,G111,1,1*%
X92300000Y-118400000D03*
%TD*%
D10*
%TO.C,G113*%
%TO.CFtp,via*%
%TO.CVal,VIA*%
%TO.CLbN,project_fp*%
%TO.CMnt,TH*%
%TO.CRot,0*%
X102600000Y-118400000D03*
D14*
X102350000Y-118150000D02*
X102350000Y-118650000D01*
X102850000Y-118650000D01*
X102850000Y-118150000D01*
X102350000Y-118150000D01*
D12*
%TO.P,G113,1,1*%
X102600000Y-118400000D03*
%TD*%
D10*
%TO.C,R126*%
%TO.CFtp,R_0402_1005Metric*%
%TO.CVal,2.21k ohm*%
%TO.CLbN,Resistor_SMD*%
%TO.CMnt,SMD*%
%TO.CRot,-90*%
X122200000Y-116900000D03*
D11*
X122665000Y-115975000D02*
X122665000Y-117825000D01*
X121735000Y-117825000D01*
X121735000Y-115975000D01*
X122665000Y-115975000D01*
D12*
%TO.P,R126,1*%
X122200000Y-116390000D03*
D13*
%TO.P,R126,2*%
X122200000Y-117410000D03*
%TD*%
D10*
%TO.C,E108*%
%TO.CFtp,jumper_slice*%
%TO.CVal,jumper*%
%TO.CLbN,project_fp*%
%TO.CMnt,SMD*%
%TO.CRot,90*%
X99700000Y-99700000D03*
D14*
X99446000Y-100454000D02*
X99954000Y-100454000D01*
X99954000Y-98946000D01*
X99446000Y-98946000D01*
X99446000Y-100454000D01*
D12*
%TO.P,E108,1,A*%
X99700000Y-100204000D03*
D13*
%TO.P,E108,2,B*%
X99700000Y-99200000D03*
%TD*%
D10*
%TO.C,C118*%
%TO.CFtp,C_0603_1608Metric_Pad1.08x0.95mm_HandSolder*%
%TO.CVal,1uF*%
%TO.CLbN,Capacitor_SMD*%
%TO.CMnt,SMD*%
%TO.CRot,0*%
X114300000Y-108800000D03*
D11*
X115945000Y-108075000D02*
X115945000Y-109525000D01*
X112655000Y-109525000D01*
X112655000Y-108075000D01*
X115945000Y-108075000D01*
D12*
%TO.P,C118,1*%
X113437500Y-108800000D03*
D13*
%TO.P,C118,2*%
X115162500Y-108800000D03*
%TD*%
D10*
%TO.C,C116*%
%TO.CFtp,C_0402_1005Metric*%
%TO.CVal,0.1uF*%
%TO.CLbN,Capacitor_SMD*%
%TO.CMnt,SMD*%
%TO.CRot,-135*%
X104598503Y-112232133D03*
D11*
X105560167Y-111913935D02*
X104280305Y-113193797D01*
X103636839Y-112550331D01*
X104916701Y-111270469D01*
X105560167Y-111913935D01*
D12*
%TO.P,C116,1*%
X104937914Y-111892722D03*
D13*
%TO.P,C116,2*%
X104259092Y-112571544D03*
%TD*%
D10*
%TO.C,C108*%
%TO.CFtp,C_0805_2012Metric_Pad1.18x1.45mm_HandSolder*%
%TO.CVal,10uF*%
%TO.CLbN,project_fp*%
%TO.CMnt,SMD*%
%TO.CRot,-135*%
X102000000Y-109900000D03*
D11*
X104015253Y-109263604D02*
X101363604Y-111915253D01*
X99984747Y-110536396D01*
X102636396Y-107884747D01*
X104015253Y-109263604D01*
D12*
%TO.P,C108,1*%
X102733623Y-109166377D03*
D13*
%TO.P,C108,2*%
X101266377Y-110633623D03*
%TD*%
D10*
%TO.C,D116*%
%TO.CFtp,R_0805_2012Metric_Pad1.20x1.40mm_HandSolder*%
%TO.CVal,RED LED*%
%TO.CLbN,project_fp*%
%TO.CMnt,SMD*%
%TO.CRot,-90*%
X120200000Y-117100000D03*
D11*
X121145000Y-115255000D02*
X121145000Y-118945000D01*
X119255000Y-118945000D01*
X119255000Y-115255000D01*
X121145000Y-115255000D01*
D12*
%TO.P,D116,1,K*%
X120200000Y-116100000D03*
D13*
%TO.P,D116,2,A*%
X120200000Y-118100000D03*
%TD*%
D10*
%TO.C,C112*%
%TO.CFtp,C_0402_1005Metric*%
%TO.CVal,0.1uF*%
%TO.CLbN,Capacitor_SMD*%
%TO.CMnt,SMD*%
%TO.CRot,45*%
X108400000Y-116400000D03*
D11*
X109361664Y-116081802D02*
X108081802Y-117361664D01*
X107438336Y-116718198D01*
X108718198Y-115438336D01*
X109361664Y-116081802D01*
D12*
%TO.P,C112,1*%
X108060589Y-116739411D03*
D13*
%TO.P,C112,2*%
X108739411Y-116060589D03*
%TD*%
D10*
%TO.C,E109*%
%TO.CFtp,jumper_slice*%
%TO.CVal,jumper*%
%TO.CLbN,project_fp*%
%TO.CMnt,SMD*%
%TO.CRot,90*%
X122100000Y-99700000D03*
D14*
X121846000Y-100454000D02*
X122354000Y-100454000D01*
X122354000Y-98946000D01*
X121846000Y-98946000D01*
X121846000Y-100454000D01*
D12*
%TO.P,E109,1,A*%
X122100000Y-100204000D03*
D13*
%TO.P,E109,2,B*%
X122100000Y-99200000D03*
%TD*%
D10*
%TO.C,ADD111*%
%TO.CFtp,SolderJumper-2_Open_Pad0.5x1.0mm_ADDR*%
%TO.CVal,0x53 | 0xA6*%
%TO.CLbN,project_fp*%
%TO.CMnt,Other*%
%TO.CRot,90*%
X121800000Y-110950000D03*
D11*
X122395000Y-109705000D02*
X122395000Y-112195000D01*
X121205000Y-112195000D01*
X121205000Y-109705000D01*
X122395000Y-109705000D01*
D12*
%TO.P,ADD111,1,1*%
X121800000Y-111600000D03*
D13*
%TO.P,ADD111,2,2*%
X121800000Y-110300000D03*
%TD*%
D10*
%TO.C,DOUT108*%
%TO.CFtp,jumper_slice_disconnected_alt-text*%
%TO.CVal,Jump DOUT1*%
%TO.CLbN,project_fp*%
%TO.CMnt,SMD*%
%TO.CRot,135*%
X99300000Y-115400000D03*
D14*
X99653553Y-116112763D02*
X100012763Y-115753553D01*
X98946447Y-114687237D01*
X98587237Y-115046447D01*
X99653553Y-116112763D01*
D12*
%TO.P,DOUT108,1,1*%
X99653553Y-115753553D03*
D13*
%TO.P,DOUT108,2,2*%
X98946447Y-115046447D03*
%TD*%
D10*
%TO.C,R110*%
%TO.CFtp,R_0402_1005Metric_Pad0.72x0.64mm_HandSolder*%
%TO.CVal,0 Ohm*%
%TO.CLbN,Resistor_SMD*%
%TO.CMnt,SMD*%
%TO.CRot,135*%
X113997755Y-112799481D03*
D11*
X115100841Y-113244958D02*
X114443232Y-113902567D01*
X112894669Y-112354004D01*
X113552278Y-111696395D01*
X115100841Y-113244958D01*
D12*
%TO.P,R110,1*%
X114420251Y-113221977D03*
D13*
%TO.P,R110,2*%
X113575259Y-112376985D03*
%TD*%
D10*
%TO.C,5V108*%
%TO.CFtp,jumper_slice_1mm*%
%TO.CVal,jumper*%
%TO.CLbN,project_fp*%
%TO.CMnt,SMD*%
%TO.CRot,180*%
X92900000Y-121300000D03*
D14*
X93954000Y-121800000D02*
X93954000Y-120800000D01*
X91850000Y-120800000D01*
X91850000Y-121800000D01*
X93954000Y-121800000D01*
D12*
%TO.P,5V108,1,A*%
X93404000Y-121300000D03*
D13*
%TO.P,5V108,2,B*%
X92400000Y-121300000D03*
%TD*%
D10*
%TO.C,C128*%
%TO.CFtp,C_0603_1608Metric_Pad1.08x0.95mm_HandSolder*%
%TO.CVal,1uF*%
%TO.CLbN,Capacitor_SMD*%
%TO.CMnt,SMD*%
%TO.CRot,0*%
X96800000Y-118000000D03*
D11*
X98445000Y-117275000D02*
X98445000Y-118725000D01*
X95155000Y-118725000D01*
X95155000Y-117275000D01*
X98445000Y-117275000D01*
D12*
%TO.P,C128,1*%
X95937500Y-118000000D03*
D13*
%TO.P,C128,2*%
X97662500Y-118000000D03*
%TD*%
D10*
%TO.C,R123*%
%TO.CFtp,R_0402_1005Metric*%
%TO.CVal,4.7k*%
%TO.CLbN,Resistor_SMD*%
%TO.CMnt,SMD*%
%TO.CRot,0*%
X121600000Y-112900000D03*
D11*
X122525000Y-112435000D02*
X122525000Y-113365000D01*
X120675000Y-113365000D01*
X120675000Y-112435000D01*
X122525000Y-112435000D01*
D12*
%TO.P,R123,1*%
X121090000Y-112900000D03*
D13*
%TO.P,R123,2*%
X122110000Y-112900000D03*
%TD*%
D10*
%TO.C,C119*%
%TO.CFtp,C_0603_1608Metric_Pad1.08x0.95mm_HandSolder*%
%TO.CVal,1uF*%
%TO.CLbN,Capacitor_SMD*%
%TO.CMnt,SMD*%
%TO.CRot,45*%
X103200000Y-111400000D03*
D11*
X104875842Y-110749462D02*
X102549462Y-113075842D01*
X101524158Y-112050538D01*
X103850538Y-109724158D01*
X104875842Y-110749462D01*
D12*
%TO.P,C119,1*%
X102590120Y-112009880D03*
D13*
%TO.P,C119,2*%
X103809880Y-110790120D03*
%TD*%
D10*
%TO.C,R124*%
%TO.CFtp,R_0402_1005Metric*%
%TO.CVal,4.7k*%
%TO.CLbN,Resistor_SMD*%
%TO.CMnt,SMD*%
%TO.CRot,180*%
X116900000Y-112900000D03*
D11*
X117825000Y-112435000D02*
X117825000Y-113365000D01*
X115975000Y-113365000D01*
X115975000Y-112435000D01*
X117825000Y-112435000D01*
D12*
%TO.P,R124,1*%
X117410000Y-112900000D03*
D13*
%TO.P,R124,2*%
X116390000Y-112900000D03*
%TD*%
D10*
%TO.C,R119*%
%TO.CFtp,R_0402_1005Metric_Pad0.72x0.64mm_HandSolder*%
%TO.CVal,0 Ohm*%
%TO.CLbN,Resistor_SMD*%
%TO.CMnt,SMD*%
%TO.CRot,45*%
X105196079Y-113614456D03*
D11*
X106299165Y-113168979D02*
X104750602Y-114717542D01*
X104092993Y-114059933D01*
X105641556Y-112511370D01*
X106299165Y-113168979D01*
D12*
%TO.P,R119,1*%
X104773583Y-114036952D03*
D13*
%TO.P,R119,2*%
X105618575Y-113191960D03*
%TD*%
D10*
%TO.C,R117*%
%TO.CFtp,R_0402_1005Metric_Pad0.72x0.64mm_HandSolder*%
%TO.CVal,0 Ohm*%
%TO.CLbN,Resistor_SMD*%
%TO.CMnt,SMD*%
%TO.CRot,45*%
X106539582Y-114957959D03*
D11*
X107642668Y-114512482D02*
X106094105Y-116061045D01*
X105436496Y-115403436D01*
X106985059Y-113854873D01*
X107642668Y-114512482D01*
D12*
%TO.P,R117,1*%
X106117086Y-115380455D03*
D13*
%TO.P,R117,2*%
X106962078Y-114535463D03*
%TD*%
D10*
%TO.C,TAC5212*%
%TO.CFtp,VQFN-24-1EP_4x4mm_P0.5mm_EP2.45x2.45mm_ThermalVias*%
%TO.CVal,TAC5212*%
%TO.CLbN,project_fp*%
%TO.CMnt,SMD*%
%TO.CRot,45*%
X109200000Y-111000000D03*
D11*
X112898168Y-111000000D02*
X109200000Y-114698168D01*
X105501832Y-111000000D01*
X109200000Y-107301832D01*
X112898168Y-111000000D01*
D12*
%TO.P,TAC5212,1,DREG*%
X106910742Y-111521491D03*
%TO.P,TAC5212,A1,VSS*%
X106767553Y-111000000D03*
D13*
%TO.P,TAC5212,2,BCLK*%
X107264295Y-111875045D03*
%TO.P,TAC5212,3,FSYNC*%
X107617849Y-112228598D03*
%TO.P,TAC5212,4,DOUT*%
X107971402Y-112582151D03*
%TO.P,TAC5212,5,DIN*%
X108324955Y-112935705D03*
%TO.P,TAC5212,6,IOVDD*%
X108678509Y-113289258D03*
%TO.P,TAC5212,7,SCL*%
X109721491Y-113289258D03*
%TO.P,TAC5212,8,SDA*%
X110075045Y-112935705D03*
%TO.P,TAC5212,9,GPIO1*%
X110428598Y-112582151D03*
%TO.P,TAC5212,10,GPIO2*%
X110782151Y-112228598D03*
%TO.P,TAC5212,11,GPO1*%
X111135705Y-111875045D03*
%TO.P,TAC5212,12,GPI1*%
X111489258Y-111521491D03*
%TO.P,TAC5212,13,ADDR*%
X111489258Y-110478509D03*
%TO.P,TAC5212,14,MICBIAS*%
X111135705Y-110124955D03*
%TO.P,TAC5212,15,IN1P*%
X110782151Y-109771402D03*
%TO.P,TAC5212,16,IN1M*%
X110428598Y-109417849D03*
%TO.P,TAC5212,17,IN2P*%
X110075045Y-109064295D03*
%TO.P,TAC5212,18,IN2M*%
X109721491Y-108710742D03*
%TO.P,TAC5212,19,OUT1M*%
X108678509Y-108710742D03*
%TO.P,TAC5212,20,OUT1P*%
X108324955Y-109064295D03*
%TO.P,TAC5212,21,OUT2P*%
X107971402Y-109417849D03*
%TO.P,TAC5212,22,OUT2M*%
X107617849Y-109771402D03*
%TO.P,TAC5212,23,AVDD*%
X107264295Y-110124955D03*
%TO.P,TAC5212,24,VREF*%
X106910742Y-110478509D03*
%TO.P,TAC5212,25,VSS*%
X108705025Y-111494975D03*
X108705025Y-110505025D03*
X109200000Y-111000000D03*
X109200000Y-111000000D03*
X109694975Y-111494975D03*
X109694975Y-110505025D03*
%TO.P,TAC5212,A2,VSS*%
X109200000Y-113432447D03*
%TO.P,TAC5212,A3,VSS*%
X111632447Y-111000000D03*
%TO.P,TAC5212,A4,VSS*%
X109200000Y-108567553D03*
%TD*%
D10*
%TO.C,G118*%
%TO.CFtp,jumper_slice*%
%TO.CVal,jumper*%
%TO.CLbN,project_fp*%
%TO.CMnt,SMD*%
%TO.CRot,90*%
X122200000Y-122600000D03*
D14*
X121946000Y-123354000D02*
X122454000Y-123354000D01*
X122454000Y-121846000D01*
X121946000Y-121846000D01*
X121946000Y-123354000D01*
D12*
%TO.P,G118,1,A*%
X122200000Y-123104000D03*
D13*
%TO.P,G118,2,B*%
X122200000Y-122100000D03*
%TD*%
D10*
%TO.C,R122*%
%TO.CFtp,R_0402_1005Metric*%
%TO.CVal,22.0k*%
%TO.CLbN,Resistor_SMD*%
%TO.CMnt,SMD*%
%TO.CRot,180*%
X119400000Y-112900000D03*
D11*
X120325000Y-112435000D02*
X120325000Y-113365000D01*
X118475000Y-113365000D01*
X118475000Y-112435000D01*
X120325000Y-112435000D01*
D12*
%TO.P,R122,1*%
X119910000Y-112900000D03*
D13*
%TO.P,R122,2*%
X118890000Y-112900000D03*
%TD*%
D10*
%TO.C,G115*%
%TO.CFtp,via*%
%TO.CVal,VIA*%
%TO.CLbN,project_fp*%
%TO.CMnt,TH*%
%TO.CRot,0*%
X103200000Y-119300000D03*
D14*
X102950000Y-119050000D02*
X102950000Y-119550000D01*
X103450000Y-119550000D01*
X103450000Y-119050000D01*
X102950000Y-119050000D01*
D12*
%TO.P,G115,1,1*%
X103200000Y-119300000D03*
%TD*%
D10*
%TO.C,G114*%
%TO.CFtp,via*%
%TO.CVal,VIA*%
%TO.CLbN,project_fp*%
%TO.CMnt,TH*%
%TO.CRot,0*%
X123000000Y-115600000D03*
D14*
X122750000Y-115350000D02*
X122750000Y-115850000D01*
X123250000Y-115850000D01*
X123250000Y-115350000D01*
X122750000Y-115350000D01*
D12*
%TO.P,G114,1,1*%
X123000000Y-115600000D03*
%TD*%
D10*
%TO.C,R125*%
%TO.CFtp,R_0402_1005Metric_Pad0.72x0.64mm_HandSolder*%
%TO.CVal,49.9 ohm*%
%TO.CLbN,Resistor_SMD*%
%TO.CMnt,SMD*%
%TO.CRot,0*%
X95100000Y-112600000D03*
D11*
X96195000Y-112135000D02*
X96195000Y-113065000D01*
X94005000Y-113065000D01*
X94005000Y-112135000D01*
X96195000Y-112135000D01*
D12*
%TO.P,R125,1*%
X94502500Y-112600000D03*
D13*
%TO.P,R125,2*%
X95697500Y-112600000D03*
%TD*%
D10*
%TO.C,G117*%
%TO.CFtp,jumper_slice*%
%TO.CVal,jumper*%
%TO.CLbN,project_fp*%
%TO.CMnt,SMD*%
%TO.CRot,90*%
X99500000Y-122000000D03*
D14*
X99246000Y-122754000D02*
X99754000Y-122754000D01*
X99754000Y-121246000D01*
X99246000Y-121246000D01*
X99246000Y-122754000D01*
D12*
%TO.P,G117,1,A*%
X99500000Y-122504000D03*
D13*
%TO.P,G117,2,B*%
X99500000Y-121500000D03*
%TD*%
D10*
%TO.C,G116*%
%TO.CFtp,via*%
%TO.CVal,VIA*%
%TO.CLbN,project_fp*%
%TO.CMnt,TH*%
%TO.CRot,0*%
X125900000Y-110200000D03*
D14*
X125650000Y-109950000D02*
X125650000Y-110450000D01*
X126150000Y-110450000D01*
X126150000Y-109950000D01*
X125650000Y-109950000D01*
D12*
%TO.P,G116,1,1*%
X125900000Y-110200000D03*
%TD*%
D10*
%TO.C,G108*%
%TO.CFtp,via*%
%TO.CVal,VIA*%
%TO.CLbN,project_fp*%
%TO.CMnt,TH*%
%TO.CRot,0*%
X115800000Y-114500000D03*
D14*
X115550000Y-114250000D02*
X115550000Y-114750000D01*
X116050000Y-114750000D01*
X116050000Y-114250000D01*
X115550000Y-114250000D01*
D12*
%TO.P,G108,1,1*%
X115800000Y-114500000D03*
%TD*%
D10*
%TO.C,R120*%
%TO.CFtp,R_0402_1005Metric*%
%TO.CVal,2.21k ohm*%
%TO.CLbN,Resistor_SMD*%
%TO.CMnt,SMD*%
%TO.CRot,135*%
X110780761Y-116100000D03*
D11*
X111763638Y-116425269D02*
X111106030Y-117082877D01*
X109797884Y-115774731D01*
X110455492Y-115117123D01*
X111763638Y-116425269D01*
D12*
%TO.P,R120,1*%
X111141385Y-116460624D03*
D13*
%TO.P,R120,2*%
X110420137Y-115739376D03*
%TD*%
M02*
