%TF.GenerationSoftware,KiCad,Pcbnew,8.0.7*%
%TF.CreationDate,2025-01-05T20:36:38-05:00*%
%TF.ProjectId,tac5212_audio_board_single_ended,74616335-3231-4325-9f61-7564696f5f62,rev?*%
%TF.SameCoordinates,Original*%
%TF.FileFunction,Component,L4,Bot*%
%TF.FilePolarity,Positive*%
%FSLAX46Y46*%
G04 Gerber Fmt 4.6, Leading zero omitted, Abs format (unit mm)*
G04 Created by KiCad (PCBNEW 8.0.7) date 2025-01-05 20:36:38*
%MOMM*%
%LPD*%
G01*
G04 APERTURE LIST*
%TA.AperFunction,ComponentMain*%
%ADD10C,0.300000*%
%TD*%
%TA.AperFunction,ComponentOutline,Courtyard*%
%ADD11C,0.100000*%
%TD*%
%TA.AperFunction,ComponentPin*%
%ADD12P,0.360000X4X0.000000*%
%TD*%
%TA.AperFunction,ComponentPin*%
%ADD13C,0.100000*%
%TD*%
%TA.AperFunction,ComponentOutline,Footprint*%
%ADD14C,0.100000*%
%TD*%
G04 APERTURE END LIST*
D10*
%TO.C,T\u005Cu002AC108*%
%TO.CFtp,C_0805_2012Metric_Pad1.18x1.45mm_HandSolder*%
%TO.CVal,10uF*%
%TO.CLbN,project_fp*%
%TO.CMnt,SMD*%
%TO.CRot,-90*%
X122134314Y-118437500D03*
D11*
X123109314Y-116562500D02*
X123109314Y-120312500D01*
X121159314Y-120312500D01*
X121159314Y-116562500D01*
X123109314Y-116562500D01*
D12*
%TO.P,T\u005Cu002AC108,1*%
X122134314Y-119475000D03*
D13*
%TO.P,T\u005Cu002AC108,2*%
X122134314Y-117400000D03*
%TD*%
D10*
%TO.C,C127*%
%TO.CFtp,C_0603_1608Metric_Pad1.08x0.95mm_HandSolder*%
%TO.CVal,10UF*%
%TO.CLbN,Capacitor_SMD*%
%TO.CMnt,SMD*%
%TO.CRot,90*%
X113900000Y-111400000D03*
D11*
X114625000Y-109755000D02*
X114625000Y-113045000D01*
X113175000Y-113045000D01*
X113175000Y-109755000D01*
X114625000Y-109755000D01*
D12*
%TO.P,C127,1*%
X113900000Y-110537500D03*
D13*
%TO.P,C127,2*%
X113900000Y-112262500D03*
%TD*%
D10*
%TO.C,OP2*%
%TO.CFtp,jumper_slice_via*%
%TO.CVal,Jump Filter*%
%TO.CLbN,project_fp*%
%TO.CMnt,TH*%
%TO.CRot,90*%
X100300000Y-106925000D03*
D14*
X100050000Y-106075000D02*
X100550000Y-106075000D01*
X100550000Y-107675000D01*
X100050000Y-107675000D01*
X100050000Y-106075000D01*
D12*
%TO.P,OP2,1,1*%
X100300000Y-106325000D03*
D13*
%TO.P,OP2,2,2*%
X100300000Y-107200000D03*
X100300000Y-107425000D03*
%TD*%
D10*
%TO.C,D111*%
%TO.CFtp,D_0402_1005Metric_Pad0.77x0.64mm_HandSolder*%
%TO.CVal,TPD1E1B04 - 0402 size*%
%TO.CLbN,project_fp*%
%TO.CMnt,SMD*%
%TO.CRot,180*%
X104900000Y-105100000D03*
D11*
X105995000Y-104635000D02*
X105995000Y-105565000D01*
X103805000Y-105565000D01*
X103805000Y-104635000D01*
X105995000Y-104635000D01*
D12*
%TO.P,D111,1,K*%
X104327500Y-105100000D03*
D13*
%TO.P,D111,2,K*%
X105472500Y-105100000D03*
%TD*%
D10*
%TO.C,R108*%
%TO.CFtp,R_0603_1608Metric_Pad1.05x0.95mm_HandSolder*%
%TO.CVal,100*%
%TO.CLbN,project_fp*%
%TO.CMnt,SMD*%
%TO.CRot,180*%
X97700000Y-111100000D03*
D11*
X99345000Y-110375000D02*
X99345000Y-111825000D01*
X96055000Y-111825000D01*
X96055000Y-110375000D01*
X99345000Y-110375000D01*
D12*
%TO.P,R108,1*%
X96825000Y-111100000D03*
D13*
%TO.P,R108,2*%
X98575000Y-111100000D03*
%TD*%
D10*
%TO.C,INP2*%
%TO.CFtp,jumper_slice_via*%
%TO.CVal,Jump Filter*%
%TO.CLbN,project_fp*%
%TO.CMnt,TH*%
%TO.CRot,90*%
X121400000Y-106935000D03*
D14*
X121150000Y-106085000D02*
X121650000Y-106085000D01*
X121650000Y-107685000D01*
X121150000Y-107685000D01*
X121150000Y-106085000D01*
D12*
%TO.P,INP2,1,1*%
X121400000Y-106335000D03*
D13*
%TO.P,INP2,2,2*%
X121400000Y-107210000D03*
X121400000Y-107435000D03*
%TD*%
D10*
%TO.C,T\u005Cu002AC109*%
%TO.CFtp,C_0603_1608Metric_Pad1.08x0.95mm_HandSolder*%
%TO.CVal,1uF*%
%TO.CLbN,Capacitor_SMD*%
%TO.CMnt,SMD*%
%TO.CRot,-90*%
X120034314Y-118437500D03*
D11*
X120759314Y-116792500D02*
X120759314Y-120082500D01*
X119309314Y-120082500D01*
X119309314Y-116792500D01*
X120759314Y-116792500D01*
D12*
%TO.P,T\u005Cu002AC109,1*%
X120034314Y-119300000D03*
D13*
%TO.P,T\u005Cu002AC109,2*%
X120034314Y-117575000D03*
%TD*%
D10*
%TO.C,C124*%
%TO.CFtp,C_0603_1608Metric_Pad1.08x0.95mm_HandSolder*%
%TO.CVal,10UF*%
%TO.CLbN,Capacitor_SMD*%
%TO.CMnt,SMD*%
%TO.CRot,90*%
X122800000Y-111400000D03*
D11*
X123525000Y-109755000D02*
X123525000Y-113045000D01*
X122075000Y-113045000D01*
X122075000Y-109755000D01*
X123525000Y-109755000D01*
D12*
%TO.P,C124,1*%
X122800000Y-110537500D03*
D13*
%TO.P,C124,2*%
X122800000Y-112262500D03*
%TD*%
D10*
%TO.C,GND108*%
%TO.CFtp,jumper_slice*%
%TO.CVal,BRIDGE*%
%TO.CLbN,project_fp*%
%TO.CMnt,SMD*%
%TO.CRot,-90*%
X109200000Y-106400000D03*
D14*
X109454000Y-107154000D02*
X108946000Y-107154000D01*
X108946000Y-105646000D01*
X109454000Y-105646000D01*
X109454000Y-107154000D01*
D12*
%TO.P,GND108,1,A*%
X109200000Y-106904000D03*
D13*
%TO.P,GND108,2,B*%
X109200000Y-105900000D03*
%TD*%
D10*
%TO.C,C125*%
%TO.CFtp,C_0603_1608Metric_Pad1.08x0.95mm_HandSolder*%
%TO.CVal,10UF*%
%TO.CLbN,Capacitor_SMD*%
%TO.CMnt,SMD*%
%TO.CRot,90*%
X120200000Y-111500000D03*
D11*
X120925000Y-109855000D02*
X120925000Y-113145000D01*
X119475000Y-113145000D01*
X119475000Y-109855000D01*
X120925000Y-109855000D01*
D12*
%TO.P,C125,1*%
X120200000Y-110637500D03*
D13*
%TO.P,C125,2*%
X120200000Y-112362500D03*
%TD*%
D10*
%TO.C,INM2*%
%TO.CFtp,jumper_slice_via*%
%TO.CVal,Jump Filter*%
%TO.CLbN,project_fp*%
%TO.CMnt,TH*%
%TO.CRot,90*%
X125000000Y-106982500D03*
D14*
X124750000Y-106132500D02*
X125250000Y-106132500D01*
X125250000Y-107732500D01*
X124750000Y-107732500D01*
X124750000Y-106132500D01*
D12*
%TO.P,INM2,1,1*%
X125000000Y-106382500D03*
D13*
%TO.P,INM2,2,2*%
X125000000Y-107257500D03*
X125000000Y-107482500D03*
%TD*%
D10*
%TO.C,C114*%
%TO.CFtp,CP_EIA-3528-21_Kemet-B_Pad1.50x2.35mm_HandSolder*%
%TO.CVal,47uF*%
%TO.CLbN,Capacitor_Tantalum_SMD*%
%TO.CMnt,SMD*%
%TO.CRot,-90*%
X93000000Y-114900000D03*
D11*
X94645000Y-112285000D02*
X94645000Y-117515000D01*
X91355000Y-117515000D01*
X91355000Y-112285000D01*
X94645000Y-112285000D01*
D12*
%TO.P,C114,1*%
X93000000Y-116525000D03*
D13*
%TO.P,C114,2*%
X93000000Y-113275000D03*
%TD*%
D10*
%TO.C,T\u005Cu002AC110*%
%TO.CFtp,C_0805_2012Metric_Pad1.18x1.45mm_HandSolder*%
%TO.CVal,10uF*%
%TO.CLbN,project_fp*%
%TO.CMnt,SMD*%
%TO.CRot,-90*%
X114434314Y-118437500D03*
D11*
X115409314Y-116562500D02*
X115409314Y-120312500D01*
X113459314Y-120312500D01*
X113459314Y-116562500D01*
X115409314Y-116562500D01*
D12*
%TO.P,T\u005Cu002AC110,1*%
X114434314Y-119475000D03*
D13*
%TO.P,T\u005Cu002AC110,2*%
X114434314Y-117400000D03*
%TD*%
D10*
%TO.C,OM2*%
%TO.CFtp,jumper_slice_via*%
%TO.CVal,Jump Filter*%
%TO.CLbN,project_fp*%
%TO.CMnt,TH*%
%TO.CRot,90*%
X104200000Y-106700000D03*
D14*
X103950000Y-105850000D02*
X104450000Y-105850000D01*
X104450000Y-107450000D01*
X103950000Y-107450000D01*
X103950000Y-105850000D01*
D12*
%TO.P,OM2,1,1*%
X104200000Y-106100000D03*
D13*
%TO.P,OM2,2,2*%
X104200000Y-106975000D03*
X104200000Y-107200000D03*
%TD*%
D10*
%TO.C,3V108*%
%TO.CFtp,jumper_slice_1mm*%
%TO.CVal,jumper*%
%TO.CLbN,project_fp*%
%TO.CMnt,SMD*%
%TO.CRot,-90*%
X126200000Y-119400000D03*
D14*
X126700000Y-120454000D02*
X125700000Y-120454000D01*
X125700000Y-118350000D01*
X126700000Y-118350000D01*
X126700000Y-120454000D01*
D12*
%TO.P,3V108,1,A*%
X126200000Y-119904000D03*
D13*
%TO.P,3V108,2,B*%
X126200000Y-118900000D03*
%TD*%
D10*
%TO.C,SDA108*%
%TO.CFtp,jumper_slice*%
%TO.CVal,jumper*%
%TO.CLbN,project_fp*%
%TO.CMnt,SMD*%
%TO.CRot,180*%
X91600000Y-102400000D03*
D14*
X90846000Y-102654000D02*
X90846000Y-102146000D01*
X92354000Y-102146000D01*
X92354000Y-102654000D01*
X90846000Y-102654000D01*
D12*
%TO.P,SDA108,1,A*%
X91096000Y-102400000D03*
D13*
%TO.P,SDA108,2,B*%
X92100000Y-102400000D03*
%TD*%
D10*
%TO.C,MCLK108*%
%TO.CFtp,jumper_slice_disconnected*%
%TO.CVal,jumper*%
%TO.CLbN,project_fp*%
%TO.CMnt,SMD*%
%TO.CRot,180*%
X91600000Y-99700000D03*
D14*
X90846000Y-99954000D02*
X90846000Y-99446000D01*
X92354000Y-99446000D01*
X92354000Y-99954000D01*
X90846000Y-99954000D01*
D12*
%TO.P,MCLK108,1,1*%
X91100000Y-99700000D03*
D13*
%TO.P,MCLK108,2,2*%
X92100000Y-99700000D03*
%TD*%
D10*
%TO.C,C122*%
%TO.CFtp,CP_EIA-3528-21_Kemet-B_Pad1.50x2.35mm_HandSolder*%
%TO.CVal,47uF*%
%TO.CLbN,Capacitor_Tantalum_SMD*%
%TO.CMnt,SMD*%
%TO.CRot,180*%
X106725001Y-115800000D03*
D11*
X109340001Y-114155000D02*
X109340001Y-117445000D01*
X104110001Y-117445000D01*
X104110001Y-114155000D01*
X109340001Y-114155000D01*
D12*
%TO.P,C122,1*%
X105100001Y-115800000D03*
D13*
%TO.P,C122,2*%
X108350001Y-115800000D03*
%TD*%
D10*
%TO.C,SCL108*%
%TO.CFtp,jumper_slice*%
%TO.CVal,jumper*%
%TO.CLbN,project_fp*%
%TO.CMnt,SMD*%
%TO.CRot,180*%
X91600000Y-101000000D03*
D14*
X90846000Y-101254000D02*
X90846000Y-100746000D01*
X92354000Y-100746000D01*
X92354000Y-101254000D01*
X90846000Y-101254000D01*
D12*
%TO.P,SCL108,1,A*%
X91096000Y-101000000D03*
D13*
%TO.P,SCL108,2,B*%
X92100000Y-101000000D03*
%TD*%
D10*
%TO.C,R109*%
%TO.CFtp,R_0603_1608Metric_Pad1.05x0.95mm_HandSolder*%
%TO.CVal,100*%
%TO.CLbN,project_fp*%
%TO.CMnt,SMD*%
%TO.CRot,0*%
X93400000Y-111100000D03*
D11*
X95045000Y-110375000D02*
X95045000Y-111825000D01*
X91755000Y-111825000D01*
X91755000Y-110375000D01*
X95045000Y-110375000D01*
D12*
%TO.P,R109,1*%
X94275000Y-111100000D03*
D13*
%TO.P,R109,2*%
X92525000Y-111100000D03*
%TD*%
D10*
%TO.C,D113*%
%TO.CFtp,D_0402_1005Metric_Pad0.77x0.64mm_HandSolder*%
%TO.CVal,TPD1E1B04 - 0402 size*%
%TO.CLbN,project_fp*%
%TO.CMnt,SMD*%
%TO.CRot,0*%
X120000000Y-105035000D03*
D11*
X121095000Y-104570000D02*
X121095000Y-105500000D01*
X118905000Y-105500000D01*
X118905000Y-104570000D01*
X121095000Y-104570000D01*
D12*
%TO.P,D113,1,K*%
X120572500Y-105035000D03*
D13*
%TO.P,D113,2,K*%
X119427500Y-105035000D03*
%TD*%
D10*
%TO.C,FB110*%
%TO.CFtp,C_0805_2012Metric_Pad1.18x1.45mm_HandSolder*%
%TO.CVal,BLM21A601S - BLM21AG601SH1*%
%TO.CLbN,project_fp*%
%TO.CMnt,SMD*%
%TO.CRot,90*%
X116300000Y-107662500D03*
D11*
X117275000Y-105787500D02*
X117275000Y-109537500D01*
X115325000Y-109537500D01*
X115325000Y-105787500D01*
X117275000Y-105787500D01*
D12*
%TO.P,FB110,1*%
X116300000Y-106625000D03*
D13*
%TO.P,FB110,2*%
X116300000Y-108700000D03*
%TD*%
D10*
%TO.C,FB111*%
%TO.CFtp,C_0805_2012Metric_Pad1.18x1.45mm_HandSolder*%
%TO.CVal,BLM21A601S - BLM21AG601SH1*%
%TO.CLbN,project_fp*%
%TO.CMnt,SMD*%
%TO.CRot,90*%
X112700000Y-107500000D03*
D11*
X113675000Y-105625000D02*
X113675000Y-109375000D01*
X111725000Y-109375000D01*
X111725000Y-105625000D01*
X113675000Y-105625000D01*
D12*
%TO.P,FB111,1*%
X112700000Y-106462500D03*
D13*
%TO.P,FB111,2*%
X112700000Y-108537500D03*
%TD*%
D10*
%TO.C,R111*%
%TO.CFtp,R_0603_1608Metric_Pad1.05x0.95mm_HandSolder*%
%TO.CVal,100*%
%TO.CLbN,project_fp*%
%TO.CMnt,SMD*%
%TO.CRot,180*%
X102000000Y-111100000D03*
D11*
X103645000Y-110375000D02*
X103645000Y-111825000D01*
X100355000Y-111825000D01*
X100355000Y-110375000D01*
X103645000Y-110375000D01*
D12*
%TO.P,R111,1*%
X101125000Y-111100000D03*
D13*
%TO.P,R111,2*%
X102875000Y-111100000D03*
%TD*%
D10*
%TO.C,D112*%
%TO.CFtp,D_0402_1005Metric_Pad0.77x0.64mm_HandSolder*%
%TO.CVal,TPD1E1B04 - 0402 size*%
%TO.CLbN,project_fp*%
%TO.CMnt,SMD*%
%TO.CRot,0*%
X123600000Y-105082500D03*
D11*
X124695000Y-104617500D02*
X124695000Y-105547500D01*
X122505000Y-105547500D01*
X122505000Y-104617500D01*
X124695000Y-104617500D01*
D12*
%TO.P,D112,1,K*%
X124172500Y-105082500D03*
D13*
%TO.P,D112,2,K*%
X123027500Y-105082500D03*
%TD*%
D10*
%TO.C,C123*%
%TO.CFtp,C_0603_1608Metric_Pad1.08x0.95mm_HandSolder*%
%TO.CVal,0.047uF*%
%TO.CLbN,Capacitor_SMD*%
%TO.CMnt,SMD*%
%TO.CRot,-90*%
X105900000Y-108000000D03*
D11*
X106625000Y-106355000D02*
X106625000Y-109645000D01*
X105175000Y-109645000D01*
X105175000Y-106355000D01*
X106625000Y-106355000D01*
D12*
%TO.P,C123,1*%
X105900000Y-108862500D03*
D13*
%TO.P,C123,2*%
X105900000Y-107137500D03*
%TD*%
D10*
%TO.C,U109*%
%TO.CFtp,SOT-23-5*%
%TO.CVal,3.3v LDO - TLV74133PDBVR*%
%TO.CLbN,project_fp*%
%TO.CMnt,SMD*%
%TO.CRot,90*%
X117211814Y-118415000D03*
D11*
X118906814Y-116370000D02*
X118906814Y-120460000D01*
X115516814Y-120460000D01*
X115516814Y-116370000D01*
X118906814Y-116370000D01*
D12*
%TO.P,U109,1,IN*%
X116261814Y-117277500D03*
D13*
%TO.P,U109,2,GND*%
X117211814Y-117277500D03*
%TO.P,U109,3,EN*%
X118161814Y-117277500D03*
%TO.P,U109,4,NC*%
X118161814Y-119552500D03*
%TO.P,U109,5,OUT*%
X116261814Y-119552500D03*
%TD*%
D10*
%TO.C,D108*%
%TO.CFtp,D_0402_1005Metric_Pad0.77x0.64mm_HandSolder*%
%TO.CVal,TPD1E1B04 - 0402 size*%
%TO.CLbN,project_fp*%
%TO.CMnt,SMD*%
%TO.CRot,180*%
X96900000Y-105100000D03*
D11*
X97995000Y-104635000D02*
X97995000Y-105565000D01*
X95805000Y-105565000D01*
X95805000Y-104635000D01*
X97995000Y-104635000D01*
D12*
%TO.P,D108,1,K*%
X96327500Y-105100000D03*
D13*
%TO.P,D108,2,K*%
X97472500Y-105100000D03*
%TD*%
D10*
%TO.C,C113*%
%TO.CFtp,C_0603_1608Metric_Pad1.08x0.95mm_HandSolder*%
%TO.CVal,0.047uF*%
%TO.CLbN,Capacitor_SMD*%
%TO.CMnt,SMD*%
%TO.CRot,-90*%
X97700000Y-108000000D03*
D11*
X98425000Y-106355000D02*
X98425000Y-109645000D01*
X96975000Y-109645000D01*
X96975000Y-106355000D01*
X98425000Y-106355000D01*
D12*
%TO.P,C113,1*%
X97700000Y-108862500D03*
D13*
%TO.P,C113,2*%
X97700000Y-107137500D03*
%TD*%
D10*
%TO.C,C126*%
%TO.CFtp,C_0603_1608Metric_Pad1.08x0.95mm_HandSolder*%
%TO.CVal,10UF*%
%TO.CLbN,Capacitor_SMD*%
%TO.CMnt,SMD*%
%TO.CRot,90*%
X116600000Y-111400000D03*
D11*
X117325000Y-109755000D02*
X117325000Y-113045000D01*
X115875000Y-113045000D01*
X115875000Y-109755000D01*
X117325000Y-109755000D01*
D12*
%TO.P,C126,1*%
X116600000Y-110537500D03*
D13*
%TO.P,C126,2*%
X116600000Y-112262500D03*
%TD*%
D10*
%TO.C,D110*%
%TO.CFtp,D_0402_1005Metric_Pad0.77x0.64mm_HandSolder*%
%TO.CVal,TPD1E1B04 - 0402 size*%
%TO.CLbN,project_fp*%
%TO.CMnt,SMD*%
%TO.CRot,180*%
X101200000Y-105100000D03*
D11*
X102295000Y-104635000D02*
X102295000Y-105565000D01*
X100105000Y-105565000D01*
X100105000Y-104635000D01*
X102295000Y-104635000D01*
D12*
%TO.P,D110,1,K*%
X100627500Y-105100000D03*
D13*
%TO.P,D110,2,K*%
X101772500Y-105100000D03*
%TD*%
D10*
%TO.C,C110*%
%TO.CFtp,CP_EIA-3528-21_Kemet-B_Pad1.50x2.35mm_HandSolder*%
%TO.CVal,47uF*%
%TO.CLbN,Capacitor_Tantalum_SMD*%
%TO.CMnt,SMD*%
%TO.CRot,-90*%
X97300000Y-114900000D03*
D11*
X98945000Y-112285000D02*
X98945000Y-117515000D01*
X95655000Y-117515000D01*
X95655000Y-112285000D01*
X98945000Y-112285000D01*
D12*
%TO.P,C110,1*%
X97300000Y-116525000D03*
D13*
%TO.P,C110,2*%
X97300000Y-113275000D03*
%TD*%
D10*
%TO.C,D109*%
%TO.CFtp,D_0402_1005Metric_Pad0.77x0.64mm_HandSolder*%
%TO.CVal,TPD1E1B04 - 0402 size*%
%TO.CLbN,project_fp*%
%TO.CMnt,SMD*%
%TO.CRot,180*%
X92600000Y-105100000D03*
D11*
X93695000Y-104635000D02*
X93695000Y-105565000D01*
X91505000Y-105565000D01*
X91505000Y-104635000D01*
X93695000Y-104635000D01*
D12*
%TO.P,D109,1,K*%
X92027500Y-105100000D03*
D13*
%TO.P,D109,2,K*%
X93172500Y-105100000D03*
%TD*%
D10*
%TO.C,R127*%
%TO.CFtp,R_0402_1005Metric_Pad0.72x0.64mm_HandSolder*%
%TO.CVal,0 Ohm*%
%TO.CLbN,Resistor_SMD*%
%TO.CMnt,SMD*%
%TO.CRot,180*%
X119400000Y-115700000D03*
D11*
X120495000Y-115235000D02*
X120495000Y-116165000D01*
X118305000Y-116165000D01*
X118305000Y-115235000D01*
X120495000Y-115235000D01*
D12*
%TO.P,R127,1*%
X118802500Y-115700000D03*
D13*
%TO.P,R127,2*%
X119997500Y-115700000D03*
%TD*%
D10*
%TO.C,C121*%
%TO.CFtp,C_0603_1608Metric_Pad1.08x0.95mm_HandSolder*%
%TO.CVal,0.047uF*%
%TO.CLbN,Capacitor_SMD*%
%TO.CMnt,SMD*%
%TO.CRot,-90*%
X102000000Y-108000000D03*
D11*
X102725000Y-106355000D02*
X102725000Y-109645000D01*
X101275000Y-109645000D01*
X101275000Y-106355000D01*
X102725000Y-106355000D01*
D12*
%TO.P,C121,1*%
X102000000Y-108862500D03*
D13*
%TO.P,C121,2*%
X102000000Y-107137500D03*
%TD*%
D10*
%TO.C,C120*%
%TO.CFtp,CP_EIA-3528-21_Kemet-B_Pad1.50x2.35mm_HandSolder*%
%TO.CVal,47uF*%
%TO.CLbN,Capacitor_Tantalum_SMD*%
%TO.CMnt,SMD*%
%TO.CRot,-90*%
X101600000Y-114900000D03*
D11*
X103245000Y-112285000D02*
X103245000Y-117515000D01*
X99955000Y-117515000D01*
X99955000Y-112285000D01*
X103245000Y-112285000D01*
D12*
%TO.P,C120,1*%
X101600000Y-116525000D03*
D13*
%TO.P,C120,2*%
X101600000Y-113275000D03*
%TD*%
D10*
%TO.C,D114*%
%TO.CFtp,D_0402_1005Metric_Pad0.77x0.64mm_HandSolder*%
%TO.CVal,TPD1E1B04 - 0402 size*%
%TO.CLbN,project_fp*%
%TO.CMnt,SMD*%
%TO.CRot,0*%
X116400000Y-105035000D03*
D11*
X117495000Y-104570000D02*
X117495000Y-105500000D01*
X115305000Y-105500000D01*
X115305000Y-104570000D01*
X117495000Y-104570000D01*
D12*
%TO.P,D114,1,K*%
X116972500Y-105035000D03*
D13*
%TO.P,D114,2,K*%
X115827500Y-105035000D03*
%TD*%
D10*
%TO.C,OP1*%
%TO.CFtp,jumper_slice_via*%
%TO.CVal,Jump Filter*%
%TO.CLbN,project_fp*%
%TO.CMnt,TH*%
%TO.CRot,90*%
X96000000Y-107000000D03*
D14*
X95750000Y-106150000D02*
X96250000Y-106150000D01*
X96250000Y-107750000D01*
X95750000Y-107750000D01*
X95750000Y-106150000D01*
D12*
%TO.P,OP1,1,1*%
X96000000Y-106400000D03*
D13*
%TO.P,OP1,2,2*%
X96000000Y-107275000D03*
X96000000Y-107500000D03*
%TD*%
D10*
%TO.C,R116*%
%TO.CFtp,R_0603_1608Metric_Pad1.05x0.95mm_HandSolder*%
%TO.CVal,100*%
%TO.CLbN,project_fp*%
%TO.CMnt,SMD*%
%TO.CRot,90*%
X105500000Y-112000000D03*
D11*
X106225000Y-110355000D02*
X106225000Y-113645000D01*
X104775000Y-113645000D01*
X104775000Y-110355000D01*
X106225000Y-110355000D01*
D12*
%TO.P,R116,1*%
X105500000Y-111125000D03*
D13*
%TO.P,R116,2*%
X105500000Y-112875000D03*
%TD*%
D10*
%TO.C,INM1*%
%TO.CFtp,jumper_slice_via*%
%TO.CVal,Jump Filter*%
%TO.CLbN,project_fp*%
%TO.CMnt,TH*%
%TO.CRot,90*%
X117800000Y-106862500D03*
D14*
X117550000Y-106012500D02*
X118050000Y-106012500D01*
X118050000Y-107612500D01*
X117550000Y-107612500D01*
X117550000Y-106012500D01*
D12*
%TO.P,INM1,1,1*%
X117800000Y-106262500D03*
D13*
%TO.P,INM1,2,2*%
X117800000Y-107137500D03*
X117800000Y-107362500D03*
%TD*%
D10*
%TO.C,FB109*%
%TO.CFtp,C_0805_2012Metric_Pad1.18x1.45mm_HandSolder*%
%TO.CVal,BLM21A601S - BLM21AG601SH1*%
%TO.CLbN,project_fp*%
%TO.CMnt,SMD*%
%TO.CRot,90*%
X119900000Y-107735000D03*
D11*
X120875000Y-105860000D02*
X120875000Y-109610000D01*
X118925000Y-109610000D01*
X118925000Y-105860000D01*
X120875000Y-105860000D01*
D12*
%TO.P,FB109,1*%
X119900000Y-106697500D03*
D13*
%TO.P,FB109,2*%
X119900000Y-108772500D03*
%TD*%
D10*
%TO.C,G119*%
%TO.CFtp,jumper_slice*%
%TO.CVal,jumper*%
%TO.CLbN,project_fp*%
%TO.CMnt,SMD*%
%TO.CRot,-90*%
X122100000Y-115100000D03*
D14*
X122354000Y-115854000D02*
X121846000Y-115854000D01*
X121846000Y-114346000D01*
X122354000Y-114346000D01*
X122354000Y-115854000D01*
D12*
%TO.P,G119,1,A*%
X122100000Y-115604000D03*
D13*
%TO.P,G119,2,B*%
X122100000Y-114600000D03*
%TD*%
D10*
%TO.C,FB108*%
%TO.CFtp,C_0805_2012Metric_Pad1.18x1.45mm_HandSolder*%
%TO.CVal,BLM21A601S - BLM21AG601SH1*%
%TO.CLbN,project_fp*%
%TO.CMnt,SMD*%
%TO.CRot,90*%
X123500000Y-107772500D03*
D11*
X124475000Y-105897500D02*
X124475000Y-109647500D01*
X122525000Y-109647500D01*
X122525000Y-105897500D01*
X124475000Y-105897500D01*
D12*
%TO.P,FB108,1*%
X123500000Y-106735000D03*
D13*
%TO.P,FB108,2*%
X123500000Y-108810000D03*
%TD*%
D10*
%TO.C,D115*%
%TO.CFtp,D_0402_1005Metric_Pad0.77x0.64mm_HandSolder*%
%TO.CVal,TPD1E1B04 - 0402 size*%
%TO.CLbN,project_fp*%
%TO.CMnt,SMD*%
%TO.CRot,0*%
X112800000Y-104900000D03*
D11*
X113895000Y-104435000D02*
X113895000Y-105365000D01*
X111705000Y-105365000D01*
X111705000Y-104435000D01*
X113895000Y-104435000D01*
D12*
%TO.P,D115,1,K*%
X113372500Y-104900000D03*
D13*
%TO.P,D115,2,K*%
X112227500Y-104900000D03*
%TD*%
D10*
%TO.C,C129*%
%TO.CFtp,C_0603_1608Metric_Pad1.08x0.95mm_HandSolder*%
%TO.CVal,1uF*%
%TO.CLbN,Capacitor_SMD*%
%TO.CMnt,SMD*%
%TO.CRot,90*%
X112500000Y-116800000D03*
D11*
X113225000Y-115155000D02*
X113225000Y-118445000D01*
X111775000Y-118445000D01*
X111775000Y-115155000D01*
X113225000Y-115155000D01*
D12*
%TO.P,C129,1*%
X112500000Y-115937499D03*
D13*
%TO.P,C129,2*%
X112500000Y-117662501D03*
%TD*%
D10*
%TO.C,OM1*%
%TO.CFtp,jumper_slice_via_alt_text*%
%TO.CVal,Jump Filter*%
%TO.CLbN,project_fp*%
%TO.CMnt,TH*%
%TO.CRot,-90*%
X91700000Y-107000000D03*
D14*
X91950000Y-107850000D02*
X91450000Y-107850000D01*
X91450000Y-106250000D01*
X91950000Y-106250000D01*
X91950000Y-107850000D01*
D12*
%TO.P,OM1,1,1*%
X91700000Y-107600000D03*
D13*
%TO.P,OM1,2,2*%
X91700000Y-106750000D03*
X91700000Y-106500000D03*
%TD*%
D10*
%TO.C,C117*%
%TO.CFtp,C_0603_1608Metric_Pad1.08x0.95mm_HandSolder*%
%TO.CVal,0.047uF*%
%TO.CLbN,Capacitor_SMD*%
%TO.CMnt,SMD*%
%TO.CRot,-90*%
X93400000Y-108000000D03*
D11*
X94125000Y-106355000D02*
X94125000Y-109645000D01*
X92675000Y-109645000D01*
X92675000Y-106355000D01*
X94125000Y-106355000D01*
D12*
%TO.P,C117,1*%
X93400000Y-108862500D03*
D13*
%TO.P,C117,2*%
X93400000Y-107137500D03*
%TD*%
D10*
%TO.C,INP1*%
%TO.CFtp,jumper_slice_via*%
%TO.CVal,Jump Filter*%
%TO.CLbN,project_fp*%
%TO.CMnt,TH*%
%TO.CRot,90*%
X114200000Y-106925000D03*
D14*
X113950000Y-106075000D02*
X114450000Y-106075000D01*
X114450000Y-107675000D01*
X113950000Y-107675000D01*
X113950000Y-106075000D01*
D12*
%TO.P,INP1,1,1*%
X114200000Y-106325000D03*
D13*
%TO.P,INP1,2,2*%
X114200000Y-107200000D03*
X114200000Y-107425000D03*
%TD*%
M02*
