%TF.GenerationSoftware,KiCad,Pcbnew,(6.0.11)*%
%TF.CreationDate,2023-02-04T17:29:26-05:00*%
%TF.ProjectId,tlv320aic3105_audio_board,746c7633-3230-4616-9963-333130355f61,rev?*%
%TF.SameCoordinates,Original*%
%TF.FileFunction,Soldermask,Bot*%
%TF.FilePolarity,Negative*%
%FSLAX46Y46*%
G04 Gerber Fmt 4.6, Leading zero omitted, Abs format (unit mm)*
G04 Created by KiCad (PCBNEW (6.0.11)) date 2023-02-04 17:29:26*
%MOMM*%
%LPD*%
G01*
G04 APERTURE LIST*
G04 Aperture macros list*
%AMRoundRect*
0 Rectangle with rounded corners*
0 $1 Rounding radius*
0 $2 $3 $4 $5 $6 $7 $8 $9 X,Y pos of 4 corners*
0 Add a 4 corners polygon primitive as box body*
4,1,4,$2,$3,$4,$5,$6,$7,$8,$9,$2,$3,0*
0 Add four circle primitives for the rounded corners*
1,1,$1+$1,$2,$3*
1,1,$1+$1,$4,$5*
1,1,$1+$1,$6,$7*
1,1,$1+$1,$8,$9*
0 Add four rect primitives between the rounded corners*
20,1,$1+$1,$2,$3,$4,$5,0*
20,1,$1+$1,$4,$5,$6,$7,0*
20,1,$1+$1,$6,$7,$8,$9,0*
20,1,$1+$1,$8,$9,$2,$3,0*%
G04 Aperture macros list end*
%ADD10C,0.010000*%
%ADD11RoundRect,0.250000X-0.600000X0.600000X-0.600000X-0.600000X0.600000X-0.600000X0.600000X0.600000X0*%
%ADD12C,1.700000*%
%ADD13R,1.300000X1.300000*%
%ADD14C,1.300000*%
%ADD15R,1.700000X1.700000*%
%ADD16C,2.500000*%
%ADD17C,1.635000*%
%ADD18C,2.000000*%
%ADD19C,2.200000*%
%ADD20O,2.400000X5.500000*%
%ADD21C,5.500000*%
%ADD22R,1.000000X1.500000*%
%ADD23RoundRect,0.250000X-0.337500X-0.475000X0.337500X-0.475000X0.337500X0.475000X-0.337500X0.475000X0*%
%ADD24R,0.508000X0.508000*%
%ADD25R,0.508000X0.500000*%
G04 APERTURE END LIST*
%TO.C,J4*%
G36*
X114324000Y-109664000D02*
G01*
X113816000Y-109664000D01*
X113816000Y-109156000D01*
X114324000Y-109156000D01*
X114324000Y-109664000D01*
G37*
D10*
X114324000Y-109664000D02*
X113816000Y-109664000D01*
X113816000Y-109156000D01*
X114324000Y-109156000D01*
X114324000Y-109664000D01*
G36*
X91464000Y-109664000D02*
G01*
X90956000Y-109664000D01*
X90956000Y-109156000D01*
X91464000Y-109156000D01*
X91464000Y-109664000D01*
G37*
X91464000Y-109664000D02*
X90956000Y-109664000D01*
X90956000Y-109156000D01*
X91464000Y-109156000D01*
X91464000Y-109664000D01*
G36*
X104164000Y-109664000D02*
G01*
X103656000Y-109664000D01*
X103656000Y-109156000D01*
X104164000Y-109156000D01*
X104164000Y-109664000D01*
G37*
X104164000Y-109664000D02*
X103656000Y-109664000D01*
X103656000Y-109156000D01*
X104164000Y-109156000D01*
X104164000Y-109664000D01*
G36*
X111784000Y-109664000D02*
G01*
X111276000Y-109664000D01*
X111276000Y-109156000D01*
X111784000Y-109156000D01*
X111784000Y-109664000D01*
G37*
X111784000Y-109664000D02*
X111276000Y-109664000D01*
X111276000Y-109156000D01*
X111784000Y-109156000D01*
X111784000Y-109664000D01*
G36*
X109244000Y-109664000D02*
G01*
X108736000Y-109664000D01*
X108736000Y-109156000D01*
X109244000Y-109156000D01*
X109244000Y-109664000D01*
G37*
X109244000Y-109664000D02*
X108736000Y-109664000D01*
X108736000Y-109156000D01*
X109244000Y-109156000D01*
X109244000Y-109664000D01*
G36*
X94004000Y-109664000D02*
G01*
X93496000Y-109664000D01*
X93496000Y-109156000D01*
X94004000Y-109156000D01*
X94004000Y-109664000D01*
G37*
X94004000Y-109664000D02*
X93496000Y-109664000D01*
X93496000Y-109156000D01*
X94004000Y-109156000D01*
X94004000Y-109664000D01*
G36*
X101624000Y-109664000D02*
G01*
X101116000Y-109664000D01*
X101116000Y-109156000D01*
X101624000Y-109156000D01*
X101624000Y-109664000D01*
G37*
X101624000Y-109664000D02*
X101116000Y-109664000D01*
X101116000Y-109156000D01*
X101624000Y-109156000D01*
X101624000Y-109664000D01*
G36*
X106704000Y-109664000D02*
G01*
X106196000Y-109664000D01*
X106196000Y-109156000D01*
X106704000Y-109156000D01*
X106704000Y-109664000D01*
G37*
X106704000Y-109664000D02*
X106196000Y-109664000D01*
X106196000Y-109156000D01*
X106704000Y-109156000D01*
X106704000Y-109664000D01*
G36*
X116864000Y-109664000D02*
G01*
X116356000Y-109664000D01*
X116356000Y-109156000D01*
X116864000Y-109156000D01*
X116864000Y-109664000D01*
G37*
X116864000Y-109664000D02*
X116356000Y-109664000D01*
X116356000Y-109156000D01*
X116864000Y-109156000D01*
X116864000Y-109664000D01*
G36*
X96544000Y-109664000D02*
G01*
X96036000Y-109664000D01*
X96036000Y-109156000D01*
X96544000Y-109156000D01*
X96544000Y-109664000D01*
G37*
X96544000Y-109664000D02*
X96036000Y-109664000D01*
X96036000Y-109156000D01*
X96544000Y-109156000D01*
X96544000Y-109664000D01*
G36*
X99084000Y-109664000D02*
G01*
X98576000Y-109664000D01*
X98576000Y-109156000D01*
X99084000Y-109156000D01*
X99084000Y-109664000D01*
G37*
X99084000Y-109664000D02*
X98576000Y-109664000D01*
X98576000Y-109156000D01*
X99084000Y-109156000D01*
X99084000Y-109664000D01*
%TO.C,G3*%
G36*
X102404000Y-74422000D02*
G01*
X101896000Y-74422000D01*
X101896000Y-73914000D01*
X102404000Y-73914000D01*
X102404000Y-74422000D01*
G37*
X102404000Y-74422000D02*
X101896000Y-74422000D01*
X101896000Y-73914000D01*
X102404000Y-73914000D01*
X102404000Y-74422000D01*
%TD*%
D11*
%TO.C,XIA2*%
X114046000Y-103632000D03*
D12*
X114046000Y-106172000D03*
X111506000Y-103632000D03*
X111506000Y-106172000D03*
X108966000Y-103632000D03*
X108966000Y-106172000D03*
X106426000Y-103632000D03*
X106426000Y-106172000D03*
X103886000Y-103632000D03*
X103886000Y-106172000D03*
X101346000Y-103632000D03*
X101346000Y-106172000D03*
X98806000Y-103632000D03*
X98806000Y-106172000D03*
X96266000Y-103632000D03*
X96266000Y-106172000D03*
X93726000Y-103632000D03*
X93726000Y-106172000D03*
X91186000Y-103632000D03*
X91186000Y-106172000D03*
%TD*%
D13*
%TO.C,C4*%
X117275500Y-59400760D03*
D14*
X117275500Y-61400760D03*
%TD*%
D13*
%TO.C,C9*%
X90916000Y-59944240D03*
D14*
X88916000Y-59944240D03*
%TD*%
D15*
%TO.C,PD3.3*%
X112880000Y-86960000D03*
%TD*%
D13*
%TO.C,C5*%
X111710000Y-65570160D03*
D14*
X111710000Y-67570160D03*
%TD*%
D16*
%TO.C,LINE_IO1*%
X116634900Y-24373900D03*
X120614900Y-24373900D03*
D17*
X118624900Y-33673900D03*
X111309900Y-22873900D03*
X125939900Y-22873900D03*
X121124900Y-29373900D03*
X116124900Y-29373900D03*
X123629900Y-24373900D03*
X123629900Y-29373900D03*
X113619900Y-29373900D03*
X112374900Y-31863900D03*
X124874900Y-31863900D03*
X113619900Y-24373900D03*
%TD*%
D13*
%TO.C,C3*%
X118110000Y-65548000D03*
D14*
X118110000Y-67548000D03*
%TD*%
D13*
%TO.C,C2*%
X123952000Y-59452000D03*
D14*
X123952000Y-61452000D03*
%TD*%
D13*
%TO.C,C1*%
X123777849Y-69866000D03*
D14*
X123777849Y-71866000D03*
%TD*%
D13*
%TO.C,C6*%
X110671500Y-59401000D03*
D14*
X110671500Y-61401000D03*
%TD*%
D13*
%TO.C,C8*%
X97774000Y-60379080D03*
D14*
X95774000Y-60379080D03*
%TD*%
D18*
%TO.C,RCA_IN1*%
X83374900Y-32790000D03*
X90874900Y-32790000D03*
D19*
X83374900Y-25540000D03*
D20*
X80974900Y-29040000D03*
D18*
X97374900Y-32790000D03*
X104874900Y-32790000D03*
D19*
X97374900Y-25540000D03*
D20*
X107274900Y-29040000D03*
%TD*%
D21*
%TO.C,board_outline1*%
X125124900Y-117350000D03*
X81124900Y-117350000D03*
%TD*%
D15*
%TO.C,P18*%
X87984000Y-85090000D03*
%TD*%
D11*
%TO.C,3105IO1*%
X120793000Y-38109500D03*
D12*
X120793000Y-40649500D03*
X118253000Y-38109500D03*
X118253000Y-40649500D03*
X115713000Y-38109500D03*
X115713000Y-40649500D03*
X113173000Y-38109500D03*
X113173000Y-40649500D03*
X110633000Y-38109500D03*
X110633000Y-40649500D03*
X108093000Y-38109500D03*
X108093000Y-40649500D03*
X105553000Y-38109500D03*
X105553000Y-40649500D03*
X103013000Y-38109500D03*
X103013000Y-40649500D03*
X100473000Y-38109500D03*
X100473000Y-40649500D03*
X97933000Y-38109500D03*
X97933000Y-40649500D03*
X95393000Y-38109500D03*
X95393000Y-40649500D03*
X92853000Y-38109500D03*
X92853000Y-40649500D03*
X90313000Y-38109500D03*
X90313000Y-40649500D03*
X87773000Y-38109500D03*
X87773000Y-40649500D03*
X85233000Y-38109500D03*
X85233000Y-40649500D03*
%TD*%
D15*
%TO.C,P33*%
X121060000Y-86810000D03*
%TD*%
D13*
%TO.C,C7*%
X104632000Y-60379080D03*
D14*
X102632000Y-60379080D03*
%TD*%
D11*
%TO.C,XIA1*%
X114046000Y-113792000D03*
D12*
X114046000Y-116332000D03*
X111506000Y-113792000D03*
X111506000Y-116332000D03*
X108966000Y-113792000D03*
X108966000Y-116332000D03*
X106426000Y-113792000D03*
X106426000Y-116332000D03*
X103886000Y-113792000D03*
X103886000Y-116332000D03*
X101346000Y-113792000D03*
X101346000Y-116332000D03*
X98806000Y-113792000D03*
X98806000Y-116332000D03*
X96266000Y-113792000D03*
X96266000Y-116332000D03*
X93726000Y-113792000D03*
X93726000Y-116332000D03*
X91186000Y-113792000D03*
X91186000Y-116332000D03*
%TD*%
D13*
%TO.C,C10*%
X84312000Y-59944240D03*
D14*
X82312000Y-59944240D03*
%TD*%
D22*
%TO.C,OUTL1*%
X92486000Y-29718000D03*
X91186000Y-29718000D03*
X89886000Y-29718000D03*
%TD*%
%TO.C,OUTR1*%
X86644000Y-29718000D03*
X85344000Y-29718000D03*
X84044000Y-29718000D03*
%TD*%
D23*
%TO.C,C19*%
X104372500Y-43688000D03*
X106447500Y-43688000D03*
%TD*%
D24*
%TO.C,J4*%
X91210000Y-108910000D03*
X91210000Y-109910000D03*
X93750000Y-108910000D03*
X93750000Y-109910000D03*
X96290000Y-108910000D03*
X96290000Y-109910000D03*
X98830000Y-108910000D03*
X98830000Y-109910000D03*
X101370000Y-108910000D03*
X101370000Y-109910000D03*
X103910000Y-108910000D03*
X103910000Y-109910000D03*
X106450000Y-108910000D03*
X106450000Y-109910000D03*
X108990000Y-108910000D03*
X108990000Y-109910000D03*
X111530000Y-108910000D03*
X111530000Y-109910000D03*
X114070000Y-108910000D03*
X114070000Y-109910000D03*
X116610000Y-108910000D03*
X116610000Y-109910000D03*
%TD*%
D25*
%TO.C,G3*%
X102150000Y-74672000D03*
D24*
X102150000Y-73668000D03*
%TD*%
M02*
