%TF.GenerationSoftware,KiCad,Pcbnew,(6.0.11)*%
%TF.CreationDate,2023-02-04T17:29:26-05:00*%
%TF.ProjectId,tlv320aic3105_audio_board,746c7633-3230-4616-9963-333130355f61,rev?*%
%TF.SameCoordinates,Original*%
%TF.FileFunction,Legend,Bot*%
%TF.FilePolarity,Positive*%
%FSLAX46Y46*%
G04 Gerber Fmt 4.6, Leading zero omitted, Abs format (unit mm)*
G04 Created by KiCad (PCBNEW (6.0.11)) date 2023-02-04 17:29:26*
%MOMM*%
%LPD*%
G01*
G04 APERTURE LIST*
%ADD10C,0.150000*%
%ADD11C,0.180000*%
%ADD12C,0.120000*%
G04 APERTURE END LIST*
D10*
%TO.C,XIA2*%
X103338380Y-100235095D02*
X103338380Y-100806523D01*
X104338380Y-100520809D02*
X103338380Y-100520809D01*
X103338380Y-101044619D02*
X104338380Y-101711285D01*
X103338380Y-101711285D02*
X104338380Y-101044619D01*
X94130761Y-100211285D02*
X94178380Y-100354142D01*
X94178380Y-100592238D01*
X94130761Y-100687476D01*
X94083142Y-100735095D01*
X93987904Y-100782714D01*
X93892666Y-100782714D01*
X93797428Y-100735095D01*
X93749809Y-100687476D01*
X93702190Y-100592238D01*
X93654571Y-100401761D01*
X93606952Y-100306523D01*
X93559333Y-100258904D01*
X93464095Y-100211285D01*
X93368857Y-100211285D01*
X93273619Y-100258904D01*
X93226000Y-100306523D01*
X93178380Y-100401761D01*
X93178380Y-100639857D01*
X93226000Y-100782714D01*
X94083142Y-101782714D02*
X94130761Y-101735095D01*
X94178380Y-101592238D01*
X94178380Y-101497000D01*
X94130761Y-101354142D01*
X94035523Y-101258904D01*
X93940285Y-101211285D01*
X93749809Y-101163666D01*
X93606952Y-101163666D01*
X93416476Y-101211285D01*
X93321238Y-101258904D01*
X93226000Y-101354142D01*
X93178380Y-101497000D01*
X93178380Y-101592238D01*
X93226000Y-101735095D01*
X93273619Y-101782714D01*
X101274571Y-100663428D02*
X101322190Y-100806285D01*
X101369809Y-100853904D01*
X101465047Y-100901523D01*
X101607904Y-100901523D01*
X101703142Y-100853904D01*
X101750761Y-100806285D01*
X101798380Y-100711047D01*
X101798380Y-100330095D01*
X100798380Y-100330095D01*
X100798380Y-100663428D01*
X100846000Y-100758666D01*
X100893619Y-100806285D01*
X100988857Y-100853904D01*
X101084095Y-100853904D01*
X101179333Y-100806285D01*
X101226952Y-100758666D01*
X101274571Y-100663428D01*
X101274571Y-100330095D01*
X101703142Y-101901523D02*
X101750761Y-101853904D01*
X101798380Y-101711047D01*
X101798380Y-101615809D01*
X101750761Y-101472952D01*
X101655523Y-101377714D01*
X101560285Y-101330095D01*
X101369809Y-101282476D01*
X101226952Y-101282476D01*
X101036476Y-101330095D01*
X100941238Y-101377714D01*
X100846000Y-101472952D01*
X100798380Y-101615809D01*
X100798380Y-101711047D01*
X100846000Y-101853904D01*
X100893619Y-101901523D01*
X106878380Y-100830333D02*
X106402190Y-100497000D01*
X106878380Y-100258904D02*
X105878380Y-100258904D01*
X105878380Y-100639857D01*
X105926000Y-100735095D01*
X105973619Y-100782714D01*
X106068857Y-100830333D01*
X106211714Y-100830333D01*
X106306952Y-100782714D01*
X106354571Y-100735095D01*
X106402190Y-100639857D01*
X106402190Y-100258904D01*
X105878380Y-101163666D02*
X106878380Y-101830333D01*
X105878380Y-101830333D02*
X106878380Y-101163666D01*
X109418380Y-100806523D02*
X109418380Y-100235095D01*
X109418380Y-100520809D02*
X108418380Y-100520809D01*
X108561238Y-100425571D01*
X108656476Y-100330333D01*
X108704095Y-100235095D01*
X108513619Y-101187476D02*
X108466000Y-101235095D01*
X108418380Y-101330333D01*
X108418380Y-101568428D01*
X108466000Y-101663666D01*
X108513619Y-101711285D01*
X108608857Y-101758904D01*
X108704095Y-101758904D01*
X108846952Y-101711285D01*
X109418380Y-101139857D01*
X109418380Y-101758904D01*
X99258380Y-100901523D02*
X99258380Y-100425333D01*
X98258380Y-100425333D01*
X99258380Y-101806285D02*
X98782190Y-101472952D01*
X99258380Y-101234857D02*
X98258380Y-101234857D01*
X98258380Y-101615809D01*
X98306000Y-101711047D01*
X98353619Y-101758666D01*
X98448857Y-101806285D01*
X98591714Y-101806285D01*
X98686952Y-101758666D01*
X98734571Y-101711047D01*
X98782190Y-101615809D01*
X98782190Y-101234857D01*
X110958380Y-101235095D02*
X110958380Y-100758904D01*
X111434571Y-100711285D01*
X111386952Y-100758904D01*
X111339333Y-100854142D01*
X111339333Y-101092238D01*
X111386952Y-101187476D01*
X111434571Y-101235095D01*
X111529809Y-101282714D01*
X111767904Y-101282714D01*
X111863142Y-101235095D01*
X111910761Y-101187476D01*
X111958380Y-101092238D01*
X111958380Y-100854142D01*
X111910761Y-100758904D01*
X111863142Y-100711285D01*
X91638380Y-100163666D02*
X90638380Y-100163666D01*
X91352666Y-100497000D01*
X90638380Y-100830333D01*
X91638380Y-100830333D01*
X91638380Y-101306523D02*
X90638380Y-101306523D01*
X91638380Y-101877952D02*
X91066952Y-101449380D01*
X90638380Y-101877952D02*
X91209809Y-101306523D01*
X96670761Y-100211285D02*
X96718380Y-100354142D01*
X96718380Y-100592238D01*
X96670761Y-100687476D01*
X96623142Y-100735095D01*
X96527904Y-100782714D01*
X96432666Y-100782714D01*
X96337428Y-100735095D01*
X96289809Y-100687476D01*
X96242190Y-100592238D01*
X96194571Y-100401761D01*
X96146952Y-100306523D01*
X96099333Y-100258904D01*
X96004095Y-100211285D01*
X95908857Y-100211285D01*
X95813619Y-100258904D01*
X95766000Y-100306523D01*
X95718380Y-100401761D01*
X95718380Y-100639857D01*
X95766000Y-100782714D01*
X96718380Y-101211285D02*
X95718380Y-101211285D01*
X95718380Y-101449380D01*
X95766000Y-101592238D01*
X95861238Y-101687476D01*
X95956476Y-101735095D01*
X96146952Y-101782714D01*
X96289809Y-101782714D01*
X96480285Y-101735095D01*
X96575523Y-101687476D01*
X96670761Y-101592238D01*
X96718380Y-101449380D01*
X96718380Y-101211285D01*
X114423380Y-101291523D02*
X113947190Y-100958190D01*
X114423380Y-100720095D02*
X113423380Y-100720095D01*
X113423380Y-101101047D01*
X113471000Y-101196285D01*
X113518619Y-101243904D01*
X113613857Y-101291523D01*
X113756714Y-101291523D01*
X113851952Y-101243904D01*
X113899571Y-101196285D01*
X113947190Y-101101047D01*
X113947190Y-100720095D01*
%TO.C,XIA1*%
X103338380Y-110395095D02*
X103338380Y-110966523D01*
X104338380Y-110680809D02*
X103338380Y-110680809D01*
X103338380Y-111204619D02*
X104338380Y-111871285D01*
X103338380Y-111871285D02*
X104338380Y-111204619D01*
X106878380Y-110990333D02*
X106402190Y-110657000D01*
X106878380Y-110418904D02*
X105878380Y-110418904D01*
X105878380Y-110799857D01*
X105926000Y-110895095D01*
X105973619Y-110942714D01*
X106068857Y-110990333D01*
X106211714Y-110990333D01*
X106306952Y-110942714D01*
X106354571Y-110895095D01*
X106402190Y-110799857D01*
X106402190Y-110418904D01*
X105878380Y-111323666D02*
X106878380Y-111990333D01*
X105878380Y-111990333D02*
X106878380Y-111323666D01*
X101274571Y-110823428D02*
X101322190Y-110966285D01*
X101369809Y-111013904D01*
X101465047Y-111061523D01*
X101607904Y-111061523D01*
X101703142Y-111013904D01*
X101750761Y-110966285D01*
X101798380Y-110871047D01*
X101798380Y-110490095D01*
X100798380Y-110490095D01*
X100798380Y-110823428D01*
X100846000Y-110918666D01*
X100893619Y-110966285D01*
X100988857Y-111013904D01*
X101084095Y-111013904D01*
X101179333Y-110966285D01*
X101226952Y-110918666D01*
X101274571Y-110823428D01*
X101274571Y-110490095D01*
X101703142Y-112061523D02*
X101750761Y-112013904D01*
X101798380Y-111871047D01*
X101798380Y-111775809D01*
X101750761Y-111632952D01*
X101655523Y-111537714D01*
X101560285Y-111490095D01*
X101369809Y-111442476D01*
X101226952Y-111442476D01*
X101036476Y-111490095D01*
X100941238Y-111537714D01*
X100846000Y-111632952D01*
X100798380Y-111775809D01*
X100798380Y-111871047D01*
X100846000Y-112013904D01*
X100893619Y-112061523D01*
X96670761Y-110371285D02*
X96718380Y-110514142D01*
X96718380Y-110752238D01*
X96670761Y-110847476D01*
X96623142Y-110895095D01*
X96527904Y-110942714D01*
X96432666Y-110942714D01*
X96337428Y-110895095D01*
X96289809Y-110847476D01*
X96242190Y-110752238D01*
X96194571Y-110561761D01*
X96146952Y-110466523D01*
X96099333Y-110418904D01*
X96004095Y-110371285D01*
X95908857Y-110371285D01*
X95813619Y-110418904D01*
X95766000Y-110466523D01*
X95718380Y-110561761D01*
X95718380Y-110799857D01*
X95766000Y-110942714D01*
X96718380Y-111371285D02*
X95718380Y-111371285D01*
X95718380Y-111609380D01*
X95766000Y-111752238D01*
X95861238Y-111847476D01*
X95956476Y-111895095D01*
X96146952Y-111942714D01*
X96289809Y-111942714D01*
X96480285Y-111895095D01*
X96575523Y-111847476D01*
X96670761Y-111752238D01*
X96718380Y-111609380D01*
X96718380Y-111371285D01*
X110958380Y-111395095D02*
X110958380Y-110918904D01*
X111434571Y-110871285D01*
X111386952Y-110918904D01*
X111339333Y-111014142D01*
X111339333Y-111252238D01*
X111386952Y-111347476D01*
X111434571Y-111395095D01*
X111529809Y-111442714D01*
X111767904Y-111442714D01*
X111863142Y-111395095D01*
X111910761Y-111347476D01*
X111958380Y-111252238D01*
X111958380Y-111014142D01*
X111910761Y-110918904D01*
X111863142Y-110871285D01*
X94130761Y-110371285D02*
X94178380Y-110514142D01*
X94178380Y-110752238D01*
X94130761Y-110847476D01*
X94083142Y-110895095D01*
X93987904Y-110942714D01*
X93892666Y-110942714D01*
X93797428Y-110895095D01*
X93749809Y-110847476D01*
X93702190Y-110752238D01*
X93654571Y-110561761D01*
X93606952Y-110466523D01*
X93559333Y-110418904D01*
X93464095Y-110371285D01*
X93368857Y-110371285D01*
X93273619Y-110418904D01*
X93226000Y-110466523D01*
X93178380Y-110561761D01*
X93178380Y-110799857D01*
X93226000Y-110942714D01*
X94083142Y-111942714D02*
X94130761Y-111895095D01*
X94178380Y-111752238D01*
X94178380Y-111657000D01*
X94130761Y-111514142D01*
X94035523Y-111418904D01*
X93940285Y-111371285D01*
X93749809Y-111323666D01*
X93606952Y-111323666D01*
X93416476Y-111371285D01*
X93321238Y-111418904D01*
X93226000Y-111514142D01*
X93178380Y-111657000D01*
X93178380Y-111752238D01*
X93226000Y-111895095D01*
X93273619Y-111942714D01*
X109418380Y-110966523D02*
X109418380Y-110395095D01*
X109418380Y-110680809D02*
X108418380Y-110680809D01*
X108561238Y-110585571D01*
X108656476Y-110490333D01*
X108704095Y-110395095D01*
X108513619Y-111347476D02*
X108466000Y-111395095D01*
X108418380Y-111490333D01*
X108418380Y-111728428D01*
X108466000Y-111823666D01*
X108513619Y-111871285D01*
X108608857Y-111918904D01*
X108704095Y-111918904D01*
X108846952Y-111871285D01*
X109418380Y-111299857D01*
X109418380Y-111918904D01*
X99258380Y-111061523D02*
X99258380Y-110585333D01*
X98258380Y-110585333D01*
X99258380Y-111966285D02*
X98782190Y-111632952D01*
X99258380Y-111394857D02*
X98258380Y-111394857D01*
X98258380Y-111775809D01*
X98306000Y-111871047D01*
X98353619Y-111918666D01*
X98448857Y-111966285D01*
X98591714Y-111966285D01*
X98686952Y-111918666D01*
X98734571Y-111871047D01*
X98782190Y-111775809D01*
X98782190Y-111394857D01*
X91638380Y-110323666D02*
X90638380Y-110323666D01*
X91352666Y-110657000D01*
X90638380Y-110990333D01*
X91638380Y-110990333D01*
X91638380Y-111466523D02*
X90638380Y-111466523D01*
X91638380Y-112037952D02*
X91066952Y-111609380D01*
X90638380Y-112037952D02*
X91209809Y-111466523D01*
X114423380Y-111451523D02*
X113947190Y-111118190D01*
X114423380Y-110880095D02*
X113423380Y-110880095D01*
X113423380Y-111261047D01*
X113471000Y-111356285D01*
X113518619Y-111403904D01*
X113613857Y-111451523D01*
X113756714Y-111451523D01*
X113851952Y-111403904D01*
X113899571Y-111356285D01*
X113947190Y-111261047D01*
X113947190Y-110880095D01*
%TO.C,OUTL1*%
X93066952Y-27370380D02*
X92876476Y-27370380D01*
X92781238Y-27418000D01*
X92686000Y-27513238D01*
X92638380Y-27703714D01*
X92638380Y-28037047D01*
X92686000Y-28227523D01*
X92781238Y-28322761D01*
X92876476Y-28370380D01*
X93066952Y-28370380D01*
X93162190Y-28322761D01*
X93257428Y-28227523D01*
X93305047Y-28037047D01*
X93305047Y-27703714D01*
X93257428Y-27513238D01*
X93162190Y-27418000D01*
X93066952Y-27370380D01*
X92209809Y-27370380D02*
X92209809Y-28179904D01*
X92162190Y-28275142D01*
X92114571Y-28322761D01*
X92019333Y-28370380D01*
X91828857Y-28370380D01*
X91733619Y-28322761D01*
X91686000Y-28275142D01*
X91638380Y-28179904D01*
X91638380Y-27370380D01*
X91305047Y-27370380D02*
X90733619Y-27370380D01*
X91019333Y-28370380D02*
X91019333Y-27370380D01*
X89924095Y-28370380D02*
X90400285Y-28370380D01*
X90400285Y-27370380D01*
X89066952Y-28370380D02*
X89638380Y-28370380D01*
X89352666Y-28370380D02*
X89352666Y-27370380D01*
X89447904Y-27513238D01*
X89543142Y-27608476D01*
X89638380Y-27656095D01*
%TO.C,OUTR1*%
X87320190Y-27370380D02*
X87129714Y-27370380D01*
X87034476Y-27418000D01*
X86939238Y-27513238D01*
X86891619Y-27703714D01*
X86891619Y-28037047D01*
X86939238Y-28227523D01*
X87034476Y-28322761D01*
X87129714Y-28370380D01*
X87320190Y-28370380D01*
X87415428Y-28322761D01*
X87510666Y-28227523D01*
X87558285Y-28037047D01*
X87558285Y-27703714D01*
X87510666Y-27513238D01*
X87415428Y-27418000D01*
X87320190Y-27370380D01*
X86463047Y-27370380D02*
X86463047Y-28179904D01*
X86415428Y-28275142D01*
X86367809Y-28322761D01*
X86272571Y-28370380D01*
X86082095Y-28370380D01*
X85986857Y-28322761D01*
X85939238Y-28275142D01*
X85891619Y-28179904D01*
X85891619Y-27370380D01*
X85558285Y-27370380D02*
X84986857Y-27370380D01*
X85272571Y-28370380D02*
X85272571Y-27370380D01*
X84082095Y-28370380D02*
X84415428Y-27894190D01*
X84653523Y-28370380D02*
X84653523Y-27370380D01*
X84272571Y-27370380D01*
X84177333Y-27418000D01*
X84129714Y-27465619D01*
X84082095Y-27560857D01*
X84082095Y-27703714D01*
X84129714Y-27798952D01*
X84177333Y-27846571D01*
X84272571Y-27894190D01*
X84653523Y-27894190D01*
X83129714Y-28370380D02*
X83701142Y-28370380D01*
X83415428Y-28370380D02*
X83415428Y-27370380D01*
X83510666Y-27513238D01*
X83605904Y-27608476D01*
X83701142Y-27656095D01*
%TO.C,C19*%
X106024285Y-45223714D02*
X106062380Y-45261809D01*
X106176666Y-45299904D01*
X106252857Y-45299904D01*
X106367142Y-45261809D01*
X106443333Y-45185619D01*
X106481428Y-45109428D01*
X106519523Y-44957047D01*
X106519523Y-44842761D01*
X106481428Y-44690380D01*
X106443333Y-44614190D01*
X106367142Y-44538000D01*
X106252857Y-44499904D01*
X106176666Y-44499904D01*
X106062380Y-44538000D01*
X106024285Y-44576095D01*
X105262380Y-45299904D02*
X105719523Y-45299904D01*
X105490952Y-45299904D02*
X105490952Y-44499904D01*
X105567142Y-44614190D01*
X105643333Y-44690380D01*
X105719523Y-44728476D01*
X104881428Y-45299904D02*
X104729047Y-45299904D01*
X104652857Y-45261809D01*
X104614761Y-45223714D01*
X104538571Y-45109428D01*
X104500476Y-44957047D01*
X104500476Y-44652285D01*
X104538571Y-44576095D01*
X104576666Y-44538000D01*
X104652857Y-44499904D01*
X104805238Y-44499904D01*
X104881428Y-44538000D01*
X104919523Y-44576095D01*
X104957619Y-44652285D01*
X104957619Y-44842761D01*
X104919523Y-44918952D01*
X104881428Y-44957047D01*
X104805238Y-44995142D01*
X104652857Y-44995142D01*
X104576666Y-44957047D01*
X104538571Y-44918952D01*
X104500476Y-44842761D01*
D11*
%TO.C,J4*%
X98824524Y-110721904D02*
X98824524Y-111293333D01*
X98862619Y-111407619D01*
X98938810Y-111483809D01*
X99053096Y-111521904D01*
X99129286Y-111521904D01*
X98100715Y-110988571D02*
X98100715Y-111521904D01*
X98291191Y-110683809D02*
X98481667Y-111255238D01*
X97986429Y-111255238D01*
%TO.C,G3*%
X100750000Y-73496571D02*
X100711904Y-73420380D01*
X100711904Y-73306095D01*
X100750000Y-73191809D01*
X100826190Y-73115619D01*
X100902380Y-73077523D01*
X101054761Y-73039428D01*
X101169047Y-73039428D01*
X101321428Y-73077523D01*
X101397619Y-73115619D01*
X101473809Y-73191809D01*
X101511904Y-73306095D01*
X101511904Y-73382285D01*
X101473809Y-73496571D01*
X101435714Y-73534666D01*
X101169047Y-73534666D01*
X101169047Y-73382285D01*
X100711904Y-73801333D02*
X100711904Y-74296571D01*
X101016666Y-74029904D01*
X101016666Y-74144190D01*
X101054761Y-74220380D01*
X101092857Y-74258476D01*
X101169047Y-74296571D01*
X101359523Y-74296571D01*
X101435714Y-74258476D01*
X101473809Y-74220380D01*
X101511904Y-74144190D01*
X101511904Y-73915619D01*
X101473809Y-73839428D01*
X101435714Y-73801333D01*
D12*
%TO.C,XIA2*%
X113571000Y-102632000D02*
X114071000Y-101632000D01*
X114071000Y-101632000D02*
X114571000Y-102632000D01*
%TO.C,XIA1*%
X114071000Y-111792000D02*
X114571000Y-112792000D01*
X113571000Y-112792000D02*
X114071000Y-111792000D01*
%TO.C,OUTL1*%
X92786000Y-31218000D02*
X92186000Y-31218000D01*
X92486000Y-30918000D02*
X92786000Y-31218000D01*
X89136000Y-28718000D02*
X89136000Y-30718000D01*
X92486000Y-30918000D02*
X92186000Y-31218000D01*
X93236000Y-28718000D02*
X89136000Y-28718000D01*
X93236000Y-30718000D02*
X93236000Y-28718000D01*
X89136000Y-30718000D02*
X93236000Y-30718000D01*
%TO.C,OUTR1*%
X86944000Y-31218000D02*
X86344000Y-31218000D01*
X86644000Y-30918000D02*
X86344000Y-31218000D01*
X83294000Y-28718000D02*
X83294000Y-30718000D01*
X83294000Y-30718000D02*
X87394000Y-30718000D01*
X86644000Y-30918000D02*
X86944000Y-31218000D01*
X87394000Y-30718000D02*
X87394000Y-28718000D01*
X87394000Y-28718000D02*
X83294000Y-28718000D01*
%TO.C,C19*%
X105148748Y-42953000D02*
X105671252Y-42953000D01*
X105148748Y-44423000D02*
X105671252Y-44423000D01*
%TD*%
M02*
