%TF.GenerationSoftware,KiCad,Pcbnew,(6.0.11)*%
%TF.CreationDate,2023-02-04T17:29:26-05:00*%
%TF.ProjectId,tlv320aic3105_audio_board,746c7633-3230-4616-9963-333130355f61,rev?*%
%TF.SameCoordinates,Original*%
%TF.FileFunction,Paste,Top*%
%TF.FilePolarity,Positive*%
%FSLAX46Y46*%
G04 Gerber Fmt 4.6, Leading zero omitted, Abs format (unit mm)*
G04 Created by KiCad (PCBNEW (6.0.11)) date 2023-02-04 17:29:26*
%MOMM*%
%LPD*%
G01*
G04 APERTURE LIST*
G04 Aperture macros list*
%AMRoundRect*
0 Rectangle with rounded corners*
0 $1 Rounding radius*
0 $2 $3 $4 $5 $6 $7 $8 $9 X,Y pos of 4 corners*
0 Add a 4 corners polygon primitive as box body*
4,1,4,$2,$3,$4,$5,$6,$7,$8,$9,$2,$3,0*
0 Add four circle primitives for the rounded corners*
1,1,$1+$1,$2,$3*
1,1,$1+$1,$4,$5*
1,1,$1+$1,$6,$7*
1,1,$1+$1,$8,$9*
0 Add four rect primitives between the rounded corners*
20,1,$1+$1,$2,$3,$4,$5,0*
20,1,$1+$1,$4,$5,$6,$7,0*
20,1,$1+$1,$6,$7,$8,$9,0*
20,1,$1+$1,$8,$9,$2,$3,0*%
G04 Aperture macros list end*
%ADD10RoundRect,0.250000X-0.350000X-0.450000X0.350000X-0.450000X0.350000X0.450000X-0.350000X0.450000X0*%
%ADD11RoundRect,0.250000X0.475000X-0.337500X0.475000X0.337500X-0.475000X0.337500X-0.475000X-0.337500X0*%
%ADD12RoundRect,0.250000X0.450000X-0.350000X0.450000X0.350000X-0.450000X0.350000X-0.450000X-0.350000X0*%
%ADD13RoundRect,0.250000X-0.337500X-0.475000X0.337500X-0.475000X0.337500X0.475000X-0.337500X0.475000X0*%
%ADD14RoundRect,0.160000X-0.160000X0.222500X-0.160000X-0.222500X0.160000X-0.222500X0.160000X0.222500X0*%
%ADD15RoundRect,0.062500X0.337500X-0.062500X0.337500X0.062500X-0.337500X0.062500X-0.337500X-0.062500X0*%
%ADD16RoundRect,0.062500X0.062500X-0.337500X0.062500X0.337500X-0.062500X0.337500X-0.062500X-0.337500X0*%
%ADD17RoundRect,0.250000X0.480000X-0.480000X0.480000X0.480000X-0.480000X0.480000X-0.480000X-0.480000X0*%
%ADD18RoundRect,0.160000X-0.222500X-0.160000X0.222500X-0.160000X0.222500X0.160000X-0.222500X0.160000X0*%
%ADD19RoundRect,0.250000X0.337500X0.475000X-0.337500X0.475000X-0.337500X-0.475000X0.337500X-0.475000X0*%
%ADD20RoundRect,0.250000X-0.475000X0.337500X-0.475000X-0.337500X0.475000X-0.337500X0.475000X0.337500X0*%
%ADD21RoundRect,0.250000X-0.097227X0.574524X-0.574524X0.097227X0.097227X-0.574524X0.574524X-0.097227X0*%
%ADD22RoundRect,0.250000X-0.650000X0.412500X-0.650000X-0.412500X0.650000X-0.412500X0.650000X0.412500X0*%
%ADD23RoundRect,0.250000X1.100000X-0.412500X1.100000X0.412500X-1.100000X0.412500X-1.100000X-0.412500X0*%
%ADD24RoundRect,0.150000X0.150000X-0.512500X0.150000X0.512500X-0.150000X0.512500X-0.150000X-0.512500X0*%
%ADD25RoundRect,0.250000X0.350000X0.450000X-0.350000X0.450000X-0.350000X-0.450000X0.350000X-0.450000X0*%
%ADD26RoundRect,0.150000X-0.150000X0.512500X-0.150000X-0.512500X0.150000X-0.512500X0.150000X0.512500X0*%
%ADD27RoundRect,0.250000X-0.450000X0.350000X-0.450000X-0.350000X0.450000X-0.350000X0.450000X0.350000X0*%
%ADD28RoundRect,0.250000X-0.574524X-0.097227X-0.097227X-0.574524X0.574524X0.097227X0.097227X0.574524X0*%
%ADD29RoundRect,0.250000X0.574524X0.097227X0.097227X0.574524X-0.574524X-0.097227X-0.097227X-0.574524X0*%
%ADD30RoundRect,0.250001X-0.624999X0.462499X-0.624999X-0.462499X0.624999X-0.462499X0.624999X0.462499X0*%
G04 APERTURE END LIST*
D10*
%TO.C,R13*%
X86054500Y-55372000D03*
X88054500Y-55372000D03*
%TD*%
D11*
%TO.C,T\u002AC7*%
X104902000Y-67331500D03*
X104902000Y-65256500D03*
%TD*%
D12*
%TO.C,R3*%
X82042000Y-85328000D03*
X82042000Y-83328000D03*
%TD*%
D13*
%TO.C,C21*%
X122080000Y-55390000D03*
X124155000Y-55390000D03*
%TD*%
D14*
%TO.C,D34*%
X81980000Y-45807500D03*
X81980000Y-46952500D03*
%TD*%
D15*
%TO.C,U1*%
X99822000Y-78962000D03*
X99822000Y-78462000D03*
X99822000Y-77962000D03*
X99822000Y-77462000D03*
X99822000Y-76962000D03*
X99822000Y-76462000D03*
X99822000Y-75962000D03*
X99822000Y-75462000D03*
D16*
X100522000Y-74762000D03*
X101022000Y-74762000D03*
X101522000Y-74762000D03*
X102022000Y-74762000D03*
X102522000Y-74762000D03*
X103022000Y-74762000D03*
X103522000Y-74762000D03*
X104022000Y-74762000D03*
D15*
X104722000Y-75462000D03*
X104722000Y-75962000D03*
X104722000Y-76462000D03*
X104722000Y-76962000D03*
X104722000Y-77462000D03*
X104722000Y-77962000D03*
X104722000Y-78462000D03*
X104722000Y-78962000D03*
D16*
X104022000Y-79662000D03*
X103522000Y-79662000D03*
X103022000Y-79662000D03*
X102522000Y-79662000D03*
X102022000Y-79662000D03*
X101522000Y-79662000D03*
X101022000Y-79662000D03*
X100522000Y-79662000D03*
D17*
X101397000Y-78087000D03*
X101397000Y-76337000D03*
X103147000Y-78087000D03*
X103147000Y-76337000D03*
%TD*%
D14*
%TO.C,D29*%
X92387140Y-45807500D03*
X92387140Y-46952500D03*
%TD*%
D18*
%TO.C,D24*%
X109154164Y-49220000D03*
X110299164Y-49220000D03*
%TD*%
D11*
%TO.C,T\u002AC8*%
X104621000Y-71311000D03*
X104621000Y-69236000D03*
%TD*%
D18*
%TO.C,D22*%
X118303052Y-49220000D03*
X119448052Y-49220000D03*
%TD*%
D19*
%TO.C,T\u002AC3*%
X105177500Y-88138000D03*
X103102500Y-88138000D03*
%TD*%
D20*
%TO.C,T\u002AC10*%
X117840000Y-93392500D03*
X117840000Y-95467500D03*
%TD*%
D21*
%TO.C,T\u002AC5*%
X95475623Y-80800377D03*
X94008377Y-82267623D03*
%TD*%
D14*
%TO.C,D28*%
X94468568Y-45807500D03*
X94468568Y-46952500D03*
%TD*%
D18*
%TO.C,D26*%
X100005276Y-49220000D03*
X101150276Y-49220000D03*
%TD*%
D14*
%TO.C,D30*%
X90305712Y-45807500D03*
X90305712Y-46952500D03*
%TD*%
D22*
%TO.C,C4*%
X115525500Y-58850760D03*
X115525500Y-61975760D03*
%TD*%
D13*
%TO.C,R31*%
X122123000Y-52596000D03*
X124198000Y-52596000D03*
%TD*%
D19*
%TO.C,C17*%
X88188500Y-76575287D03*
X86113500Y-76575287D03*
%TD*%
D20*
%TO.C,T\u002AC13*%
X84534000Y-91702500D03*
X84534000Y-93777500D03*
%TD*%
D23*
%TO.C,C9*%
X89916000Y-61506740D03*
X89916000Y-58381740D03*
%TD*%
D13*
%TO.C,FB22*%
X117556100Y-46250000D03*
X119631100Y-46250000D03*
%TD*%
D11*
%TO.C,T\u002AC22*%
X109790000Y-91785000D03*
X109790000Y-89710000D03*
%TD*%
D24*
%TO.C,U21*%
X111710000Y-95557500D03*
X112660000Y-95557500D03*
X113610000Y-95557500D03*
X113610000Y-93282500D03*
X111710000Y-93282500D03*
%TD*%
D25*
%TO.C,R17*%
X92601000Y-76588145D03*
X90601000Y-76588145D03*
%TD*%
D14*
%TO.C,D32*%
X86142856Y-45807500D03*
X86142856Y-46952500D03*
%TD*%
D10*
%TO.C,R14*%
X84012000Y-55372000D03*
X82012000Y-55372000D03*
%TD*%
D14*
%TO.C,D31*%
X88224284Y-45807500D03*
X88224284Y-46952500D03*
%TD*%
D13*
%TO.C,R34*%
X108618000Y-52596000D03*
X110693000Y-52596000D03*
%TD*%
D18*
%TO.C,D23*%
X113728608Y-49220000D03*
X114873608Y-49220000D03*
%TD*%
D14*
%TO.C,D33*%
X84061428Y-45807500D03*
X84061428Y-46952500D03*
%TD*%
D13*
%TO.C,C23*%
X113190000Y-55390000D03*
X115265000Y-55390000D03*
%TD*%
D25*
%TO.C,R16*%
X90800000Y-73131429D03*
X88800000Y-73131429D03*
%TD*%
D20*
%TO.C,R29*%
X110236000Y-80983000D03*
X110236000Y-83058000D03*
%TD*%
D26*
%TO.C,U14*%
X102550000Y-83698500D03*
X101600000Y-83698500D03*
X100650000Y-83698500D03*
X100650000Y-85973500D03*
X102550000Y-85973500D03*
%TD*%
D22*
%TO.C,C5*%
X109960000Y-65020160D03*
X109960000Y-68145160D03*
%TD*%
D19*
%TO.C,C13*%
X88122000Y-52608000D03*
X86047000Y-52608000D03*
%TD*%
D11*
%TO.C,R27*%
X91862000Y-88921500D03*
X91862000Y-86846500D03*
%TD*%
D13*
%TO.C,FB23*%
X113029700Y-46250000D03*
X115104700Y-46250000D03*
%TD*%
D19*
%TO.C,C12*%
X92186000Y-52608000D03*
X90111000Y-52608000D03*
%TD*%
D13*
%TO.C,R33*%
X113190000Y-52596000D03*
X115265000Y-52596000D03*
%TD*%
D19*
%TO.C,C18*%
X86577500Y-79590000D03*
X84502500Y-79590000D03*
%TD*%
D13*
%TO.C,FB24*%
X108503300Y-46250000D03*
X110578300Y-46250000D03*
%TD*%
%TO.C,R32*%
X117508000Y-52596000D03*
X119583000Y-52596000D03*
%TD*%
D20*
%TO.C,R28*%
X107950000Y-81004500D03*
X107950000Y-83079500D03*
%TD*%
D19*
%TO.C,C15*%
X87988500Y-69831000D03*
X85913500Y-69831000D03*
%TD*%
D27*
%TO.C,R1*%
X121158000Y-101616000D03*
X121158000Y-103616000D03*
%TD*%
D18*
%TO.C,D25*%
X104579720Y-49220000D03*
X105724720Y-49220000D03*
%TD*%
D19*
%TO.C,T\u002AC15*%
X88921500Y-87890000D03*
X86846500Y-87890000D03*
%TD*%
D13*
%TO.C,FB21*%
X122082500Y-46250000D03*
X124157500Y-46250000D03*
%TD*%
D11*
%TO.C,T\u002AC9*%
X84484000Y-89777500D03*
X84484000Y-87702500D03*
%TD*%
D13*
%TO.C,C26*%
X99474000Y-55390000D03*
X101549000Y-55390000D03*
%TD*%
D22*
%TO.C,C3*%
X116360000Y-64998000D03*
X116360000Y-68123000D03*
%TD*%
D13*
%TO.C,C22*%
X117529500Y-55390000D03*
X119604500Y-55390000D03*
%TD*%
D19*
%TO.C,C14*%
X84079500Y-52608000D03*
X82004500Y-52608000D03*
%TD*%
D13*
%TO.C,C25*%
X104067500Y-55390000D03*
X106142500Y-55390000D03*
%TD*%
D21*
%TO.C,T\u002AC6*%
X97853623Y-81326377D03*
X96386377Y-82793623D03*
%TD*%
D22*
%TO.C,C2*%
X122202000Y-58902000D03*
X122202000Y-62027000D03*
%TD*%
%TO.C,C1*%
X122027849Y-69316000D03*
X122027849Y-72441000D03*
%TD*%
D24*
%TO.C,U18*%
X86884000Y-93727500D03*
X87834000Y-93727500D03*
X88784000Y-93727500D03*
X88784000Y-91452500D03*
X86884000Y-91452500D03*
%TD*%
D28*
%TO.C,T\u002AC11*%
X92706377Y-67416377D03*
X94173623Y-68883623D03*
%TD*%
D13*
%TO.C,C20*%
X99292500Y-88138000D03*
X101367500Y-88138000D03*
%TD*%
D19*
%TO.C,C16*%
X86387500Y-73110000D03*
X84312500Y-73110000D03*
%TD*%
%TO.C,T\u002AC16*%
X121847500Y-89690000D03*
X119772500Y-89690000D03*
%TD*%
D13*
%TO.C,FB25*%
X103976900Y-46250000D03*
X106051900Y-46250000D03*
%TD*%
D20*
%TO.C,T\u002AC4*%
X104902000Y-84012000D03*
X104902000Y-86087000D03*
%TD*%
D19*
%TO.C,C11*%
X96250000Y-52608000D03*
X94175000Y-52608000D03*
%TD*%
D25*
%TO.C,R18*%
X90990000Y-79594287D03*
X88990000Y-79594287D03*
%TD*%
D22*
%TO.C,C6*%
X108921500Y-58851000D03*
X108921500Y-61976000D03*
%TD*%
D23*
%TO.C,C8*%
X96774000Y-61941580D03*
X96774000Y-58816580D03*
%TD*%
D10*
%TO.C,R11*%
X96191000Y-55372000D03*
X94191000Y-55372000D03*
%TD*%
D13*
%TO.C,FB26*%
X99450500Y-46250000D03*
X101525500Y-46250000D03*
%TD*%
D29*
%TO.C,T\u002AC12*%
X97903623Y-72203623D03*
X96436377Y-70736377D03*
%TD*%
D13*
%TO.C,R35*%
X104067500Y-52596000D03*
X106142500Y-52596000D03*
%TD*%
%TO.C,R36*%
X99474000Y-52596000D03*
X101549000Y-52596000D03*
%TD*%
%TO.C,C24*%
X108639500Y-55390000D03*
X110714500Y-55390000D03*
%TD*%
D14*
%TO.C,D27*%
X96550000Y-45807500D03*
X96550000Y-46952500D03*
%TD*%
D13*
%TO.C,T\u002AC23*%
X111822500Y-89890000D03*
X113897500Y-89890000D03*
%TD*%
D24*
%TO.C,U33*%
X119824998Y-95444366D03*
X120774998Y-95444366D03*
X121724998Y-95444366D03*
X121724998Y-93169366D03*
X119824998Y-93169366D03*
%TD*%
D12*
%TO.C,R2*%
X100838000Y-93456000D03*
X100838000Y-91456000D03*
%TD*%
D23*
%TO.C,C7*%
X103632000Y-61941580D03*
X103632000Y-58816580D03*
%TD*%
D11*
%TO.C,T\u002AC14*%
X117864998Y-91606866D03*
X117864998Y-89531866D03*
%TD*%
D30*
%TO.C,D1*%
X121158000Y-106716500D03*
X121158000Y-109691500D03*
%TD*%
D20*
%TO.C,T\u002AC21*%
X109770000Y-93582500D03*
X109770000Y-95657500D03*
%TD*%
D25*
%TO.C,R15*%
X87921000Y-66471000D03*
X85921000Y-66471000D03*
%TD*%
D10*
%TO.C,R12*%
X92118500Y-55372000D03*
X90118500Y-55372000D03*
%TD*%
D18*
%TO.C,D21*%
X122877500Y-49170000D03*
X124022500Y-49170000D03*
%TD*%
D23*
%TO.C,C10*%
X83312000Y-61506740D03*
X83312000Y-58381740D03*
%TD*%
M02*
