%TF.GenerationSoftware,KiCad,Pcbnew,(6.0.11)*%
%TF.CreationDate,2023-02-04T17:29:26-05:00*%
%TF.ProjectId,tlv320aic3105_audio_board,746c7633-3230-4616-9963-333130355f61,rev?*%
%TF.SameCoordinates,Original*%
%TF.FileFunction,Legend,Top*%
%TF.FilePolarity,Positive*%
%FSLAX46Y46*%
G04 Gerber Fmt 4.6, Leading zero omitted, Abs format (unit mm)*
G04 Created by KiCad (PCBNEW (6.0.11)) date 2023-02-04 17:29:26*
%MOMM*%
%LPD*%
G01*
G04 APERTURE LIST*
%ADD10C,0.300000*%
%ADD11C,0.250000*%
%ADD12C,0.150000*%
%ADD13C,0.254000*%
%ADD14C,0.180000*%
%ADD15C,0.050000*%
%ADD16C,0.120000*%
%ADD17C,0.100000*%
%ADD18C,0.200000*%
%ADD19C,2.500000*%
%ADD20C,1.635000*%
G04 APERTURE END LIST*
D10*
X123531226Y-107281523D02*
X123531226Y-106567238D01*
X124781226Y-106924380D02*
X123531226Y-106924380D01*
X124781226Y-105555333D02*
X124781226Y-106150571D01*
X123531226Y-106150571D01*
X123531226Y-105317238D02*
X124781226Y-104900571D01*
X123531226Y-104483904D01*
X123531226Y-104186285D02*
X123531226Y-103412476D01*
X124007416Y-103829142D01*
X124007416Y-103650571D01*
X124066940Y-103531523D01*
X124126464Y-103472000D01*
X124245511Y-103412476D01*
X124543130Y-103412476D01*
X124662178Y-103472000D01*
X124721702Y-103531523D01*
X124781226Y-103650571D01*
X124781226Y-104007714D01*
X124721702Y-104126761D01*
X124662178Y-104186285D01*
X123650273Y-102936285D02*
X123590750Y-102876761D01*
X123531226Y-102757714D01*
X123531226Y-102460095D01*
X123590750Y-102341047D01*
X123650273Y-102281523D01*
X123769321Y-102222000D01*
X123888369Y-102222000D01*
X124066940Y-102281523D01*
X124781226Y-102995809D01*
X124781226Y-102222000D01*
X123531226Y-101448190D02*
X123531226Y-101329142D01*
X123590750Y-101210095D01*
X123650273Y-101150571D01*
X123769321Y-101091047D01*
X124007416Y-101031523D01*
X124305035Y-101031523D01*
X124543130Y-101091047D01*
X124662178Y-101150571D01*
X124721702Y-101210095D01*
X124781226Y-101329142D01*
X124781226Y-101448190D01*
X124721702Y-101567238D01*
X124662178Y-101626761D01*
X124543130Y-101686285D01*
X124305035Y-101745809D01*
X124007416Y-101745809D01*
X123769321Y-101686285D01*
X123650273Y-101626761D01*
X123590750Y-101567238D01*
X123531226Y-101448190D01*
X124424083Y-100555333D02*
X124424083Y-99960095D01*
X124781226Y-100674380D02*
X123531226Y-100257714D01*
X124781226Y-99841047D01*
X124781226Y-99424380D02*
X123531226Y-99424380D01*
X124662178Y-98114857D02*
X124721702Y-98174380D01*
X124781226Y-98352952D01*
X124781226Y-98472000D01*
X124721702Y-98650571D01*
X124602654Y-98769619D01*
X124483607Y-98829142D01*
X124245511Y-98888666D01*
X124066940Y-98888666D01*
X123828845Y-98829142D01*
X123709797Y-98769619D01*
X123590750Y-98650571D01*
X123531226Y-98472000D01*
X123531226Y-98352952D01*
X123590750Y-98174380D01*
X123650273Y-98114857D01*
X123531226Y-97698190D02*
X123531226Y-96924380D01*
X124007416Y-97341047D01*
X124007416Y-97162476D01*
X124066940Y-97043428D01*
X124126464Y-96983904D01*
X124245511Y-96924380D01*
X124543130Y-96924380D01*
X124662178Y-96983904D01*
X124721702Y-97043428D01*
X124781226Y-97162476D01*
X124781226Y-97519619D01*
X124721702Y-97638666D01*
X124662178Y-97698190D01*
X124781226Y-95733904D02*
X124781226Y-96448190D01*
X124781226Y-96091047D02*
X123531226Y-96091047D01*
X123709797Y-96210095D01*
X123828845Y-96329142D01*
X123888369Y-96448190D01*
X123531226Y-94960095D02*
X123531226Y-94841047D01*
X123590750Y-94722000D01*
X123650273Y-94662476D01*
X123769321Y-94602952D01*
X124007416Y-94543428D01*
X124305035Y-94543428D01*
X124543130Y-94602952D01*
X124662178Y-94662476D01*
X124721702Y-94722000D01*
X124781226Y-94841047D01*
X124781226Y-94960095D01*
X124721702Y-95079142D01*
X124662178Y-95138666D01*
X124543130Y-95198190D01*
X124305035Y-95257714D01*
X124007416Y-95257714D01*
X123769321Y-95198190D01*
X123650273Y-95138666D01*
X123590750Y-95079142D01*
X123531226Y-94960095D01*
X123531226Y-93412476D02*
X123531226Y-94007714D01*
X124126464Y-94067238D01*
X124066940Y-94007714D01*
X124007416Y-93888666D01*
X124007416Y-93591047D01*
X124066940Y-93472000D01*
X124126464Y-93412476D01*
X124245511Y-93352952D01*
X124543130Y-93352952D01*
X124662178Y-93412476D01*
X124721702Y-93472000D01*
X124781226Y-93591047D01*
X124781226Y-93888666D01*
X124721702Y-94007714D01*
X124662178Y-94067238D01*
X124424083Y-91924380D02*
X124424083Y-91329142D01*
X124781226Y-92043428D02*
X123531226Y-91626761D01*
X124781226Y-91210095D01*
X123531226Y-90793428D02*
X124543130Y-90793428D01*
X124662178Y-90733904D01*
X124721702Y-90674380D01*
X124781226Y-90555333D01*
X124781226Y-90317238D01*
X124721702Y-90198190D01*
X124662178Y-90138666D01*
X124543130Y-90079142D01*
X123531226Y-90079142D01*
X124781226Y-89483904D02*
X123531226Y-89483904D01*
X123531226Y-89186285D01*
X123590750Y-89007714D01*
X123709797Y-88888666D01*
X123828845Y-88829142D01*
X124066940Y-88769619D01*
X124245511Y-88769619D01*
X124483607Y-88829142D01*
X124602654Y-88888666D01*
X124721702Y-89007714D01*
X124781226Y-89186285D01*
X124781226Y-89483904D01*
X124781226Y-88233904D02*
X123531226Y-88233904D01*
X123531226Y-87400571D02*
X123531226Y-87162476D01*
X123590750Y-87043428D01*
X123709797Y-86924380D01*
X123947892Y-86864857D01*
X124364559Y-86864857D01*
X124602654Y-86924380D01*
X124721702Y-87043428D01*
X124781226Y-87162476D01*
X124781226Y-87400571D01*
X124721702Y-87519619D01*
X124602654Y-87638666D01*
X124364559Y-87698190D01*
X123947892Y-87698190D01*
X123709797Y-87638666D01*
X123590750Y-87519619D01*
X123531226Y-87400571D01*
X124126464Y-84960095D02*
X124185988Y-84781523D01*
X124245511Y-84722000D01*
X124364559Y-84662476D01*
X124543130Y-84662476D01*
X124662178Y-84722000D01*
X124721702Y-84781523D01*
X124781226Y-84900571D01*
X124781226Y-85376761D01*
X123531226Y-85376761D01*
X123531226Y-84960095D01*
X123590750Y-84841047D01*
X123650273Y-84781523D01*
X123769321Y-84722000D01*
X123888369Y-84722000D01*
X124007416Y-84781523D01*
X124066940Y-84841047D01*
X124126464Y-84960095D01*
X124126464Y-85376761D01*
X123531226Y-83888666D02*
X123531226Y-83650571D01*
X123590750Y-83531523D01*
X123709797Y-83412476D01*
X123947892Y-83352952D01*
X124364559Y-83352952D01*
X124602654Y-83412476D01*
X124721702Y-83531523D01*
X124781226Y-83650571D01*
X124781226Y-83888666D01*
X124721702Y-84007714D01*
X124602654Y-84126761D01*
X124364559Y-84186285D01*
X123947892Y-84186285D01*
X123709797Y-84126761D01*
X123590750Y-84007714D01*
X123531226Y-83888666D01*
X124424083Y-82876761D02*
X124424083Y-82281523D01*
X124781226Y-82995809D02*
X123531226Y-82579142D01*
X124781226Y-82162476D01*
X124781226Y-81031523D02*
X124185988Y-81448190D01*
X124781226Y-81745809D02*
X123531226Y-81745809D01*
X123531226Y-81269619D01*
X123590750Y-81150571D01*
X123650273Y-81091047D01*
X123769321Y-81031523D01*
X123947892Y-81031523D01*
X124066940Y-81091047D01*
X124126464Y-81150571D01*
X124185988Y-81269619D01*
X124185988Y-81745809D01*
X124781226Y-80495809D02*
X123531226Y-80495809D01*
X123531226Y-80198190D01*
X123590750Y-80019619D01*
X123709797Y-79900571D01*
X123828845Y-79841047D01*
X124066940Y-79781523D01*
X124245511Y-79781523D01*
X124483607Y-79841047D01*
X124602654Y-79900571D01*
X124721702Y-80019619D01*
X124781226Y-80198190D01*
X124781226Y-80495809D01*
X125841345Y-104126761D02*
X125781821Y-104245809D01*
X125781821Y-104483904D01*
X125841345Y-104602952D01*
X125960392Y-104722000D01*
X126079440Y-104781523D01*
X126317535Y-104781523D01*
X126436583Y-104722000D01*
X126555630Y-104602952D01*
X126615154Y-104483904D01*
X126615154Y-104245809D01*
X126555630Y-104126761D01*
X125365154Y-104364857D02*
X125424678Y-104662476D01*
X125603250Y-104960095D01*
X125900869Y-105138666D01*
X126198488Y-105198190D01*
X126496107Y-105138666D01*
X126793726Y-104960095D01*
X126972297Y-104662476D01*
X127031821Y-104364857D01*
X126972297Y-104067238D01*
X126793726Y-103769619D01*
X126496107Y-103591047D01*
X126198488Y-103531523D01*
X125900869Y-103591047D01*
X125603250Y-103769619D01*
X125424678Y-104067238D01*
X125365154Y-104364857D01*
X125662773Y-102102952D02*
X125603250Y-102043428D01*
X125543726Y-101924380D01*
X125543726Y-101626761D01*
X125603250Y-101507714D01*
X125662773Y-101448190D01*
X125781821Y-101388666D01*
X125900869Y-101388666D01*
X126079440Y-101448190D01*
X126793726Y-102162476D01*
X126793726Y-101388666D01*
X125543726Y-100614857D02*
X125543726Y-100495809D01*
X125603250Y-100376761D01*
X125662773Y-100317238D01*
X125781821Y-100257714D01*
X126019916Y-100198190D01*
X126317535Y-100198190D01*
X126555630Y-100257714D01*
X126674678Y-100317238D01*
X126734202Y-100376761D01*
X126793726Y-100495809D01*
X126793726Y-100614857D01*
X126734202Y-100733904D01*
X126674678Y-100793428D01*
X126555630Y-100852952D01*
X126317535Y-100912476D01*
X126019916Y-100912476D01*
X125781821Y-100852952D01*
X125662773Y-100793428D01*
X125603250Y-100733904D01*
X125543726Y-100614857D01*
X125662773Y-99722000D02*
X125603250Y-99662476D01*
X125543726Y-99543428D01*
X125543726Y-99245809D01*
X125603250Y-99126761D01*
X125662773Y-99067238D01*
X125781821Y-99007714D01*
X125900869Y-99007714D01*
X126079440Y-99067238D01*
X126793726Y-99781523D01*
X126793726Y-99007714D01*
X125543726Y-98591047D02*
X125543726Y-97817238D01*
X126019916Y-98233904D01*
X126019916Y-98055333D01*
X126079440Y-97936285D01*
X126138964Y-97876761D01*
X126258011Y-97817238D01*
X126555630Y-97817238D01*
X126674678Y-97876761D01*
X126734202Y-97936285D01*
X126793726Y-98055333D01*
X126793726Y-98412476D01*
X126734202Y-98531523D01*
X126674678Y-98591047D01*
X125543726Y-95972000D02*
X126436583Y-95972000D01*
X126615154Y-96031523D01*
X126734202Y-96150571D01*
X126793726Y-96329142D01*
X126793726Y-96448190D01*
X126436583Y-95436285D02*
X126436583Y-94841047D01*
X126793726Y-95555333D02*
X125543726Y-95138666D01*
X126793726Y-94722000D01*
X126198488Y-94067238D02*
X126793726Y-94067238D01*
X125543726Y-94483904D02*
X126198488Y-94067238D01*
X125543726Y-93650571D01*
X126734202Y-92341047D02*
X126793726Y-92162476D01*
X126793726Y-91864857D01*
X126734202Y-91745809D01*
X126674678Y-91686285D01*
X126555630Y-91626761D01*
X126436583Y-91626761D01*
X126317535Y-91686285D01*
X126258011Y-91745809D01*
X126198488Y-91864857D01*
X126138964Y-92102952D01*
X126079440Y-92222000D01*
X126019916Y-92281523D01*
X125900869Y-92341047D01*
X125781821Y-92341047D01*
X125662773Y-92281523D01*
X125603250Y-92222000D01*
X125543726Y-92102952D01*
X125543726Y-91805333D01*
X125603250Y-91626761D01*
X126793726Y-91091047D02*
X125543726Y-91091047D01*
X126138964Y-91091047D02*
X126138964Y-90376761D01*
X126793726Y-90376761D02*
X125543726Y-90376761D01*
X125543726Y-89543428D02*
X125543726Y-89305333D01*
X125603250Y-89186285D01*
X125722297Y-89067238D01*
X125960392Y-89007714D01*
X126377059Y-89007714D01*
X126615154Y-89067238D01*
X126734202Y-89186285D01*
X126793726Y-89305333D01*
X126793726Y-89543428D01*
X126734202Y-89662476D01*
X126615154Y-89781523D01*
X126377059Y-89841047D01*
X125960392Y-89841047D01*
X125722297Y-89781523D01*
X125603250Y-89662476D01*
X125543726Y-89543428D01*
X126138964Y-88472000D02*
X126138964Y-88055333D01*
X126793726Y-87876761D02*
X126793726Y-88472000D01*
X125543726Y-88472000D01*
X125543726Y-87876761D01*
X126793726Y-87341047D02*
X125543726Y-87341047D01*
X126436583Y-86924380D01*
X125543726Y-86507714D01*
X126793726Y-86507714D01*
X126436583Y-85972000D02*
X126436583Y-85376761D01*
X126793726Y-86091047D02*
X125543726Y-85674380D01*
X126793726Y-85257714D01*
X126793726Y-84841047D02*
X125543726Y-84841047D01*
X126793726Y-84126761D02*
X126079440Y-84662476D01*
X125543726Y-84126761D02*
X126258011Y-84841047D01*
X126138964Y-83591047D02*
X126138964Y-83174380D01*
X126793726Y-82995809D02*
X126793726Y-83591047D01*
X125543726Y-83591047D01*
X125543726Y-82995809D01*
X126793726Y-81745809D02*
X126198488Y-82162476D01*
X126793726Y-82460095D02*
X125543726Y-82460095D01*
X125543726Y-81983904D01*
X125603250Y-81864857D01*
X125662773Y-81805333D01*
X125781821Y-81745809D01*
X125960392Y-81745809D01*
X126079440Y-81805333D01*
X126138964Y-81864857D01*
X126198488Y-81983904D01*
X126198488Y-82460095D01*
D11*
X111440476Y-35492380D02*
X111440476Y-34492380D01*
X111440476Y-34968571D02*
X112011904Y-34968571D01*
X112011904Y-35492380D02*
X112011904Y-34492380D01*
X112488095Y-35492380D02*
X112488095Y-34492380D01*
X112869047Y-34492380D01*
X112964285Y-34540000D01*
X113011904Y-34587619D01*
X113059523Y-34682857D01*
X113059523Y-34825714D01*
X113011904Y-34920952D01*
X112964285Y-34968571D01*
X112869047Y-35016190D01*
X112488095Y-35016190D01*
X114535714Y-35873333D02*
X114488095Y-35825714D01*
X114392857Y-35682857D01*
X114345238Y-35587619D01*
X114297619Y-35444761D01*
X114250000Y-35206666D01*
X114250000Y-35016190D01*
X114297619Y-34778095D01*
X114345238Y-34635238D01*
X114392857Y-34540000D01*
X114488095Y-34397142D01*
X114535714Y-34349523D01*
X114773809Y-34492380D02*
X115345238Y-34492380D01*
X115059523Y-35492380D02*
X115059523Y-34492380D01*
X115869047Y-34492380D02*
X116059523Y-34492380D01*
X116154761Y-34540000D01*
X116250000Y-34635238D01*
X116297619Y-34825714D01*
X116297619Y-35159047D01*
X116250000Y-35349523D01*
X116154761Y-35444761D01*
X116059523Y-35492380D01*
X115869047Y-35492380D01*
X115773809Y-35444761D01*
X115678571Y-35349523D01*
X115630952Y-35159047D01*
X115630952Y-34825714D01*
X115678571Y-34635238D01*
X115773809Y-34540000D01*
X115869047Y-34492380D01*
X116726190Y-35492380D02*
X116726190Y-34492380D01*
X117107142Y-34492380D01*
X117202380Y-34540000D01*
X117250000Y-34587619D01*
X117297619Y-34682857D01*
X117297619Y-34825714D01*
X117250000Y-34920952D01*
X117202380Y-34968571D01*
X117107142Y-35016190D01*
X116726190Y-35016190D01*
X117630952Y-35873333D02*
X117678571Y-35825714D01*
X117773809Y-35682857D01*
X117821428Y-35587619D01*
X117869047Y-35444761D01*
X117916666Y-35206666D01*
X117916666Y-35016190D01*
X117869047Y-34778095D01*
X117821428Y-34635238D01*
X117773809Y-34540000D01*
X117678571Y-34397142D01*
X117630952Y-34349523D01*
X119154761Y-35492380D02*
X119154761Y-34492380D01*
X119630952Y-35492380D02*
X119630952Y-34492380D01*
X120202380Y-35492380D01*
X120202380Y-34492380D01*
X120630952Y-34587619D02*
X120678571Y-34540000D01*
X120773809Y-34492380D01*
X121011904Y-34492380D01*
X121107142Y-34540000D01*
X121154761Y-34587619D01*
X121202380Y-34682857D01*
X121202380Y-34778095D01*
X121154761Y-34920952D01*
X120583333Y-35492380D01*
X121202380Y-35492380D01*
X122678571Y-35873333D02*
X122630952Y-35825714D01*
X122535714Y-35682857D01*
X122488095Y-35587619D01*
X122440476Y-35444761D01*
X122392857Y-35206666D01*
X122392857Y-35016190D01*
X122440476Y-34778095D01*
X122488095Y-34635238D01*
X122535714Y-34540000D01*
X122630952Y-34397142D01*
X122678571Y-34349523D01*
X123392857Y-34968571D02*
X123535714Y-35016190D01*
X123583333Y-35063809D01*
X123630952Y-35159047D01*
X123630952Y-35301904D01*
X123583333Y-35397142D01*
X123535714Y-35444761D01*
X123440476Y-35492380D01*
X123059523Y-35492380D01*
X123059523Y-34492380D01*
X123392857Y-34492380D01*
X123488095Y-34540000D01*
X123535714Y-34587619D01*
X123583333Y-34682857D01*
X123583333Y-34778095D01*
X123535714Y-34873333D01*
X123488095Y-34920952D01*
X123392857Y-34968571D01*
X123059523Y-34968571D01*
X124250000Y-34492380D02*
X124440476Y-34492380D01*
X124535714Y-34540000D01*
X124630952Y-34635238D01*
X124678571Y-34825714D01*
X124678571Y-35159047D01*
X124630952Y-35349523D01*
X124535714Y-35444761D01*
X124440476Y-35492380D01*
X124250000Y-35492380D01*
X124154761Y-35444761D01*
X124059523Y-35349523D01*
X124011904Y-35159047D01*
X124011904Y-34825714D01*
X124059523Y-34635238D01*
X124154761Y-34540000D01*
X124250000Y-34492380D01*
X124964285Y-34492380D02*
X125535714Y-34492380D01*
X125250000Y-35492380D02*
X125250000Y-34492380D01*
X125773809Y-35873333D02*
X125821428Y-35825714D01*
X125916666Y-35682857D01*
X125964285Y-35587619D01*
X126011904Y-35444761D01*
X126059523Y-35206666D01*
X126059523Y-35016190D01*
X126011904Y-34778095D01*
X125964285Y-34635238D01*
X125916666Y-34540000D01*
X125821428Y-34397142D01*
X125773809Y-34349523D01*
X100650000Y-35632380D02*
X100650000Y-34632380D01*
X101126190Y-35632380D02*
X101126190Y-34632380D01*
X101697619Y-35632380D01*
X101697619Y-34632380D01*
X102697619Y-35632380D02*
X102126190Y-35632380D01*
X102411904Y-35632380D02*
X102411904Y-34632380D01*
X102316666Y-34775238D01*
X102221428Y-34870476D01*
X102126190Y-34918095D01*
X84788571Y-35702380D02*
X84788571Y-34702380D01*
X84788571Y-35178571D02*
X85360000Y-35178571D01*
X85360000Y-35702380D02*
X85360000Y-34702380D01*
X85836190Y-35702380D02*
X85836190Y-34702380D01*
X86217142Y-34702380D01*
X86312380Y-34750000D01*
X86360000Y-34797619D01*
X86407619Y-34892857D01*
X86407619Y-35035714D01*
X86360000Y-35130952D01*
X86312380Y-35178571D01*
X86217142Y-35226190D01*
X85836190Y-35226190D01*
X86788571Y-34797619D02*
X86836190Y-34750000D01*
X86931428Y-34702380D01*
X87169523Y-34702380D01*
X87264761Y-34750000D01*
X87312380Y-34797619D01*
X87360000Y-34892857D01*
X87360000Y-34988095D01*
X87312380Y-35130952D01*
X86740952Y-35702380D01*
X87360000Y-35702380D01*
X88740952Y-34702380D02*
X88931428Y-34702380D01*
X89026666Y-34750000D01*
X89121904Y-34845238D01*
X89169523Y-35035714D01*
X89169523Y-35369047D01*
X89121904Y-35559523D01*
X89026666Y-35654761D01*
X88931428Y-35702380D01*
X88740952Y-35702380D01*
X88645714Y-35654761D01*
X88550476Y-35559523D01*
X88502857Y-35369047D01*
X88502857Y-35035714D01*
X88550476Y-34845238D01*
X88645714Y-34750000D01*
X88740952Y-34702380D01*
X89598095Y-34702380D02*
X89598095Y-35511904D01*
X89645714Y-35607142D01*
X89693333Y-35654761D01*
X89788571Y-35702380D01*
X89979047Y-35702380D01*
X90074285Y-35654761D01*
X90121904Y-35607142D01*
X90169523Y-35511904D01*
X90169523Y-34702380D01*
X90502857Y-34702380D02*
X91074285Y-34702380D01*
X90788571Y-35702380D02*
X90788571Y-34702380D01*
D12*
%TO.C,R13*%
X86715214Y-54508904D02*
X86448547Y-54127952D01*
X86258071Y-54508904D02*
X86258071Y-53708904D01*
X86562833Y-53708904D01*
X86639023Y-53747000D01*
X86677119Y-53785095D01*
X86715214Y-53861285D01*
X86715214Y-53975571D01*
X86677119Y-54051761D01*
X86639023Y-54089857D01*
X86562833Y-54127952D01*
X86258071Y-54127952D01*
X87477119Y-54508904D02*
X87019976Y-54508904D01*
X87248547Y-54508904D02*
X87248547Y-53708904D01*
X87172357Y-53823190D01*
X87096166Y-53899380D01*
X87019976Y-53937476D01*
X87743785Y-53708904D02*
X88239023Y-53708904D01*
X87972357Y-54013666D01*
X88086642Y-54013666D01*
X88162833Y-54051761D01*
X88200928Y-54089857D01*
X88239023Y-54166047D01*
X88239023Y-54356523D01*
X88200928Y-54432714D01*
X88162833Y-54470809D01*
X88086642Y-54508904D01*
X87858071Y-54508904D01*
X87781880Y-54470809D01*
X87743785Y-54432714D01*
%TO.C,T\u002AC7*%
X103213904Y-67508285D02*
X103213904Y-67051142D01*
X104013904Y-67279714D02*
X103213904Y-67279714D01*
X103213904Y-66670190D02*
X103404380Y-66670190D01*
X103328190Y-66860666D02*
X103404380Y-66670190D01*
X103328190Y-66479714D01*
X103556761Y-66784476D02*
X103404380Y-66670190D01*
X103556761Y-66555904D01*
X103937714Y-65717809D02*
X103975809Y-65755904D01*
X104013904Y-65870190D01*
X104013904Y-65946380D01*
X103975809Y-66060666D01*
X103899619Y-66136857D01*
X103823428Y-66174952D01*
X103671047Y-66213047D01*
X103556761Y-66213047D01*
X103404380Y-66174952D01*
X103328190Y-66136857D01*
X103252000Y-66060666D01*
X103213904Y-65946380D01*
X103213904Y-65870190D01*
X103252000Y-65755904D01*
X103290095Y-65717809D01*
X103213904Y-65451142D02*
X103213904Y-64917809D01*
X104013904Y-65260666D01*
%TO.C,R3*%
X81178904Y-84286333D02*
X80797952Y-84553000D01*
X81178904Y-84743476D02*
X80378904Y-84743476D01*
X80378904Y-84438714D01*
X80417000Y-84362523D01*
X80455095Y-84324428D01*
X80531285Y-84286333D01*
X80645571Y-84286333D01*
X80721761Y-84324428D01*
X80759857Y-84362523D01*
X80797952Y-84438714D01*
X80797952Y-84743476D01*
X80378904Y-84019666D02*
X80378904Y-83524428D01*
X80683666Y-83791095D01*
X80683666Y-83676809D01*
X80721761Y-83600619D01*
X80759857Y-83562523D01*
X80836047Y-83524428D01*
X81026523Y-83524428D01*
X81102714Y-83562523D01*
X81140809Y-83600619D01*
X81178904Y-83676809D01*
X81178904Y-83905380D01*
X81140809Y-83981571D01*
X81102714Y-84019666D01*
%TO.C,C21*%
X122703214Y-54425714D02*
X122665119Y-54463809D01*
X122550833Y-54501904D01*
X122474642Y-54501904D01*
X122360357Y-54463809D01*
X122284166Y-54387619D01*
X122246071Y-54311428D01*
X122207976Y-54159047D01*
X122207976Y-54044761D01*
X122246071Y-53892380D01*
X122284166Y-53816190D01*
X122360357Y-53740000D01*
X122474642Y-53701904D01*
X122550833Y-53701904D01*
X122665119Y-53740000D01*
X122703214Y-53778095D01*
X123007976Y-53778095D02*
X123046071Y-53740000D01*
X123122261Y-53701904D01*
X123312738Y-53701904D01*
X123388928Y-53740000D01*
X123427023Y-53778095D01*
X123465119Y-53854285D01*
X123465119Y-53930476D01*
X123427023Y-54044761D01*
X122969880Y-54501904D01*
X123465119Y-54501904D01*
X124227023Y-54501904D02*
X123769880Y-54501904D01*
X123998452Y-54501904D02*
X123998452Y-53701904D01*
X123922261Y-53816190D01*
X123846071Y-53892380D01*
X123769880Y-53930476D01*
%TO.C,XIA2*%
X83998380Y-106358190D02*
X84998380Y-105691523D01*
X83998380Y-105691523D02*
X84998380Y-106358190D01*
X84998380Y-105310571D02*
X83998380Y-105310571D01*
X84712666Y-104882000D02*
X84712666Y-104405809D01*
X84998380Y-104977238D02*
X83998380Y-104643904D01*
X84998380Y-104310571D01*
X84093619Y-104024857D02*
X84046000Y-103977238D01*
X83998380Y-103882000D01*
X83998380Y-103643904D01*
X84046000Y-103548666D01*
X84093619Y-103501047D01*
X84188857Y-103453428D01*
X84284095Y-103453428D01*
X84426952Y-103501047D01*
X84998380Y-104072476D01*
X84998380Y-103453428D01*
X106883380Y-99523666D02*
X106407190Y-99857000D01*
X106883380Y-100095095D02*
X105883380Y-100095095D01*
X105883380Y-99714142D01*
X105931000Y-99618904D01*
X105978619Y-99571285D01*
X106073857Y-99523666D01*
X106216714Y-99523666D01*
X106311952Y-99571285D01*
X106359571Y-99618904D01*
X106407190Y-99714142D01*
X106407190Y-100095095D01*
X105883380Y-99190333D02*
X106883380Y-98523666D01*
X105883380Y-98523666D02*
X106883380Y-99190333D01*
X101279571Y-99690571D02*
X101327190Y-99547714D01*
X101374809Y-99500095D01*
X101470047Y-99452476D01*
X101612904Y-99452476D01*
X101708142Y-99500095D01*
X101755761Y-99547714D01*
X101803380Y-99642952D01*
X101803380Y-100023904D01*
X100803380Y-100023904D01*
X100803380Y-99690571D01*
X100851000Y-99595333D01*
X100898619Y-99547714D01*
X100993857Y-99500095D01*
X101089095Y-99500095D01*
X101184333Y-99547714D01*
X101231952Y-99595333D01*
X101279571Y-99690571D01*
X101279571Y-100023904D01*
X101708142Y-98452476D02*
X101755761Y-98500095D01*
X101803380Y-98642952D01*
X101803380Y-98738190D01*
X101755761Y-98881047D01*
X101660523Y-98976285D01*
X101565285Y-99023904D01*
X101374809Y-99071523D01*
X101231952Y-99071523D01*
X101041476Y-99023904D01*
X100946238Y-98976285D01*
X100851000Y-98881047D01*
X100803380Y-98738190D01*
X100803380Y-98642952D01*
X100851000Y-98500095D01*
X100898619Y-98452476D01*
X114428380Y-99062476D02*
X113952190Y-99395809D01*
X114428380Y-99633904D02*
X113428380Y-99633904D01*
X113428380Y-99252952D01*
X113476000Y-99157714D01*
X113523619Y-99110095D01*
X113618857Y-99062476D01*
X113761714Y-99062476D01*
X113856952Y-99110095D01*
X113904571Y-99157714D01*
X113952190Y-99252952D01*
X113952190Y-99633904D01*
X109423380Y-99547476D02*
X109423380Y-100118904D01*
X109423380Y-99833190D02*
X108423380Y-99833190D01*
X108566238Y-99928428D01*
X108661476Y-100023666D01*
X108709095Y-100118904D01*
X108518619Y-99166523D02*
X108471000Y-99118904D01*
X108423380Y-99023666D01*
X108423380Y-98785571D01*
X108471000Y-98690333D01*
X108518619Y-98642714D01*
X108613857Y-98595095D01*
X108709095Y-98595095D01*
X108851952Y-98642714D01*
X109423380Y-99214142D01*
X109423380Y-98595095D01*
X94135761Y-100142714D02*
X94183380Y-99999857D01*
X94183380Y-99761761D01*
X94135761Y-99666523D01*
X94088142Y-99618904D01*
X93992904Y-99571285D01*
X93897666Y-99571285D01*
X93802428Y-99618904D01*
X93754809Y-99666523D01*
X93707190Y-99761761D01*
X93659571Y-99952238D01*
X93611952Y-100047476D01*
X93564333Y-100095095D01*
X93469095Y-100142714D01*
X93373857Y-100142714D01*
X93278619Y-100095095D01*
X93231000Y-100047476D01*
X93183380Y-99952238D01*
X93183380Y-99714142D01*
X93231000Y-99571285D01*
X94088142Y-98571285D02*
X94135761Y-98618904D01*
X94183380Y-98761761D01*
X94183380Y-98857000D01*
X94135761Y-98999857D01*
X94040523Y-99095095D01*
X93945285Y-99142714D01*
X93754809Y-99190333D01*
X93611952Y-99190333D01*
X93421476Y-99142714D01*
X93326238Y-99095095D01*
X93231000Y-98999857D01*
X93183380Y-98857000D01*
X93183380Y-98761761D01*
X93231000Y-98618904D01*
X93278619Y-98571285D01*
X110963380Y-99118904D02*
X110963380Y-99595095D01*
X111439571Y-99642714D01*
X111391952Y-99595095D01*
X111344333Y-99499857D01*
X111344333Y-99261761D01*
X111391952Y-99166523D01*
X111439571Y-99118904D01*
X111534809Y-99071285D01*
X111772904Y-99071285D01*
X111868142Y-99118904D01*
X111915761Y-99166523D01*
X111963380Y-99261761D01*
X111963380Y-99499857D01*
X111915761Y-99595095D01*
X111868142Y-99642714D01*
X96675761Y-100142714D02*
X96723380Y-99999857D01*
X96723380Y-99761761D01*
X96675761Y-99666523D01*
X96628142Y-99618904D01*
X96532904Y-99571285D01*
X96437666Y-99571285D01*
X96342428Y-99618904D01*
X96294809Y-99666523D01*
X96247190Y-99761761D01*
X96199571Y-99952238D01*
X96151952Y-100047476D01*
X96104333Y-100095095D01*
X96009095Y-100142714D01*
X95913857Y-100142714D01*
X95818619Y-100095095D01*
X95771000Y-100047476D01*
X95723380Y-99952238D01*
X95723380Y-99714142D01*
X95771000Y-99571285D01*
X96723380Y-99142714D02*
X95723380Y-99142714D01*
X95723380Y-98904619D01*
X95771000Y-98761761D01*
X95866238Y-98666523D01*
X95961476Y-98618904D01*
X96151952Y-98571285D01*
X96294809Y-98571285D01*
X96485285Y-98618904D01*
X96580523Y-98666523D01*
X96675761Y-98761761D01*
X96723380Y-98904619D01*
X96723380Y-99142714D01*
X91643380Y-100190333D02*
X90643380Y-100190333D01*
X91357666Y-99857000D01*
X90643380Y-99523666D01*
X91643380Y-99523666D01*
X91643380Y-99047476D02*
X90643380Y-99047476D01*
X91643380Y-98476047D02*
X91071952Y-98904619D01*
X90643380Y-98476047D02*
X91214809Y-99047476D01*
X99263380Y-99452476D02*
X99263380Y-99928666D01*
X98263380Y-99928666D01*
X99263380Y-98547714D02*
X98787190Y-98881047D01*
X99263380Y-99119142D02*
X98263380Y-99119142D01*
X98263380Y-98738190D01*
X98311000Y-98642952D01*
X98358619Y-98595333D01*
X98453857Y-98547714D01*
X98596714Y-98547714D01*
X98691952Y-98595333D01*
X98739571Y-98642952D01*
X98787190Y-98738190D01*
X98787190Y-99119142D01*
X103343380Y-100118904D02*
X103343380Y-99547476D01*
X104343380Y-99833190D02*
X103343380Y-99833190D01*
X103343380Y-99309380D02*
X104343380Y-98642714D01*
X103343380Y-98642714D02*
X104343380Y-99309380D01*
%TO.C,D34*%
X83116904Y-47401428D02*
X82316904Y-47401428D01*
X82316904Y-47210952D01*
X82355000Y-47096666D01*
X82431190Y-47020476D01*
X82507380Y-46982380D01*
X82659761Y-46944285D01*
X82774047Y-46944285D01*
X82926428Y-46982380D01*
X83002619Y-47020476D01*
X83078809Y-47096666D01*
X83116904Y-47210952D01*
X83116904Y-47401428D01*
X82316904Y-46677619D02*
X82316904Y-46182380D01*
X82621666Y-46449047D01*
X82621666Y-46334761D01*
X82659761Y-46258571D01*
X82697857Y-46220476D01*
X82774047Y-46182380D01*
X82964523Y-46182380D01*
X83040714Y-46220476D01*
X83078809Y-46258571D01*
X83116904Y-46334761D01*
X83116904Y-46563333D01*
X83078809Y-46639523D01*
X83040714Y-46677619D01*
X82583571Y-45496666D02*
X83116904Y-45496666D01*
X82278809Y-45687142D02*
X82850238Y-45877619D01*
X82850238Y-45382380D01*
%TO.C,U1*%
X97924380Y-77973904D02*
X98733904Y-77973904D01*
X98829142Y-77926285D01*
X98876761Y-77878666D01*
X98924380Y-77783428D01*
X98924380Y-77592952D01*
X98876761Y-77497714D01*
X98829142Y-77450095D01*
X98733904Y-77402476D01*
X97924380Y-77402476D01*
X98924380Y-76402476D02*
X98924380Y-76973904D01*
X98924380Y-76688190D02*
X97924380Y-76688190D01*
X98067238Y-76783428D01*
X98162476Y-76878666D01*
X98210095Y-76973904D01*
%TO.C,D29*%
X93524044Y-47401428D02*
X92724044Y-47401428D01*
X92724044Y-47210952D01*
X92762140Y-47096666D01*
X92838330Y-47020476D01*
X92914520Y-46982380D01*
X93066901Y-46944285D01*
X93181187Y-46944285D01*
X93333568Y-46982380D01*
X93409759Y-47020476D01*
X93485949Y-47096666D01*
X93524044Y-47210952D01*
X93524044Y-47401428D01*
X92800235Y-46639523D02*
X92762140Y-46601428D01*
X92724044Y-46525238D01*
X92724044Y-46334761D01*
X92762140Y-46258571D01*
X92800235Y-46220476D01*
X92876425Y-46182380D01*
X92952616Y-46182380D01*
X93066901Y-46220476D01*
X93524044Y-46677619D01*
X93524044Y-46182380D01*
X93524044Y-45801428D02*
X93524044Y-45649047D01*
X93485949Y-45572857D01*
X93447854Y-45534761D01*
X93333568Y-45458571D01*
X93181187Y-45420476D01*
X92876425Y-45420476D01*
X92800235Y-45458571D01*
X92762140Y-45496666D01*
X92724044Y-45572857D01*
X92724044Y-45725238D01*
X92762140Y-45801428D01*
X92800235Y-45839523D01*
X92876425Y-45877619D01*
X93066901Y-45877619D01*
X93143092Y-45839523D01*
X93181187Y-45801428D01*
X93219282Y-45725238D01*
X93219282Y-45572857D01*
X93181187Y-45496666D01*
X93143092Y-45458571D01*
X93066901Y-45420476D01*
%TO.C,D24*%
X108805235Y-48806904D02*
X108805235Y-48006904D01*
X108995711Y-48006904D01*
X109109997Y-48045000D01*
X109186187Y-48121190D01*
X109224283Y-48197380D01*
X109262378Y-48349761D01*
X109262378Y-48464047D01*
X109224283Y-48616428D01*
X109186187Y-48692619D01*
X109109997Y-48768809D01*
X108995711Y-48806904D01*
X108805235Y-48806904D01*
X109567140Y-48083095D02*
X109605235Y-48045000D01*
X109681425Y-48006904D01*
X109871902Y-48006904D01*
X109948092Y-48045000D01*
X109986187Y-48083095D01*
X110024283Y-48159285D01*
X110024283Y-48235476D01*
X109986187Y-48349761D01*
X109529044Y-48806904D01*
X110024283Y-48806904D01*
X110709997Y-48273571D02*
X110709997Y-48806904D01*
X110519521Y-47968809D02*
X110329044Y-48540238D01*
X110824283Y-48540238D01*
%TO.C,T\u002AC8*%
X102932904Y-71487785D02*
X102932904Y-71030642D01*
X103732904Y-71259214D02*
X102932904Y-71259214D01*
X102932904Y-70649690D02*
X103123380Y-70649690D01*
X103047190Y-70840166D02*
X103123380Y-70649690D01*
X103047190Y-70459214D01*
X103275761Y-70763976D02*
X103123380Y-70649690D01*
X103275761Y-70535404D01*
X103656714Y-69697309D02*
X103694809Y-69735404D01*
X103732904Y-69849690D01*
X103732904Y-69925880D01*
X103694809Y-70040166D01*
X103618619Y-70116357D01*
X103542428Y-70154452D01*
X103390047Y-70192547D01*
X103275761Y-70192547D01*
X103123380Y-70154452D01*
X103047190Y-70116357D01*
X102971000Y-70040166D01*
X102932904Y-69925880D01*
X102932904Y-69849690D01*
X102971000Y-69735404D01*
X103009095Y-69697309D01*
X103275761Y-69240166D02*
X103237666Y-69316357D01*
X103199571Y-69354452D01*
X103123380Y-69392547D01*
X103085285Y-69392547D01*
X103009095Y-69354452D01*
X102971000Y-69316357D01*
X102932904Y-69240166D01*
X102932904Y-69087785D01*
X102971000Y-69011595D01*
X103009095Y-68973500D01*
X103085285Y-68935404D01*
X103123380Y-68935404D01*
X103199571Y-68973500D01*
X103237666Y-69011595D01*
X103275761Y-69087785D01*
X103275761Y-69240166D01*
X103313857Y-69316357D01*
X103351952Y-69354452D01*
X103428142Y-69392547D01*
X103580523Y-69392547D01*
X103656714Y-69354452D01*
X103694809Y-69316357D01*
X103732904Y-69240166D01*
X103732904Y-69087785D01*
X103694809Y-69011595D01*
X103656714Y-68973500D01*
X103580523Y-68935404D01*
X103428142Y-68935404D01*
X103351952Y-68973500D01*
X103313857Y-69011595D01*
X103275761Y-69087785D01*
%TO.C,D22*%
X117954123Y-48806904D02*
X117954123Y-48006904D01*
X118144599Y-48006904D01*
X118258885Y-48045000D01*
X118335075Y-48121190D01*
X118373171Y-48197380D01*
X118411266Y-48349761D01*
X118411266Y-48464047D01*
X118373171Y-48616428D01*
X118335075Y-48692619D01*
X118258885Y-48768809D01*
X118144599Y-48806904D01*
X117954123Y-48806904D01*
X118716028Y-48083095D02*
X118754123Y-48045000D01*
X118830313Y-48006904D01*
X119020790Y-48006904D01*
X119096980Y-48045000D01*
X119135075Y-48083095D01*
X119173171Y-48159285D01*
X119173171Y-48235476D01*
X119135075Y-48349761D01*
X118677932Y-48806904D01*
X119173171Y-48806904D01*
X119477932Y-48083095D02*
X119516028Y-48045000D01*
X119592218Y-48006904D01*
X119782694Y-48006904D01*
X119858885Y-48045000D01*
X119896980Y-48083095D01*
X119935075Y-48159285D01*
X119935075Y-48235476D01*
X119896980Y-48349761D01*
X119439837Y-48806904D01*
X119935075Y-48806904D01*
%TO.C,T\u002AC3*%
X102725714Y-88949904D02*
X103182857Y-88949904D01*
X102954285Y-89749904D02*
X102954285Y-88949904D01*
X103563809Y-88949904D02*
X103563809Y-89140380D01*
X103373333Y-89064190D02*
X103563809Y-89140380D01*
X103754285Y-89064190D01*
X103449523Y-89292761D02*
X103563809Y-89140380D01*
X103678095Y-89292761D01*
X104516190Y-89673714D02*
X104478095Y-89711809D01*
X104363809Y-89749904D01*
X104287619Y-89749904D01*
X104173333Y-89711809D01*
X104097142Y-89635619D01*
X104059047Y-89559428D01*
X104020952Y-89407047D01*
X104020952Y-89292761D01*
X104059047Y-89140380D01*
X104097142Y-89064190D01*
X104173333Y-88988000D01*
X104287619Y-88949904D01*
X104363809Y-88949904D01*
X104478095Y-88988000D01*
X104516190Y-89026095D01*
X104782857Y-88949904D02*
X105278095Y-88949904D01*
X105011428Y-89254666D01*
X105125714Y-89254666D01*
X105201904Y-89292761D01*
X105240000Y-89330857D01*
X105278095Y-89407047D01*
X105278095Y-89597523D01*
X105240000Y-89673714D01*
X105201904Y-89711809D01*
X105125714Y-89749904D01*
X104897142Y-89749904D01*
X104820952Y-89711809D01*
X104782857Y-89673714D01*
%TO.C,T\u002AC10*%
X118651904Y-96225238D02*
X118651904Y-95768095D01*
X119451904Y-95996666D02*
X118651904Y-95996666D01*
X118651904Y-95387142D02*
X118842380Y-95387142D01*
X118766190Y-95577619D02*
X118842380Y-95387142D01*
X118766190Y-95196666D01*
X118994761Y-95501428D02*
X118842380Y-95387142D01*
X118994761Y-95272857D01*
X119375714Y-94434761D02*
X119413809Y-94472857D01*
X119451904Y-94587142D01*
X119451904Y-94663333D01*
X119413809Y-94777619D01*
X119337619Y-94853809D01*
X119261428Y-94891904D01*
X119109047Y-94930000D01*
X118994761Y-94930000D01*
X118842380Y-94891904D01*
X118766190Y-94853809D01*
X118690000Y-94777619D01*
X118651904Y-94663333D01*
X118651904Y-94587142D01*
X118690000Y-94472857D01*
X118728095Y-94434761D01*
X119451904Y-93672857D02*
X119451904Y-94130000D01*
X119451904Y-93901428D02*
X118651904Y-93901428D01*
X118766190Y-93977619D01*
X118842380Y-94053809D01*
X118880476Y-94130000D01*
X118651904Y-93177619D02*
X118651904Y-93101428D01*
X118690000Y-93025238D01*
X118728095Y-92987142D01*
X118804285Y-92949047D01*
X118956666Y-92910952D01*
X119147142Y-92910952D01*
X119299523Y-92949047D01*
X119375714Y-92987142D01*
X119413809Y-93025238D01*
X119451904Y-93101428D01*
X119451904Y-93177619D01*
X119413809Y-93253809D01*
X119375714Y-93291904D01*
X119299523Y-93330000D01*
X119147142Y-93368095D01*
X118956666Y-93368095D01*
X118804285Y-93330000D01*
X118728095Y-93291904D01*
X118690000Y-93253809D01*
X118651904Y-93177619D01*
%TO.C,T\u002AC5*%
X94316052Y-83108154D02*
X94639301Y-82784905D01*
X95043362Y-83512215D02*
X94477676Y-82946529D01*
X94908675Y-82515531D02*
X95043362Y-82650218D01*
X94854800Y-82731030D02*
X95043362Y-82650218D01*
X95124174Y-82461656D01*
X95070299Y-82838780D02*
X95043362Y-82650218D01*
X95231924Y-82677155D01*
X96093921Y-82353906D02*
X96093921Y-82407781D01*
X96040046Y-82515531D01*
X95986171Y-82569406D01*
X95878421Y-82623281D01*
X95770672Y-82623281D01*
X95689860Y-82596343D01*
X95555172Y-82515531D01*
X95474360Y-82434719D01*
X95393548Y-82300032D01*
X95366611Y-82219219D01*
X95366611Y-82111470D01*
X95420485Y-82003720D01*
X95474360Y-81949845D01*
X95582110Y-81895971D01*
X95635985Y-81895971D01*
X96093921Y-81330285D02*
X95824547Y-81599659D01*
X96066983Y-81895971D01*
X96066983Y-81842096D01*
X96093921Y-81761284D01*
X96228608Y-81626597D01*
X96309420Y-81599659D01*
X96363295Y-81599659D01*
X96444107Y-81626597D01*
X96578794Y-81761284D01*
X96605731Y-81842096D01*
X96605731Y-81895971D01*
X96578794Y-81976783D01*
X96444107Y-82111470D01*
X96363295Y-82138407D01*
X96309420Y-82138407D01*
%TO.C,D28*%
X95605472Y-47401428D02*
X94805472Y-47401428D01*
X94805472Y-47210952D01*
X94843568Y-47096666D01*
X94919758Y-47020476D01*
X94995948Y-46982380D01*
X95148329Y-46944285D01*
X95262615Y-46944285D01*
X95414996Y-46982380D01*
X95491187Y-47020476D01*
X95567377Y-47096666D01*
X95605472Y-47210952D01*
X95605472Y-47401428D01*
X94881663Y-46639523D02*
X94843568Y-46601428D01*
X94805472Y-46525238D01*
X94805472Y-46334761D01*
X94843568Y-46258571D01*
X94881663Y-46220476D01*
X94957853Y-46182380D01*
X95034044Y-46182380D01*
X95148329Y-46220476D01*
X95605472Y-46677619D01*
X95605472Y-46182380D01*
X95148329Y-45725238D02*
X95110234Y-45801428D01*
X95072139Y-45839523D01*
X94995948Y-45877619D01*
X94957853Y-45877619D01*
X94881663Y-45839523D01*
X94843568Y-45801428D01*
X94805472Y-45725238D01*
X94805472Y-45572857D01*
X94843568Y-45496666D01*
X94881663Y-45458571D01*
X94957853Y-45420476D01*
X94995948Y-45420476D01*
X95072139Y-45458571D01*
X95110234Y-45496666D01*
X95148329Y-45572857D01*
X95148329Y-45725238D01*
X95186425Y-45801428D01*
X95224520Y-45839523D01*
X95300710Y-45877619D01*
X95453091Y-45877619D01*
X95529282Y-45839523D01*
X95567377Y-45801428D01*
X95605472Y-45725238D01*
X95605472Y-45572857D01*
X95567377Y-45496666D01*
X95529282Y-45458571D01*
X95453091Y-45420476D01*
X95300710Y-45420476D01*
X95224520Y-45458571D01*
X95186425Y-45496666D01*
X95148329Y-45572857D01*
%TO.C,D26*%
X99656347Y-48806904D02*
X99656347Y-48006904D01*
X99846823Y-48006904D01*
X99961109Y-48045000D01*
X100037299Y-48121190D01*
X100075395Y-48197380D01*
X100113490Y-48349761D01*
X100113490Y-48464047D01*
X100075395Y-48616428D01*
X100037299Y-48692619D01*
X99961109Y-48768809D01*
X99846823Y-48806904D01*
X99656347Y-48806904D01*
X100418252Y-48083095D02*
X100456347Y-48045000D01*
X100532537Y-48006904D01*
X100723014Y-48006904D01*
X100799204Y-48045000D01*
X100837299Y-48083095D01*
X100875395Y-48159285D01*
X100875395Y-48235476D01*
X100837299Y-48349761D01*
X100380156Y-48806904D01*
X100875395Y-48806904D01*
X101561109Y-48006904D02*
X101408728Y-48006904D01*
X101332537Y-48045000D01*
X101294442Y-48083095D01*
X101218252Y-48197380D01*
X101180156Y-48349761D01*
X101180156Y-48654523D01*
X101218252Y-48730714D01*
X101256347Y-48768809D01*
X101332537Y-48806904D01*
X101484918Y-48806904D01*
X101561109Y-48768809D01*
X101599204Y-48730714D01*
X101637299Y-48654523D01*
X101637299Y-48464047D01*
X101599204Y-48387857D01*
X101561109Y-48349761D01*
X101484918Y-48311666D01*
X101332537Y-48311666D01*
X101256347Y-48349761D01*
X101218252Y-48387857D01*
X101180156Y-48464047D01*
%TO.C,D30*%
X91442616Y-47401428D02*
X90642616Y-47401428D01*
X90642616Y-47210952D01*
X90680712Y-47096666D01*
X90756902Y-47020476D01*
X90833092Y-46982380D01*
X90985473Y-46944285D01*
X91099759Y-46944285D01*
X91252140Y-46982380D01*
X91328331Y-47020476D01*
X91404521Y-47096666D01*
X91442616Y-47210952D01*
X91442616Y-47401428D01*
X90642616Y-46677619D02*
X90642616Y-46182380D01*
X90947378Y-46449047D01*
X90947378Y-46334761D01*
X90985473Y-46258571D01*
X91023569Y-46220476D01*
X91099759Y-46182380D01*
X91290235Y-46182380D01*
X91366426Y-46220476D01*
X91404521Y-46258571D01*
X91442616Y-46334761D01*
X91442616Y-46563333D01*
X91404521Y-46639523D01*
X91366426Y-46677619D01*
X90642616Y-45687142D02*
X90642616Y-45610952D01*
X90680712Y-45534761D01*
X90718807Y-45496666D01*
X90794997Y-45458571D01*
X90947378Y-45420476D01*
X91137854Y-45420476D01*
X91290235Y-45458571D01*
X91366426Y-45496666D01*
X91404521Y-45534761D01*
X91442616Y-45610952D01*
X91442616Y-45687142D01*
X91404521Y-45763333D01*
X91366426Y-45801428D01*
X91290235Y-45839523D01*
X91137854Y-45877619D01*
X90947378Y-45877619D01*
X90794997Y-45839523D01*
X90718807Y-45801428D01*
X90680712Y-45763333D01*
X90642616Y-45687142D01*
%TO.C,C4*%
X120932642Y-60567426D02*
X120980261Y-60615045D01*
X121027880Y-60757902D01*
X121027880Y-60853140D01*
X120980261Y-60995998D01*
X120885023Y-61091236D01*
X120789785Y-61138855D01*
X120599309Y-61186474D01*
X120456452Y-61186474D01*
X120265976Y-61138855D01*
X120170738Y-61091236D01*
X120075500Y-60995998D01*
X120027880Y-60853140D01*
X120027880Y-60757902D01*
X120075500Y-60615045D01*
X120123119Y-60567426D01*
X120361214Y-59710283D02*
X121027880Y-59710283D01*
X119980261Y-59948379D02*
X120694547Y-60186474D01*
X120694547Y-59567426D01*
%TO.C,R31*%
X122746214Y-51707904D02*
X122479547Y-51326952D01*
X122289071Y-51707904D02*
X122289071Y-50907904D01*
X122593833Y-50907904D01*
X122670023Y-50946000D01*
X122708119Y-50984095D01*
X122746214Y-51060285D01*
X122746214Y-51174571D01*
X122708119Y-51250761D01*
X122670023Y-51288857D01*
X122593833Y-51326952D01*
X122289071Y-51326952D01*
X123012880Y-50907904D02*
X123508119Y-50907904D01*
X123241452Y-51212666D01*
X123355738Y-51212666D01*
X123431928Y-51250761D01*
X123470023Y-51288857D01*
X123508119Y-51365047D01*
X123508119Y-51555523D01*
X123470023Y-51631714D01*
X123431928Y-51669809D01*
X123355738Y-51707904D01*
X123127166Y-51707904D01*
X123050976Y-51669809D01*
X123012880Y-51631714D01*
X124270023Y-51707904D02*
X123812880Y-51707904D01*
X124041452Y-51707904D02*
X124041452Y-50907904D01*
X123965261Y-51022190D01*
X123889071Y-51098380D01*
X123812880Y-51136476D01*
%TO.C,C17*%
X86536714Y-78111001D02*
X86498619Y-78149096D01*
X86384333Y-78187191D01*
X86308142Y-78187191D01*
X86193857Y-78149096D01*
X86117666Y-78072906D01*
X86079571Y-77996715D01*
X86041476Y-77844334D01*
X86041476Y-77730048D01*
X86079571Y-77577667D01*
X86117666Y-77501477D01*
X86193857Y-77425287D01*
X86308142Y-77387191D01*
X86384333Y-77387191D01*
X86498619Y-77425287D01*
X86536714Y-77463382D01*
X87298619Y-78187191D02*
X86841476Y-78187191D01*
X87070047Y-78187191D02*
X87070047Y-77387191D01*
X86993857Y-77501477D01*
X86917666Y-77577667D01*
X86841476Y-77615763D01*
X87565285Y-77387191D02*
X88098619Y-77387191D01*
X87755761Y-78187191D01*
%TO.C,T\u002AC13*%
X85345904Y-94535238D02*
X85345904Y-94078095D01*
X86145904Y-94306666D02*
X85345904Y-94306666D01*
X85345904Y-93697142D02*
X85536380Y-93697142D01*
X85460190Y-93887619D02*
X85536380Y-93697142D01*
X85460190Y-93506666D01*
X85688761Y-93811428D02*
X85536380Y-93697142D01*
X85688761Y-93582857D01*
X86069714Y-92744761D02*
X86107809Y-92782857D01*
X86145904Y-92897142D01*
X86145904Y-92973333D01*
X86107809Y-93087619D01*
X86031619Y-93163809D01*
X85955428Y-93201904D01*
X85803047Y-93240000D01*
X85688761Y-93240000D01*
X85536380Y-93201904D01*
X85460190Y-93163809D01*
X85384000Y-93087619D01*
X85345904Y-92973333D01*
X85345904Y-92897142D01*
X85384000Y-92782857D01*
X85422095Y-92744761D01*
X86145904Y-91982857D02*
X86145904Y-92440000D01*
X86145904Y-92211428D02*
X85345904Y-92211428D01*
X85460190Y-92287619D01*
X85536380Y-92363809D01*
X85574476Y-92440000D01*
X85345904Y-91716190D02*
X85345904Y-91220952D01*
X85650666Y-91487619D01*
X85650666Y-91373333D01*
X85688761Y-91297142D01*
X85726857Y-91259047D01*
X85803047Y-91220952D01*
X85993523Y-91220952D01*
X86069714Y-91259047D01*
X86107809Y-91297142D01*
X86145904Y-91373333D01*
X86145904Y-91601904D01*
X86107809Y-91678095D01*
X86069714Y-91716190D01*
%TO.C,C9*%
X89749333Y-63451382D02*
X89701714Y-63499001D01*
X89558857Y-63546620D01*
X89463619Y-63546620D01*
X89320761Y-63499001D01*
X89225523Y-63403763D01*
X89177904Y-63308525D01*
X89130285Y-63118049D01*
X89130285Y-62975192D01*
X89177904Y-62784716D01*
X89225523Y-62689478D01*
X89320761Y-62594240D01*
X89463619Y-62546620D01*
X89558857Y-62546620D01*
X89701714Y-62594240D01*
X89749333Y-62641859D01*
X90225523Y-63546620D02*
X90416000Y-63546620D01*
X90511238Y-63499001D01*
X90558857Y-63451382D01*
X90654095Y-63308525D01*
X90701714Y-63118049D01*
X90701714Y-62737097D01*
X90654095Y-62641859D01*
X90606476Y-62594240D01*
X90511238Y-62546620D01*
X90320761Y-62546620D01*
X90225523Y-62594240D01*
X90177904Y-62641859D01*
X90130285Y-62737097D01*
X90130285Y-62975192D01*
X90177904Y-63070430D01*
X90225523Y-63118049D01*
X90320761Y-63165668D01*
X90511238Y-63165668D01*
X90606476Y-63118049D01*
X90654095Y-63070430D01*
X90701714Y-62975192D01*
X92371952Y-61322811D02*
X91610047Y-61322811D01*
X91991000Y-60941859D02*
X91991000Y-61703763D01*
%TO.C,FB22*%
X117645980Y-44942857D02*
X117379314Y-44942857D01*
X117379314Y-45361904D02*
X117379314Y-44561904D01*
X117760266Y-44561904D01*
X118331695Y-44942857D02*
X118445980Y-44980952D01*
X118484076Y-45019047D01*
X118522171Y-45095238D01*
X118522171Y-45209523D01*
X118484076Y-45285714D01*
X118445980Y-45323809D01*
X118369790Y-45361904D01*
X118065028Y-45361904D01*
X118065028Y-44561904D01*
X118331695Y-44561904D01*
X118407885Y-44600000D01*
X118445980Y-44638095D01*
X118484076Y-44714285D01*
X118484076Y-44790476D01*
X118445980Y-44866666D01*
X118407885Y-44904761D01*
X118331695Y-44942857D01*
X118065028Y-44942857D01*
X118826933Y-44638095D02*
X118865028Y-44600000D01*
X118941219Y-44561904D01*
X119131695Y-44561904D01*
X119207885Y-44600000D01*
X119245980Y-44638095D01*
X119284076Y-44714285D01*
X119284076Y-44790476D01*
X119245980Y-44904761D01*
X118788838Y-45361904D01*
X119284076Y-45361904D01*
X119588838Y-44638095D02*
X119626933Y-44600000D01*
X119703123Y-44561904D01*
X119893600Y-44561904D01*
X119969790Y-44600000D01*
X120007885Y-44638095D01*
X120045980Y-44714285D01*
X120045980Y-44790476D01*
X120007885Y-44904761D01*
X119550742Y-45361904D01*
X120045980Y-45361904D01*
%TO.C,T\u002AC22*%
X108101904Y-92342738D02*
X108101904Y-91885595D01*
X108901904Y-92114166D02*
X108101904Y-92114166D01*
X108101904Y-91504642D02*
X108292380Y-91504642D01*
X108216190Y-91695119D02*
X108292380Y-91504642D01*
X108216190Y-91314166D01*
X108444761Y-91618928D02*
X108292380Y-91504642D01*
X108444761Y-91390357D01*
X108825714Y-90552261D02*
X108863809Y-90590357D01*
X108901904Y-90704642D01*
X108901904Y-90780833D01*
X108863809Y-90895119D01*
X108787619Y-90971309D01*
X108711428Y-91009404D01*
X108559047Y-91047500D01*
X108444761Y-91047500D01*
X108292380Y-91009404D01*
X108216190Y-90971309D01*
X108140000Y-90895119D01*
X108101904Y-90780833D01*
X108101904Y-90704642D01*
X108140000Y-90590357D01*
X108178095Y-90552261D01*
X108178095Y-90247500D02*
X108140000Y-90209404D01*
X108101904Y-90133214D01*
X108101904Y-89942738D01*
X108140000Y-89866547D01*
X108178095Y-89828452D01*
X108254285Y-89790357D01*
X108330476Y-89790357D01*
X108444761Y-89828452D01*
X108901904Y-90285595D01*
X108901904Y-89790357D01*
X108178095Y-89485595D02*
X108140000Y-89447500D01*
X108101904Y-89371309D01*
X108101904Y-89180833D01*
X108140000Y-89104642D01*
X108178095Y-89066547D01*
X108254285Y-89028452D01*
X108330476Y-89028452D01*
X108444761Y-89066547D01*
X108901904Y-89523690D01*
X108901904Y-89028452D01*
%TO.C,U21*%
X109662380Y-95728095D02*
X110471904Y-95728095D01*
X110567142Y-95680476D01*
X110614761Y-95632857D01*
X110662380Y-95537619D01*
X110662380Y-95347142D01*
X110614761Y-95251904D01*
X110567142Y-95204285D01*
X110471904Y-95156666D01*
X109662380Y-95156666D01*
X109757619Y-94728095D02*
X109710000Y-94680476D01*
X109662380Y-94585238D01*
X109662380Y-94347142D01*
X109710000Y-94251904D01*
X109757619Y-94204285D01*
X109852857Y-94156666D01*
X109948095Y-94156666D01*
X110090952Y-94204285D01*
X110662380Y-94775714D01*
X110662380Y-94156666D01*
X110662380Y-93204285D02*
X110662380Y-93775714D01*
X110662380Y-93490000D02*
X109662380Y-93490000D01*
X109805238Y-93585238D01*
X109900476Y-93680476D01*
X109948095Y-93775714D01*
%TO.C,PD3.3*%
X110927619Y-85082380D02*
X110927619Y-84082380D01*
X111308571Y-84082380D01*
X111403809Y-84130000D01*
X111451428Y-84177619D01*
X111499047Y-84272857D01*
X111499047Y-84415714D01*
X111451428Y-84510952D01*
X111403809Y-84558571D01*
X111308571Y-84606190D01*
X110927619Y-84606190D01*
X111927619Y-85082380D02*
X111927619Y-84082380D01*
X112165714Y-84082380D01*
X112308571Y-84130000D01*
X112403809Y-84225238D01*
X112451428Y-84320476D01*
X112499047Y-84510952D01*
X112499047Y-84653809D01*
X112451428Y-84844285D01*
X112403809Y-84939523D01*
X112308571Y-85034761D01*
X112165714Y-85082380D01*
X111927619Y-85082380D01*
X112832380Y-84082380D02*
X113451428Y-84082380D01*
X113118095Y-84463333D01*
X113260952Y-84463333D01*
X113356190Y-84510952D01*
X113403809Y-84558571D01*
X113451428Y-84653809D01*
X113451428Y-84891904D01*
X113403809Y-84987142D01*
X113356190Y-85034761D01*
X113260952Y-85082380D01*
X112975238Y-85082380D01*
X112880000Y-85034761D01*
X112832380Y-84987142D01*
X113880000Y-84987142D02*
X113927619Y-85034761D01*
X113880000Y-85082380D01*
X113832380Y-85034761D01*
X113880000Y-84987142D01*
X113880000Y-85082380D01*
X114260952Y-84082380D02*
X114880000Y-84082380D01*
X114546666Y-84463333D01*
X114689523Y-84463333D01*
X114784761Y-84510952D01*
X114832380Y-84558571D01*
X114880000Y-84653809D01*
X114880000Y-84891904D01*
X114832380Y-84987142D01*
X114784761Y-85034761D01*
X114689523Y-85082380D01*
X114403809Y-85082380D01*
X114308571Y-85034761D01*
X114260952Y-84987142D01*
%TO.C,R17*%
X90911714Y-78175049D02*
X90645047Y-77794097D01*
X90454571Y-78175049D02*
X90454571Y-77375049D01*
X90759333Y-77375049D01*
X90835523Y-77413145D01*
X90873619Y-77451240D01*
X90911714Y-77527430D01*
X90911714Y-77641716D01*
X90873619Y-77717906D01*
X90835523Y-77756002D01*
X90759333Y-77794097D01*
X90454571Y-77794097D01*
X91673619Y-78175049D02*
X91216476Y-78175049D01*
X91445047Y-78175049D02*
X91445047Y-77375049D01*
X91368857Y-77489335D01*
X91292666Y-77565525D01*
X91216476Y-77603621D01*
X91940285Y-77375049D02*
X92473619Y-77375049D01*
X92130761Y-78175049D01*
%TO.C,D32*%
X87279760Y-47401428D02*
X86479760Y-47401428D01*
X86479760Y-47210952D01*
X86517856Y-47096666D01*
X86594046Y-47020476D01*
X86670236Y-46982380D01*
X86822617Y-46944285D01*
X86936903Y-46944285D01*
X87089284Y-46982380D01*
X87165475Y-47020476D01*
X87241665Y-47096666D01*
X87279760Y-47210952D01*
X87279760Y-47401428D01*
X86479760Y-46677619D02*
X86479760Y-46182380D01*
X86784522Y-46449047D01*
X86784522Y-46334761D01*
X86822617Y-46258571D01*
X86860713Y-46220476D01*
X86936903Y-46182380D01*
X87127379Y-46182380D01*
X87203570Y-46220476D01*
X87241665Y-46258571D01*
X87279760Y-46334761D01*
X87279760Y-46563333D01*
X87241665Y-46639523D01*
X87203570Y-46677619D01*
X86555951Y-45877619D02*
X86517856Y-45839523D01*
X86479760Y-45763333D01*
X86479760Y-45572857D01*
X86517856Y-45496666D01*
X86555951Y-45458571D01*
X86632141Y-45420476D01*
X86708332Y-45420476D01*
X86822617Y-45458571D01*
X87279760Y-45915714D01*
X87279760Y-45420476D01*
%TO.C,R14*%
X82672714Y-54508904D02*
X82406047Y-54127952D01*
X82215571Y-54508904D02*
X82215571Y-53708904D01*
X82520333Y-53708904D01*
X82596523Y-53747000D01*
X82634619Y-53785095D01*
X82672714Y-53861285D01*
X82672714Y-53975571D01*
X82634619Y-54051761D01*
X82596523Y-54089857D01*
X82520333Y-54127952D01*
X82215571Y-54127952D01*
X83434619Y-54508904D02*
X82977476Y-54508904D01*
X83206047Y-54508904D02*
X83206047Y-53708904D01*
X83129857Y-53823190D01*
X83053666Y-53899380D01*
X82977476Y-53937476D01*
X84120333Y-53975571D02*
X84120333Y-54508904D01*
X83929857Y-53670809D02*
X83739380Y-54242238D01*
X84234619Y-54242238D01*
%TO.C,D31*%
X89361188Y-47401428D02*
X88561188Y-47401428D01*
X88561188Y-47210952D01*
X88599284Y-47096666D01*
X88675474Y-47020476D01*
X88751664Y-46982380D01*
X88904045Y-46944285D01*
X89018331Y-46944285D01*
X89170712Y-46982380D01*
X89246903Y-47020476D01*
X89323093Y-47096666D01*
X89361188Y-47210952D01*
X89361188Y-47401428D01*
X88561188Y-46677619D02*
X88561188Y-46182380D01*
X88865950Y-46449047D01*
X88865950Y-46334761D01*
X88904045Y-46258571D01*
X88942141Y-46220476D01*
X89018331Y-46182380D01*
X89208807Y-46182380D01*
X89284998Y-46220476D01*
X89323093Y-46258571D01*
X89361188Y-46334761D01*
X89361188Y-46563333D01*
X89323093Y-46639523D01*
X89284998Y-46677619D01*
X89361188Y-45420476D02*
X89361188Y-45877619D01*
X89361188Y-45649047D02*
X88561188Y-45649047D01*
X88675474Y-45725238D01*
X88751664Y-45801428D01*
X88789760Y-45877619D01*
%TO.C,R34*%
X109241214Y-51707904D02*
X108974547Y-51326952D01*
X108784071Y-51707904D02*
X108784071Y-50907904D01*
X109088833Y-50907904D01*
X109165023Y-50946000D01*
X109203119Y-50984095D01*
X109241214Y-51060285D01*
X109241214Y-51174571D01*
X109203119Y-51250761D01*
X109165023Y-51288857D01*
X109088833Y-51326952D01*
X108784071Y-51326952D01*
X109507880Y-50907904D02*
X110003119Y-50907904D01*
X109736452Y-51212666D01*
X109850738Y-51212666D01*
X109926928Y-51250761D01*
X109965023Y-51288857D01*
X110003119Y-51365047D01*
X110003119Y-51555523D01*
X109965023Y-51631714D01*
X109926928Y-51669809D01*
X109850738Y-51707904D01*
X109622166Y-51707904D01*
X109545976Y-51669809D01*
X109507880Y-51631714D01*
X110688833Y-51174571D02*
X110688833Y-51707904D01*
X110498357Y-50869809D02*
X110307880Y-51441238D01*
X110803119Y-51441238D01*
%TO.C,D23*%
X113379679Y-48806904D02*
X113379679Y-48006904D01*
X113570155Y-48006904D01*
X113684441Y-48045000D01*
X113760631Y-48121190D01*
X113798727Y-48197380D01*
X113836822Y-48349761D01*
X113836822Y-48464047D01*
X113798727Y-48616428D01*
X113760631Y-48692619D01*
X113684441Y-48768809D01*
X113570155Y-48806904D01*
X113379679Y-48806904D01*
X114141584Y-48083095D02*
X114179679Y-48045000D01*
X114255869Y-48006904D01*
X114446346Y-48006904D01*
X114522536Y-48045000D01*
X114560631Y-48083095D01*
X114598727Y-48159285D01*
X114598727Y-48235476D01*
X114560631Y-48349761D01*
X114103488Y-48806904D01*
X114598727Y-48806904D01*
X114865393Y-48006904D02*
X115360631Y-48006904D01*
X115093965Y-48311666D01*
X115208250Y-48311666D01*
X115284441Y-48349761D01*
X115322536Y-48387857D01*
X115360631Y-48464047D01*
X115360631Y-48654523D01*
X115322536Y-48730714D01*
X115284441Y-48768809D01*
X115208250Y-48806904D01*
X114979679Y-48806904D01*
X114903488Y-48768809D01*
X114865393Y-48730714D01*
%TO.C,D33*%
X85198332Y-47401428D02*
X84398332Y-47401428D01*
X84398332Y-47210952D01*
X84436428Y-47096666D01*
X84512618Y-47020476D01*
X84588808Y-46982380D01*
X84741189Y-46944285D01*
X84855475Y-46944285D01*
X85007856Y-46982380D01*
X85084047Y-47020476D01*
X85160237Y-47096666D01*
X85198332Y-47210952D01*
X85198332Y-47401428D01*
X84398332Y-46677619D02*
X84398332Y-46182380D01*
X84703094Y-46449047D01*
X84703094Y-46334761D01*
X84741189Y-46258571D01*
X84779285Y-46220476D01*
X84855475Y-46182380D01*
X85045951Y-46182380D01*
X85122142Y-46220476D01*
X85160237Y-46258571D01*
X85198332Y-46334761D01*
X85198332Y-46563333D01*
X85160237Y-46639523D01*
X85122142Y-46677619D01*
X84398332Y-45915714D02*
X84398332Y-45420476D01*
X84703094Y-45687142D01*
X84703094Y-45572857D01*
X84741189Y-45496666D01*
X84779285Y-45458571D01*
X84855475Y-45420476D01*
X85045951Y-45420476D01*
X85122142Y-45458571D01*
X85160237Y-45496666D01*
X85198332Y-45572857D01*
X85198332Y-45801428D01*
X85160237Y-45877619D01*
X85122142Y-45915714D01*
%TO.C,C23*%
X113813214Y-54425714D02*
X113775119Y-54463809D01*
X113660833Y-54501904D01*
X113584642Y-54501904D01*
X113470357Y-54463809D01*
X113394166Y-54387619D01*
X113356071Y-54311428D01*
X113317976Y-54159047D01*
X113317976Y-54044761D01*
X113356071Y-53892380D01*
X113394166Y-53816190D01*
X113470357Y-53740000D01*
X113584642Y-53701904D01*
X113660833Y-53701904D01*
X113775119Y-53740000D01*
X113813214Y-53778095D01*
X114117976Y-53778095D02*
X114156071Y-53740000D01*
X114232261Y-53701904D01*
X114422738Y-53701904D01*
X114498928Y-53740000D01*
X114537023Y-53778095D01*
X114575119Y-53854285D01*
X114575119Y-53930476D01*
X114537023Y-54044761D01*
X114079880Y-54501904D01*
X114575119Y-54501904D01*
X114841785Y-53701904D02*
X115337023Y-53701904D01*
X115070357Y-54006666D01*
X115184642Y-54006666D01*
X115260833Y-54044761D01*
X115298928Y-54082857D01*
X115337023Y-54159047D01*
X115337023Y-54349523D01*
X115298928Y-54425714D01*
X115260833Y-54463809D01*
X115184642Y-54501904D01*
X114956071Y-54501904D01*
X114879880Y-54463809D01*
X114841785Y-54425714D01*
%TO.C,R16*%
X89110714Y-74718333D02*
X88844047Y-74337381D01*
X88653571Y-74718333D02*
X88653571Y-73918333D01*
X88958333Y-73918333D01*
X89034523Y-73956429D01*
X89072619Y-73994524D01*
X89110714Y-74070714D01*
X89110714Y-74185000D01*
X89072619Y-74261190D01*
X89034523Y-74299286D01*
X88958333Y-74337381D01*
X88653571Y-74337381D01*
X89872619Y-74718333D02*
X89415476Y-74718333D01*
X89644047Y-74718333D02*
X89644047Y-73918333D01*
X89567857Y-74032619D01*
X89491666Y-74108809D01*
X89415476Y-74146905D01*
X90558333Y-73918333D02*
X90405952Y-73918333D01*
X90329761Y-73956429D01*
X90291666Y-73994524D01*
X90215476Y-74108809D01*
X90177380Y-74261190D01*
X90177380Y-74565952D01*
X90215476Y-74642143D01*
X90253571Y-74680238D01*
X90329761Y-74718333D01*
X90482142Y-74718333D01*
X90558333Y-74680238D01*
X90596428Y-74642143D01*
X90634523Y-74565952D01*
X90634523Y-74375476D01*
X90596428Y-74299286D01*
X90558333Y-74261190D01*
X90482142Y-74223095D01*
X90329761Y-74223095D01*
X90253571Y-74261190D01*
X90215476Y-74299286D01*
X90177380Y-74375476D01*
%TO.C,R29*%
X111847904Y-82634785D02*
X111466952Y-82901452D01*
X111847904Y-83091928D02*
X111047904Y-83091928D01*
X111047904Y-82787166D01*
X111086000Y-82710976D01*
X111124095Y-82672880D01*
X111200285Y-82634785D01*
X111314571Y-82634785D01*
X111390761Y-82672880D01*
X111428857Y-82710976D01*
X111466952Y-82787166D01*
X111466952Y-83091928D01*
X111124095Y-82330023D02*
X111086000Y-82291928D01*
X111047904Y-82215738D01*
X111047904Y-82025261D01*
X111086000Y-81949071D01*
X111124095Y-81910976D01*
X111200285Y-81872880D01*
X111276476Y-81872880D01*
X111390761Y-81910976D01*
X111847904Y-82368119D01*
X111847904Y-81872880D01*
X111847904Y-81491928D02*
X111847904Y-81339547D01*
X111809809Y-81263357D01*
X111771714Y-81225261D01*
X111657428Y-81149071D01*
X111505047Y-81110976D01*
X111200285Y-81110976D01*
X111124095Y-81149071D01*
X111086000Y-81187166D01*
X111047904Y-81263357D01*
X111047904Y-81415738D01*
X111086000Y-81491928D01*
X111124095Y-81530023D01*
X111200285Y-81568119D01*
X111390761Y-81568119D01*
X111466952Y-81530023D01*
X111505047Y-81491928D01*
X111543142Y-81415738D01*
X111543142Y-81263357D01*
X111505047Y-81187166D01*
X111466952Y-81149071D01*
X111390761Y-81110976D01*
%TO.C,U14*%
X103452380Y-86074095D02*
X104261904Y-86074095D01*
X104357142Y-86026476D01*
X104404761Y-85978857D01*
X104452380Y-85883619D01*
X104452380Y-85693142D01*
X104404761Y-85597904D01*
X104357142Y-85550285D01*
X104261904Y-85502666D01*
X103452380Y-85502666D01*
X104452380Y-84502666D02*
X104452380Y-85074095D01*
X104452380Y-84788380D02*
X103452380Y-84788380D01*
X103595238Y-84883619D01*
X103690476Y-84978857D01*
X103738095Y-85074095D01*
X103785714Y-83645523D02*
X104452380Y-83645523D01*
X103404761Y-83883619D02*
X104119047Y-84121714D01*
X104119047Y-83502666D01*
%TO.C,C5*%
X115367142Y-66736826D02*
X115414761Y-66784445D01*
X115462380Y-66927302D01*
X115462380Y-67022540D01*
X115414761Y-67165398D01*
X115319523Y-67260636D01*
X115224285Y-67308255D01*
X115033809Y-67355874D01*
X114890952Y-67355874D01*
X114700476Y-67308255D01*
X114605238Y-67260636D01*
X114510000Y-67165398D01*
X114462380Y-67022540D01*
X114462380Y-66927302D01*
X114510000Y-66784445D01*
X114557619Y-66736826D01*
X114462380Y-65832064D02*
X114462380Y-66308255D01*
X114938571Y-66355874D01*
X114890952Y-66308255D01*
X114843333Y-66213017D01*
X114843333Y-65974921D01*
X114890952Y-65879683D01*
X114938571Y-65832064D01*
X115033809Y-65784445D01*
X115271904Y-65784445D01*
X115367142Y-65832064D01*
X115414761Y-65879683D01*
X115462380Y-65974921D01*
X115462380Y-66213017D01*
X115414761Y-66308255D01*
X115367142Y-66355874D01*
%TO.C,C13*%
X86670214Y-51643714D02*
X86632119Y-51681809D01*
X86517833Y-51719904D01*
X86441642Y-51719904D01*
X86327357Y-51681809D01*
X86251166Y-51605619D01*
X86213071Y-51529428D01*
X86174976Y-51377047D01*
X86174976Y-51262761D01*
X86213071Y-51110380D01*
X86251166Y-51034190D01*
X86327357Y-50958000D01*
X86441642Y-50919904D01*
X86517833Y-50919904D01*
X86632119Y-50958000D01*
X86670214Y-50996095D01*
X87432119Y-51719904D02*
X86974976Y-51719904D01*
X87203547Y-51719904D02*
X87203547Y-50919904D01*
X87127357Y-51034190D01*
X87051166Y-51110380D01*
X86974976Y-51148476D01*
X87698785Y-50919904D02*
X88194023Y-50919904D01*
X87927357Y-51224666D01*
X88041642Y-51224666D01*
X88117833Y-51262761D01*
X88155928Y-51300857D01*
X88194023Y-51377047D01*
X88194023Y-51567523D01*
X88155928Y-51643714D01*
X88117833Y-51681809D01*
X88041642Y-51719904D01*
X87813071Y-51719904D01*
X87736880Y-51681809D01*
X87698785Y-51643714D01*
%TO.C,R27*%
X90973904Y-88298285D02*
X90592952Y-88564952D01*
X90973904Y-88755428D02*
X90173904Y-88755428D01*
X90173904Y-88450666D01*
X90212000Y-88374476D01*
X90250095Y-88336380D01*
X90326285Y-88298285D01*
X90440571Y-88298285D01*
X90516761Y-88336380D01*
X90554857Y-88374476D01*
X90592952Y-88450666D01*
X90592952Y-88755428D01*
X90250095Y-87993523D02*
X90212000Y-87955428D01*
X90173904Y-87879238D01*
X90173904Y-87688761D01*
X90212000Y-87612571D01*
X90250095Y-87574476D01*
X90326285Y-87536380D01*
X90402476Y-87536380D01*
X90516761Y-87574476D01*
X90973904Y-88031619D01*
X90973904Y-87536380D01*
X90173904Y-87269714D02*
X90173904Y-86736380D01*
X90973904Y-87079238D01*
%TO.C,FB23*%
X113119580Y-44942857D02*
X112852914Y-44942857D01*
X112852914Y-45361904D02*
X112852914Y-44561904D01*
X113233866Y-44561904D01*
X113805295Y-44942857D02*
X113919580Y-44980952D01*
X113957676Y-45019047D01*
X113995771Y-45095238D01*
X113995771Y-45209523D01*
X113957676Y-45285714D01*
X113919580Y-45323809D01*
X113843390Y-45361904D01*
X113538628Y-45361904D01*
X113538628Y-44561904D01*
X113805295Y-44561904D01*
X113881485Y-44600000D01*
X113919580Y-44638095D01*
X113957676Y-44714285D01*
X113957676Y-44790476D01*
X113919580Y-44866666D01*
X113881485Y-44904761D01*
X113805295Y-44942857D01*
X113538628Y-44942857D01*
X114300533Y-44638095D02*
X114338628Y-44600000D01*
X114414819Y-44561904D01*
X114605295Y-44561904D01*
X114681485Y-44600000D01*
X114719580Y-44638095D01*
X114757676Y-44714285D01*
X114757676Y-44790476D01*
X114719580Y-44904761D01*
X114262438Y-45361904D01*
X114757676Y-45361904D01*
X115024342Y-44561904D02*
X115519580Y-44561904D01*
X115252914Y-44866666D01*
X115367200Y-44866666D01*
X115443390Y-44904761D01*
X115481485Y-44942857D01*
X115519580Y-45019047D01*
X115519580Y-45209523D01*
X115481485Y-45285714D01*
X115443390Y-45323809D01*
X115367200Y-45361904D01*
X115138628Y-45361904D01*
X115062438Y-45323809D01*
X115024342Y-45285714D01*
%TO.C,C12*%
X90734214Y-51643714D02*
X90696119Y-51681809D01*
X90581833Y-51719904D01*
X90505642Y-51719904D01*
X90391357Y-51681809D01*
X90315166Y-51605619D01*
X90277071Y-51529428D01*
X90238976Y-51377047D01*
X90238976Y-51262761D01*
X90277071Y-51110380D01*
X90315166Y-51034190D01*
X90391357Y-50958000D01*
X90505642Y-50919904D01*
X90581833Y-50919904D01*
X90696119Y-50958000D01*
X90734214Y-50996095D01*
X91496119Y-51719904D02*
X91038976Y-51719904D01*
X91267547Y-51719904D02*
X91267547Y-50919904D01*
X91191357Y-51034190D01*
X91115166Y-51110380D01*
X91038976Y-51148476D01*
X91800880Y-50996095D02*
X91838976Y-50958000D01*
X91915166Y-50919904D01*
X92105642Y-50919904D01*
X92181833Y-50958000D01*
X92219928Y-50996095D01*
X92258023Y-51072285D01*
X92258023Y-51148476D01*
X92219928Y-51262761D01*
X91762785Y-51719904D01*
X92258023Y-51719904D01*
%TO.C,R33*%
X113813214Y-51707904D02*
X113546547Y-51326952D01*
X113356071Y-51707904D02*
X113356071Y-50907904D01*
X113660833Y-50907904D01*
X113737023Y-50946000D01*
X113775119Y-50984095D01*
X113813214Y-51060285D01*
X113813214Y-51174571D01*
X113775119Y-51250761D01*
X113737023Y-51288857D01*
X113660833Y-51326952D01*
X113356071Y-51326952D01*
X114079880Y-50907904D02*
X114575119Y-50907904D01*
X114308452Y-51212666D01*
X114422738Y-51212666D01*
X114498928Y-51250761D01*
X114537023Y-51288857D01*
X114575119Y-51365047D01*
X114575119Y-51555523D01*
X114537023Y-51631714D01*
X114498928Y-51669809D01*
X114422738Y-51707904D01*
X114194166Y-51707904D01*
X114117976Y-51669809D01*
X114079880Y-51631714D01*
X114841785Y-50907904D02*
X115337023Y-50907904D01*
X115070357Y-51212666D01*
X115184642Y-51212666D01*
X115260833Y-51250761D01*
X115298928Y-51288857D01*
X115337023Y-51365047D01*
X115337023Y-51555523D01*
X115298928Y-51631714D01*
X115260833Y-51669809D01*
X115184642Y-51707904D01*
X114956071Y-51707904D01*
X114879880Y-51669809D01*
X114841785Y-51631714D01*
%TO.C,C18*%
X84925714Y-81125714D02*
X84887619Y-81163809D01*
X84773333Y-81201904D01*
X84697142Y-81201904D01*
X84582857Y-81163809D01*
X84506666Y-81087619D01*
X84468571Y-81011428D01*
X84430476Y-80859047D01*
X84430476Y-80744761D01*
X84468571Y-80592380D01*
X84506666Y-80516190D01*
X84582857Y-80440000D01*
X84697142Y-80401904D01*
X84773333Y-80401904D01*
X84887619Y-80440000D01*
X84925714Y-80478095D01*
X85687619Y-81201904D02*
X85230476Y-81201904D01*
X85459047Y-81201904D02*
X85459047Y-80401904D01*
X85382857Y-80516190D01*
X85306666Y-80592380D01*
X85230476Y-80630476D01*
X86144761Y-80744761D02*
X86068571Y-80706666D01*
X86030476Y-80668571D01*
X85992380Y-80592380D01*
X85992380Y-80554285D01*
X86030476Y-80478095D01*
X86068571Y-80440000D01*
X86144761Y-80401904D01*
X86297142Y-80401904D01*
X86373333Y-80440000D01*
X86411428Y-80478095D01*
X86449523Y-80554285D01*
X86449523Y-80592380D01*
X86411428Y-80668571D01*
X86373333Y-80706666D01*
X86297142Y-80744761D01*
X86144761Y-80744761D01*
X86068571Y-80782857D01*
X86030476Y-80820952D01*
X85992380Y-80897142D01*
X85992380Y-81049523D01*
X86030476Y-81125714D01*
X86068571Y-81163809D01*
X86144761Y-81201904D01*
X86297142Y-81201904D01*
X86373333Y-81163809D01*
X86411428Y-81125714D01*
X86449523Y-81049523D01*
X86449523Y-80897142D01*
X86411428Y-80820952D01*
X86373333Y-80782857D01*
X86297142Y-80744761D01*
D13*
%TO.C,LINE_IO1*%
X115165661Y-22453423D02*
X114560900Y-22453423D01*
X114560900Y-21183423D01*
X115588995Y-22453423D02*
X115588995Y-21183423D01*
X116193757Y-22453423D02*
X116193757Y-21183423D01*
X116919471Y-22453423D01*
X116919471Y-21183423D01*
X117524233Y-21788185D02*
X117947566Y-21788185D01*
X118128995Y-22453423D02*
X117524233Y-22453423D01*
X117524233Y-21183423D01*
X118128995Y-21183423D01*
X118370900Y-22574376D02*
X119338519Y-22574376D01*
X119640900Y-22453423D02*
X119640900Y-21183423D01*
X120487566Y-21183423D02*
X120729471Y-21183423D01*
X120850423Y-21243900D01*
X120971376Y-21364852D01*
X121031852Y-21606757D01*
X121031852Y-22030090D01*
X120971376Y-22271995D01*
X120850423Y-22392947D01*
X120729471Y-22453423D01*
X120487566Y-22453423D01*
X120366614Y-22392947D01*
X120245661Y-22271995D01*
X120185185Y-22030090D01*
X120185185Y-21606757D01*
X120245661Y-21364852D01*
X120366614Y-21243900D01*
X120487566Y-21183423D01*
X122241376Y-22453423D02*
X121515661Y-22453423D01*
X121878519Y-22453423D02*
X121878519Y-21183423D01*
X121757566Y-21364852D01*
X121636614Y-21485804D01*
X121515661Y-21546280D01*
D12*
%TO.C,FB24*%
X108593180Y-44942857D02*
X108326514Y-44942857D01*
X108326514Y-45361904D02*
X108326514Y-44561904D01*
X108707466Y-44561904D01*
X109278895Y-44942857D02*
X109393180Y-44980952D01*
X109431276Y-45019047D01*
X109469371Y-45095238D01*
X109469371Y-45209523D01*
X109431276Y-45285714D01*
X109393180Y-45323809D01*
X109316990Y-45361904D01*
X109012228Y-45361904D01*
X109012228Y-44561904D01*
X109278895Y-44561904D01*
X109355085Y-44600000D01*
X109393180Y-44638095D01*
X109431276Y-44714285D01*
X109431276Y-44790476D01*
X109393180Y-44866666D01*
X109355085Y-44904761D01*
X109278895Y-44942857D01*
X109012228Y-44942857D01*
X109774133Y-44638095D02*
X109812228Y-44600000D01*
X109888419Y-44561904D01*
X110078895Y-44561904D01*
X110155085Y-44600000D01*
X110193180Y-44638095D01*
X110231276Y-44714285D01*
X110231276Y-44790476D01*
X110193180Y-44904761D01*
X109736038Y-45361904D01*
X110231276Y-45361904D01*
X110916990Y-44828571D02*
X110916990Y-45361904D01*
X110726514Y-44523809D02*
X110536038Y-45095238D01*
X111031276Y-45095238D01*
%TO.C,R32*%
X118131214Y-51707904D02*
X117864547Y-51326952D01*
X117674071Y-51707904D02*
X117674071Y-50907904D01*
X117978833Y-50907904D01*
X118055023Y-50946000D01*
X118093119Y-50984095D01*
X118131214Y-51060285D01*
X118131214Y-51174571D01*
X118093119Y-51250761D01*
X118055023Y-51288857D01*
X117978833Y-51326952D01*
X117674071Y-51326952D01*
X118397880Y-50907904D02*
X118893119Y-50907904D01*
X118626452Y-51212666D01*
X118740738Y-51212666D01*
X118816928Y-51250761D01*
X118855023Y-51288857D01*
X118893119Y-51365047D01*
X118893119Y-51555523D01*
X118855023Y-51631714D01*
X118816928Y-51669809D01*
X118740738Y-51707904D01*
X118512166Y-51707904D01*
X118435976Y-51669809D01*
X118397880Y-51631714D01*
X119197880Y-50984095D02*
X119235976Y-50946000D01*
X119312166Y-50907904D01*
X119502642Y-50907904D01*
X119578833Y-50946000D01*
X119616928Y-50984095D01*
X119655023Y-51060285D01*
X119655023Y-51136476D01*
X119616928Y-51250761D01*
X119159785Y-51707904D01*
X119655023Y-51707904D01*
%TO.C,R28*%
X109561904Y-82656285D02*
X109180952Y-82922952D01*
X109561904Y-83113428D02*
X108761904Y-83113428D01*
X108761904Y-82808666D01*
X108800000Y-82732476D01*
X108838095Y-82694380D01*
X108914285Y-82656285D01*
X109028571Y-82656285D01*
X109104761Y-82694380D01*
X109142857Y-82732476D01*
X109180952Y-82808666D01*
X109180952Y-83113428D01*
X108838095Y-82351523D02*
X108800000Y-82313428D01*
X108761904Y-82237238D01*
X108761904Y-82046761D01*
X108800000Y-81970571D01*
X108838095Y-81932476D01*
X108914285Y-81894380D01*
X108990476Y-81894380D01*
X109104761Y-81932476D01*
X109561904Y-82389619D01*
X109561904Y-81894380D01*
X109104761Y-81437238D02*
X109066666Y-81513428D01*
X109028571Y-81551523D01*
X108952380Y-81589619D01*
X108914285Y-81589619D01*
X108838095Y-81551523D01*
X108800000Y-81513428D01*
X108761904Y-81437238D01*
X108761904Y-81284857D01*
X108800000Y-81208666D01*
X108838095Y-81170571D01*
X108914285Y-81132476D01*
X108952380Y-81132476D01*
X109028571Y-81170571D01*
X109066666Y-81208666D01*
X109104761Y-81284857D01*
X109104761Y-81437238D01*
X109142857Y-81513428D01*
X109180952Y-81551523D01*
X109257142Y-81589619D01*
X109409523Y-81589619D01*
X109485714Y-81551523D01*
X109523809Y-81513428D01*
X109561904Y-81437238D01*
X109561904Y-81284857D01*
X109523809Y-81208666D01*
X109485714Y-81170571D01*
X109409523Y-81132476D01*
X109257142Y-81132476D01*
X109180952Y-81170571D01*
X109142857Y-81208666D01*
X109104761Y-81284857D01*
%TO.C,C15*%
X86336714Y-71366714D02*
X86298619Y-71404809D01*
X86184333Y-71442904D01*
X86108142Y-71442904D01*
X85993857Y-71404809D01*
X85917666Y-71328619D01*
X85879571Y-71252428D01*
X85841476Y-71100047D01*
X85841476Y-70985761D01*
X85879571Y-70833380D01*
X85917666Y-70757190D01*
X85993857Y-70681000D01*
X86108142Y-70642904D01*
X86184333Y-70642904D01*
X86298619Y-70681000D01*
X86336714Y-70719095D01*
X87098619Y-71442904D02*
X86641476Y-71442904D01*
X86870047Y-71442904D02*
X86870047Y-70642904D01*
X86793857Y-70757190D01*
X86717666Y-70833380D01*
X86641476Y-70871476D01*
X87822428Y-70642904D02*
X87441476Y-70642904D01*
X87403380Y-71023857D01*
X87441476Y-70985761D01*
X87517666Y-70947666D01*
X87708142Y-70947666D01*
X87784333Y-70985761D01*
X87822428Y-71023857D01*
X87860523Y-71100047D01*
X87860523Y-71290523D01*
X87822428Y-71366714D01*
X87784333Y-71404809D01*
X87708142Y-71442904D01*
X87517666Y-71442904D01*
X87441476Y-71404809D01*
X87403380Y-71366714D01*
%TO.C,R1*%
X122744904Y-102924333D02*
X122363952Y-103191000D01*
X122744904Y-103381476D02*
X121944904Y-103381476D01*
X121944904Y-103076714D01*
X121983000Y-103000523D01*
X122021095Y-102962428D01*
X122097285Y-102924333D01*
X122211571Y-102924333D01*
X122287761Y-102962428D01*
X122325857Y-103000523D01*
X122363952Y-103076714D01*
X122363952Y-103381476D01*
X122744904Y-102162428D02*
X122744904Y-102619571D01*
X122744904Y-102391000D02*
X121944904Y-102391000D01*
X122059190Y-102467190D01*
X122135380Y-102543380D01*
X122173476Y-102619571D01*
%TO.C,D25*%
X104230791Y-48806904D02*
X104230791Y-48006904D01*
X104421267Y-48006904D01*
X104535553Y-48045000D01*
X104611743Y-48121190D01*
X104649839Y-48197380D01*
X104687934Y-48349761D01*
X104687934Y-48464047D01*
X104649839Y-48616428D01*
X104611743Y-48692619D01*
X104535553Y-48768809D01*
X104421267Y-48806904D01*
X104230791Y-48806904D01*
X104992696Y-48083095D02*
X105030791Y-48045000D01*
X105106981Y-48006904D01*
X105297458Y-48006904D01*
X105373648Y-48045000D01*
X105411743Y-48083095D01*
X105449839Y-48159285D01*
X105449839Y-48235476D01*
X105411743Y-48349761D01*
X104954600Y-48806904D01*
X105449839Y-48806904D01*
X106173648Y-48006904D02*
X105792696Y-48006904D01*
X105754600Y-48387857D01*
X105792696Y-48349761D01*
X105868886Y-48311666D01*
X106059362Y-48311666D01*
X106135553Y-48349761D01*
X106173648Y-48387857D01*
X106211743Y-48464047D01*
X106211743Y-48654523D01*
X106173648Y-48730714D01*
X106135553Y-48768809D01*
X106059362Y-48806904D01*
X105868886Y-48806904D01*
X105792696Y-48768809D01*
X105754600Y-48730714D01*
D14*
%TO.C,PU_EN21*%
X110460393Y-85019758D02*
X110460393Y-84219758D01*
X110765155Y-84219758D01*
X110841345Y-84257854D01*
X110879441Y-84295949D01*
X110917536Y-84372139D01*
X110917536Y-84486425D01*
X110879441Y-84562615D01*
X110841345Y-84600711D01*
X110765155Y-84638806D01*
X110460393Y-84638806D01*
X111260393Y-84219758D02*
X111260393Y-84867377D01*
X111298488Y-84943568D01*
X111336584Y-84981663D01*
X111412774Y-85019758D01*
X111565155Y-85019758D01*
X111641345Y-84981663D01*
X111679441Y-84943568D01*
X111717536Y-84867377D01*
X111717536Y-84219758D01*
X111908012Y-85095949D02*
X112517536Y-85095949D01*
X112708012Y-84600711D02*
X112974679Y-84600711D01*
X113088964Y-85019758D02*
X112708012Y-85019758D01*
X112708012Y-84219758D01*
X113088964Y-84219758D01*
X113431822Y-85019758D02*
X113431822Y-84219758D01*
X113888964Y-85019758D01*
X113888964Y-84219758D01*
X114231822Y-84295949D02*
X114269917Y-84257854D01*
X114346107Y-84219758D01*
X114536584Y-84219758D01*
X114612774Y-84257854D01*
X114650869Y-84295949D01*
X114688964Y-84372139D01*
X114688964Y-84448330D01*
X114650869Y-84562615D01*
X114193726Y-85019758D01*
X114688964Y-85019758D01*
X115450869Y-85019758D02*
X114993726Y-85019758D01*
X115222298Y-85019758D02*
X115222298Y-84219758D01*
X115146107Y-84334044D01*
X115069917Y-84410234D01*
X114993726Y-84448330D01*
D12*
%TO.C,T\u002AC15*%
X86088761Y-88701904D02*
X86545904Y-88701904D01*
X86317333Y-89501904D02*
X86317333Y-88701904D01*
X86926857Y-88701904D02*
X86926857Y-88892380D01*
X86736380Y-88816190D02*
X86926857Y-88892380D01*
X87117333Y-88816190D01*
X86812571Y-89044761D02*
X86926857Y-88892380D01*
X87041142Y-89044761D01*
X87879238Y-89425714D02*
X87841142Y-89463809D01*
X87726857Y-89501904D01*
X87650666Y-89501904D01*
X87536380Y-89463809D01*
X87460190Y-89387619D01*
X87422095Y-89311428D01*
X87384000Y-89159047D01*
X87384000Y-89044761D01*
X87422095Y-88892380D01*
X87460190Y-88816190D01*
X87536380Y-88740000D01*
X87650666Y-88701904D01*
X87726857Y-88701904D01*
X87841142Y-88740000D01*
X87879238Y-88778095D01*
X88641142Y-89501904D02*
X88184000Y-89501904D01*
X88412571Y-89501904D02*
X88412571Y-88701904D01*
X88336380Y-88816190D01*
X88260190Y-88892380D01*
X88184000Y-88930476D01*
X89364952Y-88701904D02*
X88984000Y-88701904D01*
X88945904Y-89082857D01*
X88984000Y-89044761D01*
X89060190Y-89006666D01*
X89250666Y-89006666D01*
X89326857Y-89044761D01*
X89364952Y-89082857D01*
X89403047Y-89159047D01*
X89403047Y-89349523D01*
X89364952Y-89425714D01*
X89326857Y-89463809D01*
X89250666Y-89501904D01*
X89060190Y-89501904D01*
X88984000Y-89463809D01*
X88945904Y-89425714D01*
%TO.C,FB21*%
X122172380Y-44942857D02*
X121905714Y-44942857D01*
X121905714Y-45361904D02*
X121905714Y-44561904D01*
X122286666Y-44561904D01*
X122858095Y-44942857D02*
X122972380Y-44980952D01*
X123010476Y-45019047D01*
X123048571Y-45095238D01*
X123048571Y-45209523D01*
X123010476Y-45285714D01*
X122972380Y-45323809D01*
X122896190Y-45361904D01*
X122591428Y-45361904D01*
X122591428Y-44561904D01*
X122858095Y-44561904D01*
X122934285Y-44600000D01*
X122972380Y-44638095D01*
X123010476Y-44714285D01*
X123010476Y-44790476D01*
X122972380Y-44866666D01*
X122934285Y-44904761D01*
X122858095Y-44942857D01*
X122591428Y-44942857D01*
X123353333Y-44638095D02*
X123391428Y-44600000D01*
X123467619Y-44561904D01*
X123658095Y-44561904D01*
X123734285Y-44600000D01*
X123772380Y-44638095D01*
X123810476Y-44714285D01*
X123810476Y-44790476D01*
X123772380Y-44904761D01*
X123315238Y-45361904D01*
X123810476Y-45361904D01*
X124572380Y-45361904D02*
X124115238Y-45361904D01*
X124343809Y-45361904D02*
X124343809Y-44561904D01*
X124267619Y-44676190D01*
X124191428Y-44752380D01*
X124115238Y-44790476D01*
%TO.C,T\u002AC9*%
X82795904Y-89954285D02*
X82795904Y-89497142D01*
X83595904Y-89725714D02*
X82795904Y-89725714D01*
X82795904Y-89116190D02*
X82986380Y-89116190D01*
X82910190Y-89306666D02*
X82986380Y-89116190D01*
X82910190Y-88925714D01*
X83138761Y-89230476D02*
X82986380Y-89116190D01*
X83138761Y-89001904D01*
X83519714Y-88163809D02*
X83557809Y-88201904D01*
X83595904Y-88316190D01*
X83595904Y-88392380D01*
X83557809Y-88506666D01*
X83481619Y-88582857D01*
X83405428Y-88620952D01*
X83253047Y-88659047D01*
X83138761Y-88659047D01*
X82986380Y-88620952D01*
X82910190Y-88582857D01*
X82834000Y-88506666D01*
X82795904Y-88392380D01*
X82795904Y-88316190D01*
X82834000Y-88201904D01*
X82872095Y-88163809D01*
X83595904Y-87782857D02*
X83595904Y-87630476D01*
X83557809Y-87554285D01*
X83519714Y-87516190D01*
X83405428Y-87440000D01*
X83253047Y-87401904D01*
X82948285Y-87401904D01*
X82872095Y-87440000D01*
X82834000Y-87478095D01*
X82795904Y-87554285D01*
X82795904Y-87706666D01*
X82834000Y-87782857D01*
X82872095Y-87820952D01*
X82948285Y-87859047D01*
X83138761Y-87859047D01*
X83214952Y-87820952D01*
X83253047Y-87782857D01*
X83291142Y-87706666D01*
X83291142Y-87554285D01*
X83253047Y-87478095D01*
X83214952Y-87440000D01*
X83138761Y-87401904D01*
%TO.C,C26*%
X100097214Y-54425714D02*
X100059119Y-54463809D01*
X99944833Y-54501904D01*
X99868642Y-54501904D01*
X99754357Y-54463809D01*
X99678166Y-54387619D01*
X99640071Y-54311428D01*
X99601976Y-54159047D01*
X99601976Y-54044761D01*
X99640071Y-53892380D01*
X99678166Y-53816190D01*
X99754357Y-53740000D01*
X99868642Y-53701904D01*
X99944833Y-53701904D01*
X100059119Y-53740000D01*
X100097214Y-53778095D01*
X100401976Y-53778095D02*
X100440071Y-53740000D01*
X100516261Y-53701904D01*
X100706738Y-53701904D01*
X100782928Y-53740000D01*
X100821023Y-53778095D01*
X100859119Y-53854285D01*
X100859119Y-53930476D01*
X100821023Y-54044761D01*
X100363880Y-54501904D01*
X100859119Y-54501904D01*
X101544833Y-53701904D02*
X101392452Y-53701904D01*
X101316261Y-53740000D01*
X101278166Y-53778095D01*
X101201976Y-53892380D01*
X101163880Y-54044761D01*
X101163880Y-54349523D01*
X101201976Y-54425714D01*
X101240071Y-54463809D01*
X101316261Y-54501904D01*
X101468642Y-54501904D01*
X101544833Y-54463809D01*
X101582928Y-54425714D01*
X101621023Y-54349523D01*
X101621023Y-54159047D01*
X101582928Y-54082857D01*
X101544833Y-54044761D01*
X101468642Y-54006666D01*
X101316261Y-54006666D01*
X101240071Y-54044761D01*
X101201976Y-54082857D01*
X101163880Y-54159047D01*
%TO.C,C3*%
X121767142Y-66714666D02*
X121814761Y-66762285D01*
X121862380Y-66905142D01*
X121862380Y-67000380D01*
X121814761Y-67143238D01*
X121719523Y-67238476D01*
X121624285Y-67286095D01*
X121433809Y-67333714D01*
X121290952Y-67333714D01*
X121100476Y-67286095D01*
X121005238Y-67238476D01*
X120910000Y-67143238D01*
X120862380Y-67000380D01*
X120862380Y-66905142D01*
X120910000Y-66762285D01*
X120957619Y-66714666D01*
X120862380Y-66381333D02*
X120862380Y-65762285D01*
X121243333Y-66095619D01*
X121243333Y-65952761D01*
X121290952Y-65857523D01*
X121338571Y-65809904D01*
X121433809Y-65762285D01*
X121671904Y-65762285D01*
X121767142Y-65809904D01*
X121814761Y-65857523D01*
X121862380Y-65952761D01*
X121862380Y-66238476D01*
X121814761Y-66333714D01*
X121767142Y-66381333D01*
%TO.C,C22*%
X118152714Y-54425714D02*
X118114619Y-54463809D01*
X118000333Y-54501904D01*
X117924142Y-54501904D01*
X117809857Y-54463809D01*
X117733666Y-54387619D01*
X117695571Y-54311428D01*
X117657476Y-54159047D01*
X117657476Y-54044761D01*
X117695571Y-53892380D01*
X117733666Y-53816190D01*
X117809857Y-53740000D01*
X117924142Y-53701904D01*
X118000333Y-53701904D01*
X118114619Y-53740000D01*
X118152714Y-53778095D01*
X118457476Y-53778095D02*
X118495571Y-53740000D01*
X118571761Y-53701904D01*
X118762238Y-53701904D01*
X118838428Y-53740000D01*
X118876523Y-53778095D01*
X118914619Y-53854285D01*
X118914619Y-53930476D01*
X118876523Y-54044761D01*
X118419380Y-54501904D01*
X118914619Y-54501904D01*
X119219380Y-53778095D02*
X119257476Y-53740000D01*
X119333666Y-53701904D01*
X119524142Y-53701904D01*
X119600333Y-53740000D01*
X119638428Y-53778095D01*
X119676523Y-53854285D01*
X119676523Y-53930476D01*
X119638428Y-54044761D01*
X119181285Y-54501904D01*
X119676523Y-54501904D01*
%TO.C,C14*%
X82627714Y-51643714D02*
X82589619Y-51681809D01*
X82475333Y-51719904D01*
X82399142Y-51719904D01*
X82284857Y-51681809D01*
X82208666Y-51605619D01*
X82170571Y-51529428D01*
X82132476Y-51377047D01*
X82132476Y-51262761D01*
X82170571Y-51110380D01*
X82208666Y-51034190D01*
X82284857Y-50958000D01*
X82399142Y-50919904D01*
X82475333Y-50919904D01*
X82589619Y-50958000D01*
X82627714Y-50996095D01*
X83389619Y-51719904D02*
X82932476Y-51719904D01*
X83161047Y-51719904D02*
X83161047Y-50919904D01*
X83084857Y-51034190D01*
X83008666Y-51110380D01*
X82932476Y-51148476D01*
X84075333Y-51186571D02*
X84075333Y-51719904D01*
X83884857Y-50881809D02*
X83694380Y-51453238D01*
X84189619Y-51453238D01*
%TO.C,C25*%
X104690714Y-54425714D02*
X104652619Y-54463809D01*
X104538333Y-54501904D01*
X104462142Y-54501904D01*
X104347857Y-54463809D01*
X104271666Y-54387619D01*
X104233571Y-54311428D01*
X104195476Y-54159047D01*
X104195476Y-54044761D01*
X104233571Y-53892380D01*
X104271666Y-53816190D01*
X104347857Y-53740000D01*
X104462142Y-53701904D01*
X104538333Y-53701904D01*
X104652619Y-53740000D01*
X104690714Y-53778095D01*
X104995476Y-53778095D02*
X105033571Y-53740000D01*
X105109761Y-53701904D01*
X105300238Y-53701904D01*
X105376428Y-53740000D01*
X105414523Y-53778095D01*
X105452619Y-53854285D01*
X105452619Y-53930476D01*
X105414523Y-54044761D01*
X104957380Y-54501904D01*
X105452619Y-54501904D01*
X106176428Y-53701904D02*
X105795476Y-53701904D01*
X105757380Y-54082857D01*
X105795476Y-54044761D01*
X105871666Y-54006666D01*
X106062142Y-54006666D01*
X106138333Y-54044761D01*
X106176428Y-54082857D01*
X106214523Y-54159047D01*
X106214523Y-54349523D01*
X106176428Y-54425714D01*
X106138333Y-54463809D01*
X106062142Y-54501904D01*
X105871666Y-54501904D01*
X105795476Y-54463809D01*
X105757380Y-54425714D01*
%TO.C,T\u002AC6*%
X96694052Y-83634154D02*
X97017301Y-83310905D01*
X97421362Y-84038215D02*
X96855676Y-83472529D01*
X97286675Y-83041531D02*
X97421362Y-83176218D01*
X97232800Y-83257030D02*
X97421362Y-83176218D01*
X97502174Y-82987656D01*
X97448299Y-83364780D02*
X97421362Y-83176218D01*
X97609924Y-83203155D01*
X98471921Y-82879906D02*
X98471921Y-82933781D01*
X98418046Y-83041531D01*
X98364171Y-83095406D01*
X98256421Y-83149281D01*
X98148672Y-83149281D01*
X98067860Y-83122343D01*
X97933172Y-83041531D01*
X97852360Y-82960719D01*
X97771548Y-82826032D01*
X97744611Y-82745219D01*
X97744611Y-82637470D01*
X97798485Y-82529720D01*
X97852360Y-82475845D01*
X97960110Y-82421971D01*
X98013985Y-82421971D01*
X98444983Y-81883223D02*
X98337234Y-81990972D01*
X98310296Y-82071784D01*
X98310296Y-82125659D01*
X98337234Y-82260346D01*
X98418046Y-82395033D01*
X98633545Y-82610532D01*
X98714357Y-82637470D01*
X98768232Y-82637470D01*
X98849044Y-82610532D01*
X98956794Y-82502783D01*
X98983731Y-82421971D01*
X98983731Y-82368096D01*
X98956794Y-82287284D01*
X98822107Y-82152597D01*
X98741295Y-82125659D01*
X98687420Y-82125659D01*
X98606608Y-82152597D01*
X98498858Y-82260346D01*
X98471921Y-82341158D01*
X98471921Y-82395033D01*
X98498858Y-82475845D01*
%TO.C,C2*%
X127609142Y-60618666D02*
X127656761Y-60666285D01*
X127704380Y-60809142D01*
X127704380Y-60904380D01*
X127656761Y-61047238D01*
X127561523Y-61142476D01*
X127466285Y-61190095D01*
X127275809Y-61237714D01*
X127132952Y-61237714D01*
X126942476Y-61190095D01*
X126847238Y-61142476D01*
X126752000Y-61047238D01*
X126704380Y-60904380D01*
X126704380Y-60809142D01*
X126752000Y-60666285D01*
X126799619Y-60618666D01*
X126799619Y-60237714D02*
X126752000Y-60190095D01*
X126704380Y-60094857D01*
X126704380Y-59856761D01*
X126752000Y-59761523D01*
X126799619Y-59713904D01*
X126894857Y-59666285D01*
X126990095Y-59666285D01*
X127132952Y-59713904D01*
X127704380Y-60285333D01*
X127704380Y-59666285D01*
%TO.C,C1*%
X127434991Y-71032666D02*
X127482610Y-71080285D01*
X127530229Y-71223142D01*
X127530229Y-71318380D01*
X127482610Y-71461238D01*
X127387372Y-71556476D01*
X127292134Y-71604095D01*
X127101658Y-71651714D01*
X126958801Y-71651714D01*
X126768325Y-71604095D01*
X126673087Y-71556476D01*
X126577849Y-71461238D01*
X126530229Y-71318380D01*
X126530229Y-71223142D01*
X126577849Y-71080285D01*
X126625468Y-71032666D01*
X127530229Y-70080285D02*
X127530229Y-70651714D01*
X127530229Y-70366000D02*
X126530229Y-70366000D01*
X126673087Y-70461238D01*
X126768325Y-70556476D01*
X126815944Y-70651714D01*
%TO.C,U18*%
X86645904Y-95092380D02*
X86645904Y-95901904D01*
X86693523Y-95997142D01*
X86741142Y-96044761D01*
X86836380Y-96092380D01*
X87026857Y-96092380D01*
X87122095Y-96044761D01*
X87169714Y-95997142D01*
X87217333Y-95901904D01*
X87217333Y-95092380D01*
X88217333Y-96092380D02*
X87645904Y-96092380D01*
X87931619Y-96092380D02*
X87931619Y-95092380D01*
X87836380Y-95235238D01*
X87741142Y-95330476D01*
X87645904Y-95378095D01*
X88788761Y-95520952D02*
X88693523Y-95473333D01*
X88645904Y-95425714D01*
X88598285Y-95330476D01*
X88598285Y-95282857D01*
X88645904Y-95187619D01*
X88693523Y-95140000D01*
X88788761Y-95092380D01*
X88979238Y-95092380D01*
X89074476Y-95140000D01*
X89122095Y-95187619D01*
X89169714Y-95282857D01*
X89169714Y-95330476D01*
X89122095Y-95425714D01*
X89074476Y-95473333D01*
X88979238Y-95520952D01*
X88788761Y-95520952D01*
X88693523Y-95568571D01*
X88645904Y-95616190D01*
X88598285Y-95711428D01*
X88598285Y-95901904D01*
X88645904Y-95997142D01*
X88693523Y-96044761D01*
X88788761Y-96092380D01*
X88979238Y-96092380D01*
X89074476Y-96044761D01*
X89122095Y-95997142D01*
X89169714Y-95901904D01*
X89169714Y-95711428D01*
X89122095Y-95616190D01*
X89074476Y-95568571D01*
X88979238Y-95520952D01*
%TO.C,T\u002AC11*%
X95283528Y-68845321D02*
X94960279Y-68522072D01*
X95687589Y-68118011D02*
X95121903Y-68683697D01*
X94690905Y-68252698D02*
X94825592Y-68118011D01*
X94906404Y-68306573D02*
X94825592Y-68118011D01*
X94637030Y-68037199D01*
X95014154Y-68091074D02*
X94825592Y-68118011D01*
X94852529Y-67929449D01*
X94529281Y-67067452D02*
X94583155Y-67067452D01*
X94690905Y-67121327D01*
X94744780Y-67175202D01*
X94798655Y-67282952D01*
X94798655Y-67390701D01*
X94771717Y-67471514D01*
X94690905Y-67606201D01*
X94610093Y-67687013D01*
X94475406Y-67767825D01*
X94394594Y-67794762D01*
X94286844Y-67794762D01*
X94179094Y-67740888D01*
X94125219Y-67687013D01*
X94071345Y-67579263D01*
X94071345Y-67525388D01*
X94044407Y-66474830D02*
X94367656Y-66798078D01*
X94206032Y-66636454D02*
X93640346Y-67202139D01*
X93775033Y-67175202D01*
X93882783Y-67175202D01*
X93963595Y-67202139D01*
X93505659Y-65936082D02*
X93828908Y-66259330D01*
X93667284Y-66097706D02*
X93101598Y-66663391D01*
X93236285Y-66636454D01*
X93344035Y-66636454D01*
X93424847Y-66663391D01*
%TO.C,C20*%
X99915714Y-87173714D02*
X99877619Y-87211809D01*
X99763333Y-87249904D01*
X99687142Y-87249904D01*
X99572857Y-87211809D01*
X99496666Y-87135619D01*
X99458571Y-87059428D01*
X99420476Y-86907047D01*
X99420476Y-86792761D01*
X99458571Y-86640380D01*
X99496666Y-86564190D01*
X99572857Y-86488000D01*
X99687142Y-86449904D01*
X99763333Y-86449904D01*
X99877619Y-86488000D01*
X99915714Y-86526095D01*
X100220476Y-86526095D02*
X100258571Y-86488000D01*
X100334761Y-86449904D01*
X100525238Y-86449904D01*
X100601428Y-86488000D01*
X100639523Y-86526095D01*
X100677619Y-86602285D01*
X100677619Y-86678476D01*
X100639523Y-86792761D01*
X100182380Y-87249904D01*
X100677619Y-87249904D01*
X101172857Y-86449904D02*
X101249047Y-86449904D01*
X101325238Y-86488000D01*
X101363333Y-86526095D01*
X101401428Y-86602285D01*
X101439523Y-86754666D01*
X101439523Y-86945142D01*
X101401428Y-87097523D01*
X101363333Y-87173714D01*
X101325238Y-87211809D01*
X101249047Y-87249904D01*
X101172857Y-87249904D01*
X101096666Y-87211809D01*
X101058571Y-87173714D01*
X101020476Y-87097523D01*
X100982380Y-86945142D01*
X100982380Y-86754666D01*
X101020476Y-86602285D01*
X101058571Y-86526095D01*
X101096666Y-86488000D01*
X101172857Y-86449904D01*
%TO.C,C16*%
X84735714Y-74645714D02*
X84697619Y-74683809D01*
X84583333Y-74721904D01*
X84507142Y-74721904D01*
X84392857Y-74683809D01*
X84316666Y-74607619D01*
X84278571Y-74531428D01*
X84240476Y-74379047D01*
X84240476Y-74264761D01*
X84278571Y-74112380D01*
X84316666Y-74036190D01*
X84392857Y-73960000D01*
X84507142Y-73921904D01*
X84583333Y-73921904D01*
X84697619Y-73960000D01*
X84735714Y-73998095D01*
X85497619Y-74721904D02*
X85040476Y-74721904D01*
X85269047Y-74721904D02*
X85269047Y-73921904D01*
X85192857Y-74036190D01*
X85116666Y-74112380D01*
X85040476Y-74150476D01*
X86183333Y-73921904D02*
X86030952Y-73921904D01*
X85954761Y-73960000D01*
X85916666Y-73998095D01*
X85840476Y-74112380D01*
X85802380Y-74264761D01*
X85802380Y-74569523D01*
X85840476Y-74645714D01*
X85878571Y-74683809D01*
X85954761Y-74721904D01*
X86107142Y-74721904D01*
X86183333Y-74683809D01*
X86221428Y-74645714D01*
X86259523Y-74569523D01*
X86259523Y-74379047D01*
X86221428Y-74302857D01*
X86183333Y-74264761D01*
X86107142Y-74226666D01*
X85954761Y-74226666D01*
X85878571Y-74264761D01*
X85840476Y-74302857D01*
X85802380Y-74379047D01*
%TO.C,T\u002AC16*%
X119014761Y-90501904D02*
X119471904Y-90501904D01*
X119243333Y-91301904D02*
X119243333Y-90501904D01*
X119852857Y-90501904D02*
X119852857Y-90692380D01*
X119662380Y-90616190D02*
X119852857Y-90692380D01*
X120043333Y-90616190D01*
X119738571Y-90844761D02*
X119852857Y-90692380D01*
X119967142Y-90844761D01*
X120805238Y-91225714D02*
X120767142Y-91263809D01*
X120652857Y-91301904D01*
X120576666Y-91301904D01*
X120462380Y-91263809D01*
X120386190Y-91187619D01*
X120348095Y-91111428D01*
X120310000Y-90959047D01*
X120310000Y-90844761D01*
X120348095Y-90692380D01*
X120386190Y-90616190D01*
X120462380Y-90540000D01*
X120576666Y-90501904D01*
X120652857Y-90501904D01*
X120767142Y-90540000D01*
X120805238Y-90578095D01*
X121567142Y-91301904D02*
X121110000Y-91301904D01*
X121338571Y-91301904D02*
X121338571Y-90501904D01*
X121262380Y-90616190D01*
X121186190Y-90692380D01*
X121110000Y-90730476D01*
X122252857Y-90501904D02*
X122100476Y-90501904D01*
X122024285Y-90540000D01*
X121986190Y-90578095D01*
X121910000Y-90692380D01*
X121871904Y-90844761D01*
X121871904Y-91149523D01*
X121910000Y-91225714D01*
X121948095Y-91263809D01*
X122024285Y-91301904D01*
X122176666Y-91301904D01*
X122252857Y-91263809D01*
X122290952Y-91225714D01*
X122329047Y-91149523D01*
X122329047Y-90959047D01*
X122290952Y-90882857D01*
X122252857Y-90844761D01*
X122176666Y-90806666D01*
X122024285Y-90806666D01*
X121948095Y-90844761D01*
X121910000Y-90882857D01*
X121871904Y-90959047D01*
%TO.C,FB25*%
X104066780Y-44942857D02*
X103800114Y-44942857D01*
X103800114Y-45361904D02*
X103800114Y-44561904D01*
X104181066Y-44561904D01*
X104752495Y-44942857D02*
X104866780Y-44980952D01*
X104904876Y-45019047D01*
X104942971Y-45095238D01*
X104942971Y-45209523D01*
X104904876Y-45285714D01*
X104866780Y-45323809D01*
X104790590Y-45361904D01*
X104485828Y-45361904D01*
X104485828Y-44561904D01*
X104752495Y-44561904D01*
X104828685Y-44600000D01*
X104866780Y-44638095D01*
X104904876Y-44714285D01*
X104904876Y-44790476D01*
X104866780Y-44866666D01*
X104828685Y-44904761D01*
X104752495Y-44942857D01*
X104485828Y-44942857D01*
X105247733Y-44638095D02*
X105285828Y-44600000D01*
X105362019Y-44561904D01*
X105552495Y-44561904D01*
X105628685Y-44600000D01*
X105666780Y-44638095D01*
X105704876Y-44714285D01*
X105704876Y-44790476D01*
X105666780Y-44904761D01*
X105209638Y-45361904D01*
X105704876Y-45361904D01*
X106428685Y-44561904D02*
X106047733Y-44561904D01*
X106009638Y-44942857D01*
X106047733Y-44904761D01*
X106123923Y-44866666D01*
X106314400Y-44866666D01*
X106390590Y-44904761D01*
X106428685Y-44942857D01*
X106466780Y-45019047D01*
X106466780Y-45209523D01*
X106428685Y-45285714D01*
X106390590Y-45323809D01*
X106314400Y-45361904D01*
X106123923Y-45361904D01*
X106047733Y-45323809D01*
X106009638Y-45285714D01*
%TO.C,T\u002AC4*%
X105713904Y-86463785D02*
X105713904Y-86006642D01*
X106513904Y-86235214D02*
X105713904Y-86235214D01*
X105713904Y-85625690D02*
X105904380Y-85625690D01*
X105828190Y-85816166D02*
X105904380Y-85625690D01*
X105828190Y-85435214D01*
X106056761Y-85739976D02*
X105904380Y-85625690D01*
X106056761Y-85511404D01*
X106437714Y-84673309D02*
X106475809Y-84711404D01*
X106513904Y-84825690D01*
X106513904Y-84901880D01*
X106475809Y-85016166D01*
X106399619Y-85092357D01*
X106323428Y-85130452D01*
X106171047Y-85168547D01*
X106056761Y-85168547D01*
X105904380Y-85130452D01*
X105828190Y-85092357D01*
X105752000Y-85016166D01*
X105713904Y-84901880D01*
X105713904Y-84825690D01*
X105752000Y-84711404D01*
X105790095Y-84673309D01*
X105980571Y-83987595D02*
X106513904Y-83987595D01*
X105675809Y-84178071D02*
X106247238Y-84368547D01*
X106247238Y-83873309D01*
%TO.C,C11*%
X94798214Y-51643714D02*
X94760119Y-51681809D01*
X94645833Y-51719904D01*
X94569642Y-51719904D01*
X94455357Y-51681809D01*
X94379166Y-51605619D01*
X94341071Y-51529428D01*
X94302976Y-51377047D01*
X94302976Y-51262761D01*
X94341071Y-51110380D01*
X94379166Y-51034190D01*
X94455357Y-50958000D01*
X94569642Y-50919904D01*
X94645833Y-50919904D01*
X94760119Y-50958000D01*
X94798214Y-50996095D01*
X95560119Y-51719904D02*
X95102976Y-51719904D01*
X95331547Y-51719904D02*
X95331547Y-50919904D01*
X95255357Y-51034190D01*
X95179166Y-51110380D01*
X95102976Y-51148476D01*
X96322023Y-51719904D02*
X95864880Y-51719904D01*
X96093452Y-51719904D02*
X96093452Y-50919904D01*
X96017261Y-51034190D01*
X95941071Y-51110380D01*
X95864880Y-51148476D01*
%TO.C,R18*%
X89300714Y-81181191D02*
X89034047Y-80800239D01*
X88843571Y-81181191D02*
X88843571Y-80381191D01*
X89148333Y-80381191D01*
X89224523Y-80419287D01*
X89262619Y-80457382D01*
X89300714Y-80533572D01*
X89300714Y-80647858D01*
X89262619Y-80724048D01*
X89224523Y-80762144D01*
X89148333Y-80800239D01*
X88843571Y-80800239D01*
X90062619Y-81181191D02*
X89605476Y-81181191D01*
X89834047Y-81181191D02*
X89834047Y-80381191D01*
X89757857Y-80495477D01*
X89681666Y-80571667D01*
X89605476Y-80609763D01*
X90519761Y-80724048D02*
X90443571Y-80685953D01*
X90405476Y-80647858D01*
X90367380Y-80571667D01*
X90367380Y-80533572D01*
X90405476Y-80457382D01*
X90443571Y-80419287D01*
X90519761Y-80381191D01*
X90672142Y-80381191D01*
X90748333Y-80419287D01*
X90786428Y-80457382D01*
X90824523Y-80533572D01*
X90824523Y-80571667D01*
X90786428Y-80647858D01*
X90748333Y-80685953D01*
X90672142Y-80724048D01*
X90519761Y-80724048D01*
X90443571Y-80762144D01*
X90405476Y-80800239D01*
X90367380Y-80876429D01*
X90367380Y-81028810D01*
X90405476Y-81105001D01*
X90443571Y-81143096D01*
X90519761Y-81181191D01*
X90672142Y-81181191D01*
X90748333Y-81143096D01*
X90786428Y-81105001D01*
X90824523Y-81028810D01*
X90824523Y-80876429D01*
X90786428Y-80800239D01*
X90748333Y-80762144D01*
X90672142Y-80724048D01*
%TO.C,C6*%
X114328642Y-60567666D02*
X114376261Y-60615285D01*
X114423880Y-60758142D01*
X114423880Y-60853380D01*
X114376261Y-60996238D01*
X114281023Y-61091476D01*
X114185785Y-61139095D01*
X113995309Y-61186714D01*
X113852452Y-61186714D01*
X113661976Y-61139095D01*
X113566738Y-61091476D01*
X113471500Y-60996238D01*
X113423880Y-60853380D01*
X113423880Y-60758142D01*
X113471500Y-60615285D01*
X113519119Y-60567666D01*
X113423880Y-59710523D02*
X113423880Y-59901000D01*
X113471500Y-59996238D01*
X113519119Y-60043857D01*
X113661976Y-60139095D01*
X113852452Y-60186714D01*
X114233404Y-60186714D01*
X114328642Y-60139095D01*
X114376261Y-60091476D01*
X114423880Y-59996238D01*
X114423880Y-59805761D01*
X114376261Y-59710523D01*
X114328642Y-59662904D01*
X114233404Y-59615285D01*
X113995309Y-59615285D01*
X113900071Y-59662904D01*
X113852452Y-59710523D01*
X113804833Y-59805761D01*
X113804833Y-59996238D01*
X113852452Y-60091476D01*
X113900071Y-60139095D01*
X113995309Y-60186714D01*
X110675071Y-57895047D02*
X110675071Y-58656952D01*
X110294119Y-58276000D02*
X111056023Y-58276000D01*
%TO.C,C8*%
X96607333Y-63886222D02*
X96559714Y-63933841D01*
X96416857Y-63981460D01*
X96321619Y-63981460D01*
X96178761Y-63933841D01*
X96083523Y-63838603D01*
X96035904Y-63743365D01*
X95988285Y-63552889D01*
X95988285Y-63410032D01*
X96035904Y-63219556D01*
X96083523Y-63124318D01*
X96178761Y-63029080D01*
X96321619Y-62981460D01*
X96416857Y-62981460D01*
X96559714Y-63029080D01*
X96607333Y-63076699D01*
X97178761Y-63410032D02*
X97083523Y-63362413D01*
X97035904Y-63314794D01*
X96988285Y-63219556D01*
X96988285Y-63171937D01*
X97035904Y-63076699D01*
X97083523Y-63029080D01*
X97178761Y-62981460D01*
X97369238Y-62981460D01*
X97464476Y-63029080D01*
X97512095Y-63076699D01*
X97559714Y-63171937D01*
X97559714Y-63219556D01*
X97512095Y-63314794D01*
X97464476Y-63362413D01*
X97369238Y-63410032D01*
X97178761Y-63410032D01*
X97083523Y-63457651D01*
X97035904Y-63505270D01*
X96988285Y-63600508D01*
X96988285Y-63790984D01*
X97035904Y-63886222D01*
X97083523Y-63933841D01*
X97178761Y-63981460D01*
X97369238Y-63981460D01*
X97464476Y-63933841D01*
X97512095Y-63886222D01*
X97559714Y-63790984D01*
X97559714Y-63600508D01*
X97512095Y-63505270D01*
X97464476Y-63457651D01*
X97369238Y-63410032D01*
X99229952Y-61757651D02*
X98468047Y-61757651D01*
X98849000Y-61376699D02*
X98849000Y-62138603D01*
%TO.C,R11*%
X94851714Y-54508904D02*
X94585047Y-54127952D01*
X94394571Y-54508904D02*
X94394571Y-53708904D01*
X94699333Y-53708904D01*
X94775523Y-53747000D01*
X94813619Y-53785095D01*
X94851714Y-53861285D01*
X94851714Y-53975571D01*
X94813619Y-54051761D01*
X94775523Y-54089857D01*
X94699333Y-54127952D01*
X94394571Y-54127952D01*
X95613619Y-54508904D02*
X95156476Y-54508904D01*
X95385047Y-54508904D02*
X95385047Y-53708904D01*
X95308857Y-53823190D01*
X95232666Y-53899380D01*
X95156476Y-53937476D01*
X96375523Y-54508904D02*
X95918380Y-54508904D01*
X96146952Y-54508904D02*
X96146952Y-53708904D01*
X96070761Y-53823190D01*
X95994571Y-53899380D01*
X95918380Y-53937476D01*
%TO.C,FB26*%
X99540380Y-44942857D02*
X99273714Y-44942857D01*
X99273714Y-45361904D02*
X99273714Y-44561904D01*
X99654666Y-44561904D01*
X100226095Y-44942857D02*
X100340380Y-44980952D01*
X100378476Y-45019047D01*
X100416571Y-45095238D01*
X100416571Y-45209523D01*
X100378476Y-45285714D01*
X100340380Y-45323809D01*
X100264190Y-45361904D01*
X99959428Y-45361904D01*
X99959428Y-44561904D01*
X100226095Y-44561904D01*
X100302285Y-44600000D01*
X100340380Y-44638095D01*
X100378476Y-44714285D01*
X100378476Y-44790476D01*
X100340380Y-44866666D01*
X100302285Y-44904761D01*
X100226095Y-44942857D01*
X99959428Y-44942857D01*
X100721333Y-44638095D02*
X100759428Y-44600000D01*
X100835619Y-44561904D01*
X101026095Y-44561904D01*
X101102285Y-44600000D01*
X101140380Y-44638095D01*
X101178476Y-44714285D01*
X101178476Y-44790476D01*
X101140380Y-44904761D01*
X100683238Y-45361904D01*
X101178476Y-45361904D01*
X101864190Y-44561904D02*
X101711809Y-44561904D01*
X101635619Y-44600000D01*
X101597523Y-44638095D01*
X101521333Y-44752380D01*
X101483238Y-44904761D01*
X101483238Y-45209523D01*
X101521333Y-45285714D01*
X101559428Y-45323809D01*
X101635619Y-45361904D01*
X101788000Y-45361904D01*
X101864190Y-45323809D01*
X101902285Y-45285714D01*
X101940380Y-45209523D01*
X101940380Y-45019047D01*
X101902285Y-44942857D01*
X101864190Y-44904761D01*
X101788000Y-44866666D01*
X101635619Y-44866666D01*
X101559428Y-44904761D01*
X101521333Y-44942857D01*
X101483238Y-45019047D01*
D15*
%TO.C,RCA_IN1*%
X94577280Y-31129285D02*
X94101090Y-31429285D01*
X94577280Y-31643571D02*
X93577280Y-31643571D01*
X93577280Y-31300714D01*
X93624900Y-31215000D01*
X93672519Y-31172142D01*
X93767757Y-31129285D01*
X93910614Y-31129285D01*
X94005852Y-31172142D01*
X94053471Y-31215000D01*
X94101090Y-31300714D01*
X94101090Y-31643571D01*
X94482042Y-30229285D02*
X94529661Y-30272142D01*
X94577280Y-30400714D01*
X94577280Y-30486428D01*
X94529661Y-30615000D01*
X94434423Y-30700714D01*
X94339185Y-30743571D01*
X94148709Y-30786428D01*
X94005852Y-30786428D01*
X93815376Y-30743571D01*
X93720138Y-30700714D01*
X93624900Y-30615000D01*
X93577280Y-30486428D01*
X93577280Y-30400714D01*
X93624900Y-30272142D01*
X93672519Y-30229285D01*
X94291566Y-29886428D02*
X94291566Y-29457857D01*
X94577280Y-29972142D02*
X93577280Y-29672142D01*
X94577280Y-29372142D01*
X94672519Y-29286428D02*
X94672519Y-28600714D01*
X94577280Y-28386428D02*
X93577280Y-28386428D01*
X94577280Y-27957857D02*
X93577280Y-27957857D01*
X94577280Y-27443571D01*
X93577280Y-27443571D01*
X94577280Y-26543571D02*
X94577280Y-27057857D01*
X94577280Y-26800714D02*
X93577280Y-26800714D01*
X93720138Y-26886428D01*
X93815376Y-26972142D01*
X93862995Y-27057857D01*
D12*
%TO.C,T\u002AC12*%
X97104340Y-73791667D02*
X96781091Y-73468418D01*
X97508401Y-73064357D02*
X96942715Y-73630043D01*
X96511717Y-73199044D02*
X96646404Y-73064357D01*
X96727216Y-73252919D02*
X96646404Y-73064357D01*
X96457842Y-72983545D01*
X96834966Y-73037420D02*
X96646404Y-73064357D01*
X96673341Y-72875795D01*
X96350093Y-72013798D02*
X96403967Y-72013798D01*
X96511717Y-72067673D01*
X96565592Y-72121548D01*
X96619467Y-72229298D01*
X96619467Y-72337047D01*
X96592529Y-72417860D01*
X96511717Y-72552547D01*
X96430905Y-72633359D01*
X96296218Y-72714171D01*
X96215406Y-72741108D01*
X96107656Y-72741108D01*
X95999906Y-72687234D01*
X95946031Y-72633359D01*
X95892157Y-72525609D01*
X95892157Y-72471734D01*
X95865219Y-71421176D02*
X96188468Y-71744424D01*
X96026844Y-71582800D02*
X95461158Y-72148485D01*
X95595845Y-72121548D01*
X95703595Y-72121548D01*
X95784407Y-72148485D01*
X95137909Y-71717487D02*
X95084035Y-71717487D01*
X95003222Y-71690550D01*
X94868535Y-71555863D01*
X94841598Y-71475050D01*
X94841598Y-71421176D01*
X94868535Y-71340363D01*
X94922410Y-71286489D01*
X95030160Y-71232614D01*
X95676657Y-71232614D01*
X95326471Y-70882428D01*
%TO.C,board_outline1*%
X72740376Y-122652380D02*
X72740376Y-121652380D01*
X72740376Y-122033333D02*
X72835614Y-121985714D01*
X73026090Y-121985714D01*
X73121328Y-122033333D01*
X73168947Y-122080952D01*
X73216566Y-122176190D01*
X73216566Y-122461904D01*
X73168947Y-122557142D01*
X73121328Y-122604761D01*
X73026090Y-122652380D01*
X72835614Y-122652380D01*
X72740376Y-122604761D01*
X73787995Y-122652380D02*
X73692757Y-122604761D01*
X73645138Y-122557142D01*
X73597519Y-122461904D01*
X73597519Y-122176190D01*
X73645138Y-122080952D01*
X73692757Y-122033333D01*
X73787995Y-121985714D01*
X73930852Y-121985714D01*
X74026090Y-122033333D01*
X74073709Y-122080952D01*
X74121328Y-122176190D01*
X74121328Y-122461904D01*
X74073709Y-122557142D01*
X74026090Y-122604761D01*
X73930852Y-122652380D01*
X73787995Y-122652380D01*
X74978471Y-122652380D02*
X74978471Y-122128571D01*
X74930852Y-122033333D01*
X74835614Y-121985714D01*
X74645138Y-121985714D01*
X74549900Y-122033333D01*
X74978471Y-122604761D02*
X74883233Y-122652380D01*
X74645138Y-122652380D01*
X74549900Y-122604761D01*
X74502280Y-122509523D01*
X74502280Y-122414285D01*
X74549900Y-122319047D01*
X74645138Y-122271428D01*
X74883233Y-122271428D01*
X74978471Y-122223809D01*
X75454661Y-122652380D02*
X75454661Y-121985714D01*
X75454661Y-122176190D02*
X75502280Y-122080952D01*
X75549900Y-122033333D01*
X75645138Y-121985714D01*
X75740376Y-121985714D01*
X76502280Y-122652380D02*
X76502280Y-121652380D01*
X76502280Y-122604761D02*
X76407042Y-122652380D01*
X76216566Y-122652380D01*
X76121328Y-122604761D01*
X76073709Y-122557142D01*
X76026090Y-122461904D01*
X76026090Y-122176190D01*
X76073709Y-122080952D01*
X76121328Y-122033333D01*
X76216566Y-121985714D01*
X76407042Y-121985714D01*
X76502280Y-122033333D01*
X76740376Y-122747619D02*
X77502280Y-122747619D01*
X77883233Y-122652380D02*
X77787995Y-122604761D01*
X77740376Y-122557142D01*
X77692757Y-122461904D01*
X77692757Y-122176190D01*
X77740376Y-122080952D01*
X77787995Y-122033333D01*
X77883233Y-121985714D01*
X78026090Y-121985714D01*
X78121328Y-122033333D01*
X78168947Y-122080952D01*
X78216566Y-122176190D01*
X78216566Y-122461904D01*
X78168947Y-122557142D01*
X78121328Y-122604761D01*
X78026090Y-122652380D01*
X77883233Y-122652380D01*
X79073709Y-121985714D02*
X79073709Y-122652380D01*
X78645138Y-121985714D02*
X78645138Y-122509523D01*
X78692757Y-122604761D01*
X78787995Y-122652380D01*
X78930852Y-122652380D01*
X79026090Y-122604761D01*
X79073709Y-122557142D01*
X79407042Y-121985714D02*
X79787995Y-121985714D01*
X79549900Y-121652380D02*
X79549900Y-122509523D01*
X79597519Y-122604761D01*
X79692757Y-122652380D01*
X79787995Y-122652380D01*
X80264185Y-122652380D02*
X80168947Y-122604761D01*
X80121328Y-122509523D01*
X80121328Y-121652380D01*
X80645138Y-122652380D02*
X80645138Y-121985714D01*
X80645138Y-121652380D02*
X80597519Y-121700000D01*
X80645138Y-121747619D01*
X80692757Y-121700000D01*
X80645138Y-121652380D01*
X80645138Y-121747619D01*
X81121328Y-121985714D02*
X81121328Y-122652380D01*
X81121328Y-122080952D02*
X81168947Y-122033333D01*
X81264185Y-121985714D01*
X81407042Y-121985714D01*
X81502280Y-122033333D01*
X81549900Y-122128571D01*
X81549900Y-122652380D01*
X82407042Y-122604761D02*
X82311804Y-122652380D01*
X82121328Y-122652380D01*
X82026090Y-122604761D01*
X81978471Y-122509523D01*
X81978471Y-122128571D01*
X82026090Y-122033333D01*
X82121328Y-121985714D01*
X82311804Y-121985714D01*
X82407042Y-122033333D01*
X82454661Y-122128571D01*
X82454661Y-122223809D01*
X81978471Y-122319047D01*
X83407042Y-122652380D02*
X82835614Y-122652380D01*
X83121328Y-122652380D02*
X83121328Y-121652380D01*
X83026090Y-121795238D01*
X82930852Y-121890476D01*
X82835614Y-121938095D01*
%TO.C,P18*%
X86769714Y-83212380D02*
X86769714Y-82212380D01*
X87150666Y-82212380D01*
X87245904Y-82260000D01*
X87293523Y-82307619D01*
X87341142Y-82402857D01*
X87341142Y-82545714D01*
X87293523Y-82640952D01*
X87245904Y-82688571D01*
X87150666Y-82736190D01*
X86769714Y-82736190D01*
X88293523Y-83212380D02*
X87722095Y-83212380D01*
X88007809Y-83212380D02*
X88007809Y-82212380D01*
X87912571Y-82355238D01*
X87817333Y-82450476D01*
X87722095Y-82498095D01*
X88864952Y-82640952D02*
X88769714Y-82593333D01*
X88722095Y-82545714D01*
X88674476Y-82450476D01*
X88674476Y-82402857D01*
X88722095Y-82307619D01*
X88769714Y-82260000D01*
X88864952Y-82212380D01*
X89055428Y-82212380D01*
X89150666Y-82260000D01*
X89198285Y-82307619D01*
X89245904Y-82402857D01*
X89245904Y-82450476D01*
X89198285Y-82545714D01*
X89150666Y-82593333D01*
X89055428Y-82640952D01*
X88864952Y-82640952D01*
X88769714Y-82688571D01*
X88722095Y-82736190D01*
X88674476Y-82831428D01*
X88674476Y-83021904D01*
X88722095Y-83117142D01*
X88769714Y-83164761D01*
X88864952Y-83212380D01*
X89055428Y-83212380D01*
X89150666Y-83164761D01*
X89198285Y-83117142D01*
X89245904Y-83021904D01*
X89245904Y-82831428D01*
X89198285Y-82736190D01*
X89150666Y-82688571D01*
X89055428Y-82640952D01*
%TO.C,R35*%
X104690714Y-51707904D02*
X104424047Y-51326952D01*
X104233571Y-51707904D02*
X104233571Y-50907904D01*
X104538333Y-50907904D01*
X104614523Y-50946000D01*
X104652619Y-50984095D01*
X104690714Y-51060285D01*
X104690714Y-51174571D01*
X104652619Y-51250761D01*
X104614523Y-51288857D01*
X104538333Y-51326952D01*
X104233571Y-51326952D01*
X104957380Y-50907904D02*
X105452619Y-50907904D01*
X105185952Y-51212666D01*
X105300238Y-51212666D01*
X105376428Y-51250761D01*
X105414523Y-51288857D01*
X105452619Y-51365047D01*
X105452619Y-51555523D01*
X105414523Y-51631714D01*
X105376428Y-51669809D01*
X105300238Y-51707904D01*
X105071666Y-51707904D01*
X104995476Y-51669809D01*
X104957380Y-51631714D01*
X106176428Y-50907904D02*
X105795476Y-50907904D01*
X105757380Y-51288857D01*
X105795476Y-51250761D01*
X105871666Y-51212666D01*
X106062142Y-51212666D01*
X106138333Y-51250761D01*
X106176428Y-51288857D01*
X106214523Y-51365047D01*
X106214523Y-51555523D01*
X106176428Y-51631714D01*
X106138333Y-51669809D01*
X106062142Y-51707904D01*
X105871666Y-51707904D01*
X105795476Y-51669809D01*
X105757380Y-51631714D01*
%TO.C,R36*%
X100097214Y-51707904D02*
X99830547Y-51326952D01*
X99640071Y-51707904D02*
X99640071Y-50907904D01*
X99944833Y-50907904D01*
X100021023Y-50946000D01*
X100059119Y-50984095D01*
X100097214Y-51060285D01*
X100097214Y-51174571D01*
X100059119Y-51250761D01*
X100021023Y-51288857D01*
X99944833Y-51326952D01*
X99640071Y-51326952D01*
X100363880Y-50907904D02*
X100859119Y-50907904D01*
X100592452Y-51212666D01*
X100706738Y-51212666D01*
X100782928Y-51250761D01*
X100821023Y-51288857D01*
X100859119Y-51365047D01*
X100859119Y-51555523D01*
X100821023Y-51631714D01*
X100782928Y-51669809D01*
X100706738Y-51707904D01*
X100478166Y-51707904D01*
X100401976Y-51669809D01*
X100363880Y-51631714D01*
X101544833Y-50907904D02*
X101392452Y-50907904D01*
X101316261Y-50946000D01*
X101278166Y-50984095D01*
X101201976Y-51098380D01*
X101163880Y-51250761D01*
X101163880Y-51555523D01*
X101201976Y-51631714D01*
X101240071Y-51669809D01*
X101316261Y-51707904D01*
X101468642Y-51707904D01*
X101544833Y-51669809D01*
X101582928Y-51631714D01*
X101621023Y-51555523D01*
X101621023Y-51365047D01*
X101582928Y-51288857D01*
X101544833Y-51250761D01*
X101468642Y-51212666D01*
X101316261Y-51212666D01*
X101240071Y-51250761D01*
X101201976Y-51288857D01*
X101163880Y-51365047D01*
%TO.C,C24*%
X109262714Y-54425714D02*
X109224619Y-54463809D01*
X109110333Y-54501904D01*
X109034142Y-54501904D01*
X108919857Y-54463809D01*
X108843666Y-54387619D01*
X108805571Y-54311428D01*
X108767476Y-54159047D01*
X108767476Y-54044761D01*
X108805571Y-53892380D01*
X108843666Y-53816190D01*
X108919857Y-53740000D01*
X109034142Y-53701904D01*
X109110333Y-53701904D01*
X109224619Y-53740000D01*
X109262714Y-53778095D01*
X109567476Y-53778095D02*
X109605571Y-53740000D01*
X109681761Y-53701904D01*
X109872238Y-53701904D01*
X109948428Y-53740000D01*
X109986523Y-53778095D01*
X110024619Y-53854285D01*
X110024619Y-53930476D01*
X109986523Y-54044761D01*
X109529380Y-54501904D01*
X110024619Y-54501904D01*
X110710333Y-53968571D02*
X110710333Y-54501904D01*
X110519857Y-53663809D02*
X110329380Y-54235238D01*
X110824619Y-54235238D01*
%TO.C,D27*%
X97686904Y-47401428D02*
X96886904Y-47401428D01*
X96886904Y-47210952D01*
X96925000Y-47096666D01*
X97001190Y-47020476D01*
X97077380Y-46982380D01*
X97229761Y-46944285D01*
X97344047Y-46944285D01*
X97496428Y-46982380D01*
X97572619Y-47020476D01*
X97648809Y-47096666D01*
X97686904Y-47210952D01*
X97686904Y-47401428D01*
X96963095Y-46639523D02*
X96925000Y-46601428D01*
X96886904Y-46525238D01*
X96886904Y-46334761D01*
X96925000Y-46258571D01*
X96963095Y-46220476D01*
X97039285Y-46182380D01*
X97115476Y-46182380D01*
X97229761Y-46220476D01*
X97686904Y-46677619D01*
X97686904Y-46182380D01*
X96886904Y-45915714D02*
X96886904Y-45382380D01*
X97686904Y-45725238D01*
%TO.C,3105IO1*%
X126345380Y-42379500D02*
X126345380Y-41760452D01*
X126726333Y-42093785D01*
X126726333Y-41950928D01*
X126773952Y-41855690D01*
X126821571Y-41808071D01*
X126916809Y-41760452D01*
X127154904Y-41760452D01*
X127250142Y-41808071D01*
X127297761Y-41855690D01*
X127345380Y-41950928D01*
X127345380Y-42236642D01*
X127297761Y-42331880D01*
X127250142Y-42379500D01*
X127345380Y-40808071D02*
X127345380Y-41379500D01*
X127345380Y-41093785D02*
X126345380Y-41093785D01*
X126488238Y-41189023D01*
X126583476Y-41284261D01*
X126631095Y-41379500D01*
X126345380Y-40189023D02*
X126345380Y-40093785D01*
X126393000Y-39998547D01*
X126440619Y-39950928D01*
X126535857Y-39903309D01*
X126726333Y-39855690D01*
X126964428Y-39855690D01*
X127154904Y-39903309D01*
X127250142Y-39950928D01*
X127297761Y-39998547D01*
X127345380Y-40093785D01*
X127345380Y-40189023D01*
X127297761Y-40284261D01*
X127250142Y-40331880D01*
X127154904Y-40379500D01*
X126964428Y-40427119D01*
X126726333Y-40427119D01*
X126535857Y-40379500D01*
X126440619Y-40331880D01*
X126393000Y-40284261D01*
X126345380Y-40189023D01*
X126345380Y-38950928D02*
X126345380Y-39427119D01*
X126821571Y-39474738D01*
X126773952Y-39427119D01*
X126726333Y-39331880D01*
X126726333Y-39093785D01*
X126773952Y-38998547D01*
X126821571Y-38950928D01*
X126916809Y-38903309D01*
X127154904Y-38903309D01*
X127250142Y-38950928D01*
X127297761Y-38998547D01*
X127345380Y-39093785D01*
X127345380Y-39331880D01*
X127297761Y-39427119D01*
X127250142Y-39474738D01*
X127345380Y-38474738D02*
X126345380Y-38474738D01*
X126345380Y-37808071D02*
X126345380Y-37617595D01*
X126393000Y-37522357D01*
X126488238Y-37427119D01*
X126678714Y-37379500D01*
X127012047Y-37379500D01*
X127202523Y-37427119D01*
X127297761Y-37522357D01*
X127345380Y-37617595D01*
X127345380Y-37808071D01*
X127297761Y-37903309D01*
X127202523Y-37998547D01*
X127012047Y-38046166D01*
X126678714Y-38046166D01*
X126488238Y-37998547D01*
X126393000Y-37903309D01*
X126345380Y-37808071D01*
X127345380Y-36427119D02*
X127345380Y-36998547D01*
X127345380Y-36712833D02*
X126345380Y-36712833D01*
X126488238Y-36808071D01*
X126583476Y-36903309D01*
X126631095Y-36998547D01*
X112362008Y-36282119D02*
X112409627Y-36234500D01*
X112504865Y-36186880D01*
X112742961Y-36186880D01*
X112838199Y-36234500D01*
X112885818Y-36282119D01*
X112933437Y-36377357D01*
X112933437Y-36472595D01*
X112885818Y-36615452D01*
X112314389Y-37186880D01*
X112933437Y-37186880D01*
X113933437Y-37186880D02*
X113600103Y-36710690D01*
X113362008Y-37186880D02*
X113362008Y-36186880D01*
X113742961Y-36186880D01*
X113838199Y-36234500D01*
X113885818Y-36282119D01*
X113933437Y-36377357D01*
X113933437Y-36520214D01*
X113885818Y-36615452D01*
X113838199Y-36663071D01*
X113742961Y-36710690D01*
X113362008Y-36710690D01*
X120420222Y-37186880D02*
X119848793Y-37186880D01*
X120134508Y-37186880D02*
X120134508Y-36186880D01*
X120039270Y-36329738D01*
X119944031Y-36424976D01*
X119848793Y-36472595D01*
X121324984Y-37186880D02*
X120848793Y-37186880D01*
X120848793Y-36186880D01*
X95162685Y-37186880D02*
X94829352Y-36710690D01*
X94591257Y-37186880D02*
X94591257Y-36186880D01*
X94972209Y-36186880D01*
X95067447Y-36234500D01*
X95115066Y-36282119D01*
X95162685Y-36377357D01*
X95162685Y-36520214D01*
X95115066Y-36615452D01*
X95067447Y-36663071D01*
X94972209Y-36710690D01*
X94591257Y-36710690D01*
X96162685Y-37091642D02*
X96115066Y-37139261D01*
X95972209Y-37186880D01*
X95876971Y-37186880D01*
X95734114Y-37139261D01*
X95638876Y-37044023D01*
X95591257Y-36948785D01*
X95543638Y-36758309D01*
X95543638Y-36615452D01*
X95591257Y-36424976D01*
X95638876Y-36329738D01*
X95734114Y-36234500D01*
X95876971Y-36186880D01*
X95972209Y-36186880D01*
X96115066Y-36234500D01*
X96162685Y-36282119D01*
X117861135Y-37186880D02*
X117289706Y-37186880D01*
X117575421Y-37186880D02*
X117575421Y-36186880D01*
X117480182Y-36329738D01*
X117384944Y-36424976D01*
X117289706Y-36472595D01*
X118861135Y-37186880D02*
X118527801Y-36710690D01*
X118289706Y-37186880D02*
X118289706Y-36186880D01*
X118670659Y-36186880D01*
X118765897Y-36234500D01*
X118813516Y-36282119D01*
X118861135Y-36377357D01*
X118861135Y-36520214D01*
X118813516Y-36615452D01*
X118765897Y-36663071D01*
X118670659Y-36710690D01*
X118289706Y-36710690D01*
X109945778Y-36186880D02*
X110564826Y-36186880D01*
X110231493Y-36567833D01*
X110374350Y-36567833D01*
X110469588Y-36615452D01*
X110517207Y-36663071D01*
X110564826Y-36758309D01*
X110564826Y-36996404D01*
X110517207Y-37091642D01*
X110469588Y-37139261D01*
X110374350Y-37186880D01*
X110088635Y-37186880D01*
X109993397Y-37139261D01*
X109945778Y-37091642D01*
X111469588Y-37186880D02*
X110993397Y-37186880D01*
X110993397Y-36186880D01*
X107386691Y-36186880D02*
X108005739Y-36186880D01*
X107672405Y-36567833D01*
X107815263Y-36567833D01*
X107910501Y-36615452D01*
X107958120Y-36663071D01*
X108005739Y-36758309D01*
X108005739Y-36996404D01*
X107958120Y-37091642D01*
X107910501Y-37139261D01*
X107815263Y-37186880D01*
X107529548Y-37186880D01*
X107434310Y-37139261D01*
X107386691Y-37091642D01*
X109005739Y-37186880D02*
X108672405Y-36710690D01*
X108434310Y-37186880D02*
X108434310Y-36186880D01*
X108815263Y-36186880D01*
X108910501Y-36234500D01*
X108958120Y-36282119D01*
X109005739Y-36377357D01*
X109005739Y-36520214D01*
X108958120Y-36615452D01*
X108910501Y-36663071D01*
X108815263Y-36710690D01*
X108434310Y-36710690D01*
X84831095Y-37186880D02*
X84497761Y-36710690D01*
X84259666Y-37186880D02*
X84259666Y-36186880D01*
X84640619Y-36186880D01*
X84735857Y-36234500D01*
X84783476Y-36282119D01*
X84831095Y-36377357D01*
X84831095Y-36520214D01*
X84783476Y-36615452D01*
X84735857Y-36663071D01*
X84640619Y-36710690D01*
X84259666Y-36710690D01*
X85259666Y-37186880D02*
X85259666Y-36186880D01*
X85593000Y-36901166D01*
X85926333Y-36186880D01*
X85926333Y-37186880D01*
X87580662Y-37186880D02*
X87247329Y-36710690D01*
X87009234Y-37186880D02*
X87009234Y-36186880D01*
X87390186Y-36186880D01*
X87485424Y-36234500D01*
X87533043Y-36282119D01*
X87580662Y-36377357D01*
X87580662Y-36520214D01*
X87533043Y-36615452D01*
X87485424Y-36663071D01*
X87390186Y-36710690D01*
X87009234Y-36710690D01*
X88009234Y-37186880D02*
X88009234Y-36186880D01*
X88390186Y-36186880D01*
X88485424Y-36234500D01*
X88533043Y-36282119D01*
X88580662Y-36377357D01*
X88580662Y-36520214D01*
X88533043Y-36615452D01*
X88485424Y-36663071D01*
X88390186Y-36710690D01*
X88009234Y-36710690D01*
X104732366Y-37186880D02*
X104732366Y-36186880D01*
X105065700Y-36901166D01*
X105399033Y-36186880D01*
X105399033Y-37186880D01*
X106208557Y-36663071D02*
X106351414Y-36710690D01*
X106399033Y-36758309D01*
X106446652Y-36853547D01*
X106446652Y-36996404D01*
X106399033Y-37091642D01*
X106351414Y-37139261D01*
X106256176Y-37186880D01*
X105875223Y-37186880D01*
X105875223Y-36186880D01*
X106208557Y-36186880D01*
X106303795Y-36234500D01*
X106351414Y-36282119D01*
X106399033Y-36377357D01*
X106399033Y-36472595D01*
X106351414Y-36567833D01*
X106303795Y-36615452D01*
X106208557Y-36663071D01*
X105875223Y-36663071D01*
X90092130Y-37186880D02*
X89615939Y-37186880D01*
X89615939Y-36186880D01*
X90425463Y-37186880D02*
X90425463Y-36186880D01*
X90758796Y-36901166D01*
X91092130Y-36186880D01*
X91092130Y-37186880D01*
X114921095Y-36282119D02*
X114968714Y-36234500D01*
X115063952Y-36186880D01*
X115302048Y-36186880D01*
X115397286Y-36234500D01*
X115444905Y-36282119D01*
X115492524Y-36377357D01*
X115492524Y-36472595D01*
X115444905Y-36615452D01*
X114873476Y-37186880D01*
X115492524Y-37186880D01*
X116397286Y-37186880D02*
X115921095Y-37186880D01*
X115921095Y-36186880D01*
X97674153Y-37186880D02*
X97197963Y-37186880D01*
X97197963Y-36186880D01*
X98578915Y-37091642D02*
X98531296Y-37139261D01*
X98388439Y-37186880D01*
X98293201Y-37186880D01*
X98150344Y-37139261D01*
X98055106Y-37044023D01*
X98007487Y-36948785D01*
X97959868Y-36758309D01*
X97959868Y-36615452D01*
X98007487Y-36424976D01*
X98055106Y-36329738D01*
X98150344Y-36234500D01*
X98293201Y-36186880D01*
X98388439Y-36186880D01*
X98531296Y-36234500D01*
X98578915Y-36282119D01*
X102744708Y-37186880D02*
X102268517Y-37186880D01*
X102268517Y-36186880D01*
X103268517Y-36186880D02*
X103458994Y-36186880D01*
X103554232Y-36234500D01*
X103649470Y-36329738D01*
X103697089Y-36520214D01*
X103697089Y-36853547D01*
X103649470Y-37044023D01*
X103554232Y-37139261D01*
X103458994Y-37186880D01*
X103268517Y-37186880D01*
X103173279Y-37139261D01*
X103078041Y-37044023D01*
X103030422Y-36853547D01*
X103030422Y-36520214D01*
X103078041Y-36329738D01*
X103173279Y-36234500D01*
X103268517Y-36186880D01*
X92651217Y-37186880D02*
X92175027Y-37186880D01*
X92175027Y-36186880D01*
X92984551Y-37186880D02*
X92984551Y-36186880D01*
X93365503Y-36186880D01*
X93460741Y-36234500D01*
X93508360Y-36282119D01*
X93555979Y-36377357D01*
X93555979Y-36520214D01*
X93508360Y-36615452D01*
X93460741Y-36663071D01*
X93365503Y-36710690D01*
X92984551Y-36710690D01*
X100185621Y-37186880D02*
X99852287Y-36710690D01*
X99614192Y-37186880D02*
X99614192Y-36186880D01*
X99995145Y-36186880D01*
X100090383Y-36234500D01*
X100138002Y-36282119D01*
X100185621Y-36377357D01*
X100185621Y-36520214D01*
X100138002Y-36615452D01*
X100090383Y-36663071D01*
X99995145Y-36710690D01*
X99614192Y-36710690D01*
X100804668Y-36186880D02*
X100995145Y-36186880D01*
X101090383Y-36234500D01*
X101185621Y-36329738D01*
X101233240Y-36520214D01*
X101233240Y-36853547D01*
X101185621Y-37044023D01*
X101090383Y-37139261D01*
X100995145Y-37186880D01*
X100804668Y-37186880D01*
X100709430Y-37139261D01*
X100614192Y-37044023D01*
X100566573Y-36853547D01*
X100566573Y-36520214D01*
X100614192Y-36329738D01*
X100709430Y-36234500D01*
X100804668Y-36186880D01*
%TO.C,T\u002AC23*%
X111264761Y-88201904D02*
X111721904Y-88201904D01*
X111493333Y-89001904D02*
X111493333Y-88201904D01*
X112102857Y-88201904D02*
X112102857Y-88392380D01*
X111912380Y-88316190D02*
X112102857Y-88392380D01*
X112293333Y-88316190D01*
X111988571Y-88544761D02*
X112102857Y-88392380D01*
X112217142Y-88544761D01*
X113055238Y-88925714D02*
X113017142Y-88963809D01*
X112902857Y-89001904D01*
X112826666Y-89001904D01*
X112712380Y-88963809D01*
X112636190Y-88887619D01*
X112598095Y-88811428D01*
X112560000Y-88659047D01*
X112560000Y-88544761D01*
X112598095Y-88392380D01*
X112636190Y-88316190D01*
X112712380Y-88240000D01*
X112826666Y-88201904D01*
X112902857Y-88201904D01*
X113017142Y-88240000D01*
X113055238Y-88278095D01*
X113360000Y-88278095D02*
X113398095Y-88240000D01*
X113474285Y-88201904D01*
X113664761Y-88201904D01*
X113740952Y-88240000D01*
X113779047Y-88278095D01*
X113817142Y-88354285D01*
X113817142Y-88430476D01*
X113779047Y-88544761D01*
X113321904Y-89001904D01*
X113817142Y-89001904D01*
X114083809Y-88201904D02*
X114579047Y-88201904D01*
X114312380Y-88506666D01*
X114426666Y-88506666D01*
X114502857Y-88544761D01*
X114540952Y-88582857D01*
X114579047Y-88659047D01*
X114579047Y-88849523D01*
X114540952Y-88925714D01*
X114502857Y-88963809D01*
X114426666Y-89001904D01*
X114198095Y-89001904D01*
X114121904Y-88963809D01*
X114083809Y-88925714D01*
%TO.C,U33*%
X117777378Y-95614961D02*
X118586902Y-95614961D01*
X118682140Y-95567342D01*
X118729759Y-95519723D01*
X118777378Y-95424485D01*
X118777378Y-95234008D01*
X118729759Y-95138770D01*
X118682140Y-95091151D01*
X118586902Y-95043532D01*
X117777378Y-95043532D01*
X117777378Y-94662580D02*
X117777378Y-94043532D01*
X118158331Y-94376866D01*
X118158331Y-94234008D01*
X118205950Y-94138770D01*
X118253569Y-94091151D01*
X118348807Y-94043532D01*
X118586902Y-94043532D01*
X118682140Y-94091151D01*
X118729759Y-94138770D01*
X118777378Y-94234008D01*
X118777378Y-94519723D01*
X118729759Y-94614961D01*
X118682140Y-94662580D01*
X117777378Y-93710199D02*
X117777378Y-93091151D01*
X118158331Y-93424485D01*
X118158331Y-93281627D01*
X118205950Y-93186389D01*
X118253569Y-93138770D01*
X118348807Y-93091151D01*
X118586902Y-93091151D01*
X118682140Y-93138770D01*
X118729759Y-93186389D01*
X118777378Y-93281627D01*
X118777378Y-93567342D01*
X118729759Y-93662580D01*
X118682140Y-93710199D01*
%TO.C,R2*%
X99974904Y-92414333D02*
X99593952Y-92681000D01*
X99974904Y-92871476D02*
X99174904Y-92871476D01*
X99174904Y-92566714D01*
X99213000Y-92490523D01*
X99251095Y-92452428D01*
X99327285Y-92414333D01*
X99441571Y-92414333D01*
X99517761Y-92452428D01*
X99555857Y-92490523D01*
X99593952Y-92566714D01*
X99593952Y-92871476D01*
X99251095Y-92109571D02*
X99213000Y-92071476D01*
X99174904Y-91995285D01*
X99174904Y-91804809D01*
X99213000Y-91728619D01*
X99251095Y-91690523D01*
X99327285Y-91652428D01*
X99403476Y-91652428D01*
X99517761Y-91690523D01*
X99974904Y-92147666D01*
X99974904Y-91652428D01*
%TO.C,P33*%
X119845714Y-84932380D02*
X119845714Y-83932380D01*
X120226666Y-83932380D01*
X120321904Y-83980000D01*
X120369523Y-84027619D01*
X120417142Y-84122857D01*
X120417142Y-84265714D01*
X120369523Y-84360952D01*
X120321904Y-84408571D01*
X120226666Y-84456190D01*
X119845714Y-84456190D01*
X120750476Y-83932380D02*
X121369523Y-83932380D01*
X121036190Y-84313333D01*
X121179047Y-84313333D01*
X121274285Y-84360952D01*
X121321904Y-84408571D01*
X121369523Y-84503809D01*
X121369523Y-84741904D01*
X121321904Y-84837142D01*
X121274285Y-84884761D01*
X121179047Y-84932380D01*
X120893333Y-84932380D01*
X120798095Y-84884761D01*
X120750476Y-84837142D01*
X121702857Y-83932380D02*
X122321904Y-83932380D01*
X121988571Y-84313333D01*
X122131428Y-84313333D01*
X122226666Y-84360952D01*
X122274285Y-84408571D01*
X122321904Y-84503809D01*
X122321904Y-84741904D01*
X122274285Y-84837142D01*
X122226666Y-84884761D01*
X122131428Y-84932380D01*
X121845714Y-84932380D01*
X121750476Y-84884761D01*
X121702857Y-84837142D01*
%TO.C,C7*%
X103465333Y-63886222D02*
X103417714Y-63933841D01*
X103274857Y-63981460D01*
X103179619Y-63981460D01*
X103036761Y-63933841D01*
X102941523Y-63838603D01*
X102893904Y-63743365D01*
X102846285Y-63552889D01*
X102846285Y-63410032D01*
X102893904Y-63219556D01*
X102941523Y-63124318D01*
X103036761Y-63029080D01*
X103179619Y-62981460D01*
X103274857Y-62981460D01*
X103417714Y-63029080D01*
X103465333Y-63076699D01*
X103798666Y-62981460D02*
X104465333Y-62981460D01*
X104036761Y-63981460D01*
X106087952Y-61757651D02*
X105326047Y-61757651D01*
X105707000Y-61376699D02*
X105707000Y-62138603D01*
%TO.C,T\u002AC14*%
X116176902Y-92164604D02*
X116176902Y-91707461D01*
X116976902Y-91936032D02*
X116176902Y-91936032D01*
X116176902Y-91326508D02*
X116367378Y-91326508D01*
X116291188Y-91516985D02*
X116367378Y-91326508D01*
X116291188Y-91136032D01*
X116519759Y-91440794D02*
X116367378Y-91326508D01*
X116519759Y-91212223D01*
X116900712Y-90374127D02*
X116938807Y-90412223D01*
X116976902Y-90526508D01*
X116976902Y-90602699D01*
X116938807Y-90716985D01*
X116862617Y-90793175D01*
X116786426Y-90831270D01*
X116634045Y-90869366D01*
X116519759Y-90869366D01*
X116367378Y-90831270D01*
X116291188Y-90793175D01*
X116214998Y-90716985D01*
X116176902Y-90602699D01*
X116176902Y-90526508D01*
X116214998Y-90412223D01*
X116253093Y-90374127D01*
X116976902Y-89612223D02*
X116976902Y-90069366D01*
X116976902Y-89840794D02*
X116176902Y-89840794D01*
X116291188Y-89916985D01*
X116367378Y-89993175D01*
X116405474Y-90069366D01*
X116443569Y-88926508D02*
X116976902Y-88926508D01*
X116138807Y-89116985D02*
X116710236Y-89307461D01*
X116710236Y-88812223D01*
D14*
%TO.C,GPIO3105*%
X96844548Y-93354000D02*
X96768358Y-93315904D01*
X96654072Y-93315904D01*
X96539786Y-93354000D01*
X96463596Y-93430190D01*
X96425500Y-93506380D01*
X96387405Y-93658761D01*
X96387405Y-93773047D01*
X96425500Y-93925428D01*
X96463596Y-94001619D01*
X96539786Y-94077809D01*
X96654072Y-94115904D01*
X96730262Y-94115904D01*
X96844548Y-94077809D01*
X96882643Y-94039714D01*
X96882643Y-93773047D01*
X96730262Y-93773047D01*
X97225500Y-94115904D02*
X97225500Y-93315904D01*
X97530262Y-93315904D01*
X97606453Y-93354000D01*
X97644548Y-93392095D01*
X97682643Y-93468285D01*
X97682643Y-93582571D01*
X97644548Y-93658761D01*
X97606453Y-93696857D01*
X97530262Y-93734952D01*
X97225500Y-93734952D01*
X98025500Y-94115904D02*
X98025500Y-93315904D01*
X98558834Y-93315904D02*
X98711215Y-93315904D01*
X98787405Y-93354000D01*
X98863596Y-93430190D01*
X98901691Y-93582571D01*
X98901691Y-93849238D01*
X98863596Y-94001619D01*
X98787405Y-94077809D01*
X98711215Y-94115904D01*
X98558834Y-94115904D01*
X98482643Y-94077809D01*
X98406453Y-94001619D01*
X98368358Y-93849238D01*
X98368358Y-93582571D01*
X98406453Y-93430190D01*
X98482643Y-93354000D01*
X98558834Y-93315904D01*
X99168358Y-93315904D02*
X99663596Y-93315904D01*
X99396929Y-93620666D01*
X99511215Y-93620666D01*
X99587405Y-93658761D01*
X99625500Y-93696857D01*
X99663596Y-93773047D01*
X99663596Y-93963523D01*
X99625500Y-94039714D01*
X99587405Y-94077809D01*
X99511215Y-94115904D01*
X99282643Y-94115904D01*
X99206453Y-94077809D01*
X99168358Y-94039714D01*
X100425500Y-94115904D02*
X99968358Y-94115904D01*
X100196929Y-94115904D02*
X100196929Y-93315904D01*
X100120738Y-93430190D01*
X100044548Y-93506380D01*
X99968358Y-93544476D01*
X100920738Y-93315904D02*
X100996929Y-93315904D01*
X101073119Y-93354000D01*
X101111215Y-93392095D01*
X101149310Y-93468285D01*
X101187405Y-93620666D01*
X101187405Y-93811142D01*
X101149310Y-93963523D01*
X101111215Y-94039714D01*
X101073119Y-94077809D01*
X100996929Y-94115904D01*
X100920738Y-94115904D01*
X100844548Y-94077809D01*
X100806453Y-94039714D01*
X100768358Y-93963523D01*
X100730262Y-93811142D01*
X100730262Y-93620666D01*
X100768358Y-93468285D01*
X100806453Y-93392095D01*
X100844548Y-93354000D01*
X100920738Y-93315904D01*
X101911215Y-93315904D02*
X101530262Y-93315904D01*
X101492167Y-93696857D01*
X101530262Y-93658761D01*
X101606453Y-93620666D01*
X101796929Y-93620666D01*
X101873119Y-93658761D01*
X101911215Y-93696857D01*
X101949310Y-93773047D01*
X101949310Y-93963523D01*
X101911215Y-94039714D01*
X101873119Y-94077809D01*
X101796929Y-94115904D01*
X101606453Y-94115904D01*
X101530262Y-94077809D01*
X101492167Y-94039714D01*
D12*
%TO.C,D1*%
X123430380Y-108942095D02*
X122430380Y-108942095D01*
X122430380Y-108704000D01*
X122478000Y-108561142D01*
X122573238Y-108465904D01*
X122668476Y-108418285D01*
X122858952Y-108370666D01*
X123001809Y-108370666D01*
X123192285Y-108418285D01*
X123287523Y-108465904D01*
X123382761Y-108561142D01*
X123430380Y-108704000D01*
X123430380Y-108942095D01*
X123430380Y-107418285D02*
X123430380Y-107989714D01*
X123430380Y-107704000D02*
X122430380Y-107704000D01*
X122573238Y-107799238D01*
X122668476Y-107894476D01*
X122716095Y-107989714D01*
%TO.C,T\u002AC21*%
X110581904Y-96415238D02*
X110581904Y-95958095D01*
X111381904Y-96186666D02*
X110581904Y-96186666D01*
X110581904Y-95577142D02*
X110772380Y-95577142D01*
X110696190Y-95767619D02*
X110772380Y-95577142D01*
X110696190Y-95386666D01*
X110924761Y-95691428D02*
X110772380Y-95577142D01*
X110924761Y-95462857D01*
X111305714Y-94624761D02*
X111343809Y-94662857D01*
X111381904Y-94777142D01*
X111381904Y-94853333D01*
X111343809Y-94967619D01*
X111267619Y-95043809D01*
X111191428Y-95081904D01*
X111039047Y-95120000D01*
X110924761Y-95120000D01*
X110772380Y-95081904D01*
X110696190Y-95043809D01*
X110620000Y-94967619D01*
X110581904Y-94853333D01*
X110581904Y-94777142D01*
X110620000Y-94662857D01*
X110658095Y-94624761D01*
X110658095Y-94320000D02*
X110620000Y-94281904D01*
X110581904Y-94205714D01*
X110581904Y-94015238D01*
X110620000Y-93939047D01*
X110658095Y-93900952D01*
X110734285Y-93862857D01*
X110810476Y-93862857D01*
X110924761Y-93900952D01*
X111381904Y-94358095D01*
X111381904Y-93862857D01*
X111381904Y-93100952D02*
X111381904Y-93558095D01*
X111381904Y-93329523D02*
X110581904Y-93329523D01*
X110696190Y-93405714D01*
X110772380Y-93481904D01*
X110810476Y-93558095D01*
%TO.C,XIA1*%
X83998380Y-116518190D02*
X84998380Y-115851523D01*
X83998380Y-115851523D02*
X84998380Y-116518190D01*
X84998380Y-115470571D02*
X83998380Y-115470571D01*
X84712666Y-115042000D02*
X84712666Y-114565809D01*
X84998380Y-115137238D02*
X83998380Y-114803904D01*
X84998380Y-114470571D01*
X84998380Y-113613428D02*
X84998380Y-114184857D01*
X84998380Y-113899142D02*
X83998380Y-113899142D01*
X84141238Y-113994380D01*
X84236476Y-114089619D01*
X84284095Y-114184857D01*
X103343380Y-110278904D02*
X103343380Y-109707476D01*
X104343380Y-109993190D02*
X103343380Y-109993190D01*
X103343380Y-109469380D02*
X104343380Y-108802714D01*
X103343380Y-108802714D02*
X104343380Y-109469380D01*
X114428380Y-109222476D02*
X113952190Y-109555809D01*
X114428380Y-109793904D02*
X113428380Y-109793904D01*
X113428380Y-109412952D01*
X113476000Y-109317714D01*
X113523619Y-109270095D01*
X113618857Y-109222476D01*
X113761714Y-109222476D01*
X113856952Y-109270095D01*
X113904571Y-109317714D01*
X113952190Y-109412952D01*
X113952190Y-109793904D01*
X109423380Y-109707476D02*
X109423380Y-110278904D01*
X109423380Y-109993190D02*
X108423380Y-109993190D01*
X108566238Y-110088428D01*
X108661476Y-110183666D01*
X108709095Y-110278904D01*
X108518619Y-109326523D02*
X108471000Y-109278904D01*
X108423380Y-109183666D01*
X108423380Y-108945571D01*
X108471000Y-108850333D01*
X108518619Y-108802714D01*
X108613857Y-108755095D01*
X108709095Y-108755095D01*
X108851952Y-108802714D01*
X109423380Y-109374142D01*
X109423380Y-108755095D01*
X101279571Y-109850571D02*
X101327190Y-109707714D01*
X101374809Y-109660095D01*
X101470047Y-109612476D01*
X101612904Y-109612476D01*
X101708142Y-109660095D01*
X101755761Y-109707714D01*
X101803380Y-109802952D01*
X101803380Y-110183904D01*
X100803380Y-110183904D01*
X100803380Y-109850571D01*
X100851000Y-109755333D01*
X100898619Y-109707714D01*
X100993857Y-109660095D01*
X101089095Y-109660095D01*
X101184333Y-109707714D01*
X101231952Y-109755333D01*
X101279571Y-109850571D01*
X101279571Y-110183904D01*
X101708142Y-108612476D02*
X101755761Y-108660095D01*
X101803380Y-108802952D01*
X101803380Y-108898190D01*
X101755761Y-109041047D01*
X101660523Y-109136285D01*
X101565285Y-109183904D01*
X101374809Y-109231523D01*
X101231952Y-109231523D01*
X101041476Y-109183904D01*
X100946238Y-109136285D01*
X100851000Y-109041047D01*
X100803380Y-108898190D01*
X100803380Y-108802952D01*
X100851000Y-108660095D01*
X100898619Y-108612476D01*
X96675761Y-110302714D02*
X96723380Y-110159857D01*
X96723380Y-109921761D01*
X96675761Y-109826523D01*
X96628142Y-109778904D01*
X96532904Y-109731285D01*
X96437666Y-109731285D01*
X96342428Y-109778904D01*
X96294809Y-109826523D01*
X96247190Y-109921761D01*
X96199571Y-110112238D01*
X96151952Y-110207476D01*
X96104333Y-110255095D01*
X96009095Y-110302714D01*
X95913857Y-110302714D01*
X95818619Y-110255095D01*
X95771000Y-110207476D01*
X95723380Y-110112238D01*
X95723380Y-109874142D01*
X95771000Y-109731285D01*
X96723380Y-109302714D02*
X95723380Y-109302714D01*
X95723380Y-109064619D01*
X95771000Y-108921761D01*
X95866238Y-108826523D01*
X95961476Y-108778904D01*
X96151952Y-108731285D01*
X96294809Y-108731285D01*
X96485285Y-108778904D01*
X96580523Y-108826523D01*
X96675761Y-108921761D01*
X96723380Y-109064619D01*
X96723380Y-109302714D01*
X91643380Y-110350333D02*
X90643380Y-110350333D01*
X91357666Y-110017000D01*
X90643380Y-109683666D01*
X91643380Y-109683666D01*
X91643380Y-109207476D02*
X90643380Y-109207476D01*
X91643380Y-108636047D02*
X91071952Y-109064619D01*
X90643380Y-108636047D02*
X91214809Y-109207476D01*
X110963380Y-109278904D02*
X110963380Y-109755095D01*
X111439571Y-109802714D01*
X111391952Y-109755095D01*
X111344333Y-109659857D01*
X111344333Y-109421761D01*
X111391952Y-109326523D01*
X111439571Y-109278904D01*
X111534809Y-109231285D01*
X111772904Y-109231285D01*
X111868142Y-109278904D01*
X111915761Y-109326523D01*
X111963380Y-109421761D01*
X111963380Y-109659857D01*
X111915761Y-109755095D01*
X111868142Y-109802714D01*
X106883380Y-109683666D02*
X106407190Y-110017000D01*
X106883380Y-110255095D02*
X105883380Y-110255095D01*
X105883380Y-109874142D01*
X105931000Y-109778904D01*
X105978619Y-109731285D01*
X106073857Y-109683666D01*
X106216714Y-109683666D01*
X106311952Y-109731285D01*
X106359571Y-109778904D01*
X106407190Y-109874142D01*
X106407190Y-110255095D01*
X105883380Y-109350333D02*
X106883380Y-108683666D01*
X105883380Y-108683666D02*
X106883380Y-109350333D01*
X94135761Y-110302714D02*
X94183380Y-110159857D01*
X94183380Y-109921761D01*
X94135761Y-109826523D01*
X94088142Y-109778904D01*
X93992904Y-109731285D01*
X93897666Y-109731285D01*
X93802428Y-109778904D01*
X93754809Y-109826523D01*
X93707190Y-109921761D01*
X93659571Y-110112238D01*
X93611952Y-110207476D01*
X93564333Y-110255095D01*
X93469095Y-110302714D01*
X93373857Y-110302714D01*
X93278619Y-110255095D01*
X93231000Y-110207476D01*
X93183380Y-110112238D01*
X93183380Y-109874142D01*
X93231000Y-109731285D01*
X94088142Y-108731285D02*
X94135761Y-108778904D01*
X94183380Y-108921761D01*
X94183380Y-109017000D01*
X94135761Y-109159857D01*
X94040523Y-109255095D01*
X93945285Y-109302714D01*
X93754809Y-109350333D01*
X93611952Y-109350333D01*
X93421476Y-109302714D01*
X93326238Y-109255095D01*
X93231000Y-109159857D01*
X93183380Y-109017000D01*
X93183380Y-108921761D01*
X93231000Y-108778904D01*
X93278619Y-108731285D01*
X99263380Y-109612476D02*
X99263380Y-110088666D01*
X98263380Y-110088666D01*
X99263380Y-108707714D02*
X98787190Y-109041047D01*
X99263380Y-109279142D02*
X98263380Y-109279142D01*
X98263380Y-108898190D01*
X98311000Y-108802952D01*
X98358619Y-108755333D01*
X98453857Y-108707714D01*
X98596714Y-108707714D01*
X98691952Y-108755333D01*
X98739571Y-108802952D01*
X98787190Y-108898190D01*
X98787190Y-109279142D01*
%TO.C,R15*%
X86231714Y-68057904D02*
X85965047Y-67676952D01*
X85774571Y-68057904D02*
X85774571Y-67257904D01*
X86079333Y-67257904D01*
X86155523Y-67296000D01*
X86193619Y-67334095D01*
X86231714Y-67410285D01*
X86231714Y-67524571D01*
X86193619Y-67600761D01*
X86155523Y-67638857D01*
X86079333Y-67676952D01*
X85774571Y-67676952D01*
X86993619Y-68057904D02*
X86536476Y-68057904D01*
X86765047Y-68057904D02*
X86765047Y-67257904D01*
X86688857Y-67372190D01*
X86612666Y-67448380D01*
X86536476Y-67486476D01*
X87717428Y-67257904D02*
X87336476Y-67257904D01*
X87298380Y-67638857D01*
X87336476Y-67600761D01*
X87412666Y-67562666D01*
X87603142Y-67562666D01*
X87679333Y-67600761D01*
X87717428Y-67638857D01*
X87755523Y-67715047D01*
X87755523Y-67905523D01*
X87717428Y-67981714D01*
X87679333Y-68019809D01*
X87603142Y-68057904D01*
X87412666Y-68057904D01*
X87336476Y-68019809D01*
X87298380Y-67981714D01*
%TO.C,R12*%
X90779214Y-54508904D02*
X90512547Y-54127952D01*
X90322071Y-54508904D02*
X90322071Y-53708904D01*
X90626833Y-53708904D01*
X90703023Y-53747000D01*
X90741119Y-53785095D01*
X90779214Y-53861285D01*
X90779214Y-53975571D01*
X90741119Y-54051761D01*
X90703023Y-54089857D01*
X90626833Y-54127952D01*
X90322071Y-54127952D01*
X91541119Y-54508904D02*
X91083976Y-54508904D01*
X91312547Y-54508904D02*
X91312547Y-53708904D01*
X91236357Y-53823190D01*
X91160166Y-53899380D01*
X91083976Y-53937476D01*
X91845880Y-53785095D02*
X91883976Y-53747000D01*
X91960166Y-53708904D01*
X92150642Y-53708904D01*
X92226833Y-53747000D01*
X92264928Y-53785095D01*
X92303023Y-53861285D01*
X92303023Y-53937476D01*
X92264928Y-54051761D01*
X91807785Y-54508904D01*
X92303023Y-54508904D01*
%TO.C,D21*%
X122528571Y-48756904D02*
X122528571Y-47956904D01*
X122719047Y-47956904D01*
X122833333Y-47995000D01*
X122909523Y-48071190D01*
X122947619Y-48147380D01*
X122985714Y-48299761D01*
X122985714Y-48414047D01*
X122947619Y-48566428D01*
X122909523Y-48642619D01*
X122833333Y-48718809D01*
X122719047Y-48756904D01*
X122528571Y-48756904D01*
X123290476Y-48033095D02*
X123328571Y-47995000D01*
X123404761Y-47956904D01*
X123595238Y-47956904D01*
X123671428Y-47995000D01*
X123709523Y-48033095D01*
X123747619Y-48109285D01*
X123747619Y-48185476D01*
X123709523Y-48299761D01*
X123252380Y-48756904D01*
X123747619Y-48756904D01*
X124509523Y-48756904D02*
X124052380Y-48756904D01*
X124280952Y-48756904D02*
X124280952Y-47956904D01*
X124204761Y-48071190D01*
X124128571Y-48147380D01*
X124052380Y-48185476D01*
%TO.C,C10*%
X82669142Y-63451382D02*
X82621523Y-63499001D01*
X82478666Y-63546620D01*
X82383428Y-63546620D01*
X82240571Y-63499001D01*
X82145333Y-63403763D01*
X82097714Y-63308525D01*
X82050095Y-63118049D01*
X82050095Y-62975192D01*
X82097714Y-62784716D01*
X82145333Y-62689478D01*
X82240571Y-62594240D01*
X82383428Y-62546620D01*
X82478666Y-62546620D01*
X82621523Y-62594240D01*
X82669142Y-62641859D01*
X83621523Y-63546620D02*
X83050095Y-63546620D01*
X83335809Y-63546620D02*
X83335809Y-62546620D01*
X83240571Y-62689478D01*
X83145333Y-62784716D01*
X83050095Y-62832335D01*
X84240571Y-62546620D02*
X84335809Y-62546620D01*
X84431047Y-62594240D01*
X84478666Y-62641859D01*
X84526285Y-62737097D01*
X84573904Y-62927573D01*
X84573904Y-63165668D01*
X84526285Y-63356144D01*
X84478666Y-63451382D01*
X84431047Y-63499001D01*
X84335809Y-63546620D01*
X84240571Y-63546620D01*
X84145333Y-63499001D01*
X84097714Y-63451382D01*
X84050095Y-63356144D01*
X84002476Y-63165668D01*
X84002476Y-62927573D01*
X84050095Y-62737097D01*
X84097714Y-62641859D01*
X84145333Y-62594240D01*
X84240571Y-62546620D01*
X85767952Y-61322811D02*
X85006047Y-61322811D01*
X85387000Y-60941859D02*
X85387000Y-61703763D01*
D16*
%TO.C,R13*%
X86827436Y-56107000D02*
X87281564Y-56107000D01*
X86827436Y-54637000D02*
X87281564Y-54637000D01*
%TO.C,T\u002AC7*%
X104167000Y-66555252D02*
X104167000Y-66032748D01*
X105637000Y-66555252D02*
X105637000Y-66032748D01*
%TO.C,R3*%
X82777000Y-84555064D02*
X82777000Y-84100936D01*
X81307000Y-84555064D02*
X81307000Y-84100936D01*
%TO.C,C21*%
X122856248Y-56125000D02*
X123378752Y-56125000D01*
X122856248Y-54655000D02*
X123378752Y-54655000D01*
%TO.C,XIA2*%
X119256000Y-109462000D02*
X85976000Y-109462000D01*
X113576000Y-97722000D02*
X114076000Y-98722000D01*
X85976000Y-100342000D02*
X119256000Y-100342000D01*
X104666000Y-100342000D02*
X104666000Y-101652000D01*
X87276000Y-101652000D02*
X100566000Y-101652000D01*
X114076000Y-98722000D02*
X114576000Y-97722000D01*
X87276000Y-108152000D02*
X87276000Y-101652000D01*
X117956000Y-108152000D02*
X87276000Y-108152000D01*
X119256000Y-100342000D02*
X119256000Y-109462000D01*
X104666000Y-101652000D02*
X117956000Y-101652000D01*
X100566000Y-101652000D02*
X100566000Y-100342000D01*
X117956000Y-101652000D02*
X117956000Y-108152000D01*
X114576000Y-97697000D02*
X113576000Y-97697000D01*
X85976000Y-109462000D02*
X85976000Y-100342000D01*
X100566000Y-101652000D02*
X100566000Y-101652000D01*
D17*
%TO.C,D34*%
X82030000Y-45115000D02*
G75*
G03*
X82030000Y-45115000I-50000J0D01*
G01*
D16*
%TO.C,U1*%
X99662000Y-74602000D02*
X100137000Y-74602000D01*
X104882000Y-74602000D02*
X104407000Y-74602000D01*
X104882000Y-79822000D02*
X104407000Y-79822000D01*
X104882000Y-79347000D02*
X104882000Y-79822000D01*
X99662000Y-75077000D02*
X99662000Y-74602000D01*
X104882000Y-75077000D02*
X104882000Y-74602000D01*
X99662000Y-79347000D02*
X99662000Y-79822000D01*
D17*
%TO.C,D29*%
X92437140Y-45115000D02*
G75*
G03*
X92437140Y-45115000I-50000J0D01*
G01*
%TO.C,D24*%
X108511664Y-49220000D02*
G75*
G03*
X108511664Y-49220000I-50000J0D01*
G01*
D16*
%TO.C,T\u002AC8*%
X105356000Y-70534752D02*
X105356000Y-70012248D01*
X103886000Y-70534752D02*
X103886000Y-70012248D01*
D17*
%TO.C,D22*%
X117660552Y-49220000D02*
G75*
G03*
X117660552Y-49220000I-50000J0D01*
G01*
D16*
%TO.C,T\u002AC3*%
X104401252Y-87403000D02*
X103878748Y-87403000D01*
X104401252Y-88873000D02*
X103878748Y-88873000D01*
%TO.C,T\u002AC10*%
X118575000Y-94168748D02*
X118575000Y-94691252D01*
X117105000Y-94168748D02*
X117105000Y-94691252D01*
%TO.C,T\u002AC5*%
X94407010Y-80829543D02*
X94037543Y-81199010D01*
X95446457Y-81868990D02*
X95076990Y-82238457D01*
D17*
%TO.C,D28*%
X94518568Y-45115000D02*
G75*
G03*
X94518568Y-45115000I-50000J0D01*
G01*
%TO.C,D26*%
X99362776Y-49220000D02*
G75*
G03*
X99362776Y-49220000I-50000J0D01*
G01*
%TO.C,D30*%
X90355712Y-45115000D02*
G75*
G03*
X90355712Y-45115000I-50000J0D01*
G01*
D12*
%TO.C,C4*%
X119500500Y-61575760D02*
X118100500Y-61575760D01*
X116750500Y-62050760D02*
X116550500Y-62050760D01*
X119100500Y-62125760D02*
X117725500Y-62125760D01*
X119325500Y-61850760D02*
X118000500Y-61875760D01*
X119724500Y-60425760D02*
X114726500Y-60425760D01*
X118950500Y-62275760D02*
X116550500Y-62300760D01*
X118200500Y-62725760D02*
X116500500Y-62775760D01*
X119750500Y-60975760D02*
X117950500Y-60975760D01*
X119100500Y-62150760D02*
X117550500Y-62175760D01*
X116725500Y-60800760D02*
X116450500Y-60800760D01*
X118425500Y-62575760D02*
X116525500Y-62675760D01*
X119200500Y-62000760D02*
X117825500Y-62000760D01*
X119749500Y-60575760D02*
X114725500Y-60550760D01*
X116575500Y-60950760D02*
X116450500Y-60950760D01*
D16*
X114615500Y-59702008D02*
X114615500Y-61124512D01*
D12*
X114700500Y-60400760D02*
X114700500Y-60550760D01*
X118800500Y-62400760D02*
X116525500Y-62450760D01*
X116625500Y-61925760D02*
X116550500Y-61925760D01*
X116531750Y-60457010D02*
X116550500Y-62825760D01*
X119575500Y-61425760D02*
X118075500Y-61450760D01*
X119774500Y-60825760D02*
X117875500Y-60850760D01*
X118625500Y-62500760D02*
X116500500Y-62550760D01*
X116500500Y-60675760D02*
X116875500Y-60675760D01*
X119400500Y-61725760D02*
X118050500Y-61725760D01*
X119663000Y-61113260D02*
X118050500Y-61125760D01*
D16*
X116435500Y-59702008D02*
X116435500Y-61124512D01*
D12*
X117900500Y-62850760D02*
X116775500Y-62875760D01*
X118100500Y-62150760D02*
X116550500Y-62175760D01*
X119563000Y-61213260D02*
X118075500Y-61200760D01*
X119774500Y-60700760D02*
X117750500Y-60700760D01*
X119625500Y-61275760D02*
X118125500Y-61300760D01*
D16*
X116275500Y-62775759D02*
G75*
G03*
X116150500Y-58125760I982066J2353079D01*
G01*
D12*
X118025500Y-61400760D02*
G75*
G03*
X118025500Y-61400760I-750000J0D01*
G01*
D16*
%TO.C,R31*%
X122899248Y-53331000D02*
X123421752Y-53331000D01*
X122899248Y-51861000D02*
X123421752Y-51861000D01*
%TO.C,C17*%
X87412252Y-75840287D02*
X86889748Y-75840287D01*
X87412252Y-77310287D02*
X86889748Y-77310287D01*
%TO.C,T\u002AC13*%
X83799000Y-92478748D02*
X83799000Y-93001252D01*
X85269000Y-92478748D02*
X85269000Y-93001252D01*
%TO.C,C9*%
X87541001Y-58944240D02*
G75*
G03*
X92191000Y-58819240I2353079J-982066D01*
G01*
D12*
X89666000Y-59944240D02*
G75*
G03*
X89666000Y-59944240I-750000J0D01*
G01*
D16*
%TO.C,FB22*%
X118332348Y-45515000D02*
X118854852Y-45515000D01*
X118332348Y-46985000D02*
X118854852Y-46985000D01*
%TO.C,T\u002AC22*%
X110525000Y-91008752D02*
X110525000Y-90486248D01*
X109055000Y-91008752D02*
X109055000Y-90486248D01*
%TO.C,U21*%
X114220000Y-94420000D02*
X114220000Y-95220000D01*
X111100000Y-94420000D02*
X111100000Y-96220000D01*
X114220000Y-94420000D02*
X114220000Y-93620000D01*
X111100000Y-94420000D02*
X111100000Y-93620000D01*
%TO.C,PD3.3*%
X114210000Y-88230000D02*
X114210000Y-88290000D01*
X111550000Y-88290000D02*
X114210000Y-88290000D01*
X111550000Y-88230000D02*
X114210000Y-88230000D01*
X111550000Y-85630000D02*
X112880000Y-85630000D01*
X111550000Y-86960000D02*
X111550000Y-85630000D01*
X111550000Y-88230000D02*
X111550000Y-88290000D01*
%TO.C,R17*%
X91828064Y-77323145D02*
X91373936Y-77323145D01*
X91828064Y-75853145D02*
X91373936Y-75853145D01*
D17*
%TO.C,D32*%
X86192856Y-45115000D02*
G75*
G03*
X86192856Y-45115000I-50000J0D01*
G01*
D16*
%TO.C,R14*%
X82784936Y-56107000D02*
X83239064Y-56107000D01*
X82784936Y-54637000D02*
X83239064Y-54637000D01*
D17*
%TO.C,D31*%
X88274284Y-45115000D02*
G75*
G03*
X88274284Y-45115000I-50000J0D01*
G01*
D16*
%TO.C,R34*%
X109394248Y-53331000D02*
X109916752Y-53331000D01*
X109394248Y-51861000D02*
X109916752Y-51861000D01*
D17*
%TO.C,D23*%
X113086108Y-49220000D02*
G75*
G03*
X113086108Y-49220000I-50000J0D01*
G01*
%TO.C,D33*%
X84111428Y-45115000D02*
G75*
G03*
X84111428Y-45115000I-50000J0D01*
G01*
D16*
%TO.C,C23*%
X113966248Y-54655000D02*
X114488752Y-54655000D01*
X113966248Y-56125000D02*
X114488752Y-56125000D01*
%TO.C,R16*%
X90027064Y-73866429D02*
X89572936Y-73866429D01*
X90027064Y-72396429D02*
X89572936Y-72396429D01*
%TO.C,R29*%
X109501000Y-81759248D02*
X109501000Y-82281752D01*
X110971000Y-81759248D02*
X110971000Y-82281752D01*
%TO.C,U14*%
X100040000Y-84836000D02*
X100040000Y-85636000D01*
X100040000Y-84836000D02*
X100040000Y-84036000D01*
X103160000Y-84836000D02*
X103160000Y-83036000D01*
X103160000Y-84836000D02*
X103160000Y-85636000D01*
D12*
%TO.C,C5*%
X113235000Y-68570160D02*
X110960000Y-68620160D01*
X114060000Y-67445160D02*
X112560000Y-67470160D01*
X111010000Y-67120160D02*
X110885000Y-67120160D01*
X112335000Y-69020160D02*
X111210000Y-69045160D01*
X113060000Y-68670160D02*
X110935000Y-68720160D01*
X111160000Y-66970160D02*
X110885000Y-66970160D01*
X114159000Y-66595160D02*
X109161000Y-66595160D01*
X114010000Y-67595160D02*
X112510000Y-67620160D01*
X113760000Y-68020160D02*
X112435000Y-68045160D01*
X113935000Y-67745160D02*
X112535000Y-67745160D01*
X114097500Y-67282660D02*
X112485000Y-67295160D01*
X113385000Y-68445160D02*
X110985000Y-68470160D01*
X112860000Y-68745160D02*
X110960000Y-68845160D01*
X113835000Y-67895160D02*
X112485000Y-67895160D01*
X112635000Y-68895160D02*
X110935000Y-68945160D01*
X112535000Y-68320160D02*
X110985000Y-68345160D01*
D16*
X109050000Y-65871408D02*
X109050000Y-67293912D01*
D12*
X114184000Y-66745160D02*
X109160000Y-66720160D01*
X111185000Y-68220160D02*
X110985000Y-68220160D01*
X110935000Y-66845160D02*
X111310000Y-66845160D01*
X109135000Y-66570160D02*
X109135000Y-66720160D01*
D16*
X110870000Y-65871408D02*
X110870000Y-67293912D01*
D12*
X114185000Y-67145160D02*
X112385000Y-67145160D01*
X113997500Y-67382660D02*
X112510000Y-67370160D01*
X111060000Y-68095160D02*
X110985000Y-68095160D01*
X113635000Y-68170160D02*
X112260000Y-68170160D01*
X113535000Y-68320160D02*
X111985000Y-68345160D01*
X114209000Y-66870160D02*
X112185000Y-66870160D01*
X113535000Y-68295160D02*
X112160000Y-68295160D01*
X114209000Y-66995160D02*
X112310000Y-67020160D01*
X110966250Y-66626410D02*
X110985000Y-68995160D01*
D16*
X110710000Y-68945159D02*
G75*
G03*
X110585000Y-64295160I982066J2353079D01*
G01*
D12*
X112460000Y-67570160D02*
G75*
G03*
X112460000Y-67570160I-750000J0D01*
G01*
D16*
%TO.C,C13*%
X86823248Y-53343000D02*
X87345752Y-53343000D01*
X86823248Y-51873000D02*
X87345752Y-51873000D01*
%TO.C,R27*%
X91127000Y-88145252D02*
X91127000Y-87622748D01*
X92597000Y-88145252D02*
X92597000Y-87622748D01*
%TO.C,FB23*%
X113805948Y-46985000D02*
X114328452Y-46985000D01*
X113805948Y-45515000D02*
X114328452Y-45515000D01*
%TO.C,C12*%
X90887248Y-51873000D02*
X91409752Y-51873000D01*
X90887248Y-53343000D02*
X91409752Y-53343000D01*
%TO.C,R33*%
X113966248Y-53331000D02*
X114488752Y-53331000D01*
X113966248Y-51861000D02*
X114488752Y-51861000D01*
%TO.C,C18*%
X85801252Y-78855000D02*
X85278748Y-78855000D01*
X85801252Y-80325000D02*
X85278748Y-80325000D01*
D18*
%TO.C,LINE_IO1*%
X113424900Y-19502900D02*
G75*
G03*
X113619900Y-19503900I97500J-500D01*
G01*
X113619900Y-19502900D02*
G75*
G03*
X113424900Y-19503900I-97500J-500D01*
G01*
D17*
X111124900Y-24203900D02*
X111124900Y-34003900D01*
X126124900Y-20203900D02*
X111124900Y-20203900D01*
X120124900Y-34003900D02*
X126124900Y-34003900D01*
X126124900Y-21203900D02*
X126124900Y-20203900D01*
D18*
X113424900Y-19503900D02*
X113424900Y-19503900D01*
D17*
X111124900Y-20203900D02*
X111124900Y-21203900D01*
X111124900Y-34003900D02*
X117124900Y-34003900D01*
X126124900Y-34003900D02*
X126124900Y-24373900D01*
D18*
X113619900Y-19503900D02*
X113619900Y-19503900D01*
D16*
%TO.C,FB24*%
X109279548Y-45515000D02*
X109802052Y-45515000D01*
X109279548Y-46985000D02*
X109802052Y-46985000D01*
%TO.C,R32*%
X118284248Y-53331000D02*
X118806752Y-53331000D01*
X118284248Y-51861000D02*
X118806752Y-51861000D01*
%TO.C,R28*%
X107215000Y-81780748D02*
X107215000Y-82303252D01*
X108685000Y-81780748D02*
X108685000Y-82303252D01*
%TO.C,C15*%
X87212252Y-70566000D02*
X86689748Y-70566000D01*
X87212252Y-69096000D02*
X86689748Y-69096000D01*
%TO.C,R1*%
X121893000Y-102388936D02*
X121893000Y-102843064D01*
X120423000Y-102388936D02*
X120423000Y-102843064D01*
D17*
%TO.C,D25*%
X103937220Y-49220000D02*
G75*
G03*
X103937220Y-49220000I-50000J0D01*
G01*
D16*
%TO.C,PU_EN21*%
X107221584Y-84276854D02*
X110021584Y-84276854D01*
X107218584Y-85546854D02*
X107221584Y-84276854D01*
X110015584Y-84302254D02*
X110021584Y-85546854D01*
X110021584Y-85546854D02*
X107221584Y-85546854D01*
%TO.C,T\u002AC15*%
X88145252Y-88625000D02*
X87622748Y-88625000D01*
X88145252Y-87155000D02*
X87622748Y-87155000D01*
%TO.C,FB21*%
X122858748Y-46985000D02*
X123381252Y-46985000D01*
X122858748Y-45515000D02*
X123381252Y-45515000D01*
%TO.C,T\u002AC9*%
X83749000Y-89001252D02*
X83749000Y-88478748D01*
X85219000Y-89001252D02*
X85219000Y-88478748D01*
%TO.C,C26*%
X100250248Y-56125000D02*
X100772752Y-56125000D01*
X100250248Y-54655000D02*
X100772752Y-54655000D01*
%TO.C,C3*%
X115450000Y-65849248D02*
X115450000Y-67271752D01*
D12*
X120160000Y-67998000D02*
X118835000Y-68023000D01*
X120559000Y-66573000D02*
X115561000Y-66573000D01*
X120585000Y-67123000D02*
X118785000Y-67123000D01*
X117335000Y-66823000D02*
X117710000Y-66823000D01*
X117460000Y-68073000D02*
X117385000Y-68073000D01*
X118935000Y-68298000D02*
X117385000Y-68323000D01*
X119935000Y-68298000D02*
X118385000Y-68323000D01*
X120609000Y-66973000D02*
X118710000Y-66998000D01*
X120035000Y-68148000D02*
X118660000Y-68148000D01*
X117560000Y-66948000D02*
X117285000Y-66948000D01*
X120335000Y-67723000D02*
X118935000Y-67723000D01*
X117410000Y-67098000D02*
X117285000Y-67098000D01*
X117366250Y-66604250D02*
X117385000Y-68973000D01*
X120497500Y-67260500D02*
X118885000Y-67273000D01*
X119785000Y-68423000D02*
X117385000Y-68448000D01*
X119260000Y-68723000D02*
X117360000Y-68823000D01*
D16*
X117270000Y-65849248D02*
X117270000Y-67271752D01*
D12*
X119035000Y-68873000D02*
X117335000Y-68923000D01*
X120609000Y-66848000D02*
X118585000Y-66848000D01*
X115535000Y-66548000D02*
X115535000Y-66698000D01*
X119460000Y-68648000D02*
X117335000Y-68698000D01*
X117585000Y-68198000D02*
X117385000Y-68198000D01*
X119935000Y-68273000D02*
X118560000Y-68273000D01*
X120397500Y-67360500D02*
X118910000Y-67348000D01*
X118735000Y-68998000D02*
X117610000Y-69023000D01*
X120584000Y-66723000D02*
X115560000Y-66698000D01*
X120460000Y-67423000D02*
X118960000Y-67448000D01*
X120235000Y-67873000D02*
X118885000Y-67873000D01*
X119635000Y-68548000D02*
X117360000Y-68598000D01*
X120410000Y-67573000D02*
X118910000Y-67598000D01*
D16*
X117110000Y-68922999D02*
G75*
G03*
X116985000Y-64273000I982066J2353079D01*
G01*
D12*
X118860000Y-67548000D02*
G75*
G03*
X118860000Y-67548000I-750000J0D01*
G01*
D16*
%TO.C,C22*%
X118305748Y-54655000D02*
X118828252Y-54655000D01*
X118305748Y-56125000D02*
X118828252Y-56125000D01*
%TO.C,C14*%
X82780748Y-53343000D02*
X83303252Y-53343000D01*
X82780748Y-51873000D02*
X83303252Y-51873000D01*
%TO.C,C25*%
X104843748Y-54655000D02*
X105366252Y-54655000D01*
X104843748Y-56125000D02*
X105366252Y-56125000D01*
%TO.C,T\u002AC6*%
X96785010Y-81355543D02*
X96415543Y-81725010D01*
X97824457Y-82394990D02*
X97454990Y-82764457D01*
D12*
%TO.C,C2*%
X126426000Y-60627000D02*
X121402000Y-60602000D01*
X126451000Y-60752000D02*
X124427000Y-60752000D01*
X126239500Y-61264500D02*
X124752000Y-61252000D01*
X126252000Y-61477000D02*
X124752000Y-61502000D01*
X125777000Y-62202000D02*
X124227000Y-62227000D01*
X125102000Y-62627000D02*
X123202000Y-62727000D01*
X125877000Y-62052000D02*
X124502000Y-62052000D01*
X126401000Y-60477000D02*
X121403000Y-60477000D01*
X124777000Y-62202000D02*
X123227000Y-62227000D01*
X123302000Y-61977000D02*
X123227000Y-61977000D01*
X126451000Y-60877000D02*
X124552000Y-60902000D01*
X126077000Y-61777000D02*
X124727000Y-61777000D01*
X126339500Y-61164500D02*
X124727000Y-61177000D01*
D16*
X121292000Y-59753248D02*
X121292000Y-61175752D01*
D12*
X126427000Y-61027000D02*
X124627000Y-61027000D01*
X123177000Y-60727000D02*
X123552000Y-60727000D01*
X126302000Y-61327000D02*
X124802000Y-61352000D01*
X125302000Y-62552000D02*
X123177000Y-62602000D01*
X125627000Y-62327000D02*
X123227000Y-62352000D01*
X123208250Y-60508250D02*
X123227000Y-62877000D01*
X124877000Y-62777000D02*
X123177000Y-62827000D01*
X123402000Y-60852000D02*
X123127000Y-60852000D01*
X124577000Y-62902000D02*
X123452000Y-62927000D01*
X121377000Y-60452000D02*
X121377000Y-60602000D01*
X125777000Y-62177000D02*
X124402000Y-62177000D01*
X123252000Y-61002000D02*
X123127000Y-61002000D01*
D16*
X123112000Y-59753248D02*
X123112000Y-61175752D01*
D12*
X125477000Y-62452000D02*
X123202000Y-62502000D01*
X123427000Y-62102000D02*
X123227000Y-62102000D01*
X126002000Y-61902000D02*
X124677000Y-61927000D01*
X126177000Y-61627000D02*
X124777000Y-61627000D01*
D16*
X122952000Y-62826999D02*
G75*
G03*
X122827000Y-58177000I982066J2353079D01*
G01*
D12*
X124702000Y-61452000D02*
G75*
G03*
X124702000Y-61452000I-750000J0D01*
G01*
%TO.C,C1*%
X125702849Y-72466000D02*
X124327849Y-72466000D01*
X121202849Y-70866000D02*
X121202849Y-71016000D01*
X126077849Y-71891000D02*
X124577849Y-71916000D01*
X126276849Y-71166000D02*
X124252849Y-71166000D01*
X123034099Y-70922250D02*
X123052849Y-73291000D01*
X125452849Y-72741000D02*
X123052849Y-72766000D01*
X123077849Y-71416000D02*
X122952849Y-71416000D01*
X126276849Y-71291000D02*
X124377849Y-71316000D01*
X124602849Y-72616000D02*
X123052849Y-72641000D01*
X126065349Y-71678500D02*
X124577849Y-71666000D01*
X125602849Y-72591000D02*
X124227849Y-72591000D01*
X124927849Y-73041000D02*
X123027849Y-73141000D01*
X123252849Y-72516000D02*
X123052849Y-72516000D01*
X125827849Y-72316000D02*
X124502849Y-72341000D01*
X126226849Y-70891000D02*
X121228849Y-70891000D01*
D16*
X121117849Y-70167248D02*
X121117849Y-71589752D01*
D12*
X125302849Y-72866000D02*
X123027849Y-72916000D01*
X126127849Y-71741000D02*
X124627849Y-71766000D01*
X125902849Y-72191000D02*
X124552849Y-72191000D01*
X126251849Y-71041000D02*
X121227849Y-71016000D01*
X123227849Y-71266000D02*
X122952849Y-71266000D01*
X123127849Y-72391000D02*
X123052849Y-72391000D01*
X123002849Y-71141000D02*
X123377849Y-71141000D01*
X125127849Y-72966000D02*
X123002849Y-73016000D01*
X124702849Y-73191000D02*
X123002849Y-73241000D01*
D16*
X122937849Y-70167248D02*
X122937849Y-71589752D01*
D12*
X126165349Y-71578500D02*
X124552849Y-71591000D01*
X125602849Y-72616000D02*
X124052849Y-72641000D01*
X126002849Y-72041000D02*
X124602849Y-72041000D01*
X126252849Y-71441000D02*
X124452849Y-71441000D01*
X124402849Y-73316000D02*
X123277849Y-73341000D01*
D16*
X122777849Y-73240999D02*
G75*
G03*
X122652849Y-68591000I982066J2353079D01*
G01*
D12*
X124527849Y-71866000D02*
G75*
G03*
X124527849Y-71866000I-750000J0D01*
G01*
D16*
%TO.C,U18*%
X86274000Y-92590000D02*
X86274000Y-91790000D01*
X86274000Y-92590000D02*
X86274000Y-94390000D01*
X89394000Y-92590000D02*
X89394000Y-91790000D01*
X89394000Y-92590000D02*
X89394000Y-93390000D01*
%TO.C,T\u002AC11*%
X93774990Y-67445543D02*
X94144457Y-67815010D01*
X92735543Y-68484990D02*
X93105010Y-68854457D01*
%TO.C,C20*%
X100068748Y-88873000D02*
X100591252Y-88873000D01*
X100068748Y-87403000D02*
X100591252Y-87403000D01*
%TO.C,C16*%
X85611252Y-72375000D02*
X85088748Y-72375000D01*
X85611252Y-73845000D02*
X85088748Y-73845000D01*
%TO.C,T\u002AC16*%
X121071252Y-90425000D02*
X120548748Y-90425000D01*
X121071252Y-88955000D02*
X120548748Y-88955000D01*
%TO.C,FB25*%
X104753148Y-46985000D02*
X105275652Y-46985000D01*
X104753148Y-45515000D02*
X105275652Y-45515000D01*
%TO.C,T\u002AC4*%
X105637000Y-84788248D02*
X105637000Y-85310752D01*
X104167000Y-84788248D02*
X104167000Y-85310752D01*
%TO.C,C11*%
X94951248Y-51873000D02*
X95473752Y-51873000D01*
X94951248Y-53343000D02*
X95473752Y-53343000D01*
%TO.C,R18*%
X90217064Y-78859287D02*
X89762936Y-78859287D01*
X90217064Y-80329287D02*
X89762936Y-80329287D01*
D12*
%TO.C,C6*%
X113170500Y-60701000D02*
X111146500Y-60701000D01*
X112959000Y-61213500D02*
X111471500Y-61201000D01*
X113145500Y-60576000D02*
X108121500Y-60551000D01*
X112021500Y-62501000D02*
X109896500Y-62551000D01*
X113170500Y-60826000D02*
X111271500Y-60851000D01*
X109896500Y-60676000D02*
X110271500Y-60676000D01*
X112496500Y-62126000D02*
X111121500Y-62126000D01*
X113146500Y-60976000D02*
X111346500Y-60976000D01*
X112346500Y-62276000D02*
X109946500Y-62301000D01*
X112721500Y-61851000D02*
X111396500Y-61876000D01*
X112796500Y-61726000D02*
X111446500Y-61726000D01*
X110121500Y-60801000D02*
X109846500Y-60801000D01*
D16*
X108011500Y-59702248D02*
X108011500Y-61124752D01*
X109831500Y-59702248D02*
X109831500Y-61124752D01*
D12*
X112971500Y-61426000D02*
X111471500Y-61451000D01*
X113021500Y-61276000D02*
X111521500Y-61301000D01*
X112596500Y-62001000D02*
X111221500Y-62001000D01*
X111596500Y-62726000D02*
X109896500Y-62776000D01*
X112896500Y-61576000D02*
X111496500Y-61576000D01*
X112196500Y-62401000D02*
X109921500Y-62451000D01*
X109927750Y-60457250D02*
X109946500Y-62826000D01*
X113059000Y-61113500D02*
X111446500Y-61126000D01*
X110021500Y-61926000D02*
X109946500Y-61926000D01*
X108096500Y-60401000D02*
X108096500Y-60551000D01*
X111821500Y-62576000D02*
X109921500Y-62676000D01*
X112496500Y-62151000D02*
X110946500Y-62176000D01*
X113120500Y-60426000D02*
X108122500Y-60426000D01*
X109971500Y-60951000D02*
X109846500Y-60951000D01*
X111296500Y-62851000D02*
X110171500Y-62876000D01*
X110146500Y-62051000D02*
X109946500Y-62051000D01*
X111496500Y-62151000D02*
X109946500Y-62176000D01*
D16*
X109671500Y-62775999D02*
G75*
G03*
X109546500Y-58126000I982066J2353079D01*
G01*
D12*
X111421500Y-61401000D02*
G75*
G03*
X111421500Y-61401000I-750000J0D01*
G01*
D16*
%TO.C,C8*%
X94399001Y-59379080D02*
G75*
G03*
X99049000Y-59254080I2353079J-982066D01*
G01*
D12*
X96524000Y-60379080D02*
G75*
G03*
X96524000Y-60379080I-750000J0D01*
G01*
D16*
%TO.C,R11*%
X94963936Y-56107000D02*
X95418064Y-56107000D01*
X94963936Y-54637000D02*
X95418064Y-54637000D01*
%TO.C,FB26*%
X100226748Y-45515000D02*
X100749252Y-45515000D01*
X100226748Y-46985000D02*
X100749252Y-46985000D01*
D11*
%TO.C,RCA_IN1*%
X82974900Y-12090000D02*
X82974900Y-18789000D01*
X106373900Y-20289000D02*
X107624900Y-20289000D01*
X107624900Y-20289000D02*
X107624900Y-25990000D01*
X106373900Y-18789000D02*
X106373900Y-20289000D01*
X82974900Y-18789000D02*
X81875900Y-18789000D01*
X95875900Y-20289000D02*
X92373900Y-20289000D01*
X82523900Y-33990000D02*
X80624900Y-33990000D01*
X80624900Y-32089000D02*
X80624900Y-33990000D01*
X92373900Y-18789000D02*
X91274900Y-18789000D01*
X105274900Y-12090000D02*
X96974900Y-12090000D01*
X91274900Y-12090000D02*
X82974900Y-12090000D01*
X95875900Y-18789000D02*
X95875900Y-20289000D01*
D16*
X94124900Y-20289000D02*
X94124900Y-20765000D01*
D11*
X105274900Y-18789000D02*
X106373900Y-18789000D01*
X107624900Y-32089000D02*
X107624900Y-33990000D01*
X81875900Y-18789000D02*
X81875900Y-20289000D01*
X92373900Y-20289000D02*
X92373900Y-18789000D01*
X98225900Y-33990000D02*
X104023900Y-33990000D01*
X95875900Y-18789000D02*
X96974900Y-18789000D01*
X81875900Y-20289000D02*
X80624900Y-20289000D01*
X107624900Y-33990000D02*
X105725900Y-33990000D01*
X96974900Y-12090000D02*
X96974900Y-18789000D01*
X105274900Y-12090000D02*
X105274900Y-18789000D01*
X91274900Y-18789000D02*
X91274900Y-12090000D01*
X80624900Y-20289000D02*
X80624900Y-25990000D01*
X91725900Y-33990000D02*
X96523900Y-33990000D01*
X84225900Y-33990000D02*
X90023900Y-33990000D01*
D16*
%TO.C,T\u002AC12*%
X97874457Y-71135010D02*
X97504990Y-70765543D01*
X96835010Y-72174457D02*
X96465543Y-71804990D01*
%TO.C,P18*%
X86654000Y-86420000D02*
X89314000Y-86420000D01*
X86654000Y-86360000D02*
X86654000Y-86420000D01*
X86654000Y-85090000D02*
X86654000Y-83760000D01*
X86654000Y-83760000D02*
X87984000Y-83760000D01*
X86654000Y-86360000D02*
X89314000Y-86360000D01*
X89314000Y-86360000D02*
X89314000Y-86420000D01*
%TO.C,R35*%
X104843748Y-51861000D02*
X105366252Y-51861000D01*
X104843748Y-53331000D02*
X105366252Y-53331000D01*
%TO.C,R36*%
X100250248Y-53331000D02*
X100772752Y-53331000D01*
X100250248Y-51861000D02*
X100772752Y-51861000D01*
%TO.C,C24*%
X109415748Y-54655000D02*
X109938252Y-54655000D01*
X109415748Y-56125000D02*
X109938252Y-56125000D01*
D17*
%TO.C,D27*%
X96600000Y-45115000D02*
G75*
G03*
X96600000Y-45115000I-50000J0D01*
G01*
D16*
%TO.C,3105IO1*%
X125993000Y-36159500D02*
X126003000Y-43939500D01*
X126003000Y-43939500D02*
X80023000Y-43939500D01*
X80018000Y-36134500D02*
X100963000Y-36129500D01*
X100963000Y-36129500D02*
X100963000Y-36129500D01*
X101718000Y-35932000D02*
X104070500Y-35932000D01*
X80023000Y-43939500D02*
X80018000Y-36134500D01*
X101718000Y-36862000D02*
X101718000Y-35932000D01*
X104070500Y-35932000D02*
X104070500Y-36937000D01*
X105063000Y-36129500D02*
X125993000Y-36159500D01*
%TO.C,T\u002AC23*%
X112598748Y-90625000D02*
X113121252Y-90625000D01*
X112598748Y-89155000D02*
X113121252Y-89155000D01*
%TO.C,U33*%
X119214998Y-94306866D02*
X119214998Y-96106866D01*
X119214998Y-94306866D02*
X119214998Y-93506866D01*
X122334998Y-94306866D02*
X122334998Y-95106866D01*
X122334998Y-94306866D02*
X122334998Y-93506866D01*
%TO.C,R2*%
X100103000Y-92683064D02*
X100103000Y-92228936D01*
X101573000Y-92683064D02*
X101573000Y-92228936D01*
%TO.C,P33*%
X119730000Y-88140000D02*
X122390000Y-88140000D01*
X119730000Y-85480000D02*
X121060000Y-85480000D01*
X122390000Y-88080000D02*
X122390000Y-88140000D01*
X119730000Y-86810000D02*
X119730000Y-85480000D01*
X119730000Y-88080000D02*
X122390000Y-88080000D01*
X119730000Y-88080000D02*
X119730000Y-88140000D01*
%TO.C,C7*%
X101257001Y-59379080D02*
G75*
G03*
X105907000Y-59254080I2353079J-982066D01*
G01*
D12*
X103382000Y-60379080D02*
G75*
G03*
X103382000Y-60379080I-750000J0D01*
G01*
D16*
%TO.C,T\u002AC14*%
X118599998Y-90830618D02*
X118599998Y-90308114D01*
X117129998Y-90830618D02*
X117129998Y-90308114D01*
%TO.C,D1*%
X121183000Y-107716500D02*
X121958000Y-108716500D01*
X120358000Y-108741500D02*
X121183000Y-107716500D01*
X121958000Y-108716500D02*
X120358000Y-108741500D01*
X121958000Y-107716500D02*
X120358000Y-107716500D01*
X122293000Y-105744000D02*
X120023000Y-105744000D01*
X120023000Y-105744000D02*
X120023000Y-109804000D01*
X122293000Y-109804000D02*
X122293000Y-105744000D01*
%TO.C,T\u002AC21*%
X109035000Y-94358748D02*
X109035000Y-94881252D01*
X110505000Y-94358748D02*
X110505000Y-94881252D01*
%TO.C,XIA1*%
X113576000Y-107882000D02*
X114076000Y-108882000D01*
X100566000Y-111812000D02*
X100566000Y-110502000D01*
X85976000Y-110502000D02*
X119256000Y-110502000D01*
X117956000Y-111812000D02*
X117956000Y-118312000D01*
X85976000Y-119622000D02*
X85976000Y-110502000D01*
X87276000Y-118312000D02*
X87276000Y-111812000D01*
X104666000Y-110502000D02*
X104666000Y-111812000D01*
X117956000Y-118312000D02*
X87276000Y-118312000D01*
X87276000Y-111812000D02*
X100566000Y-111812000D01*
X119256000Y-119622000D02*
X85976000Y-119622000D01*
X119256000Y-110502000D02*
X119256000Y-119622000D01*
X114576000Y-107857000D02*
X113576000Y-107857000D01*
X104666000Y-111812000D02*
X117956000Y-111812000D01*
X114076000Y-108882000D02*
X114576000Y-107882000D01*
X100566000Y-111812000D02*
X100566000Y-111812000D01*
%TO.C,R15*%
X87148064Y-65736000D02*
X86693936Y-65736000D01*
X87148064Y-67206000D02*
X86693936Y-67206000D01*
%TO.C,R12*%
X90891436Y-56107000D02*
X91345564Y-56107000D01*
X90891436Y-54637000D02*
X91345564Y-54637000D01*
D17*
%TO.C,D21*%
X122235000Y-49170000D02*
G75*
G03*
X122235000Y-49170000I-50000J0D01*
G01*
D16*
%TO.C,C10*%
X80937001Y-58944240D02*
G75*
G03*
X85587000Y-58819240I2353079J-982066D01*
G01*
D12*
X83062000Y-59944240D02*
G75*
G03*
X83062000Y-59944240I-750000J0D01*
G01*
%TD*%
D19*
%TO.C,LINE_IO1*%
X116634900Y-24373900D03*
X120614900Y-24373900D03*
D20*
X118624900Y-33673900D03*
X111309900Y-22873900D03*
X125939900Y-22873900D03*
X121124900Y-29373900D03*
X116124900Y-29373900D03*
X123629900Y-24373900D03*
X123629900Y-29373900D03*
X113619900Y-29373900D03*
X112374900Y-31863900D03*
X124874900Y-31863900D03*
X113619900Y-24373900D03*
%TD*%
M02*
