M48
; DRILL file {KiCad (6.0.11)} date Sat Feb  4 17:29:28 2023
; FORMAT={-:-/ absolute / inch / decimal}
; #@! TF.CreationDate,2023-02-04T17:29:28-05:00
; #@! TF.GenerationSoftware,Kicad,Pcbnew,(6.0.11)
; #@! TF.FileFunction,Plated,1,2,PTH
FMAT,2
INCH
; #@! TA.AperFunction,Plated,PTH,ComponentDrill
T1C0.0118
; #@! TA.AperFunction,Plated,PTH,ViaDrill
T2C0.0157
; #@! TA.AperFunction,Plated,PTH,ComponentDrill
T3C0.0315
; #@! TA.AperFunction,Plated,PTH,ComponentDrill
T4C0.0394
; #@! TA.AperFunction,Plated,PTH,ComponentDrill
T5C0.0429
; #@! TA.AperFunction,Plated,PTH,ComponentDrill
T6C0.0512
; #@! TA.AperFunction,Plated,PTH,ComponentDrill
T7C0.0591
; #@! TA.AperFunction,Plated,PTH,ComponentDrill
T8C0.0669
; #@! TA.AperFunction,Plated,PTH,ComponentDrill
T9C0.0791
; #@! TA.AperFunction,Plated,PTH,ComponentDrill
T10C0.1260
%
G90
G05
T1
X3.9694Y-2.9828
X3.9694Y-3.0398
X3.9694Y-3.0969
X4.0265Y-2.9828
X4.0265Y-3.0398
X4.0265Y-3.0969
X4.0835Y-2.9828
X4.0835Y-3.0398
X4.0835Y-3.0969
T2
X3.14Y-0.89
X3.1496Y-3.1575
X3.15Y-3.1
X3.1591Y-3.3244
X3.1775Y-1.7638
X3.1843Y-3.0535
X3.1843Y-4.1504
X3.1952Y-1.8327
X3.1984Y-3.8894
X3.2Y-3.0
X3.2007Y-1.9686
X3.2129Y-2.866
X3.22Y-1.91
X3.222Y-1.5146
X3.23Y-3.19
X3.24Y-1.97
X3.27Y-2.65
X3.2913Y-4.4173
X3.2919Y-3.2016
X3.3055Y-1.7189
X3.3284Y-3.0626
X3.33Y-2.52
X3.3504Y-3.3465
X3.3575Y-1.3476
X3.3827Y-2.0143
X3.4Y-2.28
X3.4152Y-1.9352
X3.4177Y-1.7283
X3.4252Y-4.615
X3.4488Y-2.8803
X3.4594Y-4.4272
X3.4642Y-4.2252
X3.4654Y-0.948
X3.476Y-4.0496
X3.5197Y-3.0154
X3.5306Y-2.01
X3.54Y-3.2
X3.5402Y-2.7863
X3.5528Y-3.2646
X3.58Y-2.68
X3.581Y-1.7109
X3.6004Y-2.6218
X3.6051Y-1.026
X3.61Y-3.56
X3.62Y-3.66
X3.62Y-3.82
X3.65Y-3.28
X3.66Y-3.12
X3.6602Y-1.3787
X3.6626Y-2.5675
X3.6718Y-3.3127
X3.6748Y-1.7243
X3.68Y-2.01
X3.68Y-2.34
X3.7Y-3.48
X3.7Y-3.65
X3.7252Y-1.2209
X3.7256Y-2.9551
X3.7575Y-3.3055
X3.76Y-2.75
X3.7685Y-3.65
X3.77Y-3.45
X3.7735Y-1.7088
X3.78Y-2.25
X3.7824Y-2.5675
X3.8012Y-1.9988
X3.81Y-3.14
X3.83Y-0.88
X3.83Y-3.43
X3.83Y-3.65
X3.8457Y-1.402
X3.86Y-1.94
X3.863Y-1.7197
X3.8657Y-2.926
X3.8972Y-2.7642
X3.8985Y-3.36
X3.9Y-3.63
X3.9075Y-2.5574
X3.9078Y-3.5422
X3.95Y-2.55
X3.97Y-2.26
X3.97Y-3.94
X3.9724Y-1.7152
X3.9931Y-2.5028
X4.0Y-2.55
X4.0035Y-1.2693
X4.0038Y-2.77
X4.01Y-1.4
X4.0445Y-1.9945
X4.0472Y-1.7575
X4.06Y-3.64
X4.0687Y-3.5422
X4.0737Y-3.2445
X4.08Y-0.91
X4.11Y-3.91
X4.14Y-2.23
X4.14Y-3.19
X4.141Y-2.9008
X4.15Y-2.51
X4.17Y-3.97
X4.1814Y-2.6786
X4.1967Y-1.992
X4.23Y-2.51
X4.24Y-3.59
X4.24Y-3.77
X4.2464Y-3.4236
X4.25Y-3.9
X4.26Y-2.96
X4.2673Y-1.4071
X4.3039Y-1.7031
X4.3094Y-1.2138
X4.33Y-3.13
X4.3469Y-3.4385
X4.37Y-2.75
X4.3736Y-2.9661
X4.4039Y-1.9323
X4.42Y-3.01
X4.4378Y-1.7126
X4.45Y-2.24
X4.4512Y-1.4094
X4.46Y-2.79
X4.47Y-3.28
X4.49Y-3.15
X4.5Y-3.04
X4.55Y-2.81
X4.56Y-3.67
X4.58Y-1.32
X4.5803Y-4.1772
X4.581Y-4.1065
X4.59Y-3.18
X4.5906Y-1.7091
X4.5929Y-1.935
X4.622Y-3.8264
X4.6224Y-4.6461
X4.63Y-2.94
X4.64Y-3.36
X4.6593Y-4.1848
X4.66Y-2.81
X4.6602Y-4.4339
X4.67Y-2.24
X4.676Y-3.1303
X4.69Y-3.03
X4.7413Y-1.7055
X4.7642Y-1.9327
X4.78Y-2.92
X4.7878Y-4.4878
X4.8142Y-1.2831
X4.82Y-2.53
X4.85Y-2.23
X4.87Y-3.07
X4.8776Y-1.7016
X4.9Y-1.61
X4.9Y-2.63
X4.91Y-1.46
X4.9256Y-3.6472
X4.9264Y-3.9535
X4.9283Y-3.1819
X4.95Y-1.05
T3
X3.2406Y-2.36
X3.3194Y-2.36
X3.5006Y-2.36
X3.5794Y-2.36
X3.7706Y-2.3771
X3.8494Y-2.3771
X4.0406Y-2.3771
X4.1194Y-2.3771
X4.3571Y-2.3386
X4.3571Y-2.4174
X4.398Y-2.5815
X4.398Y-2.6602
X4.6171Y-2.3386
X4.6171Y-2.4174
X4.65Y-2.5806
X4.65Y-2.6594
X4.8731Y-2.7506
X4.8731Y-2.8294
X4.88Y-2.3406
X4.88Y-2.4194
T4
X3.3556Y-1.5004
X3.3556Y-1.6004
X3.4556Y-1.5004
X3.4556Y-1.6004
X3.4639Y-3.35
X3.5556Y-1.5004
X3.5556Y-1.6004
X3.59Y-4.08
X3.59Y-4.18
X3.59Y-4.48
X3.59Y-4.58
X3.6556Y-1.5004
X3.6556Y-1.6004
X3.69Y-4.08
X3.69Y-4.18
X3.69Y-4.48
X3.69Y-4.58
X3.7556Y-1.5004
X3.7556Y-1.6004
X3.79Y-4.08
X3.79Y-4.18
X3.79Y-4.48
X3.79Y-4.58
X3.8556Y-1.5004
X3.8556Y-1.6004
X3.89Y-4.08
X3.89Y-4.18
X3.89Y-4.48
X3.89Y-4.58
X3.9556Y-1.5004
X3.9556Y-1.6004
X3.99Y-4.08
X3.99Y-4.18
X3.99Y-4.48
X3.99Y-4.58
X4.0556Y-1.5004
X4.0556Y-1.6004
X4.09Y-4.08
X4.09Y-4.18
X4.09Y-4.48
X4.09Y-4.58
X4.1556Y-1.5004
X4.1556Y-1.6004
X4.19Y-4.08
X4.19Y-4.18
X4.19Y-4.48
X4.19Y-4.58
X4.2556Y-1.5004
X4.2556Y-1.6004
X4.29Y-4.08
X4.29Y-4.18
X4.29Y-4.48
X4.29Y-4.58
X4.3556Y-1.5004
X4.3556Y-1.6004
X4.39Y-4.08
X4.39Y-4.18
X4.39Y-4.48
X4.39Y-4.58
X4.4441Y-3.4236
X4.4556Y-1.5004
X4.4556Y-1.6004
X4.49Y-4.08
X4.49Y-4.18
X4.49Y-4.48
X4.49Y-4.58
X4.5556Y-1.5004
X4.5556Y-1.6004
X4.6556Y-1.5004
X4.6556Y-1.6004
X4.7556Y-1.5004
X4.7556Y-1.6004
X4.7661Y-3.4177
T5
X4.3823Y-0.9005
X4.4242Y-1.2545
X4.4732Y-0.9596
X4.4732Y-1.1565
X4.5718Y-1.1565
X4.6703Y-1.3257
X4.7687Y-1.1565
X4.8673Y-0.9596
X4.8673Y-1.1565
X4.9163Y-1.2545
X4.9583Y-0.9005
T6
X3.2825Y-1.2909
X3.5778Y-1.2909
X3.8337Y-1.2909
X4.1289Y-1.2909
T7
X3.2825Y-1.0055
X3.8337Y-1.0055
T9
X4.5919Y-0.9596
X4.7486Y-0.9596
T10
X3.1939Y-4.6201
X4.9262Y-4.6201
T8
G00X3.188Y-1.098
M15
G01X3.188Y-1.1886
M16
G05
G00X4.2234Y-1.098
M15
G01X4.2234Y-1.1886
M16
G05
T0
M30
