G04 #@! TF.GenerationSoftware,KiCad,Pcbnew,9.0.4*
G04 #@! TF.CreationDate,2025-08-20T18:38:41-04:00*
G04 #@! TF.ProjectId,jlc_pcba,6a6c635f-7063-4626-912e-6b696361645f,rev?*
G04 #@! TF.SameCoordinates,Original*
G04 #@! TF.FileFunction,Soldermask,Bot*
G04 #@! TF.FilePolarity,Negative*
%FSLAX46Y46*%
G04 Gerber Fmt 4.6, Leading zero omitted, Abs format (unit mm)*
G04 Created by KiCad (PCBNEW 9.0.4) date 2025-08-20 18:38:41*
%MOMM*%
%LPD*%
G01*
G04 APERTURE LIST*
G04 Aperture macros list*
%AMRoundRect*
0 Rectangle with rounded corners*
0 $1 Rounding radius*
0 $2 $3 $4 $5 $6 $7 $8 $9 X,Y pos of 4 corners*
0 Add a 4 corners polygon primitive as box body*
4,1,4,$2,$3,$4,$5,$6,$7,$8,$9,$2,$3,0*
0 Add four circle primitives for the rounded corners*
1,1,$1+$1,$2,$3*
1,1,$1+$1,$4,$5*
1,1,$1+$1,$6,$7*
1,1,$1+$1,$8,$9*
0 Add four rect primitives between the rounded corners*
20,1,$1+$1,$2,$3,$4,$5,0*
20,1,$1+$1,$4,$5,$6,$7,0*
20,1,$1+$1,$6,$7,$8,$9,0*
20,1,$1+$1,$8,$9,$2,$3,0*%
G04 Aperture macros list end*
%ADD10C,0.010000*%
%ADD11R,1.700000X1.700000*%
%ADD12O,1.700000X1.700000*%
%ADD13C,3.200000*%
%ADD14R,0.500000X0.500000*%
%ADD15R,0.550000X0.500000*%
%ADD16RoundRect,0.237500X-0.300000X-0.237500X0.300000X-0.237500X0.300000X0.237500X-0.300000X0.237500X0*%
%ADD17RoundRect,0.237500X0.300000X0.237500X-0.300000X0.237500X-0.300000X-0.237500X0.300000X-0.237500X0*%
%ADD18RoundRect,0.250000X-0.337500X-0.475000X0.337500X-0.475000X0.337500X0.475000X-0.337500X0.475000X0*%
%ADD19RoundRect,0.160000X-0.160000X0.222500X-0.160000X-0.222500X0.160000X-0.222500X0.160000X0.222500X0*%
%ADD20RoundRect,0.160000X0.160000X-0.222500X0.160000X0.222500X-0.160000X0.222500X-0.160000X-0.222500X0*%
%ADD21RoundRect,0.237500X0.237500X-0.287500X0.237500X0.287500X-0.237500X0.287500X-0.237500X-0.287500X0*%
%ADD22RoundRect,0.250000X0.337500X0.475000X-0.337500X0.475000X-0.337500X-0.475000X0.337500X-0.475000X0*%
%ADD23RoundRect,0.135000X0.135000X0.185000X-0.135000X0.185000X-0.135000X-0.185000X0.135000X-0.185000X0*%
%ADD24RoundRect,0.250000X0.450000X-0.325000X0.450000X0.325000X-0.450000X0.325000X-0.450000X-0.325000X0*%
%ADD25RoundRect,0.250001X0.499999X0.924999X-0.499999X0.924999X-0.499999X-0.924999X0.499999X-0.924999X0*%
%ADD26R,1.500000X1.000000*%
%ADD27RoundRect,0.160000X-0.160000X0.197500X-0.160000X-0.197500X0.160000X-0.197500X0.160000X0.197500X0*%
%ADD28RoundRect,0.237500X-0.237500X0.287500X-0.237500X-0.287500X0.237500X-0.287500X0.237500X0.287500X0*%
%ADD29RoundRect,0.250000X-0.450000X0.325000X-0.450000X-0.325000X0.450000X-0.325000X0.450000X0.325000X0*%
%ADD30R,0.508000X0.500000*%
%ADD31R,0.508000X0.508000*%
%ADD32R,0.500000X0.508000*%
%ADD33RoundRect,0.250001X0.924999X-0.499999X0.924999X0.499999X-0.924999X0.499999X-0.924999X-0.499999X0*%
%ADD34RoundRect,0.237500X-0.287500X-0.237500X0.287500X-0.237500X0.287500X0.237500X-0.287500X0.237500X0*%
%ADD35RoundRect,0.150000X0.512500X0.150000X-0.512500X0.150000X-0.512500X-0.150000X0.512500X-0.150000X0*%
G04 APERTURE END LIST*
G04 #@! TO.C,OP2*
G36*
X44860000Y-77782500D02*
G01*
X45710000Y-77782500D01*
X45710000Y-77282500D01*
X44860000Y-77282500D01*
X44860000Y-77782500D01*
G37*
G04 #@! TO.C,OM2*
G36*
X16175000Y-29882500D02*
G01*
X17025000Y-29882500D01*
X17025000Y-29382500D01*
X16175000Y-29382500D01*
X16175000Y-29882500D01*
G37*
G04 #@! TO.C,MCLK108*
G36*
X9975000Y-85182500D02*
G01*
X8475000Y-85182500D01*
X8475000Y-84882500D01*
X9975000Y-84882500D01*
X9975000Y-85182500D01*
G37*
G04 #@! TO.C,INM2*
G36*
X16457500Y-9082500D02*
G01*
X17307500Y-9082500D01*
X17307500Y-8582500D01*
X16457500Y-8582500D01*
X16457500Y-9082500D01*
G37*
G04 #@! TO.C,INP2*
G36*
X44870000Y-56682500D02*
G01*
X45720000Y-56682500D01*
X45720000Y-56182500D01*
X44870000Y-56182500D01*
X44870000Y-56682500D01*
G37*
G04 #@! TO.C,OM2*
G36*
X16175000Y-73882500D02*
G01*
X17025000Y-73882500D01*
X17025000Y-73382500D01*
X16175000Y-73382500D01*
X16175000Y-73882500D01*
G37*
G04 #@! TO.C,OM1*
G36*
X17175000Y-85582500D02*
G01*
X16300000Y-85582500D01*
X16300000Y-86082500D01*
X17175000Y-86082500D01*
X17175000Y-85582500D01*
G37*
G04 #@! TO.C,G119*
G36*
X25171000Y-55978500D02*
G01*
X25679000Y-55978500D01*
X25679000Y-56478500D01*
X25171000Y-56478500D01*
X25171000Y-55978500D01*
G37*
G04 #@! TO.C,INM1*
G36*
X16337500Y-16282500D02*
G01*
X17187500Y-16282500D01*
X17187500Y-15782500D01*
X16337500Y-15782500D01*
X16337500Y-16282500D01*
G37*
G04 #@! TO.C,GND108*
G36*
X43539000Y-68378500D02*
G01*
X43039000Y-68378500D01*
X43039000Y-68886500D01*
X43539000Y-68886500D01*
X43539000Y-68378500D01*
G37*
G04 #@! TO.C,SCL108*
G36*
X11279000Y-85286500D02*
G01*
X10771000Y-85286500D01*
X10771000Y-84786500D01*
X11279000Y-84786500D01*
X11279000Y-85286500D01*
G37*
G04 #@! TO.C,SDA108*
G36*
X12479000Y-42486500D02*
G01*
X11971000Y-42486500D01*
X11971000Y-41986500D01*
X12479000Y-41986500D01*
X12479000Y-42486500D01*
G37*
G04 #@! TO.C,GND108*
G36*
X15079000Y-24378500D02*
G01*
X14579000Y-24378500D01*
X14579000Y-24886500D01*
X15079000Y-24886500D01*
X15079000Y-24378500D01*
G37*
G04 #@! TO.C,OP1*
G36*
X44935000Y-38082500D02*
G01*
X45785000Y-38082500D01*
X45785000Y-37582500D01*
X44935000Y-37582500D01*
X44935000Y-38082500D01*
G37*
G04 #@! TO.C,INP1*
G36*
X16400000Y-63882500D02*
G01*
X17250000Y-63882500D01*
X17250000Y-63382500D01*
X16400000Y-63382500D01*
X16400000Y-63882500D01*
G37*
G04 #@! TO.C,3V108*
D10*
X54385000Y-15892500D02*
X53385000Y-15892500D01*
X53385000Y-13782500D01*
X54385000Y-13782500D01*
X54385000Y-15892500D01*
G36*
X54385000Y-15892500D02*
G01*
X53385000Y-15892500D01*
X53385000Y-13782500D01*
X54385000Y-13782500D01*
X54385000Y-15892500D01*
G37*
G04 #@! TO.C,OM1*
G36*
X45635000Y-85582500D02*
G01*
X44760000Y-85582500D01*
X44760000Y-86082500D01*
X45635000Y-86082500D01*
X45635000Y-85582500D01*
G37*
G04 #@! TO.C,SDA108*
G36*
X40939000Y-86486500D02*
G01*
X40431000Y-86486500D01*
X40431000Y-85986500D01*
X40939000Y-85986500D01*
X40939000Y-86486500D01*
G37*
G04 #@! TO.C,OM1*
G36*
X45635000Y-41582500D02*
G01*
X44760000Y-41582500D01*
X44760000Y-42082500D01*
X45635000Y-42082500D01*
X45635000Y-41582500D01*
G37*
G04 #@! TO.C,OP1*
G36*
X16475000Y-38082500D02*
G01*
X17325000Y-38082500D01*
X17325000Y-37582500D01*
X16475000Y-37582500D01*
X16475000Y-38082500D01*
G37*
G04 #@! TO.C,SDA108*
G36*
X40939000Y-42486500D02*
G01*
X40431000Y-42486500D01*
X40431000Y-41986500D01*
X40939000Y-41986500D01*
X40939000Y-42486500D01*
G37*
G04 #@! TO.C,INM1*
G36*
X16337500Y-60282500D02*
G01*
X17187500Y-60282500D01*
X17187500Y-59782500D01*
X16337500Y-59782500D01*
X16337500Y-60282500D01*
G37*
G04 #@! TO.C,INP2*
G36*
X16410000Y-12682500D02*
G01*
X17260000Y-12682500D01*
X17260000Y-12182500D01*
X16410000Y-12182500D01*
X16410000Y-12682500D01*
G37*
G04 #@! TO.C,MCLK108*
G36*
X38435000Y-41182500D02*
G01*
X36935000Y-41182500D01*
X36935000Y-40882500D01*
X38435000Y-40882500D01*
X38435000Y-41182500D01*
G37*
G04 #@! TO.C,SCL108*
G36*
X39739000Y-85286500D02*
G01*
X39231000Y-85286500D01*
X39231000Y-84786500D01*
X39739000Y-84786500D01*
X39739000Y-85286500D01*
G37*
G04 #@! TO.C,OP2*
G36*
X16400000Y-33782500D02*
G01*
X17250000Y-33782500D01*
X17250000Y-33282500D01*
X16400000Y-33282500D01*
X16400000Y-33782500D01*
G37*
G04 #@! TO.C,OP1*
G36*
X16475000Y-82082500D02*
G01*
X17325000Y-82082500D01*
X17325000Y-81582500D01*
X16475000Y-81582500D01*
X16475000Y-82082500D01*
G37*
G04 #@! TO.C,OM1*
G36*
X17175000Y-41582500D02*
G01*
X16300000Y-41582500D01*
X16300000Y-42082500D01*
X17175000Y-42082500D01*
X17175000Y-41582500D01*
G37*
G04 #@! TO.C,INP1*
G36*
X16400000Y-19882500D02*
G01*
X17250000Y-19882500D01*
X17250000Y-19382500D01*
X16400000Y-19382500D01*
X16400000Y-19882500D01*
G37*
G04 #@! TO.C,G119*
G36*
X53631000Y-55978500D02*
G01*
X54139000Y-55978500D01*
X54139000Y-56478500D01*
X53631000Y-56478500D01*
X53631000Y-55978500D01*
G37*
G04 #@! TO.C,INM1*
G36*
X44797500Y-60282500D02*
G01*
X45647500Y-60282500D01*
X45647500Y-59782500D01*
X44797500Y-59782500D01*
X44797500Y-60282500D01*
G37*
G04 #@! TO.C,OP2*
G36*
X16400000Y-77782500D02*
G01*
X17250000Y-77782500D01*
X17250000Y-77282500D01*
X16400000Y-77282500D01*
X16400000Y-77782500D01*
G37*
G04 #@! TO.C,3V108*
X25925000Y-15892500D02*
X24925000Y-15892500D01*
X24925000Y-13782500D01*
X25925000Y-13782500D01*
X25925000Y-15892500D01*
G36*
X25925000Y-15892500D02*
G01*
X24925000Y-15892500D01*
X24925000Y-13782500D01*
X25925000Y-13782500D01*
X25925000Y-15892500D01*
G37*
G04 #@! TO.C,INP1*
G36*
X44860000Y-63882500D02*
G01*
X45710000Y-63882500D01*
X45710000Y-63382500D01*
X44860000Y-63382500D01*
X44860000Y-63882500D01*
G37*
G04 #@! TO.C,MCLK108*
G36*
X9975000Y-41182500D02*
G01*
X8475000Y-41182500D01*
X8475000Y-40882500D01*
X9975000Y-40882500D01*
X9975000Y-41182500D01*
G37*
G04 #@! TO.C,INP1*
G36*
X44860000Y-19882500D02*
G01*
X45710000Y-19882500D01*
X45710000Y-19382500D01*
X44860000Y-19382500D01*
X44860000Y-19882500D01*
G37*
G04 #@! TO.C,MCLK108*
G36*
X38435000Y-85182500D02*
G01*
X36935000Y-85182500D01*
X36935000Y-84882500D01*
X38435000Y-84882500D01*
X38435000Y-85182500D01*
G37*
G04 #@! TO.C,INM2*
G36*
X44917500Y-9082500D02*
G01*
X45767500Y-9082500D01*
X45767500Y-8582500D01*
X44917500Y-8582500D01*
X44917500Y-9082500D01*
G37*
G04 #@! TO.C,OP2*
G36*
X44860000Y-33782500D02*
G01*
X45710000Y-33782500D01*
X45710000Y-33282500D01*
X44860000Y-33282500D01*
X44860000Y-33782500D01*
G37*
G04 #@! TO.C,INP2*
G36*
X44870000Y-12682500D02*
G01*
X45720000Y-12682500D01*
X45720000Y-12182500D01*
X44870000Y-12182500D01*
X44870000Y-12682500D01*
G37*
G36*
X16410000Y-56682500D02*
G01*
X17260000Y-56682500D01*
X17260000Y-56182500D01*
X16410000Y-56182500D01*
X16410000Y-56682500D01*
G37*
G04 #@! TO.C,SDA108*
G36*
X12479000Y-86486500D02*
G01*
X11971000Y-86486500D01*
X11971000Y-85986500D01*
X12479000Y-85986500D01*
X12479000Y-86486500D01*
G37*
G04 #@! TO.C,SCL108*
G36*
X11279000Y-41286500D02*
G01*
X10771000Y-41286500D01*
X10771000Y-40786500D01*
X11279000Y-40786500D01*
X11279000Y-41286500D01*
G37*
G04 #@! TO.C,INM1*
G36*
X44797500Y-16282500D02*
G01*
X45647500Y-16282500D01*
X45647500Y-15782500D01*
X44797500Y-15782500D01*
X44797500Y-16282500D01*
G37*
G04 #@! TO.C,GND108*
G36*
X43539000Y-24378500D02*
G01*
X43039000Y-24378500D01*
X43039000Y-24886500D01*
X43539000Y-24886500D01*
X43539000Y-24378500D01*
G37*
G04 #@! TO.C,SCL108*
G36*
X39739000Y-41286500D02*
G01*
X39231000Y-41286500D01*
X39231000Y-40786500D01*
X39739000Y-40786500D01*
X39739000Y-41286500D01*
G37*
G04 #@! TO.C,OM2*
G36*
X44635000Y-73882500D02*
G01*
X45485000Y-73882500D01*
X45485000Y-73382500D01*
X44635000Y-73382500D01*
X44635000Y-73882500D01*
G37*
G04 #@! TO.C,G119*
G36*
X53631000Y-11978500D02*
G01*
X54139000Y-11978500D01*
X54139000Y-12478500D01*
X53631000Y-12478500D01*
X53631000Y-11978500D01*
G37*
G04 #@! TO.C,3V108*
X54385000Y-59892500D02*
X53385000Y-59892500D01*
X53385000Y-57782500D01*
X54385000Y-57782500D01*
X54385000Y-59892500D01*
G36*
X54385000Y-59892500D02*
G01*
X53385000Y-59892500D01*
X53385000Y-57782500D01*
X54385000Y-57782500D01*
X54385000Y-59892500D01*
G37*
G04 #@! TO.C,G119*
G36*
X25171000Y-11978500D02*
G01*
X25679000Y-11978500D01*
X25679000Y-12478500D01*
X25171000Y-12478500D01*
X25171000Y-11978500D01*
G37*
G04 #@! TO.C,INM2*
G36*
X16457500Y-53082500D02*
G01*
X17307500Y-53082500D01*
X17307500Y-52582500D01*
X16457500Y-52582500D01*
X16457500Y-53082500D01*
G37*
G04 #@! TO.C,3V108*
X25925000Y-59892500D02*
X24925000Y-59892500D01*
X24925000Y-57782500D01*
X25925000Y-57782500D01*
X25925000Y-59892500D01*
G36*
X25925000Y-59892500D02*
G01*
X24925000Y-59892500D01*
X24925000Y-57782500D01*
X25925000Y-57782500D01*
X25925000Y-59892500D01*
G37*
G04 #@! TO.C,INM2*
G36*
X44917500Y-53082500D02*
G01*
X45767500Y-53082500D01*
X45767500Y-52582500D01*
X44917500Y-52582500D01*
X44917500Y-53082500D01*
G37*
G04 #@! TO.C,OM2*
G36*
X44635000Y-29882500D02*
G01*
X45485000Y-29882500D01*
X45485000Y-29382500D01*
X44635000Y-29382500D01*
X44635000Y-29882500D01*
G37*
G04 #@! TO.C,GND108*
G36*
X15079000Y-68378500D02*
G01*
X14579000Y-68378500D01*
X14579000Y-68886500D01*
X15079000Y-68886500D01*
X15079000Y-68378500D01*
G37*
G04 #@! TO.C,OP1*
G36*
X44935000Y-82082500D02*
G01*
X45785000Y-82082500D01*
X45785000Y-81582500D01*
X44935000Y-81582500D01*
X44935000Y-82082500D01*
G37*
G04 #@! TD*
D11*
G04 #@! TO.C,board_outline108*
X32425000Y-44495000D03*
D12*
X32425000Y-47035000D03*
X29885000Y-44495000D03*
X29885000Y-47035000D03*
X27345000Y-44495000D03*
X27345000Y-47035000D03*
X24805000Y-44495000D03*
X24805000Y-47035000D03*
X22265000Y-44495000D03*
X22265000Y-47035000D03*
X19725000Y-44495000D03*
X19725000Y-47035000D03*
X17185000Y-44495000D03*
X17185000Y-47035000D03*
X14645000Y-44495000D03*
X14645000Y-47035000D03*
X12105000Y-44495000D03*
X12105000Y-47035000D03*
X9565000Y-44495000D03*
X9565000Y-47035000D03*
D11*
X12110000Y-31785000D03*
X9570000Y-31785000D03*
D12*
X12110000Y-29245000D03*
X9570000Y-29245000D03*
X12110000Y-26705000D03*
X9570000Y-26705000D03*
X12110000Y-24165000D03*
X9570000Y-24165000D03*
X12110000Y-21625000D03*
X9570000Y-21625000D03*
X12110000Y-19085000D03*
X9570000Y-19085000D03*
X12110000Y-16545000D03*
X9570000Y-16545000D03*
X12110000Y-14005000D03*
X9570000Y-14005000D03*
D11*
X32430000Y-31785000D03*
D12*
X32430000Y-29245000D03*
X32430000Y-26705000D03*
X32430000Y-24165000D03*
X32430000Y-21625000D03*
X32430000Y-19085000D03*
X32430000Y-16545000D03*
X32430000Y-14005000D03*
X27350000Y-8940000D03*
X24810000Y-8940000D03*
X22270000Y-8940000D03*
X12110000Y-11480000D03*
D13*
X9570000Y-36880000D03*
X9570000Y-8940000D03*
X32430000Y-36880000D03*
X32430000Y-8940000D03*
G04 #@! TD*
D11*
G04 #@! TO.C,board_outline108*
X60885000Y-88495000D03*
D12*
X60885000Y-91035000D03*
X58345000Y-88495000D03*
X58345000Y-91035000D03*
X55805000Y-88495000D03*
X55805000Y-91035000D03*
X53265000Y-88495000D03*
X53265000Y-91035000D03*
X50725000Y-88495000D03*
X50725000Y-91035000D03*
X48185000Y-88495000D03*
X48185000Y-91035000D03*
X45645000Y-88495000D03*
X45645000Y-91035000D03*
X43105000Y-88495000D03*
X43105000Y-91035000D03*
X40565000Y-88495000D03*
X40565000Y-91035000D03*
X38025000Y-88495000D03*
X38025000Y-91035000D03*
D11*
X40570000Y-75785000D03*
X38030000Y-75785000D03*
D12*
X40570000Y-73245000D03*
X38030000Y-73245000D03*
X40570000Y-70705000D03*
X38030000Y-70705000D03*
X40570000Y-68165000D03*
X38030000Y-68165000D03*
X40570000Y-65625000D03*
X38030000Y-65625000D03*
X40570000Y-63085000D03*
X38030000Y-63085000D03*
X40570000Y-60545000D03*
X38030000Y-60545000D03*
X40570000Y-58005000D03*
X38030000Y-58005000D03*
D11*
X60890000Y-75785000D03*
D12*
X60890000Y-73245000D03*
X60890000Y-70705000D03*
X60890000Y-68165000D03*
X60890000Y-65625000D03*
X60890000Y-63085000D03*
X60890000Y-60545000D03*
X60890000Y-58005000D03*
X55810000Y-52940000D03*
X53270000Y-52940000D03*
X50730000Y-52940000D03*
X40570000Y-55480000D03*
D13*
X38030000Y-80880000D03*
X38030000Y-52940000D03*
X60890000Y-80880000D03*
X60890000Y-52940000D03*
G04 #@! TD*
D11*
G04 #@! TO.C,board_outline108*
X60885000Y-44495000D03*
D12*
X60885000Y-47035000D03*
X58345000Y-44495000D03*
X58345000Y-47035000D03*
X55805000Y-44495000D03*
X55805000Y-47035000D03*
X53265000Y-44495000D03*
X53265000Y-47035000D03*
X50725000Y-44495000D03*
X50725000Y-47035000D03*
X48185000Y-44495000D03*
X48185000Y-47035000D03*
X45645000Y-44495000D03*
X45645000Y-47035000D03*
X43105000Y-44495000D03*
X43105000Y-47035000D03*
X40565000Y-44495000D03*
X40565000Y-47035000D03*
X38025000Y-44495000D03*
X38025000Y-47035000D03*
D11*
X40570000Y-31785000D03*
X38030000Y-31785000D03*
D12*
X40570000Y-29245000D03*
X38030000Y-29245000D03*
X40570000Y-26705000D03*
X38030000Y-26705000D03*
X40570000Y-24165000D03*
X38030000Y-24165000D03*
X40570000Y-21625000D03*
X38030000Y-21625000D03*
X40570000Y-19085000D03*
X38030000Y-19085000D03*
X40570000Y-16545000D03*
X38030000Y-16545000D03*
X40570000Y-14005000D03*
X38030000Y-14005000D03*
D11*
X60890000Y-31785000D03*
D12*
X60890000Y-29245000D03*
X60890000Y-26705000D03*
X60890000Y-24165000D03*
X60890000Y-21625000D03*
X60890000Y-19085000D03*
X60890000Y-16545000D03*
X60890000Y-14005000D03*
X55810000Y-8940000D03*
X53270000Y-8940000D03*
X50730000Y-8940000D03*
X40570000Y-11480000D03*
D13*
X38030000Y-36880000D03*
X38030000Y-8940000D03*
X60890000Y-36880000D03*
X60890000Y-8940000D03*
G04 #@! TD*
D11*
G04 #@! TO.C,board_outline108*
X32425000Y-88495000D03*
D12*
X32425000Y-91035000D03*
X29885000Y-88495000D03*
X29885000Y-91035000D03*
X27345000Y-88495000D03*
X27345000Y-91035000D03*
X24805000Y-88495000D03*
X24805000Y-91035000D03*
X22265000Y-88495000D03*
X22265000Y-91035000D03*
X19725000Y-88495000D03*
X19725000Y-91035000D03*
X17185000Y-88495000D03*
X17185000Y-91035000D03*
X14645000Y-88495000D03*
X14645000Y-91035000D03*
X12105000Y-88495000D03*
X12105000Y-91035000D03*
X9565000Y-88495000D03*
X9565000Y-91035000D03*
D11*
X12110000Y-75785000D03*
X9570000Y-75785000D03*
D12*
X12110000Y-73245000D03*
X9570000Y-73245000D03*
X12110000Y-70705000D03*
X9570000Y-70705000D03*
X12110000Y-68165000D03*
X9570000Y-68165000D03*
X12110000Y-65625000D03*
X9570000Y-65625000D03*
X12110000Y-63085000D03*
X9570000Y-63085000D03*
X12110000Y-60545000D03*
X9570000Y-60545000D03*
X12110000Y-58005000D03*
X9570000Y-58005000D03*
D11*
X32430000Y-75785000D03*
D12*
X32430000Y-73245000D03*
X32430000Y-70705000D03*
X32430000Y-68165000D03*
X32430000Y-65625000D03*
X32430000Y-63085000D03*
X32430000Y-60545000D03*
X32430000Y-58005000D03*
X27350000Y-52940000D03*
X24810000Y-52940000D03*
X22270000Y-52940000D03*
X12110000Y-55480000D03*
D13*
X9570000Y-80880000D03*
X9570000Y-52940000D03*
X32430000Y-80880000D03*
X32430000Y-52940000D03*
G04 #@! TD*
D14*
G04 #@! TO.C,OP2*
X44610000Y-77532500D03*
D15*
X45485000Y-77532500D03*
G04 #@! TD*
D16*
G04 #@! TO.C,C129*
X54210582Y-65482883D03*
X55935582Y-65482883D03*
G04 #@! TD*
D17*
G04 #@! TO.C,C123*
X47147500Y-71932500D03*
X45422500Y-71932500D03*
G04 #@! TD*
G04 #@! TO.C,C123*
X18687500Y-71932500D03*
X16962500Y-71932500D03*
G04 #@! TD*
D18*
G04 #@! TO.C,FB110*
X44910000Y-17532500D03*
X46985000Y-17532500D03*
G04 #@! TD*
D14*
G04 #@! TO.C,OM2*
X15925000Y-29632500D03*
D15*
X16800000Y-29632500D03*
G04 #@! TD*
D17*
G04 #@! TO.C,C117*
X47147500Y-40432500D03*
X45422500Y-40432500D03*
G04 #@! TD*
D19*
G04 #@! TO.C,D109*
X14925000Y-85805000D03*
X14925000Y-84660000D03*
G04 #@! TD*
D16*
G04 #@! TO.C,C126*
X48822500Y-17232500D03*
X50547500Y-17232500D03*
G04 #@! TD*
D17*
G04 #@! TO.C,C121*
X18687500Y-31832500D03*
X16962500Y-31832500D03*
G04 #@! TD*
D19*
G04 #@! TO.C,D111*
X14925000Y-73505000D03*
X14925000Y-72360000D03*
G04 #@! TD*
D20*
G04 #@! TO.C,D114*
X43320000Y-16860000D03*
X43320000Y-18005000D03*
G04 #@! TD*
D21*
G04 #@! TO.C,R111*
X49385000Y-32707500D03*
X49385000Y-30957500D03*
G04 #@! TD*
D22*
G04 #@! TO.C,T\u002AC108*
X57760000Y-55698186D03*
X55685000Y-55698186D03*
G04 #@! TD*
D23*
G04 #@! TO.C,R128*
X29935000Y-21232500D03*
X28915000Y-21232500D03*
G04 #@! TD*
D18*
G04 #@! TO.C,FB108*
X45020000Y-10332500D03*
X47095000Y-10332500D03*
G04 #@! TD*
G04 #@! TO.C,FB111*
X44747500Y-21132500D03*
X46822500Y-21132500D03*
G04 #@! TD*
D24*
G04 #@! TO.C,C131*
X59885000Y-85657500D03*
X59885000Y-83607500D03*
G04 #@! TD*
D20*
G04 #@! TO.C,D115*
X43185000Y-64460000D03*
X43185000Y-65605000D03*
G04 #@! TD*
D25*
G04 #@! TO.C,C110*
X26350000Y-36532500D03*
X23100000Y-36532500D03*
G04 #@! TD*
D19*
G04 #@! TO.C,D108*
X14925000Y-81505000D03*
X14925000Y-80360000D03*
G04 #@! TD*
D18*
G04 #@! TO.C,FB110*
X44910000Y-61532500D03*
X46985000Y-61532500D03*
G04 #@! TD*
D26*
G04 #@! TO.C,MCLK108*
X9225000Y-85682500D03*
X9225000Y-84382500D03*
G04 #@! TD*
D14*
G04 #@! TO.C,INM2*
X16207500Y-8832500D03*
D15*
X17082500Y-8832500D03*
G04 #@! TD*
D27*
G04 #@! TO.C,SCL109*
X57285000Y-22435000D03*
X57285000Y-23630000D03*
G04 #@! TD*
D16*
G04 #@! TO.C,C129*
X25750582Y-65482883D03*
X27475582Y-65482883D03*
G04 #@! TD*
G04 #@! TO.C,C129*
X54210582Y-21482883D03*
X55935582Y-21482883D03*
G04 #@! TD*
D18*
G04 #@! TO.C,FB109*
X16522500Y-13932500D03*
X18597500Y-13932500D03*
G04 #@! TD*
D28*
G04 #@! TO.C,R109*
X20925000Y-39557500D03*
X20925000Y-41307500D03*
G04 #@! TD*
D18*
G04 #@! TO.C,FB109*
X16522500Y-57932500D03*
X18597500Y-57932500D03*
G04 #@! TD*
D14*
G04 #@! TO.C,INP2*
X44620000Y-56432500D03*
D15*
X45495000Y-56432500D03*
G04 #@! TD*
D18*
G04 #@! TO.C,FB108*
X16560000Y-10332500D03*
X18635000Y-10332500D03*
G04 #@! TD*
D21*
G04 #@! TO.C,R111*
X20925000Y-32707500D03*
X20925000Y-30957500D03*
G04 #@! TD*
D29*
G04 #@! TO.C,C130*
X57685000Y-39607500D03*
X57685000Y-41657500D03*
G04 #@! TD*
D14*
G04 #@! TO.C,OM2*
X15925000Y-73632500D03*
D15*
X16800000Y-73632500D03*
G04 #@! TD*
D18*
G04 #@! TO.C,T\u002AC110*
X26987500Y-19432500D03*
X29062500Y-19432500D03*
G04 #@! TD*
G04 #@! TO.C,FB109*
X44982500Y-57932500D03*
X47057500Y-57932500D03*
G04 #@! TD*
D14*
G04 #@! TO.C,OM1*
X17425000Y-85832500D03*
X16575000Y-85832500D03*
G04 #@! TD*
D30*
G04 #@! TO.C,G119*
X25425000Y-55728500D03*
D31*
X25425000Y-56732500D03*
G04 #@! TD*
D20*
G04 #@! TO.C,D112*
X14907500Y-53660000D03*
X14907500Y-54805000D03*
G04 #@! TD*
D19*
G04 #@! TO.C,D109*
X43385000Y-41805000D03*
X43385000Y-40660000D03*
G04 #@! TD*
D14*
G04 #@! TO.C,INM1*
X16087500Y-16032500D03*
D15*
X16962500Y-16032500D03*
G04 #@! TD*
D32*
G04 #@! TO.C,GND108*
X43789000Y-68632500D03*
D31*
X42785000Y-68632500D03*
G04 #@! TD*
D25*
G04 #@! TO.C,C120*
X26350000Y-76232500D03*
X23100000Y-76232500D03*
G04 #@! TD*
D28*
G04 #@! TO.C,R109*
X20925000Y-83557500D03*
X20925000Y-85307500D03*
G04 #@! TD*
D33*
G04 #@! TO.C,C122*
X25625000Y-72732499D03*
X25625000Y-69482499D03*
G04 #@! TD*
D18*
G04 #@! TO.C,FB110*
X16450000Y-61532500D03*
X18525000Y-61532500D03*
G04 #@! TD*
G04 #@! TO.C,FB111*
X16287500Y-21132500D03*
X18362500Y-21132500D03*
G04 #@! TD*
D20*
G04 #@! TO.C,D114*
X14860000Y-16860000D03*
X14860000Y-18005000D03*
G04 #@! TD*
D16*
G04 #@! TO.C,C125*
X20462500Y-13632500D03*
X22187500Y-13632500D03*
G04 #@! TD*
D17*
G04 #@! TO.C,C117*
X18687500Y-40432500D03*
X16962500Y-40432500D03*
G04 #@! TD*
D29*
G04 #@! TO.C,C130*
X29225000Y-83607500D03*
X29225000Y-85657500D03*
G04 #@! TD*
D19*
G04 #@! TO.C,D110*
X14925000Y-77205000D03*
X14925000Y-76060000D03*
G04 #@! TD*
D30*
G04 #@! TO.C,SCL108*
X11025000Y-85536500D03*
D31*
X11025000Y-84532500D03*
G04 #@! TD*
D21*
G04 #@! TO.C,R108*
X49385000Y-37007500D03*
X49385000Y-35257500D03*
G04 #@! TD*
D30*
G04 #@! TO.C,SDA108*
X12225000Y-42736500D03*
D31*
X12225000Y-41732500D03*
G04 #@! TD*
D17*
G04 #@! TO.C,C123*
X47147500Y-27932500D03*
X45422500Y-27932500D03*
G04 #@! TD*
D32*
G04 #@! TO.C,GND108*
X15329000Y-24632500D03*
D31*
X14325000Y-24632500D03*
G04 #@! TD*
D19*
G04 #@! TO.C,D108*
X43385000Y-37505000D03*
X43385000Y-36360000D03*
G04 #@! TD*
D14*
G04 #@! TO.C,OP1*
X44685000Y-37832500D03*
D15*
X45560000Y-37832500D03*
G04 #@! TD*
D18*
G04 #@! TO.C,FB108*
X45020000Y-54332500D03*
X47095000Y-54332500D03*
G04 #@! TD*
D34*
G04 #@! TO.C,R116*
X20950000Y-28332500D03*
X22700000Y-28332500D03*
G04 #@! TD*
D16*
G04 #@! TO.C,C126*
X20362500Y-61232500D03*
X22087500Y-61232500D03*
G04 #@! TD*
G04 #@! TO.C,C125*
X20462500Y-57632500D03*
X22187500Y-57632500D03*
G04 #@! TD*
D18*
G04 #@! TO.C,FB108*
X16560000Y-54332500D03*
X18635000Y-54332500D03*
G04 #@! TD*
D33*
G04 #@! TO.C,C122*
X25625000Y-28732499D03*
X25625000Y-25482499D03*
G04 #@! TD*
D14*
G04 #@! TO.C,INP1*
X16150000Y-63632500D03*
D15*
X17025000Y-63632500D03*
G04 #@! TD*
D17*
G04 #@! TO.C,C113*
X18687500Y-80132500D03*
X16962500Y-80132500D03*
G04 #@! TD*
D25*
G04 #@! TO.C,C110*
X54810000Y-36532500D03*
X51560000Y-36532500D03*
G04 #@! TD*
D19*
G04 #@! TO.C,D110*
X43385000Y-77205000D03*
X43385000Y-76060000D03*
G04 #@! TD*
D25*
G04 #@! TO.C,C114*
X54810000Y-40832500D03*
X51560000Y-40832500D03*
G04 #@! TD*
D14*
G04 #@! TO.C,OM1*
X45885000Y-85832500D03*
X45035000Y-85832500D03*
G04 #@! TD*
D30*
G04 #@! TO.C,SDA108*
X40685000Y-86736500D03*
D31*
X40685000Y-85732500D03*
G04 #@! TD*
D19*
G04 #@! TO.C,D111*
X43385000Y-73505000D03*
X43385000Y-72360000D03*
G04 #@! TD*
D24*
G04 #@! TO.C,C131*
X31425000Y-85657500D03*
X31425000Y-83607500D03*
G04 #@! TD*
D17*
G04 #@! TO.C,C123*
X18687500Y-27932500D03*
X16962500Y-27932500D03*
G04 #@! TD*
D21*
G04 #@! TO.C,R108*
X49385000Y-81007500D03*
X49385000Y-79257500D03*
G04 #@! TD*
D19*
G04 #@! TO.C,D110*
X43385000Y-33205000D03*
X43385000Y-32060000D03*
G04 #@! TD*
D21*
G04 #@! TO.C,R108*
X20925000Y-37007500D03*
X20925000Y-35257500D03*
G04 #@! TD*
D14*
G04 #@! TO.C,OM1*
X45885000Y-41832500D03*
X45035000Y-41832500D03*
G04 #@! TD*
G04 #@! TO.C,OP1*
X16225000Y-37832500D03*
D15*
X17100000Y-37832500D03*
G04 #@! TD*
D25*
G04 #@! TO.C,C120*
X54810000Y-32232500D03*
X51560000Y-32232500D03*
G04 #@! TD*
D21*
G04 #@! TO.C,R108*
X20925000Y-81007500D03*
X20925000Y-79257500D03*
G04 #@! TD*
D30*
G04 #@! TO.C,SDA108*
X40685000Y-42736500D03*
D31*
X40685000Y-41732500D03*
G04 #@! TD*
D25*
G04 #@! TO.C,C114*
X54810000Y-84832500D03*
X51560000Y-84832500D03*
G04 #@! TD*
D16*
G04 #@! TO.C,C124*
X48822500Y-55032500D03*
X50547500Y-55032500D03*
G04 #@! TD*
D28*
G04 #@! TO.C,R109*
X49385000Y-83557500D03*
X49385000Y-85307500D03*
G04 #@! TD*
D14*
G04 #@! TO.C,INM1*
X16087500Y-60032500D03*
D15*
X16962500Y-60032500D03*
G04 #@! TD*
D20*
G04 #@! TO.C,D115*
X14725000Y-20460000D03*
X14725000Y-21605000D03*
G04 #@! TD*
G04 #@! TO.C,D113*
X14860000Y-13260000D03*
X14860000Y-14405000D03*
G04 #@! TD*
D14*
G04 #@! TO.C,INP2*
X16160000Y-12432500D03*
D15*
X17035000Y-12432500D03*
G04 #@! TD*
D26*
G04 #@! TO.C,MCLK108*
X37685000Y-41682500D03*
X37685000Y-40382500D03*
G04 #@! TD*
D25*
G04 #@! TO.C,C120*
X54810000Y-76232500D03*
X51560000Y-76232500D03*
G04 #@! TD*
D34*
G04 #@! TO.C,R116*
X49410000Y-28332500D03*
X51160000Y-28332500D03*
G04 #@! TD*
D30*
G04 #@! TO.C,SCL108*
X39485000Y-85536500D03*
D31*
X39485000Y-84532500D03*
G04 #@! TD*
D35*
G04 #@! TO.C,U109*
X57837500Y-15670686D03*
X57837500Y-16620686D03*
X57837500Y-17570686D03*
X55562500Y-17570686D03*
X55562500Y-15670686D03*
G04 #@! TD*
D14*
G04 #@! TO.C,OP2*
X16150000Y-33532500D03*
D15*
X17025000Y-33532500D03*
G04 #@! TD*
D18*
G04 #@! TO.C,T\u002AC110*
X55447500Y-19432500D03*
X57522500Y-19432500D03*
G04 #@! TD*
D20*
G04 #@! TO.C,D113*
X43320000Y-13260000D03*
X43320000Y-14405000D03*
G04 #@! TD*
D16*
G04 #@! TO.C,C125*
X48922500Y-13632500D03*
X50647500Y-13632500D03*
G04 #@! TD*
D14*
G04 #@! TO.C,OP1*
X16225000Y-81832500D03*
D15*
X17100000Y-81832500D03*
G04 #@! TD*
D14*
G04 #@! TO.C,OM1*
X17425000Y-41832500D03*
X16575000Y-41832500D03*
G04 #@! TD*
G04 #@! TO.C,INP1*
X16150000Y-19632500D03*
D15*
X17025000Y-19632500D03*
G04 #@! TD*
D17*
G04 #@! TO.C,C121*
X47147500Y-75832500D03*
X45422500Y-75832500D03*
G04 #@! TD*
D18*
G04 #@! TO.C,T\u002AC110*
X55447500Y-63432500D03*
X57522500Y-63432500D03*
G04 #@! TD*
D20*
G04 #@! TO.C,D112*
X43367500Y-53660000D03*
X43367500Y-54805000D03*
G04 #@! TD*
D19*
G04 #@! TO.C,D110*
X14925000Y-33205000D03*
X14925000Y-32060000D03*
G04 #@! TD*
D30*
G04 #@! TO.C,G119*
X53885000Y-55728500D03*
D31*
X53885000Y-56732500D03*
G04 #@! TD*
D19*
G04 #@! TO.C,D111*
X43385000Y-29505000D03*
X43385000Y-28360000D03*
G04 #@! TD*
G04 #@! TO.C,D108*
X43385000Y-81505000D03*
X43385000Y-80360000D03*
G04 #@! TD*
D20*
G04 #@! TO.C,D114*
X14860000Y-60860000D03*
X14860000Y-62005000D03*
G04 #@! TD*
D14*
G04 #@! TO.C,INM1*
X44547500Y-60032500D03*
D15*
X45422500Y-60032500D03*
G04 #@! TD*
D22*
G04 #@! TO.C,T\u002AC108*
X57760000Y-11698186D03*
X55685000Y-11698186D03*
G04 #@! TD*
D28*
G04 #@! TO.C,R109*
X49385000Y-39557500D03*
X49385000Y-41307500D03*
G04 #@! TD*
D14*
G04 #@! TO.C,OP2*
X16150000Y-77532500D03*
D15*
X17025000Y-77532500D03*
G04 #@! TD*
D20*
G04 #@! TO.C,D112*
X43367500Y-9660000D03*
X43367500Y-10805000D03*
G04 #@! TD*
D25*
G04 #@! TO.C,C110*
X54810000Y-80532500D03*
X51560000Y-80532500D03*
G04 #@! TD*
G04 #@! TO.C,C110*
X26350000Y-80532500D03*
X23100000Y-80532500D03*
G04 #@! TD*
D14*
G04 #@! TO.C,INP1*
X44610000Y-63632500D03*
D15*
X45485000Y-63632500D03*
G04 #@! TD*
D35*
G04 #@! TO.C,U109*
X29377500Y-59670686D03*
X29377500Y-60620686D03*
X29377500Y-61570686D03*
X27102500Y-61570686D03*
X27102500Y-59670686D03*
G04 #@! TD*
D33*
G04 #@! TO.C,C122*
X54085000Y-28732499D03*
X54085000Y-25482499D03*
G04 #@! TD*
D26*
G04 #@! TO.C,MCLK108*
X9225000Y-41682500D03*
X9225000Y-40382500D03*
G04 #@! TD*
D25*
G04 #@! TO.C,C120*
X26350000Y-32232500D03*
X23100000Y-32232500D03*
G04 #@! TD*
D17*
G04 #@! TO.C,C117*
X47147500Y-84432500D03*
X45422500Y-84432500D03*
G04 #@! TD*
D23*
G04 #@! TO.C,R128*
X58395000Y-65232500D03*
X57375000Y-65232500D03*
G04 #@! TD*
D14*
G04 #@! TO.C,INP1*
X44610000Y-19632500D03*
D15*
X45485000Y-19632500D03*
G04 #@! TD*
D17*
G04 #@! TO.C,T\u002AC109*
X29125000Y-13632500D03*
X27400000Y-13632500D03*
G04 #@! TD*
D25*
G04 #@! TO.C,C114*
X26350000Y-84832500D03*
X23100000Y-84832500D03*
G04 #@! TD*
D20*
G04 #@! TO.C,D113*
X14860000Y-57260000D03*
X14860000Y-58405000D03*
G04 #@! TD*
D17*
G04 #@! TO.C,C113*
X47147500Y-80132500D03*
X45422500Y-80132500D03*
G04 #@! TD*
D16*
G04 #@! TO.C,C127*
X48822500Y-19932500D03*
X50547500Y-19932500D03*
G04 #@! TD*
D24*
G04 #@! TO.C,C131*
X31425000Y-41657500D03*
X31425000Y-39607500D03*
G04 #@! TD*
D18*
G04 #@! TO.C,T\u002AC110*
X26987500Y-63432500D03*
X29062500Y-63432500D03*
G04 #@! TD*
D26*
G04 #@! TO.C,MCLK108*
X37685000Y-85682500D03*
X37685000Y-84382500D03*
G04 #@! TD*
D22*
G04 #@! TO.C,T\u002AC108*
X29300000Y-11698186D03*
X27225000Y-11698186D03*
G04 #@! TD*
D16*
G04 #@! TO.C,C124*
X20362500Y-55032500D03*
X22087500Y-55032500D03*
G04 #@! TD*
D27*
G04 #@! TO.C,SCL109*
X57285000Y-66435000D03*
X57285000Y-67630000D03*
G04 #@! TD*
D16*
G04 #@! TO.C,C125*
X48922500Y-57632500D03*
X50647500Y-57632500D03*
G04 #@! TD*
D17*
G04 #@! TO.C,T\u002AC109*
X57585000Y-13632500D03*
X55860000Y-13632500D03*
G04 #@! TD*
D21*
G04 #@! TO.C,R111*
X49385000Y-76707500D03*
X49385000Y-74957500D03*
G04 #@! TD*
D14*
G04 #@! TO.C,INM2*
X44667500Y-8832500D03*
D15*
X45542500Y-8832500D03*
G04 #@! TD*
D35*
G04 #@! TO.C,U109*
X57837500Y-59670686D03*
X57837500Y-60620686D03*
X57837500Y-61570686D03*
X55562500Y-61570686D03*
X55562500Y-59670686D03*
G04 #@! TD*
D18*
G04 #@! TO.C,FB110*
X16450000Y-17532500D03*
X18525000Y-17532500D03*
G04 #@! TD*
D14*
G04 #@! TO.C,OP2*
X44610000Y-33532500D03*
D15*
X45485000Y-33532500D03*
G04 #@! TD*
D18*
G04 #@! TO.C,FB111*
X16287500Y-65132500D03*
X18362500Y-65132500D03*
G04 #@! TD*
D14*
G04 #@! TO.C,INP2*
X44620000Y-12432500D03*
D15*
X45495000Y-12432500D03*
G04 #@! TD*
D20*
G04 #@! TO.C,D115*
X14725000Y-64460000D03*
X14725000Y-65605000D03*
G04 #@! TD*
D14*
G04 #@! TO.C,INP2*
X16160000Y-56432500D03*
D15*
X17035000Y-56432500D03*
G04 #@! TD*
D18*
G04 #@! TO.C,FB111*
X44747500Y-65132500D03*
X46822500Y-65132500D03*
G04 #@! TD*
D33*
G04 #@! TO.C,C122*
X54085000Y-72732499D03*
X54085000Y-69482499D03*
G04 #@! TD*
D30*
G04 #@! TO.C,SDA108*
X12225000Y-86736500D03*
D31*
X12225000Y-85732500D03*
G04 #@! TD*
D17*
G04 #@! TO.C,C121*
X47147500Y-31832500D03*
X45422500Y-31832500D03*
G04 #@! TD*
D25*
G04 #@! TO.C,C114*
X26350000Y-40832500D03*
X23100000Y-40832500D03*
G04 #@! TD*
D16*
G04 #@! TO.C,C127*
X20362500Y-63932500D03*
X22087500Y-63932500D03*
G04 #@! TD*
G04 #@! TO.C,C127*
X48822500Y-63932500D03*
X50547500Y-63932500D03*
G04 #@! TD*
D17*
G04 #@! TO.C,T\u002AC109*
X57585000Y-57632500D03*
X55860000Y-57632500D03*
G04 #@! TD*
D18*
G04 #@! TO.C,FB109*
X44982500Y-13932500D03*
X47057500Y-13932500D03*
G04 #@! TD*
D22*
G04 #@! TO.C,T\u002AC108*
X29300000Y-55698186D03*
X27225000Y-55698186D03*
G04 #@! TD*
D20*
G04 #@! TO.C,D115*
X43185000Y-20460000D03*
X43185000Y-21605000D03*
G04 #@! TD*
D16*
G04 #@! TO.C,C127*
X20362500Y-19932500D03*
X22087500Y-19932500D03*
G04 #@! TD*
D21*
G04 #@! TO.C,R111*
X20925000Y-76707500D03*
X20925000Y-74957500D03*
G04 #@! TD*
D20*
G04 #@! TO.C,D113*
X43320000Y-57260000D03*
X43320000Y-58405000D03*
G04 #@! TD*
D27*
G04 #@! TO.C,SCL109*
X28825000Y-66435000D03*
X28825000Y-67630000D03*
G04 #@! TD*
D30*
G04 #@! TO.C,SCL108*
X11025000Y-41536500D03*
D31*
X11025000Y-40532500D03*
G04 #@! TD*
D14*
G04 #@! TO.C,INM1*
X44547500Y-16032500D03*
D15*
X45422500Y-16032500D03*
G04 #@! TD*
D16*
G04 #@! TO.C,C126*
X48822500Y-61232500D03*
X50547500Y-61232500D03*
G04 #@! TD*
D32*
G04 #@! TO.C,GND108*
X43789000Y-24632500D03*
D31*
X42785000Y-24632500D03*
G04 #@! TD*
D34*
G04 #@! TO.C,R116*
X20950000Y-72332500D03*
X22700000Y-72332500D03*
G04 #@! TD*
D29*
G04 #@! TO.C,C130*
X29225000Y-39607500D03*
X29225000Y-41657500D03*
G04 #@! TD*
G04 #@! TO.C,C130*
X57685000Y-83607500D03*
X57685000Y-85657500D03*
G04 #@! TD*
D16*
G04 #@! TO.C,C124*
X48822500Y-11032500D03*
X50547500Y-11032500D03*
G04 #@! TD*
D23*
G04 #@! TO.C,R128*
X29935000Y-65232500D03*
X28915000Y-65232500D03*
G04 #@! TD*
D34*
G04 #@! TO.C,R116*
X49410000Y-72332500D03*
X51160000Y-72332500D03*
G04 #@! TD*
D24*
G04 #@! TO.C,C131*
X59885000Y-41657500D03*
X59885000Y-39607500D03*
G04 #@! TD*
D17*
G04 #@! TO.C,C113*
X47147500Y-36132500D03*
X45422500Y-36132500D03*
G04 #@! TD*
G04 #@! TO.C,C117*
X18687500Y-84432500D03*
X16962500Y-84432500D03*
G04 #@! TD*
D30*
G04 #@! TO.C,SCL108*
X39485000Y-41536500D03*
D31*
X39485000Y-40532500D03*
G04 #@! TD*
D19*
G04 #@! TO.C,D111*
X14925000Y-29505000D03*
X14925000Y-28360000D03*
G04 #@! TD*
D14*
G04 #@! TO.C,OM2*
X44385000Y-73632500D03*
D15*
X45260000Y-73632500D03*
G04 #@! TD*
D20*
G04 #@! TO.C,D114*
X43320000Y-60860000D03*
X43320000Y-62005000D03*
G04 #@! TD*
D30*
G04 #@! TO.C,G119*
X53885000Y-11728500D03*
D31*
X53885000Y-12732500D03*
G04 #@! TD*
D16*
G04 #@! TO.C,C124*
X20362500Y-11032500D03*
X22087500Y-11032500D03*
G04 #@! TD*
D17*
G04 #@! TO.C,C121*
X18687500Y-75832500D03*
X16962500Y-75832500D03*
G04 #@! TD*
D30*
G04 #@! TO.C,G119*
X25425000Y-11728500D03*
D31*
X25425000Y-12732500D03*
G04 #@! TD*
D17*
G04 #@! TO.C,T\u002AC109*
X29125000Y-57632500D03*
X27400000Y-57632500D03*
G04 #@! TD*
D19*
G04 #@! TO.C,D109*
X14925000Y-41805000D03*
X14925000Y-40660000D03*
G04 #@! TD*
D17*
G04 #@! TO.C,C113*
X18687500Y-36132500D03*
X16962500Y-36132500D03*
G04 #@! TD*
D19*
G04 #@! TO.C,D109*
X43385000Y-85805000D03*
X43385000Y-84660000D03*
G04 #@! TD*
D14*
G04 #@! TO.C,INM2*
X16207500Y-52832500D03*
D15*
X17082500Y-52832500D03*
G04 #@! TD*
D16*
G04 #@! TO.C,C126*
X20362500Y-17232500D03*
X22087500Y-17232500D03*
G04 #@! TD*
D14*
G04 #@! TO.C,INM2*
X44667500Y-52832500D03*
D15*
X45542500Y-52832500D03*
G04 #@! TD*
D35*
G04 #@! TO.C,U109*
X29377500Y-15670686D03*
X29377500Y-16620686D03*
X29377500Y-17570686D03*
X27102500Y-17570686D03*
X27102500Y-15670686D03*
G04 #@! TD*
D14*
G04 #@! TO.C,OM2*
X44385000Y-29632500D03*
D15*
X45260000Y-29632500D03*
G04 #@! TD*
D32*
G04 #@! TO.C,GND108*
X15329000Y-68632500D03*
D31*
X14325000Y-68632500D03*
G04 #@! TD*
D19*
G04 #@! TO.C,D108*
X14925000Y-37505000D03*
X14925000Y-36360000D03*
G04 #@! TD*
D27*
G04 #@! TO.C,SCL109*
X28825000Y-22435000D03*
X28825000Y-23630000D03*
G04 #@! TD*
D14*
G04 #@! TO.C,OP1*
X44685000Y-81832500D03*
D15*
X45560000Y-81832500D03*
G04 #@! TD*
D23*
G04 #@! TO.C,R128*
X58395000Y-21232500D03*
X57375000Y-21232500D03*
G04 #@! TD*
D20*
G04 #@! TO.C,D112*
X14907500Y-9660000D03*
X14907500Y-10805000D03*
G04 #@! TD*
D16*
G04 #@! TO.C,C129*
X25750582Y-21482883D03*
X27475582Y-21482883D03*
G04 #@! TD*
M02*
