G04 #@! TF.GenerationSoftware,KiCad,Pcbnew,9.0.4*
G04 #@! TF.CreationDate,2025-08-20T18:38:41-04:00*
G04 #@! TF.ProjectId,jlc_pcba,6a6c635f-7063-4626-912e-6b696361645f,rev?*
G04 #@! TF.SameCoordinates,Original*
G04 #@! TF.FileFunction,Paste,Bot*
G04 #@! TF.FilePolarity,Positive*
%FSLAX46Y46*%
G04 Gerber Fmt 4.6, Leading zero omitted, Abs format (unit mm)*
G04 Created by KiCad (PCBNEW 9.0.4) date 2025-08-20 18:38:41*
%MOMM*%
%LPD*%
G01*
G04 APERTURE LIST*
G04 Aperture macros list*
%AMRoundRect*
0 Rectangle with rounded corners*
0 $1 Rounding radius*
0 $2 $3 $4 $5 $6 $7 $8 $9 X,Y pos of 4 corners*
0 Add a 4 corners polygon primitive as box body*
4,1,4,$2,$3,$4,$5,$6,$7,$8,$9,$2,$3,0*
0 Add four circle primitives for the rounded corners*
1,1,$1+$1,$2,$3*
1,1,$1+$1,$4,$5*
1,1,$1+$1,$6,$7*
1,1,$1+$1,$8,$9*
0 Add four rect primitives between the rounded corners*
20,1,$1+$1,$2,$3,$4,$5,0*
20,1,$1+$1,$4,$5,$6,$7,0*
20,1,$1+$1,$6,$7,$8,$9,0*
20,1,$1+$1,$8,$9,$2,$3,0*%
G04 Aperture macros list end*
%ADD10RoundRect,0.237500X-0.300000X-0.237500X0.300000X-0.237500X0.300000X0.237500X-0.300000X0.237500X0*%
%ADD11RoundRect,0.237500X0.300000X0.237500X-0.300000X0.237500X-0.300000X-0.237500X0.300000X-0.237500X0*%
%ADD12RoundRect,0.250000X-0.337500X-0.475000X0.337500X-0.475000X0.337500X0.475000X-0.337500X0.475000X0*%
%ADD13RoundRect,0.160000X-0.160000X0.222500X-0.160000X-0.222500X0.160000X-0.222500X0.160000X0.222500X0*%
%ADD14RoundRect,0.160000X0.160000X-0.222500X0.160000X0.222500X-0.160000X0.222500X-0.160000X-0.222500X0*%
%ADD15RoundRect,0.237500X0.237500X-0.287500X0.237500X0.287500X-0.237500X0.287500X-0.237500X-0.287500X0*%
%ADD16RoundRect,0.250000X0.337500X0.475000X-0.337500X0.475000X-0.337500X-0.475000X0.337500X-0.475000X0*%
%ADD17RoundRect,0.135000X0.135000X0.185000X-0.135000X0.185000X-0.135000X-0.185000X0.135000X-0.185000X0*%
%ADD18RoundRect,0.250000X0.450000X-0.325000X0.450000X0.325000X-0.450000X0.325000X-0.450000X-0.325000X0*%
%ADD19RoundRect,0.250001X0.499999X0.924999X-0.499999X0.924999X-0.499999X-0.924999X0.499999X-0.924999X0*%
%ADD20RoundRect,0.160000X-0.160000X0.197500X-0.160000X-0.197500X0.160000X-0.197500X0.160000X0.197500X0*%
%ADD21RoundRect,0.237500X-0.237500X0.287500X-0.237500X-0.287500X0.237500X-0.287500X0.237500X0.287500X0*%
%ADD22RoundRect,0.250000X-0.450000X0.325000X-0.450000X-0.325000X0.450000X-0.325000X0.450000X0.325000X0*%
%ADD23RoundRect,0.250001X0.924999X-0.499999X0.924999X0.499999X-0.924999X0.499999X-0.924999X-0.499999X0*%
%ADD24RoundRect,0.237500X-0.287500X-0.237500X0.287500X-0.237500X0.287500X0.237500X-0.287500X0.237500X0*%
%ADD25RoundRect,0.150000X0.512500X0.150000X-0.512500X0.150000X-0.512500X-0.150000X0.512500X-0.150000X0*%
G04 APERTURE END LIST*
D10*
G04 #@! TO.C,C129*
X54210582Y-65482883D03*
X55935582Y-65482883D03*
G04 #@! TD*
D11*
G04 #@! TO.C,C123*
X47147500Y-71932500D03*
X45422500Y-71932500D03*
G04 #@! TD*
G04 #@! TO.C,C123*
X18687500Y-71932500D03*
X16962500Y-71932500D03*
G04 #@! TD*
D12*
G04 #@! TO.C,FB110*
X44910000Y-17532500D03*
X46985000Y-17532500D03*
G04 #@! TD*
D11*
G04 #@! TO.C,C117*
X47147500Y-40432500D03*
X45422500Y-40432500D03*
G04 #@! TD*
D13*
G04 #@! TO.C,D109*
X14925000Y-85805000D03*
X14925000Y-84660000D03*
G04 #@! TD*
D10*
G04 #@! TO.C,C126*
X48822500Y-17232500D03*
X50547500Y-17232500D03*
G04 #@! TD*
D11*
G04 #@! TO.C,C121*
X18687500Y-31832500D03*
X16962500Y-31832500D03*
G04 #@! TD*
D13*
G04 #@! TO.C,D111*
X14925000Y-73505000D03*
X14925000Y-72360000D03*
G04 #@! TD*
D14*
G04 #@! TO.C,D114*
X43320000Y-16860000D03*
X43320000Y-18005000D03*
G04 #@! TD*
D15*
G04 #@! TO.C,R111*
X49385000Y-32707500D03*
X49385000Y-30957500D03*
G04 #@! TD*
D16*
G04 #@! TO.C,T\u002AC108*
X57760000Y-55698186D03*
X55685000Y-55698186D03*
G04 #@! TD*
D17*
G04 #@! TO.C,R128*
X29935000Y-21232500D03*
X28915000Y-21232500D03*
G04 #@! TD*
D12*
G04 #@! TO.C,FB108*
X45020000Y-10332500D03*
X47095000Y-10332500D03*
G04 #@! TD*
G04 #@! TO.C,FB111*
X44747500Y-21132500D03*
X46822500Y-21132500D03*
G04 #@! TD*
D18*
G04 #@! TO.C,C131*
X59885000Y-85657500D03*
X59885000Y-83607500D03*
G04 #@! TD*
D14*
G04 #@! TO.C,D115*
X43185000Y-64460000D03*
X43185000Y-65605000D03*
G04 #@! TD*
D19*
G04 #@! TO.C,C110*
X26350000Y-36532500D03*
X23100000Y-36532500D03*
G04 #@! TD*
D13*
G04 #@! TO.C,D108*
X14925000Y-81505000D03*
X14925000Y-80360000D03*
G04 #@! TD*
D12*
G04 #@! TO.C,FB110*
X44910000Y-61532500D03*
X46985000Y-61532500D03*
G04 #@! TD*
D20*
G04 #@! TO.C,SCL109*
X57285000Y-22435000D03*
X57285000Y-23630000D03*
G04 #@! TD*
D10*
G04 #@! TO.C,C129*
X25750582Y-65482883D03*
X27475582Y-65482883D03*
G04 #@! TD*
G04 #@! TO.C,C129*
X54210582Y-21482883D03*
X55935582Y-21482883D03*
G04 #@! TD*
D12*
G04 #@! TO.C,FB109*
X16522500Y-13932500D03*
X18597500Y-13932500D03*
G04 #@! TD*
D21*
G04 #@! TO.C,R109*
X20925000Y-39557500D03*
X20925000Y-41307500D03*
G04 #@! TD*
D12*
G04 #@! TO.C,FB109*
X16522500Y-57932500D03*
X18597500Y-57932500D03*
G04 #@! TD*
G04 #@! TO.C,FB108*
X16560000Y-10332500D03*
X18635000Y-10332500D03*
G04 #@! TD*
D15*
G04 #@! TO.C,R111*
X20925000Y-32707500D03*
X20925000Y-30957500D03*
G04 #@! TD*
D22*
G04 #@! TO.C,C130*
X57685000Y-39607500D03*
X57685000Y-41657500D03*
G04 #@! TD*
D12*
G04 #@! TO.C,T\u002AC110*
X26987500Y-19432500D03*
X29062500Y-19432500D03*
G04 #@! TD*
G04 #@! TO.C,FB109*
X44982500Y-57932500D03*
X47057500Y-57932500D03*
G04 #@! TD*
D14*
G04 #@! TO.C,D112*
X14907500Y-53660000D03*
X14907500Y-54805000D03*
G04 #@! TD*
D13*
G04 #@! TO.C,D109*
X43385000Y-41805000D03*
X43385000Y-40660000D03*
G04 #@! TD*
D19*
G04 #@! TO.C,C120*
X26350000Y-76232500D03*
X23100000Y-76232500D03*
G04 #@! TD*
D21*
G04 #@! TO.C,R109*
X20925000Y-83557500D03*
X20925000Y-85307500D03*
G04 #@! TD*
D23*
G04 #@! TO.C,C122*
X25625000Y-72732499D03*
X25625000Y-69482499D03*
G04 #@! TD*
D12*
G04 #@! TO.C,FB110*
X16450000Y-61532500D03*
X18525000Y-61532500D03*
G04 #@! TD*
G04 #@! TO.C,FB111*
X16287500Y-21132500D03*
X18362500Y-21132500D03*
G04 #@! TD*
D14*
G04 #@! TO.C,D114*
X14860000Y-16860000D03*
X14860000Y-18005000D03*
G04 #@! TD*
D10*
G04 #@! TO.C,C125*
X20462500Y-13632500D03*
X22187500Y-13632500D03*
G04 #@! TD*
D11*
G04 #@! TO.C,C117*
X18687500Y-40432500D03*
X16962500Y-40432500D03*
G04 #@! TD*
D22*
G04 #@! TO.C,C130*
X29225000Y-83607500D03*
X29225000Y-85657500D03*
G04 #@! TD*
D13*
G04 #@! TO.C,D110*
X14925000Y-77205000D03*
X14925000Y-76060000D03*
G04 #@! TD*
D15*
G04 #@! TO.C,R108*
X49385000Y-37007500D03*
X49385000Y-35257500D03*
G04 #@! TD*
D11*
G04 #@! TO.C,C123*
X47147500Y-27932500D03*
X45422500Y-27932500D03*
G04 #@! TD*
D13*
G04 #@! TO.C,D108*
X43385000Y-37505000D03*
X43385000Y-36360000D03*
G04 #@! TD*
D12*
G04 #@! TO.C,FB108*
X45020000Y-54332500D03*
X47095000Y-54332500D03*
G04 #@! TD*
D24*
G04 #@! TO.C,R116*
X20950000Y-28332500D03*
X22700000Y-28332500D03*
G04 #@! TD*
D10*
G04 #@! TO.C,C126*
X20362500Y-61232500D03*
X22087500Y-61232500D03*
G04 #@! TD*
G04 #@! TO.C,C125*
X20462500Y-57632500D03*
X22187500Y-57632500D03*
G04 #@! TD*
D12*
G04 #@! TO.C,FB108*
X16560000Y-54332500D03*
X18635000Y-54332500D03*
G04 #@! TD*
D23*
G04 #@! TO.C,C122*
X25625000Y-28732499D03*
X25625000Y-25482499D03*
G04 #@! TD*
D11*
G04 #@! TO.C,C113*
X18687500Y-80132500D03*
X16962500Y-80132500D03*
G04 #@! TD*
D19*
G04 #@! TO.C,C110*
X54810000Y-36532500D03*
X51560000Y-36532500D03*
G04 #@! TD*
D13*
G04 #@! TO.C,D110*
X43385000Y-77205000D03*
X43385000Y-76060000D03*
G04 #@! TD*
D19*
G04 #@! TO.C,C114*
X54810000Y-40832500D03*
X51560000Y-40832500D03*
G04 #@! TD*
D13*
G04 #@! TO.C,D111*
X43385000Y-73505000D03*
X43385000Y-72360000D03*
G04 #@! TD*
D18*
G04 #@! TO.C,C131*
X31425000Y-85657500D03*
X31425000Y-83607500D03*
G04 #@! TD*
D11*
G04 #@! TO.C,C123*
X18687500Y-27932500D03*
X16962500Y-27932500D03*
G04 #@! TD*
D15*
G04 #@! TO.C,R108*
X49385000Y-81007500D03*
X49385000Y-79257500D03*
G04 #@! TD*
D13*
G04 #@! TO.C,D110*
X43385000Y-33205000D03*
X43385000Y-32060000D03*
G04 #@! TD*
D15*
G04 #@! TO.C,R108*
X20925000Y-37007500D03*
X20925000Y-35257500D03*
G04 #@! TD*
D19*
G04 #@! TO.C,C120*
X54810000Y-32232500D03*
X51560000Y-32232500D03*
G04 #@! TD*
D15*
G04 #@! TO.C,R108*
X20925000Y-81007500D03*
X20925000Y-79257500D03*
G04 #@! TD*
D19*
G04 #@! TO.C,C114*
X54810000Y-84832500D03*
X51560000Y-84832500D03*
G04 #@! TD*
D10*
G04 #@! TO.C,C124*
X48822500Y-55032500D03*
X50547500Y-55032500D03*
G04 #@! TD*
D21*
G04 #@! TO.C,R109*
X49385000Y-83557500D03*
X49385000Y-85307500D03*
G04 #@! TD*
D14*
G04 #@! TO.C,D115*
X14725000Y-20460000D03*
X14725000Y-21605000D03*
G04 #@! TD*
G04 #@! TO.C,D113*
X14860000Y-13260000D03*
X14860000Y-14405000D03*
G04 #@! TD*
D19*
G04 #@! TO.C,C120*
X54810000Y-76232500D03*
X51560000Y-76232500D03*
G04 #@! TD*
D24*
G04 #@! TO.C,R116*
X49410000Y-28332500D03*
X51160000Y-28332500D03*
G04 #@! TD*
D25*
G04 #@! TO.C,U109*
X57837500Y-15670686D03*
X57837500Y-16620686D03*
X57837500Y-17570686D03*
X55562500Y-17570686D03*
X55562500Y-15670686D03*
G04 #@! TD*
D12*
G04 #@! TO.C,T\u002AC110*
X55447500Y-19432500D03*
X57522500Y-19432500D03*
G04 #@! TD*
D14*
G04 #@! TO.C,D113*
X43320000Y-13260000D03*
X43320000Y-14405000D03*
G04 #@! TD*
D10*
G04 #@! TO.C,C125*
X48922500Y-13632500D03*
X50647500Y-13632500D03*
G04 #@! TD*
D11*
G04 #@! TO.C,C121*
X47147500Y-75832500D03*
X45422500Y-75832500D03*
G04 #@! TD*
D12*
G04 #@! TO.C,T\u002AC110*
X55447500Y-63432500D03*
X57522500Y-63432500D03*
G04 #@! TD*
D14*
G04 #@! TO.C,D112*
X43367500Y-53660000D03*
X43367500Y-54805000D03*
G04 #@! TD*
D13*
G04 #@! TO.C,D110*
X14925000Y-33205000D03*
X14925000Y-32060000D03*
G04 #@! TD*
G04 #@! TO.C,D111*
X43385000Y-29505000D03*
X43385000Y-28360000D03*
G04 #@! TD*
G04 #@! TO.C,D108*
X43385000Y-81505000D03*
X43385000Y-80360000D03*
G04 #@! TD*
D14*
G04 #@! TO.C,D114*
X14860000Y-60860000D03*
X14860000Y-62005000D03*
G04 #@! TD*
D16*
G04 #@! TO.C,T\u002AC108*
X57760000Y-11698186D03*
X55685000Y-11698186D03*
G04 #@! TD*
D21*
G04 #@! TO.C,R109*
X49385000Y-39557500D03*
X49385000Y-41307500D03*
G04 #@! TD*
D14*
G04 #@! TO.C,D112*
X43367500Y-9660000D03*
X43367500Y-10805000D03*
G04 #@! TD*
D19*
G04 #@! TO.C,C110*
X54810000Y-80532500D03*
X51560000Y-80532500D03*
G04 #@! TD*
G04 #@! TO.C,C110*
X26350000Y-80532500D03*
X23100000Y-80532500D03*
G04 #@! TD*
D25*
G04 #@! TO.C,U109*
X29377500Y-59670686D03*
X29377500Y-60620686D03*
X29377500Y-61570686D03*
X27102500Y-61570686D03*
X27102500Y-59670686D03*
G04 #@! TD*
D23*
G04 #@! TO.C,C122*
X54085000Y-28732499D03*
X54085000Y-25482499D03*
G04 #@! TD*
D19*
G04 #@! TO.C,C120*
X26350000Y-32232500D03*
X23100000Y-32232500D03*
G04 #@! TD*
D11*
G04 #@! TO.C,C117*
X47147500Y-84432500D03*
X45422500Y-84432500D03*
G04 #@! TD*
D17*
G04 #@! TO.C,R128*
X58395000Y-65232500D03*
X57375000Y-65232500D03*
G04 #@! TD*
D11*
G04 #@! TO.C,T\u002AC109*
X29125000Y-13632500D03*
X27400000Y-13632500D03*
G04 #@! TD*
D19*
G04 #@! TO.C,C114*
X26350000Y-84832500D03*
X23100000Y-84832500D03*
G04 #@! TD*
D14*
G04 #@! TO.C,D113*
X14860000Y-57260000D03*
X14860000Y-58405000D03*
G04 #@! TD*
D11*
G04 #@! TO.C,C113*
X47147500Y-80132500D03*
X45422500Y-80132500D03*
G04 #@! TD*
D10*
G04 #@! TO.C,C127*
X48822500Y-19932500D03*
X50547500Y-19932500D03*
G04 #@! TD*
D18*
G04 #@! TO.C,C131*
X31425000Y-41657500D03*
X31425000Y-39607500D03*
G04 #@! TD*
D12*
G04 #@! TO.C,T\u002AC110*
X26987500Y-63432500D03*
X29062500Y-63432500D03*
G04 #@! TD*
D16*
G04 #@! TO.C,T\u002AC108*
X29300000Y-11698186D03*
X27225000Y-11698186D03*
G04 #@! TD*
D10*
G04 #@! TO.C,C124*
X20362500Y-55032500D03*
X22087500Y-55032500D03*
G04 #@! TD*
D20*
G04 #@! TO.C,SCL109*
X57285000Y-66435000D03*
X57285000Y-67630000D03*
G04 #@! TD*
D10*
G04 #@! TO.C,C125*
X48922500Y-57632500D03*
X50647500Y-57632500D03*
G04 #@! TD*
D11*
G04 #@! TO.C,T\u002AC109*
X57585000Y-13632500D03*
X55860000Y-13632500D03*
G04 #@! TD*
D15*
G04 #@! TO.C,R111*
X49385000Y-76707500D03*
X49385000Y-74957500D03*
G04 #@! TD*
D25*
G04 #@! TO.C,U109*
X57837500Y-59670686D03*
X57837500Y-60620686D03*
X57837500Y-61570686D03*
X55562500Y-61570686D03*
X55562500Y-59670686D03*
G04 #@! TD*
D12*
G04 #@! TO.C,FB110*
X16450000Y-17532500D03*
X18525000Y-17532500D03*
G04 #@! TD*
G04 #@! TO.C,FB111*
X16287500Y-65132500D03*
X18362500Y-65132500D03*
G04 #@! TD*
D14*
G04 #@! TO.C,D115*
X14725000Y-64460000D03*
X14725000Y-65605000D03*
G04 #@! TD*
D12*
G04 #@! TO.C,FB111*
X44747500Y-65132500D03*
X46822500Y-65132500D03*
G04 #@! TD*
D23*
G04 #@! TO.C,C122*
X54085000Y-72732499D03*
X54085000Y-69482499D03*
G04 #@! TD*
D11*
G04 #@! TO.C,C121*
X47147500Y-31832500D03*
X45422500Y-31832500D03*
G04 #@! TD*
D19*
G04 #@! TO.C,C114*
X26350000Y-40832500D03*
X23100000Y-40832500D03*
G04 #@! TD*
D10*
G04 #@! TO.C,C127*
X20362500Y-63932500D03*
X22087500Y-63932500D03*
G04 #@! TD*
G04 #@! TO.C,C127*
X48822500Y-63932500D03*
X50547500Y-63932500D03*
G04 #@! TD*
D11*
G04 #@! TO.C,T\u002AC109*
X57585000Y-57632500D03*
X55860000Y-57632500D03*
G04 #@! TD*
D12*
G04 #@! TO.C,FB109*
X44982500Y-13932500D03*
X47057500Y-13932500D03*
G04 #@! TD*
D16*
G04 #@! TO.C,T\u002AC108*
X29300000Y-55698186D03*
X27225000Y-55698186D03*
G04 #@! TD*
D14*
G04 #@! TO.C,D115*
X43185000Y-20460000D03*
X43185000Y-21605000D03*
G04 #@! TD*
D10*
G04 #@! TO.C,C127*
X20362500Y-19932500D03*
X22087500Y-19932500D03*
G04 #@! TD*
D15*
G04 #@! TO.C,R111*
X20925000Y-76707500D03*
X20925000Y-74957500D03*
G04 #@! TD*
D14*
G04 #@! TO.C,D113*
X43320000Y-57260000D03*
X43320000Y-58405000D03*
G04 #@! TD*
D20*
G04 #@! TO.C,SCL109*
X28825000Y-66435000D03*
X28825000Y-67630000D03*
G04 #@! TD*
D10*
G04 #@! TO.C,C126*
X48822500Y-61232500D03*
X50547500Y-61232500D03*
G04 #@! TD*
D24*
G04 #@! TO.C,R116*
X20950000Y-72332500D03*
X22700000Y-72332500D03*
G04 #@! TD*
D22*
G04 #@! TO.C,C130*
X29225000Y-39607500D03*
X29225000Y-41657500D03*
G04 #@! TD*
G04 #@! TO.C,C130*
X57685000Y-83607500D03*
X57685000Y-85657500D03*
G04 #@! TD*
D10*
G04 #@! TO.C,C124*
X48822500Y-11032500D03*
X50547500Y-11032500D03*
G04 #@! TD*
D17*
G04 #@! TO.C,R128*
X29935000Y-65232500D03*
X28915000Y-65232500D03*
G04 #@! TD*
D24*
G04 #@! TO.C,R116*
X49410000Y-72332500D03*
X51160000Y-72332500D03*
G04 #@! TD*
D18*
G04 #@! TO.C,C131*
X59885000Y-41657500D03*
X59885000Y-39607500D03*
G04 #@! TD*
D11*
G04 #@! TO.C,C113*
X47147500Y-36132500D03*
X45422500Y-36132500D03*
G04 #@! TD*
G04 #@! TO.C,C117*
X18687500Y-84432500D03*
X16962500Y-84432500D03*
G04 #@! TD*
D13*
G04 #@! TO.C,D111*
X14925000Y-29505000D03*
X14925000Y-28360000D03*
G04 #@! TD*
D14*
G04 #@! TO.C,D114*
X43320000Y-60860000D03*
X43320000Y-62005000D03*
G04 #@! TD*
D10*
G04 #@! TO.C,C124*
X20362500Y-11032500D03*
X22087500Y-11032500D03*
G04 #@! TD*
D11*
G04 #@! TO.C,C121*
X18687500Y-75832500D03*
X16962500Y-75832500D03*
G04 #@! TD*
G04 #@! TO.C,T\u002AC109*
X29125000Y-57632500D03*
X27400000Y-57632500D03*
G04 #@! TD*
D13*
G04 #@! TO.C,D109*
X14925000Y-41805000D03*
X14925000Y-40660000D03*
G04 #@! TD*
D11*
G04 #@! TO.C,C113*
X18687500Y-36132500D03*
X16962500Y-36132500D03*
G04 #@! TD*
D13*
G04 #@! TO.C,D109*
X43385000Y-85805000D03*
X43385000Y-84660000D03*
G04 #@! TD*
D10*
G04 #@! TO.C,C126*
X20362500Y-17232500D03*
X22087500Y-17232500D03*
G04 #@! TD*
D25*
G04 #@! TO.C,U109*
X29377500Y-15670686D03*
X29377500Y-16620686D03*
X29377500Y-17570686D03*
X27102500Y-17570686D03*
X27102500Y-15670686D03*
G04 #@! TD*
D13*
G04 #@! TO.C,D108*
X14925000Y-37505000D03*
X14925000Y-36360000D03*
G04 #@! TD*
D20*
G04 #@! TO.C,SCL109*
X28825000Y-22435000D03*
X28825000Y-23630000D03*
G04 #@! TD*
D17*
G04 #@! TO.C,R128*
X58395000Y-21232500D03*
X57375000Y-21232500D03*
G04 #@! TD*
D14*
G04 #@! TO.C,D112*
X14907500Y-9660000D03*
X14907500Y-10805000D03*
G04 #@! TD*
D10*
G04 #@! TO.C,C129*
X25750582Y-21482883D03*
X27475582Y-21482883D03*
G04 #@! TD*
M02*
