G04 #@! TF.GenerationSoftware,KiCad,Pcbnew,9.0.4*
G04 #@! TF.CreationDate,2025-08-20T18:38:41-04:00*
G04 #@! TF.ProjectId,jlc_pcba,6a6c635f-7063-4626-912e-6b696361645f,rev?*
G04 #@! TF.SameCoordinates,Original*
G04 #@! TF.FileFunction,Profile,NP*
%FSLAX46Y46*%
G04 Gerber Fmt 4.6, Leading zero omitted, Abs format (unit mm)*
G04 Created by KiCad (PCBNEW 9.0.4) date 2025-08-20 18:38:41*
%MOMM*%
%LPD*%
G01*
G04 APERTURE LIST*
G04 #@! TA.AperFunction,Profile*
%ADD10C,0.100000*%
G04 #@! TD*
G04 APERTURE END LIST*
D10*
X52370000Y-5000000D02*
X52370000Y-7000000D01*
X46550000Y-50001000D02*
X46550000Y-49999000D01*
X5770000Y-29500000D02*
X7770000Y-29500000D01*
X62690000Y-29500000D02*
X64690000Y-29500000D01*
X62690000Y-70500000D02*
X62690000Y-63000000D01*
X35231000Y-29500000D02*
X36230000Y-29500000D01*
X7770000Y-70500000D02*
X5770000Y-70500000D01*
X5770000Y-16000000D02*
X5770000Y-5000000D01*
X36230000Y-29500000D02*
X36230000Y-37000000D01*
X26910000Y-50001000D02*
X26910000Y-49999000D01*
X35229000Y-19000000D02*
X35231000Y-19000000D01*
X34230000Y-84000000D02*
X35229000Y-84000000D01*
X23910000Y-7000000D02*
X18090000Y-7000000D01*
X52370000Y-93000000D02*
X52370000Y-95000000D01*
X5770000Y-70500000D02*
X5770000Y-63000000D01*
X35231000Y-40000000D02*
X36230000Y-40000000D01*
X34230000Y-51000000D02*
X26910000Y-51000000D01*
X35229000Y-84000000D02*
X35231000Y-84000000D01*
X34230000Y-93000000D02*
X34230000Y-84000000D01*
X36230000Y-70500000D02*
X35231000Y-70500000D01*
X46550000Y-49999000D02*
X46550000Y-49000000D01*
X7770000Y-29500000D02*
X7770000Y-37000000D01*
X64690000Y-63000000D02*
X64690000Y-70500000D01*
X64690000Y-73500000D02*
X64690000Y-81000000D01*
X34230000Y-16000000D02*
X34230000Y-7000000D01*
X15090000Y-49000000D02*
X15090000Y-49999000D01*
X23910000Y-51000000D02*
X18090000Y-51000000D01*
X34230000Y-73500000D02*
X35229000Y-73500000D01*
X43550000Y-93000000D02*
X43550000Y-95000000D01*
X15090000Y-7000000D02*
X7770000Y-7000000D01*
X0Y0D02*
X0Y-100000000D01*
X35231000Y-37000000D02*
X35229000Y-37000000D01*
X55370000Y-51000000D02*
X55370000Y-50001000D01*
X18090000Y-7000000D02*
X18090000Y-5000000D01*
X7770000Y-93000000D02*
X15090000Y-93000000D01*
X34230000Y-70500000D02*
X34230000Y-63000000D01*
X23910000Y-49999000D02*
X23910000Y-50001000D01*
X36230000Y-16000000D02*
X35231000Y-16000000D01*
X35229000Y-81000000D02*
X34230000Y-81000000D01*
X5770000Y-81000000D02*
X5770000Y-73500000D01*
X64690000Y-19000000D02*
X64690000Y-26500000D01*
X35229000Y-29500000D02*
X35231000Y-29500000D01*
X35229000Y-63000000D02*
X35231000Y-63000000D01*
X36230000Y-26500000D02*
X35231000Y-26500000D01*
X62690000Y-60000000D02*
X62690000Y-51000000D01*
X0Y-100000000D02*
X70460000Y-100000000D01*
X64690000Y-40000000D02*
X64690000Y-60000000D01*
X23910000Y-95000000D02*
X18090000Y-95000000D01*
X5770000Y-60000000D02*
X5770000Y-40000000D01*
X52370000Y-49000000D02*
X52370000Y-49999000D01*
X36230000Y-37000000D02*
X35231000Y-37000000D01*
X36230000Y-81000000D02*
X35231000Y-81000000D01*
X7770000Y-73500000D02*
X7770000Y-81000000D01*
X64690000Y-95000000D02*
X55370000Y-95000000D01*
X7770000Y-84000000D02*
X7770000Y-93000000D01*
X55370000Y-50001000D02*
X55370000Y-49999000D01*
X34230000Y-7000000D02*
X26910000Y-7000000D01*
X62690000Y-7000000D02*
X55370000Y-7000000D01*
X5770000Y-5000000D02*
X15090000Y-5000000D01*
X62690000Y-16000000D02*
X62690000Y-7000000D01*
X5770000Y-73500000D02*
X7770000Y-73500000D01*
X46550000Y-95000000D02*
X46550000Y-93000000D01*
X35231000Y-81000000D02*
X35229000Y-81000000D01*
X64690000Y-26500000D02*
X62690000Y-26500000D01*
X62690000Y-73500000D02*
X64690000Y-73500000D01*
X46550000Y-93000000D02*
X52370000Y-93000000D01*
X18090000Y-93000000D02*
X23910000Y-93000000D01*
X35229000Y-73500000D02*
X35231000Y-73500000D01*
X7770000Y-60000000D02*
X5770000Y-60000000D01*
X35231000Y-60000000D02*
X35229000Y-60000000D01*
X23910000Y-49000000D02*
X23910000Y-49999000D01*
X62690000Y-81000000D02*
X62690000Y-73500000D01*
X26910000Y-51000000D02*
X26910000Y-50001000D01*
X55370000Y-49999000D02*
X55370000Y-49000000D01*
X62690000Y-26500000D02*
X62690000Y-19000000D01*
X7770000Y-63000000D02*
X7770000Y-70500000D01*
X62690000Y-63000000D02*
X64690000Y-63000000D01*
X15090000Y-49999000D02*
X15090000Y-50001000D01*
X36230000Y-7000000D02*
X36230000Y-16000000D01*
X15090000Y-51000000D02*
X7770000Y-51000000D01*
X35229000Y-26500000D02*
X34230000Y-26500000D01*
X18090000Y-49000000D02*
X23910000Y-49000000D01*
X46550000Y-51000000D02*
X46550000Y-50001000D01*
X7770000Y-37000000D02*
X5770000Y-37000000D01*
X35229000Y-40000000D02*
X35231000Y-40000000D01*
X26910000Y-49999000D02*
X26910000Y-49000000D01*
X18090000Y-51000000D02*
X18090000Y-50001000D01*
X62690000Y-49000000D02*
X62690000Y-40000000D01*
X7770000Y-16000000D02*
X5770000Y-16000000D01*
X62690000Y-37000000D02*
X62690000Y-29500000D01*
X35229000Y-70500000D02*
X34230000Y-70500000D01*
X5770000Y-40000000D02*
X7770000Y-40000000D01*
X62690000Y-51000000D02*
X55370000Y-51000000D01*
X35229000Y-37000000D02*
X34230000Y-37000000D01*
X35229000Y-60000000D02*
X34230000Y-60000000D01*
X5770000Y-63000000D02*
X7770000Y-63000000D01*
X7770000Y-40000000D02*
X7770000Y-49000000D01*
X64690000Y-60000000D02*
X62690000Y-60000000D01*
X64690000Y-70500000D02*
X62690000Y-70500000D01*
X36230000Y-93000000D02*
X43550000Y-93000000D01*
X26910000Y-95000000D02*
X26910000Y-93000000D01*
X64690000Y-81000000D02*
X62690000Y-81000000D01*
X15090000Y-5000000D02*
X15090000Y-7000000D01*
X55370000Y-93000000D02*
X62690000Y-93000000D01*
X5770000Y-19000000D02*
X7770000Y-19000000D01*
X26910000Y-7000000D02*
X26910000Y-5000000D01*
X26910000Y-93000000D02*
X34230000Y-93000000D01*
X64690000Y-5000000D02*
X64690000Y-16000000D01*
X62690000Y-84000000D02*
X64690000Y-84000000D01*
X5770000Y-26500000D02*
X5770000Y-19000000D01*
X7770000Y-26500000D02*
X5770000Y-26500000D01*
X7770000Y-7000000D02*
X7770000Y-16000000D01*
X7770000Y-49000000D02*
X15090000Y-49000000D01*
X18090000Y-49999000D02*
X18090000Y-49000000D01*
X62690000Y-93000000D02*
X62690000Y-84000000D01*
X36230000Y-19000000D02*
X36230000Y-26500000D01*
X34230000Y-26500000D02*
X34230000Y-19000000D01*
X18090000Y-95000000D02*
X18090000Y-93000000D01*
X5770000Y-84000000D02*
X7770000Y-84000000D01*
X15090000Y-50001000D02*
X15090000Y-51000000D01*
X5770000Y-37000000D02*
X5770000Y-29500000D01*
X43550000Y-49000000D02*
X43550000Y-49999000D01*
X34230000Y-60000000D02*
X34230000Y-51000000D01*
X35231000Y-26500000D02*
X35229000Y-26500000D01*
X43550000Y-50001000D02*
X43550000Y-51000000D01*
X36230000Y-60000000D02*
X35231000Y-60000000D01*
X55370000Y-49000000D02*
X62690000Y-49000000D01*
X34230000Y-19000000D02*
X35229000Y-19000000D01*
X23910000Y-5000000D02*
X23910000Y-7000000D01*
X64690000Y-29500000D02*
X64690000Y-37000000D01*
X15090000Y-95000000D02*
X5770000Y-95000000D01*
X52370000Y-50001000D02*
X52370000Y-51000000D01*
X35231000Y-63000000D02*
X36230000Y-63000000D01*
X26910000Y-49000000D02*
X34230000Y-49000000D01*
X5770000Y-95000000D02*
X5770000Y-84000000D01*
X64690000Y-84000000D02*
X64690000Y-95000000D01*
X18090000Y-50001000D02*
X18090000Y-49999000D01*
X52370000Y-95000000D02*
X46550000Y-95000000D01*
X36230000Y-73500000D02*
X36230000Y-81000000D01*
X7770000Y-19000000D02*
X7770000Y-26500000D01*
X43550000Y-5000000D02*
X43550000Y-7000000D01*
X52370000Y-51000000D02*
X46550000Y-51000000D01*
X18090000Y-5000000D02*
X23910000Y-5000000D01*
X52370000Y-7000000D02*
X46550000Y-7000000D01*
X62690000Y-19000000D02*
X64690000Y-19000000D01*
X7770000Y-81000000D02*
X5770000Y-81000000D01*
X23910000Y-50001000D02*
X23910000Y-51000000D01*
X35229000Y-16000000D02*
X34230000Y-16000000D01*
X43550000Y-95000000D02*
X26910000Y-95000000D01*
X70460000Y-100000000D02*
X70460000Y0D01*
X55370000Y-7000000D02*
X55370000Y-5000000D01*
X34230000Y-37000000D02*
X34230000Y-29500000D01*
X23910000Y-93000000D02*
X23910000Y-95000000D01*
X15090000Y-93000000D02*
X15090000Y-95000000D01*
X46550000Y-49000000D02*
X52370000Y-49000000D01*
X34230000Y-29500000D02*
X35229000Y-29500000D01*
X36230000Y-51000000D02*
X36230000Y-60000000D01*
X70460000Y0D02*
X0Y0D01*
X43550000Y-51000000D02*
X36230000Y-51000000D01*
X36230000Y-84000000D02*
X36230000Y-93000000D01*
X64690000Y-37000000D02*
X62690000Y-37000000D01*
X36230000Y-49000000D02*
X43550000Y-49000000D01*
X55370000Y-5000000D02*
X64690000Y-5000000D01*
X43550000Y-49999000D02*
X43550000Y-50001000D01*
X34230000Y-49000000D02*
X34230000Y-40000000D01*
X46550000Y-7000000D02*
X46550000Y-5000000D01*
X7770000Y-51000000D02*
X7770000Y-60000000D01*
X35231000Y-16000000D02*
X35229000Y-16000000D01*
X34230000Y-40000000D02*
X35229000Y-40000000D01*
X36230000Y-63000000D02*
X36230000Y-70500000D01*
X64690000Y-16000000D02*
X62690000Y-16000000D01*
X35231000Y-70500000D02*
X35229000Y-70500000D01*
X35231000Y-84000000D02*
X36230000Y-84000000D01*
X35231000Y-19000000D02*
X36230000Y-19000000D01*
X62690000Y-40000000D02*
X64690000Y-40000000D01*
X43550000Y-7000000D02*
X36230000Y-7000000D01*
X35231000Y-73500000D02*
X36230000Y-73500000D01*
X34230000Y-63000000D02*
X35229000Y-63000000D01*
X46550000Y-5000000D02*
X52370000Y-5000000D01*
X26910000Y-5000000D02*
X43550000Y-5000000D01*
X36230000Y-40000000D02*
X36230000Y-49000000D01*
X52370000Y-49999000D02*
X52370000Y-50001000D01*
X34230000Y-81000000D02*
X34230000Y-73500000D01*
X55370000Y-95000000D02*
X55370000Y-93000000D01*
M02*
