G04 #@! TF.GenerationSoftware,KiCad,Pcbnew,9.0.4*
G04 #@! TF.CreationDate,2025-08-20T18:38:41-04:00*
G04 #@! TF.ProjectId,jlc_pcba,6a6c635f-7063-4626-912e-6b696361645f,rev?*
G04 #@! TF.SameCoordinates,Original*
G04 #@! TF.FileFunction,Soldermask,Top*
G04 #@! TF.FilePolarity,Negative*
%FSLAX46Y46*%
G04 Gerber Fmt 4.6, Leading zero omitted, Abs format (unit mm)*
G04 Created by KiCad (PCBNEW 9.0.4) date 2025-08-20 18:38:41*
%MOMM*%
%LPD*%
G01*
G04 APERTURE LIST*
G04 Aperture macros list*
%AMRoundRect*
0 Rectangle with rounded corners*
0 $1 Rounding radius*
0 $2 $3 $4 $5 $6 $7 $8 $9 X,Y pos of 4 corners*
0 Add a 4 corners polygon primitive as box body*
4,1,4,$2,$3,$4,$5,$6,$7,$8,$9,$2,$3,0*
0 Add four circle primitives for the rounded corners*
1,1,$1+$1,$2,$3*
1,1,$1+$1,$4,$5*
1,1,$1+$1,$6,$7*
1,1,$1+$1,$8,$9*
0 Add four rect primitives between the rounded corners*
20,1,$1+$1,$2,$3,$4,$5,0*
20,1,$1+$1,$4,$5,$6,$7,0*
20,1,$1+$1,$6,$7,$8,$9,0*
20,1,$1+$1,$8,$9,$2,$3,0*%
%AMRotRect*
0 Rectangle, with rotation*
0 The origin of the aperture is its center*
0 $1 length*
0 $2 width*
0 $3 Rotation angle, in degrees counterclockwise*
0 Add horizontal line*
21,1,$1,$2,0,0,$3*%
G04 Aperture macros list end*
%ADD10C,0.010000*%
%ADD11C,0.000000*%
%ADD12RoundRect,0.160000X-0.026517X-0.252791X0.252791X0.026517X0.026517X0.252791X-0.252791X-0.026517X0*%
%ADD13RoundRect,0.140000X-0.219203X-0.021213X-0.021213X-0.219203X0.219203X0.021213X0.021213X0.219203X0*%
%ADD14RoundRect,0.062500X0.274004X-0.185616X-0.185616X0.274004X-0.274004X0.185616X0.185616X-0.274004X0*%
%ADD15RoundRect,0.062500X0.274004X0.185616X0.185616X0.274004X-0.274004X-0.185616X-0.185616X-0.274004X0*%
%ADD16RotRect,2.100000X2.100000X135.000000*%
%ADD17RoundRect,0.062500X0.088388X0.000000X0.000000X0.088388X-0.088388X0.000000X0.000000X-0.088388X0*%
%ADD18RoundRect,0.160000X-0.252791X0.026517X0.026517X-0.252791X0.252791X-0.026517X-0.026517X0.252791X0*%
%ADD19RoundRect,0.135000X-0.135000X-0.185000X0.135000X-0.185000X0.135000X0.185000X-0.135000X0.185000X0*%
%ADD20RoundRect,0.140000X-0.021213X0.219203X-0.219203X0.021213X0.021213X-0.219203X0.219203X-0.021213X0*%
%ADD21RoundRect,0.237500X0.380070X-0.044194X-0.044194X0.380070X-0.380070X0.044194X0.044194X-0.380070X0*%
%ADD22RoundRect,0.150000X-0.150000X0.512500X-0.150000X-0.512500X0.150000X-0.512500X0.150000X0.512500X0*%
%ADD23R,1.000000X1.000000*%
%ADD24RoundRect,0.135000X0.185000X-0.135000X0.185000X0.135000X-0.185000X0.135000X-0.185000X-0.135000X0*%
%ADD25RoundRect,0.250000X-0.475000X0.337500X-0.475000X-0.337500X0.475000X-0.337500X0.475000X0.337500X0*%
%ADD26RoundRect,0.135000X-0.185000X0.135000X-0.185000X-0.135000X0.185000X-0.135000X0.185000X0.135000X0*%
%ADD27RoundRect,0.135000X-0.035355X0.226274X-0.226274X0.035355X0.035355X-0.226274X0.226274X-0.035355X0*%
%ADD28RoundRect,0.237500X0.300000X0.237500X-0.300000X0.237500X-0.300000X-0.237500X0.300000X-0.237500X0*%
%ADD29RoundRect,0.250000X-0.574524X-0.097227X-0.097227X-0.574524X0.574524X0.097227X0.097227X0.574524X0*%
%ADD30RotRect,0.508000X0.508000X45.000000*%
%ADD31R,0.500000X0.508000*%
%ADD32R,0.508000X0.508000*%
%ADD33R,1.700000X1.700000*%
%ADD34O,1.700000X1.700000*%
%ADD35C,3.200000*%
%ADD36RoundRect,0.250000X-0.325000X-0.450000X0.325000X-0.450000X0.325000X0.450000X-0.325000X0.450000X0*%
%ADD37RoundRect,0.160000X-0.160000X0.197500X-0.160000X-0.197500X0.160000X-0.197500X0.160000X0.197500X0*%
%ADD38RoundRect,0.237500X0.237500X-0.300000X0.237500X0.300000X-0.237500X0.300000X-0.237500X-0.300000X0*%
%ADD39RoundRect,0.135000X0.035355X-0.226274X0.226274X-0.035355X-0.035355X0.226274X-0.226274X0.035355X0*%
%ADD40RoundRect,0.250000X-0.097227X0.574524X-0.574524X0.097227X0.097227X-0.574524X0.574524X-0.097227X0*%
G04 APERTURE END LIST*
G04 #@! TO.C,5V108*
D10*
X60085000Y-83872500D02*
X59085000Y-83872500D01*
X59085000Y-85982500D01*
X60085000Y-85982500D01*
X60085000Y-83872500D01*
G36*
X60085000Y-83872500D02*
G01*
X59085000Y-83872500D01*
X59085000Y-85982500D01*
X60085000Y-85982500D01*
X60085000Y-83872500D01*
G37*
D11*
G04 #@! TO.C,DOUT108*
G36*
X25578553Y-78538157D02*
G01*
X25230657Y-78886053D01*
X24871447Y-78526843D01*
X25219343Y-78178947D01*
X25578553Y-78538157D01*
G37*
G04 #@! TO.C,G118*
G36*
X61139000Y-55886500D02*
G01*
X60639000Y-55886500D01*
X60639000Y-55378500D01*
X61139000Y-55378500D01*
X61139000Y-55886500D01*
G37*
G04 #@! TO.C,E109*
G36*
X9779000Y-11986500D02*
G01*
X9279000Y-11986500D01*
X9279000Y-11478500D01*
X9779000Y-11478500D01*
X9779000Y-11986500D01*
G37*
G04 #@! TO.C,G117*
G36*
X32079000Y-34586500D02*
G01*
X31579000Y-34586500D01*
X31579000Y-34078500D01*
X32079000Y-34078500D01*
X32079000Y-34586500D01*
G37*
G04 #@! TO.C,DOUT108*
G36*
X54038553Y-34538157D02*
G01*
X53690657Y-34886053D01*
X53331447Y-34526843D01*
X53679343Y-34178947D01*
X54038553Y-34538157D01*
G37*
G36*
X54038553Y-78538157D02*
G01*
X53690657Y-78886053D01*
X53331447Y-78526843D01*
X53679343Y-78178947D01*
X54038553Y-78538157D01*
G37*
G04 #@! TO.C,5V108*
D10*
X31625000Y-39872500D02*
X30625000Y-39872500D01*
X30625000Y-41982500D01*
X31625000Y-41982500D01*
X31625000Y-39872500D01*
G36*
X31625000Y-39872500D02*
G01*
X30625000Y-39872500D01*
X30625000Y-41982500D01*
X31625000Y-41982500D01*
X31625000Y-39872500D01*
G37*
X60085000Y-39872500D02*
X59085000Y-39872500D01*
X59085000Y-41982500D01*
X60085000Y-41982500D01*
X60085000Y-39872500D01*
G36*
X60085000Y-39872500D02*
G01*
X59085000Y-39872500D01*
X59085000Y-41982500D01*
X60085000Y-41982500D01*
X60085000Y-39872500D01*
G37*
G04 #@! TO.C,G118*
G36*
X32679000Y-55886500D02*
G01*
X32179000Y-55886500D01*
X32179000Y-55378500D01*
X32679000Y-55378500D01*
X32679000Y-55886500D01*
G37*
G04 #@! TO.C,E108*
G36*
X38239000Y-78386500D02*
G01*
X37739000Y-78386500D01*
X37739000Y-77878500D01*
X38239000Y-77878500D01*
X38239000Y-78386500D01*
G37*
G36*
X9779000Y-34386500D02*
G01*
X9279000Y-34386500D01*
X9279000Y-33878500D01*
X9779000Y-33878500D01*
X9779000Y-34386500D01*
G37*
D11*
G04 #@! TO.C,DOUT108*
G36*
X25578553Y-34538157D02*
G01*
X25230657Y-34886053D01*
X24871447Y-34526843D01*
X25219343Y-34178947D01*
X25578553Y-34538157D01*
G37*
G04 #@! TO.C,E109*
G36*
X38239000Y-55986500D02*
G01*
X37739000Y-55986500D01*
X37739000Y-55478500D01*
X38239000Y-55478500D01*
X38239000Y-55986500D01*
G37*
G04 #@! TO.C,E108*
G36*
X38239000Y-34386500D02*
G01*
X37739000Y-34386500D01*
X37739000Y-33878500D01*
X38239000Y-33878500D01*
X38239000Y-34386500D01*
G37*
G04 #@! TO.C,G118*
G36*
X61139000Y-11886500D02*
G01*
X60639000Y-11886500D01*
X60639000Y-11378500D01*
X61139000Y-11378500D01*
X61139000Y-11886500D01*
G37*
G04 #@! TO.C,E109*
G36*
X38239000Y-11986500D02*
G01*
X37739000Y-11986500D01*
X37739000Y-11478500D01*
X38239000Y-11478500D01*
X38239000Y-11986500D01*
G37*
G04 #@! TO.C,G117*
G36*
X60539000Y-78586500D02*
G01*
X60039000Y-78586500D01*
X60039000Y-78078500D01*
X60539000Y-78078500D01*
X60539000Y-78586500D01*
G37*
G04 #@! TO.C,5V108*
D10*
X31625000Y-83872500D02*
X30625000Y-83872500D01*
X30625000Y-85982500D01*
X31625000Y-85982500D01*
X31625000Y-83872500D01*
G36*
X31625000Y-83872500D02*
G01*
X30625000Y-83872500D01*
X30625000Y-85982500D01*
X31625000Y-85982500D01*
X31625000Y-83872500D01*
G37*
G04 #@! TO.C,G117*
G36*
X60539000Y-34586500D02*
G01*
X60039000Y-34586500D01*
X60039000Y-34078500D01*
X60539000Y-34078500D01*
X60539000Y-34586500D01*
G37*
G04 #@! TO.C,E109*
G36*
X9779000Y-55986500D02*
G01*
X9279000Y-55986500D01*
X9279000Y-55478500D01*
X9779000Y-55478500D01*
X9779000Y-55986500D01*
G37*
G04 #@! TO.C,G117*
G36*
X32079000Y-78586500D02*
G01*
X31579000Y-78586500D01*
X31579000Y-78078500D01*
X32079000Y-78078500D01*
X32079000Y-78586500D01*
G37*
G04 #@! TO.C,E108*
G36*
X9779000Y-78386500D02*
G01*
X9279000Y-78386500D01*
X9279000Y-77878500D01*
X9779000Y-77878500D01*
X9779000Y-78386500D01*
G37*
G04 #@! TO.C,G118*
G36*
X32679000Y-11886500D02*
G01*
X32179000Y-11886500D01*
X32179000Y-11378500D01*
X32679000Y-11378500D01*
X32679000Y-11886500D01*
G37*
G04 #@! TD*
D12*
G04 #@! TO.C,R110*
X23047496Y-18210004D03*
X22202504Y-19054996D03*
G04 #@! TD*
D13*
G04 #@! TO.C,C116*
X22085589Y-73093089D03*
X22764411Y-73771911D03*
G04 #@! TD*
D14*
G04 #@! TO.C,TAC5212*
X50192005Y-70352725D03*
X50545559Y-69999172D03*
X50899112Y-69645618D03*
X51252665Y-69292065D03*
X51606219Y-68938512D03*
X51959772Y-68584958D03*
D15*
X51959772Y-67541976D03*
X51606219Y-67188422D03*
X51252665Y-66834869D03*
X50899112Y-66481316D03*
X50545559Y-66127762D03*
X50192005Y-65774209D03*
D14*
X49149023Y-65774209D03*
X48795469Y-66127762D03*
X48441916Y-66481316D03*
X48088363Y-66834869D03*
X47734809Y-67188422D03*
X47381256Y-67541976D03*
D15*
X47381256Y-68584958D03*
X47734809Y-68938512D03*
X48088363Y-69292065D03*
X48441916Y-69645618D03*
X48795469Y-69999172D03*
X49149023Y-70352725D03*
D16*
X49670514Y-68063467D03*
D17*
X49670514Y-70495914D03*
X52102961Y-68063467D03*
X49670514Y-65631020D03*
X47238067Y-68063467D03*
G04 #@! TD*
D18*
G04 #@! TO.C,R117*
X53665455Y-27715414D03*
X52820463Y-26870422D03*
G04 #@! TD*
D19*
G04 #@! TO.C,R126*
X26215000Y-55632500D03*
X27235000Y-55632500D03*
G04 #@! TD*
D12*
G04 #@! TO.C,R113*
X24647496Y-19810004D03*
X23802504Y-20654996D03*
G04 #@! TD*
D20*
G04 #@! TO.C,C109*
X47424411Y-72293089D03*
X46745589Y-72971911D03*
G04 #@! TD*
D21*
G04 #@! TO.C,C119*
X21834880Y-75242380D03*
X20615120Y-74022620D03*
G04 #@! TD*
D13*
G04 #@! TO.C,C112*
X54545589Y-69293089D03*
X55224411Y-69971911D03*
G04 #@! TD*
D12*
G04 #@! TO.C,R114*
X53907496Y-64610004D03*
X53062504Y-65454996D03*
G04 #@! TD*
D22*
G04 #@! TO.C,U108*
X54335000Y-36695000D03*
X53385000Y-36695000D03*
X52435000Y-36695000D03*
X52435000Y-38970000D03*
X54335000Y-38970000D03*
G04 #@! TD*
D23*
G04 #@! TO.C,ADD112*
X49885000Y-15232500D03*
X48585000Y-15232500D03*
G04 #@! TD*
D18*
G04 #@! TO.C,R119*
X52321952Y-29058917D03*
X51476960Y-28213925D03*
G04 #@! TD*
D23*
G04 #@! TO.C,ADD111*
X21425000Y-56032500D03*
X20125000Y-56032500D03*
G04 #@! TD*
D12*
G04 #@! TO.C,R110*
X51507496Y-62210004D03*
X50662504Y-63054996D03*
G04 #@! TD*
G04 #@! TO.C,R114*
X53907496Y-20610004D03*
X53062504Y-21454996D03*
G04 #@! TD*
G04 #@! TO.C,R112*
X23847496Y-63010004D03*
X23002504Y-63854996D03*
G04 #@! TD*
D18*
G04 #@! TO.C,R115*
X52993704Y-72387166D03*
X52148712Y-71542174D03*
G04 #@! TD*
D24*
G04 #@! TO.C,R123*
X51185000Y-12742500D03*
X51185000Y-11722500D03*
G04 #@! TD*
D12*
G04 #@! TO.C,R112*
X52307496Y-19010004D03*
X51462504Y-19854996D03*
G04 #@! TD*
D25*
G04 #@! TO.C,C111*
X56485000Y-71795000D03*
X56485000Y-73870000D03*
G04 #@! TD*
D23*
G04 #@! TO.C,ADD111*
X21425000Y-12032500D03*
X20125000Y-12032500D03*
G04 #@! TD*
D26*
G04 #@! TO.C,R124*
X51185000Y-15922500D03*
X51185000Y-16942500D03*
G04 #@! TD*
D21*
G04 #@! TO.C,C119*
X50294880Y-31242380D03*
X49075120Y-30022620D03*
G04 #@! TD*
D23*
G04 #@! TO.C,ADD111*
X49885000Y-12032500D03*
X48585000Y-12032500D03*
G04 #@! TD*
D18*
G04 #@! TO.C,R118*
X25877207Y-71043663D03*
X25032215Y-70198671D03*
G04 #@! TD*
D25*
G04 #@! TO.C,C111*
X56485000Y-27795000D03*
X56485000Y-29870000D03*
G04 #@! TD*
D27*
G04 #@! TO.C,R120*
X26785624Y-66271876D03*
X26064376Y-66993124D03*
G04 #@! TD*
D28*
G04 #@! TO.C,C118*
X42947500Y-8632500D03*
X41222500Y-8632500D03*
G04 #@! TD*
D27*
G04 #@! TO.C,R120*
X55245624Y-66271876D03*
X54524376Y-66993124D03*
G04 #@! TD*
D29*
G04 #@! TO.C,C108*
X47451377Y-31098877D03*
X48918623Y-32566123D03*
G04 #@! TD*
D28*
G04 #@! TO.C,C118*
X14487500Y-8632500D03*
X12762500Y-8632500D03*
G04 #@! TD*
D30*
G04 #@! TO.C,DOUT108*
X25578553Y-78178947D03*
X24871447Y-78886053D03*
G04 #@! TD*
D23*
G04 #@! TO.C,ADD112*
X21425000Y-59232500D03*
X20125000Y-59232500D03*
G04 #@! TD*
D31*
G04 #@! TO.C,G118*
X61389000Y-55632500D03*
D32*
X60385000Y-55632500D03*
G04 #@! TD*
D23*
G04 #@! TO.C,ADD108*
X49885000Y-16832500D03*
X48585000Y-16832500D03*
G04 #@! TD*
G04 #@! TO.C,ADD110*
X21425000Y-13632500D03*
X20125000Y-13632500D03*
G04 #@! TD*
D29*
G04 #@! TO.C,C108*
X18991377Y-75098877D03*
X20458623Y-76566123D03*
G04 #@! TD*
D33*
G04 #@! TO.C,board_outline108*
X32425000Y-44495000D03*
D34*
X32425000Y-47035000D03*
X29885000Y-44495000D03*
X29885000Y-47035000D03*
X27345000Y-44495000D03*
X27345000Y-47035000D03*
X24805000Y-44495000D03*
X24805000Y-47035000D03*
X22265000Y-44495000D03*
X22265000Y-47035000D03*
X19725000Y-44495000D03*
X19725000Y-47035000D03*
X17185000Y-44495000D03*
X17185000Y-47035000D03*
X14645000Y-44495000D03*
X14645000Y-47035000D03*
X12105000Y-44495000D03*
X12105000Y-47035000D03*
X9565000Y-44495000D03*
X9565000Y-47035000D03*
D33*
X12110000Y-31785000D03*
X9570000Y-31785000D03*
D34*
X12110000Y-29245000D03*
X9570000Y-29245000D03*
X12110000Y-26705000D03*
X9570000Y-26705000D03*
X12110000Y-24165000D03*
X9570000Y-24165000D03*
X12110000Y-21625000D03*
X9570000Y-21625000D03*
X12110000Y-19085000D03*
X9570000Y-19085000D03*
X12110000Y-16545000D03*
X9570000Y-16545000D03*
X12110000Y-14005000D03*
X9570000Y-14005000D03*
D33*
X32430000Y-31785000D03*
D34*
X32430000Y-29245000D03*
X32430000Y-26705000D03*
X32430000Y-24165000D03*
X32430000Y-21625000D03*
X32430000Y-19085000D03*
X32430000Y-16545000D03*
X32430000Y-14005000D03*
X27350000Y-8940000D03*
X24810000Y-8940000D03*
X22270000Y-8940000D03*
X12110000Y-11480000D03*
D35*
X9570000Y-36880000D03*
X9570000Y-8940000D03*
X32430000Y-36880000D03*
X32430000Y-8940000D03*
G04 #@! TD*
D23*
G04 #@! TO.C,PU_EN108*
X56885000Y-70282500D03*
X56885000Y-68982500D03*
G04 #@! TD*
D36*
G04 #@! TO.C,D116*
X26075000Y-57657500D03*
X28125000Y-57657500D03*
G04 #@! TD*
D19*
G04 #@! TO.C,R126*
X54675000Y-11632500D03*
X55695000Y-11632500D03*
G04 #@! TD*
D29*
G04 #@! TO.C,C108*
X18991377Y-31098877D03*
X20458623Y-32566123D03*
G04 #@! TD*
D18*
G04 #@! TO.C,R118*
X54337207Y-27043663D03*
X53492215Y-26198671D03*
G04 #@! TD*
D24*
G04 #@! TO.C,R123*
X51185000Y-56742500D03*
X51185000Y-55722500D03*
G04 #@! TD*
D18*
G04 #@! TO.C,R118*
X25877207Y-27043663D03*
X25032215Y-26198671D03*
G04 #@! TD*
D37*
G04 #@! TO.C,R125*
X50885000Y-83330000D03*
X50885000Y-82135000D03*
G04 #@! TD*
D18*
G04 #@! TO.C,R115*
X24533704Y-72387166D03*
X23688712Y-71542174D03*
G04 #@! TD*
D23*
G04 #@! TO.C,ADD108*
X21425000Y-16832500D03*
X20125000Y-16832500D03*
G04 #@! TD*
D38*
G04 #@! TO.C,C128*
X27825000Y-81895000D03*
X27825000Y-80170000D03*
G04 #@! TD*
D19*
G04 #@! TO.C,R126*
X26215000Y-11632500D03*
X27235000Y-11632500D03*
G04 #@! TD*
D24*
G04 #@! TO.C,R123*
X22725000Y-56742500D03*
X22725000Y-55722500D03*
G04 #@! TD*
D27*
G04 #@! TO.C,R120*
X55245624Y-22271876D03*
X54524376Y-22993124D03*
G04 #@! TD*
D39*
G04 #@! TO.C,R121*
X55324376Y-23793124D03*
X56045624Y-23071876D03*
G04 #@! TD*
D20*
G04 #@! TO.C,C109*
X18964411Y-28293089D03*
X18285589Y-28971911D03*
G04 #@! TD*
D28*
G04 #@! TO.C,C118*
X14487500Y-52632500D03*
X12762500Y-52632500D03*
G04 #@! TD*
D12*
G04 #@! TO.C,R114*
X25447496Y-20610004D03*
X24602504Y-21454996D03*
G04 #@! TD*
D38*
G04 #@! TO.C,C128*
X27825000Y-37895000D03*
X27825000Y-36170000D03*
G04 #@! TD*
D19*
G04 #@! TO.C,R126*
X54675000Y-55632500D03*
X55695000Y-55632500D03*
G04 #@! TD*
D31*
G04 #@! TO.C,E109*
X10029000Y-11732500D03*
D32*
X9025000Y-11732500D03*
G04 #@! TD*
D38*
G04 #@! TO.C,C128*
X56285000Y-81895000D03*
X56285000Y-80170000D03*
G04 #@! TD*
D23*
G04 #@! TO.C,ADD112*
X21425000Y-15232500D03*
X20125000Y-15232500D03*
G04 #@! TD*
D18*
G04 #@! TO.C,R119*
X52321952Y-73058917D03*
X51476960Y-72213925D03*
G04 #@! TD*
G04 #@! TO.C,R117*
X25205455Y-71715414D03*
X24360463Y-70870422D03*
G04 #@! TD*
D13*
G04 #@! TO.C,C116*
X22085589Y-29093089D03*
X22764411Y-29771911D03*
G04 #@! TD*
D37*
G04 #@! TO.C,R125*
X22425000Y-39330000D03*
X22425000Y-38135000D03*
G04 #@! TD*
D38*
G04 #@! TO.C,C128*
X56285000Y-37895000D03*
X56285000Y-36170000D03*
G04 #@! TD*
D13*
G04 #@! TO.C,C116*
X50545589Y-73093089D03*
X51224411Y-73771911D03*
G04 #@! TD*
D23*
G04 #@! TO.C,ADD110*
X49885000Y-57632500D03*
X48585000Y-57632500D03*
G04 #@! TD*
D31*
G04 #@! TO.C,G117*
X32329000Y-34332500D03*
D32*
X31325000Y-34332500D03*
G04 #@! TD*
D26*
G04 #@! TO.C,R124*
X22725000Y-15922500D03*
X22725000Y-16942500D03*
G04 #@! TD*
D14*
G04 #@! TO.C,TAC5212*
X50192005Y-26352725D03*
X50545559Y-25999172D03*
X50899112Y-25645618D03*
X51252665Y-25292065D03*
X51606219Y-24938512D03*
X51959772Y-24584958D03*
D15*
X51959772Y-23541976D03*
X51606219Y-23188422D03*
X51252665Y-22834869D03*
X50899112Y-22481316D03*
X50545559Y-22127762D03*
X50192005Y-21774209D03*
D14*
X49149023Y-21774209D03*
X48795469Y-22127762D03*
X48441916Y-22481316D03*
X48088363Y-22834869D03*
X47734809Y-23188422D03*
X47381256Y-23541976D03*
D15*
X47381256Y-24584958D03*
X47734809Y-24938512D03*
X48088363Y-25292065D03*
X48441916Y-25645618D03*
X48795469Y-25999172D03*
X49149023Y-26352725D03*
D16*
X49670514Y-24063467D03*
D17*
X49670514Y-26495914D03*
X52102961Y-24063467D03*
X49670514Y-21631020D03*
X47238067Y-24063467D03*
G04 #@! TD*
D20*
G04 #@! TO.C,C109*
X18964411Y-72293089D03*
X18285589Y-72971911D03*
G04 #@! TD*
D18*
G04 #@! TO.C,R118*
X54337207Y-71043663D03*
X53492215Y-70198671D03*
G04 #@! TD*
D36*
G04 #@! TO.C,D116*
X26075000Y-13657500D03*
X28125000Y-13657500D03*
G04 #@! TD*
D12*
G04 #@! TO.C,R110*
X23047496Y-62210004D03*
X22202504Y-63054996D03*
G04 #@! TD*
D21*
G04 #@! TO.C,C119*
X21834880Y-31242380D03*
X20615120Y-30022620D03*
G04 #@! TD*
D13*
G04 #@! TO.C,C112*
X26085589Y-25293089D03*
X26764411Y-25971911D03*
G04 #@! TD*
D26*
G04 #@! TO.C,R124*
X22725000Y-59922500D03*
X22725000Y-60942500D03*
G04 #@! TD*
D30*
G04 #@! TO.C,DOUT108*
X54038553Y-34178947D03*
X53331447Y-34886053D03*
G04 #@! TD*
D37*
G04 #@! TO.C,R125*
X50885000Y-39330000D03*
X50885000Y-38135000D03*
G04 #@! TD*
D18*
G04 #@! TO.C,R117*
X53665455Y-71715414D03*
X52820463Y-70870422D03*
G04 #@! TD*
D37*
G04 #@! TO.C,R125*
X22425000Y-83330000D03*
X22425000Y-82135000D03*
G04 #@! TD*
D30*
G04 #@! TO.C,DOUT108*
X54038553Y-78178947D03*
X53331447Y-78886053D03*
G04 #@! TD*
D12*
G04 #@! TO.C,R113*
X53107496Y-63810004D03*
X52262504Y-64654996D03*
G04 #@! TD*
D22*
G04 #@! TO.C,U108*
X25875000Y-36695000D03*
X24925000Y-36695000D03*
X23975000Y-36695000D03*
X23975000Y-38970000D03*
X25875000Y-38970000D03*
G04 #@! TD*
D39*
G04 #@! TO.C,R121*
X26864376Y-67793124D03*
X27585624Y-67071876D03*
G04 #@! TD*
D36*
G04 #@! TO.C,D116*
X54535000Y-57657500D03*
X56585000Y-57657500D03*
G04 #@! TD*
D14*
G04 #@! TO.C,TAC5212*
X21732005Y-26352725D03*
X22085559Y-25999172D03*
X22439112Y-25645618D03*
X22792665Y-25292065D03*
X23146219Y-24938512D03*
X23499772Y-24584958D03*
D15*
X23499772Y-23541976D03*
X23146219Y-23188422D03*
X22792665Y-22834869D03*
X22439112Y-22481316D03*
X22085559Y-22127762D03*
X21732005Y-21774209D03*
D14*
X20689023Y-21774209D03*
X20335469Y-22127762D03*
X19981916Y-22481316D03*
X19628363Y-22834869D03*
X19274809Y-23188422D03*
X18921256Y-23541976D03*
D15*
X18921256Y-24584958D03*
X19274809Y-24938512D03*
X19628363Y-25292065D03*
X19981916Y-25645618D03*
X20335469Y-25999172D03*
X20689023Y-26352725D03*
D16*
X21210514Y-24063467D03*
D17*
X21210514Y-26495914D03*
X23642961Y-24063467D03*
X21210514Y-21631020D03*
X18778067Y-24063467D03*
G04 #@! TD*
D12*
G04 #@! TO.C,R112*
X23847496Y-19010004D03*
X23002504Y-19854996D03*
G04 #@! TD*
D36*
G04 #@! TO.C,D116*
X54535000Y-13657500D03*
X56585000Y-13657500D03*
G04 #@! TD*
D12*
G04 #@! TO.C,R113*
X24647496Y-63810004D03*
X23802504Y-64654996D03*
G04 #@! TD*
D28*
G04 #@! TO.C,C118*
X42947500Y-52632500D03*
X41222500Y-52632500D03*
G04 #@! TD*
D26*
G04 #@! TO.C,R122*
X22725000Y-57722500D03*
X22725000Y-58742500D03*
G04 #@! TD*
D18*
G04 #@! TO.C,R119*
X23861952Y-73058917D03*
X23016960Y-72213925D03*
G04 #@! TD*
D33*
G04 #@! TO.C,board_outline108*
X60885000Y-88495000D03*
D34*
X60885000Y-91035000D03*
X58345000Y-88495000D03*
X58345000Y-91035000D03*
X55805000Y-88495000D03*
X55805000Y-91035000D03*
X53265000Y-88495000D03*
X53265000Y-91035000D03*
X50725000Y-88495000D03*
X50725000Y-91035000D03*
X48185000Y-88495000D03*
X48185000Y-91035000D03*
X45645000Y-88495000D03*
X45645000Y-91035000D03*
X43105000Y-88495000D03*
X43105000Y-91035000D03*
X40565000Y-88495000D03*
X40565000Y-91035000D03*
X38025000Y-88495000D03*
X38025000Y-91035000D03*
D33*
X40570000Y-75785000D03*
X38030000Y-75785000D03*
D34*
X40570000Y-73245000D03*
X38030000Y-73245000D03*
X40570000Y-70705000D03*
X38030000Y-70705000D03*
X40570000Y-68165000D03*
X38030000Y-68165000D03*
X40570000Y-65625000D03*
X38030000Y-65625000D03*
X40570000Y-63085000D03*
X38030000Y-63085000D03*
X40570000Y-60545000D03*
X38030000Y-60545000D03*
X40570000Y-58005000D03*
X38030000Y-58005000D03*
D33*
X60890000Y-75785000D03*
D34*
X60890000Y-73245000D03*
X60890000Y-70705000D03*
X60890000Y-68165000D03*
X60890000Y-65625000D03*
X60890000Y-63085000D03*
X60890000Y-60545000D03*
X60890000Y-58005000D03*
X55810000Y-52940000D03*
X53270000Y-52940000D03*
X50730000Y-52940000D03*
X40570000Y-55480000D03*
D35*
X38030000Y-80880000D03*
X38030000Y-52940000D03*
X60890000Y-80880000D03*
X60890000Y-52940000D03*
G04 #@! TD*
D24*
G04 #@! TO.C,R123*
X22725000Y-12742500D03*
X22725000Y-11722500D03*
G04 #@! TD*
D31*
G04 #@! TO.C,G118*
X32929000Y-55632500D03*
D32*
X31925000Y-55632500D03*
G04 #@! TD*
D23*
G04 #@! TO.C,ADD108*
X49885000Y-60832500D03*
X48585000Y-60832500D03*
G04 #@! TD*
D12*
G04 #@! TO.C,R110*
X51507496Y-18210004D03*
X50662504Y-19054996D03*
G04 #@! TD*
D26*
G04 #@! TO.C,R122*
X51185000Y-57722500D03*
X51185000Y-58742500D03*
G04 #@! TD*
D31*
G04 #@! TO.C,E108*
X38489000Y-78132500D03*
D32*
X37485000Y-78132500D03*
G04 #@! TD*
D18*
G04 #@! TO.C,R117*
X25205455Y-27715414D03*
X24360463Y-26870422D03*
G04 #@! TD*
D39*
G04 #@! TO.C,R121*
X26864376Y-23793124D03*
X27585624Y-23071876D03*
G04 #@! TD*
D26*
G04 #@! TO.C,R122*
X51185000Y-13722500D03*
X51185000Y-14742500D03*
G04 #@! TD*
D23*
G04 #@! TO.C,ADD112*
X49885000Y-59232500D03*
X48585000Y-59232500D03*
G04 #@! TD*
D12*
G04 #@! TO.C,R114*
X25447496Y-64610004D03*
X24602504Y-65454996D03*
G04 #@! TD*
D31*
G04 #@! TO.C,E108*
X10029000Y-34132500D03*
D32*
X9025000Y-34132500D03*
G04 #@! TD*
D30*
G04 #@! TO.C,DOUT108*
X25578553Y-34178947D03*
X24871447Y-34886053D03*
G04 #@! TD*
D31*
G04 #@! TO.C,E109*
X38489000Y-55732500D03*
D32*
X37485000Y-55732500D03*
G04 #@! TD*
D12*
G04 #@! TO.C,R112*
X52307496Y-63010004D03*
X51462504Y-63854996D03*
G04 #@! TD*
D29*
G04 #@! TO.C,C108*
X47451377Y-75098877D03*
X48918623Y-76566123D03*
G04 #@! TD*
D33*
G04 #@! TO.C,board_outline108*
X60885000Y-44495000D03*
D34*
X60885000Y-47035000D03*
X58345000Y-44495000D03*
X58345000Y-47035000D03*
X55805000Y-44495000D03*
X55805000Y-47035000D03*
X53265000Y-44495000D03*
X53265000Y-47035000D03*
X50725000Y-44495000D03*
X50725000Y-47035000D03*
X48185000Y-44495000D03*
X48185000Y-47035000D03*
X45645000Y-44495000D03*
X45645000Y-47035000D03*
X43105000Y-44495000D03*
X43105000Y-47035000D03*
X40565000Y-44495000D03*
X40565000Y-47035000D03*
X38025000Y-44495000D03*
X38025000Y-47035000D03*
D33*
X40570000Y-31785000D03*
X38030000Y-31785000D03*
D34*
X40570000Y-29245000D03*
X38030000Y-29245000D03*
X40570000Y-26705000D03*
X38030000Y-26705000D03*
X40570000Y-24165000D03*
X38030000Y-24165000D03*
X40570000Y-21625000D03*
X38030000Y-21625000D03*
X40570000Y-19085000D03*
X38030000Y-19085000D03*
X40570000Y-16545000D03*
X38030000Y-16545000D03*
X40570000Y-14005000D03*
X38030000Y-14005000D03*
D33*
X60890000Y-31785000D03*
D34*
X60890000Y-29245000D03*
X60890000Y-26705000D03*
X60890000Y-24165000D03*
X60890000Y-21625000D03*
X60890000Y-19085000D03*
X60890000Y-16545000D03*
X60890000Y-14005000D03*
X55810000Y-8940000D03*
X53270000Y-8940000D03*
X50730000Y-8940000D03*
X40570000Y-11480000D03*
D35*
X38030000Y-36880000D03*
X38030000Y-8940000D03*
X60890000Y-36880000D03*
X60890000Y-8940000D03*
G04 #@! TD*
D40*
G04 #@! TO.C,C115*
X24258623Y-31698877D03*
X22791377Y-33166123D03*
G04 #@! TD*
D25*
G04 #@! TO.C,C111*
X28025000Y-71795000D03*
X28025000Y-73870000D03*
G04 #@! TD*
D40*
G04 #@! TO.C,C115*
X24258623Y-75698877D03*
X22791377Y-77166123D03*
G04 #@! TD*
D18*
G04 #@! TO.C,R115*
X52993704Y-28387166D03*
X52148712Y-27542174D03*
G04 #@! TD*
D23*
G04 #@! TO.C,ADD111*
X49885000Y-56032500D03*
X48585000Y-56032500D03*
G04 #@! TD*
D40*
G04 #@! TO.C,C115*
X52718623Y-75698877D03*
X51251377Y-77166123D03*
G04 #@! TD*
D22*
G04 #@! TO.C,U108*
X54335000Y-80695000D03*
X53385000Y-80695000D03*
X52435000Y-80695000D03*
X52435000Y-82970000D03*
X54335000Y-82970000D03*
G04 #@! TD*
D31*
G04 #@! TO.C,E108*
X38489000Y-34132500D03*
D32*
X37485000Y-34132500D03*
G04 #@! TD*
D31*
G04 #@! TO.C,G118*
X61389000Y-11632500D03*
D32*
X60385000Y-11632500D03*
G04 #@! TD*
D27*
G04 #@! TO.C,R120*
X26785624Y-22271876D03*
X26064376Y-22993124D03*
G04 #@! TD*
D13*
G04 #@! TO.C,C112*
X54545589Y-25293089D03*
X55224411Y-25971911D03*
G04 #@! TD*
D23*
G04 #@! TO.C,ADD110*
X49885000Y-13632500D03*
X48585000Y-13632500D03*
G04 #@! TD*
D40*
G04 #@! TO.C,C115*
X52718623Y-31698877D03*
X51251377Y-33166123D03*
G04 #@! TD*
D13*
G04 #@! TO.C,C112*
X26085589Y-69293089D03*
X26764411Y-69971911D03*
G04 #@! TD*
D23*
G04 #@! TO.C,ADD110*
X21425000Y-57632500D03*
X20125000Y-57632500D03*
G04 #@! TD*
D39*
G04 #@! TO.C,R121*
X55324376Y-67793124D03*
X56045624Y-67071876D03*
G04 #@! TD*
D31*
G04 #@! TO.C,E109*
X38489000Y-11732500D03*
D32*
X37485000Y-11732500D03*
G04 #@! TD*
D18*
G04 #@! TO.C,R115*
X24533704Y-28387166D03*
X23688712Y-27542174D03*
G04 #@! TD*
D31*
G04 #@! TO.C,G117*
X60789000Y-78332500D03*
D32*
X59785000Y-78332500D03*
G04 #@! TD*
D13*
G04 #@! TO.C,C116*
X50545589Y-29093089D03*
X51224411Y-29771911D03*
G04 #@! TD*
D14*
G04 #@! TO.C,TAC5212*
X21732005Y-70352725D03*
X22085559Y-69999172D03*
X22439112Y-69645618D03*
X22792665Y-69292065D03*
X23146219Y-68938512D03*
X23499772Y-68584958D03*
D15*
X23499772Y-67541976D03*
X23146219Y-67188422D03*
X22792665Y-66834869D03*
X22439112Y-66481316D03*
X22085559Y-66127762D03*
X21732005Y-65774209D03*
D14*
X20689023Y-65774209D03*
X20335469Y-66127762D03*
X19981916Y-66481316D03*
X19628363Y-66834869D03*
X19274809Y-67188422D03*
X18921256Y-67541976D03*
D15*
X18921256Y-68584958D03*
X19274809Y-68938512D03*
X19628363Y-69292065D03*
X19981916Y-69645618D03*
X20335469Y-69999172D03*
X20689023Y-70352725D03*
D16*
X21210514Y-68063467D03*
D17*
X21210514Y-70495914D03*
X23642961Y-68063467D03*
X21210514Y-65631020D03*
X18778067Y-68063467D03*
G04 #@! TD*
D23*
G04 #@! TO.C,PU_EN108*
X28425000Y-26282500D03*
X28425000Y-24982500D03*
G04 #@! TD*
D22*
G04 #@! TO.C,U108*
X25875000Y-80695000D03*
X24925000Y-80695000D03*
X23975000Y-80695000D03*
X23975000Y-82970000D03*
X25875000Y-82970000D03*
G04 #@! TD*
D23*
G04 #@! TO.C,PU_EN108*
X28425000Y-70282500D03*
X28425000Y-68982500D03*
G04 #@! TD*
D25*
G04 #@! TO.C,C111*
X28025000Y-27795000D03*
X28025000Y-29870000D03*
G04 #@! TD*
D33*
G04 #@! TO.C,board_outline108*
X32425000Y-88495000D03*
D34*
X32425000Y-91035000D03*
X29885000Y-88495000D03*
X29885000Y-91035000D03*
X27345000Y-88495000D03*
X27345000Y-91035000D03*
X24805000Y-88495000D03*
X24805000Y-91035000D03*
X22265000Y-88495000D03*
X22265000Y-91035000D03*
X19725000Y-88495000D03*
X19725000Y-91035000D03*
X17185000Y-88495000D03*
X17185000Y-91035000D03*
X14645000Y-88495000D03*
X14645000Y-91035000D03*
X12105000Y-88495000D03*
X12105000Y-91035000D03*
X9565000Y-88495000D03*
X9565000Y-91035000D03*
D33*
X12110000Y-75785000D03*
X9570000Y-75785000D03*
D34*
X12110000Y-73245000D03*
X9570000Y-73245000D03*
X12110000Y-70705000D03*
X9570000Y-70705000D03*
X12110000Y-68165000D03*
X9570000Y-68165000D03*
X12110000Y-65625000D03*
X9570000Y-65625000D03*
X12110000Y-63085000D03*
X9570000Y-63085000D03*
X12110000Y-60545000D03*
X9570000Y-60545000D03*
X12110000Y-58005000D03*
X9570000Y-58005000D03*
D33*
X32430000Y-75785000D03*
D34*
X32430000Y-73245000D03*
X32430000Y-70705000D03*
X32430000Y-68165000D03*
X32430000Y-65625000D03*
X32430000Y-63085000D03*
X32430000Y-60545000D03*
X32430000Y-58005000D03*
X27350000Y-52940000D03*
X24810000Y-52940000D03*
X22270000Y-52940000D03*
X12110000Y-55480000D03*
D35*
X9570000Y-80880000D03*
X9570000Y-52940000D03*
X32430000Y-80880000D03*
X32430000Y-52940000D03*
G04 #@! TD*
D26*
G04 #@! TO.C,R124*
X51185000Y-59922500D03*
X51185000Y-60942500D03*
G04 #@! TD*
D31*
G04 #@! TO.C,G117*
X60789000Y-34332500D03*
D32*
X59785000Y-34332500D03*
G04 #@! TD*
D21*
G04 #@! TO.C,C119*
X50294880Y-75242380D03*
X49075120Y-74022620D03*
G04 #@! TD*
D31*
G04 #@! TO.C,E109*
X10029000Y-55732500D03*
D32*
X9025000Y-55732500D03*
G04 #@! TD*
D23*
G04 #@! TO.C,PU_EN108*
X56885000Y-26282500D03*
X56885000Y-24982500D03*
G04 #@! TD*
D20*
G04 #@! TO.C,C109*
X47424411Y-28293089D03*
X46745589Y-28971911D03*
G04 #@! TD*
D26*
G04 #@! TO.C,R122*
X22725000Y-13722500D03*
X22725000Y-14742500D03*
G04 #@! TD*
D31*
G04 #@! TO.C,G117*
X32329000Y-78332500D03*
D32*
X31325000Y-78332500D03*
G04 #@! TD*
D31*
G04 #@! TO.C,E108*
X10029000Y-78132500D03*
D32*
X9025000Y-78132500D03*
G04 #@! TD*
D18*
G04 #@! TO.C,R119*
X23861952Y-29058917D03*
X23016960Y-28213925D03*
G04 #@! TD*
D23*
G04 #@! TO.C,ADD108*
X21425000Y-60832500D03*
X20125000Y-60832500D03*
G04 #@! TD*
D12*
G04 #@! TO.C,R113*
X53107496Y-19810004D03*
X52262504Y-20654996D03*
G04 #@! TD*
D31*
G04 #@! TO.C,G118*
X32929000Y-11632500D03*
D32*
X31925000Y-11632500D03*
G04 #@! TD*
M02*
