M48
; DRILL file {KiCad 9.0.4} date 2025-08-20T18:38:41-0400
; FORMAT={-:-/ absolute / metric / decimal}
; #@! TF.CreationDate,2025-08-20T18:38:41-04:00
; #@! TF.GenerationSoftware,Kicad,Pcbnew,9.0.4
; #@! TF.FileFunction,Plated,1,4,PTH
FMAT,2
METRIC
; #@! TA.AperFunction,Plated,PTH,ViaDrill
T1C0.200
; #@! TA.AperFunction,Plated,PTH,ComponentDrill
T2C0.200
; #@! TA.AperFunction,Plated,PTH,ViaDrill
T3C0.400
; #@! TA.AperFunction,Plated,PTH,ComponentDrill
T4C1.000
; #@! TA.AperFunction,Plated,PTH,ComponentDrill
T5C2.200
%
G90
G05
T1
X8.225Y-39.432
X8.225Y-83.432
X10.825Y-39.432
X10.825Y-83.432
X11.825Y-7.632
X11.825Y-51.633
X13.025Y-37.633
X13.025Y-81.632
X14.025Y-22.633
X14.025Y-66.632
X14.475Y-26.079
X14.475Y-70.079
X14.475Y-11.682
X14.475Y-55.682
X15.625Y-39.233
X15.625Y-83.233
X17.588Y-30.608
X17.588Y-74.608
X19.425Y-29.832
X19.425Y-73.832
X19.825Y-35.832
X19.825Y-79.832
X21.025Y-18.032
X21.025Y-62.032
X21.825Y-41.582
X21.825Y-85.582
X23.425Y-7.433
X23.425Y-51.432
X24.425Y-14.432
X24.425Y-58.432
X24.625Y-40.832
X24.625Y-84.832
X25.225Y-18.232
X25.225Y-62.232
X25.825Y-21.633
X25.825Y-39.032
X25.825Y-65.632
X25.825Y-83.032
X26.225Y-48.232
X26.225Y-92.233
X27.425Y-16.633
X27.425Y-60.633
X27.612Y-43.07
X27.612Y-87.07
X27.825Y-37.932
X27.825Y-81.932
X27.925Y-29.832
X27.925Y-73.832
X28.051Y-23.128
X28.051Y-67.128
X28.104Y-40.469
X28.104Y-84.469
X28.225Y-21.633
X28.225Y-65.632
X28.334Y-9.924
X28.334Y-53.924
X28.574Y-24.971
X28.574Y-68.971
X28.619Y-26.529
X28.619Y-70.529
X28.825Y-9.032
X28.825Y-53.032
X29.405Y-34.826
X29.405Y-78.826
X29.525Y-31.898
X29.525Y-75.898
X33.425Y-40.633
X33.425Y-42.032
X33.425Y-84.632
X33.425Y-86.032
X33.625Y-34.432
X33.625Y-78.432
X36.685Y-39.432
X36.685Y-83.432
X39.285Y-39.432
X39.285Y-83.432
X40.285Y-7.632
X40.285Y-51.633
X41.485Y-37.633
X41.485Y-81.632
X42.485Y-22.633
X42.485Y-66.632
X42.935Y-26.079
X42.935Y-70.079
X42.935Y-11.682
X42.935Y-55.682
X44.085Y-39.233
X44.085Y-83.233
X46.048Y-30.608
X46.048Y-74.608
X47.885Y-29.832
X47.885Y-73.832
X48.285Y-35.832
X48.285Y-79.832
X49.485Y-18.032
X49.485Y-62.032
X50.285Y-41.582
X50.285Y-85.582
X51.885Y-7.433
X51.885Y-51.432
X52.885Y-14.432
X52.885Y-58.432
X53.085Y-40.832
X53.085Y-84.832
X53.685Y-18.232
X53.685Y-62.232
X54.285Y-21.633
X54.285Y-39.032
X54.285Y-65.632
X54.285Y-83.032
X54.685Y-48.232
X54.685Y-92.233
X55.885Y-16.633
X55.885Y-60.633
X56.072Y-43.07
X56.072Y-87.07
X56.285Y-37.932
X56.285Y-81.932
X56.385Y-29.832
X56.385Y-73.832
X56.511Y-23.128
X56.511Y-67.128
X56.564Y-40.469
X56.564Y-84.469
X56.685Y-21.633
X56.685Y-65.632
X56.794Y-9.924
X56.794Y-53.924
X57.034Y-24.971
X57.034Y-68.971
X57.079Y-26.529
X57.079Y-70.529
X57.285Y-9.032
X57.285Y-53.032
X57.865Y-34.826
X57.865Y-78.826
X57.985Y-31.898
X57.985Y-75.898
X61.885Y-40.633
X61.885Y-42.032
X61.885Y-84.632
X61.885Y-86.032
X62.085Y-34.432
X62.085Y-78.432
T2
X16.325Y-41.832
X16.325Y-85.832
X17.025Y-29.633
X17.025Y-73.632
X17.188Y-16.032
X17.188Y-60.032
X17.25Y-19.633
X17.25Y-33.532
X17.25Y-63.633
X17.25Y-77.532
X17.26Y-12.432
X17.26Y-56.432
X17.307Y-8.832
X17.307Y-52.832
X17.325Y-37.832
X17.325Y-81.832
X20.025Y-7.932
X20.025Y-51.932
X20.716Y-23.568
X20.716Y-24.558
X20.716Y-67.568
X20.716Y-68.558
X21.211Y-24.063
X21.211Y-68.063
X21.705Y-23.568
X21.705Y-24.558
X21.705Y-67.568
X21.705Y-68.558
X23.825Y-15.432
X23.825Y-16.732
X23.825Y-59.432
X23.825Y-60.732
X24.325Y-18.032
X24.325Y-62.032
X25.425Y-10.832
X25.425Y-54.832
X27.025Y-34.633
X27.025Y-78.632
X28.025Y-41.832
X28.025Y-85.832
X28.225Y-31.633
X28.225Y-75.632
X29.625Y-28.832
X29.625Y-72.832
X44.785Y-41.832
X44.785Y-85.832
X45.485Y-29.633
X45.485Y-73.632
X45.648Y-16.032
X45.648Y-60.032
X45.71Y-19.633
X45.71Y-33.532
X45.71Y-63.633
X45.71Y-77.532
X45.72Y-12.432
X45.72Y-56.432
X45.767Y-8.832
X45.767Y-52.832
X45.785Y-37.832
X45.785Y-81.832
X48.485Y-7.932
X48.485Y-51.932
X49.176Y-23.568
X49.176Y-24.558
X49.176Y-67.568
X49.176Y-68.558
X49.671Y-24.063
X49.671Y-68.063
X50.165Y-23.568
X50.165Y-24.558
X50.165Y-67.568
X50.165Y-68.558
X52.285Y-15.432
X52.285Y-16.732
X52.285Y-59.432
X52.285Y-60.732
X52.785Y-18.032
X52.785Y-62.032
X53.885Y-10.832
X53.885Y-54.832
X55.485Y-34.633
X55.485Y-78.632
X56.485Y-41.832
X56.485Y-85.832
X56.685Y-31.633
X56.685Y-75.632
X58.085Y-28.832
X58.085Y-72.832
T3
X16.85Y-24.633
X16.85Y-68.632
X29.485Y-39.518
X29.485Y-83.518
X45.31Y-24.633
X45.31Y-68.632
X57.945Y-39.518
X57.945Y-83.518
T4
X9.565Y-44.495
X9.565Y-47.035
X9.565Y-88.495
X9.565Y-91.035
X9.57Y-14.005
X9.57Y-16.545
X9.57Y-19.085
X9.57Y-21.625
X9.57Y-24.165
X9.57Y-26.705
X9.57Y-29.245
X9.57Y-31.785
X9.57Y-58.005
X9.57Y-60.545
X9.57Y-63.085
X9.57Y-65.625
X9.57Y-68.165
X9.57Y-70.705
X9.57Y-73.245
X9.57Y-75.785
X12.105Y-44.495
X12.105Y-47.035
X12.105Y-88.495
X12.105Y-91.035
X12.11Y-11.48
X12.11Y-14.005
X12.11Y-16.545
X12.11Y-19.085
X12.11Y-21.625
X12.11Y-24.165
X12.11Y-26.705
X12.11Y-29.245
X12.11Y-31.785
X12.11Y-55.48
X12.11Y-58.005
X12.11Y-60.545
X12.11Y-63.085
X12.11Y-65.625
X12.11Y-68.165
X12.11Y-70.705
X12.11Y-73.245
X12.11Y-75.785
X14.645Y-44.495
X14.645Y-47.035
X14.645Y-88.495
X14.645Y-91.035
X17.185Y-44.495
X17.185Y-47.035
X17.185Y-88.495
X17.185Y-91.035
X19.725Y-44.495
X19.725Y-47.035
X19.725Y-88.495
X19.725Y-91.035
X22.265Y-44.495
X22.265Y-47.035
X22.265Y-88.495
X22.265Y-91.035
X22.27Y-8.94
X22.27Y-52.94
X24.805Y-44.495
X24.805Y-47.035
X24.805Y-88.495
X24.805Y-91.035
X24.81Y-8.94
X24.81Y-52.94
X27.345Y-44.495
X27.345Y-47.035
X27.345Y-88.495
X27.345Y-91.035
X27.35Y-8.94
X27.35Y-52.94
X29.885Y-44.495
X29.885Y-47.035
X29.885Y-88.495
X29.885Y-91.035
X32.425Y-44.495
X32.425Y-47.035
X32.425Y-88.495
X32.425Y-91.035
X32.43Y-14.005
X32.43Y-16.545
X32.43Y-19.085
X32.43Y-21.625
X32.43Y-24.165
X32.43Y-26.705
X32.43Y-29.245
X32.43Y-31.785
X32.43Y-58.005
X32.43Y-60.545
X32.43Y-63.085
X32.43Y-65.625
X32.43Y-68.165
X32.43Y-70.705
X32.43Y-73.245
X32.43Y-75.785
X38.025Y-44.495
X38.025Y-47.035
X38.025Y-88.495
X38.025Y-91.035
X38.03Y-14.005
X38.03Y-16.545
X38.03Y-19.085
X38.03Y-21.625
X38.03Y-24.165
X38.03Y-26.705
X38.03Y-29.245
X38.03Y-31.785
X38.03Y-58.005
X38.03Y-60.545
X38.03Y-63.085
X38.03Y-65.625
X38.03Y-68.165
X38.03Y-70.705
X38.03Y-73.245
X38.03Y-75.785
X40.565Y-44.495
X40.565Y-47.035
X40.565Y-88.495
X40.565Y-91.035
X40.57Y-11.48
X40.57Y-14.005
X40.57Y-16.545
X40.57Y-19.085
X40.57Y-21.625
X40.57Y-24.165
X40.57Y-26.705
X40.57Y-29.245
X40.57Y-31.785
X40.57Y-55.48
X40.57Y-58.005
X40.57Y-60.545
X40.57Y-63.085
X40.57Y-65.625
X40.57Y-68.165
X40.57Y-70.705
X40.57Y-73.245
X40.57Y-75.785
X43.105Y-44.495
X43.105Y-47.035
X43.105Y-88.495
X43.105Y-91.035
X45.645Y-44.495
X45.645Y-47.035
X45.645Y-88.495
X45.645Y-91.035
X48.185Y-44.495
X48.185Y-47.035
X48.185Y-88.495
X48.185Y-91.035
X50.725Y-44.495
X50.725Y-47.035
X50.725Y-88.495
X50.725Y-91.035
X50.73Y-8.94
X50.73Y-52.94
X53.265Y-44.495
X53.265Y-47.035
X53.265Y-88.495
X53.265Y-91.035
X53.27Y-8.94
X53.27Y-52.94
X55.805Y-44.495
X55.805Y-47.035
X55.805Y-88.495
X55.805Y-91.035
X55.81Y-8.94
X55.81Y-52.94
X58.345Y-44.495
X58.345Y-47.035
X58.345Y-88.495
X58.345Y-91.035
X60.885Y-44.495
X60.885Y-47.035
X60.885Y-88.495
X60.885Y-91.035
X60.89Y-14.005
X60.89Y-16.545
X60.89Y-19.085
X60.89Y-21.625
X60.89Y-24.165
X60.89Y-26.705
X60.89Y-29.245
X60.89Y-31.785
X60.89Y-58.005
X60.89Y-60.545
X60.89Y-63.085
X60.89Y-65.625
X60.89Y-68.165
X60.89Y-70.705
X60.89Y-73.245
X60.89Y-75.785
T5
X9.57Y-8.94
X9.57Y-36.88
X9.57Y-52.94
X9.57Y-80.88
X32.43Y-8.94
X32.43Y-36.88
X32.43Y-52.94
X32.43Y-80.88
X38.03Y-8.94
X38.03Y-36.88
X38.03Y-52.94
X38.03Y-80.88
X60.89Y-8.94
X60.89Y-36.88
X60.89Y-52.94
X60.89Y-80.88
M30
