G04 #@! TF.GenerationSoftware,KiCad,Pcbnew,9.0.4*
G04 #@! TF.CreationDate,2025-08-20T18:38:41-04:00*
G04 #@! TF.ProjectId,jlc_pcba,6a6c635f-7063-4626-912e-6b696361645f,rev?*
G04 #@! TF.SameCoordinates,Original*
G04 #@! TF.FileFunction,Other,Comment*
%FSLAX46Y46*%
G04 Gerber Fmt 4.6, Leading zero omitted, Abs format (unit mm)*
G04 Created by KiCad (PCBNEW 9.0.4) date 2025-08-20 18:38:41*
%MOMM*%
%LPD*%
G01*
G04 APERTURE LIST*
%ADD10C,0.150000*%
G04 APERTURE END LIST*
D10*
G04 #@! TO.C,board_outline108*
X11470000Y-36880000D02*
G75*
G02*
X7670000Y-36880000I-1900000J0D01*
G01*
X7670000Y-36880000D02*
G75*
G02*
X11470000Y-36880000I1900000J0D01*
G01*
X34330000Y-8940000D02*
G75*
G02*
X30530000Y-8940000I-1900000J0D01*
G01*
X30530000Y-8940000D02*
G75*
G02*
X34330000Y-8940000I1900000J0D01*
G01*
X34330000Y-36880000D02*
G75*
G02*
X30530000Y-36880000I-1900000J0D01*
G01*
X30530000Y-36880000D02*
G75*
G02*
X34330000Y-36880000I1900000J0D01*
G01*
X39930000Y-80880000D02*
G75*
G02*
X36130000Y-80880000I-1900000J0D01*
G01*
X36130000Y-80880000D02*
G75*
G02*
X39930000Y-80880000I1900000J0D01*
G01*
X62790000Y-52940000D02*
G75*
G02*
X58990000Y-52940000I-1900000J0D01*
G01*
X58990000Y-52940000D02*
G75*
G02*
X62790000Y-52940000I1900000J0D01*
G01*
X62790000Y-80880000D02*
G75*
G02*
X58990000Y-80880000I-1900000J0D01*
G01*
X58990000Y-80880000D02*
G75*
G02*
X62790000Y-80880000I1900000J0D01*
G01*
X39930000Y-36880000D02*
G75*
G02*
X36130000Y-36880000I-1900000J0D01*
G01*
X36130000Y-36880000D02*
G75*
G02*
X39930000Y-36880000I1900000J0D01*
G01*
X62790000Y-8940000D02*
G75*
G02*
X58990000Y-8940000I-1900000J0D01*
G01*
X58990000Y-8940000D02*
G75*
G02*
X62790000Y-8940000I1900000J0D01*
G01*
X62790000Y-36880000D02*
G75*
G02*
X58990000Y-36880000I-1900000J0D01*
G01*
X58990000Y-36880000D02*
G75*
G02*
X62790000Y-36880000I1900000J0D01*
G01*
X11470000Y-80880000D02*
G75*
G02*
X7670000Y-80880000I-1900000J0D01*
G01*
X7670000Y-80880000D02*
G75*
G02*
X11470000Y-80880000I1900000J0D01*
G01*
X34330000Y-52940000D02*
G75*
G02*
X30530000Y-52940000I-1900000J0D01*
G01*
X30530000Y-52940000D02*
G75*
G02*
X34330000Y-52940000I1900000J0D01*
G01*
X34330000Y-80880000D02*
G75*
G02*
X30530000Y-80880000I-1900000J0D01*
G01*
X30530000Y-80880000D02*
G75*
G02*
X34330000Y-80880000I1900000J0D01*
G01*
G04 #@! TD*
M02*
