%TF.GenerationSoftware,KiCad,Pcbnew,8.0.7*%
%TF.CreationDate,2025-04-21T06:01:31-04:00*%
%TF.ProjectId,tac5212_audio_board_single_ended,74616335-3231-4325-9f61-7564696f5f62,rev?*%
%TF.SameCoordinates,Original*%
%TF.FileFunction,Legend,Bot*%
%TF.FilePolarity,Positive*%
%FSLAX46Y46*%
G04 Gerber Fmt 4.6, Leading zero omitted, Abs format (unit mm)*
G04 Created by KiCad (PCBNEW 8.0.7) date 2025-04-21 06:01:31*
%MOMM*%
%LPD*%
G01*
G04 APERTURE LIST*
%ADD10C,0.150000*%
%ADD11C,0.120000*%
%ADD12C,0.100000*%
G04 APERTURE END LIST*
D10*
X99862295Y-108066541D02*
X99862295Y-108218922D01*
X99862295Y-108218922D02*
X99900390Y-108295112D01*
X99900390Y-108295112D02*
X99976580Y-108371303D01*
X99976580Y-108371303D02*
X100128961Y-108409398D01*
X100128961Y-108409398D02*
X100395628Y-108409398D01*
X100395628Y-108409398D02*
X100548009Y-108371303D01*
X100548009Y-108371303D02*
X100624200Y-108295112D01*
X100624200Y-108295112D02*
X100662295Y-108218922D01*
X100662295Y-108218922D02*
X100662295Y-108066541D01*
X100662295Y-108066541D02*
X100624200Y-107990350D01*
X100624200Y-107990350D02*
X100548009Y-107914160D01*
X100548009Y-107914160D02*
X100395628Y-107876064D01*
X100395628Y-107876064D02*
X100128961Y-107876064D01*
X100128961Y-107876064D02*
X99976580Y-107914160D01*
X99976580Y-107914160D02*
X99900390Y-107990350D01*
X99900390Y-107990350D02*
X99862295Y-108066541D01*
X100662295Y-108752255D02*
X99862295Y-108752255D01*
X99862295Y-108752255D02*
X99862295Y-109057017D01*
X99862295Y-109057017D02*
X99900390Y-109133207D01*
X99900390Y-109133207D02*
X99938485Y-109171302D01*
X99938485Y-109171302D02*
X100014676Y-109209398D01*
X100014676Y-109209398D02*
X100128961Y-109209398D01*
X100128961Y-109209398D02*
X100205152Y-109171302D01*
X100205152Y-109171302D02*
X100243247Y-109133207D01*
X100243247Y-109133207D02*
X100281342Y-109057017D01*
X100281342Y-109057017D02*
X100281342Y-108752255D01*
X99938485Y-109514159D02*
X99900390Y-109552255D01*
X99900390Y-109552255D02*
X99862295Y-109628445D01*
X99862295Y-109628445D02*
X99862295Y-109818921D01*
X99862295Y-109818921D02*
X99900390Y-109895112D01*
X99900390Y-109895112D02*
X99938485Y-109933207D01*
X99938485Y-109933207D02*
X100014676Y-109971302D01*
X100014676Y-109971302D02*
X100090866Y-109971302D01*
X100090866Y-109971302D02*
X100205152Y-109933207D01*
X100205152Y-109933207D02*
X100662295Y-109476064D01*
X100662295Y-109476064D02*
X100662295Y-109971302D01*
X121762295Y-107924160D02*
X120962295Y-107924160D01*
X121762295Y-108305112D02*
X120962295Y-108305112D01*
X120962295Y-108305112D02*
X121762295Y-108762255D01*
X121762295Y-108762255D02*
X120962295Y-108762255D01*
X121762295Y-109143207D02*
X120962295Y-109143207D01*
X120962295Y-109143207D02*
X120962295Y-109447969D01*
X120962295Y-109447969D02*
X121000390Y-109524159D01*
X121000390Y-109524159D02*
X121038485Y-109562254D01*
X121038485Y-109562254D02*
X121114676Y-109600350D01*
X121114676Y-109600350D02*
X121228961Y-109600350D01*
X121228961Y-109600350D02*
X121305152Y-109562254D01*
X121305152Y-109562254D02*
X121343247Y-109524159D01*
X121343247Y-109524159D02*
X121381342Y-109447969D01*
X121381342Y-109447969D02*
X121381342Y-109143207D01*
X121038485Y-109905111D02*
X121000390Y-109943207D01*
X121000390Y-109943207D02*
X120962295Y-110019397D01*
X120962295Y-110019397D02*
X120962295Y-110209873D01*
X120962295Y-110209873D02*
X121000390Y-110286064D01*
X121000390Y-110286064D02*
X121038485Y-110324159D01*
X121038485Y-110324159D02*
X121114676Y-110362254D01*
X121114676Y-110362254D02*
X121190866Y-110362254D01*
X121190866Y-110362254D02*
X121305152Y-110324159D01*
X121305152Y-110324159D02*
X121762295Y-109867016D01*
X121762295Y-109867016D02*
X121762295Y-110362254D01*
X108800390Y-102272744D02*
X108762295Y-102196554D01*
X108762295Y-102196554D02*
X108762295Y-102082268D01*
X108762295Y-102082268D02*
X108800390Y-101967982D01*
X108800390Y-101967982D02*
X108876580Y-101891792D01*
X108876580Y-101891792D02*
X108952771Y-101853697D01*
X108952771Y-101853697D02*
X109105152Y-101815601D01*
X109105152Y-101815601D02*
X109219438Y-101815601D01*
X109219438Y-101815601D02*
X109371819Y-101853697D01*
X109371819Y-101853697D02*
X109448009Y-101891792D01*
X109448009Y-101891792D02*
X109524200Y-101967982D01*
X109524200Y-101967982D02*
X109562295Y-102082268D01*
X109562295Y-102082268D02*
X109562295Y-102158459D01*
X109562295Y-102158459D02*
X109524200Y-102272744D01*
X109524200Y-102272744D02*
X109486104Y-102310840D01*
X109486104Y-102310840D02*
X109219438Y-102310840D01*
X109219438Y-102310840D02*
X109219438Y-102158459D01*
X109562295Y-102653697D02*
X108762295Y-102653697D01*
X108762295Y-102653697D02*
X109562295Y-103110840D01*
X109562295Y-103110840D02*
X108762295Y-103110840D01*
X109562295Y-103491792D02*
X108762295Y-103491792D01*
X108762295Y-103491792D02*
X108762295Y-103682268D01*
X108762295Y-103682268D02*
X108800390Y-103796554D01*
X108800390Y-103796554D02*
X108876580Y-103872744D01*
X108876580Y-103872744D02*
X108952771Y-103910839D01*
X108952771Y-103910839D02*
X109105152Y-103948935D01*
X109105152Y-103948935D02*
X109219438Y-103948935D01*
X109219438Y-103948935D02*
X109371819Y-103910839D01*
X109371819Y-103910839D02*
X109448009Y-103872744D01*
X109448009Y-103872744D02*
X109524200Y-103796554D01*
X109524200Y-103796554D02*
X109562295Y-103682268D01*
X109562295Y-103682268D02*
X109562295Y-103491792D01*
X125362295Y-107971660D02*
X124562295Y-107971660D01*
X125362295Y-108352612D02*
X124562295Y-108352612D01*
X124562295Y-108352612D02*
X125362295Y-108809755D01*
X125362295Y-108809755D02*
X124562295Y-108809755D01*
X125362295Y-109190707D02*
X124562295Y-109190707D01*
X124562295Y-109190707D02*
X125133723Y-109457373D01*
X125133723Y-109457373D02*
X124562295Y-109724040D01*
X124562295Y-109724040D02*
X125362295Y-109724040D01*
X124638485Y-110066897D02*
X124600390Y-110104993D01*
X124600390Y-110104993D02*
X124562295Y-110181183D01*
X124562295Y-110181183D02*
X124562295Y-110371659D01*
X124562295Y-110371659D02*
X124600390Y-110447850D01*
X124600390Y-110447850D02*
X124638485Y-110485945D01*
X124638485Y-110485945D02*
X124714676Y-110524040D01*
X124714676Y-110524040D02*
X124790866Y-110524040D01*
X124790866Y-110524040D02*
X124905152Y-110485945D01*
X124905152Y-110485945D02*
X125362295Y-110028802D01*
X125362295Y-110028802D02*
X125362295Y-110524040D01*
X103762295Y-107841541D02*
X103762295Y-107993922D01*
X103762295Y-107993922D02*
X103800390Y-108070112D01*
X103800390Y-108070112D02*
X103876580Y-108146303D01*
X103876580Y-108146303D02*
X104028961Y-108184398D01*
X104028961Y-108184398D02*
X104295628Y-108184398D01*
X104295628Y-108184398D02*
X104448009Y-108146303D01*
X104448009Y-108146303D02*
X104524200Y-108070112D01*
X104524200Y-108070112D02*
X104562295Y-107993922D01*
X104562295Y-107993922D02*
X104562295Y-107841541D01*
X104562295Y-107841541D02*
X104524200Y-107765350D01*
X104524200Y-107765350D02*
X104448009Y-107689160D01*
X104448009Y-107689160D02*
X104295628Y-107651064D01*
X104295628Y-107651064D02*
X104028961Y-107651064D01*
X104028961Y-107651064D02*
X103876580Y-107689160D01*
X103876580Y-107689160D02*
X103800390Y-107765350D01*
X103800390Y-107765350D02*
X103762295Y-107841541D01*
X104562295Y-108527255D02*
X103762295Y-108527255D01*
X103762295Y-108527255D02*
X104333723Y-108793921D01*
X104333723Y-108793921D02*
X103762295Y-109060588D01*
X103762295Y-109060588D02*
X104562295Y-109060588D01*
X103838485Y-109403445D02*
X103800390Y-109441541D01*
X103800390Y-109441541D02*
X103762295Y-109517731D01*
X103762295Y-109517731D02*
X103762295Y-109708207D01*
X103762295Y-109708207D02*
X103800390Y-109784398D01*
X103800390Y-109784398D02*
X103838485Y-109822493D01*
X103838485Y-109822493D02*
X103914676Y-109860588D01*
X103914676Y-109860588D02*
X103990866Y-109860588D01*
X103990866Y-109860588D02*
X104105152Y-109822493D01*
X104105152Y-109822493D02*
X104562295Y-109365350D01*
X104562295Y-109365350D02*
X104562295Y-109860588D01*
X120262969Y-116047704D02*
X120758207Y-116047704D01*
X120758207Y-116047704D02*
X120491541Y-115742942D01*
X120491541Y-115742942D02*
X120605826Y-115742942D01*
X120605826Y-115742942D02*
X120682017Y-115704847D01*
X120682017Y-115704847D02*
X120720112Y-115666752D01*
X120720112Y-115666752D02*
X120758207Y-115590561D01*
X120758207Y-115590561D02*
X120758207Y-115400085D01*
X120758207Y-115400085D02*
X120720112Y-115323895D01*
X120720112Y-115323895D02*
X120682017Y-115285800D01*
X120682017Y-115285800D02*
X120605826Y-115247704D01*
X120605826Y-115247704D02*
X120377255Y-115247704D01*
X120377255Y-115247704D02*
X120301064Y-115285800D01*
X120301064Y-115285800D02*
X120262969Y-115323895D01*
X120986779Y-116047704D02*
X121253446Y-115247704D01*
X121253446Y-115247704D02*
X121520112Y-116047704D01*
X93908208Y-102724200D02*
X93793922Y-102762295D01*
X93793922Y-102762295D02*
X93603446Y-102762295D01*
X93603446Y-102762295D02*
X93527255Y-102724200D01*
X93527255Y-102724200D02*
X93489160Y-102686104D01*
X93489160Y-102686104D02*
X93451065Y-102609914D01*
X93451065Y-102609914D02*
X93451065Y-102533723D01*
X93451065Y-102533723D02*
X93489160Y-102457533D01*
X93489160Y-102457533D02*
X93527255Y-102419438D01*
X93527255Y-102419438D02*
X93603446Y-102381342D01*
X93603446Y-102381342D02*
X93755827Y-102343247D01*
X93755827Y-102343247D02*
X93832017Y-102305152D01*
X93832017Y-102305152D02*
X93870112Y-102267057D01*
X93870112Y-102267057D02*
X93908208Y-102190866D01*
X93908208Y-102190866D02*
X93908208Y-102114676D01*
X93908208Y-102114676D02*
X93870112Y-102038485D01*
X93870112Y-102038485D02*
X93832017Y-102000390D01*
X93832017Y-102000390D02*
X93755827Y-101962295D01*
X93755827Y-101962295D02*
X93565350Y-101962295D01*
X93565350Y-101962295D02*
X93451065Y-102000390D01*
X93108207Y-102762295D02*
X93108207Y-101962295D01*
X93108207Y-101962295D02*
X92917731Y-101962295D01*
X92917731Y-101962295D02*
X92803445Y-102000390D01*
X92803445Y-102000390D02*
X92727255Y-102076580D01*
X92727255Y-102076580D02*
X92689160Y-102152771D01*
X92689160Y-102152771D02*
X92651064Y-102305152D01*
X92651064Y-102305152D02*
X92651064Y-102419438D01*
X92651064Y-102419438D02*
X92689160Y-102571819D01*
X92689160Y-102571819D02*
X92727255Y-102648009D01*
X92727255Y-102648009D02*
X92803445Y-102724200D01*
X92803445Y-102724200D02*
X92917731Y-102762295D01*
X92917731Y-102762295D02*
X93108207Y-102762295D01*
X95108208Y-101524200D02*
X94993922Y-101562295D01*
X94993922Y-101562295D02*
X94803446Y-101562295D01*
X94803446Y-101562295D02*
X94727255Y-101524200D01*
X94727255Y-101524200D02*
X94689160Y-101486104D01*
X94689160Y-101486104D02*
X94651065Y-101409914D01*
X94651065Y-101409914D02*
X94651065Y-101333723D01*
X94651065Y-101333723D02*
X94689160Y-101257533D01*
X94689160Y-101257533D02*
X94727255Y-101219438D01*
X94727255Y-101219438D02*
X94803446Y-101181342D01*
X94803446Y-101181342D02*
X94955827Y-101143247D01*
X94955827Y-101143247D02*
X95032017Y-101105152D01*
X95032017Y-101105152D02*
X95070112Y-101067057D01*
X95070112Y-101067057D02*
X95108208Y-100990866D01*
X95108208Y-100990866D02*
X95108208Y-100914676D01*
X95108208Y-100914676D02*
X95070112Y-100838485D01*
X95070112Y-100838485D02*
X95032017Y-100800390D01*
X95032017Y-100800390D02*
X94955827Y-100762295D01*
X94955827Y-100762295D02*
X94765350Y-100762295D01*
X94765350Y-100762295D02*
X94651065Y-100800390D01*
X93851064Y-101486104D02*
X93889160Y-101524200D01*
X93889160Y-101524200D02*
X94003445Y-101562295D01*
X94003445Y-101562295D02*
X94079636Y-101562295D01*
X94079636Y-101562295D02*
X94193922Y-101524200D01*
X94193922Y-101524200D02*
X94270112Y-101448009D01*
X94270112Y-101448009D02*
X94308207Y-101371819D01*
X94308207Y-101371819D02*
X94346303Y-101219438D01*
X94346303Y-101219438D02*
X94346303Y-101105152D01*
X94346303Y-101105152D02*
X94308207Y-100952771D01*
X94308207Y-100952771D02*
X94270112Y-100876580D01*
X94270112Y-100876580D02*
X94193922Y-100800390D01*
X94193922Y-100800390D02*
X94079636Y-100762295D01*
X94079636Y-100762295D02*
X94003445Y-100762295D01*
X94003445Y-100762295D02*
X93889160Y-100800390D01*
X93889160Y-100800390D02*
X93851064Y-100838485D01*
X95562295Y-108141541D02*
X95562295Y-108293922D01*
X95562295Y-108293922D02*
X95600390Y-108370112D01*
X95600390Y-108370112D02*
X95676580Y-108446303D01*
X95676580Y-108446303D02*
X95828961Y-108484398D01*
X95828961Y-108484398D02*
X96095628Y-108484398D01*
X96095628Y-108484398D02*
X96248009Y-108446303D01*
X96248009Y-108446303D02*
X96324200Y-108370112D01*
X96324200Y-108370112D02*
X96362295Y-108293922D01*
X96362295Y-108293922D02*
X96362295Y-108141541D01*
X96362295Y-108141541D02*
X96324200Y-108065350D01*
X96324200Y-108065350D02*
X96248009Y-107989160D01*
X96248009Y-107989160D02*
X96095628Y-107951064D01*
X96095628Y-107951064D02*
X95828961Y-107951064D01*
X95828961Y-107951064D02*
X95676580Y-107989160D01*
X95676580Y-107989160D02*
X95600390Y-108065350D01*
X95600390Y-108065350D02*
X95562295Y-108141541D01*
X96362295Y-108827255D02*
X95562295Y-108827255D01*
X95562295Y-108827255D02*
X95562295Y-109132017D01*
X95562295Y-109132017D02*
X95600390Y-109208207D01*
X95600390Y-109208207D02*
X95638485Y-109246302D01*
X95638485Y-109246302D02*
X95714676Y-109284398D01*
X95714676Y-109284398D02*
X95828961Y-109284398D01*
X95828961Y-109284398D02*
X95905152Y-109246302D01*
X95905152Y-109246302D02*
X95943247Y-109208207D01*
X95943247Y-109208207D02*
X95981342Y-109132017D01*
X95981342Y-109132017D02*
X95981342Y-108827255D01*
X96362295Y-110046302D02*
X96362295Y-109589159D01*
X96362295Y-109817731D02*
X95562295Y-109817731D01*
X95562295Y-109817731D02*
X95676580Y-109741540D01*
X95676580Y-109741540D02*
X95752771Y-109665350D01*
X95752771Y-109665350D02*
X95790866Y-109589159D01*
X118162295Y-107851660D02*
X117362295Y-107851660D01*
X118162295Y-108232612D02*
X117362295Y-108232612D01*
X117362295Y-108232612D02*
X118162295Y-108689755D01*
X118162295Y-108689755D02*
X117362295Y-108689755D01*
X118162295Y-109070707D02*
X117362295Y-109070707D01*
X117362295Y-109070707D02*
X117933723Y-109337373D01*
X117933723Y-109337373D02*
X117362295Y-109604040D01*
X117362295Y-109604040D02*
X118162295Y-109604040D01*
X118162295Y-110404040D02*
X118162295Y-109946897D01*
X118162295Y-110175469D02*
X117362295Y-110175469D01*
X117362295Y-110175469D02*
X117476580Y-110099278D01*
X117476580Y-110099278D02*
X117552771Y-110023088D01*
X117552771Y-110023088D02*
X117590866Y-109946897D01*
X120091793Y-115200390D02*
X120167983Y-115162295D01*
X120167983Y-115162295D02*
X120282269Y-115162295D01*
X120282269Y-115162295D02*
X120396555Y-115200390D01*
X120396555Y-115200390D02*
X120472745Y-115276580D01*
X120472745Y-115276580D02*
X120510840Y-115352771D01*
X120510840Y-115352771D02*
X120548936Y-115505152D01*
X120548936Y-115505152D02*
X120548936Y-115619438D01*
X120548936Y-115619438D02*
X120510840Y-115771819D01*
X120510840Y-115771819D02*
X120472745Y-115848009D01*
X120472745Y-115848009D02*
X120396555Y-115924200D01*
X120396555Y-115924200D02*
X120282269Y-115962295D01*
X120282269Y-115962295D02*
X120206078Y-115962295D01*
X120206078Y-115962295D02*
X120091793Y-115924200D01*
X120091793Y-115924200D02*
X120053697Y-115886104D01*
X120053697Y-115886104D02*
X120053697Y-115619438D01*
X120053697Y-115619438D02*
X120206078Y-115619438D01*
X92437704Y-110120112D02*
X92437704Y-109967731D01*
X92437704Y-109967731D02*
X92399609Y-109891541D01*
X92399609Y-109891541D02*
X92323419Y-109815350D01*
X92323419Y-109815350D02*
X92171038Y-109777255D01*
X92171038Y-109777255D02*
X91904371Y-109777255D01*
X91904371Y-109777255D02*
X91751990Y-109815350D01*
X91751990Y-109815350D02*
X91675800Y-109891541D01*
X91675800Y-109891541D02*
X91637704Y-109967731D01*
X91637704Y-109967731D02*
X91637704Y-110120112D01*
X91637704Y-110120112D02*
X91675800Y-110196303D01*
X91675800Y-110196303D02*
X91751990Y-110272493D01*
X91751990Y-110272493D02*
X91904371Y-110310589D01*
X91904371Y-110310589D02*
X92171038Y-110310589D01*
X92171038Y-110310589D02*
X92323419Y-110272493D01*
X92323419Y-110272493D02*
X92399609Y-110196303D01*
X92399609Y-110196303D02*
X92437704Y-110120112D01*
X91637704Y-109434398D02*
X92437704Y-109434398D01*
X92437704Y-109434398D02*
X91866276Y-109167732D01*
X91866276Y-109167732D02*
X92437704Y-108901065D01*
X92437704Y-108901065D02*
X91637704Y-108901065D01*
X91637704Y-108101065D02*
X91637704Y-108558208D01*
X91637704Y-108329636D02*
X92437704Y-108329636D01*
X92437704Y-108329636D02*
X92323419Y-108405827D01*
X92323419Y-108405827D02*
X92247228Y-108482017D01*
X92247228Y-108482017D02*
X92209133Y-108558208D01*
X112562295Y-109889160D02*
X111762295Y-109889160D01*
X112562295Y-110270112D02*
X111762295Y-110270112D01*
X111762295Y-110270112D02*
X112562295Y-110727255D01*
X112562295Y-110727255D02*
X111762295Y-110727255D01*
X112562295Y-111108207D02*
X111762295Y-111108207D01*
X111762295Y-111108207D02*
X111762295Y-111412969D01*
X111762295Y-111412969D02*
X111800390Y-111489159D01*
X111800390Y-111489159D02*
X111838485Y-111527254D01*
X111838485Y-111527254D02*
X111914676Y-111565350D01*
X111914676Y-111565350D02*
X112028961Y-111565350D01*
X112028961Y-111565350D02*
X112105152Y-111527254D01*
X112105152Y-111527254D02*
X112143247Y-111489159D01*
X112143247Y-111489159D02*
X112181342Y-111412969D01*
X112181342Y-111412969D02*
X112181342Y-111108207D01*
X112562295Y-112327254D02*
X112562295Y-111870111D01*
X112562295Y-112098683D02*
X111762295Y-112098683D01*
X111762295Y-112098683D02*
X111876580Y-112022492D01*
X111876580Y-112022492D02*
X111952771Y-111946302D01*
X111952771Y-111946302D02*
X111990866Y-111870111D01*
D11*
%TO.C,T\u002AC108*%
X121399314Y-118176248D02*
X121399314Y-118698752D01*
X122869314Y-118176248D02*
X122869314Y-118698752D01*
%TO.C,C127*%
X113390000Y-111546267D02*
X113390000Y-111253733D01*
X114410000Y-111546267D02*
X114410000Y-111253733D01*
D12*
%TO.C,D111*%
X103685000Y-105100000D02*
G75*
G02*
X103585000Y-105100000I-50000J0D01*
G01*
X103585000Y-105100000D02*
G75*
G02*
X103685000Y-105100000I50000J0D01*
G01*
D11*
%TO.C,R108*%
X97871267Y-110590000D02*
X97528733Y-110590000D01*
X97871267Y-111610000D02*
X97528733Y-111610000D01*
%TO.C,T\u002AC109*%
X119690000Y-118291233D02*
X119690000Y-118583767D01*
X120710000Y-118291233D02*
X120710000Y-118583767D01*
%TO.C,R128*%
X112220000Y-119446359D02*
X112220000Y-119753641D01*
X112980000Y-119446359D02*
X112980000Y-119753641D01*
%TO.C,C124*%
X122290000Y-111546267D02*
X122290000Y-111253733D01*
X123310000Y-111546267D02*
X123310000Y-111253733D01*
%TO.C,C131*%
X93461252Y-120890000D02*
X92938748Y-120890000D01*
X93461252Y-122310000D02*
X92938748Y-122310000D01*
%TO.C,C130*%
X92938748Y-118690000D02*
X93461252Y-118690000D01*
X92938748Y-120110000D02*
X93461252Y-120110000D01*
%TO.C,C125*%
X119690000Y-111646267D02*
X119690000Y-111353733D01*
X120710000Y-111646267D02*
X120710000Y-111353733D01*
%TO.C,C114*%
X91490000Y-113150000D02*
X91490000Y-117535000D01*
X91490000Y-117535000D02*
X94510000Y-117535000D01*
X94510000Y-117535000D02*
X94510000Y-113150000D01*
%TO.C,T\u002AC110*%
X113665000Y-118461253D02*
X113665000Y-117938747D01*
X115135000Y-118461253D02*
X115135000Y-117938747D01*
D12*
%TO.C,3V108*%
X120050001Y-116110000D02*
X117940000Y-116110000D01*
X117940000Y-115110000D01*
X120050000Y-115110000D01*
X120050001Y-116110000D01*
D11*
%TO.C,MCLK108*%
X91200000Y-98400000D02*
X94000000Y-98400000D01*
X91200000Y-100400000D02*
X91200000Y-98400000D01*
X94000000Y-98400000D02*
X94000000Y-100400000D01*
X94000000Y-100400000D02*
X91200000Y-100400000D01*
%TO.C,C122*%
X104090001Y-114290000D02*
X104090001Y-117310000D01*
X104090001Y-117310000D02*
X108475001Y-117310000D01*
X108475001Y-114290000D02*
X104090001Y-114290000D01*
%TO.C,R109*%
X93228733Y-110590000D02*
X93571267Y-110590000D01*
X93228733Y-111610000D02*
X93571267Y-111610000D01*
D12*
%TO.C,D113*%
X121315000Y-105035000D02*
G75*
G02*
X121215000Y-105035000I-50000J0D01*
G01*
X121215000Y-105035000D02*
G75*
G02*
X121315000Y-105035000I50000J0D01*
G01*
D11*
%TO.C,FB110*%
X115565000Y-107923752D02*
X115565000Y-107401248D01*
X117035000Y-107923752D02*
X117035000Y-107401248D01*
%TO.C,FB111*%
X111965000Y-107761252D02*
X111965000Y-107238748D01*
X113435000Y-107761252D02*
X113435000Y-107238748D01*
%TO.C,R111*%
X102171267Y-110590000D02*
X101828733Y-110590000D01*
X102171267Y-111610000D02*
X101828733Y-111610000D01*
D12*
%TO.C,D112*%
X124915000Y-105082500D02*
G75*
G02*
X124815000Y-105082500I-50000J0D01*
G01*
X124815000Y-105082500D02*
G75*
G02*
X124915000Y-105082500I50000J0D01*
G01*
D11*
%TO.C,C123*%
X105390000Y-107853733D02*
X105390000Y-108146267D01*
X106410000Y-107853733D02*
X106410000Y-108146267D01*
%TO.C,U109*%
X115651814Y-117615000D02*
X115651813Y-118415000D01*
X115651814Y-119215000D02*
X115651813Y-118415000D01*
X118771814Y-117615000D02*
X118771815Y-118415000D01*
X118771814Y-120215000D02*
X118771815Y-118415000D01*
D12*
%TO.C,D108*%
X95685000Y-105100000D02*
G75*
G02*
X95585000Y-105100000I-50000J0D01*
G01*
X95585000Y-105100000D02*
G75*
G02*
X95685000Y-105100000I50000J0D01*
G01*
D11*
%TO.C,C113*%
X97190000Y-107853733D02*
X97190000Y-108146267D01*
X98210000Y-107853733D02*
X98210000Y-108146267D01*
%TO.C,C126*%
X116090000Y-111546267D02*
X116090000Y-111253733D01*
X117110000Y-111546267D02*
X117110000Y-111253733D01*
D12*
%TO.C,D110*%
X99985000Y-105100000D02*
G75*
G02*
X99885000Y-105100000I-50000J0D01*
G01*
X99885000Y-105100000D02*
G75*
G02*
X99985000Y-105100000I50000J0D01*
G01*
D11*
%TO.C,C110*%
X95790000Y-113150000D02*
X95790000Y-117535000D01*
X95790000Y-117535000D02*
X98810000Y-117535000D01*
X98810000Y-117535000D02*
X98810000Y-113150000D01*
D12*
%TO.C,D109*%
X91385000Y-105100000D02*
G75*
G02*
X91285000Y-105100000I-50000J0D01*
G01*
X91285000Y-105100000D02*
G75*
G02*
X91385000Y-105100000I50000J0D01*
G01*
D11*
%TO.C,SCL109*%
X110632379Y-118620000D02*
X110967621Y-118620000D01*
X110632379Y-119380000D02*
X110967621Y-119380000D01*
%TO.C,C121*%
X101490000Y-107853733D02*
X101490000Y-108146267D01*
X102510000Y-107853733D02*
X102510000Y-108146267D01*
%TO.C,C120*%
X100090000Y-113150000D02*
X100090000Y-117535000D01*
X100090000Y-117535000D02*
X103110000Y-117535000D01*
X103110000Y-117535000D02*
X103110000Y-113150000D01*
D12*
%TO.C,D114*%
X117715000Y-105035000D02*
G75*
G02*
X117615000Y-105035000I-50000J0D01*
G01*
X117615000Y-105035000D02*
G75*
G02*
X117715000Y-105035000I50000J0D01*
G01*
D11*
%TO.C,R116*%
X104990000Y-112171267D02*
X104990000Y-111828733D01*
X106010000Y-112171267D02*
X106010000Y-111828733D01*
%TO.C,FB109*%
X119165000Y-107996252D02*
X119165000Y-107473748D01*
X120635000Y-107996252D02*
X120635000Y-107473748D01*
%TO.C,FB108*%
X122765000Y-108033752D02*
X122765000Y-107511248D01*
X124235000Y-108033752D02*
X124235000Y-107511248D01*
D12*
%TO.C,D115*%
X114115000Y-104900000D02*
G75*
G02*
X114015000Y-104900000I-50000J0D01*
G01*
X114015000Y-104900000D02*
G75*
G02*
X114115000Y-104900000I50000J0D01*
G01*
D11*
%TO.C,C129*%
X111839617Y-116934349D02*
X111839617Y-116641815D01*
X112859617Y-116934349D02*
X112859617Y-116641815D01*
%TO.C,C117*%
X92890000Y-107853733D02*
X92890000Y-108146267D01*
X93910000Y-107853733D02*
X93910000Y-108146267D01*
%TD*%
M02*
