%TF.GenerationSoftware,KiCad,Pcbnew,8.0.7*%
%TF.CreationDate,2025-04-21T06:01:31-04:00*%
%TF.ProjectId,tac5212_audio_board_single_ended,74616335-3231-4325-9f61-7564696f5f62,rev?*%
%TF.SameCoordinates,Original*%
%TF.FileFunction,Copper,L4,Bot*%
%TF.FilePolarity,Positive*%
%FSLAX46Y46*%
G04 Gerber Fmt 4.6, Leading zero omitted, Abs format (unit mm)*
G04 Created by KiCad (PCBNEW 8.0.7) date 2025-04-21 06:01:31*
%MOMM*%
%LPD*%
G01*
G04 APERTURE LIST*
G04 Aperture macros list*
%AMRoundRect*
0 Rectangle with rounded corners*
0 $1 Rounding radius*
0 $2 $3 $4 $5 $6 $7 $8 $9 X,Y pos of 4 corners*
0 Add a 4 corners polygon primitive as box body*
4,1,4,$2,$3,$4,$5,$6,$7,$8,$9,$2,$3,0*
0 Add four circle primitives for the rounded corners*
1,1,$1+$1,$2,$3*
1,1,$1+$1,$4,$5*
1,1,$1+$1,$6,$7*
1,1,$1+$1,$8,$9*
0 Add four rect primitives between the rounded corners*
20,1,$1+$1,$2,$3,$4,$5,0*
20,1,$1+$1,$4,$5,$6,$7,0*
20,1,$1+$1,$6,$7,$8,$9,0*
20,1,$1+$1,$8,$9,$2,$3,0*%
%AMRotRect*
0 Rectangle, with rotation*
0 The origin of the aperture is its center*
0 $1 length*
0 $2 width*
0 $3 Rotation angle, in degrees counterclockwise*
0 Add horizontal line*
21,1,$1,$2,0,0,$3*%
G04 Aperture macros list end*
%TA.AperFunction,EtchedComponent*%
%ADD10C,0.000000*%
%TD*%
%TA.AperFunction,ComponentPad*%
%ADD11R,1.700000X1.700000*%
%TD*%
%TA.AperFunction,ComponentPad*%
%ADD12O,1.700000X1.700000*%
%TD*%
%TA.AperFunction,ComponentPad*%
%ADD13C,3.200000*%
%TD*%
%TA.AperFunction,ComponentPad*%
%ADD14C,0.500000*%
%TD*%
%TA.AperFunction,HeatsinkPad*%
%ADD15C,0.500000*%
%TD*%
%TA.AperFunction,HeatsinkPad*%
%ADD16RotRect,2.500000X2.500000X45.000000*%
%TD*%
%TA.AperFunction,SMDPad,CuDef*%
%ADD17RoundRect,0.250000X0.475000X-0.337500X0.475000X0.337500X-0.475000X0.337500X-0.475000X-0.337500X0*%
%TD*%
%TA.AperFunction,SMDPad,CuDef*%
%ADD18RoundRect,0.237500X-0.237500X0.300000X-0.237500X-0.300000X0.237500X-0.300000X0.237500X0.300000X0*%
%TD*%
%TA.AperFunction,SMDPad,CuDef*%
%ADD19R,0.500000X0.500000*%
%TD*%
%TA.AperFunction,SMDPad,CuDef*%
%ADD20R,0.500000X0.550000*%
%TD*%
%TA.AperFunction,ComponentPad*%
%ADD21R,0.500000X0.500000*%
%TD*%
%TA.AperFunction,SMDPad,CuDef*%
%ADD22RoundRect,0.160000X0.222500X0.160000X-0.222500X0.160000X-0.222500X-0.160000X0.222500X-0.160000X0*%
%TD*%
%TA.AperFunction,SMDPad,CuDef*%
%ADD23RoundRect,0.237500X-0.287500X-0.237500X0.287500X-0.237500X0.287500X0.237500X-0.287500X0.237500X0*%
%TD*%
%TA.AperFunction,SMDPad,CuDef*%
%ADD24RoundRect,0.237500X0.237500X-0.300000X0.237500X0.300000X-0.237500X0.300000X-0.237500X-0.300000X0*%
%TD*%
%TA.AperFunction,SMDPad,CuDef*%
%ADD25RoundRect,0.135000X0.185000X-0.135000X0.185000X0.135000X-0.185000X0.135000X-0.185000X-0.135000X0*%
%TD*%
%TA.AperFunction,SMDPad,CuDef*%
%ADD26RoundRect,0.250000X-0.325000X-0.450000X0.325000X-0.450000X0.325000X0.450000X-0.325000X0.450000X0*%
%TD*%
%TA.AperFunction,SMDPad,CuDef*%
%ADD27RoundRect,0.250000X0.325000X0.450000X-0.325000X0.450000X-0.325000X-0.450000X0.325000X-0.450000X0*%
%TD*%
%TA.AperFunction,SMDPad,CuDef*%
%ADD28R,0.508000X0.500000*%
%TD*%
%TA.AperFunction,SMDPad,CuDef*%
%ADD29R,0.508000X0.508000*%
%TD*%
%TA.AperFunction,SMDPad,CuDef*%
%ADD30RoundRect,0.250001X0.924999X-0.499999X0.924999X0.499999X-0.924999X0.499999X-0.924999X-0.499999X0*%
%TD*%
%TA.AperFunction,SMDPad,CuDef*%
%ADD31RoundRect,0.250000X-0.475000X0.337500X-0.475000X-0.337500X0.475000X-0.337500X0.475000X0.337500X0*%
%TD*%
%TA.AperFunction,SMDPad,CuDef*%
%ADD32R,1.100000X1.000000*%
%TD*%
%TA.AperFunction,SMDPad,CuDef*%
%ADD33R,0.500000X0.508000*%
%TD*%
%TA.AperFunction,SMDPad,CuDef*%
%ADD34R,1.000000X1.500000*%
%TD*%
%TA.AperFunction,SMDPad,CuDef*%
%ADD35RoundRect,0.250001X-0.499999X-0.924999X0.499999X-0.924999X0.499999X0.924999X-0.499999X0.924999X0*%
%TD*%
%TA.AperFunction,SMDPad,CuDef*%
%ADD36RoundRect,0.237500X0.287500X0.237500X-0.287500X0.237500X-0.287500X-0.237500X0.287500X-0.237500X0*%
%TD*%
%TA.AperFunction,SMDPad,CuDef*%
%ADD37RoundRect,0.160000X-0.222500X-0.160000X0.222500X-0.160000X0.222500X0.160000X-0.222500X0.160000X0*%
%TD*%
%TA.AperFunction,SMDPad,CuDef*%
%ADD38C,0.200000*%
%TD*%
%TA.AperFunction,SMDPad,CuDef*%
%ADD39RoundRect,0.150000X0.150000X-0.512500X0.150000X0.512500X-0.150000X0.512500X-0.150000X-0.512500X0*%
%TD*%
%TA.AperFunction,SMDPad,CuDef*%
%ADD40RoundRect,0.160000X0.197500X0.160000X-0.197500X0.160000X-0.197500X-0.160000X0.197500X-0.160000X0*%
%TD*%
%TA.AperFunction,SMDPad,CuDef*%
%ADD41RoundRect,0.237500X-0.237500X0.287500X-0.237500X-0.287500X0.237500X-0.287500X0.237500X0.287500X0*%
%TD*%
%TA.AperFunction,ViaPad*%
%ADD42C,0.450000*%
%TD*%
%TA.AperFunction,ViaPad*%
%ADD43C,0.800000*%
%TD*%
%TA.AperFunction,Conductor*%
%ADD44C,0.200000*%
%TD*%
G04 APERTURE END LIST*
%TA.AperFunction,EtchedComponent*%
%TO.C,GND108*%
G36*
X108971000Y-104704000D02*
G01*
X109429000Y-104704000D01*
X109429000Y-105279000D01*
X108971000Y-105279000D01*
X108971000Y-104704000D01*
G37*
%TD.AperFunction*%
D10*
%TA.AperFunction,EtchedComponent*%
%TO.C,3V108*%
G36*
X119275000Y-115800000D02*
G01*
X118725000Y-115800000D01*
X118725000Y-115400000D01*
X119275000Y-115400000D01*
X119275000Y-115800000D01*
G37*
%TD.AperFunction*%
%TA.AperFunction,EtchedComponent*%
%TO.C,SDA108*%
G36*
X91321000Y-102629000D02*
G01*
X91896000Y-102629000D01*
X91896000Y-102171000D01*
X91321000Y-102171000D01*
X91321000Y-102629000D01*
G37*
%TD.AperFunction*%
%TA.AperFunction,EtchedComponent*%
%TO.C,SCL108*%
G36*
X92521000Y-101429000D02*
G01*
X93096000Y-101429000D01*
X93096000Y-100971000D01*
X92521000Y-100971000D01*
X92521000Y-101429000D01*
G37*
%TD.AperFunction*%
%TA.AperFunction,EtchedComponent*%
%TO.C,NT108*%
G36*
X123829810Y-118711612D02*
G01*
X123511612Y-119029810D01*
X123370190Y-118888388D01*
X123688388Y-118570190D01*
X123829810Y-118711612D01*
G37*
%TD.AperFunction*%
%TA.AperFunction,EtchedComponent*%
%TO.C,G119*%
G36*
X121879000Y-115829000D02*
G01*
X121304000Y-115829000D01*
X121304000Y-115371000D01*
X121879000Y-115371000D01*
X121879000Y-115829000D01*
G37*
%TD.AperFunction*%
%TD*%
D11*
%TO.P,board_outline108,1,HELD_HIGH*%
%TO.N,EN_HELD_HIGH*%
X89337500Y-122600000D03*
D12*
%TO.P,board_outline108,2,HELD_LOW*%
%TO.N,unconnected-(board_outline108-HELD_LOW-Pad2)*%
X86797500Y-122600000D03*
%TO.P,board_outline108,3,5V*%
%TO.N,Net-(5V108-B)*%
X89337500Y-120060000D03*
%TO.P,board_outline108,4,GNDD*%
%TO.N,3.3v_IDE*%
X86797500Y-120060000D03*
%TO.P,board_outline108,5,12V*%
%TO.N,unconnected-(board_outline108-12V-Pad5)*%
X89337500Y-117520000D03*
%TO.P,board_outline108,6,GNDD*%
%TO.N,GNDD*%
X86797500Y-117520000D03*
%TO.P,board_outline108,7,DSP_DOUT*%
%TO.N,5212_DIN1*%
X89337500Y-114980000D03*
%TO.P,board_outline108,8,GNDD*%
%TO.N,GNDD*%
X86797500Y-114980000D03*
%TO.P,board_outline108,9,DSP_DIN*%
%TO.N,5212_DOUT1+*%
X89337500Y-112440000D03*
%TO.P,board_outline108,10,GNDD*%
%TO.N,GNDD*%
X86797500Y-112440000D03*
%TO.P,board_outline108,11,BCLK*%
%TO.N,5212_BCLK1*%
X89337500Y-109900000D03*
%TO.P,board_outline108,12,GNDD*%
%TO.N,GNDD*%
X86797500Y-109900000D03*
%TO.P,board_outline108,13,LRCK*%
%TO.N,5212_LRCK1*%
X89337500Y-107360000D03*
%TO.P,board_outline108,14,GNDD*%
%TO.N,GNDD*%
X86797500Y-107360000D03*
%TO.P,board_outline108,15,SDA*%
%TO.N,DSP_SDA*%
X89337500Y-104820000D03*
%TO.P,board_outline108,16,GNDD*%
%TO.N,GNDD*%
X86797500Y-104820000D03*
%TO.P,board_outline108,17,SCL*%
%TO.N,DSP_SCL*%
X89337500Y-102280000D03*
%TO.P,board_outline108,18,GNDD*%
%TO.N,GNDD*%
X86797500Y-102280000D03*
%TO.P,board_outline108,19,MCLK*%
%TO.N,5212_MCLK1*%
X89337500Y-99740000D03*
%TO.P,board_outline108,20,GNDD*%
%TO.N,GNDD*%
X86797500Y-99740000D03*
D11*
%TO.P,board_outline108,21,OUTP*%
%TO.N,OUT1P+*%
X102047500Y-102285000D03*
%TO.P,board_outline108,22,AGND*%
%TO.N,Earth*%
X102047500Y-99745000D03*
D12*
%TO.P,board_outline108,23,OUT1M*%
%TO.N,OUT1M+*%
X104587500Y-102285000D03*
%TO.P,board_outline108,24,AGND*%
%TO.N,Earth*%
X104587500Y-99745000D03*
%TO.P,board_outline108,25,OUT2P*%
%TO.N,OUT2P+*%
X107127500Y-102285000D03*
%TO.P,board_outline108,26,AGND*%
%TO.N,Earth*%
X107127500Y-99745000D03*
%TO.P,board_outline108,27,OUT2M*%
%TO.N,OUT2M+*%
X109667500Y-102285000D03*
%TO.P,board_outline108,28,AGND*%
%TO.N,Earth*%
X109667500Y-99745000D03*
%TO.P,board_outline108,29,IN1P*%
%TO.N,IN1P+*%
X112207500Y-102285000D03*
%TO.P,board_outline108,30,AGND*%
%TO.N,Earth*%
X112207500Y-99745000D03*
%TO.P,board_outline108,31,IN1M*%
%TO.N,IN1M+*%
X114747500Y-102285000D03*
%TO.P,board_outline108,32,AGND*%
%TO.N,Earth*%
X114747500Y-99745000D03*
%TO.P,board_outline108,33,IN2P*%
%TO.N,IN2P+*%
X117287500Y-102285000D03*
%TO.P,board_outline108,34,AGND*%
%TO.N,Earth*%
X117287500Y-99745000D03*
%TO.P,board_outline108,35,IN2M*%
%TO.N,IN2M+*%
X119827500Y-102285000D03*
%TO.P,board_outline108,36,AGND*%
%TO.N,Earth*%
X119827500Y-99745000D03*
D11*
%TO.P,board_outline108,37,SCL*%
%TO.N,5212_SCL*%
X102047500Y-122605000D03*
D12*
%TO.P,board_outline108,38,SDA*%
%TO.N,5212_SDA*%
X104587500Y-122605000D03*
%TO.P,board_outline108,39,GNDD*%
%TO.N,GNDD*%
X107127500Y-122605000D03*
%TO.P,board_outline108,40,GPIO1*%
%TO.N,GPIO1*%
X109667500Y-122605000D03*
%TO.P,board_outline108,41,GPIO2*%
%TO.N,GPIO2*%
X112207500Y-122605000D03*
%TO.P,board_outline108,42,GPO1*%
%TO.N,GPO1*%
X114747500Y-122605000D03*
%TO.P,board_outline108,43,GPI1*%
%TO.N,GPI1*%
X117287500Y-122605000D03*
%TO.P,board_outline108,44,GNDD*%
%TO.N,GNDD*%
X119827500Y-122605000D03*
%TO.P,board_outline108,45,5V*%
%TO.N,5V*%
X124892500Y-117525000D03*
%TO.P,board_outline108,46,3.3V*%
%TO.N,3.3V_LDO*%
X124892500Y-114985000D03*
%TO.P,board_outline108,47,GNDD*%
%TO.N,GNDD*%
X124892500Y-112445000D03*
%TO.P,board_outline108,48,MIC_BIAS*%
%TO.N,MICBIAS*%
X122352500Y-102285000D03*
D13*
%TO.P,board_outline108,49,AGND*%
%TO.N,Net-(E108-B)*%
X96952500Y-99745000D03*
%TO.P,board_outline108,50,AGND*%
%TO.N,Net-(E109-B)*%
X124892500Y-99745000D03*
%TO.P,board_outline108,51,DGND*%
%TO.N,Net-(G117-A)*%
X96952500Y-122605000D03*
%TO.P,board_outline108,52,DGND*%
%TO.N,Net-(G118-A)*%
X124892500Y-122605000D03*
%TD*%
D14*
%TO.P,G110,1,1*%
%TO.N,Earth*%
X117100000Y-114000000D03*
%TD*%
%TO.P,G109,1,1*%
%TO.N,Earth*%
X99200000Y-117200000D03*
%TD*%
%TO.P,G112,1,1*%
%TO.N,Earth*%
X118400000Y-114000000D03*
%TD*%
%TO.P,G111,1,1*%
%TO.N,Earth*%
X91200000Y-116000000D03*
%TD*%
%TO.P,G113,1,1*%
%TO.N,Earth*%
X102200000Y-118400000D03*
%TD*%
D15*
%TO.P,TAC108-Q1,33,VSS*%
%TO.N,GNDD*%
X107985786Y-111000000D03*
X108692893Y-111707107D03*
X109400000Y-112414214D03*
X108692893Y-110292893D03*
X109400000Y-111000000D03*
D16*
X109400000Y-111000000D03*
D15*
X110107107Y-111707107D03*
X109400000Y-109585786D03*
X110107107Y-110292893D03*
X110814214Y-111000000D03*
%TD*%
D14*
%TO.P,G115,1,1*%
%TO.N,Earth*%
X105000000Y-119800000D03*
%TD*%
%TO.P,G114,1,1*%
%TO.N,Earth*%
X123000000Y-115600000D03*
%TD*%
%TO.P,G116,1,1*%
%TO.N,Earth*%
X125900000Y-110200000D03*
%TD*%
%TO.P,G108,1,1*%
%TO.N,Earth*%
X115800000Y-114500000D03*
%TD*%
D17*
%TO.P,T\u002AC108,1*%
%TO.N,5V_THIN*%
X122134314Y-119475000D03*
%TO.P,T\u002AC108,2*%
%TO.N,Net-(G119-B)*%
X122134314Y-117400000D03*
%TD*%
D18*
%TO.P,C127,1*%
%TO.N,Net-(C127-Pad1)*%
X113900000Y-110537500D03*
%TO.P,C127,2*%
%TO.N,IN1P*%
X113900000Y-112262500D03*
%TD*%
D19*
%TO.P,OP2,1,1*%
%TO.N,OUT2P+*%
X100300000Y-106325000D03*
D20*
%TO.P,OP2,2,2*%
%TO.N,OUT2P*%
X100300000Y-107200000D03*
D21*
X100300000Y-107425000D03*
%TD*%
D22*
%TO.P,D111,1,K*%
%TO.N,OUT2M+*%
X104327500Y-105100000D03*
%TO.P,D111,2,K*%
%TO.N,Earth*%
X105472500Y-105100000D03*
%TD*%
D23*
%TO.P,R108,1*%
%TO.N,OUT1P+*%
X96825000Y-111100000D03*
%TO.P,R108,2*%
%TO.N,Net-(C110-Pad2)*%
X98575000Y-111100000D03*
%TD*%
D19*
%TO.P,INP2,1,1*%
%TO.N,IN2P+*%
X121400000Y-106335000D03*
D20*
%TO.P,INP2,2,2*%
%TO.N,IN2P*%
X121400000Y-107210000D03*
D21*
X121400000Y-107435000D03*
%TD*%
D24*
%TO.P,T\u002AC109,1*%
%TO.N,5V_THIN*%
X120200000Y-119300000D03*
%TO.P,T\u002AC109,2*%
%TO.N,Net-(G119-B)*%
X120200000Y-117575000D03*
%TD*%
D25*
%TO.P,R128,1*%
%TO.N,EN_HELD_HIGH*%
X112600000Y-120109999D03*
%TO.P,R128,2*%
%TO.N,Net-(R128-Pad2)*%
X112600000Y-119090001D03*
%TD*%
D18*
%TO.P,C124,1*%
%TO.N,Net-(C124-Pad1)*%
X122800000Y-110537500D03*
%TO.P,C124,2*%
%TO.N,IN2M*%
X122800000Y-112262500D03*
%TD*%
D26*
%TO.P,C131,1*%
%TO.N,3.3v_IDE*%
X92175001Y-121600000D03*
%TO.P,C131,2*%
%TO.N,GNDD*%
X94224999Y-121600000D03*
%TD*%
D27*
%TO.P,C130,1*%
%TO.N,5V*%
X94225000Y-119400000D03*
%TO.P,C130,2*%
%TO.N,GNDD*%
X92175000Y-119400000D03*
%TD*%
D28*
%TO.P,GND108,1,A*%
%TO.N,GNDD*%
X109200000Y-105504000D03*
D29*
%TO.P,GND108,2,B*%
%TO.N,Earth*%
X109200000Y-104500000D03*
%TD*%
D18*
%TO.P,C125,1*%
%TO.N,Net-(C125-Pad1)*%
X120200000Y-110637500D03*
%TO.P,C125,2*%
%TO.N,IN2P*%
X120200000Y-112362500D03*
%TD*%
D19*
%TO.P,INM2,1,1*%
%TO.N,IN2M+*%
X125000000Y-106382500D03*
D20*
%TO.P,INM2,2,2*%
%TO.N,IN2M*%
X125000000Y-107257500D03*
D21*
X125000000Y-107482500D03*
%TD*%
D30*
%TO.P,C114,1*%
%TO.N,OUT1M*%
X93000000Y-116525000D03*
%TO.P,C114,2*%
%TO.N,Net-(C114-Pad2)*%
X93000000Y-113275000D03*
%TD*%
D31*
%TO.P,T\u002AC110,1*%
%TO.N,3.3V_A*%
X114400000Y-117162500D03*
%TO.P,T\u002AC110,2*%
%TO.N,Net-(G119-B)*%
X114400000Y-119237500D03*
%TD*%
D19*
%TO.P,OM2,1,1*%
%TO.N,OUT2M+*%
X104200000Y-106100000D03*
D20*
%TO.P,OM2,2,2*%
%TO.N,OUT2M*%
X104200000Y-106975000D03*
D21*
X104200000Y-107200000D03*
%TD*%
D32*
%TO.P,3V108,1,A*%
%TO.N,3.3V_A*%
X118496000Y-115600000D03*
%TO.P,3V108,2,B*%
%TO.N,3.3V_LDO*%
X119499999Y-115600000D03*
%TD*%
D33*
%TO.P,SDA108,1,A*%
%TO.N,DSP_SDA*%
X91096000Y-102400000D03*
D29*
%TO.P,SDA108,2,B*%
%TO.N,5212_SDA*%
X92100000Y-102400000D03*
%TD*%
D34*
%TO.P,MCLK108,1,1*%
%TO.N,5212_MCLK1*%
X91950000Y-99400000D03*
%TO.P,MCLK108,2,2*%
%TO.N,GPI1*%
X93250000Y-99400000D03*
%TD*%
D35*
%TO.P,C122,1*%
%TO.N,OUT2M*%
X105100001Y-115800000D03*
%TO.P,C122,2*%
%TO.N,Net-(C122-Pad2)*%
X108350001Y-115800000D03*
%TD*%
D33*
%TO.P,SCL108,1,A*%
%TO.N,DSP_SCL*%
X92296000Y-101200000D03*
D29*
%TO.P,SCL108,2,B*%
%TO.N,5212_SCL*%
X93300000Y-101200000D03*
%TD*%
D36*
%TO.P,R109,1*%
%TO.N,OUT1M+*%
X94275000Y-111100000D03*
%TO.P,R109,2*%
%TO.N,Net-(C114-Pad2)*%
X92525000Y-111100000D03*
%TD*%
D37*
%TO.P,D113,1,K*%
%TO.N,Net-(C125-Pad1)*%
X120572500Y-105035000D03*
%TO.P,D113,2,K*%
%TO.N,Earth*%
X119427500Y-105035000D03*
%TD*%
D31*
%TO.P,FB110,1*%
%TO.N,IN1M+*%
X116300000Y-106625000D03*
%TO.P,FB110,2*%
%TO.N,Net-(C126-Pad1)*%
X116300000Y-108700000D03*
%TD*%
%TO.P,FB111,1*%
%TO.N,IN1P+*%
X112700000Y-106462500D03*
%TO.P,FB111,2*%
%TO.N,Net-(C127-Pad1)*%
X112700000Y-108537500D03*
%TD*%
D23*
%TO.P,R111,1*%
%TO.N,OUT2P+*%
X101125000Y-111100000D03*
%TO.P,R111,2*%
%TO.N,Net-(C120-Pad2)*%
X102875000Y-111100000D03*
%TD*%
D37*
%TO.P,D112,1,K*%
%TO.N,Net-(C124-Pad1)*%
X124172500Y-105082500D03*
%TO.P,D112,2,K*%
%TO.N,Earth*%
X123027500Y-105082500D03*
%TD*%
D24*
%TO.P,C123,1*%
%TO.N,OUT2M+*%
X105900000Y-108862500D03*
%TO.P,C123,2*%
%TO.N,Earth*%
X105900000Y-107137500D03*
%TD*%
D38*
%TO.P,NT108,1,1*%
%TO.N,5V*%
X123759099Y-118640901D03*
%TO.P,NT108,2,2*%
%TO.N,5V_THIN*%
X123440901Y-118959099D03*
%TD*%
D39*
%TO.P,U109,1,IN*%
%TO.N,5V_THIN*%
X118161813Y-119552500D03*
%TO.P,U109,2,GND*%
%TO.N,Net-(G119-B)*%
X117211814Y-119552500D03*
%TO.P,U109,3,EN*%
%TO.N,EN_HELD_HIGH*%
X116261815Y-119552500D03*
%TO.P,U109,4,NC*%
%TO.N,unconnected-(U109-NC-Pad4)*%
X116261815Y-117277500D03*
%TO.P,U109,5,OUT*%
%TO.N,3.3V_A*%
X118161813Y-117277500D03*
%TD*%
D22*
%TO.P,D108,1,K*%
%TO.N,OUT1P+*%
X96327500Y-105100000D03*
%TO.P,D108,2,K*%
%TO.N,Earth*%
X97472500Y-105100000D03*
%TD*%
D24*
%TO.P,C113,1*%
%TO.N,OUT1P+*%
X97700000Y-108862500D03*
%TO.P,C113,2*%
%TO.N,Earth*%
X97700000Y-107137500D03*
%TD*%
D18*
%TO.P,C126,1*%
%TO.N,Net-(C126-Pad1)*%
X116600000Y-110537500D03*
%TO.P,C126,2*%
%TO.N,IN1M*%
X116600000Y-112262500D03*
%TD*%
D22*
%TO.P,D110,1,K*%
%TO.N,OUT2P+*%
X100627500Y-105100000D03*
%TO.P,D110,2,K*%
%TO.N,Earth*%
X101772500Y-105100000D03*
%TD*%
D30*
%TO.P,C110,1*%
%TO.N,OUT1P*%
X97300000Y-116525000D03*
%TO.P,C110,2*%
%TO.N,Net-(C110-Pad2)*%
X97300000Y-113275000D03*
%TD*%
D22*
%TO.P,D109,1,K*%
%TO.N,OUT1M+*%
X92027500Y-105100000D03*
%TO.P,D109,2,K*%
%TO.N,Earth*%
X93172500Y-105100000D03*
%TD*%
D40*
%TO.P,SCL109,1,1*%
%TO.N,Net-(R128-Pad2)*%
X111397500Y-119000000D03*
%TO.P,SCL109,2,2*%
%TO.N,3.3v_IDE*%
X110202500Y-119000000D03*
%TD*%
D24*
%TO.P,C121,1*%
%TO.N,OUT2P+*%
X102000000Y-108862500D03*
%TO.P,C121,2*%
%TO.N,Earth*%
X102000000Y-107137500D03*
%TD*%
D30*
%TO.P,C120,1*%
%TO.N,OUT2P*%
X101600000Y-116525000D03*
%TO.P,C120,2*%
%TO.N,Net-(C120-Pad2)*%
X101600000Y-113275000D03*
%TD*%
D37*
%TO.P,D114,1,K*%
%TO.N,Net-(C126-Pad1)*%
X116972500Y-105035000D03*
%TO.P,D114,2,K*%
%TO.N,Earth*%
X115827500Y-105035000D03*
%TD*%
D19*
%TO.P,OP1,1,1*%
%TO.N,OUT1P+*%
X96000000Y-106400000D03*
D20*
%TO.P,OP1,2,2*%
%TO.N,OUT1P*%
X96000000Y-107275000D03*
D21*
X96000000Y-107500000D03*
%TD*%
D41*
%TO.P,R116,1*%
%TO.N,OUT2M+*%
X105500000Y-111125000D03*
%TO.P,R116,2*%
%TO.N,Net-(C122-Pad2)*%
X105500000Y-112875000D03*
%TD*%
D19*
%TO.P,INM1,1,1*%
%TO.N,IN1M+*%
X117800000Y-106262500D03*
D20*
%TO.P,INM1,2,2*%
%TO.N,IN1M*%
X117800000Y-107137500D03*
D21*
X117800000Y-107362500D03*
%TD*%
D31*
%TO.P,FB109,1*%
%TO.N,IN2P+*%
X119900000Y-106697500D03*
%TO.P,FB109,2*%
%TO.N,Net-(C125-Pad1)*%
X119900000Y-108772500D03*
%TD*%
D33*
%TO.P,G119,1,A*%
%TO.N,Earth*%
X122104000Y-115600000D03*
D29*
%TO.P,G119,2,B*%
%TO.N,Net-(G119-B)*%
X121100001Y-115600000D03*
%TD*%
D31*
%TO.P,FB108,1*%
%TO.N,IN2M+*%
X123500000Y-106735000D03*
%TO.P,FB108,2*%
%TO.N,Net-(C124-Pad1)*%
X123500000Y-108810000D03*
%TD*%
D37*
%TO.P,D115,1,K*%
%TO.N,Net-(C127-Pad1)*%
X113372500Y-104900000D03*
%TO.P,D115,2,K*%
%TO.N,Earth*%
X112227500Y-104900000D03*
%TD*%
D18*
%TO.P,C129,1*%
%TO.N,EN_HELD_HIGH*%
X112349617Y-115925581D03*
%TO.P,C129,2*%
%TO.N,GNDD*%
X112349617Y-117650583D03*
%TD*%
D19*
%TO.P,OM1,1,1*%
%TO.N,OUT1M+*%
X92000000Y-107600000D03*
%TO.P,OM1,2,2*%
%TO.N,OUT1M*%
X92000000Y-106750000D03*
D21*
X92000000Y-106500000D03*
%TD*%
D24*
%TO.P,C117,1*%
%TO.N,OUT1M+*%
X93400000Y-108862500D03*
%TO.P,C117,2*%
%TO.N,Earth*%
X93400000Y-107137500D03*
%TD*%
D19*
%TO.P,INP1,1,1*%
%TO.N,IN1P+*%
X114200000Y-106325000D03*
D20*
%TO.P,INP1,2,2*%
%TO.N,IN1P*%
X114200000Y-107200000D03*
D21*
X114200000Y-107425000D03*
%TD*%
D42*
%TO.N,Net-(TAC108-Q1-GPO1A)*%
X111800000Y-113600000D03*
X109879002Y-105600000D03*
%TO.N,GNDD*%
X93000000Y-114800000D03*
X112200000Y-118400000D03*
X99400000Y-123800000D03*
X92250000Y-112000000D03*
X119400000Y-114600000D03*
X108400000Y-106199998D03*
X93363425Y-118278913D03*
X98000000Y-110000000D03*
X115600000Y-115400000D03*
X117200000Y-117600000D03*
X104000000Y-118100000D03*
X115800000Y-111200000D03*
X99006587Y-119580000D03*
X124800000Y-119000000D03*
X123929785Y-113270215D03*
X93200000Y-123600000D03*
%TO.N,5V*%
X123908750Y-118508750D03*
D43*
X94314682Y-119660000D03*
D42*
%TO.N,Earth*%
X94600000Y-105800000D03*
X94400000Y-101000000D03*
X91800000Y-123600000D03*
X103224739Y-107762663D03*
X126400000Y-113600000D03*
X96200000Y-103200000D03*
X94400000Y-98400000D03*
X107753490Y-104649666D03*
X111200000Y-104200000D03*
X126200000Y-102000000D03*
X122150000Y-104650000D03*
%TO.N,EN_HELD_HIGH*%
X112200000Y-116000000D03*
%TO.N,5212_SCL*%
X101934085Y-119700000D03*
%TO.N,5212_SDA*%
X90762790Y-117786552D03*
X92007954Y-103082209D03*
%TO.N,3.3V_LDO*%
X104000000Y-109600000D03*
%TO.N,GPI1*%
X85600000Y-116400000D03*
%TO.N,Net-(PU_EN108-Pad1)*%
X110704037Y-118225583D03*
X107303448Y-118794456D03*
%TO.N,3.3v_IDE*%
X108861982Y-118748569D03*
X94800000Y-116000000D03*
X95900000Y-118000000D03*
%TO.N,Net-(TAC108-Q1-ADDRA)*%
X124800000Y-110200000D03*
X111131931Y-107223692D03*
%TO.N,Net-(TAC108-Q1-GPI1A)*%
X112600000Y-112800000D03*
X110000000Y-106600000D03*
%TO.N,Net-(TAC108-Q1-GPI2A)*%
X112548812Y-113950000D03*
X109375000Y-107150000D03*
%TD*%
D44*
%TO.N,5212_SCL*%
X97373414Y-120400000D02*
X98768414Y-119005000D01*
X91615256Y-120400000D02*
X97373414Y-120400000D01*
X98768414Y-119005000D02*
X101239085Y-119005000D01*
X89885256Y-118670000D02*
X91615256Y-120400000D01*
X88861154Y-118670000D02*
X89885256Y-118670000D01*
X88187500Y-117996346D02*
X88861154Y-118670000D01*
X88187500Y-104343654D02*
X88187500Y-117996346D01*
X88861154Y-103670000D02*
X88187500Y-104343654D01*
X89573846Y-103670000D02*
X88861154Y-103670000D01*
X90487500Y-102756346D02*
X89573846Y-103670000D01*
X93154000Y-101846000D02*
X90546000Y-101846000D01*
X93300000Y-101700000D02*
X93154000Y-101846000D01*
X90487500Y-101904500D02*
X90487500Y-102756346D01*
%TO.N,GNDD*%
X99000000Y-119586587D02*
X99006587Y-119580000D01*
X99000000Y-123400000D02*
X99000000Y-119586587D01*
%TO.N,5212_SCL*%
X90546000Y-101846000D02*
X90487500Y-101904500D01*
%TO.N,GNDD*%
X99400000Y-123800000D02*
X99000000Y-123400000D01*
%TO.N,5212_SCL*%
X93300000Y-101200000D02*
X93300000Y-101700000D01*
X101239085Y-119005000D02*
X101934085Y-119700000D01*
%TO.N,Net-(TAC108-Q1-GPO1A)*%
X111467767Y-113267767D02*
X111800000Y-113600000D01*
X111467767Y-110875735D02*
X111467767Y-113267767D01*
X108800000Y-106911827D02*
X108800000Y-108207968D01*
X109879002Y-105832825D02*
X108800000Y-106911827D01*
X109879002Y-105600000D02*
X109879002Y-105832825D01*
%TO.N,Net-(TAC108-Q1-GPI2A)*%
X112000000Y-110765686D02*
X109375000Y-108140686D01*
X112000000Y-113025000D02*
X112000000Y-110765686D01*
X112548812Y-113950000D02*
X112548812Y-113573812D01*
X112548812Y-113573812D02*
X112000000Y-113025000D01*
X109375000Y-108140686D02*
X109375000Y-107150000D01*
%TO.N,Net-(TAC108-Q1-GPO1A)*%
X108800000Y-108207968D02*
X111467767Y-110875735D01*
%TO.N,GNDD*%
X108200000Y-106399998D02*
X108400000Y-106199998D01*
X108200000Y-108444365D02*
X108200000Y-106399998D01*
X109200000Y-109444365D02*
X108200000Y-108444365D01*
X108504002Y-106199998D02*
X108400000Y-106199998D01*
X109200000Y-105504000D02*
X108504002Y-106199998D01*
%TO.N,Net-(C127-Pad1)*%
X111984900Y-105545000D02*
X112727501Y-105545000D01*
X111675000Y-105854900D02*
X111984900Y-105545000D01*
X112727501Y-105545000D02*
X113372501Y-104900000D01*
X111675000Y-107512500D02*
X111675000Y-105854900D01*
%TO.N,Earth*%
X111152794Y-104900000D02*
X112227500Y-104900000D01*
X110542843Y-105509951D02*
X111152794Y-104900000D01*
X110425000Y-106961827D02*
X110542843Y-106843984D01*
X110425000Y-107895100D02*
X110425000Y-106961827D01*
X113125000Y-110595100D02*
X110425000Y-107895100D01*
X110542843Y-106843984D02*
X110542843Y-105509951D01*
X113125000Y-113511827D02*
X113125000Y-110595100D01*
%TO.N,Net-(C127-Pad1)*%
X112700000Y-108537500D02*
X111675000Y-107512500D01*
%TO.N,Earth*%
X114113173Y-114500000D02*
X113125000Y-113511827D01*
X115800000Y-114500000D02*
X114113173Y-114500000D01*
%TO.N,Net-(TAC108-Q1-GPI1A)*%
X110000000Y-108200000D02*
X112600000Y-110800000D01*
X112600000Y-110800000D02*
X112600000Y-112800000D01*
X110000000Y-106600000D02*
X110000000Y-108200000D01*
%TO.N,GNDD*%
X92175000Y-119400000D02*
X93296087Y-118278913D01*
X107127500Y-119369456D02*
X107127500Y-122605000D01*
X106700000Y-118600000D02*
X106728448Y-118628448D01*
X104000000Y-120300000D02*
X104000000Y-118100000D01*
X107027182Y-122605000D02*
X105322182Y-120900000D01*
X112300200Y-117700000D02*
X107600000Y-117700000D01*
X107065275Y-118219456D02*
X106728448Y-118556283D01*
X112349617Y-118250383D02*
X112200000Y-118400000D01*
X110675000Y-112275000D02*
X110675000Y-115837501D01*
X93296087Y-118278913D02*
X93363425Y-118278913D01*
X106728448Y-118571552D02*
X106700000Y-118600000D01*
X109400000Y-111000000D02*
X110675000Y-112275000D01*
X94224999Y-121600000D02*
X94224999Y-122575001D01*
X104600000Y-120900000D02*
X104000000Y-120300000D01*
X107600000Y-117700000D02*
X107080544Y-118219456D01*
X107127500Y-122605000D02*
X107027182Y-122605000D01*
X106728448Y-118628448D02*
X106728448Y-119032629D01*
X105322182Y-120900000D02*
X104600000Y-120900000D01*
X106728448Y-118556283D02*
X106728448Y-118571552D01*
X107080544Y-118219456D02*
X107065275Y-118219456D01*
X112349617Y-117650583D02*
X112349617Y-118250383D01*
X112349617Y-117650583D02*
X112300200Y-117700000D01*
X106728448Y-119032629D02*
X107065275Y-119369456D01*
X94224999Y-122575001D02*
X93200000Y-123600000D01*
X110675000Y-115837501D02*
X112500000Y-117662501D01*
X107065275Y-119369456D02*
X107127500Y-119369456D01*
%TO.N,Earth*%
X114260799Y-104060799D02*
X114260799Y-103460000D01*
X103400000Y-108520000D02*
X103620000Y-108300000D01*
X107210744Y-103460000D02*
X107614201Y-103460000D01*
X99625000Y-109556398D02*
X99450000Y-109381398D01*
X125900000Y-102300000D02*
X126200000Y-102000000D01*
X115200000Y-107793996D02*
X114800000Y-107393996D01*
X114800000Y-107393996D02*
X114800000Y-104600000D01*
X109844906Y-114084424D02*
X106895101Y-111134619D01*
X91235448Y-111773920D02*
X91235448Y-112158056D01*
X105000000Y-119800000D02*
X105000000Y-119446447D01*
X119340799Y-103460000D02*
X118652500Y-102771701D01*
X118400000Y-114000000D02*
X118150000Y-113750000D01*
X92003681Y-103860249D02*
X91230081Y-104633849D01*
X118150000Y-113750000D02*
X118150000Y-112725000D01*
X118150000Y-112725000D02*
X118375000Y-112500000D01*
X109588771Y-117300000D02*
X109844906Y-117043865D01*
X103620000Y-108300000D02*
X103620000Y-104734672D01*
X116560000Y-103460000D02*
X116112500Y-103012500D01*
X124200000Y-102000000D02*
X126200000Y-102000000D01*
X106895101Y-106522601D02*
X105472500Y-105100000D01*
X91235448Y-104639215D02*
X91235448Y-106578156D01*
X103700000Y-116900000D02*
X103700000Y-110633278D01*
X92325930Y-103860249D02*
X92003681Y-103860249D01*
X117100000Y-114000000D02*
X116900000Y-114000000D01*
X90975000Y-108361396D02*
X91235448Y-108621844D01*
X106670744Y-104000000D02*
X107210744Y-103460000D01*
X91235448Y-114391944D02*
X91235448Y-117005548D01*
X118652500Y-100920000D02*
X119827500Y-99745000D01*
X117160000Y-103460000D02*
X116560000Y-103460000D01*
X91050000Y-114206496D02*
X91235448Y-114391944D01*
X116900000Y-114000000D02*
X115200000Y-112300000D01*
X91225000Y-110436528D02*
X91225000Y-111763472D01*
X103620000Y-108157924D02*
X103224739Y-107762663D01*
X91235448Y-110426080D02*
X91225000Y-110436528D01*
X122104000Y-115600000D02*
X123000000Y-115600000D01*
X91230081Y-104633849D02*
X91235448Y-104639215D01*
X103700000Y-110633278D02*
X103400000Y-110333278D01*
X95325000Y-108887500D02*
X93400000Y-106962500D01*
X113572500Y-101110000D02*
X112207500Y-99745000D01*
X122582500Y-105082500D02*
X122150000Y-104650000D01*
X100538604Y-99745000D02*
X98613604Y-101670000D01*
X115200000Y-112300000D02*
X115200000Y-107793996D01*
X116112500Y-103012500D02*
X116112500Y-100920000D01*
X125900000Y-110200000D02*
X125900000Y-102300000D01*
X107146447Y-117300000D02*
X109588771Y-117300000D01*
X102047500Y-99745000D02*
X100538604Y-99745000D01*
X108302500Y-102771701D02*
X108302500Y-100920000D01*
X109844906Y-117043865D02*
X109844906Y-114084424D01*
X91235448Y-106578156D02*
X90975000Y-106838604D01*
X94516179Y-101670000D02*
X92325930Y-103860249D01*
X91235448Y-108621844D02*
X91235448Y-110426080D01*
X102000000Y-107350000D02*
X102000000Y-106962500D01*
X118652500Y-102771701D02*
X118652500Y-100920000D01*
X95325000Y-116445100D02*
X95325000Y-108887500D01*
X94170100Y-117600000D02*
X95325000Y-116445100D01*
X99625000Y-116775000D02*
X99625000Y-109556398D01*
X106895101Y-111134619D02*
X106895101Y-106522601D01*
X91235448Y-117005548D02*
X91829900Y-117600000D01*
X116112500Y-100920000D02*
X117287500Y-99745000D01*
X122150000Y-104650000D02*
X120960000Y-103460000D01*
X105000000Y-119446447D02*
X107146447Y-117300000D01*
X91829900Y-117600000D02*
X94170100Y-117600000D01*
X98613604Y-101670000D02*
X94516179Y-101670000D01*
X91050000Y-112343504D02*
X91050000Y-114206496D01*
X104354672Y-104000000D02*
X106670744Y-104000000D01*
X114260799Y-103460000D02*
X113572500Y-102771701D01*
X119827500Y-99745000D02*
X121945000Y-99745000D01*
X107614201Y-103460000D02*
X108302500Y-102771701D01*
X114800000Y-104600000D02*
X114260799Y-104060799D01*
X123027500Y-105082500D02*
X122582500Y-105082500D01*
X118375000Y-104675000D02*
X117160000Y-103460000D01*
X113572500Y-102771701D02*
X113572500Y-101110000D01*
X99450000Y-109381398D02*
X99450000Y-107077500D01*
X99200000Y-117200000D02*
X99625000Y-116775000D01*
X108302500Y-100920000D02*
X107127500Y-99745000D01*
X102200000Y-118400000D02*
X103700000Y-116900000D01*
X99450000Y-107077500D02*
X97472500Y-105100000D01*
X103400000Y-110333278D02*
X103400000Y-108520000D01*
X118375000Y-112500000D02*
X118375000Y-104675000D01*
X121945000Y-99745000D02*
X124200000Y-102000000D01*
X103620000Y-108300000D02*
X103620000Y-108157924D01*
X90975000Y-106838604D02*
X90975000Y-108361396D01*
X91235448Y-112158056D02*
X91050000Y-112343504D01*
X103620000Y-104734672D02*
X104354672Y-104000000D01*
X120960000Y-103460000D02*
X119340799Y-103460000D01*
X91225000Y-111763472D02*
X91235448Y-111773920D01*
%TO.N,EN_HELD_HIGH*%
X112600000Y-120109999D02*
X112615001Y-120125000D01*
X115689315Y-120125000D02*
X116261815Y-119552500D01*
X113245000Y-119464999D02*
X113245000Y-116682499D01*
X112615001Y-120125000D02*
X115689315Y-120125000D01*
X113245000Y-116682499D02*
X112500000Y-115937499D01*
X112600000Y-120109999D02*
X113245000Y-119464999D01*
%TO.N,IN2P*%
X120200000Y-112362500D02*
X121400000Y-111162500D01*
X121400000Y-111162500D02*
X121400000Y-107435000D01*
%TO.N,IN1M*%
X116600000Y-112262500D02*
X117800000Y-111062500D01*
X117800000Y-111062500D02*
X117800000Y-107362500D01*
%TO.N,IN1P*%
X113900000Y-112262500D02*
X114700000Y-111462500D01*
X114700000Y-107930392D02*
X114200000Y-107430392D01*
X114200000Y-107430392D02*
X114200000Y-107425000D01*
X114700000Y-111462500D02*
X114700000Y-107930392D01*
%TO.N,Net-(C110-Pad2)*%
X98700000Y-111100000D02*
X98700000Y-111875000D01*
X98700000Y-111875000D02*
X97300000Y-113275000D01*
%TO.N,IN2M*%
X123950000Y-109992600D02*
X125000000Y-108942600D01*
X122800000Y-112262500D02*
X122800000Y-111977076D01*
X123950000Y-110827076D02*
X123950000Y-109992600D01*
X122800000Y-111977076D02*
X123950000Y-110827076D01*
X125000000Y-108942600D02*
X125000000Y-107482500D01*
%TO.N,OUT1P*%
X95775000Y-115000000D02*
X95775000Y-107725000D01*
X97300000Y-116525000D02*
X95775000Y-115000000D01*
X95775000Y-107725000D02*
X96000000Y-107500000D01*
%TO.N,Net-(C114-Pad2)*%
X93000000Y-113275000D02*
X93000000Y-111700000D01*
X93000000Y-111700000D02*
X92400000Y-111100000D01*
%TO.N,OUT1M*%
X91685448Y-106814552D02*
X91685448Y-107025000D01*
X93000000Y-115775001D02*
X93000000Y-116525000D01*
X91685448Y-107025000D02*
X91425000Y-107025000D01*
X91500000Y-112529900D02*
X91500000Y-114020100D01*
X91675000Y-110622924D02*
X91675000Y-111577076D01*
X91500000Y-114020100D02*
X91685448Y-114205548D01*
X91685448Y-111587524D02*
X91685448Y-112344452D01*
X91685448Y-112344452D02*
X91500000Y-112529900D01*
X92000000Y-106500000D02*
X91685448Y-106814552D01*
X91685448Y-108175000D02*
X91685448Y-110612476D01*
X91425000Y-108175000D02*
X91685448Y-108175000D01*
X91685448Y-110612476D02*
X91675000Y-110622924D01*
X91425000Y-107025000D02*
X91425000Y-108175000D01*
X91685448Y-114205548D02*
X91685448Y-114460449D01*
X91675000Y-111577076D02*
X91685448Y-111587524D01*
X91685448Y-114460449D02*
X93000000Y-115775001D01*
%TO.N,OUT2P*%
X100075000Y-115000000D02*
X100075000Y-109370002D01*
X99900000Y-107825000D02*
X100300000Y-107425000D01*
X99900000Y-109195002D02*
X99900000Y-107825000D01*
X101600000Y-116525000D02*
X100075000Y-115000000D01*
X100075000Y-109370002D02*
X99900000Y-109195002D01*
%TO.N,OUT2M*%
X104600000Y-115299999D02*
X104600000Y-108400000D01*
X104200000Y-108000000D02*
X104200000Y-107500000D01*
X105100001Y-115800000D02*
X104600000Y-115299999D01*
X104600000Y-108400000D02*
X104200000Y-108000000D01*
%TO.N,Net-(C120-Pad2)*%
X103000000Y-111875000D02*
X101600000Y-113275000D01*
X103000000Y-111100000D02*
X103000000Y-111875000D01*
%TO.N,Net-(C122-Pad2)*%
X105550001Y-113000000D02*
X108350001Y-115800000D01*
X105500000Y-113000000D02*
X105550001Y-113000000D01*
%TO.N,Net-(C124-Pad1)*%
X122450000Y-106152400D02*
X122779900Y-105822500D01*
X122779900Y-105822500D02*
X123432501Y-105822500D01*
X123500000Y-108810000D02*
X122450000Y-107760000D01*
X123432501Y-105822500D02*
X124172501Y-105082500D01*
X123500000Y-109837500D02*
X123500000Y-108810000D01*
X122450000Y-107760000D02*
X122450000Y-106152400D01*
X122800000Y-110537500D02*
X123500000Y-109837500D01*
%TO.N,Net-(C125-Pad1)*%
X119907501Y-105700000D02*
X120572501Y-105035000D01*
X119264900Y-105700000D02*
X119907501Y-105700000D01*
X118850000Y-106114900D02*
X119264900Y-105700000D01*
X120200000Y-110637500D02*
X120200000Y-109072500D01*
X120200000Y-109072500D02*
X119900000Y-108772500D01*
X118850000Y-107280100D02*
X118850000Y-106114900D01*
X119900000Y-108330100D02*
X118850000Y-107280100D01*
X119900000Y-108772500D02*
X119900000Y-108330100D01*
%TO.N,Net-(C126-Pad1)*%
X116300000Y-108700000D02*
X116300000Y-108257600D01*
X115250000Y-107207600D02*
X115250000Y-106042400D01*
X116600000Y-109000000D02*
X116300000Y-108700000D01*
X115250000Y-106042400D02*
X115592400Y-105700000D01*
X116600000Y-110537500D02*
X116600000Y-109000000D01*
X116307501Y-105700000D02*
X116972501Y-105035000D01*
X115592400Y-105700000D02*
X116307501Y-105700000D01*
X116300000Y-108257600D02*
X115250000Y-107207600D01*
%TO.N,5212_SCL*%
X102047500Y-119813415D02*
X101934085Y-119700000D01*
X102047500Y-122605000D02*
X102047500Y-119813415D01*
%TO.N,5212_SDA*%
X92007954Y-103082209D02*
X90525000Y-104565163D01*
X90525000Y-117548762D02*
X90762790Y-117786552D01*
X90525000Y-104565163D02*
X90525000Y-117548762D01*
X92100000Y-102400000D02*
X92100000Y-102990163D01*
X92100000Y-102990163D02*
X92007954Y-103082209D01*
%TO.N,3.3V_LDO*%
X124307500Y-114400000D02*
X124892500Y-114985000D01*
X119499999Y-115600000D02*
X120699999Y-114400000D01*
X120699999Y-114400000D02*
X124307500Y-114400000D01*
%TO.N,Net-(C127-Pad1)*%
X113900000Y-109900000D02*
X112700000Y-108700000D01*
X112700000Y-108700000D02*
X112700000Y-108537500D01*
X113900000Y-110537500D02*
X113900000Y-109900000D01*
%TO.N,5212_MCLK1*%
X91950000Y-99400000D02*
X89677500Y-99400000D01*
X89677500Y-99400000D02*
X89337500Y-99740000D01*
%TO.N,GPI1*%
X93250000Y-99400000D02*
X93250000Y-98850000D01*
X85600000Y-99275799D02*
X85600000Y-116400000D01*
X92750000Y-98350000D02*
X86525799Y-98350000D01*
X86525799Y-98350000D02*
X85600000Y-99275799D01*
X93250000Y-98850000D02*
X92750000Y-98350000D01*
%TO.N,DSP_SCL*%
X90417500Y-101200000D02*
X89337500Y-102280000D01*
X92296000Y-101200000D02*
X90417500Y-101200000D01*
%TO.N,DSP_SDA*%
X91096000Y-103061500D02*
X91096000Y-102400000D01*
X89337500Y-104820000D02*
X91096000Y-103061500D01*
%TO.N,OUT1M+*%
X92000000Y-107600000D02*
X92000000Y-107637500D01*
X92000000Y-107637500D02*
X94400000Y-110037500D01*
X104587500Y-102285000D02*
X103412500Y-101110000D01*
X92600000Y-105672500D02*
X92027500Y-105100000D01*
X92000000Y-107600000D02*
X92200000Y-107600000D01*
X94400000Y-110037500D02*
X94400000Y-111100000D01*
X92200000Y-107600000D02*
X92600000Y-107200000D01*
X99200000Y-102400000D02*
X94727500Y-102400000D01*
X103412500Y-101110000D02*
X100490000Y-101110000D01*
X94727500Y-102400000D02*
X92027500Y-105100000D01*
X100490000Y-101110000D02*
X99200000Y-102400000D01*
X92600000Y-107200000D02*
X92600000Y-105672500D01*
%TO.N,OUT2M+*%
X106852140Y-104455000D02*
X107397140Y-103910000D01*
X104850000Y-107987500D02*
X104850000Y-106250000D01*
X104327500Y-105100000D02*
X104972500Y-104455000D01*
X104327500Y-105972500D02*
X104200000Y-106100000D01*
X105500000Y-111000000D02*
X105500000Y-109437500D01*
X108042500Y-103910000D02*
X109667500Y-102285000D01*
X105900000Y-109037500D02*
X104850000Y-107987500D01*
X104972500Y-104455000D02*
X106852140Y-104455000D01*
X104700000Y-106100000D02*
X104200000Y-106100000D01*
X104327500Y-105100000D02*
X104327500Y-105972500D01*
X104850000Y-106250000D02*
X104700000Y-106100000D01*
X105500000Y-109437500D02*
X105900000Y-109037500D01*
X107397140Y-103910000D02*
X108042500Y-103910000D01*
%TO.N,OUT2P+*%
X100300000Y-105427500D02*
X100627500Y-105100000D01*
X100627500Y-105100000D02*
X102267500Y-103460000D01*
X102000000Y-109037500D02*
X100950000Y-107987500D01*
X100300000Y-106325000D02*
X100300000Y-105427500D01*
X102000000Y-110100000D02*
X101000000Y-111100000D01*
X100725000Y-106325000D02*
X100300000Y-106325000D01*
X102267500Y-103460000D02*
X105403276Y-103460000D01*
X105403276Y-103460000D02*
X106578276Y-102285000D01*
X106578276Y-102285000D02*
X107127500Y-102285000D01*
X100950000Y-106550000D02*
X100725000Y-106325000D01*
X100950000Y-107987500D02*
X100950000Y-106550000D01*
X102000000Y-109037500D02*
X102000000Y-110100000D01*
%TO.N,IN1M+*%
X115972500Y-103910000D02*
X114347500Y-102285000D01*
X116662500Y-106262500D02*
X117800000Y-106262500D01*
X116920328Y-103910000D02*
X115972500Y-103910000D01*
X117800000Y-106262500D02*
X117800000Y-104789672D01*
X116300000Y-106625000D02*
X116662500Y-106262500D01*
X117800000Y-104789672D02*
X116920328Y-103910000D01*
%TO.N,IN1P+*%
X114200000Y-106325000D02*
X114200000Y-104654671D01*
X114200000Y-104654671D02*
X111830329Y-102285000D01*
X112700000Y-106462500D02*
X112837500Y-106325000D01*
X112837500Y-106325000D02*
X114200000Y-106325000D01*
X112230329Y-102285000D02*
X112207500Y-102285000D01*
%TO.N,IN2P+*%
X120262500Y-106335000D02*
X121400000Y-106335000D01*
X121400000Y-104789672D02*
X120560328Y-103950000D01*
X118552500Y-103950000D02*
X116887500Y-102285000D01*
X120560328Y-103950000D02*
X118552500Y-103950000D01*
X119900000Y-106697500D02*
X120262500Y-106335000D01*
X121400000Y-106335000D02*
X121400000Y-104789672D01*
%TO.N,IN2M+*%
X120690799Y-102285000D02*
X122005799Y-103600000D01*
X124500000Y-103600000D02*
X125000000Y-104100000D01*
X123500000Y-106735000D02*
X123852500Y-106382500D01*
X123852500Y-106382500D02*
X125000000Y-106382500D01*
X125000000Y-104100000D02*
X125000000Y-106382500D01*
X119827500Y-102285000D02*
X120690799Y-102285000D01*
X122005799Y-103600000D02*
X124500000Y-103600000D01*
%TO.N,OUT1P+*%
X96327500Y-105100000D02*
X98027500Y-103400000D01*
X96500000Y-106400000D02*
X96000000Y-106400000D01*
X96650000Y-106550000D02*
X96500000Y-106400000D01*
X96700000Y-110037500D02*
X97700000Y-109037500D01*
X97700000Y-109037500D02*
X96650000Y-107987500D01*
X96650000Y-107987500D02*
X96650000Y-106550000D01*
X96000000Y-105427500D02*
X96327500Y-105100000D01*
X100932500Y-103400000D02*
X102047500Y-102285000D01*
X96000000Y-106400000D02*
X96000000Y-105427500D01*
X98027500Y-103400000D02*
X100932500Y-103400000D01*
X96700000Y-111100000D02*
X96700000Y-110037500D01*
%TO.N,3.3V_A*%
X115247500Y-116315000D02*
X117199313Y-116315000D01*
X118161813Y-115934187D02*
X118496000Y-115600000D01*
X114400000Y-117162500D02*
X115247500Y-116315000D01*
X118161813Y-117277500D02*
X118161813Y-115934187D01*
X117199313Y-116315000D02*
X118161813Y-117277500D01*
%TO.N,Net-(PU_EN108-Pad1)*%
X110704037Y-118225583D02*
X110678454Y-118200000D01*
X107897904Y-118200000D02*
X107303448Y-118794456D01*
X110678454Y-118200000D02*
X107897904Y-118200000D01*
%TO.N,Net-(R128-Pad2)*%
X111304000Y-119000000D02*
X112509999Y-119000000D01*
X112509999Y-119000000D02*
X112600000Y-119090001D01*
%TO.N,3.3v_IDE*%
X109113413Y-119000000D02*
X108861982Y-118748569D01*
X88162500Y-123775000D02*
X88162500Y-121425000D01*
X88162500Y-121425000D02*
X86797500Y-120060000D01*
X92175001Y-121600000D02*
X92175001Y-122300000D01*
X90700001Y-123775000D02*
X88162500Y-123775000D01*
X92175001Y-122300000D02*
X90700001Y-123775000D01*
X110300001Y-119000000D02*
X109113413Y-119000000D01*
%TO.N,Net-(G119-B)*%
X117211814Y-119552500D02*
X117211814Y-118890001D01*
X121100001Y-115600000D02*
X121100001Y-116365687D01*
X115047500Y-118590000D02*
X114400000Y-119237500D01*
X120200000Y-117575000D02*
X121959314Y-117575000D01*
X119535000Y-118240000D02*
X118160000Y-118240000D01*
X121100001Y-116365687D02*
X122134314Y-117400000D01*
X121959314Y-117575000D02*
X122134314Y-117400000D01*
X118160000Y-118240000D02*
X117211814Y-119188186D01*
X117211814Y-118890001D02*
X116911813Y-118590000D01*
X120200000Y-117575000D02*
X119535000Y-118240000D01*
X117211814Y-119188186D02*
X117211814Y-119552500D01*
X116911813Y-118590000D02*
X115047500Y-118590000D01*
%TO.N,5V_THIN*%
X120200000Y-119300000D02*
X119947500Y-119552500D01*
X122650215Y-118959099D02*
X122134314Y-119475000D01*
X121959314Y-119300000D02*
X122134314Y-119475000D01*
X120200000Y-119300000D02*
X121959314Y-119300000D01*
X123440901Y-118959099D02*
X122650215Y-118959099D01*
X119947500Y-119552500D02*
X118161813Y-119552500D01*
%TD*%
%TA.AperFunction,Conductor*%
%TO.N,Earth*%
G36*
X86254301Y-97963907D02*
G01*
X86290265Y-98013407D01*
X86290265Y-98074593D01*
X86266115Y-98114001D01*
X85754802Y-98625315D01*
X85319528Y-99060589D01*
X85285499Y-99119530D01*
X85285499Y-99119531D01*
X85273387Y-99140508D01*
X85273386Y-99140510D01*
X85273386Y-99140511D01*
X85268014Y-99160562D01*
X85249500Y-99229656D01*
X85249500Y-116041463D01*
X85230593Y-116099654D01*
X85225320Y-116106293D01*
X85195870Y-116140280D01*
X85195868Y-116140284D01*
X85139069Y-116264654D01*
X85139067Y-116264662D01*
X85119610Y-116399997D01*
X85119610Y-116400002D01*
X85139067Y-116535337D01*
X85139069Y-116535345D01*
X85195868Y-116659715D01*
X85195869Y-116659716D01*
X85195870Y-116659718D01*
X85285411Y-116763055D01*
X85400439Y-116836978D01*
X85531633Y-116875500D01*
X85531634Y-116875500D01*
X85668366Y-116875500D01*
X85668367Y-116875500D01*
X85668368Y-116875499D01*
X85668372Y-116875499D01*
X85709225Y-116863503D01*
X85770385Y-116865249D01*
X85818839Y-116902611D01*
X85836078Y-116961317D01*
X85825739Y-117002620D01*
X85785940Y-117082549D01*
X85766918Y-117120750D01*
X85711103Y-117316917D01*
X85692285Y-117520000D01*
X85711103Y-117723083D01*
X85766918Y-117919250D01*
X85857827Y-118101821D01*
X85980736Y-118264579D01*
X86131459Y-118401981D01*
X86304863Y-118509348D01*
X86495044Y-118583024D01*
X86695524Y-118620500D01*
X86899476Y-118620500D01*
X87099956Y-118583024D01*
X87290137Y-118509348D01*
X87463541Y-118401981D01*
X87614264Y-118264579D01*
X87707494Y-118141121D01*
X87757647Y-118106081D01*
X87818822Y-118107212D01*
X87867649Y-118144084D01*
X87872231Y-118151285D01*
X87907028Y-118211555D01*
X87907030Y-118211558D01*
X88645942Y-118950470D01*
X88679723Y-118969973D01*
X88704452Y-118984251D01*
X88704451Y-118984251D01*
X88704459Y-118984254D01*
X88705979Y-118985132D01*
X88746913Y-119030608D01*
X88753299Y-119091459D01*
X88722698Y-119144443D01*
X88708584Y-119155032D01*
X88671461Y-119178017D01*
X88533536Y-119303752D01*
X88520736Y-119315421D01*
X88504482Y-119336945D01*
X88397828Y-119478177D01*
X88397823Y-119478186D01*
X88306919Y-119660747D01*
X88306918Y-119660750D01*
X88251103Y-119856917D01*
X88232285Y-120060000D01*
X88251103Y-120263083D01*
X88306918Y-120459250D01*
X88397827Y-120641821D01*
X88520736Y-120804579D01*
X88671459Y-120941981D01*
X88844863Y-121049348D01*
X89035044Y-121123024D01*
X89235524Y-121160500D01*
X89439476Y-121160500D01*
X89639956Y-121123024D01*
X89830137Y-121049348D01*
X90003541Y-120941981D01*
X90154264Y-120804579D01*
X90277173Y-120641821D01*
X90368082Y-120459250D01*
X90423897Y-120263083D01*
X90442715Y-120060000D01*
X90433611Y-119961754D01*
X90447069Y-119902070D01*
X90493039Y-119861692D01*
X90553964Y-119856046D01*
X90602190Y-119882616D01*
X91400043Y-120680469D01*
X91400045Y-120680470D01*
X91400047Y-120680472D01*
X91426500Y-120695744D01*
X91467442Y-120741212D01*
X91473839Y-120802062D01*
X91456255Y-120840810D01*
X91406203Y-120907670D01*
X91355911Y-121042511D01*
X91355909Y-121042522D01*
X91349501Y-121102129D01*
X91349501Y-122097866D01*
X91349502Y-122097870D01*
X91355909Y-122157480D01*
X91355910Y-122157485D01*
X91406203Y-122292329D01*
X91475002Y-122384232D01*
X91494739Y-122442147D01*
X91476665Y-122500602D01*
X91465753Y-122513565D01*
X90607004Y-123372314D01*
X90552487Y-123400091D01*
X90492055Y-123390520D01*
X90448790Y-123347255D01*
X90438000Y-123302310D01*
X90438000Y-121725327D01*
X90437998Y-121725315D01*
X90424461Y-121657263D01*
X90423466Y-121652260D01*
X90423464Y-121652257D01*
X90368102Y-121569400D01*
X90368099Y-121569397D01*
X90285242Y-121514035D01*
X90285240Y-121514034D01*
X90285237Y-121514033D01*
X90285236Y-121514033D01*
X90212184Y-121499501D01*
X90212174Y-121499500D01*
X90212173Y-121499500D01*
X88612000Y-121499500D01*
X88553809Y-121480593D01*
X88517845Y-121431093D01*
X88513000Y-121400500D01*
X88513000Y-121378857D01*
X88513000Y-121378856D01*
X88489114Y-121289712D01*
X88466474Y-121250499D01*
X88466473Y-121250497D01*
X88442972Y-121209791D01*
X88442971Y-121209790D01*
X88442970Y-121209788D01*
X87833357Y-120600175D01*
X87805580Y-120545658D01*
X87814740Y-120486042D01*
X87828082Y-120459250D01*
X87883897Y-120263083D01*
X87902715Y-120060000D01*
X87883897Y-119856917D01*
X87828082Y-119660750D01*
X87737173Y-119478179D01*
X87614264Y-119315421D01*
X87463541Y-119178019D01*
X87290137Y-119070652D01*
X87099956Y-118996976D01*
X87099955Y-118996975D01*
X87099953Y-118996975D01*
X86899476Y-118959500D01*
X86695524Y-118959500D01*
X86495046Y-118996975D01*
X86465346Y-119008481D01*
X86304863Y-119070652D01*
X86131462Y-119178017D01*
X86131459Y-119178019D01*
X85995010Y-119302409D01*
X85980736Y-119315421D01*
X85964482Y-119336945D01*
X85857828Y-119478177D01*
X85857823Y-119478186D01*
X85766919Y-119660747D01*
X85766918Y-119660750D01*
X85711103Y-119856917D01*
X85692285Y-120060000D01*
X85711103Y-120263083D01*
X85766918Y-120459250D01*
X85857827Y-120641821D01*
X85980736Y-120804579D01*
X86131459Y-120941981D01*
X86304863Y-121049348D01*
X86495044Y-121123024D01*
X86695524Y-121160500D01*
X86899476Y-121160500D01*
X87099956Y-121123024D01*
X87230728Y-121072362D01*
X87291816Y-121068973D01*
X87336492Y-121094674D01*
X87783004Y-121541186D01*
X87810781Y-121595703D01*
X87812000Y-121611190D01*
X87812000Y-121821890D01*
X87793093Y-121880081D01*
X87743593Y-121916045D01*
X87682407Y-121916045D01*
X87633997Y-121881552D01*
X87632886Y-121880081D01*
X87614264Y-121855421D01*
X87463541Y-121718019D01*
X87290137Y-121610652D01*
X87099956Y-121536976D01*
X87099955Y-121536975D01*
X87099953Y-121536975D01*
X86899476Y-121499500D01*
X86695524Y-121499500D01*
X86495046Y-121536975D01*
X86434094Y-121560588D01*
X86304863Y-121610652D01*
X86229584Y-121657263D01*
X86131459Y-121718019D01*
X85980737Y-121855420D01*
X85857828Y-122018177D01*
X85857823Y-122018186D01*
X85766919Y-122200747D01*
X85766918Y-122200750D01*
X85711103Y-122396917D01*
X85692285Y-122600000D01*
X85711103Y-122803083D01*
X85766918Y-122999250D01*
X85857827Y-123181821D01*
X85980736Y-123344579D01*
X86131459Y-123481981D01*
X86304863Y-123589348D01*
X86495044Y-123663024D01*
X86695524Y-123700500D01*
X86899476Y-123700500D01*
X87099956Y-123663024D01*
X87290137Y-123589348D01*
X87463541Y-123481981D01*
X87614264Y-123344579D01*
X87633998Y-123318446D01*
X87684152Y-123283405D01*
X87745327Y-123284536D01*
X87794154Y-123321408D01*
X87812000Y-123378109D01*
X87812000Y-123728856D01*
X87812000Y-123821144D01*
X87822336Y-123859718D01*
X87835887Y-123910290D01*
X87866351Y-123963055D01*
X87882031Y-123990212D01*
X87947288Y-124055469D01*
X88027212Y-124101614D01*
X88116356Y-124125500D01*
X88116358Y-124125500D01*
X90746143Y-124125500D01*
X90746145Y-124125500D01*
X90835289Y-124101614D01*
X90915213Y-124055470D01*
X92391187Y-122579494D01*
X92445704Y-122551718D01*
X92461191Y-122550499D01*
X92547868Y-122550499D01*
X92547873Y-122550499D01*
X92607484Y-122544091D01*
X92689329Y-122513565D01*
X92742330Y-122493797D01*
X92742330Y-122493796D01*
X92742332Y-122493796D01*
X92857547Y-122407546D01*
X92943797Y-122292331D01*
X92994092Y-122157483D01*
X93000501Y-122097873D01*
X93000500Y-121102128D01*
X92994092Y-121042517D01*
X92956594Y-120941980D01*
X92943797Y-120907668D01*
X92940405Y-120901456D01*
X92941877Y-120900651D01*
X92924929Y-120850908D01*
X92943007Y-120792454D01*
X92991990Y-120755790D01*
X93023919Y-120750500D01*
X93376081Y-120750500D01*
X93434272Y-120769407D01*
X93470236Y-120818907D01*
X93470236Y-120880093D01*
X93459254Y-120901270D01*
X93459595Y-120901456D01*
X93456202Y-120907668D01*
X93405909Y-121042511D01*
X93405907Y-121042522D01*
X93399499Y-121102129D01*
X93399499Y-122097866D01*
X93399500Y-122097870D01*
X93405907Y-122157480D01*
X93405908Y-122157485D01*
X93456201Y-122292329D01*
X93542449Y-122407541D01*
X93542453Y-122407546D01*
X93542456Y-122407548D01*
X93542457Y-122407549D01*
X93653619Y-122490765D01*
X93688872Y-122540774D01*
X93687998Y-122601953D01*
X93664294Y-122640021D01*
X93208814Y-123095503D01*
X93154297Y-123123281D01*
X93138810Y-123124500D01*
X93131631Y-123124500D01*
X93000441Y-123163021D01*
X93000439Y-123163021D01*
X93000439Y-123163022D01*
X92885411Y-123236945D01*
X92885410Y-123236945D01*
X92885410Y-123236946D01*
X92795868Y-123340284D01*
X92739069Y-123464654D01*
X92739067Y-123464662D01*
X92719610Y-123599997D01*
X92719610Y-123600002D01*
X92739067Y-123735337D01*
X92739069Y-123735345D01*
X92795868Y-123859715D01*
X92795869Y-123859716D01*
X92795870Y-123859718D01*
X92885411Y-123963055D01*
X93000439Y-124036978D01*
X93131633Y-124075500D01*
X93131634Y-124075500D01*
X93268366Y-124075500D01*
X93268367Y-124075500D01*
X93399561Y-124036978D01*
X93514589Y-123963055D01*
X93604130Y-123859718D01*
X93660931Y-123735342D01*
X93673132Y-123650473D01*
X93700127Y-123595568D01*
X93701051Y-123594629D01*
X94505468Y-122790214D01*
X94551613Y-122710289D01*
X94575499Y-122621145D01*
X94575499Y-122621142D01*
X94576760Y-122616436D01*
X94610084Y-122565122D01*
X94651970Y-122547715D01*
X94651451Y-122545516D01*
X94657477Y-122544091D01*
X94657482Y-122544091D01*
X94739327Y-122513565D01*
X94792328Y-122493797D01*
X94792328Y-122493796D01*
X94792330Y-122493796D01*
X94907545Y-122407546D01*
X94930874Y-122376382D01*
X94980881Y-122341129D01*
X95042060Y-122342001D01*
X95091042Y-122378668D01*
X95109117Y-122437122D01*
X95108875Y-122442772D01*
X95097273Y-122604999D01*
X95116156Y-122869020D01*
X95116156Y-122869023D01*
X95116157Y-122869026D01*
X95171732Y-123124500D01*
X95172424Y-123127682D01*
X95264926Y-123375690D01*
X95264927Y-123375692D01*
X95391784Y-123608011D01*
X95391783Y-123608011D01*
X95550408Y-123819909D01*
X95550410Y-123819911D01*
X95550413Y-123819915D01*
X95737585Y-124007087D01*
X95737588Y-124007089D01*
X95737590Y-124007091D01*
X95949488Y-124165716D01*
X96047272Y-124219110D01*
X96089283Y-124263592D01*
X96097125Y-124324273D01*
X96067802Y-124377974D01*
X96012514Y-124404184D01*
X95999826Y-124405000D01*
X84931500Y-124405000D01*
X84873309Y-124386093D01*
X84837345Y-124336593D01*
X84832500Y-124306000D01*
X84832500Y-98044000D01*
X84851407Y-97985809D01*
X84900907Y-97949845D01*
X84931500Y-97945000D01*
X86196110Y-97945000D01*
X86254301Y-97963907D01*
G37*
%TD.AperFunction*%
%TA.AperFunction,Conductor*%
G36*
X111005017Y-100377698D02*
G01*
X111027225Y-100408265D01*
X111033897Y-100422574D01*
X111033898Y-100422576D01*
X111169386Y-100616073D01*
X111336426Y-100783113D01*
X111529922Y-100918600D01*
X111744009Y-101018430D01*
X111857018Y-101048711D01*
X111908332Y-101082035D01*
X111930259Y-101139156D01*
X111914424Y-101198257D01*
X111867157Y-101236653D01*
X111714863Y-101295652D01*
X111579297Y-101379591D01*
X111541459Y-101403019D01*
X111458472Y-101478672D01*
X111390736Y-101540421D01*
X111382188Y-101551740D01*
X111267828Y-101703177D01*
X111267823Y-101703186D01*
X111176919Y-101885747D01*
X111176918Y-101885750D01*
X111121103Y-102081917D01*
X111102285Y-102285000D01*
X111121103Y-102488083D01*
X111176918Y-102684250D01*
X111267827Y-102866821D01*
X111390736Y-103029579D01*
X111541459Y-103166981D01*
X111714863Y-103274348D01*
X111905044Y-103348024D01*
X112105524Y-103385500D01*
X112309475Y-103385500D01*
X112309476Y-103385500D01*
X112364058Y-103375296D01*
X112424730Y-103383188D01*
X112452253Y-103402606D01*
X113210143Y-104160496D01*
X113237920Y-104215013D01*
X113228349Y-104275445D01*
X113185084Y-104318710D01*
X113140143Y-104329500D01*
X113117691Y-104329500D01*
X113117687Y-104329501D01*
X113042500Y-104341408D01*
X112982068Y-104331836D01*
X112957011Y-104313631D01*
X112860020Y-104216640D01*
X112722867Y-104133728D01*
X112722855Y-104133723D01*
X112569847Y-104086044D01*
X112569841Y-104086042D01*
X112503345Y-104080000D01*
X112477501Y-104080000D01*
X112477500Y-104080001D01*
X112477500Y-104801000D01*
X112458593Y-104859191D01*
X112409093Y-104895155D01*
X112378500Y-104900000D01*
X112227501Y-104900000D01*
X112227500Y-104900001D01*
X112227500Y-105051000D01*
X112208593Y-105109191D01*
X112159093Y-105145155D01*
X112128500Y-105150000D01*
X111348331Y-105150000D01*
X111351043Y-105179844D01*
X111398723Y-105332855D01*
X111398728Y-105332867D01*
X111472619Y-105455097D01*
X111486543Y-105514677D01*
X111462787Y-105571062D01*
X111457901Y-105576316D01*
X111394529Y-105639688D01*
X111354132Y-105709657D01*
X111354133Y-105709658D01*
X111348386Y-105719611D01*
X111337235Y-105761227D01*
X111330330Y-105787000D01*
X111324500Y-105808757D01*
X111324500Y-106652412D01*
X111305593Y-106710603D01*
X111256093Y-106746567D01*
X111207586Y-106747261D01*
X111207308Y-106749200D01*
X111200299Y-106748192D01*
X111200298Y-106748192D01*
X111063564Y-106748192D01*
X111063562Y-106748192D01*
X110932372Y-106786713D01*
X110932370Y-106786713D01*
X110932370Y-106786714D01*
X110817342Y-106860637D01*
X110817341Y-106860637D01*
X110817341Y-106860638D01*
X110727799Y-106963976D01*
X110671000Y-107088346D01*
X110670998Y-107088354D01*
X110651541Y-107223689D01*
X110651541Y-107223694D01*
X110670998Y-107359029D01*
X110671000Y-107359037D01*
X110727799Y-107483407D01*
X110727800Y-107483408D01*
X110727801Y-107483410D01*
X110817342Y-107586747D01*
X110932370Y-107660670D01*
X111063564Y-107699192D01*
X111063565Y-107699192D01*
X111200297Y-107699192D01*
X111200298Y-107699192D01*
X111277596Y-107676495D01*
X111338755Y-107678242D01*
X111387208Y-107715605D01*
X111391224Y-107721986D01*
X111394528Y-107727710D01*
X111394530Y-107727712D01*
X111700176Y-108033359D01*
X111727953Y-108087875D01*
X111728605Y-108113944D01*
X111724500Y-108152129D01*
X111724500Y-108922866D01*
X111724501Y-108922870D01*
X111730908Y-108982476D01*
X111730909Y-108982485D01*
X111781202Y-109117329D01*
X111856178Y-109217483D01*
X111867454Y-109232546D01*
X111867457Y-109232548D01*
X111867458Y-109232549D01*
X111982670Y-109318797D01*
X112117511Y-109369089D01*
X112117512Y-109369089D01*
X112117517Y-109369091D01*
X112177127Y-109375500D01*
X112838810Y-109375499D01*
X112897001Y-109394406D01*
X112908813Y-109404495D01*
X113119129Y-109614811D01*
X113287182Y-109782863D01*
X113314960Y-109837380D01*
X113305389Y-109897812D01*
X113296432Y-109912196D01*
X113229786Y-110001223D01*
X113180750Y-110132695D01*
X113180748Y-110132706D01*
X113174500Y-110190829D01*
X113174500Y-110884170D01*
X113174499Y-110884170D01*
X113180748Y-110942293D01*
X113180750Y-110942304D01*
X113229786Y-111073776D01*
X113294096Y-111159683D01*
X113313884Y-111186116D01*
X113313887Y-111186118D01*
X113313888Y-111186119D01*
X113426223Y-111270213D01*
X113525503Y-111307242D01*
X113573418Y-111345292D01*
X113589816Y-111404239D01*
X113568434Y-111461567D01*
X113525503Y-111492758D01*
X113426223Y-111529786D01*
X113313888Y-111613880D01*
X113313880Y-111613888D01*
X113229786Y-111726223D01*
X113180750Y-111857695D01*
X113180748Y-111857706D01*
X113174500Y-111915829D01*
X113174500Y-112471469D01*
X113155593Y-112529660D01*
X113106093Y-112565624D01*
X113044907Y-112565624D01*
X113000680Y-112536300D01*
X112974680Y-112506294D01*
X112950863Y-112449934D01*
X112950500Y-112441463D01*
X112950500Y-110753857D01*
X112948682Y-110747072D01*
X112926614Y-110664712D01*
X112899560Y-110617854D01*
X112880470Y-110584789D01*
X112880468Y-110584787D01*
X112815212Y-110519530D01*
X112815212Y-110519531D01*
X110379496Y-108083814D01*
X110351719Y-108029297D01*
X110350500Y-108013810D01*
X110350500Y-106958536D01*
X110369407Y-106900345D01*
X110374680Y-106893705D01*
X110378140Y-106889712D01*
X110404130Y-106859718D01*
X110437470Y-106786714D01*
X110460930Y-106735345D01*
X110460932Y-106735337D01*
X110480390Y-106600002D01*
X110480390Y-106599997D01*
X110460932Y-106464662D01*
X110460930Y-106464654D01*
X110404131Y-106340284D01*
X110404130Y-106340283D01*
X110404130Y-106340282D01*
X110314589Y-106236945D01*
X110201308Y-106164145D01*
X110162580Y-106116782D01*
X110159086Y-106055696D01*
X110169098Y-106031362D01*
X110169542Y-106030593D01*
X110205616Y-105968113D01*
X110206971Y-105963055D01*
X110207054Y-105962742D01*
X110227875Y-105923488D01*
X110283132Y-105859718D01*
X110289328Y-105846151D01*
X110339932Y-105735345D01*
X110339934Y-105735337D01*
X110359392Y-105600002D01*
X110359392Y-105599997D01*
X110339934Y-105464662D01*
X110339932Y-105464654D01*
X110283133Y-105340284D01*
X110283132Y-105340283D01*
X110283132Y-105340282D01*
X110193591Y-105236945D01*
X110078563Y-105163022D01*
X109961147Y-105128545D01*
X109910642Y-105094010D01*
X109890080Y-105036383D01*
X109896282Y-104998959D01*
X109947596Y-104861378D01*
X109947598Y-104861370D01*
X109954000Y-104801824D01*
X109954000Y-104750001D01*
X109953999Y-104750000D01*
X108446001Y-104750000D01*
X108446000Y-104750001D01*
X108446000Y-104801824D01*
X108445999Y-104801824D01*
X108452401Y-104861370D01*
X108452403Y-104861381D01*
X108502646Y-104996088D01*
X108502647Y-104996090D01*
X108588807Y-105111184D01*
X108588814Y-105111191D01*
X108655828Y-105161357D01*
X108691082Y-105211366D01*
X108695500Y-105240611D01*
X108695500Y-105471810D01*
X108676593Y-105530001D01*
X108666504Y-105541813D01*
X108512814Y-105695502D01*
X108458299Y-105723279D01*
X108442812Y-105724498D01*
X108331631Y-105724498D01*
X108200441Y-105763019D01*
X108200439Y-105763019D01*
X108200439Y-105763020D01*
X108085411Y-105836943D01*
X108085410Y-105836943D01*
X108085410Y-105836944D01*
X107995869Y-105940281D01*
X107939068Y-106064656D01*
X107925263Y-106160673D01*
X107913007Y-106196082D01*
X107881770Y-106250188D01*
X107881769Y-106250190D01*
X107873387Y-106264707D01*
X107873386Y-106264709D01*
X107873386Y-106264710D01*
X107864741Y-106296976D01*
X107849500Y-106353855D01*
X107849500Y-108490508D01*
X107867710Y-108558469D01*
X107873384Y-108579648D01*
X107873385Y-108579649D01*
X107873386Y-108579653D01*
X107919530Y-108659577D01*
X108309773Y-109049820D01*
X108698959Y-109439006D01*
X108726736Y-109493523D01*
X108717165Y-109553955D01*
X108698958Y-109579014D01*
X108384564Y-109893407D01*
X108368091Y-109906683D01*
X108361767Y-109910747D01*
X108328655Y-109948959D01*
X108323842Y-109954129D01*
X107677455Y-110600516D01*
X107660981Y-110613792D01*
X107654660Y-110617854D01*
X107621541Y-110656074D01*
X107616728Y-110661243D01*
X107437655Y-110840317D01*
X107396268Y-110902256D01*
X107396268Y-110902257D01*
X107396267Y-110902259D01*
X107376825Y-111000000D01*
X107396267Y-111097741D01*
X107396268Y-111097742D01*
X107396268Y-111097743D01*
X107437655Y-111159682D01*
X107616740Y-111338768D01*
X107621542Y-111343925D01*
X107654513Y-111381976D01*
X107654659Y-111382144D01*
X107660971Y-111386200D01*
X107677455Y-111399482D01*
X108323847Y-112045874D01*
X108328649Y-112051032D01*
X108350919Y-112076733D01*
X108361766Y-112089251D01*
X108368078Y-112093307D01*
X108384562Y-112106589D01*
X109030954Y-112752981D01*
X109035756Y-112758139D01*
X109066291Y-112793378D01*
X109068873Y-112796358D01*
X109075188Y-112800416D01*
X109091669Y-112813697D01*
X109174396Y-112896423D01*
X109240317Y-112962344D01*
X109302259Y-113003733D01*
X109400000Y-113023175D01*
X109497741Y-113003733D01*
X109559683Y-112962344D01*
X109708329Y-112813696D01*
X109724811Y-112800416D01*
X109731128Y-112796357D01*
X109764243Y-112758138D01*
X109769032Y-112752993D01*
X110143170Y-112378855D01*
X110197685Y-112351080D01*
X110258117Y-112360651D01*
X110283173Y-112378855D01*
X110295501Y-112391182D01*
X110323281Y-112445697D01*
X110324500Y-112461188D01*
X110324500Y-115883645D01*
X110328586Y-115898894D01*
X110342745Y-115951739D01*
X110348384Y-115972785D01*
X110348385Y-115972787D01*
X110348386Y-115972789D01*
X110394530Y-116052713D01*
X110960307Y-116618490D01*
X111522313Y-117180496D01*
X111550090Y-117235013D01*
X111540519Y-117295445D01*
X111497254Y-117338710D01*
X111452309Y-117349500D01*
X109148386Y-117349500D01*
X109090195Y-117330593D01*
X109054231Y-117281093D01*
X109054231Y-117219907D01*
X109089057Y-117171247D01*
X109140834Y-117132487D01*
X109207547Y-117082546D01*
X109293797Y-116967330D01*
X109298390Y-116955017D01*
X109332865Y-116862583D01*
X109344092Y-116832482D01*
X109350501Y-116772872D01*
X109350501Y-114827128D01*
X109344092Y-114767518D01*
X109344090Y-114767512D01*
X109293798Y-114632671D01*
X109207550Y-114517458D01*
X109207549Y-114517457D01*
X109207547Y-114517454D01*
X109200502Y-114512180D01*
X109092329Y-114431202D01*
X108957488Y-114380910D01*
X108957483Y-114380909D01*
X108957481Y-114380908D01*
X108957477Y-114380908D01*
X108926249Y-114377550D01*
X108897873Y-114374500D01*
X107802129Y-114374500D01*
X107777638Y-114377133D01*
X107742524Y-114380908D01*
X107742513Y-114380910D01*
X107607671Y-114431203D01*
X107601546Y-114435788D01*
X107543630Y-114455521D01*
X107485176Y-114437443D01*
X107472218Y-114426535D01*
X106254496Y-113208813D01*
X106226719Y-113154296D01*
X106225500Y-113138809D01*
X106225500Y-112540829D01*
X106225500Y-112540826D01*
X106219251Y-112482701D01*
X106219249Y-112482695D01*
X106170213Y-112351223D01*
X106086119Y-112238888D01*
X106086118Y-112238887D01*
X106086116Y-112238884D01*
X106086111Y-112238880D01*
X105973776Y-112154786D01*
X105842304Y-112105750D01*
X105842299Y-112105749D01*
X105842297Y-112105748D01*
X105842293Y-112105748D01*
X105816011Y-112102922D01*
X105784174Y-112099500D01*
X105215826Y-112099500D01*
X105192489Y-112102009D01*
X105157706Y-112105748D01*
X105157702Y-112105748D01*
X105157701Y-112105749D01*
X105131566Y-112115497D01*
X105084096Y-112133202D01*
X105022966Y-112135821D01*
X104971972Y-112102009D01*
X104950591Y-112044681D01*
X104950500Y-112040443D01*
X104950500Y-111959556D01*
X104969407Y-111901365D01*
X105018907Y-111865401D01*
X105080093Y-111865401D01*
X105084088Y-111866795D01*
X105157701Y-111894251D01*
X105215826Y-111900500D01*
X105215830Y-111900500D01*
X105784170Y-111900500D01*
X105784174Y-111900500D01*
X105842299Y-111894251D01*
X105925588Y-111863186D01*
X105973776Y-111845213D01*
X105973776Y-111845212D01*
X105973778Y-111845212D01*
X106086116Y-111761116D01*
X106170212Y-111648778D01*
X106172082Y-111643766D01*
X106208552Y-111545985D01*
X106219251Y-111517299D01*
X106225500Y-111459174D01*
X106225500Y-110790826D01*
X106219251Y-110732701D01*
X106214385Y-110719655D01*
X106170213Y-110601223D01*
X106086119Y-110488888D01*
X106086118Y-110488887D01*
X106086116Y-110488884D01*
X106076681Y-110481821D01*
X105973781Y-110404789D01*
X105914902Y-110382828D01*
X105866988Y-110344776D01*
X105850500Y-110290070D01*
X105850500Y-109749500D01*
X105869407Y-109691309D01*
X105918907Y-109655345D01*
X105949500Y-109650500D01*
X106184170Y-109650500D01*
X106184174Y-109650500D01*
X106242299Y-109644251D01*
X106308576Y-109619531D01*
X106373776Y-109595213D01*
X106373776Y-109595212D01*
X106373778Y-109595212D01*
X106486116Y-109511116D01*
X106570212Y-109398778D01*
X106581286Y-109369089D01*
X106608694Y-109295603D01*
X106619251Y-109267299D01*
X106625500Y-109209174D01*
X106625500Y-108515826D01*
X106619251Y-108457701D01*
X106618419Y-108455469D01*
X106570213Y-108326223D01*
X106516908Y-108255017D01*
X106487066Y-108215153D01*
X106467330Y-108157240D01*
X106485404Y-108098786D01*
X106514347Y-108071565D01*
X106598038Y-108019943D01*
X106719946Y-107898035D01*
X106810451Y-107751306D01*
X106864681Y-107587648D01*
X106875000Y-107486655D01*
X106875000Y-107387501D01*
X106874999Y-107387500D01*
X105999000Y-107387500D01*
X105940809Y-107368593D01*
X105904845Y-107319093D01*
X105900000Y-107288500D01*
X105900000Y-107137501D01*
X105899999Y-107137500D01*
X105749000Y-107137500D01*
X105690809Y-107118593D01*
X105654845Y-107069093D01*
X105650000Y-107038500D01*
X105650000Y-106100001D01*
X106150000Y-106100001D01*
X106150000Y-106887499D01*
X106150001Y-106887500D01*
X106874998Y-106887500D01*
X106874999Y-106887499D01*
X106874999Y-106788345D01*
X106864682Y-106687357D01*
X106864679Y-106687345D01*
X106810451Y-106523693D01*
X106719946Y-106376964D01*
X106598035Y-106255053D01*
X106451306Y-106164548D01*
X106287648Y-106110318D01*
X106186655Y-106100000D01*
X106150001Y-106100000D01*
X106150000Y-106100001D01*
X105650000Y-106100001D01*
X105650000Y-106099999D01*
X105649999Y-106099999D01*
X105613358Y-106100000D01*
X105613351Y-106100001D01*
X105512357Y-106110317D01*
X105512345Y-106110320D01*
X105348692Y-106164548D01*
X105325658Y-106178756D01*
X105266205Y-106193211D01*
X105209610Y-106169959D01*
X105178061Y-106120112D01*
X105176614Y-106114712D01*
X105169834Y-106102969D01*
X105149932Y-106068498D01*
X105137212Y-106008651D01*
X105162099Y-105952756D01*
X105215087Y-105922163D01*
X105220952Y-105921546D01*
X105222500Y-105919999D01*
X105222500Y-105350001D01*
X105722500Y-105350001D01*
X105722500Y-105919999D01*
X105722501Y-105920000D01*
X105748334Y-105920000D01*
X105748345Y-105919999D01*
X105814841Y-105913957D01*
X105814847Y-105913955D01*
X105967855Y-105866276D01*
X105967867Y-105866271D01*
X106105020Y-105783359D01*
X106218359Y-105670020D01*
X106301271Y-105532867D01*
X106301276Y-105532855D01*
X106348956Y-105379844D01*
X106351668Y-105350000D01*
X105722501Y-105350000D01*
X105722500Y-105350001D01*
X105222500Y-105350001D01*
X105222500Y-105199000D01*
X105241407Y-105140809D01*
X105290907Y-105104845D01*
X105321500Y-105100000D01*
X105472499Y-105100000D01*
X105472500Y-105099999D01*
X105472500Y-104949000D01*
X105491407Y-104890809D01*
X105540907Y-104854845D01*
X105571500Y-104850000D01*
X106351669Y-104850000D01*
X106362865Y-104837740D01*
X106416067Y-104807521D01*
X106435968Y-104805500D01*
X106898282Y-104805500D01*
X106898284Y-104805500D01*
X106987428Y-104781614D01*
X107016703Y-104764712D01*
X107067352Y-104735470D01*
X107152823Y-104649999D01*
X111348331Y-104649999D01*
X111348332Y-104650000D01*
X111977499Y-104650000D01*
X111977500Y-104649999D01*
X111977500Y-104080001D01*
X111977499Y-104080000D01*
X111951654Y-104080000D01*
X111885158Y-104086042D01*
X111885152Y-104086044D01*
X111732144Y-104133723D01*
X111732132Y-104133728D01*
X111594979Y-104216640D01*
X111481640Y-104329979D01*
X111398728Y-104467132D01*
X111398723Y-104467144D01*
X111351043Y-104620155D01*
X111348331Y-104649999D01*
X107152823Y-104649999D01*
X107513324Y-104289496D01*
X107567841Y-104261719D01*
X107583328Y-104260500D01*
X108088642Y-104260500D01*
X108088644Y-104260500D01*
X108177788Y-104236614D01*
X108215808Y-104214663D01*
X108257712Y-104190470D01*
X108276997Y-104171183D01*
X108331513Y-104143408D01*
X108391945Y-104152979D01*
X108435210Y-104196244D01*
X108446000Y-104241189D01*
X108446000Y-104249999D01*
X108446001Y-104250000D01*
X108949999Y-104250000D01*
X108950000Y-104249999D01*
X108950000Y-103746001D01*
X109450000Y-103746001D01*
X109450000Y-104249999D01*
X109450001Y-104250000D01*
X109953999Y-104250000D01*
X109954000Y-104249999D01*
X109954000Y-104198175D01*
X109947598Y-104138629D01*
X109947596Y-104138618D01*
X109897353Y-104003911D01*
X109897352Y-104003909D01*
X109811192Y-103888815D01*
X109811184Y-103888807D01*
X109696090Y-103802647D01*
X109696088Y-103802646D01*
X109561381Y-103752403D01*
X109561370Y-103752401D01*
X109501824Y-103746000D01*
X109450001Y-103746000D01*
X109450000Y-103746001D01*
X108950000Y-103746001D01*
X108949999Y-103746000D01*
X108941189Y-103746000D01*
X108882998Y-103727093D01*
X108847034Y-103677593D01*
X108847034Y-103616407D01*
X108871185Y-103576997D01*
X109128506Y-103319675D01*
X109183023Y-103291897D01*
X109234271Y-103297362D01*
X109365044Y-103348024D01*
X109565524Y-103385500D01*
X109769476Y-103385500D01*
X109969956Y-103348024D01*
X110160137Y-103274348D01*
X110333541Y-103166981D01*
X110484264Y-103029579D01*
X110607173Y-102866821D01*
X110698082Y-102684250D01*
X110753897Y-102488083D01*
X110772715Y-102285000D01*
X110753897Y-102081917D01*
X110698082Y-101885750D01*
X110607173Y-101703179D01*
X110484264Y-101540421D01*
X110333541Y-101403019D01*
X110160137Y-101295652D01*
X110007840Y-101236652D01*
X109960410Y-101198001D01*
X109944756Y-101138852D01*
X109966859Y-101081799D01*
X110017981Y-101048711D01*
X110130990Y-101018430D01*
X110345077Y-100918600D01*
X110538573Y-100783113D01*
X110705613Y-100616073D01*
X110841101Y-100422576D01*
X110841102Y-100422574D01*
X110847775Y-100408265D01*
X110889503Y-100363516D01*
X110949564Y-100351841D01*
X111005017Y-100377698D01*
G37*
%TD.AperFunction*%
%TA.AperFunction,Conductor*%
G36*
X104121575Y-99552007D02*
G01*
X104087500Y-99679174D01*
X104087500Y-99810826D01*
X104121575Y-99937993D01*
X104154488Y-99995000D01*
X102480512Y-99995000D01*
X102513425Y-99937993D01*
X102547500Y-99810826D01*
X102547500Y-99679174D01*
X102513425Y-99552007D01*
X102480512Y-99495000D01*
X104154488Y-99495000D01*
X104121575Y-99552007D01*
G37*
%TD.AperFunction*%
%TA.AperFunction,Conductor*%
G36*
X106661575Y-99552007D02*
G01*
X106627500Y-99679174D01*
X106627500Y-99810826D01*
X106661575Y-99937993D01*
X106694488Y-99995000D01*
X105020512Y-99995000D01*
X105053425Y-99937993D01*
X105087500Y-99810826D01*
X105087500Y-99679174D01*
X105053425Y-99552007D01*
X105020512Y-99495000D01*
X106694488Y-99495000D01*
X106661575Y-99552007D01*
G37*
%TD.AperFunction*%
%TA.AperFunction,Conductor*%
G36*
X109201575Y-99552007D02*
G01*
X109167500Y-99679174D01*
X109167500Y-99810826D01*
X109201575Y-99937993D01*
X109234488Y-99995000D01*
X107560512Y-99995000D01*
X107593425Y-99937993D01*
X107627500Y-99810826D01*
X107627500Y-99679174D01*
X107593425Y-99552007D01*
X107560512Y-99495000D01*
X109234488Y-99495000D01*
X109201575Y-99552007D01*
G37*
%TD.AperFunction*%
%TA.AperFunction,Conductor*%
G36*
X111741575Y-99552007D02*
G01*
X111707500Y-99679174D01*
X111707500Y-99810826D01*
X111741575Y-99937993D01*
X111774488Y-99995000D01*
X110100512Y-99995000D01*
X110133425Y-99937993D01*
X110167500Y-99810826D01*
X110167500Y-99679174D01*
X110133425Y-99552007D01*
X110100512Y-99495000D01*
X111774488Y-99495000D01*
X111741575Y-99552007D01*
G37*
%TD.AperFunction*%
%TA.AperFunction,Conductor*%
G36*
X114281575Y-99552007D02*
G01*
X114247500Y-99679174D01*
X114247500Y-99810826D01*
X114281575Y-99937993D01*
X114314488Y-99995000D01*
X112640512Y-99995000D01*
X112673425Y-99937993D01*
X112707500Y-99810826D01*
X112707500Y-99679174D01*
X112673425Y-99552007D01*
X112640512Y-99495000D01*
X114314488Y-99495000D01*
X114281575Y-99552007D01*
G37*
%TD.AperFunction*%
%TA.AperFunction,Conductor*%
G36*
X116821575Y-99552007D02*
G01*
X116787500Y-99679174D01*
X116787500Y-99810826D01*
X116821575Y-99937993D01*
X116854488Y-99995000D01*
X115180512Y-99995000D01*
X115213425Y-99937993D01*
X115247500Y-99810826D01*
X115247500Y-99679174D01*
X115213425Y-99552007D01*
X115180512Y-99495000D01*
X116854488Y-99495000D01*
X116821575Y-99552007D01*
G37*
%TD.AperFunction*%
%TA.AperFunction,Conductor*%
G36*
X119361575Y-99552007D02*
G01*
X119327500Y-99679174D01*
X119327500Y-99810826D01*
X119361575Y-99937993D01*
X119394488Y-99995000D01*
X117720512Y-99995000D01*
X117753425Y-99937993D01*
X117787500Y-99810826D01*
X117787500Y-99679174D01*
X117753425Y-99552007D01*
X117720512Y-99495000D01*
X119394488Y-99495000D01*
X119361575Y-99552007D01*
G37*
%TD.AperFunction*%
%TA.AperFunction,Conductor*%
G36*
X96058017Y-97963907D02*
G01*
X96093981Y-98013407D01*
X96093981Y-98074593D01*
X96058017Y-98124093D01*
X96047272Y-98130890D01*
X95949488Y-98184283D01*
X95737590Y-98342908D01*
X95550408Y-98530090D01*
X95391783Y-98741988D01*
X95264927Y-98974307D01*
X95264926Y-98974309D01*
X95172424Y-99222317D01*
X95116156Y-99480979D01*
X95097273Y-99745000D01*
X95116156Y-100009020D01*
X95116156Y-100009023D01*
X95116157Y-100009026D01*
X95152194Y-100174684D01*
X95172424Y-100267682D01*
X95264926Y-100515690D01*
X95264927Y-100515692D01*
X95391784Y-100748011D01*
X95391783Y-100748011D01*
X95550408Y-100959909D01*
X95550410Y-100959911D01*
X95550413Y-100959915D01*
X95737585Y-101147087D01*
X95737588Y-101147089D01*
X95737590Y-101147091D01*
X95949488Y-101305716D01*
X96181807Y-101432572D01*
X96181811Y-101432574D01*
X96429817Y-101525075D01*
X96429822Y-101525077D01*
X96688474Y-101581343D01*
X96952500Y-101600227D01*
X97216526Y-101581343D01*
X97475178Y-101525077D01*
X97723189Y-101432574D01*
X97955511Y-101305716D01*
X98167415Y-101147087D01*
X98354587Y-100959915D01*
X98513216Y-100748011D01*
X98640074Y-100515689D01*
X98732577Y-100267678D01*
X98788843Y-100009026D01*
X98807727Y-99745000D01*
X98788843Y-99480974D01*
X98732577Y-99222322D01*
X98640074Y-98974311D01*
X98513216Y-98741989D01*
X98513215Y-98741988D01*
X98513216Y-98741988D01*
X98354591Y-98530090D01*
X98354589Y-98530088D01*
X98354587Y-98530085D01*
X98167415Y-98342913D01*
X98167411Y-98342910D01*
X98167409Y-98342908D01*
X97955511Y-98184283D01*
X97857728Y-98130890D01*
X97815717Y-98086408D01*
X97807875Y-98025727D01*
X97837198Y-97972026D01*
X97892486Y-97945816D01*
X97905174Y-97945000D01*
X123939826Y-97945000D01*
X123998017Y-97963907D01*
X124033981Y-98013407D01*
X124033981Y-98074593D01*
X123998017Y-98124093D01*
X123987272Y-98130890D01*
X123889488Y-98184283D01*
X123677590Y-98342908D01*
X123490408Y-98530090D01*
X123331783Y-98741988D01*
X123204927Y-98974307D01*
X123204926Y-98974309D01*
X123112424Y-99222317D01*
X123056156Y-99480979D01*
X123037273Y-99745000D01*
X123056156Y-100009020D01*
X123056156Y-100009023D01*
X123056157Y-100009026D01*
X123092194Y-100174684D01*
X123112424Y-100267682D01*
X123204926Y-100515690D01*
X123204927Y-100515692D01*
X123331784Y-100748011D01*
X123331783Y-100748011D01*
X123490408Y-100959909D01*
X123490410Y-100959911D01*
X123490413Y-100959915D01*
X123677585Y-101147087D01*
X123677588Y-101147089D01*
X123677590Y-101147091D01*
X123889488Y-101305716D01*
X124121807Y-101432572D01*
X124121811Y-101432574D01*
X124369817Y-101525075D01*
X124369822Y-101525077D01*
X124628474Y-101581343D01*
X124892500Y-101600227D01*
X125156526Y-101581343D01*
X125415178Y-101525077D01*
X125663189Y-101432574D01*
X125895511Y-101305716D01*
X126107415Y-101147087D01*
X126294587Y-100959915D01*
X126453216Y-100748011D01*
X126580074Y-100515689D01*
X126640742Y-100353030D01*
X126678793Y-100305117D01*
X126737740Y-100288719D01*
X126795067Y-100310101D01*
X126828878Y-100361096D01*
X126832500Y-100387628D01*
X126832500Y-121962371D01*
X126813593Y-122020562D01*
X126764093Y-122056526D01*
X126702907Y-122056526D01*
X126653407Y-122020562D01*
X126640742Y-121996968D01*
X126589500Y-121859583D01*
X126580074Y-121834311D01*
X126453216Y-121601989D01*
X126453215Y-121601988D01*
X126453216Y-121601988D01*
X126294591Y-121390090D01*
X126294589Y-121390088D01*
X126294587Y-121390085D01*
X126107415Y-121202913D01*
X126107411Y-121202910D01*
X126107409Y-121202908D01*
X125895511Y-121044283D01*
X125663192Y-120917427D01*
X125663190Y-120917426D01*
X125415181Y-120824924D01*
X125415183Y-120824924D01*
X125357459Y-120812367D01*
X125156526Y-120768657D01*
X125156523Y-120768656D01*
X125156520Y-120768656D01*
X124892500Y-120749773D01*
X124628479Y-120768656D01*
X124628474Y-120768656D01*
X124628474Y-120768657D01*
X124620604Y-120770369D01*
X124369817Y-120824924D01*
X124121809Y-120917426D01*
X124121807Y-120917427D01*
X123889488Y-121044283D01*
X123677590Y-121202908D01*
X123490408Y-121390090D01*
X123331783Y-121601988D01*
X123204927Y-121834307D01*
X123204926Y-121834309D01*
X123112424Y-122082317D01*
X123096074Y-122157477D01*
X123079384Y-122234203D01*
X123056156Y-122340979D01*
X123037273Y-122605000D01*
X123056156Y-122869020D01*
X123056156Y-122869023D01*
X123056157Y-122869026D01*
X123111732Y-123124500D01*
X123112424Y-123127682D01*
X123204926Y-123375690D01*
X123204927Y-123375692D01*
X123331784Y-123608011D01*
X123331783Y-123608011D01*
X123490408Y-123819909D01*
X123490410Y-123819911D01*
X123490413Y-123819915D01*
X123677585Y-124007087D01*
X123677588Y-124007089D01*
X123677590Y-124007091D01*
X123889488Y-124165716D01*
X123987272Y-124219110D01*
X124029283Y-124263592D01*
X124037125Y-124324273D01*
X124007802Y-124377974D01*
X123952514Y-124404184D01*
X123939826Y-124405000D01*
X99675276Y-124405000D01*
X99617085Y-124386093D01*
X99581121Y-124336593D01*
X99581121Y-124275407D01*
X99617085Y-124225907D01*
X99621722Y-124222735D01*
X99714589Y-124163055D01*
X99804130Y-124059718D01*
X99860931Y-123935342D01*
X99871804Y-123859718D01*
X99880390Y-123800002D01*
X99880390Y-123799997D01*
X99860932Y-123664662D01*
X99860930Y-123664654D01*
X99804131Y-123540284D01*
X99804130Y-123540283D01*
X99804130Y-123540282D01*
X99714589Y-123436945D01*
X99599561Y-123363022D01*
X99556629Y-123350416D01*
X99468368Y-123324500D01*
X99468367Y-123324500D01*
X99461190Y-123324500D01*
X99402999Y-123305593D01*
X99391186Y-123295504D01*
X99379496Y-123283814D01*
X99351719Y-123229297D01*
X99350500Y-123213810D01*
X99350500Y-119946136D01*
X99369407Y-119887945D01*
X99374682Y-119881304D01*
X99410717Y-119839718D01*
X99410718Y-119839716D01*
X99467517Y-119715345D01*
X99467519Y-119715337D01*
X99486977Y-119580002D01*
X99486977Y-119579997D01*
X99470959Y-119468589D01*
X99481392Y-119408300D01*
X99525270Y-119365658D01*
X99568951Y-119355500D01*
X101052895Y-119355500D01*
X101111086Y-119374407D01*
X101122899Y-119384496D01*
X101432963Y-119694560D01*
X101460740Y-119749077D01*
X101460951Y-119750475D01*
X101473153Y-119835341D01*
X101524884Y-119948614D01*
X101529955Y-119959718D01*
X101619496Y-120063055D01*
X101651522Y-120083637D01*
X101690254Y-120131002D01*
X101697000Y-120166921D01*
X101697000Y-121405500D01*
X101678093Y-121463691D01*
X101628593Y-121499655D01*
X101598000Y-121504500D01*
X101172826Y-121504500D01*
X101172825Y-121504500D01*
X101172815Y-121504501D01*
X101099763Y-121519033D01*
X101099757Y-121519035D01*
X101016900Y-121574397D01*
X101016897Y-121574400D01*
X100961535Y-121657257D01*
X100961533Y-121657263D01*
X100947001Y-121730315D01*
X100947000Y-121730327D01*
X100947000Y-123479672D01*
X100947001Y-123479684D01*
X100961533Y-123552736D01*
X100961535Y-123552742D01*
X101016897Y-123635599D01*
X101016900Y-123635602D01*
X101065424Y-123668024D01*
X101099760Y-123690966D01*
X101147690Y-123700500D01*
X101172815Y-123705498D01*
X101172820Y-123705498D01*
X101172826Y-123705500D01*
X101172827Y-123705500D01*
X102922173Y-123705500D01*
X102922174Y-123705500D01*
X102995240Y-123690966D01*
X103078101Y-123635601D01*
X103133466Y-123552740D01*
X103148000Y-123479674D01*
X103148000Y-122605000D01*
X103482285Y-122605000D01*
X103501103Y-122808083D01*
X103556918Y-123004250D01*
X103647827Y-123186821D01*
X103770736Y-123349579D01*
X103921459Y-123486981D01*
X104094863Y-123594348D01*
X104285044Y-123668024D01*
X104485524Y-123705500D01*
X104689476Y-123705500D01*
X104889956Y-123668024D01*
X105080137Y-123594348D01*
X105253541Y-123486981D01*
X105404264Y-123349579D01*
X105527173Y-123186821D01*
X105618082Y-123004250D01*
X105673897Y-122808083D01*
X105692715Y-122605000D01*
X105673897Y-122401917D01*
X105618082Y-122205750D01*
X105527173Y-122023179D01*
X105404264Y-121860421D01*
X105253541Y-121723019D01*
X105080137Y-121615652D01*
X104889956Y-121541976D01*
X104889955Y-121541975D01*
X104889953Y-121541975D01*
X104689476Y-121504500D01*
X104485524Y-121504500D01*
X104285046Y-121541975D01*
X104215132Y-121569059D01*
X104094863Y-121615652D01*
X104027664Y-121657260D01*
X103921459Y-121723019D01*
X103799380Y-121834309D01*
X103770736Y-121860421D01*
X103730888Y-121913188D01*
X103647828Y-122023177D01*
X103647823Y-122023186D01*
X103556919Y-122205747D01*
X103556918Y-122205750D01*
X103501103Y-122401917D01*
X103482285Y-122605000D01*
X103148000Y-122605000D01*
X103148000Y-121730326D01*
X103147005Y-121725326D01*
X103144515Y-121712808D01*
X103133466Y-121657260D01*
X103078101Y-121574399D01*
X103078099Y-121574397D01*
X102995242Y-121519035D01*
X102995240Y-121519034D01*
X102995237Y-121519033D01*
X102995236Y-121519033D01*
X102922184Y-121504501D01*
X102922174Y-121504500D01*
X102922173Y-121504500D01*
X102497000Y-121504500D01*
X102438809Y-121485593D01*
X102402845Y-121436093D01*
X102398000Y-121405500D01*
X102398000Y-119821665D01*
X102399008Y-119807576D01*
X102414475Y-119700002D01*
X102414475Y-119699997D01*
X102395017Y-119564662D01*
X102395015Y-119564654D01*
X102338216Y-119440284D01*
X102338215Y-119440283D01*
X102338215Y-119440282D01*
X102248674Y-119336945D01*
X102133646Y-119263022D01*
X102122394Y-119259718D01*
X102002453Y-119224500D01*
X102002452Y-119224500D01*
X101995274Y-119224500D01*
X101937083Y-119205593D01*
X101925270Y-119195504D01*
X101711075Y-118981309D01*
X101454297Y-118724530D01*
X101374373Y-118678386D01*
X101285229Y-118654500D01*
X98722270Y-118654500D01*
X98651010Y-118673594D01*
X98633126Y-118678386D01*
X98553202Y-118724530D01*
X97257228Y-120020504D01*
X97202711Y-120048281D01*
X97187224Y-120049500D01*
X95144412Y-120049500D01*
X95086221Y-120030593D01*
X95050257Y-119981093D01*
X95045979Y-119939919D01*
X95050500Y-119897873D01*
X95050499Y-118902128D01*
X95044091Y-118842517D01*
X95043221Y-118840184D01*
X94993797Y-118707670D01*
X94907549Y-118592458D01*
X94907548Y-118592457D01*
X94907546Y-118592454D01*
X94904936Y-118590500D01*
X94792329Y-118506202D01*
X94657488Y-118455910D01*
X94657483Y-118455909D01*
X94657481Y-118455908D01*
X94657477Y-118455908D01*
X94624762Y-118452391D01*
X94597873Y-118449500D01*
X94597870Y-118449500D01*
X93933540Y-118449500D01*
X93875349Y-118430593D01*
X93839385Y-118381093D01*
X93835548Y-118336410D01*
X93836461Y-118330065D01*
X93843815Y-118278913D01*
X93841995Y-118266255D01*
X93824357Y-118143575D01*
X93824355Y-118143567D01*
X93767556Y-118019197D01*
X93767555Y-118019196D01*
X93767555Y-118019195D01*
X93678014Y-117915858D01*
X93562986Y-117841935D01*
X93562983Y-117841934D01*
X93431793Y-117803413D01*
X93431792Y-117803413D01*
X93295058Y-117803413D01*
X93295056Y-117803413D01*
X93163866Y-117841934D01*
X93163864Y-117841934D01*
X93163864Y-117841935D01*
X93048836Y-117915858D01*
X93048835Y-117915858D01*
X93048835Y-117915859D01*
X92959294Y-118019196D01*
X92902493Y-118143571D01*
X92901599Y-118149791D01*
X92874603Y-118204698D01*
X92873611Y-118205705D01*
X92655354Y-118423962D01*
X92600837Y-118451739D01*
X92574770Y-118452391D01*
X92550908Y-118449826D01*
X92547873Y-118449500D01*
X92547872Y-118449500D01*
X91802133Y-118449500D01*
X91802129Y-118449500D01*
X91802128Y-118449501D01*
X91794949Y-118450272D01*
X91742519Y-118455908D01*
X91742514Y-118455909D01*
X91607670Y-118506202D01*
X91492458Y-118592450D01*
X91492450Y-118592458D01*
X91406202Y-118707670D01*
X91355910Y-118842511D01*
X91355908Y-118842522D01*
X91349500Y-118902129D01*
X91349500Y-119399554D01*
X91330593Y-119457745D01*
X91281093Y-119493709D01*
X91219907Y-119493709D01*
X91180496Y-119469558D01*
X90660438Y-118949500D01*
X90134070Y-118423132D01*
X90106295Y-118368618D01*
X90115866Y-118308186D01*
X90137381Y-118279969D01*
X90154264Y-118264579D01*
X90263818Y-118119505D01*
X90313972Y-118084464D01*
X90375147Y-118085595D01*
X90417639Y-118114337D01*
X90442974Y-118143575D01*
X90448201Y-118149607D01*
X90563229Y-118223530D01*
X90694423Y-118262052D01*
X90694424Y-118262052D01*
X90831156Y-118262052D01*
X90831157Y-118262052D01*
X90962351Y-118223530D01*
X91077379Y-118149607D01*
X91166920Y-118046270D01*
X91197263Y-117979829D01*
X91223720Y-117921897D01*
X91223722Y-117921889D01*
X91243180Y-117786554D01*
X91243180Y-117786549D01*
X91223722Y-117651214D01*
X91223720Y-117651206D01*
X91166921Y-117526836D01*
X91166920Y-117526835D01*
X91166920Y-117526834D01*
X91077379Y-117423497D01*
X90962351Y-117349574D01*
X90962349Y-117349573D01*
X90962347Y-117349572D01*
X90946605Y-117344950D01*
X90896100Y-117310412D01*
X90875540Y-117252785D01*
X90875500Y-117249961D01*
X90875500Y-106978856D01*
X91074500Y-106978856D01*
X91074500Y-108221144D01*
X91098386Y-108310288D01*
X91098387Y-108310290D01*
X91126038Y-108358183D01*
X91144531Y-108390212D01*
X91209788Y-108455469D01*
X91285450Y-108499153D01*
X91326389Y-108544621D01*
X91334948Y-108584888D01*
X91334948Y-110524752D01*
X91331575Y-110550373D01*
X91324500Y-110576777D01*
X91324500Y-110576780D01*
X91324500Y-111623220D01*
X91331575Y-111649623D01*
X91334948Y-111675246D01*
X91334948Y-112158262D01*
X91316041Y-112216453D01*
X91305952Y-112228265D01*
X91219531Y-112314686D01*
X91189857Y-112366083D01*
X91189856Y-112366082D01*
X91173387Y-112394607D01*
X91167264Y-112417458D01*
X91149500Y-112483756D01*
X91149500Y-114066244D01*
X91157972Y-114097861D01*
X91165110Y-114124500D01*
X91165110Y-114124501D01*
X91173384Y-114155384D01*
X91173385Y-114155387D01*
X91173386Y-114155388D01*
X91219530Y-114235312D01*
X91305953Y-114321735D01*
X91333729Y-114376250D01*
X91334948Y-114391737D01*
X91334948Y-114506592D01*
X91354817Y-114580748D01*
X91358833Y-114595737D01*
X91358835Y-114595740D01*
X91403038Y-114672301D01*
X91404978Y-114675661D01*
X91833227Y-115103909D01*
X92085494Y-115356176D01*
X92113271Y-115410693D01*
X92103700Y-115471125D01*
X92060435Y-115514390D01*
X92026074Y-115524613D01*
X91967522Y-115530908D01*
X91967512Y-115530910D01*
X91832671Y-115581202D01*
X91717458Y-115667450D01*
X91717450Y-115667458D01*
X91631202Y-115782671D01*
X91580910Y-115917512D01*
X91580908Y-115917523D01*
X91577230Y-115951736D01*
X91574500Y-115977128D01*
X91574500Y-117072872D01*
X91577550Y-117101248D01*
X91580908Y-117132476D01*
X91580910Y-117132487D01*
X91631202Y-117267328D01*
X91710597Y-117373386D01*
X91717454Y-117382546D01*
X91717457Y-117382548D01*
X91717458Y-117382549D01*
X91832671Y-117468797D01*
X91967512Y-117519089D01*
X91967513Y-117519089D01*
X91967518Y-117519091D01*
X92027128Y-117525500D01*
X92027131Y-117525500D01*
X93972869Y-117525500D01*
X93972872Y-117525500D01*
X94032482Y-117519091D01*
X94130478Y-117482541D01*
X94167328Y-117468797D01*
X94167328Y-117468796D01*
X94167330Y-117468796D01*
X94282546Y-117382546D01*
X94368796Y-117267330D01*
X94380850Y-117235013D01*
X94408792Y-117160096D01*
X94419091Y-117132482D01*
X94425500Y-117072872D01*
X94425500Y-116505856D01*
X94444407Y-116447665D01*
X94493907Y-116411701D01*
X94555093Y-116411701D01*
X94578021Y-116422571D01*
X94600439Y-116436978D01*
X94731633Y-116475500D01*
X94731634Y-116475500D01*
X94868366Y-116475500D01*
X94868367Y-116475500D01*
X94999561Y-116436978D01*
X95114589Y-116363055D01*
X95204130Y-116259718D01*
X95232530Y-116197530D01*
X95260930Y-116135345D01*
X95260932Y-116135337D01*
X95280390Y-116000002D01*
X95280390Y-115999997D01*
X95260932Y-115864662D01*
X95260930Y-115864654D01*
X95204131Y-115740284D01*
X95204130Y-115740283D01*
X95204130Y-115740282D01*
X95114589Y-115636945D01*
X94999561Y-115563022D01*
X94995471Y-115561821D01*
X94868368Y-115524500D01*
X94868367Y-115524500D01*
X94731633Y-115524500D01*
X94731631Y-115524500D01*
X94600441Y-115563021D01*
X94600439Y-115563021D01*
X94600439Y-115563022D01*
X94572150Y-115581202D01*
X94485409Y-115636946D01*
X94444770Y-115683847D01*
X94392374Y-115715442D01*
X94331413Y-115710206D01*
X94290697Y-115678343D01*
X94282546Y-115667454D01*
X94246953Y-115640809D01*
X94167328Y-115581202D01*
X94032487Y-115530910D01*
X94032482Y-115530909D01*
X94032480Y-115530908D01*
X94032476Y-115530908D01*
X94001248Y-115527550D01*
X93972872Y-115524500D01*
X93972869Y-115524500D01*
X93286188Y-115524500D01*
X93227997Y-115505593D01*
X93216184Y-115495504D01*
X93130549Y-115409869D01*
X93102772Y-115355352D01*
X93112343Y-115294920D01*
X93155608Y-115251655D01*
X93172647Y-115244880D01*
X93199561Y-115236978D01*
X93314589Y-115163055D01*
X93404130Y-115059718D01*
X93448290Y-114963022D01*
X93460930Y-114935345D01*
X93460932Y-114935337D01*
X93480390Y-114800002D01*
X93480390Y-114799997D01*
X93460932Y-114664662D01*
X93460930Y-114664654D01*
X93404131Y-114540284D01*
X93404130Y-114540283D01*
X93404130Y-114540282D01*
X93316655Y-114439329D01*
X93292839Y-114382971D01*
X93306698Y-114323376D01*
X93352939Y-114283309D01*
X93391476Y-114275500D01*
X93972869Y-114275500D01*
X93972872Y-114275500D01*
X94032482Y-114269091D01*
X94079304Y-114251627D01*
X94167328Y-114218797D01*
X94167328Y-114218796D01*
X94167330Y-114218796D01*
X94282546Y-114132546D01*
X94368796Y-114017330D01*
X94376882Y-113995652D01*
X94419089Y-113882487D01*
X94419088Y-113882487D01*
X94419091Y-113882482D01*
X94425500Y-113822872D01*
X94425500Y-112727128D01*
X94419091Y-112667518D01*
X94419010Y-112667301D01*
X94368797Y-112532671D01*
X94282549Y-112417458D01*
X94282548Y-112417457D01*
X94282546Y-112417454D01*
X94272833Y-112410183D01*
X94167328Y-112331202D01*
X94032487Y-112280910D01*
X94032482Y-112280909D01*
X94032480Y-112280908D01*
X94032476Y-112280908D01*
X94001248Y-112277550D01*
X93972872Y-112274500D01*
X93972869Y-112274500D01*
X93449500Y-112274500D01*
X93391309Y-112255593D01*
X93355345Y-112206093D01*
X93350500Y-112175500D01*
X93350500Y-111653857D01*
X93350500Y-111653856D01*
X93326614Y-111564712D01*
X93307111Y-111530932D01*
X93306449Y-111529786D01*
X93302538Y-111523011D01*
X93289814Y-111463163D01*
X93293279Y-111448432D01*
X93292827Y-111448325D01*
X93294251Y-111442299D01*
X93296057Y-111425500D01*
X93300500Y-111384174D01*
X93300500Y-110815826D01*
X93294251Y-110757701D01*
X93294248Y-110757692D01*
X93245213Y-110626223D01*
X93161119Y-110513888D01*
X93161118Y-110513887D01*
X93161116Y-110513884D01*
X93127726Y-110488888D01*
X93048776Y-110429786D01*
X92917304Y-110380750D01*
X92917299Y-110380749D01*
X92917297Y-110380748D01*
X92917293Y-110380748D01*
X92891011Y-110377922D01*
X92859174Y-110374500D01*
X92190826Y-110374500D01*
X92190824Y-110374500D01*
X92145528Y-110379369D01*
X92085650Y-110366789D01*
X92044602Y-110321416D01*
X92035948Y-110280936D01*
X92035948Y-108408138D01*
X92054855Y-108349947D01*
X92104355Y-108313983D01*
X92165541Y-108313983D01*
X92204952Y-108338134D01*
X92645504Y-108778686D01*
X92673281Y-108833203D01*
X92674500Y-108848690D01*
X92674500Y-109209170D01*
X92674499Y-109209170D01*
X92680748Y-109267293D01*
X92680750Y-109267304D01*
X92729786Y-109398776D01*
X92792236Y-109482198D01*
X92813884Y-109511116D01*
X92813887Y-109511118D01*
X92813888Y-109511119D01*
X92926223Y-109595213D01*
X93057695Y-109644249D01*
X93057696Y-109644249D01*
X93057701Y-109644251D01*
X93115826Y-109650500D01*
X93476310Y-109650500D01*
X93534501Y-109669407D01*
X93546314Y-109679496D01*
X94020504Y-110153686D01*
X94048281Y-110208203D01*
X94049500Y-110223690D01*
X94049500Y-110275500D01*
X94030593Y-110333691D01*
X93981093Y-110369655D01*
X93950500Y-110374500D01*
X93940826Y-110374500D01*
X93912823Y-110377510D01*
X93882706Y-110380748D01*
X93882695Y-110380750D01*
X93751223Y-110429786D01*
X93638888Y-110513880D01*
X93638880Y-110513888D01*
X93554786Y-110626223D01*
X93505750Y-110757695D01*
X93505748Y-110757706D01*
X93499500Y-110815829D01*
X93499500Y-111384170D01*
X93499499Y-111384170D01*
X93505748Y-111442293D01*
X93505750Y-111442304D01*
X93554786Y-111573776D01*
X93638880Y-111686111D01*
X93638884Y-111686116D01*
X93638887Y-111686118D01*
X93638888Y-111686119D01*
X93751223Y-111770213D01*
X93882695Y-111819249D01*
X93882696Y-111819249D01*
X93882701Y-111819251D01*
X93940826Y-111825500D01*
X93940830Y-111825500D01*
X94609170Y-111825500D01*
X94609174Y-111825500D01*
X94667299Y-111819251D01*
X94726629Y-111797122D01*
X94798776Y-111770213D01*
X94798776Y-111770212D01*
X94798778Y-111770212D01*
X94911116Y-111686116D01*
X94995212Y-111573778D01*
X94995900Y-111571935D01*
X95039271Y-111455652D01*
X95044251Y-111442299D01*
X95050500Y-111384174D01*
X95050500Y-110815826D01*
X95044251Y-110757701D01*
X95044248Y-110757692D01*
X94995213Y-110626223D01*
X94911119Y-110513888D01*
X94911118Y-110513887D01*
X94911116Y-110513884D01*
X94877726Y-110488888D01*
X94793110Y-110425544D01*
X94794545Y-110423626D01*
X94760041Y-110387089D01*
X94750500Y-110344686D01*
X94750500Y-109991357D01*
X94750500Y-109991356D01*
X94726614Y-109902212D01*
X94717886Y-109887095D01*
X94717886Y-109887094D01*
X94680471Y-109822290D01*
X94680470Y-109822288D01*
X94153347Y-109295165D01*
X94125570Y-109240648D01*
X94124919Y-109214575D01*
X94125500Y-109209174D01*
X94125500Y-108515826D01*
X94119251Y-108457701D01*
X94118419Y-108455469D01*
X94070213Y-108326223D01*
X94016908Y-108255017D01*
X93987066Y-108215153D01*
X93967330Y-108157240D01*
X93985404Y-108098786D01*
X94014347Y-108071565D01*
X94098038Y-108019943D01*
X94219946Y-107898035D01*
X94310451Y-107751306D01*
X94364681Y-107587648D01*
X94375000Y-107486655D01*
X94375000Y-107387501D01*
X94374999Y-107387500D01*
X93499000Y-107387500D01*
X93440809Y-107368593D01*
X93404845Y-107319093D01*
X93400000Y-107288500D01*
X93400000Y-107137501D01*
X93399999Y-107137500D01*
X93249000Y-107137500D01*
X93190809Y-107118593D01*
X93154845Y-107069093D01*
X93150000Y-107038500D01*
X93150000Y-106100001D01*
X93650000Y-106100001D01*
X93650000Y-106887499D01*
X93650001Y-106887500D01*
X94374998Y-106887500D01*
X94374999Y-106887499D01*
X94374999Y-106788345D01*
X94364682Y-106687357D01*
X94364679Y-106687345D01*
X94310451Y-106523693D01*
X94219946Y-106376964D01*
X94098035Y-106255053D01*
X93951306Y-106164548D01*
X93787648Y-106110318D01*
X93686655Y-106100000D01*
X93650001Y-106100000D01*
X93650000Y-106100001D01*
X93150000Y-106100001D01*
X93150000Y-106100000D01*
X93113364Y-106100000D01*
X93059560Y-106105497D01*
X92999750Y-106092600D01*
X92958942Y-106047011D01*
X92950500Y-106007009D01*
X92950500Y-105626357D01*
X92950500Y-105626356D01*
X92926614Y-105537212D01*
X92926612Y-105537209D01*
X92925873Y-105534449D01*
X92922500Y-105508826D01*
X92922500Y-105350001D01*
X93422500Y-105350001D01*
X93422500Y-105919999D01*
X93422501Y-105920000D01*
X93448334Y-105920000D01*
X93448345Y-105919999D01*
X93514841Y-105913957D01*
X93514847Y-105913955D01*
X93667855Y-105866276D01*
X93667867Y-105866271D01*
X93805020Y-105783359D01*
X93918359Y-105670020D01*
X94001271Y-105532867D01*
X94001276Y-105532855D01*
X94048956Y-105379844D01*
X94051668Y-105350000D01*
X93422501Y-105350000D01*
X93422500Y-105350001D01*
X92922500Y-105350001D01*
X92922500Y-105199000D01*
X92941407Y-105140809D01*
X92990907Y-105104845D01*
X93021500Y-105100000D01*
X93172499Y-105100000D01*
X93172500Y-105099999D01*
X93172500Y-104949000D01*
X93191407Y-104890809D01*
X93240907Y-104854845D01*
X93271500Y-104850000D01*
X94051668Y-104850000D01*
X94051668Y-104849999D01*
X94048956Y-104820155D01*
X94001276Y-104667144D01*
X94001271Y-104667132D01*
X93918359Y-104529979D01*
X93805020Y-104416640D01*
X93667867Y-104333728D01*
X93667855Y-104333723D01*
X93535708Y-104292544D01*
X93485777Y-104257181D01*
X93466168Y-104199223D01*
X93484371Y-104140808D01*
X93495149Y-104128031D01*
X94843686Y-102779496D01*
X94898203Y-102751719D01*
X94913690Y-102750500D01*
X99246142Y-102750500D01*
X99246144Y-102750500D01*
X99335288Y-102726614D01*
X99362332Y-102711000D01*
X99415212Y-102680470D01*
X100606186Y-101489496D01*
X100660703Y-101461719D01*
X100676190Y-101460500D01*
X100848000Y-101460500D01*
X100906191Y-101479407D01*
X100942155Y-101528907D01*
X100947000Y-101559500D01*
X100947000Y-102848810D01*
X100928093Y-102907001D01*
X100918004Y-102918814D01*
X100816314Y-103020504D01*
X100761797Y-103048281D01*
X100746310Y-103049500D01*
X97981356Y-103049500D01*
X97892212Y-103073386D01*
X97832876Y-103107644D01*
X97812285Y-103119532D01*
X96431311Y-104500504D01*
X96376795Y-104528281D01*
X96361308Y-104529500D01*
X96072691Y-104529500D01*
X95976567Y-104544725D01*
X95976560Y-104544727D01*
X95860708Y-104603757D01*
X95768757Y-104695708D01*
X95709726Y-104811563D01*
X95709725Y-104811565D01*
X95694500Y-104907691D01*
X95694500Y-105229114D01*
X95681236Y-105278614D01*
X95673387Y-105292207D01*
X95649500Y-105381357D01*
X95649500Y-105862960D01*
X95630593Y-105921151D01*
X95605501Y-105945276D01*
X95569400Y-105969397D01*
X95569397Y-105969400D01*
X95514035Y-106052257D01*
X95514033Y-106052263D01*
X95499501Y-106125315D01*
X95499500Y-106125327D01*
X95499500Y-106674672D01*
X95499501Y-106674684D01*
X95514033Y-106747736D01*
X95514035Y-106747743D01*
X95528907Y-106770000D01*
X95545515Y-106828888D01*
X95528907Y-106880000D01*
X95514035Y-106902256D01*
X95514033Y-106902263D01*
X95499501Y-106975315D01*
X95499500Y-106975327D01*
X95499500Y-107474653D01*
X95486237Y-107524151D01*
X95448386Y-107589712D01*
X95437055Y-107632002D01*
X95424500Y-107678857D01*
X95424500Y-115046146D01*
X95442388Y-115112901D01*
X95442388Y-115112906D01*
X95442389Y-115112906D01*
X95448386Y-115135288D01*
X95494530Y-115215212D01*
X95494532Y-115215214D01*
X95926535Y-115647218D01*
X95954312Y-115701734D01*
X95944741Y-115762166D01*
X95935788Y-115776545D01*
X95931203Y-115782670D01*
X95880910Y-115917512D01*
X95880908Y-115917523D01*
X95877230Y-115951736D01*
X95874500Y-115977128D01*
X95874500Y-117072872D01*
X95877550Y-117101248D01*
X95880908Y-117132476D01*
X95880910Y-117132487D01*
X95931202Y-117267328D01*
X95971608Y-117321303D01*
X96000417Y-117359788D01*
X96005196Y-117366171D01*
X96024933Y-117424086D01*
X96006859Y-117482541D01*
X95957877Y-117519208D01*
X95925943Y-117524500D01*
X95831631Y-117524500D01*
X95700441Y-117563021D01*
X95700439Y-117563021D01*
X95700439Y-117563022D01*
X95585411Y-117636945D01*
X95585410Y-117636945D01*
X95585410Y-117636946D01*
X95495868Y-117740284D01*
X95439069Y-117864654D01*
X95439067Y-117864662D01*
X95419610Y-117999997D01*
X95419610Y-118000002D01*
X95439067Y-118135337D01*
X95439069Y-118135345D01*
X95495868Y-118259715D01*
X95495869Y-118259716D01*
X95495870Y-118259718D01*
X95585411Y-118363055D01*
X95700439Y-118436978D01*
X95831633Y-118475500D01*
X95831634Y-118475500D01*
X95968366Y-118475500D01*
X95968367Y-118475500D01*
X96099561Y-118436978D01*
X96214589Y-118363055D01*
X96304130Y-118259718D01*
X96335741Y-118190500D01*
X96360930Y-118135345D01*
X96360932Y-118135337D01*
X96380390Y-118000002D01*
X96380390Y-117999997D01*
X96360932Y-117864662D01*
X96360930Y-117864654D01*
X96304131Y-117740283D01*
X96304130Y-117740282D01*
X96259981Y-117689330D01*
X96236164Y-117632971D01*
X96250023Y-117573376D01*
X96296264Y-117533308D01*
X96334801Y-117525500D01*
X98272869Y-117525500D01*
X98272872Y-117525500D01*
X98332482Y-117519091D01*
X98430478Y-117482541D01*
X98467328Y-117468797D01*
X98467328Y-117468796D01*
X98467330Y-117468796D01*
X98582546Y-117382546D01*
X98668796Y-117267330D01*
X98680850Y-117235013D01*
X98708792Y-117160096D01*
X98719091Y-117132482D01*
X98725500Y-117072872D01*
X98725500Y-115977128D01*
X98719091Y-115917518D01*
X98711100Y-115896093D01*
X98668797Y-115782671D01*
X98582549Y-115667458D01*
X98582547Y-115667456D01*
X98582546Y-115667454D01*
X98546953Y-115640809D01*
X98467328Y-115581202D01*
X98332487Y-115530910D01*
X98332482Y-115530909D01*
X98332480Y-115530908D01*
X98332476Y-115530908D01*
X98301248Y-115527550D01*
X98272872Y-115524500D01*
X98272869Y-115524500D01*
X96836190Y-115524500D01*
X96777999Y-115505593D01*
X96766186Y-115495504D01*
X96154496Y-114883814D01*
X96126719Y-114829297D01*
X96125500Y-114813810D01*
X96125500Y-114358707D01*
X96144407Y-114300516D01*
X96193907Y-114264552D01*
X96255093Y-114264552D01*
X96259073Y-114265941D01*
X96267518Y-114269091D01*
X96327128Y-114275500D01*
X96327131Y-114275500D01*
X98272869Y-114275500D01*
X98272872Y-114275500D01*
X98332482Y-114269091D01*
X98379304Y-114251627D01*
X98467328Y-114218797D01*
X98467328Y-114218796D01*
X98467330Y-114218796D01*
X98582546Y-114132546D01*
X98668796Y-114017330D01*
X98676882Y-113995652D01*
X98719089Y-113882487D01*
X98719088Y-113882487D01*
X98719091Y-113882482D01*
X98725500Y-113822872D01*
X98725500Y-112727128D01*
X98719091Y-112667518D01*
X98719009Y-112667299D01*
X98668796Y-112532670D01*
X98664216Y-112526552D01*
X98644477Y-112468638D01*
X98662549Y-112410183D01*
X98673457Y-112397223D01*
X98980470Y-112090212D01*
X99026614Y-112010288D01*
X99030835Y-111994536D01*
X99030992Y-111993951D01*
X99036218Y-111974442D01*
X99050500Y-111921144D01*
X99050500Y-111855313D01*
X99069407Y-111797122D01*
X99093935Y-111775560D01*
X99093109Y-111774456D01*
X99119557Y-111754657D01*
X99211116Y-111686116D01*
X99295212Y-111573778D01*
X99295900Y-111571935D01*
X99339271Y-111455652D01*
X99344251Y-111442299D01*
X99350500Y-111384174D01*
X99350500Y-110815826D01*
X99344251Y-110757701D01*
X99344248Y-110757692D01*
X99295213Y-110626223D01*
X99211119Y-110513888D01*
X99211118Y-110513887D01*
X99211116Y-110513884D01*
X99177726Y-110488888D01*
X99098776Y-110429786D01*
X98967304Y-110380750D01*
X98967299Y-110380749D01*
X98967297Y-110380748D01*
X98967293Y-110380748D01*
X98941011Y-110377922D01*
X98909174Y-110374500D01*
X98909170Y-110374500D01*
X98505758Y-110374500D01*
X98447567Y-110355593D01*
X98411603Y-110306093D01*
X98411603Y-110244907D01*
X98415704Y-110234374D01*
X98416471Y-110232695D01*
X98460931Y-110135342D01*
X98461312Y-110132695D01*
X98480390Y-110000002D01*
X98480390Y-109999997D01*
X98460932Y-109864662D01*
X98460930Y-109864654D01*
X98404131Y-109740284D01*
X98404130Y-109740283D01*
X98404130Y-109740282D01*
X98314589Y-109636945D01*
X98309847Y-109632837D01*
X98278248Y-109580442D01*
X98283481Y-109519481D01*
X98295418Y-109498689D01*
X98370212Y-109398778D01*
X98381286Y-109369089D01*
X98408694Y-109295603D01*
X98419251Y-109267299D01*
X98425500Y-109209174D01*
X98425500Y-108515826D01*
X98419251Y-108457701D01*
X98418419Y-108455469D01*
X98370213Y-108326223D01*
X98316908Y-108255017D01*
X98287066Y-108215153D01*
X98267330Y-108157240D01*
X98285404Y-108098786D01*
X98314347Y-108071565D01*
X98398038Y-108019943D01*
X98519946Y-107898035D01*
X98610451Y-107751306D01*
X98664681Y-107587648D01*
X98675000Y-107486655D01*
X98675000Y-107387501D01*
X98674999Y-107387500D01*
X97799000Y-107387500D01*
X97740809Y-107368593D01*
X97704845Y-107319093D01*
X97700000Y-107288500D01*
X97700000Y-107137501D01*
X97699999Y-107137500D01*
X97549000Y-107137500D01*
X97490809Y-107118593D01*
X97454845Y-107069093D01*
X97450000Y-107038500D01*
X97450000Y-106100001D01*
X97950000Y-106100001D01*
X97950000Y-106887499D01*
X97950001Y-106887500D01*
X98674998Y-106887500D01*
X98674999Y-106887499D01*
X98674999Y-106788345D01*
X98664682Y-106687357D01*
X98664679Y-106687345D01*
X98610451Y-106523693D01*
X98519946Y-106376964D01*
X98398035Y-106255053D01*
X98251306Y-106164548D01*
X98087648Y-106110318D01*
X97986655Y-106100000D01*
X97950001Y-106100000D01*
X97950000Y-106100001D01*
X97450000Y-106100001D01*
X97450000Y-106100000D01*
X97413357Y-106100000D01*
X97413351Y-106100001D01*
X97312357Y-106110317D01*
X97312345Y-106110320D01*
X97148693Y-106164548D01*
X97001964Y-106255053D01*
X97001956Y-106255059D01*
X96996349Y-106260667D01*
X96941831Y-106288442D01*
X96881399Y-106278867D01*
X96856348Y-106260666D01*
X96715212Y-106119530D01*
X96635288Y-106073386D01*
X96630094Y-106071994D01*
X96620408Y-106069398D01*
X96620408Y-106069399D01*
X96546144Y-106049500D01*
X96546142Y-106049500D01*
X96537039Y-106049500D01*
X96478848Y-106030593D01*
X96454723Y-106005501D01*
X96430601Y-105969399D01*
X96430599Y-105969397D01*
X96394499Y-105945276D01*
X96356619Y-105897226D01*
X96350500Y-105862960D01*
X96350500Y-105769499D01*
X96369407Y-105711308D01*
X96418907Y-105675344D01*
X96449500Y-105670499D01*
X96582308Y-105670499D01*
X96605561Y-105666816D01*
X96657498Y-105658590D01*
X96717928Y-105668161D01*
X96742987Y-105686367D01*
X96839979Y-105783359D01*
X96977132Y-105866271D01*
X96977144Y-105866276D01*
X97130152Y-105913955D01*
X97130158Y-105913957D01*
X97196654Y-105919999D01*
X97196666Y-105920000D01*
X97222499Y-105920000D01*
X97222500Y-105919999D01*
X97222500Y-105350001D01*
X97722500Y-105350001D01*
X97722500Y-105919999D01*
X97722501Y-105920000D01*
X97748334Y-105920000D01*
X97748345Y-105919999D01*
X97814841Y-105913957D01*
X97814847Y-105913955D01*
X97967855Y-105866276D01*
X97967867Y-105866271D01*
X98105020Y-105783359D01*
X98218359Y-105670020D01*
X98301271Y-105532867D01*
X98301276Y-105532855D01*
X98348956Y-105379844D01*
X98351668Y-105350000D01*
X97722501Y-105350000D01*
X97722500Y-105350001D01*
X97222500Y-105350001D01*
X97222500Y-105199000D01*
X97241407Y-105140809D01*
X97290907Y-105104845D01*
X97321500Y-105100000D01*
X97472499Y-105100000D01*
X97472500Y-105099999D01*
X97472500Y-104949000D01*
X97491407Y-104890809D01*
X97540907Y-104854845D01*
X97571500Y-104850000D01*
X98351668Y-104850000D01*
X98351668Y-104849999D01*
X98348956Y-104820155D01*
X98301276Y-104667144D01*
X98301271Y-104667132D01*
X98218359Y-104529979D01*
X98105020Y-104416640D01*
X97967867Y-104333728D01*
X97967855Y-104333723D01*
X97835709Y-104292544D01*
X97785778Y-104257181D01*
X97766169Y-104199223D01*
X97784372Y-104140808D01*
X97795159Y-104128023D01*
X98143687Y-103779496D01*
X98198203Y-103751719D01*
X98213690Y-103750500D01*
X100978642Y-103750500D01*
X100978644Y-103750500D01*
X101067788Y-103726614D01*
X101076002Y-103721871D01*
X101080109Y-103719501D01*
X101100192Y-103707905D01*
X101147712Y-103680470D01*
X101313089Y-103515093D01*
X101413687Y-103414496D01*
X101468203Y-103386719D01*
X101483690Y-103385500D01*
X101607311Y-103385500D01*
X101665502Y-103404407D01*
X101701466Y-103453907D01*
X101701466Y-103515093D01*
X101677314Y-103554504D01*
X100731311Y-104500504D01*
X100676795Y-104528281D01*
X100661308Y-104529500D01*
X100372691Y-104529500D01*
X100276567Y-104544725D01*
X100276560Y-104544727D01*
X100160708Y-104603757D01*
X100068757Y-104695708D01*
X100009726Y-104811563D01*
X100009725Y-104811565D01*
X99994500Y-104907691D01*
X99994500Y-105229114D01*
X99981236Y-105278614D01*
X99973387Y-105292207D01*
X99949500Y-105381357D01*
X99949500Y-105787960D01*
X99930593Y-105846151D01*
X99905501Y-105870276D01*
X99869400Y-105894397D01*
X99869397Y-105894400D01*
X99814035Y-105977257D01*
X99814033Y-105977263D01*
X99799501Y-106050315D01*
X99799500Y-106050327D01*
X99799500Y-106599672D01*
X99799501Y-106599684D01*
X99814033Y-106672736D01*
X99814035Y-106672743D01*
X99828907Y-106695000D01*
X99845515Y-106753888D01*
X99828907Y-106805000D01*
X99814035Y-106827256D01*
X99814033Y-106827263D01*
X99799501Y-106900315D01*
X99799500Y-106900327D01*
X99799500Y-107388810D01*
X99780593Y-107447001D01*
X99770504Y-107458813D01*
X99619529Y-107609788D01*
X99582812Y-107673385D01*
X99582812Y-107673386D01*
X99573387Y-107689709D01*
X99573386Y-107689711D01*
X99573386Y-107689712D01*
X99554754Y-107759250D01*
X99549500Y-107778857D01*
X99549500Y-109241145D01*
X99563420Y-109293099D01*
X99573384Y-109330286D01*
X99573385Y-109330288D01*
X99573386Y-109330290D01*
X99619530Y-109410214D01*
X99619531Y-109410215D01*
X99619533Y-109410218D01*
X99695503Y-109486186D01*
X99723281Y-109540702D01*
X99724500Y-109556190D01*
X99724500Y-115046146D01*
X99742388Y-115112901D01*
X99742388Y-115112906D01*
X99742389Y-115112906D01*
X99748386Y-115135288D01*
X99794530Y-115215212D01*
X99794532Y-115215214D01*
X100226535Y-115647218D01*
X100254312Y-115701734D01*
X100244741Y-115762166D01*
X100235788Y-115776545D01*
X100231203Y-115782670D01*
X100180910Y-115917512D01*
X100180908Y-115917523D01*
X100177230Y-115951736D01*
X100174500Y-115977128D01*
X100174500Y-117072872D01*
X100177550Y-117101248D01*
X100180908Y-117132476D01*
X100180910Y-117132487D01*
X100231202Y-117267328D01*
X100310597Y-117373386D01*
X100317454Y-117382546D01*
X100317457Y-117382548D01*
X100317458Y-117382549D01*
X100432671Y-117468797D01*
X100567512Y-117519089D01*
X100567513Y-117519089D01*
X100567518Y-117519091D01*
X100627128Y-117525500D01*
X100627131Y-117525500D01*
X102572869Y-117525500D01*
X102572872Y-117525500D01*
X102632482Y-117519091D01*
X102730478Y-117482541D01*
X102767328Y-117468797D01*
X102767328Y-117468796D01*
X102767330Y-117468796D01*
X102882546Y-117382546D01*
X102968796Y-117267330D01*
X102980850Y-117235013D01*
X103008792Y-117160096D01*
X103019091Y-117132482D01*
X103025500Y-117072872D01*
X103025500Y-115977128D01*
X103019091Y-115917518D01*
X103011100Y-115896093D01*
X102968797Y-115782671D01*
X102882549Y-115667458D01*
X102882547Y-115667456D01*
X102882546Y-115667454D01*
X102846953Y-115640809D01*
X102767328Y-115581202D01*
X102632487Y-115530910D01*
X102632482Y-115530909D01*
X102632480Y-115530908D01*
X102632476Y-115530908D01*
X102601248Y-115527550D01*
X102572872Y-115524500D01*
X102572869Y-115524500D01*
X101136190Y-115524500D01*
X101077999Y-115505593D01*
X101066186Y-115495504D01*
X100454496Y-114883814D01*
X100426719Y-114829297D01*
X100425500Y-114813810D01*
X100425500Y-114358707D01*
X100444407Y-114300516D01*
X100493907Y-114264552D01*
X100555093Y-114264552D01*
X100559073Y-114265941D01*
X100567518Y-114269091D01*
X100627128Y-114275500D01*
X100627131Y-114275500D01*
X102572869Y-114275500D01*
X102572872Y-114275500D01*
X102632482Y-114269091D01*
X102679304Y-114251627D01*
X102767328Y-114218797D01*
X102767328Y-114218796D01*
X102767330Y-114218796D01*
X102882546Y-114132546D01*
X102968796Y-114017330D01*
X102976882Y-113995652D01*
X103019089Y-113882487D01*
X103019088Y-113882487D01*
X103019091Y-113882482D01*
X103025500Y-113822872D01*
X103025500Y-112727128D01*
X103019091Y-112667518D01*
X103019009Y-112667299D01*
X102968796Y-112532670D01*
X102964216Y-112526552D01*
X102944477Y-112468638D01*
X102962549Y-112410183D01*
X102973457Y-112397223D01*
X103280470Y-112090212D01*
X103326614Y-112010288D01*
X103330835Y-111994536D01*
X103330992Y-111993951D01*
X103336218Y-111974442D01*
X103350500Y-111921144D01*
X103350500Y-111855313D01*
X103369407Y-111797122D01*
X103393935Y-111775560D01*
X103393109Y-111774456D01*
X103419557Y-111754657D01*
X103511116Y-111686116D01*
X103595212Y-111573778D01*
X103595900Y-111571935D01*
X103639271Y-111455652D01*
X103644251Y-111442299D01*
X103650500Y-111384174D01*
X103650500Y-110815826D01*
X103644251Y-110757701D01*
X103644248Y-110757692D01*
X103595213Y-110626223D01*
X103511119Y-110513888D01*
X103511118Y-110513887D01*
X103511116Y-110513884D01*
X103477726Y-110488888D01*
X103398776Y-110429786D01*
X103267304Y-110380750D01*
X103267299Y-110380749D01*
X103267297Y-110380748D01*
X103267293Y-110380748D01*
X103241011Y-110377922D01*
X103209174Y-110374500D01*
X102540826Y-110374500D01*
X102512823Y-110377510D01*
X102482706Y-110380748D01*
X102482695Y-110380750D01*
X102434777Y-110398623D01*
X102373648Y-110401243D01*
X102322653Y-110367431D01*
X102301272Y-110310104D01*
X102314444Y-110256366D01*
X102326614Y-110235288D01*
X102336069Y-110200000D01*
X102350500Y-110146144D01*
X102350500Y-109709929D01*
X102369407Y-109651738D01*
X102414904Y-109617171D01*
X102473776Y-109595213D01*
X102473776Y-109595212D01*
X102473778Y-109595212D01*
X102586116Y-109511116D01*
X102670212Y-109398778D01*
X102681286Y-109369089D01*
X102708694Y-109295603D01*
X102719251Y-109267299D01*
X102725500Y-109209174D01*
X102725500Y-108515826D01*
X102719251Y-108457701D01*
X102718419Y-108455469D01*
X102670213Y-108326223D01*
X102616908Y-108255017D01*
X102587066Y-108215153D01*
X102567330Y-108157240D01*
X102585404Y-108098786D01*
X102614347Y-108071565D01*
X102698038Y-108019943D01*
X102819946Y-107898035D01*
X102910451Y-107751306D01*
X102964681Y-107587648D01*
X102975000Y-107486655D01*
X102975000Y-107387501D01*
X102974999Y-107387500D01*
X102099000Y-107387500D01*
X102040809Y-107368593D01*
X102004845Y-107319093D01*
X102000000Y-107288500D01*
X102000000Y-107137501D01*
X101999999Y-107137500D01*
X101849000Y-107137500D01*
X101790809Y-107118593D01*
X101754845Y-107069093D01*
X101750000Y-107038500D01*
X101750000Y-106100001D01*
X102250000Y-106100001D01*
X102250000Y-106887499D01*
X102250001Y-106887500D01*
X102974998Y-106887500D01*
X102974999Y-106887499D01*
X102974999Y-106788345D01*
X102964682Y-106687357D01*
X102964679Y-106687345D01*
X102910451Y-106523693D01*
X102819946Y-106376964D01*
X102698035Y-106255053D01*
X102551306Y-106164548D01*
X102387648Y-106110318D01*
X102286655Y-106100000D01*
X102250001Y-106100000D01*
X102250000Y-106100001D01*
X101750000Y-106100001D01*
X101750000Y-106100000D01*
X101713357Y-106100000D01*
X101713351Y-106100001D01*
X101612357Y-106110317D01*
X101612345Y-106110320D01*
X101448693Y-106164548D01*
X101301964Y-106255053D01*
X101301956Y-106255059D01*
X101296349Y-106260667D01*
X101241831Y-106288442D01*
X101181399Y-106278867D01*
X101156348Y-106260666D01*
X100940212Y-106044530D01*
X100940209Y-106044528D01*
X100860291Y-105998387D01*
X100860293Y-105998387D01*
X100846364Y-105994655D01*
X100822940Y-105988378D01*
X100771629Y-105955056D01*
X100766256Y-105947762D01*
X100736144Y-105902695D01*
X100730602Y-105894400D01*
X100730599Y-105894397D01*
X100694499Y-105870276D01*
X100656619Y-105822226D01*
X100650500Y-105787960D01*
X100650500Y-105769499D01*
X100669407Y-105711308D01*
X100718907Y-105675344D01*
X100749500Y-105670499D01*
X100882308Y-105670499D01*
X100905561Y-105666816D01*
X100957498Y-105658590D01*
X101017928Y-105668161D01*
X101042987Y-105686367D01*
X101139979Y-105783359D01*
X101277132Y-105866271D01*
X101277144Y-105866276D01*
X101430152Y-105913955D01*
X101430158Y-105913957D01*
X101496654Y-105919999D01*
X101496666Y-105920000D01*
X101522499Y-105920000D01*
X101522500Y-105919999D01*
X101522500Y-105350001D01*
X102022500Y-105350001D01*
X102022500Y-105919999D01*
X102022501Y-105920000D01*
X102048334Y-105920000D01*
X102048345Y-105919999D01*
X102114841Y-105913957D01*
X102114847Y-105913955D01*
X102267855Y-105866276D01*
X102267867Y-105866271D01*
X102405020Y-105783359D01*
X102518359Y-105670020D01*
X102601271Y-105532867D01*
X102601276Y-105532855D01*
X102648956Y-105379844D01*
X102651668Y-105350000D01*
X102022501Y-105350000D01*
X102022500Y-105350001D01*
X101522500Y-105350001D01*
X101522500Y-105199000D01*
X101541407Y-105140809D01*
X101590907Y-105104845D01*
X101621500Y-105100000D01*
X101772499Y-105100000D01*
X101772500Y-105099999D01*
X101772500Y-104949000D01*
X101791407Y-104890809D01*
X101840907Y-104854845D01*
X101871500Y-104850000D01*
X102651668Y-104850000D01*
X102651668Y-104849999D01*
X102648956Y-104820155D01*
X102601276Y-104667144D01*
X102601271Y-104667132D01*
X102518359Y-104529979D01*
X102405020Y-104416640D01*
X102267867Y-104333728D01*
X102267855Y-104333723D01*
X102135708Y-104292544D01*
X102085777Y-104257181D01*
X102066168Y-104199223D01*
X102084371Y-104140808D01*
X102095158Y-104128023D01*
X102383686Y-103839496D01*
X102438202Y-103811719D01*
X102453689Y-103810500D01*
X105449418Y-103810500D01*
X105449420Y-103810500D01*
X105538564Y-103786614D01*
X105618488Y-103740470D01*
X106253648Y-103105308D01*
X106308163Y-103077533D01*
X106368595Y-103087104D01*
X106390341Y-103102148D01*
X106461459Y-103166981D01*
X106634863Y-103274348D01*
X106825044Y-103348024D01*
X107025524Y-103385500D01*
X107229472Y-103385500D01*
X107229476Y-103385500D01*
X107252690Y-103381160D01*
X107303497Y-103387768D01*
X107308846Y-103380407D01*
X107348846Y-103363186D01*
X107429956Y-103348024D01*
X107620137Y-103274348D01*
X107793541Y-103166981D01*
X107944264Y-103029579D01*
X108067173Y-102866821D01*
X108158082Y-102684250D01*
X108213897Y-102488083D01*
X108232715Y-102285000D01*
X108213897Y-102081917D01*
X108158082Y-101885750D01*
X108067173Y-101703179D01*
X107944264Y-101540421D01*
X107793541Y-101403019D01*
X107620137Y-101295652D01*
X107467840Y-101236652D01*
X107420410Y-101198001D01*
X107404756Y-101138852D01*
X107426859Y-101081799D01*
X107477981Y-101048711D01*
X107590990Y-101018430D01*
X107805077Y-100918600D01*
X107998573Y-100783113D01*
X108165613Y-100616073D01*
X108301101Y-100422576D01*
X108301102Y-100422574D01*
X108307775Y-100408265D01*
X108349503Y-100363516D01*
X108409564Y-100351841D01*
X108465017Y-100377698D01*
X108487225Y-100408265D01*
X108493897Y-100422574D01*
X108493898Y-100422576D01*
X108629386Y-100616073D01*
X108796426Y-100783113D01*
X108989922Y-100918600D01*
X109204009Y-101018430D01*
X109317018Y-101048711D01*
X109368332Y-101082035D01*
X109390259Y-101139156D01*
X109374424Y-101198257D01*
X109327157Y-101236653D01*
X109174863Y-101295652D01*
X109039297Y-101379591D01*
X109001459Y-101403019D01*
X108918472Y-101478672D01*
X108850736Y-101540421D01*
X108842188Y-101551740D01*
X108727828Y-101703177D01*
X108727823Y-101703186D01*
X108636919Y-101885747D01*
X108636918Y-101885750D01*
X108581103Y-102081917D01*
X108562285Y-102285000D01*
X108581103Y-102488083D01*
X108636918Y-102684250D01*
X108650238Y-102711001D01*
X108650259Y-102711042D01*
X108659272Y-102771560D01*
X108631642Y-102825173D01*
X107926314Y-103530503D01*
X107871797Y-103558281D01*
X107856310Y-103559500D01*
X107367037Y-103559500D01*
X107337243Y-103549819D01*
X107296505Y-103574100D01*
X107261851Y-103583386D01*
X107181929Y-103629529D01*
X106735954Y-104075504D01*
X106681438Y-104103281D01*
X106665951Y-104104500D01*
X104926356Y-104104500D01*
X104849058Y-104125212D01*
X104849057Y-104125211D01*
X104839279Y-104127832D01*
X104837212Y-104128386D01*
X104763082Y-104171185D01*
X104757285Y-104174532D01*
X104431312Y-104500504D01*
X104376796Y-104528281D01*
X104361309Y-104529500D01*
X104072691Y-104529500D01*
X103976567Y-104544725D01*
X103976560Y-104544727D01*
X103860708Y-104603757D01*
X103768757Y-104695708D01*
X103709726Y-104811563D01*
X103709725Y-104811565D01*
X103694500Y-104907691D01*
X103694500Y-105292308D01*
X103709725Y-105388432D01*
X103709727Y-105388439D01*
X103768757Y-105504291D01*
X103768759Y-105504294D01*
X103782690Y-105518225D01*
X103810466Y-105572740D01*
X103800895Y-105633172D01*
X103775518Y-105661728D01*
X103776294Y-105662504D01*
X103769397Y-105669400D01*
X103714035Y-105752257D01*
X103714033Y-105752263D01*
X103699501Y-105825315D01*
X103699500Y-105825327D01*
X103699500Y-106374672D01*
X103699501Y-106374684D01*
X103714033Y-106447736D01*
X103714035Y-106447743D01*
X103728907Y-106470000D01*
X103745515Y-106528888D01*
X103728907Y-106580000D01*
X103714035Y-106602256D01*
X103714033Y-106602263D01*
X103699501Y-106675315D01*
X103699500Y-106675327D01*
X103699500Y-107474672D01*
X103699501Y-107474684D01*
X103714033Y-107547736D01*
X103714035Y-107547742D01*
X103730911Y-107572999D01*
X103769399Y-107630601D01*
X103805501Y-107654723D01*
X103843380Y-107702770D01*
X103849500Y-107737038D01*
X103849500Y-108046144D01*
X103850078Y-108048302D01*
X103866743Y-108110498D01*
X103873386Y-108135289D01*
X103873387Y-108135291D01*
X103919529Y-108215211D01*
X104220503Y-108516184D01*
X104248281Y-108570701D01*
X104249500Y-108586188D01*
X104249500Y-109045436D01*
X104230593Y-109103627D01*
X104181093Y-109139591D01*
X104122609Y-109140426D01*
X104068370Y-109124500D01*
X104068367Y-109124500D01*
X103931633Y-109124500D01*
X103931631Y-109124500D01*
X103800441Y-109163021D01*
X103800439Y-109163021D01*
X103800439Y-109163022D01*
X103685411Y-109236945D01*
X103685410Y-109236945D01*
X103685410Y-109236946D01*
X103595868Y-109340284D01*
X103539069Y-109464654D01*
X103539067Y-109464662D01*
X103519610Y-109599997D01*
X103519610Y-109600002D01*
X103539067Y-109735337D01*
X103539069Y-109735345D01*
X103595868Y-109859715D01*
X103595869Y-109859716D01*
X103595870Y-109859718D01*
X103685411Y-109963055D01*
X103800439Y-110036978D01*
X103931633Y-110075500D01*
X103931634Y-110075500D01*
X104068366Y-110075500D01*
X104068367Y-110075500D01*
X104122609Y-110059573D01*
X104183768Y-110061320D01*
X104232221Y-110098682D01*
X104249500Y-110154563D01*
X104249500Y-114475092D01*
X104230593Y-114533283D01*
X104229754Y-114534420D01*
X104156203Y-114632671D01*
X104105911Y-114767512D01*
X104105909Y-114767523D01*
X104104622Y-114779496D01*
X104099501Y-114827128D01*
X104099501Y-116772872D01*
X104099738Y-116775073D01*
X104105909Y-116832476D01*
X104105911Y-116832487D01*
X104156203Y-116967328D01*
X104209649Y-117038723D01*
X104242455Y-117082546D01*
X104242458Y-117082548D01*
X104242459Y-117082549D01*
X104357672Y-117168797D01*
X104492513Y-117219089D01*
X104492514Y-117219089D01*
X104492519Y-117219091D01*
X104552129Y-117225500D01*
X104552132Y-117225500D01*
X105647870Y-117225500D01*
X105647873Y-117225500D01*
X105707483Y-117219091D01*
X105754768Y-117201455D01*
X105842329Y-117168797D01*
X105842329Y-117168796D01*
X105842331Y-117168796D01*
X105957547Y-117082546D01*
X106043797Y-116967330D01*
X106048390Y-116955017D01*
X106082865Y-116862583D01*
X106094092Y-116832482D01*
X106100501Y-116772872D01*
X106100501Y-114827128D01*
X106094092Y-114767518D01*
X106094090Y-114767512D01*
X106043798Y-114632671D01*
X105957550Y-114517458D01*
X105957549Y-114517457D01*
X105957547Y-114517454D01*
X105950502Y-114512180D01*
X105842329Y-114431202D01*
X105707488Y-114380910D01*
X105707483Y-114380909D01*
X105707481Y-114380908D01*
X105707477Y-114380908D01*
X105676249Y-114377550D01*
X105647873Y-114374500D01*
X105647870Y-114374500D01*
X105049500Y-114374500D01*
X104991309Y-114355593D01*
X104955345Y-114306093D01*
X104950500Y-114275500D01*
X104950500Y-113709556D01*
X104969407Y-113651365D01*
X105018907Y-113615401D01*
X105080093Y-113615401D01*
X105084088Y-113616795D01*
X105157701Y-113644251D01*
X105215826Y-113650500D01*
X105663811Y-113650500D01*
X105722002Y-113669407D01*
X105733815Y-113679496D01*
X107320505Y-115266186D01*
X107348282Y-115320703D01*
X107349501Y-115336189D01*
X107349501Y-116772872D01*
X107349738Y-116775073D01*
X107355909Y-116832476D01*
X107355911Y-116832487D01*
X107406203Y-116967328D01*
X107459649Y-117038723D01*
X107492455Y-117082546D01*
X107492458Y-117082548D01*
X107492459Y-117082549D01*
X107610945Y-117171247D01*
X107646198Y-117221255D01*
X107645324Y-117282434D01*
X107608657Y-117331416D01*
X107560048Y-117346826D01*
X107560289Y-117348653D01*
X107553858Y-117349499D01*
X107515461Y-117359787D01*
X107515461Y-117359788D01*
X107491639Y-117366171D01*
X107464711Y-117373386D01*
X107384785Y-117419532D01*
X106895400Y-117908915D01*
X106874901Y-117924645D01*
X106850066Y-117938984D01*
X106850061Y-117938988D01*
X106447977Y-118341070D01*
X106433634Y-118365913D01*
X106423242Y-118379457D01*
X106423480Y-118379639D01*
X106419533Y-118384782D01*
X106373384Y-118464715D01*
X106349501Y-118553855D01*
X106349501Y-118553856D01*
X106349501Y-118646144D01*
X106367030Y-118711567D01*
X106374575Y-118739724D01*
X106377948Y-118765346D01*
X106377948Y-119078773D01*
X106398170Y-119154244D01*
X106400032Y-119161191D01*
X106401834Y-119167918D01*
X106401835Y-119167920D01*
X106447027Y-119246194D01*
X106447978Y-119247841D01*
X106610675Y-119410538D01*
X106748003Y-119547865D01*
X106775781Y-119602382D01*
X106777000Y-119617869D01*
X106777000Y-121492771D01*
X106758093Y-121550962D01*
X106713763Y-121585086D01*
X106634858Y-121615654D01*
X106630960Y-121617595D01*
X106570441Y-121626601D01*
X106516837Y-121598973D01*
X106040888Y-121123024D01*
X105537394Y-120619530D01*
X105457470Y-120573386D01*
X105368326Y-120549500D01*
X105368324Y-120549500D01*
X104786190Y-120549500D01*
X104727999Y-120530593D01*
X104716186Y-120520504D01*
X104379496Y-120183814D01*
X104351719Y-120129297D01*
X104350500Y-120113810D01*
X104350500Y-118458536D01*
X104369407Y-118400345D01*
X104374680Y-118393705D01*
X104404130Y-118359718D01*
X104432530Y-118297530D01*
X104460930Y-118235345D01*
X104460932Y-118235337D01*
X104480390Y-118100002D01*
X104480390Y-118099997D01*
X104460932Y-117964662D01*
X104460930Y-117964654D01*
X104404131Y-117840284D01*
X104404130Y-117840283D01*
X104404130Y-117840282D01*
X104314589Y-117736945D01*
X104199561Y-117663022D01*
X104159347Y-117651214D01*
X104068368Y-117624500D01*
X104068367Y-117624500D01*
X103931633Y-117624500D01*
X103931631Y-117624500D01*
X103800441Y-117663021D01*
X103800439Y-117663021D01*
X103800439Y-117663022D01*
X103685411Y-117736945D01*
X103685410Y-117736945D01*
X103685410Y-117736946D01*
X103595868Y-117840284D01*
X103539069Y-117964654D01*
X103539067Y-117964662D01*
X103519610Y-118099997D01*
X103519610Y-118100002D01*
X103539067Y-118235337D01*
X103539069Y-118235345D01*
X103595868Y-118359715D01*
X103595869Y-118359716D01*
X103595870Y-118359718D01*
X103621702Y-118389530D01*
X103625320Y-118393705D01*
X103649137Y-118450065D01*
X103649500Y-118458536D01*
X103649500Y-120346144D01*
X103673386Y-120435288D01*
X103719530Y-120515212D01*
X104384788Y-121180470D01*
X104464712Y-121226614D01*
X104553856Y-121250500D01*
X105135992Y-121250500D01*
X105194183Y-121269407D01*
X105205996Y-121279496D01*
X106063606Y-122137106D01*
X106091383Y-122191623D01*
X106088823Y-122234199D01*
X106041103Y-122401917D01*
X106022285Y-122605000D01*
X106041103Y-122808083D01*
X106096918Y-123004250D01*
X106187827Y-123186821D01*
X106310736Y-123349579D01*
X106461459Y-123486981D01*
X106634863Y-123594348D01*
X106825044Y-123668024D01*
X107025524Y-123705500D01*
X107229476Y-123705500D01*
X107429956Y-123668024D01*
X107620137Y-123594348D01*
X107793541Y-123486981D01*
X107944264Y-123349579D01*
X108067173Y-123186821D01*
X108158082Y-123004250D01*
X108213897Y-122808083D01*
X108232715Y-122605000D01*
X108562285Y-122605000D01*
X108581103Y-122808083D01*
X108636918Y-123004250D01*
X108727827Y-123186821D01*
X108850736Y-123349579D01*
X109001459Y-123486981D01*
X109174863Y-123594348D01*
X109365044Y-123668024D01*
X109565524Y-123705500D01*
X109769476Y-123705500D01*
X109969956Y-123668024D01*
X110160137Y-123594348D01*
X110333541Y-123486981D01*
X110484264Y-123349579D01*
X110607173Y-123186821D01*
X110698082Y-123004250D01*
X110753897Y-122808083D01*
X110772715Y-122605000D01*
X111102285Y-122605000D01*
X111121103Y-122808083D01*
X111176918Y-123004250D01*
X111267827Y-123186821D01*
X111390736Y-123349579D01*
X111541459Y-123486981D01*
X111714863Y-123594348D01*
X111905044Y-123668024D01*
X112105524Y-123705500D01*
X112309476Y-123705500D01*
X112509956Y-123668024D01*
X112700137Y-123594348D01*
X112873541Y-123486981D01*
X113024264Y-123349579D01*
X113147173Y-123186821D01*
X113238082Y-123004250D01*
X113293897Y-122808083D01*
X113312715Y-122605000D01*
X113642285Y-122605000D01*
X113661103Y-122808083D01*
X113716918Y-123004250D01*
X113807827Y-123186821D01*
X113930736Y-123349579D01*
X114081459Y-123486981D01*
X114254863Y-123594348D01*
X114445044Y-123668024D01*
X114645524Y-123705500D01*
X114849476Y-123705500D01*
X115049956Y-123668024D01*
X115240137Y-123594348D01*
X115413541Y-123486981D01*
X115564264Y-123349579D01*
X115687173Y-123186821D01*
X115778082Y-123004250D01*
X115833897Y-122808083D01*
X115852715Y-122605000D01*
X116182285Y-122605000D01*
X116201103Y-122808083D01*
X116256918Y-123004250D01*
X116347827Y-123186821D01*
X116470736Y-123349579D01*
X116621459Y-123486981D01*
X116794863Y-123594348D01*
X116985044Y-123668024D01*
X117185524Y-123705500D01*
X117389476Y-123705500D01*
X117589956Y-123668024D01*
X117780137Y-123594348D01*
X117953541Y-123486981D01*
X118104264Y-123349579D01*
X118227173Y-123186821D01*
X118318082Y-123004250D01*
X118373897Y-122808083D01*
X118392715Y-122605000D01*
X118722285Y-122605000D01*
X118741103Y-122808083D01*
X118796918Y-123004250D01*
X118887827Y-123186821D01*
X119010736Y-123349579D01*
X119161459Y-123486981D01*
X119334863Y-123594348D01*
X119525044Y-123668024D01*
X119725524Y-123705500D01*
X119929476Y-123705500D01*
X120129956Y-123668024D01*
X120320137Y-123594348D01*
X120493541Y-123486981D01*
X120644264Y-123349579D01*
X120767173Y-123186821D01*
X120858082Y-123004250D01*
X120913897Y-122808083D01*
X120932715Y-122605000D01*
X120913897Y-122401917D01*
X120858082Y-122205750D01*
X120767173Y-122023179D01*
X120644264Y-121860421D01*
X120493541Y-121723019D01*
X120320137Y-121615652D01*
X120129956Y-121541976D01*
X120129955Y-121541975D01*
X120129953Y-121541975D01*
X119929476Y-121504500D01*
X119725524Y-121504500D01*
X119525046Y-121541975D01*
X119455132Y-121569059D01*
X119334863Y-121615652D01*
X119267664Y-121657260D01*
X119161459Y-121723019D01*
X119039380Y-121834309D01*
X119010736Y-121860421D01*
X118970888Y-121913188D01*
X118887828Y-122023177D01*
X118887823Y-122023186D01*
X118796919Y-122205747D01*
X118796918Y-122205750D01*
X118741103Y-122401917D01*
X118722285Y-122605000D01*
X118392715Y-122605000D01*
X118373897Y-122401917D01*
X118318082Y-122205750D01*
X118227173Y-122023179D01*
X118104264Y-121860421D01*
X117953541Y-121723019D01*
X117780137Y-121615652D01*
X117589956Y-121541976D01*
X117589955Y-121541975D01*
X117589953Y-121541975D01*
X117389476Y-121504500D01*
X117185524Y-121504500D01*
X116985046Y-121541975D01*
X116915132Y-121569059D01*
X116794863Y-121615652D01*
X116727664Y-121657260D01*
X116621459Y-121723019D01*
X116499380Y-121834309D01*
X116470736Y-121860421D01*
X116430888Y-121913188D01*
X116347828Y-122023177D01*
X116347823Y-122023186D01*
X116256919Y-122205747D01*
X116256918Y-122205750D01*
X116201103Y-122401917D01*
X116182285Y-122605000D01*
X115852715Y-122605000D01*
X115833897Y-122401917D01*
X115778082Y-122205750D01*
X115687173Y-122023179D01*
X115564264Y-121860421D01*
X115413541Y-121723019D01*
X115240137Y-121615652D01*
X115049956Y-121541976D01*
X115049955Y-121541975D01*
X115049953Y-121541975D01*
X114849476Y-121504500D01*
X114645524Y-121504500D01*
X114445046Y-121541975D01*
X114375132Y-121569059D01*
X114254863Y-121615652D01*
X114187664Y-121657260D01*
X114081459Y-121723019D01*
X113959380Y-121834309D01*
X113930736Y-121860421D01*
X113890888Y-121913188D01*
X113807828Y-122023177D01*
X113807823Y-122023186D01*
X113716919Y-122205747D01*
X113716918Y-122205750D01*
X113661103Y-122401917D01*
X113642285Y-122605000D01*
X113312715Y-122605000D01*
X113293897Y-122401917D01*
X113238082Y-122205750D01*
X113147173Y-122023179D01*
X113024264Y-121860421D01*
X112873541Y-121723019D01*
X112700137Y-121615652D01*
X112509956Y-121541976D01*
X112509955Y-121541975D01*
X112509953Y-121541975D01*
X112309476Y-121504500D01*
X112105524Y-121504500D01*
X111905046Y-121541975D01*
X111835132Y-121569059D01*
X111714863Y-121615652D01*
X111647664Y-121657260D01*
X111541459Y-121723019D01*
X111419380Y-121834309D01*
X111390736Y-121860421D01*
X111350888Y-121913188D01*
X111267828Y-122023177D01*
X111267823Y-122023186D01*
X111176919Y-122205747D01*
X111176918Y-122205750D01*
X111121103Y-122401917D01*
X111102285Y-122605000D01*
X110772715Y-122605000D01*
X110753897Y-122401917D01*
X110698082Y-122205750D01*
X110607173Y-122023179D01*
X110484264Y-121860421D01*
X110333541Y-121723019D01*
X110160137Y-121615652D01*
X109969956Y-121541976D01*
X109969955Y-121541975D01*
X109969953Y-121541975D01*
X109769476Y-121504500D01*
X109565524Y-121504500D01*
X109365046Y-121541975D01*
X109295132Y-121569059D01*
X109174863Y-121615652D01*
X109107664Y-121657260D01*
X109001459Y-121723019D01*
X108879380Y-121834309D01*
X108850736Y-121860421D01*
X108810888Y-121913188D01*
X108727828Y-122023177D01*
X108727823Y-122023186D01*
X108636919Y-122205747D01*
X108636918Y-122205750D01*
X108581103Y-122401917D01*
X108562285Y-122605000D01*
X108232715Y-122605000D01*
X108213897Y-122401917D01*
X108158082Y-122205750D01*
X108067173Y-122023179D01*
X107944264Y-121860421D01*
X107793541Y-121723019D01*
X107620137Y-121615652D01*
X107541237Y-121585086D01*
X107493806Y-121546434D01*
X107478000Y-121492771D01*
X107478000Y-119323313D01*
X107477153Y-119316880D01*
X107480019Y-119316502D01*
X107482560Y-119267425D01*
X107521034Y-119219851D01*
X107521202Y-119219742D01*
X107618037Y-119157511D01*
X107707578Y-119054174D01*
X107764379Y-118929798D01*
X107776581Y-118844927D01*
X107803575Y-118790024D01*
X107804496Y-118789088D01*
X108014090Y-118579496D01*
X108068606Y-118551719D01*
X108084093Y-118550500D01*
X108295818Y-118550500D01*
X108354009Y-118569407D01*
X108389973Y-118618907D01*
X108393810Y-118663589D01*
X108381592Y-118748566D01*
X108381592Y-118748571D01*
X108401049Y-118883906D01*
X108401051Y-118883914D01*
X108457850Y-119008284D01*
X108457851Y-119008285D01*
X108457852Y-119008287D01*
X108547393Y-119111624D01*
X108662421Y-119185547D01*
X108793615Y-119224069D01*
X108800792Y-119224069D01*
X108858983Y-119242976D01*
X108870794Y-119253064D01*
X108898201Y-119280470D01*
X108967150Y-119320278D01*
X108967158Y-119320282D01*
X108978125Y-119326614D01*
X109067269Y-119350500D01*
X109580682Y-119350500D01*
X109638873Y-119369407D01*
X109663625Y-119398389D01*
X109664177Y-119397988D01*
X109668755Y-119404289D01*
X109668757Y-119404291D01*
X109668759Y-119404294D01*
X109760706Y-119496241D01*
X109876567Y-119555275D01*
X109972693Y-119570500D01*
X110432306Y-119570499D01*
X110432308Y-119570499D01*
X110458756Y-119566310D01*
X110528433Y-119555275D01*
X110644294Y-119496241D01*
X110729998Y-119410536D01*
X110784513Y-119382761D01*
X110844945Y-119392332D01*
X110870000Y-119410535D01*
X110955706Y-119496241D01*
X111071567Y-119555275D01*
X111167693Y-119570500D01*
X111627306Y-119570499D01*
X111627308Y-119570499D01*
X111653756Y-119566310D01*
X111723433Y-119555275D01*
X111839294Y-119496241D01*
X111928779Y-119406755D01*
X111983293Y-119378979D01*
X112043726Y-119388550D01*
X112086990Y-119431814D01*
X112087696Y-119433227D01*
X112096924Y-119452103D01*
X112174819Y-119529998D01*
X112202595Y-119584513D01*
X112193024Y-119644945D01*
X112174820Y-119670000D01*
X112129917Y-119714904D01*
X112096923Y-119747898D01*
X112054577Y-119834518D01*
X112040418Y-119863481D01*
X112029500Y-119938417D01*
X112029500Y-120281581D01*
X112040418Y-120356517D01*
X112096924Y-120472101D01*
X112187898Y-120563075D01*
X112303482Y-120619581D01*
X112378418Y-120630499D01*
X112378421Y-120630499D01*
X112821578Y-120630499D01*
X112821582Y-120630499D01*
X112896518Y-120619581D01*
X113012102Y-120563075D01*
X113054673Y-120520504D01*
X113070682Y-120504496D01*
X113125199Y-120476719D01*
X113140685Y-120475500D01*
X115735457Y-120475500D01*
X115735459Y-120475500D01*
X115824603Y-120451614D01*
X115834079Y-120446143D01*
X115854844Y-120434154D01*
X115914688Y-120421431D01*
X115949285Y-120431678D01*
X115986511Y-120450646D01*
X116080296Y-120465500D01*
X116443333Y-120465499D01*
X116443335Y-120465499D01*
X116443336Y-120465498D01*
X116490226Y-120458072D01*
X116537114Y-120450647D01*
X116537115Y-120450646D01*
X116537119Y-120450646D01*
X116650157Y-120393050D01*
X116666808Y-120376398D01*
X116721323Y-120348619D01*
X116781755Y-120358187D01*
X116806814Y-120376392D01*
X116823472Y-120393050D01*
X116936510Y-120450646D01*
X117030295Y-120465500D01*
X117393332Y-120465499D01*
X117393334Y-120465499D01*
X117393335Y-120465498D01*
X117440225Y-120458072D01*
X117487113Y-120450647D01*
X117487114Y-120450646D01*
X117487118Y-120450646D01*
X117600156Y-120393050D01*
X117616807Y-120376398D01*
X117671322Y-120348619D01*
X117731754Y-120358187D01*
X117756813Y-120376392D01*
X117773471Y-120393050D01*
X117886509Y-120450646D01*
X117980294Y-120465500D01*
X118343331Y-120465499D01*
X118343333Y-120465499D01*
X118343334Y-120465498D01*
X118390224Y-120458072D01*
X118437112Y-120450647D01*
X118437112Y-120450646D01*
X118437117Y-120450646D01*
X118550155Y-120393050D01*
X118639863Y-120303342D01*
X118697459Y-120190304D01*
X118712313Y-120096519D01*
X118712313Y-120002000D01*
X118731220Y-119943809D01*
X118780720Y-119907845D01*
X118811313Y-119903000D01*
X119530181Y-119903000D01*
X119588372Y-119921907D01*
X119609432Y-119942669D01*
X119613884Y-119948616D01*
X119613887Y-119948618D01*
X119613888Y-119948619D01*
X119726223Y-120032713D01*
X119857695Y-120081749D01*
X119857696Y-120081749D01*
X119857701Y-120081751D01*
X119915826Y-120088000D01*
X119915830Y-120088000D01*
X120484170Y-120088000D01*
X120484174Y-120088000D01*
X120542299Y-120081751D01*
X120651970Y-120040846D01*
X120673776Y-120032713D01*
X120673776Y-120032712D01*
X120673778Y-120032712D01*
X120786116Y-119948616D01*
X120870212Y-119836278D01*
X120870562Y-119835341D01*
X120915482Y-119714904D01*
X120953532Y-119666989D01*
X121008240Y-119650500D01*
X121059815Y-119650500D01*
X121118006Y-119669407D01*
X121153970Y-119718907D01*
X121158815Y-119749500D01*
X121158815Y-119860370D01*
X121165222Y-119919980D01*
X121165223Y-119919985D01*
X121215516Y-120054829D01*
X121301764Y-120170041D01*
X121301768Y-120170046D01*
X121301771Y-120170048D01*
X121301772Y-120170049D01*
X121416984Y-120256297D01*
X121551825Y-120306589D01*
X121551826Y-120306589D01*
X121551831Y-120306591D01*
X121611441Y-120313000D01*
X122657186Y-120312999D01*
X122716797Y-120306591D01*
X122784221Y-120281443D01*
X122851643Y-120256297D01*
X122851643Y-120256296D01*
X122851645Y-120256296D01*
X122966860Y-120170046D01*
X123053110Y-120054831D01*
X123055099Y-120049500D01*
X123096528Y-119938420D01*
X123103405Y-119919983D01*
X123109814Y-119860373D01*
X123109813Y-119408598D01*
X123128720Y-119350408D01*
X123178220Y-119314444D01*
X123208813Y-119309599D01*
X123405526Y-119309599D01*
X123421012Y-119310817D01*
X123440901Y-119313968D01*
X123460789Y-119310817D01*
X123476276Y-119309599D01*
X123487044Y-119309599D01*
X123487045Y-119309599D01*
X123508884Y-119303746D01*
X123518977Y-119301601D01*
X123550562Y-119296599D01*
X123557927Y-119292845D01*
X123572107Y-119287403D01*
X123576185Y-119285714D01*
X123576184Y-119285714D01*
X123576189Y-119285713D01*
X123605983Y-119268509D01*
X123610464Y-119266076D01*
X123649488Y-119246194D01*
X123664072Y-119231608D01*
X123679069Y-119219300D01*
X123692278Y-119210476D01*
X123832572Y-119070182D01*
X123889509Y-119013246D01*
X123944025Y-118985469D01*
X123959512Y-118984250D01*
X123977116Y-118984250D01*
X123977117Y-118984250D01*
X124108311Y-118945728D01*
X124167354Y-118907783D01*
X124226528Y-118892229D01*
X124283545Y-118914428D01*
X124316624Y-118965901D01*
X124318169Y-118992919D01*
X124319610Y-118992919D01*
X124319610Y-119000002D01*
X124339067Y-119135337D01*
X124339069Y-119135345D01*
X124395868Y-119259715D01*
X124395869Y-119259716D01*
X124395870Y-119259718D01*
X124485411Y-119363055D01*
X124600439Y-119436978D01*
X124731633Y-119475500D01*
X124731634Y-119475500D01*
X124868366Y-119475500D01*
X124868367Y-119475500D01*
X124999561Y-119436978D01*
X125114589Y-119363055D01*
X125204130Y-119259718D01*
X125246054Y-119167918D01*
X125260930Y-119135345D01*
X125260932Y-119135337D01*
X125280390Y-119000002D01*
X125280390Y-118999997D01*
X125260932Y-118864662D01*
X125260930Y-118864654D01*
X125204131Y-118740283D01*
X125204130Y-118740281D01*
X125195180Y-118729953D01*
X125171361Y-118673594D01*
X125185219Y-118613999D01*
X125231459Y-118573930D01*
X125234181Y-118572828D01*
X125385137Y-118514348D01*
X125558541Y-118406981D01*
X125709264Y-118269579D01*
X125832173Y-118106821D01*
X125923082Y-117924250D01*
X125978897Y-117728083D01*
X125997715Y-117525000D01*
X125978897Y-117321917D01*
X125923082Y-117125750D01*
X125832173Y-116943179D01*
X125709264Y-116780421D01*
X125558541Y-116643019D01*
X125385137Y-116535652D01*
X125194956Y-116461976D01*
X125194955Y-116461975D01*
X125194953Y-116461975D01*
X124994476Y-116424500D01*
X124790524Y-116424500D01*
X124590046Y-116461975D01*
X124573237Y-116468487D01*
X124399863Y-116535652D01*
X124265729Y-116618704D01*
X124226459Y-116643019D01*
X124093201Y-116764500D01*
X124075736Y-116780421D01*
X124045720Y-116820169D01*
X123952828Y-116943177D01*
X123952823Y-116943186D01*
X123862540Y-117124500D01*
X123861918Y-117125750D01*
X123807526Y-117316917D01*
X123806103Y-117321917D01*
X123787285Y-117525000D01*
X123806103Y-117728084D01*
X123862013Y-117924586D01*
X123859752Y-117985729D01*
X123821983Y-118033866D01*
X123794684Y-118046668D01*
X123709191Y-118071771D01*
X123709189Y-118071771D01*
X123709189Y-118071772D01*
X123594161Y-118145695D01*
X123594160Y-118145695D01*
X123594160Y-118145696D01*
X123504619Y-118249033D01*
X123447819Y-118373405D01*
X123439742Y-118429578D01*
X123412744Y-118484485D01*
X123411754Y-118485490D01*
X123317644Y-118579602D01*
X123263128Y-118607380D01*
X123247640Y-118608599D01*
X122604071Y-118608599D01*
X122526392Y-118629413D01*
X122526390Y-118629413D01*
X122510662Y-118633627D01*
X122485041Y-118637000D01*
X121611447Y-118637000D01*
X121611443Y-118637000D01*
X121611442Y-118637001D01*
X121604263Y-118637772D01*
X121551833Y-118643408D01*
X121551828Y-118643409D01*
X121416984Y-118693702D01*
X121301772Y-118779950D01*
X121301764Y-118779958D01*
X121215517Y-118895169D01*
X121213999Y-118897950D01*
X121212077Y-118899764D01*
X121211274Y-118900838D01*
X121211088Y-118900698D01*
X121169515Y-118939959D01*
X121127111Y-118949500D01*
X121008240Y-118949500D01*
X120950049Y-118930593D01*
X120915482Y-118885096D01*
X120870213Y-118763723D01*
X120786119Y-118651388D01*
X120786118Y-118651387D01*
X120786116Y-118651384D01*
X120786111Y-118651380D01*
X120673776Y-118567286D01*
X120574496Y-118530258D01*
X120526581Y-118492208D01*
X120510183Y-118433261D01*
X120531564Y-118375933D01*
X120574496Y-118344742D01*
X120584339Y-118341071D01*
X120650455Y-118316411D01*
X120673776Y-118307713D01*
X120673776Y-118307712D01*
X120673778Y-118307712D01*
X120786116Y-118223616D01*
X120870212Y-118111278D01*
X120870724Y-118109907D01*
X120915482Y-117989904D01*
X120953532Y-117941989D01*
X121008240Y-117925500D01*
X121127111Y-117925500D01*
X121185302Y-117944407D01*
X121213999Y-117977050D01*
X121215517Y-117979830D01*
X121282574Y-118069407D01*
X121301768Y-118095046D01*
X121301771Y-118095048D01*
X121301772Y-118095049D01*
X121416984Y-118181297D01*
X121551825Y-118231589D01*
X121551826Y-118231589D01*
X121551831Y-118231591D01*
X121611441Y-118238000D01*
X122657186Y-118237999D01*
X122716797Y-118231591D01*
X122826968Y-118190500D01*
X122851643Y-118181297D01*
X122851643Y-118181296D01*
X122851645Y-118181296D01*
X122966860Y-118095046D01*
X123053110Y-117979831D01*
X123062984Y-117953359D01*
X123103403Y-117844988D01*
X123103402Y-117844988D01*
X123103405Y-117844983D01*
X123109814Y-117785373D01*
X123109813Y-117014628D01*
X123103405Y-116955017D01*
X123092724Y-116926380D01*
X123053111Y-116820170D01*
X122966863Y-116704958D01*
X122966862Y-116704957D01*
X122966860Y-116704954D01*
X122952890Y-116694496D01*
X122851643Y-116618702D01*
X122716802Y-116568410D01*
X122716797Y-116568409D01*
X122716795Y-116568408D01*
X122716791Y-116568408D01*
X122685563Y-116565050D01*
X122657187Y-116562000D01*
X122657184Y-116562000D01*
X121833004Y-116562000D01*
X121774813Y-116543093D01*
X121763000Y-116533004D01*
X121753000Y-116523004D01*
X121725223Y-116468487D01*
X121734794Y-116408055D01*
X121778059Y-116364790D01*
X121823004Y-116354000D01*
X121853999Y-116354000D01*
X121854000Y-116353999D01*
X121854000Y-115850001D01*
X122354000Y-115850001D01*
X122354000Y-116353999D01*
X122354001Y-116354000D01*
X122401824Y-116354000D01*
X122461370Y-116347598D01*
X122461381Y-116347596D01*
X122596088Y-116297353D01*
X122596090Y-116297352D01*
X122711184Y-116211192D01*
X122711192Y-116211184D01*
X122797352Y-116096090D01*
X122797353Y-116096088D01*
X122847596Y-115961381D01*
X122847598Y-115961370D01*
X122854000Y-115901824D01*
X122854000Y-115850001D01*
X122853999Y-115850000D01*
X122354001Y-115850000D01*
X122354000Y-115850001D01*
X121854000Y-115850001D01*
X121854000Y-115699000D01*
X121872907Y-115640809D01*
X121922407Y-115604845D01*
X121953000Y-115600000D01*
X122103999Y-115600000D01*
X122104000Y-115599999D01*
X122104000Y-115449000D01*
X122122907Y-115390809D01*
X122172407Y-115354845D01*
X122203000Y-115350000D01*
X122853999Y-115350000D01*
X122854000Y-115349999D01*
X122854000Y-115298175D01*
X122847598Y-115238629D01*
X122847596Y-115238618D01*
X122797353Y-115103911D01*
X122797352Y-115103909D01*
X122711192Y-114988815D01*
X122711184Y-114988807D01*
X122630963Y-114928753D01*
X122595710Y-114878744D01*
X122596584Y-114817565D01*
X122633252Y-114768584D01*
X122690292Y-114750500D01*
X123700417Y-114750500D01*
X123758608Y-114769407D01*
X123794572Y-114818907D01*
X123798994Y-114858631D01*
X123787285Y-114985000D01*
X123806103Y-115188083D01*
X123861918Y-115384250D01*
X123952827Y-115566821D01*
X124075736Y-115729579D01*
X124226459Y-115866981D01*
X124399863Y-115974348D01*
X124590044Y-116048024D01*
X124790524Y-116085500D01*
X124994476Y-116085500D01*
X125194956Y-116048024D01*
X125385137Y-115974348D01*
X125558541Y-115866981D01*
X125709264Y-115729579D01*
X125832173Y-115566821D01*
X125923082Y-115384250D01*
X125978897Y-115188083D01*
X125997715Y-114985000D01*
X125978897Y-114781917D01*
X125923082Y-114585750D01*
X125832173Y-114403179D01*
X125709264Y-114240421D01*
X125558541Y-114103019D01*
X125385137Y-113995652D01*
X125194956Y-113921976D01*
X125194955Y-113921975D01*
X125194953Y-113921975D01*
X124994476Y-113884500D01*
X124790524Y-113884500D01*
X124590046Y-113921975D01*
X124399862Y-113995652D01*
X124399860Y-113995653D01*
X124336843Y-114034672D01*
X124284727Y-114049500D01*
X120653855Y-114049500D01*
X120564711Y-114073386D01*
X120564710Y-114073386D01*
X120564708Y-114073387D01*
X120484788Y-114119529D01*
X120484786Y-114119531D01*
X120035817Y-114568499D01*
X119981301Y-114596276D01*
X119920869Y-114586705D01*
X119877604Y-114543440D01*
X119867822Y-114512583D01*
X119860932Y-114464663D01*
X119860930Y-114464654D01*
X119804131Y-114340284D01*
X119804130Y-114340283D01*
X119804130Y-114340282D01*
X119714589Y-114236945D01*
X119599561Y-114163022D01*
X119573562Y-114155388D01*
X119468368Y-114124500D01*
X119468367Y-114124500D01*
X119331633Y-114124500D01*
X119331631Y-114124500D01*
X119200441Y-114163021D01*
X119200439Y-114163021D01*
X119200439Y-114163022D01*
X119085411Y-114236945D01*
X119085410Y-114236945D01*
X119085410Y-114236946D01*
X118995868Y-114340284D01*
X118939069Y-114464654D01*
X118939067Y-114464662D01*
X118919610Y-114599997D01*
X118919610Y-114600002D01*
X118939222Y-114736411D01*
X118928789Y-114796700D01*
X118884911Y-114839343D01*
X118841230Y-114849500D01*
X117921326Y-114849500D01*
X117921325Y-114849500D01*
X117921315Y-114849501D01*
X117848263Y-114864033D01*
X117848257Y-114864035D01*
X117765400Y-114919397D01*
X117765397Y-114919400D01*
X117710035Y-115002257D01*
X117710033Y-115002263D01*
X117695501Y-115075315D01*
X117695500Y-115075327D01*
X117695500Y-116076497D01*
X117676593Y-116134688D01*
X117627093Y-116170652D01*
X117565907Y-116170652D01*
X117526497Y-116146501D01*
X117414527Y-116034532D01*
X117414525Y-116034530D01*
X117334601Y-115988386D01*
X117245457Y-115964500D01*
X115938297Y-115964500D01*
X115880106Y-115945593D01*
X115844142Y-115896093D01*
X115844142Y-115834907D01*
X115880106Y-115785407D01*
X115884774Y-115782216D01*
X115914587Y-115763056D01*
X115914586Y-115763056D01*
X115914589Y-115763055D01*
X116004130Y-115659718D01*
X116041034Y-115578910D01*
X116060930Y-115535345D01*
X116060932Y-115535337D01*
X116080390Y-115400002D01*
X116080390Y-115399997D01*
X116060932Y-115264662D01*
X116060930Y-115264654D01*
X116004131Y-115140284D01*
X116004130Y-115140283D01*
X116004130Y-115140282D01*
X115914589Y-115036945D01*
X115799561Y-114963022D01*
X115799558Y-114963021D01*
X115668368Y-114924500D01*
X115668367Y-114924500D01*
X115531633Y-114924500D01*
X115531631Y-114924500D01*
X115400441Y-114963021D01*
X115400439Y-114963021D01*
X115400439Y-114963022D01*
X115285411Y-115036945D01*
X115285410Y-115036945D01*
X115285410Y-115036946D01*
X115195868Y-115140284D01*
X115139069Y-115264654D01*
X115139067Y-115264662D01*
X115119610Y-115399997D01*
X115119610Y-115400002D01*
X115139067Y-115535337D01*
X115139069Y-115535345D01*
X115195868Y-115659715D01*
X115195869Y-115659716D01*
X115195870Y-115659718D01*
X115265680Y-115740284D01*
X115285412Y-115763056D01*
X115315226Y-115782216D01*
X115353957Y-115829582D01*
X115357451Y-115890667D01*
X115324372Y-115942140D01*
X115267355Y-115964339D01*
X115261703Y-115964500D01*
X115201356Y-115964500D01*
X115112212Y-115988386D01*
X115062766Y-116016934D01*
X115032285Y-116034532D01*
X114771313Y-116295504D01*
X114716797Y-116323281D01*
X114701310Y-116324500D01*
X113877133Y-116324500D01*
X113877129Y-116324500D01*
X113877128Y-116324501D01*
X113869949Y-116325272D01*
X113817519Y-116330908D01*
X113817514Y-116330909D01*
X113682670Y-116381202D01*
X113612213Y-116433947D01*
X113554298Y-116453684D01*
X113495843Y-116435610D01*
X113482880Y-116424697D01*
X113104113Y-116045929D01*
X113076336Y-115991413D01*
X113075117Y-115975926D01*
X113075117Y-115578910D01*
X113075117Y-115578907D01*
X113068868Y-115520782D01*
X113059440Y-115495504D01*
X113019830Y-115389304D01*
X112935736Y-115276969D01*
X112935735Y-115276968D01*
X112935733Y-115276965D01*
X112921334Y-115266186D01*
X112823393Y-115192867D01*
X112691921Y-115143831D01*
X112691916Y-115143830D01*
X112691914Y-115143829D01*
X112691910Y-115143829D01*
X112665628Y-115141003D01*
X112633791Y-115137581D01*
X112065443Y-115137581D01*
X112040320Y-115140282D01*
X112007323Y-115143829D01*
X112007312Y-115143831D01*
X111875840Y-115192867D01*
X111763505Y-115276961D01*
X111763497Y-115276969D01*
X111679403Y-115389304D01*
X111630367Y-115520776D01*
X111630365Y-115520787D01*
X111628800Y-115535345D01*
X111625417Y-115566821D01*
X111624117Y-115578910D01*
X111624117Y-116051928D01*
X111605210Y-116110119D01*
X111555710Y-116146083D01*
X111494524Y-116146083D01*
X111455113Y-116121932D01*
X111054496Y-115721315D01*
X111026719Y-115666798D01*
X111025500Y-115651311D01*
X111025500Y-113560189D01*
X111044407Y-113501998D01*
X111093907Y-113466034D01*
X111155093Y-113466034D01*
X111194504Y-113490186D01*
X111298878Y-113594561D01*
X111326655Y-113649077D01*
X111326866Y-113650475D01*
X111339068Y-113735341D01*
X111379043Y-113822872D01*
X111395870Y-113859718D01*
X111485411Y-113963055D01*
X111600439Y-114036978D01*
X111731633Y-114075500D01*
X111731634Y-114075500D01*
X111868366Y-114075500D01*
X111868367Y-114075500D01*
X111975656Y-114043997D01*
X112036813Y-114045744D01*
X112085266Y-114083106D01*
X112093595Y-114097854D01*
X112144682Y-114209718D01*
X112234223Y-114313055D01*
X112349251Y-114386978D01*
X112480445Y-114425500D01*
X112480446Y-114425500D01*
X112617178Y-114425500D01*
X112617179Y-114425500D01*
X112748373Y-114386978D01*
X112863401Y-114313055D01*
X112952942Y-114209718D01*
X112994130Y-114119529D01*
X113009742Y-114085345D01*
X113009744Y-114085337D01*
X113029202Y-113950002D01*
X113029202Y-113949997D01*
X113009744Y-113814662D01*
X113009742Y-113814654D01*
X112952943Y-113690284D01*
X112952941Y-113690280D01*
X112923492Y-113656293D01*
X112899675Y-113599933D01*
X112899312Y-113591463D01*
X112899312Y-113527669D01*
X112899312Y-113527668D01*
X112875426Y-113438524D01*
X112829281Y-113358600D01*
X112825332Y-113353454D01*
X112826709Y-113352397D01*
X112802705Y-113305285D01*
X112812276Y-113244853D01*
X112846961Y-113206516D01*
X112914589Y-113163055D01*
X113004130Y-113059718D01*
X113060931Y-112935342D01*
X113070594Y-112868129D01*
X113097589Y-112813225D01*
X113151703Y-112784671D01*
X113212266Y-112793378D01*
X113247839Y-112822892D01*
X113313880Y-112911111D01*
X113313884Y-112911116D01*
X113313887Y-112911118D01*
X113313888Y-112911119D01*
X113426223Y-112995213D01*
X113557695Y-113044249D01*
X113557696Y-113044249D01*
X113557701Y-113044251D01*
X113615826Y-113050500D01*
X113615830Y-113050500D01*
X114184170Y-113050500D01*
X114184174Y-113050500D01*
X114242299Y-113044251D01*
X114331151Y-113011111D01*
X114373776Y-112995213D01*
X114373776Y-112995212D01*
X114373778Y-112995212D01*
X114486116Y-112911116D01*
X114570212Y-112798778D01*
X114571116Y-112796356D01*
X114619169Y-112667518D01*
X114619251Y-112667299D01*
X114625500Y-112609174D01*
X114625500Y-112073688D01*
X114644407Y-112015498D01*
X114654490Y-112003691D01*
X114980470Y-111677712D01*
X115026614Y-111597788D01*
X115050500Y-111508644D01*
X115050500Y-111416356D01*
X115050500Y-107884248D01*
X115026614Y-107795104D01*
X115018409Y-107780892D01*
X114980470Y-107715180D01*
X114855002Y-107589712D01*
X114729496Y-107464205D01*
X114701719Y-107409689D01*
X114700500Y-107394202D01*
X114700500Y-106900327D01*
X114700498Y-106900315D01*
X114690066Y-106847873D01*
X114685966Y-106827260D01*
X114671094Y-106805002D01*
X114654485Y-106746113D01*
X114671094Y-106694998D01*
X114679284Y-106682740D01*
X114685966Y-106672740D01*
X114700500Y-106599674D01*
X114700500Y-106050326D01*
X114685966Y-105977260D01*
X114679852Y-105968109D01*
X114630602Y-105894400D01*
X114630599Y-105894397D01*
X114594499Y-105870276D01*
X114556619Y-105822226D01*
X114550500Y-105787960D01*
X114550500Y-104608528D01*
X114549222Y-104603757D01*
X114526614Y-104519383D01*
X114522351Y-104512000D01*
X114480470Y-104439459D01*
X113105111Y-103064100D01*
X113077334Y-103009583D01*
X113086905Y-102949151D01*
X113096107Y-102934441D01*
X113147173Y-102866821D01*
X113238082Y-102684250D01*
X113293897Y-102488083D01*
X113312715Y-102285000D01*
X113293897Y-102081917D01*
X113238082Y-101885750D01*
X113147173Y-101703179D01*
X113024264Y-101540421D01*
X112873541Y-101403019D01*
X112700137Y-101295652D01*
X112547840Y-101236652D01*
X112500410Y-101198001D01*
X112484756Y-101138852D01*
X112506859Y-101081799D01*
X112557981Y-101048711D01*
X112670990Y-101018430D01*
X112885077Y-100918600D01*
X113078573Y-100783113D01*
X113245613Y-100616073D01*
X113381101Y-100422576D01*
X113381102Y-100422574D01*
X113387775Y-100408265D01*
X113429503Y-100363516D01*
X113489564Y-100351841D01*
X113545017Y-100377698D01*
X113567225Y-100408265D01*
X113573897Y-100422574D01*
X113573898Y-100422576D01*
X113709386Y-100616073D01*
X113876426Y-100783113D01*
X114069922Y-100918600D01*
X114284009Y-101018430D01*
X114397018Y-101048711D01*
X114448332Y-101082035D01*
X114470259Y-101139156D01*
X114454424Y-101198257D01*
X114407157Y-101236653D01*
X114254863Y-101295652D01*
X114119297Y-101379591D01*
X114081459Y-101403019D01*
X113998472Y-101478672D01*
X113930736Y-101540421D01*
X113922188Y-101551740D01*
X113807828Y-101703177D01*
X113807823Y-101703186D01*
X113716919Y-101885747D01*
X113716918Y-101885750D01*
X113661103Y-102081917D01*
X113642285Y-102285000D01*
X113661103Y-102488083D01*
X113716918Y-102684250D01*
X113807827Y-102866821D01*
X113930736Y-103029579D01*
X114081459Y-103166981D01*
X114254863Y-103274348D01*
X114445044Y-103348024D01*
X114645524Y-103385500D01*
X114849476Y-103385500D01*
X114884825Y-103378892D01*
X114945499Y-103386784D01*
X114973020Y-103406202D01*
X115613177Y-104046359D01*
X115640954Y-104100876D01*
X115631383Y-104161308D01*
X115588118Y-104204573D01*
X115552132Y-104214957D01*
X115485158Y-104221042D01*
X115485152Y-104221044D01*
X115332144Y-104268723D01*
X115332132Y-104268728D01*
X115194979Y-104351640D01*
X115081640Y-104464979D01*
X114998728Y-104602132D01*
X114998723Y-104602144D01*
X114951043Y-104755155D01*
X114948331Y-104784999D01*
X114948332Y-104785000D01*
X115728500Y-104785000D01*
X115786691Y-104803907D01*
X115822655Y-104853407D01*
X115827500Y-104884000D01*
X115827500Y-105186000D01*
X115808593Y-105244191D01*
X115759093Y-105280155D01*
X115728500Y-105285000D01*
X114948331Y-105285000D01*
X114951043Y-105314844D01*
X114998723Y-105467855D01*
X114998728Y-105467867D01*
X115082980Y-105607236D01*
X115096904Y-105666816D01*
X115073148Y-105723201D01*
X115068262Y-105728455D01*
X114969530Y-105827187D01*
X114937498Y-105882666D01*
X114937499Y-105882667D01*
X114923386Y-105907111D01*
X114919799Y-105920500D01*
X114901611Y-105988380D01*
X114899500Y-105996257D01*
X114899500Y-107253743D01*
X114913359Y-107305468D01*
X114923385Y-107342885D01*
X114923386Y-107342888D01*
X114969530Y-107422812D01*
X115245910Y-107699191D01*
X115442850Y-107896131D01*
X115470627Y-107950648D01*
X115461056Y-108011080D01*
X115452100Y-108025463D01*
X115381202Y-108120170D01*
X115330910Y-108255011D01*
X115330908Y-108255022D01*
X115328342Y-108278894D01*
X115324961Y-108310344D01*
X115324500Y-108314629D01*
X115324500Y-109085366D01*
X115324501Y-109085370D01*
X115330908Y-109144980D01*
X115330909Y-109144985D01*
X115381202Y-109279829D01*
X115464692Y-109391357D01*
X115467454Y-109395046D01*
X115467457Y-109395048D01*
X115467458Y-109395049D01*
X115582670Y-109481297D01*
X115717511Y-109531589D01*
X115717512Y-109531589D01*
X115717517Y-109531591D01*
X115777127Y-109538000D01*
X116150500Y-109537999D01*
X116208691Y-109556906D01*
X116244655Y-109606406D01*
X116249500Y-109636999D01*
X116249500Y-109690070D01*
X116230593Y-109748261D01*
X116185098Y-109782828D01*
X116126218Y-109804789D01*
X116013888Y-109888880D01*
X116013880Y-109888888D01*
X115929786Y-110001223D01*
X115880750Y-110132695D01*
X115880748Y-110132706D01*
X115874500Y-110190829D01*
X115874500Y-110625500D01*
X115855593Y-110683691D01*
X115806093Y-110719655D01*
X115775500Y-110724500D01*
X115731631Y-110724500D01*
X115600441Y-110763021D01*
X115600439Y-110763021D01*
X115600439Y-110763022D01*
X115485411Y-110836945D01*
X115485410Y-110836945D01*
X115485410Y-110836946D01*
X115395868Y-110940284D01*
X115339069Y-111064654D01*
X115339067Y-111064662D01*
X115319610Y-111199997D01*
X115319610Y-111200002D01*
X115339067Y-111335337D01*
X115339069Y-111335345D01*
X115395868Y-111459715D01*
X115395869Y-111459716D01*
X115395870Y-111459718D01*
X115485411Y-111563055D01*
X115600439Y-111636978D01*
X115731633Y-111675500D01*
X115731634Y-111675500D01*
X115806119Y-111675500D01*
X115864310Y-111694407D01*
X115900274Y-111743907D01*
X115900274Y-111805093D01*
X115898877Y-111809096D01*
X115880750Y-111857695D01*
X115880748Y-111857706D01*
X115874500Y-111915829D01*
X115874500Y-112609170D01*
X115874499Y-112609170D01*
X115880748Y-112667293D01*
X115880750Y-112667304D01*
X115929786Y-112798776D01*
X116013880Y-112911111D01*
X116013884Y-112911116D01*
X116013887Y-112911118D01*
X116013888Y-112911119D01*
X116126223Y-112995213D01*
X116257695Y-113044249D01*
X116257696Y-113044249D01*
X116257701Y-113044251D01*
X116315826Y-113050500D01*
X116315830Y-113050500D01*
X116884170Y-113050500D01*
X116884174Y-113050500D01*
X116942299Y-113044251D01*
X117031151Y-113011111D01*
X117073776Y-112995213D01*
X117073776Y-112995212D01*
X117073778Y-112995212D01*
X117186116Y-112911116D01*
X117270212Y-112798778D01*
X117271116Y-112796356D01*
X117319169Y-112667518D01*
X117319251Y-112667299D01*
X117325500Y-112609174D01*
X117325500Y-112073688D01*
X117344407Y-112015497D01*
X117354490Y-112003690D01*
X118080469Y-111277712D01*
X118126614Y-111197788D01*
X118137756Y-111156204D01*
X118150500Y-111108644D01*
X118150500Y-107899538D01*
X118169407Y-107841347D01*
X118194496Y-107817224D01*
X118230601Y-107793101D01*
X118285966Y-107710240D01*
X118300500Y-107637174D01*
X118300500Y-107087826D01*
X118300500Y-106837826D01*
X118300387Y-106837260D01*
X118290333Y-106786714D01*
X118285966Y-106764760D01*
X118271094Y-106742502D01*
X118254485Y-106683613D01*
X118271094Y-106632498D01*
X118273385Y-106629067D01*
X118285966Y-106610240D01*
X118300500Y-106537174D01*
X118300500Y-105987826D01*
X118300387Y-105987260D01*
X118295511Y-105962744D01*
X118285966Y-105914760D01*
X118274099Y-105897000D01*
X118230602Y-105831900D01*
X118230599Y-105831897D01*
X118194499Y-105807776D01*
X118156619Y-105759726D01*
X118150500Y-105725460D01*
X118150500Y-104743529D01*
X118148341Y-104735470D01*
X118126614Y-104654384D01*
X118080470Y-104574460D01*
X117135540Y-103629530D01*
X117055616Y-103583386D01*
X116966472Y-103559500D01*
X116966470Y-103559500D01*
X116158690Y-103559500D01*
X116100499Y-103540593D01*
X116088686Y-103530504D01*
X115635289Y-103077107D01*
X115607512Y-103022590D01*
X115617083Y-102962158D01*
X115626284Y-102947449D01*
X115687173Y-102866821D01*
X115778082Y-102684250D01*
X115833897Y-102488083D01*
X115852715Y-102285000D01*
X115833897Y-102081917D01*
X115778082Y-101885750D01*
X115687173Y-101703179D01*
X115564264Y-101540421D01*
X115413541Y-101403019D01*
X115240137Y-101295652D01*
X115087840Y-101236652D01*
X115040410Y-101198001D01*
X115024756Y-101138852D01*
X115046859Y-101081799D01*
X115097981Y-101048711D01*
X115210990Y-101018430D01*
X115425077Y-100918600D01*
X115618573Y-100783113D01*
X115785613Y-100616073D01*
X115921101Y-100422576D01*
X115921102Y-100422574D01*
X115927775Y-100408265D01*
X115969503Y-100363516D01*
X116029564Y-100351841D01*
X116085017Y-100377698D01*
X116107225Y-100408265D01*
X116113897Y-100422574D01*
X116113898Y-100422576D01*
X116249386Y-100616073D01*
X116416426Y-100783113D01*
X116609922Y-100918600D01*
X116824009Y-101018430D01*
X116937018Y-101048711D01*
X116988332Y-101082035D01*
X117010259Y-101139156D01*
X116994424Y-101198257D01*
X116947157Y-101236653D01*
X116794863Y-101295652D01*
X116659297Y-101379591D01*
X116621459Y-101403019D01*
X116538472Y-101478672D01*
X116470736Y-101540421D01*
X116462188Y-101551740D01*
X116347828Y-101703177D01*
X116347823Y-101703186D01*
X116256919Y-101885747D01*
X116256918Y-101885750D01*
X116201103Y-102081917D01*
X116182285Y-102285000D01*
X116201103Y-102488083D01*
X116256918Y-102684250D01*
X116347827Y-102866821D01*
X116470736Y-103029579D01*
X116621459Y-103166981D01*
X116794863Y-103274348D01*
X116985044Y-103348024D01*
X117185524Y-103385500D01*
X117389476Y-103385500D01*
X117424825Y-103378892D01*
X117485499Y-103386784D01*
X117513020Y-103406202D01*
X118337288Y-104230470D01*
X118347930Y-104236614D01*
X118389299Y-104260499D01*
X118389302Y-104260500D01*
X118392766Y-104262500D01*
X118417208Y-104276612D01*
X118417209Y-104276612D01*
X118417212Y-104276614D01*
X118506356Y-104300500D01*
X118506357Y-104300500D01*
X118598644Y-104300500D01*
X118607175Y-104300500D01*
X118665366Y-104319407D01*
X118701330Y-104368907D01*
X118701330Y-104430093D01*
X118685110Y-104460551D01*
X118681640Y-104464980D01*
X118598728Y-104602132D01*
X118598723Y-104602144D01*
X118551043Y-104755155D01*
X118548331Y-104784999D01*
X118548332Y-104785000D01*
X119328500Y-104785000D01*
X119386691Y-104803907D01*
X119422655Y-104853407D01*
X119427500Y-104884000D01*
X119427500Y-105186000D01*
X119408593Y-105244191D01*
X119359093Y-105280155D01*
X119328500Y-105285000D01*
X118548331Y-105285000D01*
X118551043Y-105314844D01*
X118598723Y-105467855D01*
X118598728Y-105467867D01*
X118681640Y-105605020D01*
X118702915Y-105626295D01*
X118730692Y-105680812D01*
X118721121Y-105741244D01*
X118702915Y-105766302D01*
X118569529Y-105899688D01*
X118529205Y-105969532D01*
X118523388Y-105979606D01*
X118523387Y-105979608D01*
X118521337Y-105987260D01*
X118499500Y-106068756D01*
X118499500Y-107326244D01*
X118517146Y-107392099D01*
X118520950Y-107406296D01*
X118520950Y-107406297D01*
X118523338Y-107415212D01*
X118523386Y-107415388D01*
X118569530Y-107495312D01*
X118844145Y-107769926D01*
X119042850Y-107968631D01*
X119070627Y-108023148D01*
X119061056Y-108083580D01*
X119052100Y-108097963D01*
X118981202Y-108192670D01*
X118930910Y-108327511D01*
X118930908Y-108327522D01*
X118924500Y-108387129D01*
X118924500Y-109157866D01*
X118924501Y-109157870D01*
X118930908Y-109217480D01*
X118930909Y-109217485D01*
X118981202Y-109352329D01*
X119015974Y-109398778D01*
X119067454Y-109467546D01*
X119067457Y-109467548D01*
X119067458Y-109467549D01*
X119182670Y-109553797D01*
X119317511Y-109604089D01*
X119317512Y-109604089D01*
X119317517Y-109604091D01*
X119377127Y-109610500D01*
X119750500Y-109610499D01*
X119808691Y-109629406D01*
X119844655Y-109678906D01*
X119849500Y-109709499D01*
X119849500Y-109790070D01*
X119830593Y-109848261D01*
X119785098Y-109882828D01*
X119726218Y-109904789D01*
X119613888Y-109988880D01*
X119613880Y-109988888D01*
X119529786Y-110101223D01*
X119480750Y-110232695D01*
X119480748Y-110232706D01*
X119478205Y-110256364D01*
X119474582Y-110290070D01*
X119474500Y-110290829D01*
X119474500Y-110984170D01*
X119474499Y-110984170D01*
X119480748Y-111042293D01*
X119480750Y-111042304D01*
X119529786Y-111173776D01*
X119607593Y-111277712D01*
X119613884Y-111286116D01*
X119613887Y-111286118D01*
X119613888Y-111286119D01*
X119726223Y-111370213D01*
X119825503Y-111407242D01*
X119873418Y-111445292D01*
X119889816Y-111504239D01*
X119868434Y-111561567D01*
X119825503Y-111592758D01*
X119726223Y-111629786D01*
X119613888Y-111713880D01*
X119613880Y-111713888D01*
X119529786Y-111826223D01*
X119480750Y-111957695D01*
X119480748Y-111957706D01*
X119478074Y-111982578D01*
X119474536Y-112015498D01*
X119474500Y-112015829D01*
X119474500Y-112709170D01*
X119474499Y-112709170D01*
X119480748Y-112767293D01*
X119480750Y-112767304D01*
X119529786Y-112898776D01*
X119613880Y-113011111D01*
X119613884Y-113011116D01*
X119613887Y-113011118D01*
X119613888Y-113011119D01*
X119726223Y-113095213D01*
X119857695Y-113144249D01*
X119857696Y-113144249D01*
X119857701Y-113144251D01*
X119915826Y-113150500D01*
X119915830Y-113150500D01*
X120484170Y-113150500D01*
X120484174Y-113150500D01*
X120542299Y-113144251D01*
X120592993Y-113125343D01*
X120673776Y-113095213D01*
X120673776Y-113095212D01*
X120673778Y-113095212D01*
X120786116Y-113011116D01*
X120870212Y-112898778D01*
X120871091Y-112896423D01*
X120919249Y-112767304D01*
X120919248Y-112767304D01*
X120919251Y-112767299D01*
X120925500Y-112709174D01*
X120925500Y-112173688D01*
X120944407Y-112115497D01*
X120954490Y-112103690D01*
X121680469Y-111377712D01*
X121726614Y-111297788D01*
X121729741Y-111286116D01*
X121729743Y-111286111D01*
X121750500Y-111208643D01*
X121750500Y-107972038D01*
X121769407Y-107913847D01*
X121794496Y-107889724D01*
X121830601Y-107865601D01*
X121885966Y-107782740D01*
X121900500Y-107709674D01*
X121900500Y-107160326D01*
X121900500Y-106910326D01*
X121899934Y-106907483D01*
X121896399Y-106889709D01*
X121885966Y-106837260D01*
X121871094Y-106815002D01*
X121854485Y-106756113D01*
X121871094Y-106704998D01*
X121877774Y-106695000D01*
X121885966Y-106682740D01*
X121900500Y-106609674D01*
X121900500Y-106060326D01*
X121885966Y-105987260D01*
X121843356Y-105923488D01*
X121830602Y-105904400D01*
X121830599Y-105904397D01*
X121794499Y-105880276D01*
X121756619Y-105832226D01*
X121750500Y-105797960D01*
X121750500Y-104832499D01*
X122148331Y-104832499D01*
X122148332Y-104832500D01*
X122777499Y-104832500D01*
X122777500Y-104832499D01*
X122777500Y-104262501D01*
X122777499Y-104262500D01*
X122751654Y-104262500D01*
X122685158Y-104268542D01*
X122685152Y-104268544D01*
X122532144Y-104316223D01*
X122532132Y-104316228D01*
X122394979Y-104399140D01*
X122281640Y-104512479D01*
X122198728Y-104649632D01*
X122198723Y-104649644D01*
X122151043Y-104802655D01*
X122148331Y-104832499D01*
X121750500Y-104832499D01*
X121750500Y-104743529D01*
X121748341Y-104735470D01*
X121726614Y-104654384D01*
X121680470Y-104574460D01*
X120775540Y-103669530D01*
X120695616Y-103623386D01*
X120606472Y-103599500D01*
X120606470Y-103599500D01*
X118738690Y-103599500D01*
X118680499Y-103580593D01*
X118668686Y-103570504D01*
X118175289Y-103077107D01*
X118147512Y-103022590D01*
X118157083Y-102962158D01*
X118166284Y-102947449D01*
X118227173Y-102866821D01*
X118318082Y-102684250D01*
X118373897Y-102488083D01*
X118392715Y-102285000D01*
X118373897Y-102081917D01*
X118318082Y-101885750D01*
X118227173Y-101703179D01*
X118104264Y-101540421D01*
X117953541Y-101403019D01*
X117780137Y-101295652D01*
X117627840Y-101236652D01*
X117580410Y-101198001D01*
X117564756Y-101138852D01*
X117586859Y-101081799D01*
X117637981Y-101048711D01*
X117750990Y-101018430D01*
X117965077Y-100918600D01*
X118158573Y-100783113D01*
X118325613Y-100616073D01*
X118461101Y-100422576D01*
X118461102Y-100422574D01*
X118467775Y-100408265D01*
X118509503Y-100363516D01*
X118569564Y-100351841D01*
X118625017Y-100377698D01*
X118647225Y-100408265D01*
X118653897Y-100422574D01*
X118653898Y-100422576D01*
X118789386Y-100616073D01*
X118956426Y-100783113D01*
X119149922Y-100918600D01*
X119364009Y-101018430D01*
X119477018Y-101048711D01*
X119528332Y-101082035D01*
X119550259Y-101139156D01*
X119534424Y-101198257D01*
X119487157Y-101236653D01*
X119334863Y-101295652D01*
X119199297Y-101379591D01*
X119161459Y-101403019D01*
X119078472Y-101478672D01*
X119010736Y-101540421D01*
X119002188Y-101551740D01*
X118887828Y-101703177D01*
X118887823Y-101703186D01*
X118796919Y-101885747D01*
X118796918Y-101885750D01*
X118741103Y-102081917D01*
X118722285Y-102285000D01*
X118741103Y-102488083D01*
X118796918Y-102684250D01*
X118887827Y-102866821D01*
X119010736Y-103029579D01*
X119161459Y-103166981D01*
X119334863Y-103274348D01*
X119525044Y-103348024D01*
X119725524Y-103385500D01*
X119929476Y-103385500D01*
X120129956Y-103348024D01*
X120320137Y-103274348D01*
X120493541Y-103166981D01*
X120644264Y-103029579D01*
X120702814Y-102952044D01*
X120752968Y-102917003D01*
X120814143Y-102918134D01*
X120851820Y-102941703D01*
X121790587Y-103880470D01*
X121831095Y-103903857D01*
X121870511Y-103926614D01*
X121959655Y-103950500D01*
X124313810Y-103950500D01*
X124372001Y-103969407D01*
X124383814Y-103979496D01*
X124620504Y-104216186D01*
X124648281Y-104270703D01*
X124649500Y-104286190D01*
X124649500Y-104431924D01*
X124630593Y-104490115D01*
X124581093Y-104526079D01*
X124531501Y-104526084D01*
X124531128Y-104528444D01*
X124523433Y-104527225D01*
X124442056Y-104514336D01*
X124427308Y-104512000D01*
X123917695Y-104512000D01*
X123842500Y-104523909D01*
X123782068Y-104514336D01*
X123757011Y-104496131D01*
X123660020Y-104399140D01*
X123522867Y-104316228D01*
X123522855Y-104316223D01*
X123369847Y-104268544D01*
X123369841Y-104268542D01*
X123303345Y-104262500D01*
X123277501Y-104262500D01*
X123277500Y-104262501D01*
X123277500Y-104983500D01*
X123258593Y-105041691D01*
X123209093Y-105077655D01*
X123178500Y-105082500D01*
X123027501Y-105082500D01*
X123027500Y-105082501D01*
X123027500Y-105233500D01*
X123008593Y-105291691D01*
X122959093Y-105327655D01*
X122928500Y-105332500D01*
X122148331Y-105332500D01*
X122151043Y-105362344D01*
X122198723Y-105515355D01*
X122198728Y-105515367D01*
X122281640Y-105652520D01*
X122297915Y-105668795D01*
X122325692Y-105723312D01*
X122316121Y-105783744D01*
X122297915Y-105808802D01*
X122169530Y-105937187D01*
X122133777Y-105999111D01*
X122133778Y-105999112D01*
X122123386Y-106017111D01*
X122119774Y-106030593D01*
X122099500Y-106106256D01*
X122099500Y-107806144D01*
X122112752Y-107855601D01*
X122120428Y-107884248D01*
X122120428Y-107884250D01*
X122123383Y-107895282D01*
X122123384Y-107895284D01*
X122123385Y-107895286D01*
X122123386Y-107895288D01*
X122169530Y-107975212D01*
X122351558Y-108157240D01*
X122500175Y-108305856D01*
X122527953Y-108360373D01*
X122528605Y-108386441D01*
X122524500Y-108424627D01*
X122524500Y-109195366D01*
X122524500Y-109195369D01*
X122524501Y-109195372D01*
X122524998Y-109199996D01*
X122530908Y-109254980D01*
X122530909Y-109254985D01*
X122581202Y-109389829D01*
X122649675Y-109481297D01*
X122667454Y-109505046D01*
X122667457Y-109505048D01*
X122667458Y-109505049D01*
X122755887Y-109571247D01*
X122791140Y-109621255D01*
X122790266Y-109682435D01*
X122753599Y-109731416D01*
X122696558Y-109749500D01*
X122515826Y-109749500D01*
X122487823Y-109752510D01*
X122457706Y-109755748D01*
X122457695Y-109755750D01*
X122326223Y-109804786D01*
X122213888Y-109888880D01*
X122213880Y-109888888D01*
X122129786Y-110001223D01*
X122080750Y-110132695D01*
X122080748Y-110132706D01*
X122074500Y-110190829D01*
X122074500Y-110884170D01*
X122074499Y-110884170D01*
X122080748Y-110942293D01*
X122080750Y-110942304D01*
X122129786Y-111073776D01*
X122194096Y-111159683D01*
X122213884Y-111186116D01*
X122213887Y-111186118D01*
X122213888Y-111186119D01*
X122326223Y-111270213D01*
X122425503Y-111307242D01*
X122473418Y-111345292D01*
X122489816Y-111404239D01*
X122468434Y-111461567D01*
X122425503Y-111492758D01*
X122326223Y-111529786D01*
X122213888Y-111613880D01*
X122213880Y-111613888D01*
X122129786Y-111726223D01*
X122080750Y-111857695D01*
X122080748Y-111857706D01*
X122074500Y-111915829D01*
X122074500Y-112609170D01*
X122074499Y-112609170D01*
X122080748Y-112667293D01*
X122080750Y-112667304D01*
X122129786Y-112798776D01*
X122213880Y-112911111D01*
X122213884Y-112911116D01*
X122213887Y-112911118D01*
X122213888Y-112911119D01*
X122326223Y-112995213D01*
X122457695Y-113044249D01*
X122457696Y-113044249D01*
X122457701Y-113044251D01*
X122515826Y-113050500D01*
X122515830Y-113050500D01*
X123084170Y-113050500D01*
X123084174Y-113050500D01*
X123142299Y-113044251D01*
X123231151Y-113011111D01*
X123273776Y-112995213D01*
X123273776Y-112995212D01*
X123273778Y-112995212D01*
X123356589Y-112933219D01*
X123414502Y-112913483D01*
X123472957Y-112931557D01*
X123509625Y-112980538D01*
X123510499Y-113041717D01*
X123505971Y-113053596D01*
X123489210Y-113090299D01*
X123468853Y-113134875D01*
X123468852Y-113134877D01*
X123449395Y-113270212D01*
X123449395Y-113270217D01*
X123468852Y-113405552D01*
X123468854Y-113405560D01*
X123525653Y-113529930D01*
X123525654Y-113529931D01*
X123525655Y-113529933D01*
X123615196Y-113633270D01*
X123730224Y-113707193D01*
X123861418Y-113745715D01*
X123861419Y-113745715D01*
X123998151Y-113745715D01*
X123998152Y-113745715D01*
X124129346Y-113707193D01*
X124244374Y-113633270D01*
X124333915Y-113529933D01*
X124342142Y-113511917D01*
X124383513Y-113466839D01*
X124443479Y-113454687D01*
X124467949Y-113460724D01*
X124590044Y-113508024D01*
X124790524Y-113545500D01*
X124994476Y-113545500D01*
X125194956Y-113508024D01*
X125385137Y-113434348D01*
X125558541Y-113326981D01*
X125709264Y-113189579D01*
X125832173Y-113026821D01*
X125923082Y-112844250D01*
X125978897Y-112648083D01*
X125997715Y-112445000D01*
X125978897Y-112241917D01*
X125923082Y-112045750D01*
X125832173Y-111863179D01*
X125709264Y-111700421D01*
X125558541Y-111563019D01*
X125385137Y-111455652D01*
X125194956Y-111381976D01*
X125194955Y-111381975D01*
X125194953Y-111381975D01*
X124994476Y-111344500D01*
X124790524Y-111344500D01*
X124590046Y-111381975D01*
X124564277Y-111391958D01*
X124399863Y-111455652D01*
X124278278Y-111530934D01*
X124226459Y-111563019D01*
X124091425Y-111686119D01*
X124075736Y-111700421D01*
X124056252Y-111726222D01*
X123952828Y-111863177D01*
X123952823Y-111863186D01*
X123864398Y-112040769D01*
X123861918Y-112045750D01*
X123820507Y-112191292D01*
X123806103Y-112241917D01*
X123787285Y-112445000D01*
X123806103Y-112648085D01*
X123806104Y-112648086D01*
X123822005Y-112703974D01*
X123819744Y-112765118D01*
X123781975Y-112813255D01*
X123754679Y-112826055D01*
X123730226Y-112833235D01*
X123621562Y-112903069D01*
X123562386Y-112918622D01*
X123505370Y-112896423D01*
X123472291Y-112844951D01*
X123475281Y-112785187D01*
X123519251Y-112667299D01*
X123525500Y-112609174D01*
X123525500Y-111915826D01*
X123519251Y-111857701D01*
X123513179Y-111841424D01*
X123510558Y-111780298D01*
X123535931Y-111736825D01*
X124230470Y-111042288D01*
X124276614Y-110962364D01*
X124287462Y-110921878D01*
X124300500Y-110873220D01*
X124300500Y-110615085D01*
X124319407Y-110556894D01*
X124368907Y-110520930D01*
X124430093Y-110520930D01*
X124474320Y-110550255D01*
X124485411Y-110563055D01*
X124600439Y-110636978D01*
X124731633Y-110675500D01*
X124731634Y-110675500D01*
X124868366Y-110675500D01*
X124868367Y-110675500D01*
X124999561Y-110636978D01*
X125114589Y-110563055D01*
X125204130Y-110459718D01*
X125240195Y-110380748D01*
X125260930Y-110335345D01*
X125260932Y-110335337D01*
X125280390Y-110200001D01*
X125280390Y-110199997D01*
X125260932Y-110064662D01*
X125260930Y-110064654D01*
X125204131Y-109940284D01*
X125204130Y-109940283D01*
X125204130Y-109940282D01*
X125114589Y-109836945D01*
X124999561Y-109763022D01*
X124999558Y-109763021D01*
X124908965Y-109736420D01*
X124858458Y-109701883D01*
X124837897Y-109644256D01*
X124855136Y-109585549D01*
X124866854Y-109571426D01*
X124973626Y-109464654D01*
X125280469Y-109157812D01*
X125326614Y-109077888D01*
X125350500Y-108988744D01*
X125350500Y-108019538D01*
X125369407Y-107961347D01*
X125394496Y-107937224D01*
X125430601Y-107913101D01*
X125485966Y-107830240D01*
X125500500Y-107757174D01*
X125500500Y-107207826D01*
X125500500Y-106957826D01*
X125485966Y-106884760D01*
X125471094Y-106862502D01*
X125454485Y-106803613D01*
X125471094Y-106752498D01*
X125477773Y-106742502D01*
X125485966Y-106730240D01*
X125500500Y-106657174D01*
X125500500Y-106107826D01*
X125498943Y-106100001D01*
X125492856Y-106069397D01*
X125485966Y-106034760D01*
X125467424Y-106007009D01*
X125430602Y-105951900D01*
X125430599Y-105951897D01*
X125394499Y-105927776D01*
X125356619Y-105879726D01*
X125350500Y-105845460D01*
X125350500Y-104053857D01*
X125337117Y-104003911D01*
X125326614Y-103964712D01*
X125291479Y-103903857D01*
X125280470Y-103884788D01*
X124715212Y-103319530D01*
X124635288Y-103273386D01*
X124546144Y-103249500D01*
X124546142Y-103249500D01*
X123183570Y-103249500D01*
X123125379Y-103230593D01*
X123089415Y-103181093D01*
X123089415Y-103119907D01*
X123116872Y-103077339D01*
X123169264Y-103029579D01*
X123292173Y-102866821D01*
X123383082Y-102684250D01*
X123438897Y-102488083D01*
X123457715Y-102285000D01*
X123438897Y-102081917D01*
X123383082Y-101885750D01*
X123292173Y-101703179D01*
X123169264Y-101540421D01*
X123018541Y-101403019D01*
X122845137Y-101295652D01*
X122654956Y-101221976D01*
X122654955Y-101221975D01*
X122654953Y-101221975D01*
X122454476Y-101184500D01*
X122250524Y-101184500D01*
X122050046Y-101221975D01*
X122012158Y-101236653D01*
X121859863Y-101295652D01*
X121724297Y-101379591D01*
X121686459Y-101403019D01*
X121603472Y-101478672D01*
X121535736Y-101540421D01*
X121527188Y-101551740D01*
X121412828Y-101703177D01*
X121412823Y-101703186D01*
X121321919Y-101885747D01*
X121266103Y-102081917D01*
X121261587Y-102130655D01*
X121237390Y-102186853D01*
X121184783Y-102218096D01*
X121123858Y-102212450D01*
X121093005Y-102191524D01*
X120904438Y-102002957D01*
X120879221Y-101960046D01*
X120858082Y-101885750D01*
X120767173Y-101703179D01*
X120644264Y-101540421D01*
X120493541Y-101403019D01*
X120320137Y-101295652D01*
X120167840Y-101236652D01*
X120120410Y-101198001D01*
X120104756Y-101138852D01*
X120126859Y-101081799D01*
X120177981Y-101048711D01*
X120290990Y-101018430D01*
X120505077Y-100918600D01*
X120698573Y-100783113D01*
X120865613Y-100616073D01*
X121001100Y-100422577D01*
X121100930Y-100208489D01*
X121158136Y-99995000D01*
X120260512Y-99995000D01*
X120293425Y-99937993D01*
X120327500Y-99810826D01*
X120327500Y-99679174D01*
X120293425Y-99552007D01*
X120260512Y-99495000D01*
X121158136Y-99495000D01*
X121100929Y-99281505D01*
X121001105Y-99067432D01*
X121001101Y-99067424D01*
X120865613Y-98873926D01*
X120698573Y-98706886D01*
X120505077Y-98571399D01*
X120290989Y-98471569D01*
X120077500Y-98414364D01*
X120077500Y-99311988D01*
X120020493Y-99279075D01*
X119893326Y-99245000D01*
X119761674Y-99245000D01*
X119634507Y-99279075D01*
X119577500Y-99311988D01*
X119577500Y-98414364D01*
X119364005Y-98471570D01*
X119149932Y-98571394D01*
X119149924Y-98571398D01*
X118956426Y-98706886D01*
X118789386Y-98873926D01*
X118653898Y-99067424D01*
X118653896Y-99067428D01*
X118647224Y-99081737D01*
X118605495Y-99126485D01*
X118545434Y-99138159D01*
X118489981Y-99112300D01*
X118467776Y-99081737D01*
X118461103Y-99067428D01*
X118461101Y-99067424D01*
X118325613Y-98873926D01*
X118158573Y-98706886D01*
X117965077Y-98571399D01*
X117750989Y-98471569D01*
X117537500Y-98414364D01*
X117537500Y-99311988D01*
X117480493Y-99279075D01*
X117353326Y-99245000D01*
X117221674Y-99245000D01*
X117094507Y-99279075D01*
X117037500Y-99311988D01*
X117037500Y-98414364D01*
X116824005Y-98471570D01*
X116609932Y-98571394D01*
X116609924Y-98571398D01*
X116416426Y-98706886D01*
X116249386Y-98873926D01*
X116113898Y-99067424D01*
X116113896Y-99067428D01*
X116107224Y-99081737D01*
X116065495Y-99126485D01*
X116005434Y-99138159D01*
X115949981Y-99112300D01*
X115927776Y-99081737D01*
X115921103Y-99067428D01*
X115921101Y-99067424D01*
X115785613Y-98873926D01*
X115618573Y-98706886D01*
X115425077Y-98571399D01*
X115210989Y-98471569D01*
X114997500Y-98414364D01*
X114997500Y-99311988D01*
X114940493Y-99279075D01*
X114813326Y-99245000D01*
X114681674Y-99245000D01*
X114554507Y-99279075D01*
X114497500Y-99311988D01*
X114497500Y-98414364D01*
X114284005Y-98471570D01*
X114069932Y-98571394D01*
X114069924Y-98571398D01*
X113876426Y-98706886D01*
X113709386Y-98873926D01*
X113573898Y-99067424D01*
X113573896Y-99067428D01*
X113567224Y-99081737D01*
X113525495Y-99126485D01*
X113465434Y-99138159D01*
X113409981Y-99112300D01*
X113387776Y-99081737D01*
X113381103Y-99067428D01*
X113381101Y-99067424D01*
X113245613Y-98873926D01*
X113078573Y-98706886D01*
X112885077Y-98571399D01*
X112670989Y-98471569D01*
X112457500Y-98414364D01*
X112457500Y-99311988D01*
X112400493Y-99279075D01*
X112273326Y-99245000D01*
X112141674Y-99245000D01*
X112014507Y-99279075D01*
X111957500Y-99311988D01*
X111957500Y-98414364D01*
X111744005Y-98471570D01*
X111529932Y-98571394D01*
X111529924Y-98571398D01*
X111336426Y-98706886D01*
X111169386Y-98873926D01*
X111033898Y-99067424D01*
X111033896Y-99067428D01*
X111027224Y-99081737D01*
X110985495Y-99126485D01*
X110925434Y-99138159D01*
X110869981Y-99112300D01*
X110847776Y-99081737D01*
X110841103Y-99067428D01*
X110841101Y-99067424D01*
X110705613Y-98873926D01*
X110538573Y-98706886D01*
X110345077Y-98571399D01*
X110130989Y-98471569D01*
X109917500Y-98414364D01*
X109917500Y-99311988D01*
X109860493Y-99279075D01*
X109733326Y-99245000D01*
X109601674Y-99245000D01*
X109474507Y-99279075D01*
X109417500Y-99311988D01*
X109417500Y-98414364D01*
X109204005Y-98471570D01*
X108989932Y-98571394D01*
X108989924Y-98571398D01*
X108796426Y-98706886D01*
X108629386Y-98873926D01*
X108493898Y-99067424D01*
X108493896Y-99067428D01*
X108487224Y-99081737D01*
X108445495Y-99126485D01*
X108385434Y-99138159D01*
X108329981Y-99112300D01*
X108307776Y-99081737D01*
X108301103Y-99067428D01*
X108301101Y-99067424D01*
X108165613Y-98873926D01*
X107998573Y-98706886D01*
X107805077Y-98571399D01*
X107590989Y-98471569D01*
X107377500Y-98414364D01*
X107377500Y-99311988D01*
X107320493Y-99279075D01*
X107193326Y-99245000D01*
X107061674Y-99245000D01*
X106934507Y-99279075D01*
X106877500Y-99311988D01*
X106877500Y-98414364D01*
X106664005Y-98471570D01*
X106449932Y-98571394D01*
X106449924Y-98571398D01*
X106256426Y-98706886D01*
X106089386Y-98873926D01*
X105953898Y-99067424D01*
X105953896Y-99067428D01*
X105947224Y-99081737D01*
X105905495Y-99126485D01*
X105845434Y-99138159D01*
X105789981Y-99112300D01*
X105767776Y-99081737D01*
X105761103Y-99067428D01*
X105761101Y-99067424D01*
X105625613Y-98873926D01*
X105458573Y-98706886D01*
X105265077Y-98571399D01*
X105050989Y-98471569D01*
X104837500Y-98414364D01*
X104837500Y-99311988D01*
X104780493Y-99279075D01*
X104653326Y-99245000D01*
X104521674Y-99245000D01*
X104394507Y-99279075D01*
X104337500Y-99311988D01*
X104337500Y-98414364D01*
X104124005Y-98471570D01*
X103909932Y-98571394D01*
X103909924Y-98571398D01*
X103716425Y-98706887D01*
X103716421Y-98706890D01*
X103561158Y-98862153D01*
X103506642Y-98889930D01*
X103446210Y-98880359D01*
X103402945Y-98837094D01*
X103392722Y-98802731D01*
X103391098Y-98787629D01*
X103391096Y-98787618D01*
X103340853Y-98652911D01*
X103340852Y-98652909D01*
X103254692Y-98537815D01*
X103254684Y-98537807D01*
X103139590Y-98451647D01*
X103139588Y-98451646D01*
X103004881Y-98401403D01*
X103004870Y-98401401D01*
X102945324Y-98395000D01*
X102297501Y-98395000D01*
X102297500Y-98395001D01*
X102297500Y-99311988D01*
X102240493Y-99279075D01*
X102113326Y-99245000D01*
X101981674Y-99245000D01*
X101854507Y-99279075D01*
X101797500Y-99311988D01*
X101797500Y-98395001D01*
X101797499Y-98395000D01*
X101149676Y-98395000D01*
X101090129Y-98401401D01*
X101090118Y-98401403D01*
X100955411Y-98451646D01*
X100955409Y-98451647D01*
X100840315Y-98537807D01*
X100840307Y-98537815D01*
X100754147Y-98652909D01*
X100754146Y-98652911D01*
X100703903Y-98787618D01*
X100703901Y-98787629D01*
X100697500Y-98847175D01*
X100697500Y-99494999D01*
X100697501Y-99495000D01*
X101614488Y-99495000D01*
X101581575Y-99552007D01*
X101547500Y-99679174D01*
X101547500Y-99810826D01*
X101581575Y-99937993D01*
X101614488Y-99995000D01*
X100697501Y-99995000D01*
X100697500Y-99995001D01*
X100697500Y-100642832D01*
X100698262Y-100649914D01*
X100685686Y-100709793D01*
X100640315Y-100750843D01*
X100599830Y-100759500D01*
X100443856Y-100759500D01*
X100389297Y-100774118D01*
X100354707Y-100783387D01*
X100274791Y-100829527D01*
X99083814Y-102020504D01*
X99029297Y-102048281D01*
X99013810Y-102049500D01*
X94681356Y-102049500D01*
X94643498Y-102059644D01*
X94605639Y-102069788D01*
X94605638Y-102069787D01*
X94592214Y-102073385D01*
X94512288Y-102119530D01*
X92131312Y-104500504D01*
X92076795Y-104528281D01*
X92061308Y-104529500D01*
X91772691Y-104529500D01*
X91676567Y-104544725D01*
X91676560Y-104544727D01*
X91560708Y-104603757D01*
X91468757Y-104695708D01*
X91409726Y-104811563D01*
X91409725Y-104811565D01*
X91394500Y-104907691D01*
X91394500Y-105292308D01*
X91409725Y-105388432D01*
X91409727Y-105388439D01*
X91468757Y-105504291D01*
X91468759Y-105504294D01*
X91560706Y-105596241D01*
X91560708Y-105596242D01*
X91674492Y-105654218D01*
X91676567Y-105655275D01*
X91772693Y-105670500D01*
X92061310Y-105670499D01*
X92119500Y-105689406D01*
X92131313Y-105699495D01*
X92220503Y-105788684D01*
X92248281Y-105843200D01*
X92249500Y-105858688D01*
X92249500Y-105900500D01*
X92230593Y-105958691D01*
X92181093Y-105994655D01*
X92150500Y-105999500D01*
X91725326Y-105999500D01*
X91725325Y-105999500D01*
X91725315Y-105999501D01*
X91652263Y-106014033D01*
X91652257Y-106014035D01*
X91569400Y-106069397D01*
X91569399Y-106069399D01*
X91514035Y-106152257D01*
X91514033Y-106152263D01*
X91499501Y-106225315D01*
X91499500Y-106225327D01*
X91499500Y-106463810D01*
X91480593Y-106522001D01*
X91470504Y-106533813D01*
X91404980Y-106599337D01*
X91404978Y-106599339D01*
X91404978Y-106599340D01*
X91395939Y-106614996D01*
X91378926Y-106644463D01*
X91333455Y-106685403D01*
X91318815Y-106690587D01*
X91289711Y-106698385D01*
X91209790Y-106744529D01*
X91144529Y-106809790D01*
X91098387Y-106889709D01*
X91098386Y-106889711D01*
X91098386Y-106889712D01*
X91074500Y-106978856D01*
X90875500Y-106978856D01*
X90875500Y-104751353D01*
X90894407Y-104693162D01*
X90904496Y-104681349D01*
X91999140Y-103586705D01*
X92053657Y-103558928D01*
X92069144Y-103557709D01*
X92076320Y-103557709D01*
X92076321Y-103557709D01*
X92207515Y-103519187D01*
X92322543Y-103445264D01*
X92412084Y-103341927D01*
X92462929Y-103230593D01*
X92468884Y-103217554D01*
X92468886Y-103217546D01*
X92488344Y-103082211D01*
X92488344Y-103082206D01*
X92469213Y-102949151D01*
X92468885Y-102946867D01*
X92468884Y-102946866D01*
X92468796Y-102946249D01*
X92479229Y-102885960D01*
X92511789Y-102849843D01*
X92513335Y-102848810D01*
X92534601Y-102834601D01*
X92589966Y-102751740D01*
X92604500Y-102678674D01*
X92604500Y-102295500D01*
X92623407Y-102237309D01*
X92672907Y-102201345D01*
X92703500Y-102196500D01*
X93200142Y-102196500D01*
X93200144Y-102196500D01*
X93289288Y-102172614D01*
X93369212Y-102126470D01*
X93580470Y-101915212D01*
X93626614Y-101835288D01*
X93627421Y-101832273D01*
X93635646Y-101801583D01*
X93641082Y-101781290D01*
X93650500Y-101746144D01*
X93650500Y-101743712D01*
X93651038Y-101742055D01*
X93651347Y-101739710D01*
X93651781Y-101739767D01*
X93669407Y-101685521D01*
X93694500Y-101661396D01*
X93734597Y-101634604D01*
X93734597Y-101634603D01*
X93734601Y-101634601D01*
X93789966Y-101551740D01*
X93804500Y-101478674D01*
X93804500Y-100921326D01*
X93789966Y-100848260D01*
X93746620Y-100783387D01*
X93734602Y-100765400D01*
X93734599Y-100765397D01*
X93651742Y-100710035D01*
X93651740Y-100710034D01*
X93651737Y-100710033D01*
X93651736Y-100710033D01*
X93578684Y-100695501D01*
X93578674Y-100695500D01*
X93021326Y-100695500D01*
X93021325Y-100695500D01*
X93021315Y-100695501D01*
X92948263Y-100710033D01*
X92948261Y-100710033D01*
X92948260Y-100710034D01*
X92948259Y-100710034D01*
X92941185Y-100712965D01*
X92903301Y-100720500D01*
X92688699Y-100720500D01*
X92650815Y-100712965D01*
X92643742Y-100710035D01*
X92643740Y-100710034D01*
X92643736Y-100710033D01*
X92570684Y-100695501D01*
X92570674Y-100695500D01*
X92021326Y-100695500D01*
X92021325Y-100695500D01*
X92021315Y-100695501D01*
X91948263Y-100710033D01*
X91948257Y-100710035D01*
X91865400Y-100765397D01*
X91865395Y-100765402D01*
X91838604Y-100805500D01*
X91790555Y-100843381D01*
X91756288Y-100849500D01*
X90371356Y-100849500D01*
X90282212Y-100873386D01*
X90202285Y-100919532D01*
X89876491Y-101245325D01*
X89821975Y-101273102D01*
X89770725Y-101267636D01*
X89713133Y-101245325D01*
X89639956Y-101216976D01*
X89639955Y-101216975D01*
X89639953Y-101216975D01*
X89439476Y-101179500D01*
X89235524Y-101179500D01*
X89035046Y-101216975D01*
X89022140Y-101221975D01*
X88844863Y-101290652D01*
X88701221Y-101379591D01*
X88671459Y-101398019D01*
X88527882Y-101528907D01*
X88520736Y-101535421D01*
X88490501Y-101575459D01*
X88397828Y-101698177D01*
X88397823Y-101698186D01*
X88329557Y-101835284D01*
X88306918Y-101880750D01*
X88251103Y-102076917D01*
X88232285Y-102280000D01*
X88251103Y-102483083D01*
X88306918Y-102679250D01*
X88397827Y-102861821D01*
X88520736Y-103024579D01*
X88671459Y-103161981D01*
X88708582Y-103184967D01*
X88748104Y-103231675D01*
X88752623Y-103292693D01*
X88720413Y-103344714D01*
X88705967Y-103354874D01*
X88645943Y-103389529D01*
X88645942Y-103389530D01*
X87907030Y-104128442D01*
X87880421Y-104174531D01*
X87880420Y-104174532D01*
X87880419Y-104174534D01*
X87872229Y-104188718D01*
X87826758Y-104229657D01*
X87765907Y-104236050D01*
X87712921Y-104205455D01*
X87707503Y-104198889D01*
X87614264Y-104075421D01*
X87463541Y-103938019D01*
X87290137Y-103830652D01*
X87099956Y-103756976D01*
X87099955Y-103756975D01*
X87099953Y-103756975D01*
X86899476Y-103719500D01*
X86695524Y-103719500D01*
X86495046Y-103756975D01*
X86436913Y-103779496D01*
X86304863Y-103830652D01*
X86186633Y-103903857D01*
X86131459Y-103938019D01*
X86116194Y-103951935D01*
X86060452Y-103977163D01*
X86000526Y-103964809D01*
X85959307Y-103919591D01*
X85950500Y-103878771D01*
X85950500Y-103221227D01*
X85969407Y-103163036D01*
X86018907Y-103127072D01*
X86080093Y-103127072D01*
X86116192Y-103148063D01*
X86131459Y-103161981D01*
X86304863Y-103269348D01*
X86495044Y-103343024D01*
X86695524Y-103380500D01*
X86899476Y-103380500D01*
X87099956Y-103343024D01*
X87290137Y-103269348D01*
X87463541Y-103161981D01*
X87614264Y-103024579D01*
X87737173Y-102861821D01*
X87828082Y-102679250D01*
X87883897Y-102483083D01*
X87902715Y-102280000D01*
X87883897Y-102076917D01*
X87828082Y-101880750D01*
X87737173Y-101698179D01*
X87614264Y-101535421D01*
X87463541Y-101398019D01*
X87290137Y-101290652D01*
X87099956Y-101216976D01*
X87099955Y-101216975D01*
X87099953Y-101216975D01*
X86899476Y-101179500D01*
X86695524Y-101179500D01*
X86495046Y-101216975D01*
X86482140Y-101221975D01*
X86304863Y-101290652D01*
X86161221Y-101379591D01*
X86131459Y-101398019D01*
X86116194Y-101411935D01*
X86060452Y-101437163D01*
X86000526Y-101424809D01*
X85959307Y-101379591D01*
X85950500Y-101338771D01*
X85950500Y-100681227D01*
X85969407Y-100623036D01*
X86018907Y-100587072D01*
X86080093Y-100587072D01*
X86116192Y-100608063D01*
X86131459Y-100621981D01*
X86304863Y-100729348D01*
X86495044Y-100803024D01*
X86695524Y-100840500D01*
X86899476Y-100840500D01*
X87099956Y-100803024D01*
X87290137Y-100729348D01*
X87463541Y-100621981D01*
X87614264Y-100484579D01*
X87737173Y-100321821D01*
X87828082Y-100139250D01*
X87883897Y-99943083D01*
X87902715Y-99740000D01*
X87883897Y-99536917D01*
X87828082Y-99340750D01*
X87737173Y-99158179D01*
X87614264Y-98995421D01*
X87479602Y-98872660D01*
X87449337Y-98819486D01*
X87456108Y-98758677D01*
X87497328Y-98713460D01*
X87546299Y-98700500D01*
X88588701Y-98700500D01*
X88646892Y-98719407D01*
X88682856Y-98768907D01*
X88682856Y-98830093D01*
X88655397Y-98872660D01*
X88520736Y-98995421D01*
X88510715Y-99008691D01*
X88397828Y-99158177D01*
X88397823Y-99158186D01*
X88337628Y-99279075D01*
X88306918Y-99340750D01*
X88251103Y-99536917D01*
X88232285Y-99740000D01*
X88251103Y-99943083D01*
X88306918Y-100139250D01*
X88397827Y-100321821D01*
X88520736Y-100484579D01*
X88671459Y-100621981D01*
X88844863Y-100729348D01*
X89035044Y-100803024D01*
X89235524Y-100840500D01*
X89439476Y-100840500D01*
X89639956Y-100803024D01*
X89830137Y-100729348D01*
X90003541Y-100621981D01*
X90154264Y-100484579D01*
X90277173Y-100321821D01*
X90368082Y-100139250D01*
X90423897Y-99943083D01*
X90433415Y-99840365D01*
X90457611Y-99784167D01*
X90510219Y-99752924D01*
X90531993Y-99750500D01*
X91100500Y-99750500D01*
X91158691Y-99769407D01*
X91194655Y-99818907D01*
X91199500Y-99849500D01*
X91199500Y-100174672D01*
X91199501Y-100174684D01*
X91214033Y-100247736D01*
X91214035Y-100247742D01*
X91269397Y-100330599D01*
X91269400Y-100330602D01*
X91330144Y-100371189D01*
X91352260Y-100385966D01*
X91407808Y-100397015D01*
X91425315Y-100400498D01*
X91425320Y-100400498D01*
X91425326Y-100400500D01*
X91425327Y-100400500D01*
X92474673Y-100400500D01*
X92474674Y-100400500D01*
X92547740Y-100385966D01*
X92547746Y-100385961D01*
X92556752Y-100382233D01*
X92557586Y-100384248D01*
X92603880Y-100371189D01*
X92642610Y-100383773D01*
X92643248Y-100382233D01*
X92652255Y-100385962D01*
X92652260Y-100385966D01*
X92707808Y-100397015D01*
X92725315Y-100400498D01*
X92725320Y-100400498D01*
X92725326Y-100400500D01*
X92725327Y-100400500D01*
X93774673Y-100400500D01*
X93774674Y-100400500D01*
X93847740Y-100385966D01*
X93930601Y-100330601D01*
X93985966Y-100247740D01*
X94000500Y-100174674D01*
X94000500Y-98625326D01*
X93985966Y-98552260D01*
X93930601Y-98469399D01*
X93930599Y-98469397D01*
X93847742Y-98414035D01*
X93847740Y-98414034D01*
X93847737Y-98414033D01*
X93847736Y-98414033D01*
X93774684Y-98399501D01*
X93774674Y-98399500D01*
X93774673Y-98399500D01*
X93336190Y-98399500D01*
X93277999Y-98380593D01*
X93266187Y-98370504D01*
X93009686Y-98114004D01*
X92981908Y-98059487D01*
X92991479Y-97999055D01*
X93034744Y-97955790D01*
X93079689Y-97945000D01*
X95999826Y-97945000D01*
X96058017Y-97963907D01*
G37*
%TD.AperFunction*%
%TD*%
M02*
