M48
; DRILL file {KiCad 8.0.7} date 2025-04-21T06:01:33-0400
; FORMAT={-:-/ absolute / inch / decimal}
; #@! TF.CreationDate,2025-04-21T06:01:33-04:00
; #@! TF.GenerationSoftware,Kicad,Pcbnew,8.0.7
; #@! TF.FileFunction,Plated,1,4,PTH
FMAT,2
INCH
; #@! TA.AperFunction,Plated,PTH,ViaDrill
T1C0.0079
; #@! TA.AperFunction,Plated,PTH,ComponentDrill
T2C0.0079
; #@! TA.AperFunction,Plated,PTH,ViaDrill
T3C0.0157
; #@! TA.AperFunction,Plated,PTH,ComponentDrill
T4C0.0394
; #@! TA.AperFunction,Plated,PTH,ComponentDrill
T5C0.0866
%
G90
G05
T1
X3.3701Y-4.5827
X3.5733Y-4.6373
X3.6142Y-4.8661
X3.6224Y-4.0584
X3.6319Y-4.4094
X3.6614Y-4.5197
X3.6693Y-4.8661
X3.6757Y-4.6567
X3.7165Y-3.874
X3.7165Y-3.9764
X3.7244Y-4.1654
X3.7323Y-4.5669
X3.7756Y-4.6457
X3.7874Y-4.063
X3.8583Y-4.3307
X3.8979Y-4.7079
X3.9134Y-4.874
X4.0132Y-4.7126
X4.064Y-4.2426
X4.0945Y-4.315
X4.0945Y-4.6496
X4.2245Y-4.6769
X4.2423Y-4.1201
X4.2677Y-4.1811
X4.2859Y-4.6751
X4.3061Y-4.2185
X4.3259Y-4.1575
X4.3307Y-4.1969
X4.3584Y-4.6546
X4.3753Y-4.2214
X4.378Y-4.1024
X4.4016Y-4.4724
X4.4173Y-4.5669
X4.4173Y-4.6614
X4.4311Y-4.4862
X4.4331Y-4.4409
X4.5512Y-4.5433
X4.5591Y-4.378
X4.6142Y-4.6299
X4.7008Y-4.5118
X4.8091Y-4.1201
X4.8783Y-4.6657
X4.8791Y-4.4595
X4.9134Y-4.3386
X4.9134Y-4.685
X4.9685Y-4.0157
X4.9764Y-4.4724
T2
X3.5906Y-4.5669
X3.622Y-4.1929
X3.7795Y-4.2323
X3.9055Y-4.6142
X3.9488Y-4.2293
X4.0236Y-4.6614
X4.1024Y-4.2205
X4.1339Y-4.7165
X4.2514Y-4.3701
X4.2792Y-4.3422
X4.2792Y-4.3979
X4.3071Y-4.3144
X4.3071Y-4.3701
X4.3071Y-4.4258
X4.3349Y-4.3422
X4.3349Y-4.3979
X4.3628Y-4.3701
X4.4961Y-4.2293
X4.5591Y-4.5079
X4.6102Y-4.4882
X4.6378Y-4.2269
X4.6614Y-4.4882
X4.7795Y-4.2297
X4.8425Y-4.5512
X4.9213Y-4.2316
X4.9567Y-4.3386
T3
X3.7132Y-4.711
T4
X3.4172Y-3.9268
X3.4172Y-4.0268
X3.4172Y-4.1268
X3.4172Y-4.2268
X3.4172Y-4.3268
X3.4172Y-4.4268
X3.4172Y-4.5268
X3.4172Y-4.6268
X3.4172Y-4.7268
X3.4172Y-4.8268
X3.5172Y-3.9268
X3.5172Y-4.0268
X3.5172Y-4.1268
X3.5172Y-4.2268
X3.5172Y-4.3268
X3.5172Y-4.4268
X3.5172Y-4.5268
X3.5172Y-4.6268
X3.5172Y-4.7268
X3.5172Y-4.8268
X4.0176Y-3.927
X4.0176Y-4.027
X4.0176Y-4.827
X4.1176Y-3.927
X4.1176Y-4.027
X4.1176Y-4.827
X4.2176Y-3.927
X4.2176Y-4.027
X4.2176Y-4.827
X4.3176Y-3.927
X4.3176Y-4.027
X4.3176Y-4.827
X4.4176Y-3.927
X4.4176Y-4.027
X4.4176Y-4.827
X4.5176Y-3.927
X4.5176Y-4.027
X4.5176Y-4.827
X4.6176Y-3.927
X4.6176Y-4.027
X4.6176Y-4.827
X4.7176Y-3.927
X4.7176Y-4.027
X4.7176Y-4.827
X4.817Y-4.027
X4.917Y-4.427
X4.917Y-4.527
X4.917Y-4.627
T5
X3.817Y-3.927
X3.817Y-4.827
X4.917Y-3.927
X4.917Y-4.827
M30
