%TF.GenerationSoftware,KiCad,Pcbnew,8.0.7*%
%TF.CreationDate,2025-04-21T06:01:31-04:00*%
%TF.ProjectId,tac5212_audio_board_single_ended,74616335-3231-4325-9f61-7564696f5f62,rev?*%
%TF.SameCoordinates,Original*%
%TF.FileFunction,Soldermask,Top*%
%TF.FilePolarity,Negative*%
%FSLAX46Y46*%
G04 Gerber Fmt 4.6, Leading zero omitted, Abs format (unit mm)*
G04 Created by KiCad (PCBNEW 8.0.7) date 2025-04-21 06:01:31*
%MOMM*%
%LPD*%
G01*
G04 APERTURE LIST*
G04 Aperture macros list*
%AMRoundRect*
0 Rectangle with rounded corners*
0 $1 Rounding radius*
0 $2 $3 $4 $5 $6 $7 $8 $9 X,Y pos of 4 corners*
0 Add a 4 corners polygon primitive as box body*
4,1,4,$2,$3,$4,$5,$6,$7,$8,$9,$2,$3,0*
0 Add four circle primitives for the rounded corners*
1,1,$1+$1,$2,$3*
1,1,$1+$1,$4,$5*
1,1,$1+$1,$6,$7*
1,1,$1+$1,$8,$9*
0 Add four rect primitives between the rounded corners*
20,1,$1+$1,$2,$3,$4,$5,0*
20,1,$1+$1,$4,$5,$6,$7,0*
20,1,$1+$1,$6,$7,$8,$9,0*
20,1,$1+$1,$8,$9,$2,$3,0*%
%AMRotRect*
0 Rectangle, with rotation*
0 The origin of the aperture is its center*
0 $1 length*
0 $2 width*
0 $3 Rotation angle, in degrees counterclockwise*
0 Add horizontal line*
21,1,$1,$2,0,0,$3*%
G04 Aperture macros list end*
%ADD10C,0.000000*%
%ADD11C,0.010000*%
%ADD12RoundRect,0.160000X0.252791X-0.026517X-0.026517X0.252791X-0.252791X0.026517X0.026517X-0.252791X0*%
%ADD13RoundRect,0.135000X-0.226274X-0.035355X-0.035355X-0.226274X0.226274X0.035355X0.035355X0.226274X0*%
%ADD14R,1.700000X1.700000*%
%ADD15O,1.700000X1.700000*%
%ADD16C,3.200000*%
%ADD17R,1.000000X1.000000*%
%ADD18RoundRect,0.250000X0.337500X0.475000X-0.337500X0.475000X-0.337500X-0.475000X0.337500X-0.475000X0*%
%ADD19RoundRect,0.160000X-0.026517X-0.252791X0.252791X0.026517X0.026517X0.252791X-0.252791X-0.026517X0*%
%ADD20RoundRect,0.140000X0.219203X0.021213X0.021213X0.219203X-0.219203X-0.021213X-0.021213X-0.219203X0*%
%ADD21RoundRect,0.250000X0.574524X0.097227X0.097227X0.574524X-0.574524X-0.097227X-0.097227X-0.574524X0*%
%ADD22RoundRect,0.150000X0.512500X0.150000X-0.512500X0.150000X-0.512500X-0.150000X0.512500X-0.150000X0*%
%ADD23RoundRect,0.135000X-0.185000X0.135000X-0.185000X-0.135000X0.185000X-0.135000X0.185000X0.135000X0*%
%ADD24R,0.508000X0.500000*%
%ADD25R,0.508000X0.508000*%
%ADD26RoundRect,0.237500X0.237500X-0.300000X0.237500X0.300000X-0.237500X0.300000X-0.237500X-0.300000X0*%
%ADD27RoundRect,0.062500X-0.220971X-0.309359X0.309359X0.220971X0.220971X0.309359X-0.309359X-0.220971X0*%
%ADD28RoundRect,0.062500X0.220971X-0.309359X0.309359X-0.220971X-0.220971X0.309359X-0.309359X0.220971X0*%
%ADD29RotRect,3.450000X3.450000X45.000000*%
%ADD30RoundRect,0.140000X-0.021213X0.219203X-0.219203X0.021213X0.021213X-0.219203X0.219203X-0.021213X0*%
%ADD31RoundRect,0.250000X-0.097227X0.574524X-0.574524X0.097227X0.097227X-0.574524X0.574524X-0.097227X0*%
%ADD32RoundRect,0.250000X-0.450000X0.325000X-0.450000X-0.325000X0.450000X-0.325000X0.450000X0.325000X0*%
%ADD33RotRect,0.508000X0.508000X315.000000*%
%ADD34RoundRect,0.237500X-0.300000X-0.237500X0.300000X-0.237500X0.300000X0.237500X-0.300000X0.237500X0*%
%ADD35RoundRect,0.135000X-0.135000X-0.185000X0.135000X-0.185000X0.135000X0.185000X-0.135000X0.185000X0*%
%ADD36RoundRect,0.237500X-0.044194X-0.380070X0.380070X0.044194X0.044194X0.380070X-0.380070X-0.044194X0*%
%ADD37RoundRect,0.135000X0.135000X0.185000X-0.135000X0.185000X-0.135000X-0.185000X0.135000X-0.185000X0*%
%ADD38RoundRect,0.160000X-0.197500X-0.160000X0.197500X-0.160000X0.197500X0.160000X-0.197500X0.160000X0*%
%ADD39RoundRect,0.135000X0.226274X0.035355X0.035355X0.226274X-0.226274X-0.035355X-0.035355X-0.226274X0*%
G04 APERTURE END LIST*
%TO.C,E108*%
G36*
X99446000Y-99954000D02*
G01*
X99954000Y-99954000D01*
X99954000Y-99454000D01*
X99446000Y-99454000D01*
X99446000Y-99954000D01*
G37*
%TO.C,E109*%
G36*
X121846000Y-99954000D02*
G01*
X122354000Y-99954000D01*
X122354000Y-99454000D01*
X121846000Y-99454000D01*
X121846000Y-99954000D01*
G37*
D10*
%TO.C,DOUT108*%
G36*
X99653553Y-115394343D02*
G01*
X99294343Y-115753553D01*
X98946447Y-115405657D01*
X99305657Y-115046447D01*
X99653553Y-115394343D01*
G37*
%TO.C,5V108*%
D11*
X93960000Y-121800000D02*
X91850000Y-121800000D01*
X91850000Y-120800000D01*
X93960000Y-120800000D01*
X93960000Y-121800000D01*
G36*
X93960000Y-121800000D02*
G01*
X91850000Y-121800000D01*
X91850000Y-120800000D01*
X93960000Y-120800000D01*
X93960000Y-121800000D01*
G37*
%TO.C,G118*%
G36*
X121946000Y-122854000D02*
G01*
X122454000Y-122854000D01*
X122454000Y-122354000D01*
X121946000Y-122354000D01*
X121946000Y-122854000D01*
G37*
%TO.C,G117*%
G36*
X99246000Y-122254000D02*
G01*
X99754000Y-122254000D01*
X99754000Y-121754000D01*
X99246000Y-121754000D01*
X99246000Y-122254000D01*
G37*
%TD*%
D12*
%TO.C,R113*%
X114022496Y-114822496D03*
X113177504Y-113977504D03*
%TD*%
D13*
%TO.C,R121*%
X110039376Y-117039376D03*
X110760624Y-117760624D03*
%TD*%
D14*
%TO.C,board_outline108*%
X89337500Y-122600000D03*
D15*
X86797500Y-122600000D03*
X89337500Y-120060000D03*
X86797500Y-120060000D03*
X89337500Y-117520000D03*
X86797500Y-117520000D03*
X89337500Y-114980000D03*
X86797500Y-114980000D03*
X89337500Y-112440000D03*
X86797500Y-112440000D03*
X89337500Y-109900000D03*
X86797500Y-109900000D03*
X89337500Y-107360000D03*
X86797500Y-107360000D03*
X89337500Y-104820000D03*
X86797500Y-104820000D03*
X89337500Y-102280000D03*
X86797500Y-102280000D03*
X89337500Y-99740000D03*
X86797500Y-99740000D03*
D14*
X102047500Y-102285000D03*
X102047500Y-99745000D03*
D15*
X104587500Y-102285000D03*
X104587500Y-99745000D03*
X107127500Y-102285000D03*
X107127500Y-99745000D03*
X109667500Y-102285000D03*
X109667500Y-99745000D03*
X112207500Y-102285000D03*
X112207500Y-99745000D03*
X114747500Y-102285000D03*
X114747500Y-99745000D03*
X117287500Y-102285000D03*
X117287500Y-99745000D03*
X119827500Y-102285000D03*
X119827500Y-99745000D03*
D14*
X102047500Y-122605000D03*
D15*
X104587500Y-122605000D03*
X107127500Y-122605000D03*
X109667500Y-122605000D03*
X112207500Y-122605000D03*
X114747500Y-122605000D03*
X117287500Y-122605000D03*
X119827500Y-122605000D03*
X124892500Y-117525000D03*
X124892500Y-114985000D03*
X124892500Y-112445000D03*
X122352500Y-102285000D03*
D16*
X96952500Y-99745000D03*
X124892500Y-99745000D03*
X96952500Y-122605000D03*
X124892500Y-122605000D03*
%TD*%
D17*
%TO.C,ADD108*%
X117000000Y-111600000D03*
X117000000Y-110300000D03*
%TD*%
D12*
%TO.C,R112*%
X114822496Y-114022496D03*
X113977504Y-113177504D03*
%TD*%
D18*
%TO.C,C111*%
X106037500Y-118200000D03*
X103962500Y-118200000D03*
%TD*%
D12*
%TO.C,R114*%
X113222496Y-115622496D03*
X112377504Y-114777504D03*
%TD*%
D19*
%TO.C,R115*%
X105445334Y-114708704D03*
X106290326Y-113863712D03*
%TD*%
D17*
%TO.C,ADD112*%
X118600000Y-111600000D03*
X118600000Y-110300000D03*
%TD*%
D20*
%TO.C,C109*%
X105539411Y-109139411D03*
X104860589Y-108460589D03*
%TD*%
D17*
%TO.C,ADD110*%
X120200000Y-111600000D03*
X120200000Y-110300000D03*
%TD*%
D21*
%TO.C,C115*%
X102133623Y-114433623D03*
X100666377Y-112966377D03*
%TD*%
D22*
%TO.C,U108*%
X97137500Y-116050000D03*
X97137500Y-115100000D03*
X97137500Y-114150000D03*
X94862500Y-114150000D03*
X94862500Y-116050000D03*
%TD*%
D19*
%TO.C,R118*%
X106788837Y-116052207D03*
X107633829Y-115207215D03*
%TD*%
D23*
%TO.C,R126*%
X122200000Y-116390000D03*
X122200000Y-117410000D03*
%TD*%
D24*
%TO.C,E108*%
X99700000Y-100204000D03*
D25*
X99700000Y-99200000D03*
%TD*%
D26*
%TO.C,C118*%
X125200000Y-104662501D03*
X125200000Y-102937499D03*
%TD*%
D27*
%TO.C,TAC108-Q1*%
X106438990Y-111486136D03*
X106792544Y-111839689D03*
X107146097Y-112193243D03*
X107499651Y-112546796D03*
X107853204Y-112900349D03*
X108206757Y-113253903D03*
X108560311Y-113607456D03*
X108913864Y-113961010D03*
D28*
X109886136Y-113961010D03*
X110239689Y-113607456D03*
X110593243Y-113253903D03*
X110946796Y-112900349D03*
X111300349Y-112546796D03*
X111653903Y-112193243D03*
X112007456Y-111839689D03*
X112361010Y-111486136D03*
D27*
X112361010Y-110513864D03*
X112007456Y-110160311D03*
X111653903Y-109806757D03*
X111300349Y-109453204D03*
X110946796Y-109099651D03*
X110593243Y-108746097D03*
X110239689Y-108392544D03*
X109886136Y-108038990D03*
D28*
X108913864Y-108038990D03*
X108560311Y-108392544D03*
X108206757Y-108746097D03*
X107853204Y-109099651D03*
X107499651Y-109453204D03*
X107146097Y-109806757D03*
X106792544Y-110160311D03*
X106438990Y-110513864D03*
D29*
X109400000Y-111000000D03*
%TD*%
D30*
%TO.C,C116*%
X104739411Y-112260589D03*
X104060589Y-112939411D03*
%TD*%
D31*
%TO.C,C108*%
X102733623Y-109166377D03*
X101266377Y-110633623D03*
%TD*%
D32*
%TO.C,D116*%
X120175000Y-116250000D03*
X120175000Y-118300000D03*
%TD*%
D30*
%TO.C,C112*%
X108539411Y-116260589D03*
X107860589Y-116939411D03*
%TD*%
D24*
%TO.C,E109*%
X122100000Y-100204000D03*
D25*
X122100000Y-99200000D03*
%TD*%
D17*
%TO.C,ADD111*%
X121800000Y-111600000D03*
X121800000Y-110300000D03*
%TD*%
D33*
%TO.C,DOUT108*%
X99653553Y-115753553D03*
X98946447Y-115046447D03*
%TD*%
D12*
%TO.C,R110*%
X115622496Y-113222496D03*
X114777504Y-112377504D03*
%TD*%
D34*
%TO.C,C128*%
X95937500Y-118000000D03*
X97662500Y-118000000D03*
%TD*%
D35*
%TO.C,R123*%
X121090000Y-112900000D03*
X122110000Y-112900000D03*
%TD*%
D36*
%TO.C,C119*%
X102590120Y-112009880D03*
X103809880Y-110790120D03*
%TD*%
D37*
%TO.C,R124*%
X117910000Y-112900000D03*
X116890000Y-112900000D03*
%TD*%
D19*
%TO.C,R119*%
X104773583Y-114036952D03*
X105618575Y-113191960D03*
%TD*%
D17*
%TO.C,PU_EN108*%
X107550000Y-118600000D03*
X108850000Y-118600000D03*
%TD*%
D19*
%TO.C,R117*%
X106117086Y-115380455D03*
X106962078Y-114535463D03*
%TD*%
D24*
%TO.C,G118*%
X122200000Y-123104000D03*
D25*
X122200000Y-122100000D03*
%TD*%
D37*
%TO.C,R122*%
X120110000Y-112900000D03*
X119090000Y-112900000D03*
%TD*%
D38*
%TO.C,R125*%
X94502500Y-112600000D03*
X95697500Y-112600000D03*
%TD*%
D24*
%TO.C,G117*%
X99500000Y-122504000D03*
D25*
X99500000Y-121500000D03*
%TD*%
D39*
%TO.C,R120*%
X111560624Y-116960624D03*
X110839376Y-116239376D03*
%TD*%
M02*
