%TF.GenerationSoftware,KiCad,Pcbnew,8.0.7*%
%TF.CreationDate,2024-12-21T09:58:57-05:00*%
%TF.ProjectId,tac5212_audio_board_single_ended,74616335-3231-4325-9f61-7564696f5f62,rev?*%
%TF.SameCoordinates,Original*%
%TF.FileFunction,Copper,L1,Top*%
%TF.FilePolarity,Positive*%
%FSLAX46Y46*%
G04 Gerber Fmt 4.6, Leading zero omitted, Abs format (unit mm)*
G04 Created by KiCad (PCBNEW 8.0.7) date 2024-12-21 09:58:57*
%MOMM*%
%LPD*%
G01*
G04 APERTURE LIST*
G04 Aperture macros list*
%AMRoundRect*
0 Rectangle with rounded corners*
0 $1 Rounding radius*
0 $2 $3 $4 $5 $6 $7 $8 $9 X,Y pos of 4 corners*
0 Add a 4 corners polygon primitive as box body*
4,1,4,$2,$3,$4,$5,$6,$7,$8,$9,$2,$3,0*
0 Add four circle primitives for the rounded corners*
1,1,$1+$1,$2,$3*
1,1,$1+$1,$4,$5*
1,1,$1+$1,$6,$7*
1,1,$1+$1,$8,$9*
0 Add four rect primitives between the rounded corners*
20,1,$1+$1,$2,$3,$4,$5,0*
20,1,$1+$1,$4,$5,$6,$7,0*
20,1,$1+$1,$6,$7,$8,$9,0*
20,1,$1+$1,$8,$9,$2,$3,0*%
%AMRotRect*
0 Rectangle, with rotation*
0 The origin of the aperture is its center*
0 $1 length*
0 $2 width*
0 $3 Rotation angle, in degrees counterclockwise*
0 Add horizontal line*
21,1,$1,$2,0,0,$3*%
G04 Aperture macros list end*
%TA.AperFunction,EtchedComponent*%
%ADD10C,0.000000*%
%TD*%
%TA.AperFunction,SMDPad,CuDef*%
%ADD11RoundRect,0.062500X-0.185616X-0.274004X0.274004X0.185616X0.185616X0.274004X-0.274004X-0.185616X0*%
%TD*%
%TA.AperFunction,SMDPad,CuDef*%
%ADD12RoundRect,0.062500X0.185616X-0.274004X0.274004X-0.185616X-0.185616X0.274004X-0.274004X0.185616X0*%
%TD*%
%TA.AperFunction,ComponentPad*%
%ADD13C,0.500000*%
%TD*%
%TA.AperFunction,SMDPad,CuDef*%
%ADD14RotRect,2.100000X2.100000X45.000000*%
%TD*%
%TA.AperFunction,SMDPad,CuDef*%
%ADD15RoundRect,0.062500X0.000000X-0.088388X0.088388X0.000000X0.000000X0.088388X-0.088388X0.000000X0*%
%TD*%
%TA.AperFunction,SMDPad,CuDef*%
%ADD16RoundRect,0.160000X0.252791X-0.026517X-0.026517X0.252791X-0.252791X0.026517X0.026517X-0.252791X0*%
%TD*%
%TA.AperFunction,SMDPad,CuDef*%
%ADD17RoundRect,0.135000X-0.226274X-0.035355X-0.035355X-0.226274X0.226274X0.035355X0.035355X0.226274X0*%
%TD*%
%TA.AperFunction,SMDPad,CuDef*%
%ADD18R,1.000000X1.000000*%
%TD*%
%TA.AperFunction,ComponentPad*%
%ADD19R,1.700000X1.700000*%
%TD*%
%TA.AperFunction,ComponentPad*%
%ADD20O,1.700000X1.700000*%
%TD*%
%TA.AperFunction,ComponentPad*%
%ADD21C,3.200000*%
%TD*%
%TA.AperFunction,SMDPad,CuDef*%
%ADD22RoundRect,0.250000X0.337500X0.475000X-0.337500X0.475000X-0.337500X-0.475000X0.337500X-0.475000X0*%
%TD*%
%TA.AperFunction,SMDPad,CuDef*%
%ADD23RoundRect,0.160000X-0.026517X-0.252791X0.252791X0.026517X0.026517X0.252791X-0.252791X-0.026517X0*%
%TD*%
%TA.AperFunction,SMDPad,CuDef*%
%ADD24RoundRect,0.140000X0.219203X0.021213X0.021213X0.219203X-0.219203X-0.021213X-0.021213X-0.219203X0*%
%TD*%
%TA.AperFunction,SMDPad,CuDef*%
%ADD25RoundRect,0.250000X0.574524X0.097227X0.097227X0.574524X-0.574524X-0.097227X-0.097227X-0.574524X0*%
%TD*%
%TA.AperFunction,SMDPad,CuDef*%
%ADD26RoundRect,0.150000X0.512500X0.150000X-0.512500X0.150000X-0.512500X-0.150000X0.512500X-0.150000X0*%
%TD*%
%TA.AperFunction,SMDPad,CuDef*%
%ADD27RoundRect,0.135000X-0.185000X0.135000X-0.185000X-0.135000X0.185000X-0.135000X0.185000X0.135000X0*%
%TD*%
%TA.AperFunction,SMDPad,CuDef*%
%ADD28R,0.508000X0.500000*%
%TD*%
%TA.AperFunction,SMDPad,CuDef*%
%ADD29R,0.508000X0.508000*%
%TD*%
%TA.AperFunction,SMDPad,CuDef*%
%ADD30RoundRect,0.237500X-0.300000X-0.237500X0.300000X-0.237500X0.300000X0.237500X-0.300000X0.237500X0*%
%TD*%
%TA.AperFunction,SMDPad,CuDef*%
%ADD31RoundRect,0.140000X-0.021213X0.219203X-0.219203X0.021213X0.021213X-0.219203X0.219203X-0.021213X0*%
%TD*%
%TA.AperFunction,SMDPad,CuDef*%
%ADD32RoundRect,0.250000X-0.097227X0.574524X-0.574524X0.097227X0.097227X-0.574524X0.574524X-0.097227X0*%
%TD*%
%TA.AperFunction,SMDPad,CuDef*%
%ADD33RoundRect,0.250000X-0.450000X0.350000X-0.450000X-0.350000X0.450000X-0.350000X0.450000X0.350000X0*%
%TD*%
%TA.AperFunction,SMDPad,CuDef*%
%ADD34RoundRect,0.140000X0.021213X-0.219203X0.219203X-0.021213X-0.021213X0.219203X-0.219203X0.021213X0*%
%TD*%
%TA.AperFunction,SMDPad,CuDef*%
%ADD35RotRect,0.508000X0.508000X315.000000*%
%TD*%
%TA.AperFunction,SMDPad,CuDef*%
%ADD36R,1.100000X1.000000*%
%TD*%
%TA.AperFunction,SMDPad,CuDef*%
%ADD37RoundRect,0.135000X-0.135000X-0.185000X0.135000X-0.185000X0.135000X0.185000X-0.135000X0.185000X0*%
%TD*%
%TA.AperFunction,SMDPad,CuDef*%
%ADD38RoundRect,0.237500X-0.044194X-0.380070X0.380070X0.044194X0.044194X0.380070X-0.380070X-0.044194X0*%
%TD*%
%TA.AperFunction,SMDPad,CuDef*%
%ADD39RoundRect,0.135000X0.135000X0.185000X-0.135000X0.185000X-0.135000X-0.185000X0.135000X-0.185000X0*%
%TD*%
%TA.AperFunction,SMDPad,CuDef*%
%ADD40RoundRect,0.160000X-0.197500X-0.160000X0.197500X-0.160000X0.197500X0.160000X-0.197500X0.160000X0*%
%TD*%
%TA.AperFunction,SMDPad,CuDef*%
%ADD41RoundRect,0.135000X0.226274X0.035355X0.035355X0.226274X-0.226274X-0.035355X-0.035355X-0.226274X0*%
%TD*%
%TA.AperFunction,ComponentPad*%
%ADD42R,0.500000X0.500000*%
%TD*%
%TA.AperFunction,ViaPad*%
%ADD43C,0.800000*%
%TD*%
%TA.AperFunction,Conductor*%
%ADD44C,0.250000*%
%TD*%
%TA.AperFunction,Conductor*%
%ADD45C,0.750000*%
%TD*%
G04 APERTURE END LIST*
%TA.AperFunction,EtchedComponent*%
%TO.C,E108*%
G36*
X99471000Y-99979000D02*
G01*
X99929000Y-99979000D01*
X99929000Y-99404000D01*
X99471000Y-99404000D01*
X99471000Y-99979000D01*
G37*
%TD.AperFunction*%
%TA.AperFunction,EtchedComponent*%
%TO.C,E109*%
G36*
X121871000Y-99979000D02*
G01*
X122329000Y-99979000D01*
X122329000Y-99404000D01*
X121871000Y-99404000D01*
X121871000Y-99979000D01*
G37*
%TD.AperFunction*%
D10*
%TA.AperFunction,EtchedComponent*%
%TO.C,5V108*%
G36*
X93175000Y-121500000D02*
G01*
X92625000Y-121500000D01*
X92625000Y-121100000D01*
X93175000Y-121100000D01*
X93175000Y-121500000D01*
G37*
%TD.AperFunction*%
%TA.AperFunction,EtchedComponent*%
%TO.C,G118*%
G36*
X121971000Y-122879000D02*
G01*
X122429000Y-122879000D01*
X122429000Y-122304000D01*
X121971000Y-122304000D01*
X121971000Y-122879000D01*
G37*
%TD.AperFunction*%
%TA.AperFunction,EtchedComponent*%
%TO.C,G117*%
G36*
X99271000Y-122279000D02*
G01*
X99729000Y-122279000D01*
X99729000Y-121704000D01*
X99271000Y-121704000D01*
X99271000Y-122279000D01*
G37*
%TD.AperFunction*%
%TD*%
D11*
%TO.P,J108,1,DREG*%
%TO.N,Net-(J108-DREG)*%
X106910742Y-111521491D03*
%TO.P,J108,2,BCLK*%
%TO.N,Net-(J108-BCLK)*%
X107264295Y-111875045D03*
%TO.P,J108,3,FSYNC*%
%TO.N,Net-(J108-FSYNC)*%
X107617849Y-112228598D03*
%TO.P,J108,4,DOUT*%
%TO.N,Net-(J108-DOUT)*%
X107971402Y-112582151D03*
%TO.P,J108,5,DIN*%
%TO.N,Net-(J108-DIN)*%
X108324955Y-112935705D03*
%TO.P,J108,6,IOVDD*%
%TO.N,3.3V_LDO*%
X108678509Y-113289258D03*
D12*
%TO.P,J108,7,SCL*%
%TO.N,5212_SCL*%
X109721491Y-113289258D03*
%TO.P,J108,8,SDA*%
%TO.N,5212_SDA*%
X110075045Y-112935705D03*
%TO.P,J108,9,GPIO1*%
%TO.N,Net-(J108-GPIO1)*%
X110428598Y-112582151D03*
%TO.P,J108,10,GPIO2*%
%TO.N,Net-(J108-GPIO2)*%
X110782151Y-112228598D03*
%TO.P,J108,11,GPO1*%
%TO.N,Net-(J108-GPO1)*%
X111135705Y-111875045D03*
%TO.P,J108,12,GPI1*%
%TO.N,Net-(J108-GPI1)*%
X111489258Y-111521491D03*
D11*
%TO.P,J108,13,ADDR*%
%TO.N,Net-(J108-ADDR)*%
X111489258Y-110478509D03*
%TO.P,J108,14,MICBIAS*%
%TO.N,MICBIAS*%
X111135705Y-110124955D03*
%TO.P,J108,15,IN1P*%
%TO.N,IN1P*%
X110782151Y-109771402D03*
%TO.P,J108,16,IN1M*%
%TO.N,IN1M*%
X110428598Y-109417849D03*
%TO.P,J108,17,IN2P*%
%TO.N,IN2P*%
X110075045Y-109064295D03*
%TO.P,J108,18,IN2M*%
%TO.N,IN2M*%
X109721491Y-108710742D03*
D12*
%TO.P,J108,19,OUT1M*%
%TO.N,OUT1M*%
X108678509Y-108710742D03*
%TO.P,J108,20,OUT1P*%
%TO.N,OUT1P*%
X108324955Y-109064295D03*
%TO.P,J108,21,OUT2P*%
%TO.N,OUT2P*%
X107971402Y-109417849D03*
%TO.P,J108,22,OUT2M*%
%TO.N,OUT2M*%
X107617849Y-109771402D03*
%TO.P,J108,23,AVDD*%
%TO.N,3.3V_LDO*%
X107264295Y-110124955D03*
%TO.P,J108,24,VREF*%
%TO.N,Net-(J108-VREF)*%
X106910742Y-110478509D03*
D13*
%TO.P,J108,25,VSS*%
%TO.N,GNDD*%
X108705025Y-111494975D03*
X108705025Y-110505025D03*
X109200000Y-111000000D03*
D14*
X109200000Y-111000000D03*
D13*
X109694975Y-111494975D03*
X109694975Y-110505025D03*
D15*
%TO.P,J108,A1,VSS*%
X106767553Y-111000000D03*
%TO.P,J108,A2,VSS*%
X109200000Y-113432447D03*
%TO.P,J108,A3,VSS*%
X111632447Y-111000000D03*
%TO.P,J108,A4,VSS*%
X109200000Y-108567553D03*
%TD*%
D16*
%TO.P,R113,1*%
%TO.N,GPIO2*%
X112937059Y-114705168D03*
%TO.P,R113,2*%
%TO.N,Net-(J108-GPIO2)*%
X112092067Y-113860176D03*
%TD*%
D17*
%TO.P,R121,1*%
%TO.N,5212_SCL*%
X109617194Y-116508362D03*
%TO.P,R121,2*%
%TO.N,Net-(PU_EN108-Pad1)*%
X110338442Y-117229610D03*
%TD*%
D18*
%TO.P,ADD109,1,1*%
%TO.N,Net-(J108-ADDR)*%
X122200000Y-110300000D03*
%TO.P,ADD109,2,2*%
%TO.N,3.3V_LDO*%
X122200000Y-111600000D03*
%TD*%
D19*
%TO.P,board_outline108,1,HELD_HIGH*%
%TO.N,EN_HELD_HIGH*%
X89337500Y-122600000D03*
D20*
%TO.P,board_outline108,2,HELD_LOW*%
%TO.N,unconnected-(board_outline108-HELD_LOW-Pad2)*%
X86797500Y-122600000D03*
%TO.P,board_outline108,3,5V*%
%TO.N,Net-(5V108-B)*%
X89337500Y-120060000D03*
%TO.P,board_outline108,4,GNDD*%
%TO.N,GNDD*%
X86797500Y-120060000D03*
%TO.P,board_outline108,5,12V*%
%TO.N,unconnected-(board_outline108-12V-Pad5)*%
X89337500Y-117520000D03*
%TO.P,board_outline108,6,GNDD*%
%TO.N,GNDD*%
X86797500Y-117520000D03*
%TO.P,board_outline108,7,DSP_DOUT*%
%TO.N,5212_DOUT1+*%
X89337500Y-114980000D03*
%TO.P,board_outline108,8,GNDD*%
%TO.N,GNDD*%
X86797500Y-114980000D03*
%TO.P,board_outline108,9,DSP_DIN*%
%TO.N,5212_DIN1*%
X89337500Y-112440000D03*
%TO.P,board_outline108,10,GNDD*%
%TO.N,GNDD*%
X86797500Y-112440000D03*
%TO.P,board_outline108,11,BCLK*%
%TO.N,5212_BCLK1*%
X89337500Y-109900000D03*
%TO.P,board_outline108,12,GNDD*%
%TO.N,GNDD*%
X86797500Y-109900000D03*
%TO.P,board_outline108,13,LRCK*%
%TO.N,5212_LRCK1*%
X89337500Y-107360000D03*
%TO.P,board_outline108,14,GNDD*%
%TO.N,GNDD*%
X86797500Y-107360000D03*
%TO.P,board_outline108,15,SDA*%
%TO.N,DSP_SDA*%
X89337500Y-104820000D03*
%TO.P,board_outline108,16,GNDD*%
%TO.N,GNDD*%
X86797500Y-104820000D03*
%TO.P,board_outline108,17,SCL*%
%TO.N,DSP_SCL*%
X89337500Y-102280000D03*
%TO.P,board_outline108,18,GNDD*%
%TO.N,GNDD*%
X86797500Y-102280000D03*
%TO.P,board_outline108,19,MCLK*%
%TO.N,5212_MCLK1*%
X89337500Y-99740000D03*
%TO.P,board_outline108,20,GNDD*%
%TO.N,GNDD*%
X86797500Y-99740000D03*
D19*
%TO.P,board_outline108,21,OUTP*%
%TO.N,OUT1P+*%
X102047500Y-102285000D03*
%TO.P,board_outline108,22,AGND*%
%TO.N,Earth*%
X102047500Y-99745000D03*
D20*
%TO.P,board_outline108,23,OUT1M*%
%TO.N,OUT1M+*%
X104587500Y-102285000D03*
%TO.P,board_outline108,24,AGND*%
%TO.N,Earth*%
X104587500Y-99745000D03*
%TO.P,board_outline108,25,OUT2P*%
%TO.N,OUT2P+*%
X107127500Y-102285000D03*
%TO.P,board_outline108,26,AGND*%
%TO.N,Earth*%
X107127500Y-99745000D03*
%TO.P,board_outline108,27,OUT2M*%
%TO.N,OUT2M+*%
X109667500Y-102285000D03*
%TO.P,board_outline108,28,AGND*%
%TO.N,Earth*%
X109667500Y-99745000D03*
%TO.P,board_outline108,29,IN1P*%
%TO.N,IN1P+*%
X112207500Y-102285000D03*
%TO.P,board_outline108,30,AGND*%
%TO.N,Earth*%
X112207500Y-99745000D03*
%TO.P,board_outline108,31,IN1M*%
%TO.N,IN1M+*%
X114747500Y-102285000D03*
%TO.P,board_outline108,32,AGND*%
%TO.N,Earth*%
X114747500Y-99745000D03*
%TO.P,board_outline108,33,IN2P*%
%TO.N,IN2P+*%
X117287500Y-102285000D03*
%TO.P,board_outline108,34,AGND*%
%TO.N,Earth*%
X117287500Y-99745000D03*
%TO.P,board_outline108,35,IN2M*%
%TO.N,IN2M+*%
X119827500Y-102285000D03*
%TO.P,board_outline108,36,AGND*%
%TO.N,Earth*%
X119827500Y-99745000D03*
D19*
%TO.P,board_outline108,37,SCL*%
%TO.N,5212_SCL*%
X102047500Y-122605000D03*
D20*
%TO.P,board_outline108,38,SDA*%
%TO.N,5212_SDA*%
X104587500Y-122605000D03*
%TO.P,board_outline108,39,GNDD*%
%TO.N,GNDD*%
X107127500Y-122605000D03*
%TO.P,board_outline108,40,GPIO1*%
%TO.N,GPIO1*%
X109667500Y-122605000D03*
%TO.P,board_outline108,41,GPIO2*%
%TO.N,GPIO2*%
X112207500Y-122605000D03*
%TO.P,board_outline108,42,GPO1*%
%TO.N,GPO1*%
X114747500Y-122605000D03*
%TO.P,board_outline108,43,GPI1*%
%TO.N,GPI1*%
X117287500Y-122605000D03*
%TO.P,board_outline108,44,GNDD*%
%TO.N,GNDD*%
X119827500Y-122605000D03*
%TO.P,board_outline108,45,5V*%
%TO.N,5V*%
X124892500Y-117525000D03*
%TO.P,board_outline108,46,3.3V*%
%TO.N,3.3V_LDO*%
X124892500Y-114985000D03*
%TO.P,board_outline108,47,GNDD*%
%TO.N,GNDD*%
X124892500Y-112445000D03*
%TO.P,board_outline108,48,MIC_BIAS*%
%TO.N,MICBIAS*%
X122352500Y-102285000D03*
D21*
%TO.P,board_outline108,49,AGND*%
%TO.N,Net-(E108-B)*%
X96952500Y-99745000D03*
%TO.P,board_outline108,50,AGND*%
%TO.N,Net-(E109-B)*%
X124892500Y-99745000D03*
%TO.P,board_outline108,51,DGND*%
%TO.N,Net-(G117-A)*%
X96952500Y-122605000D03*
%TO.P,board_outline108,52,DGND*%
%TO.N,Net-(G118-A)*%
X124892500Y-122605000D03*
%TD*%
D13*
%TO.P,G110,1,1*%
%TO.N,Earth*%
X117100000Y-114000000D03*
%TD*%
D18*
%TO.P,ADD108,1,1*%
%TO.N,GNDD*%
X116600000Y-111600000D03*
%TO.P,ADD108,2,2*%
%TO.N,Net-(J108-ADDR)*%
X116600000Y-110300000D03*
%TD*%
D16*
%TO.P,R112,1*%
%TO.N,GPO1*%
X113677789Y-113964439D03*
%TO.P,R112,2*%
%TO.N,Net-(J108-GPO1)*%
X112832797Y-113119447D03*
%TD*%
D22*
%TO.P,C111,1*%
%TO.N,3.3V_LDO*%
X108818261Y-118400000D03*
%TO.P,C111,2*%
%TO.N,GNDD*%
X106743261Y-118400000D03*
%TD*%
D16*
%TO.P,R114,1*%
%TO.N,GPIO1*%
X112157509Y-115484718D03*
%TO.P,R114,2*%
%TO.N,Net-(J108-GPIO1)*%
X111312517Y-114639726D03*
%TD*%
D23*
%TO.P,R115,1*%
%TO.N,5212_LRCK1*%
X105445334Y-114708704D03*
%TO.P,R115,2*%
%TO.N,Net-(J108-FSYNC)*%
X106290326Y-113863712D03*
%TD*%
D18*
%TO.P,ADD112,1,1*%
%TO.N,Net-(ADD112-Pad1)*%
X118000000Y-111600000D03*
%TO.P,ADD112,2,2*%
%TO.N,Net-(J108-ADDR)*%
X118000000Y-110300000D03*
%TD*%
D24*
%TO.P,C109,1*%
%TO.N,3.3V_LDO*%
X105939411Y-109539411D03*
%TO.P,C109,2*%
%TO.N,Earth*%
X105260589Y-108860589D03*
%TD*%
D18*
%TO.P,ADD110,1,1*%
%TO.N,Net-(ADD110-Pad1)*%
X119400000Y-111600000D03*
%TO.P,ADD110,2,2*%
%TO.N,Net-(J108-ADDR)*%
X119400000Y-110300000D03*
%TD*%
D25*
%TO.P,C115,1*%
%TO.N,Net-(J108-DREG)*%
X102133623Y-114433623D03*
%TO.P,C115,2*%
%TO.N,GNDD*%
X100666377Y-112966377D03*
%TD*%
D13*
%TO.P,G109,1,1*%
%TO.N,Earth*%
X99200000Y-117200000D03*
%TD*%
%TO.P,G112,1,1*%
%TO.N,Earth*%
X118400000Y-114000000D03*
%TD*%
D26*
%TO.P,U108,1,OE*%
%TO.N,GNDD*%
X97137500Y-116050000D03*
%TO.P,U108,2,A*%
%TO.N,5212_DOUT1*%
X97137500Y-115100000D03*
%TO.P,U108,3,GND*%
%TO.N,GNDD*%
X97137500Y-114150000D03*
%TO.P,U108,4,Y*%
%TO.N,Net-(U108-Y)*%
X94862500Y-114150000D03*
%TO.P,U108,5,VCC*%
%TO.N,3.3V_LDO*%
X94862500Y-116050000D03*
%TD*%
D23*
%TO.P,R118,1*%
%TO.N,5212_DIN1*%
X106788837Y-116052207D03*
%TO.P,R118,2*%
%TO.N,Net-(J108-DIN)*%
X107633829Y-115207215D03*
%TD*%
D13*
%TO.P,G111,1,1*%
%TO.N,Earth*%
X92300000Y-118400000D03*
%TD*%
%TO.P,G113,1,1*%
%TO.N,Earth*%
X102600000Y-118400000D03*
%TD*%
D27*
%TO.P,R126,1*%
%TO.N,3.3V_LDO*%
X122200000Y-116390000D03*
%TO.P,R126,2*%
%TO.N,Net-(D116-A)*%
X122200000Y-117410000D03*
%TD*%
D28*
%TO.P,E108,1,A*%
%TO.N,Earth*%
X99700000Y-100204000D03*
D29*
%TO.P,E108,2,B*%
%TO.N,Net-(E108-B)*%
X99700000Y-99200000D03*
%TD*%
D30*
%TO.P,C118,1*%
%TO.N,MICBIAS*%
X113437500Y-108800000D03*
%TO.P,C118,2*%
%TO.N,Earth*%
X115162500Y-108800000D03*
%TD*%
D31*
%TO.P,C116,1*%
%TO.N,Net-(J108-DREG)*%
X104937914Y-111892722D03*
%TO.P,C116,2*%
%TO.N,GNDD*%
X104259092Y-112571544D03*
%TD*%
D32*
%TO.P,C108,2*%
%TO.N,Earth*%
X101266377Y-110633623D03*
%TO.P,C108,1*%
%TO.N,3.3V_LDO*%
X102733623Y-109166377D03*
%TD*%
D33*
%TO.P,D116,1,K*%
%TO.N,GNDD*%
X120200000Y-116100000D03*
%TO.P,D116,2,A*%
%TO.N,Net-(D116-A)*%
X120200000Y-118100000D03*
%TD*%
D34*
%TO.P,C112,1*%
%TO.N,3.3V_LDO*%
X107860589Y-116939411D03*
%TO.P,C112,2*%
%TO.N,GNDD*%
X108539411Y-116260589D03*
%TD*%
D28*
%TO.P,E109,1,A*%
%TO.N,Earth*%
X122100000Y-100204000D03*
D29*
%TO.P,E109,2,B*%
%TO.N,Net-(E109-B)*%
X122100000Y-99200000D03*
%TD*%
D18*
%TO.P,ADD111,1,1*%
%TO.N,Net-(ADD111-Pad1)*%
X120800000Y-111600000D03*
%TO.P,ADD111,2,2*%
%TO.N,Net-(J108-ADDR)*%
X120800000Y-110300000D03*
%TD*%
D35*
%TO.P,DOUT108,1,1*%
%TO.N,5212_DOUT1*%
X99653553Y-115753553D03*
%TO.P,DOUT108,2,2*%
%TO.N,5212_DOUT1+*%
X98946447Y-115046447D03*
%TD*%
D16*
%TO.P,R110,1*%
%TO.N,GPI1*%
X114420251Y-113221977D03*
%TO.P,R110,2*%
%TO.N,Net-(J108-GPI1)*%
X113575259Y-112376985D03*
%TD*%
D36*
%TO.P,5V108,1,A*%
%TO.N,5V*%
X93404000Y-121300000D03*
%TO.P,5V108,2,B*%
%TO.N,Net-(5V108-B)*%
X92400000Y-121300000D03*
%TD*%
D30*
%TO.P,C128,1*%
%TO.N,3.3V_LDO*%
X95937500Y-118000000D03*
%TO.P,C128,2*%
%TO.N,GNDD*%
X97662500Y-118000000D03*
%TD*%
D37*
%TO.P,R123,1*%
%TO.N,Net-(ADD111-Pad1)*%
X121090000Y-112900000D03*
%TO.P,R123,2*%
%TO.N,3.3V_LDO*%
X122110000Y-112900000D03*
%TD*%
D38*
%TO.P,C119,1*%
%TO.N,Earth*%
X102590120Y-112009880D03*
%TO.P,C119,2*%
%TO.N,Net-(J108-VREF)*%
X103809880Y-110790120D03*
%TD*%
D39*
%TO.P,R124,1*%
%TO.N,Net-(ADD112-Pad1)*%
X117410000Y-112900000D03*
%TO.P,R124,2*%
%TO.N,GNDD*%
X116390000Y-112900000D03*
%TD*%
D23*
%TO.P,R119,1*%
%TO.N,5212_BCLK1*%
X104773583Y-114036952D03*
%TO.P,R119,2*%
%TO.N,Net-(J108-BCLK)*%
X105618575Y-113191960D03*
%TD*%
D18*
%TO.P,PU_EN108,1,1*%
%TO.N,Net-(PU_EN108-Pad1)*%
X103750000Y-118000000D03*
%TO.P,PU_EN108,2,2*%
%TO.N,3.3V_LDO*%
X105050000Y-118000000D03*
%TD*%
D23*
%TO.P,R117,1*%
%TO.N,5212_DOUT1*%
X106117086Y-115380455D03*
%TO.P,R117,2*%
%TO.N,Net-(J108-DOUT)*%
X106962078Y-114535463D03*
%TD*%
D28*
%TO.P,G118,1,A*%
%TO.N,Net-(G118-A)*%
X122200000Y-123104000D03*
D29*
%TO.P,G118,2,B*%
%TO.N,GNDD*%
X122200000Y-122100000D03*
%TD*%
D39*
%TO.P,R122,1*%
%TO.N,Net-(ADD110-Pad1)*%
X119910000Y-112900000D03*
%TO.P,R122,2*%
%TO.N,3.3V_LDO*%
X118890000Y-112900000D03*
%TD*%
D13*
%TO.P,G115,1,1*%
%TO.N,Earth*%
X103200000Y-119300000D03*
%TD*%
%TO.P,G114,1,1*%
%TO.N,Earth*%
X123500000Y-113700000D03*
%TD*%
D40*
%TO.P,R125,1*%
%TO.N,5212_DOUT1+*%
X94502500Y-112600000D03*
%TO.P,R125,2*%
%TO.N,Net-(U108-Y)*%
X95697500Y-112600000D03*
%TD*%
D28*
%TO.P,G117,1,A*%
%TO.N,Net-(G117-A)*%
X99500000Y-122504000D03*
D29*
%TO.P,G117,2,B*%
%TO.N,GNDD*%
X99500000Y-121500000D03*
%TD*%
D13*
%TO.P,G116,1,1*%
%TO.N,Earth*%
X125900000Y-110200000D03*
%TD*%
%TO.P,G108,1,1*%
%TO.N,Earth*%
X115800000Y-114500000D03*
%TD*%
D41*
%TO.P,R120,1*%
%TO.N,5212_SDA*%
X111141385Y-116460624D03*
%TO.P,R120,2*%
%TO.N,Net-(PU_EN108-Pad1)*%
X110420137Y-115739376D03*
%TD*%
D42*
%TO.P,OP109,2,2*%
%TO.N,OUT2P*%
X100300000Y-107425000D03*
%TD*%
%TO.P,INP108,2,2*%
%TO.N,IN2P*%
X121400000Y-107435000D03*
%TD*%
%TO.P,INM108,2,2*%
%TO.N,IN2M*%
X125000000Y-107482500D03*
%TD*%
%TO.P,OM109,2,2*%
%TO.N,OUT2M*%
X104200000Y-107200000D03*
%TD*%
%TO.P,OP108,2,2*%
%TO.N,OUT1P*%
X96000000Y-107500000D03*
%TD*%
%TO.P,INM109,2,2*%
%TO.N,IN1M*%
X117800000Y-107362500D03*
%TD*%
%TO.P,OM108,2,2*%
%TO.N,OUT1M*%
X91700000Y-106500000D03*
%TD*%
%TO.P,INP109,2,2*%
%TO.N,IN1P*%
X114200000Y-107425000D03*
%TD*%
D43*
%TO.N,GNDD*%
X109200000Y-107800000D03*
X99400000Y-123800000D03*
X91719599Y-111998440D03*
X107711709Y-119246986D03*
X106600000Y-117100000D03*
X99000000Y-118800000D03*
X100718700Y-117875000D03*
%TO.N,5V*%
X94569964Y-120430000D03*
%TO.N,Earth*%
X103224739Y-107762663D03*
X112825000Y-110225000D03*
%TO.N,EN_HELD_HIGH*%
X117100000Y-115600000D03*
%TO.N,5212_SCL*%
X102047500Y-119900002D03*
%TO.N,5212_SDA*%
X92004802Y-120161926D03*
X92007954Y-103082209D03*
%TO.N,3.3V_LDO*%
X100675000Y-108873986D03*
X92800004Y-114900000D03*
X105600000Y-119400000D03*
%TO.N,GPI1*%
X85600000Y-116400000D03*
%TO.N,Net-(PU_EN108-Pad1)*%
X110338844Y-119622742D03*
X104430004Y-119430004D03*
%TD*%
D44*
%TO.N,GNDD*%
X109200000Y-108567553D02*
X109200000Y-107800000D01*
X112232447Y-111600000D02*
X116600000Y-111600000D01*
X111632447Y-111000000D02*
X112232447Y-111600000D01*
%TO.N,Net-(J108-ADDR)*%
X115150000Y-111000000D02*
X115850000Y-110300000D01*
X112436396Y-111000000D02*
X115150000Y-111000000D01*
X115850000Y-110300000D02*
X116600000Y-110300000D01*
X111950260Y-110513864D02*
X112436396Y-111000000D01*
X111453903Y-110513864D02*
X111950260Y-110513864D01*
%TO.N,GNDD*%
X109200000Y-115600000D02*
X108539411Y-116260589D01*
X109200000Y-113432447D02*
X109200000Y-115600000D01*
%TO.N,3.3V_LDO*%
X107852464Y-115900748D02*
X108678509Y-115074703D01*
X107852464Y-116931286D02*
X107852464Y-115900748D01*
X107860589Y-116939411D02*
X107852464Y-116931286D01*
X108678509Y-115074703D02*
X108678509Y-113289258D01*
X108818261Y-117897083D02*
X107860589Y-116939411D01*
X108818261Y-118400000D02*
X108818261Y-117897083D01*
%TO.N,Net-(J108-DIN)*%
X107951993Y-114889051D02*
X107633829Y-115207214D01*
X107951993Y-114489608D02*
X107951993Y-114889051D01*
X107800000Y-114337615D02*
X107951993Y-114489608D01*
X107800000Y-113460660D02*
X107800000Y-114337615D01*
X108360311Y-112900349D02*
X107800000Y-113460660D01*
%TO.N,Net-(J108-DOUT)*%
X107350000Y-114147541D02*
X106962078Y-114535463D01*
X107350000Y-113203553D02*
X107350000Y-114147541D01*
X108006757Y-112546796D02*
X107350000Y-113203553D01*
%TO.N,GNDD*%
X104039889Y-112352341D02*
X104259092Y-112571544D01*
X104039889Y-111892721D02*
X104039889Y-112352341D01*
X104932610Y-111000000D02*
X104039889Y-111892721D01*
X106767553Y-111000000D02*
X104932610Y-111000000D01*
%TO.N,Net-(J108-VREF)*%
X104086136Y-110513864D02*
X103809880Y-110790120D01*
X106946097Y-110513864D02*
X104086136Y-110513864D01*
%TO.N,Earth*%
X102590120Y-111957366D02*
X102590120Y-112009880D01*
X101266377Y-110633623D02*
X102590120Y-111957366D01*
%TO.N,3.3V_LDO*%
X103225860Y-109658614D02*
X102733623Y-109166377D01*
X105820208Y-109658614D02*
X103225860Y-109658614D01*
X105939411Y-109539411D02*
X105820208Y-109658614D01*
D45*
X102441232Y-108873986D02*
X102733623Y-109166377D01*
X100675000Y-108873986D02*
X102441232Y-108873986D01*
D44*
%TO.N,Earth*%
X101266377Y-110490668D02*
X101266377Y-110633623D01*
X99950000Y-109174291D02*
X101266377Y-110490668D01*
X99950000Y-108573681D02*
X99950000Y-109174291D01*
X101175000Y-107700000D02*
X100875000Y-108000000D01*
X103162076Y-107700000D02*
X101175000Y-107700000D01*
X100875000Y-108000000D02*
X100523681Y-108000000D01*
X100523681Y-108000000D02*
X99950000Y-108573681D01*
X103224739Y-107762663D02*
X103162076Y-107700000D01*
%TO.N,GNDD*%
X100350000Y-122850000D02*
X100350000Y-122350000D01*
X87972500Y-111265000D02*
X90986159Y-111265000D01*
X106864723Y-118400000D02*
X107711709Y-119246986D01*
X97137500Y-116050000D02*
X97437499Y-116349999D01*
X97437499Y-116349999D02*
X99193699Y-116349999D01*
X97662500Y-118000000D02*
X98200000Y-118000000D01*
X106743261Y-118400000D02*
X106864723Y-118400000D01*
X100350000Y-122350000D02*
X99500000Y-121500000D01*
X103573533Y-113257103D02*
X104259092Y-112571544D01*
X99400000Y-123800000D02*
X100350000Y-122850000D01*
X86797500Y-112440000D02*
X87972500Y-111265000D01*
X120332500Y-122100000D02*
X119827500Y-122605000D01*
X99193699Y-116349999D02*
X100718700Y-117875000D01*
X90986159Y-111265000D02*
X91719599Y-111998440D01*
X122200000Y-122100000D02*
X120332500Y-122100000D01*
X100666377Y-112966377D02*
X100957103Y-113257103D01*
X98200000Y-118000000D02*
X99000000Y-118800000D01*
X100957103Y-113257103D02*
X103573533Y-113257103D01*
D45*
%TO.N,5V*%
X93404000Y-121300000D02*
X93699964Y-121300000D01*
X93699964Y-121300000D02*
X94569964Y-120430000D01*
D44*
%TO.N,Earth*%
X122100000Y-100200000D02*
X120282500Y-100200000D01*
X120282500Y-100200000D02*
X119827500Y-99745000D01*
X99700000Y-100200000D02*
X101592500Y-100200000D01*
X105260589Y-108860589D02*
X104322665Y-108860589D01*
X104322665Y-108860589D02*
X103224739Y-107762663D01*
X101592500Y-100200000D02*
X102047500Y-99745000D01*
D45*
%TO.N,Net-(5V108-B)*%
X90577500Y-121300000D02*
X89337500Y-120060000D01*
X92400000Y-121300000D02*
X90577500Y-121300000D01*
D44*
%TO.N,Net-(J108-ADDR)*%
X116600000Y-110300000D02*
X122200000Y-110300001D01*
%TO.N,Net-(ADD110-Pad1)*%
X119910000Y-112900000D02*
X119910000Y-112110000D01*
X119910000Y-112110000D02*
X119400000Y-111600000D01*
%TO.N,Net-(ADD111-Pad1)*%
X121090001Y-111890001D02*
X120800000Y-111600000D01*
X121090001Y-112900000D02*
X121090001Y-111890001D01*
%TO.N,Net-(ADD112-Pad1)*%
X118000000Y-112310000D02*
X118000000Y-111600000D01*
X117410000Y-112900000D02*
X118000000Y-112310000D01*
%TO.N,Net-(G118-A)*%
X124297500Y-123200000D02*
X122200000Y-123200000D01*
X124892500Y-122605000D02*
X124297500Y-123200000D01*
%TO.N,Net-(E108-B)*%
X99700000Y-99196000D02*
X97501500Y-99196000D01*
X97501500Y-99196000D02*
X96952500Y-99745000D01*
%TO.N,Net-(E109-B)*%
X124343500Y-99196000D02*
X124892500Y-99745000D01*
X122100000Y-99196000D02*
X124343500Y-99196000D01*
%TO.N,EN_HELD_HIGH*%
X117900000Y-123800000D02*
X100800000Y-123800000D01*
X100200000Y-121563604D02*
X100200000Y-121042000D01*
X99758000Y-120600000D02*
X95900000Y-120600000D01*
X117100000Y-115600000D02*
X118462500Y-116962500D01*
X118462500Y-123237500D02*
X117900000Y-123800000D01*
X118462500Y-116962500D02*
X118462500Y-123237500D01*
X93900000Y-122600000D02*
X89337500Y-122600000D01*
X100200000Y-121042000D02*
X99758000Y-120600000D01*
X100800000Y-122163604D02*
X100200000Y-121563604D01*
X95900000Y-120600000D02*
X93900000Y-122600000D01*
X100800000Y-123800000D02*
X100800000Y-122163604D01*
%TO.N,IN2P*%
X110039689Y-109099651D02*
X113939340Y-105200000D01*
X121400000Y-107035000D02*
X121400000Y-107435000D01*
X119565000Y-105200000D02*
X121400000Y-107035000D01*
X113939340Y-105200000D02*
X119565000Y-105200000D01*
%TO.N,Net-(G117-A)*%
X96952500Y-122605000D02*
X99399000Y-122605000D01*
X99399000Y-122605000D02*
X99500000Y-122504000D01*
%TO.N,IN1M*%
X113646447Y-106200000D02*
X116637500Y-106200000D01*
X110393243Y-109453204D02*
X113646447Y-106200000D01*
X116637500Y-106200000D02*
X117800000Y-107362500D01*
%TO.N,IN1P*%
X114200000Y-107425000D02*
X113128553Y-107425000D01*
X110746796Y-109806757D02*
X113128553Y-107425000D01*
%TO.N,IN2M*%
X114232233Y-104200000D02*
X121700000Y-104200000D01*
X121700000Y-104200000D02*
X124982500Y-107482500D01*
X124982500Y-107482500D02*
X125000000Y-107482500D01*
X109686136Y-108746097D02*
X114232233Y-104200000D01*
%TO.N,OUT1P*%
X108360311Y-109099651D02*
X104560660Y-105300000D01*
X98281250Y-105300000D02*
X96100000Y-107481250D01*
X104560660Y-105300000D02*
X98281250Y-105300000D01*
%TO.N,OUT1M*%
X94100000Y-104100000D02*
X104067767Y-104100000D01*
X91700000Y-106500001D02*
X94100000Y-104100000D01*
X104067767Y-104100000D02*
X108713864Y-108746097D01*
%TO.N,Net-(J108-DREG)*%
X103356911Y-114371751D02*
X105157117Y-112571545D01*
X102071751Y-114371751D02*
X103356911Y-114371751D01*
X105157117Y-112571545D02*
X105157117Y-112111925D01*
X106539511Y-111892722D02*
X104937914Y-111892722D01*
X106946097Y-111486136D02*
X106539511Y-111892722D01*
X105157117Y-112111925D02*
X104937914Y-111892722D01*
%TO.N,OUT2P*%
X108006757Y-109453204D02*
X105053553Y-106500000D01*
X101225000Y-106500000D02*
X100300000Y-107425000D01*
X105053553Y-106500000D02*
X101225000Y-106500000D01*
%TO.N,OUT2M*%
X107653204Y-109806757D02*
X105046447Y-107200000D01*
X105046447Y-107200000D02*
X104200000Y-107200000D01*
%TO.N,5212_BCLK1*%
X88162500Y-108725000D02*
X89337500Y-109900000D01*
X89739201Y-106100000D02*
X88600000Y-106100000D01*
X99200000Y-113200000D02*
X99200000Y-112800000D01*
X103222490Y-115588045D02*
X101588045Y-115588045D01*
X90512500Y-108604533D02*
X90512500Y-106873299D01*
X88600000Y-106100000D02*
X88162500Y-106537500D01*
X99200000Y-112800000D02*
X96900000Y-110500000D01*
X92407967Y-110500000D02*
X90512500Y-108604533D01*
X88162500Y-106537500D02*
X88162500Y-108725000D01*
X101588045Y-115588045D02*
X99200000Y-113200000D01*
X90512500Y-106873299D02*
X89739201Y-106100000D01*
X104773583Y-114036952D02*
X103222490Y-115588045D01*
X96900000Y-110500000D02*
X92407967Y-110500000D01*
%TO.N,5212_LRCK1*%
X89337500Y-108065929D02*
X89337500Y-107360000D01*
X105445334Y-114708704D02*
X104115993Y-116038045D01*
X98750000Y-112986396D02*
X96763604Y-111000000D01*
X101401649Y-116038045D02*
X98750000Y-113386396D01*
X92271571Y-111000000D02*
X89337500Y-108065929D01*
X98750000Y-113386396D02*
X98750000Y-112986396D01*
X96763604Y-111000000D02*
X92271571Y-111000000D01*
X104115993Y-116038045D02*
X101401649Y-116038045D01*
%TO.N,5212_SCL*%
X109617194Y-117566333D02*
X109730761Y-117679900D01*
X108378875Y-120471986D02*
X107204297Y-120471986D01*
X109730761Y-117679900D02*
X109730761Y-119120100D01*
X109730761Y-119120100D02*
X108378875Y-120471986D01*
X109686136Y-116439420D02*
X109617194Y-116508362D01*
X102347498Y-120200000D02*
X102047500Y-119900002D01*
X109617194Y-116508362D02*
X109617194Y-117566333D01*
X109686136Y-113253903D02*
X109686136Y-116439420D01*
X106932311Y-120200000D02*
X102347498Y-120200000D01*
X107204297Y-120471986D02*
X106932311Y-120200000D01*
%TO.N,5212_SDA*%
X100976484Y-120025000D02*
X98492588Y-120025000D01*
X111141385Y-116460624D02*
X111141385Y-115800000D01*
X102757500Y-120775000D02*
X101726484Y-120775000D01*
X101726484Y-120775000D02*
X100976484Y-120025000D01*
X110274030Y-120921986D02*
X106270514Y-120921986D01*
X110384220Y-113244880D02*
X110039689Y-112900349D01*
X110384220Y-114791291D02*
X110384220Y-113244880D01*
X98167588Y-119700000D02*
X92466728Y-119700000D01*
X98492588Y-120025000D02*
X98167588Y-119700000D01*
X104587500Y-122605000D02*
X102757500Y-120775000D01*
X111141385Y-115548456D02*
X110384220Y-114791291D01*
X111141385Y-120054631D02*
X110274030Y-120921986D01*
X111141385Y-116460624D02*
X111141385Y-120054631D01*
X106270514Y-120921986D02*
X104587500Y-122605000D01*
X92466728Y-119700000D02*
X92004802Y-120161926D01*
X111141385Y-115800000D02*
X111141385Y-115548456D01*
%TO.N,5212_DOUT1*%
X97137500Y-115100000D02*
X98181170Y-115100000D01*
X99653553Y-115753553D02*
X100388045Y-116488045D01*
X100388045Y-116488045D02*
X105009496Y-116488045D01*
X98181170Y-115100000D02*
X98834723Y-115753553D01*
X105009496Y-116488045D02*
X106117086Y-115380455D01*
X98834723Y-115753553D02*
X99653553Y-115753553D01*
%TO.N,5212_DIN1*%
X88555000Y-116155000D02*
X88162500Y-115762500D01*
X98678984Y-119575000D02*
X98353984Y-119250000D01*
X89634201Y-116155000D02*
X88555000Y-116155000D01*
X98353984Y-119250000D02*
X92250000Y-119250000D01*
X102900000Y-117000000D02*
X100325000Y-119575000D01*
X105414995Y-117000000D02*
X102900000Y-117000000D01*
X106788837Y-116052207D02*
X106362788Y-116052207D01*
X90512500Y-117033299D02*
X89634201Y-116155000D01*
X90512500Y-117512500D02*
X90512500Y-117033299D01*
X88162500Y-113615000D02*
X89337500Y-112440000D01*
X92250000Y-119250000D02*
X90512500Y-117512500D01*
X88162500Y-115762500D02*
X88162500Y-113615000D01*
X100325000Y-119575000D02*
X98678984Y-119575000D01*
X106362788Y-116052207D02*
X105414995Y-117000000D01*
%TO.N,5212_DOUT1+*%
X96200000Y-111955000D02*
X95147500Y-111955000D01*
X97950000Y-112822792D02*
X97082208Y-111955000D01*
X90220000Y-114980000D02*
X92600000Y-112600000D01*
X92600000Y-112600000D02*
X94502500Y-112600000D01*
X98946447Y-115046447D02*
X98946447Y-114482843D01*
X97082208Y-111955000D02*
X96200000Y-111955000D01*
X89337500Y-114980000D02*
X90220000Y-114980000D01*
X97950000Y-113486396D02*
X97950000Y-112822792D01*
X98946447Y-114482843D02*
X97950000Y-113486396D01*
X95147500Y-111955000D02*
X94502500Y-112600000D01*
%TO.N,MICBIAS*%
X111100349Y-110160311D02*
X112460660Y-108800000D01*
X125500000Y-108700000D02*
X116700000Y-108700000D01*
X116700000Y-108700000D02*
X115800000Y-109600000D01*
X112460660Y-108800000D02*
X113437499Y-108800000D01*
X126300000Y-107900000D02*
X125500000Y-108700000D01*
X126300000Y-106232500D02*
X126300000Y-107900000D01*
X115800000Y-109600000D02*
X114237499Y-109600000D01*
X122352500Y-102285000D02*
X126300000Y-106232500D01*
X114237499Y-109600000D02*
X113437499Y-108800000D01*
%TO.N,3.3V_LDO*%
X107299651Y-110160311D02*
X106678751Y-109539411D01*
X106678751Y-109539411D02*
X105939411Y-109539411D01*
X94200000Y-118000000D02*
X92800004Y-116600004D01*
X95762500Y-118000000D02*
X95762500Y-116950000D01*
X105050000Y-118850000D02*
X105600000Y-119400000D01*
X122110000Y-116300000D02*
X122200000Y-116390000D01*
X95762500Y-116950000D02*
X94862500Y-116050000D01*
X105050000Y-118000000D02*
X105050000Y-118850000D01*
X108818261Y-119236450D02*
X108818261Y-118400000D01*
X122109999Y-112900000D02*
X121464999Y-113545000D01*
X107106500Y-119737793D02*
X107390693Y-120021986D01*
X122200000Y-116390000D02*
X123487500Y-116390000D01*
X108032725Y-120021986D02*
X108818261Y-119236450D01*
X105937793Y-119737793D02*
X107106500Y-119737793D01*
X122109999Y-112900000D02*
X122109999Y-111690000D01*
X95762500Y-118000000D02*
X94200000Y-118000000D01*
X123487500Y-116390000D02*
X124892500Y-114985000D01*
X121464999Y-113545000D02*
X119535000Y-113545000D01*
X92800004Y-116600004D02*
X92800004Y-114900000D01*
X107390693Y-120021986D02*
X108032725Y-120021986D01*
X105600000Y-119400000D02*
X105937793Y-119737793D01*
X119535000Y-113545000D02*
X118890000Y-112900000D01*
X122110000Y-112900000D02*
X122110000Y-116300000D01*
X122109999Y-111690000D02*
X122200000Y-111599999D01*
%TO.N,5212_MCLK1*%
X89397500Y-99800000D02*
X89337500Y-99740000D01*
%TO.N,GPI1*%
X117287500Y-122605000D02*
X114420251Y-119737751D01*
X114420251Y-119737751D02*
X114420251Y-113221977D01*
%TO.N,Net-(D116-A)*%
X122200000Y-117410000D02*
X120890000Y-117410000D01*
X120890000Y-117410000D02*
X120200000Y-118100000D01*
%TO.N,GPO1*%
X113677789Y-121535289D02*
X113677789Y-113964439D01*
X114747500Y-122605000D02*
X113677789Y-121535289D01*
%TO.N,Net-(J108-FSYNC)*%
X106880689Y-112965757D02*
X106880689Y-113273349D01*
X107653204Y-112193243D02*
X106880689Y-112965757D01*
X106880689Y-113273349D02*
X106290326Y-113863712D01*
%TO.N,Net-(J108-GPIO1)*%
X111026175Y-113179728D02*
X110393243Y-112546796D01*
X111278965Y-114606174D02*
X111026175Y-114353384D01*
X111026175Y-114353384D02*
X111026175Y-113179728D01*
%TO.N,Net-(J108-BCLK)*%
X107299651Y-111839689D02*
X105947380Y-113191960D01*
X105947380Y-113191960D02*
X105618575Y-113191960D01*
%TO.N,GPIO1*%
X110052412Y-122605000D02*
X112157509Y-120499903D01*
X112157509Y-120499903D02*
X112157509Y-115484718D01*
X109667500Y-122605000D02*
X110052412Y-122605000D01*
%TO.N,Net-(J108-GPI1)*%
X112311199Y-112343432D02*
X111453903Y-111486136D01*
X113541707Y-112343432D02*
X112311199Y-112343432D01*
%TO.N,Net-(J108-GPO1)*%
X112346555Y-113085894D02*
X111100350Y-111839689D01*
X112799244Y-113085894D02*
X112346555Y-113085894D01*
%TO.N,GPIO2*%
X113057500Y-114825609D02*
X112937059Y-114705168D01*
X113057500Y-121755000D02*
X113057500Y-114825609D01*
X112207500Y-122605000D02*
X113057500Y-121755000D01*
%TO.N,Net-(J108-GPIO2)*%
X112039105Y-113846034D02*
X112039105Y-113485551D01*
X112039105Y-113485551D02*
X110746796Y-112193243D01*
%TO.N,Net-(PU_EN108-Pad1)*%
X110338442Y-117229610D02*
X110338442Y-115821071D01*
X103750000Y-118750000D02*
X104430004Y-119430004D01*
X103750000Y-118000000D02*
X103750000Y-118750000D01*
X110338442Y-119622340D02*
X110338844Y-119622742D01*
X110338442Y-117229610D02*
X110338442Y-119622340D01*
X110338442Y-115821071D02*
X110420137Y-115739376D01*
%TO.N,Net-(U108-Y)*%
X94862500Y-113435000D02*
X95697500Y-112600000D01*
X94862500Y-114150000D02*
X94862500Y-113435000D01*
%TD*%
%TA.AperFunction,Conductor*%
%TO.N,Earth*%
G36*
X103927907Y-104495185D02*
G01*
X103948549Y-104511819D01*
X104149549Y-104712819D01*
X104183034Y-104774142D01*
X104178050Y-104843834D01*
X104136178Y-104899767D01*
X104070714Y-104924184D01*
X104061868Y-104924500D01*
X98231814Y-104924500D01*
X98184062Y-104937295D01*
X98184061Y-104937294D01*
X98136313Y-104950089D01*
X98136312Y-104950089D01*
X98050685Y-104999527D01*
X96087032Y-106963181D01*
X96025709Y-106996666D01*
X95999351Y-106999500D01*
X95725323Y-106999500D01*
X95652264Y-107014032D01*
X95652260Y-107014033D01*
X95569399Y-107069399D01*
X95514033Y-107152260D01*
X95514032Y-107152264D01*
X95499500Y-107225321D01*
X95499500Y-107774678D01*
X95514032Y-107847735D01*
X95514033Y-107847739D01*
X95524230Y-107863000D01*
X95569399Y-107930601D01*
X95647821Y-107983000D01*
X95652260Y-107985966D01*
X95652264Y-107985967D01*
X95725321Y-108000499D01*
X95725324Y-108000500D01*
X95725326Y-108000500D01*
X96274676Y-108000500D01*
X96274677Y-108000499D01*
X96347740Y-107985966D01*
X96430601Y-107930601D01*
X96485966Y-107847740D01*
X96500500Y-107774674D01*
X96500500Y-107663149D01*
X96520185Y-107596110D01*
X96536819Y-107575468D01*
X98400468Y-105711819D01*
X98461791Y-105678334D01*
X98488149Y-105675500D01*
X104353761Y-105675500D01*
X104420800Y-105695185D01*
X104441442Y-105711819D01*
X104642442Y-105912819D01*
X104675927Y-105974142D01*
X104670943Y-106043834D01*
X104629071Y-106099767D01*
X104563607Y-106124184D01*
X104554761Y-106124500D01*
X101175564Y-106124500D01*
X101080061Y-106150089D01*
X100994438Y-106199525D01*
X100994435Y-106199527D01*
X100305782Y-106888181D01*
X100244459Y-106921666D01*
X100218101Y-106924500D01*
X100025323Y-106924500D01*
X99952264Y-106939032D01*
X99952260Y-106939033D01*
X99869399Y-106994399D01*
X99814033Y-107077260D01*
X99814032Y-107077264D01*
X99799500Y-107150321D01*
X99799500Y-107699678D01*
X99814032Y-107772735D01*
X99814033Y-107772739D01*
X99832248Y-107800000D01*
X99869399Y-107855601D01*
X99920210Y-107889551D01*
X99952260Y-107910966D01*
X99952264Y-107910967D01*
X100025321Y-107925499D01*
X100025324Y-107925500D01*
X100025326Y-107925500D01*
X100574676Y-107925500D01*
X100574677Y-107925499D01*
X100647740Y-107910966D01*
X100730601Y-107855601D01*
X100785966Y-107772740D01*
X100800500Y-107699674D01*
X100800500Y-107506899D01*
X100820185Y-107439860D01*
X100836819Y-107419218D01*
X101344218Y-106911819D01*
X101405541Y-106878334D01*
X101431899Y-106875500D01*
X103575500Y-106875500D01*
X103642539Y-106895185D01*
X103688294Y-106947989D01*
X103699500Y-106999500D01*
X103699500Y-107474678D01*
X103714032Y-107547735D01*
X103714033Y-107547739D01*
X103714034Y-107547740D01*
X103769399Y-107630601D01*
X103852259Y-107685965D01*
X103852260Y-107685966D01*
X103852264Y-107685967D01*
X103925321Y-107700499D01*
X103925324Y-107700500D01*
X103925326Y-107700500D01*
X104474676Y-107700500D01*
X104474677Y-107700499D01*
X104547740Y-107685966D01*
X104630601Y-107630601D01*
X104630605Y-107630594D01*
X104639234Y-107621967D01*
X104640009Y-107622742D01*
X104684204Y-107585805D01*
X104733697Y-107575500D01*
X104839548Y-107575500D01*
X104906587Y-107595185D01*
X104927229Y-107611819D01*
X105139407Y-107823997D01*
X105172892Y-107885320D01*
X105167908Y-107955012D01*
X105126036Y-108010945D01*
X105082564Y-108031782D01*
X105044334Y-108041597D01*
X105044326Y-108041600D01*
X104902633Y-108119497D01*
X104902624Y-108119503D01*
X104886676Y-108133123D01*
X105349684Y-108596131D01*
X105383169Y-108657454D01*
X105378185Y-108727146D01*
X105349684Y-108771493D01*
X105171493Y-108949685D01*
X105110170Y-108983170D01*
X105040479Y-108978186D01*
X104996131Y-108949685D01*
X104533123Y-108486677D01*
X104519501Y-108502626D01*
X104441600Y-108644326D01*
X104441597Y-108644336D01*
X104401386Y-108800947D01*
X104401386Y-108962658D01*
X104443539Y-109126830D01*
X104440599Y-109127584D01*
X104445669Y-109183082D01*
X104413397Y-109245052D01*
X104352745Y-109279738D01*
X104324007Y-109283114D01*
X103924046Y-109283114D01*
X103857007Y-109263429D01*
X103811252Y-109210625D01*
X103801308Y-109176761D01*
X103793312Y-109121147D01*
X103733525Y-108990232D01*
X103715555Y-108967933D01*
X103695906Y-108943549D01*
X103695901Y-108943544D01*
X103695897Y-108943539D01*
X102956454Y-108204099D01*
X102956448Y-108204094D01*
X102956444Y-108204090D01*
X102909769Y-108166475D01*
X102778851Y-108106687D01*
X102778853Y-108106687D01*
X102636396Y-108086206D01*
X102493939Y-108106687D01*
X102363023Y-108166475D01*
X102363018Y-108166478D01*
X102316342Y-108204091D01*
X102316334Y-108204098D01*
X102308266Y-108212167D01*
X102246943Y-108245652D01*
X102220585Y-108248486D01*
X100870473Y-108248486D01*
X100840799Y-108244883D01*
X100753986Y-108223486D01*
X100753985Y-108223486D01*
X100596015Y-108223486D01*
X100596014Y-108223486D01*
X100442634Y-108261289D01*
X100302762Y-108334701D01*
X100184516Y-108439457D01*
X100094781Y-108569461D01*
X100094780Y-108569462D01*
X100038762Y-108717167D01*
X100019722Y-108873985D01*
X100019722Y-108873986D01*
X100038762Y-109030804D01*
X100089244Y-109163911D01*
X100094780Y-109178509D01*
X100184517Y-109308516D01*
X100302760Y-109413269D01*
X100302762Y-109413270D01*
X100442634Y-109486682D01*
X100463971Y-109491940D01*
X100482620Y-109496537D01*
X100543001Y-109531692D01*
X100569122Y-109582815D01*
X101443154Y-110456846D01*
X102338707Y-111352399D01*
X102372192Y-111413722D01*
X102374091Y-111431393D01*
X101676740Y-111435235D01*
X101661081Y-111406557D01*
X101658247Y-111380201D01*
X101658246Y-111379046D01*
X101089600Y-110810400D01*
X100223395Y-109944194D01*
X100126182Y-110041408D01*
X100126172Y-110041419D01*
X100060976Y-110121450D01*
X100060967Y-110121463D01*
X99982284Y-110278134D01*
X99957465Y-110382853D01*
X99922851Y-110443546D01*
X99860918Y-110475890D01*
X99791330Y-110469615D01*
X99747006Y-110439764D01*
X99563028Y-110246547D01*
X97900000Y-108500000D01*
X91837544Y-108500000D01*
X91770505Y-108480315D01*
X91768761Y-108479174D01*
X91554695Y-108336463D01*
X91509834Y-108282898D01*
X91499482Y-108234265D01*
X91499397Y-108223486D01*
X91490963Y-107152260D01*
X91490752Y-107125476D01*
X91509908Y-107058284D01*
X91562350Y-107012115D01*
X91614748Y-107000500D01*
X91974676Y-107000500D01*
X91974677Y-107000499D01*
X92047740Y-106985966D01*
X92130601Y-106930601D01*
X92185966Y-106847740D01*
X92200500Y-106774674D01*
X92200500Y-106581899D01*
X92220185Y-106514860D01*
X92236819Y-106494218D01*
X94219218Y-104511819D01*
X94280541Y-104478334D01*
X94306899Y-104475500D01*
X103860868Y-104475500D01*
X103927907Y-104495185D01*
G37*
%TD.AperFunction*%
%TA.AperFunction,Conductor*%
G36*
X112654612Y-109239598D02*
G01*
X112710544Y-109281468D01*
X112739762Y-109320498D01*
X112788884Y-109386116D01*
X112901222Y-109470212D01*
X112979709Y-109499486D01*
X113032700Y-109519251D01*
X113090809Y-109525499D01*
X113090826Y-109525500D01*
X113580599Y-109525500D01*
X113647638Y-109545185D01*
X113668280Y-109561819D01*
X114006936Y-109900475D01*
X114035616Y-109917033D01*
X114092561Y-109949910D01*
X114092565Y-109949911D01*
X114140310Y-109962705D01*
X114140311Y-109962705D01*
X114150402Y-109965408D01*
X114188063Y-109975500D01*
X114188064Y-109975500D01*
X115344101Y-109975500D01*
X115411140Y-109995185D01*
X115456895Y-110047989D01*
X115466839Y-110117147D01*
X115437814Y-110180703D01*
X115431782Y-110187181D01*
X115030782Y-110588181D01*
X114969459Y-110621666D01*
X114943101Y-110624500D01*
X112643295Y-110624500D01*
X112576256Y-110604815D01*
X112555614Y-110588181D01*
X112180823Y-110213390D01*
X112180822Y-110213389D01*
X112118142Y-110177201D01*
X112095200Y-110163955D01*
X112095193Y-110163952D01*
X112093438Y-110163482D01*
X112092125Y-110162681D01*
X112087691Y-110160845D01*
X112087977Y-110160152D01*
X112033781Y-110127111D01*
X112027168Y-110119198D01*
X112010522Y-110097505D01*
X111940037Y-110027020D01*
X111906552Y-109965697D01*
X111911536Y-109896005D01*
X111940034Y-109851661D01*
X112523598Y-109268097D01*
X112584920Y-109234614D01*
X112654612Y-109239598D01*
G37*
%TD.AperFunction*%
%TA.AperFunction,Conductor*%
G36*
X95968916Y-97964685D02*
G01*
X96014671Y-98017489D01*
X96024615Y-98086647D01*
X95995590Y-98150203D01*
X95961304Y-98177832D01*
X95949494Y-98184280D01*
X95949486Y-98184285D01*
X95737592Y-98342906D01*
X95737574Y-98342922D01*
X95550422Y-98530074D01*
X95550406Y-98530092D01*
X95391785Y-98741986D01*
X95391780Y-98741994D01*
X95264928Y-98974305D01*
X95264926Y-98974309D01*
X95172421Y-99222326D01*
X95116158Y-99480965D01*
X95116157Y-99480972D01*
X95097273Y-99744998D01*
X95097273Y-99745001D01*
X95116157Y-100009027D01*
X95116158Y-100009034D01*
X95172421Y-100267673D01*
X95264926Y-100515690D01*
X95264928Y-100515694D01*
X95391780Y-100748005D01*
X95391785Y-100748013D01*
X95550406Y-100959907D01*
X95550422Y-100959925D01*
X95737574Y-101147077D01*
X95737592Y-101147093D01*
X95949486Y-101305714D01*
X95949494Y-101305719D01*
X96181805Y-101432571D01*
X96181809Y-101432573D01*
X96181811Y-101432574D01*
X96429822Y-101525077D01*
X96429825Y-101525077D01*
X96429826Y-101525078D01*
X96625052Y-101567546D01*
X96688474Y-101581343D01*
X96932160Y-101598772D01*
X96952499Y-101600227D01*
X96952500Y-101600227D01*
X96952501Y-101600227D01*
X96971385Y-101598876D01*
X97216526Y-101581343D01*
X97475178Y-101525077D01*
X97723189Y-101432574D01*
X97955511Y-101305716D01*
X98167415Y-101147087D01*
X98354587Y-100959915D01*
X98513216Y-100748011D01*
X98640074Y-100515689D01*
X98705819Y-100339418D01*
X98747689Y-100283486D01*
X98813153Y-100259069D01*
X98881426Y-100273921D01*
X98930832Y-100323326D01*
X98946000Y-100382753D01*
X98946000Y-100501844D01*
X98952401Y-100561372D01*
X98952403Y-100561379D01*
X99002645Y-100696086D01*
X99002649Y-100696093D01*
X99088809Y-100811187D01*
X99088812Y-100811190D01*
X99203906Y-100897350D01*
X99203913Y-100897354D01*
X99338620Y-100947596D01*
X99338627Y-100947598D01*
X99398155Y-100953999D01*
X99398172Y-100954000D01*
X99450000Y-100954000D01*
X99450000Y-100328000D01*
X99469685Y-100260961D01*
X99522489Y-100215206D01*
X99574000Y-100204000D01*
X99826000Y-100204000D01*
X99893039Y-100223685D01*
X99938794Y-100276489D01*
X99950000Y-100328000D01*
X99950000Y-100954000D01*
X100001828Y-100954000D01*
X100001844Y-100953999D01*
X100061372Y-100947598D01*
X100061379Y-100947596D01*
X100196086Y-100897354D01*
X100196093Y-100897350D01*
X100311187Y-100811190D01*
X100311190Y-100811187D01*
X100397350Y-100696093D01*
X100397354Y-100696086D01*
X100447596Y-100561379D01*
X100447598Y-100561372D01*
X100450211Y-100537075D01*
X100476949Y-100472524D01*
X100534342Y-100432676D01*
X100604167Y-100430183D01*
X100664256Y-100465836D01*
X100695530Y-100528316D01*
X100697500Y-100550331D01*
X100697500Y-100642844D01*
X100703901Y-100702372D01*
X100703903Y-100702379D01*
X100754145Y-100837086D01*
X100754149Y-100837093D01*
X100840309Y-100952187D01*
X100840312Y-100952190D01*
X100955406Y-101038350D01*
X100955412Y-101038353D01*
X100976768Y-101046319D01*
X101032701Y-101088191D01*
X101057118Y-101153656D01*
X101042266Y-101221928D01*
X101021119Y-101250179D01*
X101016900Y-101254397D01*
X100961533Y-101337260D01*
X100961532Y-101337264D01*
X100947000Y-101410321D01*
X100947000Y-103159678D01*
X100961532Y-103232735D01*
X100961533Y-103232739D01*
X100961534Y-103232740D01*
X101016899Y-103315601D01*
X101099760Y-103370966D01*
X101099764Y-103370967D01*
X101172821Y-103385499D01*
X101172824Y-103385500D01*
X101172826Y-103385500D01*
X102922176Y-103385500D01*
X102922177Y-103385499D01*
X102995240Y-103370966D01*
X103078101Y-103315601D01*
X103133466Y-103232740D01*
X103148000Y-103159674D01*
X103148000Y-101410326D01*
X103148000Y-101410323D01*
X103147999Y-101410321D01*
X103133467Y-101337264D01*
X103133466Y-101337260D01*
X103112388Y-101305714D01*
X103078101Y-101254399D01*
X103078099Y-101254397D01*
X103078098Y-101254396D01*
X103073884Y-101250182D01*
X103040399Y-101188859D01*
X103045383Y-101119167D01*
X103087255Y-101063234D01*
X103118232Y-101046319D01*
X103139586Y-101038354D01*
X103139593Y-101038350D01*
X103254687Y-100952190D01*
X103254690Y-100952187D01*
X103340850Y-100837093D01*
X103340854Y-100837086D01*
X103390114Y-100705013D01*
X103431985Y-100649079D01*
X103497449Y-100624662D01*
X103565722Y-100639513D01*
X103593977Y-100660665D01*
X103716417Y-100783105D01*
X103909921Y-100918600D01*
X104124007Y-101018429D01*
X104124016Y-101018433D01*
X104163083Y-101028901D01*
X104222744Y-101065266D01*
X104253273Y-101128113D01*
X104244979Y-101197488D01*
X104200493Y-101251366D01*
X104175784Y-101264302D01*
X104094873Y-101295647D01*
X104094857Y-101295655D01*
X103921460Y-101403017D01*
X103921458Y-101403019D01*
X103770737Y-101540418D01*
X103647827Y-101703178D01*
X103556922Y-101885739D01*
X103556917Y-101885752D01*
X103501102Y-102081917D01*
X103482285Y-102284999D01*
X103482285Y-102285000D01*
X103501102Y-102488082D01*
X103556917Y-102684247D01*
X103556922Y-102684260D01*
X103647827Y-102866821D01*
X103770737Y-103029581D01*
X103921458Y-103166980D01*
X103921460Y-103166982D01*
X104020641Y-103228392D01*
X104094863Y-103274348D01*
X104285044Y-103348024D01*
X104485524Y-103385500D01*
X104485526Y-103385500D01*
X104689474Y-103385500D01*
X104689476Y-103385500D01*
X104889956Y-103348024D01*
X105080137Y-103274348D01*
X105253541Y-103166981D01*
X105404264Y-103029579D01*
X105527173Y-102866821D01*
X105618082Y-102684250D01*
X105673897Y-102488083D01*
X105692715Y-102285000D01*
X105673897Y-102081917D01*
X105618082Y-101885750D01*
X105527173Y-101703179D01*
X105404264Y-101540421D01*
X105404262Y-101540418D01*
X105253541Y-101403019D01*
X105253539Y-101403017D01*
X105080142Y-101295655D01*
X105080135Y-101295651D01*
X104999215Y-101264303D01*
X104943813Y-101221730D01*
X104920223Y-101155963D01*
X104935934Y-101087883D01*
X104985958Y-101039104D01*
X105011917Y-101028901D01*
X105050981Y-101018434D01*
X105050992Y-101018429D01*
X105265078Y-100918600D01*
X105458582Y-100783105D01*
X105625605Y-100616082D01*
X105755925Y-100429968D01*
X105810502Y-100386344D01*
X105880001Y-100379151D01*
X105942355Y-100410673D01*
X105959075Y-100429968D01*
X106089394Y-100616082D01*
X106256417Y-100783105D01*
X106449921Y-100918600D01*
X106664007Y-101018429D01*
X106664016Y-101018433D01*
X106703083Y-101028901D01*
X106762744Y-101065266D01*
X106793273Y-101128113D01*
X106784979Y-101197488D01*
X106740493Y-101251366D01*
X106715784Y-101264302D01*
X106634873Y-101295647D01*
X106634857Y-101295655D01*
X106461460Y-101403017D01*
X106461458Y-101403019D01*
X106310737Y-101540418D01*
X106187827Y-101703178D01*
X106096922Y-101885739D01*
X106096917Y-101885752D01*
X106041102Y-102081917D01*
X106022285Y-102284999D01*
X106022285Y-102285000D01*
X106041102Y-102488082D01*
X106096917Y-102684247D01*
X106096922Y-102684260D01*
X106187827Y-102866821D01*
X106310737Y-103029581D01*
X106461458Y-103166980D01*
X106461460Y-103166982D01*
X106560641Y-103228392D01*
X106634863Y-103274348D01*
X106825044Y-103348024D01*
X107025524Y-103385500D01*
X107025526Y-103385500D01*
X107229474Y-103385500D01*
X107229476Y-103385500D01*
X107429956Y-103348024D01*
X107620137Y-103274348D01*
X107793541Y-103166981D01*
X107944264Y-103029579D01*
X108067173Y-102866821D01*
X108158082Y-102684250D01*
X108213897Y-102488083D01*
X108232715Y-102285000D01*
X108213897Y-102081917D01*
X108158082Y-101885750D01*
X108067173Y-101703179D01*
X107944264Y-101540421D01*
X107944262Y-101540418D01*
X107793541Y-101403019D01*
X107793539Y-101403017D01*
X107620142Y-101295655D01*
X107620135Y-101295651D01*
X107539215Y-101264303D01*
X107483813Y-101221730D01*
X107460223Y-101155963D01*
X107475934Y-101087883D01*
X107525958Y-101039104D01*
X107551917Y-101028901D01*
X107590981Y-101018434D01*
X107590992Y-101018429D01*
X107805078Y-100918600D01*
X107998582Y-100783105D01*
X108165605Y-100616082D01*
X108295925Y-100429968D01*
X108350502Y-100386344D01*
X108420001Y-100379151D01*
X108482355Y-100410673D01*
X108499075Y-100429968D01*
X108629394Y-100616082D01*
X108796417Y-100783105D01*
X108989921Y-100918600D01*
X109204007Y-101018429D01*
X109204016Y-101018433D01*
X109243083Y-101028901D01*
X109302744Y-101065266D01*
X109333273Y-101128113D01*
X109324979Y-101197488D01*
X109280493Y-101251366D01*
X109255784Y-101264302D01*
X109174873Y-101295647D01*
X109174857Y-101295655D01*
X109001460Y-101403017D01*
X109001458Y-101403019D01*
X108850737Y-101540418D01*
X108727827Y-101703178D01*
X108636922Y-101885739D01*
X108636917Y-101885752D01*
X108581102Y-102081917D01*
X108562285Y-102284999D01*
X108562285Y-102285000D01*
X108581102Y-102488082D01*
X108636917Y-102684247D01*
X108636922Y-102684260D01*
X108727827Y-102866821D01*
X108850737Y-103029581D01*
X109001458Y-103166980D01*
X109001460Y-103166982D01*
X109100641Y-103228392D01*
X109174863Y-103274348D01*
X109365044Y-103348024D01*
X109565524Y-103385500D01*
X109565526Y-103385500D01*
X109769474Y-103385500D01*
X109769476Y-103385500D01*
X109969956Y-103348024D01*
X110160137Y-103274348D01*
X110333541Y-103166981D01*
X110484264Y-103029579D01*
X110607173Y-102866821D01*
X110698082Y-102684250D01*
X110753897Y-102488083D01*
X110772715Y-102285000D01*
X110753897Y-102081917D01*
X110698082Y-101885750D01*
X110607173Y-101703179D01*
X110484264Y-101540421D01*
X110484262Y-101540418D01*
X110333541Y-101403019D01*
X110333539Y-101403017D01*
X110160142Y-101295655D01*
X110160135Y-101295651D01*
X110079215Y-101264303D01*
X110023813Y-101221730D01*
X110000223Y-101155963D01*
X110015934Y-101087883D01*
X110065958Y-101039104D01*
X110091917Y-101028901D01*
X110130981Y-101018434D01*
X110130992Y-101018429D01*
X110345078Y-100918600D01*
X110538582Y-100783105D01*
X110705605Y-100616082D01*
X110835925Y-100429968D01*
X110890502Y-100386344D01*
X110960001Y-100379151D01*
X111022355Y-100410673D01*
X111039075Y-100429968D01*
X111169394Y-100616082D01*
X111336417Y-100783105D01*
X111529921Y-100918600D01*
X111744007Y-101018429D01*
X111744016Y-101018433D01*
X111783083Y-101028901D01*
X111842744Y-101065266D01*
X111873273Y-101128113D01*
X111864979Y-101197488D01*
X111820493Y-101251366D01*
X111795784Y-101264302D01*
X111714873Y-101295647D01*
X111714857Y-101295655D01*
X111541460Y-101403017D01*
X111541458Y-101403019D01*
X111390737Y-101540418D01*
X111267827Y-101703178D01*
X111176922Y-101885739D01*
X111176917Y-101885752D01*
X111121102Y-102081917D01*
X111102285Y-102284999D01*
X111102285Y-102285000D01*
X111121102Y-102488082D01*
X111176917Y-102684247D01*
X111176922Y-102684260D01*
X111267827Y-102866821D01*
X111390737Y-103029581D01*
X111541458Y-103166980D01*
X111541460Y-103166982D01*
X111640641Y-103228392D01*
X111714863Y-103274348D01*
X111905044Y-103348024D01*
X112105524Y-103385500D01*
X112105526Y-103385500D01*
X112309474Y-103385500D01*
X112309476Y-103385500D01*
X112509956Y-103348024D01*
X112700137Y-103274348D01*
X112873541Y-103166981D01*
X113024264Y-103029579D01*
X113147173Y-102866821D01*
X113238082Y-102684250D01*
X113293897Y-102488083D01*
X113312715Y-102285000D01*
X113293897Y-102081917D01*
X113238082Y-101885750D01*
X113147173Y-101703179D01*
X113024264Y-101540421D01*
X113024262Y-101540418D01*
X112873541Y-101403019D01*
X112873539Y-101403017D01*
X112700142Y-101295655D01*
X112700135Y-101295651D01*
X112619215Y-101264303D01*
X112563813Y-101221730D01*
X112540223Y-101155963D01*
X112555934Y-101087883D01*
X112605958Y-101039104D01*
X112631917Y-101028901D01*
X112670981Y-101018434D01*
X112670992Y-101018429D01*
X112885078Y-100918600D01*
X113078582Y-100783105D01*
X113245605Y-100616082D01*
X113375925Y-100429968D01*
X113430502Y-100386344D01*
X113500001Y-100379151D01*
X113562355Y-100410673D01*
X113579075Y-100429968D01*
X113709394Y-100616082D01*
X113876417Y-100783105D01*
X114069921Y-100918600D01*
X114284007Y-101018429D01*
X114284016Y-101018433D01*
X114323083Y-101028901D01*
X114382744Y-101065266D01*
X114413273Y-101128113D01*
X114404979Y-101197488D01*
X114360493Y-101251366D01*
X114335784Y-101264302D01*
X114254873Y-101295647D01*
X114254857Y-101295655D01*
X114081460Y-101403017D01*
X114081458Y-101403019D01*
X113930737Y-101540418D01*
X113807827Y-101703178D01*
X113716922Y-101885739D01*
X113716917Y-101885752D01*
X113661102Y-102081917D01*
X113642285Y-102284999D01*
X113642285Y-102285000D01*
X113661102Y-102488082D01*
X113716917Y-102684247D01*
X113716922Y-102684260D01*
X113807827Y-102866821D01*
X113930737Y-103029581D01*
X114081458Y-103166980D01*
X114081460Y-103166982D01*
X114180641Y-103228392D01*
X114254863Y-103274348D01*
X114445044Y-103348024D01*
X114645524Y-103385500D01*
X114645526Y-103385500D01*
X114849474Y-103385500D01*
X114849476Y-103385500D01*
X115049956Y-103348024D01*
X115240137Y-103274348D01*
X115413541Y-103166981D01*
X115564264Y-103029579D01*
X115687173Y-102866821D01*
X115778082Y-102684250D01*
X115833897Y-102488083D01*
X115852715Y-102285000D01*
X115833897Y-102081917D01*
X115778082Y-101885750D01*
X115687173Y-101703179D01*
X115564264Y-101540421D01*
X115564262Y-101540418D01*
X115413541Y-101403019D01*
X115413539Y-101403017D01*
X115240142Y-101295655D01*
X115240135Y-101295651D01*
X115159215Y-101264303D01*
X115103813Y-101221730D01*
X115080223Y-101155963D01*
X115095934Y-101087883D01*
X115145958Y-101039104D01*
X115171917Y-101028901D01*
X115210981Y-101018434D01*
X115210992Y-101018429D01*
X115425078Y-100918600D01*
X115618582Y-100783105D01*
X115785605Y-100616082D01*
X115915925Y-100429968D01*
X115970502Y-100386344D01*
X116040001Y-100379151D01*
X116102355Y-100410673D01*
X116119075Y-100429968D01*
X116249394Y-100616082D01*
X116416417Y-100783105D01*
X116609921Y-100918600D01*
X116824007Y-101018429D01*
X116824016Y-101018433D01*
X116863083Y-101028901D01*
X116922744Y-101065266D01*
X116953273Y-101128113D01*
X116944979Y-101197488D01*
X116900493Y-101251366D01*
X116875784Y-101264302D01*
X116794873Y-101295647D01*
X116794857Y-101295655D01*
X116621460Y-101403017D01*
X116621458Y-101403019D01*
X116470737Y-101540418D01*
X116347827Y-101703178D01*
X116256922Y-101885739D01*
X116256917Y-101885752D01*
X116201102Y-102081917D01*
X116182285Y-102284999D01*
X116182285Y-102285000D01*
X116201102Y-102488082D01*
X116256917Y-102684247D01*
X116256922Y-102684260D01*
X116347827Y-102866821D01*
X116470737Y-103029581D01*
X116621458Y-103166980D01*
X116621460Y-103166982D01*
X116720641Y-103228392D01*
X116794863Y-103274348D01*
X116985044Y-103348024D01*
X117185524Y-103385500D01*
X117185526Y-103385500D01*
X117389474Y-103385500D01*
X117389476Y-103385500D01*
X117589956Y-103348024D01*
X117780137Y-103274348D01*
X117953541Y-103166981D01*
X118104264Y-103029579D01*
X118227173Y-102866821D01*
X118318082Y-102684250D01*
X118373897Y-102488083D01*
X118392715Y-102285000D01*
X118373897Y-102081917D01*
X118318082Y-101885750D01*
X118227173Y-101703179D01*
X118104264Y-101540421D01*
X118104262Y-101540418D01*
X117953541Y-101403019D01*
X117953539Y-101403017D01*
X117780142Y-101295655D01*
X117780135Y-101295651D01*
X117699215Y-101264303D01*
X117643813Y-101221730D01*
X117620223Y-101155963D01*
X117635934Y-101087883D01*
X117685958Y-101039104D01*
X117711917Y-101028901D01*
X117750981Y-101018434D01*
X117750992Y-101018429D01*
X117965078Y-100918600D01*
X118158582Y-100783105D01*
X118325605Y-100616082D01*
X118455925Y-100429968D01*
X118510502Y-100386344D01*
X118580001Y-100379151D01*
X118642355Y-100410673D01*
X118659075Y-100429968D01*
X118789394Y-100616082D01*
X118956417Y-100783105D01*
X119149921Y-100918600D01*
X119364007Y-101018429D01*
X119364016Y-101018433D01*
X119403083Y-101028901D01*
X119462744Y-101065266D01*
X119493273Y-101128113D01*
X119484979Y-101197488D01*
X119440493Y-101251366D01*
X119415784Y-101264302D01*
X119334873Y-101295647D01*
X119334857Y-101295655D01*
X119161460Y-101403017D01*
X119161458Y-101403019D01*
X119010737Y-101540418D01*
X118887827Y-101703178D01*
X118796922Y-101885739D01*
X118796917Y-101885752D01*
X118741102Y-102081917D01*
X118722285Y-102284999D01*
X118722285Y-102285000D01*
X118741102Y-102488082D01*
X118796917Y-102684247D01*
X118796922Y-102684260D01*
X118887827Y-102866821D01*
X119010737Y-103029581D01*
X119161458Y-103166980D01*
X119161460Y-103166982D01*
X119260641Y-103228392D01*
X119334863Y-103274348D01*
X119525044Y-103348024D01*
X119725524Y-103385500D01*
X119725526Y-103385500D01*
X119929474Y-103385500D01*
X119929476Y-103385500D01*
X120129956Y-103348024D01*
X120320137Y-103274348D01*
X120493541Y-103166981D01*
X120644264Y-103029579D01*
X120767173Y-102866821D01*
X120858082Y-102684250D01*
X120913897Y-102488083D01*
X120932715Y-102285000D01*
X120913897Y-102081917D01*
X120858082Y-101885750D01*
X120767173Y-101703179D01*
X120644264Y-101540421D01*
X120644262Y-101540418D01*
X120493541Y-101403019D01*
X120493539Y-101403017D01*
X120320142Y-101295655D01*
X120320135Y-101295651D01*
X120239215Y-101264303D01*
X120183813Y-101221730D01*
X120160223Y-101155963D01*
X120175934Y-101087883D01*
X120225958Y-101039104D01*
X120251917Y-101028901D01*
X120290981Y-101018434D01*
X120290992Y-101018429D01*
X120505078Y-100918600D01*
X120698582Y-100783105D01*
X120865605Y-100616082D01*
X120945597Y-100501844D01*
X121346000Y-100501844D01*
X121352401Y-100561372D01*
X121352403Y-100561379D01*
X121402645Y-100696086D01*
X121402649Y-100696093D01*
X121488809Y-100811187D01*
X121488812Y-100811190D01*
X121603906Y-100897350D01*
X121603913Y-100897354D01*
X121738620Y-100947596D01*
X121738627Y-100947598D01*
X121798155Y-100953999D01*
X121798172Y-100954000D01*
X121850000Y-100954000D01*
X122350000Y-100954000D01*
X122368819Y-100972819D01*
X122390314Y-101012184D01*
X122420436Y-100969379D01*
X122454299Y-100950237D01*
X122596086Y-100897354D01*
X122596093Y-100897350D01*
X122711187Y-100811190D01*
X122711190Y-100811187D01*
X122797350Y-100696093D01*
X122797354Y-100696086D01*
X122847596Y-100561379D01*
X122847598Y-100561372D01*
X122853999Y-100501844D01*
X122854000Y-100501827D01*
X122854000Y-100454000D01*
X122350000Y-100454000D01*
X122350000Y-100954000D01*
X121850000Y-100954000D01*
X121850000Y-100454000D01*
X121346000Y-100454000D01*
X121346000Y-100501844D01*
X120945597Y-100501844D01*
X121001100Y-100422578D01*
X121100929Y-100208492D01*
X121100932Y-100208486D01*
X121150913Y-100021956D01*
X121167344Y-99995000D01*
X120260512Y-99995000D01*
X120293425Y-99937993D01*
X120327500Y-99810826D01*
X120327500Y-99679174D01*
X120293425Y-99552007D01*
X120260512Y-99495000D01*
X121158136Y-99495000D01*
X121158135Y-99494999D01*
X121100932Y-99281513D01*
X121100929Y-99281507D01*
X121001100Y-99067422D01*
X121001099Y-99067420D01*
X120865613Y-98873926D01*
X120865608Y-98873920D01*
X120698582Y-98706894D01*
X120505078Y-98571399D01*
X120290992Y-98471570D01*
X120290986Y-98471567D01*
X120077500Y-98414364D01*
X120077500Y-99311988D01*
X120020493Y-99279075D01*
X119893326Y-99245000D01*
X119761674Y-99245000D01*
X119634507Y-99279075D01*
X119577500Y-99311988D01*
X119577500Y-98414364D01*
X119577499Y-98414364D01*
X119364013Y-98471567D01*
X119364007Y-98471570D01*
X119149922Y-98571399D01*
X119149920Y-98571400D01*
X118956426Y-98706886D01*
X118956420Y-98706891D01*
X118789391Y-98873920D01*
X118789390Y-98873922D01*
X118659075Y-99060031D01*
X118604498Y-99103655D01*
X118534999Y-99110848D01*
X118472645Y-99079326D01*
X118455925Y-99060031D01*
X118325609Y-98873922D01*
X118325608Y-98873920D01*
X118158582Y-98706894D01*
X117965078Y-98571399D01*
X117750992Y-98471570D01*
X117750986Y-98471567D01*
X117537500Y-98414364D01*
X117537500Y-99311988D01*
X117480493Y-99279075D01*
X117353326Y-99245000D01*
X117221674Y-99245000D01*
X117094507Y-99279075D01*
X117037500Y-99311988D01*
X117037500Y-98414364D01*
X117037499Y-98414364D01*
X116824013Y-98471567D01*
X116824007Y-98471570D01*
X116609922Y-98571399D01*
X116609920Y-98571400D01*
X116416426Y-98706886D01*
X116416420Y-98706891D01*
X116249391Y-98873920D01*
X116249390Y-98873922D01*
X116119075Y-99060031D01*
X116064498Y-99103655D01*
X115994999Y-99110848D01*
X115932645Y-99079326D01*
X115915925Y-99060031D01*
X115785609Y-98873922D01*
X115785608Y-98873920D01*
X115618582Y-98706894D01*
X115425078Y-98571399D01*
X115210992Y-98471570D01*
X115210986Y-98471567D01*
X114997500Y-98414364D01*
X114997500Y-99311988D01*
X114940493Y-99279075D01*
X114813326Y-99245000D01*
X114681674Y-99245000D01*
X114554507Y-99279075D01*
X114497500Y-99311988D01*
X114497500Y-98414364D01*
X114497499Y-98414364D01*
X114284013Y-98471567D01*
X114284007Y-98471570D01*
X114069922Y-98571399D01*
X114069920Y-98571400D01*
X113876426Y-98706886D01*
X113876420Y-98706891D01*
X113709391Y-98873920D01*
X113709390Y-98873922D01*
X113579075Y-99060031D01*
X113524498Y-99103655D01*
X113454999Y-99110848D01*
X113392645Y-99079326D01*
X113375925Y-99060031D01*
X113245609Y-98873922D01*
X113245608Y-98873920D01*
X113078582Y-98706894D01*
X112885078Y-98571399D01*
X112670992Y-98471570D01*
X112670986Y-98471567D01*
X112457500Y-98414364D01*
X112457500Y-99311988D01*
X112400493Y-99279075D01*
X112273326Y-99245000D01*
X112141674Y-99245000D01*
X112014507Y-99279075D01*
X111957500Y-99311988D01*
X111957500Y-98414364D01*
X111957499Y-98414364D01*
X111744013Y-98471567D01*
X111744007Y-98471570D01*
X111529922Y-98571399D01*
X111529920Y-98571400D01*
X111336426Y-98706886D01*
X111336420Y-98706891D01*
X111169391Y-98873920D01*
X111169390Y-98873922D01*
X111039075Y-99060031D01*
X110984498Y-99103655D01*
X110914999Y-99110848D01*
X110852645Y-99079326D01*
X110835925Y-99060031D01*
X110705609Y-98873922D01*
X110705608Y-98873920D01*
X110538582Y-98706894D01*
X110345078Y-98571399D01*
X110130992Y-98471570D01*
X110130986Y-98471567D01*
X109917500Y-98414364D01*
X109917500Y-99311988D01*
X109860493Y-99279075D01*
X109733326Y-99245000D01*
X109601674Y-99245000D01*
X109474507Y-99279075D01*
X109417500Y-99311988D01*
X109417500Y-98414364D01*
X109417499Y-98414364D01*
X109204013Y-98471567D01*
X109204007Y-98471570D01*
X108989922Y-98571399D01*
X108989920Y-98571400D01*
X108796426Y-98706886D01*
X108796420Y-98706891D01*
X108629391Y-98873920D01*
X108629390Y-98873922D01*
X108499075Y-99060031D01*
X108444498Y-99103655D01*
X108374999Y-99110848D01*
X108312645Y-99079326D01*
X108295925Y-99060031D01*
X108165609Y-98873922D01*
X108165608Y-98873920D01*
X107998582Y-98706894D01*
X107805078Y-98571399D01*
X107590992Y-98471570D01*
X107590986Y-98471567D01*
X107377500Y-98414364D01*
X107377500Y-99311988D01*
X107320493Y-99279075D01*
X107193326Y-99245000D01*
X107061674Y-99245000D01*
X106934507Y-99279075D01*
X106877500Y-99311988D01*
X106877500Y-98414364D01*
X106877499Y-98414364D01*
X106664013Y-98471567D01*
X106664007Y-98471570D01*
X106449922Y-98571399D01*
X106449920Y-98571400D01*
X106256426Y-98706886D01*
X106256420Y-98706891D01*
X106089391Y-98873920D01*
X106089390Y-98873922D01*
X105959075Y-99060031D01*
X105904498Y-99103655D01*
X105834999Y-99110848D01*
X105772645Y-99079326D01*
X105755925Y-99060031D01*
X105625609Y-98873922D01*
X105625608Y-98873920D01*
X105458582Y-98706894D01*
X105265078Y-98571399D01*
X105050992Y-98471570D01*
X105050986Y-98471567D01*
X104837500Y-98414364D01*
X104837500Y-99311988D01*
X104780493Y-99279075D01*
X104653326Y-99245000D01*
X104521674Y-99245000D01*
X104394507Y-99279075D01*
X104337500Y-99311988D01*
X104337500Y-98414364D01*
X104337499Y-98414364D01*
X104124013Y-98471567D01*
X104124007Y-98471570D01*
X103909922Y-98571399D01*
X103909920Y-98571400D01*
X103716426Y-98706886D01*
X103593977Y-98829335D01*
X103532654Y-98862819D01*
X103462962Y-98857835D01*
X103407029Y-98815963D01*
X103390114Y-98784986D01*
X103340854Y-98652913D01*
X103340850Y-98652906D01*
X103254690Y-98537812D01*
X103254687Y-98537809D01*
X103139593Y-98451649D01*
X103139586Y-98451645D01*
X103004879Y-98401403D01*
X103004872Y-98401401D01*
X102945344Y-98395000D01*
X102297500Y-98395000D01*
X102297500Y-99311988D01*
X102240493Y-99279075D01*
X102113326Y-99245000D01*
X101981674Y-99245000D01*
X101854507Y-99279075D01*
X101797500Y-99311988D01*
X101797500Y-98395000D01*
X101149655Y-98395000D01*
X101090127Y-98401401D01*
X101090120Y-98401403D01*
X100955413Y-98451645D01*
X100955406Y-98451649D01*
X100840312Y-98537809D01*
X100840309Y-98537812D01*
X100754149Y-98652906D01*
X100754145Y-98652913D01*
X100703903Y-98787620D01*
X100703901Y-98787627D01*
X100697500Y-98847155D01*
X100697500Y-99495000D01*
X101614488Y-99495000D01*
X101581575Y-99552007D01*
X101547500Y-99679174D01*
X101547500Y-99810826D01*
X101581575Y-99937993D01*
X101614488Y-99995000D01*
X100697500Y-99995000D01*
X100665681Y-100026819D01*
X100604358Y-100060304D01*
X100534666Y-100055320D01*
X100478733Y-100013448D01*
X100454316Y-99947984D01*
X100454000Y-99939138D01*
X100454000Y-99906172D01*
X100453999Y-99906155D01*
X100447598Y-99846627D01*
X100447596Y-99846620D01*
X100397354Y-99711913D01*
X100397350Y-99711906D01*
X100311191Y-99596814D01*
X100311185Y-99596807D01*
X100254188Y-99554139D01*
X100212318Y-99498205D01*
X100204500Y-99454873D01*
X100204500Y-98921323D01*
X100204499Y-98921321D01*
X100189967Y-98848264D01*
X100189966Y-98848260D01*
X100177321Y-98829335D01*
X100134601Y-98765399D01*
X100051740Y-98710034D01*
X100051739Y-98710033D01*
X100051735Y-98710032D01*
X99978677Y-98695500D01*
X99978674Y-98695500D01*
X99421326Y-98695500D01*
X99421323Y-98695500D01*
X99348264Y-98710032D01*
X99348260Y-98710034D01*
X99265401Y-98765397D01*
X99256766Y-98774033D01*
X99255990Y-98773257D01*
X99211796Y-98810195D01*
X99162303Y-98820500D01*
X98629659Y-98820500D01*
X98562620Y-98800815D01*
X98520826Y-98755926D01*
X98513216Y-98741989D01*
X98489294Y-98710033D01*
X98354593Y-98530092D01*
X98354577Y-98530074D01*
X98167425Y-98342922D01*
X98167407Y-98342906D01*
X97955513Y-98184285D01*
X97955505Y-98184280D01*
X97943696Y-98177832D01*
X97894291Y-98128427D01*
X97879439Y-98060154D01*
X97903856Y-97994689D01*
X97959790Y-97952818D01*
X98003123Y-97945000D01*
X123841877Y-97945000D01*
X123908916Y-97964685D01*
X123954671Y-98017489D01*
X123964615Y-98086647D01*
X123935590Y-98150203D01*
X123901304Y-98177832D01*
X123889494Y-98184280D01*
X123889486Y-98184285D01*
X123677592Y-98342906D01*
X123677574Y-98342922D01*
X123490422Y-98530074D01*
X123490406Y-98530092D01*
X123331785Y-98741986D01*
X123331784Y-98741989D01*
X123324174Y-98755926D01*
X123274769Y-98805332D01*
X123215341Y-98820500D01*
X122637697Y-98820500D01*
X122570658Y-98800815D01*
X122543313Y-98773953D01*
X122543234Y-98774033D01*
X122534603Y-98765402D01*
X122534601Y-98765399D01*
X122451740Y-98710034D01*
X122451738Y-98710033D01*
X122451735Y-98710032D01*
X122378677Y-98695500D01*
X122378674Y-98695500D01*
X121821326Y-98695500D01*
X121821323Y-98695500D01*
X121748264Y-98710032D01*
X121748260Y-98710033D01*
X121665399Y-98765399D01*
X121610033Y-98848260D01*
X121610032Y-98848264D01*
X121595500Y-98921321D01*
X121595500Y-99454873D01*
X121575815Y-99521912D01*
X121545812Y-99554139D01*
X121488814Y-99596807D01*
X121488808Y-99596814D01*
X121402649Y-99711906D01*
X121402645Y-99711913D01*
X121352403Y-99846620D01*
X121352401Y-99846626D01*
X121347645Y-99890864D01*
X121325565Y-99944166D01*
X121340094Y-99954000D01*
X122857632Y-99954000D01*
X122910950Y-99924885D01*
X122980642Y-99929869D01*
X123036576Y-99971739D01*
X123058476Y-100019692D01*
X123110550Y-100259069D01*
X123112423Y-100267678D01*
X123154000Y-100379151D01*
X123204926Y-100515690D01*
X123204928Y-100515694D01*
X123331780Y-100748005D01*
X123331785Y-100748013D01*
X123490406Y-100959907D01*
X123490422Y-100959925D01*
X123677574Y-101147077D01*
X123677592Y-101147093D01*
X123889486Y-101305714D01*
X123889494Y-101305719D01*
X124121805Y-101432571D01*
X124121809Y-101432573D01*
X124121811Y-101432574D01*
X124369822Y-101525077D01*
X124369825Y-101525077D01*
X124369826Y-101525078D01*
X124565052Y-101567546D01*
X124628474Y-101581343D01*
X124872160Y-101598772D01*
X124892499Y-101600227D01*
X124892500Y-101600227D01*
X124892501Y-101600227D01*
X124911385Y-101598876D01*
X125156526Y-101581343D01*
X125415178Y-101525077D01*
X125663189Y-101432574D01*
X125895511Y-101305716D01*
X126107415Y-101147087D01*
X126294587Y-100959915D01*
X126453216Y-100748011D01*
X126580074Y-100515689D01*
X126592318Y-100482860D01*
X126634188Y-100426927D01*
X126699653Y-100402509D01*
X126767926Y-100417360D01*
X126817332Y-100466765D01*
X126832500Y-100526193D01*
X126832500Y-105941044D01*
X126812815Y-106008083D01*
X126760011Y-106053838D01*
X126690853Y-106063782D01*
X126627297Y-106034757D01*
X126605482Y-106008336D01*
X126605421Y-106008384D01*
X126604102Y-106006666D01*
X126601116Y-106003049D01*
X126600475Y-106001938D01*
X126530562Y-105932025D01*
X123412209Y-102813672D01*
X123378724Y-102752349D01*
X123383166Y-102690234D01*
X123381513Y-102689764D01*
X123393487Y-102647679D01*
X123438897Y-102488083D01*
X123457715Y-102285000D01*
X123438897Y-102081917D01*
X123383082Y-101885750D01*
X123292173Y-101703179D01*
X123169264Y-101540421D01*
X123169262Y-101540418D01*
X123018541Y-101403019D01*
X123018539Y-101403017D01*
X122845142Y-101295655D01*
X122845135Y-101295651D01*
X122730821Y-101251366D01*
X122654956Y-101221976D01*
X122474846Y-101188307D01*
X122412566Y-101156640D01*
X122388541Y-101115560D01*
X122355448Y-101159767D01*
X122289984Y-101184184D01*
X122281138Y-101184500D01*
X122250524Y-101184500D01*
X122050044Y-101221976D01*
X122050041Y-101221976D01*
X122050041Y-101221977D01*
X121859864Y-101295651D01*
X121859857Y-101295655D01*
X121686460Y-101403017D01*
X121686458Y-101403019D01*
X121535737Y-101540418D01*
X121412827Y-101703178D01*
X121321922Y-101885739D01*
X121321917Y-101885752D01*
X121266102Y-102081917D01*
X121247285Y-102284999D01*
X121247285Y-102285000D01*
X121266102Y-102488082D01*
X121321917Y-102684247D01*
X121321922Y-102684260D01*
X121412827Y-102866821D01*
X121535737Y-103029581D01*
X121686458Y-103166980D01*
X121686460Y-103166982D01*
X121785641Y-103228392D01*
X121859863Y-103274348D01*
X122050044Y-103348024D01*
X122250524Y-103385500D01*
X122250526Y-103385500D01*
X122454474Y-103385500D01*
X122454476Y-103385500D01*
X122654956Y-103348024D01*
X122745056Y-103313118D01*
X122814674Y-103307256D01*
X122876414Y-103339965D01*
X122877527Y-103341064D01*
X125888181Y-106351718D01*
X125921666Y-106413041D01*
X125924500Y-106439399D01*
X125924500Y-107693100D01*
X125904815Y-107760139D01*
X125888181Y-107780781D01*
X125665872Y-108003089D01*
X125604549Y-108036574D01*
X125548884Y-108032593D01*
X125555942Y-108076143D01*
X125528057Y-108140207D01*
X125520594Y-108148368D01*
X125380780Y-108288182D01*
X125319460Y-108321666D01*
X125293101Y-108324500D01*
X116650563Y-108324500D01*
X116612487Y-108334702D01*
X116612487Y-108334703D01*
X116555062Y-108350090D01*
X116555061Y-108350090D01*
X116555059Y-108350091D01*
X116469436Y-108399526D01*
X116469437Y-108399526D01*
X116429507Y-108439456D01*
X116397958Y-108471005D01*
X116336634Y-108504489D01*
X116266943Y-108499504D01*
X116211009Y-108457633D01*
X116193142Y-108418334D01*
X116191811Y-108418776D01*
X116135453Y-108248699D01*
X116135448Y-108248688D01*
X116044947Y-108101965D01*
X116044944Y-108101961D01*
X115923038Y-107980055D01*
X115923034Y-107980052D01*
X115776311Y-107889551D01*
X115776300Y-107889546D01*
X115612652Y-107835319D01*
X115511654Y-107825000D01*
X115412500Y-107825000D01*
X115412500Y-108676000D01*
X115392815Y-108743039D01*
X115340011Y-108788794D01*
X115288500Y-108800000D01*
X115036500Y-108800000D01*
X114969461Y-108780315D01*
X114923706Y-108727511D01*
X114912500Y-108676000D01*
X114912500Y-107824999D01*
X114824501Y-107825000D01*
X114757461Y-107805316D01*
X114711706Y-107752512D01*
X114700500Y-107701000D01*
X114700500Y-107150323D01*
X114700499Y-107150321D01*
X114685967Y-107077264D01*
X114685966Y-107077260D01*
X114630601Y-106994399D01*
X114575235Y-106957405D01*
X114547739Y-106939033D01*
X114547735Y-106939032D01*
X114474677Y-106924500D01*
X114474674Y-106924500D01*
X113925326Y-106924500D01*
X113925323Y-106924500D01*
X113852264Y-106939032D01*
X113852260Y-106939034D01*
X113769401Y-106994397D01*
X113760766Y-107003033D01*
X113759990Y-107002257D01*
X113715796Y-107039195D01*
X113666303Y-107049500D01*
X113627346Y-107049500D01*
X113560307Y-107029815D01*
X113514552Y-106977011D01*
X113504608Y-106907853D01*
X113533633Y-106844297D01*
X113539665Y-106837819D01*
X113765665Y-106611819D01*
X113826988Y-106578334D01*
X113853346Y-106575500D01*
X116430601Y-106575500D01*
X116497640Y-106595185D01*
X116518282Y-106611819D01*
X117263181Y-107356718D01*
X117296666Y-107418041D01*
X117299500Y-107444399D01*
X117299500Y-107637178D01*
X117314032Y-107710235D01*
X117314033Y-107710239D01*
X117314034Y-107710240D01*
X117369399Y-107793101D01*
X117432584Y-107835319D01*
X117452260Y-107848466D01*
X117452264Y-107848467D01*
X117525321Y-107862999D01*
X117525324Y-107863000D01*
X117525326Y-107863000D01*
X118074676Y-107863000D01*
X118074677Y-107862999D01*
X118147740Y-107848466D01*
X118230601Y-107793101D01*
X118285966Y-107710240D01*
X118300500Y-107637174D01*
X118300500Y-107087826D01*
X118300500Y-107087823D01*
X118300499Y-107087821D01*
X118285967Y-107014764D01*
X118285966Y-107014760D01*
X118273787Y-106996533D01*
X118230601Y-106931899D01*
X118175235Y-106894905D01*
X118147739Y-106876533D01*
X118147735Y-106876532D01*
X118074677Y-106862000D01*
X118074674Y-106862000D01*
X117881899Y-106862000D01*
X117814860Y-106842315D01*
X117794218Y-106825681D01*
X116868063Y-105899526D01*
X116868062Y-105899525D01*
X116782438Y-105850090D01*
X116734686Y-105837295D01*
X116734684Y-105837294D01*
X116734682Y-105837293D01*
X116686936Y-105824500D01*
X116686935Y-105824500D01*
X114145239Y-105824500D01*
X114078200Y-105804815D01*
X114032445Y-105752011D01*
X114022501Y-105682853D01*
X114051526Y-105619297D01*
X114057558Y-105612819D01*
X114058558Y-105611819D01*
X114119881Y-105578334D01*
X114146239Y-105575500D01*
X119358101Y-105575500D01*
X119425140Y-105595185D01*
X119445782Y-105611819D01*
X120868359Y-107034396D01*
X120901844Y-107095719D01*
X120902296Y-107146265D01*
X120899500Y-107160323D01*
X120899500Y-107709678D01*
X120914032Y-107782735D01*
X120914033Y-107782739D01*
X120932405Y-107810235D01*
X120969399Y-107865601D01*
X121040489Y-107913101D01*
X121052260Y-107920966D01*
X121052264Y-107920967D01*
X121125321Y-107935499D01*
X121125324Y-107935500D01*
X121125326Y-107935500D01*
X121674676Y-107935500D01*
X121674677Y-107935499D01*
X121747740Y-107920966D01*
X121830601Y-107865601D01*
X121885966Y-107782740D01*
X121900500Y-107709674D01*
X121900500Y-107160326D01*
X121900500Y-107160323D01*
X121900499Y-107160321D01*
X121885967Y-107087264D01*
X121885966Y-107087260D01*
X121860736Y-107049500D01*
X121830601Y-107004399D01*
X121808433Y-106989587D01*
X121763629Y-106935976D01*
X121757552Y-106918585D01*
X121749910Y-106890062D01*
X121700475Y-106804438D01*
X121630562Y-106734525D01*
X119795563Y-104899526D01*
X119795562Y-104899525D01*
X119709938Y-104850090D01*
X119662186Y-104837295D01*
X119662184Y-104837294D01*
X119662182Y-104837293D01*
X119614436Y-104824500D01*
X119614435Y-104824500D01*
X114438132Y-104824500D01*
X114371093Y-104804815D01*
X114325338Y-104752011D01*
X114315394Y-104682853D01*
X114344419Y-104619297D01*
X114350451Y-104612819D01*
X114351451Y-104611819D01*
X114412774Y-104578334D01*
X114439132Y-104575500D01*
X121493101Y-104575500D01*
X121560140Y-104595185D01*
X121580782Y-104611819D01*
X124463181Y-107494218D01*
X124496666Y-107555541D01*
X124499500Y-107581899D01*
X124499500Y-107757178D01*
X124514032Y-107830235D01*
X124514033Y-107830239D01*
X124525726Y-107847739D01*
X124569399Y-107913101D01*
X124635981Y-107957589D01*
X124652260Y-107968466D01*
X124652264Y-107968467D01*
X124725321Y-107982999D01*
X124725324Y-107983000D01*
X124725326Y-107983000D01*
X125274676Y-107983000D01*
X125274677Y-107982999D01*
X125347735Y-107968467D01*
X125347737Y-107968467D01*
X125347737Y-107968466D01*
X125347740Y-107968466D01*
X125364020Y-107957587D01*
X125430695Y-107936711D01*
X125462396Y-107945407D01*
X125454507Y-107924254D01*
X125469359Y-107855981D01*
X125475085Y-107846524D01*
X125485966Y-107830240D01*
X125500500Y-107757174D01*
X125500500Y-107207826D01*
X125500500Y-107207823D01*
X125500499Y-107207821D01*
X125485967Y-107134764D01*
X125485966Y-107134760D01*
X125454604Y-107087823D01*
X125430601Y-107051899D01*
X125357467Y-107003033D01*
X125347739Y-106996533D01*
X125347735Y-106996532D01*
X125274677Y-106982000D01*
X125274674Y-106982000D01*
X125064399Y-106982000D01*
X124997360Y-106962315D01*
X124976718Y-106945681D01*
X121930563Y-103899526D01*
X121930562Y-103899525D01*
X121844938Y-103850090D01*
X121797186Y-103837295D01*
X121797184Y-103837294D01*
X121797182Y-103837293D01*
X121749436Y-103824500D01*
X121749435Y-103824500D01*
X114281669Y-103824500D01*
X114182797Y-103824500D01*
X114135045Y-103837295D01*
X114135044Y-103837294D01*
X114087296Y-103850089D01*
X114087295Y-103850089D01*
X114001668Y-103899527D01*
X110061984Y-107839210D01*
X110000661Y-107872695D01*
X109930969Y-107867711D01*
X109875036Y-107825839D01*
X109851207Y-107766475D01*
X109836237Y-107643182D01*
X109780220Y-107495477D01*
X109690483Y-107365470D01*
X109572240Y-107260717D01*
X109572238Y-107260716D01*
X109572237Y-107260715D01*
X109432365Y-107187303D01*
X109278986Y-107149500D01*
X109278985Y-107149500D01*
X109121015Y-107149500D01*
X109121014Y-107149500D01*
X108967634Y-107187303D01*
X108827762Y-107260715D01*
X108709516Y-107365471D01*
X108619781Y-107495475D01*
X108619780Y-107495476D01*
X108563763Y-107643180D01*
X108548792Y-107766477D01*
X108521170Y-107830655D01*
X108463236Y-107869711D01*
X108393383Y-107871246D01*
X108338015Y-107839211D01*
X104298330Y-103799526D01*
X104298329Y-103799525D01*
X104212705Y-103750090D01*
X104164953Y-103737295D01*
X104164951Y-103737294D01*
X104164949Y-103737293D01*
X104117203Y-103724500D01*
X104117202Y-103724500D01*
X94149436Y-103724500D01*
X94050564Y-103724500D01*
X94002812Y-103737295D01*
X94002811Y-103737294D01*
X93955063Y-103750089D01*
X93955062Y-103750089D01*
X93869435Y-103799527D01*
X91705783Y-105963181D01*
X91644460Y-105996666D01*
X91618102Y-105999500D01*
X91604913Y-105999500D01*
X91537874Y-105979815D01*
X91492119Y-105927011D01*
X91480917Y-105876476D01*
X91480709Y-105850091D01*
X91464074Y-103737499D01*
X91483230Y-103670311D01*
X91535672Y-103624142D01*
X91604750Y-103613654D01*
X91645694Y-103626730D01*
X91775589Y-103694905D01*
X91852279Y-103713807D01*
X91928968Y-103732709D01*
X91928969Y-103732709D01*
X92086939Y-103732709D01*
X92240319Y-103694905D01*
X92287178Y-103670311D01*
X92380194Y-103621492D01*
X92498437Y-103516739D01*
X92588174Y-103386732D01*
X92644191Y-103239027D01*
X92663232Y-103082209D01*
X92644191Y-102925391D01*
X92588174Y-102777686D01*
X92498437Y-102647679D01*
X92380194Y-102542926D01*
X92380192Y-102542925D01*
X92380191Y-102542924D01*
X92240319Y-102469512D01*
X92086940Y-102431709D01*
X92086939Y-102431709D01*
X91928969Y-102431709D01*
X91928968Y-102431709D01*
X91775588Y-102469512D01*
X91635434Y-102543072D01*
X91566926Y-102556798D01*
X91501872Y-102531305D01*
X91460928Y-102474690D01*
X91453813Y-102434259D01*
X91419449Y-98069975D01*
X91438605Y-98002784D01*
X91491047Y-97956615D01*
X91543445Y-97945000D01*
X95901877Y-97945000D01*
X95968916Y-97964685D01*
G37*
%TD.AperFunction*%
%TA.AperFunction,Conductor*%
G36*
X104121575Y-99552007D02*
G01*
X104087500Y-99679174D01*
X104087500Y-99810826D01*
X104121575Y-99937993D01*
X104154488Y-99995000D01*
X102480512Y-99995000D01*
X102513425Y-99937993D01*
X102547500Y-99810826D01*
X102547500Y-99679174D01*
X102513425Y-99552007D01*
X102480512Y-99495000D01*
X104154488Y-99495000D01*
X104121575Y-99552007D01*
G37*
%TD.AperFunction*%
%TA.AperFunction,Conductor*%
G36*
X106661575Y-99552007D02*
G01*
X106627500Y-99679174D01*
X106627500Y-99810826D01*
X106661575Y-99937993D01*
X106694488Y-99995000D01*
X105020512Y-99995000D01*
X105053425Y-99937993D01*
X105087500Y-99810826D01*
X105087500Y-99679174D01*
X105053425Y-99552007D01*
X105020512Y-99495000D01*
X106694488Y-99495000D01*
X106661575Y-99552007D01*
G37*
%TD.AperFunction*%
%TA.AperFunction,Conductor*%
G36*
X109201575Y-99552007D02*
G01*
X109167500Y-99679174D01*
X109167500Y-99810826D01*
X109201575Y-99937993D01*
X109234488Y-99995000D01*
X107560512Y-99995000D01*
X107593425Y-99937993D01*
X107627500Y-99810826D01*
X107627500Y-99679174D01*
X107593425Y-99552007D01*
X107560512Y-99495000D01*
X109234488Y-99495000D01*
X109201575Y-99552007D01*
G37*
%TD.AperFunction*%
%TA.AperFunction,Conductor*%
G36*
X111741575Y-99552007D02*
G01*
X111707500Y-99679174D01*
X111707500Y-99810826D01*
X111741575Y-99937993D01*
X111774488Y-99995000D01*
X110100512Y-99995000D01*
X110133425Y-99937993D01*
X110167500Y-99810826D01*
X110167500Y-99679174D01*
X110133425Y-99552007D01*
X110100512Y-99495000D01*
X111774488Y-99495000D01*
X111741575Y-99552007D01*
G37*
%TD.AperFunction*%
%TA.AperFunction,Conductor*%
G36*
X114281575Y-99552007D02*
G01*
X114247500Y-99679174D01*
X114247500Y-99810826D01*
X114281575Y-99937993D01*
X114314488Y-99995000D01*
X112640512Y-99995000D01*
X112673425Y-99937993D01*
X112707500Y-99810826D01*
X112707500Y-99679174D01*
X112673425Y-99552007D01*
X112640512Y-99495000D01*
X114314488Y-99495000D01*
X114281575Y-99552007D01*
G37*
%TD.AperFunction*%
%TA.AperFunction,Conductor*%
G36*
X116821575Y-99552007D02*
G01*
X116787500Y-99679174D01*
X116787500Y-99810826D01*
X116821575Y-99937993D01*
X116854488Y-99995000D01*
X115180512Y-99995000D01*
X115213425Y-99937993D01*
X115247500Y-99810826D01*
X115247500Y-99679174D01*
X115213425Y-99552007D01*
X115180512Y-99495000D01*
X116854488Y-99495000D01*
X116821575Y-99552007D01*
G37*
%TD.AperFunction*%
%TA.AperFunction,Conductor*%
G36*
X119361575Y-99552007D02*
G01*
X119327500Y-99679174D01*
X119327500Y-99810826D01*
X119361575Y-99937993D01*
X119394488Y-99995000D01*
X117720512Y-99995000D01*
X117753425Y-99937993D01*
X117787500Y-99810826D01*
X117787500Y-99679174D01*
X117753425Y-99552007D01*
X117720512Y-99495000D01*
X119394488Y-99495000D01*
X119361575Y-99552007D01*
G37*
%TD.AperFunction*%
%TD*%
%TA.AperFunction,Conductor*%
%TO.N,GNDD*%
G36*
X85011593Y-116691158D02*
G01*
X85019161Y-116703342D01*
X85019778Y-116704519D01*
X85019780Y-116704523D01*
X85047681Y-116744945D01*
X85109515Y-116834528D01*
X85109516Y-116834529D01*
X85109517Y-116834530D01*
X85227760Y-116939283D01*
X85367635Y-117012696D01*
X85427309Y-117027404D01*
X85479285Y-117059687D01*
X85502358Y-117116355D01*
X85499245Y-117149150D01*
X85466864Y-117270000D01*
X86364488Y-117270000D01*
X86331575Y-117327007D01*
X86297500Y-117454174D01*
X86297500Y-117585826D01*
X86331575Y-117712993D01*
X86364488Y-117770000D01*
X85466864Y-117770000D01*
X85524069Y-117983489D01*
X85623899Y-118197577D01*
X85759386Y-118391073D01*
X85926426Y-118558113D01*
X86119923Y-118693601D01*
X86119925Y-118693602D01*
X86134235Y-118700275D01*
X86178984Y-118742003D01*
X86190659Y-118802064D01*
X86164802Y-118857517D01*
X86134237Y-118879724D01*
X86119928Y-118886396D01*
X86119924Y-118886398D01*
X85926426Y-119021886D01*
X85759386Y-119188926D01*
X85623898Y-119382424D01*
X85623894Y-119382432D01*
X85524070Y-119596505D01*
X85466864Y-119810000D01*
X86364488Y-119810000D01*
X86331575Y-119867007D01*
X86297500Y-119994174D01*
X86297500Y-120125826D01*
X86331575Y-120252993D01*
X86364488Y-120310000D01*
X85466864Y-120310000D01*
X85524069Y-120523489D01*
X85623899Y-120737577D01*
X85759386Y-120931073D01*
X85926426Y-121098113D01*
X86119922Y-121233600D01*
X86334009Y-121333430D01*
X86447018Y-121363711D01*
X86498332Y-121397035D01*
X86520259Y-121454156D01*
X86504424Y-121513257D01*
X86457157Y-121551653D01*
X86304863Y-121610652D01*
X86197922Y-121676867D01*
X86131459Y-121718019D01*
X85980737Y-121855420D01*
X85857828Y-122018177D01*
X85857823Y-122018186D01*
X85766919Y-122200747D01*
X85766918Y-122200750D01*
X85711103Y-122396917D01*
X85692285Y-122600000D01*
X85711103Y-122803083D01*
X85766918Y-122999250D01*
X85857827Y-123181821D01*
X85980736Y-123344579D01*
X86131459Y-123481981D01*
X86304863Y-123589348D01*
X86495044Y-123663024D01*
X86695524Y-123700500D01*
X86899476Y-123700500D01*
X87099956Y-123663024D01*
X87290137Y-123589348D01*
X87463541Y-123481981D01*
X87614264Y-123344579D01*
X87737173Y-123181821D01*
X87828082Y-122999250D01*
X87883897Y-122803083D01*
X87902715Y-122600000D01*
X87883897Y-122396917D01*
X87828082Y-122200750D01*
X87737173Y-122018179D01*
X87614264Y-121855421D01*
X87463541Y-121718019D01*
X87290137Y-121610652D01*
X87137840Y-121551652D01*
X87090410Y-121513001D01*
X87074756Y-121453852D01*
X87096859Y-121396799D01*
X87147981Y-121363711D01*
X87260990Y-121333430D01*
X87475077Y-121233600D01*
X87668573Y-121098113D01*
X87835613Y-120931073D01*
X87971100Y-120737577D01*
X88070930Y-120523490D01*
X88101485Y-120409458D01*
X88134809Y-120358144D01*
X88191930Y-120336217D01*
X88251031Y-120352052D01*
X88289536Y-120399602D01*
X88292329Y-120407978D01*
X88306918Y-120459250D01*
X88397827Y-120641821D01*
X88520736Y-120804579D01*
X88671459Y-120941981D01*
X88844863Y-121049348D01*
X89035044Y-121123024D01*
X89235524Y-121160500D01*
X89439475Y-121160500D01*
X89439476Y-121160500D01*
X89484169Y-121152145D01*
X89544844Y-121160037D01*
X89572365Y-121179455D01*
X89723406Y-121330496D01*
X89751183Y-121385013D01*
X89741612Y-121445445D01*
X89698347Y-121488710D01*
X89653402Y-121499500D01*
X88462826Y-121499500D01*
X88462825Y-121499500D01*
X88462815Y-121499501D01*
X88389763Y-121514033D01*
X88389757Y-121514035D01*
X88306900Y-121569397D01*
X88306897Y-121569400D01*
X88251535Y-121652257D01*
X88251533Y-121652263D01*
X88237001Y-121725315D01*
X88237000Y-121725327D01*
X88237000Y-123474672D01*
X88237001Y-123474684D01*
X88251533Y-123547736D01*
X88251535Y-123547742D01*
X88306897Y-123630599D01*
X88306900Y-123630602D01*
X88355424Y-123663024D01*
X88389760Y-123685966D01*
X88445308Y-123697015D01*
X88462815Y-123700498D01*
X88462820Y-123700498D01*
X88462826Y-123700500D01*
X88462827Y-123700500D01*
X90212173Y-123700500D01*
X90212174Y-123700500D01*
X90285240Y-123685966D01*
X90368101Y-123630601D01*
X90423466Y-123547740D01*
X90438000Y-123474674D01*
X90438000Y-123074500D01*
X90456907Y-123016309D01*
X90506407Y-122980345D01*
X90537000Y-122975500D01*
X93949436Y-122975500D01*
X94005434Y-122960495D01*
X94005435Y-122960495D01*
X94044934Y-122949911D01*
X94044933Y-122949911D01*
X94044938Y-122949910D01*
X94130562Y-122900475D01*
X94179301Y-122851736D01*
X94200476Y-122830562D01*
X94996206Y-122034830D01*
X95050723Y-122007052D01*
X95111155Y-122016623D01*
X95154420Y-122059888D01*
X95163991Y-122120320D01*
X95162948Y-122125877D01*
X95134742Y-122255541D01*
X95120907Y-122319141D01*
X95116156Y-122340979D01*
X95097273Y-122605000D01*
X95116156Y-122869020D01*
X95116156Y-122869023D01*
X95116157Y-122869026D01*
X95159549Y-123068495D01*
X95172424Y-123127682D01*
X95264926Y-123375690D01*
X95264927Y-123375692D01*
X95391784Y-123608011D01*
X95391783Y-123608011D01*
X95550408Y-123819909D01*
X95550410Y-123819911D01*
X95550413Y-123819915D01*
X95737585Y-124007087D01*
X95737588Y-124007089D01*
X95737590Y-124007091D01*
X95949488Y-124165716D01*
X96047272Y-124219110D01*
X96089283Y-124263592D01*
X96097125Y-124324273D01*
X96067802Y-124377974D01*
X96012514Y-124404184D01*
X95999826Y-124405000D01*
X84931500Y-124405000D01*
X84873309Y-124386093D01*
X84837345Y-124336593D01*
X84832500Y-124306000D01*
X84832500Y-116749349D01*
X84851407Y-116691158D01*
X84900907Y-116655194D01*
X84962093Y-116655194D01*
X85011593Y-116691158D01*
G37*
%TD.AperFunction*%
%TA.AperFunction,Conductor*%
G36*
X126807070Y-108031909D02*
G01*
X126831957Y-108087804D01*
X126832500Y-108098155D01*
X126832500Y-121962371D01*
X126813593Y-122020562D01*
X126764093Y-122056526D01*
X126702907Y-122056526D01*
X126653407Y-122020562D01*
X126640742Y-121996968D01*
X126603981Y-121898408D01*
X126580074Y-121834311D01*
X126571125Y-121817923D01*
X126511753Y-121709191D01*
X126453216Y-121601989D01*
X126453215Y-121601988D01*
X126453216Y-121601988D01*
X126294591Y-121390090D01*
X126294589Y-121390088D01*
X126294587Y-121390085D01*
X126107415Y-121202913D01*
X126107411Y-121202910D01*
X126107409Y-121202908D01*
X125895511Y-121044283D01*
X125663192Y-120917427D01*
X125663190Y-120917426D01*
X125415181Y-120824924D01*
X125415183Y-120824924D01*
X125353188Y-120811438D01*
X125156526Y-120768657D01*
X125156523Y-120768656D01*
X125156520Y-120768656D01*
X124892500Y-120749773D01*
X124628479Y-120768656D01*
X124369817Y-120824924D01*
X124121809Y-120917426D01*
X124121807Y-120917427D01*
X123889488Y-121044283D01*
X123677590Y-121202908D01*
X123490408Y-121390090D01*
X123331783Y-121601988D01*
X123204927Y-121834307D01*
X123204926Y-121834309D01*
X123145758Y-121992946D01*
X123107707Y-122040860D01*
X123048760Y-122057258D01*
X122991432Y-122035876D01*
X122957622Y-121984881D01*
X122954000Y-121958349D01*
X122954000Y-121798175D01*
X122947598Y-121738629D01*
X122947596Y-121738618D01*
X122897353Y-121603911D01*
X122897352Y-121603909D01*
X122811192Y-121488815D01*
X122811184Y-121488807D01*
X122696090Y-121402647D01*
X122696088Y-121402646D01*
X122561381Y-121352403D01*
X122561370Y-121352401D01*
X122501824Y-121346000D01*
X122450001Y-121346000D01*
X122450000Y-121346001D01*
X122450000Y-122001000D01*
X122431093Y-122059191D01*
X122381593Y-122095155D01*
X122351000Y-122100000D01*
X122200001Y-122100000D01*
X122200000Y-122100001D01*
X122200000Y-122251000D01*
X122181093Y-122309191D01*
X122131593Y-122345155D01*
X122101000Y-122350000D01*
X121446001Y-122350000D01*
X121446000Y-122350001D01*
X121446000Y-122401824D01*
X121445999Y-122401824D01*
X121452401Y-122461370D01*
X121452403Y-122461381D01*
X121502646Y-122596088D01*
X121502647Y-122596090D01*
X121588807Y-122711184D01*
X121588814Y-122711191D01*
X121655828Y-122761357D01*
X121691082Y-122811366D01*
X121695500Y-122840611D01*
X121695500Y-123378672D01*
X121695501Y-123378684D01*
X121710033Y-123451736D01*
X121710035Y-123451742D01*
X121765397Y-123534599D01*
X121765399Y-123534601D01*
X121848260Y-123589966D01*
X121903808Y-123601015D01*
X121921315Y-123604498D01*
X121921320Y-123604498D01*
X121921326Y-123604500D01*
X121921327Y-123604500D01*
X122478673Y-123604500D01*
X122478674Y-123604500D01*
X122551740Y-123589966D01*
X122551746Y-123589961D01*
X122560752Y-123586233D01*
X122561565Y-123588196D01*
X122603422Y-123575500D01*
X123257890Y-123575500D01*
X123316081Y-123594407D01*
X123337143Y-123615170D01*
X123490413Y-123819915D01*
X123677585Y-124007087D01*
X123677588Y-124007089D01*
X123677590Y-124007091D01*
X123889488Y-124165716D01*
X123987272Y-124219110D01*
X124029283Y-124263592D01*
X124037125Y-124324273D01*
X124007802Y-124377974D01*
X123952514Y-124404184D01*
X123939826Y-124405000D01*
X97905174Y-124405000D01*
X97846983Y-124386093D01*
X97811019Y-124336593D01*
X97811019Y-124275407D01*
X97846983Y-124225907D01*
X97857728Y-124219110D01*
X97955511Y-124165716D01*
X97976628Y-124149908D01*
X98167415Y-124007087D01*
X98354587Y-123819915D01*
X98513216Y-123608011D01*
X98640074Y-123375689D01*
X98732577Y-123127678D01*
X98747635Y-123058455D01*
X98778480Y-123005614D01*
X98834494Y-122980994D01*
X98844373Y-122980500D01*
X99105715Y-122980500D01*
X99143598Y-122988035D01*
X99148258Y-122989964D01*
X99148260Y-122989966D01*
X99185811Y-122997435D01*
X99221315Y-123004498D01*
X99221320Y-123004498D01*
X99221326Y-123004500D01*
X99221327Y-123004500D01*
X99778673Y-123004500D01*
X99778674Y-123004500D01*
X99851740Y-122989966D01*
X99934601Y-122934601D01*
X99989966Y-122851740D01*
X100004500Y-122778674D01*
X100004500Y-122240611D01*
X100023407Y-122182420D01*
X100044170Y-122161358D01*
X100102766Y-122117492D01*
X100160681Y-122097755D01*
X100219136Y-122115829D01*
X100232100Y-122126741D01*
X100395504Y-122290145D01*
X100423281Y-122344662D01*
X100424500Y-122360149D01*
X100424500Y-123849435D01*
X100447067Y-123933657D01*
X100450091Y-123944942D01*
X100499523Y-124030559D01*
X100499525Y-124030562D01*
X100569438Y-124100475D01*
X100569440Y-124100476D01*
X100655058Y-124149908D01*
X100655056Y-124149908D01*
X100655060Y-124149909D01*
X100655062Y-124149910D01*
X100750565Y-124175500D01*
X100750567Y-124175500D01*
X117949436Y-124175500D01*
X117997186Y-124162705D01*
X117997187Y-124162705D01*
X118044934Y-124149911D01*
X118044933Y-124149911D01*
X118044938Y-124149910D01*
X118130562Y-124100475D01*
X118200475Y-124030562D01*
X118702171Y-123528866D01*
X118756688Y-123501089D01*
X118817120Y-123510660D01*
X118842179Y-123528866D01*
X118956426Y-123643113D01*
X119149922Y-123778600D01*
X119364009Y-123878430D01*
X119577500Y-123935634D01*
X119577500Y-123038012D01*
X119634507Y-123070925D01*
X119761674Y-123105000D01*
X119893326Y-123105000D01*
X120020493Y-123070925D01*
X120077500Y-123038012D01*
X120077500Y-123935633D01*
X120290990Y-123878430D01*
X120505077Y-123778600D01*
X120698573Y-123643113D01*
X120865613Y-123476073D01*
X121001100Y-123282577D01*
X121100930Y-123068489D01*
X121158136Y-122855000D01*
X120260512Y-122855000D01*
X120293425Y-122797993D01*
X120327500Y-122670826D01*
X120327500Y-122539174D01*
X120293425Y-122412007D01*
X120260512Y-122355000D01*
X121158136Y-122355000D01*
X121100929Y-122141505D01*
X121001105Y-121927432D01*
X121001101Y-121927424D01*
X120910600Y-121798175D01*
X121446000Y-121798175D01*
X121446000Y-121849999D01*
X121446001Y-121850000D01*
X121949999Y-121850000D01*
X121950000Y-121849999D01*
X121950000Y-121346001D01*
X121949999Y-121346000D01*
X121898176Y-121346000D01*
X121838629Y-121352401D01*
X121838618Y-121352403D01*
X121703911Y-121402646D01*
X121703909Y-121402647D01*
X121588815Y-121488807D01*
X121588807Y-121488815D01*
X121502647Y-121603909D01*
X121502646Y-121603911D01*
X121452403Y-121738618D01*
X121452401Y-121738629D01*
X121446000Y-121798175D01*
X120910600Y-121798175D01*
X120865613Y-121733926D01*
X120698573Y-121566886D01*
X120505077Y-121431399D01*
X120290989Y-121331569D01*
X120077500Y-121274364D01*
X120077500Y-122171988D01*
X120020493Y-122139075D01*
X119893326Y-122105000D01*
X119761674Y-122105000D01*
X119634507Y-122139075D01*
X119577500Y-122171988D01*
X119577500Y-121274364D01*
X119364005Y-121331570D01*
X119149932Y-121431394D01*
X119149924Y-121431398D01*
X118993784Y-121540728D01*
X118935272Y-121558617D01*
X118877420Y-121538697D01*
X118842326Y-121488576D01*
X118838000Y-121459632D01*
X118838000Y-116913064D01*
X118834650Y-116900564D01*
X118834649Y-116900561D01*
X118834627Y-116900478D01*
X118819246Y-116843076D01*
X118812410Y-116817562D01*
X118762975Y-116731938D01*
X118728362Y-116697325D01*
X118693062Y-116662024D01*
X118693062Y-116662025D01*
X117775909Y-115744872D01*
X117753052Y-115700012D01*
X119000000Y-115700012D01*
X119000000Y-115849999D01*
X119000001Y-115850000D01*
X119949999Y-115850000D01*
X119950000Y-115849999D01*
X119950000Y-115000001D01*
X120450000Y-115000001D01*
X120450000Y-115849999D01*
X120450001Y-115850000D01*
X121399998Y-115850000D01*
X121399999Y-115849999D01*
X121399999Y-115700013D01*
X121389507Y-115597312D01*
X121389504Y-115597300D01*
X121334356Y-115430875D01*
X121242319Y-115281659D01*
X121118340Y-115157680D01*
X120969124Y-115065643D01*
X120802693Y-115010493D01*
X120699987Y-115000000D01*
X120450001Y-115000000D01*
X120450000Y-115000001D01*
X119950000Y-115000001D01*
X119949999Y-115000000D01*
X119700013Y-115000000D01*
X119597312Y-115010492D01*
X119597300Y-115010495D01*
X119430875Y-115065643D01*
X119281659Y-115157680D01*
X119157680Y-115281659D01*
X119065643Y-115430875D01*
X119010493Y-115597306D01*
X119000000Y-115700012D01*
X117753052Y-115700012D01*
X117748132Y-115690355D01*
X117747635Y-115662940D01*
X117755278Y-115600000D01*
X117754425Y-115592978D01*
X117736237Y-115443183D01*
X117736237Y-115443182D01*
X117680220Y-115295477D01*
X117635025Y-115230000D01*
X117590484Y-115165471D01*
X117582696Y-115158571D01*
X117472240Y-115060717D01*
X117398194Y-115021854D01*
X117332364Y-114987303D01*
X117178987Y-114949500D01*
X117178985Y-114949500D01*
X117021015Y-114949500D01*
X117021012Y-114949500D01*
X116867635Y-114987303D01*
X116727758Y-115060718D01*
X116609515Y-115165471D01*
X116519780Y-115295476D01*
X116463763Y-115443182D01*
X116463762Y-115443183D01*
X116444722Y-115599998D01*
X116444722Y-115600001D01*
X116463762Y-115756816D01*
X116463763Y-115756818D01*
X116507413Y-115871913D01*
X116519780Y-115904523D01*
X116609515Y-116034528D01*
X116609516Y-116034529D01*
X116609517Y-116034530D01*
X116727760Y-116139283D01*
X116867635Y-116212696D01*
X117021015Y-116250500D01*
X117021018Y-116250500D01*
X117178455Y-116250500D01*
X117236646Y-116269407D01*
X117248459Y-116279496D01*
X118058004Y-117089041D01*
X118085781Y-117143558D01*
X118087000Y-117159045D01*
X118087000Y-121627914D01*
X118068093Y-121686105D01*
X118018593Y-121722069D01*
X117957407Y-121722069D01*
X117935885Y-121712087D01*
X117780137Y-121615652D01*
X117589956Y-121541976D01*
X117589955Y-121541975D01*
X117589953Y-121541975D01*
X117389476Y-121504500D01*
X117185524Y-121504500D01*
X116985044Y-121541975D01*
X116879756Y-121582764D01*
X116818665Y-121586154D01*
X116773990Y-121560453D01*
X114824747Y-119611210D01*
X114796970Y-119556693D01*
X114795751Y-119541206D01*
X114795751Y-114499997D01*
X115294353Y-114499997D01*
X115294353Y-114500002D01*
X115314834Y-114642456D01*
X115361057Y-114743668D01*
X115374623Y-114773373D01*
X115466463Y-114879363D01*
X115468873Y-114882144D01*
X115589942Y-114959950D01*
X115589947Y-114959953D01*
X115683094Y-114987303D01*
X115728035Y-115000499D01*
X115728036Y-115000499D01*
X115728039Y-115000500D01*
X115728041Y-115000500D01*
X115871959Y-115000500D01*
X115871961Y-115000500D01*
X116010053Y-114959953D01*
X116131128Y-114882143D01*
X116225377Y-114773373D01*
X116285165Y-114642457D01*
X116296394Y-114564354D01*
X116305647Y-114500002D01*
X116305647Y-114499997D01*
X116285165Y-114357543D01*
X116273281Y-114331522D01*
X116225377Y-114226627D01*
X116131128Y-114117857D01*
X116131127Y-114117856D01*
X116131126Y-114117855D01*
X116010057Y-114040049D01*
X116010054Y-114040047D01*
X116010053Y-114040047D01*
X116010050Y-114040046D01*
X115871964Y-113999500D01*
X115871961Y-113999500D01*
X115728039Y-113999500D01*
X115728035Y-113999500D01*
X115589949Y-114040046D01*
X115589942Y-114040049D01*
X115468873Y-114117855D01*
X115374622Y-114226628D01*
X115314834Y-114357543D01*
X115294353Y-114499997D01*
X114795751Y-114499997D01*
X114795751Y-113747324D01*
X114814658Y-113689133D01*
X114824736Y-113677332D01*
X114986152Y-113515916D01*
X115043359Y-113437179D01*
X115083542Y-113313510D01*
X115083542Y-113183477D01*
X115072665Y-113150000D01*
X115620069Y-113150000D01*
X115622832Y-113185121D01*
X115622834Y-113185127D01*
X115667595Y-113339195D01*
X115667595Y-113339196D01*
X115749261Y-113477285D01*
X115862714Y-113590738D01*
X116000804Y-113672404D01*
X116139999Y-113712844D01*
X116140000Y-113712844D01*
X116140000Y-113150001D01*
X116139999Y-113150000D01*
X115620069Y-113150000D01*
X115072665Y-113150000D01*
X115043359Y-113059808D01*
X115029168Y-113040276D01*
X114986157Y-112981075D01*
X114986152Y-112981069D01*
X114661157Y-112656076D01*
X114582420Y-112598869D01*
X114561855Y-112592187D01*
X114458751Y-112558686D01*
X114337550Y-112558686D01*
X114279359Y-112539779D01*
X114243395Y-112490279D01*
X114238550Y-112459686D01*
X114238550Y-112338487D01*
X114238550Y-112338485D01*
X114198367Y-112214816D01*
X114180337Y-112190000D01*
X114149695Y-112147824D01*
X115599999Y-112147824D01*
X115606401Y-112207370D01*
X115606403Y-112207381D01*
X115656645Y-112342086D01*
X115662405Y-112349781D01*
X115682140Y-112407696D01*
X115669596Y-112454879D01*
X115670070Y-112455084D01*
X115668701Y-112458246D01*
X115668371Y-112459491D01*
X115667596Y-112460800D01*
X115667595Y-112460804D01*
X115622834Y-112614872D01*
X115622832Y-112614878D01*
X115620069Y-112649999D01*
X115620070Y-112650000D01*
X116139999Y-112650000D01*
X116140000Y-112649999D01*
X116140000Y-112074000D01*
X116158907Y-112015809D01*
X116208407Y-111979845D01*
X116239000Y-111975000D01*
X116349999Y-111975000D01*
X116350000Y-111974999D01*
X116350000Y-111850001D01*
X116349999Y-111850000D01*
X115600001Y-111850000D01*
X115600000Y-111850001D01*
X115600000Y-112147824D01*
X115599999Y-112147824D01*
X114149695Y-112147824D01*
X114141165Y-112136083D01*
X114141160Y-112136077D01*
X113816165Y-111811084D01*
X113737428Y-111753877D01*
X113613759Y-111713694D01*
X113483726Y-111713694D01*
X113360057Y-111753877D01*
X113360054Y-111753878D01*
X113281324Y-111811078D01*
X113281318Y-111811083D01*
X113153468Y-111938935D01*
X113098951Y-111966713D01*
X113083464Y-111967932D01*
X112507745Y-111967932D01*
X112449554Y-111949025D01*
X112437742Y-111938936D01*
X111678823Y-111180019D01*
X111678822Y-111180019D01*
X111635629Y-111136826D01*
X111607852Y-111082309D01*
X111617423Y-111021877D01*
X111635627Y-110996821D01*
X111650829Y-110981618D01*
X111705345Y-110953838D01*
X111765777Y-110963408D01*
X111790839Y-110981615D01*
X112160390Y-111351166D01*
X112172222Y-111350391D01*
X112198864Y-111332080D01*
X112260029Y-111333679D01*
X112276486Y-111341266D01*
X112291458Y-111349910D01*
X112339208Y-111362705D01*
X112339209Y-111362705D01*
X112386960Y-111375500D01*
X112386961Y-111375500D01*
X115199436Y-111375500D01*
X115247186Y-111362705D01*
X115247187Y-111362705D01*
X115284844Y-111352614D01*
X115294938Y-111349910D01*
X115380562Y-111300475D01*
X115430998Y-111250038D01*
X115485513Y-111222263D01*
X115545945Y-111231834D01*
X115589210Y-111275099D01*
X115600000Y-111320044D01*
X115600000Y-111349999D01*
X115600001Y-111350000D01*
X116501000Y-111350000D01*
X116559191Y-111368907D01*
X116595155Y-111418407D01*
X116600000Y-111449000D01*
X116600000Y-111599999D01*
X116600001Y-111600000D01*
X116751000Y-111600000D01*
X116809191Y-111618907D01*
X116845155Y-111668407D01*
X116850000Y-111699000D01*
X116850000Y-112606000D01*
X116831093Y-112664191D01*
X116781593Y-112700155D01*
X116751000Y-112705000D01*
X116640001Y-112705000D01*
X116640000Y-112705001D01*
X116640000Y-113735177D01*
X116641943Y-113737942D01*
X116640987Y-113799120D01*
X116637376Y-113808185D01*
X116614833Y-113857545D01*
X116594353Y-113999997D01*
X116594353Y-114000002D01*
X116614834Y-114142456D01*
X116659574Y-114240421D01*
X116674623Y-114273373D01*
X116768872Y-114382143D01*
X116768873Y-114382144D01*
X116836024Y-114425299D01*
X116889947Y-114459953D01*
X116981449Y-114486820D01*
X117028035Y-114500499D01*
X117028036Y-114500499D01*
X117028039Y-114500500D01*
X117028041Y-114500500D01*
X117171959Y-114500500D01*
X117171961Y-114500500D01*
X117310053Y-114459953D01*
X117431128Y-114382143D01*
X117525377Y-114273373D01*
X117585165Y-114142457D01*
X117592967Y-114088190D01*
X117605647Y-114000002D01*
X117605647Y-113999997D01*
X117585165Y-113857543D01*
X117564157Y-113811543D01*
X117525377Y-113726627D01*
X117478393Y-113672404D01*
X117445403Y-113634331D01*
X117421585Y-113577972D01*
X117435444Y-113518376D01*
X117481685Y-113478309D01*
X117520222Y-113470500D01*
X117581578Y-113470500D01*
X117581582Y-113470500D01*
X117656518Y-113459582D01*
X117772102Y-113403076D01*
X117863076Y-113312102D01*
X117919582Y-113196518D01*
X117930500Y-113121582D01*
X117930500Y-112951545D01*
X117949407Y-112893354D01*
X117959496Y-112881541D01*
X118200496Y-112640541D01*
X118255013Y-112612764D01*
X118315445Y-112622335D01*
X118358710Y-112665600D01*
X118369500Y-112710545D01*
X118369500Y-113121582D01*
X118380418Y-113196518D01*
X118436924Y-113312102D01*
X118455320Y-113330498D01*
X118483096Y-113385013D01*
X118473525Y-113445445D01*
X118430260Y-113488710D01*
X118385315Y-113499500D01*
X118328035Y-113499500D01*
X118189949Y-113540046D01*
X118189942Y-113540049D01*
X118068873Y-113617855D01*
X117974622Y-113726628D01*
X117914834Y-113857543D01*
X117894353Y-113999997D01*
X117894353Y-114000002D01*
X117914834Y-114142456D01*
X117959574Y-114240421D01*
X117974623Y-114273373D01*
X118068872Y-114382143D01*
X118068873Y-114382144D01*
X118136024Y-114425299D01*
X118189947Y-114459953D01*
X118281449Y-114486820D01*
X118328035Y-114500499D01*
X118328036Y-114500499D01*
X118328039Y-114500500D01*
X118328041Y-114500500D01*
X118471959Y-114500500D01*
X118471961Y-114500500D01*
X118610053Y-114459953D01*
X118731128Y-114382143D01*
X118825377Y-114273373D01*
X118885165Y-114142457D01*
X118892967Y-114088190D01*
X118905647Y-114000002D01*
X118905647Y-113999997D01*
X118885165Y-113857543D01*
X118864157Y-113811543D01*
X118825377Y-113726627D01*
X118778393Y-113672404D01*
X118745403Y-113634331D01*
X118721585Y-113577972D01*
X118735444Y-113518376D01*
X118781685Y-113478309D01*
X118820222Y-113470500D01*
X118888456Y-113470500D01*
X118946647Y-113489407D01*
X118958459Y-113499496D01*
X119304437Y-113845475D01*
X119390063Y-113894911D01*
X119485564Y-113920500D01*
X119485565Y-113920500D01*
X119485566Y-113920500D01*
X121514435Y-113920500D01*
X121562185Y-113907705D01*
X121609876Y-113894926D01*
X121670977Y-113898127D01*
X121718527Y-113936631D01*
X121734500Y-113990552D01*
X121734500Y-115949314D01*
X121715593Y-116007505D01*
X121705506Y-116019315D01*
X121696926Y-116027895D01*
X121696923Y-116027899D01*
X121662018Y-116099299D01*
X121640418Y-116143482D01*
X121629500Y-116218418D01*
X121629500Y-116561582D01*
X121640418Y-116636518D01*
X121696924Y-116752102D01*
X121774819Y-116829997D01*
X121802595Y-116884512D01*
X121793024Y-116944944D01*
X121774819Y-116970002D01*
X121739319Y-117005503D01*
X121684802Y-117033281D01*
X121669314Y-117034500D01*
X121348053Y-117034500D01*
X121289862Y-117015593D01*
X121253898Y-116966093D01*
X121253898Y-116904907D01*
X121263792Y-116883527D01*
X121334357Y-116769122D01*
X121389506Y-116602693D01*
X121400000Y-116499987D01*
X121400000Y-116350001D01*
X121399999Y-116350000D01*
X119000002Y-116350000D01*
X119000001Y-116350001D01*
X119000001Y-116499986D01*
X119010492Y-116602687D01*
X119010495Y-116602699D01*
X119065643Y-116769124D01*
X119157680Y-116918340D01*
X119281659Y-117042319D01*
X119430874Y-117134356D01*
X119463288Y-117145097D01*
X119512577Y-117181349D01*
X119531145Y-117239649D01*
X119511899Y-117297728D01*
X119491476Y-117318325D01*
X119392458Y-117392450D01*
X119392450Y-117392458D01*
X119306202Y-117507670D01*
X119255910Y-117642511D01*
X119255908Y-117642522D01*
X119249500Y-117702129D01*
X119249500Y-118497866D01*
X119249501Y-118497870D01*
X119255908Y-118557480D01*
X119255909Y-118557485D01*
X119306202Y-118692329D01*
X119387227Y-118800564D01*
X119392454Y-118807546D01*
X119392457Y-118807548D01*
X119392458Y-118807549D01*
X119507670Y-118893797D01*
X119642511Y-118944089D01*
X119642512Y-118944089D01*
X119642517Y-118944091D01*
X119702127Y-118950500D01*
X120697872Y-118950499D01*
X120757483Y-118944091D01*
X120874357Y-118900500D01*
X120892329Y-118893797D01*
X120892329Y-118893796D01*
X120892331Y-118893796D01*
X121007546Y-118807546D01*
X121093796Y-118692331D01*
X121097373Y-118682742D01*
X121144089Y-118557488D01*
X121144090Y-118557485D01*
X121144091Y-118557483D01*
X121150500Y-118497873D01*
X121150499Y-117884499D01*
X121169406Y-117826309D01*
X121218906Y-117790345D01*
X121249499Y-117785500D01*
X121669314Y-117785500D01*
X121727505Y-117804407D01*
X121739317Y-117814496D01*
X121773822Y-117849000D01*
X121787898Y-117863076D01*
X121903482Y-117919582D01*
X121978418Y-117930500D01*
X121978421Y-117930500D01*
X122421578Y-117930500D01*
X122421582Y-117930500D01*
X122496518Y-117919582D01*
X122612102Y-117863076D01*
X122703076Y-117772102D01*
X122759582Y-117656518D01*
X122770500Y-117581582D01*
X122770500Y-117525000D01*
X123787285Y-117525000D01*
X123806103Y-117728083D01*
X123861918Y-117924250D01*
X123952827Y-118106821D01*
X124075736Y-118269579D01*
X124226459Y-118406981D01*
X124399863Y-118514348D01*
X124590044Y-118588024D01*
X124790524Y-118625500D01*
X124994476Y-118625500D01*
X125194956Y-118588024D01*
X125385137Y-118514348D01*
X125558541Y-118406981D01*
X125709264Y-118269579D01*
X125832173Y-118106821D01*
X125923082Y-117924250D01*
X125978897Y-117728083D01*
X125997715Y-117525000D01*
X125978897Y-117321917D01*
X125923082Y-117125750D01*
X125832173Y-116943179D01*
X125709264Y-116780421D01*
X125558541Y-116643019D01*
X125385137Y-116535652D01*
X125194956Y-116461976D01*
X125194955Y-116461975D01*
X125194953Y-116461975D01*
X124994476Y-116424500D01*
X124790524Y-116424500D01*
X124590046Y-116461975D01*
X124538650Y-116481886D01*
X124399863Y-116535652D01*
X124234534Y-116638019D01*
X124226459Y-116643019D01*
X124092104Y-116765500D01*
X124075736Y-116780421D01*
X124037868Y-116830566D01*
X123952828Y-116943177D01*
X123952823Y-116943186D01*
X123861919Y-117125747D01*
X123861918Y-117125750D01*
X123806103Y-117321917D01*
X123787285Y-117525000D01*
X122770500Y-117525000D01*
X122770500Y-117238418D01*
X122759582Y-117163482D01*
X122703076Y-117047898D01*
X122625179Y-116970001D01*
X122597404Y-116915487D01*
X122606975Y-116855055D01*
X122625179Y-116829998D01*
X122660683Y-116794495D01*
X122715200Y-116766719D01*
X122730686Y-116765500D01*
X123536935Y-116765500D01*
X123536936Y-116765500D01*
X123613658Y-116744942D01*
X123632438Y-116739910D01*
X123718062Y-116690475D01*
X123765518Y-116643019D01*
X123787976Y-116620562D01*
X124378989Y-116029547D01*
X124433506Y-116001769D01*
X124484755Y-116007234D01*
X124590044Y-116048024D01*
X124790524Y-116085500D01*
X124994476Y-116085500D01*
X125194956Y-116048024D01*
X125385137Y-115974348D01*
X125558541Y-115866981D01*
X125709264Y-115729579D01*
X125832173Y-115566821D01*
X125923082Y-115384250D01*
X125978897Y-115188083D01*
X125997715Y-114985000D01*
X125978897Y-114781917D01*
X125923082Y-114585750D01*
X125832173Y-114403179D01*
X125709264Y-114240421D01*
X125558541Y-114103019D01*
X125385137Y-113995652D01*
X125232840Y-113936652D01*
X125185410Y-113898001D01*
X125169756Y-113838852D01*
X125191859Y-113781799D01*
X125242981Y-113748711D01*
X125355990Y-113718430D01*
X125570077Y-113618600D01*
X125763573Y-113483113D01*
X125930613Y-113316073D01*
X126066100Y-113122577D01*
X126165930Y-112908489D01*
X126223136Y-112695000D01*
X125325512Y-112695000D01*
X125358425Y-112637993D01*
X125392500Y-112510826D01*
X125392500Y-112379174D01*
X125358425Y-112252007D01*
X125325512Y-112195000D01*
X126223136Y-112195000D01*
X126165929Y-111981505D01*
X126066105Y-111767432D01*
X126066101Y-111767424D01*
X125930613Y-111573926D01*
X125763573Y-111406886D01*
X125570077Y-111271399D01*
X125355989Y-111171569D01*
X125142500Y-111114364D01*
X125142500Y-112011988D01*
X125085493Y-111979075D01*
X124958326Y-111945000D01*
X124826674Y-111945000D01*
X124699507Y-111979075D01*
X124642500Y-112011988D01*
X124642500Y-111114364D01*
X124429005Y-111171570D01*
X124214932Y-111271394D01*
X124214924Y-111271398D01*
X124021426Y-111406886D01*
X123854386Y-111573926D01*
X123718898Y-111767424D01*
X123718894Y-111767432D01*
X123619070Y-111981505D01*
X123561864Y-112195000D01*
X124459488Y-112195000D01*
X124426575Y-112252007D01*
X124392500Y-112379174D01*
X124392500Y-112510826D01*
X124426575Y-112637993D01*
X124459488Y-112695000D01*
X123561864Y-112695000D01*
X123619069Y-112908489D01*
X123691184Y-113063142D01*
X123698640Y-113123871D01*
X123668977Y-113177385D01*
X123613524Y-113203243D01*
X123578983Y-113200415D01*
X123578970Y-113200508D01*
X123577461Y-113200291D01*
X123573575Y-113199973D01*
X123571968Y-113199501D01*
X123571962Y-113199500D01*
X123571961Y-113199500D01*
X123428039Y-113199500D01*
X123428035Y-113199500D01*
X123289949Y-113240046D01*
X123289942Y-113240049D01*
X123168873Y-113317855D01*
X123074622Y-113426628D01*
X123014834Y-113557543D01*
X122994353Y-113699997D01*
X122994353Y-113700002D01*
X123014834Y-113842456D01*
X123072387Y-113968477D01*
X123074623Y-113973373D01*
X123100242Y-114002939D01*
X123168873Y-114082144D01*
X123274461Y-114150001D01*
X123289947Y-114159953D01*
X123365299Y-114182078D01*
X123428035Y-114200499D01*
X123428036Y-114200499D01*
X123428039Y-114200500D01*
X123428041Y-114200500D01*
X123571959Y-114200500D01*
X123571961Y-114200500D01*
X123710053Y-114159953D01*
X123831128Y-114082143D01*
X123925377Y-113973373D01*
X123985165Y-113842457D01*
X123998568Y-113749237D01*
X124005647Y-113700002D01*
X124005647Y-113699998D01*
X124001750Y-113672897D01*
X124012183Y-113612608D01*
X124056060Y-113569965D01*
X124116622Y-113561257D01*
X124156526Y-113577711D01*
X124214922Y-113618600D01*
X124429009Y-113718430D01*
X124542018Y-113748711D01*
X124593332Y-113782035D01*
X124615259Y-113839156D01*
X124599424Y-113898257D01*
X124552157Y-113936653D01*
X124399863Y-113995652D01*
X124257654Y-114083704D01*
X124226459Y-114103019D01*
X124075737Y-114240420D01*
X123952828Y-114403177D01*
X123952823Y-114403186D01*
X123864830Y-114579901D01*
X123861918Y-114585750D01*
X123806103Y-114781917D01*
X123787285Y-114985000D01*
X123806103Y-115188083D01*
X123837372Y-115297980D01*
X123861919Y-115384254D01*
X123863506Y-115387440D01*
X123872519Y-115447958D01*
X123844889Y-115501571D01*
X123360959Y-115985503D01*
X123306442Y-116013281D01*
X123290955Y-116014500D01*
X122730686Y-116014500D01*
X122672495Y-115995593D01*
X122660683Y-115985504D01*
X122612103Y-115936925D01*
X122612099Y-115936922D01*
X122541018Y-115902172D01*
X122497045Y-115859628D01*
X122485500Y-115813232D01*
X122485500Y-113430685D01*
X122504407Y-113372494D01*
X122514490Y-113360687D01*
X122563076Y-113312102D01*
X122619582Y-113196518D01*
X122630500Y-113121582D01*
X122630500Y-112678418D01*
X122619582Y-112603482D01*
X122565559Y-112492978D01*
X122556989Y-112432399D01*
X122585664Y-112378349D01*
X122640633Y-112351476D01*
X122654501Y-112350500D01*
X122724673Y-112350500D01*
X122724674Y-112350500D01*
X122797740Y-112335966D01*
X122880601Y-112280601D01*
X122935966Y-112197740D01*
X122950500Y-112124674D01*
X122950500Y-111075326D01*
X122935966Y-111002260D01*
X122935962Y-111002255D01*
X122932233Y-110993248D01*
X122934248Y-110992413D01*
X122921189Y-110946120D01*
X122933773Y-110907389D01*
X122932233Y-110906752D01*
X122935961Y-110897746D01*
X122935966Y-110897740D01*
X122950500Y-110824674D01*
X122950500Y-110199997D01*
X125394353Y-110199997D01*
X125394353Y-110200002D01*
X125414834Y-110342456D01*
X125472847Y-110469485D01*
X125474623Y-110473373D01*
X125551132Y-110561670D01*
X125568873Y-110582144D01*
X125689942Y-110659950D01*
X125689947Y-110659953D01*
X125796403Y-110691211D01*
X125828035Y-110700499D01*
X125828036Y-110700499D01*
X125828039Y-110700500D01*
X125828041Y-110700500D01*
X125971959Y-110700500D01*
X125971961Y-110700500D01*
X126110053Y-110659953D01*
X126231128Y-110582143D01*
X126325377Y-110473373D01*
X126385165Y-110342457D01*
X126398536Y-110249458D01*
X126405647Y-110200002D01*
X126405647Y-110199997D01*
X126385165Y-110057543D01*
X126374465Y-110034114D01*
X126325377Y-109926627D01*
X126231128Y-109817857D01*
X126231127Y-109817856D01*
X126231126Y-109817855D01*
X126110057Y-109740049D01*
X126110054Y-109740047D01*
X126110053Y-109740047D01*
X126110050Y-109740046D01*
X125971964Y-109699500D01*
X125971961Y-109699500D01*
X125828039Y-109699500D01*
X125828035Y-109699500D01*
X125689949Y-109740046D01*
X125689942Y-109740049D01*
X125568873Y-109817855D01*
X125474622Y-109926628D01*
X125414834Y-110057543D01*
X125394353Y-110199997D01*
X122950500Y-110199997D01*
X122950500Y-109775326D01*
X122935966Y-109702260D01*
X122915308Y-109671342D01*
X122880602Y-109619400D01*
X122880599Y-109619397D01*
X122797742Y-109564035D01*
X122797740Y-109564034D01*
X122797737Y-109564033D01*
X122797736Y-109564033D01*
X122724684Y-109549501D01*
X122724674Y-109549500D01*
X121675326Y-109549500D01*
X121675325Y-109549500D01*
X121675315Y-109549501D01*
X121602263Y-109564033D01*
X121602254Y-109564036D01*
X121555000Y-109595610D01*
X121496112Y-109612218D01*
X121445000Y-109595610D01*
X121397745Y-109564036D01*
X121397740Y-109564034D01*
X121397737Y-109564033D01*
X121397736Y-109564033D01*
X121324684Y-109549501D01*
X121324674Y-109549500D01*
X120275326Y-109549500D01*
X120275325Y-109549500D01*
X120275315Y-109549501D01*
X120202263Y-109564033D01*
X120202254Y-109564036D01*
X120155000Y-109595610D01*
X120096112Y-109612218D01*
X120045000Y-109595610D01*
X119997745Y-109564036D01*
X119997740Y-109564034D01*
X119997737Y-109564033D01*
X119997736Y-109564033D01*
X119924684Y-109549501D01*
X119924674Y-109549500D01*
X118875326Y-109549500D01*
X118875325Y-109549500D01*
X118875315Y-109549501D01*
X118802263Y-109564033D01*
X118802254Y-109564036D01*
X118755000Y-109595610D01*
X118696112Y-109612218D01*
X118645000Y-109595610D01*
X118597745Y-109564036D01*
X118597740Y-109564034D01*
X118597737Y-109564033D01*
X118597736Y-109564033D01*
X118524684Y-109549501D01*
X118524674Y-109549500D01*
X117475326Y-109549500D01*
X117475325Y-109549500D01*
X117475315Y-109549501D01*
X117402263Y-109564033D01*
X117402254Y-109564036D01*
X117355000Y-109595610D01*
X117296112Y-109612218D01*
X117245000Y-109595610D01*
X117197745Y-109564036D01*
X117197740Y-109564034D01*
X117197737Y-109564033D01*
X117197736Y-109564033D01*
X117124684Y-109549501D01*
X117124674Y-109549500D01*
X117124673Y-109549500D01*
X116620545Y-109549500D01*
X116562354Y-109530593D01*
X116526390Y-109481093D01*
X116526390Y-109419907D01*
X116550541Y-109380496D01*
X116826541Y-109104496D01*
X116881058Y-109076719D01*
X116896545Y-109075500D01*
X125549435Y-109075500D01*
X125549436Y-109075500D01*
X125602445Y-109061296D01*
X125644938Y-109049910D01*
X125730562Y-109000475D01*
X125800475Y-108930562D01*
X125800474Y-108930562D01*
X126600475Y-108130563D01*
X126628763Y-108081566D01*
X126647763Y-108048655D01*
X126693231Y-108007715D01*
X126754081Y-108001318D01*
X126807070Y-108031909D01*
G37*
%TD.AperFunction*%
%TA.AperFunction,Conductor*%
G36*
X98728848Y-120994407D02*
G01*
X98764812Y-121043907D01*
X98764812Y-121105093D01*
X98763415Y-121109096D01*
X98752403Y-121138618D01*
X98752401Y-121138629D01*
X98746000Y-121198175D01*
X98746000Y-121249999D01*
X98746001Y-121250000D01*
X99401000Y-121250000D01*
X99459191Y-121268907D01*
X99495155Y-121318407D01*
X99500000Y-121349000D01*
X99500000Y-121651000D01*
X99481093Y-121709191D01*
X99431593Y-121745155D01*
X99401000Y-121750000D01*
X98746000Y-121750000D01*
X98741221Y-121754779D01*
X98686704Y-121782555D01*
X98626272Y-121772983D01*
X98584328Y-121732220D01*
X98540666Y-121652260D01*
X98513216Y-121601989D01*
X98513215Y-121601988D01*
X98513216Y-121601988D01*
X98354591Y-121390090D01*
X98354589Y-121390088D01*
X98354587Y-121390085D01*
X98167415Y-121202913D01*
X98167411Y-121202910D01*
X98167408Y-121202907D01*
X98101746Y-121153753D01*
X98066493Y-121103745D01*
X98067367Y-121042566D01*
X98104034Y-120993584D01*
X98161075Y-120975500D01*
X98670657Y-120975500D01*
X98728848Y-120994407D01*
G37*
%TD.AperFunction*%
%TA.AperFunction,Conductor*%
G36*
X107970660Y-118985834D02*
G01*
X108004762Y-119030991D01*
X108036963Y-119117329D01*
X108123211Y-119232541D01*
X108123215Y-119232546D01*
X108123218Y-119232548D01*
X108123219Y-119232549D01*
X108127778Y-119235962D01*
X108163031Y-119285971D01*
X108162157Y-119347150D01*
X108138453Y-119385218D01*
X107906185Y-119617489D01*
X107851669Y-119645267D01*
X107836181Y-119646486D01*
X107607332Y-119646486D01*
X107549141Y-119627579D01*
X107513177Y-119578079D01*
X107513177Y-119516893D01*
X107545926Y-119469831D01*
X107549099Y-119467321D01*
X107673080Y-119343340D01*
X107765117Y-119194124D01*
X107818029Y-119034447D01*
X107854280Y-118985157D01*
X107912580Y-118966589D01*
X107970660Y-118985834D01*
G37*
%TD.AperFunction*%
%TA.AperFunction,Conductor*%
G36*
X87047500Y-119626988D02*
G01*
X86990493Y-119594075D01*
X86863326Y-119560000D01*
X86731674Y-119560000D01*
X86604507Y-119594075D01*
X86547500Y-119626988D01*
X86547500Y-117953012D01*
X86604507Y-117985925D01*
X86731674Y-118020000D01*
X86863326Y-118020000D01*
X86990493Y-117985925D01*
X87047500Y-117953012D01*
X87047500Y-119626988D01*
G37*
%TD.AperFunction*%
%TA.AperFunction,Conductor*%
G36*
X96943854Y-112349407D02*
G01*
X96955667Y-112359496D01*
X97545504Y-112949333D01*
X97573281Y-113003850D01*
X97574500Y-113019337D01*
X97574500Y-113251000D01*
X97555593Y-113309191D01*
X97506093Y-113345155D01*
X97475500Y-113350000D01*
X97387501Y-113350000D01*
X97387500Y-113350001D01*
X97387500Y-114051000D01*
X97368593Y-114109191D01*
X97319093Y-114145155D01*
X97288500Y-114150000D01*
X97137501Y-114150000D01*
X97137500Y-114150001D01*
X97137500Y-114301000D01*
X97118593Y-114359191D01*
X97069093Y-114395155D01*
X97038500Y-114400000D01*
X95977704Y-114400000D01*
X95977899Y-114402486D01*
X95977901Y-114402493D01*
X96023719Y-114560200D01*
X96023719Y-114560201D01*
X96107314Y-114701552D01*
X96202469Y-114796707D01*
X96230246Y-114851224D01*
X96230246Y-114882197D01*
X96224500Y-114918477D01*
X96224500Y-115281520D01*
X96230247Y-115317800D01*
X96220675Y-115378232D01*
X96202470Y-115403290D01*
X96107316Y-115498444D01*
X96107315Y-115498446D01*
X96023719Y-115639798D01*
X96023719Y-115639799D01*
X95977901Y-115797506D01*
X95977899Y-115797513D01*
X95977704Y-115800000D01*
X98309125Y-115800000D01*
X98367316Y-115818907D01*
X98379128Y-115828996D01*
X98604160Y-116054027D01*
X98604165Y-116054031D01*
X98689782Y-116103462D01*
X98689780Y-116103462D01*
X98689784Y-116103463D01*
X98689786Y-116103464D01*
X98785287Y-116129053D01*
X98785288Y-116129053D01*
X99274574Y-116129053D01*
X99332765Y-116147960D01*
X99344577Y-116158049D01*
X99424465Y-116237936D01*
X99493870Y-116307341D01*
X99555812Y-116348729D01*
X99653553Y-116368172D01*
X99671365Y-116364628D01*
X99732122Y-116371817D01*
X99760683Y-116391721D01*
X100157482Y-116788519D01*
X100157487Y-116788523D01*
X100243104Y-116837954D01*
X100243102Y-116837954D01*
X100243106Y-116837955D01*
X100243108Y-116837956D01*
X100338609Y-116863545D01*
X100338610Y-116863545D01*
X102266410Y-116863545D01*
X102324601Y-116882452D01*
X102360565Y-116931952D01*
X102360565Y-116993138D01*
X102336414Y-117032549D01*
X100198459Y-119170504D01*
X100143942Y-119198281D01*
X100128455Y-119199500D01*
X98875529Y-119199500D01*
X98817338Y-119180593D01*
X98805525Y-119170504D01*
X98584547Y-118949526D01*
X98584547Y-118949525D01*
X98511737Y-118907488D01*
X98470796Y-118862018D01*
X98464401Y-118801168D01*
X98491234Y-118751748D01*
X98544942Y-118698040D01*
X98544946Y-118698035D01*
X98635451Y-118551306D01*
X98689681Y-118387648D01*
X98700000Y-118286655D01*
X98700000Y-118250001D01*
X98699999Y-118250000D01*
X97761500Y-118250000D01*
X97703309Y-118231093D01*
X97667345Y-118181593D01*
X97662500Y-118151000D01*
X97662500Y-117849000D01*
X97681407Y-117790809D01*
X97730907Y-117754845D01*
X97761500Y-117750000D01*
X98699998Y-117750000D01*
X98699999Y-117749999D01*
X98699999Y-117713345D01*
X98694070Y-117655309D01*
X98706965Y-117595498D01*
X98752554Y-117554690D01*
X98813422Y-117548472D01*
X98863469Y-117577561D01*
X98863519Y-117577505D01*
X98863818Y-117577764D01*
X98866321Y-117579219D01*
X98867336Y-117580370D01*
X98868872Y-117582143D01*
X98934781Y-117624500D01*
X98982720Y-117655309D01*
X98989947Y-117659953D01*
X99096403Y-117691211D01*
X99128035Y-117700499D01*
X99128036Y-117700499D01*
X99128039Y-117700500D01*
X99128041Y-117700500D01*
X99271959Y-117700500D01*
X99271961Y-117700500D01*
X99410053Y-117659953D01*
X99531128Y-117582143D01*
X99625377Y-117473373D01*
X99685165Y-117342457D01*
X99698530Y-117249500D01*
X99705647Y-117200002D01*
X99705647Y-117199997D01*
X99685165Y-117057543D01*
X99655752Y-116993138D01*
X99625377Y-116926627D01*
X99531128Y-116817857D01*
X99531127Y-116817856D01*
X99531126Y-116817855D01*
X99410057Y-116740049D01*
X99410054Y-116740047D01*
X99410053Y-116740047D01*
X99410050Y-116740046D01*
X99271964Y-116699500D01*
X99271961Y-116699500D01*
X99128039Y-116699500D01*
X99128035Y-116699500D01*
X98989949Y-116740046D01*
X98989942Y-116740049D01*
X98868873Y-116817855D01*
X98774622Y-116926628D01*
X98714834Y-117057543D01*
X98694353Y-117199997D01*
X98694353Y-117207081D01*
X98692863Y-117207081D01*
X98683792Y-117259461D01*
X98639908Y-117302097D01*
X98579345Y-117310797D01*
X98526235Y-117283253D01*
X98423035Y-117180053D01*
X98276306Y-117089548D01*
X98112648Y-117035318D01*
X98011655Y-117025000D01*
X97835763Y-117025000D01*
X97777572Y-117006093D01*
X97741608Y-116956593D01*
X97741608Y-116895407D01*
X97777572Y-116845907D01*
X97808143Y-116830931D01*
X97910200Y-116801280D01*
X97910201Y-116801280D01*
X98051552Y-116717685D01*
X98167685Y-116601552D01*
X98251280Y-116460201D01*
X98251280Y-116460200D01*
X98297098Y-116302493D01*
X98297100Y-116302486D01*
X98297296Y-116300000D01*
X97387501Y-116300000D01*
X97387500Y-116300001D01*
X97387500Y-116849999D01*
X97393497Y-116855996D01*
X97421274Y-116910513D01*
X97411703Y-116970945D01*
X97368438Y-117014210D01*
X97323501Y-117025000D01*
X97313345Y-117025000D01*
X97212357Y-117035317D01*
X97212345Y-117035320D01*
X97048693Y-117089548D01*
X96901964Y-117180053D01*
X96780055Y-117301962D01*
X96728433Y-117385653D01*
X96681791Y-117425253D01*
X96620781Y-117429876D01*
X96584844Y-117412932D01*
X96575040Y-117405593D01*
X96545783Y-117383691D01*
X96473776Y-117329786D01*
X96342304Y-117280750D01*
X96342299Y-117280749D01*
X96342297Y-117280748D01*
X96342293Y-117280748D01*
X96314450Y-117277755D01*
X96284174Y-117274500D01*
X96284170Y-117274500D01*
X96237000Y-117274500D01*
X96178809Y-117255593D01*
X96142845Y-117206093D01*
X96138000Y-117175500D01*
X96138000Y-116900561D01*
X96137521Y-116898776D01*
X96137516Y-116898758D01*
X96126467Y-116857526D01*
X96129668Y-116796424D01*
X96168172Y-116748874D01*
X96227272Y-116733037D01*
X96272488Y-116746688D01*
X96364799Y-116801280D01*
X96522510Y-116847100D01*
X96559363Y-116850000D01*
X96887499Y-116850000D01*
X96887500Y-116849999D01*
X96887500Y-116300001D01*
X96887499Y-116300000D01*
X95977704Y-116300000D01*
X95977899Y-116302486D01*
X95977901Y-116302493D01*
X96006227Y-116399993D01*
X96004305Y-116461148D01*
X95966804Y-116509494D01*
X95908048Y-116526564D01*
X95850480Y-116505838D01*
X95841154Y-116497617D01*
X95780518Y-116436981D01*
X95752741Y-116382464D01*
X95760503Y-116333452D01*
X95758238Y-116332716D01*
X95760645Y-116325305D01*
X95760646Y-116325304D01*
X95775500Y-116231519D01*
X95775499Y-115868482D01*
X95768338Y-115823267D01*
X95760647Y-115774700D01*
X95760646Y-115774698D01*
X95760646Y-115774696D01*
X95703050Y-115661658D01*
X95613342Y-115571950D01*
X95500304Y-115514354D01*
X95500305Y-115514354D01*
X95406521Y-115499500D01*
X94318478Y-115499500D01*
X94318476Y-115499501D01*
X94224700Y-115514352D01*
X94224695Y-115514354D01*
X94111659Y-115571949D01*
X94021949Y-115661659D01*
X93964354Y-115774695D01*
X93949500Y-115868477D01*
X93949500Y-116231520D01*
X93949501Y-116231523D01*
X93964352Y-116325299D01*
X93964354Y-116325304D01*
X94021950Y-116438342D01*
X94111658Y-116528050D01*
X94224696Y-116585646D01*
X94318481Y-116600500D01*
X94840954Y-116600499D01*
X94899145Y-116619406D01*
X94910958Y-116629495D01*
X95358004Y-117076541D01*
X95385781Y-117131058D01*
X95387000Y-117146545D01*
X95387000Y-117290878D01*
X95368093Y-117349069D01*
X95347330Y-117370131D01*
X95288885Y-117413883D01*
X95288880Y-117413888D01*
X95204787Y-117526222D01*
X95192153Y-117560097D01*
X95154102Y-117608011D01*
X95099395Y-117624500D01*
X94396545Y-117624500D01*
X94338354Y-117605593D01*
X94326541Y-117595504D01*
X93204500Y-116473463D01*
X93176723Y-116418946D01*
X93175504Y-116403459D01*
X93175504Y-115480950D01*
X93194411Y-115422759D01*
X93208849Y-115406852D01*
X93290487Y-115334530D01*
X93380224Y-115204523D01*
X93436241Y-115056818D01*
X93455282Y-114900000D01*
X93453120Y-114882197D01*
X93440256Y-114776248D01*
X93436241Y-114743182D01*
X93380224Y-114595477D01*
X93325714Y-114516505D01*
X93290488Y-114465471D01*
X93284260Y-114459953D01*
X93172244Y-114360717D01*
X93061193Y-114302432D01*
X93032368Y-114287303D01*
X92878991Y-114249500D01*
X92878989Y-114249500D01*
X92721019Y-114249500D01*
X92721016Y-114249500D01*
X92567639Y-114287303D01*
X92427762Y-114360718D01*
X92309519Y-114465471D01*
X92219784Y-114595476D01*
X92163767Y-114743182D01*
X92163766Y-114743183D01*
X92144726Y-114899998D01*
X92144726Y-114900001D01*
X92163766Y-115056816D01*
X92163767Y-115056818D01*
X92195624Y-115140817D01*
X92219784Y-115204523D01*
X92309519Y-115334528D01*
X92309520Y-115334529D01*
X92309521Y-115334530D01*
X92391153Y-115406848D01*
X92422171Y-115459586D01*
X92424504Y-115480950D01*
X92424504Y-116649442D01*
X92430007Y-116669981D01*
X92450093Y-116744941D01*
X92450095Y-116744945D01*
X92499529Y-116830567D01*
X92499530Y-116830567D01*
X93899525Y-118230562D01*
X93899524Y-118230562D01*
X93938542Y-118269579D01*
X93969438Y-118300475D01*
X94041879Y-118342299D01*
X94055059Y-118349908D01*
X94055062Y-118349910D01*
X94069789Y-118353856D01*
X94150564Y-118375500D01*
X94150565Y-118375500D01*
X95099395Y-118375500D01*
X95157586Y-118394407D01*
X95192153Y-118439903D01*
X95204787Y-118473777D01*
X95242888Y-118524674D01*
X95288884Y-118586116D01*
X95288887Y-118586118D01*
X95288888Y-118586119D01*
X95401223Y-118670213D01*
X95434815Y-118682742D01*
X95482730Y-118720792D01*
X95499128Y-118779739D01*
X95477746Y-118837067D01*
X95426752Y-118870878D01*
X95400219Y-118874500D01*
X92767880Y-118874500D01*
X92709689Y-118855593D01*
X92673725Y-118806093D01*
X92673725Y-118744907D01*
X92693060Y-118710670D01*
X92708952Y-118692329D01*
X92725377Y-118673373D01*
X92785165Y-118542457D01*
X92805647Y-118400000D01*
X92804950Y-118395155D01*
X92785165Y-118257543D01*
X92781720Y-118250000D01*
X92725377Y-118126627D01*
X92631128Y-118017857D01*
X92631127Y-118017856D01*
X92631126Y-118017855D01*
X92510057Y-117940049D01*
X92510054Y-117940047D01*
X92510053Y-117940047D01*
X92505408Y-117938683D01*
X92371964Y-117899500D01*
X92371961Y-117899500D01*
X92228039Y-117899500D01*
X92228035Y-117899500D01*
X92089949Y-117940046D01*
X92089942Y-117940049D01*
X91968873Y-118017855D01*
X91874622Y-118126628D01*
X91865835Y-118145868D01*
X91824461Y-118190944D01*
X91764494Y-118203092D01*
X91708839Y-118177673D01*
X91705779Y-118174742D01*
X90916996Y-117385959D01*
X90889219Y-117331442D01*
X90888000Y-117315955D01*
X90888000Y-116983863D01*
X90883238Y-116966093D01*
X90880781Y-116956924D01*
X90868346Y-116910513D01*
X90865657Y-116900478D01*
X90865657Y-116900477D01*
X90864033Y-116894420D01*
X90862410Y-116888361D01*
X90858998Y-116882452D01*
X90812975Y-116802737D01*
X90743062Y-116732823D01*
X90743062Y-116732824D01*
X90008159Y-115997921D01*
X89980382Y-115943404D01*
X89989953Y-115882972D01*
X90011465Y-115854756D01*
X90154264Y-115724579D01*
X90277173Y-115561821D01*
X90368082Y-115379250D01*
X90374519Y-115356624D01*
X90408629Y-115305830D01*
X90420235Y-115297983D01*
X90450562Y-115280475D01*
X90520475Y-115210562D01*
X92726541Y-113004496D01*
X92781058Y-112976719D01*
X92796545Y-112975500D01*
X93898958Y-112975500D01*
X93957149Y-112994407D01*
X93968955Y-113004490D01*
X94060706Y-113096241D01*
X94176567Y-113155275D01*
X94272693Y-113170500D01*
X94415607Y-113170499D01*
X94473797Y-113189406D01*
X94509761Y-113238906D01*
X94511234Y-113295121D01*
X94505450Y-113316708D01*
X94505450Y-113316709D01*
X94490118Y-113373930D01*
X94490117Y-113373934D01*
X94487000Y-113385565D01*
X94487000Y-113500500D01*
X94468093Y-113558691D01*
X94418593Y-113594655D01*
X94388001Y-113599500D01*
X94318479Y-113599500D01*
X94318476Y-113599501D01*
X94224700Y-113614352D01*
X94224695Y-113614354D01*
X94111659Y-113671949D01*
X94021949Y-113761659D01*
X93964354Y-113874695D01*
X93949500Y-113968477D01*
X93949500Y-114331520D01*
X93949501Y-114331523D01*
X93964352Y-114425299D01*
X93964354Y-114425304D01*
X94021950Y-114538342D01*
X94111658Y-114628050D01*
X94224696Y-114685646D01*
X94318481Y-114700500D01*
X95406518Y-114700499D01*
X95406521Y-114700499D01*
X95406522Y-114700498D01*
X95453411Y-114693072D01*
X95500299Y-114685647D01*
X95500299Y-114685646D01*
X95500304Y-114685646D01*
X95613342Y-114628050D01*
X95703050Y-114538342D01*
X95760646Y-114425304D01*
X95775500Y-114331519D01*
X95775499Y-113968482D01*
X95772843Y-113951709D01*
X95764654Y-113900000D01*
X95977704Y-113900000D01*
X96887499Y-113900000D01*
X96887500Y-113899999D01*
X96887500Y-113350001D01*
X96887499Y-113350000D01*
X96559363Y-113350000D01*
X96522510Y-113352899D01*
X96364799Y-113398719D01*
X96364798Y-113398719D01*
X96223447Y-113482314D01*
X96107314Y-113598447D01*
X96023719Y-113739798D01*
X96023719Y-113739799D01*
X95977901Y-113897506D01*
X95977899Y-113897513D01*
X95977704Y-113900000D01*
X95764654Y-113900000D01*
X95760647Y-113874700D01*
X95760646Y-113874698D01*
X95760646Y-113874696D01*
X95703050Y-113761658D01*
X95613342Y-113671950D01*
X95500304Y-113614354D01*
X95500305Y-113614354D01*
X95445208Y-113605627D01*
X95390691Y-113577849D01*
X95362915Y-113523332D01*
X95372487Y-113462900D01*
X95390688Y-113437847D01*
X95629041Y-113199494D01*
X95683557Y-113171718D01*
X95699044Y-113170499D01*
X95927308Y-113170499D01*
X95947948Y-113167229D01*
X96023433Y-113155275D01*
X96139294Y-113096241D01*
X96231241Y-113004294D01*
X96290275Y-112888433D01*
X96305500Y-112792307D01*
X96305499Y-112429499D01*
X96324406Y-112371309D01*
X96373906Y-112335345D01*
X96404499Y-112330500D01*
X96885663Y-112330500D01*
X96943854Y-112349407D01*
G37*
%TD.AperFunction*%
%TA.AperFunction,Conductor*%
G36*
X107422909Y-116321684D02*
G01*
X107466173Y-116364949D01*
X107476964Y-116409894D01*
X107476964Y-116489363D01*
X107458057Y-116547554D01*
X107447968Y-116559366D01*
X107343529Y-116663805D01*
X107289110Y-116738704D01*
X107263488Y-116817564D01*
X107250886Y-116856349D01*
X107250886Y-116980047D01*
X107255140Y-116993138D01*
X107273571Y-117049865D01*
X107273570Y-117111050D01*
X107237606Y-117160550D01*
X107179415Y-117179457D01*
X107169354Y-117178944D01*
X107130749Y-117175000D01*
X106993262Y-117175000D01*
X106993261Y-117175001D01*
X106993261Y-118301000D01*
X106974354Y-118359191D01*
X106924854Y-118395155D01*
X106894261Y-118400000D01*
X106592261Y-118400000D01*
X106534070Y-118381093D01*
X106498106Y-118331593D01*
X106493261Y-118301000D01*
X106493261Y-117175001D01*
X106493260Y-117175000D01*
X106355774Y-117175000D01*
X106355774Y-117175001D01*
X106253073Y-117185492D01*
X106253061Y-117185495D01*
X106086636Y-117240643D01*
X105937420Y-117332680D01*
X105904059Y-117366041D01*
X105849542Y-117393817D01*
X105789110Y-117384245D01*
X105751740Y-117351037D01*
X105734094Y-117324627D01*
X105717487Y-117265741D01*
X105738665Y-117208337D01*
X105746410Y-117199622D01*
X105762235Y-117183797D01*
X105762238Y-117183792D01*
X106341408Y-116604623D01*
X106395924Y-116576847D01*
X106456356Y-116586418D01*
X106481411Y-116604621D01*
X106494898Y-116618108D01*
X106573635Y-116675315D01*
X106697304Y-116715498D01*
X106697306Y-116715498D01*
X106827335Y-116715498D01*
X106827337Y-116715498D01*
X106951006Y-116675315D01*
X107029743Y-116618110D01*
X107307960Y-116339890D01*
X107362477Y-116312113D01*
X107422909Y-116321684D01*
G37*
%TD.AperFunction*%
%TA.AperFunction,Conductor*%
G36*
X109200002Y-114088190D02*
G01*
X109206490Y-114088190D01*
X109206490Y-114089802D01*
X109258866Y-114099504D01*
X109300988Y-114143883D01*
X109310636Y-114186512D01*
X109310636Y-115801909D01*
X109291729Y-115860100D01*
X109281640Y-115871913D01*
X108892964Y-116260588D01*
X108988900Y-116356525D01*
X109016677Y-116411041D01*
X109012533Y-116458671D01*
X109005421Y-116479389D01*
X109005421Y-116608047D01*
X109047193Y-116729730D01*
X109073866Y-116765500D01*
X109091031Y-116788520D01*
X109092464Y-116790441D01*
X109212698Y-116910675D01*
X109240475Y-116965192D01*
X109241694Y-116980679D01*
X109241694Y-117325500D01*
X109222787Y-117383691D01*
X109173287Y-117419655D01*
X109142694Y-117424500D01*
X108917724Y-117424500D01*
X108859533Y-117405593D01*
X108847720Y-117395504D01*
X108708930Y-117256714D01*
X108681153Y-117202197D01*
X108690724Y-117141765D01*
X108733989Y-117098500D01*
X108754315Y-117090820D01*
X108798096Y-117079579D01*
X108798098Y-117079578D01*
X108931504Y-117006237D01*
X108432637Y-116507369D01*
X108404860Y-116452852D01*
X108414431Y-116392420D01*
X108432638Y-116367361D01*
X108539410Y-116260589D01*
X108432637Y-116153816D01*
X108404860Y-116099299D01*
X108414431Y-116038867D01*
X108432637Y-116013808D01*
X108913321Y-115533123D01*
X108913321Y-115533122D01*
X108907276Y-115527959D01*
X108875308Y-115475789D01*
X108880110Y-115414793D01*
X108901565Y-115382683D01*
X108978983Y-115305266D01*
X108978984Y-115305265D01*
X109028419Y-115219641D01*
X109036875Y-115188083D01*
X109044836Y-115158376D01*
X109049540Y-115140817D01*
X109054009Y-115124139D01*
X109054009Y-115025267D01*
X109054009Y-114181857D01*
X109072916Y-114123666D01*
X109122416Y-114087702D01*
X109165933Y-114083704D01*
X109200002Y-114088190D01*
G37*
%TD.AperFunction*%
%TA.AperFunction,Conductor*%
G36*
X87047500Y-117086988D02*
G01*
X86990493Y-117054075D01*
X86863326Y-117020000D01*
X86731674Y-117020000D01*
X86604507Y-117054075D01*
X86547500Y-117086988D01*
X86547500Y-115413012D01*
X86604507Y-115445925D01*
X86731674Y-115480000D01*
X86863326Y-115480000D01*
X86990493Y-115445925D01*
X87047500Y-115413012D01*
X87047500Y-117086988D01*
G37*
%TD.AperFunction*%
%TA.AperFunction,Conductor*%
G36*
X91126039Y-97963907D02*
G01*
X91162003Y-98013407D01*
X91165948Y-98057317D01*
X91163956Y-98071984D01*
X91198320Y-102436267D01*
X91202179Y-102478533D01*
X91202180Y-102478544D01*
X91209298Y-102518989D01*
X91212356Y-102533791D01*
X91212357Y-102533792D01*
X91253894Y-102624413D01*
X91253895Y-102624415D01*
X91253896Y-102624416D01*
X91294840Y-102681031D01*
X91324711Y-102715409D01*
X91358949Y-102737346D01*
X91397745Y-102784659D01*
X91401321Y-102845740D01*
X91398106Y-102855808D01*
X91371718Y-102925388D01*
X91371716Y-102925392D01*
X91352676Y-103082207D01*
X91352676Y-103082210D01*
X91371716Y-103239025D01*
X91371717Y-103239027D01*
X91401324Y-103317094D01*
X91404280Y-103378207D01*
X91370749Y-103429387D01*
X91366936Y-103432286D01*
X91314397Y-103478540D01*
X91283032Y-103511561D01*
X91237520Y-103600257D01*
X91237518Y-103600262D01*
X91218364Y-103667445D01*
X91208581Y-103739509D01*
X91225217Y-105852101D01*
X91225425Y-105878488D01*
X91225426Y-105878509D01*
X91231469Y-105931754D01*
X91231473Y-105931775D01*
X91242670Y-105982290D01*
X91242673Y-105982303D01*
X91249693Y-106007695D01*
X91252051Y-106013372D01*
X91249653Y-106014367D01*
X91259831Y-106063728D01*
X91243754Y-106107778D01*
X91214036Y-106152254D01*
X91214033Y-106152263D01*
X91199501Y-106225315D01*
X91199500Y-106225327D01*
X91199500Y-106774672D01*
X91199501Y-106774684D01*
X91214033Y-106847736D01*
X91214034Y-106847740D01*
X91246617Y-106896505D01*
X91251820Y-106904291D01*
X91268428Y-106963179D01*
X91264711Y-106986434D01*
X91245041Y-107055428D01*
X91245039Y-107055436D01*
X91235259Y-107127486D01*
X91235471Y-107154273D01*
X91243335Y-108153163D01*
X91243905Y-108225494D01*
X91243990Y-108236283D01*
X91243990Y-108236291D01*
X91249580Y-108287457D01*
X91249582Y-108287469D01*
X91259931Y-108336085D01*
X91266088Y-108359500D01*
X91266088Y-108359501D01*
X91301543Y-108424271D01*
X91313956Y-108446947D01*
X91322963Y-108457701D01*
X91358811Y-108500506D01*
X91358817Y-108500512D01*
X91412969Y-108549052D01*
X91466867Y-108584984D01*
X91626950Y-108691707D01*
X91627035Y-108691763D01*
X91628879Y-108692981D01*
X91629046Y-108693090D01*
X91630621Y-108694121D01*
X91630622Y-108694122D01*
X91652114Y-108704043D01*
X91698520Y-108725465D01*
X91765559Y-108745150D01*
X91805550Y-108750900D01*
X91837540Y-108755500D01*
X91837544Y-108755500D01*
X97748049Y-108755500D01*
X97806240Y-108774407D01*
X97819746Y-108786232D01*
X99364846Y-110408928D01*
X99364847Y-110408930D01*
X99377992Y-110422735D01*
X99551565Y-110605025D01*
X99561973Y-110615955D01*
X99585718Y-110636007D01*
X99604283Y-110651685D01*
X99648607Y-110681536D01*
X99672750Y-110695931D01*
X99768384Y-110724083D01*
X99837972Y-110730358D01*
X99877014Y-110730383D01*
X99883518Y-110730388D01*
X99883518Y-110730387D01*
X99883521Y-110730388D01*
X99883523Y-110730387D01*
X99883525Y-110730387D01*
X99905051Y-110724082D01*
X99979193Y-110702366D01*
X100041126Y-110670022D01*
X100041135Y-110670016D01*
X100041136Y-110670016D01*
X100069700Y-110651685D01*
X100069951Y-110651523D01*
X100129136Y-110636007D01*
X100186138Y-110658242D01*
X100213474Y-110693715D01*
X100266474Y-110809766D01*
X100266476Y-110809769D01*
X100304094Y-110856451D01*
X100858140Y-111410496D01*
X100920493Y-111472848D01*
X100948271Y-111527365D01*
X100938700Y-111587797D01*
X100895435Y-111631062D01*
X100850490Y-111641852D01*
X100675941Y-111641852D01*
X100505350Y-111682282D01*
X100505345Y-111682284D01*
X100348666Y-111760971D01*
X100268611Y-111826185D01*
X100268607Y-111826189D01*
X100074175Y-112020620D01*
X100666376Y-112612821D01*
X101355805Y-111923393D01*
X101313382Y-111880971D01*
X101285604Y-111826455D01*
X101295175Y-111766023D01*
X101338439Y-111722758D01*
X101369294Y-111712975D01*
X101430569Y-111704166D01*
X101506059Y-111693313D01*
X101513085Y-111690104D01*
X101532378Y-111681292D01*
X101592281Y-111674142D01*
X101678148Y-111690731D01*
X101684921Y-111690693D01*
X101743216Y-111709275D01*
X101779455Y-111758573D01*
X101779797Y-111819758D01*
X101775527Y-111830816D01*
X101737002Y-111915176D01*
X101717033Y-112054070D01*
X101717033Y-112054072D01*
X101717033Y-112054074D01*
X101723488Y-112098968D01*
X101737031Y-112193173D01*
X101726596Y-112253462D01*
X101709042Y-112277265D01*
X100913157Y-113073150D01*
X100858640Y-113100927D01*
X100798208Y-113091356D01*
X100773149Y-113073150D01*
X100666376Y-112966377D01*
X100559603Y-113073150D01*
X100505087Y-113100927D01*
X100444655Y-113091355D01*
X100419596Y-113073150D01*
X99720622Y-112374176D01*
X99582922Y-112511877D01*
X99528405Y-112539654D01*
X99467973Y-112530083D01*
X99442914Y-112511877D01*
X97130563Y-110199526D01*
X97130563Y-110199525D01*
X97044941Y-110150091D01*
X97044937Y-110150089D01*
X96993890Y-110136411D01*
X96993889Y-110136411D01*
X96949438Y-110124500D01*
X96949436Y-110124500D01*
X96949435Y-110124500D01*
X92604512Y-110124500D01*
X92546321Y-110105593D01*
X92534508Y-110095504D01*
X90916996Y-108477992D01*
X90889219Y-108423475D01*
X90888000Y-108407988D01*
X90888000Y-106823865D01*
X90874822Y-106774684D01*
X90862410Y-106728361D01*
X90862408Y-106728358D01*
X90862408Y-106728356D01*
X90812975Y-106642737D01*
X90743062Y-106572823D01*
X90743062Y-106572824D01*
X90008159Y-105837921D01*
X89980382Y-105783404D01*
X89989953Y-105722972D01*
X90011465Y-105694756D01*
X90154264Y-105564579D01*
X90277173Y-105401821D01*
X90368082Y-105219250D01*
X90423897Y-105023083D01*
X90442715Y-104820000D01*
X90423897Y-104616917D01*
X90368082Y-104420750D01*
X90277173Y-104238179D01*
X90154264Y-104075421D01*
X90003541Y-103938019D01*
X89830137Y-103830652D01*
X89639956Y-103756976D01*
X89639955Y-103756975D01*
X89639953Y-103756975D01*
X89439476Y-103719500D01*
X89235524Y-103719500D01*
X89035046Y-103756975D01*
X88970743Y-103781886D01*
X88844863Y-103830652D01*
X88671459Y-103938019D01*
X88520737Y-104075420D01*
X88397828Y-104238177D01*
X88397823Y-104238186D01*
X88306919Y-104420747D01*
X88292333Y-104472011D01*
X88258222Y-104522806D01*
X88200769Y-104543850D01*
X88141920Y-104527106D01*
X88104152Y-104478968D01*
X88101485Y-104470541D01*
X88070929Y-104356504D01*
X87971105Y-104142432D01*
X87971101Y-104142424D01*
X87835613Y-103948926D01*
X87668573Y-103781886D01*
X87475076Y-103646398D01*
X87475074Y-103646397D01*
X87460765Y-103639725D01*
X87416016Y-103597997D01*
X87404341Y-103537936D01*
X87430198Y-103482483D01*
X87460765Y-103460275D01*
X87475074Y-103453602D01*
X87475076Y-103453601D01*
X87668573Y-103318113D01*
X87835613Y-103151073D01*
X87971100Y-102957577D01*
X88070930Y-102743490D01*
X88101485Y-102629458D01*
X88134809Y-102578144D01*
X88191930Y-102556217D01*
X88251031Y-102572052D01*
X88289536Y-102619602D01*
X88292329Y-102627978D01*
X88306918Y-102679250D01*
X88397827Y-102861821D01*
X88520736Y-103024579D01*
X88671459Y-103161981D01*
X88844863Y-103269348D01*
X89035044Y-103343024D01*
X89235524Y-103380500D01*
X89439476Y-103380500D01*
X89639956Y-103343024D01*
X89830137Y-103269348D01*
X90003541Y-103161981D01*
X90154264Y-103024579D01*
X90277173Y-102861821D01*
X90368082Y-102679250D01*
X90423897Y-102483083D01*
X90442715Y-102280000D01*
X90423897Y-102076917D01*
X90368082Y-101880750D01*
X90277173Y-101698179D01*
X90154264Y-101535421D01*
X90003541Y-101398019D01*
X89830137Y-101290652D01*
X89639956Y-101216976D01*
X89639955Y-101216975D01*
X89639953Y-101216975D01*
X89439476Y-101179500D01*
X89235524Y-101179500D01*
X89035046Y-101216975D01*
X88970743Y-101241886D01*
X88844863Y-101290652D01*
X88671459Y-101398019D01*
X88520737Y-101535420D01*
X88397828Y-101698177D01*
X88397823Y-101698186D01*
X88306919Y-101880747D01*
X88292333Y-101932011D01*
X88258222Y-101982806D01*
X88200769Y-102003850D01*
X88141920Y-101987106D01*
X88104152Y-101938968D01*
X88101485Y-101930541D01*
X88070929Y-101816504D01*
X87971105Y-101602432D01*
X87971101Y-101602424D01*
X87835613Y-101408926D01*
X87668573Y-101241886D01*
X87475076Y-101106398D01*
X87475074Y-101106397D01*
X87460765Y-101099725D01*
X87416016Y-101057997D01*
X87404341Y-100997936D01*
X87430198Y-100942483D01*
X87460765Y-100920275D01*
X87475074Y-100913602D01*
X87475076Y-100913601D01*
X87668573Y-100778113D01*
X87835613Y-100611073D01*
X87971100Y-100417577D01*
X88070930Y-100203490D01*
X88101485Y-100089458D01*
X88134809Y-100038144D01*
X88191930Y-100016217D01*
X88251031Y-100032052D01*
X88289536Y-100079602D01*
X88292329Y-100087978D01*
X88306918Y-100139250D01*
X88397827Y-100321821D01*
X88520736Y-100484579D01*
X88671459Y-100621981D01*
X88844863Y-100729348D01*
X89035044Y-100803024D01*
X89235524Y-100840500D01*
X89439476Y-100840500D01*
X89639956Y-100803024D01*
X89830137Y-100729348D01*
X90003541Y-100621981D01*
X90154264Y-100484579D01*
X90277173Y-100321821D01*
X90368082Y-100139250D01*
X90423897Y-99943083D01*
X90442715Y-99740000D01*
X90423897Y-99536917D01*
X90368082Y-99340750D01*
X90277173Y-99158179D01*
X90154264Y-98995421D01*
X90003541Y-98858019D01*
X89830137Y-98750652D01*
X89639956Y-98676976D01*
X89639955Y-98676975D01*
X89639953Y-98676975D01*
X89439476Y-98639500D01*
X89235524Y-98639500D01*
X89035046Y-98676975D01*
X88970743Y-98701886D01*
X88844863Y-98750652D01*
X88671459Y-98858019D01*
X88520737Y-98995420D01*
X88397828Y-99158177D01*
X88397823Y-99158186D01*
X88306919Y-99340747D01*
X88292333Y-99392011D01*
X88258222Y-99442806D01*
X88200769Y-99463850D01*
X88141920Y-99447106D01*
X88104152Y-99398968D01*
X88101485Y-99390541D01*
X88070929Y-99276504D01*
X87971105Y-99062432D01*
X87971101Y-99062424D01*
X87835613Y-98868926D01*
X87668573Y-98701886D01*
X87475077Y-98566399D01*
X87260989Y-98466569D01*
X87047500Y-98409364D01*
X87047500Y-99306988D01*
X86990493Y-99274075D01*
X86863326Y-99240000D01*
X86731674Y-99240000D01*
X86604507Y-99274075D01*
X86547500Y-99306988D01*
X86547500Y-98409364D01*
X86334005Y-98466570D01*
X86119932Y-98566394D01*
X86119924Y-98566398D01*
X85926426Y-98701886D01*
X85759386Y-98868926D01*
X85623898Y-99062424D01*
X85623894Y-99062432D01*
X85524070Y-99276505D01*
X85466864Y-99490000D01*
X86364488Y-99490000D01*
X86331575Y-99547007D01*
X86297500Y-99674174D01*
X86297500Y-99805826D01*
X86331575Y-99932993D01*
X86364488Y-99990000D01*
X85466864Y-99990000D01*
X85524069Y-100203489D01*
X85623899Y-100417577D01*
X85759386Y-100611073D01*
X85926426Y-100778113D01*
X86119923Y-100913601D01*
X86119925Y-100913602D01*
X86134235Y-100920275D01*
X86178984Y-100962003D01*
X86190659Y-101022064D01*
X86164802Y-101077517D01*
X86134237Y-101099724D01*
X86119928Y-101106396D01*
X86119924Y-101106398D01*
X85926426Y-101241886D01*
X85759386Y-101408926D01*
X85623898Y-101602424D01*
X85623894Y-101602432D01*
X85524070Y-101816505D01*
X85466864Y-102030000D01*
X86364488Y-102030000D01*
X86331575Y-102087007D01*
X86297500Y-102214174D01*
X86297500Y-102345826D01*
X86331575Y-102472993D01*
X86364488Y-102530000D01*
X85466864Y-102530000D01*
X85524069Y-102743489D01*
X85623899Y-102957577D01*
X85759386Y-103151073D01*
X85926426Y-103318113D01*
X86119923Y-103453601D01*
X86119925Y-103453602D01*
X86134235Y-103460275D01*
X86178984Y-103502003D01*
X86190659Y-103562064D01*
X86164802Y-103617517D01*
X86134237Y-103639724D01*
X86119928Y-103646396D01*
X86119924Y-103646398D01*
X85926426Y-103781886D01*
X85759386Y-103948926D01*
X85623898Y-104142424D01*
X85623894Y-104142432D01*
X85524070Y-104356505D01*
X85466864Y-104570000D01*
X86364488Y-104570000D01*
X86331575Y-104627007D01*
X86297500Y-104754174D01*
X86297500Y-104885826D01*
X86331575Y-105012993D01*
X86364488Y-105070000D01*
X85466864Y-105070000D01*
X85524069Y-105283489D01*
X85623899Y-105497577D01*
X85759386Y-105691073D01*
X85926426Y-105858113D01*
X86119923Y-105993601D01*
X86119925Y-105993602D01*
X86134235Y-106000275D01*
X86178984Y-106042003D01*
X86190659Y-106102064D01*
X86164802Y-106157517D01*
X86134237Y-106179724D01*
X86119928Y-106186396D01*
X86119924Y-106186398D01*
X85926426Y-106321886D01*
X85759386Y-106488926D01*
X85623898Y-106682424D01*
X85623894Y-106682432D01*
X85524070Y-106896505D01*
X85466864Y-107110000D01*
X86364488Y-107110000D01*
X86331575Y-107167007D01*
X86297500Y-107294174D01*
X86297500Y-107425826D01*
X86331575Y-107552993D01*
X86364488Y-107610000D01*
X85466864Y-107610000D01*
X85524069Y-107823489D01*
X85623899Y-108037577D01*
X85759386Y-108231073D01*
X85926426Y-108398113D01*
X86119923Y-108533601D01*
X86119925Y-108533602D01*
X86134235Y-108540275D01*
X86178984Y-108582003D01*
X86190659Y-108642064D01*
X86164802Y-108697517D01*
X86134237Y-108719724D01*
X86119928Y-108726396D01*
X86119924Y-108726398D01*
X85926426Y-108861886D01*
X85759386Y-109028926D01*
X85623898Y-109222424D01*
X85623894Y-109222432D01*
X85524070Y-109436505D01*
X85466864Y-109650000D01*
X86364488Y-109650000D01*
X86331575Y-109707007D01*
X86297500Y-109834174D01*
X86297500Y-109965826D01*
X86331575Y-110092993D01*
X86364488Y-110150000D01*
X85466864Y-110150000D01*
X85524069Y-110363489D01*
X85623899Y-110577577D01*
X85759386Y-110771073D01*
X85926426Y-110938113D01*
X86119923Y-111073601D01*
X86119925Y-111073602D01*
X86134235Y-111080275D01*
X86178984Y-111122003D01*
X86190659Y-111182064D01*
X86164802Y-111237517D01*
X86134237Y-111259724D01*
X86119928Y-111266396D01*
X86119924Y-111266398D01*
X85926426Y-111401886D01*
X85759386Y-111568926D01*
X85623898Y-111762424D01*
X85623894Y-111762432D01*
X85524070Y-111976505D01*
X85466864Y-112190000D01*
X86364488Y-112190000D01*
X86331575Y-112247007D01*
X86297500Y-112374174D01*
X86297500Y-112505826D01*
X86331575Y-112632993D01*
X86364488Y-112690000D01*
X85466864Y-112690000D01*
X85524069Y-112903489D01*
X85623899Y-113117577D01*
X85759386Y-113311073D01*
X85926426Y-113478113D01*
X86119923Y-113613601D01*
X86119925Y-113613602D01*
X86134235Y-113620275D01*
X86178984Y-113662003D01*
X86190659Y-113722064D01*
X86164802Y-113777517D01*
X86134237Y-113799724D01*
X86119928Y-113806396D01*
X86119924Y-113806398D01*
X85926426Y-113941886D01*
X85759386Y-114108926D01*
X85623898Y-114302424D01*
X85623894Y-114302432D01*
X85524070Y-114516505D01*
X85466864Y-114730000D01*
X86364488Y-114730000D01*
X86331575Y-114787007D01*
X86297500Y-114914174D01*
X86297500Y-115045826D01*
X86331575Y-115172993D01*
X86364488Y-115230000D01*
X85466864Y-115230000D01*
X85524069Y-115443489D01*
X85601285Y-115609081D01*
X85608741Y-115669810D01*
X85579078Y-115723324D01*
X85526745Y-115747727D01*
X85526829Y-115748067D01*
X85525104Y-115748491D01*
X85523625Y-115749182D01*
X85523508Y-115749196D01*
X85521022Y-115749498D01*
X85367635Y-115787303D01*
X85227758Y-115860718D01*
X85109515Y-115965471D01*
X85019778Y-116095479D01*
X85019158Y-116096662D01*
X85018559Y-116097246D01*
X85016379Y-116100405D01*
X85015760Y-116099978D01*
X84975371Y-116139399D01*
X84914827Y-116148236D01*
X84860652Y-116119799D01*
X84833538Y-116064949D01*
X84832500Y-116050650D01*
X84832500Y-98044000D01*
X84851407Y-97985809D01*
X84900907Y-97949845D01*
X84931500Y-97945000D01*
X91067848Y-97945000D01*
X91126039Y-97963907D01*
G37*
%TD.AperFunction*%
%TA.AperFunction,Conductor*%
G36*
X87047500Y-114546988D02*
G01*
X86990493Y-114514075D01*
X86863326Y-114480000D01*
X86731674Y-114480000D01*
X86604507Y-114514075D01*
X86547500Y-114546988D01*
X86547500Y-112873012D01*
X86604507Y-112905925D01*
X86731674Y-112940000D01*
X86863326Y-112940000D01*
X86990493Y-112905925D01*
X87047500Y-112873012D01*
X87047500Y-114546988D01*
G37*
%TD.AperFunction*%
%TA.AperFunction,Conductor*%
G36*
X90577760Y-109847154D02*
G01*
X90608614Y-109868080D01*
X91971096Y-111230562D01*
X91971095Y-111230562D01*
X92041009Y-111300475D01*
X92126629Y-111349908D01*
X92126633Y-111349910D01*
X92174383Y-111362705D01*
X92174384Y-111362705D01*
X92222135Y-111375500D01*
X92222136Y-111375500D01*
X96567059Y-111375500D01*
X96625250Y-111394407D01*
X96637063Y-111404496D01*
X96643063Y-111410496D01*
X96670840Y-111465013D01*
X96661269Y-111525445D01*
X96618004Y-111568710D01*
X96573059Y-111579500D01*
X96249435Y-111579500D01*
X95196936Y-111579500D01*
X95098064Y-111579500D01*
X95034396Y-111596559D01*
X95002562Y-111605089D01*
X94944077Y-111638855D01*
X94936489Y-111643237D01*
X94916934Y-111654527D01*
X94570956Y-112000504D01*
X94516440Y-112028281D01*
X94500953Y-112029500D01*
X94272690Y-112029500D01*
X94176567Y-112044725D01*
X94176560Y-112044727D01*
X94060708Y-112103757D01*
X94060706Y-112103758D01*
X94060706Y-112103759D01*
X93968959Y-112195505D01*
X93914445Y-112223281D01*
X93898958Y-112224500D01*
X92649436Y-112224500D01*
X92550564Y-112224500D01*
X92527394Y-112230708D01*
X92504223Y-112236917D01*
X92504222Y-112236916D01*
X92455062Y-112250089D01*
X92455058Y-112250091D01*
X92369436Y-112299525D01*
X92369437Y-112299526D01*
X90354870Y-114314091D01*
X90300353Y-114341868D01*
X90239921Y-114332297D01*
X90205863Y-114303749D01*
X90154264Y-114235421D01*
X90003541Y-114098019D01*
X89830137Y-113990652D01*
X89639956Y-113916976D01*
X89639955Y-113916975D01*
X89639953Y-113916975D01*
X89439476Y-113879500D01*
X89235524Y-113879500D01*
X89035046Y-113916975D01*
X89025947Y-113920500D01*
X88844863Y-113990652D01*
X88689116Y-114087086D01*
X88629688Y-114101644D01*
X88573053Y-114078490D01*
X88540843Y-114026469D01*
X88538000Y-114002914D01*
X88538000Y-113811543D01*
X88556907Y-113753352D01*
X88566990Y-113741546D01*
X88823991Y-113484544D01*
X88878506Y-113456768D01*
X88929752Y-113462233D01*
X89035044Y-113503024D01*
X89235524Y-113540500D01*
X89439476Y-113540500D01*
X89639956Y-113503024D01*
X89830137Y-113429348D01*
X90003541Y-113321981D01*
X90154264Y-113184579D01*
X90277173Y-113021821D01*
X90368082Y-112839250D01*
X90423897Y-112643083D01*
X90442715Y-112440000D01*
X90423897Y-112236917D01*
X90368082Y-112040750D01*
X90277173Y-111858179D01*
X90154264Y-111695421D01*
X90003541Y-111558019D01*
X89830137Y-111450652D01*
X89639956Y-111376976D01*
X89639955Y-111376975D01*
X89639953Y-111376975D01*
X89439476Y-111339500D01*
X89235524Y-111339500D01*
X89035046Y-111376975D01*
X88970743Y-111401886D01*
X88844863Y-111450652D01*
X88746519Y-111511544D01*
X88671459Y-111558019D01*
X88554664Y-111664492D01*
X88520736Y-111695421D01*
X88494323Y-111730397D01*
X88397828Y-111858177D01*
X88397823Y-111858186D01*
X88306919Y-112040747D01*
X88306918Y-112040750D01*
X88297458Y-112074000D01*
X88292333Y-112092011D01*
X88258222Y-112142806D01*
X88200769Y-112163850D01*
X88141920Y-112147106D01*
X88104152Y-112098968D01*
X88101485Y-112090541D01*
X88070929Y-111976504D01*
X87971105Y-111762432D01*
X87971101Y-111762424D01*
X87835613Y-111568926D01*
X87668573Y-111401886D01*
X87475076Y-111266398D01*
X87475074Y-111266397D01*
X87460765Y-111259725D01*
X87416016Y-111217997D01*
X87404341Y-111157936D01*
X87430198Y-111102483D01*
X87460765Y-111080275D01*
X87475074Y-111073602D01*
X87475076Y-111073601D01*
X87668573Y-110938113D01*
X87835613Y-110771073D01*
X87971100Y-110577577D01*
X88070930Y-110363490D01*
X88101485Y-110249458D01*
X88134809Y-110198144D01*
X88191930Y-110176217D01*
X88251031Y-110192052D01*
X88289536Y-110239602D01*
X88292329Y-110247978D01*
X88306918Y-110299250D01*
X88397827Y-110481821D01*
X88520736Y-110644579D01*
X88671459Y-110781981D01*
X88844863Y-110889348D01*
X89035044Y-110963024D01*
X89235524Y-111000500D01*
X89439476Y-111000500D01*
X89639956Y-110963024D01*
X89830137Y-110889348D01*
X90003541Y-110781981D01*
X90154264Y-110644579D01*
X90277173Y-110481821D01*
X90368082Y-110299250D01*
X90423897Y-110103083D01*
X90440032Y-109928948D01*
X90464228Y-109872752D01*
X90516835Y-109841508D01*
X90577760Y-109847154D01*
G37*
%TD.AperFunction*%
%TA.AperFunction,Conductor*%
G36*
X103530396Y-111599216D02*
G01*
X103569592Y-111617117D01*
X103626788Y-111643238D01*
X103765683Y-111663207D01*
X103772766Y-111663207D01*
X103772766Y-111664690D01*
X103825158Y-111673752D01*
X103867804Y-111717626D01*
X103876518Y-111778188D01*
X103872777Y-111785278D01*
X103866996Y-111825894D01*
X104365865Y-112324763D01*
X104393642Y-112379280D01*
X104384071Y-112439712D01*
X104365865Y-112464770D01*
X104259092Y-112571543D01*
X104259092Y-112571544D01*
X104365865Y-112678318D01*
X104393642Y-112732834D01*
X104384070Y-112793266D01*
X104365865Y-112818325D01*
X103871598Y-113312590D01*
X103867376Y-113327558D01*
X103855068Y-113342554D01*
X103230371Y-113967254D01*
X103175854Y-113995032D01*
X103160367Y-113996251D01*
X103116824Y-113996251D01*
X103058633Y-113977344D01*
X103046821Y-113967255D01*
X102550904Y-113471340D01*
X102504225Y-113433723D01*
X102504215Y-113433717D01*
X102373307Y-113373933D01*
X102230853Y-113353452D01*
X102230847Y-113353452D01*
X102088393Y-113373933D01*
X102088391Y-113373933D01*
X102004572Y-113412213D01*
X101943786Y-113419188D01*
X101890509Y-113389101D01*
X101865091Y-113333445D01*
X101874976Y-113277729D01*
X101950469Y-113127408D01*
X101950471Y-113127403D01*
X101990902Y-112956812D01*
X101990902Y-112781485D01*
X101990233Y-112775763D01*
X101992540Y-112775493D01*
X101996724Y-112724120D01*
X102036586Y-112677702D01*
X102096119Y-112663580D01*
X102152584Y-112687147D01*
X102158075Y-112692236D01*
X102233861Y-112768022D01*
X102233866Y-112768026D01*
X102233870Y-112768030D01*
X102263999Y-112792308D01*
X102279381Y-112804703D01*
X102279382Y-112804703D01*
X102279386Y-112804706D01*
X102407026Y-112862997D01*
X102545923Y-112882967D01*
X102545926Y-112882967D01*
X102545929Y-112882967D01*
X102684822Y-112862998D01*
X102684823Y-112862997D01*
X102684826Y-112862997D01*
X102812471Y-112804703D01*
X102857990Y-112768022D01*
X103230887Y-112395124D01*
X103285402Y-112367349D01*
X103345834Y-112376920D01*
X103389099Y-112420185D01*
X103399889Y-112465130D01*
X103399889Y-112631184D01*
X103440101Y-112787801D01*
X103518001Y-112929502D01*
X103518003Y-112929505D01*
X103531625Y-112945454D01*
X103531626Y-112945454D01*
X103905538Y-112571543D01*
X103478464Y-112144469D01*
X103481360Y-112141572D01*
X103458651Y-112118126D01*
X103449575Y-112060505D01*
X103463207Y-111965688D01*
X103463207Y-111965682D01*
X103443238Y-111826788D01*
X103413847Y-111762432D01*
X103399216Y-111730396D01*
X103392242Y-111669610D01*
X103422328Y-111616333D01*
X103477984Y-111590915D01*
X103530396Y-111599216D01*
G37*
%TD.AperFunction*%
%TA.AperFunction,Conductor*%
G36*
X87047500Y-112006988D02*
G01*
X86990493Y-111974075D01*
X86863326Y-111940000D01*
X86731674Y-111940000D01*
X86604507Y-111974075D01*
X86547500Y-112006988D01*
X86547500Y-110333012D01*
X86604507Y-110365925D01*
X86731674Y-110400000D01*
X86863326Y-110400000D01*
X86990493Y-110365925D01*
X87047500Y-110333012D01*
X87047500Y-112006988D01*
G37*
%TD.AperFunction*%
%TA.AperFunction,Conductor*%
G36*
X109654166Y-110273932D02*
G01*
X109690130Y-110323432D01*
X109694975Y-110354025D01*
X109694975Y-110405025D01*
X109675084Y-110405025D01*
X109638330Y-110420249D01*
X109610199Y-110448380D01*
X109594975Y-110485134D01*
X109594975Y-110524916D01*
X109610199Y-110561670D01*
X109638330Y-110589801D01*
X109675084Y-110605025D01*
X109714866Y-110605025D01*
X109751620Y-110589801D01*
X109779751Y-110561670D01*
X109794975Y-110524916D01*
X109794975Y-110505025D01*
X109845975Y-110505025D01*
X109904166Y-110523932D01*
X109940130Y-110573432D01*
X109944975Y-110604025D01*
X109944975Y-111395975D01*
X109926068Y-111454166D01*
X109876568Y-111490130D01*
X109845975Y-111494975D01*
X109794975Y-111494975D01*
X109794975Y-111475084D01*
X109779751Y-111438330D01*
X109751620Y-111410199D01*
X109714866Y-111394975D01*
X109675084Y-111394975D01*
X109638330Y-111410199D01*
X109610199Y-111438330D01*
X109594975Y-111475084D01*
X109594975Y-111514866D01*
X109610199Y-111551620D01*
X109638330Y-111579751D01*
X109675084Y-111594975D01*
X109694975Y-111594975D01*
X109694975Y-111645975D01*
X109676068Y-111704166D01*
X109626568Y-111740130D01*
X109595975Y-111744975D01*
X108804025Y-111744975D01*
X108745834Y-111726068D01*
X108709870Y-111676568D01*
X108705025Y-111645975D01*
X108705025Y-111594975D01*
X108724916Y-111594975D01*
X108761670Y-111579751D01*
X108789801Y-111551620D01*
X108805025Y-111514866D01*
X108805025Y-111475084D01*
X108789801Y-111438330D01*
X108761670Y-111410199D01*
X108724916Y-111394975D01*
X108685134Y-111394975D01*
X108648380Y-111410199D01*
X108620249Y-111438330D01*
X108605025Y-111475084D01*
X108605025Y-111494975D01*
X108554025Y-111494975D01*
X108495834Y-111476068D01*
X108459870Y-111426568D01*
X108455025Y-111395975D01*
X108455025Y-110755026D01*
X108955025Y-110755026D01*
X108955025Y-111244974D01*
X108955026Y-111244975D01*
X109444974Y-111244975D01*
X109444975Y-111244974D01*
X109444975Y-110755026D01*
X109444974Y-110755025D01*
X108955026Y-110755025D01*
X108955025Y-110755026D01*
X108455025Y-110755026D01*
X108455025Y-110604025D01*
X108473932Y-110545834D01*
X108523432Y-110509870D01*
X108554025Y-110505025D01*
X108605025Y-110505025D01*
X108605025Y-110524916D01*
X108620249Y-110561670D01*
X108648380Y-110589801D01*
X108685134Y-110605025D01*
X108724916Y-110605025D01*
X108761670Y-110589801D01*
X108789801Y-110561670D01*
X108805025Y-110524916D01*
X108805025Y-110485134D01*
X108789801Y-110448380D01*
X108761670Y-110420249D01*
X108724916Y-110405025D01*
X108705025Y-110405025D01*
X108705025Y-110354025D01*
X108723932Y-110295834D01*
X108773432Y-110259870D01*
X108804025Y-110255025D01*
X109595975Y-110255025D01*
X109654166Y-110273932D01*
G37*
%TD.AperFunction*%
%TA.AperFunction,Conductor*%
G36*
X106071679Y-110908271D02*
G01*
X106107643Y-110957771D01*
X106110925Y-110993511D01*
X106111810Y-110993511D01*
X106111810Y-110999999D01*
X106131142Y-111146841D01*
X106187821Y-111283675D01*
X106187823Y-111283678D01*
X106244817Y-111357955D01*
X106265241Y-111415631D01*
X106247863Y-111474297D01*
X106199321Y-111511544D01*
X106166275Y-111517222D01*
X105353661Y-111517222D01*
X105295470Y-111498315D01*
X105283658Y-111488226D01*
X105171091Y-111375660D01*
X105096196Y-111321245D01*
X105096194Y-111321244D01*
X104978550Y-111283019D01*
X104854852Y-111283019D01*
X104839396Y-111288041D01*
X104737205Y-111321244D01*
X104662310Y-111375659D01*
X104420854Y-111617116D01*
X104381317Y-111671533D01*
X104331816Y-111707496D01*
X104301225Y-111712341D01*
X104152678Y-111712341D01*
X104094487Y-111693434D01*
X104058523Y-111643934D01*
X104058523Y-111582748D01*
X104082672Y-111543339D01*
X104568022Y-111057990D01*
X104604703Y-111012471D01*
X104634494Y-110947237D01*
X104675867Y-110902160D01*
X104724548Y-110889364D01*
X106013488Y-110889364D01*
X106071679Y-110908271D01*
G37*
%TD.AperFunction*%
%TA.AperFunction,Conductor*%
G36*
X87047500Y-109466988D02*
G01*
X86990493Y-109434075D01*
X86863326Y-109400000D01*
X86731674Y-109400000D01*
X86604507Y-109434075D01*
X86547500Y-109466988D01*
X86547500Y-107793012D01*
X86604507Y-107825925D01*
X86731674Y-107860000D01*
X86863326Y-107860000D01*
X86990493Y-107825925D01*
X87047500Y-107793012D01*
X87047500Y-109466988D01*
G37*
%TD.AperFunction*%
%TA.AperFunction,Conductor*%
G36*
X109259630Y-107407875D02*
G01*
X109329432Y-107425079D01*
X109351735Y-107433537D01*
X109415394Y-107466949D01*
X109435029Y-107480502D01*
X109488837Y-107528171D01*
X109504656Y-107546027D01*
X109545496Y-107605193D01*
X109556584Y-107626321D01*
X109582076Y-107693537D01*
X109587788Y-107716710D01*
X109597568Y-107797258D01*
X109597572Y-107797279D01*
X109614096Y-107861655D01*
X109615103Y-107864729D01*
X109613571Y-107865230D01*
X109617317Y-107920396D01*
X109584788Y-107972218D01*
X109528012Y-107995024D01*
X109483421Y-107987715D01*
X109346842Y-107931143D01*
X109346843Y-107931143D01*
X109200000Y-107911810D01*
X109053156Y-107931143D01*
X108916086Y-107987919D01*
X108855089Y-107992720D01*
X108802920Y-107960750D01*
X108779506Y-107904222D01*
X108782622Y-107870656D01*
X108802427Y-107797281D01*
X108802426Y-107797281D01*
X108802429Y-107797274D01*
X108812211Y-107716707D01*
X108817919Y-107693546D01*
X108843416Y-107626315D01*
X108854501Y-107605195D01*
X108895341Y-107546028D01*
X108911163Y-107528171D01*
X108911166Y-107528169D01*
X108938066Y-107504336D01*
X108964970Y-107480502D01*
X108984607Y-107466946D01*
X109048259Y-107433538D01*
X109070571Y-107425077D01*
X109140365Y-107407876D01*
X109164055Y-107405000D01*
X109235946Y-107405000D01*
X109259630Y-107407875D01*
G37*
%TD.AperFunction*%
%TA.AperFunction,Conductor*%
G36*
X87047500Y-106926988D02*
G01*
X86990493Y-106894075D01*
X86863326Y-106860000D01*
X86731674Y-106860000D01*
X86604507Y-106894075D01*
X86547500Y-106926988D01*
X86547500Y-105253012D01*
X86604507Y-105285925D01*
X86731674Y-105320000D01*
X86863326Y-105320000D01*
X86990493Y-105285925D01*
X87047500Y-105253012D01*
X87047500Y-106926988D01*
G37*
%TD.AperFunction*%
%TA.AperFunction,Conductor*%
G36*
X87047500Y-104386988D02*
G01*
X86990493Y-104354075D01*
X86863326Y-104320000D01*
X86731674Y-104320000D01*
X86604507Y-104354075D01*
X86547500Y-104386988D01*
X86547500Y-102713012D01*
X86604507Y-102745925D01*
X86731674Y-102780000D01*
X86863326Y-102780000D01*
X86990493Y-102745925D01*
X87047500Y-102713012D01*
X87047500Y-104386988D01*
G37*
%TD.AperFunction*%
%TA.AperFunction,Conductor*%
G36*
X87047500Y-101846988D02*
G01*
X86990493Y-101814075D01*
X86863326Y-101780000D01*
X86731674Y-101780000D01*
X86604507Y-101814075D01*
X86547500Y-101846988D01*
X86547500Y-100173012D01*
X86604507Y-100205925D01*
X86731674Y-100240000D01*
X86863326Y-100240000D01*
X86990493Y-100205925D01*
X87047500Y-100173012D01*
X87047500Y-101846988D01*
G37*
%TD.AperFunction*%
%TD*%
M02*
